<svg width="704" height="390" viewBox="0 0 704 390" fill="none" xmlns="http://www.w3.org/2000/svg">
<g clip-path="url(#clip0_184_20785)">
<path d="M507.477 37.9242V114.95H459.79V14.0818H483.632C496.811 14.0818 507.477 24.7468 507.477 37.9242Z" fill="#BDBDBD"/>
<path d="M536.699 141.626H166.827C160.67 141.626 155.68 146.616 155.68 152.773V367.865C155.68 374.021 160.67 379.012 166.827 379.012H536.697C542.854 379.012 547.844 374.021 547.844 367.865V152.773C547.846 146.618 542.854 141.626 536.699 141.626Z" fill="#424242"/>
<path d="M528.007 173.701H175.521V359.456H528.007V173.701Z" fill="#FFA726"/>
<path d="M355.338 152.482C355.338 154.457 353.738 156.058 351.761 156.058C349.786 156.058 348.186 154.457 348.186 152.482C348.186 150.507 349.786 148.905 351.761 148.905C353.738 148.905 355.338 150.507 355.338 152.482Z" fill="#212121"/>
<path d="M582.941 390H120.585C117.385 390 114.79 387.405 114.79 384.205V375.01H588.736V384.205C588.736 387.405 586.141 390 582.941 390Z" fill="#EEEEEE"/>
<path d="M404.928 365.563H298.599V368.905H404.928V365.563Z" fill="#EEEEEE"/>
<path d="M528.007 161.182H175.521V173.702H528.007V161.182Z" fill="#EEEEEE"/>
<path d="M528.005 161.182H478.04V173.702H528.005V161.182Z" fill="#E0E0E0"/>
<path d="M186.853 167.442C186.853 168.597 185.916 169.532 184.763 169.532C183.608 169.532 182.673 168.595 182.673 167.442C182.673 166.287 183.608 165.352 184.763 165.352C185.918 165.352 186.853 166.287 186.853 167.442Z" fill="#EF5350"/>
<path d="M197.409 167.442C197.409 168.597 196.472 169.532 195.319 169.532C194.164 169.532 193.229 168.595 193.229 167.442C193.229 166.287 194.166 165.352 195.319 165.352C196.472 165.352 197.409 166.287 197.409 167.442Z" fill="#BDBDBD"/>
<path d="M207.963 167.442C207.963 168.597 207.026 169.532 205.873 169.532C204.718 169.532 203.783 168.595 203.783 167.442C203.783 166.287 204.72 165.352 205.873 165.352C207.028 165.352 207.963 166.287 207.963 167.442Z" fill="#BDBDBD"/>
<path d="M231.316 260.32H61.7959V365.76H231.316V260.32Z" fill="white"/>
<path d="M231.316 245.556H61.7959V260.32H231.316V245.556Z" fill="#EEEEEE"/>
<path d="M75.1627 252.938C75.1627 254.299 74.0595 255.404 72.6962 255.404C71.3349 255.404 70.2317 254.301 70.2317 252.938C70.2317 251.577 71.3349 250.473 72.6962 250.473C74.0595 250.473 75.1627 251.577 75.1627 252.938Z" fill="#EF5350"/>
<path d="M87.6117 252.938C87.6117 254.299 86.5085 255.404 85.1472 255.404C83.7858 255.404 82.6826 254.301 82.6826 252.938C82.6826 251.577 83.7858 250.473 85.1472 250.473C86.5085 250.473 87.6117 251.577 87.6117 252.938Z" fill="#BDBDBD"/>
<path d="M100.06 252.938C100.06 254.299 98.9572 255.404 97.5959 255.404C96.2346 255.404 95.1313 254.301 95.1313 252.938C95.1313 251.577 96.2346 250.473 97.5959 250.473C98.9553 250.473 100.06 251.577 100.06 252.938Z" fill="#BDBDBD"/>
<path d="M194.007 282.839H99.1024C97.7468 282.839 96.6475 283.939 96.6475 285.294V340.784C96.6475 342.139 97.7468 343.241 99.1024 343.241H194.007C195.365 343.241 196.464 342.141 196.464 340.784V285.294C196.464 283.939 195.365 282.839 194.007 282.839Z" fill="#FFCA28"/>
<path d="M195.74 283.566L146.558 332.857L97.3682 283.566C97.3892 283.539 97.416 283.512 97.4427 283.491C97.8825 283.093 98.4561 282.843 99.1043 282.843H194.011C194.654 282.843 195.233 283.086 195.665 283.491C195.692 283.512 195.719 283.539 195.74 283.566Z" fill="#FFB300"/>
<path d="M195.665 283.491L146.558 323.44L97.4429 283.491C97.8826 283.093 98.4562 282.843 99.1044 282.843H194.011C194.652 282.843 195.233 283.086 195.665 283.491Z" fill="#FFD54F"/>
<path d="M210.938 282.839C210.938 290.832 204.458 297.313 196.464 297.313C188.47 297.313 181.991 290.833 181.991 282.839C181.991 274.845 188.47 268.366 196.464 268.366C204.458 268.366 210.938 274.845 210.938 282.839Z" fill="#EF5350"/>
<path d="M200.357 291.407H196.394V278.272H192.572V275.473L200.357 274.274V291.407Z" fill="white"/>
<path d="M685.526 96.9604H504.253V200.374H685.526V96.9604Z" fill="white"/>
<path d="M671.537 186.387V110.948L518.24 110.948V186.387L671.537 186.387Z" fill="#4DD0E1"/>
<path d="M685.526 82.1941H504.253V96.9584H685.526V82.1941Z" fill="#EEEEEE"/>
<path d="M517.62 89.5783C517.62 90.9396 516.517 92.0428 515.155 92.0428C513.794 92.0428 512.691 90.9396 512.691 89.5783C512.691 88.2169 513.794 87.1118 515.155 87.1118C516.517 87.1118 517.62 88.215 517.62 89.5783Z" fill="#EF5350"/>
<path d="M530.069 89.5783C530.069 90.9396 528.966 92.0428 527.602 92.0428C526.241 92.0428 525.138 90.9396 525.138 89.5783C525.138 88.2169 526.241 87.1118 527.602 87.1118C528.966 87.1118 530.069 88.215 530.069 89.5783Z" fill="#BDBDBD"/>
<path d="M542.518 89.5783C542.518 90.9396 541.414 92.0428 540.053 92.0428C538.692 92.0428 537.589 90.9396 537.589 89.5783C537.589 88.2169 538.692 87.1118 540.053 87.1118C541.413 87.1118 542.518 88.215 542.518 89.5783Z" fill="#BDBDBD"/>
<path d="M671.532 166.813V186.38H610.904L651.841 148.66L671.532 166.813Z" fill="#388E3C"/>
<path d="M629.492 186.38H518.245V166.813L563.253 125.363L629.492 186.38Z" fill="#42A047"/>
<path d="M151.437 179.588V124.852H18V212.404H124.201H151.437H182.119L151.437 179.588Z" fill="white"/>
<path d="M58.4515 168.629C58.4515 172.742 55.117 176.076 51.0063 176.076C46.8936 176.076 43.561 172.742 43.561 168.629C43.561 164.518 46.8936 161.184 51.0063 161.184C55.117 161.182 58.4515 164.516 58.4515 168.629Z" fill="#BDBDBD"/>
<path d="M92.1639 168.629C92.1639 172.742 88.8294 176.076 84.7167 176.076C80.6041 176.076 77.2715 172.742 77.2715 168.629C77.2715 164.518 80.6041 161.184 84.7167 161.184C88.8313 161.182 92.1639 164.516 92.1639 168.629Z" fill="#BDBDBD"/>
<path d="M125.878 168.629C125.878 172.742 122.543 176.076 118.43 176.076C114.318 176.076 110.985 172.742 110.985 168.629C110.985 164.518 114.32 161.184 118.43 161.184C122.543 161.182 125.878 164.516 125.878 168.629Z" fill="#BDBDBD"/>
<path d="M459.79 14.0817H446.44H267.578C254.401 14.0817 243.734 24.7468 243.734 37.9261V359.458H459.79V37.9241C459.79 24.7468 470.474 14.0798 483.632 14.0798L459.79 14.0817Z" fill="white"/>
<path d="M438.402 67.3132H265.124V96.0656H438.402V67.3132Z" fill="#EF5350"/>
<path d="M85.1448 23.0144V72.3894H110.234L122.358 87.1116L134.48 72.3894H159.569V23.0144H85.1448Z" fill="white"/>
<path d="M134.386 36.9183C131.065 33.5972 125.679 33.5972 122.356 36.9183C119.035 33.5972 113.649 33.5972 110.326 36.9183C107.004 40.2394 107.004 45.6255 110.326 48.9485L122.356 60.9787L134.386 48.9485C137.709 45.6255 137.709 40.2394 134.386 36.9183Z" fill="#EF5350"/>
<path d="M530.069 26.8042V76.1792H555.156L567.28 90.9014L579.403 76.1792H604.491V26.8042H530.069Z" fill="white"/>
<path d="M579.31 40.7081C575.989 37.387 570.603 37.387 567.28 40.7081C563.958 37.387 558.572 37.387 555.249 40.7081C551.928 44.0292 551.928 49.4153 555.249 52.7383L567.28 64.7685L579.31 52.7383C582.631 49.4153 582.631 44.0292 579.31 40.7081Z" fill="#EF5350"/>
<path d="M211.464 26.7485C207.391 26.7485 204.091 30.0505 204.091 34.1211C204.091 38.1936 207.393 41.4937 211.466 41.4937C215.538 41.4937 218.838 38.1917 218.838 34.1211C218.838 30.0505 215.536 26.7485 211.464 26.7485Z" fill="white"/>
<path d="M214.674 19.1808C215.085 18.7698 215.337 18.2038 215.337 17.5767C215.337 16.3243 214.322 15.3091 213.07 15.3091C207.615 15.3091 202.487 17.4333 198.631 21.2898C194.774 25.1462 192.65 30.2742 192.65 35.7271C192.65 36.9795 193.665 37.9966 194.917 37.9947C196.172 37.9947 197.187 36.9795 197.185 35.7271C197.185 31.4844 198.837 27.496 201.837 24.4981C204.837 21.4982 208.825 19.8462 213.068 19.8462C213.695 19.8462 214.263 19.5919 214.674 19.1808Z" fill="white"/>
<path d="M213.068 9.07033C213.695 9.07033 214.261 8.81604 214.672 8.40497C215.083 7.99389 215.337 7.42795 215.337 6.80082C215.337 5.54656 214.322 4.5332 213.068 4.5332C195.87 4.5332 181.876 18.5251 181.874 35.7272C181.874 36.9814 182.889 37.9967 184.142 37.9967C185.394 37.9967 186.411 36.9814 186.411 35.7272C186.413 21.0279 198.371 9.07033 213.068 9.07033Z" fill="white"/>
<path d="M634.143 53.6521C638.216 53.6521 641.516 56.9541 641.516 61.0247C641.516 65.0972 638.214 68.3973 634.141 68.3973C630.069 68.3973 626.769 65.0953 626.769 61.0247C626.769 56.9541 630.071 53.6521 634.143 53.6521Z" fill="white"/>
<path d="M630.933 46.0844C630.522 45.6733 630.27 45.1074 630.27 44.4802C630.27 43.2279 631.285 42.2126 632.537 42.2126C637.992 42.2126 643.12 44.3369 646.977 48.1933C650.833 52.0498 652.957 57.1777 652.957 62.6307C652.957 63.883 651.942 64.9002 650.688 64.8983C649.435 64.8983 648.418 63.883 648.42 62.6288C648.42 58.3861 646.768 54.3996 643.768 51.3997C640.768 48.3998 636.78 46.7479 632.539 46.7479C631.912 46.7498 631.344 46.4955 630.933 46.0844Z" fill="white"/>
<path d="M632.539 35.9739C631.912 35.9739 631.346 35.7196 630.935 35.3105C630.524 34.8994 630.27 34.3335 630.27 33.7063C630.27 32.4521 631.285 31.4387 632.539 31.4387C649.738 31.4387 663.731 45.4325 663.733 62.6327C663.733 63.8869 662.718 64.9003 661.466 64.9003C660.213 64.9003 659.196 63.885 659.196 62.6327C659.194 47.9315 647.237 35.9739 632.539 35.9739Z" fill="white"/>
<path d="M219.033 76.4733H214.98V72.418C214.98 71.1026 213.915 70.0376 212.599 70.0376C211.284 70.0376 210.219 71.1026 210.219 72.418V76.4733H206.166C204.85 76.4733 203.785 77.5383 203.785 78.8537C203.785 80.1692 204.85 81.2341 206.166 81.2341H210.219V85.2895C210.219 86.6049 211.284 87.6699 212.599 87.6699C213.915 87.6699 214.98 86.6049 214.98 85.2895V81.2341H219.033C220.349 81.2341 221.414 80.1692 221.414 78.8537C221.412 77.5383 220.347 76.4733 219.033 76.4733Z" fill="white"/>
<path d="M52.2036 230.451H48.1502V226.397C48.1502 225.082 47.0852 224.017 45.7698 224.017C44.4543 224.017 43.3893 225.082 43.3893 226.397V230.451H39.334C38.0186 230.451 36.9536 231.516 36.9536 232.831C36.9536 234.147 38.0186 235.212 39.334 235.212H43.3893V239.265C43.3893 240.581 44.4543 241.646 45.7698 241.646C47.0852 241.646 48.1502 240.581 48.1502 239.265V235.212H52.2036C53.519 235.212 54.584 234.147 54.584 232.831C54.584 231.518 53.5171 230.451 52.2036 230.451Z" fill="white"/>
<path d="M657.066 239.267H653.013V235.212C653.013 233.897 651.948 232.832 650.633 232.832C649.317 232.832 648.252 233.897 648.252 235.212V239.267H644.197C642.881 239.267 641.816 240.332 641.816 241.648C641.816 242.963 642.881 244.028 644.197 244.028H648.252V248.081C648.252 249.397 649.317 250.462 650.633 250.462C651.948 250.462 653.013 249.397 653.013 248.081V244.028H657.066C658.382 244.028 659.447 242.963 659.447 241.648C659.447 240.332 658.382 239.267 657.066 239.267Z" fill="white"/>
<path d="M175.521 113.143C178.766 113.143 181.396 110.513 181.396 107.268C181.396 104.023 178.766 101.392 175.521 101.392C172.276 101.392 169.645 104.023 169.645 107.268C169.645 110.513 172.276 113.143 175.521 113.143Z" fill="white"/>
<path d="M528.005 11.751C531.25 11.751 533.881 9.12048 533.881 5.87553C533.881 2.63057 531.25 0 528.005 0C524.76 0 522.13 2.63057 522.13 5.87553C522.13 9.12048 524.76 11.751 528.005 11.751Z" fill="white"/>
<path d="M652.877 338.145C652.877 341.39 650.246 344.021 647.001 344.021C643.757 344.021 641.126 341.39 641.126 338.145C641.126 334.9 643.757 332.27 647.001 332.27C650.246 332.27 652.877 334.9 652.877 338.145Z" fill="white"/>
<path d="M30.7433 104.285C29.1984 104.285 27.946 105.537 27.946 107.082V130.305C27.946 131.85 29.1984 133.103 30.7433 133.103H46.0315V104.285H30.7433Z" fill="#1E88E5"/>
<path d="M77.2177 97.4669H67.9561V86.7847C67.9561 83.8288 65.5585 81.4312 62.6026 81.4312C59.6466 81.4312 57.249 83.8269 57.249 86.7847V97.4842C57.2395 101.243 54.1918 104.285 50.4309 104.285V133.102H77.2158C83.6994 133.102 88.9554 127.846 88.9554 121.363V109.207C88.9573 102.723 83.7013 97.4669 77.2177 97.4669Z" fill="white"/>
<path d="M46.0315 112.572V104.285H30.7433C29.1984 104.285 27.946 105.537 27.946 107.082V112.572H46.0315Z" fill="#42A5F5"/>
<path d="M46.0316 134.186H30.7434C28.6039 134.186 26.864 132.445 26.864 130.305V107.082C26.864 104.943 28.6039 103.201 30.7434 103.201H46.0316C46.6301 103.201 47.1138 103.687 47.1138 104.285V133.104C47.1138 133.701 46.6301 134.186 46.0316 134.186ZM30.7434 105.367C29.7989 105.367 29.0303 106.136 29.0303 107.082V130.305C29.0303 131.252 29.7989 132.02 30.7434 132.02H44.9494V105.367H30.7434Z" fill="#1565C0"/>
<path d="M77.2179 134.187H50.433C49.8346 134.187 49.3508 133.701 49.3508 133.102V104.285C49.3508 103.687 49.8346 103.201 50.433 103.201C53.5878 103.201 56.1594 100.635 56.169 97.4785V86.7809C56.169 83.2323 59.056 80.3452 62.6047 80.3452C66.1533 80.3452 69.0423 83.2323 69.0423 86.7809V96.381H77.2198C84.2903 96.381 90.0435 102.134 90.0435 109.205V121.361C90.0416 128.433 84.2884 134.187 77.2179 134.187ZM51.5171 132.02H77.2179C83.0934 132.02 87.8753 127.24 87.8753 121.363V109.207C87.8753 103.331 83.0954 98.5511 77.2179 98.5511H67.9582C67.3598 98.5511 66.876 98.0655 66.876 97.467V86.7848C66.876 84.4311 64.9602 82.5153 62.6066 82.5153C60.2529 82.5153 58.3371 84.4311 58.3371 86.7848V97.4842C58.3257 101.467 55.3545 104.767 51.519 105.297L51.5171 132.02Z" fill="#E0E0E0"/>
<path d="M39.6799 112.224C39.6799 113.709 38.4753 114.914 36.9897 114.914C35.5041 114.914 34.2996 113.709 34.2996 112.224C34.2996 110.738 35.5041 109.533 36.9897 109.533C38.4753 109.533 39.6799 110.738 39.6799 112.224Z" fill="white"/>
<path d="M346.604 112.189H265.124V118.114H346.604V112.189Z" fill="#BDBDBD"/>
<path d="M438.402 112.189H364.787V118.114H438.402V112.189Z" fill="#BDBDBD"/>
<path d="M390.096 129.963H265.124V135.888H390.096V129.963Z" fill="#BDBDBD"/>
<path d="M438.402 129.963H405.771V135.888H438.402V129.963Z" fill="#BDBDBD"/>
<path d="M338.054 147.737H265.124V153.662H338.054V147.737Z" fill="#BDBDBD"/>
<path d="M438.402 147.737H351.763V153.662H438.402V147.737Z" fill="#BDBDBD"/>
<path d="M385.821 165.51H265.124V171.436H385.821V165.51Z" fill="#BDBDBD"/>
<path d="M438.403 165.51H408.62V171.436H438.403V165.51Z" fill="#BDBDBD"/>
<path d="M305.65 183.282H265.124V189.208H305.65V183.282Z" fill="#BDBDBD"/>
<path d="M438.402 183.282H324.175V189.208H438.402V183.282Z" fill="#BDBDBD"/>
<path d="M369.418 201.056H265.133V206.981H369.418V201.056Z" fill="#BDBDBD"/>
<path d="M318.517 237.361H265.124V243.286H318.517V237.361Z" fill="#BDBDBD"/>
<path d="M438.402 237.361H336.7V243.286H438.402V237.361Z" fill="#BDBDBD"/>
<path d="M373.452 255.135H265.124V261.06H373.452V255.135Z" fill="#BDBDBD"/>
<path d="M438.402 255.135H389.127V261.06H438.402V255.135Z" fill="#BDBDBD"/>
<path d="M320.754 272.908H265.124V278.834H320.754V272.908Z" fill="#BDBDBD"/>
<path d="M438.403 272.908H334.464V278.834H438.403V272.908Z" fill="#BDBDBD"/>
<path d="M301.589 290.682H265.124V296.607H301.589V290.682Z" fill="#BDBDBD"/>
<path d="M438.403 290.682H324.389V296.607H438.403V290.682Z" fill="#BDBDBD"/>
<path d="M376.558 308.454H265.124V314.379H376.558V308.454Z" fill="#BDBDBD"/>
<path d="M438.402 308.454H395.083V314.379H438.402V308.454Z" fill="#BDBDBD"/>
<path d="M369.418 326.228H265.133V332.153H369.418V326.228Z" fill="#BDBDBD"/>
<path d="M618.643 228.933H437.37V332.346H618.643V228.933Z" fill="#616161"/>
<path d="M618.643 214.169H437.37V228.933H618.643V214.169Z" fill="#EEEEEE"/>
<path d="M450.737 221.551C450.737 222.912 449.633 224.017 448.27 224.017C446.909 224.017 445.806 222.914 445.806 221.551C445.806 220.19 446.909 219.086 448.27 219.086C449.633 219.086 450.737 220.19 450.737 221.551Z" fill="#EF5350"/>
<path d="M463.185 221.551C463.185 222.912 462.082 224.017 460.721 224.017C459.36 224.017 458.256 222.914 458.256 221.551C458.256 220.19 459.36 219.086 460.721 219.086C462.082 219.086 463.185 220.19 463.185 221.551Z" fill="#BDBDBD"/>
<path d="M475.634 221.551C475.634 222.912 474.531 224.017 473.168 224.017C471.807 224.017 470.703 222.914 470.703 221.551C470.703 220.19 471.807 219.086 473.168 219.086C474.531 219.086 475.634 220.19 475.634 221.551Z" fill="#BDBDBD"/>
<path d="M618.643 332.348H437.37V347.568H618.643V332.348Z" fill="#424242"/>
<path d="M609.375 338.145H446.637C445.635 338.145 444.824 338.958 444.824 339.958C444.824 340.96 445.635 341.77 446.637 341.77H609.375C610.377 341.77 611.188 340.958 611.188 339.958C611.188 338.956 610.375 338.145 609.375 338.145Z" fill="#616161"/>
<path d="M446.637 338.145C445.635 338.145 444.824 338.958 444.824 339.958C444.824 340.96 445.635 341.771 446.637 341.771H512.602V338.144H446.637V338.145Z" fill="#EF5350"/>
<path d="M516.621 339.958C516.621 342.178 514.822 343.977 512.602 343.977C510.382 343.977 508.583 342.178 508.583 339.958C508.583 337.738 510.382 335.939 512.602 335.939C514.822 335.939 516.621 337.738 516.621 339.958Z" fill="#BDBDBD"/>
<path d="M500.572 255.613V305.668L555.44 280.641L500.572 255.613Z" fill="#EEEEEE"/>
<path d="M654.186 279.549C655.731 279.549 656.984 280.801 656.984 282.346V305.569C656.984 307.114 655.731 308.366 654.186 308.366H638.898V279.547L654.186 279.549Z" fill="#1E88E5"/>
<path d="M607.712 272.732H616.974V262.05C616.974 259.094 619.371 256.697 622.327 256.697C625.283 256.697 627.681 259.094 627.681 262.05V272.75C627.69 276.508 630.738 279.55 634.499 279.55V308.368H607.714C601.23 308.368 595.974 303.112 595.974 296.628V284.472C595.972 277.988 601.229 272.732 607.712 272.732Z" fill="white"/>
<path d="M638.898 287.837V279.551H654.186C655.731 279.551 656.984 280.803 656.984 282.348V287.837H638.898Z" fill="#42A5F5"/>
<path d="M637.816 308.368V279.548C637.816 278.95 638.299 278.466 638.898 278.466H654.186C656.326 278.466 658.065 280.208 658.065 282.348V305.571C658.065 307.71 656.326 309.452 654.186 309.452H638.898C638.299 309.452 637.816 308.966 637.816 308.368ZM639.982 280.633V307.286H654.188C655.133 307.286 655.901 306.517 655.901 305.571V282.348C655.901 281.401 655.133 280.633 654.188 280.633H639.982Z" fill="#1565C0"/>
<path d="M594.888 296.628V284.472C594.888 277.401 600.641 271.648 607.712 271.648H615.889V262.048C615.889 258.5 618.776 255.613 622.327 255.613C625.876 255.613 628.763 258.5 628.763 262.048V272.746C628.77 275.901 631.344 278.468 634.499 278.468C635.097 278.468 635.581 278.954 635.581 279.551V308.368C635.581 308.966 635.097 309.452 634.499 309.452H607.714C600.641 309.452 594.888 303.699 594.888 296.628ZM633.413 280.56C629.575 280.03 626.604 276.73 626.595 272.75V262.05C626.595 259.697 624.679 257.781 622.325 257.781C619.97 257.781 618.056 259.697 618.056 262.05V272.732C618.056 273.331 617.572 273.815 616.972 273.815H607.712C601.836 273.815 597.054 278.595 597.054 284.472V296.628C597.054 302.504 601.834 307.286 607.712 307.286H633.413V280.56Z" fill="#E0E0E0"/>
<path d="M645.25 287.489C645.25 288.975 646.454 290.179 647.94 290.179C649.426 290.179 650.63 288.975 650.63 287.489C650.63 286.003 649.426 284.799 647.94 284.799C646.454 284.799 645.25 286.003 645.25 287.489Z" fill="white"/>
</g>
<defs>
<clipPath id="clip0_184_20785">
<rect width="704" height="390" fill="white"/>
</clipPath>
</defs>
</svg>
