<svg width="595" height="375" viewBox="0 0 595 375" fill="none" xmlns="http://www.w3.org/2000/svg">
<g clip-path="url(#clip0_152_21805)">
<path d="M164.878 373.904C164.878 373.904 163.769 342.5 196.483 324.603C233.353 304.432 277.059 353.926 309.673 350.656C337.259 347.891 347.135 317.805 376.49 311.039C405.716 304.303 434.448 331.297 427.657 373.896L164.878 373.904Z" fill="#5AA85A"/>
<path d="M165.81 373.848C165.81 373.848 164.71 350.104 197.192 336.573C233.801 321.324 277.198 358.743 309.582 356.271C336.972 354.18 346.779 331.434 375.926 326.319C404.946 321.226 433.474 341.635 426.732 373.842L165.81 373.848Z" fill="#60BF60"/>
<path d="M171.914 373.864C171.914 373.864 170.865 359.612 201.834 351.49C236.736 342.336 278.11 364.797 308.984 363.313C335.098 362.058 344.448 348.405 372.237 345.334C399.904 342.277 427.102 354.528 420.674 373.86L171.914 373.864Z" fill="#5AA85A"/>
<path d="M47.4479 374.297C47.4479 374.297 4.64418 310.845 18.7107 300.122C32.7772 289.399 77.398 346.879 77.398 346.879C77.398 346.879 51.1322 288.855 56.6329 255.796C62.1336 222.736 104.647 300.218 114.887 338.231C114.887 338.231 112.304 284.676 136.757 262.88C161.211 241.084 152.241 350.463 152.241 350.463C152.241 350.463 167.597 287.499 184.281 284.474C200.964 281.448 179.278 373.803 179.278 373.803L47.4479 374.297Z" fill="#60BF60"/>
<path d="M70.5563 374.622C70.4752 374.622 70.3955 374.583 70.3456 374.511L27.7686 313.315C27.6877 313.199 27.7164 313.039 27.8328 312.959C27.9489 312.877 28.1089 312.906 28.1898 313.023L70.7668 374.219C70.8477 374.335 70.819 374.495 70.7029 374.576C70.6579 374.607 70.607 374.622 70.5563 374.622Z" fill="#5AA85A"/>
<path d="M106.47 374.333C106.365 374.333 106.267 374.268 106.229 374.164L65.2506 261.622C65.2022 261.489 65.2709 261.342 65.4039 261.294C65.5368 261.246 65.6841 261.314 65.7325 261.447L106.711 373.989C106.759 374.122 106.691 374.269 106.558 374.317C106.529 374.327 106.499 374.333 106.47 374.333Z" fill="#5AA85A"/>
<path d="M126.597 374.257C126.591 374.257 126.584 374.257 126.578 374.257C126.437 374.247 126.331 374.124 126.34 373.983C129.223 333.085 141.014 276.602 141.133 276.036C141.162 275.897 141.298 275.81 141.436 275.838C141.575 275.867 141.663 276.003 141.634 276.142C141.516 276.707 129.733 333.156 126.852 374.019C126.843 374.154 126.73 374.257 126.597 374.257Z" fill="#5AA85A"/>
<path d="M160.376 374.257C160.358 374.257 160.341 374.256 160.323 374.252C160.184 374.222 160.095 374.086 160.125 373.948C163.985 355.617 180.771 296.913 180.94 296.322C180.979 296.186 181.121 296.107 181.257 296.147C181.394 296.186 181.472 296.328 181.433 296.464C181.264 297.054 164.483 355.74 160.627 374.054C160.601 374.174 160.494 374.257 160.376 374.257Z" fill="#5AA85A"/>
<path d="M547.038 374.297C547.038 374.297 589.842 310.845 575.776 300.122C561.709 289.399 517.088 346.879 517.088 346.879C517.088 346.879 543.354 288.855 537.853 255.796C532.352 222.736 489.839 300.218 479.599 338.231C479.599 338.231 482.182 284.676 457.729 262.88C433.275 241.084 442.245 350.463 442.245 350.463C442.245 350.463 426.889 287.499 410.205 284.474C393.522 281.448 415.208 373.803 415.208 373.803L547.038 374.297Z" fill="#60BF60"/>
<path d="M523.93 374.622C523.879 374.622 523.828 374.607 523.784 374.575C523.668 374.494 523.639 374.335 523.72 374.219L566.297 313.022C566.377 312.906 566.537 312.877 566.653 312.958C566.77 313.039 566.798 313.199 566.717 313.315L524.141 374.511C524.091 374.583 524.011 374.622 523.93 374.622Z" fill="#5AA85A"/>
<path d="M488.016 374.333C487.987 374.333 487.957 374.327 487.928 374.317C487.795 374.269 487.727 374.122 487.775 373.988L528.753 261.447C528.802 261.314 528.949 261.245 529.082 261.293C529.215 261.342 529.284 261.489 529.235 261.622L488.257 374.164C488.219 374.268 488.121 374.333 488.016 374.333Z" fill="#5AA85A"/>
<path d="M467.89 374.257C467.756 374.257 467.644 374.154 467.634 374.019C464.754 333.156 452.971 276.707 452.852 276.141C452.823 276.003 452.912 275.867 453.05 275.838C453.189 275.809 453.325 275.897 453.354 276.036C453.473 276.602 465.263 333.085 468.146 373.983C468.156 374.124 468.049 374.247 467.908 374.256C467.902 374.257 467.896 374.257 467.89 374.257Z" fill="#5AA85A"/>
<path d="M434.11 374.257C433.991 374.257 433.885 374.174 433.859 374.054C430.003 355.741 413.222 297.054 413.053 296.464C413.014 296.328 413.093 296.185 413.228 296.147C413.365 296.108 413.507 296.186 413.546 296.322C413.715 296.913 430.5 355.617 434.361 373.948C434.39 374.086 434.302 374.222 434.163 374.252C434.145 374.255 434.127 374.257 434.11 374.257Z" fill="#5AA85A"/>
<path d="M111.144 17.6687C110.492 17.6687 109.854 17.7246 109.231 17.827C109.291 17.3491 109.325 16.8635 109.325 16.3694C109.325 9.91179 104.09 4.67702 97.6324 4.67702C93.5613 4.67702 89.9781 6.75849 87.8841 9.91429C87.0275 4.30052 82.1789 0 76.326 0C69.8684 0 64.6336 5.23502 64.6336 11.6927C64.6336 12.8721 64.8098 14.0098 65.1347 15.0831C64.9684 15.0762 64.8016 15.0704 64.6336 15.0704C58.1759 15.0704 52.9409 20.3054 52.9409 26.7631C52.9409 33.2207 58.1759 38.4555 64.6336 38.4555C67.1547 38.4555 69.4876 37.6548 71.3973 36.2976C73.9896 41.7226 79.5265 45.4709 85.9399 45.4709C92.8008 45.4709 98.6565 41.1799 100.979 35.1369C102.99 38.6697 106.788 41.0538 111.144 41.0538C117.601 41.0538 122.836 35.8188 122.836 29.3611C122.836 22.9035 117.601 17.6687 111.144 17.6687Z" fill="white"/>
<path d="M489.213 79.5358C489.775 79.5358 490.324 79.5837 490.86 79.6721C490.809 79.2606 490.78 78.8422 490.78 78.4168C490.78 72.8549 495.289 68.3464 500.85 68.3464C504.356 68.3464 507.443 70.1393 509.246 72.8572C509.984 68.0224 514.16 64.3183 519.201 64.3183C524.762 64.3183 529.271 68.827 529.271 74.3886C529.271 75.4043 529.119 76.3842 528.839 77.3087C528.983 77.3027 529.126 77.2977 529.271 77.2977C534.833 77.2977 539.341 81.8065 539.341 87.3681C539.341 92.9297 534.833 97.4384 529.271 97.4384C527.1 97.4384 525.09 96.7488 523.446 95.5799C521.213 100.252 516.444 103.481 510.921 103.481C505.012 103.481 499.969 99.785 497.968 94.5802C496.236 97.6229 492.965 99.6762 489.213 99.6762C483.652 99.6762 479.143 95.1674 479.143 89.6058C479.143 84.0443 483.652 79.5358 489.213 79.5358Z" fill="white"/>
<path d="M237.326 373.79L428.122 373.781L428.12 335.827L237.324 335.836L237.326 373.79Z" fill="#FF593A"/>
<path d="M428.124 373.78L428.122 335.828L458.119 347.639L476.335 354.809L458.12 361.982L428.124 373.78Z" fill="#F1F3F2"/>
<path d="M210.19 354.813C210.188 353.937 210.25 353.073 210.365 352.228C211.627 342.971 219.562 335.834 229.165 335.835L234.389 335.835L256.179 335.835L256.179 373.791L234.389 373.791H229.168C218.686 373.792 210.191 365.295 210.19 354.813Z" fill="#3E8EDD"/>
<path d="M255.568 348.239C255.609 347.939 255.867 347.707 256.178 347.707L428.096 347.7C428.436 347.7 428.711 347.976 428.711 348.315C428.712 348.656 428.436 348.931 428.096 348.931L256.178 348.938C255.838 348.938 255.563 348.662 255.563 348.323C255.563 348.294 255.565 348.266 255.568 348.239Z" fill="#9B453A"/>
<path d="M255.569 361.236C255.61 360.936 255.868 360.705 256.179 360.705L428.123 360.698C428.464 360.698 428.739 360.973 428.739 361.313C428.741 361.652 428.464 361.929 428.124 361.929L256.18 361.936C255.84 361.936 255.564 361.66 255.564 361.321C255.564 361.292 255.566 361.264 255.569 361.236Z" fill="#9B453A"/>
<path d="M255.568 335.751C255.609 335.451 255.866 335.22 256.177 335.22C256.517 335.22 256.793 335.495 256.793 335.835L256.795 373.789C256.796 374.129 256.519 374.404 256.179 374.405C255.839 374.405 255.564 374.129 255.564 373.789L255.562 335.835C255.562 335.807 255.564 335.779 255.568 335.751Z" fill="#305777"/>
<path d="M250.203 335.751C250.244 335.451 250.501 335.22 250.812 335.22C251.152 335.22 251.428 335.495 251.428 335.835L251.43 373.789C251.43 374.125 251.155 374.405 250.815 374.405C250.475 374.405 250.199 374.129 250.199 373.79L250.197 335.835C250.198 335.807 250.199 335.779 250.203 335.751Z" fill="#305777"/>
<path d="M210.19 354.813C210.188 353.937 210.25 353.073 210.365 352.228C211.627 342.971 219.562 335.834 229.165 335.835L234.389 335.835L234.389 373.791H229.168C218.686 373.792 210.191 365.295 210.19 354.813Z" fill="#FFB12A"/>
<path d="M458.121 361.982L458.12 347.639L476.335 354.809L458.121 361.982Z" fill="#FF593A"/>
<path d="M459.438 27.8702V217.421C459.438 232.063 447.569 243.936 432.923 243.936H176.348C161.702 243.936 149.833 232.063 149.833 217.421V27.8702C149.833 14.8765 159.183 4.06293 171.525 1.79395C172.643 1.58823 173.788 1.45116 174.953 1.39299C175.416 1.36902 175.878 1.35529 176.348 1.35529H432.923C447.569 1.35504 459.438 13.228 459.438 27.8702Z" fill="#F1F3F2"/>
<path d="M459.591 28.3259V41.7685H149.986V28.3259C149.986 13.6837 161.855 1.81073 176.501 1.81073H433.076C447.722 1.81098 459.591 13.6837 459.591 28.3259Z" fill="#FFB12A"/>
<path d="M433.075 246.104H176.5C160.934 246.104 148.271 233.441 148.271 217.875V28.3245C148.271 14.6987 157.985 3.02323 171.367 0.562763C172.578 0.340309 173.806 0.196252 175.019 0.135582C175.536 0.108868 176.021 0.0958862 176.5 0.0958862H433.075C448.64 0.0958862 461.304 12.7593 461.304 28.3248V217.875C461.304 233.441 448.641 246.104 433.075 246.104ZM176.5 3.52332C176.081 3.52332 175.653 3.5348 175.193 3.55852C174.128 3.61195 173.05 3.73828 171.987 3.93377C160.231 6.09514 151.699 16.353 151.699 28.3245V217.875C151.699 231.551 162.825 242.677 176.5 242.677H433.075C446.751 242.677 457.876 231.551 457.876 217.875V28.3245C457.876 14.649 446.75 3.52332 433.075 3.52332H176.5Z" fill="#997243"/>
<path d="M427.722 29.0386C424.292 29.0386 421.501 26.2481 421.501 22.8179C421.501 19.388 424.292 16.5972 427.722 16.5972C431.152 16.5972 433.943 19.3878 433.943 22.8179C433.943 26.2481 431.152 29.0386 427.722 29.0386ZM427.722 20.0249C426.182 20.0249 424.929 21.2777 424.929 22.8179C424.929 24.3581 426.182 25.611 427.722 25.611C429.262 25.611 430.515 24.3581 430.515 22.8179C430.515 21.278 429.262 20.0249 427.722 20.0249Z" fill="#F1F3F2"/>
<path d="M403.268 29.0386C399.838 29.0386 397.048 26.2481 397.048 22.8179C397.048 19.388 399.838 16.5972 403.268 16.5972C406.698 16.5972 409.489 19.3878 409.489 22.8179C409.489 26.2481 406.698 29.0386 403.268 29.0386ZM403.268 20.0249C401.728 20.0249 400.475 21.2777 400.475 22.8179C400.475 24.3581 401.728 25.611 403.268 25.611C404.809 25.611 406.061 24.3581 406.061 22.8179C406.061 21.278 404.809 20.0249 403.268 20.0249Z" fill="#F1F3F2"/>
<path d="M378.814 29.0386C375.385 29.0386 372.594 26.2481 372.594 22.8179C372.594 19.388 375.384 16.5972 378.814 16.5972C382.245 16.5972 385.035 19.3878 385.035 22.8179C385.035 26.2481 382.244 29.0386 378.814 29.0386ZM378.814 20.0249C377.274 20.0249 376.021 21.2777 376.021 22.8179C376.021 24.3581 377.274 25.611 378.814 25.611C380.355 25.611 381.607 24.3581 381.607 22.8179C381.607 21.278 380.355 20.0249 378.814 20.0249Z" fill="#F1F3F2"/>
<path d="M433.224 86.0427V275.593C433.224 290.236 421.354 302.109 406.709 302.109H150.133C135.488 302.109 123.618 290.236 123.618 275.593V86.0427C123.618 73.049 132.968 62.2354 145.311 59.9664C146.428 59.7607 147.573 59.6236 148.738 59.5655C149.201 59.5415 149.664 59.5278 150.133 59.5278H406.709C421.354 59.5275 433.224 71.4005 433.224 86.0427Z" fill="#F1F3F2"/>
<path d="M433.376 86.4983V99.9409H123.771V86.4983C123.771 71.8561 135.64 59.9831 150.286 59.9831H406.861C421.506 59.9834 433.376 71.8561 433.376 86.4983Z" fill="#3E8EDD"/>
<path d="M150.506 285.965H261.709C267.695 285.965 272.547 281.112 272.547 275.126V206.175C272.547 200.189 267.695 195.336 261.709 195.336H150.506C144.52 195.336 139.667 200.189 139.667 206.175V275.126C139.667 281.112 144.52 285.965 150.506 285.965Z" fill="#FFB12A"/>
<path d="M267.554 243.771V280.972H146.216C146.216 280.972 208.383 243.771 267.554 243.771Z" fill="#F1F3F2"/>
<path d="M212.32 248.765C212.32 248.765 181.111 237.03 146.158 237.03V277.227C146.158 277.227 174.87 258.252 212.32 248.765Z" fill="#F1F3F2"/>
<path d="M227.747 230.098C231.647 228.084 233.175 223.29 231.162 219.391C229.148 215.491 224.354 213.962 220.455 215.976C216.555 217.99 215.026 222.783 217.04 226.683C219.054 230.582 223.847 232.111 227.747 230.098Z" fill="#F1F3F2"/>
<path d="M406.86 304.277H150.285C134.719 304.277 122.056 291.613 122.056 276.048V86.497C122.056 72.8712 131.769 61.1958 145.152 58.7353C146.363 58.5128 147.591 58.3688 148.804 58.3081C149.321 58.2814 149.806 58.2684 150.285 58.2684H406.86C422.425 58.2684 435.089 70.9318 435.089 86.4973V276.048C435.089 291.613 422.426 304.277 406.86 304.277ZM150.285 61.6958C149.866 61.6958 149.438 61.7073 148.978 61.731C147.913 61.7845 146.835 61.9108 145.772 62.1063C134.016 64.2677 125.484 74.5255 125.484 86.497V276.048C125.484 289.723 136.61 300.849 150.285 300.849H406.86C420.536 300.849 431.661 289.723 431.661 276.048V86.497C431.661 72.8215 420.535 61.6958 406.86 61.6958H150.285Z" fill="#305777"/>
<path d="M401.507 87.2111C398.077 87.2111 395.286 84.4206 395.286 80.9904C395.286 77.5605 398.077 74.7697 401.507 74.7697C404.937 74.7697 407.728 77.5602 407.728 80.9904C407.728 84.4206 404.937 87.2111 401.507 87.2111ZM401.507 78.1974C399.967 78.1974 398.714 79.4502 398.714 80.9904C398.714 82.5306 399.967 83.7835 401.507 83.7835C403.047 83.7835 404.3 82.5306 404.3 80.9904C404.3 79.4505 403.047 78.1974 401.507 78.1974Z" fill="#F1F3F2"/>
<path d="M377.053 87.2111C373.623 87.2111 370.833 84.4206 370.833 80.9904C370.833 77.5605 373.623 74.7697 377.053 74.7697C380.483 74.7697 383.274 77.5602 383.274 80.9904C383.274 84.4206 380.483 87.2111 377.053 87.2111ZM377.053 78.1974C375.513 78.1974 374.26 79.4502 374.26 80.9904C374.26 82.5306 375.513 83.7835 377.053 83.7835C378.593 83.7835 379.846 82.5306 379.846 80.9904C379.846 79.4505 378.593 78.1974 377.053 78.1974Z" fill="#F1F3F2"/>
<path d="M352.6 87.2111C349.17 87.2111 346.379 84.4206 346.379 80.9904C346.379 77.5605 349.169 74.7697 352.6 74.7697C356.03 74.7697 358.82 77.5602 358.82 80.9904C358.82 84.4206 356.03 87.2111 352.6 87.2111ZM352.6 78.1974C351.059 78.1974 349.807 79.4502 349.807 80.9904C349.807 82.5306 351.059 83.7835 352.6 83.7835C354.14 83.7835 355.393 82.5306 355.393 80.9904C355.393 79.4505 354.14 78.1974 352.6 78.1974Z" fill="#F1F3F2"/>
<path d="M406.336 285.965H295.133C289.147 285.965 284.294 281.112 284.294 275.126V206.175C284.294 200.189 289.147 195.336 295.133 195.336H406.336C412.322 195.336 417.175 200.189 417.175 206.175V275.126C417.175 281.112 412.322 285.965 406.336 285.965Z" fill="#FFB12A"/>
<path d="M350.735 270.486C367.212 270.486 380.57 257.128 380.57 240.65C380.57 224.173 367.212 210.815 350.735 210.815C334.257 210.815 320.899 224.173 320.899 240.65C320.899 257.128 334.257 270.486 350.735 270.486Z" fill="#FF593A"/>
<path d="M365.218 238.342L342.534 227.668C340.842 226.872 338.897 228.106 338.897 229.976V251.324C338.897 253.194 340.842 254.429 342.534 253.633L365.218 242.959C367.171 242.039 367.171 239.261 365.218 238.342Z" fill="#F1F3F2"/>
<path d="M190.304 182.103H147.161C143.061 182.103 139.737 178.78 139.737 174.68V122.241C139.737 118.141 143.061 114.818 147.161 114.818H190.304C194.404 114.818 197.728 118.141 197.728 122.241V174.68C197.728 178.78 194.404 182.103 190.304 182.103Z" fill="#FF593A"/>
<path d="M181.777 135.416H155.688V161.505H181.777V135.416Z" fill="#F1F3F2"/>
<path d="M265.194 183.102H260.201V181.105H265.194V183.102ZM255.207 183.102H250.214V181.105H255.207V183.102ZM245.221 183.102H240.227V181.105H245.221V183.102ZM235.234 183.102H230.241V181.105H235.234V183.102ZM225.247 183.102H222.05C221.368 183.102 220.69 183.02 220.033 182.859L220.51 180.919C221.011 181.042 221.529 181.105 222.05 181.105H225.247V183.102ZM268.649 182.363L267.829 180.542C269.149 179.947 270.242 178.91 270.907 177.623L272.682 178.539C271.811 180.226 270.378 181.584 268.649 182.363ZM215.379 179.821C214.233 178.337 213.628 176.559 213.628 174.68V174.562H215.625V174.68C215.625 176.113 216.087 177.469 216.96 178.601L215.379 179.821ZM273.616 173.22H271.619V168.227H273.616V173.22ZM215.625 169.569H213.628V164.576H215.625V169.569ZM273.616 163.234H271.619V158.24H273.616V163.234ZM215.625 159.582H213.628V154.589H215.625V159.582ZM273.616 153.247H271.619V148.254H273.616V153.247ZM215.625 149.596H213.628V144.602H215.625V149.596ZM273.616 143.26H271.619V138.267H273.616V143.26ZM215.625 139.609H213.628V134.615H215.625V139.609ZM273.616 133.274H271.619V128.28H273.616V133.274ZM215.625 129.622H213.628V124.629H215.625V129.622ZM273.616 123.287H271.619V122.241C271.619 121.093 271.313 119.967 270.734 118.985L272.455 117.971C273.215 119.261 273.616 120.737 273.616 122.241V123.287ZM216.015 120.032L214.139 119.345C214.791 117.565 216.043 116.04 217.665 115.049L218.706 116.754C217.468 117.51 216.512 118.674 216.015 120.032ZM267.499 116.241C266.765 115.959 265.989 115.816 265.194 115.816H262.924V113.819H265.194C266.235 113.819 267.252 114.007 268.216 114.377L267.499 116.241ZM257.931 115.816H252.938V113.819H257.931V115.816ZM247.944 115.816H242.951V113.819H247.944V115.816ZM237.958 115.816H232.964V113.819H237.958V115.816ZM227.971 115.816H222.978V113.819H227.971V115.816Z" fill="#FF593A"/>
<path d="M343.783 143.91H337.766C337.548 142.775 337.25 141.669 336.879 140.596L342.089 137.588C343.332 136.871 343.757 135.282 343.04 134.04L341.07 130.628C340.353 129.386 338.764 128.96 337.522 129.678L332.306 132.689C331.557 131.825 330.747 131.015 329.883 130.265L332.894 125.049C333.612 123.807 333.186 122.219 331.943 121.502L328.532 119.532C327.289 118.815 325.701 119.24 324.984 120.483L321.976 125.693C320.903 125.322 319.797 125.024 318.662 124.806V118.788C318.662 117.354 317.499 116.191 316.064 116.191H312.125C310.691 116.191 309.528 117.354 309.528 118.788V124.806C308.392 125.023 307.286 125.321 306.214 125.692L303.206 120.482C302.488 119.24 300.9 118.814 299.658 119.531L296.246 121.501C295.003 122.218 294.578 123.807 295.295 125.049L298.307 130.265C297.442 131.015 296.633 131.824 295.883 132.688L290.667 129.677C289.425 128.959 287.837 129.385 287.12 130.628L285.15 134.039C284.432 135.282 284.858 136.87 286.1 137.587L291.31 140.595C290.939 141.668 290.641 142.774 290.423 143.909H284.406C282.972 143.909 281.809 145.072 281.809 146.506V150.446C281.809 151.88 282.972 153.043 284.406 153.043H290.423C290.641 154.179 290.939 155.285 291.31 156.357L286.1 159.365C284.858 160.083 284.432 161.671 285.15 162.913L287.12 166.325C287.837 167.568 289.425 167.993 290.667 167.276L295.883 164.264C296.633 165.129 297.442 165.938 298.307 166.688L295.295 171.904C294.578 173.146 295.003 174.734 296.246 175.452L299.658 177.422C300.9 178.139 302.489 177.713 303.206 176.471L306.214 171.261C307.286 171.632 308.392 171.93 309.528 172.148V178.165C309.528 179.599 310.69 180.762 312.125 180.762H316.064C317.499 180.762 318.662 179.6 318.662 178.165V172.148C319.797 171.93 320.903 171.632 321.976 171.261L324.984 176.471C325.701 177.713 327.289 178.139 328.532 177.422L331.943 175.452C333.186 174.734 333.612 173.146 332.894 171.904L329.883 166.688C330.747 165.938 331.557 165.129 332.306 164.264L337.522 167.276C338.764 167.993 340.353 167.568 341.07 166.325L343.04 162.913C343.757 161.671 343.331 160.083 342.089 159.365L336.879 156.357C337.25 155.285 337.548 154.179 337.766 153.043H343.783C345.217 153.043 346.38 151.881 346.38 150.446V146.506C346.38 145.073 345.217 143.91 343.783 143.91ZM314.094 164.206C305.407 164.206 298.365 157.164 298.365 148.477C298.365 139.79 305.407 132.748 314.094 132.748C322.781 132.748 329.823 139.79 329.823 148.477C329.823 157.164 322.781 164.206 314.094 164.206Z" fill="#FFB12A"/>
<path d="M412.173 127.81H361.589C358.865 127.81 356.656 125.602 356.656 122.878C356.656 120.154 358.865 117.945 361.589 117.945H412.173C414.897 117.945 417.105 120.154 417.105 122.878C417.105 125.602 414.897 127.81 412.173 127.81Z" fill="#3E8EDD"/>
<path d="M412.173 144.908H361.589C358.865 144.908 356.656 142.7 356.656 139.976C356.656 137.252 358.865 135.043 361.589 135.043H412.173C414.897 135.043 417.105 137.252 417.105 139.976C417.105 142.7 414.897 144.908 412.173 144.908Z" fill="#3E8EDD"/>
<path d="M412.173 162.007H361.589C358.865 162.007 356.656 159.798 356.656 157.074C356.656 154.35 358.865 152.142 361.589 152.142H412.173C414.897 152.142 417.105 154.35 417.105 157.074C417.105 159.799 414.897 162.007 412.173 162.007Z" fill="#3E8EDD"/>
<path d="M412.173 179.105H361.589C358.865 179.105 356.656 176.897 356.656 174.173C356.656 171.449 358.865 169.24 361.589 169.24H412.173C414.897 169.24 417.105 171.448 417.105 174.173C417.105 176.897 414.897 179.105 412.173 179.105Z" fill="#3E8EDD"/>
<path d="M555.694 375H37.1356C36.8597 375 36.6362 374.776 36.6362 374.501C36.6362 374.225 36.8597 374.001 37.1356 374.001H555.694C555.97 374.001 556.194 374.225 556.194 374.501C556.194 374.776 555.97 375 555.694 375Z" fill="#30313C"/>
</g>
<defs>
<clipPath id="clip0_152_21805">
<rect width="594.246" height="375" fill="white"/>
</clipPath>
</defs>
</svg>
