<svg width="619" height="390" viewBox="0 0 619 390" fill="none" xmlns="http://www.w3.org/2000/svg">
<g clip-path="url(#clip0_183_20010)">
<path opacity="0.62" d="M152.894 321.969C152.894 321.969 51.2184 251.609 152.894 155.596C254.569 59.5824 372.643 3.8253 446.439 0.544894C520.236 -2.73443 531.715 174.376 487.437 290.811C443.16 407.245 292.287 426.924 152.894 321.969Z" fill="#009BDB"/>
<path d="M434.458 74.0777L444.525 72.4434C446.39 72.1406 447.656 70.3841 447.353 68.5195L444.963 53.7971C444.66 51.9325 442.904 50.666 441.039 50.9688L430.437 52.6896C428.347 47.9101 425.518 43.572 422.121 39.7681L428.245 31.6466C429.382 30.1378 429.081 27.9941 427.574 26.8563L415.664 17.876C414.156 16.7393 412.011 17.04 410.874 18.5477L404.396 27.1397C399.708 25.1831 394.686 23.9274 389.461 23.5186L388.269 13.4405C388.048 11.564 386.347 10.2239 384.471 10.4456L369.659 12.1978C367.783 12.4195 366.442 14.1197 366.664 15.9962L367.931 26.7103C361.973 29.014 356.632 32.4199 352.112 36.6748L343.462 30.3487C341.937 29.2336 339.798 29.5656 338.683 31.0906L329.879 43.1296C328.763 44.6546 329.096 46.794 330.621 47.9091L339.93 54.7165C337.524 60.9431 336.402 67.7397 336.761 74.7666L326.872 77.2629C325.041 77.7258 323.93 79.585 324.393 81.4161L328.044 95.8778C328.507 97.7089 330.366 98.8197 332.197 98.3568L342.632 95.7221C345.12 100.283 348.283 104.389 352.003 107.896L344.795 119.402L363.231 130.953L370.766 118.925C375.584 120.461 380.684 121.289 385.949 121.245L388.702 134.541L410.007 130.131L407.129 116.224C411.797 113.935 416.014 110.943 419.67 107.386L430.884 115.106L443.22 97.1854L431.526 89.1353C433.268 84.3861 434.274 79.32 434.458 74.0777ZM389.798 89.8956C376.899 93.0949 364.585 83.3857 364.687 70.0964C364.756 61.0426 371.108 52.986 379.897 50.8066C392.795 47.6084 405.107 57.3155 405.007 70.6047C404.937 79.6586 398.585 87.7152 389.798 89.8956Z" fill="#C2C3C9"/>
<path opacity="0.16" d="M332.552 48.0961L330.633 46.6847C329.505 45.8551 329.261 44.2522 330.091 43.1231L335.723 35.4634C336.553 34.3342 338.156 34.0909 339.284 34.9204L341.203 36.3319C342.331 37.1614 342.575 38.7643 341.746 39.8924L336.113 47.5521C335.283 48.6823 333.68 48.9268 332.552 48.0961Z" fill="white"/>
<path opacity="0.16" d="M368.195 17.3342L367.915 14.9688C367.751 13.5779 368.754 12.3049 370.145 12.1405L379.587 11.0233C380.978 10.8589 382.251 11.8625 382.416 13.2534L382.696 15.6188C382.86 17.0097 381.857 18.2828 380.466 18.4472L371.025 19.5633C369.633 19.7299 368.36 18.7262 368.195 17.3342Z" fill="white"/>
<path opacity="0.16" d="M413.843 22.9108L415.296 21.0234C416.15 19.9137 417.757 19.7039 418.868 20.5584L426.402 26.3577C427.512 27.2122 427.722 28.8194 426.867 29.9302L425.415 31.8175C424.56 32.9272 422.953 33.137 421.842 32.2826L414.308 26.4832C413.197 25.6277 412.989 24.0205 413.843 22.9108Z" fill="white"/>
<path d="M472.598 111.356C480.89 93.4669 473.109 72.2422 455.22 63.9498C437.331 55.6574 416.106 63.4382 407.814 81.3274L472.598 111.356Z" fill="#E6B54A"/>
<path d="M464.862 69.5675C475.296 67.6328 482.186 57.6061 480.252 47.1722C478.317 36.7382 468.29 29.8481 457.857 31.7827C447.423 33.7173 440.532 43.744 442.467 54.178C444.402 64.612 454.428 71.5021 464.862 69.5675Z" fill="#E6B54A"/>
<path opacity="0.11" d="M474.832 47.5606C473.609 55.216 466.412 60.4313 458.757 59.2081C451.102 57.9848 445.886 50.7881 447.11 43.1327C448.332 35.4773 455.53 30.262 463.185 31.4853C470.84 32.7074 476.056 39.9053 474.832 47.5606Z" fill="white"/>
<path opacity="0.11" d="M450.797 107.072C462.701 100.454 466.985 85.4402 460.368 73.537C453.75 61.6338 438.736 57.3489 426.833 63.9665C414.93 70.5841 410.645 85.5982 417.262 97.5014C423.88 109.405 438.894 113.689 450.797 107.072Z" fill="white"/>
<path d="M488.532 344.49C488.532 350.046 484.995 354.552 480.631 354.552H151.98C147.615 354.552 144.078 350.046 144.078 344.49V144.604C144.078 139.048 147.615 134.543 151.98 134.543H480.631C484.995 134.543 488.532 139.048 488.532 144.604V344.49Z" fill="black"/>
<path d="M475.738 146.62H157.809V332.427H475.738V146.62Z" fill="white"/>
<path d="M85.4122 357.587C85.4122 357.587 82.5461 362.647 102.91 366.866H529.175C529.175 366.866 543.436 365.998 547.191 359.625L547.216 356.135L85.4122 357.587Z" fill="#575756"/>
<path d="M85.5137 347.371H547.367V358.615C547.367 358.615 548.057 360.115 542.622 359.74H89.8616C89.8616 359.74 85.6089 360.865 85.2141 358.241L85.5137 347.371Z" fill="#94998F"/>
<path d="M475.738 146.62H157.809V165.19H475.738V146.62Z" fill="#5FA199"/>
<path opacity="0.58" d="M304.713 162.602H304.32C304.233 162.602 304.162 162.531 304.162 162.444V150.18C304.162 150.094 304.233 150.022 304.32 150.022H304.713C304.799 150.022 304.871 150.094 304.871 150.18V162.444C304.872 162.531 304.8 162.602 304.713 162.602Z" fill="#C2C3C9"/>
<path opacity="0.58" d="M337.2 162.602H336.807C336.721 162.602 336.649 162.531 336.649 162.444V150.18C336.649 150.094 336.721 150.022 336.807 150.022H337.2C337.286 150.022 337.358 150.094 337.358 150.18V162.444C337.359 162.531 337.287 162.602 337.2 162.602Z" fill="#C2C3C9"/>
<path opacity="0.58" d="M364.734 162.602H364.342C364.255 162.602 364.184 162.531 364.184 162.444V150.18C364.184 150.094 364.255 150.022 364.342 150.022H364.734C364.821 150.022 364.892 150.094 364.892 150.18V162.444C364.892 162.531 364.821 162.602 364.734 162.602Z" fill="#C2C3C9"/>
<path opacity="0.58" d="M392.268 162.602H391.875C391.788 162.602 391.718 162.531 391.718 162.444V150.18C391.718 150.094 391.789 150.022 391.875 150.022H392.268C392.355 150.022 392.426 150.094 392.426 150.18V162.444C392.426 162.531 392.355 162.602 392.268 162.602Z" fill="#C2C3C9"/>
<path opacity="0.58" d="M419.801 162.602H419.409C419.321 162.602 419.251 162.531 419.251 162.444V150.18C419.251 150.094 419.322 150.022 419.409 150.022H419.801C419.888 150.022 419.959 150.094 419.959 150.18V162.444C419.96 162.531 419.889 162.602 419.801 162.602Z" fill="#C2C3C9"/>
<path opacity="0.58" d="M447.336 162.602H446.944C446.856 162.602 446.786 162.531 446.786 162.444V150.18C446.786 150.094 446.857 150.022 446.944 150.022H447.336C447.424 150.022 447.494 150.094 447.494 150.18V162.444C447.494 162.531 447.423 162.602 447.336 162.602Z" fill="#C2C3C9"/>
<path d="M475.739 165.189H466.914V332.427H475.739V165.189Z" fill="#D8D9DD"/>
<path d="M471.326 194.321C469.509 194.321 468.022 192.834 468.022 191.017V180.388C468.022 178.571 469.508 177.084 471.326 177.084C473.143 177.084 474.63 178.571 474.63 180.388V191.017C474.629 192.834 473.142 194.321 471.326 194.321Z" fill="white"/>
<path d="M268.558 159.777H183.571C181.432 159.777 179.698 158.043 179.698 155.904C179.698 153.765 181.432 152.031 183.571 152.031H268.558C270.696 152.031 272.431 153.765 272.431 155.904C272.431 158.043 270.697 159.777 268.558 159.777Z" fill="white"/>
<path d="M256.985 315.079H176.278C175.951 315.079 175.688 314.815 175.688 314.488V186.294C175.688 185.967 175.952 185.703 176.278 185.703H256.985C257.311 185.703 257.575 185.968 257.575 186.294V314.488C257.575 314.814 257.311 315.079 256.985 315.079Z" fill="#58167D"/>
<path d="M356.599 239.523H275.893C275.566 239.523 275.302 239.258 275.302 238.933V186.294C275.302 185.967 275.567 185.703 275.893 185.703H356.599C356.925 185.703 357.189 185.967 357.189 186.294V238.933C357.189 239.26 356.924 239.523 356.599 239.523Z" fill="#FFF0B3"/>
<path d="M356.599 315.079H275.893C275.566 315.079 275.302 314.815 275.302 314.488V258.49C275.302 258.163 275.567 257.899 275.893 257.899H356.6C356.926 257.899 357.19 258.163 357.19 258.49V314.488C357.189 314.814 356.924 315.079 356.599 315.079Z" fill="#FFF0B3"/>
<path d="M248.512 194.321H182.715V212.34H248.512V194.321Z" fill="#E6B54A"/>
<g opacity="0.65">
<path d="M248.512 217.201H182.714V222.45H248.512V217.201Z" fill="white"/>
<path d="M248.512 225.979H182.714V231.228H248.512V225.979Z" fill="white"/>
<path d="M248.512 234.756H182.714V240.004H248.512V234.756Z" fill="white"/>
<path d="M214.165 243.533H182.714V248.782H214.165V243.533Z" fill="white"/>
<path d="M248.512 252.311H182.714V257.559H248.512V252.311Z" fill="white"/>
<path d="M248.512 261.088H182.714V266.337H248.512V261.088Z" fill="white"/>
<path d="M248.512 269.865H182.714V275.113H248.512V269.865Z" fill="white"/>
<path d="M248.512 278.643H182.714V283.891H248.512V278.643Z" fill="white"/>
<path d="M188.427 306.843C185.272 306.843 182.716 304.286 182.716 301.132C182.716 297.977 185.272 295.42 188.427 295.42C191.582 295.42 194.139 297.977 194.139 301.132C194.139 304.286 191.581 306.843 188.427 306.843Z" fill="#5FA199"/>
<path d="M206.845 306.843C203.69 306.843 201.134 304.286 201.134 301.132C201.134 297.977 203.691 295.42 206.845 295.42C210 295.42 212.557 297.977 212.557 301.132C212.557 304.286 210 306.843 206.845 306.843Z" fill="#5FA199"/>
<path d="M225.264 306.843C222.109 306.843 219.552 304.286 219.552 301.132C219.552 297.977 222.109 295.42 225.264 295.42C228.418 295.42 230.975 297.977 230.975 301.132C230.975 304.286 228.418 306.843 225.264 306.843Z" fill="#5FA199"/>
<path d="M243.681 306.843C240.527 306.843 237.97 304.286 237.97 301.132C237.97 297.977 240.527 295.42 243.681 295.42C246.836 295.42 249.393 297.977 249.393 301.132C249.393 304.286 246.836 306.843 243.681 306.843Z" fill="#5FA199"/>
</g>
<path d="M349.773 192.303H308.094V224.833H349.773V192.303Z" fill="white"/>
<path d="M335.387 209.1C335.387 212.664 332.498 215.553 328.933 215.553C325.369 215.553 322.479 212.664 322.479 209.1C322.479 205.536 325.368 202.646 328.933 202.646C332.498 202.646 335.387 205.535 335.387 209.1Z" fill="#BF0411"/>
<path d="M327.22 205.773V211.558L332.179 208.666L327.22 205.773Z" fill="white"/>
<path d="M304.162 192.875H280.915V198.124H304.162V192.875Z" fill="white"/>
<path d="M350.467 228.603H280.915V233.852H350.467V228.603Z" fill="white"/>
<path d="M304.162 201.652H280.915V206.901H304.162V201.652Z" fill="white"/>
<path d="M304.162 210.43H280.915V215.679H304.162V210.43Z" fill="white"/>
<path d="M292.027 219.207H280.915V224.456H292.027V219.207Z" fill="white"/>
<path d="M304.162 266H280.915V271.249H304.162V266Z" fill="white"/>
<path d="M350.467 301.728H280.915V306.977H350.467V301.728Z" fill="white"/>
<path d="M304.162 274.777H280.915V280.026H304.162V274.777Z" fill="white"/>
<path d="M304.162 283.554H280.915V288.803H304.162V283.554Z" fill="white"/>
<path d="M292.027 292.331H280.915V297.58H292.027V292.331Z" fill="white"/>
<path d="M350.467 266.337H308.094V297.581H350.467V266.337Z" fill="white"/>
<path d="M346.318 270.434H312.001V286.851H346.318V270.434Z" fill="#EDEEF0"/>
<path d="M332.179 278.643C332.179 280.435 330.726 281.887 328.934 281.887C327.142 281.887 325.688 280.435 325.688 278.643C325.688 276.85 327.141 275.398 328.934 275.398C330.726 275.397 332.179 276.849 332.179 278.643Z" fill="#BF0411"/>
<path d="M328.072 276.969V279.879L330.565 278.424L328.072 276.969Z" fill="white"/>
<path d="M410.086 92.8982H325.688L380.085 186.083C384.313 193.325 386.54 201.56 386.54 209.946V249.588L433.632 263.495V209.947C433.632 201.561 435.86 193.326 440.087 186.084L494.484 92.8993H410.086V92.8982Z" fill="#D8D9DD"/>
<path d="M496.895 92.8981H322.311C319.266 92.8981 316.774 90.4072 316.774 87.3615C316.774 84.3169 319.265 81.825 322.311 81.825H496.896C499.94 81.825 502.431 84.3158 502.431 87.3615C502.431 90.4072 499.94 92.8981 496.895 92.8981Z" fill="#F7F7F8"/>
<path opacity="0.37" d="M382.767 92.8981C382.767 92.8981 419.131 112.473 410.086 163.465C401.041 214.457 429.087 257.71 433.632 263.494L386.54 249.586V197.141L325.688 92.897H382.767V92.8981Z" fill="#EDEEF0"/>
<path d="M410.086 312.133C423.328 312.133 434.062 301.399 434.062 288.158C434.062 274.917 423.328 264.183 410.086 264.183C396.845 264.183 386.111 274.917 386.111 288.158C386.111 301.399 396.845 312.133 410.086 312.133Z" fill="#E6B54A"/>
<path d="M423.728 301.804C431.264 294.268 431.264 282.049 423.728 274.512C416.191 266.976 403.972 266.976 396.436 274.512C388.899 282.049 388.899 294.268 396.436 301.804C403.972 309.341 416.191 309.341 423.728 301.804Z" fill="#FFD385"/>
<path d="M412.641 293.506C412.641 292.695 412.447 292.067 412.056 291.62C411.667 291.174 410.974 290.736 409.979 290.305C407.558 289.34 405.795 288.364 404.693 287.373C403.59 286.383 403.038 284.929 403.038 283.01C403.038 281.276 403.623 279.847 404.792 278.724C405.962 277.6 407.521 276.947 409.471 276.762V273.515H411.918V276.823C413.764 277.091 415.226 277.849 416.304 279.101C417.381 280.353 417.904 281.948 417.873 283.887L417.843 283.964H412.748C412.748 282.846 412.533 282.012 412.102 281.463C411.671 280.915 411.096 280.64 410.378 280.64C409.649 280.64 409.111 280.866 408.762 281.317C408.413 281.768 408.238 282.343 408.238 283.041C408.238 283.75 408.425 284.324 408.8 284.765C409.174 285.207 409.874 285.652 410.9 286.104C413.281 287.12 415.029 288.133 416.148 289.144C417.266 290.154 417.825 291.598 417.825 293.475C417.825 295.26 417.264 296.696 416.14 297.784C415.016 298.871 413.507 299.513 411.608 299.708V302.802H409.162V299.693C407.172 299.499 405.52 298.803 404.206 297.608C402.893 296.413 402.257 294.661 402.298 292.353L402.345 292.261H407.408C407.408 293.533 407.684 294.449 408.238 295.008C408.792 295.567 409.51 295.846 410.393 295.846C411.131 295.846 411.691 295.631 412.07 295.199C412.452 294.768 412.641 294.203 412.641 293.506Z" fill="#E6B54A"/>
<path d="M252.56 135.902H175.773C172.131 135.902 169.152 132.923 169.152 129.281V85.485C169.152 81.8434 172.131 78.8625 175.773 78.8625H252.56C256.202 78.8625 259.182 81.8423 259.182 85.485V129.281C259.182 132.923 256.202 135.902 252.56 135.902Z" fill="#FFF0B3"/>
<path d="M249.896 86.4314H178.437V93.2594H249.896V86.4314Z" fill="white"/>
<path d="M249.896 97.9814H178.437V104.809H249.896V97.9814Z" fill="white"/>
<path d="M234.928 109.533H178.437V116.361H234.928V109.533Z" fill="white"/>
<path d="M218.252 121.083H178.437V127.911H218.252V121.083Z" fill="white"/>
<path d="M257.343 132.919L236.216 154.048V132.919H257.343Z" fill="#FFF0B3"/>
<path d="M143.831 216.185H71.5789C67.9372 216.185 64.9575 213.206 64.9575 209.564V168.642C64.9575 165 67.9372 162.02 71.5789 162.02H143.831C147.473 162.02 150.452 165 150.452 168.642V209.564C150.454 213.206 147.473 216.185 143.831 216.185Z" fill="white"/>
<path d="M98.9294 178.864V199.341L116.48 189.103L98.9294 178.864Z" fill="#BF0411"/>
<path d="M126.573 210.399L150.453 228.603V202.811L126.573 210.399Z" fill="white"/>
<path d="M552.194 239.523H474.629V292.331H552.194V239.523Z" fill="white"/>
<path d="M474.629 239.523L513.412 265.928L552.194 239.523H474.629Z" fill="#D8D9DD"/>
<path d="M188.82 207.292C188.951 207.329 189.119 207.357 189.324 207.376C189.53 207.385 189.726 207.39 189.913 207.39C190.286 207.39 190.594 207.315 190.837 207.166C191.089 207.007 191.215 206.765 191.215 206.438C191.215 206.13 191.112 205.91 190.907 205.78C190.701 205.649 190.389 205.584 189.969 205.584H188.82V207.292ZM188.82 203.876H189.843C190.244 203.876 190.533 203.801 190.711 203.652C190.897 203.502 190.991 203.283 190.991 202.994C190.991 202.742 190.883 202.541 190.669 202.392C190.463 202.242 190.151 202.168 189.731 202.168C189.591 202.168 189.427 202.172 189.24 202.182C189.063 202.191 188.923 202.205 188.82 202.224V203.876ZM189.731 209.266C189.572 209.266 189.385 209.261 189.17 209.252C188.956 209.243 188.732 209.224 188.498 209.196C188.274 209.168 188.05 209.131 187.826 209.084C187.602 209.047 187.397 208.991 187.21 208.916C186.697 208.72 186.44 208.379 186.44 207.894V201.356C186.44 201.16 186.492 201.01 186.594 200.908C186.706 200.796 186.856 200.707 187.042 200.641C187.36 200.529 187.756 200.45 188.232 200.403C188.708 200.347 189.198 200.319 189.703 200.319C190.897 200.319 191.817 200.52 192.461 200.922C193.105 201.323 193.427 201.944 193.427 202.784C193.427 203.204 193.305 203.568 193.063 203.876C192.82 204.174 192.493 204.394 192.083 204.534C192.549 204.664 192.937 204.902 193.245 205.248C193.562 205.593 193.721 206.027 193.721 206.55C193.721 207.474 193.375 208.16 192.685 208.608C192.003 209.047 191.019 209.266 189.731 209.266ZM202.627 205.906C202.627 206.41 202.539 206.872 202.361 207.292C202.193 207.703 201.946 208.057 201.619 208.356C201.293 208.645 200.896 208.869 200.429 209.028C199.962 209.187 199.435 209.266 198.847 209.266C198.259 209.266 197.732 209.187 197.265 209.028C196.798 208.869 196.402 208.645 196.075 208.356C195.748 208.057 195.496 207.703 195.319 207.292C195.151 206.872 195.067 206.41 195.067 205.906V200.557C195.169 200.539 195.333 200.515 195.557 200.487C195.781 200.45 195.996 200.431 196.201 200.431C196.416 200.431 196.602 200.45 196.761 200.487C196.929 200.515 197.069 200.571 197.181 200.655C197.293 200.74 197.377 200.856 197.433 201.006C197.489 201.155 197.517 201.351 197.517 201.594V205.864C197.517 206.312 197.638 206.662 197.881 206.914C198.133 207.166 198.455 207.292 198.847 207.292C199.248 207.292 199.57 207.166 199.813 206.914C200.056 206.662 200.177 206.312 200.177 205.864V200.557C200.28 200.539 200.443 200.515 200.667 200.487C200.891 200.45 201.106 200.431 201.311 200.431C201.526 200.431 201.713 200.45 201.871 200.487C202.039 200.515 202.179 200.571 202.291 200.655C202.403 200.74 202.487 200.856 202.543 201.006C202.599 201.155 202.627 201.351 202.627 201.594V205.906ZM208.858 208.986C208.756 209.014 208.597 209.042 208.382 209.07C208.168 209.098 207.958 209.112 207.752 209.112C207.323 209.112 207.001 209.042 206.786 208.902C206.572 208.753 206.464 208.445 206.464 207.978V206.088C206.231 205.742 205.979 205.36 205.708 204.94C205.438 204.52 205.172 204.09 204.91 203.652C204.649 203.213 204.406 202.784 204.182 202.364C203.958 201.934 203.776 201.542 203.636 201.188C203.758 201.02 203.921 200.866 204.126 200.726C204.341 200.585 204.602 200.515 204.91 200.515C205.274 200.515 205.568 200.59 205.792 200.74C206.026 200.889 206.245 201.169 206.45 201.58L207.612 203.918H207.696C207.827 203.628 207.939 203.367 208.032 203.134C208.135 202.891 208.233 202.653 208.326 202.42C208.42 202.177 208.518 201.93 208.62 201.678C208.723 201.416 208.84 201.118 208.97 200.782C209.139 200.698 209.325 200.632 209.531 200.585C209.736 200.539 209.932 200.515 210.119 200.515C210.445 200.515 210.721 200.604 210.945 200.782C211.178 200.95 211.295 201.206 211.295 201.552C211.295 201.664 211.271 201.799 211.225 201.958C211.178 202.116 211.071 202.359 210.903 202.686C210.735 203.003 210.487 203.437 210.161 203.988C209.843 204.538 209.409 205.257 208.858 206.144V208.986ZM222.935 208.748C222.804 208.879 222.613 208.977 222.361 209.042C222.118 209.117 221.824 209.154 221.479 209.154C221.134 209.154 220.807 209.103 220.499 209C220.191 208.897 219.939 208.65 219.743 208.258L218.357 205.43C218.217 205.14 218.091 204.87 217.979 204.618C217.867 204.356 217.745 204.058 217.615 203.722L217.531 203.736C217.568 204.24 217.587 204.753 217.587 205.276C217.596 205.798 217.601 206.312 217.601 206.816V208.986C217.498 209.014 217.339 209.042 217.125 209.07C216.919 209.098 216.714 209.112 216.509 209.112C216.303 209.112 216.121 209.098 215.963 209.07C215.804 209.042 215.673 208.986 215.571 208.902C215.468 208.818 215.389 208.706 215.333 208.566C215.277 208.417 215.249 208.225 215.249 207.992V200.992C215.379 200.805 215.58 200.665 215.851 200.571C216.121 200.478 216.411 200.431 216.719 200.431C217.064 200.431 217.391 200.487 217.699 200.599C218.016 200.702 218.268 200.945 218.455 201.328L219.855 204.156C219.995 204.445 220.121 204.72 220.233 204.982C220.345 205.234 220.466 205.528 220.597 205.864L220.667 205.85C220.63 205.346 220.606 204.842 220.597 204.338C220.588 203.834 220.583 203.33 220.583 202.826V200.557C220.686 200.529 220.84 200.501 221.045 200.473C221.26 200.445 221.47 200.431 221.675 200.431C222.086 200.431 222.398 200.506 222.613 200.655C222.828 200.796 222.935 201.094 222.935 201.552V208.748ZM224.331 204.786C224.331 204.058 224.443 203.414 224.667 202.854C224.901 202.294 225.213 201.827 225.605 201.454C226.007 201.071 226.473 200.782 227.005 200.585C227.547 200.389 228.13 200.291 228.755 200.291C229.381 200.291 229.959 200.389 230.492 200.585C231.033 200.782 231.504 201.071 231.906 201.454C232.307 201.827 232.62 202.294 232.844 202.854C233.077 203.414 233.194 204.058 233.194 204.786C233.194 205.514 233.082 206.162 232.858 206.732C232.634 207.292 232.321 207.763 231.92 208.146C231.528 208.519 231.061 208.804 230.52 209C229.978 209.196 229.39 209.294 228.755 209.294C228.121 209.294 227.533 209.196 226.991 209C226.45 208.795 225.983 208.501 225.591 208.118C225.199 207.735 224.891 207.264 224.667 206.704C224.443 206.144 224.331 205.504 224.331 204.786ZM226.851 204.786C226.851 205.635 227.024 206.27 227.369 206.69C227.715 207.11 228.177 207.32 228.755 207.32C229.343 207.32 229.81 207.11 230.155 206.69C230.501 206.27 230.674 205.635 230.674 204.786C230.674 203.946 230.501 203.316 230.155 202.896C229.819 202.476 229.357 202.266 228.769 202.266C228.191 202.266 227.724 202.476 227.369 202.896C227.024 203.306 226.851 203.936 226.851 204.786ZM238.516 202.63C238.618 202.583 238.777 202.532 238.992 202.476C239.216 202.41 239.44 202.378 239.664 202.378C240.056 202.378 240.383 202.438 240.644 202.56C240.905 202.672 241.064 202.84 241.12 203.064C241.223 203.446 241.316 203.806 241.4 204.142C241.493 204.468 241.582 204.786 241.666 205.094C241.75 205.392 241.829 205.691 241.904 205.99C241.988 206.288 242.067 206.601 242.142 206.928H242.212C242.296 206.359 242.371 205.817 242.436 205.304C242.501 204.781 242.562 204.272 242.618 203.778C242.674 203.274 242.73 202.779 242.786 202.294C242.842 201.799 242.898 201.3 242.954 200.796C243.299 200.599 243.668 200.501 244.06 200.501C244.405 200.501 244.704 200.576 244.956 200.726C245.208 200.875 245.334 201.127 245.334 201.482C245.334 201.687 245.311 201.981 245.264 202.364C245.227 202.737 245.171 203.157 245.096 203.624C245.031 204.09 244.951 204.58 244.858 205.094C244.765 205.607 244.667 206.097 244.564 206.564C244.461 207.031 244.354 207.455 244.242 207.838C244.139 208.211 244.041 208.501 243.948 208.706C243.808 208.837 243.579 208.944 243.262 209.028C242.945 209.112 242.618 209.154 242.282 209.154C241.843 209.154 241.47 209.098 241.162 208.986C240.863 208.865 240.681 208.697 240.616 208.482C240.495 208.109 240.364 207.665 240.224 207.152C240.084 206.639 239.934 206.074 239.776 205.458C239.645 206.064 239.51 206.657 239.37 207.236C239.23 207.815 239.104 208.305 238.992 208.706C238.852 208.837 238.642 208.944 238.362 209.028C238.082 209.112 237.774 209.154 237.438 209.154C237.018 209.154 236.635 209.098 236.29 208.986C235.954 208.865 235.734 208.697 235.632 208.482C235.548 208.314 235.454 208.067 235.352 207.74C235.258 207.404 235.16 207.026 235.058 206.606C234.955 206.176 234.848 205.714 234.736 205.22C234.633 204.725 234.535 204.23 234.441 203.736C234.357 203.241 234.278 202.76 234.203 202.294C234.129 201.818 234.073 201.384 234.035 200.992C234.166 200.87 234.348 200.758 234.582 200.655C234.815 200.553 235.067 200.501 235.338 200.501C235.692 200.501 235.982 200.581 236.206 200.74C236.439 200.889 236.584 201.146 236.64 201.51C236.789 202.462 236.91 203.255 237.004 203.89C237.106 204.524 237.186 205.047 237.242 205.458C237.307 205.859 237.354 206.172 237.382 206.396C237.41 206.62 237.438 206.797 237.466 206.928H237.536C237.62 206.555 237.699 206.209 237.774 205.892C237.848 205.574 237.923 205.257 237.998 204.94C238.082 204.613 238.166 204.268 238.25 203.904C238.334 203.53 238.422 203.106 238.516 202.63Z" fill="white"/>
<path d="M287.044 84.0779C285.606 84.0779 284.43 82.9022 284.43 81.4637V63.4999C284.43 62.0625 285.605 60.8857 287.044 60.8857C288.481 60.8857 289.658 62.0614 289.658 63.4999V81.4637C289.657 82.9022 288.481 84.0779 287.044 84.0779Z" fill="white"/>
<path d="M298.639 72.4823C298.639 73.9197 297.464 75.0965 296.025 75.0965H278.061C276.624 75.0965 275.447 73.9208 275.447 72.4823C275.447 71.0449 276.623 69.8682 278.061 69.8682H296.025C297.464 69.8692 298.639 71.0449 298.639 72.4823Z" fill="white"/>
<path d="M527.622 197.299C526.185 197.299 525.008 196.123 525.008 194.685V176.721C525.008 175.283 526.184 174.107 527.622 174.107C529.059 174.107 530.236 175.282 530.236 176.721V194.685C530.235 196.122 529.059 197.299 527.622 197.299Z" fill="white"/>
<path d="M539.217 185.703C539.217 187.141 538.042 188.317 536.603 188.317H518.639C517.202 188.317 516.025 187.142 516.025 185.703C516.025 184.266 517.201 183.089 518.639 183.089H536.603C538.041 183.089 539.217 184.266 539.217 185.703Z" fill="white"/>
<path d="M116.48 290.238C115.043 290.238 113.866 289.063 113.866 287.624V269.66C113.866 268.223 115.043 267.046 116.48 267.046C117.918 267.046 119.094 268.222 119.094 269.66V287.624C119.094 289.062 117.918 290.238 116.48 290.238Z" fill="white"/>
<path d="M128.077 278.643C128.077 280.08 126.9 281.257 125.463 281.257H107.499C106.062 281.257 104.885 280.081 104.885 278.643C104.885 277.205 106.062 276.029 107.499 276.029H125.463C126.9 276.029 128.077 277.204 128.077 278.643Z" fill="white"/>
</g>
<defs>
<clipPath id="clip0_183_20010">
<rect width="618.016" height="390" fill="white"/>
</clipPath>
</defs>
</svg>
