<svg width="595" height="375" viewBox="0 0 595 375" fill="none" xmlns="http://www.w3.org/2000/svg">
<g clip-path="url(#clip0_152_22033)">
<path d="M304.716 375C400.618 375 478.363 297.256 478.363 201.353C478.363 105.45 400.618 27.7058 304.716 27.7058C208.813 27.7058 131.069 105.45 131.069 201.353C131.069 297.256 208.813 375 304.716 375Z" fill="#F6FF93"/>
<path d="M245.61 31.6122L250.609 30.8002C251.536 30.6498 252.164 29.777 252.014 28.8517L250.827 21.5408C250.676 20.6155 249.803 19.9859 248.878 20.1363L243.613 20.9905C242.575 18.6175 241.169 16.4628 239.484 14.573L242.524 10.5399C243.089 9.79079 242.94 8.72636 242.191 8.16065L236.276 3.70094C235.527 3.13627 234.462 3.28569 233.897 4.03481L230.68 8.30182C228.352 7.33012 225.858 6.70671 223.264 6.50372L222.672 1.49891C222.562 0.567404 221.718 -0.098255 220.785 0.0120011L213.429 0.881686C212.498 0.991942 211.832 1.83587 211.942 2.76841L212.572 8.08852C209.613 9.2323 206.961 10.9243 204.716 13.0366L200.42 9.89486C199.663 9.34152 198.6 9.50639 198.046 10.2638L193.674 16.2423C193.12 16.9997 193.285 18.062 194.043 18.6164L198.665 21.9973C197.471 25.0896 196.913 28.4642 197.092 31.9543L192.181 33.1939C191.271 33.4237 190.72 34.347 190.949 35.2568L192.763 42.4389C192.993 43.3488 193.916 43.9001 194.826 43.6703L200.008 42.3617C201.243 44.6266 202.814 46.6658 204.661 48.4072L201.082 54.1209L210.237 59.8573L213.979 53.8839C216.372 54.6465 218.905 55.0576 221.519 55.036L222.885 61.639L233.465 59.4493L232.036 52.5433C234.354 51.4057 236.448 49.9199 238.264 48.1537L243.833 51.9879L249.959 43.0881L244.152 39.09C245.018 36.7304 245.518 34.2151 245.61 31.6122ZM223.431 39.4672C217.025 41.0561 210.91 36.2347 210.96 29.6348C210.994 25.138 214.149 21.1379 218.513 20.0549C224.919 18.467 231.033 23.2874 230.983 29.8862C230.95 34.383 227.794 38.3842 223.431 39.4672Z" fill="white"/>
<path d="M267.621 93.234C273.483 80.8503 268.196 66.0584 255.813 60.1953C243.429 54.3332 228.637 59.6203 222.774 72.004L267.621 93.234Z" fill="white"/>
<path d="M274.435 56.8299C270.797 64.5128 261.621 67.7927 253.938 64.1563C246.256 60.5199 242.976 51.3429 246.612 43.66C250.249 35.9771 259.426 32.6972 267.108 36.3336C274.791 39.97 278.071 49.147 274.435 56.8299Z" fill="white"/>
<path d="M242.854 89.8614L165.454 29.033C164.784 28.5065 164.667 27.5276 165.193 26.8568L165.977 25.8603C166.503 25.1906 167.482 25.0731 168.153 25.5996L245.553 86.427C246.222 86.9535 246.34 87.9324 245.813 88.6022L245.03 89.5986C244.504 90.2705 243.524 90.3879 242.854 89.8614Z" fill="#BF0411"/>
<path d="M191.82 93.8399L156.543 66.1161C152.605 63.0207 151.566 57.4409 154.127 53.1368L167.441 30.7497L169.077 31.7235L155.764 54.1106C153.691 57.5955 154.532 62.1129 157.721 64.6189L192.998 92.3426L191.82 93.8399Z" fill="#EDEEF0"/>
<path d="M209.655 107.858L174.38 80.1341L175.556 78.6369L210.832 106.361C214.02 108.867 218.61 108.616 221.506 105.778L240.112 87.5501L241.445 88.9103L222.84 107.139C219.261 110.643 213.594 110.952 209.655 107.858Z" fill="#EDEEF0"/>
<path d="M155.537 52.8677L154.361 54.365L221.593 107.199L222.77 105.701L155.537 52.8677Z" fill="#EDEEF0"/>
<path d="M161.071 45.8268L159.895 47.3239L227.119 100.157L228.295 98.6604L161.071 45.8268Z" fill="#EDEEF0"/>
<path d="M164.879 37.3849L163.702 38.8822L234.519 94.5326L235.696 93.0353L164.879 37.3849Z" fill="#EDEEF0"/>
<path d="M160.681 69.3692C156.503 66.0852 159.743 58.1643 159.883 57.8294L159.939 57.715L173.101 35.2094L174.746 36.1708L161.616 58.6198C160.814 60.5848 159.356 65.907 161.857 67.872L160.681 69.3692Z" fill="#EDEEF0"/>
<path d="M166.8 74.1772C162.621 70.8932 165.861 62.9723 166.001 62.6374L166.058 62.523L179.221 40.0174L180.865 40.9788L167.736 63.4277C166.934 65.3927 165.476 70.7149 167.977 72.681L166.8 74.1772Z" fill="#EDEEF0"/>
<path d="M172.313 78.5102C168.134 75.2262 171.374 67.3053 171.514 66.9704L171.571 66.856L184.732 44.3504L186.377 45.3118L173.247 67.7607C172.446 69.7257 170.987 75.0479 173.488 77.013L172.313 78.5102Z" fill="#EDEEF0"/>
<path d="M177.863 82.8709C173.684 79.5869 176.924 71.666 177.064 71.3311L177.121 71.2168L190.284 48.7111L191.928 49.6725L178.799 72.1215C177.997 74.0865 176.539 79.4087 179.04 81.3747L177.863 82.8709Z" fill="#EDEEF0"/>
<path d="M205.304 104.438L206.481 102.941C208.982 104.907 213.808 102.232 215.528 100.988L234.237 82.9245L235.56 84.295L216.706 102.486C216.413 102.701 209.482 107.721 205.304 104.438Z" fill="#EDEEF0"/>
<path d="M199.186 99.6288L200.362 98.1316C202.863 100.098 207.69 97.4227 209.409 96.179L228.119 78.1155L229.442 79.486L210.587 97.6772C210.295 97.8926 203.364 102.913 199.186 99.6288Z" fill="#EDEEF0"/>
<path d="M193.068 94.8209L194.244 93.3236C196.745 95.2897 201.572 92.6147 203.292 91.371L222.001 73.3075L223.324 74.678L204.469 92.8692C204.176 93.0836 197.246 98.1048 193.068 94.8209Z" fill="#EDEEF0"/>
<path d="M186.949 90.0119L188.126 88.5146C190.627 90.4807 195.453 87.8057 197.173 86.562L215.882 68.4985L217.205 69.869L198.351 88.0602C198.058 88.2756 191.127 93.2969 186.949 90.0119Z" fill="#EDEEF0"/>
<path d="M203.807 59.1811L182.977 85.6852L184.474 86.8618L205.304 60.3577L203.807 59.1811Z" fill="#EDEEF0"/>
<path d="M181.712 85.8932C178.611 83.0461 182.312 76.3937 182.744 75.6446L196.791 53.7768L198.393 54.8051L184.37 76.6348C183.497 78.1537 181.318 82.9472 183 84.4918L181.712 85.8932Z" fill="#EDEEF0"/>
<path d="M184.211 87.8572L185.268 86.2744C187.172 87.547 191.311 84.2939 192.611 83.0533L210.475 64.2995L211.853 65.6133L193.958 84.399C193.301 85.0286 187.711 90.1973 184.211 87.8572Z" fill="#EDEEF0"/>
<path d="M212.679 62.0748L211.182 60.8981L222.948 45.9259C223.187 45.622 223.134 45.182 222.831 44.9429L214.653 38.5161C214.349 38.2771 213.909 38.3306 213.671 38.6336L201.905 53.6057L200.408 52.429L212.174 37.4568C213.061 36.3285 214.702 36.1317 215.83 37.0189L224.008 43.4457C225.136 44.3329 225.333 45.9733 224.446 47.1017L212.679 62.0748Z" fill="#BF0411"/>
<path d="M215.183 64.0419L213.686 62.8651L225.452 47.893C225.691 47.589 225.638 47.149 225.335 46.9099L217.157 40.4832C216.853 40.2451 216.413 40.2977 216.174 40.6006L204.408 55.5728L202.91 54.396L214.677 39.4239C215.564 38.2955 217.205 38.0987 218.333 38.9859L226.51 45.4127C227.639 46.2999 227.835 47.9404 226.948 49.0687L215.183 64.0419Z" fill="#BF0411"/>
<path d="M341.3 323.741H272.374V358.746H341.3V323.741Z" fill="#575756"/>
<path d="M444.733 124.945H309.406H304.8H169.476C164.654 124.945 160.337 127.744 160.337 132.566V299.088H451.949V132.566C451.949 127.744 449.554 124.945 444.733 124.945ZM441.645 284.662H170.641V135.25H441.645V284.662Z" fill="black"/>
<path d="M160.337 315.424C160.337 320.245 164.654 323.819 169.476 323.819H304.8H309.406H444.733C449.553 323.819 451.949 320.245 451.949 315.424V299.088H160.337V315.424Z" fill="#94998F"/>
<path d="M441.484 135.826H169.62V285.434H441.484V135.826Z" fill="white"/>
<path d="M347.674 364.102H266.445C264.995 364.102 263.819 362.926 263.819 361.477V361.087C263.819 359.637 264.995 358.462 266.445 358.462H347.674C349.124 358.462 350.299 359.637 350.299 361.087V361.477C350.299 362.926 349.125 364.102 347.674 364.102Z" fill="#94998F"/>
<path d="M272.374 345.369C272.374 345.369 271.305 358.462 266.64 358.462H275.811L272.374 345.369Z" fill="#575756"/>
<path d="M341.295 345.369C341.295 345.369 342.364 358.462 347.029 358.462H337.857L341.295 345.369Z" fill="#575756"/>
<path d="M441.763 135.362H168.53V152.754H441.763V135.362Z" fill="#76AADB"/>
<path d="M271.282 152.754H168.53V285.375H271.282V152.754Z" fill="#EDEEF0"/>
<path d="M325.618 159.773H280.918V214.252H325.618V159.773Z" fill="#EDEEF0"/>
<path d="M379.227 159.773H334.527V214.252H379.227V159.773Z" fill="#EDEEF0"/>
<path d="M431.691 159.773H386.99V214.252H431.691V159.773Z" fill="#EDEEF0"/>
<path d="M325.618 223.472H280.918V277.951H325.618V223.472Z" fill="#EDEEF0"/>
<path d="M379.227 223.472H334.527V277.951H379.227V223.472Z" fill="#EDEEF0"/>
<path d="M431.691 223.472H386.99V277.951H431.691V223.472Z" fill="#EDEEF0"/>
<path d="M373.246 167.085H340.509V191.745H373.246V167.085Z" fill="white"/>
<path d="M373.246 228.689H340.509V270.658H373.246V228.689Z" fill="#76AADB"/>
<path d="M319.636 167.085H286.9V171.686H319.636V167.085Z" fill="#76AADB"/>
<path d="M319.636 173.938H286.9V178.539H319.636V173.938Z" fill="white"/>
<path d="M319.636 180.792H286.9V185.393H319.636V180.792Z" fill="white"/>
<path d="M319.636 187.646H286.9V192.247H319.636V187.646Z" fill="white"/>
<path d="M301.635 194.5H286.9V199.1H301.635V194.5Z" fill="white"/>
<path d="M319.636 201.353H286.9V205.954H319.636V201.353Z" fill="white"/>
<path d="M319.636 231.278H286.9V235.879H319.636V231.278Z" fill="white"/>
<path d="M319.636 238.131H286.9V242.732H319.636V238.131Z" fill="white"/>
<path d="M319.636 244.984H286.9V249.585H319.636V244.984Z" fill="white"/>
<path d="M319.636 251.838H286.9V256.439H319.636V251.838Z" fill="white"/>
<path d="M301.635 258.692H286.9V263.293H301.635V258.692Z" fill="white"/>
<path d="M319.636 265.546H286.9V270.147H319.636V265.546Z" fill="white"/>
<path d="M425.709 231.278H392.972V235.879H425.709V231.278Z" fill="white"/>
<path d="M425.709 238.131H392.972V242.732H425.709V238.131Z" fill="white"/>
<path d="M425.709 244.984H392.972V249.585H425.709V244.984Z" fill="white"/>
<path d="M425.709 251.838H392.972V256.439H425.709V251.838Z" fill="white"/>
<path d="M407.707 258.692H392.972V263.293H407.707V258.692Z" fill="white"/>
<path d="M425.709 265.546H392.972V270.147H425.709V265.546Z" fill="white"/>
<path d="M425.709 167.085H392.972V171.686H425.709V167.085Z" fill="#76AADB"/>
<path d="M425.709 173.938H392.972V178.539H425.709V173.938Z" fill="white"/>
<path d="M425.709 180.792H392.972V185.393H425.709V180.792Z" fill="white"/>
<path d="M425.709 187.646H392.972V192.247H425.709V187.646Z" fill="white"/>
<path d="M407.707 194.5H392.972V199.1H407.707V194.5Z" fill="white"/>
<path d="M425.709 201.353H392.972V205.954H425.709V201.353Z" fill="white"/>
<path d="M355.244 194.5H340.509V199.1H355.244V194.5Z" fill="white"/>
<path d="M373.246 201.353H340.509V205.954H373.246V201.353Z" fill="white"/>
<path d="M527.312 142.908L456.857 142.81L456.789 191.755L527.244 191.854L527.312 142.908Z" fill="#F0CA45"/>
<path d="M456.855 142.814L492.048 167.336L527.309 142.914L456.855 142.814Z" fill="#DB9600"/>
<path d="M517.987 149.371L492.047 167.336L466.107 149.262V108.477H517.987V149.371Z" fill="white"/>
<path d="M512.753 114.598H472.597V118.329H512.753V114.598Z" fill="#F7F7F8"/>
<path d="M512.753 121.705H472.597V125.436H512.753V121.705Z" fill="#F7F7F8"/>
<path d="M512.753 128.813H472.597V132.544H512.753V128.813Z" fill="#F7F7F8"/>
<path d="M512.753 135.92H472.597V139.651H512.753V135.92Z" fill="#F7F7F8"/>
<path d="M512.753 143.027H472.597V146.758H512.753V143.027Z" fill="#F7F7F8"/>
<path d="M234.37 192.271C239.628 200.259 237.413 210.995 229.424 216.252C221.436 221.508 210.7 219.294 205.443 211.307C200.187 203.319 202.401 192.583 210.389 187.326C218.377 182.068 229.113 184.283 234.37 192.271Z" fill="#FBF47F"/>
<path d="M231.897 193.898C236.255 200.52 234.42 209.42 227.797 213.779C221.175 218.137 212.274 216.301 207.917 209.679C203.56 203.057 205.395 194.155 212.017 189.799C218.639 185.44 227.54 187.276 231.897 193.898Z" fill="#F0CA45"/>
<path d="M227.403 203.587C228.386 205.004 228.719 206.39 228.401 207.746C228.205 208.55 227.777 209.266 227.117 209.89L227.89 211.064L225.756 212.468L224.948 211.241C223.774 211.644 222.608 211.557 221.452 210.98C220.463 210.485 219.586 209.724 218.822 208.698L221.122 206.936C221.878 207.853 222.594 208.389 223.269 208.542C223.787 208.672 224.236 208.6 224.615 208.324C225.155 207.944 225.417 207.383 225.401 206.641C225.4 206.272 225.242 205.848 224.926 205.367C224.475 204.683 223.711 204.198 222.632 203.915C221.815 203.778 220.599 203.564 218.982 203.278C217.723 203.049 216.718 202.742 215.968 202.357C215.029 201.878 214.265 201.191 213.674 200.293C213.107 199.43 212.793 198.509 212.734 197.528C212.652 196.32 213.026 195.271 213.855 194.382L213.144 193.302L215.278 191.898L215.989 192.978C216.764 192.684 217.512 192.599 218.231 192.725C219.493 192.939 220.558 193.609 221.424 194.732L219.287 196.77C218.771 196.141 218.222 195.731 217.638 195.541C217.25 195.416 216.833 195.498 216.389 195.791C215.926 196.095 215.709 196.531 215.739 197.097C215.76 197.555 215.932 198.029 216.252 198.517C216.755 199.282 217.599 199.847 218.784 200.215C219.212 200.342 219.812 200.45 220.585 200.54C221.488 200.634 222.104 200.719 222.434 200.794C223.478 201.025 224.358 201.325 225.073 201.695C226.134 202.249 226.911 202.878 227.403 203.587Z" fill="#C9A226"/>
<path d="M226.751 203.433C227.734 204.85 228.068 206.236 227.75 207.592C227.553 208.397 227.125 209.112 226.466 209.737L227.238 210.91L225.104 212.315L224.296 211.087C223.121 211.49 221.956 211.404 220.8 210.827C219.81 210.331 218.934 209.571 218.17 208.544L220.47 206.782C221.226 207.698 221.941 208.235 222.616 208.389C223.135 208.519 223.584 208.446 223.964 208.17C224.504 207.79 224.766 207.229 224.749 206.489C224.748 206.12 224.59 205.695 224.274 205.215C223.824 204.53 223.059 204.045 221.981 203.762C221.163 203.625 219.947 203.412 218.331 203.125C217.072 202.897 216.067 202.589 215.317 202.204C214.378 201.727 213.613 201.039 213.023 200.14C212.455 199.278 212.142 198.356 212.082 197.377C212.001 196.169 212.375 195.12 213.203 194.231L212.492 193.151L214.626 191.746L215.337 192.826C216.113 192.532 216.86 192.448 217.58 192.574C218.841 192.788 219.906 193.457 220.773 194.581L218.636 196.618C218.119 195.99 217.57 195.579 216.987 195.39C216.599 195.264 216.181 195.347 215.736 195.639C215.274 195.943 215.057 196.379 215.087 196.946C215.108 197.403 215.279 197.877 215.601 198.366C216.104 199.13 216.948 199.696 218.132 200.064C218.559 200.191 219.159 200.299 219.933 200.388C220.836 200.482 221.452 200.567 221.782 200.643C222.825 200.874 223.705 201.174 224.421 201.545C225.483 202.097 226.26 202.725 226.751 203.433Z" fill="#FBF47F"/>
<path opacity="0.74" d="M205.619 192.002L206.825 193.233L208.754 190.838L207.579 189.627C207.579 189.627 206.181 191.125 205.619 192.002Z" fill="white"/>
<path opacity="0.74" d="M233.347 212.775L232.141 211.545L229.986 213.72L231.162 214.932C231.162 214.932 232.785 213.651 233.347 212.775Z" fill="white"/>
<path d="M214.065 225.684C223.066 222.457 232.979 227.139 236.206 236.141C239.432 245.142 234.751 255.055 225.749 258.282C216.747 261.508 206.835 256.827 203.608 247.825C200.382 238.823 205.063 228.911 214.065 225.684Z" fill="#FBF47F"/>
<path d="M215.063 228.472C222.526 225.797 230.743 229.677 233.418 237.141C236.093 244.603 232.213 252.821 224.75 255.496C217.288 258.171 209.07 254.289 206.395 246.828C203.72 239.363 207.601 231.146 215.063 228.472Z" fill="#F0CA45"/>
<path d="M223.42 235.122C225.029 234.501 226.455 234.503 227.697 235.133C228.433 235.513 229.028 236.098 229.479 236.885L230.802 236.411L231.665 238.816L230.282 239.312C230.397 240.548 230.037 241.66 229.205 242.648C228.49 243.492 227.545 244.166 226.367 244.667L225.197 242.017C226.265 241.499 226.954 240.929 227.264 240.309C227.512 239.836 227.548 239.383 227.369 238.949C227.127 238.335 226.643 237.949 225.919 237.79C225.56 237.704 225.111 237.758 224.57 237.952C223.798 238.228 223.147 238.858 222.617 239.838C222.292 240.6 221.798 241.732 221.139 243.235C220.619 244.404 220.085 245.308 219.533 245.947C218.848 246.747 217.999 247.328 216.987 247.69C216.015 248.039 215.046 248.126 214.079 247.953C212.886 247.747 211.954 247.137 211.286 246.122L210.069 246.559L209.206 244.154L210.423 243.718C210.32 242.896 210.415 242.15 210.707 241.479C211.212 240.303 212.113 239.426 213.41 238.848L214.887 241.406C214.154 241.759 213.627 242.196 213.305 242.719C213.091 243.067 213.074 243.491 213.254 243.993C213.44 244.514 213.812 244.827 214.371 244.932C214.82 245.019 215.322 244.965 215.872 244.767C216.734 244.458 217.483 243.772 218.118 242.707C218.342 242.322 218.588 241.764 218.858 241.034C219.162 240.179 219.39 239.6 219.542 239.296C220.011 238.337 220.511 237.552 221.039 236.945C221.822 236.039 222.616 235.432 223.42 235.122Z" fill="#C9A226"/>
<path d="M223.118 235.719C224.727 235.096 226.153 235.1 227.396 235.728C228.131 236.108 228.725 236.694 229.177 237.481L230.5 237.007L231.363 239.412L229.98 239.907C230.095 241.144 229.736 242.256 228.903 243.244C228.188 244.089 227.243 244.762 226.065 245.263L224.895 242.612C225.963 242.094 226.654 241.524 226.962 240.905C227.211 240.432 227.246 239.979 227.067 239.544C226.825 238.93 226.341 238.543 225.617 238.385C225.259 238.299 224.809 238.353 224.268 238.546C223.496 238.822 222.845 239.452 222.316 240.433C221.99 241.195 221.496 242.327 220.837 243.829C220.318 244.999 219.783 245.903 219.232 246.541C218.546 247.341 217.697 247.922 216.685 248.285C215.714 248.633 214.744 248.721 213.777 248.548C212.584 248.342 211.653 247.732 210.984 246.717L209.767 247.152L208.905 244.747L210.121 244.312C210.018 243.489 210.113 242.743 210.405 242.072C210.91 240.897 211.811 240.02 213.108 239.442L214.584 241.999C213.852 242.353 213.324 242.79 213.003 243.312C212.788 243.66 212.771 244.085 212.951 244.587C213.138 245.107 213.51 245.42 214.068 245.525C214.517 245.613 215.018 245.558 215.569 245.361C216.431 245.052 217.18 244.365 217.816 243.301C218.039 242.915 218.286 242.358 218.556 241.627C218.86 240.772 219.087 240.193 219.239 239.891C219.709 238.932 220.208 238.147 220.736 237.539C221.52 236.636 222.314 236.029 223.118 235.719Z" fill="#FBF47F"/>
<path opacity="0.74" d="M207.029 253.563L208.51 252.68L206.636 250.241L205.181 251.097C205.181 251.097 206.31 252.811 207.029 253.563Z" fill="white"/>
<path opacity="0.74" d="M233.75 231.51L232.27 232.393L233.876 234.999L235.331 234.142C235.331 234.142 234.471 232.263 233.75 231.51Z" fill="white"/>
<path d="M222.416 87.3122H218.823H168.161C167.383 87.3122 166.881 88.1345 167.238 88.8259L205.077 162.378C205.152 162.525 205.193 162.688 205.193 162.853V173.17C205.193 173.626 205.49 174.029 205.926 174.163L234.705 182.992C235.373 183.197 236.049 182.697 236.049 181.998V162.853C236.049 162.688 236.088 162.525 236.164 162.378L274.004 88.8259C274.359 88.1345 273.857 87.3122 273.079 87.3122H222.416Z" fill="#BF0411"/>
<path d="M273.176 92.187H166.636C163.381 92.187 160.717 89.5234 160.717 86.2682V85.583C160.717 82.3279 163.381 79.6642 166.636 79.6642H273.176C276.432 79.6642 279.095 82.3279 279.095 85.583V86.2682C279.096 89.5234 276.433 92.187 273.176 92.187Z" fill="#E00E22"/>
<path opacity="0.18" d="M213.471 89.6656H173.259C170.659 89.6656 168.531 87.5388 168.531 84.938V84.3908C168.531 81.7911 170.659 79.6632 173.259 79.6632H213.471C216.071 79.6632 218.199 81.7911 218.199 84.3908V84.938C218.199 87.5388 216.071 89.6656 213.471 89.6656Z" fill="white"/>
<path opacity="0.18" d="M247.973 89.6656H232.594C229.994 89.6656 227.866 87.5388 227.866 84.938V84.3908C227.866 81.7911 229.993 79.6632 232.594 79.6632H247.973C250.573 79.6632 252.701 81.7911 252.701 84.3908V84.938C252.701 87.5388 250.573 89.6656 247.973 89.6656Z" fill="white"/>
<path d="M233.926 183.476L204.431 173.948C202.887 173.449 202.031 171.777 202.53 170.232L202.635 169.907C203.134 168.363 204.806 167.507 206.351 168.006L235.846 177.535C237.391 178.033 238.246 179.706 237.747 181.25L237.642 181.575C237.143 183.12 235.472 183.975 233.926 183.476Z" fill="#E00E22"/>
<mask id="mask0_152_22033" style="mask-type:luminance" maskUnits="userSpaceOnUse" x="191" y="260" width="52" height="26">
<path d="M193.207 285.365H242.881L240.549 265.546L215.595 260.992L191.108 268.509L193.207 285.365Z" fill="white"/>
</mask>
<g mask="url(#mask0_152_22033)">
<path d="M234.475 273.507C239.643 281.552 237.31 292.264 229.264 297.431C221.218 302.599 210.507 300.266 205.339 292.221C200.172 284.176 202.505 273.464 210.55 268.297C218.595 263.129 229.307 265.461 234.475 273.507Z" fill="#FBF47F"/>
<path d="M231.984 275.107C236.269 281.777 234.335 290.657 227.665 294.941C220.995 299.225 212.114 297.291 207.831 290.621C203.546 283.951 205.48 275.071 212.15 270.787C218.819 266.503 227.7 268.437 231.984 275.107Z" fill="#F0CA45"/>
<path d="M227.382 284.745C228.35 286.173 228.667 287.562 228.335 288.915C228.13 289.717 227.693 290.427 227.027 291.045L227.786 292.226L225.637 293.607L224.843 292.372C223.665 292.762 222.5 292.662 221.35 292.072C220.367 291.565 219.499 290.795 218.745 289.761L221.065 288.024C221.811 288.949 222.521 289.493 223.194 289.655C223.711 289.791 224.16 289.724 224.544 289.452C225.088 289.077 225.356 288.52 225.347 287.778C225.35 287.409 225.197 286.984 224.887 286.499C224.444 285.81 223.684 285.316 222.61 285.021C221.793 284.874 220.58 284.649 218.967 284.344C217.711 284.101 216.709 283.783 215.963 283.39C215.03 282.901 214.273 282.206 213.692 281.301C213.134 280.432 212.831 279.508 212.782 278.526C212.714 277.317 213.1 276.272 213.938 275.392L213.24 274.304L215.389 272.923L216.088 274.012C216.866 273.726 217.615 273.651 218.333 273.784C219.592 274.012 220.65 274.694 221.505 275.826L219.345 277.84C218.836 277.205 218.291 276.79 217.71 276.593C217.322 276.463 216.904 276.541 216.457 276.829C215.991 277.128 215.771 277.561 215.793 278.128C215.809 278.586 215.975 279.062 216.291 279.553C216.786 280.324 217.623 280.898 218.803 281.279C219.229 281.41 219.828 281.525 220.6 281.624C221.502 281.728 222.117 281.82 222.446 281.9C223.486 282.142 224.363 282.452 225.074 282.83C226.129 283.394 226.899 284.031 227.382 284.745Z" fill="#C9A226"/>
<path d="M226.733 284.585C227.701 286.013 228.019 287.402 227.685 288.755C227.48 289.558 227.043 290.268 226.378 290.885L227.137 292.067L224.988 293.448L224.193 292.212C223.014 292.603 221.85 292.503 220.7 291.913C219.716 291.406 218.848 290.637 218.095 289.602L220.415 287.866C221.161 288.79 221.871 289.334 222.543 289.496C223.061 289.632 223.51 289.565 223.893 289.293C224.437 288.919 224.705 288.361 224.697 287.619C224.7 287.251 224.547 286.825 224.236 286.341C223.793 285.651 223.034 285.158 221.958 284.862C221.143 284.716 219.929 284.49 218.316 284.184C217.059 283.942 216.058 283.623 215.312 283.23C214.378 282.742 213.622 282.046 213.041 281.141C212.483 280.272 212.179 279.348 212.131 278.367C212.063 277.159 212.448 276.114 213.287 275.234L212.588 274.146L214.738 272.765L215.437 273.853C216.216 273.569 216.964 273.492 217.682 273.626C218.941 273.854 219.998 274.535 220.852 275.669L218.693 277.682C218.184 277.047 217.639 276.632 217.057 276.436C216.67 276.305 216.253 276.385 215.804 276.672C215.339 276.971 215.118 277.404 215.141 277.972C215.156 278.429 215.322 278.905 215.639 279.397C216.133 280.166 216.971 280.741 218.151 281.123C218.576 281.253 219.176 281.369 219.948 281.468C220.849 281.572 221.465 281.664 221.793 281.743C222.834 281.985 223.711 282.295 224.422 282.673C225.48 283.234 226.25 283.871 226.733 284.585Z" fill="#FBF47F"/>
<path opacity="0.74" d="M205.728 272.92L206.921 274.164L208.877 271.791L207.714 270.566C207.714 270.566 206.299 272.05 205.728 272.92Z" fill="white"/>
</g>
<path d="M73.7687 188.147H141.696C145.165 188.147 148.004 185.308 148.004 181.839V143.427C148.004 139.958 145.165 137.119 141.696 137.119H73.7687C70.2993 137.119 67.4604 139.958 67.4604 143.427V181.839C67.4604 185.307 70.2993 188.147 73.7687 188.147Z" fill="white"/>
<path d="M75.7673 149.996H139.697V143.887H75.7673V149.996Z" fill="#48179C"/>
<path d="M75.7673 160.33H139.697V154.221H75.7673V160.33Z" fill="#48179C"/>
<path d="M89.1577 170.662H139.697V164.554H89.1577V170.662Z" fill="#48179C"/>
<path d="M104.077 180.996H139.697V174.888H104.077V180.996Z" fill="#48179C"/>
<path d="M129.103 185.478L148.005 204.38V181.43L129.103 185.478Z" fill="white"/>
<path d="M414.223 49.2697H313.497V114.916H414.223V49.2697Z" fill="white"/>
<path d="M374.828 82.0929C374.828 87.8293 370.178 92.4797 364.442 92.4797C358.705 92.4797 354.054 87.8293 354.054 82.0929C354.054 76.3565 358.704 71.7062 364.442 71.7062C370.179 71.7062 374.828 76.3565 374.828 82.0929Z" fill="#E00E22"/>
<path d="M361.683 76.7388V86.0508L369.665 81.3953L361.683 76.7388Z" fill="white"/>
<path d="M414.223 49.2697H313.497V57.0978H414.223V49.2697Z" fill="#83898C"/>
<path d="M414.223 107.088H313.497V114.916H414.223V107.088Z" fill="#83898C"/>
<path d="M465.396 89.6574C464.057 89.6574 462.963 88.562 462.963 87.2245V70.5017C462.963 69.1631 464.058 68.0688 465.396 68.0688C466.735 68.0688 467.829 69.1642 467.829 70.5017V87.2245C467.829 88.562 466.733 89.6574 465.396 89.6574Z" fill="white"/>
<path d="M476.19 78.8626C476.19 80.2011 475.095 81.2954 473.757 81.2954H457.034C455.696 81.2954 454.601 80.2001 454.601 78.8626C454.601 77.524 455.697 76.4297 457.034 76.4297H473.757C475.096 76.4297 476.19 77.524 476.19 78.8626Z" fill="white"/>
<path d="M124.845 259.652C123.506 259.652 122.412 258.556 122.412 257.219V240.496C122.412 239.157 123.507 238.063 124.845 238.063C126.183 238.063 127.278 239.158 127.278 240.496V257.219C127.278 258.557 126.182 259.652 124.845 259.652Z" fill="white"/>
<path d="M135.639 248.858C135.639 250.196 134.543 251.291 133.206 251.291H116.483C115.145 251.291 114.05 250.195 114.05 248.858C114.05 247.519 115.146 246.425 116.483 246.425H133.206C134.545 246.424 135.639 247.519 135.639 248.858Z" fill="white"/>
<path d="M400.34 359.281C399.001 359.281 397.907 358.185 397.907 356.848V340.125C397.907 338.787 399.002 337.692 400.34 337.692C401.678 337.692 402.773 338.788 402.773 340.125V356.848C402.773 358.185 401.678 359.281 400.34 359.281Z" fill="white"/>
<path d="M411.135 348.486C411.135 349.825 410.039 350.919 408.702 350.919H391.979C390.64 350.919 389.546 349.824 389.546 348.486C389.546 347.147 390.641 346.053 391.979 346.053H408.702C410.039 346.053 411.135 347.147 411.135 348.486Z" fill="white"/>
<path d="M277.184 285.375H265.442L302.118 241.806L316.069 255.938L347.033 218.991L357.99 230.694L390.493 188.642L397.599 194.134L358.644 244.534L347.405 232.529L316.612 269.272L302.629 255.107L277.184 285.375Z" fill="#F0CA45"/>
<path d="M384.43 184.7L402.279 198.237L403.612 179.933L384.43 184.7Z" fill="#F0CA45"/>
<path d="M473.354 367.875H430.455C425.962 367.875 422.287 364.199 422.287 359.706V254.565C422.287 250.073 425.962 246.397 430.455 246.397H473.354C477.847 246.397 481.522 250.073 481.522 254.565V359.707C481.522 364.199 477.847 367.875 473.354 367.875Z" fill="black"/>
<path d="M478.628 259.327H425.18V353.743H478.628V259.327Z" fill="white"/>
<path d="M456.527 360.717C456.527 363.271 454.457 365.341 451.905 365.341C449.351 365.341 447.281 363.271 447.281 360.717C447.281 358.164 449.351 356.094 451.905 356.094C454.458 356.094 456.527 358.164 456.527 360.717Z" fill="#535B5F"/>
<path d="M455.381 253.538H447.112C446.843 253.538 446.624 253.319 446.624 253.05C446.624 252.781 446.843 252.561 447.112 252.561H455.381C455.65 252.561 455.87 252.782 455.87 253.05C455.87 253.319 455.65 253.538 455.381 253.538Z" fill="#16171D"/>
<path d="M443.391 253.068C443.391 253.535 443.012 253.914 442.545 253.914C442.078 253.914 441.699 253.536 441.699 253.068C441.699 252.601 442.077 252.222 442.545 252.222C443.013 252.222 443.391 252.601 443.391 253.068Z" fill="#16171D"/>
<path d="M443.243 253.091C443.232 253.225 443.219 253.347 443.145 253.465C443.017 253.669 442.515 253.841 442.291 253.751C442.008 253.637 441.86 253.327 441.859 253.038C441.858 252.535 442.432 252.089 442.905 252.442C443.125 252.607 443.22 252.845 443.241 253.109C443.248 253.188 443.549 253.129 443.54 253.029C443.442 251.818 441.553 251.925 441.551 253.1C441.548 254.344 443.447 254.19 443.539 253.048C443.548 252.945 443.25 253.004 443.243 253.091Z" fill="#1D1D1B"/>
<path d="M451.904 249.515C451.904 249.879 451.61 250.173 451.247 250.173C450.883 250.173 450.59 249.878 450.59 249.515C450.59 249.151 450.884 248.858 451.247 248.858C451.61 248.858 451.904 249.151 451.904 249.515Z" fill="#16171D"/>
<path d="M451.754 249.531C451.719 249.876 451.419 250.36 450.919 249.918C450.798 249.811 450.744 249.644 450.751 249.486C450.768 249.141 451.084 248.679 451.574 249.11C451.7 249.222 451.739 249.394 451.755 249.554C451.766 249.668 452.066 249.6 452.054 249.474C451.955 248.495 450.438 248.583 450.439 249.542C450.44 250.557 451.961 250.422 452.054 249.498C452.067 249.366 451.765 249.417 451.754 249.531Z" fill="#1D1D1B"/>
<path d="M478.628 259.327H425.18V270.657H478.628V259.327Z" fill="#76AADB"/>
<path d="M474.255 276.469H429.554V348.486H474.255V276.469Z" fill="#EDEEF0"/>
<path d="M468.273 287.702H435.536V292.303H468.273V287.702Z" fill="#76AADB"/>
<path d="M468.273 294.555H435.536V299.156H468.273V294.555Z" fill="white"/>
<path d="M468.273 301.409H435.536V306.01H468.273V301.409Z" fill="white"/>
<path d="M468.273 308.262H435.536V312.863H468.273V308.262Z" fill="white"/>
<path d="M467.77 322.04H436.038V342.721H467.77V322.04Z" fill="white"/>
<path d="M455.36 332.38C455.36 334.188 453.895 335.653 452.088 335.653C450.28 335.653 448.815 334.188 448.815 332.38C448.815 330.573 450.28 329.108 452.088 329.108C453.895 329.108 455.36 330.573 455.36 332.38Z" fill="#E00E22"/>
<path d="M451.219 330.694V333.628L453.733 332.161L451.219 330.694Z" fill="white"/>
<path d="M467.77 322.04H436.038V324.506H467.77V322.04Z" fill="#83898C"/>
<path d="M467.77 340.255H436.038V342.721H467.77V340.255Z" fill="#83898C"/>
</g>
<defs>
<clipPath id="clip0_152_22033">
<rect width="594.246" height="375" fill="white"/>
</clipPath>
</defs>
</svg>
