<svg width="64" height="64" viewBox="0 0 64 64" fill="none" xmlns="http://www.w3.org/2000/svg">
<rect width="64" height="64" rx="32" fill="url(#paint0_linear_189_25000)"/>
<path d="M43.865 37.265H37.07C36.6722 37.265 36.2906 37.423 36.0093 37.7043C35.728 37.9856 35.57 38.3672 35.57 38.765C35.57 39.1628 35.728 39.5444 36.0093 39.8257C36.2906 40.107 36.6722 40.265 37.07 40.265H40.67C39.0154 41.9941 36.8816 43.189 34.5427 43.6961C32.2039 44.2032 29.7668 43.9994 27.5447 43.1109C25.3225 42.2223 23.4168 40.6897 22.0724 38.7098C20.728 36.7299 20.0063 34.3932 20 32C20 31.6022 19.842 31.2206 19.5607 30.9393C19.2794 30.658 18.8978 30.5 18.5 30.5C18.1022 30.5 17.7206 30.658 17.4393 30.9393C17.158 31.2206 17 31.6022 17 32C17.0079 34.9292 17.8733 37.792 19.4894 40.235C21.1055 42.6781 23.4015 44.5945 26.0941 45.7478C28.7867 46.9011 31.7581 47.2408 34.6415 46.725C37.525 46.2091 40.1943 44.8603 42.32 42.845V45.5C42.32 45.8978 42.478 46.2794 42.7593 46.5607C43.0406 46.842 43.4222 47 43.82 47C44.2178 47 44.5994 46.842 44.8807 46.5607C45.162 46.2794 45.32 45.8978 45.32 45.5V38.75C45.3163 38.3625 45.1627 37.9914 44.8915 37.7145C44.6203 37.4377 44.2524 37.2766 43.865 37.265ZM36.5 32C36.5 31.11 36.2361 30.24 35.7416 29.4999C35.2471 28.7599 34.5443 28.1831 33.7221 27.8425C32.8998 27.5019 31.995 27.4128 31.1221 27.5865C30.2492 27.7601 29.4474 28.1887 28.818 28.818C28.1887 29.4474 27.7601 30.2492 27.5865 31.1221C27.4128 31.995 27.5019 32.8998 27.8425 33.7221C28.1831 34.5443 28.7599 35.2471 29.4999 35.7416C30.24 36.2361 31.11 36.5 32 36.5C33.1935 36.5 34.3381 36.0259 35.182 35.182C36.0259 34.3381 36.5 33.1935 36.5 32ZM30.5 32C30.5 31.7033 30.588 31.4133 30.7528 31.1666C30.9176 30.92 31.1519 30.7277 31.426 30.6142C31.7001 30.5006 32.0017 30.4709 32.2926 30.5288C32.5836 30.5867 32.8509 30.7296 33.0607 30.9393C33.2704 31.1491 33.4133 31.4164 33.4712 31.7074C33.5291 31.9983 33.4994 32.2999 33.3858 32.574C33.2723 32.8481 33.08 33.0824 32.8334 33.2472C32.5867 33.412 32.2967 33.5 32 33.5C31.6022 33.5 31.2206 33.342 30.9393 33.0607C30.658 32.7794 30.5 32.3978 30.5 32ZM32 17C28.1546 17.011 24.4602 18.4984 21.68 21.155V18.5C21.68 18.1022 21.522 17.7206 21.2407 17.4393C20.9594 17.158 20.5778 17 20.18 17C19.7822 17 19.4006 17.158 19.1193 17.4393C18.838 17.7206 18.68 18.1022 18.68 18.5V25.25C18.68 25.6478 18.838 26.0294 19.1193 26.3107C19.4006 26.592 19.7822 26.75 20.18 26.75H26.93C27.3278 26.75 27.7094 26.592 27.9907 26.3107C28.272 26.0294 28.43 25.6478 28.43 25.25C28.43 24.8522 28.272 24.4706 27.9907 24.1893C27.7094 23.908 27.3278 23.75 26.93 23.75H23.33C24.9837 22.0218 27.1161 20.8272 29.4536 20.3197C31.7911 19.8121 34.2269 20.0146 36.4484 20.9013C38.6699 21.788 40.5758 23.3183 41.9213 25.2959C43.2669 27.2735 43.9908 29.6081 44 32C44 32.3978 44.158 32.7794 44.4393 33.0607C44.7206 33.342 45.1022 33.5 45.5 33.5C45.8978 33.5 46.2794 33.342 46.5607 33.0607C46.842 32.7794 47 32.3978 47 32C47 30.0302 46.612 28.0796 45.8582 26.2597C45.1044 24.4399 43.9995 22.7863 42.6066 21.3934C41.2137 20.0005 39.5601 18.8956 37.7403 18.1418C35.9204 17.388 33.9698 17 32 17Z" fill="white"/>
<defs>
<linearGradient id="paint0_linear_189_25000" x1="64" y1="7.62939e-06" x2="7.62939e-06" y2="64" gradientUnits="userSpaceOnUse">
<stop stop-color="#F65A75"/>
<stop offset="1" stop-color="#48179C"/>
</linearGradient>
</defs>
</svg>
