<svg width="64" height="64" viewBox="0 0 64 64" fill="none" xmlns="http://www.w3.org/2000/svg">
<rect width="64" height="64" rx="32" fill="url(#paint0_linear_189_25007)"/>
<path d="M26.75 16.25C24.38 16.25 22.4 17.84 21.74 20H17V23H21.74C22.385 25.16 24.38 26.75 26.75 26.75C29.12 26.75 31.1 25.16 31.76 23H47V20H31.76C31.4391 18.9194 30.7784 17.971 29.8759 17.2955C28.9734 16.62 27.8773 16.2533 26.75 16.25ZM26.75 23.75C25.505 23.75 24.5 22.745 24.5 21.5C24.5 20.255 25.505 19.25 26.75 19.25C27.995 19.25 29 20.255 29 21.5C29 22.745 27.995 23.75 26.75 23.75ZM26.75 37.25C24.38 37.25 22.4 38.84 21.74 41H17V44H21.74C22.385 46.16 24.38 47.75 26.75 47.75C29.12 47.75 31.1 46.16 31.76 44H47V41H31.76C31.4391 39.9194 30.7784 38.971 29.8759 38.2955C28.9734 37.62 27.8773 37.2533 26.75 37.25ZM26.75 44.75C25.505 44.75 24.5 43.745 24.5 42.5C24.5 41.255 25.505 40.25 26.75 40.25C27.995 40.25 29 41.255 29 42.5C29 43.745 27.995 44.75 26.75 44.75ZM38.75 26.75C36.38 26.75 34.4 28.34 33.74 30.5H17V33.5H33.74C34.385 35.66 36.38 37.25 38.75 37.25C41.12 37.25 43.1 35.66 43.76 33.5H47V30.5H43.76C43.4391 29.4194 42.7784 28.471 41.8759 27.7955C40.9734 27.12 39.8773 26.7533 38.75 26.75ZM38.75 34.25C37.505 34.25 36.5 33.245 36.5 32C36.5 30.755 37.505 29.75 38.75 29.75C39.995 29.75 41 30.755 41 32C41 33.245 39.995 34.25 38.75 34.25Z" fill="white"/>
<defs>
<linearGradient id="paint0_linear_189_25007" x1="64" y1="7.62939e-06" x2="7.62939e-06" y2="64" gradientUnits="userSpaceOnUse">
<stop stop-color="#F65A75"/>
<stop offset="1" stop-color="#48179C"/>
</linearGradient>
</defs>
</svg>
