<svg width="64" height="64" viewBox="0 0 64 64" fill="none" xmlns="http://www.w3.org/2000/svg">
<rect width="64" height="64" rx="32" fill="url(#paint0_linear_189_24983)"/>
<path d="M22.559 22.835C23.6435 21.533 25.2605 20.75 27.5 20.75C28.8605 20.75 30.1235 21.1505 31.181 21.8405C32.3648 22.6098 33.2776 23.7308 33.791 25.046C33.8589 25.2346 33.9638 25.4077 34.0997 25.555C34.2356 25.7023 34.3996 25.8209 34.5821 25.9038C34.7646 25.9867 34.9618 26.0322 35.1622 26.0375C35.3625 26.0429 35.5619 26.0081 35.7486 25.9351C35.9353 25.8621 36.1054 25.7525 36.249 25.6126C36.3926 25.4728 36.5067 25.3056 36.5845 25.1209C36.6624 24.9362 36.7025 24.7378 36.7024 24.5374C36.7023 24.337 36.662 24.1386 36.584 23.954C36.1562 22.86 35.5342 21.8523 34.748 20.9795C35.308 20.8285 35.892 20.752 36.5 20.75C38.7395 20.75 40.355 21.533 41.441 22.835C42.557 24.1745 43.25 26.231 43.25 29C43.25 33.3545 42.521 37.0775 41.405 39.653C40.2275 42.371 38.9045 43.25 38 43.25C37.775 43.25 37.5875 43.1975 37.3085 42.713C36.9695 42.125 36.731 41.273 36.4205 40.133C36.1595 39.1745 35.8355 37.9835 35.2925 37.04C34.6805 35.978 33.65 35 32 35C30.35 35 29.3195 35.978 28.7075 37.04C28.1645 37.985 27.8405 39.1745 27.5795 40.133C27.269 41.273 27.0305 42.125 26.6915 42.713C26.4125 43.1975 26.225 43.25 26 43.25C25.0955 43.25 23.7725 42.371 22.595 39.653C21.479 37.0775 20.75 33.353 20.75 29C20.75 26.231 21.443 24.1745 22.559 22.835ZM32 18.848C30.61 18.1258 29.0664 17.7492 27.5 17.75C24.4895 17.75 21.98 18.842 20.255 20.915C18.5555 22.9505 17.75 25.769 17.75 29C17.75 33.6455 18.521 37.7975 19.8425 40.847C21.1025 43.754 23.1545 46.25 26 46.25C27.65 46.25 28.6805 45.272 29.2925 44.21C29.8535 43.235 30.182 41.9945 30.4475 41.0195C30.7445 39.9305 30.9785 39.1085 31.3085 38.537C31.5875 38.0525 31.775 38 32 38C32.225 38 32.4125 38.0525 32.6915 38.537C33.0215 39.1085 33.2555 39.932 33.5525 41.0195C33.818 41.9945 34.1465 43.2335 34.7075 44.21C35.3195 45.272 36.35 46.25 38 46.25C40.8455 46.25 42.8975 43.754 44.1575 40.847C45.4775 37.7975 46.25 33.647 46.25 29C46.25 25.769 45.443 22.9505 43.745 20.915C42.02 18.842 39.512 17.75 36.5 17.75C34.88 17.75 33.347 18.146 32 18.848Z" fill="white"/>
<defs>
<linearGradient id="paint0_linear_189_24983" x1="64" y1="7.62939e-06" x2="7.62939e-06" y2="64" gradientUnits="userSpaceOnUse">
<stop stop-color="#F65A75"/>
<stop offset="1" stop-color="#48179C"/>
</linearGradient>
</defs>
</svg>
