<svg width="64" height="64" viewBox="0 0 64 64" fill="none" xmlns="http://www.w3.org/2000/svg">
<rect width="64" height="64" rx="32" fill="url(#paint0_linear_189_25031)"/>
<path d="M38.4568 20.671C38.4445 20.6541 38.4338 20.6342 38.4246 20.6158C38.2758 20.3688 38.0334 20.1739 37.7327 20.0911L37.7219 20.088L25.5416 16.8247C25.2271 16.7404 24.908 16.7925 24.6457 16.9429C24.3849 17.0932 24.1808 17.3433 24.098 17.6563L23.3278 20.5268V20.5284L23.3247 20.5376L23.3155 20.5713L21.832 26.1069C21.7491 26.4199 21.7997 26.739 21.9501 26.9998C22.1005 27.2621 22.3521 27.4662 22.665 27.5505L24.2545 27.977C24.365 28.0077 24.4616 28.0844 24.5107 28.1964L25.2425 29.8396C25.7243 29.4898 26.206 29.1415 26.6878 28.7917C26.7814 28.7181 26.9072 28.6889 27.0315 28.7211L34.8454 30.8153C35.14 30.8936 35.476 30.8552 35.7399 30.6972C36.0007 30.5468 36.2063 30.2952 36.2891 29.9823L38.5536 21.5316C38.6334 21.2324 38.5904 20.9256 38.4539 20.6709L38.4568 20.671ZM35.0923 34.8289C34.8836 34.8841 34.6673 34.7598 34.612 34.5512C34.5568 34.3425 34.6811 34.1262 34.8897 34.0709L45.1168 31.3308C45.3255 31.2756 45.5418 31.3998 45.5971 31.6085C45.6523 31.8172 45.528 32.0335 45.3194 32.0887L35.0923 34.8289ZM34.5952 32.9755C34.3865 33.0307 34.1702 32.9065 34.115 32.6978C34.0597 32.4892 34.184 32.2728 34.3927 32.2176L44.6197 29.4774C44.8284 29.4222 45.0447 29.5465 45.1 29.7551C45.1552 29.9638 45.0309 30.1801 44.8223 30.2354L34.5952 32.9755ZM38.4814 29.9485C38.2727 30.0037 38.0564 29.8795 38.0011 29.6708C37.9459 29.4621 38.0702 29.2458 38.2788 29.1906L44.1227 27.6241C44.3314 27.5689 44.5477 27.6932 44.6029 27.9018C44.6582 28.1105 44.5339 28.3268 44.3252 28.382L38.4814 29.9485ZM38.848 27.8635C38.6394 27.9187 38.4231 27.7944 38.3678 27.5858C38.3126 27.3771 38.4369 27.1608 38.6455 27.1056L43.6257 25.7708C43.8344 25.7156 44.0507 25.8398 44.1059 26.0485C44.1612 26.2572 44.0369 26.4735 43.8282 26.5287L38.848 27.8635ZM31.355 32.3771C31.2997 32.1684 31.424 31.9521 31.6327 31.8969C31.8413 31.8416 32.0576 31.9659 32.1129 32.1746L33.0135 35.536C33.0963 35.849 33.3004 36.1006 33.5612 36.251C33.822 36.4013 34.1427 36.4535 34.4571 36.3691L42.2711 34.2749C42.3954 34.2427 42.5212 34.2718 42.6148 34.3455L44.06 35.3934L44.7919 33.7502C44.8409 33.6382 44.9376 33.5615 45.0481 33.5324L46.6375 33.1059C46.9505 33.0215 47.2021 32.8174 47.3525 32.5566C47.5028 32.2943 47.555 31.9751 47.4706 31.6622L45.2061 23.2116C45.1217 22.8986 44.9177 22.647 44.6569 22.4981C44.3961 22.3478 44.0754 22.2956 43.7624 22.38L40.2322 23.3266C40.0235 23.3819 39.8072 23.2576 39.752 23.049C39.6967 22.8403 39.821 22.624 40.0297 22.5687L43.5599 21.6221C44.08 21.4825 44.6108 21.5699 45.0466 21.82C45.4823 22.0716 45.8244 22.4889 45.964 23.0105L48.2285 31.4612C48.3681 31.9828 48.2807 32.5137 48.0306 32.9494C47.779 33.3851 47.3602 33.7257 46.8401 33.8653L45.4301 34.2427L44.5879 36.1344C44.5756 36.1666 44.5603 36.1973 44.5388 36.2265C44.4114 36.4014 44.166 36.4397 43.9911 36.3139L42.2942 35.0835L34.6597 37.1286C34.1381 37.2682 33.6073 37.1807 33.1731 36.9307C32.7358 36.6791 32.3952 36.2618 32.2572 35.7401L31.3566 32.3787L31.355 32.3771ZM23.986 26.5332C23.7773 26.478 23.6531 26.2616 23.7083 26.053C23.7635 25.8443 23.9799 25.7201 24.1885 25.7753L34.4156 28.5154C34.6243 28.5706 34.7485 28.787 34.6933 28.9956C34.6381 29.2043 34.4217 29.3286 34.2131 29.2733L23.986 26.5332ZM24.4831 24.6799C24.2744 24.6246 24.1501 24.4083 24.2054 24.1996C24.2606 23.991 24.4769 23.8667 24.6856 23.9219L34.9127 26.6621C35.1213 26.7173 35.2456 26.9336 35.1904 27.1423C35.1351 27.351 34.9188 27.4752 34.7102 27.42L24.4831 24.6799ZM24.9801 22.8265C24.7715 22.7713 24.6472 22.5549 24.7024 22.3463C24.7577 22.1376 24.974 22.0133 25.1827 22.0686L35.4098 24.8087C35.6184 24.8639 35.7427 25.0803 35.6875 25.2889C35.6322 25.4976 35.4159 25.6219 35.2072 25.5666L24.9801 22.8265ZM25.4772 20.9731C25.2686 20.9179 25.1443 20.7016 25.1995 20.4929C25.2548 20.2842 25.4711 20.16 25.6798 20.2152L35.9068 22.9553C36.1155 23.0106 36.2398 23.2269 36.1845 23.4356C36.1293 23.6442 35.913 23.7685 35.7043 23.7133L25.4772 20.9731ZM31.0709 19.6736C31.2796 19.7289 31.4038 19.9452 31.3486 20.1539C31.2934 20.3625 31.0771 20.4868 30.8684 20.4316L25.9742 19.1198C25.7655 19.0646 25.6413 18.8483 25.6965 18.6396C25.7517 18.4309 25.9681 18.3067 26.1767 18.3619L31.0709 19.6736ZM38.9921 20.0557H48.0362C48.5747 20.0557 49.0657 20.2766 49.4216 20.6326C49.7791 20.99 50 21.481 50 22.0195V42.452C50 42.9906 49.7791 43.4815 49.4231 43.8374C49.0656 44.1949 48.5747 44.4158 48.0362 44.4158H34.2974L34.5015 46.1081H38.9094C39.3037 46.1081 39.6643 46.2707 39.9235 46.53C40.1828 46.7893 40.3455 47.1498 40.3455 47.5441C40.3455 47.9399 40.1828 48.299 39.9235 48.5597C39.6627 48.819 39.3037 48.9816 38.9094 48.9816H25.0906C24.6963 48.9816 24.3372 48.819 24.0765 48.5597C23.8156 48.3005 23.6545 47.9415 23.6545 47.5456C23.6545 47.1498 23.8172 46.7908 24.0765 46.5315C24.3357 46.2722 24.6963 46.1096 25.0906 46.1096H29.4985L29.7026 44.4174H15.9638C15.4253 44.4174 14.9343 44.1965 14.5784 43.8405C14.2209 43.483 14 42.9921 14 42.4536V22.021C14 21.4825 14.2209 20.9915 14.5769 20.6356C14.9344 20.2781 15.4253 20.0572 15.9638 20.0572H22.6423L23.3388 17.4552C23.4784 16.9335 23.8206 16.5162 24.2547 16.2646C24.6905 16.013 25.2213 15.9271 25.7414 16.0667L37.9476 19.3377C38.3788 19.4589 38.7393 19.7197 38.9878 20.0572L38.9921 20.0557ZM22.4333 20.8412H15.965C15.6412 20.8412 15.3451 20.9731 15.1319 21.1864C14.9202 21.3996 14.7867 21.6958 14.7867 22.0195V42.452C14.7867 42.7758 14.9186 43.0719 15.1319 43.2851C15.3451 43.4969 15.6412 43.6303 15.965 43.6303H48.0346C48.3583 43.6303 48.6544 43.4984 48.8677 43.2851C49.0794 43.0719 49.2129 42.7773 49.2129 42.452V22.0195C49.2129 21.6958 49.081 21.3997 48.8677 21.1864C48.6545 20.9747 48.3599 20.8412 48.0346 20.8412H39.3401C39.3969 21.1189 39.3923 21.4134 39.3186 21.7034L37.048 30.1815C36.9084 30.7032 36.5678 31.1205 36.1321 31.3721C35.6534 31.6252 35.1747 31.7127 34.6439 31.57L28.0683 29.8087L31.887 36.4244C32.0281 36.6698 32.0573 36.949 31.9897 37.2007C31.9222 37.4554 31.7565 37.684 31.5126 37.8267L31.485 37.8405C31.2457 37.9693 30.9772 37.9939 30.7332 37.9279C30.4816 37.8604 30.2515 37.6947 30.1103 37.4492L29.9308 37.1393L24.2928 37.6318L24.4447 37.9156C24.5122 38.0875 24.5214 38.2731 24.4753 38.4419C24.4262 38.6275 24.3127 38.7963 24.1486 38.9129L25.5585 40.3228C25.8132 40.5775 25.939 40.9089 25.939 41.2387C25.939 41.5701 25.8116 41.9 25.56 42.1531L25.1688 42.5474C24.9187 42.7975 24.5858 42.9248 24.2529 42.9248C23.9215 42.9263 23.5886 42.8005 23.337 42.5474L21.3333 40.5421L21.1338 40.6449C20.962 40.7124 20.7763 40.7216 20.6076 40.6756C20.3989 40.6204 20.2102 40.4838 20.0936 40.2829L19.595 39.4191C19.2559 39.5403 18.8954 39.5495 18.561 39.4605C18.1314 39.3455 17.7432 39.0647 17.5039 38.6489L16.6248 37.127C16.3962 36.7158 16.3517 36.2509 16.4637 35.829C16.5787 35.3979 16.8595 35.0113 17.2737 34.7704L19.8681 33.273L23.205 28.5061L22.4625 28.3066C21.9424 28.167 21.5251 27.8264 21.272 27.3907C21.0203 26.9565 20.9329 26.4242 21.0725 25.9025L22.4288 20.8394L22.4333 20.8412ZM27.0055 29.5294L26.6096 29.8163C28.0027 32.2297 29.3958 34.6445 30.7906 37.0581C30.8228 37.1148 30.878 37.1547 30.9378 37.1701C30.9946 37.1854 31.0575 37.1808 31.1112 37.1532L31.122 37.147C31.1787 37.1148 31.2186 37.0596 31.234 36.9998C31.2508 36.9384 31.2432 36.8709 31.2109 36.8141L27.0055 29.5294ZM25.9714 30.2797L25.3147 30.7568C25.1398 30.8842 24.8944 30.8443 24.767 30.6694C24.7456 30.6402 24.7302 30.6095 24.7179 30.5773L23.9385 28.8268L20.6062 33.5874L22.5731 36.9934L29.5002 36.3874L25.973 30.278L25.9714 30.2797ZM22.0391 40.1356L23.894 41.9905C23.9922 42.0887 24.1241 42.1393 24.2545 42.1393C24.3834 42.1409 24.5153 42.0902 24.615 41.9905L25.0063 41.5993C25.106 41.5011 25.1551 41.3707 25.1551 41.2387C25.1551 41.1068 25.106 40.9764 25.0078 40.8782L23.4506 39.321L22.0391 40.1356ZM20.2885 39.054L20.7718 39.8932C20.7795 39.9055 20.7948 39.9162 20.8087 39.9208C20.824 39.9254 20.8409 39.9239 20.8547 39.9162L23.693 38.2761C23.7053 38.2685 23.7129 38.2547 23.716 38.2424C23.7206 38.227 23.7191 38.2102 23.7114 38.1964L23.4291 37.71L22.4733 37.7928L20.2855 39.0555L20.2885 39.054ZM19.997 34.1033L17.6681 35.4488C17.441 35.5807 17.2861 35.794 17.2232 36.0303C17.1603 36.2619 17.1848 36.5181 17.3075 36.7421L18.1836 38.258C18.314 38.485 18.5288 38.64 18.7651 38.7029C19.0029 38.7658 19.2652 38.7397 19.4923 38.6093L21.8228 37.2638L19.9971 34.1017L19.997 34.1033ZM33.7099 46.1084L33.5043 44.4161H30.4926L30.287 46.1084H33.7099ZM38.9077 46.8939H25.0888C24.9108 46.8939 24.7467 46.9675 24.63 47.0857C24.5119 47.2038 24.4383 47.3664 24.4383 47.5444C24.4383 47.7224 24.5119 47.8865 24.63 48.0032C24.7466 48.1213 24.9093 48.1949 25.0888 48.1949H38.9077C39.0872 48.1949 39.2498 48.1228 39.3664 48.0047C39.4845 47.885 39.5582 47.7224 39.5582 47.5429C39.5582 47.3649 39.4845 47.2023 39.3664 47.0841C39.2498 46.9675 39.0856 46.8924 38.9077 46.8924V46.8939Z" fill="white"/>
<defs>
<linearGradient id="paint0_linear_189_25031" x1="64" y1="7.62939e-06" x2="7.62939e-06" y2="64" gradientUnits="userSpaceOnUse">
<stop stop-color="#F65A75"/>
<stop offset="1" stop-color="#48179C"/>
</linearGradient>
</defs>
</svg>
