<svg width="64" height="64" viewBox="0 0 64 64" fill="none" xmlns="http://www.w3.org/2000/svg">
<rect width="64" height="64" rx="32" fill="url(#paint0_linear_189_25012)"/>
<path d="M15.6552 19.1232C15.3596 19.1232 15.1232 19.3596 15.1232 19.6552V44.601C15.1232 44.8966 15.3596 45.133 15.6552 45.133H48.3448C48.6404 45.133 48.8768 44.8966 48.8768 44.601V19.6552C48.8768 19.3596 48.6404 19.1232 48.3448 19.1232H15.6552ZM48.3448 46.2562H15.6552C14.7094 46.2562 14 45.4877 14 44.601V19.6552C14 18.7094 14.7685 18 15.6552 18H48.3448C49.2906 18 50 18.7685 50 19.6552V44.601C50 45.5468 49.2906 46.2562 48.3448 46.2562Z" fill="white"/>
<path d="M49.4679 22.4335H15.123V23.5566H49.4679V22.4335Z" fill="white"/>
<path d="M40.542 29.4679H31.3203V30.591H40.542V29.4679Z" fill="white"/>
<path d="M40.6011 31.6552H31.3203V32.7783H40.6011V31.6552Z" fill="white"/>
<path d="M40.6602 33.9015H31.3203V35.0246H40.6602V33.9015Z" fill="white"/>
<path d="M40.7194 36.6206H22.8672V37.7438H40.7194V36.6206Z" fill="white"/>
<path d="M40.7194 38.8669H22.8672V39.9901H40.7194V38.8669Z" fill="white"/>
<path d="M34.0987 41.0541H22.8672V42.1772H34.0987V41.0541Z" fill="white"/>
<path d="M28.8967 35.4975H24.0495C23.3992 35.4975 22.8672 34.9655 22.8672 34.3152V30.532C22.8672 29.8818 23.3992 29.3497 24.0495 29.3497H28.8967C29.547 29.3497 30.079 29.8818 30.079 30.532V34.3152C30.079 34.9655 29.547 35.4975 28.8967 35.4975Z" fill="white"/>
<path d="M16.7781 21.3695C17.0719 21.3695 17.3101 21.1313 17.3101 20.8374C17.3101 20.5436 17.0719 20.3054 16.7781 20.3054C16.4843 20.3054 16.2461 20.5436 16.2461 20.8374C16.2461 21.1313 16.4843 21.3695 16.7781 21.3695Z" fill="white"/>
<path d="M18.4334 21.3695C18.7272 21.3695 18.9654 21.1313 18.9654 20.8374C18.9654 20.5436 18.7272 20.3054 18.4334 20.3054C18.1396 20.3054 17.9014 20.5436 17.9014 20.8374C17.9014 21.1313 18.1396 21.3695 18.4334 21.3695Z" fill="white"/>
<path d="M20.0291 21.3695C20.3229 21.3695 20.5611 21.1313 20.5611 20.8374C20.5611 20.5436 20.3229 20.3054 20.0291 20.3054C19.7353 20.3054 19.4971 20.5436 19.4971 20.8374C19.4971 21.1313 19.7353 21.3695 20.0291 21.3695Z" fill="white"/>
<path d="M40.5415 24.798H22.9258V27.9901H40.5415V24.798Z" fill="white"/>
<defs>
<linearGradient id="paint0_linear_189_25012" x1="64" y1="7.62939e-06" x2="7.62939e-06" y2="64" gradientUnits="userSpaceOnUse">
<stop stop-color="#F65A75"/>
<stop offset="1" stop-color="#48179C"/>
</linearGradient>
</defs>
</svg>
