<svg width="64" height="64" viewBox="0 0 64 64" fill="none" xmlns="http://www.w3.org/2000/svg">
<rect width="64" height="64" rx="32" fill="url(#paint0_linear_189_25053)"/>
<path fill-rule="evenodd" clip-rule="evenodd" d="M44.5194 33.3132H32.7891C32.6077 33.3132 32.4588 33.1643 32.4588 32.9828V31.4589C32.4588 31.2774 32.6077 31.1285 32.7891 31.1285H44.5194C44.7009 31.1285 44.8498 31.2774 44.8498 31.4589V32.9828C44.8498 33.1643 44.7009 33.3132 44.5194 33.3132ZM39.9736 40.2965C39.9804 39.2604 40.8261 38.4254 41.8622 38.4327C42.8989 38.4394 43.7333 39.2851 43.7266 40.3218C43.7199 41.3579 42.8742 42.1924 41.8375 42.1856C40.8008 42.1789 39.9663 41.3332 39.9736 40.2965ZM37.5709 40.2808C37.5867 37.9174 39.5151 36.0142 41.8785 36.03C44.2413 36.0463 46.1445 37.9742 46.1287 40.3375C46.113 42.7003 44.1845 44.6035 41.8217 44.5878C39.4584 44.572 37.5558 42.6436 37.5709 40.2808ZM30.3055 40.6792L30.3078 40.351C30.3083 40.2763 30.3696 40.215 30.4443 40.2156L36.1403 40.2538C36.2151 40.2544 36.2758 40.3156 36.2752 40.3909L36.2729 40.7191C36.2729 40.7938 36.2111 40.855 36.1364 40.8545L30.441 40.8163C30.3657 40.8157 30.305 40.7545 30.3055 40.6792ZM29.5318 41.7344L27.8438 40.1723C27.8169 40.1476 27.8039 40.115 27.8056 40.0779C27.8073 40.0414 27.8242 40.0105 27.8534 39.988L29.5543 38.7131C29.5762 38.6968 29.5998 38.6883 29.6273 38.6889L37.1136 38.7383C37.1535 38.7389 37.1877 38.7569 37.2108 38.7895C37.2344 38.8221 37.2394 38.8603 37.2265 38.8985C37.0759 39.33 36.9927 39.7936 36.9894 40.2768C36.986 40.7595 37.0635 41.2242 37.208 41.658C37.2203 41.6962 37.2147 41.7344 37.1911 41.767C37.1681 41.799 37.1332 41.8165 37.0933 41.8165L29.6127 41.7664C29.5818 41.7664 29.5548 41.7558 29.5318 41.7344ZM49.4147 21.616L42.2949 14.4962C41.9645 14.1663 41.5633 14 41.0974 14H24.8523C23.3621 14 22.1484 15.2137 22.1484 16.7044V17.3147H24.4061V16.7044C24.4061 16.4594 24.6078 16.2577 24.8523 16.2577H40.7496V20.781C40.7496 22.092 41.8189 23.1607 43.1293 23.1607H47.6532V47.1658C47.6532 47.4102 47.4509 47.6119 47.2065 47.6119H24.8523C24.6022 47.6119 24.4061 47.4164 24.4061 47.1658V45.8779H22.1484V47.1658C22.1484 48.6498 23.3683 49.8696 24.8523 49.8696H47.2065C48.6966 49.8696 49.9109 48.6559 49.9109 47.1658V22.8134C49.9109 22.3471 49.7446 21.9459 49.4147 21.616ZM26.2256 22.3887C24.3876 20.6282 21.4696 20.6911 19.7086 22.5303C17.9482 24.3682 18.0111 27.2856 19.8496 29.0466C21.6882 30.8076 24.6056 30.7442 26.3666 28.9062C28.127 27.0676 28.0641 24.1497 26.2256 22.3887ZM22.3552 32.6614C18.8832 32.3265 16.1259 29.4231 16.0523 25.8528C15.9725 22.0049 19.0422 18.811 22.8895 18.7307C26.738 18.6526 29.933 21.7211 30.0117 25.569C30.0853 29.1399 27.4488 32.1523 23.9954 32.6276L24.033 34.5173C24.6062 34.8151 25.004 35.404 25.0259 36.0935L25.1298 42.7442C25.1478 43.7449 24.3595 44.5703 23.3604 44.5878C22.3602 44.6057 21.5348 43.8179 21.5174 42.8183L21.4022 36.1676C21.396 35.4748 21.7725 34.8371 22.39 34.519L22.3552 32.6614ZM44.5194 29.3096H37.2877C37.1063 29.3096 36.9573 29.1607 36.9573 28.9792V27.4553C36.9573 27.2738 37.1063 27.1249 37.2877 27.1249H44.5194C44.7009 27.1249 44.8498 27.2738 44.8498 27.4553V28.9792C44.8498 29.1607 44.7009 29.3096 44.5194 29.3096Z" fill="white"/>
<path d="M15.0013 49.9619C15.0013 49.9583 15.0022 49.9556 15.0041 49.9537C15.0057 49.952 15.0078 49.9512 15.0104 49.9512C15.0138 49.9512 15.0163 49.9523 15.0178 49.9545C15.0187 49.9558 15.0192 49.9571 15.0192 49.9583H15.015C15.0147 49.9573 15.0144 49.9566 15.014 49.9561C15.0132 49.9552 15.0121 49.9548 15.0105 49.9548C15.009 49.9548 15.0078 49.9554 15.0069 49.9567C15.006 49.9579 15.0056 49.9597 15.0056 49.9619C15.0056 49.9642 15.006 49.9659 15.007 49.967C15.0079 49.9682 15.0091 49.9687 15.0106 49.9687C15.012 49.9687 15.0132 49.9682 15.014 49.9673C15.0144 49.9667 15.0147 49.966 15.015 49.9649H15.0192C15.0188 49.9671 15.0179 49.9689 15.0164 49.9703C15.0149 49.9717 15.013 49.9724 15.0106 49.9724C15.0077 49.9724 15.0054 49.9714 15.0038 49.9696C15.0021 49.9677 15.0013 49.9651 15.0013 49.9619ZM15.0302 49.9565C15.0303 49.9565 15.0304 49.9565 15.0304 49.9565C15.0305 49.9565 15.0306 49.9565 15.0308 49.9565V49.9605C15.0305 49.9605 15.0303 49.9605 15.0301 49.9605C15.0299 49.9605 15.0298 49.9605 15.0296 49.9605C15.0281 49.9605 15.027 49.961 15.0265 49.962C15.0262 49.9626 15.026 49.9635 15.026 49.9647V49.9718H15.0221V49.9568H15.0258V49.9595C15.0264 49.9585 15.0269 49.9578 15.0274 49.9574C15.0281 49.9568 15.0291 49.9565 15.0302 49.9565ZM15.039 49.9597C15.0381 49.9597 15.0374 49.96 15.0369 49.9605C15.0364 49.9611 15.0361 49.9619 15.0359 49.9628H15.042C15.0419 49.9618 15.0416 49.961 15.0411 49.9605C15.0405 49.9599 15.0398 49.9597 15.039 49.9597ZM15.039 49.9565C15.0402 49.9565 15.0413 49.9567 15.0423 49.9572C15.0433 49.9576 15.0442 49.9584 15.0448 49.9594C15.0454 49.9602 15.0458 49.9613 15.0459 49.9624C15.046 49.9631 15.0461 49.9641 15.0461 49.9654H15.0358C15.0359 49.9669 15.0364 49.968 15.0372 49.9686C15.0378 49.9689 15.0384 49.9691 15.0392 49.9691C15.04 49.9691 15.0407 49.9689 15.0412 49.9684C15.0414 49.9682 15.0417 49.9679 15.0419 49.9674H15.0459C15.0458 49.9683 15.0453 49.9692 15.0445 49.9701C15.0432 49.9716 15.0414 49.9723 15.0391 49.9723C15.0372 49.9723 15.0355 49.9717 15.0341 49.9705C15.0326 49.9692 15.0319 49.9672 15.0319 49.9645C15.0319 49.9619 15.0325 49.9599 15.0339 49.9585C15.0352 49.9571 15.0369 49.9565 15.039 49.9565ZM15.057 49.9645C15.0567 49.9647 15.0565 49.9648 15.0562 49.9649C15.056 49.965 15.0556 49.9651 15.0552 49.9652L15.0543 49.9653C15.0535 49.9655 15.0529 49.9657 15.0525 49.9659C15.0519 49.9662 15.0516 49.9668 15.0516 49.9675C15.0516 49.9682 15.0518 49.9687 15.0522 49.969C15.0525 49.9693 15.053 49.9694 15.0535 49.9694C15.0544 49.9694 15.0551 49.9692 15.0558 49.9687C15.0566 49.9682 15.0569 49.9673 15.057 49.966V49.9645ZM15.0546 49.9627C15.0553 49.9626 15.0558 49.9625 15.0561 49.9624C15.0567 49.9621 15.057 49.9618 15.057 49.9613C15.057 49.9606 15.0568 49.9602 15.0563 49.96C15.0559 49.9598 15.0553 49.9596 15.0545 49.9596C15.0535 49.9596 15.0529 49.9599 15.0525 49.9603C15.0522 49.9607 15.052 49.9611 15.052 49.9617H15.0482C15.0483 49.9604 15.0486 49.9593 15.0493 49.9585C15.0503 49.9572 15.0521 49.9565 15.0546 49.9565C15.0562 49.9565 15.0577 49.9568 15.059 49.9575C15.0602 49.9581 15.0609 49.9593 15.0609 49.9611V49.968C15.0609 49.9685 15.0609 49.9691 15.0609 49.9697C15.0609 49.9702 15.061 49.9706 15.0611 49.9708C15.0613 49.971 15.0614 49.9711 15.0617 49.9712V49.9718H15.0575C15.0573 49.9715 15.0573 49.9712 15.0572 49.971C15.0572 49.9707 15.0571 49.9704 15.0571 49.97C15.0566 49.9706 15.0559 49.9711 15.0552 49.9715C15.0544 49.972 15.0534 49.9723 15.0524 49.9723C15.051 49.9723 15.0499 49.9719 15.049 49.9711C15.0481 49.9703 15.0477 49.9692 15.0477 49.9678C15.0477 49.966 15.0484 49.9647 15.0498 49.9638C15.0506 49.9634 15.0517 49.9631 15.0533 49.9629L15.0546 49.9627ZM15.0628 49.9598V49.957H15.0649V49.9528H15.0688V49.957H15.0712V49.9598H15.0688V49.9677C15.0688 49.9683 15.0688 49.9687 15.069 49.9688C15.0692 49.969 15.0696 49.969 15.0704 49.969C15.0705 49.969 15.0707 49.969 15.0708 49.969C15.0709 49.969 15.0711 49.969 15.0712 49.969V49.9719L15.0693 49.972C15.0675 49.9721 15.0662 49.9718 15.0656 49.971C15.0651 49.9706 15.0649 49.9699 15.0649 49.969V49.9598H15.0628ZM15.0796 49.9597C15.0787 49.9597 15.078 49.96 15.0775 49.9605C15.077 49.9611 15.0767 49.9619 15.0766 49.9628H15.0826C15.0826 49.9618 15.0823 49.961 15.0817 49.9605C15.0811 49.9599 15.0804 49.9597 15.0796 49.9597ZM15.0796 49.9565C15.0809 49.9565 15.082 49.9567 15.083 49.9572C15.084 49.9576 15.0848 49.9584 15.0854 49.9594C15.086 49.9602 15.0864 49.9613 15.0866 49.9624C15.0867 49.9631 15.0867 49.9641 15.0867 49.9654H15.0765C15.0765 49.9669 15.077 49.968 15.0779 49.9686C15.0784 49.9689 15.0791 49.9691 15.0798 49.9691C15.0806 49.9691 15.0813 49.9689 15.0818 49.9684C15.0821 49.9682 15.0823 49.9679 15.0825 49.9674H15.0865C15.0864 49.9683 15.0859 49.9692 15.0851 49.9701C15.0838 49.9716 15.082 49.9723 15.0797 49.9723C15.0778 49.9723 15.0762 49.9717 15.0747 49.9705C15.0733 49.9692 15.0725 49.9672 15.0725 49.9645C15.0725 49.9619 15.0732 49.9599 15.0745 49.9585C15.0758 49.9571 15.0775 49.9565 15.0796 49.9565ZM15.0949 49.9565C15.0958 49.9565 15.0966 49.9567 15.0973 49.9571C15.098 49.9575 15.0986 49.958 15.099 49.9587V49.9516H15.103V49.9718H15.0992V49.9697C15.0986 49.9706 15.098 49.9713 15.0972 49.9717C15.0965 49.9721 15.0956 49.9723 15.0946 49.9723C15.0928 49.9723 15.0914 49.9716 15.0902 49.9702C15.089 49.9687 15.0884 49.9669 15.0884 49.9647C15.0884 49.9622 15.089 49.9602 15.0901 49.9587C15.0913 49.9572 15.0929 49.9565 15.0949 49.9565ZM15.0957 49.969C15.0968 49.969 15.0977 49.9686 15.0982 49.9677C15.0988 49.9669 15.0991 49.9659 15.0991 49.9645C15.0991 49.9627 15.0986 49.9614 15.0977 49.9606C15.0971 49.9601 15.0965 49.9599 15.0957 49.9599C15.0946 49.9599 15.0938 49.9603 15.0932 49.9612C15.0927 49.9621 15.0924 49.9631 15.0924 49.9644C15.0924 49.9658 15.0927 49.9669 15.0932 49.9677C15.0938 49.9686 15.0946 49.969 15.0957 49.969ZM15.1224 49.9565C15.1244 49.9565 15.1259 49.9572 15.127 49.9586C15.1281 49.9601 15.1287 49.9619 15.1287 49.9641C15.1287 49.9665 15.1282 49.9684 15.1271 49.9699C15.126 49.9714 15.1244 49.9722 15.1225 49.9722C15.1212 49.9722 15.1202 49.972 15.1195 49.9715C15.119 49.9712 15.1186 49.9707 15.118 49.9699V49.9718H15.1142V49.9516H15.1181V49.9588C15.1186 49.9581 15.1191 49.9576 15.1197 49.9572C15.1204 49.9567 15.1213 49.9565 15.1224 49.9565ZM15.1214 49.969C15.1224 49.969 15.1232 49.9686 15.1238 49.9678C15.1243 49.9669 15.1246 49.9659 15.1246 49.9645C15.1246 49.9635 15.1245 49.9626 15.1242 49.9619C15.1237 49.9606 15.1227 49.9599 15.1213 49.9599C15.1199 49.9599 15.1189 49.9606 15.1184 49.9619C15.1181 49.9626 15.118 49.9634 15.118 49.9645C15.118 49.9658 15.1183 49.9669 15.1188 49.9677C15.1194 49.9686 15.1203 49.969 15.1214 49.969ZM15.1321 49.9747L15.1326 49.9747C15.133 49.9747 15.1334 49.9747 15.1337 49.9747C15.1341 49.9746 15.1344 49.9745 15.1346 49.9743C15.1348 49.9742 15.135 49.9739 15.1352 49.9734C15.1354 49.9729 15.1355 49.9726 15.1355 49.9725L15.13 49.9568H15.1343L15.1376 49.9679L15.1407 49.9568H15.1448L15.1397 49.9716C15.1387 49.9744 15.1379 49.9761 15.1374 49.9768C15.1368 49.9775 15.1356 49.9779 15.1339 49.9779C15.1336 49.9779 15.1333 49.9778 15.1331 49.9778C15.1329 49.9778 15.1325 49.9778 15.1321 49.9778V49.9747ZM15.1653 49.9643C15.1653 49.9632 15.165 49.9622 15.1645 49.9613C15.164 49.9604 15.1631 49.9599 15.1619 49.9599C15.1605 49.9599 15.1595 49.9606 15.159 49.962C15.1587 49.9627 15.1586 49.9636 15.1586 49.9647C15.1586 49.9664 15.1591 49.9676 15.16 49.9683C15.1605 49.9687 15.1612 49.9689 15.1619 49.9689C15.163 49.9689 15.1638 49.9685 15.1644 49.9677C15.165 49.9668 15.1653 49.9657 15.1653 49.9643ZM15.1631 49.9565C15.1648 49.9565 15.1663 49.9572 15.1675 49.9585C15.1687 49.9597 15.1693 49.9616 15.1693 49.9641C15.1693 49.9668 15.1687 49.9688 15.1675 49.9702C15.1663 49.9715 15.1648 49.9722 15.163 49.9722C15.1618 49.9722 15.1608 49.9719 15.16 49.9713C15.1596 49.971 15.1591 49.9705 15.1587 49.9699V49.9777H15.1549V49.9568H15.1586V49.9591C15.159 49.9584 15.1595 49.9579 15.16 49.9575C15.1608 49.9569 15.1619 49.9565 15.1631 49.9565ZM15.1789 49.969C15.18 49.969 15.1809 49.9686 15.1815 49.9678C15.1821 49.967 15.1824 49.9659 15.1824 49.9644C15.1824 49.9629 15.1821 49.9617 15.1815 49.9609C15.1809 49.9601 15.18 49.9597 15.1789 49.9597C15.1777 49.9597 15.1768 49.9601 15.1762 49.9609C15.1756 49.9617 15.1753 49.9629 15.1753 49.9644C15.1753 49.9659 15.1756 49.967 15.1762 49.9678C15.1768 49.9686 15.1777 49.969 15.1789 49.969ZM15.1865 49.9644C15.1865 49.9665 15.1859 49.9684 15.1846 49.97C15.1834 49.9715 15.1814 49.9723 15.1789 49.9723C15.1763 49.9723 15.1744 49.9715 15.1731 49.97C15.1719 49.9684 15.1712 49.9665 15.1712 49.9644C15.1712 49.9622 15.1719 49.9603 15.1731 49.9587C15.1744 49.9572 15.1763 49.9564 15.1789 49.9564C15.1814 49.9564 15.1834 49.9572 15.1846 49.9587C15.1859 49.9603 15.1865 49.9622 15.1865 49.9644ZM15.1996 49.9643C15.1996 49.9632 15.1994 49.9622 15.1988 49.9613C15.1983 49.9604 15.1975 49.9599 15.1963 49.9599C15.1949 49.9599 15.1939 49.9606 15.1934 49.962C15.1931 49.9627 15.1929 49.9636 15.1929 49.9647C15.1929 49.9664 15.1934 49.9676 15.1943 49.9683C15.1949 49.9687 15.1955 49.9689 15.1963 49.9689C15.1974 49.9689 15.1982 49.9685 15.1988 49.9677C15.1993 49.9668 15.1996 49.9657 15.1996 49.9643ZM15.1974 49.9565C15.1992 49.9565 15.2006 49.9572 15.2018 49.9585C15.2031 49.9597 15.2037 49.9616 15.2037 49.9641C15.2037 49.9668 15.2031 49.9688 15.2019 49.9702C15.2007 49.9715 15.1992 49.9722 15.1973 49.9722C15.1961 49.9722 15.1951 49.9719 15.1943 49.9713C15.1939 49.971 15.1935 49.9705 15.1931 49.9699V49.9777H15.1892V49.9568H15.193V49.9591C15.1934 49.9584 15.1938 49.9579 15.1943 49.9575C15.1952 49.9569 15.1962 49.9565 15.1974 49.9565ZM15.2154 49.9622C15.2154 49.9617 15.2152 49.9612 15.2149 49.9607C15.2144 49.9601 15.2137 49.9598 15.2128 49.9598C15.2115 49.9598 15.2106 49.9605 15.2101 49.9618C15.2099 49.9625 15.2097 49.9634 15.2097 49.9645C15.2097 49.9656 15.2099 49.9665 15.2101 49.9672C15.2106 49.9684 15.2115 49.969 15.2128 49.969C15.2137 49.969 15.2143 49.9688 15.2147 49.9683C15.2151 49.9678 15.2153 49.9672 15.2154 49.9664H15.2194C15.2193 49.9676 15.2189 49.9687 15.2181 49.9698C15.2169 49.9715 15.2151 49.9723 15.2127 49.9723C15.2103 49.9723 15.2085 49.9716 15.2074 49.9702C15.2062 49.9688 15.2057 49.9669 15.2057 49.9646C15.2057 49.9621 15.2063 49.9601 15.2075 49.9586C15.2088 49.9572 15.2105 49.9565 15.2127 49.9565C15.2146 49.9565 15.2161 49.9569 15.2173 49.9578C15.2185 49.9586 15.2192 49.9601 15.2194 49.9622H15.2154ZM15.2288 49.969C15.23 49.969 15.2309 49.9686 15.2315 49.9678C15.2321 49.967 15.2324 49.9659 15.2324 49.9644C15.2324 49.9629 15.2321 49.9617 15.2315 49.9609C15.2309 49.9601 15.23 49.9597 15.2288 49.9597C15.2277 49.9597 15.2268 49.9601 15.2262 49.9609C15.2256 49.9617 15.2253 49.9629 15.2253 49.9644C15.2253 49.9659 15.2256 49.967 15.2262 49.9678C15.2268 49.9686 15.2277 49.969 15.2288 49.969ZM15.2365 49.9644C15.2365 49.9665 15.2359 49.9684 15.2346 49.97C15.2333 49.9715 15.2314 49.9723 15.2289 49.9723C15.2263 49.9723 15.2244 49.9715 15.2231 49.97C15.2219 49.9684 15.2212 49.9665 15.2212 49.9644C15.2212 49.9622 15.2219 49.9603 15.2231 49.9587C15.2244 49.9572 15.2263 49.9564 15.2289 49.9564C15.2314 49.9564 15.2333 49.9572 15.2346 49.9587C15.2359 49.9603 15.2365 49.9622 15.2365 49.9644ZM15.2474 49.9565C15.2475 49.9565 15.2476 49.9565 15.2476 49.9565C15.2477 49.9565 15.2478 49.9565 15.248 49.9565V49.9605C15.2477 49.9605 15.2475 49.9605 15.2473 49.9605C15.2471 49.9605 15.247 49.9605 15.2468 49.9605C15.2453 49.9605 15.2442 49.961 15.2437 49.962C15.2434 49.9626 15.2432 49.9635 15.2432 49.9647V49.9718H15.2393V49.9568H15.243V49.9595C15.2436 49.9585 15.2441 49.9578 15.2446 49.9574C15.2453 49.9568 15.2463 49.9565 15.2474 49.9565ZM15.2585 49.9565C15.2601 49.9565 15.2614 49.9569 15.2623 49.9577C15.2633 49.9585 15.2638 49.9599 15.2638 49.9617V49.9718H15.2598V49.9627C15.2598 49.9619 15.2597 49.9613 15.2595 49.9609C15.2591 49.9601 15.2584 49.9597 15.2573 49.9597C15.256 49.9597 15.2551 49.9603 15.2546 49.9614C15.2543 49.962 15.2542 49.9628 15.2542 49.9637V49.9718H15.2503V49.9569H15.2541V49.9591C15.2546 49.9583 15.255 49.9577 15.2555 49.9574C15.2563 49.9568 15.2573 49.9565 15.2585 49.9565ZM15.2757 49.9645C15.2754 49.9647 15.2752 49.9648 15.2749 49.9649C15.2747 49.965 15.2743 49.9651 15.2739 49.9652L15.273 49.9653C15.2722 49.9655 15.2716 49.9657 15.2713 49.9659C15.2706 49.9662 15.2703 49.9668 15.2703 49.9675C15.2703 49.9682 15.2705 49.9687 15.2709 49.969C15.2713 49.9693 15.2717 49.9694 15.2723 49.9694C15.2731 49.9694 15.2739 49.9692 15.2746 49.9687C15.2753 49.9682 15.2757 49.9673 15.2757 49.966V49.9645ZM15.2733 49.9627C15.274 49.9626 15.2745 49.9625 15.2749 49.9624C15.2754 49.9621 15.2757 49.9618 15.2757 49.9613C15.2757 49.9606 15.2755 49.9602 15.2751 49.96C15.2746 49.9598 15.274 49.9596 15.2732 49.9596C15.2723 49.9596 15.2716 49.9599 15.2712 49.9603C15.271 49.9607 15.2708 49.9611 15.2707 49.9617H15.2669C15.267 49.9604 15.2674 49.9593 15.268 49.9585C15.269 49.9572 15.2708 49.9565 15.2733 49.9565C15.275 49.9565 15.2764 49.9568 15.2777 49.9575C15.279 49.9581 15.2796 49.9593 15.2796 49.9611V49.968C15.2796 49.9685 15.2796 49.9691 15.2796 49.9697C15.2796 49.9702 15.2797 49.9706 15.2799 49.9708C15.28 49.971 15.2802 49.9711 15.2804 49.9712V49.9718H15.2762C15.2761 49.9715 15.276 49.9712 15.2759 49.971C15.2759 49.9707 15.2758 49.9704 15.2758 49.97C15.2753 49.9706 15.2747 49.9711 15.274 49.9715C15.2731 49.972 15.2722 49.9723 15.2711 49.9723C15.2697 49.9723 15.2686 49.9719 15.2677 49.9711C15.2669 49.9703 15.2664 49.9692 15.2664 49.9678C15.2664 49.966 15.2671 49.9647 15.2686 49.9638C15.2693 49.9634 15.2705 49.9631 15.272 49.9629L15.2733 49.9627ZM15.2912 49.9565C15.2913 49.9565 15.2913 49.9565 15.2914 49.9565C15.2914 49.9565 15.2915 49.9565 15.2917 49.9565V49.9605C15.2915 49.9605 15.2913 49.9605 15.2911 49.9605C15.2909 49.9605 15.2907 49.9605 15.2906 49.9605C15.289 49.9605 15.288 49.961 15.2874 49.962C15.2871 49.9626 15.287 49.9635 15.287 49.9647V49.9718H15.283V49.9568H15.2868V49.9595C15.2874 49.9585 15.2879 49.9578 15.2883 49.9574C15.2891 49.9568 15.29 49.9565 15.2912 49.9565ZM15.2925 49.9598V49.957H15.2946V49.9528H15.2984V49.957H15.3009V49.9598H15.2984V49.9677C15.2984 49.9683 15.2985 49.9687 15.2987 49.9688C15.2988 49.969 15.2993 49.969 15.3001 49.969C15.3002 49.969 15.3003 49.969 15.3005 49.969C15.3006 49.969 15.3007 49.969 15.3009 49.969V49.9719L15.299 49.972C15.2972 49.9721 15.2959 49.9718 15.2952 49.971C15.2948 49.9706 15.2946 49.9699 15.2946 49.969V49.9598H15.2925ZM15.3064 49.967C15.3065 49.9677 15.3067 49.9682 15.307 49.9685C15.3074 49.969 15.3083 49.9693 15.3097 49.9693C15.3104 49.9693 15.311 49.9692 15.3115 49.9689C15.3119 49.9687 15.3122 49.9684 15.3122 49.9679C15.3122 49.9675 15.312 49.9671 15.3116 49.9669C15.3112 49.9667 15.3099 49.9663 15.3075 49.9657C15.3058 49.9653 15.3047 49.9648 15.304 49.9642C15.3033 49.9635 15.3029 49.9626 15.3029 49.9615C15.3029 49.9601 15.3035 49.9589 15.3045 49.9579C15.3056 49.9569 15.3071 49.9564 15.3091 49.9564C15.311 49.9564 15.3125 49.9568 15.3137 49.9575C15.3148 49.9583 15.3155 49.9596 15.3157 49.9614H15.3118C15.3117 49.9609 15.3116 49.9605 15.3114 49.9602C15.3109 49.9597 15.3102 49.9594 15.3092 49.9594C15.3083 49.9594 15.3077 49.9595 15.3073 49.9598C15.307 49.9601 15.3068 49.9604 15.3068 49.9607C15.3068 49.9612 15.307 49.9615 15.3074 49.9617C15.3078 49.9619 15.3091 49.9623 15.3115 49.9628C15.313 49.9632 15.3142 49.9637 15.315 49.9645C15.3157 49.9652 15.3161 49.9661 15.3161 49.9673C15.3161 49.9688 15.3156 49.97 15.3145 49.9709C15.3134 49.9718 15.3117 49.9723 15.3093 49.9723C15.307 49.9723 15.3053 49.9718 15.3041 49.9708C15.303 49.9698 15.3025 49.9686 15.3025 49.967H15.3064Z" fill="white"/>
<path d="M15.0073 49.9796C15.0076 49.9796 15.0078 49.9796 15.008 49.9796C15.0082 49.9796 15.0085 49.9796 15.0088 49.9797V49.9828C15.0086 49.9828 15.0082 49.9828 15.0077 49.9828C15.0072 49.9828 15.0069 49.9829 15.0067 49.9831C15.0065 49.9834 15.0064 49.9836 15.0064 49.9839C15.0064 49.9842 15.0064 49.9846 15.0064 49.9852H15.0089V49.9879H15.0064V50H15.0025V49.9879H15.0003V49.9852H15.0024V49.9842C15.0024 49.9826 15.0027 49.9815 15.0032 49.9809C15.0038 49.98 15.0052 49.9796 15.0073 49.9796ZM15.0193 49.9847C15.0194 49.9847 15.0194 49.9847 15.0195 49.9847C15.0195 49.9847 15.0196 49.9847 15.0198 49.9847V49.9887C15.0196 49.9887 15.0194 49.9887 15.0192 49.9887C15.019 49.9887 15.0188 49.9887 15.0187 49.9887C15.0171 49.9887 15.0161 49.9892 15.0155 49.9902C15.0152 49.9908 15.0151 49.9917 15.0151 49.9929V50H15.0111V49.985H15.0149V49.9877C15.0155 49.9867 15.016 49.986 15.0164 49.9856C15.0172 49.985 15.0181 49.9847 15.0193 49.9847ZM15.0288 49.9972C15.03 49.9972 15.0309 49.9968 15.0315 49.996C15.0321 49.9952 15.0324 49.9941 15.0324 49.9926C15.0324 49.9911 15.0321 49.9899 15.0315 49.9891C15.0309 49.9883 15.03 49.9879 15.0288 49.9879C15.0277 49.9879 15.0268 49.9883 15.0262 49.9891C15.0256 49.9899 15.0253 49.9911 15.0253 49.9926C15.0253 49.9941 15.0256 49.9952 15.0262 49.996C15.0268 49.9968 15.0277 49.9972 15.0288 49.9972ZM15.0365 49.9926C15.0365 49.9947 15.0359 49.9966 15.0346 49.9982C15.0333 49.9997 15.0314 50.0005 15.0288 50.0005C15.0263 50.0005 15.0244 49.9997 15.0231 49.9982C15.0218 49.9966 15.0212 49.9947 15.0212 49.9926C15.0212 49.9904 15.0218 49.9885 15.0231 49.9869C15.0244 49.9854 15.0263 49.9846 15.0288 49.9846C15.0314 49.9846 15.0333 49.9854 15.0346 49.9869C15.0359 49.9885 15.0365 49.9904 15.0365 49.9926ZM15.056 49.9847C15.0567 49.9847 15.0573 49.9848 15.058 49.9851C15.0586 49.9854 15.0592 49.9858 15.0597 49.9864C15.0601 49.987 15.0604 49.9876 15.0606 49.9884C15.0606 49.9889 15.0607 49.9896 15.0607 49.9906L15.0607 50H15.0567V49.9905C15.0567 49.9899 15.0566 49.9894 15.0564 49.9891C15.056 49.9884 15.0554 49.988 15.0545 49.988C15.0534 49.988 15.0526 49.9885 15.0522 49.9894C15.052 49.9899 15.0519 49.9904 15.0519 49.9911V50H15.048V49.9911C15.048 49.9902 15.0479 49.9896 15.0477 49.9892C15.0474 49.9884 15.0467 49.9881 15.0458 49.9881C15.0446 49.9881 15.0439 49.9884 15.0435 49.9892C15.0433 49.9896 15.0432 49.9902 15.0432 49.991V50H15.0392V49.9851H15.043V49.9873C15.0435 49.9865 15.044 49.9859 15.0444 49.9856C15.0452 49.985 15.0461 49.9847 15.0474 49.9847C15.0485 49.9847 15.0494 49.985 15.0501 49.9855C15.0507 49.9859 15.0511 49.9865 15.0514 49.9873C15.0519 49.9864 15.0526 49.9857 15.0533 49.9853C15.0541 49.9849 15.055 49.9847 15.056 49.9847ZM15.0706 49.988V49.9852H15.0727V49.981H15.0765V49.9852H15.079V49.988H15.0765V49.9959C15.0765 49.9965 15.0766 49.9969 15.0768 49.997C15.0769 49.9972 15.0774 49.9972 15.0782 49.9972C15.0783 49.9972 15.0784 49.9972 15.0786 49.9972C15.0787 49.9972 15.0788 49.9972 15.079 49.9972V50.0001L15.0771 50.0002C15.0753 50.0003 15.074 49.9999 15.0733 49.9992C15.0729 49.9988 15.0727 49.9981 15.0727 49.9972V49.988H15.0706ZM15.0897 49.9847C15.0906 49.9847 15.0915 49.9848 15.0922 49.9851C15.093 49.9855 15.0936 49.986 15.0941 49.9866C15.0945 49.9872 15.0948 49.9877 15.0948 49.9883C15.0949 49.9889 15.095 49.9899 15.095 49.9912V50H15.091V49.9909C15.091 49.9901 15.0909 49.9895 15.0906 49.989C15.0902 49.9883 15.0895 49.9879 15.0886 49.9879C15.0875 49.9879 15.0867 49.9883 15.0862 49.989C15.0857 49.9896 15.0854 49.9906 15.0854 49.9919V50H15.0815V49.9798H15.0854V49.987C15.086 49.9861 15.0866 49.9855 15.0874 49.9852C15.0881 49.9848 15.0889 49.9847 15.0897 49.9847ZM15.1045 49.9879C15.1036 49.9879 15.1029 49.9882 15.1024 49.9887C15.1019 49.9893 15.1016 49.9901 15.1015 49.991H15.1076C15.1075 49.99 15.1072 49.9892 15.1066 49.9887C15.1061 49.9881 15.1054 49.9879 15.1045 49.9879ZM15.1045 49.9846C15.1058 49.9846 15.1069 49.9849 15.1079 49.9853C15.1089 49.9858 15.1097 49.9866 15.1104 49.9876C15.111 49.9884 15.1113 49.9895 15.1115 49.9906C15.1116 49.9913 15.1117 49.9923 15.1116 49.9936H15.1014C15.1015 49.9951 15.1019 49.9962 15.1028 49.9968C15.1034 49.9971 15.104 49.9973 15.1048 49.9973C15.1056 49.9973 15.1062 49.9971 15.1067 49.9966C15.107 49.9964 15.1072 49.996 15.1075 49.9956H15.1114C15.1113 49.9965 15.1109 49.9974 15.1101 49.9983C15.1088 49.9998 15.107 50.0005 15.1047 50.0005C15.1028 50.0005 15.1011 49.9999 15.0997 49.9987C15.0982 49.9974 15.0975 49.9954 15.0975 49.9927C15.0975 49.9901 15.0981 49.9881 15.0994 49.9867C15.1007 49.9853 15.1025 49.9846 15.1045 49.9846ZM15.1224 49.9798H15.1268L15.1348 49.9939V49.9798H15.1388V50H15.1345L15.1263 49.9856V50H15.1224V49.9798ZM15.1491 49.9972C15.1503 49.9972 15.1511 49.9968 15.1518 49.996C15.1524 49.9952 15.1527 49.9941 15.1527 49.9926C15.1527 49.9911 15.1524 49.9899 15.1518 49.9891C15.1511 49.9883 15.1503 49.9879 15.1491 49.9879C15.148 49.9879 15.1471 49.9883 15.1465 49.9891C15.1459 49.9899 15.1456 49.9911 15.1456 49.9926C15.1456 49.9941 15.1459 49.9952 15.1465 49.996C15.1471 49.9968 15.148 49.9972 15.1491 49.9972ZM15.1568 49.9926C15.1568 49.9947 15.1561 49.9966 15.1549 49.9982C15.1536 49.9997 15.1517 50.0005 15.1491 50.0005C15.1466 50.0005 15.1446 49.9997 15.1434 49.9982C15.1421 49.9966 15.1415 49.9947 15.1415 49.9926C15.1415 49.9904 15.1421 49.9885 15.1434 49.9869C15.1446 49.9854 15.1466 49.9846 15.1491 49.9846C15.1517 49.9846 15.1536 49.9854 15.1549 49.9869C15.1561 49.9885 15.1568 49.9904 15.1568 49.9926ZM15.1635 49.985V49.9941C15.1635 49.9949 15.1636 49.9956 15.1638 49.996C15.1641 49.9967 15.1648 49.9971 15.1659 49.9971C15.1672 49.9971 15.1681 49.9966 15.1686 49.9955C15.1689 49.9949 15.169 49.9941 15.169 49.9932V49.985H15.173V50H15.1692V49.9979C15.1691 49.9979 15.169 49.9981 15.1689 49.9983C15.1688 49.9985 15.1686 49.9987 15.1684 49.9989C15.1678 49.9995 15.1672 49.9998 15.1666 50C15.166 50.0002 15.1654 50.0003 15.1646 50.0003C15.1624 50.0003 15.1609 49.9995 15.1601 49.9979C15.1597 49.9971 15.1595 49.9958 15.1595 49.9941V49.985H15.1635ZM15.185 49.9847C15.1866 49.9847 15.1879 49.9851 15.1888 49.9859C15.1898 49.9867 15.1903 49.9881 15.1903 49.9899V50H15.1863V49.9909C15.1863 49.9901 15.1862 49.9895 15.186 49.9891C15.1856 49.9883 15.1849 49.9879 15.1838 49.9879C15.1825 49.9879 15.1816 49.9885 15.1811 49.9896C15.1808 49.9902 15.1807 49.991 15.1807 49.9919V50H15.1768V49.9851H15.1806V49.9873C15.1811 49.9865 15.1815 49.9859 15.182 49.9856C15.1828 49.985 15.1838 49.9847 15.185 49.9847ZM15.2135 49.9862C15.2135 49.9852 15.2132 49.9844 15.2126 49.984C15.2121 49.9835 15.2113 49.9833 15.2103 49.9833H15.2064V49.9892H15.2103C15.2113 49.9892 15.2121 49.989 15.2126 49.9885C15.2132 49.988 15.2135 49.9873 15.2135 49.9862ZM15.2176 49.9862C15.2176 49.9886 15.217 49.9903 15.2158 49.9912C15.2146 49.9922 15.2129 49.9927 15.2107 49.9927H15.2064V50H15.2022V49.9798H15.211C15.213 49.9798 15.2146 49.9803 15.2158 49.9813C15.217 49.9824 15.2176 49.984 15.2176 49.9862ZM15.2286 49.9847C15.2287 49.9847 15.2287 49.9847 15.2288 49.9847C15.2288 49.9847 15.229 49.9847 15.2291 49.9847V49.9887C15.2289 49.9887 15.2287 49.9887 15.2285 49.9887C15.2283 49.9887 15.2281 49.9887 15.228 49.9887C15.2264 49.9887 15.2254 49.9892 15.2248 49.9902C15.2245 49.9908 15.2244 49.9917 15.2244 49.9929V50H15.2205V49.985H15.2242V49.9877C15.2248 49.9867 15.2253 49.986 15.2258 49.9856C15.2265 49.985 15.2274 49.9847 15.2286 49.9847ZM15.2382 49.9972C15.2393 49.9972 15.2402 49.9968 15.2408 49.996C15.2414 49.9952 15.2417 49.9941 15.2417 49.9926C15.2417 49.9911 15.2414 49.9899 15.2408 49.9891C15.2402 49.9883 15.2393 49.9879 15.2382 49.9879C15.237 49.9879 15.2361 49.9883 15.2355 49.9891C15.2349 49.9899 15.2346 49.9911 15.2346 49.9926C15.2346 49.9941 15.2349 49.9952 15.2355 49.996C15.2361 49.9968 15.237 49.9972 15.2382 49.9972ZM15.2458 49.9926C15.2458 49.9947 15.2452 49.9966 15.2439 49.9982C15.2426 49.9997 15.2407 50.0005 15.2382 50.0005C15.2356 50.0005 15.2337 49.9997 15.2324 49.9982C15.2312 49.9966 15.2305 49.9947 15.2305 49.9926C15.2305 49.9904 15.2312 49.9885 15.2324 49.9869C15.2337 49.9854 15.2356 49.9846 15.2382 49.9846C15.2407 49.9846 15.2426 49.9854 15.2439 49.9869C15.2452 49.9885 15.2458 49.9904 15.2458 49.9926ZM15.2527 49.9833H15.2488V49.9797H15.2527V49.9833ZM15.2469 50.0029C15.2471 50.0029 15.2473 50.0029 15.2474 50.0029C15.2475 50.0029 15.2476 50.0029 15.2476 50.0029C15.248 50.0029 15.2483 50.0028 15.2485 50.0026C15.2487 50.0024 15.2488 50.0021 15.2488 50.0015V49.9851H15.2527V50.0016C15.2527 50.0031 15.2524 50.0042 15.2518 50.005C15.2512 50.0057 15.2501 50.006 15.2483 50.006C15.2482 50.006 15.248 50.006 15.2478 50.006C15.2476 50.006 15.2473 50.006 15.2469 50.006V50.0029ZM15.2623 49.9879C15.2614 49.9879 15.2607 49.9882 15.2602 49.9887C15.2597 49.9893 15.2594 49.9901 15.2593 49.991H15.2654C15.2653 49.99 15.265 49.9892 15.2644 49.9887C15.2639 49.9881 15.2632 49.9879 15.2623 49.9879ZM15.2623 49.9846C15.2636 49.9846 15.2647 49.9849 15.2657 49.9853C15.2667 49.9858 15.2675 49.9866 15.2682 49.9876C15.2688 49.9884 15.2691 49.9895 15.2693 49.9906C15.2694 49.9913 15.2694 49.9923 15.2694 49.9936H15.2592C15.2592 49.9951 15.2597 49.9962 15.2606 49.9968C15.2611 49.9971 15.2618 49.9973 15.2626 49.9973C15.2634 49.9973 15.264 49.9971 15.2645 49.9966C15.2648 49.9964 15.265 49.996 15.2652 49.9956H15.2692C15.2691 49.9965 15.2687 49.9974 15.2679 49.9983C15.2666 49.9998 15.2648 50.0005 15.2625 50.0005C15.2606 50.0005 15.2589 49.9999 15.2574 49.9987C15.256 49.9974 15.2553 49.9954 15.2553 49.9927C15.2553 49.9901 15.2559 49.9881 15.2572 49.9867C15.2585 49.9853 15.2602 49.9846 15.2623 49.9846ZM15.281 49.9904C15.2809 49.9899 15.2807 49.9893 15.2804 49.9889C15.28 49.9883 15.2793 49.988 15.2784 49.988C15.2771 49.988 15.2762 49.9887 15.2757 49.99C15.2754 49.9907 15.2753 49.9916 15.2753 49.9927C15.2753 49.9938 15.2754 49.9947 15.2757 49.9954C15.2762 49.9966 15.277 49.9972 15.2783 49.9972C15.2792 49.9972 15.2799 49.997 15.2803 49.9965C15.2807 49.996 15.2809 49.9954 15.281 49.9946H15.285C15.2849 49.9958 15.2844 49.9969 15.2837 49.998C15.2825 49.9997 15.2806 50.0005 15.2782 50.0005C15.2758 50.0005 15.2741 49.9998 15.2729 49.9984C15.2718 49.997 15.2712 49.9951 15.2712 49.9928C15.2712 49.9903 15.2719 49.9883 15.2731 49.9868C15.2744 49.9854 15.2761 49.9847 15.2783 49.9847C15.2802 49.9847 15.2817 49.9851 15.2829 49.986C15.2841 49.9868 15.2848 49.9883 15.285 49.9904H15.281ZM15.2862 49.988V49.9852H15.2883V49.981H15.2921V49.9852H15.2946V49.988H15.2921V49.9959C15.2921 49.9965 15.2922 49.9969 15.2924 49.997C15.2925 49.9972 15.293 49.9972 15.2938 49.9972C15.2939 49.9972 15.294 49.9972 15.2942 49.9972C15.2943 49.9972 15.2944 49.9972 15.2946 49.9972V50.0001L15.2927 50.0002C15.2909 50.0003 15.2896 49.9999 15.2889 49.9992C15.2885 49.9988 15.2883 49.9981 15.2883 49.9972V49.988H15.2862Z" fill="white"/>
<defs>
<linearGradient id="paint0_linear_189_25053" x1="64" y1="7.62939e-06" x2="7.62939e-06" y2="64" gradientUnits="userSpaceOnUse">
<stop stop-color="#F65A75"/>
<stop offset="1" stop-color="#48179C"/>
</linearGradient>
</defs>
</svg>
