<svg width="64" height="64" viewBox="0 0 64 64" fill="none" xmlns="http://www.w3.org/2000/svg">
<rect width="64" height="64" rx="32" fill="url(#paint0_linear_189_25060)"/>
<path d="M43.767 47.5359L39.2831 43.052C39.0694 42.8383 38.7246 42.8383 38.5124 43.052L38.4181 43.1463L37.3439 42.0721C39.5291 39.2223 39.3273 35.1155 36.7191 32.5074C33.8826 29.6723 29.269 29.6723 26.4339 32.5074C23.5989 35.3454 23.5989 39.9576 26.4339 42.7941C29.0421 45.4037 33.1488 45.6026 35.9971 43.4174L37.0728 44.4916L36.9755 44.5874C36.7619 44.801 36.7619 45.1458 36.9755 45.3551L41.4595 49.842C41.6746 50.0527 42.0179 50.0527 42.2301 49.842L43.767 48.3021C43.9807 48.0914 43.9807 47.7496 43.767 47.5359ZM35.7584 41.8348C33.4538 44.1394 29.7007 44.1394 27.3947 41.8348C25.0901 39.5273 25.0901 35.7772 27.3947 33.4681C29.6992 31.165 33.4523 31.165 35.7584 33.4681C38.0645 35.7772 38.0645 39.5258 35.7584 41.8348Z" fill="white"/>
<path d="M52.1913 40.5382C53.827 40.5382 55.1531 39.2122 55.1531 37.5764C55.1531 35.9407 53.827 34.6146 52.1913 34.6146C50.5555 34.6146 49.2295 35.9407 49.2295 37.5764C49.2295 39.2122 50.5555 40.5382 52.1913 40.5382Z" fill="white"/>
<path d="M48.1227 36.6509H43.0627C42.8637 34.1636 41.8779 31.9017 40.3499 30.1084L43.932 26.5278C43.6712 26.3657 43.4251 26.1756 43.2012 25.9501C42.9742 25.7247 42.7856 25.4786 42.6221 25.2178L39.0414 28.7999C37.2466 27.2704 34.9833 26.2861 32.5004 26.0887V21.0286C32.2013 21.0949 31.8933 21.1361 31.5736 21.1361C31.2538 21.1361 30.9458 21.0949 30.6482 21.0286V26.0901C28.1624 26.2876 25.9005 27.2748 24.1087 28.8014L20.528 25.2193C20.3645 25.4801 20.1744 25.7262 19.9489 25.9516C19.722 26.1756 19.4774 26.3657 19.2181 26.5292L22.7987 30.1099C21.2707 31.9047 20.2864 34.1695 20.0874 36.6524H15.0273C15.0966 36.9515 15.1349 37.258 15.1349 37.5792C15.1349 37.896 15.0966 38.2055 15.0273 38.5016H20.0904C20.5649 44.4296 25.5292 49.111 31.578 49.111C33.7205 49.111 35.723 48.5142 37.4412 47.4901L36.14 46.189C36.1238 46.1728 36.1164 46.1478 36.1002 46.1316C34.7505 46.8462 33.2107 47.2603 31.578 47.2603C26.2379 47.2603 21.8954 42.9148 21.8954 37.5763C21.8954 32.2377 26.2379 27.8937 31.578 27.8937C36.918 27.8937 41.2605 32.2377 41.2605 37.5763C41.2605 39.2487 40.8347 40.8224 40.0847 42.1958C40.095 42.2076 40.1068 42.209 40.1156 42.2193L41.4359 43.5396C42.3391 42.0455 42.9182 40.3332 43.0641 38.5016H48.1242C48.0579 38.2025 48.0181 37.896 48.0181 37.5777C48.0166 37.2565 48.0579 36.9471 48.1227 36.6509Z" fill="white"/>
<path d="M46.1532 25.9619C47.7889 25.9619 49.115 24.6359 49.115 23.0001C49.115 21.3644 47.7889 20.0383 46.1532 20.0383C44.5174 20.0383 43.1914 21.3644 43.1914 23.0001C43.1914 24.6359 44.5174 25.9619 46.1532 25.9619Z" fill="white"/>
<path d="M31.576 19.9236C33.2118 19.9236 34.5378 18.5975 34.5378 16.9618C34.5378 15.326 33.2118 14 31.576 14C29.9403 14 28.6143 15.326 28.6143 16.9618C28.6143 18.5975 29.9403 19.9236 31.576 19.9236Z" fill="white"/>
<path d="M16.9999 25.9636C18.6356 25.9636 19.9617 24.6376 19.9617 23.0018C19.9617 21.3661 18.6356 20.04 16.9999 20.04C15.3641 20.04 14.0381 21.3661 14.0381 23.0018C14.0381 24.6376 15.3641 25.9636 16.9999 25.9636Z" fill="white"/>
<path d="M10.9633 40.5411C12.5998 40.5411 13.9265 39.2144 13.9265 37.5779C13.9265 35.9413 12.5998 34.6146 10.9633 34.6146C9.3267 34.6146 8 35.9413 8 37.5779C8 39.2144 9.3267 40.5411 10.9633 40.5411Z" fill="white"/>
<defs>
<linearGradient id="paint0_linear_189_25060" x1="64" y1="7.62939e-06" x2="7.62939e-06" y2="64" gradientUnits="userSpaceOnUse">
<stop stop-color="#F65A75"/>
<stop offset="1" stop-color="#48179C"/>
</linearGradient>
</defs>
</svg>
