<svg width="64" height="64" viewBox="0 0 64 64" fill="none" xmlns="http://www.w3.org/2000/svg">
<rect width="64" height="64" rx="32" fill="url(#paint0_linear_189_24978)"/>
<path d="M38.75 18.5C38.75 17.9033 38.9871 17.331 39.409 16.909C39.831 16.4871 40.4033 16.25 41 16.25H45.5C46.0967 16.25 46.669 16.4871 47.091 16.909C47.5129 17.331 47.75 17.9033 47.75 18.5V45.5H48.875C49.1734 45.5 49.4595 45.6185 49.6705 45.8295C49.8815 46.0405 50 46.3266 50 46.625C50 46.9234 49.8815 47.2095 49.6705 47.4205C49.4595 47.6315 49.1734 47.75 48.875 47.75H15.125C14.8266 47.75 14.5405 47.6315 14.3295 47.4205C14.1185 47.2095 14 46.9234 14 46.625C14 46.3266 14.1185 46.0405 14.3295 45.8295C14.5405 45.6185 14.8266 45.5 15.125 45.5H16.25V38.75C16.25 38.1533 16.4871 37.581 16.909 37.159C17.331 36.7371 17.9033 36.5 18.5 36.5H23C23.5967 36.5 24.169 36.7371 24.591 37.159C25.0129 37.581 25.25 38.1533 25.25 38.75V45.5H27.5V29.75C27.5 29.1533 27.7371 28.581 28.159 28.159C28.581 27.7371 29.1533 27.5 29.75 27.5H34.25C34.8467 27.5 35.419 27.7371 35.841 28.159C36.2629 28.581 36.5 29.1533 36.5 29.75V45.5H38.75V18.5ZM41 45.5H45.5V18.5H41V45.5ZM34.25 45.5V29.75H29.75V45.5H34.25ZM23 45.5V38.75H18.5V45.5H23Z" fill="white"/>
<defs>
<linearGradient id="paint0_linear_189_24978" x1="64" y1="7.62939e-06" x2="7.62939e-06" y2="64" gradientUnits="userSpaceOnUse">
<stop stop-color="#F65A75"/>
<stop offset="1" stop-color="#48179C"/>
</linearGradient>
</defs>
</svg>
