<svg width="64" height="64" viewBox="0 0 64 64" fill="none" xmlns="http://www.w3.org/2000/svg">
<rect width="64" height="64" rx="32" fill="url(#paint0_linear_189_25085)"/>
<path d="M38.9321 34.9795C38.3141 34.3614 37.3069 34.3557 36.6831 34.9795L34.085 37.5776L28.9346 42.728C27.8701 43.7924 26.4681 44.3303 24.9458 44.3246C23.4351 44.2903 22.0502 43.6551 21.0315 42.5391C19.0972 40.416 19.2403 36.9767 21.3463 34.8707L26.3651 29.8576L28.9632 27.2595C29.5812 26.6415 29.5812 25.6286 28.9632 25.0105L27.1777 23.2308C26.5596 22.6127 25.5467 22.6127 24.9287 23.2308L22.3306 25.8289L17.3747 30.7847C13.0712 35.0882 12.8538 42.1271 16.894 46.4649C18.9771 48.7025 21.8098 49.9672 24.8715 50.0244C24.9401 50.0244 25.0145 50.0244 25.0832 50.0244C28.0647 50.0244 30.8631 48.8684 32.9691 46.7625L38.1195 41.6121L40.7176 39.014C41.3357 38.3959 41.3357 37.383 40.7176 36.7649L38.9321 34.9795ZM25.7012 23.9976C25.8958 23.803 26.2106 23.803 26.4051 23.9976L28.1906 25.7774C28.2822 25.8689 28.3394 25.9948 28.3394 26.1322C28.3394 26.2695 28.2879 26.3897 28.1906 26.487L25.9817 28.6959L24.7398 27.4541L23.498 26.2123L25.7012 23.9976ZM32.1965 45.9842C30.2908 47.8899 27.7729 48.9257 25.0775 48.9257C25.0145 48.9257 24.9516 48.9257 24.8886 48.9257C22.1303 48.8742 19.5722 47.7353 17.6952 45.7152C14.0498 41.7952 14.2558 35.443 18.153 31.5458L22.7197 26.9791L23.9615 28.2209L25.2034 29.4628L20.5737 34.0924C18.0157 36.6505 17.8669 40.6793 20.2246 43.2659C21.4436 44.605 23.1089 45.3662 24.923 45.4062C26.7542 45.4405 28.431 44.771 29.7129 43.4891L34.4799 38.7278L35.7217 39.9696L36.9635 41.2115L32.1965 45.9842ZM39.945 38.2414L37.7361 40.4504L36.4943 39.2085L35.2524 37.9667L37.4614 35.7577C37.656 35.5632 37.9707 35.5632 38.1653 35.7577L39.945 37.5375C40.0366 37.6291 40.0938 37.755 40.0938 37.8923C40.0881 38.0182 40.0366 38.1441 39.945 38.2414Z" fill="white"/>
<path d="M33.4946 24.4897C33.8666 24.4897 34.2386 24.4496 34.5934 24.3753C35.4919 24.1807 36.3274 23.7572 37.0084 23.1392C37.1457 23.0133 37.2774 22.8874 37.3975 22.7443C38.2617 21.7771 38.7366 20.5353 38.7366 19.2477C38.7366 16.3578 36.3846 14 33.4889 14C30.599 14 28.2412 16.352 28.2412 19.2477C28.2412 20.541 28.7162 21.7829 29.5803 22.7443C30.5761 23.8488 32.001 24.4897 33.4946 24.4897ZM33.0712 23.3738C33.0254 23.3681 32.9796 23.3623 32.9338 23.3566C32.8423 23.3452 32.7507 23.3337 32.6591 23.3108C32.6076 23.2994 32.5504 23.2879 32.4989 23.2708C32.4188 23.2536 32.3387 23.2307 32.2585 23.2078C32.2013 23.1907 32.1498 23.1735 32.0926 23.1506C32.0182 23.122 31.9438 23.0934 31.8694 23.0648C31.8122 23.0419 31.7607 23.019 31.7092 22.9904C31.6348 22.956 31.5661 22.9217 31.4974 22.8816C31.4459 22.853 31.3944 22.8244 31.3429 22.7958C31.2742 22.7557 31.2056 22.7099 31.1426 22.6642C31.0968 22.6298 31.0453 22.6012 30.9996 22.5669C30.9309 22.5154 30.8679 22.4639 30.805 22.4066C30.7649 22.3723 30.7249 22.338 30.6848 22.3036C30.6734 22.2922 30.6619 22.2807 30.6505 22.2693C31.2056 21.2163 32.2872 20.5468 33.4946 20.5468C34.7079 20.5468 35.7895 21.2106 36.3388 22.2693C36.3274 22.2807 36.3159 22.2922 36.3045 22.3036C36.2644 22.3437 36.2187 22.378 36.1786 22.4124C36.1156 22.4639 36.0527 22.5211 35.984 22.5669C35.9382 22.6012 35.8867 22.6356 35.841 22.6699C35.778 22.7157 35.7093 22.7557 35.6407 22.8015C35.5892 22.8301 35.5377 22.8645 35.4861 22.8931C35.4175 22.9331 35.3488 22.9675 35.2744 23.0018C35.2229 23.0247 35.1657 23.0533 35.1084 23.0762C35.0341 23.1048 34.9597 23.1334 34.8853 23.162C34.828 23.1792 34.7765 23.2021 34.7193 23.2193C34.6392 23.2422 34.5591 23.265 34.479 23.2822C34.4274 23.2937 34.3702 23.3108 34.3187 23.3223C34.2272 23.3394 34.1356 23.3509 34.044 23.3681C33.9982 23.3738 33.9525 23.3852 33.9067 23.3852C33.7693 23.3967 33.6263 23.4081 33.4889 23.4081C33.3516 23.3967 33.2142 23.3852 33.0712 23.3738ZM33.4946 19.4537C32.9224 19.4537 32.4531 18.9902 32.4531 18.4122C32.4531 17.8399 32.9224 17.3707 33.4946 17.3707C34.0669 17.3707 34.5362 17.8342 34.5362 18.4122C34.5362 18.9845 34.0669 19.4537 33.4946 19.4537ZM33.4946 15.0873C35.7837 15.0873 37.6493 16.9529 37.6493 19.242C37.6493 19.9917 37.4433 20.7242 37.0599 21.3651C36.5792 20.6441 35.9039 20.1004 35.1142 19.7799C35.4289 19.408 35.6235 18.9387 35.6235 18.4122C35.6235 17.239 34.6678 16.2834 33.4889 16.2834C32.31 16.2834 31.3544 17.239 31.3544 18.4122C31.3544 18.933 31.5489 19.408 31.8637 19.7799C31.0739 20.1004 30.3987 20.6498 29.918 21.3651C29.5345 20.7242 29.3342 19.9974 29.3342 19.242C29.34 16.9529 31.1998 15.0873 33.4946 15.0873Z" fill="white"/>
<path d="M49.9993 30.5042C49.9993 27.6085 47.6473 25.2565 44.7516 25.2565C41.8617 25.2565 39.5039 27.6085 39.5039 30.5042C39.5039 31.7975 39.9789 33.0393 40.843 34.0008C41.833 35.111 43.258 35.7462 44.7459 35.7462C45.1179 35.7462 45.4898 35.7061 45.8447 35.6317C46.7431 35.4372 47.5786 35.0137 48.2596 34.3956C48.397 34.2697 48.5286 34.1438 48.6488 34.0008C49.5244 33.0393 49.9993 31.7975 49.9993 30.5042ZM44.7573 26.3495C47.0464 26.3495 48.912 28.2151 48.912 30.5042C48.912 31.2539 48.706 31.9864 48.3283 32.6273C47.8476 31.9062 47.1723 31.3626 46.3826 31.0421C46.6973 30.6701 46.8919 30.2009 46.8919 29.6744C46.8919 28.5012 45.9362 27.5455 44.7573 27.5455C43.5785 27.5455 42.6228 28.5012 42.6228 29.6744C42.6228 30.1952 42.8173 30.6701 43.1321 31.0421C42.3424 31.3626 41.6671 31.912 41.1864 32.6273C40.803 31.9864 40.5969 31.2596 40.5969 30.5042C40.6027 28.2151 42.4625 26.3495 44.7573 26.3495ZM44.7573 30.7102C44.1851 30.7102 43.7158 30.2467 43.7158 29.6687C43.7158 29.0964 44.1851 28.6271 44.7573 28.6271C45.3296 28.6271 45.7989 29.0907 45.7989 29.6687C45.7989 30.2467 45.3296 30.7102 44.7573 30.7102ZM44.3339 34.636C44.2881 34.6303 44.2423 34.6245 44.1965 34.6188C44.105 34.6074 44.0134 34.5959 43.9218 34.573C43.8703 34.5616 43.8131 34.5501 43.7616 34.533C43.6815 34.5158 43.6014 34.4929 43.5212 34.47C43.464 34.4528 43.4125 34.4357 43.3553 34.4128C43.2809 34.3842 43.2065 34.3556 43.1321 34.3269C43.0749 34.3041 43.0234 34.2812 42.9719 34.2526C42.9032 34.2182 42.8288 34.1839 42.7601 34.1438C42.7086 34.1152 42.6571 34.0866 42.6056 34.058C42.5369 34.0179 42.4683 33.9721 42.4053 33.9264C42.3595 33.892 42.308 33.8634 42.2622 33.8233C42.1936 33.7718 42.1306 33.7203 42.0677 33.6631C42.0276 33.6288 41.9818 33.5944 41.9418 33.5544C41.9303 33.5429 41.9189 33.5315 41.9074 33.52C42.4625 32.4671 43.5441 31.7975 44.7516 31.7975C45.9591 31.7975 47.0464 32.4613 47.5958 33.52C47.5844 33.5315 47.5729 33.5429 47.5615 33.5544C47.5214 33.5944 47.4756 33.6288 47.4356 33.6631C47.3726 33.7146 47.3097 33.7718 47.241 33.8176C47.1952 33.852 47.1437 33.8863 47.0979 33.9206C47.035 33.9664 46.9663 34.0065 46.8976 34.0523C46.8461 34.0809 46.7946 34.1152 46.7431 34.1438C46.6744 34.1839 46.6058 34.2182 46.5314 34.2526C46.4799 34.2754 46.4226 34.3041 46.3654 34.3269C46.291 34.3556 46.2166 34.3842 46.1422 34.4128C46.085 34.43 46.0335 34.4528 45.9763 34.47C45.8962 34.4929 45.816 34.5158 45.7359 34.533C45.6844 34.5444 45.6272 34.5616 45.5757 34.573C45.4841 34.5902 45.3926 34.6016 45.301 34.6188C45.2552 34.6245 45.2094 34.636 45.1637 34.636C45.0263 34.6474 44.8832 34.6589 44.7459 34.6589C44.6143 34.6531 44.4769 34.6474 44.3339 34.636Z" fill="white"/>
<path d="M38.2106 28.4098L28.5221 29.6974C28.316 29.726 28.1444 29.8691 28.0757 30.0637C28.007 30.2582 28.0585 30.4757 28.2073 30.6245L29.9298 32.347L25.4547 34.5846C25.2201 34.7048 25.0999 34.9737 25.1743 35.2313C25.2429 35.4659 25.4604 35.6204 25.695 35.6204C25.7179 35.6204 25.7351 35.6204 25.758 35.6147L35.5037 34.493C35.7098 34.4701 35.8872 34.3271 35.9558 34.1325C36.0245 33.9322 35.973 33.7147 35.8242 33.566L34.1932 31.935L38.5425 29.4227C38.7657 29.2911 38.8687 29.0221 38.7886 28.7761C38.7142 28.5243 38.4681 28.3755 38.2106 28.4098ZM33.0373 31.3455C32.8885 31.4314 32.7912 31.5802 32.7683 31.7461C32.7454 31.9121 32.8026 32.0838 32.9228 32.204L34.2562 33.5373L28.7052 34.1726L31.0915 32.9822C31.2461 32.9021 31.3605 32.7533 31.3891 32.5817C31.4177 32.41 31.3605 32.2326 31.2346 32.1067L29.7582 30.6302L35.6239 29.8519L33.0373 31.3455Z" fill="white"/>
<defs>
<linearGradient id="paint0_linear_189_25085" x1="64" y1="7.62939e-06" x2="7.62939e-06" y2="64" gradientUnits="userSpaceOnUse">
<stop stop-color="#F65A75"/>
<stop offset="1" stop-color="#48179C"/>
</linearGradient>
</defs>
</svg>
