<svg width="64" height="64" viewBox="0 0 64 64" fill="none" xmlns="http://www.w3.org/2000/svg">
<rect width="64" height="64" rx="32" fill="url(#paint0_linear_189_25172)"/>
<path d="M37.25 31.25C37.25 31.9394 37.1142 32.6221 36.8504 33.2591C36.5865 33.896 36.1998 34.4748 35.7123 34.9623C35.2248 35.4498 34.646 35.8365 34.0091 36.1004C33.3721 36.3642 32.6894 36.5 32 36.5C31.3106 36.5 30.6279 36.3642 29.9909 36.1004C29.354 35.8365 28.7752 35.4498 28.2877 34.9623C27.8002 34.4748 27.4135 33.896 27.1496 33.2591C26.8858 32.6221 26.75 31.9394 26.75 31.25C26.75 29.8576 27.3031 28.5223 28.2877 27.5377C29.2723 26.5531 30.6076 26 32 26C33.3924 26 34.7277 26.5531 35.7123 27.5377C36.6969 28.5223 37.25 29.8576 37.25 31.25Z" stroke="white" stroke-width="2.25"/>
<path d="M45.5 34.4C45.974 34.268 46.474 34.2015 47 34.2005V28.2995C42.7145 28.2995 39.929 23.645 42.098 19.9505L36.902 17C34.706 20.741 29.297 20.741 27.101 17L21.905 19.9505C24.074 23.645 21.2855 28.2995 17 28.2995V34.2005C21.2855 34.2005 24.071 38.855 21.902 42.5495L27.098 45.5C27.5962 44.6425 28.3117 43.9316 29.1723 43.4389C30.033 42.9461 31.0083 42.689 32 42.6935" stroke="white" stroke-width="2.25" stroke-linecap="round" stroke-linejoin="round"/>
<path d="M41.75 36.5L42.137 37.5455C42.644 38.9165 42.8975 39.602 43.397 40.1015C43.898 40.6025 44.5835 40.856 45.9545 41.363L47 41.75L45.9545 42.137C44.5835 42.644 43.898 42.8975 43.3985 43.397C42.8975 43.898 42.644 44.5835 42.137 45.9545L41.75 47L41.363 45.9545C40.856 44.5835 40.6025 43.898 40.103 43.3985C39.602 42.8975 38.9165 42.644 37.5455 42.137L36.5 41.75L37.5455 41.363C38.9165 40.856 39.602 40.6025 40.1015 40.103C40.6025 39.602 40.856 38.9165 41.363 37.5455L41.75 36.5Z" stroke="white" stroke-width="2.25" stroke-linejoin="round"/>
<defs>
<linearGradient id="paint0_linear_189_25172" x1="64" y1="7.62939e-06" x2="7.62939e-06" y2="64" gradientUnits="userSpaceOnUse">
<stop stop-color="#F65A75"/>
<stop offset="1" stop-color="#48179C"/>
</linearGradient>
</defs>
</svg>
