<svg width="64" height="64" viewBox="0 0 64 64" fill="none" xmlns="http://www.w3.org/2000/svg">
<rect width="64" height="64" rx="32" fill="url(#paint0_linear_189_25100)"/>
<path d="M24.3486 36.0517H39.6464C40.4251 36.0517 41.0595 35.4172 41.0595 34.6386V24.2005C41.0595 23.4219 40.425 22.7875 39.6464 22.7875H24.3486C23.57 22.7875 22.9355 23.422 22.9355 24.2005V34.6386C22.9355 35.4172 23.57 36.0517 24.3486 36.0517ZM23.8846 24.2004C23.8846 23.9438 24.092 23.7364 24.3486 23.7364H39.6464C39.903 23.7364 40.1104 23.9438 40.1104 24.2004V34.6384C40.1104 34.895 39.903 35.1024 39.6464 35.1024H24.3486C24.092 35.1024 23.8846 34.895 23.8846 34.6384V24.2004Z" fill="white"/>
<path d="M29.1392 32.8937C29.2341 32.9482 29.3378 32.9745 29.4415 32.9745C29.5452 32.9745 29.6489 32.9482 29.7438 32.8937L34.8547 29.9427C35.0392 29.8355 35.157 29.6369 35.157 29.4207C35.157 29.2045 35.0392 29.0059 34.8547 28.8987L29.742 25.9513C29.5575 25.844 29.3273 25.844 29.1392 25.9513C28.9547 26.0585 28.8369 26.2571 28.8369 26.4733V32.3769C28.8387 32.5825 28.9547 32.7865 29.1392 32.8937ZM29.7878 27.0675L33.8601 29.4208L29.7878 31.7742V27.0675Z" fill="white"/>
<path d="M43.9562 39.3682H29.1857C28.9871 38.8198 28.4704 38.4191 27.8535 38.4191C27.2366 38.4191 26.7146 38.8145 26.5213 39.3682H20.0431C19.783 39.3682 19.5703 39.5791 19.5703 39.841C19.5703 40.1011 19.7812 40.3137 20.0431 40.3137H26.5213C26.7199 40.8621 27.2366 41.2628 27.8535 41.2628C28.4704 41.2628 28.9924 40.8674 29.1857 40.3137H43.9562C44.2163 40.3137 44.429 40.1028 44.429 39.841C44.429 39.5791 44.2181 39.3682 43.9562 39.3682ZM27.8535 40.3137C27.5933 40.3137 27.3807 40.1028 27.3807 39.841C27.3807 39.5808 27.5916 39.3682 27.8535 39.3682C28.1136 39.3682 28.3262 39.5791 28.3262 39.841C28.3262 40.1011 28.1153 40.3137 27.8535 40.3137Z" fill="white"/>
<path d="M47.5064 19H16.4887C15.116 19 14 20.1161 14 21.4887V42.5637C14 43.9364 15.1161 45.0524 16.4887 45.0524H47.5113C48.884 45.0524 50 43.9363 50 42.5637V21.4869C49.9947 20.116 48.879 19 47.5064 19ZM49.046 42.5636C49.046 43.4143 48.3571 44.1033 47.5064 44.1033L16.4887 44.1015C15.638 44.1015 14.9491 43.4126 14.9491 42.5619V21.4869C14.9491 20.6362 15.638 19.9472 16.4887 19.9472H47.5113C48.362 19.9472 49.0509 20.6362 49.0509 21.4869L49.0492 42.5637L49.046 42.5636Z" fill="white"/>
<defs>
<linearGradient id="paint0_linear_189_25100" x1="64" y1="7.62939e-06" x2="7.62939e-06" y2="64" gradientUnits="userSpaceOnUse">
<stop stop-color="#F65A75"/>
<stop offset="1" stop-color="#48179C"/>
</linearGradient>
</defs>
</svg>
