<svg width="595" height="375" viewBox="0 0 595 375" fill="none" xmlns="http://www.w3.org/2000/svg">
<g clip-path="url(#clip0_152_22348)">
<path d="M341.498 138.269C341.498 118.853 357.239 103.112 376.655 103.112H420.419C439.996 103.112 455.867 87.2412 455.867 67.6637C455.867 48.0862 439.996 32.2156 420.419 32.2156H236.628C217.051 32.2156 201.18 48.0862 201.18 67.6637C201.18 87.2412 185.31 103.112 165.732 103.112H82.4954C63.0788 103.112 47.3386 118.852 47.3386 138.269C47.3386 157.685 63.0788 173.425 82.4954 173.425H89.0406C108.296 173.425 123.907 189.035 123.907 208.292C123.907 227.548 108.296 243.158 89.0406 243.158H63.5721C43.9946 243.158 28.124 259.029 28.124 278.606C28.124 298.184 43.9946 314.054 63.5721 314.054H530.674C550.252 314.054 566.122 298.184 566.122 278.606C566.122 259.029 550.252 243.158 530.674 243.158H485.601C466.346 243.158 450.735 227.548 450.735 208.292C450.735 189.035 435.125 173.425 415.869 173.425H376.656C357.239 173.426 341.498 157.686 341.498 138.269Z" fill="white"/>
<path d="M159.326 64.7161C142.399 68.7817 139.421 72.0773 135.748 90.8148C132.076 72.0773 129.099 68.7817 112.172 64.7161C129.099 60.6504 132.076 57.3548 135.748 38.6173C139.421 57.3548 142.398 60.6504 159.326 64.7161Z" fill="#EEEFFF"/>
<path d="M547.918 279.696C536.433 282.455 534.413 284.691 531.921 297.404C529.429 284.69 527.408 282.454 515.923 279.696C527.408 276.938 529.429 274.701 531.921 261.988C534.413 274.702 536.433 276.938 547.918 279.696Z" fill="white"/>
<path d="M369.785 56.3198C358.3 59.0784 356.279 61.3146 353.787 74.0276C351.295 61.314 349.275 59.0778 337.79 56.3198C349.275 53.5617 351.295 51.3249 353.787 38.6119C356.279 51.3249 358.3 53.5611 369.785 56.3198Z" fill="white"/>
<path d="M216.17 266.322C203.644 281.129 180.332 279.722 163.158 275.724C147.004 271.963 132.023 261.644 123.456 247.384C120.442 242.366 118.941 235.867 124.002 231.726C126.783 229.452 130.622 228.414 134.142 228.056C130.201 228.457 124.127 225.376 120.482 223.991C114.028 221.54 98.0094 211.519 110.112 205.036C114.652 202.605 119.488 203.669 121.352 204.19C114.463 202.263 106.085 200.611 101.051 195.079C94.6498 188.045 99.8856 175.76 110.111 179.596C103.639 174.539 95.7314 167.295 93.6089 159.036C92.0054 152.796 95.0773 146.432 101.582 144.9C105.662 143.939 110.01 145.046 113.679 147.074C120.588 150.892 126.43 157.261 130.48 163.96C128.119 160.055 129.601 153.315 132.212 149.978C133.644 148.148 135.795 146.793 138.116 146.698C149.334 146.235 155.536 164.857 156.849 173.342C155.375 163.809 161.228 152.491 172.02 159.235C180.028 164.239 186.339 174.699 184.824 184.328C185.395 180.695 186.805 176.024 189.374 173.288C194.174 168.175 198.37 176.876 199.811 180.577C202.753 188.137 203.184 196.53 201.05 204.359C201.92 201.168 207.563 196.388 210.746 195.789C221.374 193.792 223.652 219.839 224.449 226.293C226.022 239.035 225.486 253.276 217.846 264.148C217.312 264.909 216.752 265.633 216.17 266.322Z" fill="#2F61BE"/>
<path opacity="0.5" d="M240.328 285.234L193.54 240.13L196.309 198.937C196.363 198.138 195.758 197.446 194.959 197.393C194.174 197.324 193.468 197.943 193.414 198.743L190.81 237.497L165.445 213.046L170.055 182.831C170.175 182.039 169.631 181.299 168.839 181.178C168.045 181.059 167.307 181.602 167.185 182.394L162.886 210.579L141.749 190.203L142.813 165.561C142.848 164.76 142.227 164.083 141.426 164.049C140.651 164.034 139.949 164.635 139.915 165.436L138.96 187.514L114.058 163.509C113.483 162.952 112.563 162.969 112.007 163.546C111.451 164.123 111.467 165.041 112.045 165.597L136.894 189.551L112.961 191.053C112.161 191.103 111.554 191.792 111.604 192.591C111.652 193.36 112.29 193.952 113.05 193.952C113.081 193.952 113.112 193.951 113.142 193.949L139.726 192.282L160.659 212.461L130.177 215.78C129.381 215.866 128.806 216.582 128.893 217.379C128.973 218.122 129.602 218.673 130.333 218.673C130.386 218.673 130.438 218.67 130.492 218.665L163.381 215.085L188.687 239.48L151.408 242.017C150.609 242.072 150.005 242.764 150.059 243.563C150.111 244.329 150.749 244.915 151.505 244.915C151.538 244.915 151.571 244.914 151.605 244.912L191.505 242.197L238.316 287.323C238.597 287.595 238.96 287.729 239.323 287.729C239.703 287.729 240.083 287.58 240.367 287.285C240.922 286.708 240.906 285.79 240.328 285.234Z" fill="white"/>
<path d="M82.4601 232.633C72.2319 228.796 66.9943 241.084 73.3996 248.113C78.3394 253.54 86.4935 255.237 93.2981 257.116C91.2091 256.579 86.7111 255.803 82.4601 258.073C70.3599 264.551 86.3775 274.576 92.8264 277.028C96.4754 278.414 102.547 281.49 106.493 281.09C102.967 281.453 99.13 282.49 96.3516 284.761C91.288 288.903 92.7899 295.403 95.8003 300.423C98.8544 305.508 102.728 310.092 107.182 314.053H192.151C197.911 303.666 198.223 290.883 196.801 279.327C196.736 278.776 196.656 278.086 196.562 277.274C195.554 268.634 192.819 246.995 183.098 248.823C179.913 249.425 174.269 254.206 173.399 257.397C174.647 252.813 175.017 248.04 174.516 243.353C174.421 242.388 174.277 241.431 174.103 240.473C173.674 238.138 173.022 235.839 172.158 233.611C170.715 229.912 166.522 221.213 161.72 226.321C159.152 229.063 157.744 233.735 157.171 237.361C158.332 229.977 154.893 222.106 149.62 216.578C148.713 215.635 147.756 214.757 146.762 213.974C145.986 213.35 145.188 212.777 144.368 212.269C137.716 208.12 132.943 210.818 130.607 215.737C130.194 216.592 129.859 217.514 129.606 218.479C128.939 220.967 128.793 223.746 129.2 226.379C128.286 220.452 124.985 209.592 119.262 203.731C119.211 203.68 119.16 203.629 119.109 203.578H119.102L119.095 203.571C116.65 201.127 113.785 199.596 110.463 199.734C109.766 199.763 109.084 199.901 108.431 200.133H108.424C106.908 200.684 105.566 201.736 104.565 203.013C101.953 206.35 100.466 213.089 102.831 216.999C98.7832 210.296 92.9364 203.926 86.0301 200.111C82.3596 198.08 78.0141 196.977 73.9299 197.935C67.423 199.466 64.3546 205.834 65.9576 212.073C68.0825 220.33 75.9896 227.577 82.4601 232.633Z" fill="#B3CDFE"/>
<path opacity="0.5" d="M83.9475 245.626C83.9984 246.394 84.6369 246.989 85.3986 246.989H85.4931L112.073 245.321L133.008 265.495L102.527 268.818C101.728 268.905 101.156 269.623 101.242 270.414C101.322 271.161 101.953 271.712 102.678 271.712C102.736 271.712 102.787 271.705 102.838 271.705L135.729 268.121L161.032 292.517L123.752 295.056C122.954 295.107 122.352 295.803 122.41 296.601C122.461 297.363 123.1 297.95 123.854 297.95H123.956L163.854 295.238L183.375 314.055H187.554L165.891 293.17L167.008 276.55L168.654 251.973C168.712 251.175 168.103 250.486 167.305 250.428C166.522 250.363 165.818 250.979 165.76 251.777L164.135 275.948L163.156 290.536L137.795 266.083L138.15 263.776L142.401 235.869C142.524 235.078 141.98 234.338 141.182 234.215C140.392 234.099 139.652 234.636 139.529 235.434L135.539 261.636L135.234 263.617L114.095 243.239L115.046 221.281L115.162 218.597C115.198 217.799 114.574 217.124 113.777 217.088C113 217.074 112.297 217.676 112.26 218.473L112.217 219.417L111.31 240.555L86.4067 216.543C85.8339 215.991 84.9125 216.006 84.3535 216.587C83.7951 217.16 83.8166 218.082 84.39 218.632L109.243 242.586L85.3107 244.087C84.506 244.139 83.9039 244.827 83.9475 245.626Z" fill="white"/>
<path d="M378.076 266.322C390.602 281.129 413.913 279.722 431.088 275.724C447.242 271.963 462.223 261.644 470.789 247.384C473.804 242.366 475.305 235.867 470.243 231.726C467.463 229.452 463.625 228.414 460.104 228.056C464.045 228.457 470.119 225.376 473.764 223.991C480.218 221.54 496.236 211.519 484.134 205.036C479.594 202.605 474.758 203.669 472.894 204.19C479.783 202.263 488.161 200.611 493.195 195.079C499.596 188.045 494.361 175.76 484.134 179.596C490.607 174.539 498.514 167.295 500.637 159.036C502.24 152.796 499.168 146.432 492.663 144.9C488.583 143.939 484.235 145.046 480.567 147.074C473.658 150.892 467.815 157.261 463.766 163.96C466.126 160.055 464.645 153.315 462.034 149.978C460.602 148.148 458.451 146.793 456.13 146.698C444.912 146.235 438.71 164.857 437.397 173.342C438.871 163.809 433.018 152.491 422.226 159.235C414.218 164.239 407.907 174.699 409.422 184.328C408.85 180.695 407.441 176.024 404.872 173.288C400.072 168.175 395.875 176.876 394.435 180.577C391.493 188.137 391.062 196.53 393.196 204.359C392.326 201.168 386.683 196.388 383.5 195.789C372.871 193.792 370.593 219.839 369.796 226.293C368.223 239.035 368.761 253.276 376.4 264.148C376.934 264.909 377.493 265.633 378.076 266.322Z" fill="#2F61BE"/>
<path opacity="0.5" d="M353.917 285.234L400.705 240.13L397.936 198.937C397.883 198.138 398.487 197.446 399.286 197.393C400.071 197.324 400.778 197.943 400.831 198.743L403.435 237.497L428.8 213.046L424.191 182.831C424.07 182.039 424.614 181.299 425.406 181.178C426.201 181.059 426.938 181.602 427.06 182.394L431.359 210.579L452.496 190.203L451.432 165.561C451.397 164.76 452.018 164.083 452.819 164.049C453.594 164.034 454.296 164.635 454.331 165.436L455.285 187.514L480.188 163.509C480.763 162.952 481.683 162.969 482.238 163.546C482.794 164.123 482.778 165.041 482.201 165.597L457.352 189.551L481.285 191.053C482.085 191.103 482.692 191.792 482.642 192.591C482.594 193.36 481.956 193.952 481.196 193.952C481.165 193.952 481.134 193.951 481.104 193.949L454.52 192.282L433.587 212.461L464.069 215.78C464.865 215.866 465.441 216.582 465.354 217.379C465.273 218.122 464.644 218.673 463.914 218.673C463.86 218.673 463.808 218.67 463.754 218.665L430.865 215.085L405.559 239.48L442.838 242.017C443.637 242.072 444.242 242.764 444.187 243.563C444.136 244.329 443.498 244.915 442.741 244.915C442.708 244.915 442.675 244.914 442.642 244.912L402.741 242.197L355.93 287.323C355.649 287.595 355.286 287.729 354.923 287.729C354.543 287.729 354.163 287.58 353.879 287.285C353.324 286.708 353.34 285.79 353.917 285.234Z" fill="white"/>
<path d="M511.786 232.633C522.014 228.796 527.251 241.084 520.846 248.113C515.906 253.54 507.752 255.237 500.948 257.116C503.037 256.579 507.535 255.803 511.786 258.073C523.886 264.551 507.868 274.576 501.419 277.028C497.77 278.414 491.699 281.49 487.752 281.09C491.278 281.453 495.115 282.49 497.894 284.761C502.957 288.903 501.455 295.403 498.445 300.423C495.391 305.508 491.517 310.092 487.063 314.053H402.095C396.335 303.666 396.023 290.883 397.445 279.327C397.51 278.776 397.59 278.086 397.684 277.274C398.692 268.634 401.427 246.995 411.148 248.823C414.332 249.425 419.977 254.206 420.847 257.397C419.599 252.813 419.229 248.04 419.73 243.353C419.825 242.388 419.969 241.431 420.144 240.473C420.572 238.138 421.225 235.839 422.088 233.611C423.532 229.912 427.725 221.213 432.527 226.321C435.095 229.063 436.502 233.735 437.075 237.361C435.915 229.977 439.353 222.106 444.627 216.578C445.534 215.635 446.491 214.757 447.484 213.973C448.261 213.35 449.059 212.776 449.878 212.269C456.531 208.119 461.304 210.818 463.64 215.737C464.053 216.592 464.387 217.514 464.64 218.479C465.308 220.967 465.453 223.745 465.047 226.379C465.961 220.452 469.262 209.592 474.985 203.731C475.036 203.68 475.087 203.629 475.138 203.578H475.145L475.152 203.571C477.597 201.126 480.462 199.596 483.784 199.734C484.481 199.763 485.163 199.901 485.816 200.133H485.823C487.339 200.684 488.681 201.736 489.682 203.013C492.294 206.35 493.781 213.089 491.416 216.999C495.464 210.296 501.311 203.926 508.217 200.111C511.887 198.08 516.233 196.977 520.317 197.935C526.824 199.466 529.893 205.834 528.289 212.073C526.164 220.33 518.257 227.577 511.786 232.633Z" fill="#B3CDFE"/>
<path opacity="0.5" d="M510.298 245.625C510.248 246.394 509.609 246.989 508.847 246.989H508.753L482.173 245.321L461.237 265.495L491.72 268.818C492.518 268.905 493.091 269.623 493.004 270.414C492.925 271.161 492.293 271.712 491.568 271.712C491.51 271.712 491.459 271.705 491.408 271.705L458.518 268.121L433.215 292.517L470.494 295.056C471.292 295.107 471.894 295.803 471.836 296.601C471.786 297.363 471.147 297.95 470.393 297.95H470.291L430.393 295.238L410.872 314.055H406.694L428.355 293.17L427.238 276.55L425.592 251.973C425.534 251.175 426.143 250.486 426.941 250.428C427.724 250.363 428.428 250.98 428.486 251.778L430.111 275.949L431.09 290.537L456.451 266.083L456.096 263.776L451.845 235.87C451.722 235.079 452.266 234.339 453.064 234.215C453.854 234.099 454.594 234.636 454.717 235.434L458.707 261.637L459.012 263.617L480.151 243.24L479.201 221.282L479.085 218.598C479.048 217.799 479.672 217.125 480.47 217.089C481.246 217.074 481.95 217.676 481.986 218.474L482.03 219.417L482.937 240.556L507.84 216.544C508.413 215.993 509.335 216.008 509.894 216.588C510.452 217.161 510.431 218.083 509.857 218.633L485.004 242.587L508.936 244.088C509.74 244.138 510.342 244.827 510.298 245.625Z" fill="white"/>
<path fill-rule="evenodd" clip-rule="evenodd" d="M490.172 82.1333C489.135 81.0959 487.892 80.2577 486.508 79.6843C485.177 79.1331 483.72 78.8287 482.196 78.8287C480.671 78.8287 479.215 79.1331 477.884 79.6843C476.5 80.2577 475.257 81.0953 474.221 82.1333C473.182 83.1706 472.344 84.4143 471.771 85.7978C471.221 87.1287 470.916 88.5852 470.916 90.1098C470.916 91.6339 471.221 93.0909 471.771 94.4212C472.344 95.8054 473.182 97.0484 474.221 98.0857C475.257 99.1231 476.5 99.9608 477.883 100.534C479.212 101.086 480.671 101.39 482.196 101.39C483.72 101.39 485.178 101.086 486.508 100.535C487.891 99.9614 489.136 99.1231 490.172 98.0857C491.21 97.0484 492.047 95.8054 492.621 94.4212C493.172 93.0909 493.477 91.6339 493.477 90.1092C493.477 88.5846 493.172 87.1275 492.621 85.7972C492.048 84.4143 491.21 83.1706 490.172 82.1333ZM486.112 80.6481C487.361 81.1653 488.488 81.9264 489.434 82.8723C490.38 83.8182 491.14 84.9452 491.658 86.1936C492.156 87.3972 492.432 88.7203 492.432 90.1098C492.432 91.4993 492.156 92.8219 491.658 94.026C491.14 95.2744 490.379 96.4015 489.434 97.3473C488.488 98.2926 487.36 99.0543 486.112 99.5715C484.908 100.07 483.585 100.345 482.196 100.345C480.808 100.345 479.486 100.07 478.282 99.5715C477.032 99.0543 475.905 98.2926 474.959 97.3473C474.013 96.4015 473.252 95.2744 472.734 94.026C472.236 92.8219 471.961 91.4993 471.961 90.1098C471.961 88.7203 472.237 87.3978 472.734 86.1936C473.252 84.9452 474.013 83.8182 474.959 82.8723C475.905 81.9264 477.032 81.1647 478.28 80.6481C479.484 80.1495 480.806 79.8744 482.196 79.8744C483.586 79.8744 484.908 80.1489 486.112 80.6481ZM487.359 72.3475C488.066 72.5514 488.76 72.8002 489.438 73.0883C490.127 73.3819 490.794 73.7155 491.434 74.0856C492.086 74.4623 492.715 74.879 493.316 75.3328C493.919 75.7878 494.495 76.2781 495.034 76.7989C495.226 76.983 495.464 77.0906 495.709 77.1205C495.96 77.1504 496.22 77.0996 496.445 76.9699C498.102 76.0132 499.843 75.0662 501.466 74.0701C501.546 74.0288 501.628 74.0037 501.71 73.9947C501.803 73.9852 501.897 73.9924 501.987 74.0163C502.079 74.0408 502.166 74.0832 502.24 74.14C502.312 74.195 502.375 74.2656 502.424 74.3487C503.631 76.1753 504.843 78.5364 505.962 80.4741C506.01 80.5566 506.039 80.6457 506.05 80.7342C506.062 80.8269 506.054 80.9249 506.029 81.02C506.003 81.1115 505.963 81.1982 505.904 81.2735C505.85 81.3453 505.779 81.4087 505.697 81.4565C504.206 82.4418 502.287 83.4283 500.707 84.3401C500.475 84.4729 500.306 84.6726 500.209 84.8986C500.175 84.9775 500.15 85.06 500.134 85.1443L500.032 85.179L500.147 85.6447C500.237 86.0112 500.317 86.3772 500.383 86.7413C500.448 87.0952 500.505 87.4671 500.551 87.854C500.597 88.2312 500.632 88.6061 500.654 88.9762C500.676 89.3373 500.687 89.7164 500.687 90.1104C500.687 90.5044 500.676 90.8823 500.654 91.2428C500.632 91.6135 500.598 91.989 500.551 92.3669C500.505 92.7531 500.448 93.1244 500.383 93.479C500.316 93.8437 500.237 94.2096 500.147 94.5761C500.079 94.8475 500.112 95.1202 500.222 95.3546C500.329 95.5889 500.515 95.7856 500.755 95.9082L505.174 98.4594L505.172 98.4618L505.697 98.7638C505.78 98.8122 505.85 98.875 505.905 98.9467C505.961 99.0215 506.003 99.1081 506.028 99.2002C506.053 99.2947 506.061 99.3928 506.049 99.486C506.038 99.5739 506.009 99.663 505.962 99.7461L502.691 105.415L502.688 105.414L502.423 105.872C502.376 105.955 502.313 106.025 502.24 106.08C502.166 106.137 502.079 106.179 501.986 106.203C501.893 106.228 501.795 106.236 501.703 106.224C501.615 106.213 501.526 106.184 501.443 106.136C499.861 105.142 498.075 104.193 496.442 103.25C496.208 103.117 495.953 103.071 495.712 103.1C495.461 103.131 495.223 103.241 495.036 103.42L495.034 103.421C494.494 103.943 493.919 104.433 493.314 104.889C492.715 105.342 492.086 105.759 491.435 106.134C490.79 106.507 490.118 106.843 489.424 107.137C488.744 107.427 488.036 107.678 487.308 107.886C487.052 107.959 486.839 108.113 486.69 108.311C486.538 108.512 486.452 108.762 486.452 109.024L486.449 114.791C486.449 114.887 486.43 114.98 486.395 115.062C486.36 115.147 486.306 115.227 486.239 115.294C486.172 115.361 486.092 115.416 486.005 115.452C485.923 115.486 485.832 115.505 485.734 115.505H478.658C478.561 115.505 478.469 115.486 478.388 115.452C478.299 115.415 478.22 115.361 478.153 115.295C478.087 115.227 478.033 115.147 477.997 115.062C477.962 114.979 477.944 114.887 477.944 114.791V109.024C477.944 108.75 477.847 108.495 477.687 108.292C477.524 108.086 477.294 107.934 477.033 107.872C476.327 107.669 475.633 107.421 474.954 107.132C474.265 106.839 473.599 106.505 472.957 106.134C472.307 105.758 471.678 105.341 471.077 104.888C470.473 104.432 469.899 103.942 469.358 103.421C469.158 103.229 468.906 103.121 468.647 103.097C468.384 103.073 468.115 103.137 467.888 103.287L462.951 106.138C462.87 106.185 462.78 106.214 462.691 106.225C462.597 106.237 462.501 106.23 462.407 106.205C462.313 106.18 462.227 106.138 462.153 106.081C462.081 106.026 462.017 105.956 461.969 105.873C460.797 103.827 459.606 101.792 458.431 99.7467C458.383 99.6648 458.355 99.5751 458.342 99.4854C458.331 99.3928 458.339 99.2959 458.364 99.2014C458.389 99.1088 458.431 99.0221 458.488 98.9473C458.542 98.8744 458.611 98.8116 458.692 98.765L463.686 95.8813C463.918 95.7486 464.087 95.5501 464.184 95.3235C464.21 95.2619 464.231 95.1985 464.246 95.1333L464.377 95.107L464.246 94.5773C464.156 94.2114 464.075 93.8449 464.008 93.4814C463.944 93.1262 463.886 92.7549 463.84 92.3681C463.794 91.9902 463.76 91.6153 463.738 91.2446C463.715 90.8835 463.705 90.5056 463.705 90.1116C463.705 89.7176 463.715 89.3391 463.738 88.9786C463.76 88.6085 463.794 88.2342 463.84 87.8564C463.887 87.4647 463.944 87.0922 464.008 86.7401C464.075 86.3772 464.155 86.0112 464.246 85.6459C464.313 85.3733 464.279 85.0995 464.171 84.8657C464.062 84.6325 463.876 84.4358 463.64 84.3138L458.694 81.4577C458.611 81.4128 458.543 81.3495 458.488 81.2759C458.431 81.203 458.389 81.1157 458.364 81.0212C458.339 80.9267 458.331 80.8299 458.342 80.7372C458.355 80.6475 458.383 80.5584 458.431 80.4759C459.639 78.6799 460.847 76.2811 461.969 74.3499C462.017 74.2668 462.081 74.1962 462.153 74.1412C462.227 74.0844 462.313 74.042 462.407 74.0175C462.5 73.9924 462.597 73.9846 462.691 73.9959C462.777 74.0067 462.866 74.0366 462.951 74.0856L467.949 76.9699C468.184 77.1074 468.447 77.1534 468.697 77.1187C468.948 77.0847 469.187 76.9699 469.372 76.7851C469.916 76.2626 470.487 75.7747 471.084 75.3263C471.677 74.879 472.304 74.4647 472.958 74.0862C473.602 73.7137 474.274 73.3783 474.967 73.0835C475.649 72.7942 476.356 72.5431 477.083 72.3344C477.34 72.2608 477.553 72.1072 477.702 71.9093C477.853 71.7084 477.941 71.4579 477.941 71.1966L477.943 65.4299C477.943 65.333 477.962 65.241 477.996 65.159C478.032 65.0735 478.086 64.9946 478.153 64.9265C478.22 64.8595 478.298 64.8051 478.387 64.7686C478.469 64.7345 478.561 64.716 478.658 64.716H485.734C485.831 64.716 485.923 64.7345 486.004 64.7686C486.092 64.8051 486.172 64.8595 486.238 64.9253C486.368 65.0562 486.449 65.2344 486.449 65.4299V71.1966C486.449 71.4722 486.543 71.7269 486.702 71.9284C486.868 72.1347 487.097 72.286 487.359 72.3475ZM489.847 72.1293C490.574 72.439 491.278 72.7918 491.956 73.1834C492.648 73.5834 493.312 74.0234 493.944 74.5C494.577 74.9777 495.183 75.4949 495.756 76.0473C495.778 76.0688 495.805 76.0808 495.834 76.0838C495.866 76.0874 495.897 76.082 495.922 76.067C497.601 75.0973 499.284 74.1311 500.961 73.1559C501.16 73.0483 501.375 72.9825 501.593 72.958C501.815 72.9329 502.041 72.9508 502.255 73.0076C502.476 73.0668 502.686 73.1696 502.872 73.3107C503.05 73.4471 503.206 73.6205 503.324 73.8255C504.542 75.7974 505.697 77.9343 506.863 79.951C506.981 80.1561 507.052 80.3779 507.081 80.6027C507.11 80.8353 507.095 81.069 507.036 81.2885C506.977 81.5091 506.874 81.7196 506.731 81.9055C506.595 82.0843 506.423 82.2391 506.218 82.3575C504.611 83.35 502.867 84.2917 501.223 85.2412C501.198 85.2561 501.178 85.2794 501.168 85.3063C501.155 85.3344 501.153 85.3655 501.16 85.3942L501.275 85.86L501.269 85.8624C501.318 86.089 501.365 86.3186 501.408 86.5529C501.481 86.9523 501.542 87.3457 501.588 87.7308C501.635 88.1134 501.671 88.5081 501.695 88.914C501.718 89.3218 501.731 89.7206 501.731 90.1098C501.731 90.4985 501.718 90.8967 501.695 91.3038C501.671 91.7104 501.635 92.1062 501.588 92.4882C501.542 92.8733 501.481 93.2667 501.408 93.6655C501.334 94.0631 501.252 94.4494 501.158 94.8248C501.151 94.8553 501.154 94.8876 501.168 94.9157C501.181 94.9456 501.204 94.9701 501.229 94.9827C503.065 95.9626 504.928 97.116 506.742 98.1641L506.677 98.2448L506.732 98.3141C506.874 98.4995 506.977 98.7106 507.037 98.9312C507.095 99.1506 507.111 99.3844 507.081 99.6164C507.053 99.8412 506.982 100.064 506.862 100.267L503.06 106.852L502.989 106.81C502.951 106.844 502.914 106.877 502.873 106.908C502.687 107.049 502.476 107.152 502.255 107.211C502.036 107.27 501.803 107.286 501.571 107.257C501.352 107.229 501.138 107.16 500.937 107.048C499.273 106.166 497.562 105.1 495.919 104.151C495.896 104.138 495.866 104.133 495.836 104.136C495.806 104.14 495.776 104.154 495.754 104.174C495.181 104.727 494.576 105.243 493.944 105.72C493.312 106.196 492.649 106.636 491.958 107.036C491.275 107.43 490.564 107.785 489.833 108.096C489.106 108.405 488.358 108.671 487.595 108.89C487.565 108.898 487.54 108.917 487.523 108.939C487.503 108.964 487.492 108.994 487.494 109.023V114.79C487.494 115.025 487.446 115.253 487.359 115.461C487.27 115.677 487.138 115.871 486.975 116.032C486.814 116.194 486.619 116.325 486.406 116.414C486.197 116.501 485.97 116.548 485.735 116.548H478.659C478.424 116.548 478.195 116.5 477.987 116.414C477.773 116.325 477.58 116.194 477.415 116.032C477.255 115.871 477.124 115.677 477.034 115.461C476.947 115.252 476.899 115.025 476.899 114.79V109.022C476.899 108.988 476.888 108.958 476.87 108.936C476.853 108.913 476.826 108.895 476.793 108.887L476.771 108.879C476.002 108.658 475.26 108.393 474.546 108.089C473.819 107.78 473.114 107.427 472.435 107.035C471.744 106.635 471.08 106.195 470.449 105.719C469.815 105.241 469.209 104.724 468.636 104.171C468.612 104.148 468.583 104.135 468.554 104.133C468.524 104.13 468.492 104.138 468.465 104.156L463.471 107.038C463.265 107.156 463.044 107.228 462.822 107.257C462.59 107.286 462.356 107.269 462.136 107.211C461.915 107.152 461.705 107.049 461.519 106.908C461.345 106.775 461.193 106.606 461.075 106.408C459.764 104.298 458.525 101.987 457.272 99.8208L457.34 99.7808C457.328 99.7252 457.317 99.6702 457.311 99.614C457.281 99.3826 457.297 99.1494 457.356 98.9294C457.415 98.7088 457.518 98.4977 457.66 98.313C457.795 98.1336 457.968 97.9787 458.172 97.8603L463.167 94.9773C463.193 94.9623 463.212 94.939 463.223 94.9121C463.236 94.884 463.238 94.8517 463.232 94.8224L463.102 94.2945L463.109 94.2927C463.065 94.0876 463.023 93.8784 462.984 93.6661C462.91 93.2673 462.849 92.8733 462.803 92.4871C462.756 92.1044 462.721 91.7092 462.695 91.3026C462.672 90.8961 462.66 90.4973 462.66 90.1086C462.66 89.72 462.672 89.3218 462.695 88.914C462.721 88.5081 462.756 88.1123 462.803 87.7272C462.849 87.3452 462.91 86.9517 462.984 86.5494C463.057 86.1529 463.139 85.7673 463.232 85.393C463.24 85.3631 463.236 85.3308 463.222 85.3004C463.21 85.2735 463.187 85.2489 463.159 85.2352L458.171 82.3557C457.965 82.2361 457.792 82.0819 457.658 81.9031C457.516 81.716 457.414 81.5061 457.356 81.2873C457.296 81.0684 457.28 80.8353 457.31 80.6033C457.338 80.3845 457.407 80.1686 457.52 79.9665C458.71 77.7645 460.072 75.5445 461.33 73.3658L461.4 73.4082C461.439 73.3735 461.478 73.3412 461.519 73.3096C461.705 73.1685 461.915 73.0656 462.136 73.0064C462.355 72.9478 462.589 72.9311 462.82 72.9604C463.046 72.9891 463.267 73.0608 463.47 73.1762L463.838 73.3891L463.837 73.3927L468.471 76.0659C468.498 76.082 468.529 76.0868 468.558 76.0832C468.588 76.079 468.616 76.0659 468.638 76.0437L468.65 76.0318C469.217 75.4853 469.821 74.9705 470.459 74.4916C471.092 74.0145 471.752 73.5768 472.435 73.1816C473.119 72.7876 473.828 72.4324 474.56 72.1215C475.287 71.813 476.035 71.547 476.797 71.3275C476.827 71.3192 476.852 71.3012 476.87 71.2785C476.89 71.2528 476.9 71.2229 476.899 71.1942V65.4275C476.899 65.1919 476.947 64.9647 477.034 64.7561C477.124 64.5396 477.255 64.3459 477.418 64.1851C477.58 64.023 477.773 63.8921 477.987 63.803C478.195 63.7163 478.424 63.6685 478.659 63.6685H485.735C485.97 63.6685 486.198 63.7169 486.406 63.803C486.619 63.8921 486.814 64.023 486.978 64.1851C487.296 64.5037 487.495 64.9438 487.495 65.4275V71.1942C487.495 71.2277 487.507 71.2576 487.524 71.2821C487.542 71.3042 487.569 71.3222 487.601 71.3293L487.624 71.3371C488.391 71.5613 489.134 71.8256 489.847 72.1293Z" fill="#FF0056"/>
<path d="M591.873 318.801H2.37305C1.06246 318.801 0 317.739 0 316.428C0 315.118 1.06246 314.055 2.37305 314.055H591.873C593.184 314.055 594.246 315.118 594.246 316.428C594.247 317.739 593.184 318.801 591.873 318.801Z" fill="white"/>
<path d="M430.976 96.655V314.05H391.704V96.655C391.704 85.8092 400.494 77.0189 411.34 77.0189C416.758 77.0189 421.674 79.212 425.229 82.7665C428.783 86.321 430.976 91.2369 430.976 96.655Z" fill="#373ABF"/>
<path d="M413.238 128.317C362.034 128.317 320.359 169.973 320.359 221.176C320.359 272.398 362.034 314.055 413.238 314.055C464.441 314.055 506.115 272.398 506.115 221.176C506.115 169.973 464.441 128.317 413.238 128.317ZM413.238 294.278C372.929 294.278 340.136 261.485 340.136 221.176C340.136 180.886 372.929 148.093 413.238 148.093C453.546 148.093 486.339 180.887 486.339 221.176C486.339 261.485 453.546 294.278 413.238 294.278Z" fill="#FF397C"/>
<path d="M413.237 148.093C372.929 148.093 340.136 180.887 340.136 221.176C340.136 261.485 372.929 294.278 413.237 294.278C453.546 294.278 486.339 261.485 486.339 221.176C486.339 180.887 453.546 148.093 413.237 148.093ZM413.237 274.501C383.842 274.501 359.912 250.59 359.912 221.176C359.912 191.781 383.842 167.87 413.237 167.87C442.632 167.87 466.562 191.781 466.562 221.176C466.562 250.59 442.632 274.501 413.237 274.501Z" fill="white"/>
<path d="M413.237 167.87C383.842 167.87 359.912 191.781 359.912 221.176C359.912 250.59 383.842 274.501 413.237 274.501C442.632 274.501 466.562 250.59 466.562 221.176C466.562 191.781 442.632 167.87 413.237 167.87ZM413.237 254.725C394.737 254.725 379.689 239.676 379.689 221.176C379.689 202.695 394.737 187.646 413.237 187.646C431.737 187.646 446.785 202.695 446.785 221.176C446.786 239.676 431.737 254.725 413.237 254.725Z" fill="#FF397C"/>
<path d="M413.237 187.646C394.737 187.646 379.689 202.695 379.689 221.176C379.689 239.676 394.737 254.725 413.237 254.725C431.738 254.725 446.785 239.676 446.785 221.176C446.786 202.695 431.738 187.646 413.237 187.646ZM413.237 233.69C406.334 233.69 400.724 228.098 400.724 221.176C400.724 214.273 406.333 208.681 413.237 208.681C420.141 208.681 425.751 214.273 425.751 221.176C425.751 228.098 420.141 233.69 413.237 233.69Z" fill="#FDFCFF"/>
<path d="M425.751 221.176C425.751 228.098 420.141 233.69 413.237 233.69C406.334 233.69 400.724 228.098 400.724 221.176C400.724 214.273 406.333 208.681 413.237 208.681C420.141 208.681 425.751 214.273 425.751 221.176Z" fill="#FF397C"/>
<path d="M552.125 136.234L415.031 222.682C413.811 223.452 412.197 223.087 411.428 221.866C410.658 220.646 411.024 219.033 412.244 218.263L549.339 131.815C550.559 131.045 552.172 131.411 552.941 132.631C553.711 133.851 553.346 135.464 552.125 136.234Z" fill="#FFE9D4"/>
<path d="M538.015 162.865L514.449 177.726L496.794 171.131L516.052 158.988L538.015 162.865Z" fill="#FF9F55"/>
<path d="M556.632 151.126L538.015 162.865L516.052 158.988L538.977 144.531L556.632 151.126Z" fill="#FFCA56"/>
<path d="M536.182 140.111L494 166.71L495.666 147.93L537.849 121.331L536.182 140.111Z" fill="#FFCA56"/>
<path opacity="0.25" d="M502.169 194.45L483.363 200.545L464.522 206.657L445.698 212.752L425.58 219.26L415.027 222.676L424.825 216.491L442.732 205.218L459.47 194.665L476.208 184.112L492.928 173.558C492.946 173.594 492.964 173.612 492.982 173.648C496.848 180.084 499.94 187.024 502.152 194.36C502.169 194.379 502.169 194.414 502.169 194.45Z" fill="black"/>
<path d="M404.059 169.775V299.788C404.059 307.667 397.672 314.055 389.792 314.055H189.457C181.581 314.055 175.195 307.669 175.195 299.792V169.775C175.195 166.803 176.601 164.007 178.986 162.234L191.706 152.781L277.031 89.3667C284.51 83.8081 294.748 83.808 302.227 89.3673L387.548 152.781L400.267 162.235C402.653 164.007 404.059 166.804 404.059 169.775Z" fill="#FF9F55"/>
<path d="M411.339 77.0177C400.492 77.0177 391.704 85.8128 391.704 96.6526V262.694H187.552V96.8577C187.552 85.9036 196.43 77.0183 207.392 77.0183H411.339V77.0177Z" fill="white"/>
<g opacity="0.35">
<path d="M289.929 223.206C280.067 223.206 271.09 221.623 262.996 218.461C254.902 215.298 247.925 210.832 242.064 205.065C236.203 199.295 231.689 192.529 228.527 184.76C225.363 176.994 223.782 168.502 223.782 159.292C223.782 150.082 225.363 141.617 228.527 133.894C231.689 126.173 236.225 119.475 242.134 113.798C248.041 108.125 255.088 103.705 263.276 100.541C271.462 97.3803 280.532 95.797 290.488 95.797C300.069 95.797 308.861 97.3103 316.863 100.332C324.863 103.357 331.771 107.589 337.586 113.031C343.399 118.474 347.913 124.918 351.122 132.359C354.332 139.803 355.937 147.989 355.937 156.92C355.937 164.923 354.866 171.83 352.727 177.644C350.586 183.459 347.54 187.9 343.586 190.971C339.631 194.04 334.816 195.576 329.143 195.576C323.373 195.576 318.792 193.855 315.397 190.412C312 186.971 310.304 181.993 310.304 175.48V167.526L310.862 159.571L309.606 141.43V125.521H325.096V172.968C325.096 176.505 325.816 178.992 327.26 180.434C328.701 181.878 330.4 182.597 332.353 182.597C334.865 182.597 337.004 181.62 338.773 179.666C340.539 177.712 341.864 174.829 342.75 171.014C343.633 167.2 344.075 162.595 344.075 157.199C344.075 149.757 342.795 142.964 340.238 136.824C337.678 130.684 334.004 125.405 329.213 120.985C324.42 116.567 318.747 113.17 312.188 110.798C305.629 108.426 298.394 107.24 290.488 107.24C282.394 107.24 275.044 108.52 268.439 111.077C261.832 113.637 256.159 117.242 251.414 121.892C246.669 126.546 243.017 132.058 240.459 138.429C237.899 144.802 236.622 151.756 236.622 159.292C236.622 167.015 237.878 174.084 240.39 180.503C242.901 186.922 246.505 192.434 251.205 197.04C255.901 201.645 261.508 205.225 268.021 207.785C274.532 210.342 281.836 211.623 289.93 211.623C294.208 211.623 298.722 211.135 303.466 210.158C308.211 209.18 312.722 207.621 317.003 205.483L320.771 216.647C316.49 218.786 311.56 220.415 305.978 221.531C300.396 222.648 295.045 223.206 289.929 223.206ZM286.301 195.575C279.882 195.575 274.161 194.064 269.137 191.039C264.113 188.018 260.136 183.831 257.205 178.481C254.275 173.132 252.81 166.968 252.81 159.989C252.81 153.106 254.251 146.99 257.136 141.639C260.019 136.29 263.996 132.128 269.068 129.149C274.137 126.173 279.883 124.684 286.302 124.684C292.534 124.684 297.977 126.058 302.629 128.801C307.28 131.546 310.908 135.523 313.514 140.732C316.118 145.944 317.421 152.363 317.421 159.99C317.421 167.62 316.165 174.085 313.653 179.388C311.142 184.691 307.559 188.716 302.908 191.459C298.255 194.203 292.72 195.575 286.301 195.575ZM289.232 182.039C293.23 182.039 296.768 181.18 299.838 179.457C302.908 177.737 305.35 175.201 307.164 171.851C308.978 168.502 309.885 164.549 309.885 159.989C309.885 155.339 308.978 151.407 307.164 148.198C305.35 144.988 302.907 142.524 299.838 140.801C296.768 139.081 293.231 138.22 289.232 138.22C285.137 138.22 281.533 139.105 278.416 140.871C275.298 142.64 272.88 145.152 271.16 148.407C269.437 151.664 268.578 155.524 268.578 159.989C268.578 164.549 269.437 168.457 271.16 171.712C272.88 174.97 275.298 177.503 278.416 179.317C281.533 181.132 285.137 182.039 289.232 182.039Z" fill="#0006FF"/>
</g>
<path d="M404.06 170.716V299.794C404.06 307.669 397.678 314.051 389.791 314.051H189.453C181.579 314.051 175.196 307.669 175.196 299.794V170.716L276.086 213.199C278.205 211.08 280.55 208.847 282.33 207.982C286.631 205.662 291.999 205.524 296.374 207.706C298.832 208.734 301.227 211.33 303.17 213.199L404.06 170.716Z" fill="#FFBE00"/>
<path d="M188.016 301.92C210.82 278.155 236.733 252.247 260.228 228.889L272.403 216.86C274.835 214.653 279.353 209.421 282.33 207.98C286.626 205.665 292 205.527 296.38 207.703C298.945 208.784 301.447 211.567 303.438 213.45C331.749 241.256 361.488 269.453 388.294 298.04C358.793 271.264 329.63 243.697 300.875 216.095L297.796 213.148C295.104 210.57 291.219 209.435 287.559 210.078C285.062 210.529 282.91 211.685 281.087 213.504L274.961 219.478C246.961 246.345 216.62 276.564 188.016 301.92Z" fill="#FFAA01"/>
<path opacity="0.5" d="M285.858 98.8339C297.339 87.3525 297.339 68.7374 285.858 57.256C274.376 45.7746 255.761 45.7746 244.28 57.256C232.798 68.7374 232.798 87.3525 244.28 98.8339C255.761 110.315 274.376 110.315 285.858 98.8339Z" fill="#A0A1DF"/>
<path d="M281.924 94.1128C293.405 82.6314 293.405 64.0163 281.924 52.5349C270.442 41.0534 251.827 41.0534 240.346 52.5349C228.864 64.0163 228.864 82.6314 240.346 94.1128C251.827 105.594 270.442 105.594 281.924 94.1128Z" fill="#FF397C"/>
<path d="M278.459 72.7505C278.459 79.0296 276.059 82.8705 271.885 82.8705C269.521 82.8705 267.896 81.6149 267.453 79.3621C265.975 81.652 263.538 82.8705 260.435 82.8705C255.191 82.8705 251.386 78.882 251.386 73.3783C251.386 67.8753 255.191 63.9597 260.435 63.9597C263.28 63.9597 265.68 65.0311 267.195 67.0992V64.1074H270.408V77.404C270.408 79.3615 271.368 80.0634 272.513 80.0634C274.692 80.0634 275.948 77.404 275.948 72.787C275.948 64.5139 269.965 58.9732 261.248 58.9732C252.421 58.9732 246.511 64.8828 246.511 73.2671C246.511 81.725 252.346 87.6346 261.1 87.6346C263.353 87.6346 266.05 87.1544 268.228 86.0095L269.041 88.373C266.788 89.5179 263.723 90.1092 261.1 90.1092C250.832 90.1092 243.814 83.0547 243.814 73.2671C243.814 63.5166 250.906 56.5356 261.247 56.5356C271.368 56.5362 278.459 63.1842 278.459 72.7505ZM267.269 73.3783C267.269 69.2786 264.536 66.8039 260.953 66.8039C257.259 66.8039 254.673 69.3521 254.673 73.3783C254.673 77.3675 257.259 79.9893 260.953 79.9893C264.535 79.9893 267.269 77.4781 267.269 73.3783Z" fill="white"/>
<path opacity="0.5" d="M336.144 291.128C322.379 286.227 307.248 293.413 302.346 307.178C297.445 320.944 304.631 336.076 318.396 340.977C332.162 345.878 347.293 338.692 352.195 324.926C357.096 311.161 349.91 296.029 336.144 291.128Z" fill="#A0A1DF"/>
<path d="M325.222 338.419C339.793 337.334 350.725 324.642 349.639 310.071C348.553 295.5 335.861 284.568 321.291 285.654C306.72 286.739 295.788 299.431 296.873 314.002C297.959 328.573 310.651 339.505 325.222 338.419Z" fill="#7A7DFF"/>
<path d="M319.145 301.412C317.772 305.269 319.416 310.546 323.272 311.918C327.129 313.292 331.738 310.241 333.111 306.384C334.484 302.528 332.332 298.679 328.475 297.305C324.618 295.933 320.518 297.556 319.145 301.412Z" fill="white"/>
<path d="M326.652 329.852L309.605 323.783C307.811 323.144 306.635 321.419 306.697 319.515L306.8 316.321C306.876 313.983 308.777 312.099 311.116 312.079C318.957 312.013 326.015 314.892 332.492 319.954C334.307 321.372 334.666 323.98 333.352 325.872L331.719 328.224C330.591 329.848 328.515 330.515 326.652 329.852Z" fill="white"/>
<path opacity="0.5" d="M437.483 283.699H357.673C355.566 283.699 353.857 281.99 353.857 279.883V241.509C353.857 239.401 355.566 237.693 357.673 237.693H437.482C439.59 237.693 441.299 239.401 441.299 241.509V279.883C441.299 281.99 439.59 283.699 437.483 283.699Z" fill="#A0A1DF"/>
<path d="M433.48 279.696H353.671C351.563 279.696 349.854 277.987 349.854 275.88V237.506C349.854 235.398 351.563 233.69 353.671 233.69H433.48C435.587 233.69 437.296 235.398 437.296 237.506V275.88C437.296 277.988 435.587 279.696 433.48 279.696Z" fill="white"/>
<path d="M425.946 267.722C432.033 262.792 432.972 253.861 428.042 247.773C423.113 241.686 414.182 240.747 408.094 245.677C402.007 250.607 401.068 259.538 405.998 265.625C410.927 271.713 419.858 272.651 425.946 267.722Z" fill="#00FF00"/>
<path d="M431.193 257.704C430.925 261.462 429.215 264.776 426.642 267.138C423.866 269.686 420.088 271.13 416.035 270.841C412.247 270.57 408.913 268.838 406.547 266.232C404.031 263.462 402.609 259.708 402.897 255.683C403.455 247.868 410.241 241.987 418.055 242.545C425.869 243.104 431.751 249.89 431.193 257.704Z" fill="#7A7DFF"/>
<path d="M411.762 260.195C412.012 260.904 412.347 261.615 412.916 262.105C413.288 262.425 413.716 262.629 414.168 262.731C415.251 262.984 416.476 262.678 417.415 262.116C418.142 261.682 418.761 261.068 419.247 260.362C419.492 260.008 419.706 259.63 419.883 259.24V259.238C419.976 259.036 420.056 258.831 420.128 258.626C420.191 258.446 420.247 258.263 420.295 258.077C420.547 257.967 420.879 257.759 421.111 257.387C421.395 256.934 421.38 256.478 421.368 256.174C421.35 255.598 421.152 255.16 421.024 254.928C420.932 254.893 420.557 254.767 420.25 254.958C420.159 255.016 420.085 255.093 420.004 255.23C419.759 255.636 419.717 256.094 419.723 256.41C419.616 255.974 419.522 255.408 419.522 254.75C419.521 254.669 419.522 254.589 419.525 254.512C419.551 253.645 419.326 252.784 418.828 252.073C418.77 251.991 418.707 251.908 418.644 251.823C418.149 251.17 417.792 250.699 417.271 250.494C416.289 250.107 415.187 250.842 414.638 251.144C413.881 251.559 412.809 251.892 411.248 251.842C411.191 252.134 411.144 252.429 411.102 252.724C410.761 255.214 410.929 257.833 411.762 260.195Z" fill="white"/>
<path d="M409.177 249.164C409.073 250.482 409.751 251.428 409.937 251.678C409.947 251.693 409.961 251.708 409.971 251.723C410.344 252.211 410.766 252.528 411.103 252.724C411.145 252.429 411.192 252.134 411.248 251.842C412.81 251.893 413.882 251.56 414.638 251.145C415.188 250.843 416.289 250.107 417.272 250.495C417.792 250.7 418.149 251.17 418.645 251.824C418.708 251.909 418.77 251.991 418.829 252.074C419.327 252.784 419.552 253.645 419.526 254.512C419.523 254.59 419.521 254.671 419.523 254.751C419.523 255.409 419.618 255.974 419.724 256.41C419.718 256.095 419.76 255.637 420.005 255.23C420.085 255.094 420.159 255.016 420.251 254.959C420.558 254.767 420.933 254.894 421.025 254.929C421.186 254.592 422.238 252.329 421.135 250.207C420.785 249.531 420.314 249.062 419.925 248.75C419.576 247.972 418.983 247.021 417.988 246.697C416.792 246.308 416.214 247.219 414.384 247.209C412.347 247.198 411.73 246.058 410.621 246.566C409.364 247.139 409.187 249.044 409.177 249.164Z" fill="#1A1943"/>
<path d="M411.19 264.827C411.372 266.447 412.206 267.868 413.484 268.634C415.976 270.13 418.854 268.359 419.295 268.076C420.667 267.192 421.409 265.964 421.798 265.049C420.997 264.63 420.326 264.151 419.774 263.686C419.754 263.005 419.748 262.297 419.764 261.566C419.782 260.758 419.823 259.982 419.883 259.24C419.706 259.63 419.492 260.008 419.247 260.362C418.734 262.006 417.572 263.303 416.061 263.811C415.319 264.06 414.619 264.077 414.058 264.013C414.069 263.931 414.08 263.847 414.088 263.762C413.937 263.82 413.774 263.879 413.602 263.943C413.179 264.099 412.697 264.276 412.168 264.47C411.805 264.604 411.481 264.723 411.19 264.827Z" fill="white"/>
<path d="M425.787 266.575C424.566 265.894 424.07 266.056 422.62 265.44C422.333 265.318 422.058 265.188 421.798 265.05C421.773 265.107 421.747 265.167 421.72 265.226C421.693 265.285 421.664 265.345 421.634 265.406C421.574 265.53 421.507 265.656 421.435 265.785C421.407 265.834 421.379 265.882 421.35 265.93C421.321 265.979 421.29 266.028 421.26 266.078C421.228 266.126 421.197 266.176 421.164 266.226C421.131 266.276 421.097 266.325 421.062 266.375C421.015 266.442 420.966 266.508 420.915 266.575C420.839 266.675 420.758 266.774 420.674 266.874C420.617 266.939 420.558 267.005 420.498 267.069C420.406 267.167 420.311 267.264 420.211 267.358C420.16 267.406 420.109 267.453 420.055 267.5C420.038 267.516 420.021 267.532 420.003 267.546C419.985 267.562 419.966 267.579 419.947 267.593C419.914 267.622 419.879 267.65 419.846 267.677C419.845 267.678 419.845 267.678 419.844 267.679C419.823 267.697 419.802 267.713 419.78 267.73C419.749 267.755 419.716 267.781 419.682 267.806C419.675 267.812 419.668 267.816 419.661 267.822C419.656 267.826 419.651 267.829 419.646 267.832C419.618 267.854 419.589 267.874 419.56 267.895C419.555 267.898 419.552 267.901 419.547 267.904C419.466 267.964 419.381 268.02 419.296 268.077C418.853 268.361 415.977 270.131 413.484 268.635C413.4 268.584 413.316 268.53 413.236 268.474C413.214 268.46 413.194 268.444 413.173 268.429C413.154 268.414 413.134 268.401 413.116 268.387C413.077 268.357 413.038 268.327 412.999 268.296C412.961 268.265 412.922 268.233 412.885 268.201C412.848 268.169 412.812 268.136 412.776 268.103C412.741 268.071 412.707 268.038 412.673 268.005C412.669 268.001 412.665 267.998 412.66 267.992C412.629 267.961 412.596 267.928 412.564 267.894C412.53 267.859 412.495 267.822 412.463 267.785C412.43 267.748 412.397 267.711 412.366 267.672C412.341 267.642 412.316 267.613 412.292 267.582C412.289 267.58 412.287 267.576 412.285 267.574C412.283 267.571 412.281 267.569 412.28 267.567C412.261 267.543 412.243 267.519 412.224 267.494C412.205 267.47 412.187 267.445 412.169 267.419C412.166 267.416 412.163 267.412 412.161 267.409C412.127 267.362 412.095 267.316 412.063 267.268L412.062 267.267C412.021 267.206 411.981 267.144 411.943 267.081C411.913 267.031 411.883 266.981 411.854 266.929C411.807 266.846 411.762 266.761 411.721 266.674C411.679 266.588 411.639 266.5 411.601 266.411C411.581 266.367 411.563 266.322 411.546 266.276C411.542 266.267 411.539 266.259 411.535 266.249C411.523 266.218 411.51 266.185 411.5 266.154C411.497 266.147 411.495 266.142 411.492 266.135C411.476 266.09 411.46 266.045 411.445 266C411.429 265.953 411.414 265.907 411.401 265.86C411.386 265.813 411.373 265.765 411.36 265.717C411.333 265.621 411.309 265.525 411.288 265.427C411.276 265.378 411.266 265.329 411.257 265.279C411.247 265.229 411.238 265.18 411.231 265.131C411.223 265.081 411.215 265.03 411.208 264.98C411.206 264.967 411.205 264.955 411.203 264.942C411.197 264.905 411.192 264.867 411.188 264.829C410.093 265.229 409.454 265.458 408.97 265.61C407.717 266.005 407.031 266.143 406.546 266.234C408.912 268.839 412.246 270.573 416.034 270.843C420.088 271.132 423.865 269.688 426.641 267.14C426.242 266.837 425.926 266.654 425.787 266.575Z" fill="#05F46A"/>
<path d="M414.057 264.014C414.619 264.078 415.318 264.062 416.06 263.812C417.571 263.304 418.734 262.007 419.246 260.363C418.76 261.069 418.141 261.683 417.414 262.117C416.474 262.679 415.251 262.985 414.168 262.733C414.153 263.03 414.134 263.339 414.099 263.658C414.097 263.693 414.092 263.729 414.086 263.764C414.079 263.848 414.068 263.932 414.057 264.014Z" fill="#3D44C4"/>
<path d="M393.768 248.817H356.956C356.384 248.817 355.921 248.354 355.921 247.782V245.678C355.921 245.106 356.384 244.643 356.956 244.643H393.768C394.339 244.643 394.803 245.106 394.803 245.678V247.782C394.803 248.354 394.339 248.817 393.768 248.817Z" fill="#7A7DFF"/>
<path d="M393.768 258.78H356.956C356.384 258.78 355.921 258.317 355.921 257.746V255.641C355.921 255.069 356.384 254.606 356.956 254.606H393.768C394.339 254.606 394.803 255.069 394.803 255.641V257.746C394.803 258.317 394.339 258.78 393.768 258.78Z" fill="#E4E6FF"/>
<path d="M393.768 268.744H356.956C356.384 268.744 355.921 268.28 355.921 267.709V265.605C355.921 265.033 356.384 264.57 356.956 264.57H393.768C394.339 264.57 394.803 265.033 394.803 265.605V267.709C394.803 268.28 394.339 268.744 393.768 268.744Z" fill="#E4E6FF"/>
<path d="M210.437 147.835H138.89C137.296 144.101 135.018 140.75 132.196 137.928C131.097 136.829 129.926 135.813 128.673 134.894H200.952C205.206 138.212 208.525 142.677 210.437 147.835Z" fill="#E52C73"/>
<path d="M200.952 134.894H128.673C123.443 131.005 116.96 128.711 109.948 128.711H182.935C189.727 128.711 195.982 131.013 200.952 134.894Z" fill="#D31C62"/>
<path d="M212.267 158.043V208.792H141.403V160.166C141.403 155.79 140.509 151.617 138.889 147.835H210.437C211.624 151.015 212.267 154.456 212.267 158.043Z" fill="#FF397C"/>
<path d="M132.195 137.927C126.502 132.233 118.636 128.711 109.949 128.711C92.5745 128.711 78.4863 142.791 78.4863 160.165V208.791H141.403V160.165C141.403 151.479 137.881 143.613 132.195 137.927ZM137.58 204.968H82.3087V160.165C82.3087 144.93 94.7132 132.534 109.948 132.534C125.183 132.534 137.58 144.93 137.58 160.165V204.968Z" fill="#D31C62"/>
<path d="M137.58 203.61V204.968H82.3088V160.165C82.3088 153.756 84.5055 147.834 88.1897 143.141L137.58 203.61Z" fill="#626262"/>
<path d="M137.58 160.166V203.61L88.1897 143.141C93.2575 136.691 101.131 132.535 109.948 132.535C125.184 132.535 137.58 144.93 137.58 160.166Z" fill="#474747"/>
<path d="M137.58 208.792V243.158C137.58 258.833 125.379 271.651 109.948 272.636C109.314 272.676 108.679 272.701 108.037 272.701C91.7118 272.701 78.4863 259.475 78.4863 243.158V208.792H137.58Z" fill="#FF397C"/>
<path d="M141.403 208.792V243.158C141.403 259.475 128.177 272.701 111.852 272.701C111.209 272.701 110.575 272.677 109.949 272.636C125.379 271.651 137.58 258.833 137.58 243.158V208.792H141.403Z" fill="#DA1D45"/>
<path d="M148.309 314.055H156.573V208.792H135.115V290.303H148.309V314.055Z" fill="#904F25"/>
<path d="M148.309 290.303H135.115V314.055H148.309V290.303Z" fill="#B0632B"/>
<path opacity="0.5" d="M27.6897 140.319V181.477C27.6897 186.503 31.7644 190.578 36.7915 190.578H76.6316L86.2159 199.992C87.8834 201.631 90.7001 200.449 90.7001 198.111V190.578H96.2534C101.28 190.578 105.355 186.504 105.355 181.477V140.319C105.355 135.292 101.28 131.217 96.2534 131.217H36.7915C31.765 131.217 27.6897 135.292 27.6897 140.319Z" fill="#A0A1DF"/>
<path d="M30.6973 137.813V178.971C30.6973 183.997 34.7719 188.073 39.7984 188.073H79.6386L89.2229 197.487C90.8904 199.125 93.7071 197.943 93.7071 195.606V188.073H99.2603C104.287 188.073 108.362 183.997 108.362 178.971V137.813C108.362 132.787 104.287 128.711 99.2603 128.711H39.799C34.7719 128.711 30.6973 132.787 30.6973 137.813Z" fill="white"/>
<path d="M43.2893 173.431C44.5275 175.346 46.6824 176.614 49.1284 176.614H89.9258C92.3765 176.614 94.5319 175.346 95.7648 173.431L69.5274 153.759L43.2893 173.431Z" fill="#FFAA01"/>
<path d="M42.1765 147.019V169.658C42.1765 169.818 42.1813 169.978 42.1962 170.133C42.1962 170.159 42.1962 170.184 42.2016 170.209C42.2118 170.364 42.2267 170.515 42.2518 170.66C42.2518 170.681 42.2518 170.7 42.2566 170.715C42.277 170.855 42.3021 170.996 42.332 171.131C42.372 171.317 42.4175 171.497 42.4725 171.672C42.5125 171.803 42.5526 171.923 42.5974 172.049C42.6178 172.098 42.6327 172.148 42.6578 172.199C42.6931 172.294 42.7332 172.389 42.778 172.479C42.7983 172.539 42.8282 172.605 42.8581 172.66C42.9837 172.926 43.129 173.186 43.2892 173.431L69.5266 153.759L95.7641 173.431C95.8544 173.296 95.9393 173.156 96.0146 173.015C96.0798 172.9 96.1402 172.785 96.1952 172.67C96.2 172.66 96.2053 172.655 96.2053 172.645C96.2352 172.594 96.2604 172.534 96.2807 172.479C96.3255 172.389 96.3656 172.294 96.4009 172.199C96.4212 172.148 96.4409 172.098 96.4612 172.049C96.5061 171.923 96.5461 171.803 96.5868 171.672C96.6418 171.497 96.6867 171.316 96.7273 171.131C96.7572 170.996 96.7823 170.856 96.8026 170.715C96.808 170.7 96.808 170.68 96.808 170.66C96.8331 170.515 96.8481 170.364 96.8577 170.209C96.863 170.184 96.863 170.159 96.863 170.133C96.878 169.978 96.8834 169.818 96.8834 169.658V147.019C96.8834 143.18 93.7707 140.067 89.9268 140.067H49.1276C45.2892 140.067 42.1765 143.179 42.1765 147.019Z" fill="#FFBE00"/>
<path d="M43.1536 143.47L69.5261 163.242L95.9041 143.465C94.691 141.43 92.471 140.067 89.9251 140.067H49.1277C46.5873 140.067 44.3619 141.435 43.1536 143.47Z" fill="#FED501"/>
<path d="M47.3192 152.733C51.4144 152.733 54.7343 149.413 54.7343 145.318C54.7343 141.223 51.4144 137.903 47.3192 137.903C43.2239 137.903 39.9041 141.223 39.9041 145.318C39.9041 149.413 43.2239 152.733 47.3192 152.733Z" fill="#FE0000"/>
<path d="M47.6648 149.879C47.2499 149.879 46.9132 149.542 46.9132 149.128V143.375L46.0523 144.236C45.7587 144.53 45.2828 144.529 44.9892 144.236C44.6957 143.943 44.6957 143.467 44.9892 143.173L47.1339 141.029C47.3485 140.814 47.6726 140.748 47.953 140.866C48.234 140.982 48.4169 141.256 48.4169 141.561V149.128C48.4169 149.542 48.0803 149.879 47.6648 149.879Z" fill="white"/>
<path opacity="0.5" d="M211.461 302.194H131.652C129.544 302.194 127.835 300.485 127.835 298.378V260.004C127.835 257.897 129.544 256.188 131.652 256.188H211.461C213.568 256.188 215.277 257.897 215.277 260.004V298.378C215.277 300.485 213.568 302.194 211.461 302.194Z" fill="#A0A1DF"/>
<path d="M207.459 298.192H127.649C125.542 298.192 123.833 296.483 123.833 294.375V256.002C123.833 253.894 125.542 252.186 127.649 252.186H207.458C209.566 252.186 211.274 253.894 211.274 256.002V294.375C211.274 296.483 209.566 298.192 207.459 298.192Z" fill="white"/>
<path d="M200.237 285.972C206.192 280.882 206.892 271.929 201.802 265.974C196.711 260.02 187.758 259.32 181.804 264.41C175.85 269.5 175.149 278.454 180.239 284.408C185.33 290.362 194.283 291.063 200.237 285.972Z" fill="#00FF00"/>
<path d="M205.171 276.199C204.903 279.958 203.193 283.272 200.62 285.634C197.844 288.181 194.066 289.626 190.013 289.337C186.225 289.066 182.891 287.333 180.525 284.728C178.009 281.958 176.587 278.204 176.875 274.179C177.433 266.364 184.22 260.483 192.033 261.041C199.847 261.599 205.729 268.385 205.171 276.199Z" fill="#7A7DFF"/>
<path d="M185.74 278.691C185.99 279.4 186.325 280.11 186.894 280.601C187.266 280.921 187.695 281.124 188.147 281.227C189.229 281.48 190.454 281.174 191.393 280.611C192.12 280.178 192.739 279.564 193.225 278.858C193.47 278.504 193.684 278.126 193.861 277.736V277.734C193.954 277.532 194.035 277.327 194.106 277.121C194.169 276.941 194.225 276.758 194.274 276.573C194.526 276.463 194.857 276.254 195.09 275.883C195.373 275.429 195.358 274.974 195.347 274.67C195.329 274.094 195.131 273.656 195.003 273.424C194.911 273.389 194.536 273.263 194.229 273.454C194.137 273.511 194.063 273.589 193.983 273.725C193.738 274.131 193.696 274.59 193.702 274.906C193.595 274.47 193.501 273.904 193.501 273.246C193.5 273.165 193.501 273.085 193.504 273.007C193.53 272.14 193.305 271.279 192.807 270.569C192.749 270.487 192.686 270.404 192.623 270.319C192.127 269.666 191.77 269.195 191.25 268.99C190.267 268.603 189.166 269.339 188.617 269.64C187.86 270.055 186.788 270.387 185.226 270.338C185.17 270.629 185.123 270.925 185.081 271.22C184.74 273.71 184.908 276.328 185.74 278.691Z" fill="white"/>
<path d="M183.155 267.66C183.051 268.978 183.729 269.923 183.915 270.174C183.925 270.189 183.939 270.204 183.949 270.219C184.322 270.707 184.744 271.024 185.081 271.22C185.123 270.925 185.17 270.63 185.226 270.338C186.788 270.389 187.86 270.056 188.616 269.641C189.166 269.339 190.267 268.603 191.25 268.991C191.77 269.196 192.127 269.666 192.623 270.32C192.686 270.405 192.749 270.487 192.807 270.57C193.305 271.28 193.53 272.141 193.504 273.008C193.501 273.086 193.5 273.166 193.501 273.246C193.501 273.905 193.596 274.47 193.702 274.906C193.696 274.591 193.738 274.133 193.983 273.726C194.063 273.59 194.137 273.512 194.229 273.455C194.536 273.263 194.911 273.389 195.003 273.425C195.164 273.088 196.216 270.824 195.113 268.703C194.763 268.027 194.292 267.558 193.903 267.246C193.554 266.468 192.961 265.517 191.967 265.193C190.77 264.804 190.191 265.715 188.362 265.705C186.325 265.694 185.708 264.554 184.599 265.062C183.342 265.635 183.166 267.54 183.155 267.66Z" fill="#1A1943"/>
<path d="M185.168 283.323C185.35 284.943 186.184 286.364 187.462 287.13C189.954 288.626 192.832 286.855 193.273 286.572C194.645 285.687 195.386 284.459 195.776 283.545C194.974 283.126 194.304 282.647 193.752 282.181C193.732 281.5 193.725 280.792 193.742 280.062C193.759 279.253 193.801 278.477 193.861 277.736C193.684 278.126 193.47 278.504 193.225 278.858C192.712 280.502 191.55 281.799 190.039 282.306C189.297 282.556 188.597 282.572 188.036 282.509C188.047 282.427 188.057 282.342 188.066 282.258C187.915 282.316 187.752 282.375 187.58 282.439C187.156 282.595 186.675 282.772 186.145 282.966C185.782 283.099 185.459 283.218 185.168 283.323Z" fill="white"/>
<path d="M199.765 285.071C198.545 284.389 198.048 284.55 196.598 283.936C196.311 283.813 196.036 283.683 195.776 283.545C195.751 283.603 195.725 283.662 195.699 283.721C195.672 283.78 195.642 283.841 195.612 283.902C195.552 284.025 195.485 284.152 195.413 284.28C195.385 284.329 195.357 284.377 195.328 284.425C195.3 284.474 195.269 284.523 195.238 284.573C195.206 284.622 195.175 284.672 195.141 284.721C195.108 284.771 195.074 284.821 195.039 284.87C194.992 284.937 194.943 285.004 194.893 285.071C194.817 285.17 194.736 285.27 194.652 285.369C194.595 285.434 194.536 285.5 194.476 285.564C194.384 285.662 194.289 285.759 194.188 285.854C194.137 285.901 194.087 285.948 194.032 285.995C194.015 286.011 193.998 286.027 193.98 286.042C193.962 286.057 193.944 286.074 193.925 286.089C193.892 286.117 193.857 286.145 193.824 286.172C193.822 286.173 193.822 286.173 193.821 286.174C193.801 286.192 193.779 286.208 193.758 286.225C193.727 286.251 193.693 286.276 193.66 286.302C193.653 286.307 193.645 286.312 193.638 286.317C193.633 286.321 193.629 286.324 193.624 286.327C193.595 286.349 193.566 286.37 193.538 286.39C193.533 286.393 193.529 286.396 193.525 286.4C193.443 286.459 193.359 286.516 193.273 286.572C192.831 286.856 189.955 288.626 187.462 287.13C187.377 287.078 187.294 287.025 187.213 286.968C187.192 286.955 187.171 286.939 187.151 286.924C187.132 286.909 187.112 286.895 187.094 286.882C187.055 286.852 187.016 286.822 186.978 286.791C186.939 286.76 186.9 286.727 186.863 286.696C186.826 286.663 186.79 286.63 186.754 286.598C186.719 286.566 186.685 286.532 186.651 286.5C186.647 286.496 186.643 286.492 186.639 286.486C186.607 286.456 186.574 286.423 186.542 286.389C186.508 286.354 186.474 286.317 186.441 286.28C186.408 286.242 186.376 286.205 186.344 286.166C186.319 286.137 186.294 286.107 186.27 286.076C186.267 286.074 186.265 286.07 186.263 286.068C186.261 286.065 186.259 286.063 186.258 286.061C186.239 286.037 186.221 286.013 186.202 285.988C186.183 285.964 186.165 285.939 186.147 285.914C186.144 285.91 186.141 285.906 186.138 285.903C186.104 285.856 186.072 285.81 186.041 285.762L186.04 285.761C185.999 285.701 185.959 285.638 185.921 285.575C185.89 285.525 185.861 285.474 185.832 285.422C185.785 285.34 185.74 285.255 185.699 285.168C185.656 285.081 185.616 284.993 185.579 284.905C185.559 284.861 185.541 284.815 185.524 284.77C185.519 284.761 185.517 284.752 185.513 284.743C185.5 284.711 185.488 284.679 185.478 284.648C185.475 284.641 185.473 284.635 185.47 284.628C185.454 284.584 185.437 284.538 185.423 284.494C185.407 284.447 185.393 284.401 185.379 284.354C185.364 284.306 185.351 284.259 185.338 284.21C185.311 284.114 185.287 284.019 185.266 283.921C185.254 283.871 185.245 283.822 185.236 283.772C185.226 283.723 185.217 283.674 185.21 283.625C185.201 283.575 185.194 283.524 185.187 283.474C185.185 283.461 185.183 283.448 185.182 283.436C185.176 283.398 185.171 283.361 185.167 283.323C184.071 283.722 183.433 283.952 182.948 284.104C181.696 284.498 181.01 284.636 180.525 284.727C182.891 287.333 186.225 289.066 190.013 289.337C194.066 289.626 197.844 288.181 200.62 285.634C200.22 285.332 199.904 285.15 199.765 285.071Z" fill="#05F46A"/>
<path d="M188.036 282.51C188.598 282.574 189.297 282.557 190.039 282.307C191.55 281.799 192.713 280.503 193.225 278.858C192.739 279.564 192.12 280.178 191.393 280.612C190.453 281.175 189.229 281.48 188.147 281.228C188.132 281.525 188.113 281.834 188.078 282.153C188.076 282.189 188.071 282.224 188.065 282.259C188.058 282.343 188.047 282.428 188.036 282.51Z" fill="#3D44C4"/>
<path d="M167.747 267.312H130.935C130.363 267.312 129.9 266.849 129.9 266.278V264.173C129.9 263.602 130.364 263.138 130.935 263.138H167.747C168.318 263.138 168.781 263.602 168.781 264.173V266.278C168.781 266.849 168.318 267.312 167.747 267.312Z" fill="#7A7DFF"/>
<path d="M167.747 277.276H130.935C130.363 277.276 129.9 276.812 129.9 276.241V274.136C129.9 273.565 130.364 273.101 130.935 273.101H167.747C168.318 273.101 168.781 273.565 168.781 274.136V276.241C168.781 276.812 168.318 277.276 167.747 277.276Z" fill="#E4E6FF"/>
<path d="M167.747 287.239H130.935C130.363 287.239 129.9 286.776 129.9 286.204V284.099C129.9 283.528 130.364 283.064 130.935 283.064H167.747C168.318 283.064 168.781 283.528 168.781 284.099V286.204C168.781 286.776 168.318 287.239 167.747 287.239Z" fill="#E4E6FF"/>
</g>
<defs>
<clipPath id="clip0_152_22348">
<rect width="594.246" height="375" fill="white"/>
</clipPath>
</defs>
</svg>
