<svg width="64" height="64" viewBox="0 0 64 64" fill="none" xmlns="http://www.w3.org/2000/svg">
<rect width="64" height="64" rx="32" fill="url(#paint0_linear_46_236)"/>
<path d="M49.712 27.104L44.24 23V17.6C44.24 17.409 44.1641 17.2259 44.0291 17.0909C43.8941 16.9559 43.711 16.88 43.52 16.88H36.0795L32.432 14.144C32.3074 14.0505 32.1558 14 32 14C31.8442 14 31.6926 14.0505 31.568 14.144L27.9205 16.88H20.48C20.289 16.88 20.1059 16.9559 19.9709 17.0909C19.8359 17.2259 19.76 17.409 19.76 17.6V23L14.288 27.104C14.1986 27.1711 14.126 27.258 14.076 27.358C14.026 27.458 14 27.5682 14 27.68V49.28C14 49.471 14.0759 49.6541 14.2109 49.7891C14.3459 49.9241 14.529 50 14.72 50H49.28C49.471 50 49.6541 49.9241 49.7891 49.7891C49.9241 49.6541 50 49.471 50 49.28V27.68C50 27.5682 49.974 27.458 49.924 27.358C49.874 27.258 49.8014 27.1711 49.712 27.104ZM27.4798 38.1502L15.44 47.781V29.12L27.4798 38.1502ZM28.6707 39.043L31.568 41.216C31.6926 41.3095 31.8442 41.36 32 41.36C32.1558 41.36 32.3074 41.3095 32.432 41.216L35.3293 39.043L47.2266 48.56H16.7734L28.6707 39.043ZM36.5202 38.1502L48.56 29.12V47.781L36.5202 38.1502ZM48.0805 27.68L44.24 30.56V24.8L48.0805 27.68ZM32 15.62L33.6805 16.88H30.3195L32 15.62ZM42.8 18.32V31.64L35.3595 37.2214L35.3307 37.197L35.24 37.3107L32 39.74L28.76 37.3107L28.6707 37.197L28.6405 37.2214L21.2 31.64V18.32H42.8ZM19.76 30.56L15.9195 27.68L19.76 24.8V30.56Z" fill="white"/>
<path d="M30.6683 28.9202C30.8034 29.0552 30.9865 29.131 31.1774 29.131C31.3683 29.131 31.5514 29.0552 31.6864 28.9202L34.9768 25.6284C35.108 25.4926 35.1805 25.3107 35.1789 25.1219C35.1773 24.9332 35.1015 24.7526 34.9681 24.6191C34.8346 24.4856 34.654 24.4099 34.4652 24.4082C34.2764 24.4066 34.0945 24.4792 33.9587 24.6103L31.1781 27.391L30.0405 26.2548C29.9047 26.1236 29.7228 26.0511 29.5341 26.0527C29.3453 26.0543 29.1647 26.1301 29.0312 26.2636C28.8977 26.3971 28.822 26.5776 28.8203 26.7664C28.8187 26.9552 28.8913 27.1371 29.0224 27.2729L30.6683 28.9202Z" fill="white"/>
<path d="M31.9995 33.2452C33.2812 33.2452 34.534 32.8651 35.5996 32.1531C36.6653 31.4411 37.4958 30.429 37.9863 29.2449C38.4767 28.0609 38.6051 26.758 38.355 25.501C38.105 24.244 37.4878 23.0894 36.5816 22.1831C35.6753 21.2769 34.5207 20.6597 33.2637 20.4097C32.0067 20.1596 30.7038 20.288 29.5197 20.7784C28.3357 21.2689 27.3236 22.0994 26.6116 23.1651C25.8996 24.2307 25.5195 25.4835 25.5195 26.7652C25.5195 28.4838 26.2022 30.132 27.4175 31.3472C28.6327 32.5624 30.2809 33.2452 31.9995 33.2452ZM31.9995 21.7252C32.9963 21.7252 33.9708 22.0208 34.7996 22.5746C35.6284 23.1284 36.2744 23.9155 36.6559 24.8364C37.0373 25.7574 37.1372 26.7708 36.9427 27.7484C36.7482 28.7261 36.2682 29.6241 35.5634 30.329C34.8585 31.0338 33.9605 31.5138 32.9828 31.7083C32.0051 31.9028 30.9917 31.803 30.0708 31.4215C29.1499 31.04 28.3627 30.3941 27.8089 29.5652C27.2551 28.7364 26.9595 27.762 26.9595 26.7652C26.9595 25.4285 27.4905 24.1465 28.4357 23.2013C29.3809 22.2562 30.6628 21.7252 31.9995 21.7252Z" fill="white"/>
<defs>
<linearGradient id="paint0_linear_46_236" x1="64" y1="7.62939e-06" x2="7.62939e-06" y2="64" gradientUnits="userSpaceOnUse">
<stop stop-color="#F65A75"/>
<stop offset="1" stop-color="#48179C"/>
</linearGradient>
</defs>
</svg>
