<svg width="64" height="64" viewBox="0 0 64 64" fill="none" xmlns="http://www.w3.org/2000/svg">
<rect width="64" height="64" rx="32" fill="url(#paint0_linear_119_17614)"/>
<path d="M33.5868 17.8654L21.6753 33.9754C21.5824 34.1032 21.5242 34.2528 21.5064 34.4097C21.4885 34.5667 21.5115 34.7255 21.5733 34.8709C21.632 35.0128 21.7298 35.135 21.8553 35.2234C21.9754 35.3069 22.1185 35.3509 22.2648 35.3494H31.2438L29.8833 45.8839C29.8767 45.9539 29.8908 46.0243 29.9238 46.0864C29.9544 46.1459 30.004 46.1934 30.0648 46.2214C30.1258 46.2514 30.1883 46.2579 30.2523 46.2409C30.3158 46.2244 30.3722 46.1875 30.4128 46.1359L42.3243 30.0244C42.4171 29.8967 42.4753 29.747 42.4932 29.5901C42.5111 29.4332 42.488 29.2743 42.4263 29.1289C42.3673 28.9876 42.2696 28.8659 42.1443 28.7779C42.0243 28.6939 41.8812 28.6494 41.7348 28.6504H32.7558L34.1163 18.1159C34.1228 18.0459 34.1088 17.9755 34.0758 17.9134C34.0451 17.854 33.9955 17.8064 33.9348 17.7784C33.876 17.7519 33.8102 17.7451 33.7473 17.7589C33.6837 17.7754 33.6273 17.8138 33.5868 17.8654Z" stroke="white" stroke-width="2.25" stroke-linecap="round" stroke-linejoin="round"/>
<defs>
<linearGradient id="paint0_linear_119_17614" x1="64" y1="7.62939e-06" x2="7.62939e-06" y2="64" gradientUnits="userSpaceOnUse">
<stop stop-color="#F65A75"/>
<stop offset="1" stop-color="#48179C"/>
</linearGradient>
</defs>
</svg>
