<svg width="64" height="64" viewBox="0 0 64 64" fill="none" xmlns="http://www.w3.org/2000/svg">
<rect width="64" height="64" rx="32" fill="url(#paint0_linear_46_201)"/>
<path d="M31.9787 21.0097C25.9199 21.0097 21.0164 25.947 21.0164 31.9612C21.0164 38.014 25.9586 42.9127 31.9787 42.9127C38.0376 42.9127 42.9411 37.9754 42.9411 31.9612C42.9411 25.9084 38.0376 21.0097 31.9787 21.0097ZM31.9787 41.8379C26.5179 41.8379 22.0923 37.4167 22.0923 31.9612C22.0923 26.5058 26.5179 22.0846 31.9787 22.0846C37.4396 22.0846 41.8652 26.5058 41.8652 31.9612C41.8652 37.4167 37.4396 41.8379 31.9787 41.8379ZM48.642 28.2572H46.49C46.3701 28.2572 46.2907 28.1779 46.2502 28.0581C45.931 26.8634 45.4529 25.7091 44.8145 24.6326C44.7351 24.5128 44.774 24.3931 44.855 24.3137L46.3701 22.8001C46.8886 22.2821 46.8886 21.4467 46.3701 20.9287L42.9817 17.5437C42.4632 17.0257 41.5865 17.0257 41.1085 17.5437L39.5933 19.0573C39.5139 19.1367 39.394 19.1367 39.2741 19.0978C38.1981 18.46 37.0411 17.9824 35.8452 17.6635C35.7253 17.623 35.6459 17.5437 35.6459 17.4239V15.3145C35.6459 14.5974 35.048 14 34.3301 14H29.5872C28.8693 14 28.2714 14.5974 28.2714 15.3145V17.4643C28.2714 17.5841 28.192 17.6635 28.0721 17.7039C26.8762 18.0228 25.7208 18.5004 24.6432 19.1382C24.5233 19.2175 24.4034 19.1786 24.324 19.0977L22.8104 17.5453C22.2919 17.0272 21.4557 17.0272 20.9372 17.5453L17.5488 20.9303C17.0302 21.4483 17.0302 22.2836 17.5488 22.8017L19.0639 24.3153C19.1433 24.3946 19.1433 24.5144 19.1044 24.6342C18.4659 25.7091 17.9879 26.8649 17.6687 28.0596C17.6282 28.1794 17.5488 28.2588 17.4289 28.2588L15.3158 28.2572C14.5979 28.2572 14 28.8546 14 29.5717V34.3505C14 35.0677 14.5979 35.665 15.3158 35.665H17.4678C17.5877 35.665 17.6671 35.7444 17.7076 35.8642C18.0268 37.0589 18.5048 38.2131 19.1433 39.2896C19.2227 39.4094 19.1838 39.5292 19.1028 39.6085L17.5488 41.1206C17.309 41.3602 17.1502 41.718 17.1502 42.0757C17.1502 42.4335 17.2701 42.7524 17.5488 43.0309L20.9372 46.4159C21.4557 46.9339 22.2919 46.9339 22.8104 46.4159L24.3255 44.9023C24.405 44.8229 24.5249 44.8229 24.6448 44.8618C25.7207 45.4996 26.8777 45.9772 28.0736 46.2961C28.1935 46.3365 28.2729 46.4159 28.2729 46.5357V48.6855C28.2729 49.4026 28.8709 50 29.5888 50H34.3723C35.0902 50 35.6881 49.4026 35.6881 48.6855V46.5357C35.6881 46.4159 35.7676 46.3365 35.8875 46.2961C37.0834 45.9772 38.2388 45.4996 39.3163 44.8618C39.4362 44.7825 39.5561 44.8214 39.6356 44.9023L41.1507 46.4159C41.6692 46.9339 42.5054 46.9339 43.0239 46.4159L46.4123 43.0309C46.9308 42.5128 46.9308 41.6775 46.4123 41.1595L44.8972 39.6459C44.8178 39.5665 44.8178 39.4467 44.8567 39.327C45.4952 38.252 45.9732 37.0962 46.2924 35.9015C46.3329 35.7817 46.4123 35.7024 46.5322 35.7024H48.6842C49.402 35.7024 50 35.105 50 34.3879L49.9969 29.5716C49.9969 28.8544 49.3987 28.2572 48.642 28.2572ZM48.9207 34.3506C48.9207 34.5093 48.8008 34.5902 48.6809 34.5902H46.5289C45.931 34.5902 45.4124 34.9884 45.2536 35.5858C44.9344 36.7012 44.4969 37.7761 43.9378 38.7717C43.6186 39.2897 43.698 39.9259 44.1371 40.3646L45.6523 41.8782C45.7722 41.998 45.7722 42.1567 45.6523 42.236L42.2639 45.621C42.144 45.7408 41.9851 45.7408 41.9057 45.621L40.3906 44.1074C39.9515 43.6687 39.3146 43.5894 38.7961 43.9083C37.7995 44.4652 36.7235 44.9444 35.607 45.2228C35.0091 45.3815 34.6104 45.8995 34.6104 46.4968V48.6467C34.6104 48.8054 34.4905 48.8862 34.3706 48.8862H29.5871C29.4282 48.8862 29.3473 48.7665 29.3473 48.6467V46.4968C29.3473 45.8995 28.9486 45.3815 28.3507 45.2228C27.2342 44.9039 26.1582 44.4668 25.1616 43.9083C24.9623 43.7885 24.7225 43.7496 24.4843 43.7496C24.1261 43.7496 23.8069 43.8694 23.5671 44.1479L22.052 45.6615C21.9321 45.7813 21.7732 45.7813 21.6938 45.6615L18.3054 42.2765C18.226 42.1971 18.226 42.1178 18.226 42.0774C18.226 42.0369 18.226 41.9576 18.3054 41.8782L19.8206 40.3646C20.2597 39.9259 20.3391 39.2897 20.0199 38.7717C19.4624 37.7761 18.9828 36.7012 18.7041 35.5858C18.5452 34.9884 18.0267 34.5902 17.4288 34.5902H15.3157C15.1569 34.5902 15.0759 34.4704 15.0759 34.3506L15.0775 29.5718C15.0775 29.4131 15.1974 29.3322 15.3173 29.3322H17.4692C18.0672 29.3322 18.5857 28.934 18.7445 28.3366C19.0638 27.2213 19.5013 26.1463 20.0603 25.1507C20.3391 24.6327 20.2597 23.956 19.861 23.5578L18.3459 22.0442C18.226 21.9244 18.226 21.7657 18.3459 21.6864L21.7343 18.3014C21.8542 18.1816 22.013 18.1816 22.0924 18.3014L23.6075 19.815C24.0062 20.2132 24.6835 20.333 25.2021 20.0141C26.1987 19.4572 27.2746 18.9781 28.3911 18.6996C28.9891 18.5409 29.3877 18.0229 29.3877 17.4256V15.3146C29.3877 15.1559 29.5076 15.075 29.6275 15.075H34.4111C34.5699 15.075 34.6509 15.1948 34.6509 15.3146V17.4644C34.6509 18.0618 35.0495 18.5798 35.6475 18.7385C36.764 19.0574 37.84 19.4945 38.8365 20.053C39.3551 20.3719 39.9919 20.2926 40.4311 19.8539L41.9462 18.3403C42.0256 18.2609 42.105 18.2609 42.1455 18.2609C42.186 18.2609 42.2654 18.2609 42.3448 18.3403L45.7332 21.7253C45.8531 21.845 45.8531 22.0037 45.7332 22.0831L44.2181 23.5967C43.8195 23.9949 43.6995 24.6716 44.0188 25.1896C44.5762 26.1852 45.0559 27.2601 45.3346 28.3755C45.4934 28.9729 46.0119 29.3711 46.6099 29.3711H48.7619C48.9207 29.3711 49.0017 29.4909 49.0017 29.6107L49.0001 34.3505L48.9207 34.3506ZM27.1952 30.0106V25.2708C27.1952 24.9924 26.9554 24.7528 26.6767 24.7528C26.398 24.7528 26.1582 24.9924 26.1582 25.2708V30.0091C25.2021 30.2486 24.4842 31.1244 24.4842 32.1589C24.4842 33.1949 25.2021 34.0707 26.1582 34.3087V38.411C26.1582 38.6894 26.398 38.929 26.6767 38.929C26.9554 38.929 27.1952 38.6894 27.1952 38.411V34.3103C28.1513 34.0708 28.8692 33.1949 28.8692 32.1605C28.8692 31.1244 28.1513 30.2486 27.1952 30.0106ZM26.6378 33.2759C25.9993 33.2759 25.4824 32.7578 25.4824 32.1216C25.4824 31.4838 26.0009 30.9674 26.6378 30.9674C27.2762 30.9674 27.7932 31.4854 27.7932 32.1216C27.7932 32.7983 27.2747 33.2759 26.6378 33.2759ZM32.3773 26.386V25.2706C32.3773 24.9921 32.1375 24.7526 31.8588 24.7526C31.58 24.7526 31.3402 24.9921 31.3402 25.2706V26.386C30.3841 26.6255 29.6663 27.5014 29.6663 28.5358C29.6663 29.5719 30.3841 30.4477 31.3402 30.6857V38.1729C31.3402 38.4514 31.58 38.6909 31.8588 38.6909C32.1375 38.6909 32.3773 38.4514 32.3773 38.1729V30.6873C33.3334 30.4477 34.0512 29.5719 34.0512 28.5374C34.0512 27.5014 33.3334 26.6255 32.3773 26.386ZM31.8588 29.6917C31.2203 29.6917 30.7034 29.1736 30.7034 28.5374C30.7034 27.8996 31.2219 27.3832 31.8588 27.3832C32.4972 27.3832 33.0142 27.9012 33.0142 28.5374C33.0157 29.1737 32.4972 29.6917 31.8588 29.6917ZM37.5999 32.1604V25.2705C37.5999 24.9921 37.3601 24.7525 37.0813 24.7525C36.8026 24.7525 36.5628 24.9921 36.5628 25.2705V32.1604C35.6067 32.4 34.8888 33.2758 34.8888 34.3102C34.8888 35.3463 35.6067 36.2221 36.5628 36.4601V38.6099C36.5628 38.8884 36.8026 39.128 37.0813 39.128C37.3601 39.128 37.5999 38.8884 37.5999 38.6099V36.4601C38.5559 36.2205 39.2738 35.3447 39.2738 34.3102C39.2738 33.2758 38.5559 32.3999 37.5999 32.1604ZM37.0813 35.4661C36.4429 35.4661 35.9259 34.9481 35.9259 34.3118C35.9259 33.674 36.4445 33.1576 37.0813 33.1576C37.7198 33.1576 38.2367 33.6756 38.2367 34.3118C38.2367 34.9481 37.6793 35.4661 37.0813 35.4661Z" fill="white"/>
<defs>
<linearGradient id="paint0_linear_46_201" x1="64" y1="7.62939e-06" x2="7.62939e-06" y2="64" gradientUnits="userSpaceOnUse">
<stop stop-color="#F65A75"/>
<stop offset="1" stop-color="#48179C"/>
</linearGradient>
</defs>
</svg>
