<svg width="64" height="64" viewBox="0 0 64 64" fill="none" xmlns="http://www.w3.org/2000/svg">
<rect width="64" height="64" rx="32" fill="url(#paint0_linear_193_6496)"/>
<path d="M15.5 24.8256H34.1525M47.783 32.0001C47.9729 32.0009 48.1548 32.0767 48.2891 32.211C48.4234 32.3453 48.4992 32.5272 48.5 32.7171V43.4781C48.5 44.2391 48.1977 44.969 47.6595 45.5071C47.1214 46.0453 46.3915 46.3476 45.6305 46.3476H18.3695C17.6086 46.3472 16.8789 46.0447 16.3409 45.5067C15.8028 44.9686 15.5004 44.239 15.5 43.4781V20.5221C15.5 19.761 15.8023 19.0312 16.3405 18.493C16.8786 17.9549 17.6085 17.6526 18.3695 17.6526H33.4355C33.6254 17.6534 33.8073 17.7292 33.9416 17.8635C34.0759 17.9978 34.1517 18.1797 34.1525 18.3696V30.5646C34.1523 30.753 34.1892 30.9397 34.2612 31.1138C34.3332 31.288 34.4388 31.4462 34.572 31.5795C34.7052 31.7129 34.8633 31.8186 35.0374 31.8908C35.2115 31.9629 35.3981 32.0001 35.5865 32.0001H47.783Z" stroke="white" stroke-width="1.5" stroke-linecap="round" stroke-linejoin="round"/>
<path d="M20.5217 21.5977C20.4719 21.6022 20.4217 21.5963 20.3742 21.5804C20.3268 21.5645 20.2832 21.5388 20.2462 21.5051C20.2093 21.4713 20.1797 21.4303 20.1595 21.3845C20.1393 21.3387 20.1289 21.2892 20.1289 21.2392C20.1289 21.1891 20.1393 21.1396 20.1595 21.0938C20.1797 21.048 20.2093 21.007 20.2462 20.9732C20.2832 20.9395 20.3268 20.9138 20.3742 20.8979C20.4217 20.882 20.4719 20.8761 20.5217 20.8807M20.5217 21.5977C20.5716 21.6022 20.6218 21.5963 20.6692 21.5804C20.7167 21.5645 20.7603 21.5388 20.7972 21.5051C20.8342 21.4713 20.8637 21.4303 20.8839 21.3845C20.9041 21.3387 20.9146 21.2892 20.9146 21.2392C20.9146 21.1891 20.9041 21.1396 20.8839 21.0938C20.8637 21.048 20.8342 21.007 20.7972 20.9732C20.7603 20.9395 20.7167 20.9138 20.6692 20.8979C20.6218 20.882 20.5716 20.8761 20.5217 20.8807" stroke="white" stroke-width="1.5"/>
<path d="M34.1523 26.2611H48.4998M34.1523 20.5221H48.4998M45.6303 17.6526V32.0001M39.8898 17.6526V32.0001" stroke="white" stroke-width="1.5" stroke-linecap="round" stroke-linejoin="round"/>
<path d="M29.1304 21.5977C29.041 21.5895 28.9579 21.5482 28.8974 21.4818C28.8368 21.4155 28.8033 21.3289 28.8033 21.2392C28.8033 21.1494 28.8368 21.0628 28.8974 20.9965C28.9579 20.9301 29.041 20.8888 29.1304 20.8807M24.8254 21.5977C24.7756 21.6022 24.7254 21.5963 24.6779 21.5804C24.6305 21.5645 24.5869 21.5388 24.5499 21.5051C24.513 21.4713 24.4835 21.4303 24.4633 21.3845C24.4431 21.3387 24.4326 21.2892 24.4326 21.2392C24.4326 21.1891 24.4431 21.1396 24.4633 21.0938C24.4835 21.048 24.513 21.007 24.5499 20.9732C24.5869 20.9395 24.6305 20.9138 24.6779 20.8979C24.7254 20.882 24.7756 20.8761 24.8254 20.8807C24.8753 20.8761 24.9255 20.882 24.973 20.8979C25.0204 20.9138 25.064 20.9395 25.101 20.9732C25.1379 21.007 25.1674 21.048 25.1876 21.0938C25.2078 21.1396 25.2183 21.1891 25.2183 21.2392C25.2183 21.2892 25.2078 21.3387 25.1876 21.3845C25.1674 21.4303 25.1379 21.4713 25.101 21.5051C25.064 21.5388 25.0204 21.5645 24.973 21.5804C24.9255 21.5963 24.8753 21.6022 24.8254 21.5977Z" stroke="white" stroke-width="1.5"/>
<path d="M29.1289 21.5977C29.1787 21.6022 29.229 21.5963 29.2764 21.5804C29.3239 21.5645 29.3674 21.5388 29.4044 21.5051C29.4414 21.4713 29.4709 21.4303 29.4911 21.3845C29.5113 21.3387 29.5217 21.2892 29.5217 21.2392C29.5217 21.1891 29.5113 21.1396 29.4911 21.0938C29.4709 21.048 29.4414 21.007 29.4044 20.9732C29.3674 20.9395 29.3239 20.9138 29.2764 20.8979C29.229 20.882 29.1787 20.8761 29.1289 20.8807" stroke="white" stroke-width="1.5"/>
<defs>
<linearGradient id="paint0_linear_193_6496" x1="64" y1="7.62939e-06" x2="7.62939e-06" y2="64" gradientUnits="userSpaceOnUse">
<stop stop-color="#F65A75"/>
<stop offset="1" stop-color="#48179C"/>
</linearGradient>
</defs>
</svg>
