<svg width="64" height="64" viewBox="0 0 64 64" fill="none" xmlns="http://www.w3.org/2000/svg">
<rect width="64" height="64" rx="32" fill="url(#paint0_linear_46_248)"/>
<path d="M34.0372 25.6064C33.1336 25.6064 32.3093 25.9744 31.7168 26.5684C31.1229 27.1578 30.7593 27.9821 30.7593 28.8887C30.7593 29.7968 31.1274 30.6167 31.7168 31.2091L31.7512 31.2435C32.3407 31.8135 33.1485 32.1711 34.0372 32.1711C34.9453 32.1711 35.7681 31.8031 36.3621 31.2091C36.9515 30.6152 37.3196 29.7954 37.3196 28.8888C37.3196 27.9806 36.9515 27.1578 36.3621 26.5684C35.7681 25.9744 34.9453 25.6064 34.0372 25.6064ZM15.9558 16.6973C16.0815 16.5716 16.1548 16.2484 16.2476 15.659C16.294 15.3329 16.5468 15.0621 16.8909 15.0083C17.3083 14.9469 17.6988 15.2342 17.7646 15.6516C17.8558 16.2455 17.9291 16.5701 18.0563 16.6973C18.179 16.823 18.4857 16.8933 19.0332 16.9801C19.3863 17.0025 19.6885 17.2673 19.7424 17.6279C19.8082 18.0452 19.521 18.4402 19.1021 18.5015C18.5081 18.5928 18.1835 18.6661 18.0563 18.7933C17.9306 18.9189 17.8573 19.2421 17.7646 19.8315C17.7182 20.1577 17.4654 20.4284 17.1242 20.4823C16.7023 20.5436 16.3119 20.2564 16.2475 19.839C16.1593 19.245 16.086 18.9204 15.9558 18.7932C15.8301 18.6676 15.507 18.5943 14.9101 18.5015C14.5929 18.4521 14.3281 18.1993 14.2742 17.8612C14.2084 17.4438 14.4956 17.0533 14.9101 16.992C15.504 16.9007 15.8287 16.8274 15.9558 16.6973ZM15.3694 27.9074C15.4352 27.8386 15.4846 27.6321 15.5415 27.2446C15.5684 26.8961 15.8332 26.5939 16.1922 26.54C16.6096 26.4787 17.0001 26.7659 17.0659 27.1833C17.1317 27.6127 17.1766 27.8386 17.2454 27.9074C17.3113 27.9732 17.5207 28.0181 17.9037 28.0794C18.2568 28.1019 18.5545 28.3667 18.6083 28.7302C18.6697 29.1476 18.3824 29.5381 17.965 29.5994C17.5402 29.6652 17.3098 29.7146 17.2454 29.7789C17.1766 29.8478 17.1302 30.0737 17.0659 30.4985C17.0121 30.8202 16.7637 31.088 16.4226 31.1419C16.0097 31.2032 15.6177 30.9204 15.5534 30.5015C15.4876 30.0766 15.4382 29.8463 15.3694 29.7775C15.3036 29.7116 15.0747 29.6623 14.6498 29.5979C14.3281 29.5486 14.0603 29.2957 14.0095 28.9576C13.9436 28.5402 14.2279 28.1497 14.6453 28.0884C15.0702 28.0196 15.3006 27.9732 15.3694 27.9044L15.3694 27.9074ZM23.7293 19.4085C23.4271 20.2896 23.0396 20.9629 22.4921 21.5104C21.9445 22.058 21.2698 22.4455 20.3856 22.7477C21.2698 23.0499 21.9445 23.4374 22.4921 23.9804L22.534 24.0268C23.0591 24.5669 23.4346 25.2326 23.7293 26.0914C24.0315 25.2072 24.4145 24.5325 24.9621 23.9849C25.5096 23.4374 26.1873 23.0499 27.0685 22.7477C26.1873 22.4455 25.5096 22.058 24.9621 21.5104C24.4145 20.9629 24.0315 20.2882 23.7293 19.4085ZM21.4089 20.4318C22.2243 19.6164 22.5848 18.1997 22.9708 15.7057C23.0172 15.384 23.27 15.1117 23.6111 15.0579C24.0285 14.9921 24.4235 15.2793 24.4848 15.6982C24.787 17.6431 25.0712 18.9312 25.565 19.7928C26.7094 19.0732 27.9542 18.4987 29.2722 18.0843C30.7772 17.613 32.3825 17.3572 34.037 17.3572C38.446 17.3572 42.4359 19.1465 45.3233 22.0339C48.2107 24.9213 50 28.9128 50 33.3202C50 37.7246 48.2107 41.7161 45.3233 44.6035C42.4359 47.4909 38.4444 49.2802 34.037 49.2802C29.6326 49.2802 25.6411 47.4909 22.7537 44.6035C19.8663 41.7161 18.077 37.7246 18.077 33.3202C18.077 31.5923 18.3523 29.9272 18.8624 28.3682C19.3068 27.0053 19.9306 25.7216 20.7041 24.5502C19.8468 24.079 18.5752 23.7992 16.6873 23.5089C16.3611 23.4626 16.0933 23.2067 16.0395 22.8656C15.9737 22.4483 16.2609 22.0578 16.6798 21.992C19.1767 21.609 20.5936 21.2484 21.4105 20.4331L21.4089 20.4318ZM26.6751 20.906C27.5368 21.4042 28.8234 21.687 30.7696 21.9892C31.0957 22.0355 31.3665 22.2884 31.4174 22.6295C31.4832 23.0514 31.196 23.4418 30.7771 23.5062C28.2802 23.8892 26.8633 24.2497 26.0464 25.0651C25.231 25.8774 24.8705 27.2942 24.4875 29.7866C24.4381 30.1127 24.1853 30.3835 23.8442 30.4374C23.4268 30.4987 23.0363 30.2115 22.9705 29.794C22.6608 27.7789 22.3661 26.4653 21.8365 25.608C21.2052 26.6073 20.692 27.692 20.3165 28.8365C19.8572 30.2428 19.6074 31.7508 19.6074 33.3171C19.6074 37.2994 21.2231 40.9079 23.8352 43.5157C26.4428 46.1278 30.0511 47.7435 34.0338 47.7435C38.0208 47.7435 41.6278 46.1278 44.2371 43.5157C46.8492 40.9081 48.4649 37.2998 48.4649 33.3171C48.4649 29.3301 46.8491 25.7231 44.2371 23.1138C41.6294 20.5017 38.0211 18.8891 34.0338 18.8891C32.5288 18.8891 31.0806 19.115 29.7206 19.5398C28.6479 19.8764 27.6261 20.3357 26.6716 20.9027L26.6751 20.906ZM36.1047 33.8201H31.9726C30.8924 33.8201 29.9125 34.2599 29.2004 34.9735C28.4882 35.6857 28.0439 36.6701 28.0439 37.7502V43.0657C29.9813 43.736 32.0113 44.0726 34.0416 44.0726C36.0718 44.0726 38.0974 43.736 40.0346 43.0657V37.7502C40.0346 36.6701 39.5902 35.6857 38.8782 34.9735C38.166 34.2614 37.1846 33.8201 36.106 33.8201H36.1047ZM37.3075 32.4228C38.3263 32.6532 39.2449 33.1738 39.9615 33.8889C40.9489 34.8808 41.5667 36.2437 41.5667 37.7487V43.6012C41.5623 43.9108 41.3753 44.2026 41.0686 44.3178C38.8005 45.175 36.4187 45.6044 34.0399 45.6044C31.6761 45.6044 29.3138 45.1795 27.0653 44.3372C26.7436 44.246 26.5103 43.9497 26.5103 43.6012V37.7487C26.5103 36.2436 27.1266 34.8807 28.1155 33.8889C28.8321 33.1723 29.7507 32.6517 30.774 32.4228L30.6783 32.3315L30.6364 32.2926C29.7627 31.4189 29.2226 30.2161 29.2226 28.8876C29.2226 27.5591 29.7627 26.3563 30.6364 25.4826C31.51 24.6134 32.7129 24.0733 34.0369 24.0733C35.3654 24.0733 36.5682 24.6134 37.4419 25.4826C38.3156 26.3563 38.8557 27.5591 38.8557 28.8876C38.8557 30.2161 38.3156 31.4189 37.4419 32.2926C37.4 32.3345 37.3539 32.3809 37.3075 32.4228Z" fill="white"/>
<defs>
<linearGradient id="paint0_linear_46_248" x1="64" y1="7.62939e-06" x2="7.62939e-06" y2="64" gradientUnits="userSpaceOnUse">
<stop stop-color="#F65A75"/>
<stop offset="1" stop-color="#48179C"/>
</linearGradient>
</defs>
</svg>
