<svg width="64" height="64" viewBox="0 0 64 64" fill="none" xmlns="http://www.w3.org/2000/svg">
<rect width="64" height="64" rx="32" fill="url(#paint0_linear_46_251)"/>
<path d="M21.578 40.266L23.0968 39.0301L25.3874 40.0144C25.689 40.141 26.0436 40.005 26.1749 39.7003C26.3062 39.3957 26.1655 39.0426 25.8609 38.9128L23.5999 37.941V36.4785C23.9703 36.1457 24.2703 35.7378 24.4765 35.2832C24.4921 35.2488 24.5046 35.2144 24.5187 35.18C24.5468 35.1113 24.5749 35.0425 24.5999 34.9707C24.6156 34.9238 24.6312 34.8754 24.6453 34.8269C24.664 34.7644 24.6812 34.7019 24.6968 34.6379C24.7078 34.5894 24.7203 34.5394 24.7296 34.491C24.7437 34.4207 24.7546 34.3488 24.764 34.2769C24.7703 34.2347 24.7765 34.1925 24.7812 34.1504C24.7921 34.0347 24.7999 33.9191 24.7999 33.8004V32.0004C24.7999 30.0145 23.1859 28.4004 21.2 28.4004C19.2141 28.4004 17.6 30.0145 17.6 32.0004V33.8004C17.6 34.8269 18.0343 35.7847 18.8 36.4707V37.9316L16.5375 38.9128C14.9953 39.5706 14 41.0816 14 42.7644V45.8003C14 46.1315 14.2688 46.4002 14.6 46.4002C14.9312 46.4002 15.2 46.1315 15.2 45.8003V42.7644C15.2 41.5644 15.9093 40.4847 17.0109 40.0144L19.3015 39.0206L20.8172 40.2644C21.0422 40.4456 21.3577 40.4441 21.578 40.266ZM18.7999 32.0004C18.7999 30.677 19.8765 29.6004 21.1999 29.6004C21.2812 29.6004 21.3624 29.6051 21.4421 29.6129C21.4687 29.6161 21.4937 29.6207 21.5202 29.6239C21.5733 29.6317 21.6249 29.6379 21.6765 29.6473C21.7062 29.6536 21.7358 29.6629 21.7655 29.6692C21.8124 29.6801 21.8593 29.6911 21.9046 29.7051C21.9343 29.7145 21.964 29.727 21.9937 29.7364C22.0374 29.752 22.0812 29.7661 22.1218 29.7832C22.1515 29.7957 22.1796 29.8098 22.2093 29.8239C22.2499 29.8426 22.2905 29.8614 22.3296 29.8817C22.3593 29.8973 22.3874 29.9145 22.4155 29.9317C22.453 29.9536 22.4905 29.9754 22.5265 29.9989C22.5546 30.0176 22.5811 30.0379 22.6077 30.0567C22.6421 30.0817 22.678 30.1067 22.7108 30.1332C22.7374 30.1551 22.7608 30.177 22.7858 30.1989C22.8171 30.227 22.8483 30.2551 22.8796 30.2848C22.9046 30.3082 22.9265 30.3348 22.9499 30.3598C22.978 30.3895 23.0061 30.4192 23.0343 30.452C23.0561 30.4785 23.078 30.5067 23.0983 30.5332C23.1233 30.566 23.1483 30.5973 23.1718 30.6317C23.1921 30.6598 23.2108 30.691 23.2296 30.7207C23.2515 30.7551 23.2733 30.7895 23.2936 30.8254C23.3108 30.8567 23.3265 30.8879 23.3436 30.9207C23.3624 30.9567 23.3796 30.9942 23.3968 31.0301C23.4108 31.0629 23.4249 31.0973 23.4374 31.1301C23.4515 31.1676 23.4671 31.2067 23.4796 31.2442C23.4905 31.2785 23.5015 31.3145 23.5108 31.3504C23.5218 31.3895 23.5327 31.4285 23.5405 31.4692C23.5483 31.5051 23.5546 31.5426 23.5624 31.5801C23.5702 31.6207 23.5765 31.6614 23.5811 31.7035C23.5858 31.741 23.589 31.7785 23.5921 31.816C23.5936 31.8395 23.5952 31.8629 23.5952 31.8879C22.6593 31.9145 21.7468 31.5848 20.9765 30.9645C20.7202 30.7567 20.3421 30.7957 20.1327 31.0551C19.9249 31.3129 19.9671 31.691 20.2249 31.8989C21.1905 32.677 22.3327 33.0895 23.528 33.0895C23.553 33.0895 23.5764 33.0848 23.6014 33.0848V33.8004C23.6014 33.927 23.5874 34.0504 23.5686 34.1723C23.5639 34.2036 23.5592 34.2332 23.553 34.2645C23.5296 34.377 23.5014 34.4879 23.4639 34.5957C23.4577 34.6145 23.4499 34.6332 23.4421 34.652C23.4077 34.7426 23.3655 34.8301 23.3202 34.9161C23.2936 34.9645 23.2671 35.0129 23.2374 35.0598C23.2124 35.0989 23.1858 35.1364 23.1592 35.1739C23.0171 35.3739 22.8452 35.5551 22.6405 35.7098C22.6389 35.7114 22.6374 35.7129 22.6342 35.7145C22.3577 35.9223 22.0405 36.0785 21.6858 36.152C21.3608 36.2176 21.153 36.5364 21.2186 36.8598C21.2764 37.1442 21.5264 37.3395 21.8061 37.3395C21.8467 37.3395 21.8874 37.3348 21.928 37.327C22.0905 37.2942 22.2483 37.2457 22.403 37.191V38.0504L21.2046 39.0254L19.9999 38.0395V36.1879C19.9999 36.0004 19.9124 35.8223 19.7624 35.7098C19.1499 35.2457 18.7999 34.5504 18.7999 33.8005L18.7999 32.0004Z" fill="white"/>
<path d="M47.4651 38.9144L45.1995 37.93V36.4785C45.5698 36.1457 45.8698 35.7378 46.0761 35.2832C46.0917 35.2488 46.1042 35.2129 46.1182 35.1785C46.1464 35.1097 46.1745 35.041 46.1995 34.9707C46.2151 34.9238 46.2307 34.8754 46.2448 34.8269C46.2635 34.7644 46.2807 34.7019 46.2964 34.6394C46.3073 34.591 46.3198 34.541 46.3292 34.4925C46.3432 34.4222 46.3542 34.3504 46.3636 34.2785C46.3698 34.2363 46.376 34.1941 46.3807 34.1519C46.3917 34.0347 46.3995 33.9191 46.3995 33.8004V32.0004C46.3995 30.0145 44.7854 28.4004 42.7995 28.4004C40.8136 28.4004 39.1995 30.0145 39.1995 32.0004V33.8004C39.1995 34.8269 39.6339 35.7847 40.3995 36.4707V37.941L38.1386 38.9129C37.8339 39.0441 37.6933 39.3956 37.8246 39.7004C37.9542 40.0051 38.3089 40.1426 38.6121 40.0144L40.9027 39.0301L42.4214 40.266C42.6418 40.4457 42.959 40.4457 43.1808 40.2644L44.6964 39.0207L46.9902 40.016C48.0902 40.4847 48.7995 41.5629 48.7995 42.7644V45.8003C48.7995 46.1316 49.0683 46.4003 49.3995 46.4003C49.7308 46.4003 49.9995 46.1316 49.9995 45.8003V42.7644C49.9995 41.0816 49.0042 39.5706 47.4651 38.9144ZM42.798 39.0253L41.5995 38.0503V36.1879C41.5995 36.0004 41.512 35.8222 41.362 35.7097C40.7495 35.2457 40.3995 34.5504 40.3995 33.8004V32.0004C40.3995 30.677 41.4761 29.6004 42.7995 29.6004C44.123 29.6004 45.1995 30.677 45.1995 32.0004V33.8004C45.1995 33.927 45.1855 34.0504 45.1667 34.1723C45.162 34.2035 45.1573 34.2332 45.1511 34.2645C45.1276 34.377 45.0995 34.4879 45.062 34.5957C45.0558 34.6145 45.048 34.6332 45.0401 34.652C45.0058 34.7426 44.9636 34.8301 44.9183 34.916C44.8917 34.9645 44.8651 35.0129 44.8355 35.0598C44.8105 35.0988 44.7839 35.1363 44.7573 35.1738C44.6151 35.3738 44.4433 35.5551 44.2386 35.7097C44.237 35.7113 44.2354 35.7129 44.2323 35.7144C43.9558 35.9222 43.6386 36.0785 43.2839 36.1519C42.9589 36.2176 42.7511 36.5363 42.8167 36.8597C42.8745 37.1441 43.1245 37.3394 43.4042 37.3394C43.4448 37.3394 43.4855 37.3347 43.5261 37.3269C43.6886 37.2941 43.8464 37.2457 44.0011 37.191V38.0394L42.798 39.0253Z" fill="white"/>
<path d="M34.3998 20C34.0686 20 33.7998 20.2688 33.7998 20.6C33.7998 20.9312 34.0686 21.2 34.3998 21.2H40.3998C40.731 21.2 40.9998 20.9312 40.9998 20.6C40.9998 20.2688 40.731 20 40.3998 20H34.3998Z" fill="white"/>
<path d="M46.9997 18.1996C46.9997 17.8684 46.731 17.5996 46.3997 17.5996H34.3998C34.0686 17.5996 33.7998 17.8684 33.7998 18.1996C33.7998 18.5309 34.0686 18.7996 34.3998 18.7996H46.3997C46.731 18.7996 46.9997 18.5309 46.9997 18.1996Z" fill="white"/>
<path d="M15.7999 24.8003H16.9999C17.3312 24.8003 17.5999 24.5316 17.5999 24.2003C17.5999 23.8691 17.3312 23.6003 16.9999 23.6003H15.7999C15.4703 23.6003 15.2 23.3316 15.2 23.0003V18.2004C15.2 17.8691 15.4703 17.6004 15.7999 17.6004H25.3999C25.7296 17.6004 25.9999 17.8691 25.9999 18.2004V23.0003C25.9999 23.3316 25.7296 23.6003 25.3999 23.6003H20.5999C20.4405 23.6003 20.289 23.6628 20.1749 23.7753L16.5749 27.3753C16.3406 27.6097 16.3406 27.9894 16.5749 28.2238C16.6921 28.3425 16.8468 28.4003 16.9999 28.4003C17.1531 28.4003 17.3078 28.3425 17.4249 28.2253L20.8484 24.8003H25.3999C26.3921 24.8003 27.1999 23.9925 27.1999 23.0004V18.2004C27.1999 17.2082 26.3921 16.4004 25.3999 16.4004H15.8C14.8078 16.4004 14 17.2082 14 18.2004V23.0004C14 23.9925 14.8078 24.8003 15.7999 24.8003Z" fill="white"/>
<path d="M48.1997 14H32.5998C31.6076 14 30.7998 14.8078 30.7998 15.8V23C30.7998 23.9921 31.6076 24.7999 32.5998 24.7999H43.1513L46.5763 28.2249C46.6919 28.3421 46.8466 28.3999 46.9998 28.3999C47.1529 28.3999 47.3076 28.3421 47.4248 28.2249C47.6591 27.9906 47.6591 27.6108 47.4248 27.3765L43.8248 23.7765C43.7107 23.6624 43.5591 23.5999 43.3998 23.5999H32.5998C32.2701 23.5999 31.9998 23.3312 31.9998 22.9999V15.8C31.9998 15.4687 32.2701 15.2 32.5998 15.2H48.1997C48.5294 15.2 48.7997 15.4687 48.7997 15.8V22.9999C48.7997 23.3312 48.5294 23.5999 48.1997 23.5999H46.9998C46.6685 23.5999 46.3998 23.8687 46.3998 24.1999C46.3998 24.5312 46.6685 24.7999 46.9998 24.7999H48.1997C49.1919 24.7999 49.9997 23.9921 49.9997 22.9999V15.8C49.9997 14.8078 49.1919 14 48.1997 14Z" fill="white"/>
<path d="M23.6004 20.6C23.6004 21.4 22.4004 21.4 22.4004 20.6C22.4004 19.8 23.6004 19.8 23.6004 20.6Z" fill="white"/>
<path d="M21.2 20.6C21.2 21.4 20 21.4 20 20.6C20 19.8 21.2 19.8 21.2 20.6Z" fill="white"/>
<path d="M18.8006 20.6C18.8006 21.4 17.6006 21.4 17.6006 20.6C17.6006 19.8 18.8006 19.8 18.8006 20.6Z" fill="white"/>
<path d="M40.4079 41.5748L35.4016 39.7982C35.1609 39.7138 34.9984 39.4873 34.9984 39.2357V37.8779C36.0031 36.8826 36.8 35.2295 36.8 32.6V30.8C36.8 28.1531 34.6469 26 32 26C29.3532 26 27.2 28.1531 27.2 30.8V32.6C27.2 35.4375 28.136 37.0247 29.0016 37.8859L29 39.2359C29 39.4875 28.8391 39.714 28.5954 39.7984L23.5922 41.5734C21.4438 42.3296 20 44.3749 20 46.6642V49.4001C20 49.7313 20.2688 50.0001 20.6 50.0001C20.9312 50.0001 21.2 49.7313 21.2 49.4001V46.6642C21.2 44.8845 22.3219 43.2939 23.9922 42.7064L28.9282 40.9548C29.3891 41.7783 30.3766 42.8001 31.9922 42.8001C33.7406 42.8001 34.6672 41.6626 35.075 40.9548L40.0094 42.7064C41.6781 43.2939 42.8 44.8845 42.8 46.6642V49.4001C42.8 49.7313 43.0687 50.0001 43.4 50.0001C43.7312 50.0001 44 49.7313 44 49.4001V46.6642C44 44.3751 42.5564 42.3295 40.4079 41.5748ZM31.9924 41.5998C30.6877 41.5998 30.0939 40.6232 29.9017 40.217C30.0908 39.931 30.2002 39.5935 30.2002 39.2357L30.2017 37.6264C30.2017 37.4545 30.1283 37.2904 29.9986 37.1764C28.9533 36.2514 28.4002 34.6686 28.4002 32.6V30.8C28.4002 28.8157 30.0143 27.2 32.0002 27.2C33.9861 27.2 35.6001 28.8157 35.6001 30.8V32.6C35.6001 36.872 33.2455 38 32.0002 38C31.6689 38 31.4002 38.2687 31.4002 38.6C31.4002 38.9312 31.6689 39.2 32.0002 39.2C32.5064 39.2 33.1502 39.0687 33.8002 38.7437V39.2359C33.8002 39.5984 33.9127 39.9422 34.1064 40.2297C33.883 40.664 33.258 41.5998 31.9924 41.5998Z" fill="white"/>
<defs>
<linearGradient id="paint0_linear_46_251" x1="64" y1="7.62939e-06" x2="7.62939e-06" y2="64" gradientUnits="userSpaceOnUse">
<stop stop-color="#F65A75"/>
<stop offset="1" stop-color="#48179C"/>
</linearGradient>
</defs>
</svg>
