<svg width="56" height="56" viewBox="0 0 56 56" fill="none" xmlns="http://www.w3.org/2000/svg">
<path d="M46.7277 17.7412H46.7266" stroke="#B3E59F" stroke-width="2.73438" stroke-miterlimit="10" stroke-linecap="round" stroke-linejoin="round"/>
<path d="M50.4638 44.083C50.4638 44.8388 49.8523 45.4502 49.0966 45.4502H33.457V42.7158H49.0966C49.8523 42.7158 50.4638 43.3283 50.4638 44.083Z" fill="#B3E59F"/>
<path d="M53.9878 22.9665C53.9834 22.9796 53.9791 22.9916 53.9747 23.0037L50.3828 32.3104C50.21 32.8146 48.6427 37.0496 44.8353 37.0496H33.457V34.3152H44.8353C46.8095 34.3152 47.7884 31.4464 47.7983 31.4179C47.8048 31.3972 47.8136 31.3732 47.8213 31.3523L51.4164 22.0379C51.8408 20.8304 51.9075 19.8755 51.5925 19.4807C51.2687 19.0749 50.4134 19.0804 50.2581 19.099C50.2056 19.1046 50.1531 19.1077 50.1006 19.1077H48.0312C48.0739 18.6527 48.0958 18.1923 48.0958 17.7263C48.0958 17.2702 48.075 16.8185 48.0334 16.3734H50.0372C50.537 16.3318 52.5309 16.2727 53.7308 17.7766C54.6933 18.983 54.7797 20.7298 53.9878 22.9665Z" fill="#B3E59F"/>
<path d="M33.4567 37.0502H19.9653L20.6314 39.7267C21.0273 41.3192 22.8178 42.7158 24.4628 42.7158H33.4567V45.4502H24.4628C21.5327 45.4502 18.6834 43.2267 17.978 40.3872L11.6648 14.998C11.2689 13.4055 9.47844 12.0088 7.83344 12.0088H2.84375C2.08906 12.0088 1.47656 11.3974 1.47656 10.6416C1.47656 9.88702 2.08906 9.27441 2.84375 9.27441H7.83344C10.7636 9.27441 13.6128 11.4992 14.3183 14.3386L14.8247 16.3739H18.8803C18.8387 16.8191 18.818 17.2708 18.818 17.7269C18.818 18.1929 18.8398 18.6533 18.8825 19.1083H15.505L19.2861 34.3158H33.4567V37.0502Z" fill="#B3E59F"/>
<path d="M45.3605 17.7266C45.3605 17.7364 45.3605 17.7462 45.3594 17.7562V17.7408C45.3594 17.7364 45.3594 17.7309 45.3605 17.7266Z" fill="#B3E59F"/>
<path d="M33.4571 5.85156V3.11719C25.8424 3.11719 19.5665 8.95016 18.8807 16.3734C18.8391 16.8186 18.8184 17.2703 18.8184 17.7264C18.8184 18.1923 18.8402 18.6528 18.8829 19.1078C19.5829 26.518 25.8523 32.3367 33.4571 32.3367V29.6023C32.359 29.6023 30.9448 27.732 30.061 24.5088C31.1602 24.6248 32.2988 24.6848 33.4571 24.6848V21.9505C32.0265 21.9505 30.6987 21.8531 29.4868 21.6847C29.3184 20.4772 29.221 19.1527 29.221 17.7264C29.221 16.3002 29.3184 14.9767 29.4868 13.7692C30.6987 13.5997 32.0265 13.5023 33.4571 13.5023V10.768C32.2988 10.768 31.1602 10.8281 30.061 10.9452C30.9448 7.72089 32.359 5.85156 33.4571 5.85156ZM21.5527 17.7407V17.7265C21.5527 16.6317 23.4285 15.2207 26.6627 14.3392C26.5468 15.4362 26.4866 16.5715 26.4866 17.7265C26.4866 18.8816 26.5468 20.0168 26.6627 21.1139C23.4427 20.2356 21.5691 18.8345 21.5527 17.7407ZM22.547 22.4756C22.8598 22.6375 23.1912 22.7928 23.5412 22.9404C24.6141 23.3921 25.826 23.7607 27.1309 24.0418C27.413 25.3445 27.7827 26.5531 28.2355 27.6239C28.3821 27.9706 28.5374 28.2998 28.6982 28.6104C25.9551 27.4128 23.7479 25.2121 22.547 22.4756ZM28.2355 7.83027C27.7827 8.89984 27.413 10.1096 27.1309 11.4111C25.826 11.6922 24.6141 12.0608 23.5412 12.5136C23.1912 12.6614 22.8598 12.8167 22.547 12.9784C23.7479 10.2419 25.9551 8.04027 28.6982 6.8425C28.5374 7.15433 28.3821 7.48245 28.2355 7.83027Z" fill="#B3E59F"/>
<path d="M48.0334 16.3734C47.3477 8.95016 41.0717 3.11719 33.457 3.11719V5.85156C34.5541 5.85156 35.9683 7.72089 36.852 10.9452C35.7528 10.8281 34.6142 10.768 33.457 10.768V13.5023C34.8866 13.5023 36.2144 13.5998 37.4263 13.7692C37.5958 14.9767 37.6931 16.3002 37.6931 17.7264C37.6931 19.1527 37.5958 20.4762 37.4263 21.6847C36.2144 21.8531 34.8866 21.9505 33.457 21.9505V24.6848C34.6142 24.6848 35.7528 24.6247 36.852 24.5087C35.9683 27.7321 34.5541 29.6023 33.457 29.6023V32.3367C41.0619 32.3367 47.3312 26.518 48.0312 19.1078C48.0739 18.6528 48.0958 18.1923 48.0958 17.7264C48.0958 17.2703 48.075 16.8186 48.0334 16.3734ZM44.3672 12.9784C44.0533 12.8167 43.7219 12.6614 43.3719 12.5136C42.2989 12.0608 41.087 11.6922 39.7822 11.4111C39.5 10.1096 39.1303 8.89984 38.6775 7.83027C38.5309 7.48234 38.3756 7.15422 38.2148 6.84261C40.958 8.04016 43.1652 10.2419 44.3672 12.9784ZM38.2148 28.6103C38.3756 28.2997 38.5309 27.9705 38.6775 27.6237C39.1303 26.553 39.5 25.3444 39.7822 24.0417C41.087 23.7606 42.2989 23.392 43.3719 22.9403C43.7219 22.7927 44.0533 22.6373 44.3672 22.4755C43.1652 25.212 40.958 27.4127 38.2148 28.6103ZM45.3614 17.7264C45.3614 17.7363 45.3614 17.7461 45.3603 17.756C45.3614 17.7592 45.3603 17.7615 45.3603 17.7648C45.3177 18.8553 43.4473 20.242 40.2503 21.1138C40.3673 20.0168 40.4275 18.8815 40.4275 17.7264C40.4275 16.5714 40.3673 15.4362 40.2503 14.3391C43.4725 15.2173 45.3472 16.6217 45.3614 17.7144V17.7264Z" fill="#B3E59F"/>
<path d="M25.9705 52.8829C23.163 52.8829 20.8789 50.6024 20.8789 47.7994C20.8789 44.9963 23.163 42.7158 25.9705 42.7158C28.7781 42.7158 31.0622 44.9963 31.0622 47.7994C31.0622 50.6024 28.7781 52.8829 25.9705 52.8829ZM25.9705 45.4502C24.6707 45.4502 23.6133 46.504 23.6133 47.7994C23.6133 49.0947 24.6707 50.1485 25.9705 50.1485C27.2703 50.1485 28.3278 49.0947 28.3278 47.7994C28.3278 46.504 27.2703 45.4502 25.9705 45.4502Z" fill="#B3E59F"/>
<path d="M45.3729 52.8829C42.5653 52.8829 40.2812 50.6024 40.2812 47.7994C40.2812 44.9963 42.5653 42.7158 45.3729 42.7158C48.1804 42.7158 50.4645 44.9963 50.4645 47.7994C50.4645 50.6024 48.1804 52.8829 45.3729 52.8829ZM45.3729 45.4502C44.0731 45.4502 43.0156 46.504 43.0156 47.7994C43.0156 49.0947 44.0731 50.1485 45.3729 50.1485C46.6727 50.1485 47.7301 49.0947 47.7301 47.7994C47.7301 46.504 46.6727 45.4502 45.3729 45.4502Z" fill="#B3E59F"/>
</svg>
