<svg width="64" height="64" viewBox="0 0 64 64" fill="none" xmlns="http://www.w3.org/2000/svg">
<rect width="64" height="64" rx="32" fill="url(#paint0_linear_46_198)"/>
<path d="M46.0866 42.1732C46.0866 42.606 45.7359 42.9553 45.3045 42.9553L40.9331 42.9567L41.9456 43.9692C42.2508 44.2744 42.2508 44.7704 41.9456 45.0756C41.7915 45.2282 41.5905 45.3045 41.3909 45.3045C41.1914 45.3045 40.9903 45.2282 40.8377 45.0756L38.49 42.7278C38.1848 42.4226 38.1848 41.9266 38.49 41.6214L40.8377 39.2737C41.1429 38.9685 41.6389 38.9685 41.9441 39.2737C42.2493 39.5789 42.2493 40.0748 41.9441 40.38L40.9331 41.391H45.3044C45.7358 41.391 46.0866 41.7418 46.0866 42.1732ZM48.8936 38.1835C49.5906 39.353 50 40.7147 50 42.1732C50 46.4885 46.4901 49.9985 42.1746 49.9985C40.7146 49.9985 39.3515 49.5892 38.1804 48.8907C36.2523 49.6038 34.1731 50 32 50C22.0748 50 14 41.9252 14 32C14 22.0748 22.0748 14 32 14C36.1614 14 40.2187 15.4527 43.4263 18.0911C43.7594 18.3655 43.8078 18.8586 43.5334 19.1931C43.259 19.5262 42.766 19.5746 42.4314 19.3002C39.504 16.8923 35.7991 15.5658 31.9998 15.5658C22.9375 15.5658 15.5655 22.9378 15.5655 32.0001C15.5655 34.7015 16.2243 37.2505 17.3835 39.4998C19.7372 37.0435 23.514 35.2446 27.9733 34.5609C25.4758 33.1493 23.7826 30.4728 23.7826 27.4045C23.7826 22.8735 27.4686 19.1874 31.9998 19.1874C36.5309 19.1874 40.2169 22.8734 40.2169 27.4045C40.2169 30.4728 38.5236 33.1492 36.0263 34.5594C36.9698 34.7046 37.8781 34.9042 38.7541 35.1449C39.7885 34.6401 40.9463 34.3481 42.173 34.3481C44.3506 34.3481 46.3197 35.2432 47.74 36.6826C48.1876 35.1977 48.4341 33.6291 48.4341 32.0002C48.4341 28.0121 46.9873 24.1662 44.3606 21.1697C44.076 20.8455 44.1082 20.351 44.4325 20.0648C44.7568 19.7802 45.2513 19.8125 45.5374 20.1367C48.4149 23.4192 49.9997 27.6319 49.9997 32.0003C49.9997 34.1734 49.6038 36.2538 48.8936 38.1835ZM31.9999 34.0574C35.6683 34.0574 38.6514 31.0728 38.6514 27.4059C38.6514 23.7376 35.6668 20.7545 31.9999 20.7545C28.3315 20.7545 25.3484 23.739 25.3484 27.4059C25.3484 31.0728 28.3315 34.0574 31.9999 34.0574ZM36.6838 47.7421C35.2428 46.3217 34.3477 44.351 34.3477 42.1735C34.3477 39.839 35.3807 37.7466 37.0051 36.3117C35.4336 35.9947 33.7535 35.8186 32 35.8186C25.9999 35.8186 20.7939 37.8098 18.1704 40.862C21.0949 45.4121 26.1998 48.4349 32 48.4349C33.6288 48.4349 35.1987 48.1881 36.6838 47.7421ZM48.4342 42.1735C48.4342 38.7209 45.6257 35.9123 42.173 35.9123C38.7203 35.9123 35.9118 38.7209 35.9118 42.1735C35.9118 45.6262 38.7203 48.4347 42.173 48.4347C45.6257 48.4347 48.4342 45.6262 48.4342 42.1735Z" fill="white"/>
<defs>
<linearGradient id="paint0_linear_46_198" x1="64" y1="7.62939e-06" x2="7.62939e-06" y2="64" gradientUnits="userSpaceOnUse">
<stop stop-color="#F65A75"/>
<stop offset="1" stop-color="#48179C"/>
</linearGradient>
</defs>
</svg>
