<svg width="64" height="64" viewBox="0 0 64 64" fill="none" xmlns="http://www.w3.org/2000/svg">
<rect width="64" height="64" rx="32" fill="url(#paint0_linear_189_27075)"/>
<path d="M37.5744 15.9935C37.919 15.6931 38.3557 15.519 38.8125 15.5C39.2693 15.481 39.7189 15.6182 40.0873 15.889C40.4557 16.1597 40.7209 16.5479 40.8391 16.9895C40.9574 17.4311 40.9217 17.8999 40.7379 18.3185L36.7209 27.5H42.9624C45.3969 27.5 46.5204 30.524 44.6769 32.1125L26.1534 48.0815C25.8594 48.3379 25.4871 48.487 25.0973 48.5042C24.7076 48.5214 24.3236 48.4058 24.0082 48.1763C23.6927 47.9468 23.4646 47.617 23.361 47.2408C23.2575 46.8647 23.2848 46.4646 23.4384 46.106L27.4944 36.5H21.0114C18.5829 36.5 17.4564 33.488 19.2894 31.895L37.5744 15.995V15.9935ZM38.2524 18.386L20.7654 33.5915C20.7075 33.6416 20.6664 33.7081 20.6475 33.7823C20.6285 33.8564 20.6328 33.9346 20.6595 34.0062C20.6863 34.0779 20.7344 34.1397 20.7973 34.1832C20.8601 34.2268 20.9348 34.2501 21.0114 34.25H29.1864C29.372 34.2498 29.5548 34.2956 29.7185 34.3832C29.8822 34.4708 30.0216 34.5976 30.1244 34.7522C30.2272 34.9068 30.2901 35.0844 30.3075 35.2693C30.325 35.4541 30.2964 35.6404 30.2244 35.8115L26.3859 44.9105L43.2084 30.4085C43.2662 30.3584 43.3073 30.2918 43.3263 30.2177C43.3452 30.1436 43.341 30.0654 43.3142 29.9938C43.2874 29.9221 43.2394 29.8603 43.1765 29.8167C43.1136 29.7732 43.0389 29.7499 42.9624 29.75H35.0004C34.8136 29.7499 34.6298 29.7033 34.4656 29.6144C34.3013 29.5256 34.1618 29.3972 34.0595 29.2409C33.9573 29.0847 33.8956 28.9054 33.8799 28.7193C33.8642 28.5332 33.8952 28.3461 33.9699 28.175L38.2524 18.386Z" fill="white"/>
<defs>
<linearGradient id="paint0_linear_189_27075" x1="64" y1="7.62939e-06" x2="7.62939e-06" y2="64" gradientUnits="userSpaceOnUse">
<stop stop-color="#F65A75"/>
<stop offset="1" stop-color="#48179C"/>
</linearGradient>
</defs>
</svg>
