<svg width="64" height="64" viewBox="0 0 64 64" fill="none" xmlns="http://www.w3.org/2000/svg">
<rect width="64" height="64" rx="32" fill="url(#paint0_linear_46_257)"/>
<path d="M48.5468 30.5483H48.2874C47.9468 26.7279 46.2749 23.1482 43.5626 20.4374C40.8516 17.7249 37.2717 16.0529 33.4517 15.7125V15.4531C33.4517 14.65 32.8016 14 32.0001 14C31.1985 14 30.5485 14.65 30.5485 15.4531V15.7125V15.711C29.1563 15.8344 27.786 16.1344 26.4704 16.6063C26.4408 16.6172 26.4111 16.6297 26.3845 16.6469C24.5314 15.5844 22.3017 15.3985 20.2968 16.1391C18.2921 16.8798 16.7187 18.4719 16.0016 20.4844C15.2844 22.4969 15.4953 24.7252 16.5797 26.5656C16.5625 26.5938 16.55 26.6219 16.5391 26.6531C16.1047 27.9125 15.8266 29.2204 15.711 30.5485H15.4531C14.65 30.5485 14 31.1985 14 32.0001C14 32.8017 14.65 33.4517 15.4531 33.4517H15.711C16.0516 37.272 17.7251 40.8518 20.4358 43.5642C23.1483 46.2751 26.7279 47.9486 30.5483 48.289V48.5469C30.5483 49.35 31.1983 50 31.9999 50C32.8015 50 33.4515 49.35 33.4515 48.5469V48.289C37.2719 47.9484 40.8516 46.2749 43.5624 43.5626C46.2749 40.8516 47.9469 37.2717 48.2873 33.4517H48.5467C49.3498 33.4517 49.9998 32.8017 49.9998 32.0001C49.9998 31.1985 49.3499 30.5483 48.5468 30.5483ZM47.4234 30.5483H44.5796C44.253 27.7092 42.9749 25.0654 40.9545 23.045C38.9342 21.0246 36.2905 19.7465 33.4512 19.4184V16.5746C37.0404 16.923 40.3949 18.5059 42.945 21.0543C45.4934 23.6043 47.0762 26.9591 47.423 30.548L47.4234 30.5483ZM43.6077 33.453H43.7124L43.7139 33.4515C43.3967 36.064 42.2139 38.4935 40.3545 40.3547C38.4936 42.2141 36.0637 43.3985 33.4512 43.7141V43.6079V43.6095C33.4512 42.8063 32.8012 42.1563 31.9997 42.1563C31.1981 42.1563 30.5481 42.8063 30.5481 43.6095V43.7157V43.7141C27.9356 43.3985 25.5044 42.2157 23.6432 40.3563C21.7838 38.4954 20.601 36.0643 20.2854 33.4514H20.3916C21.1932 33.4514 21.8432 32.8014 21.8432 31.9998C21.8432 31.1983 21.1932 30.5483 20.3916 30.5483H20.2854C20.3197 30.2733 20.365 29.9983 20.4166 29.7264H20.415C22.1447 30.3311 24.0385 30.2576 25.7135 29.5186C27.3901 28.7795 28.7229 27.431 29.4417 25.7466C30.1604 24.0622 30.212 22.1669 29.587 20.4466C29.9042 20.3809 30.2276 20.3262 30.5464 20.2872V20.3919C30.5464 21.1934 31.1964 21.8435 31.9979 21.8435C32.7995 21.8435 33.4511 21.1934 33.4511 20.3919V20.2872C36.0605 20.6059 38.4903 21.7888 40.3496 23.6481C42.2105 25.5075 43.3934 27.9374 43.7137 30.5482H43.6074C42.8059 30.5482 42.1559 31.1982 42.1559 31.9998C42.1559 32.8014 42.8059 33.4514 43.6074 33.4514L43.6077 33.453ZM31.4075 15.4528V15.4512C31.4091 15.1247 31.6732 14.8606 31.9997 14.8606C32.3263 14.8606 32.5904 15.1247 32.5919 15.4528V20.3905C32.5919 20.717 32.3263 20.9827 31.9997 20.9827C31.6732 20.9827 31.4075 20.717 31.4075 20.3905V15.4528ZM30.5482 16.5762V19.4216V19.42C30.1075 19.47 29.6685 19.5435 29.2357 19.6404C28.7591 18.7091 28.0872 17.8919 27.2669 17.2434C28.3325 16.9028 29.4325 16.6794 30.5482 16.5762ZM22.8029 16.5559C24.4888 16.5559 26.1076 17.2247 27.2997 18.4184C28.4919 19.6107 29.1622 21.2278 29.1622 22.9153C29.1622 24.6028 28.4919 26.22 27.2997 27.4122C26.1075 28.6059 24.4888 29.2747 22.8029 29.2747C21.1153 29.2747 19.4981 28.6059 18.306 27.4122C17.1122 26.2199 16.4419 24.6028 16.4419 22.9153C16.4435 21.2294 17.1138 19.6121 18.306 18.42C19.4998 17.2278 21.117 16.5559 22.8029 16.5559ZM17.1856 27.4421C17.8434 28.2577 18.67 28.9202 19.6075 29.3859C19.5278 29.7687 19.4637 30.1577 19.4184 30.5484H16.5746C16.6715 29.4952 16.8762 28.453 17.1856 27.4421ZM14.8606 32.0001C14.8606 31.6736 15.1246 31.4095 15.4528 31.4079H20.392C20.7186 31.4079 20.9827 31.6735 20.9827 32.0001C20.9827 32.3267 20.7186 32.5923 20.392 32.5923H15.4528C15.1246 32.5908 14.8606 32.3267 14.8606 32.0001ZM16.5747 33.4517H19.4185C19.7466 36.2908 21.0247 38.9346 23.0451 40.955C25.0654 42.9754 27.7091 44.2535 30.5484 44.5816V47.4254C26.9592 47.0816 23.6015 45.4988 21.0514 42.9489C18.5014 40.3991 16.9186 37.0409 16.575 33.452L16.5747 33.4517ZM32.5921 48.5471C32.5921 48.8752 32.3264 49.1393 31.9999 49.1393C31.6733 49.1393 31.4076 48.8752 31.4076 48.5471V43.6094C31.4076 43.2829 31.6733 43.0172 31.9999 43.0172C32.3264 43.0172 32.5921 43.2829 32.5921 43.6094V48.5471ZM33.453 47.4236L33.4514 44.5814C36.2905 44.2533 38.9343 42.9751 40.9547 40.9548C42.9751 38.9345 44.2532 36.2907 44.5798 33.4515H47.4236C47.0798 37.0406 45.497 40.3984 42.9471 42.9468C40.3986 45.4969 37.0406 47.0797 33.4518 47.4249L33.453 47.4236ZM48.5468 32.5923H43.6075C43.281 32.5923 43.0169 32.3266 43.0169 32.0001C43.0169 31.6735 43.2809 31.4078 43.6075 31.4078H48.5468C48.8749 31.4078 49.139 31.6735 49.139 32.0001C49.139 32.3266 48.8749 32.5923 48.5468 32.5923ZM26.8229 35.0173H24.8166C24.7026 35.0173 24.5932 35.0626 24.512 35.1439C24.4307 35.2251 24.3854 35.3345 24.387 35.4485V38.9205C24.3854 39.0345 24.4307 39.1439 24.512 39.2252C24.5932 39.3048 24.7026 39.3502 24.8166 39.3502H26.8229C27.0604 39.3502 27.2542 39.158 27.2542 38.9205V35.4486C27.2542 35.3345 27.2088 35.2251 27.1276 35.1439C27.0463 35.0626 26.937 35.0173 26.8229 35.0173ZM26.3932 38.4892H25.2463V35.8798H26.3932V38.4892ZM30.9433 33.6844H28.937C28.6979 33.6844 28.5058 33.8781 28.5058 34.1156V38.9205C28.5058 39.0345 28.5511 39.1439 28.6323 39.2251C28.712 39.3048 28.8214 39.3501 28.937 39.3501H30.9433C31.1808 39.3501 31.373 39.158 31.373 38.9205V34.1156C31.373 33.8781 31.1808 33.6844 30.9433 33.6844ZM30.512 38.4892H29.3667V34.5454H30.5136L30.512 38.4892ZM35.0621 32.0171H33.0558C32.8183 32.0171 32.6261 32.2109 32.6261 32.4484V38.9205C32.6261 39.0345 32.6715 39.1439 32.7511 39.2251C32.8324 39.3048 32.9418 39.3501 33.0558 39.3501H35.0621C35.3012 39.3501 35.4933 39.158 35.4933 38.9205V32.4484C35.4933 32.3343 35.448 32.2249 35.3668 32.1437C35.2871 32.0624 35.1777 32.0171 35.0621 32.0171ZM34.6324 38.4892H33.4855V32.8799H34.6324V38.4892ZM39.1825 29.3499H37.1762C36.9387 29.3499 36.745 29.5437 36.745 29.7811V38.9205C36.745 39.0345 36.7903 39.1439 36.8715 39.2251C36.9528 39.3048 37.0621 39.3501 37.1762 39.3501H39.184H39.1825C39.2965 39.3501 39.4059 39.3048 39.4872 39.2251C39.5684 39.1439 39.6137 39.0345 39.6122 38.9205V29.7811C39.6137 29.6671 39.5684 29.5577 39.4872 29.4764C39.4059 29.3952 39.2965 29.3499 39.1825 29.3499ZM38.7528 38.4892H37.6059V30.2095H38.7528V38.4892ZM37.9152 28.7999C38.0246 28.9093 38.1824 28.9515 38.3309 28.9108C38.4793 28.8718 38.595 28.7561 38.6356 28.6077L39.5512 25.1905C39.5903 25.042 39.5481 24.8826 39.4387 24.7748C39.3309 24.6654 39.1715 24.6232 39.0231 24.6623L35.6058 25.578C35.4574 25.6186 35.3418 25.7342 35.3027 25.8827C35.2621 26.0311 35.3043 26.1905 35.4137 26.2983L35.9152 26.7999C33.0199 29.703 29.3463 31.7031 25.3371 32.5591C25.123 32.606 24.9761 32.8076 24.9996 33.0263C25.023 33.2451 25.2074 33.4107 25.4277 33.4107C25.4386 33.4123 25.4511 33.4123 25.4621 33.4107C29.9041 33.0513 34.117 31.2888 37.4886 28.3747L37.9152 28.7999ZM32.2856 30.728C33.9544 29.7233 35.4825 28.5014 36.8308 27.0967C36.9933 26.928 36.9902 26.6592 36.8246 26.4936L36.5496 26.2186L38.5262 25.6889L37.9965 27.6655L37.8105 27.4796V27.4811C37.6496 27.3186 37.3887 27.3124 37.2183 27.4655C35.7449 28.7921 34.0825 29.8921 32.2856 30.728ZM21.015 21.5575C21.0166 20.7356 21.576 20.0216 22.3713 19.8231V19.4559C22.3713 19.2184 22.565 19.0247 22.8025 19.0247C23.04 19.0247 23.2322 19.2185 23.2322 19.4559V19.8247V19.8231C23.8104 19.9669 24.2791 20.3888 24.4822 20.9482C24.5572 21.17 24.4401 21.4106 24.2213 21.4904C24.001 21.57 23.7588 21.4591 23.6729 21.2419C23.5557 20.9154 23.2682 20.6826 22.9244 20.6372C22.5822 20.5904 22.2432 20.7388 22.0432 21.0216C21.8447 21.306 21.8197 21.6747 21.9791 21.9825C22.14 22.2888 22.4557 22.481 22.8025 22.481C23.7041 22.4826 24.4619 23.156 24.5713 24.0513C24.6807 24.9467 24.1072 25.7826 23.2322 26.0014V26.3685C23.2322 26.6061 23.04 26.7982 22.8025 26.7982C22.565 26.7982 22.3713 26.606 22.3713 26.3685V26.0014C21.7947 25.8576 21.3275 25.4373 21.1213 24.8795C21.0478 24.6576 21.1635 24.4185 21.3838 24.3388C21.6025 24.2591 21.8463 24.3685 21.9307 24.5873C22.0479 24.9123 22.3369 25.1451 22.6791 25.1919C23.0229 25.2373 23.3619 25.0888 23.5604 24.806C23.7588 24.5232 23.7838 24.1529 23.6244 23.8466C23.4651 23.5388 23.1479 23.3466 22.8025 23.3466C21.815 23.3466 21.015 22.5451 21.015 21.5575ZM22.8026 28.384C25.0151 28.384 27.0106 27.0512 27.8574 25.0074C28.7043 22.9621 28.2356 20.6089 26.6715 19.0449C25.1058 17.4808 22.7527 17.0121 20.709 17.859C18.6652 18.7059 17.3309 20.7012 17.3309 22.9139C17.3356 25.9342 19.7825 28.3811 22.8029 28.3843L22.8026 28.384ZM22.8026 18.3043C24.6667 18.3043 26.3479 19.4277 27.0618 21.1496C27.7759 22.8731 27.3806 24.8559 26.0618 26.1745C24.7431 27.4931 22.7602 27.887 21.037 27.1729C19.3151 26.4589 18.1916 24.7776 18.1916 22.9137C18.1947 20.3683 20.2573 18.3056 22.8025 18.3028L22.8026 18.3043Z" fill="white"/>
<defs>
<linearGradient id="paint0_linear_46_257" x1="64" y1="7.62939e-06" x2="7.62939e-06" y2="64" gradientUnits="userSpaceOnUse">
<stop stop-color="#F65A75"/>
<stop offset="1" stop-color="#48179C"/>
</linearGradient>
</defs>
</svg>
