<svg width="64" height="64" viewBox="0 0 64 64" fill="none" xmlns="http://www.w3.org/2000/svg">
<rect width="64" height="64" rx="32" fill="url(#paint0_linear_119_17626)"/>
<path d="M23.7798 42.6913L27.4908 41.1747C27.1638 40.1997 26.8843 39.2073 26.6523 38.1973C26.4213 37.1873 26.2528 36.1632 26.1468 35.1252L24.1818 36.4392C24.0478 36.5362 23.9468 36.6472 23.8788 36.7722C23.8108 36.8972 23.7773 37.0362 23.7783 37.1892L23.7798 42.6913ZM28.9998 41.0007H34.9998C35.4498 39.7897 35.8123 38.4652 36.0873 37.0272C36.3623 35.5892 36.4998 34.0917 36.4998 32.5347C36.4998 30.2707 36.1548 28.1862 35.4648 26.2812C34.7748 24.3763 33.6198 22.5362 31.9998 20.7612C30.3798 22.5382 29.2248 24.3787 28.5348 26.2827C27.8448 28.1867 27.4998 30.2713 27.4998 32.5363C27.4998 34.0943 27.6373 35.5917 27.9123 37.0287C28.1873 38.4657 28.5498 39.7897 28.9998 41.0007ZM30.4008 32.0997C29.9668 31.6667 29.7498 31.1337 29.7498 30.5007C29.7498 29.8677 29.9668 29.3347 30.4008 28.9017C30.8348 28.4687 31.3678 28.2517 31.9998 28.2507C32.6318 28.2497 33.1648 28.4667 33.5988 28.9017C34.0328 29.3347 34.2498 29.8677 34.2498 30.5007C34.2498 31.1337 34.0328 31.6667 33.5988 32.0997C33.1648 32.5327 32.6318 32.7497 31.9998 32.7507C31.3678 32.7517 30.8348 32.5347 30.4008 32.0997ZM40.2213 42.6913V37.2192C40.2213 37.0652 40.1873 36.9212 40.1193 36.7872C40.0523 36.6522 39.9513 36.5362 39.8163 36.4392L37.8528 35.1252C37.7468 36.1632 37.5538 37.2882 37.2738 38.5002C36.9938 39.7122 36.7388 40.6132 36.5088 41.2032L40.2213 42.6913ZM31.9998 18.7812C34.0708 20.6192 35.5883 22.6903 36.5523 24.9943C37.5173 27.2983 37.9998 29.8647 37.9998 32.6937C37.9998 32.8087 38.0048 32.9287 38.0148 33.0537C38.0248 33.1787 38.0198 33.3087 37.9998 33.4437L40.6023 35.1972C40.9503 35.4142 41.2238 35.7043 41.4228 36.0673C41.6218 36.4303 41.7213 36.8142 41.7213 37.2192V44.8948L35.7588 42.5007H28.2123L22.2783 44.8948V37.1907C22.2783 36.7867 22.3733 36.4028 22.5633 36.0388C22.7523 35.6758 23.0208 35.3858 23.3688 35.1688L25.9998 33.4138V32.6937C25.9998 29.8637 26.4823 27.2973 27.4473 24.9943C28.4113 22.6903 29.9288 20.6192 31.9998 18.7812Z" fill="white"/>
<defs>
<linearGradient id="paint0_linear_119_17626" x1="64" y1="7.62939e-06" x2="7.62939e-06" y2="64" gradientUnits="userSpaceOnUse">
<stop stop-color="#F65A75"/>
<stop offset="1" stop-color="#48179C"/>
</linearGradient>
</defs>
</svg>
