<svg width="64" height="64" viewBox="0 0 64 64" fill="none" xmlns="http://www.w3.org/2000/svg">
<rect width="64" height="64" rx="32" fill="url(#paint0_linear_189_27068)"/>
<path d="M38 18.875H26C24.56 18.875 23.375 20.06 23.375 21.5V42.5C23.375 43.94 24.56 45.125 26 45.125H38C39.44 45.125 40.625 43.94 40.625 42.5V21.5C40.625 20.06 39.44 18.875 38 18.875ZM38.375 42.5C38.375 42.71 38.21 42.875 38 42.875H26C25.79 42.875 25.625 42.71 25.625 42.5V21.5C25.625 21.29 25.79 21.125 26 21.125H38C38.21 21.125 38.375 21.29 38.375 21.5V42.5ZM33.5 38C33.5 38.825 32.825 39.5 32 39.5C31.175 39.5 30.5 38.825 30.5 38C30.5 37.175 31.175 36.5 32 36.5C32.825 36.5 33.5 37.175 33.5 38Z" fill="white"/>
<defs>
<linearGradient id="paint0_linear_189_27068" x1="64" y1="7.62939e-06" x2="7.62939e-06" y2="64" gradientUnits="userSpaceOnUse">
<stop stop-color="#F65A75"/>
<stop offset="1" stop-color="#48179C"/>
</linearGradient>
</defs>
</svg>
