<svg width="64" height="64" viewBox="0 0 64 64" fill="none" xmlns="http://www.w3.org/2000/svg">
<rect width="64" height="64" rx="32" fill="url(#paint0_linear_189_27096)"/>
<path fill-rule="evenodd" clip-rule="evenodd" d="M18.5 21.5C18.5 20.7044 18.8161 19.9413 19.3787 19.3787C19.9413 18.8161 20.7044 18.5 21.5 18.5H42.5C43.2956 18.5 44.0587 18.8161 44.6213 19.3787C45.1839 19.9413 45.5 20.7044 45.5 21.5V42.5C45.5 43.2956 45.1839 44.0587 44.6213 44.6213C44.0587 45.1839 43.2956 45.5 42.5 45.5H21.5C20.7044 45.5 19.9413 45.1839 19.3787 44.6213C18.8161 44.0587 18.5 43.2956 18.5 42.5V21.5ZM42.5 21.5H21.5V26H42.5V21.5ZM21.5 42.5V29H27.5V42.5H21.5ZM30.5 42.5H42.5V29H30.5V42.5Z" fill="white"/>
<defs>
<linearGradient id="paint0_linear_189_27096" x1="64" y1="7.62939e-06" x2="7.62939e-06" y2="64" gradientUnits="userSpaceOnUse">
<stop stop-color="#F65A75"/>
<stop offset="1" stop-color="#48179C"/>
</linearGradient>
</defs>
</svg>
