<svg width="56" height="56" viewBox="0 0 56 56" fill="none" xmlns="http://www.w3.org/2000/svg">
<g clip-path="url(#clip0_48_223)">
<path d="M52.5 0.4375H3.5C2.68808 0.438482 1.90969 0.761452 1.33557 1.33557C0.761452 1.90969 0.438482 2.68808 0.4375 3.5V52.5C0.438482 53.3119 0.761452 54.0903 1.33557 54.6644C1.90969 55.2385 2.68808 55.5615 3.5 55.5625H28.875C29.2231 55.5625 29.5569 55.4242 29.8031 55.1781C30.0492 54.9319 30.1875 54.5981 30.1875 54.25C30.1875 53.9019 30.0492 53.5681 29.8031 53.3219C29.5569 53.0758 29.2231 52.9375 28.875 52.9375H3.5C3.38401 52.9373 3.27282 52.8912 3.19081 52.8092C3.10879 52.7272 3.06265 52.616 3.0625 52.5V13.5625H52.9375V28.875C52.9375 29.2231 53.0758 29.5569 53.3219 29.8031C53.5681 30.0492 53.9019 30.1875 54.25 30.1875C54.5981 30.1875 54.9319 30.0492 55.1781 29.8031C55.4242 29.5569 55.5625 29.2231 55.5625 28.875V3.5C55.5615 2.68808 55.2385 1.90969 54.6644 1.33557C54.0903 0.761452 53.3119 0.438482 52.5 0.4375ZM3.0625 10.9375V3.5C3.06265 3.38401 3.10879 3.27282 3.19081 3.19081C3.27282 3.10879 3.38401 3.06265 3.5 3.0625H52.5C52.616 3.06265 52.7272 3.10879 52.8092 3.19081C52.8912 3.27282 52.9373 3.38401 52.9375 3.5V10.9375H3.0625Z" fill="#A2DAFD"/>
<path d="M7.4375 8.75C8.404 8.75 9.1875 7.9665 9.1875 7C9.1875 6.0335 8.404 5.25 7.4375 5.25C6.471 5.25 5.6875 6.0335 5.6875 7C5.6875 7.9665 6.471 8.75 7.4375 8.75Z" fill="#A2DAFD"/>
<path d="M13.5625 8.75C14.529 8.75 15.3125 7.9665 15.3125 7C15.3125 6.0335 14.529 5.25 13.5625 5.25C12.596 5.25 11.8125 6.0335 11.8125 7C11.8125 7.9665 12.596 8.75 13.5625 8.75Z" fill="#A2DAFD"/>
<path d="M19.6875 8.75C20.654 8.75 21.4375 7.9665 21.4375 7C21.4375 6.0335 20.654 5.25 19.6875 5.25C18.721 5.25 17.9375 6.0335 17.9375 7C17.9375 7.9665 18.721 8.75 19.6875 8.75Z" fill="#A2DAFD"/>
<path d="M49 5.6875H29.75C29.4019 5.6875 29.0681 5.82578 28.8219 6.07192C28.5758 6.31806 28.4375 6.6519 28.4375 7C28.4375 7.3481 28.5758 7.68194 28.8219 7.92808C29.0681 8.17422 29.4019 8.3125 29.75 8.3125H49C49.3481 8.3125 49.6819 8.17422 49.9281 7.92808C50.1742 7.68194 50.3125 7.3481 50.3125 7C50.3125 6.6519 50.1742 6.31806 49.9281 6.07192C49.6819 5.82578 49.3481 5.6875 49 5.6875Z" fill="#A2DAFD"/>
<path d="M7 34.5625H19.25C19.5981 34.5625 19.9319 34.4242 20.1781 34.1781C20.4242 33.9319 20.5625 33.5981 20.5625 33.25V17.5C20.5625 17.1519 20.4242 16.8181 20.1781 16.5719C19.9319 16.3258 19.5981 16.1875 19.25 16.1875H7C6.65191 16.1875 6.31808 16.3258 6.07194 16.5719C5.82581 16.8181 5.68752 17.1519 5.6875 17.5V33.25C5.68752 33.5981 5.8258 33.9319 6.07194 34.1781C6.31808 34.4242 6.65191 34.5625 7 34.5625ZM8.3125 18.8125H17.9375V31.9375H8.3125V18.8125Z" fill="#A2DAFD"/>
<path d="M49 19.6875H24.5C24.1519 19.6875 23.8181 19.8258 23.5719 20.0719C23.3258 20.3181 23.1875 20.6519 23.1875 21C23.1875 21.3481 23.3258 21.6819 23.5719 21.9281C23.8181 22.1742 24.1519 22.3125 24.5 22.3125H49C49.3481 22.3125 49.6819 22.1742 49.9281 21.9281C50.1742 21.6819 50.3125 21.3481 50.3125 21C50.3125 20.6519 50.1742 20.3181 49.9281 20.0719C49.6819 19.8258 49.3481 19.6875 49 19.6875Z" fill="#A2DAFD"/>
<path d="M28.4375 29.75C28.4375 29.4019 28.2992 29.0681 28.0531 28.8219C27.8069 28.5758 27.4731 28.4375 27.125 28.4375H24.5C24.1519 28.4375 23.8181 28.5758 23.5719 28.8219C23.3258 29.0681 23.1875 29.4019 23.1875 29.75C23.1875 30.0981 23.3258 30.4319 23.5719 30.6781C23.8181 30.9242 24.1519 31.0625 24.5 31.0625H27.125C27.4731 31.0625 27.8069 30.9242 28.0531 30.6781C28.2992 30.4319 28.4375 30.0981 28.4375 29.75Z" fill="#A2DAFD"/>
<path d="M7 41.5625H22.75C23.0981 41.5625 23.4319 41.4242 23.6781 41.1781C23.9242 40.9319 24.0625 40.5981 24.0625 40.25C24.0625 39.9019 23.9242 39.5681 23.6781 39.3219C23.4319 39.0758 23.0981 38.9375 22.75 38.9375H7C6.6519 38.9375 6.31806 39.0758 6.07192 39.3219C5.82578 39.5681 5.6875 39.9019 5.6875 40.25C5.6875 40.5981 5.82578 40.9319 6.07192 41.1781C6.31806 41.4242 6.6519 41.5625 7 41.5625Z" fill="#A2DAFD"/>
<path d="M7 49.4375H24.5C24.8481 49.4375 25.1819 49.2992 25.4281 49.0531C25.6742 48.8069 25.8125 48.4731 25.8125 48.125C25.8125 47.7769 25.6742 47.4431 25.4281 47.1969C25.1819 46.9508 24.8481 46.8125 24.5 46.8125H7C6.6519 46.8125 6.31806 46.9508 6.07192 47.1969C5.82578 47.4431 5.6875 47.7769 5.6875 48.125C5.6875 48.4731 5.82578 48.8069 6.07192 49.0531C6.31806 49.2992 6.6519 49.4375 7 49.4375Z" fill="#A2DAFD"/>
<path d="M41.125 47.6875C42.3331 47.6875 43.3125 46.7081 43.3125 45.5C43.3125 44.2919 42.3331 43.3125 41.125 43.3125C39.9169 43.3125 38.9375 44.2919 38.9375 45.5C38.9375 46.7081 39.9169 47.6875 41.125 47.6875Z" fill="#A2DAFD"/>
<path d="M41.125 26.6875C38.2695 26.6875 35.4782 27.5342 33.104 29.1207C30.7297 30.7071 28.8792 32.9619 27.7865 35.6C26.6938 38.2381 26.4078 41.141 26.9649 43.9416C27.522 46.7422 28.897 49.3147 30.9162 51.3339C32.9353 53.353 35.5078 54.728 38.3084 55.2851C41.109 55.8422 44.0119 55.5562 46.65 54.4635C49.2881 53.3708 51.5429 51.5203 53.1294 49.146C54.7158 46.7718 55.5625 43.9805 55.5625 41.125C55.5581 37.2973 54.0356 33.6276 51.329 30.921C48.6224 28.2144 44.9527 26.6919 41.125 26.6875ZM50.1993 36.7184L45.1038 42.7971C45.7621 43.7616 46.0492 44.9318 45.912 46.0914C45.7748 47.2511 45.2225 48.3219 44.3573 49.1061C43.4921 49.8904 42.3723 50.335 41.2048 50.358C40.0373 50.3809 38.9009 49.9806 38.0055 49.231C37.1102 48.4814 36.5163 47.4331 36.3336 46.2798C36.1509 45.1264 36.3917 43.9459 37.0116 42.9563C37.6314 41.9666 38.5885 41.2347 39.7059 40.8957C40.8234 40.5567 42.0258 40.6335 43.091 41.112L47.5264 35.8203C46.2652 34.301 44.5046 33.2801 42.5595 32.9402C40.6144 32.6003 38.6118 32.9637 36.9102 33.9653C35.2085 34.9668 33.9187 36.5412 33.2717 38.4068C32.6247 40.2723 32.6626 42.3072 33.3786 44.1473C33.4414 44.3079 33.4719 44.4792 33.4684 44.6515C33.4649 44.8238 33.4275 44.9937 33.3584 45.1516C33.2892 45.3095 33.1896 45.4522 33.0653 45.5715C32.941 45.6909 32.7944 45.7846 32.6339 45.8474C32.4734 45.9101 32.3021 45.9406 32.1298 45.9371C31.9575 45.9336 31.7875 45.8963 31.6297 45.8271C31.4718 45.758 31.3291 45.6584 31.2097 45.5341C31.0903 45.4098 30.9966 45.2632 30.9339 45.1027C29.9499 42.5804 29.9362 39.7829 30.8953 37.2512C31.8545 34.7194 33.7184 32.6332 36.1267 31.3962C38.5349 30.1591 41.3163 29.859 43.9329 30.5538C46.5496 31.2487 48.8157 32.8892 50.2929 35.1581C50.4466 35.3938 50.5205 35.6727 50.5037 35.9537C50.4868 36.2346 50.3801 36.5027 50.1993 36.7184Z" fill="#A2DAFD"/>
</g>
<defs>
<clipPath id="clip0_48_223">
<rect width="56" height="56" fill="white"/>
</clipPath>
</defs>
</svg>
