<svg width="64" height="64" viewBox="0 0 64 64" fill="none" xmlns="http://www.w3.org/2000/svg">
<rect width="64" height="64" rx="32" fill="url(#paint0_linear_189_27058)"/>
<path d="M42.6068 33.713L34.1213 42.2C33.5587 42.7624 32.7958 43.0783 32.0003 43.0783C31.2048 43.0783 30.4419 42.7624 29.8793 42.2L21.3938 33.7145C20.6924 33.0191 20.1352 32.1921 19.7542 31.2809C19.3732 30.3696 19.176 29.3921 19.1738 28.4044C19.1717 27.4167 19.3646 26.4384 19.7416 25.5255C20.1186 24.6126 20.6721 23.7831 21.3705 23.0847C22.0689 22.3863 22.8984 21.8327 23.8113 21.4558C24.7242 21.0788 25.7026 20.8859 26.6903 20.888C27.6779 20.8902 28.6554 21.0874 29.5667 21.4684C30.4779 21.8493 31.305 22.4065 32.0003 23.108C33.4127 21.7308 35.3107 20.9655 37.2833 20.9778C39.256 20.9902 41.1443 21.7792 42.5393 23.174C43.9343 24.5688 44.7236 26.457 44.7362 28.4296C44.7488 30.4023 43.9838 32.3004 42.6068 33.713Z" stroke="white" stroke-width="3" stroke-linecap="round" stroke-linejoin="round"/>
<defs>
<linearGradient id="paint0_linear_189_27058" x1="64" y1="7.62939e-06" x2="7.62939e-06" y2="64" gradientUnits="userSpaceOnUse">
<stop stop-color="#F65A75"/>
<stop offset="1" stop-color="#48179C"/>
</linearGradient>
</defs>
</svg>
