<svg width="64" height="64" viewBox="0 0 64 64" fill="none" xmlns="http://www.w3.org/2000/svg">
<rect width="64" height="64" rx="32" fill="url(#paint0_linear_46_265)"/>
<path fill-rule="evenodd" clip-rule="evenodd" d="M18.3299 22.0929V30.1958C18.3299 30.5258 18.5984 30.7943 18.9299 30.7943H25.4562C25.7877 30.7943 26.0562 30.5258 26.0562 30.1958V22.0929H28.1757C28.4292 22.0929 28.6557 21.9339 28.7397 21.6953C28.8252 21.4569 28.7517 21.1899 28.5552 21.0294L22.5734 16.135C22.3514 15.955 22.0349 15.955 21.8129 16.135L15.831 21.0294C15.6345 21.1899 15.561 21.4569 15.6465 21.6953C15.732 21.9338 15.9585 22.0929 16.2105 22.0929H18.3299ZM19.5299 21.4944C19.5299 21.1629 19.2614 20.8944 18.9299 20.8944H17.8919L22.1938 17.3739L26.4941 20.8944H25.4562C25.1247 20.8944 24.8562 21.1629 24.8562 21.4944V29.5958H19.5298L19.5299 21.4944Z" fill="white"/>
<path fill-rule="evenodd" clip-rule="evenodd" d="M33.3556 26.5964C30.9827 27.4889 29.2953 29.7793 29.2953 32.4642V33.8442H25.7629C24.215 33.8442 22.676 34.0932 21.2076 34.5837C20.0286 34.9766 18.9097 35.5241 17.8762 36.2126C16.3717 37.2161 14.2673 38.6186 14.2673 38.6186C14.0048 38.7941 13.9223 39.1421 14.0798 39.415L19.1765 48.3367C19.259 48.4822 19.3985 48.5857 19.5605 48.6247C19.7225 48.6622 19.8935 48.6307 20.0315 48.5392C20.0315 48.5392 23.0314 46.5397 24.4278 45.6068C24.7863 45.3683 25.2078 45.2408 25.6383 45.2408H36.9583C37.4623 45.2408 37.9528 45.0863 38.3638 44.7968C40.0423 43.6223 45.7257 39.6444 48.7316 37.5413C50.0561 36.6143 50.3965 34.8008 49.4996 33.4552C49.4996 33.4552 49.4996 33.4537 49.4981 33.4537C48.6161 32.1293 46.8446 31.7408 45.4888 32.5732L43.2404 33.9547V32.4638C43.2404 30.8018 42.5804 29.2073 41.4044 28.0329C40.7685 27.3939 40.0065 26.9079 39.1785 26.5974C40.8464 25.6029 41.9669 23.7805 41.9669 21.6969C41.9669 18.553 39.4125 16 36.2685 16C33.123 16 30.5685 18.5529 30.5685 21.6969C30.5685 23.7789 31.6875 25.6013 33.3554 26.5959L33.3556 26.5964ZM37.848 37.2687C38.076 37.0332 38.217 36.7122 38.217 36.3582V36.3552C38.217 36.0072 38.079 35.6742 37.8345 35.4282C37.5885 35.1822 37.254 35.0442 36.906 35.0442H25.7625C24.3421 35.0442 22.9321 35.2737 21.5866 35.7222C20.5097 36.0807 19.4867 36.5817 18.5417 37.2116L15.3993 39.3071L19.9008 47.1851L23.7634 44.6096C24.3184 44.2391 24.9708 44.0411 25.6398 44.0411H36.9587C37.2167 44.0411 37.4672 43.9631 37.6772 43.8146L48.0435 36.5591C48.8324 36.0056 49.0364 34.9227 48.5024 34.1216L48.5009 34.1187C47.976 33.3312 46.923 33.1017 46.116 33.5952L38.5952 38.2165C38.1481 38.6215 37.5572 38.869 36.9062 38.869H32.4438C32.1123 38.869 31.8439 38.599 31.8439 38.269C31.8439 37.9375 32.1123 37.669 32.4438 37.669H36.9062C37.2257 37.669 37.5167 37.555 37.7447 37.366C37.7747 37.33 37.809 37.2972 37.848 37.2687ZM42.0404 34.6917V32.4643C42.0404 31.1203 41.5064 29.8318 40.5569 28.8809C39.6059 27.9314 38.3175 27.3974 36.9735 27.3974H35.5605C32.7646 27.3974 30.4953 29.6653 30.4953 32.4642V33.8442H36.906C37.572 33.8442 38.211 34.1097 38.682 34.5792C39.141 35.0381 39.4035 35.6561 39.417 36.3026L42.0404 34.6917ZM36.2686 17.2005C38.751 17.2005 40.7671 19.215 40.7671 21.6975C40.7671 24.1814 38.7511 26.1975 36.2686 26.1975C33.7846 26.1975 31.7686 24.1815 31.7686 21.6975C31.7686 19.215 33.7846 17.2005 36.2686 17.2005Z" fill="white"/>
<defs>
<linearGradient id="paint0_linear_46_265" x1="64" y1="7.62939e-06" x2="7.62939e-06" y2="64" gradientUnits="userSpaceOnUse">
<stop stop-color="#F65A75"/>
<stop offset="1" stop-color="#48179C"/>
</linearGradient>
</defs>
</svg>
