<svg width="64" height="64" viewBox="0 0 64 64" fill="none" xmlns="http://www.w3.org/2000/svg">
<rect width="64" height="64" rx="32" fill="url(#paint0_linear_189_27085)"/>
<path d="M16.9632 36.6148C16.8773 36.6978 16.8087 36.7971 16.7615 36.9069C16.7144 37.0167 16.6895 37.1348 16.6885 37.2543C16.6875 37.3738 16.7102 37.4923 16.7555 37.6029C16.8007 37.7135 16.8676 37.814 16.9521 37.8985C17.0366 37.983 17.1371 38.0499 17.2477 38.0951C17.3583 38.1404 17.4768 38.1631 17.5963 38.1621C17.7158 38.1611 17.8339 38.1362 17.9437 38.0891C18.0535 38.0419 18.1528 37.9733 18.2358 37.8874L16.9632 36.6148ZM41.7825 27.0689C41.9514 26.9001 42.0462 26.6712 42.0462 26.4324C42.0462 26.1937 41.9514 25.9647 41.7825 25.7959C41.6137 25.6271 41.3848 25.5322 41.146 25.5322C40.9073 25.5322 40.6783 25.6271 40.5095 25.7959L41.7825 27.0689ZM18.2358 37.8874L25.7135 30.4097L24.4409 29.1371L16.9632 36.6148L18.2358 37.8874ZM26.9865 30.4097L30.8048 34.2284L32.0774 32.9554L28.2591 29.1371L26.9865 30.4097ZM34.623 34.2284L41.7825 27.0689L40.5095 25.7959L33.35 32.9554L34.623 34.2284ZM30.8048 34.2284C31.3111 34.7347 31.9979 35.0192 32.7139 35.0192C33.43 35.0192 34.1167 34.7347 34.623 34.2284L33.35 32.9554C33.2664 33.039 33.1676 33.1053 33.0584 33.1506C32.9492 33.1958 32.8321 33.2191 32.7139 33.2191C32.5957 33.2191 32.4786 33.1958 32.3694 33.1506C32.2602 33.1053 32.161 33.039 32.0774 32.9554L30.8048 34.2284ZM25.7135 30.4097C25.7971 30.3261 25.8958 30.2598 26.0051 30.2145C26.1143 30.1693 26.2313 30.146 26.3496 30.146C26.4678 30.146 26.5848 30.1693 26.6941 30.2145C26.8033 30.2598 26.9025 30.3261 26.9861 30.4097L28.2591 29.1371C27.7528 28.6308 27.0656 28.3464 26.3496 28.3464C25.6335 28.3464 24.9472 28.6308 24.4409 29.1371L25.7135 30.4097Z" fill="white"/>
<path d="M43.6143 28.9009L38.6778 23.964C38.1792 23.4658 38.532 22.614 39.2367 22.614H43.6143C43.9724 22.614 44.3158 22.7562 44.5689 23.0094C44.8221 23.2625 44.9643 23.6059 44.9643 23.964V28.3416C44.9643 29.0463 44.1125 29.3991 43.6143 28.9009Z" fill="white" stroke="white" stroke-width="1.8" stroke-linecap="round" stroke-linejoin="round"/>
<path d="M17.5996 19.4V43.7C17.5996 43.9387 17.6944 44.1676 17.8632 44.3364C18.032 44.5052 18.2609 44.6 18.4996 44.6H46.3996" stroke="white" stroke-width="1.8" stroke-linecap="round" stroke-linejoin="round"/>
<defs>
<linearGradient id="paint0_linear_189_27085" x1="64" y1="7.62939e-06" x2="7.62939e-06" y2="64" gradientUnits="userSpaceOnUse">
<stop stop-color="#F65A75"/>
<stop offset="1" stop-color="#48179C"/>
</linearGradient>
</defs>
</svg>
