<svg width="56" height="56" viewBox="0 0 56 56" fill="none" xmlns="http://www.w3.org/2000/svg">
<g clip-path="url(#clip0_48_192)">
<path d="M46.5758 10.7832C46.537 10.5005 46.2894 10.3441 46.0852 10.327C45.881 10.31 41.8947 10.2494 41.8947 10.2494C41.8947 10.2494 38.5609 7.01154 38.2315 6.68199C37.9022 6.35245 37.2589 6.45242 37.0092 6.52592C37.0054 6.52701 36.3835 6.71962 35.3339 7.04457C35.1587 6.4756 34.9004 5.77681 34.5322 5.07462C33.3451 2.81012 31.6072 1.61148 29.5067 1.60842C29.5043 1.60842 29.5021 1.60842 29.4996 1.60842C29.354 1.60842 29.2089 1.62209 29.0636 1.63532C29.0019 1.56095 28.9395 1.48723 28.8737 1.4169C27.9592 0.438103 26.7849 -0.0387721 25.3793 0.00246229C22.6659 0.0802279 19.9651 2.03946 17.7745 5.5189C16.2324 7.96781 15.0609 11.0442 14.7277 13.4252C11.6129 14.3898 9.43364 15.0647 9.3865 15.0795C7.81423 15.5729 7.7648 15.6223 7.55863 17.1036C7.40255 18.225 3.28906 50.0376 3.28906 50.0376L37.7678 55.9998L52.711 52.2856C52.711 52.2856 46.6144 11.066 46.5758 10.7832ZM16.6593 12.8269C17.5916 8.46765 21.2443 1.92779 25.4315 1.80737C26.0685 1.79402 26.605 1.93381 27.0631 2.23535C26.3303 2.61587 25.6215 3.16274 24.9566 3.87587C23.2333 5.72452 21.9132 8.59496 21.3868 11.3629C19.744 11.8716 18.1374 12.3692 16.6593 12.8269ZM29.1274 8.96618C27.3212 9.52542 25.3492 10.1361 23.3711 10.7486C23.928 8.61815 24.9822 6.49704 26.2776 5.10743C26.7595 4.59053 27.4337 4.01368 28.2319 3.68435C28.9829 5.24918 29.1455 7.46752 29.1274 8.96618ZM30.931 8.40771C30.911 7.03385 30.7469 5.12296 30.1069 3.47107C32.1655 3.8611 33.1791 6.19035 33.6068 7.5792C32.8135 7.82474 31.9099 8.10452 30.931 8.40771Z" fill="#95BF47"/>
<path d="M46.0861 10.3277C45.8819 10.3106 41.8956 10.2501 41.8956 10.2501C41.8956 10.2501 38.5617 7.01223 38.2324 6.68268C38.1096 6.55974 37.943 6.49685 37.7695 6.46973L37.7704 56.0002L52.7119 52.2863C52.7119 52.2863 46.6153 11.0666 46.5766 10.7839C46.5379 10.5012 46.2903 10.3448 46.0861 10.3277Z" fill="#5E8E3E"/>
<path d="M29.4873 18.0103L27.7517 24.503C27.7517 24.503 25.8157 23.6214 23.5205 23.7663C20.1551 23.9788 20.1194 26.1017 20.153 26.6337C20.3363 29.5375 27.9752 30.172 28.4046 36.9731C28.7425 42.324 25.5665 45.9841 20.9901 46.2731C15.4985 46.6198 12.4746 43.3793 12.4746 43.3793L13.6382 38.4285C13.6382 38.4285 16.6814 40.7245 19.1174 40.5707C20.7086 40.4702 21.2771 39.1761 21.2194 38.2608C20.9802 34.4729 14.7598 34.6961 14.3668 28.4723C14.036 23.2341 17.4757 17.9276 25.0654 17.4483C27.9898 17.2638 29.4873 18.0103 29.4873 18.0103Z" fill="white"/>
</g>
<defs>
<clipPath id="clip0_48_192">
<rect width="56" height="56" fill="white"/>
</clipPath>
</defs>
</svg>
