<svg width="64" height="64" viewBox="0 0 64 64" fill="none" xmlns="http://www.w3.org/2000/svg">
<rect width="64" height="64" rx="32" fill="url(#paint0_linear_189_27108)"/>
<path d="M43.8503 32.99C43.6099 32.7162 43.4772 32.3643 43.4772 32C43.4772 31.6356 43.6099 31.2837 43.8503 31.01L45.7703 28.85C45.9819 28.614 46.1133 28.317 46.1456 28.0017C46.178 27.6864 46.1096 27.369 45.9503 27.095L42.9503 21.905C42.7927 21.6312 42.5527 21.4143 42.2645 21.285C41.9763 21.1557 41.6546 21.1207 41.3453 21.185L38.5253 21.755C38.1665 21.8291 37.793 21.7693 37.4752 21.587C37.1574 21.4046 36.9173 21.1122 36.8003 20.765L35.8853 18.02C35.7847 17.722 35.593 17.4633 35.3373 17.2802C35.0816 17.0972 34.7748 16.9992 34.4603 17H28.4603C28.1332 16.9829 27.8095 17.0734 27.5387 17.2575C27.2678 17.4417 27.0647 17.7095 26.9603 18.02L26.1203 20.765C26.0033 21.1122 25.7633 21.4046 25.4455 21.587C25.1277 21.7693 24.7542 21.8291 24.3953 21.755L21.5003 21.185C21.2072 21.1435 20.9083 21.1898 20.6414 21.3179C20.3744 21.4461 20.1514 21.6503 20.0003 21.905L17.0003 27.095C16.8371 27.3659 16.7637 27.6816 16.7906 27.9968C16.8175 28.312 16.9435 28.6106 17.1503 28.85L19.0553 31.01C19.2958 31.2837 19.4284 31.6356 19.4284 32C19.4284 32.3643 19.2958 32.7162 19.0553 32.99L17.1503 35.15C16.9435 35.3893 16.8175 35.6879 16.7906 36.0031C16.7637 36.3183 16.8371 36.634 17.0003 36.905L20.0003 42.095C20.158 42.3687 20.398 42.5857 20.6862 42.7149C20.9744 42.8442 21.2961 42.8792 21.6053 42.815L24.4253 42.245C24.7842 42.1708 25.1577 42.2306 25.4755 42.413C25.7933 42.5953 26.0333 42.8877 26.1503 43.235L27.0653 45.98C27.1697 46.2904 27.3728 46.5582 27.6437 46.7424C27.9145 46.9266 28.2382 47.017 28.5653 47H34.5653C34.8798 47.0008 35.1866 46.9027 35.4423 46.7197C35.698 46.5367 35.8897 46.2779 35.9903 45.98L36.9053 43.235C37.0223 42.8877 37.2624 42.5953 37.5802 42.413C37.898 42.2306 38.2715 42.1708 38.6303 42.245L41.4503 42.815C41.7596 42.8792 42.0813 42.8442 42.3695 42.7149C42.6577 42.5857 42.8977 42.3687 43.0553 42.095L46.0553 36.905C46.2146 36.6309 46.283 36.3135 46.2506 35.9982C46.2183 35.6829 46.0869 35.386 45.8753 35.15L43.8503 32.99ZM41.6153 35L42.8153 36.35L40.8953 39.68L39.1253 39.32C38.045 39.0991 36.9212 39.2826 35.9672 39.8357C35.0133 40.3887 34.2956 41.2727 33.9503 42.32L33.3803 44H29.5403L29.0003 42.29C28.6551 41.2427 27.9374 40.3587 26.9834 39.8057C26.0295 39.2526 24.9057 39.0691 23.8253 39.29L22.0553 39.65L20.1053 36.335L21.3053 34.985C22.0433 34.1599 22.4512 33.0919 22.4512 31.985C22.4512 30.8781 22.0433 29.81 21.3053 28.985L20.1053 27.635L22.0253 24.335L23.7953 24.695C24.8757 24.9158 25.9995 24.7323 26.9534 24.1793C27.9074 23.6262 28.6251 22.7422 28.9703 21.695L29.5403 20H33.3803L33.9503 21.71C34.2956 22.7572 35.0133 23.6412 35.9672 24.1943C36.9212 24.7473 38.045 24.9308 39.1253 24.71L40.8953 24.35L42.8153 27.68L41.6153 29.03C40.8857 29.8531 40.4828 30.915 40.4828 32.015C40.4828 33.1149 40.8857 34.1768 41.6153 35ZM31.4603 26C30.2736 26 29.1136 26.3519 28.1269 27.0111C27.1402 27.6704 26.3712 28.6075 25.9171 29.7039C25.4629 30.8002 25.3441 32.0066 25.5756 33.1705C25.8071 34.3344 26.3786 35.4035 27.2177 36.2426C28.0568 37.0817 29.1259 37.6532 30.2898 37.8847C31.4537 38.1162 32.6601 37.9974 33.7564 37.5432C34.8528 37.0891 35.7899 36.3201 36.4492 35.3334C37.1084 34.3467 37.4603 33.1867 37.4603 32C37.4603 30.4087 36.8282 28.8825 35.703 27.7573C34.5778 26.6321 33.0516 26 31.4603 26ZM31.4603 35C30.867 35 30.287 34.824 29.7936 34.4944C29.3003 34.1647 28.9158 33.6962 28.6887 33.148C28.4616 32.5998 28.4022 31.9966 28.518 31.4147C28.6337 30.8328 28.9195 30.2982 29.339 29.8786C29.7586 29.4591 30.2931 29.1734 30.8751 29.0576C31.457 28.9419 32.0602 29.0013 32.6084 29.2283C33.1566 29.4554 33.6251 29.8399 33.9547 30.3333C34.2844 30.8266 34.4603 31.4066 34.4603 32C34.4603 32.7956 34.1443 33.5587 33.5817 34.1213C33.019 34.6839 32.256 35 31.4603 35Z" fill="white"/>
<defs>
<linearGradient id="paint0_linear_189_27108" x1="64" y1="7.62939e-06" x2="7.62939e-06" y2="64" gradientUnits="userSpaceOnUse">
<stop stop-color="#F65A75"/>
<stop offset="1" stop-color="#48179C"/>
</linearGradient>
</defs>
</svg>
