<svg width="64" height="64" viewBox="0 0 64 64" fill="none" xmlns="http://www.w3.org/2000/svg">
<rect width="64" height="64" rx="32" fill="url(#paint0_linear_119_17623)"/>
<path d="M26.0105 17.5775C23.8675 18.1677 21.7391 18.8099 19.6273 19.5035C19.4343 19.5657 19.2627 19.681 19.1322 19.8362C19.0017 19.9914 18.9175 20.1802 18.8893 20.381C17.6428 29.7343 20.5228 36.5585 23.9585 41.054C25.4125 42.9769 27.1471 44.6706 29.1043 46.0782C29.8828 46.6272 30.5713 47.0232 31.1135 47.2775C31.3835 47.405 31.6033 47.4935 31.7728 47.543C31.8475 47.5657 31.9233 47.5845 32 47.5992C32.0759 47.5844 32.151 47.5656 32.225 47.543C32.396 47.492 32.6165 47.4035 32.8865 47.2775C33.4265 47.0232 34.1173 46.625 34.8958 46.0782C36.8529 44.6706 38.5875 42.9769 40.0415 41.054C43.4773 36.5608 46.3573 29.7343 45.1108 20.381C45.0825 20.1802 44.9983 19.9914 44.8678 19.8362C44.7373 19.681 44.5657 19.5657 44.3728 19.5035C42.908 19.0243 40.4353 18.2435 37.9895 17.5797C35.492 16.9025 33.1948 16.4008 32 16.4008C30.8075 16.4008 28.508 16.9003 26.0105 17.5775ZM25.412 15.26C27.8533 14.5963 30.4475 14 32 14C33.5525 14 36.1468 14.5963 38.588 15.26C41.0855 15.935 43.6033 16.7337 45.0838 17.2175C45.7028 17.4219 46.2515 17.7968 46.6671 18.2991C47.0826 18.8014 47.348 19.4107 47.4328 20.057C48.7738 30.1303 45.662 37.5958 41.8865 42.5345C40.2849 44.6466 38.3759 46.507 36.2233 48.0538C35.4797 48.5902 34.6907 49.0608 33.8653 49.46C33.2353 49.757 32.558 50 32 50C31.442 50 30.767 49.757 30.1348 49.46C29.3093 49.0608 28.5203 48.5902 27.7768 48.0538C25.6241 46.507 23.7152 44.6466 22.1135 42.5345C18.338 37.5958 15.2263 30.1303 16.5673 20.057C16.6521 19.4107 16.9175 18.8014 17.333 18.2991C17.7485 17.7968 18.2973 17.4219 18.9163 17.2175C21.0656 16.5133 23.2315 15.8606 25.412 15.26Z" fill="white"/>
<path d="M38.4215 25.5786C38.5262 25.6831 38.6093 25.8072 38.6661 25.9439C38.7228 26.0806 38.752 26.2271 38.752 26.3751C38.752 26.523 38.7228 26.6696 38.6661 26.8062C38.6093 26.9429 38.5262 27.0671 38.4215 27.1716L31.6715 33.9216C31.567 34.0263 31.4428 34.1094 31.3061 34.1662C31.1695 34.2229 31.0229 34.2521 30.875 34.2521C30.727 34.2521 30.5805 34.2229 30.4438 34.1662C30.3071 34.1094 30.183 34.0263 30.0785 33.9216L26.7035 30.5466C26.5989 30.442 26.5159 30.3178 26.4593 30.1811C26.4027 30.0445 26.3735 29.898 26.3735 29.7501C26.3735 29.6021 26.4027 29.4557 26.4593 29.319C26.5159 29.1823 26.5989 29.0582 26.7035 28.9536C26.8081 28.849 26.9322 28.766 27.0689 28.7094C27.2056 28.6528 27.352 28.6236 27.5 28.6236C27.6479 28.6236 27.7944 28.6528 27.931 28.7094C28.0677 28.766 28.1919 28.849 28.2965 28.9536L30.875 31.5343L36.8285 25.5786C36.933 25.4738 37.0571 25.3907 37.1938 25.334C37.3305 25.2772 37.477 25.248 37.625 25.248C37.7729 25.248 37.9195 25.2772 38.0561 25.334C38.1928 25.3907 38.317 25.4738 38.4215 25.5786Z" fill="white"/>
<defs>
<linearGradient id="paint0_linear_119_17623" x1="64" y1="7.62939e-06" x2="7.62939e-06" y2="64" gradientUnits="userSpaceOnUse">
<stop stop-color="#F65A75"/>
<stop offset="1" stop-color="#48179C"/>
</linearGradient>
</defs>
</svg>
