<svg width="64" height="64" viewBox="0 0 64 64" fill="none" xmlns="http://www.w3.org/2000/svg">
<rect width="64" height="64" rx="32" fill="url(#paint0_linear_189_27063)"/>
<path d="M44.1497 20.75C40.0165 20.75 36.3062 20.0007 32.9582 16.646C32.7051 16.3932 32.362 16.2512 32.0042 16.2512C31.6465 16.2512 31.3033 16.3932 31.0502 16.646C27.6932 20.0007 23.9807 20.75 19.852 20.75C19.4939 20.75 19.1505 20.8922 18.8974 21.1454C18.6442 21.3986 18.502 21.7419 18.502 22.1V30.2045C18.502 38.894 22.9345 44.8002 31.5745 47.6825C31.8519 47.7751 32.152 47.7751 32.4295 47.6825C41.0717 44.8025 45.502 38.894 45.502 30.2045V22.1C45.502 21.3552 44.8945 20.75 44.1497 20.75ZM43.2497 30.2022C43.2497 37.8432 39.5687 42.8337 31.9997 45.4482C24.4307 42.8337 20.7497 37.8432 20.7497 30.2022V22.9887C24.3025 22.901 28.2917 22.2035 32.002 18.842C35.7055 22.2012 39.697 22.8987 43.2497 22.9887V30.2022ZM30.8725 33.7842L36.826 27.8307C36.9306 27.7261 37.0547 27.6432 37.1914 27.5865C37.3281 27.5299 37.4745 27.5008 37.6225 27.5008C37.7704 27.5008 37.9169 27.5299 38.0535 27.5865C38.1902 27.6432 38.3144 27.7261 38.419 27.8307C38.5235 27.9353 38.6065 28.0595 38.6631 28.1962C38.7197 28.3328 38.7489 28.4793 38.7489 28.6272C38.7489 28.7751 38.7197 28.9216 38.6631 29.0583C38.6065 29.1949 38.5235 29.3191 38.419 29.4237L31.669 36.1737C31.5645 36.2785 31.4403 36.3616 31.3036 36.4183C31.167 36.475 31.0204 36.5042 30.8725 36.5042C30.7245 36.5042 30.578 36.475 30.4413 36.4183C30.3046 36.3616 30.1805 36.2785 30.076 36.1737L26.701 32.7987C26.4897 32.5875 26.371 32.301 26.371 32.0022C26.371 31.7035 26.4897 31.417 26.701 31.2057C26.9122 30.9945 27.1987 30.8758 27.4975 30.8758C27.7962 30.8758 28.0827 30.9945 28.294 31.2057L30.8725 33.7842Z" fill="white"/>
<defs>
<linearGradient id="paint0_linear_189_27063" x1="64" y1="7.62939e-06" x2="7.62939e-06" y2="64" gradientUnits="userSpaceOnUse">
<stop stop-color="#F65A75"/>
<stop offset="1" stop-color="#48179C"/>
</linearGradient>
</defs>
</svg>
