<svg width="64" height="64" viewBox="0 0 64 64" fill="none" xmlns="http://www.w3.org/2000/svg">
<rect width="64" height="64" rx="32" fill="url(#paint0_linear_46_245)"/>
<path d="M31.415 14.6741V17.6849C31.415 18.0887 31.7293 18.359 32.0892 18.359C32.4491 18.359 32.7633 18.0448 32.7633 17.6849V14.6741C32.7633 14.2704 32.4491 14 32.0892 14C31.7293 14 31.415 14.3142 31.415 14.6741Z" fill="white"/>
<path d="M24.0456 16.1586C23.7314 16.3377 23.5962 16.7871 23.7753 17.1031L25.3026 19.7101C25.4378 19.9348 25.6625 20.07 25.8872 20.07C26.0224 20.07 26.1119 20.0243 26.2471 19.9804C26.5613 19.8014 26.6965 19.352 26.5174 19.0359L24.9901 16.429C24.8093 16.0691 24.3599 15.9778 24.0456 16.1586Z" fill="white"/>
<path d="M18.3821 22.9899L20.9891 24.5172C21.0786 24.5628 21.2138 24.6067 21.349 24.6067C21.5737 24.6067 21.7984 24.4715 21.9336 24.2468C22.1126 23.9326 22.0231 23.4832 21.6632 23.3023L19.0562 21.775C18.742 21.5959 18.2926 21.6855 18.1117 22.0454C17.9327 22.4053 18.0678 22.8108 18.3821 22.9899Z" fill="white"/>
<path d="M16.6741 30.8092H19.7305C20.1343 30.8092 20.4047 30.495 20.4047 30.1351C20.4047 29.7313 20.0904 29.4609 19.7305 29.4609H16.6741C16.2704 29.4609 16 29.7752 16 30.1351C16 30.495 16.3142 30.8092 16.6741 30.8092Z" fill="white"/>
<path d="M21.9775 35.9324C21.7984 35.6181 21.349 35.4829 21.033 35.662L18.426 37.1893C18.1118 37.3684 17.9766 37.8178 18.1557 38.1338C18.2908 38.3585 18.5156 38.4937 18.7403 38.4937C18.8754 38.4937 18.965 38.4481 19.1002 38.4042L21.7071 36.8769C22.067 36.696 22.1566 36.2923 21.9775 35.9324Z" fill="white"/>
<path d="M46.0212 38.1335C46.2002 37.8193 46.1107 37.3699 45.7508 37.189L43.1438 35.6617C42.8296 35.4827 42.3802 35.5722 42.1993 35.9321C42.0203 36.2463 42.1098 36.6957 42.4697 36.8766L45.0767 38.4039C45.1662 38.4495 45.3014 38.4934 45.4366 38.4934C45.6613 38.4934 45.886 38.3582 46.0212 38.1335Z" fill="white"/>
<path d="M43.7744 30.0901C43.7744 30.4939 44.0887 30.7643 44.4485 30.7643H47.5049C47.9087 30.7643 48.1791 30.45 48.1791 30.0901C48.1791 29.6864 47.8648 29.416 47.5049 29.416H44.4485C44.0887 29.416 43.7744 29.7303 43.7744 30.0901Z" fill="white"/>
<path d="M42.2013 24.2491C42.3365 24.4738 42.5612 24.6089 42.7859 24.6089C42.9211 24.6089 43.0106 24.5633 43.1458 24.5194L45.7528 22.9921C46.067 22.813 46.2022 22.3636 46.0231 22.0476C45.8441 21.7334 45.3947 21.5982 45.0786 21.7772L42.4716 23.3046C42.1118 23.5293 42.0222 23.9348 42.2013 24.2491Z" fill="white"/>
<path d="M37.9319 19.9777C38.0214 20.0234 38.1566 20.0672 38.2918 20.0672C38.5165 20.0672 38.7412 19.9321 38.8764 19.7074L40.4037 17.1004C40.5827 16.7861 40.4932 16.3367 40.1333 16.1559C39.8191 15.9768 39.3697 16.0663 39.1888 16.4262L37.6615 19.0332C37.4825 19.3475 37.6176 19.7969 37.9319 19.9777Z" fill="white"/>
<path d="M41.4377 28.7423C40.8531 24.5185 37.3472 21.1481 33.1234 20.6986C30.3812 20.3844 27.7762 21.2376 25.7538 23.0809C23.7771 24.8786 22.6079 27.4399 22.6079 30.1364C22.6079 32.5186 23.5067 34.8094 25.1254 36.5635C26.3841 37.9117 27.1478 39.4847 27.3725 41.1035C26.8774 41.4634 26.5632 42.0024 26.5632 42.6765C26.5632 43.1259 26.7422 43.5297 27.0126 43.8896C26.7422 44.2038 26.5632 44.6532 26.5632 45.1026C26.5632 45.9119 27.0582 46.5861 27.7762 46.8546V47.0794C27.7762 48.698 29.0788 50.0006 30.6974 50.0006H33.394C35.0126 50.0006 36.3152 48.698 36.3152 47.0794L36.3134 46.809C37.0332 46.5386 37.5265 45.8645 37.5265 45.057C37.5265 44.6076 37.3474 44.2038 37.0771 43.8439C37.3474 43.5297 37.5265 43.0803 37.5265 42.6308C37.5265 42.0024 37.2123 41.4178 36.7172 41.0579C36.9419 39.3954 37.7055 37.8224 38.8748 36.6532C40.9428 34.5852 41.8415 31.6636 41.4377 28.7423ZM34.9651 47.0332C34.9651 47.8864 34.291 48.5605 33.4378 48.5605H30.7413C29.8881 48.5605 29.214 47.8864 29.214 47.0332V46.9437H34.967L34.9651 47.0332ZM35.6393 45.5498H28.5398C28.2694 45.5498 28.0447 45.3251 28.0447 45.0547C28.0447 44.7844 28.2694 44.5596 28.5398 44.5596H35.6846C35.955 44.5596 36.1797 44.7843 36.1797 45.0547C36.1797 45.3251 35.9552 45.5498 35.6393 45.5498ZM35.6393 43.1675H28.5398C28.2694 43.1675 28.0447 42.9428 28.0447 42.6724C28.0447 42.4021 28.2694 42.1774 28.5398 42.1774H35.6846C35.955 42.1774 36.1797 42.4021 36.1797 42.6724C36.1797 42.9428 35.9552 43.1675 35.6393 43.1675ZM35.4145 40.7414H28.7645C28.4503 38.8542 27.5953 37.1004 26.1575 35.5731C24.7636 34.0896 23.9999 32.1129 23.9999 30.0906C23.9999 27.7978 24.9883 25.5964 26.6965 24.0693C28.4046 22.542 30.6517 21.8222 32.9883 22.0469C36.5837 22.4507 39.5943 25.328 40.0896 28.8776C40.4495 31.3951 39.6402 33.8671 37.8881 35.6647C36.5381 37.1008 35.685 38.8546 35.4146 40.7418L35.4145 40.7414Z" fill="white"/>
<path d="M34.0228 28.0218L31.372 30.6726L30.1589 29.4595C29.8885 29.1892 29.4391 29.1892 29.1705 29.4595C28.9002 29.7299 28.9002 30.1793 29.1705 30.4479L30.8787 32.1561C31.0139 32.2912 31.1929 32.3808 31.3738 32.3808C31.5528 32.3808 31.7337 32.2912 31.8688 32.1561L35.0148 29.0101C35.2851 28.7398 35.2851 28.2903 35.0148 28.0218C34.7409 27.7532 34.2914 27.7532 34.0228 28.0218Z" fill="white"/>
<path d="M32.0897 24.1133C28.7647 24.1133 26.0684 26.8098 26.0684 30.1346C26.0684 33.4596 28.7649 36.1559 32.0897 36.1559C35.4145 36.1559 38.111 33.4594 38.111 30.1346C38.111 26.8096 35.4145 24.1133 32.0897 24.1133ZM32.0897 34.7205C29.5283 34.7205 27.4602 32.6524 27.4602 30.091C27.4602 27.5296 29.5283 25.4615 32.0897 25.4615C34.6511 25.4615 36.7191 27.5296 36.7191 30.091C36.7191 32.6524 34.6511 34.7205 32.0897 34.7205Z" fill="white"/>
<defs>
<linearGradient id="paint0_linear_46_245" x1="64" y1="7.62939e-06" x2="7.62939e-06" y2="64" gradientUnits="userSpaceOnUse">
<stop stop-color="#F65A75"/>
<stop offset="1" stop-color="#48179C"/>
</linearGradient>
</defs>
</svg>
