<svg width="64" height="64" viewBox="0 0 64 64" fill="none" xmlns="http://www.w3.org/2000/svg">
<rect width="64" height="64" rx="32" fill="url(#paint0_linear_119_17620)"/>
<path d="M21.5 46.9492C23.9853 46.9492 26 44.9345 26 42.4492C26 39.9639 23.9853 37.9492 21.5 37.9492C19.0147 37.9492 17 39.9639 17 42.4492C17 44.9345 19.0147 46.9492 21.5 46.9492Z" stroke="white" stroke-width="2.25" stroke-linecap="round" stroke-linejoin="round"/>
<path d="M31.25 24.4498H28.25C25.3505 24.4498 23 26.4643 23 28.9498C23 31.4353 25.3505 33.4498 28.25 33.4498H32.75C35.6495 33.4498 38 35.4643 38 37.9498C38 40.4353 35.6495 42.4498 32.75 42.4498H30.5M41.375 17.0488C38.2685 17.0488 35.75 19.4908 35.75 22.5043C35.75 24.2263 36.4535 25.5643 37.859 26.7613C38.8505 27.6043 40.6535 29.4133 41.375 30.5488C42.1325 29.4358 43.8995 27.6043 44.891 26.7613C46.295 25.5658 47 24.2263 47 22.5043C47 19.4908 44.4815 17.0488 41.375 17.0488Z" stroke="white" stroke-width="2.25" stroke-linecap="round" stroke-linejoin="round"/>
<path d="M41.5776 22.2988H41.3901M41.7651 22.2988C41.7651 22.3983 41.7256 22.4937 41.6553 22.564C41.585 22.6343 41.4896 22.6738 41.3901 22.6738C41.2907 22.6738 41.1953 22.6343 41.125 22.564C41.0546 22.4937 41.0151 22.3983 41.0151 22.2988C41.0151 22.1994 41.0546 22.104 41.125 22.0337C41.1953 21.9633 41.2907 21.9238 41.3901 21.9238C41.4896 21.9238 41.585 21.9633 41.6553 22.0337C41.7256 22.104 41.7651 22.1994 41.7651 22.2988Z" stroke="white" stroke-width="2.25" stroke-linecap="round" stroke-linejoin="round"/>
<defs>
<linearGradient id="paint0_linear_119_17620" x1="64" y1="7.62939e-06" x2="7.62939e-06" y2="64" gradientUnits="userSpaceOnUse">
<stop stop-color="#F65A75"/>
<stop offset="1" stop-color="#48179C"/>
</linearGradient>
</defs>
</svg>
