<svg width="56" height="56" viewBox="0 0 56 56" fill="none" xmlns="http://www.w3.org/2000/svg">
<g clip-path="url(#clip0_48_197)">
<path d="M3.98047 27.9975C3.98047 37.5054 9.50597 45.7221 17.5184 49.6159L6.06013 18.2217C4.72732 21.2091 3.98047 24.5151 3.98047 27.9975Z" fill="#464342"/>
<path d="M44.2174 26.7852C44.2174 23.8166 43.151 21.7607 42.2364 20.1605C41.0188 18.1818 39.8775 16.5062 39.8775 14.5276C39.8775 12.3195 41.5522 10.2641 43.9111 10.2641C44.0176 10.2641 44.1187 10.2773 44.2224 10.2833C39.9488 6.36801 34.2551 3.97754 28.0015 3.97754C19.6097 3.97754 12.2267 8.28312 7.93164 14.8046C8.49521 14.8215 9.02632 14.8334 9.47745 14.8334C11.9899 14.8334 15.8791 14.5285 15.8791 14.5285C17.174 14.4522 17.3267 16.354 16.0332 16.5071C16.0332 16.5071 14.7319 16.6603 13.2839 16.7361L22.0313 42.7547L27.288 26.9891L23.5456 16.7352C22.252 16.6594 21.0266 16.5062 21.0266 16.5062C19.7322 16.4304 19.884 14.4513 21.1784 14.5276C21.1784 14.5276 25.1453 14.8325 27.5056 14.8325C30.0176 14.8325 33.9073 14.5276 33.9073 14.5276C35.2031 14.4513 35.3553 16.3531 34.0613 16.5062C34.0613 16.5062 32.7573 16.6594 31.3121 16.7352L39.9927 42.5568L42.3886 34.5504C43.4271 31.2279 44.2174 28.8416 44.2174 26.7852Z" fill="#464342"/>
<path d="M28.4219 30.0996L21.2148 51.042C23.3667 51.6746 25.6425 52.0206 28.0005 52.0206C30.7977 52.0206 33.4803 51.537 35.9772 50.659C35.9128 50.5562 35.8543 50.4469 35.8063 50.3281L28.4219 30.0996Z" fill="#464342"/>
<path d="M49.0781 16.4736C49.1814 17.2388 49.2399 18.0601 49.2399 18.9436C49.2399 21.3812 48.7847 24.1213 47.4135 27.5475L40.0762 48.7614C47.2174 44.597 52.0207 36.8602 52.0207 27.9986C52.0212 23.8224 50.9544 19.8952 49.0781 16.4736Z" fill="#464342"/>
<path d="M28.0009 -0.00195312C12.5616 -0.00195312 0 12.5587 0 27.998C0 43.4392 12.5616 55.9994 28.0009 55.9994C43.4398 55.9994 56.0032 43.4392 56.0032 27.998C56.0027 12.5587 43.4398 -0.00195312 28.0009 -0.00195312ZM28.0009 54.716C13.2696 54.716 1.2839 42.7303 1.2839 27.998C1.2839 13.2667 13.2691 1.28195 28.0009 1.28195C42.7318 1.28195 54.7166 13.2667 54.7166 27.998C54.7166 42.7303 42.7318 54.716 28.0009 54.716Z" fill="#464342"/>
</g>
<defs>
<clipPath id="clip0_48_197">
<rect width="56" height="56.0014" fill="white"/>
</clipPath>
</defs>
</svg>
