<svg width="619" height="390" viewBox="0 0 619 390" fill="none" xmlns="http://www.w3.org/2000/svg">
<g clip-path="url(#clip0_189_23605)">
<path d="M583.21 33.8566C577.197 34.7344 572.185 33.4981 568.314 30.1819C561.556 24.3937 559.988 13.5556 559.954 9.86783C559.917 5.84116 559.884 2.36391 555.251 1.94764C553.191 1.76298 551.541 3.49606 550.76 4.50899L550.256 4.2586L549.001 6.78608L541.12 2.87237C540.415 2.5224 539.562 2.826 539.236 3.54045L535.144 12.1111L519.292 45.3058L519.266 45.2927L518.444 51.3097L519.334 51.7515L518.903 52.8419C518.85 52.9762 518.905 53.1267 519.03 53.1884L519.507 53.4257C519.632 53.4875 519.785 53.4402 519.86 53.3167L520.468 52.3146L521.358 52.7565L525.655 48.4658L525.624 48.4501L530.405 41.4262L530.408 41.4254L543.554 22.1134C544.074 21.4752 544.612 21.0803 545.118 20.8453C545.628 20.6094 546.104 20.5332 546.505 20.5295C547.266 20.5221 547.969 20.1348 548.367 19.4878L549.606 17.4727L552.036 13.5178L553.74 10.7447C554.145 10.0832 553.897 9.21711 553.202 8.87169L550.747 7.65247L552.002 5.12499L551.53 4.89025C552.245 3.99768 553.605 2.64076 555.175 2.78189C558.702 3.09857 559.071 5.08204 559.115 9.87495C559.117 10.0112 559.339 23.5978 567.768 30.8178C570.991 33.5789 574.952 34.9685 579.58 34.9685C580.785 34.9685 582.036 34.8741 583.33 34.6854L583.21 33.8566Z" fill="#E5F0F8"/>
<path d="M48.0138 392.111C48.0138 392.111 -103.276 -35.8838 174.357 -6.9129C293.268 5.49547 271.07 80.7739 323.588 151.209C357.629 196.864 423.101 159.515 447.637 199.41C472.172 239.305 443.339 353.06 433.225 392.111H48.0138Z" fill="#E5F0F8"/>
<path d="M132.194 24.7712V11.4328H132.965C133.203 11.4328 133.395 11.2398 133.395 11.002V10.3219C133.395 10.0841 133.203 9.89116 132.965 9.89116H124.079C123.841 9.89116 123.648 10.0841 123.648 10.3219V11.002C123.648 11.2398 123.841 11.4328 124.079 11.4328H124.849V24.7712C118.904 26.3848 114.53 31.8162 114.53 38.2722C114.53 45.9995 120.794 52.2637 128.522 52.2637C136.249 52.2637 142.513 45.9995 142.513 38.2722C142.513 31.8162 138.139 26.3848 132.194 24.7712Z" fill="white"/>
<path d="M29.2803 -3.16568L-7.76017 31.9439L-10.2692 34.3229C-10.3554 34.4046 -10.2979 34.548 -10.1798 34.548H29.3696C29.4413 34.548 29.4999 34.4905 29.4999 34.4176V31.0642V-3.07207C29.4999 -3.1856 29.3631 -3.24535 29.2803 -3.16568ZM23.399 24.8139C23.399 25.6185 22.7443 26.2733 21.9397 26.2733H10.5334C10.2651 26.2733 10.0995 26.0977 10.0344 25.9344C9.97034 25.7699 9.97034 25.5292 10.1667 25.346L22.4959 13.7875C22.6251 13.6671 22.7642 13.6418 22.8581 13.6418C23.1242 13.6418 23.399 13.8427 23.399 14.1793V24.8139Z" fill="#E5F0F8"/>
<path d="M33.3568 179.511C33.3588 179.482 33.358 179.453 33.3571 179.424L33.3568 179.423C33.2854 179.429 33.2222 179.378 33.2131 179.307C33.2037 179.236 33.2516 179.169 33.3224 179.157C33.3159 179.129 33.3093 179.101 33.2999 179.073C33.2336 179.097 33.1585 179.064 33.1295 178.997C33.1019 178.929 33.1323 178.853 33.1981 178.823C33.1847 178.797 33.1696 178.772 33.1537 178.748C33.0953 178.789 33.0143 178.776 32.9707 178.719C32.9269 178.661 32.9354 178.581 32.9915 178.535C32.9713 178.513 32.9499 178.492 32.9283 178.472C32.8834 178.527 32.8023 178.536 32.7442 178.492C32.6865 178.449 32.6745 178.368 32.7161 178.309C32.691 178.293 32.666 178.279 32.641 178.265C32.6375 178.272 32.6318 178.276 32.6276 178.282L31.5865 170.283L31.7003 171.157L32.4446 171.06L32.598 172.239L33.0487 172.181L32.6219 168.901L32.1712 168.96L32.3246 170.139L31.5802 170.236L27.9348 142.223C27.9562 142.164 27.9738 142.114 27.9869 142.078C28.0037 142.032 28.0122 141.983 28.0122 141.933V137.391C28.0122 137.391 27.5575 137.035 26.5975 136.864L26.5065 135.563C26.5782 135.534 26.628 135.462 26.6246 135.38L26.3702 129.206C26.3565 128.877 26.0854 128.616 25.7556 128.616H24.8443C24.5145 128.616 24.2433 128.876 24.2297 129.206L23.9753 135.38C23.9719 135.462 24.0217 135.534 24.0934 135.563L24.0023 136.864C23.0423 137.035 22.5876 137.391 22.5876 137.391V141.933C22.5876 141.983 22.5962 142.032 22.613 142.078C22.6295 142.124 22.6542 142.193 22.6838 142.276L16.4068 178.285C16.4028 178.279 16.3974 178.274 16.3943 178.267C16.3687 178.28 16.343 178.293 16.3174 178.307C16.3564 178.368 16.3408 178.448 16.2813 178.489C16.2216 178.531 16.1408 178.518 16.0984 178.461C16.0762 178.481 16.0537 178.5 16.0326 178.521C16.0867 178.57 16.0915 178.651 16.0454 178.707C15.9996 178.761 15.918 178.77 15.8613 178.727C15.8443 178.75 15.8281 178.775 15.8135 178.8C15.8776 178.833 15.9049 178.911 15.8744 178.977C15.8426 179.043 15.766 179.073 15.7009 179.046C15.6903 179.073 15.6827 179.1 15.6747 179.128C15.745 179.143 15.7896 179.212 15.7774 179.283C15.7652 179.354 15.7 179.402 15.6289 179.393L15.6286 179.394C15.6266 179.423 15.6243 179.452 15.6252 179.481C15.6957 179.477 15.7575 179.532 15.7655 179.603C15.7714 179.677 15.7196 179.741 15.6482 179.75C15.6534 179.778 15.6602 179.806 15.6687 179.834C15.7364 179.812 15.8101 179.85 15.8349 179.917C15.8594 179.985 15.8275 180.059 15.7601 180.087C15.7729 180.114 15.7874 180.14 15.8002 180.165C15.8596 180.124 15.9413 180.14 15.9834 180.2C16.0255 180.26 16.0127 180.34 15.9555 180.384C15.9749 180.406 15.9945 180.428 16.0141 180.448C16.0195 180.443 16.0264 180.44 16.0323 180.435L16.0084 180.573L15.949 183.475L16.2543 183.528C16.0682 184.692 16.1931 185.151 16.1931 185.151C16.1931 185.151 16.466 184.762 16.6851 183.603L17.0521 183.667L17.5688 180.703C17.5728 180.709 17.5782 180.715 17.5813 180.722C17.6069 180.709 17.6325 180.696 17.6584 180.681C17.6195 180.621 17.6348 180.54 17.6946 180.498C17.7543 180.456 17.8351 180.469 17.8775 180.526C17.8997 180.507 17.9222 180.487 17.9415 180.467C17.8892 180.417 17.8844 180.336 17.9302 180.282C17.976 180.227 18.0579 180.217 18.1145 180.26C18.1316 180.237 18.1475 180.214 18.1621 180.188C18.098 180.155 18.0707 180.078 18.1029 180.01C18.133 179.946 18.2096 179.915 18.2747 179.943C18.2853 179.915 18.2929 179.888 18.3009 179.86L18.3012 179.858C18.2309 179.843 18.186 179.776 18.1982 179.705C18.2104 179.635 18.2759 179.585 18.347 179.594C18.349 179.565 18.3513 179.537 18.3504 179.507C18.2799 179.511 18.2181 179.457 18.2119 179.384C18.2042 179.312 18.2559 179.248 18.3276 179.238C18.3211 179.21 18.3157 179.181 18.3075 179.153C18.2397 179.175 18.1658 179.139 18.141 179.072C18.1163 179.005 18.1481 178.931 18.2144 178.901C18.2016 178.874 18.1885 178.849 18.1743 178.823C18.1151 178.862 18.0349 178.847 17.9928 178.787C17.9506 178.729 17.9632 178.648 18.0204 178.604C18.001 178.582 17.9814 178.561 17.9617 178.54C17.9563 178.546 17.9495 178.548 17.9435 178.553L23.573 146.257C23.5758 146.36 23.5767 146.448 23.5767 146.519C23.5767 146.655 23.6475 146.782 23.7673 146.845C24.3045 147.128 24.9046 147.172 25.3001 147.172C25.6958 147.172 26.2959 147.128 26.8331 146.845C26.8815 146.82 26.9193 146.782 26.9503 146.739L30.0825 170.808L30.0344 170.437L29.6978 170.481L29.8176 171.402L30.1542 171.358L31.0814 178.484C31.0757 178.479 31.0689 178.476 31.0638 178.47C31.0433 178.49 31.0228 178.51 31.0023 178.531C31.0575 178.578 31.0666 178.659 31.022 178.715C30.9773 178.773 30.8965 178.785 30.839 178.744C30.8234 178.769 30.8094 178.794 30.7955 178.82C30.8604 178.852 30.8891 178.928 30.8615 178.994C30.8339 179.059 30.7588 179.093 30.6919 179.068C30.6825 179.095 30.676 179.123 30.668 179.152C30.7391 179.164 30.7881 179.231 30.7773 179.303C30.7679 179.375 30.7039 179.427 30.6333 179.42C30.6313 179.449 30.6322 179.478 30.633 179.506C30.7044 179.5 30.7679 179.553 30.777 179.624C30.7864 179.695 30.7383 179.76 30.6677 179.773L30.668 179.774C30.6746 179.802 30.6811 179.83 30.6905 179.858C30.7568 179.833 30.8319 179.867 30.8595 179.933C30.8888 180.001 30.8581 180.078 30.7926 180.108C30.806 180.133 30.8208 180.157 30.837 180.181C30.8954 180.14 30.9767 180.155 31.0203 180.211C31.0638 180.268 31.0555 180.348 31.0009 180.396C31.0197 180.416 31.041 180.437 31.0624 180.457C31.1073 180.402 31.1884 180.393 31.2465 180.437C31.3045 180.482 31.3165 180.563 31.2749 180.622C31.3 180.638 31.325 180.651 31.35 180.666C31.3534 180.659 31.3591 180.654 31.3634 180.648L31.7515 183.631L32.1208 183.583C32.2896 184.75 32.5453 185.151 32.5453 185.151C32.5453 185.151 32.6899 184.698 32.5544 183.527L32.8617 183.487L32.9275 180.585L32.9095 180.447C32.9152 180.451 32.9221 180.455 32.9272 180.461C32.9477 180.441 32.9682 180.42 32.9886 180.399C32.9334 180.353 32.9243 180.272 32.9687 180.214C33.0134 180.156 33.0956 180.144 33.1531 180.187C33.1673 180.162 33.1827 180.137 33.1966 180.11C33.1306 180.08 33.1019 180.004 33.1292 179.937C33.1568 179.871 33.2319 179.837 33.2988 179.861C33.3082 179.834 33.3161 179.807 33.3227 179.778C33.2516 179.766 33.2026 179.7 33.2117 179.626C33.2225 179.556 33.2865 179.504 33.3568 179.511Z" fill="white"/>
<path d="M576.865 210.661L590.862 164.183L592.512 164.68L595.997 153.107L596.786 153.344L596.559 154.096C596.523 154.215 596.591 154.34 596.71 154.376L597.774 154.697C597.893 154.733 598.018 154.665 598.054 154.546L598.673 152.49C598.709 152.371 598.642 152.246 598.523 152.21L597.458 151.889C597.339 151.854 597.214 151.921 597.178 152.04L596.951 152.792L596.163 152.554L598.855 143.615L598.77 143.589L599.46 141.299C599.561 140.961 599.918 140.77 600.255 140.872L606.178 142.655C606.178 142.655 605.143 139.65 598.887 137.535L599.44 135.697L602.74 136.691C602.74 136.691 604.505 136.87 606.563 136.319C607.154 136.16 607.769 135.941 608.375 135.641L604.555 134.491C604.555 134.491 604.321 134.739 603.74 134.547C603.58 134.493 603.367 134.427 603.141 134.358C602.547 134.178 601.857 133.98 601.757 133.949C601.619 133.908 601.456 133.743 601.507 133.573L602.44 130.475L601.132 130.081V130.08L598.141 129.18L595.67 128.436L595.15 128.279L595.15 128.28L591.819 127.276L580.408 127.343L577.951 129.847L588.533 133.034C588.533 133.034 588.526 132.411 590.127 132.893L593.459 133.896L591.224 141.317L589.249 140.722L589.161 141.015L586.951 140.349C586.849 140.318 586.754 140.266 586.675 140.195L586.539 140.075C586.459 140.004 586.365 139.951 586.263 139.92L580.37 138.145C580.221 138.101 580.061 138.104 579.913 138.156C579.761 138.209 579.596 138.212 579.442 138.162L575.97 137.042L576.848 140.045L587.542 146.388L582.905 161.787L584.88 162.381L570.883 208.86L576.865 210.661Z" fill="#E5F0F8"/>
<path d="M29.9384 386.888C29.9384 386.888 19.7937 346.421 -5.49449 333.932C-30.7827 321.443 -57.7724 338.541 -50.9189 356.52C-45.0092 372.024 -20.7086 352.961 -1.80157 360.458C17.1055 367.954 20.0859 386.888 20.0859 386.888H29.9384Z" fill="#40A87B"/>
<path d="M-46.0312 345.739C-46.0312 345.739 -18.8908 330.271 1.24602 344.571C21.3825 358.871 27.7551 386.887 27.7551 386.887" stroke="#6ADB6A" stroke-width="1.13949" stroke-miterlimit="10"/>
<path d="M-1.23438 337.786L1.7071 344.904" stroke="#6ADB6A" stroke-width="1.13949" stroke-miterlimit="10"/>
<path d="M-6.26855 351.101L7.09753 349.44" stroke="#6ADB6A" stroke-width="1.13949" stroke-miterlimit="10"/>
<path d="M9.29199 359.2L16.9535 361.715" stroke="#6ADB6A" stroke-width="1.13949" stroke-miterlimit="10"/>
<path d="M40.4019 386.888C40.4019 386.888 47.5601 251.246 -17.2271 268.725C-82.0144 286.205 33.3106 359.309 33.2124 386.888H40.4019Z" fill="#6ADB6A"/>
<path d="M37.7843 386.888C37.7843 386.888 35.5222 316.019 -10.6602 280.977" stroke="#40A87B" stroke-width="1.13949" stroke-miterlimit="10"/>
<path d="M9.5942 301.526L8.44043 277.088" stroke="#40A87B" stroke-width="1.13949" stroke-miterlimit="10"/>
<path d="M-26.6387 291.4L4.57686 295.469" stroke="#40A87B" stroke-width="1.13949" stroke-miterlimit="10"/>
<path d="M-14.499 312.257L18.5056 316.102" stroke="#40A87B" stroke-width="1.13949" stroke-miterlimit="10"/>
<path d="M2.00391 332.926L27.4961 336.528" stroke="#40A87B" stroke-width="1.13949" stroke-miterlimit="10"/>
<path d="M29.9405 313.613L24.0977 327.809" stroke="#40A87B" stroke-width="1.13949" stroke-miterlimit="10"/>
<path d="M20.34 290.574L15.3584 310.56" stroke="#40A87B" stroke-width="1.13949" stroke-miterlimit="10"/>
<path d="M35.3964 337.312L30.7412 346.59" stroke="#40A87B" stroke-width="1.13949" stroke-miterlimit="10"/>
<path d="M15.3584 352.086L33.6255 357.846" stroke="#40A87B" stroke-width="1.13949" stroke-miterlimit="10"/>
<path d="M552.877 386.888H53.5824C40.9561 386.888 30.7207 376.652 30.7207 364.026V363.427C30.7207 361.547 32.2452 360.022 34.1257 360.022H572.333C574.214 360.022 575.738 361.547 575.738 363.427V364.026C575.738 376.652 565.503 386.888 552.877 386.888Z" fill="#586773"/>
<path d="M560.874 113.84V360.022H45.1904V113.84C45.1904 86.0122 66.8597 63.4611 93.5998 63.4611H512.465C539.205 63.4611 560.874 86.0122 560.874 113.84Z" fill="#586773"/>
<path d="M542.78 113.84V360.022H63.2842V113.84C63.2842 96.4524 76.8913 82.2916 93.5992 82.2916H512.464C529.173 82.2916 542.78 96.4524 542.78 113.84Z" fill="#E5F0F8"/>
<path d="M524.68 113.834V123.95H81.3838V113.834C81.3838 106.844 86.8681 101.119 93.601 101.119H512.463C519.196 101.119 524.68 106.844 524.68 113.834Z" fill="#BBDBF3"/>
<path d="M524.68 123.95H81.3838V360.025H524.68V123.95Z" fill="white"/>
<path d="M300.393 133.255H87.8311V148.927H300.393V133.255Z" fill="#BBDBF3"/>
<path d="M300.393 148.927H87.8311V204.857H300.393V148.927Z" fill="#E5F0F8"/>
<path d="M164.381 139.318H95.418V142.807H164.381V139.318Z" fill="white"/>
<path d="M215.282 139.318H168.583V142.807H215.282V139.318Z" fill="white"/>
<path d="M292.771 154.503H95.4512V199.281H292.771V154.503Z" stroke="#BBDBF3" stroke-width="0.936105" stroke-miterlimit="10"/>
<path d="M112.573 154.503H95.4512V199.281H112.573V154.503Z" stroke="#BBDBF3" stroke-width="0.936105" stroke-miterlimit="10"/>
<path d="M211.54 154.503H112.572V199.281H211.54V154.503Z" stroke="#BBDBF3" stroke-width="0.936105" stroke-miterlimit="10"/>
<path d="M292.772 154.503H277.154V199.281H292.772V154.503Z" stroke="#BBDBF3" stroke-width="0.936105" stroke-miterlimit="10"/>
<path d="M277.153 154.503H261.536V199.281H277.153V154.503Z" stroke="#BBDBF3" stroke-width="0.936105" stroke-miterlimit="10"/>
<path d="M261.537 154.503H242.023V199.281H261.537V154.503Z" stroke="#BBDBF3" stroke-width="0.936105" stroke-miterlimit="10"/>
<path d="M242.023 154.503H211.54V199.281H242.023V154.503Z" stroke="#BBDBF3" stroke-width="0.936105" stroke-miterlimit="10"/>
<path d="M292.771 167.858H95.4512V178.332H292.771V167.858Z" stroke="#BBDBF3" stroke-width="0.936105" stroke-miterlimit="10"/>
<path d="M292.771 178.332H95.4512V188.807H292.771V178.332Z" stroke="#BBDBF3" stroke-width="0.936105" stroke-miterlimit="10"/>
<path d="M292.771 188.807H95.4512V199.281H292.771V188.807Z" stroke="#BBDBF3" stroke-width="0.936105" stroke-miterlimit="10"/>
<path d="M300.393 209.65H87.8311V218.751H300.393V209.65Z" fill="#BBDBF3"/>
<path d="M300.393 218.751H87.8311V251.232H300.393V218.751Z" fill="#E5F0F8"/>
<path d="M164.381 213.171H95.418V215.197H164.381V213.171Z" fill="white"/>
<path d="M215.282 213.171H168.583V215.197H215.282V213.171Z" fill="white"/>
<path d="M292.771 221.989H95.4512V247.995H292.771V221.989Z" stroke="#BBDBF3" stroke-width="0.713374" stroke-miterlimit="10"/>
<path d="M112.573 221.989H95.4512V247.995H112.573V221.989Z" stroke="#BBDBF3" stroke-width="0.713374" stroke-miterlimit="10"/>
<path d="M211.54 221.989H112.572V247.995H211.54V221.989Z" stroke="#BBDBF3" stroke-width="0.713374" stroke-miterlimit="10"/>
<path d="M292.772 221.989H277.154V247.995H292.772V221.989Z" stroke="#BBDBF3" stroke-width="0.713374" stroke-miterlimit="10"/>
<path d="M277.153 221.989H261.536V247.995H277.153V221.989Z" stroke="#BBDBF3" stroke-width="0.713374" stroke-miterlimit="10"/>
<path d="M261.537 221.989H242.023V247.995H261.537V221.989Z" stroke="#BBDBF3" stroke-width="0.713374" stroke-miterlimit="10"/>
<path d="M242.023 221.989H211.54V247.995H242.023V221.989Z" stroke="#BBDBF3" stroke-width="0.713374" stroke-miterlimit="10"/>
<path d="M292.771 229.745H95.4512V235.828H292.771V229.745Z" stroke="#BBDBF3" stroke-width="0.713374" stroke-miterlimit="10"/>
<path d="M292.771 235.828H95.4512V241.911H292.771V235.828Z" stroke="#BBDBF3" stroke-width="0.713374" stroke-miterlimit="10"/>
<path d="M292.771 241.911H95.4512V247.994H292.771V241.911Z" stroke="#BBDBF3" stroke-width="0.713374" stroke-miterlimit="10"/>
<path d="M361.385 311.769C361.385 334.19 343.207 352.347 320.807 352.347C298.406 352.347 280.229 334.191 280.229 311.769H288.188C288.188 329.757 302.819 344.388 320.807 344.388C338.794 344.388 353.425 329.757 353.425 311.769C353.425 293.802 338.794 279.172 320.807 279.172V271.212C343.207 271.212 361.385 289.369 361.385 311.769Z" fill="#BBDBF3"/>
<path d="M320.807 271.212V279.172C302.819 279.172 288.188 293.803 288.188 311.769H280.229C280.229 289.369 298.406 271.212 320.807 271.212Z" fill="#F9E181"/>
<path d="M320.806 279.172V288.06C307.738 288.06 297.097 298.701 297.097 311.769H288.188C288.188 293.803 302.819 279.172 320.806 279.172Z" fill="#F9ECB8"/>
<path d="M353.425 311.769C353.425 329.757 338.794 344.388 320.806 344.388C302.818 344.388 288.188 329.757 288.188 311.769H297.097C297.097 324.838 307.738 335.478 320.806 335.478C333.875 335.478 344.516 324.838 344.516 311.769C344.516 298.701 333.875 288.06 320.806 288.06V279.171C338.794 279.172 353.425 293.803 353.425 311.769Z" fill="#E5F0F8"/>
<path d="M460.502 311.769C460.502 334.191 442.324 352.347 419.924 352.347C397.523 352.347 379.346 334.191 379.346 311.769C379.346 298.342 385.869 286.435 395.94 279.066L400.648 285.484C392.562 291.438 387.305 301.002 387.305 311.769C387.305 329.757 401.936 344.388 419.924 344.388C437.911 344.388 452.543 329.757 452.543 311.769C452.543 293.803 437.911 279.172 419.924 279.172V271.212C442.324 271.212 460.502 289.369 460.502 311.769Z" fill="#BBDBF3"/>
<path d="M452.543 311.769C452.543 329.757 437.912 344.388 419.924 344.388C401.936 344.388 387.306 329.757 387.306 311.769C387.306 301.002 392.563 291.438 400.649 285.485L405.906 292.642C400.036 296.97 396.215 303.937 396.215 311.769C396.215 324.838 406.856 335.479 419.924 335.479C432.993 335.479 443.634 324.838 443.634 311.769C443.634 298.701 432.993 288.06 419.924 288.06V279.172C437.912 279.172 452.543 293.803 452.543 311.769Z" fill="#E5F0F8"/>
<path d="M419.924 271.212V279.172C412.725 279.172 406.053 281.515 400.649 285.485L395.94 279.066C402.654 274.126 410.952 271.212 419.924 271.212Z" fill="#F9E181"/>
<path d="M419.924 279.172V288.06C414.688 288.06 409.833 289.77 405.905 292.642L400.648 285.485C406.053 281.515 412.725 279.172 419.924 279.172Z" fill="#F9ECB8"/>
<path d="M347.867 261.539H293.746V264.688H347.867V261.539Z" fill="#E5F0F8"/>
<path d="M446.985 261.539H392.864V264.688H446.985V261.539Z" fill="#E5F0F8"/>
<path d="M169.925 311.769C169.925 334.19 151.747 352.347 129.347 352.347C106.946 352.347 88.7686 334.191 88.7686 311.769H96.728C96.728 329.757 111.359 344.388 129.347 344.388C147.334 344.388 161.965 329.757 161.965 311.769C161.965 293.802 147.334 279.172 129.347 279.172V271.212C151.747 271.213 169.925 289.369 169.925 311.769Z" fill="#BBDBF3"/>
<path d="M129.347 271.212V279.172C111.359 279.172 96.728 293.803 96.728 311.769H88.7686C88.7686 289.369 106.946 271.212 129.347 271.212Z" fill="#F9E181"/>
<path d="M129.346 279.172V288.06C116.278 288.06 105.637 298.701 105.637 311.769H96.7275C96.7275 293.803 111.358 279.172 129.346 279.172Z" fill="#F9ECB8"/>
<path d="M161.965 311.769C161.965 329.757 147.334 344.388 129.346 344.388C111.358 344.388 96.7275 329.757 96.7275 311.769H105.637C105.637 324.838 116.278 335.478 129.346 335.478C142.415 335.478 153.056 324.838 153.056 311.769C153.056 298.701 142.415 288.06 129.346 288.06V279.171C147.334 279.172 161.965 293.803 161.965 311.769Z" fill="#E5F0F8"/>
<path d="M269.043 311.769C269.043 334.191 250.865 352.347 228.465 352.347C206.065 352.347 187.887 334.191 187.887 311.769C187.887 298.342 194.41 286.435 204.481 279.066L209.189 285.485C201.103 291.438 195.846 301.002 195.846 311.769C195.846 329.757 210.477 344.388 228.465 344.388C246.452 344.388 261.084 329.757 261.084 311.769C261.084 293.803 246.452 279.172 228.465 279.172V271.212C250.865 271.212 269.043 289.369 269.043 311.769Z" fill="#BBDBF3"/>
<path d="M261.083 311.769C261.083 329.757 246.452 344.388 228.464 344.388C210.477 344.388 195.846 329.757 195.846 311.769C195.846 301.002 201.103 291.438 209.189 285.485L214.446 292.642C208.576 296.97 204.755 303.937 204.755 311.769C204.755 324.838 215.396 335.479 228.465 335.479C241.533 335.479 252.174 324.838 252.174 311.769C252.174 298.701 241.533 288.06 228.465 288.06V279.172C246.452 279.172 261.083 293.803 261.083 311.769Z" fill="#E5F0F8"/>
<path d="M228.465 271.212V279.172C221.266 279.172 214.594 281.515 209.19 285.485L204.481 279.066C211.195 274.126 219.492 271.212 228.465 271.212Z" fill="#F9E181"/>
<path d="M228.465 279.172V288.06C223.229 288.06 218.374 289.77 214.446 292.642L209.189 285.485C214.594 281.515 221.266 279.172 228.465 279.172Z" fill="#F9ECB8"/>
<path d="M156.407 261.539H102.286V264.688H156.407V261.539Z" fill="#E5F0F8"/>
<path d="M255.525 261.539H201.404V264.688H255.525V261.539Z" fill="#E5F0F8"/>
<path d="M512.462 133.255H312.07C309.698 133.255 307.774 135.178 307.774 137.551V147.497V235.986H516.757V147.497V137.551C516.757 135.178 514.834 133.255 512.462 133.255Z" fill="#BBDBF3"/>
<path d="M514.423 145.097H310.108V233.476H514.423V145.097Z" fill="white"/>
<path d="M382.982 209.65H367.718V225.478H382.982V209.65Z" fill="white" stroke="#BBDBF3" stroke-width="1.21685" stroke-miterlimit="10"/>
<path d="M367.719 209.65H329.895V225.478H367.719V209.65Z" fill="white" stroke="#BBDBF3" stroke-width="1.21685" stroke-miterlimit="10"/>
<path d="M329.893 209.65H316.146V225.478H329.893V209.65Z" fill="white" stroke="#BBDBF3" stroke-width="1.21685" stroke-miterlimit="10"/>
<path d="M395.427 209.65H382.982V225.478H395.427V209.65Z" fill="white" stroke="#BBDBF3" stroke-width="1.21685" stroke-miterlimit="10"/>
<path d="M408.848 209.65H395.427V225.478H408.848V209.65Z" fill="white" stroke="#BBDBF3" stroke-width="1.21685" stroke-miterlimit="10"/>
<path d="M382.982 193.821H367.718V209.65H382.982V193.821Z" fill="white" stroke="#BBDBF3" stroke-width="1.21685" stroke-miterlimit="10"/>
<path d="M367.719 193.821H329.895V209.65H367.719V193.821Z" fill="white" stroke="#BBDBF3" stroke-width="1.21685" stroke-miterlimit="10"/>
<path d="M329.893 193.821H316.146V209.65H329.893V193.821Z" fill="white" stroke="#BBDBF3" stroke-width="1.21685" stroke-miterlimit="10"/>
<path d="M395.427 193.821H382.982V209.65H395.427V193.821Z" fill="white" stroke="#BBDBF3" stroke-width="1.21685" stroke-miterlimit="10"/>
<path d="M408.848 193.821H395.427V209.65H408.848V193.821Z" fill="white" stroke="#BBDBF3" stroke-width="1.21685" stroke-miterlimit="10"/>
<path d="M363.352 200.226H334.26V203.244H363.352V200.226Z" fill="#E5F0F8"/>
<path d="M363.352 216.055H334.26V219.073H363.352V216.055Z" fill="#E5F0F8"/>
<path d="M396.231 152.359H316.146V156.539H396.231V152.359Z" fill="#E5F0F8"/>
<path d="M356.189 162.825H316.146V167.004H356.189V162.825Z" fill="#E5F0F8"/>
<path d="M409.226 162.825H391.82V167.004H409.226V162.825Z" fill="#E5F0F8"/>
<path d="M372.16 170.875H316.146V175.054H372.16V170.875Z" fill="#E5F0F8"/>
<path d="M409.226 170.875H387.176V175.054H409.226V170.875Z" fill="#E5F0F8"/>
<path d="M364.977 178.924H316.146V183.104H364.977V178.924Z" fill="#E5F0F8"/>
<path d="M409.226 178.924H391.82V183.104H409.226V178.924Z" fill="#E5F0F8"/>
<path d="M413.492 207.942H507.77" stroke="#ADD0FA" stroke-width="0.419682" stroke-miterlimit="10" stroke-linecap="round" stroke-linejoin="round" stroke-dasharray="2.51 2.51"/>
<path d="M413.492 201.819H507.77" stroke="#ADD0FA" stroke-width="0.419682" stroke-miterlimit="10" stroke-linecap="round" stroke-linejoin="round" stroke-dasharray="2.51 2.51"/>
<path d="M413.492 195.697H507.77" stroke="#ADD0FA" stroke-width="0.419682" stroke-miterlimit="10" stroke-linecap="round" stroke-linejoin="round" stroke-dasharray="2.51 2.51"/>
<path d="M413.492 189.575H507.77" stroke="#ADD0FA" stroke-width="0.419682" stroke-miterlimit="10" stroke-linecap="round" stroke-linejoin="round" stroke-dasharray="2.51 2.51"/>
<path d="M413.492 183.453H507.77" stroke="#ADD0FA" stroke-width="0.419682" stroke-miterlimit="10" stroke-linecap="round" stroke-linejoin="round" stroke-dasharray="2.51 2.51"/>
<path d="M413.492 177.33H507.77" stroke="#ADD0FA" stroke-width="0.419682" stroke-miterlimit="10" stroke-linecap="round" stroke-linejoin="round" stroke-dasharray="2.51 2.51"/>
<path d="M413.492 171.208H507.77" stroke="#ADD0FA" stroke-width="0.419682" stroke-miterlimit="10" stroke-linecap="round" stroke-linejoin="round" stroke-dasharray="2.51 2.51"/>
<path d="M413.632 164.854V213.718H508.696" stroke="#BBDBF3" stroke-width="0.839336" stroke-miterlimit="10" stroke-linecap="round" stroke-linejoin="round"/>
<path d="M420.264 204.512L438.304 178.26L450.152 195.055H468.074L485.391 172.421L507.77 205.868" stroke="#F9E181" stroke-width="0.839336" stroke-miterlimit="10" stroke-linecap="round" stroke-linejoin="round"/>
<path d="M438.304 180.769C439.69 180.769 440.813 179.646 440.813 178.26C440.813 176.874 439.69 175.751 438.304 175.751C436.918 175.751 435.795 176.874 435.795 178.26C435.795 179.646 436.918 180.769 438.304 180.769Z" fill="white" stroke="#F74242" stroke-width="0.839336" stroke-miterlimit="10" stroke-linecap="round" stroke-linejoin="round"/>
<path d="M450.055 197.655C451.441 197.655 452.564 196.531 452.564 195.146C452.564 193.76 451.441 192.637 450.055 192.637C448.669 192.637 447.546 193.76 447.546 195.146C447.546 196.531 448.669 197.655 450.055 197.655Z" fill="white" stroke="#F74242" stroke-width="0.839336" stroke-miterlimit="10" stroke-linecap="round" stroke-linejoin="round"/>
<path d="M467.829 197.655C469.215 197.655 470.338 196.531 470.338 195.146C470.338 193.76 469.215 192.637 467.829 192.637C466.444 192.637 465.32 193.76 465.32 195.146C465.32 196.531 466.444 197.655 467.829 197.655Z" fill="white" stroke="#F74242" stroke-width="0.839336" stroke-miterlimit="10" stroke-linecap="round" stroke-linejoin="round"/>
<path d="M485.604 176.055C486.989 176.055 488.113 174.931 488.113 173.546C488.113 172.16 486.989 171.037 485.604 171.037C484.218 171.037 483.095 172.16 483.095 173.546C483.095 174.931 484.218 176.055 485.604 176.055Z" fill="white" stroke="#F74242" stroke-width="0.839336" stroke-miterlimit="10" stroke-linecap="round" stroke-linejoin="round"/>
<path d="M592.458 397.28H16.806C13.9721 397.28 11.6748 394.983 11.6748 392.149V392.018C11.6748 389.185 13.9721 386.887 16.806 386.887H592.458C595.292 386.887 597.589 389.185 597.589 392.018V392.149C597.589 394.983 595.292 397.28 592.458 397.28Z" fill="#0775EF"/>
<path d="M560.026 386.384C560.026 386.384 573.667 331.973 607.669 315.181C641.671 298.388 677.962 321.378 668.747 345.553C660.801 366.398 628.126 340.767 602.704 350.846C577.281 360.926 573.274 386.384 573.274 386.384H560.026Z" fill="#40A87B"/>
<path d="M662.175 331.056C662.175 331.056 625.682 310.258 598.606 329.486C571.531 348.714 562.962 386.384 562.962 386.384" stroke="#6ADB6A" stroke-width="1.53217" stroke-miterlimit="10"/>
<path d="M618.618 313.397L609.819 323.79" stroke="#6ADB6A" stroke-width="1.53217" stroke-miterlimit="10"/>
<path d="M601.941 320.363L597.985 329.934" stroke="#6ADB6A" stroke-width="1.53217" stroke-miterlimit="10"/>
<path d="M629.017 341.209L617.062 322.01" stroke="#6ADB6A" stroke-width="1.53217" stroke-miterlimit="10"/>
<path d="M608.71 338.266L590.738 336.033" stroke="#6ADB6A" stroke-width="1.53217" stroke-miterlimit="10"/>
<path d="M587.788 349.155L577.486 352.537" stroke="#6ADB6A" stroke-width="1.53217" stroke-miterlimit="10"/>
<path d="M545.957 386.384C545.957 386.384 536.332 204 623.444 227.503C710.557 251.006 555.492 349.302 555.624 386.384H545.957Z" fill="#6ADB6A"/>
<path d="M549.478 386.384C549.478 386.384 552.519 291.094 614.616 243.977" stroke="#40A87B" stroke-width="1.53217" stroke-miterlimit="10"/>
<path d="M587.381 271.607L588.932 238.748" stroke="#40A87B" stroke-width="1.53217" stroke-miterlimit="10"/>
<path d="M636.099 257.992L594.127 263.462" stroke="#40A87B" stroke-width="1.53217" stroke-miterlimit="10"/>
<path d="M619.777 286.036L575.399 291.206" stroke="#40A87B" stroke-width="1.53217" stroke-miterlimit="10"/>
<path d="M597.588 313.827L563.312 318.671" stroke="#40A87B" stroke-width="1.53217" stroke-miterlimit="10"/>
<path d="M560.022 287.859L567.879 306.947" stroke="#40A87B" stroke-width="1.53217" stroke-miterlimit="10"/>
<path d="M572.933 256.881L579.63 283.754" stroke="#40A87B" stroke-width="1.53217" stroke-miterlimit="10"/>
<path d="M552.688 319.725L558.948 332.2" stroke="#40A87B" stroke-width="1.53217" stroke-miterlimit="10"/>
<path d="M579.63 339.59L555.068 347.334" stroke="#40A87B" stroke-width="1.53217" stroke-miterlimit="10"/>
<path d="M159.648 386.887H33.6622C31.5863 386.887 29.9033 385.204 29.9033 383.128V207.729H159.648V386.887Z" fill="white"/>
<path d="M44.0046 348.228C46.0135 348.228 47.6421 346.306 47.6421 343.935C47.6421 341.563 46.0135 339.641 44.0046 339.641C41.9957 339.641 40.3672 341.563 40.3672 343.935C40.3672 346.306 41.9957 348.228 44.0046 348.228Z" fill="#BBDBF3"/>
<path d="M213.667 386.887H159.648V199.62H213.667C215.742 199.62 217.425 201.303 217.425 203.378V383.128C217.425 385.204 215.742 386.887 213.667 386.887Z" fill="#BBDBF3"/>
<path d="M159.648 207.728H29.9033L31.1083 202.529C31.5032 200.826 33.0212 199.619 34.7702 199.619H161.527L159.648 207.728Z" fill="#EEF4F8"/>
<mask id="mask0_189_23605" style="mask-type:luminance" maskUnits="userSpaceOnUse" x="167" y="229" width="43" height="124">
<path d="M173.079 352.297H203.993C206.933 352.297 209.316 349.914 209.316 346.975V234.336C209.316 231.396 206.933 229.013 203.993 229.013H173.079C170.139 229.013 167.757 231.396 167.757 234.336V346.975C167.757 349.914 170.139 352.297 173.079 352.297Z" fill="white"/>
</mask>
<g mask="url(#mask0_189_23605)">
<path d="M213.623 386.887H91.3831C89.3379 386.887 87.6797 385.229 87.6797 383.184V207.729H213.623V386.887Z" fill="#93ACBF"/>
<path d="M176.047 344.443H179.275V335.066H176.047V344.443Z" fill="#BBDBF3"/>
<path d="M188.821 343.935H69.2129V346.849H188.821V343.935Z" fill="#586773"/>
<path d="M169.341 336.206H185.981V333.925H169.341V336.206Z" fill="#BBDBF3"/>
<path d="M185.368 346.849H178.526V360.828H185.368V346.849Z" fill="#586773"/>
<path d="M196.899 241.939H95.7158V248.527H196.899V241.939Z" fill="#E5F0F8"/>
<path d="M201.713 241.939H196.898V248.527H201.713V241.939Z" fill="#BBDBF3"/>
<path d="M199.602 274.079H209.315V258.114H199.602V274.079Z" fill="#586773"/>
<path d="M190.563 248.527H187.396V352.297H190.563V248.527Z" fill="#E5F0F8"/>
<path d="M188.452 274.079H196.477V258.114H188.452V274.079Z" fill="#586773"/>
<path d="M196.476 274.839H199.602V257.354H196.476V274.839Z" fill="#BBDBF3"/>
<path d="M185.326 274.839H188.451V257.354H185.326V274.839Z" fill="#BBDBF3"/>
<path d="M194.048 340.577H183.911V350.207H194.048V340.577Z" fill="#BBDBF3"/>
<path d="M197.532 346.849H180.427V350.207H197.532V346.849Z" fill="#E5F0F8"/>
<path d="M197.532 340.577H180.427V343.935H197.532V340.577Z" fill="#E5F0F8"/>
<path d="M198.387 330.884H59.6465V333.925H198.387V330.884Z" fill="white"/>
</g>
<path opacity="0.3" d="M173.079 352.297H203.993C206.933 352.297 209.316 349.914 209.316 346.975V234.336C209.316 231.396 206.933 229.013 203.993 229.013H173.079C170.139 229.013 167.757 231.396 167.757 234.336V346.975C167.757 349.914 170.139 352.297 173.079 352.297Z" fill="#E5F0F8"/>
<mask id="mask1_189_23605" style="mask-type:luminance" maskUnits="userSpaceOnUse" x="46" y="229" width="95" height="126">
<path d="M46.5146 236.546V331.121C46.5146 335.281 49.8872 338.654 54.0476 338.654H70.7091C73.8961 338.654 76.9713 339.829 79.3457 341.956L91.6249 352.952C93.0063 354.189 94.7957 354.873 96.6503 354.873H132.998C137.158 354.873 140.531 351.5 140.531 347.34V236.546C140.531 232.386 137.158 229.013 132.998 229.013H54.0473C49.8872 229.013 46.5146 232.386 46.5146 236.546Z" fill="white"/>
</mask>
<g mask="url(#mask1_189_23605)">
<path d="M43.3348 352.297H74.2493C77.1888 352.297 79.5715 349.915 79.5715 346.975V234.336C79.5715 231.396 77.1885 229.014 74.2493 229.014H43.3348C40.3954 229.014 38.0127 231.397 38.0127 234.336V346.975C38.0124 349.915 40.3954 352.297 43.3348 352.297Z" fill="#E5F0F8"/>
<path d="M81.9873 335.066H78.7588V344.444H81.9873V335.066Z" fill="#BBDBF3"/>
<path d="M213.623 386.887H91.3831C89.3379 386.887 87.6797 385.229 87.6797 383.184V207.729H213.623V386.887Z" fill="#93ACBF"/>
<path d="M188.821 343.935H69.2129V346.849H188.821V343.935Z" fill="#586773"/>
<path d="M88.6942 333.925H72.0537V336.206H88.6942V333.925Z" fill="#BBDBF3"/>
<path d="M72.6657 360.829H79.5078V346.849H72.6657V360.829Z" fill="#586773"/>
<path d="M196.899 241.939H95.7158V248.527H196.899V241.939Z" fill="#E5F0F8"/>
<path d="M112.176 259.169H113.738V255.917H112.176V259.169Z" fill="#586773"/>
<path d="M91.3544 259.169H92.917V255.917H91.3544V259.169Z" fill="#586773"/>
<path d="M105.461 255.917H103.898V259.169H105.461V255.917Z" fill="#586773"/>
<path d="M102.969 252.918H118.343V229.013H102.969V252.918Z" fill="white"/>
<path d="M118.342 252.918H125.606V229.013H118.342V252.918Z" fill="#BBDBF3"/>
<path d="M89.1158 256.804H112.176V252.918H89.1158V256.804Z" fill="#E5F0F8"/>
<path d="M112.176 256.804H121.975V252.918H112.176V256.804Z" fill="#BBDBF3"/>
<path d="M89.1158 252.918H102.969V249.793H89.1158V252.918Z" fill="#E5F0F8"/>
<path d="M90.5515 262.463H106.263V257.986H90.5515V262.463Z" fill="#E5F0F8"/>
<path d="M107.192 262.463H112.514V257.986H107.192V262.463Z" fill="#BBDBF3"/>
<path d="M112.514 262.463H118.701V257.986H112.514V262.463Z" fill="#586773"/>
<path d="M110.613 264.892H112.725V262.463H110.613V264.892Z" fill="#BBDBF3"/>
<path d="M111.669 266.856L112.725 264.892H110.613L111.669 266.856Z" fill="#E5F0F8"/>
<path d="M128.774 248.527H125.606V352.297H128.774V248.527Z" fill="#E5F0F8"/>
<path d="M132.259 340.577H122.123V350.207H132.259V340.577Z" fill="#BBDBF3"/>
<path d="M135.743 346.849H118.638V350.207H135.743V346.849Z" fill="#E5F0F8"/>
<path d="M135.743 340.577H118.638V343.935H135.743V340.577Z" fill="#E5F0F8"/>
<path d="M198.387 330.884H59.6465V333.925H198.387V330.884Z" fill="white"/>
</g>
<path opacity="0.3" d="M46.5146 236.546V331.121C46.5146 335.281 49.8872 338.654 54.0476 338.654H70.7091C73.8961 338.654 76.9713 339.829 79.3457 341.956L91.6249 352.952C93.0063 354.189 94.7957 354.873 96.6503 354.873H132.998C137.158 354.873 140.531 351.5 140.531 347.34V236.546C140.531 232.386 137.158 229.013 132.998 229.013H54.0473C49.8872 229.013 46.5146 232.386 46.5146 236.546Z" fill="#E5F0F8"/>
<path d="M44.2982 339.641H40.4482V348.228H44.2982V339.641Z" fill="#BBDBF3"/>
<path d="M82.9283 349.214H48.5918V366.319H82.9283V349.214Z" fill="#586773"/>
<path d="M66.4145 351.199H51.168V352.297H66.4145V351.199Z" fill="#6ADB6A"/>
<path d="M68.4208 353.606H51.168V354.704H68.4208V353.606Z" fill="#6ADB6A"/>
<path d="M67.3227 356.014H51.168V357.112H67.3227V356.014Z" fill="#6ADB6A"/>
<path d="M71.1448 358.421H51.168V359.519H71.1448V358.421Z" fill="#6ADB6A"/>
<path d="M70.0679 360.829H51.168V361.927H70.0679V360.829Z" fill="#6ADB6A"/>
<path d="M69.2445 363.236H51.168V364.334H69.2445V363.236Z" fill="#6ADB6A"/>
<path d="M40.7419 348.228C42.7508 348.228 44.3794 346.306 44.3794 343.935C44.3794 341.563 42.7508 339.641 40.7419 339.641C38.733 339.641 37.1045 341.563 37.1045 343.935C37.1045 346.306 38.733 348.228 40.7419 348.228Z" fill="#E5F0F8"/>
<path d="M168.897 382.579C168.27 382.579 167.757 382.066 167.757 381.439V362.518C167.757 361.891 168.27 361.378 168.897 361.378C169.524 361.378 170.038 361.891 170.038 362.518V381.439C170.038 382.066 169.525 382.579 168.897 382.579Z" fill="#93ACBF"/>
<path d="M208.176 382.579C207.548 382.579 207.035 382.066 207.035 381.439V362.518C207.035 361.891 207.548 361.378 208.176 361.378C208.803 361.378 209.316 361.891 209.316 362.518V381.439C209.316 382.066 208.803 382.579 208.176 382.579Z" fill="#93ACBF"/>
<path d="M204.247 382.579C203.62 382.579 203.106 382.066 203.106 381.439V362.518C203.106 361.891 203.62 361.378 204.247 361.378C204.874 361.378 205.387 361.891 205.387 362.518V381.439C205.387 382.066 204.874 382.579 204.247 382.579Z" fill="#93ACBF"/>
<path d="M200.319 382.579C199.692 382.579 199.179 382.066 199.179 381.439V362.518C199.179 361.891 199.692 361.378 200.319 361.378C200.946 361.378 201.46 361.891 201.46 362.518V381.439C201.46 382.066 200.946 382.579 200.319 382.579Z" fill="#93ACBF"/>
<path d="M196.391 382.579C195.764 382.579 195.251 382.066 195.251 381.439V362.518C195.251 361.891 195.764 361.378 196.391 361.378C197.018 361.378 197.532 361.891 197.532 362.518V381.439C197.532 382.066 197.018 382.579 196.391 382.579Z" fill="#93ACBF"/>
<path d="M192.464 382.579C191.837 382.579 191.323 382.066 191.323 381.439V362.518C191.323 361.891 191.837 361.378 192.464 361.378C193.091 361.378 193.604 361.891 193.604 362.518V381.439C193.604 382.066 193.091 382.579 192.464 382.579Z" fill="#93ACBF"/>
<path d="M188.536 382.579C187.909 382.579 187.396 382.066 187.396 381.439V362.518C187.396 361.891 187.909 361.378 188.536 361.378C189.163 361.378 189.676 361.891 189.676 362.518V381.439C189.676 382.066 189.163 382.579 188.536 382.579Z" fill="#93ACBF"/>
<path d="M184.608 382.579C183.981 382.579 183.468 382.066 183.468 381.439V362.518C183.468 361.891 183.981 361.378 184.608 361.378C185.235 361.378 185.749 361.891 185.749 362.518V381.439C185.748 382.066 185.235 382.579 184.608 382.579Z" fill="#93ACBF"/>
<path d="M180.68 382.579C180.053 382.579 179.54 382.066 179.54 381.439V362.518C179.54 361.891 180.053 361.378 180.68 361.378C181.308 361.378 181.821 361.891 181.821 362.518V381.439C181.821 382.066 181.308 382.579 180.68 382.579Z" fill="#93ACBF"/>
<path d="M176.753 382.579C176.126 382.579 175.612 382.066 175.612 381.439V362.518C175.612 361.891 176.126 361.378 176.753 361.378C177.38 361.378 177.893 361.891 177.893 362.518V381.439C177.893 382.066 177.38 382.579 176.753 382.579Z" fill="#93ACBF"/>
<path d="M172.825 382.579C172.198 382.579 171.685 382.066 171.685 381.439V362.518C171.685 361.891 172.198 361.378 172.825 361.378C173.452 361.378 173.965 361.891 173.965 362.518V381.439C173.965 382.066 173.452 382.579 172.825 382.579Z" fill="#93ACBF"/>
<path d="M38.2652 380.749C39.6333 380.749 40.7423 379.64 40.7423 378.272C40.7423 376.903 39.6333 375.794 38.2652 375.794C36.8971 375.794 35.7881 376.903 35.7881 378.272C35.7881 379.64 36.8971 380.749 38.2652 380.749Z" fill="#E5F0F8"/>
<path d="M40.0135 218.32C40.9809 217.352 40.9809 215.784 40.0135 214.817C39.0461 213.849 37.4777 213.849 36.5104 214.817C35.543 215.784 35.543 217.352 36.5104 218.32C37.4777 219.287 39.0461 219.287 40.0135 218.32Z" fill="#E5F0F8"/>
<path d="M40.6563 228.46C40.9718 227.129 40.1485 225.794 38.8173 225.479C37.4862 225.163 36.1514 225.987 35.8359 227.318C35.5204 228.649 36.3437 229.984 37.6749 230.299C39.006 230.615 40.3409 229.791 40.6563 228.46Z" fill="#E5F0F8"/>
<path d="M151.671 219.043C153.022 218.825 153.939 217.553 153.721 216.202C153.503 214.852 152.231 213.934 150.88 214.153C149.529 214.371 148.612 215.643 148.83 216.994C149.049 218.344 150.321 219.262 151.671 219.043Z" fill="#E5F0F8"/>
<path d="M153.579 228.852C154.1 227.587 153.496 226.139 152.231 225.618C150.966 225.097 149.519 225.701 148.998 226.966C148.477 228.231 149.08 229.678 150.345 230.199C151.61 230.72 153.058 230.117 153.579 228.852Z" fill="#E5F0F8"/>
<path d="M151.286 380.749C152.654 380.749 153.763 379.64 153.763 378.272C153.763 376.903 152.654 375.794 151.286 375.794C149.918 375.794 148.809 376.903 148.809 378.272C148.809 379.64 149.918 380.749 151.286 380.749Z" fill="#E5F0F8"/>
<path d="M94.775 380.749C96.1431 380.749 97.2521 379.64 97.2521 378.272C97.2521 376.903 96.1431 375.794 94.775 375.794C93.4069 375.794 92.2979 376.903 92.2979 378.272C92.2979 379.64 93.4069 380.749 94.775 380.749Z" fill="#E5F0F8"/>
<path d="M120.687 189.821H102.779V199.62H120.687V189.821Z" fill="#BBDBF3"/>
<path d="M103.323 192.777C103.323 192.777 109.109 154.513 145.6 156.033C145.6 156.033 114.769 161.862 113.333 192.777H103.323Z" fill="#BBDBF3"/>
<path d="M114.709 189.821H96.8018V199.62H114.709V189.821Z" fill="white"/>
<path d="M187.876 199.62C187.876 199.62 182.09 154.513 145.6 156.034C145.6 156.034 177.191 159.581 180.696 199.62H187.876Z" fill="#93ACBF"/>
<path opacity="0.5" d="M87.542 232.051L57.4313 335.618H54.0488C51.5655 335.618 49.5479 333.601 49.5479 331.123V327.837L77.3946 232.051H87.542Z" fill="white"/>
<path opacity="0.5" d="M110.411 232.051L79.5244 338.273C76.9233 336.55 73.8674 335.618 70.7097 335.618H61.4346L91.5453 232.051H110.411Z" fill="white"/>
<path opacity="0.5" d="M137.497 236.546V237.461L104.239 351.84H96.6502C95.81 351.84 94.9965 351.61 94.29 351.171L128.923 232.051H132.996C135.48 232.051 137.497 234.068 137.497 236.546Z" fill="white"/>
<path opacity="0.5" d="M137.498 251.232V316.11L127.11 351.84H108.244L137.498 251.232Z" fill="white"/>
<path d="M576.181 270.737L577.404 247.488L426.65 257.611L430.726 292.557C430.895 294.003 432.175 295.057 433.627 294.945L433.901 294.924L576.181 270.737Z" fill="white"/>
<path d="M575.983 271.291C573.802 271.225 568.683 271.514 566.887 275.466C565.021 279.575 564.96 289.036 565.005 292.496C565.015 293.313 565.03 293.795 565.03 293.795L564.817 294.231L559.968 304.225L452.643 310.946L447.169 304.225C447.169 304.225 446.85 303.935 446.302 303.464C443.922 301.409 437.262 295.839 433.903 294.921C433.903 294.921 434.203 294.718 434.674 294.373C434.674 294.373 434.674 294.373 434.679 294.373C436.054 293.348 438.865 291.08 439.818 288.904C441.102 285.982 443.664 280.336 453.617 278.438C463.57 276.541 475.984 277.414 483.421 279.362C489.493 280.95 493.755 282.167 498.376 279.073L498.381 279.068C499.421 278.372 500.481 277.459 501.582 276.283C507.584 269.87 518.612 267.202 523.64 268.485C525.76 269.028 527.794 269.586 529.621 269.906C532.122 270.342 534.242 270.332 535.698 269.206C538.209 267.258 547.138 262.382 558.217 263.666C567.182 264.701 573.929 269.094 576.181 270.738C576.425 270.915 576.288 271.301 575.983 271.291Z" fill="#E7888B"/>
<path d="M565.031 293.795L559.968 304.225L452.643 310.946L447.169 304.225C447.169 304.225 446.85 303.935 446.302 303.464C447.804 302.622 452.12 300.653 458.837 301.303C467.319 302.124 469.303 304.59 469.303 304.59C469.303 304.59 472.895 300.552 480.266 300.486C487.632 300.415 491.533 303.834 491.533 303.834C491.533 303.834 496.433 299.182 500.172 299.045C503.911 298.908 507.137 300.892 507.137 300.892C507.137 300.892 513.352 293.089 518.379 293.759C523.406 294.429 525.304 297.508 525.304 297.508C525.304 297.508 530.179 289.969 534.998 289.969C539.823 289.969 541.618 296.585 541.618 296.585C541.618 296.585 545.311 289.863 547.67 289.969C550.03 290.071 553.773 296.483 553.773 296.483C553.773 296.483 555.569 289.508 558.598 289.35C561.626 289.198 563.575 294.073 563.575 294.073C563.575 294.073 564.041 293.12 565.005 292.496C565.015 293.313 565.031 293.795 565.031 293.795Z" fill="#B86B76"/>
<path d="M526.279 296.859C526.279 296.859 524.562 287.214 523.847 281.811L523.475 299.39L526.279 300.962V296.859Z" fill="#B86B76"/>
<path d="M508.393 300.962C508.393 300.962 506.306 290.019 506.169 285.231C506.169 285.231 505.417 300.826 506.169 302.604C506.922 304.383 508.393 300.962 508.393 300.962Z" fill="#B86B76"/>
<path d="M468.75 313.63C468.613 316.162 467.416 317.871 463.687 318.693C459.963 319.515 458.254 316.948 457.361 316.775C457.244 316.755 457.117 316.755 456.975 316.765C456.965 316.765 456.96 316.77 456.95 316.77C456.027 316.882 454.622 317.668 452.882 317.668C450.863 317.668 448.64 314.416 448.23 312.468C447.91 310.946 447.337 306.558 447.103 304.717C447.037 304.189 447.403 303.702 447.93 303.626C448.823 303.499 450.254 303.378 451.786 303.165C453.617 302.911 459.989 302.997 463.976 303.677C465.356 303.911 466.447 304.215 466.974 304.6C469.024 306.107 468.887 311.099 468.75 313.63Z" fill="white"/>
<path d="M491.837 314.761C491.903 316.436 488.073 319.545 485.917 319.718C483.766 319.89 481.3 317.425 480.311 317.561C479.317 317.698 477.471 320.062 475.111 320.027C473.234 319.996 470.455 318.439 469.288 315.837C468.983 315.167 468.791 314.426 468.75 313.63C468.547 309.734 468.613 305.696 472.956 303.403C477.303 301.115 484.654 301.947 486.947 303.032C487.82 303.448 488.692 304.021 489.438 304.564C489.636 304.711 489.823 304.853 490.001 304.99C490.965 305.741 491.548 306.872 491.594 308.095C491.67 310.236 491.791 313.64 491.837 314.761Z" fill="white"/>
<path d="M508.558 315.066C507.888 316.248 505.225 317.399 502.44 317.709C501.847 317.775 501.248 317.805 500.659 317.785C497.327 317.683 492.634 316.04 491.822 314.452L491.533 307.542C491.63 305.371 496.403 300.085 499.995 300.191C501.147 300.222 502.237 300.328 503.206 300.521C505.261 300.927 506.793 301.724 507.28 303.032C507.995 304.96 509.38 313.63 508.558 315.066Z" fill="white"/>
<path d="M570.735 348.002L578.225 381.552H426.65L431.609 338.768L570.735 348.002Z" fill="white"/>
<path d="M525.795 311.733C525.633 313.214 523.147 315.821 520.423 316.846C519.759 317.095 519.074 317.252 518.409 317.273C515.025 317.374 509.217 315.634 508.811 313.732C508.811 313.732 507.659 304.489 507.137 302.723C507.137 302.723 509.48 300.344 511.586 298.396C513.478 296.641 516.567 294.81 519.403 295.2C519.723 295.241 520.042 295.317 520.357 295.418C523.436 296.443 524.821 298.239 525.232 299.319C525.643 300.395 526.003 309.886 525.795 311.733Z" fill="white"/>
<path d="M575.983 271.291C573.801 271.225 568.683 271.514 566.887 275.466C565.02 279.575 564.959 289.036 565.005 292.496C565.015 293.313 565.03 293.794 565.03 293.794L564.817 294.231C564.807 293.089 564.746 286.423 565.03 282.837C565.339 278.905 566.192 275.998 567.354 274.081C568.515 272.168 570.945 271.62 571.082 270.971C571.219 270.322 568.927 268.505 566.364 269.053C563.802 269.601 563.386 288.65 563.863 292.069C564.345 295.489 562.874 295.144 562.874 295.144C562.874 295.144 563.625 271.757 561.707 269.094C559.795 266.435 552.474 268.267 553.565 271.483C554.656 274.695 554.869 297.543 554.869 297.543L552.682 298.807C552.682 298.807 553.636 271.484 550.425 269.5C547.208 267.516 539.31 273.498 539.31 273.498C541.461 280.681 541.339 298.807 541.339 298.807L535.672 291.517C535.672 291.517 533.663 271.651 529.62 269.906C532.121 270.342 534.242 270.332 535.698 269.206C538.209 267.258 547.137 262.383 558.217 263.666C567.181 264.701 573.928 269.094 576.18 270.738C576.424 270.915 576.287 271.301 575.983 271.291Z" fill="#B86B76"/>
<path d="M543.394 310.297C543.394 311.362 540.371 314.152 538.468 314.787C538.265 314.858 538.077 314.898 537.905 314.914C536.109 315.066 525.831 311.271 525.831 311.271L523.848 301.881L525.233 299.319C525.233 299.319 530.671 291.573 534.724 291.415C534.922 291.41 535.12 291.415 535.308 291.446C539.062 291.948 541.791 298.482 542.573 301.115C543.394 303.885 543.394 309.115 543.394 310.297Z" fill="white"/>
<path d="M556.168 310.14C556.244 311.053 554.697 311.845 552.429 312.154C552.363 312.169 552.297 312.174 552.226 312.179H552.221C551.612 312.255 550.958 312.296 550.268 312.296C547.092 312.296 544.545 310.673 543.018 308.988C542.917 308.877 542.815 308.765 542.724 308.653C541.238 306.857 541.339 298.807 541.339 298.807C541.339 298.807 545.905 291.669 547.802 291.415C548.599 291.309 549.761 292.349 550.887 293.759C552.449 295.712 553.956 298.37 554.372 299.679C555.087 301.937 556.061 308.963 556.168 310.14Z" fill="#F7F5F4"/>
<path d="M563.006 311.505C562.377 311.596 561.728 311.631 561.124 311.611C558.765 311.545 555.686 310.008 555.686 310.008L553.565 298.513C553.565 298.513 556.746 290.304 558.902 290.304C558.974 290.304 559.039 290.31 559.11 290.325C561.246 290.705 564.087 296.727 564.681 299.471C565.299 302.312 566.187 307.989 566.36 309.46C566.487 310.556 564.833 311.251 563.006 311.505Z" fill="#F7F5F4"/>
<path d="M565.76 309.219C565.76 309.219 568.53 309.937 568.709 309.399C568.889 308.86 567.529 297.163 565.657 294.393C563.785 291.623 563.271 298.856 563.271 298.856L565.76 309.219Z" fill="#F7F5F4"/>
<path d="M570.738 348C570.941 352.104 566.735 358.055 562.631 361.235C558.527 364.416 543.856 364.005 539.031 362.676C534.212 361.342 534.516 359.8 525.857 362.367C517.197 364.929 502.815 363.904 487.525 362.367C472.24 360.83 449.259 351.85 446.18 350.567C443.101 349.283 443.765 347.026 440.534 343.642C437.302 340.254 431.61 338.767 431.61 338.767C431.61 338.767 440.229 335.176 443.151 333.897C443.953 333.542 444.739 333.131 445.46 332.715C447.367 331.614 448.803 330.503 448.803 330.503C450.426 330.295 453.054 329.423 453.054 329.423L461.856 328.966L556.168 324.096L563.088 332.289C563.088 332.289 564.889 344.926 565.503 346.052C566.116 347.183 570.738 348 570.738 348Z" fill="#E7888B"/>
<path d="M465.387 334.546C456.205 337.28 447.804 333.826 445.46 332.715C447.367 331.614 448.803 330.503 448.803 330.503C450.427 330.295 453.054 329.422 453.054 329.422L461.856 328.966C466.98 330.863 470.434 333.04 465.387 334.546Z" fill="#B86B76"/>
<path d="M471.727 331.097C471.372 331.391 469.495 332.968 466.756 334.059C464.945 334.79 462.758 335.302 460.374 335.099C455.62 334.693 450.928 333.202 449.188 332.608C448.777 332.461 448.528 332.04 448.605 331.609C448.863 330.092 449.528 326.617 450.126 324.456C450.36 323.624 450.684 322.828 451.085 322.118C452.009 320.449 453.312 319.256 454.641 319.221C456.539 319.17 459.156 320.55 461.876 320.028C464.595 319.505 470.292 319.145 471.469 321.636C472.65 324.121 472.316 330.61 471.727 331.097Z" fill="white"/>
<path d="M513.382 334.972C513.382 335.546 512.058 336.601 510.328 337.458C508.675 338.275 506.66 338.919 505.073 338.802C501.821 338.564 496.185 336.231 495.617 333.359L495.581 324.106C495.581 324.106 498.402 319.992 504.078 320.027C509.755 320.063 511.911 321.772 512.631 322.695C513.347 323.619 513.382 333.841 513.382 334.972Z" fill="white"/>
<path d="M529.646 334.46C529.291 335.799 528.429 337.28 527.206 338.462C527.201 338.467 527.201 338.473 527.196 338.477C525.933 339.69 524.284 340.588 522.412 340.664C518.719 340.821 514.868 339.69 513.382 334.972C511.896 330.254 512.631 322.695 512.631 322.695C512.631 322.695 516.304 318.454 521.23 318.246C526.156 318.044 528.565 319.89 529.748 321.275C530.925 322.66 530.361 331.741 529.646 334.46Z" fill="white"/>
<path d="M543.136 317.277C543.136 317.277 544.444 315.79 546.753 314.918C548.843 314.128 552.951 314.038 553.858 315.426C554.764 316.814 555.089 323.121 555.038 326.045C554.986 328.97 554.319 336.357 551.293 336.562C548.266 336.767 541.339 327.944 541.339 327.944L543.136 317.277Z" fill="#F7F5F4"/>
<path d="M552.678 315.546C552.678 315.546 555.756 313.323 557.979 313.05C560.202 312.776 561.399 313.015 561.672 313.699C561.946 314.383 560.441 328.611 560.065 330.663C559.689 332.715 559.21 335.04 558.047 335.246C556.884 335.451 553.122 327.548 553.122 327.31C553.122 327.072 552.678 315.546 552.678 315.546Z" fill="#F7F5F4"/>
<path d="M559.518 328.166C559.518 328.337 561.878 333.193 562.767 332.988C563.656 332.783 565.571 313.307 564.203 312.939C562.835 312.571 560.441 313.699 560.441 313.699L559.518 328.166Z" fill="#F7F5F4"/>
<path d="M542.775 339.279C541.857 339.356 540.172 339.198 538.29 338.574C538.285 338.574 538.28 338.569 538.275 338.569C535.013 337.489 531.178 335.013 529.747 329.945C527.49 321.94 529.747 321.275 529.747 321.275C529.747 321.275 531.883 317.11 535.576 315.746C536.353 315.462 537.2 315.299 538.108 315.325C540.746 315.401 542.354 316.03 543.298 316.628C544.069 317.12 544.525 317.983 544.54 318.896C544.591 322.148 544.743 331.548 544.83 333.537C544.931 335.946 545.291 339.076 542.775 339.279Z" fill="white"/>
<path d="M581.919 386.888H423.299V385.118C423.299 383.149 424.895 381.552 426.864 381.552H578.354C580.323 381.552 581.919 383.149 581.919 385.118L581.919 386.888Z" fill="#93ACBF"/>
<path d="M582.867 247.078L424.61 257.799L424.491 256.033C424.358 254.068 425.842 252.368 427.807 252.235L578.95 241.996C580.914 241.863 582.615 243.347 582.748 245.312L582.867 247.078Z" fill="#93ACBF"/>
<path d="M498.376 279.073C494.526 282.512 482.295 283.314 472.26 280.853C462.226 278.393 447.824 281.264 444.131 287.2C440.509 293.018 434.898 294.322 434.68 294.373C436.055 293.348 438.865 291.081 439.819 288.904C441.102 285.982 443.664 280.336 453.617 278.439C463.57 276.541 475.984 277.414 483.421 279.362C489.493 280.95 493.755 282.167 498.376 279.073Z" fill="#B86B76"/>
<path d="M543.233 341.021C542.91 341.158 542.696 341.47 542.696 341.822C542.694 344.483 542.683 355.124 542.593 357.632C542.491 360.505 544.645 361.354 547.518 360.16C550.143 359.069 547.723 342.008 546.573 336.731C546.533 336.548 546.27 336.564 546.247 336.751C546.087 338.049 545.469 340.08 543.233 341.021Z" fill="#B86B76"/>
<path d="M471.728 331.097C471.373 331.391 469.496 332.968 466.756 334.059C466.939 331.122 467.157 323.162 464.088 322.503C459.801 321.58 458.817 325.004 457.331 323.208C455.428 320.91 452.664 320.9 451.086 322.117C452.009 320.448 453.313 319.256 454.642 319.221C456.539 319.17 459.157 320.55 461.876 320.027C464.595 319.505 470.292 319.145 471.469 321.636C472.651 324.121 472.317 330.61 471.728 331.097Z" fill="#F0EEED"/>
<path d="M555.13 334.741L556.783 357.911C556.784 357.931 556.784 357.948 556.779 357.968C556.733 358.163 556.425 359.331 555.486 359.581C554.662 359.801 553.529 359.668 553.115 359.607C553.021 359.593 552.952 359.516 552.946 359.421L551.8 337.776C551.796 337.689 551.846 337.61 551.927 337.58C552.402 337.407 554.01 336.69 554.748 334.682C554.821 334.484 555.115 334.531 555.13 334.741Z" fill="#B86B76"/>
<path d="M560.532 333.246L562.955 352.576C562.957 352.596 562.957 352.613 562.954 352.632C562.906 352.903 562.465 355.107 560.763 355.537C560.649 355.566 560.537 355.479 560.524 355.363L558.455 336.086C558.449 336.023 558.47 335.963 558.516 335.921C558.784 335.678 559.73 334.737 560.145 333.213C560.201 333.005 560.506 333.033 560.532 333.246Z" fill="#B86B76"/>
<path d="M495.667 333.08C495.601 333.511 495.51 333.836 495.393 334.013C495.297 334.161 495.17 334.323 495.008 334.505C493.74 335.921 490.371 338.188 483.391 338.462C475.523 338.767 471.911 333.537 471.85 330.898C471.819 329.387 472.017 326.607 472.707 324.187C472.707 324.187 472.707 324.187 472.707 324.182C472.864 323.619 473.052 323.076 473.27 322.574C473.346 322.406 473.422 322.239 473.503 322.077C474.848 319.398 476.892 319.992 479.591 320.144C482.295 320.301 485.648 320.986 488.448 320.301C491.254 319.616 495.119 321.361 495.393 322.559C495.439 322.756 495.495 323.162 495.545 323.715V323.72C495.774 326.049 496.012 330.909 495.667 333.08Z" fill="white"/>
<path d="M468.75 313.63C468.613 316.161 467.416 317.871 463.687 318.693C459.963 319.515 458.254 316.948 457.361 316.775C457.244 316.755 457.118 316.755 456.976 316.765C458.776 316.273 458.995 317.81 462.322 318.231C465.544 318.637 464.088 308.658 463.976 303.677C465.356 303.91 466.447 304.214 466.974 304.6C469.024 306.107 468.887 311.099 468.75 313.63Z" fill="#F7F5F4"/>
<path d="M491.837 314.761C491.903 316.436 488.073 319.545 485.917 319.718C483.766 319.89 481.301 317.425 480.312 317.561C479.317 317.698 477.471 320.062 475.112 320.027C473.235 319.996 470.455 318.439 469.288 315.837C470.627 318.266 474.559 319.976 477.136 318.54C478.731 317.65 479.552 315.536 479.945 314.059C480.002 313.844 480.311 313.865 480.344 314.085C480.879 317.595 483.758 319.046 485.907 318.855C488.352 318.637 489.854 316.283 490.316 313.412C490.651 311.332 489.884 306.868 489.438 304.564C489.636 304.711 489.824 304.853 490.001 304.991C490.965 305.741 491.549 306.873 491.594 308.095C491.67 310.236 491.792 313.64 491.837 314.761Z" fill="#F7F5F4"/>
<path d="M508.557 315.066C507.888 316.248 505.224 317.399 502.439 317.709C506.437 316.258 506.102 313.204 505.666 308.988C505.23 304.773 503.205 300.521 503.205 300.521C505.26 300.927 506.792 301.724 507.279 303.033C507.994 304.96 509.379 313.63 508.557 315.066Z" fill="#F7F5F4"/>
<path d="M525.795 311.733C525.633 313.214 523.147 315.821 520.423 316.846C522.102 315.309 521.869 308.846 521.437 303.768C521.006 298.69 519.403 295.2 519.403 295.2C519.723 295.241 520.042 295.317 520.357 295.418C523.437 296.443 524.821 298.239 525.232 299.319C525.643 300.395 526.003 309.886 525.795 311.733Z" fill="#F7F5F4"/>
<path d="M543.394 310.297C543.394 311.362 540.371 314.152 538.468 314.787C538.519 312.139 538.519 308.806 538.316 306.021C537.945 300.973 535.308 291.451 535.308 291.451V291.446C539.062 291.948 541.791 298.482 542.572 301.115C543.394 303.885 543.394 309.115 543.394 310.297Z" fill="#F0EEED"/>
<path d="M556.168 310.14C556.244 311.053 554.697 311.845 552.429 312.154C553.824 311.926 553.961 310.282 553.565 307C553.154 303.56 551.982 296.996 550.887 293.759C552.449 295.712 553.956 298.37 554.372 299.679C555.087 301.937 556.061 308.963 556.168 310.14Z" fill="#F0EEED"/>
<path d="M563.006 311.505C564.031 310.145 564.275 307.086 563.935 302.47C563.59 297.848 560.683 292.171 559.11 290.325C561.246 290.705 564.087 296.727 564.681 299.471C565.299 302.312 566.187 307.989 566.36 309.46C566.487 310.556 564.833 311.251 563.006 311.505Z" fill="#F0EEED"/>
<path d="M495.546 323.715C495.429 323.543 492.969 319.804 489.088 321.047C485.111 322.32 479.647 321.671 477.161 321.108C474.757 320.565 472.839 323.948 472.707 324.182C472.864 323.619 473.052 323.076 473.27 322.574C473.346 322.407 473.422 322.239 473.503 322.077C474.848 319.398 476.892 319.992 479.591 320.144C482.295 320.301 485.648 320.986 488.448 320.301C491.254 319.617 495.119 321.362 495.393 322.559C495.439 322.757 495.495 323.162 495.546 323.715Z" fill="#F0EEED"/>
<path d="M554.644 330.502C554.644 330.502 555.559 323.737 554.291 318.232" stroke="#EBE9E8" stroke-width="0.507289" stroke-miterlimit="10"/>
<path d="M560.218 329.641C560.218 329.641 561.511 320.803 561.474 317.791" stroke="#EBE9E8" stroke-width="0.507289" stroke-miterlimit="10"/>
<path d="M513.383 334.972C513.383 335.546 512.059 336.601 510.329 337.458C510.329 337.458 510.136 332.836 509.933 327.307C509.725 321.782 507.285 320.255 504.079 320.027C509.756 320.063 511.912 321.772 512.632 322.695C513.347 323.619 513.383 333.841 513.383 334.972Z" fill="#F0EEED"/>
<path d="M529.646 334.46C529.291 335.799 528.428 337.28 527.206 338.462C529.676 334.998 528.672 327.292 528.332 323.715C527.987 320.133 521.229 318.246 521.229 318.246C526.156 318.044 528.565 319.89 529.747 321.275C530.924 322.66 530.361 331.741 529.646 334.46Z" fill="#F0EEED"/>
<path d="M542.776 339.279C541.857 339.356 540.173 339.198 538.291 338.574C541.112 339.305 542.557 338.031 542.588 336.601C542.618 335.17 542.01 326.957 541.34 322.082C540.665 317.207 537.703 316.217 535.577 315.751V315.745C536.353 315.461 537.2 315.299 538.109 315.324C540.746 315.4 542.355 316.029 543.298 316.628C544.07 317.12 544.526 317.982 544.541 318.896C544.592 322.148 544.744 331.548 544.83 333.537C544.931 335.946 545.292 339.076 542.776 339.279Z" fill="#F0EEED"/>
<path d="M470.125 333.567C470.546 333.288 471.1 333.617 471.059 334.12C470.755 337.867 469.613 349.05 466.771 350.074C463.351 351.305 457.126 351.374 456.032 347.817C454.938 344.26 457.4 337.838 459.452 337.458C461.504 337.078 465.999 336.493 467.855 335.144C468.746 334.497 469.54 333.955 470.125 333.567Z" fill="#E68E8F"/>
<path d="M495.58 336.941C495.58 336.941 497.755 352.058 490.437 352.058C483.118 352.058 472.706 348.98 472.706 348.98C472.706 348.98 482.023 355.204 489.547 355.956C497.072 356.709 501.182 356.025 505.624 357.735C510.067 359.445 515.95 356.23 515.95 356.23C515.95 356.23 511.777 357.735 507.673 355.956C503.569 354.178 498.987 356.024 498.166 353.015C497.345 350.006 498.193 340.224 495.58 336.941Z" fill="#E68E8F"/>
<path d="M393.432 4.97818H192.727C190.351 4.97818 188.425 6.90444 188.425 9.28055V19.2423V107.869H397.734V19.2423V9.28055C397.734 6.90444 395.808 4.97818 393.432 4.97818Z" fill="#0775EF"/>
<path d="M395.396 16.8388H190.763V105.355H395.396V16.8388Z" fill="white"/>
<path d="M378.381 38.2318H207.777V83.9621H378.381V38.2318Z" fill="#E5F0F8"/>
<path d="M370.378 57.4066H215.771V75.9747H370.378V57.4066Z" fill="#6ADB6A"/>
<path d="M230.536 57.4066L223.089 75.9747H215.771V75.9102L223.154 57.4066H230.536Z" fill="#98EB98"/>
<path d="M243.399 57.4066L235.953 75.9747H228.635L236.049 57.4066H243.399Z" fill="#98EB98"/>
<path d="M256.293 57.4066L248.846 75.9747H241.496L248.911 57.4066H256.293Z" fill="#98EB98"/>
<path d="M269.156 57.4066L261.709 75.9747H254.359L261.774 57.4066H269.156Z" fill="#98EB98"/>
<path d="M282.018 57.4066L274.604 75.9747H267.254L274.668 57.4066H282.018Z" fill="#98EB98"/>
<path d="M294.912 57.4066L287.465 75.9747H280.115L287.53 57.4066H294.912Z" fill="#98EB98"/>
<path d="M307.774 57.4066L300.36 75.9747H293.01L300.424 57.4066H307.774Z" fill="#98EB98"/>
<path d="M370.386 57.3995H305.062V75.9659H370.386V57.3995Z" fill="white"/>
<path d="M324.729 45.6831H261.421V49.852H324.729V45.6831Z" fill="white"/>
<path d="M212.768 34.8402H209.096V24.9075H212.763C213.775 24.9075 214.646 25.1064 215.377 25.5041C216.111 25.8985 216.677 26.4676 217.075 27.2112C217.472 27.9517 217.671 28.8376 217.671 29.869C217.671 30.9037 217.472 31.7928 217.075 32.5365C216.68 33.2801 216.116 33.8508 215.382 34.2485C214.648 34.643 213.777 34.8402 212.768 34.8402ZM211.497 32.7935H212.676C213.232 32.7935 213.702 32.6998 214.087 32.5122C214.475 32.3215 214.768 32.0127 214.965 31.5859C215.165 31.1559 215.266 30.5836 215.266 29.869C215.266 29.1545 215.165 28.5854 214.965 28.1618C214.764 27.735 214.469 27.4279 214.077 27.2403C213.689 27.0496 213.211 26.9542 212.642 26.9542H211.497V32.7935ZM219.073 34.8402V24.9075H225.999V26.8572H221.474V28.8942H225.644V30.8487H221.474V32.8905H225.999V34.8402H219.073ZM235.955 24.9075V34.8402H233.919L229.966 29.1076H229.903V34.8402H227.502V24.9075H229.568L233.477 30.6305H233.56V24.9075H235.955ZM237.14 26.8572V24.9075H245.535V26.8572H242.524V34.8402H240.157V26.8572H237.14ZM247.616 34.8402H245.036L248.387 24.9075H251.583L254.935 34.8402H252.354L250.022 27.4101H249.944L247.616 34.8402ZM247.272 30.9312H252.665V32.7547H247.272V30.9312ZM256.004 34.8402V24.9075H258.405V32.8905H262.537V34.8402H256.004ZM272.083 27.8854C272.05 27.5297 271.907 27.2533 271.651 27.056C271.399 26.8556 271.038 26.7553 270.57 26.7553C270.259 26.7553 270 26.7958 269.794 26.8766C269.587 26.9574 269.431 27.069 269.328 27.2112C269.225 27.3503 269.171 27.5103 269.168 27.6914C269.161 27.8401 269.191 27.9711 269.255 28.0842C269.323 28.1974 269.42 28.2976 269.546 28.3849C269.676 28.469 269.831 28.5434 270.012 28.608C270.193 28.6727 270.397 28.7293 270.623 28.7778L271.476 28.9718C271.968 29.0785 272.401 29.2207 272.776 29.3986C273.155 29.5764 273.471 29.7882 273.727 30.0339C273.986 30.2796 274.181 30.5626 274.314 30.8827C274.446 31.2027 274.514 31.5616 274.517 31.9593C274.514 32.5866 274.356 33.1249 274.042 33.5744C273.728 34.0238 273.277 34.3681 272.689 34.6074C272.104 34.8467 271.397 34.9663 270.57 34.9663C269.739 34.9663 269.014 34.8418 268.397 34.5929C267.779 34.3439 267.299 33.9656 266.956 33.458C266.614 32.9503 266.437 32.3085 266.428 31.5325H268.727C268.746 31.8526 268.832 32.1194 268.984 32.3328C269.136 32.5462 269.344 32.7078 269.609 32.8178C269.878 32.9277 270.188 32.9827 270.54 32.9827C270.864 32.9827 271.139 32.939 271.365 32.8517C271.595 32.7644 271.771 32.6432 271.894 32.488C272.016 32.3328 272.08 32.155 272.083 31.9545C272.08 31.767 272.021 31.6069 271.908 31.4743C271.795 31.3385 271.62 31.2221 271.384 31.1251C271.152 31.0249 270.854 30.9328 270.492 30.8487L269.454 30.6062C268.594 30.409 267.917 30.0905 267.422 29.6508C266.927 29.2078 266.682 28.6096 266.685 27.8563C266.682 27.242 266.846 26.7036 267.179 26.2413C267.512 25.7789 267.973 25.4184 268.562 25.1597C269.15 24.9011 269.821 24.7717 270.574 24.7717C271.344 24.7717 272.012 24.9027 272.577 25.1646C273.146 25.4232 273.588 25.787 273.901 26.2558C274.215 26.7246 274.375 27.2678 274.382 27.8854H272.083ZM275.73 34.8402V24.9075H282.656V26.8572H278.131V28.8942H282.302V30.8487H278.131V32.8905H282.656V34.8402H275.73ZM293.534 29.8739C293.534 30.9667 293.324 31.8931 292.904 32.6529C292.483 33.4127 291.914 33.9899 291.196 34.3843C290.482 34.7788 289.68 34.976 288.791 34.976C287.898 34.976 287.095 34.7772 286.38 34.3795C285.666 33.9818 285.098 33.4046 284.678 32.648C284.261 31.8882 284.052 30.9635 284.052 29.8739C284.052 28.781 284.261 27.8547 284.678 27.0948C285.098 26.335 285.666 25.7579 286.38 25.3634C287.095 24.9689 287.898 24.7717 288.791 24.7717C289.68 24.7717 290.482 24.9689 291.196 25.3634C291.914 25.7579 292.483 26.335 292.904 27.0948C293.324 27.8547 293.534 28.781 293.534 29.8739ZM291.08 29.8739C291.08 29.2272 290.988 28.6808 290.804 28.2346C290.622 27.7884 290.361 27.4505 290.018 27.2209C289.678 26.9914 289.269 26.8766 288.791 26.8766C288.316 26.8766 287.906 26.9914 287.564 27.2209C287.221 27.4505 286.958 27.7884 286.773 28.2346C286.592 28.6808 286.502 29.2272 286.502 29.8739C286.502 30.5205 286.592 31.067 286.773 31.5131C286.958 31.9593 287.221 32.2972 287.564 32.5268C287.906 32.7563 288.316 32.8711 288.791 32.8711C289.269 32.8711 289.678 32.7563 290.018 32.5268C290.361 32.2972 290.622 31.9593 290.804 31.5131C290.988 31.067 291.08 30.5205 291.08 29.8739ZM303.239 27.8854C303.206 27.5297 303.063 27.2533 302.807 27.056C302.555 26.8556 302.194 26.7553 301.726 26.7553C301.415 26.7553 301.157 26.7958 300.95 26.8766C300.743 26.9574 300.587 27.069 300.484 27.2112C300.381 27.3503 300.327 27.5103 300.324 27.6914C300.318 27.8401 300.347 27.9711 300.411 28.0842C300.479 28.1974 300.576 28.2976 300.702 28.3849C300.832 28.469 300.987 28.5434 301.168 28.608C301.349 28.6727 301.553 28.7293 301.779 28.7778L302.633 28.9718C303.124 29.0785 303.557 29.2207 303.932 29.3986C304.311 29.5764 304.628 29.7882 304.883 30.0339C305.142 30.2796 305.337 30.5626 305.47 30.8827C305.602 31.2027 305.67 31.5616 305.673 31.9593C305.67 32.5866 305.512 33.1249 305.198 33.5744C304.885 34.0238 304.434 34.3681 303.845 34.6074C303.26 34.8467 302.553 34.9663 301.726 34.9663C300.895 34.9663 300.17 34.8418 299.553 34.5929C298.935 34.3439 298.455 33.9656 298.112 33.458C297.77 32.9503 297.593 32.3085 297.584 31.5325H299.883C299.902 31.8526 299.988 32.1194 300.14 32.3328C300.292 32.5462 300.5 32.7078 300.765 32.8178C301.034 32.9277 301.344 32.9827 301.697 32.9827C302.02 32.9827 302.295 32.939 302.521 32.8517C302.751 32.7644 302.927 32.6432 303.05 32.488C303.173 32.3328 303.236 32.155 303.239 31.9545C303.236 31.767 303.177 31.6069 303.064 31.4743C302.951 31.3385 302.776 31.2221 302.54 31.1251C302.308 31.0249 302.01 30.9328 301.648 30.8487L300.61 30.6062C299.75 30.409 299.073 30.0905 298.578 29.6508C298.083 29.2078 297.838 28.6096 297.841 27.8563C297.838 27.242 298.002 26.7036 298.336 26.2413C298.669 25.7789 299.129 25.4184 299.718 25.1597C300.306 24.9011 300.977 24.7717 301.73 24.7717C302.5 24.7717 303.168 24.9027 303.733 25.1646C304.303 25.4232 304.744 25.787 305.058 26.2558C305.371 26.7246 305.531 27.2678 305.538 27.8854H303.239ZM316.261 29.8739C316.261 30.9667 316.051 31.8931 315.63 32.6529C315.21 33.4127 314.641 33.9899 313.923 34.3843C313.209 34.7788 312.407 34.976 311.518 34.976C310.625 34.976 309.822 34.7772 309.107 34.3795C308.393 33.9818 307.825 33.4046 307.405 32.648C306.988 31.8882 306.779 30.9635 306.779 29.8739C306.779 28.781 306.988 27.8547 307.405 27.0948C307.825 26.335 308.393 25.7579 309.107 25.3634C309.822 24.9689 310.625 24.7717 311.518 24.7717C312.407 24.7717 313.209 24.9689 313.923 25.3634C314.641 25.7579 315.21 26.335 315.63 27.0948C316.051 27.8547 316.261 28.781 316.261 29.8739ZM313.807 29.8739C313.807 29.2272 313.715 28.6808 313.53 28.2346C313.349 27.7884 313.087 27.4505 312.745 27.2209C312.405 26.9914 311.996 26.8766 311.518 26.8766C311.042 26.8766 310.633 26.9914 310.291 27.2209C309.948 27.4505 309.684 27.7884 309.5 28.2346C309.319 28.6808 309.228 29.2272 309.228 29.8739C309.228 30.5205 309.319 31.067 309.5 31.5131C309.684 31.9593 309.948 32.2972 310.291 32.5268C310.633 32.7563 311.042 32.8711 311.518 32.8711C311.996 32.8711 312.405 32.7563 312.745 32.5268C313.087 32.2972 313.349 31.9593 313.53 31.5131C313.715 31.067 313.807 30.5205 313.807 29.8739ZM317.663 34.8402V24.9075H320.063V32.8905H324.195V34.8402H317.663ZM331.447 24.9075H333.843V31.3143C333.843 32.0547 333.667 32.6998 333.315 33.2494C332.962 33.7959 332.471 34.2194 331.84 34.5201C331.21 34.8176 330.477 34.9663 329.643 34.9663C328.799 34.9663 328.062 34.8176 327.432 34.5201C326.801 34.2194 326.311 33.7959 325.962 33.2494C325.613 32.6998 325.438 32.0547 325.438 31.3143V24.9075H327.839V31.1058C327.839 31.4485 327.913 31.754 328.062 32.0224C328.214 32.2908 328.426 32.5009 328.697 32.6529C328.969 32.8048 329.284 32.8808 329.643 32.8808C330.002 32.8808 330.316 32.8048 330.584 32.6529C330.856 32.5009 331.067 32.2908 331.219 32.0224C331.371 31.754 331.447 31.4485 331.447 31.1058V24.9075ZM335.023 26.8572V24.9075H343.418V26.8572H340.406V34.8402H338.04V26.8572H335.023ZM346.991 24.9075V34.8402H344.591V24.9075H346.991ZM357.873 29.8739C357.873 30.9667 357.663 31.8931 357.243 32.6529C356.823 33.4127 356.254 33.9899 355.536 34.3843C354.821 34.7788 354.019 34.976 353.13 34.976C352.238 34.976 351.434 34.7772 350.72 34.3795C350.005 33.9818 349.438 33.4046 349.017 32.648C348.6 31.8882 348.392 30.9635 348.392 29.8739C348.392 28.781 348.6 27.8547 349.017 27.0948C349.438 26.335 350.005 25.7579 350.72 25.3634C351.434 24.9689 352.238 24.7717 353.13 24.7717C354.019 24.7717 354.821 24.9689 355.536 25.3634C356.254 25.7579 356.823 26.335 357.243 27.0948C357.663 27.8547 357.873 28.781 357.873 29.8739ZM355.419 29.8739C355.419 29.2272 355.327 28.6808 355.143 28.2346C354.962 27.7884 354.7 27.4505 354.357 27.2209C354.018 26.9914 353.609 26.8766 353.13 26.8766C352.655 26.8766 352.246 26.9914 351.903 27.2209C351.56 27.4505 351.297 27.7884 351.113 28.2346C350.932 28.6808 350.841 29.2272 350.841 29.8739C350.841 30.5205 350.932 31.067 351.113 31.5131C351.297 31.9593 351.56 32.2972 351.903 32.5268C352.246 32.7563 352.655 32.8711 353.13 32.8711C353.609 32.8711 354.018 32.7563 354.357 32.5268C354.7 32.2972 354.962 31.9593 355.143 31.5131C355.327 31.067 355.419 30.5205 355.419 29.8739ZM367.729 24.9075V34.8402H365.692L361.739 29.1076H361.676V34.8402H359.275V24.9075H361.341L365.25 30.6305H365.333V24.9075H367.729ZM374.607 27.8854C374.575 27.5297 374.431 27.2533 374.175 27.056C373.923 26.8556 373.563 26.7553 373.094 26.7553C372.783 26.7553 372.525 26.7958 372.318 26.8766C372.111 26.9574 371.956 27.069 371.852 27.2112C371.749 27.3503 371.695 27.5103 371.692 27.6914C371.686 27.8401 371.715 27.9711 371.779 28.0842C371.847 28.1974 371.944 28.2976 372.07 28.3849C372.2 28.469 372.355 28.5434 372.536 28.608C372.717 28.6727 372.921 28.7293 373.147 28.7778L374.001 28.9718C374.492 29.0785 374.925 29.2207 375.301 29.3986C375.679 29.5764 375.996 29.7882 376.251 30.0339C376.51 30.2796 376.705 30.5626 376.838 30.8827C376.971 31.2027 377.038 31.5616 377.042 31.9593C377.038 32.5866 376.88 33.1249 376.566 33.5744C376.253 34.0238 375.802 34.3681 375.213 34.6074C374.628 34.8467 373.922 34.9663 373.094 34.9663C372.263 34.9663 371.539 34.8418 370.921 34.5929C370.303 34.3439 369.823 33.9656 369.481 33.458C369.138 32.9503 368.962 32.3085 368.952 31.5325H371.251C371.27 31.8526 371.356 32.1194 371.508 32.3328C371.66 32.5462 371.868 32.7078 372.134 32.8178C372.402 32.9277 372.712 32.9827 373.065 32.9827C373.388 32.9827 373.663 32.939 373.889 32.8517C374.119 32.7644 374.295 32.6432 374.418 32.488C374.541 32.3328 374.604 32.155 374.607 31.9545C374.604 31.767 374.546 31.6069 374.432 31.4743C374.319 31.3385 374.145 31.2221 373.909 31.1251C373.676 31.0249 373.378 30.9328 373.016 30.8487L371.978 30.6062C371.118 30.409 370.441 30.0905 369.946 29.6508C369.451 29.2078 369.206 28.6096 369.209 27.8563C369.206 27.242 369.371 26.7036 369.704 26.2413C370.037 25.7789 370.497 25.4184 371.086 25.1597C371.674 24.9011 372.345 24.7717 373.099 24.7717C373.868 24.7717 374.536 24.9027 375.102 25.1646C375.671 25.4232 376.112 25.787 376.426 26.2558C376.739 26.7246 376.899 27.2678 376.906 27.8854H374.607Z" fill="#586773"/>
</g>
<defs>
<clipPath id="clip0_189_23605">
<rect width="618.016" height="390" fill="white"/>
</clipPath>
</defs>
</svg>
