<svg width="623" height="375" viewBox="0 0 623 375" fill="none" xmlns="http://www.w3.org/2000/svg">
<g clip-path="url(#clip0_189_23950)">
<path d="M163.52 7.08791C153.758 9.99205 139.16 23.1945 126.359 44.252C110.613 70.1544 101.257 72.4233 78.9812 59.6619C56.7051 46.9004 30.5366 55.4737 11.5976 89.4536C-7.34136 123.434 25.8355 149.852 56.5856 191.248C87.3357 232.644 25.9398 221.937 6.05041 270.287C-13.8387 318.638 14.2112 372.877 106.504 372.232C198.922 371.585 338.629 372.824 338.629 372.824C338.629 372.824 468.19 384.254 515.37 354.721C562.55 325.188 504.518 310.826 548.399 291.944C592.279 273.061 638.081 271.786 618.893 222.978C599.705 174.17 572.551 184.277 555.027 171.227C537.503 158.176 526.961 144.009 552.019 120.783C577.076 97.5561 596.258 81.9065 583.59 51.1335C565.417 6.98359 521.313 1.28708 472.859 20.0003C424.405 38.7136 418.019 51.285 338.05 37.4125C293.448 29.6753 246.647 -17.6434 163.52 7.08791Z" fill="url(#paint0_linear_189_23950)"/>
<path d="M310.706 216.097C304.798 187.969 290.254 164.541 271.728 149.742C255.166 136.512 244.193 117.433 241.529 96.4248C241.249 94.2166 240.876 91.9924 240.407 89.7591C233.301 55.9313 206.813 32.8621 181.245 38.2332C155.677 43.6044 140.711 75.3816 147.817 109.21C149.27 116.127 151.534 122.593 154.435 128.457C163.694 147.171 165.891 168.701 159.788 188.678C154.334 206.531 153.258 227.154 157.688 248.242C164.295 279.693 181.697 305.27 203.393 319.478C211.599 324.852 218.8 331.683 224.533 339.633C234.059 352.844 248.626 360.092 262.981 357.077C278.466 353.824 289.371 339.537 291.831 321.812C293.223 311.782 296.573 302.155 301.354 293.219C312.64 272.126 316.68 244.535 310.706 216.097Z" fill="#91B3FA"/>
<path d="M197.758 72.3392C205.794 93.9945 213.129 115.891 220.234 137.863C222.013 143.355 223.703 148.875 225.411 154.39L227.972 162.663L230.464 170.957C232.104 176.492 233.82 182.006 235.397 187.56L240.129 204.223C243.142 215.371 246.25 226.494 249.055 237.698C250.465 243.298 251.985 248.87 253.282 254.498L257.249 271.363C262.312 293.901 266.811 316.577 270.153 339.436L269.17 339.59L266.018 322.582L265.239 318.33L264.354 314.097L262.569 305.636L260.8 297.173C260.215 294.351 259.526 291.55 258.894 288.738C257.593 283.122 256.336 277.496 254.999 271.889C249.503 249.493 243.71 227.171 237.457 204.971C234.246 193.894 231.13 182.792 227.842 171.737L225.398 163.44L222.885 155.163C221.213 149.644 219.541 144.125 217.813 138.622C214.452 127.589 211.011 116.579 207.48 105.597C204.007 94.5963 200.429 83.6263 196.819 72.6721L197.758 72.3392Z" fill="#7D97F4"/>
<g opacity="0.5">
<path d="M168.097 134.929C167.859 134.885 167.642 134.738 167.516 134.51C152.439 107.152 154.867 86.5708 159.559 74.1225C164.657 60.5993 173.22 53.6781 173.582 53.39C173.944 53.1011 174.471 53.1616 174.76 53.5239C175.048 53.8862 174.988 54.4136 174.627 54.7022C174.541 54.7704 166.018 61.6767 161.098 74.798C156.558 86.9022 154.241 106.947 168.985 133.699C169.208 134.105 169.061 134.615 168.655 134.839C168.478 134.937 168.281 134.964 168.097 134.929Z" fill="url(#paint1_linear_189_23950)"/>
</g>
<path d="M202.783 278.133C193.187 265.138 180.287 256.557 167.374 253.312C155.832 250.411 145.77 243.22 139.494 233.107C138.835 232.044 138.124 230.994 137.362 229.962C125.821 214.334 106.913 208.719 95.1294 217.421C83.3461 226.123 83.1502 245.846 94.6914 261.474C97.0514 264.67 99.7193 267.446 102.571 269.766C111.673 277.171 117.833 287.659 119.396 299.288C120.792 309.681 125.07 320.468 132.265 330.211C142.995 344.741 157.856 353.754 172.247 355.958C177.69 356.792 182.961 358.605 187.745 361.331C195.696 365.861 204.821 366.17 211.437 361.285C218.573 356.015 220.791 346.174 217.897 336.544C216.26 331.095 215.715 325.396 216.062 319.717C216.882 306.309 212.486 291.271 202.783 278.133Z" fill="#BDD0FB"/>
<path d="M111.533 230.999C120.7 240.191 129.566 249.67 138.332 259.24C140.525 261.632 142.678 264.059 144.84 266.478L148.082 270.109L151.294 273.766C153.426 276.212 155.592 278.629 157.696 281.1L164.009 288.511C168.155 293.505 172.343 298.463 176.396 303.535C178.426 306.067 180.505 308.56 182.483 311.134L188.454 318.826C196.31 329.162 203.912 339.7 210.967 350.6L210.501 350.908L204.913 342.953L203.521 340.962L202.079 339.005L199.188 335.098L196.305 331.186C195.346 329.881 194.339 328.61 193.359 327.321C191.381 324.754 189.423 322.173 187.429 319.62C179.385 309.457 171.206 299.402 162.821 289.516C158.591 284.605 154.404 279.658 150.139 274.776L146.951 271.106L143.733 267.462C141.588 265.032 139.444 262.602 137.275 260.193C132.978 255.339 128.646 250.515 124.275 245.727C119.93 240.915 115.538 236.144 111.133 231.388L111.533 230.999Z" fill="url(#paint2_linear_189_23950)"/>
<g opacity="0.5">
<path d="M114.554 268.52C114.416 268.563 114.26 268.545 114.129 268.459C98.5306 258.119 94.107 246.518 93.1428 238.607C92.0953 230.012 94.7205 223.961 94.8328 223.707C94.9448 223.453 95.2415 223.339 95.4953 223.451C95.7489 223.564 95.8637 223.86 95.7517 224.114C95.7252 224.174 93.1174 230.206 94.147 238.539C95.0969 246.225 99.4307 257.51 114.684 267.621C114.916 267.774 114.979 268.086 114.826 268.317C114.759 268.418 114.662 268.487 114.554 268.52Z" fill="white"/>
</g>
<path d="M325.061 226.11C330.801 198.785 344.929 176.025 362.927 161.647C379.016 148.795 389.677 130.26 392.264 109.851C392.537 107.705 392.899 105.545 393.354 103.376C400.258 70.5121 425.991 48.1008 450.83 53.3188C475.669 58.5368 490.208 89.4078 483.304 122.271C481.893 128.991 479.693 135.272 476.875 140.969C467.881 159.15 465.746 180.066 471.675 199.473C476.973 216.817 478.018 236.851 473.715 257.338C467.296 287.892 450.39 312.74 429.314 326.543C421.341 331.763 414.346 338.4 408.777 346.123C399.522 358.957 385.37 365.999 371.425 363.069C356.381 359.909 345.788 346.03 343.398 328.81C342.045 319.066 338.791 309.714 334.147 301.033C323.182 280.541 319.257 253.737 325.061 226.11Z" fill="#91B3FA"/>
<path d="M440.66 80.2892C434.025 98.1688 427.969 116.247 422.102 134.389C420.634 138.923 419.238 143.481 417.828 148.034L415.713 154.864L413.656 161.712C412.302 166.283 410.885 170.835 409.583 175.421L405.676 189.178C403.189 198.383 400.623 207.566 398.307 216.817C397.142 221.441 395.888 226.041 394.817 230.688L391.541 244.612C387.361 263.221 383.647 281.943 380.887 300.816L381.699 300.943L384.302 286.901L384.944 283.39L385.675 279.895L387.149 272.909L388.61 265.922C389.092 263.592 389.662 261.28 390.183 258.958C391.257 254.321 392.295 249.676 393.399 245.047C397.937 226.556 402.719 208.125 407.882 189.795C410.533 180.651 413.106 171.484 415.821 162.357L417.839 155.506L419.914 148.672C421.294 144.115 422.675 139.558 424.101 135.016C426.877 125.906 429.718 116.815 432.633 107.748C435.5 98.6658 438.454 89.6081 441.435 80.5637L440.66 80.2892Z" fill="#7D97F4"/>
<path d="M465.15 131.966C465.347 131.93 465.526 131.808 465.63 131.62C478.078 109.032 476.073 92.0392 472.199 81.7616C467.99 70.5965 460.92 64.8818 460.621 64.6439C460.322 64.4055 459.887 64.4554 459.649 64.7546C459.411 65.0537 459.46 65.4891 459.759 65.7273C459.829 65.7836 466.866 71.4856 470.929 82.3193C474.677 92.3133 476.59 108.863 464.417 130.951C464.233 131.286 464.354 131.707 464.689 131.892C464.835 131.973 464.998 131.995 465.15 131.966Z" fill="#BDD0FB"/>
<path d="M413.06 281.606C423.164 270.183 436.008 263.185 448.42 261.207C459.515 259.438 469.575 253.512 476.316 244.523C477.024 243.578 477.78 242.65 478.582 241.743C490.734 228.006 508.981 224.297 519.338 233.459C529.696 242.621 528.242 261.184 516.09 274.921C513.605 277.731 510.866 280.119 507.991 282.064C498.817 288.271 492.153 297.623 489.717 308.428C487.541 318.085 482.622 327.874 475.047 336.437C463.749 349.209 449.025 356.451 435.31 357.327C430.122 357.659 425.015 358.926 420.289 361.092C412.437 364.691 403.83 364.224 398.014 359.08C391.741 353.531 390.473 344.094 393.995 335.279C395.987 330.291 396.973 324.977 397.118 319.607C397.461 306.931 402.845 293.154 413.06 281.606Z" fill="#BDD0FB"/>
<path d="M502.785 244.864C493.401 252.746 484.277 260.923 475.238 269.195C472.978 271.262 470.75 273.365 468.517 275.461L465.166 278.605L461.842 281.777C459.634 283.901 457.397 285.993 455.213 288.142L448.661 294.586C444.347 298.938 439.997 303.253 435.764 307.685C433.645 309.898 431.483 312.069 429.408 314.325L423.155 321.062C414.908 330.129 406.884 339.407 399.345 349.071L399.757 349.4L405.673 342.383L407.148 340.626L408.666 338.906L411.709 335.472L414.745 332.033C415.755 330.885 416.808 329.774 417.837 328.643C419.91 326.394 421.965 324.129 424.053 321.894C432.462 313.006 440.988 304.23 449.694 295.63C454.08 291.363 458.429 287.059 462.845 282.823L466.147 279.636L469.477 276.478C471.695 274.37 473.914 272.263 476.154 270.178C480.598 265.971 485.072 261.795 489.58 257.655C494.066 253.491 498.593 249.37 503.13 245.263L502.785 244.864Z" fill="url(#paint3_linear_189_23950)"/>
<path opacity="0.5" d="M496.826 279.897C496.953 279.948 497.101 279.944 497.231 279.874C512.758 271.447 517.882 260.905 519.446 253.546C521.145 245.551 519.18 239.642 519.095 239.395C519.011 239.146 518.741 239.015 518.493 239.099C518.245 239.183 518.113 239.453 518.197 239.701C518.217 239.759 520.168 245.649 518.507 253.399C516.976 260.548 511.963 270.8 496.779 279.04C496.548 279.165 496.463 279.453 496.588 279.683C496.642 279.784 496.728 279.857 496.826 279.897Z" fill="white"/>
<path d="M256.819 349.701C256.737 349.619 256.649 349.537 256.567 349.455C256.631 349.486 256.713 349.568 256.819 349.701Z" fill="url(#paint4_linear_189_23950)"/>
<path d="M357.306 57.965C370.08 50.1507 387.569 53.7014 401.64 63.8595C415.695 74.0069 426.164 90.6328 424.948 108.684L424.945 108.73L424.951 108.776L425.447 108.718L424.951 108.776V108.778C424.951 108.78 424.952 108.782 424.952 108.785C424.953 108.792 424.954 108.803 424.956 108.817C424.959 108.844 424.964 108.887 424.97 108.943C424.982 109.054 425 109.221 425.021 109.442C425.065 109.882 425.126 110.535 425.194 111.382C425.331 113.077 425.496 115.549 425.609 118.651C425.837 124.858 425.86 133.587 425.041 143.674C423.401 163.857 418.393 189.435 404.945 211.124L404.868 211.249L404.87 211.395L405.37 211.388C404.87 211.395 404.87 211.396 404.87 211.397V211.421C404.87 211.438 404.871 211.465 404.871 211.499C404.872 211.569 404.874 211.673 404.875 211.81C404.878 212.084 404.881 212.493 404.885 213.026C404.892 214.091 404.898 215.656 404.895 217.651C404.888 221.643 404.843 227.358 404.69 234.251C404.386 248.039 403.653 266.537 401.938 285.383C400.224 304.234 397.529 323.411 393.308 338.568C391.197 346.148 388.71 352.7 385.786 357.696C382.95 362.544 379.736 365.871 376.111 367.3L375.759 367.433C373.289 368.318 371.161 368.297 369.3 367.573H369.299C366.669 366.556 364.464 364.074 362.583 360.363C360.706 356.661 359.188 351.808 357.894 346.166C355.305 334.881 353.636 320.565 351.73 306.244C349.828 291.946 347.689 277.646 344.154 266.466C342.387 260.875 340.261 256.034 337.621 252.356C334.978 248.673 331.799 246.127 327.927 245.19L327.869 245.176H295.512L295.454 245.19C291.237 246.205 287.843 249.13 285.067 253.356C282.294 257.578 280.109 263.139 278.316 269.512C274.731 282.256 272.674 298.384 270.653 313.863C268.629 329.373 266.641 344.215 263.209 354.48C261.491 359.617 259.435 363.532 256.892 365.818C255.628 366.955 254.25 367.684 252.733 367.969C251.216 368.254 249.526 368.102 247.629 367.424L247.312 367.306C245.84 366.733 244.438 365.849 243.099 364.673L242.812 364.417C242.758 364.365 242.703 364.315 242.652 364.269C242.598 364.219 242.549 364.174 242.502 364.13C239.336 361.106 236.563 356.466 234.144 350.617C231.727 344.774 229.678 337.76 227.943 330.019C224.473 314.537 222.268 296.197 220.871 278.613C219.474 261.033 218.885 244.223 218.646 231.808C218.527 225.6 218.495 220.492 218.493 216.936C218.492 215.158 218.498 213.768 218.505 212.823C218.508 212.351 218.511 211.989 218.514 211.746C218.515 211.625 218.516 211.532 218.517 211.471C218.517 211.44 218.517 211.417 218.518 211.401V211.38C218.513 211.379 218.47 211.378 218.019 211.372L218.518 211.379L218.521 211.233L218.443 211.109C204.992 189.419 199.983 163.845 198.345 143.665C197.526 133.58 197.55 124.853 197.778 118.649C197.892 115.546 198.057 113.075 198.193 111.381C198.262 110.534 198.323 109.882 198.367 109.442C198.389 109.222 198.407 109.054 198.419 108.943C198.425 108.887 198.429 108.844 198.433 108.817L198.438 108.777V108.776V108.776L198.443 108.73L198.439 108.684C197.224 90.6327 207.694 74.0069 221.749 63.8595C235.819 53.7014 253.308 50.1499 266.082 57.964C282.148 67.796 300.127 71.8351 311.618 73.5031L311.69 73.5128L311.762 73.5031C321.267 72.1244 335.211 69.122 348.836 62.5607L348.835 62.5597C351.684 61.1938 354.525 59.667 357.305 57.964L357.306 57.965Z" fill="white" stroke="#91B3FA"/>
<path d="M302.588 245.676H295.571C263.15 253.483 278.903 379.135 247.461 367.895C245.693 367.265 244.036 366.213 242.476 364.786C268.374 375.023 265.953 274.032 270.206 257.324C274.451 240.616 302.588 245.676 302.588 245.676Z" fill="url(#paint5_linear_189_23950)"/>
<path d="M419.638 118.186L496.966 146.33C500.209 147.51 501.76 151.204 500.331 154.345L500.096 154.861C498.832 157.64 495.547 158.86 492.775 157.577L417.69 122.843L419.638 118.186Z" fill="url(#paint6_linear_189_23950)"/>
<g opacity="0.26">
<path d="M384.095 138.74C405.177 138.74 422.267 121.958 422.267 101.256C422.267 80.5542 405.177 63.7719 384.095 63.7719C363.012 63.7719 345.922 80.5542 345.922 101.256C345.922 121.958 363.012 138.74 384.095 138.74Z" fill="#91B3FA"/>
</g>
<path d="M341.619 101.256C341.619 124.292 360.636 142.966 384.095 142.966C407.554 142.966 426.571 124.292 426.571 101.256C426.571 78.2206 407.554 59.5462 384.095 59.5462C360.636 59.5462 341.619 78.2206 341.619 101.256ZM347.859 101.256C347.859 81.6043 364.082 65.6732 384.095 65.6732C404.108 65.6732 420.332 81.6043 420.332 101.256C420.332 120.908 404.108 136.839 384.095 136.839C364.082 136.839 347.859 120.908 347.859 101.256Z" fill="url(#paint7_linear_189_23950)"/>
<path d="M423.342 106.438C423.329 106.438 423.316 106.437 423.303 106.436C423.139 106.415 423.023 106.264 423.044 106.1C423.168 105.127 423.255 104.136 423.304 103.154C423.312 102.989 423.439 102.855 423.619 102.869C423.785 102.877 423.912 103.018 423.904 103.184C423.854 104.181 423.765 105.188 423.64 106.176C423.62 106.328 423.491 106.438 423.342 106.438ZM423.05 94.775C422.907 94.775 422.78 94.6729 422.754 94.5278C422.281 91.8866 421.522 89.2882 420.498 86.8047C420.498 86.8047 420.498 86.8041 420.498 86.8036C414.466 72.1705 400.176 62.7141 384.095 62.7141C376.595 62.7141 369.305 64.7973 363.013 68.7382C362.872 68.826 362.686 68.7838 362.599 68.6433C362.511 68.5026 362.553 68.3171 362.694 68.2291C369.082 64.2283 376.482 62.1134 384.095 62.1134C400.421 62.1134 414.928 71.7152 421.053 86.5756C421.053 86.5762 421.053 86.5764 421.054 86.577C422.093 89.0998 422.864 91.7387 423.345 94.4213C423.374 94.5846 423.266 94.7406 423.103 94.7698C423.085 94.7737 423.067 94.775 423.05 94.775Z" fill="#BDD0FB"/>
<path d="M495.441 156.511C495.316 156.511 495.2 156.433 495.157 156.309C495.103 156.152 495.186 155.981 495.343 155.927C497.519 155.175 498.658 153.959 498.729 152.313C498.802 150.644 497.746 149.092 496.102 148.451L486.817 144.831C486.663 144.77 486.586 144.596 486.647 144.442C486.707 144.287 486.882 144.211 487.035 144.271L496.32 147.892C498.204 148.626 499.413 150.413 499.329 152.339C499.272 153.656 498.568 155.447 495.539 156.495C495.507 156.506 495.474 156.511 495.441 156.511Z" fill="#BDD0FB"/>
<path d="M484.065 143.735C484.029 143.735 483.992 143.729 483.956 143.715L482.753 143.246C482.598 143.186 482.522 143.012 482.582 142.857C482.642 142.702 482.817 142.625 482.971 142.686L484.174 143.155C484.329 143.215 484.405 143.39 484.345 143.544C484.299 143.663 484.185 143.735 484.065 143.735Z" fill="#BDD0FB"/>
<path d="M118.658 67.457L16.6395 123.122C11.0112 126.193 8.77703 133.136 11.5578 138.913L84.7315 290.93C86.9076 295.45 92.3947 297.271 96.842 294.949L214.927 233.274C219.106 231.092 220.682 225.906 218.424 221.768L137.2 72.9079C133.585 66.2825 125.283 63.842 118.658 67.457Z" fill="#CC9726"/>
<path d="M196.47 240.086C196.316 240.172 196.12 240.117 196.034 239.963C195.947 239.807 196.001 239.611 196.156 239.525L209.147 232.216C213.187 229.944 214.668 224.784 212.448 220.714L201.669 200.961C201.585 200.806 201.641 200.612 201.795 200.526C201.796 200.525 201.797 200.525 201.797 200.525C201.953 200.44 202.149 200.497 202.234 200.653L213.012 220.406C215.4 224.783 213.807 230.332 209.462 232.777L196.471 240.084C196.471 240.085 196.47 240.086 196.47 240.086Z" fill="#91B3FA"/>
<path d="M198.77 194.969C198.769 194.97 198.768 194.97 198.767 194.971C198.611 195.056 198.416 194.998 198.331 194.842L196.585 191.644C196.501 191.488 196.557 191.294 196.711 191.209C196.712 191.208 196.713 191.208 196.713 191.207C196.869 191.122 197.065 191.18 197.15 191.335L198.895 194.534C198.98 194.69 198.923 194.884 198.77 194.969Z" fill="#91B3FA"/>
<path d="M117.69 66.4293C104.789 75.9202 60.0709 107.903 18.8028 126.475C16.9208 127.322 16.1001 129.546 16.9912 131.407L90.1587 284.282C91.1618 286.378 93.668 287.272 95.7702 286.281C112.967 278.177 183.652 244.554 206.724 228.639C208.128 227.67 208.575 225.8 207.766 224.297L123.539 67.7487C122.395 65.6219 119.635 64.9985 117.69 66.4293Z" fill="url(#paint8_linear_189_23950)"/>
<path d="M118.3 71.0973C105.886 80.2308 62.8508 111.009 23.1371 128.882C21.326 129.697 20.536 131.837 21.3937 133.629L91.8064 280.747C92.7717 282.764 95.1835 283.624 97.2062 282.67C113.755 274.872 181.779 242.515 203.982 227.199C205.334 226.267 205.763 224.466 204.985 223.021L123.929 72.3667C122.828 70.3202 120.172 69.7203 118.3 71.0973Z" fill="url(#paint9_linear_189_23950)"/>
<path d="M58.0372 93.2165L69.0519 85.8733L64.2313 74.7253C63.2613 72.4821 60.8437 71.2232 58.455 71.7387C55.8362 72.3038 52.6042 74.0015 50.3179 78.5757C45.8342 87.5467 58.0372 93.2165 58.0372 93.2165ZM55.6209 83.0525C54.7511 81.4586 55.3384 79.4612 56.9323 78.5914C58.5262 77.7216 60.5235 78.3089 61.3934 79.9028C62.2632 81.4967 61.6759 83.494 60.082 84.3638C58.4881 85.2337 56.4908 84.6464 55.6209 83.0525Z" fill="url(#paint10_linear_189_23950)"/>
<path d="M65.5651 82.358C65.2342 82.5012 64.8498 82.3491 64.7069 82.0183L63.9389 80.2428C63.7951 79.9108 63.9483 79.5264 64.2791 79.384C64.6103 79.2408 64.9944 79.3931 65.1374 79.724L65.9053 81.4995C66.0091 81.739 65.9578 82.0061 65.7969 82.1899C65.7351 82.2603 65.6567 82.3185 65.5651 82.358ZM64.0606 78.879C63.7297 79.0222 63.3456 78.8702 63.2024 78.5393L62.6195 77.191C61.8786 75.4776 60.0253 74.5187 58.2123 74.9102C56.7666 75.2223 55.453 75.8703 54.3092 76.8375C54.0335 77.0704 53.6215 77.0354 53.3886 76.76C53.1552 76.4843 53.1974 76.0737 53.4656 75.8394C54.775 74.7331 56.2798 73.9908 57.9366 73.6334C60.3573 73.111 62.8304 74.3887 63.818 76.6722L64.4008 78.0202C64.5046 78.2598 64.4533 78.5269 64.2924 78.7104C64.2303 78.781 64.1522 78.8393 64.0606 78.879Z" fill="#BDD0FB"/>
<path d="M88.5935 84.1149L85.6808 78.7769C84.6755 76.9341 82.3428 76.2917 80.5356 77.3599L44.4198 98.7019C42.8171 99.649 42.1979 101.66 42.9901 103.345L45.4812 108.642L88.5935 84.1149Z" fill="url(#paint11_linear_189_23950)"/>
<path d="M72.866 84.1585C72.8652 84.1591 72.8644 84.1594 72.8633 84.1599L71.2804 85.0234C71.1245 85.1084 70.9294 85.051 70.8441 84.8953C70.7594 84.74 70.8157 84.5463 70.9697 84.4604C70.9705 84.4599 70.9713 84.4593 70.9724 84.4591L72.5553 83.5956C72.7112 83.5106 72.9063 83.568 72.9913 83.7239C73.0763 83.8787 73.02 84.0727 72.866 84.1585Z" fill="#BDD0FB"/>
<path d="M86.0257 83.677C86.2012 83.4769 86.2429 83.1808 86.1079 82.9333L84.9296 80.7737C84.4459 79.887 83.6459 79.2419 82.6767 78.9568C81.7076 78.672 80.6851 78.781 79.7982 79.265L73.9795 82.4402C73.6649 82.6132 73.5462 83.0095 73.7195 83.3265C73.8923 83.6433 74.2888 83.7598 74.6059 83.587L80.4246 80.4116C81.6228 79.7579 83.1298 80.2008 83.7836 81.3993L84.9619 83.5589C85.1346 83.8757 85.5315 83.9921 85.8483 83.8194C85.9167 83.7819 85.9766 83.7333 86.0257 83.677Z" fill="#BDD0FB"/>
<path d="M99.0597 75.8689L34.7003 110.984C32.3862 112.247 31.3163 114.991 32.1657 117.487L32.283 117.831C33.2135 120.565 36.3828 121.8 38.9174 120.417L104.946 84.3893C106.462 83.5614 106.979 81.6339 106.08 80.1581L104.325 77.2804C103.228 75.4804 100.911 74.8592 99.0597 75.8689Z" fill="url(#paint12_linear_189_23950)"/>
<g opacity="0.7">
<path d="M149.197 136.955L130.784 105.977C130.592 105.654 130.18 105.54 129.85 105.717L37.6835 155.089C37.5207 155.171 37.3861 155.341 37.3364 155.529C37.287 155.718 37.3182 155.919 37.4228 156.084L57.3894 187.524C57.5876 187.836 57.9747 187.905 58.299 187.727L148.942 137.943C148.944 137.942 148.945 137.941 148.946 137.94C148.948 137.939 148.95 137.938 148.953 137.937C149.291 137.749 149.432 137.357 149.244 137.019C149.224 136.983 149.221 136.986 149.197 136.955ZM129.921 107.27L133.685 113.604L43.0299 162.296L39.0117 155.969L129.921 107.27ZM58.2206 186.216L43.7849 163.485L134.405 114.815L147.671 137.133L58.2206 186.216Z" fill="white"/>
<path d="M54.6184 168.075L95.5463 145.595C96.3557 145.151 96.6015 144.158 96.096 143.379L95.9997 143.231C95.4952 142.454 94.4328 142.185 93.6262 142.628L52.8476 165.052C52.0515 165.49 51.7808 166.487 52.2436 167.28L52.3319 167.431C52.7955 168.225 53.8196 168.514 54.6184 168.075Z" fill="white"/>
<path d="M98.6461 150.384L57.477 172.955C56.6734 173.396 56.4033 174.406 56.8741 175.213L56.9638 175.367C57.4359 176.175 58.4727 176.474 59.2793 176.032L100.6 153.404C101.417 152.956 101.662 151.95 101.148 151.157L101.05 151.007C100.536 150.216 99.4604 149.938 98.6461 150.384Z" fill="white"/>
<path d="M129.589 126.896C130.451 126.423 130.688 125.385 130.121 124.578C129.555 123.773 128.402 123.505 127.544 123.977L109.575 133.858C108.722 134.327 108.471 135.365 109.015 136.178C109.561 136.992 110.697 137.273 111.554 136.802L129.589 126.896Z" fill="white"/>
<path d="M135.504 132.231C134.928 131.412 133.759 131.134 132.892 131.609L114.749 141.556C113.888 142.028 113.638 143.081 114.192 143.908C114.748 144.737 115.899 145.027 116.763 144.553L134.975 134.58C135.845 134.104 136.081 133.052 135.504 132.231Z" fill="white"/>
<path d="M117.007 90.7224C117.505 91.6162 117.223 92.7297 116.376 93.2101L33.1217 140.469C32.1907 140.997 31.0041 140.67 30.472 139.736L30.3915 139.595C29.8594 138.662 30.1845 137.477 31.1169 136.95L114.495 89.8357C115.342 89.3567 116.433 89.6933 116.931 90.5872L117.007 90.7224Z" fill="white"/>
<path d="M120.933 97.7667C121.43 98.6589 121.15 99.7737 120.306 100.257L37.308 147.818C36.38 148.349 35.1964 148.026 34.6652 147.094L34.5849 146.953C34.0534 146.021 34.3771 144.835 35.3065 144.305L118.427 96.8886C119.272 96.4065 120.36 96.7396 120.858 97.632L120.933 97.7667Z" fill="white"/>
<path d="M88.8196 205.178C88.8089 205.185 88.7981 205.191 88.7873 205.197L76.899 211.913C75.1856 212.881 73.1018 212.52 72.0518 211.075L65.2819 201.755C64.8792 201.2 64.7258 200.512 64.8492 199.815C64.9869 199.036 65.4637 198.322 66.1564 197.856C67.1145 197.212 68.4203 196.301 69.8574 195.299C72.9862 193.118 76.5322 190.646 78.7076 189.353C78.7239 189.343 78.7396 189.334 78.7556 189.324C80.323 188.419 82.2238 188.596 83.3958 189.761C85.3307 191.686 87.7674 196.03 90.304 200.692C91.1354 202.22 90.4698 204.225 88.8196 205.178ZM66.7784 198.78C66.3346 199.079 66.0311 199.526 65.9461 200.009C65.8757 200.405 65.9599 200.793 66.1831 201.1L72.9531 210.419C73.6703 211.407 75.1312 211.632 76.3512 210.943L88.2396 204.227C88.247 204.223 88.255 204.218 88.2628 204.214C89.3931 203.56 89.8699 202.225 89.3255 201.224C86.83 196.637 84.4383 192.37 82.6096 190.55C81.7996 189.746 80.3622 189.63 79.2769 190.31C77.1363 191.583 73.4537 194.15 70.4944 196.213C69.0514 197.219 67.7401 198.133 66.7784 198.78Z" fill="white"/>
<path opacity="0.6" d="M68.6225 199.042C71.0081 197.438 76.0896 193.771 78.6314 192.26C79.7084 191.62 81.0385 191.726 81.8363 192.519C83.3858 194.061 85.424 197.74 87.2801 201.151C87.8358 202.173 87.3755 203.51 86.2403 204.151L76.74 209.519C75.5716 210.179 74.1493 209.943 73.4454 208.974L68.0356 201.527C67.4757 200.757 67.7381 199.637 68.6225 199.042Z" fill="white"/>
<g opacity="0.6">
<path d="M93.2366 188.897C92.7037 189.188 92.6179 189.779 93.0456 190.21L96.4617 193.651C96.8894 194.082 97.6695 194.186 98.1952 193.882L157.754 159.477C158.28 159.173 158.452 158.5 158.137 157.981L156.639 155.514C156.324 154.995 155.63 154.808 155.097 155.1L93.2366 188.897Z" fill="white"/>
</g>
<path d="M70.025 200.307C70.6054 199.285 71.9123 198.94 72.9217 199.542L77.6684 202.375C78.1436 202.659 78.7391 202.279 78.6828 201.729L77.0282 185.511C76.9457 184.702 78.0277 184.367 78.4237 185.077C80.6399 189.05 83.9199 197.14 81.2467 207.043C81.2467 207.043 76.9998 207.698 70.6641 203.178C69.7488 202.526 69.4701 201.285 70.025 200.307Z" fill="url(#paint13_linear_189_23950)"/>
<path d="M103.562 231.628C103.552 231.635 103.541 231.641 103.53 231.647L91.6414 238.363C89.9283 239.331 87.8443 238.97 86.7943 237.525L80.024 228.205C79.6214 227.65 79.468 226.961 79.5913 226.264C79.729 225.485 80.2059 224.772 80.8985 224.305C81.8567 223.661 83.1625 222.751 84.5996 221.749C87.7284 219.568 91.2744 217.095 93.4495 215.803C93.4658 215.793 93.4815 215.783 93.4975 215.774C95.0649 214.869 96.9657 215.045 98.1377 216.211C100.072 218.136 102.509 222.479 105.046 227.141C105.878 228.67 105.212 230.675 103.562 231.628ZM81.5208 225.23C81.0771 225.529 80.7738 225.976 80.6885 226.459C80.6182 226.855 80.7023 227.243 80.9256 227.55L87.6956 236.869C88.4128 237.857 89.8737 238.082 91.0937 237.393L102.982 230.677C102.989 230.673 102.997 230.668 103.005 230.663C104.136 230.011 104.612 228.675 104.068 227.673C101.573 223.087 99.1808 218.82 97.352 217C96.5421 216.195 95.1047 216.08 94.0193 216.76C91.8788 218.032 88.1961 220.6 85.2368 222.663C83.7938 223.669 82.4825 224.583 81.5208 225.23Z" fill="white"/>
<path opacity="0.6" d="M83.3656 225.492C85.7512 223.887 90.8327 220.221 93.3745 218.71C94.4515 218.07 95.7816 218.176 96.5794 218.97C98.1289 220.511 100.167 224.191 102.023 227.601C102.579 228.623 102.118 229.961 100.983 230.602L91.4831 235.969C90.3147 236.629 88.8924 236.394 88.1885 235.425L82.7787 227.978C82.2188 227.207 82.4815 226.087 83.3656 225.492Z" fill="white"/>
<g opacity="0.6">
<path d="M107.979 215.347C107.446 215.638 107.36 216.229 107.788 216.66L111.204 220.101C111.632 220.532 112.412 220.636 112.937 220.332L172.496 185.927C173.022 185.623 173.194 184.95 172.879 184.431L171.381 181.964C171.066 181.445 170.372 181.258 169.839 181.549L107.979 215.347Z" fill="white"/>
</g>
<path d="M118.305 258.078C118.295 258.084 118.284 258.09 118.273 258.097L106.385 264.813C104.671 265.781 102.587 265.42 101.537 263.974L94.7672 254.655C94.3646 254.1 94.2112 253.411 94.3345 252.714C94.4722 251.935 94.9491 251.221 95.6417 250.755C96.5998 250.111 97.9056 249.2 99.3428 248.199C102.472 246.017 106.018 243.545 108.193 242.252C108.209 242.242 108.225 242.233 108.241 242.224C109.808 241.318 111.709 241.495 112.881 242.661C114.816 244.585 117.253 248.929 119.789 253.591C120.621 255.12 119.955 257.125 118.305 258.078ZM96.2637 251.68C95.82 251.979 95.5167 252.426 95.4314 252.909C95.3611 253.305 95.4452 253.693 95.6685 254L102.439 263.319C103.156 264.307 104.617 264.532 105.837 263.843L117.725 257.127C117.733 257.122 117.741 257.118 117.748 257.113C118.879 256.46 119.356 255.125 118.811 254.123C116.316 249.537 113.924 245.27 112.095 243.45C111.285 242.645 109.848 242.53 108.762 243.21C106.622 244.482 102.939 247.05 99.98 249.113C98.537 250.119 97.2254 251.033 96.2637 251.68Z" fill="white"/>
<path opacity="0.6" d="M98.1089 251.942C100.494 250.337 105.576 246.671 108.118 245.16C109.195 244.52 110.525 244.626 111.323 245.419C112.872 246.961 114.91 250.64 116.766 254.051C117.322 255.073 116.862 256.41 115.726 257.052L106.226 262.419C105.058 263.079 103.635 262.843 102.932 261.874L97.5217 254.427C96.9621 253.656 97.2245 252.536 98.1089 251.942Z" fill="white"/>
<g opacity="0.6">
<path d="M122.722 241.797C122.189 242.088 122.103 242.679 122.531 243.11L125.947 246.551C126.375 246.982 127.155 247.086 127.681 246.782L187.239 212.377C187.765 212.073 187.937 211.4 187.622 210.881L186.124 208.414C185.809 207.895 185.115 207.708 184.583 207.999L122.722 241.797Z" fill="white"/>
</g>
</g>
<path d="M205.153 48.8092C205.108 48.5636 204.947 48.3552 204.721 48.2501C197.861 45.0598 193.688 36.8369 191.948 32.67C191.843 32.4186 191.585 32.2657 191.314 32.2933C191.043 32.3209 190.822 32.5226 190.769 32.7898C189.228 40.6451 180.522 46.1716 177.216 48.0133C176.977 48.1466 176.827 48.3977 176.822 48.6715C176.817 48.9455 176.959 49.2013 177.193 49.3432C184.907 54.0181 189.422 68.1343 190.916 73.5816C190.966 73.7607 191.134 73.8802 191.319 73.868C191.505 73.8559 191.656 73.7151 191.681 73.5314C193.241 62.2294 202.191 52.308 204.947 49.4853C205.121 49.307 205.198 49.0551 205.153 48.8092Z" fill="white"/>
<path d="M229.421 26.7842C229.389 26.6067 229.272 26.4561 229.109 26.3799C224.148 24.0729 221.131 18.1267 219.872 15.1135C219.796 14.9317 219.61 14.8213 219.414 14.8412C219.218 14.861 219.058 15.007 219.02 15.2002C217.906 20.8804 211.61 24.8768 209.22 26.2085C209.047 26.3049 208.938 26.4864 208.935 26.6846C208.931 26.8827 209.033 27.0679 209.203 27.1702C214.781 30.551 218.046 40.7585 219.126 44.6975C219.162 44.8269 219.283 44.9135 219.418 44.9047C219.551 44.8959 219.661 44.7943 219.679 44.6613C220.807 36.4887 227.279 29.3144 229.272 27.2732C229.398 27.144 229.454 26.9619 229.421 26.7842Z" fill="white"/>
<path d="M408.017 42.704C407.666 42.704 407.314 42.5818 407.029 42.3323C406.405 41.7859 406.342 40.8377 406.888 40.2138L429.539 14.3453C429.824 14.0197 430.236 13.8331 430.669 13.8331H515.518C516.347 13.8331 517.02 14.5051 517.02 15.3346C517.02 16.1638 516.347 16.8358 515.518 16.8358H431.349L409.147 42.1921C408.851 42.5307 408.435 42.704 408.017 42.704Z" fill="#BDD0FB"/>
<path d="M515.519 31.2483H434.446C433.617 31.2483 432.944 30.5761 432.944 29.7468C432.944 28.9176 433.616 28.2454 434.446 28.2454H515.519C516.348 28.2454 517.02 28.9176 517.02 29.7468C517.02 30.5763 516.348 31.2483 515.519 31.2483Z" fill="#BDD0FB"/>
<path d="M515.519 45.6614H434.446C433.617 45.6614 432.944 44.9891 432.944 44.1599C432.944 43.3307 433.616 42.6584 434.446 42.6584H515.519C516.348 42.6584 517.02 43.3304 517.02 44.1599C517.02 44.9891 516.348 45.6614 515.519 45.6614Z" fill="#BDD0FB"/>
<path d="M267.854 249.279H263.05V258.287H267.854V249.279Z" fill="url(#paint14_linear_189_23950)"/>
<path d="M309.292 249.279H305.688V258.287H309.292V249.279Z" fill="url(#paint15_linear_189_23950)"/>
<path d="M242.072 186.629L198.521 174.661L199.992 169.674L244.067 181.642L242.072 186.629Z" fill="url(#paint16_linear_189_23950)"/>
<path d="M315.708 248.464C315.708 249.565 314.919 250.458 313.945 250.458H245.165C244.191 250.458 243.401 249.565 243.401 248.464C243.401 247.362 244.191 246.469 245.165 246.469H313.945C314.919 246.469 315.708 247.362 315.708 248.464Z" fill="url(#paint17_linear_189_23950)"/>
<path d="M246.06 350.192C246.06 351.294 245.168 352.187 244.066 352.187C242.964 352.187 242.071 351.294 242.071 350.192V188.624C242.071 187.522 242.964 186.629 244.066 186.629C245.168 186.629 246.06 187.522 246.06 188.624V350.192Z" fill="url(#paint18_linear_189_23950)"/>
<path d="M141.752 311.12L182.644 341.046L199.992 323.199L158.989 305.004L141.752 311.12Z" fill="url(#paint19_linear_189_23950)"/>
<path d="M218.402 284.807L128.365 282.979C128.365 282.979 127.615 301.522 130.227 308.312C132.839 315.103 156.099 317.192 162.106 308.312C165.456 303.361 171.088 299.384 175.408 296.834C178.938 294.75 182.907 293.824 186.992 294.173L230.02 297.866V293.687L218.402 284.807Z" fill="black"/>
<path d="M153.986 300.876C156.028 297.061 154.591 292.313 150.776 290.271C146.96 288.229 142.212 289.666 140.17 293.482C138.128 297.297 139.566 302.045 143.381 304.087C147.196 306.129 151.945 304.692 153.986 300.876Z" fill="#91B3FA"/>
<path d="M147.105 304.047C150.88 304.047 153.939 300.987 153.939 297.213C153.939 293.439 150.88 290.379 147.105 290.379C143.331 290.379 140.271 293.439 140.271 297.213C140.271 300.987 143.331 304.047 147.105 304.047Z" fill="url(#paint20_linear_189_23950)"/>
<path d="M270.431 303.35C269.618 301.708 236.054 283.287 225.246 277.386C223.054 276.19 220.638 275.563 218.141 275.53L144.26 274.575C142.326 274.55 140.547 273.511 139.574 271.839L115.025 229.614L108.438 205.734C107.455 202.172 103.8 200.054 100.221 200.972L99.5358 201.148C95.9559 202.065 93.7714 205.683 94.6252 209.278L99.703 230.659L126.083 283.749C126.992 285.578 128.839 286.753 130.881 286.802L212.344 288.734C214.53 288.786 216.679 289.307 218.646 290.262L260.013 310.345C262.797 311.697 266.125 311.253 268.457 309.219C270.226 307.677 271.559 305.632 270.431 303.35Z" fill="#E24043"/>
<path d="M180.402 253.42C179.032 252.158 177.188 251.545 175.335 251.734L123.967 256.953C123.023 257.05 121.923 257.846 121.923 258.795V259.756C121.923 260.283 122.529 260.785 122.921 261.136C123.313 261.487 124.028 261.655 124.551 261.597L171.455 256.403C172.705 256.264 174 256.69 174.905 257.564C175.81 258.438 176.301 259.67 176.206 260.924L174.908 278.082C176.38 281.127 178.235 281.051 179.688 280.254C181.166 279.443 182.103 277.898 182.136 276.213L182.496 258.332C182.533 256.47 181.771 254.682 180.402 253.42Z" fill="#7D97F4"/>
<path d="M246.611 357.977H246.585C246.048 357.977 245.534 358 245.158 357.616C244.782 357.232 244.576 356.834 244.586 356.297C244.755 347.743 237.42 336.986 231.251 329.289C226.504 323.366 219.325 320.143 211.734 320.143H205.631C201.584 320.143 197.597 320.956 194.014 322.836L126.257 358.072C125.97 358.223 125.652 357.977 125.328 357.977H111.587C109.063 357.977 107.017 360.348 107.017 362.872C107.017 364.964 108.712 366.985 110.804 366.985H247.394C249.486 366.985 251.181 364.964 251.181 362.872C251.181 360.348 249.135 357.977 246.611 357.977Z" fill="black"/>
<path d="M244.433 359.778H231.822C231.656 359.778 231.521 359.644 231.521 359.478C231.521 359.312 231.656 359.178 231.822 359.178H244.433C244.599 359.178 244.733 359.312 244.733 359.478C244.733 359.644 244.599 359.778 244.433 359.778Z" fill="#91B3FA"/>
<path d="M224.015 359.778H193.387C193.221 359.778 193.087 359.644 193.087 359.478C193.087 359.312 193.221 359.178 193.387 359.178H224.015C224.181 359.178 224.315 359.312 224.315 359.478C224.315 359.644 224.181 359.778 224.015 359.778Z" fill="#91B3FA"/>
<path d="M180.175 359.778H130.931C130.765 359.778 130.631 359.644 130.631 359.478C130.631 359.312 130.765 359.178 130.931 359.178H180.175C180.342 359.178 180.476 359.312 180.476 359.478C180.476 359.644 180.341 359.778 180.175 359.778Z" fill="#91B3FA"/>
<path d="M247.436 198.346C247.436 200.274 245.873 201.836 243.945 201.836H243.12C241.192 201.836 239.629 200.274 239.629 198.346V182.507C239.629 180.579 241.192 179.016 243.12 179.016H243.945C245.873 179.016 247.436 180.579 247.436 182.507V198.346Z" fill="url(#paint21_linear_189_23950)"/>
<path d="M247.436 259.601C247.436 261.529 245.873 263.092 243.945 263.092H243.12C241.192 263.092 239.629 261.529 239.629 259.601V243.762C239.629 241.834 241.192 240.271 243.12 240.271H243.945C245.873 240.271 247.436 241.833 247.436 243.762V259.601Z" fill="url(#paint22_linear_189_23950)"/>
<path d="M272.058 249.225C272.058 251.245 270.42 252.882 268.401 252.882H263.103C261.084 252.882 259.446 251.245 259.446 249.225V248.732C259.446 246.713 261.084 245.075 263.103 245.075H268.401C270.42 245.075 272.058 246.713 272.058 248.732V249.225Z" fill="url(#paint23_linear_189_23950)"/>
<path d="M312.895 249.225C312.895 251.245 311.257 252.882 309.238 252.882H303.94C301.92 252.882 300.283 251.245 300.283 249.225V248.732C300.283 246.713 301.92 245.075 303.94 245.075H309.238C311.257 245.075 312.895 246.713 312.895 248.732V249.225Z" fill="url(#paint24_linear_189_23950)"/>
<path d="M210.538 188.926C211.814 191.409 211.065 194.338 209.004 195.396C206.943 196.456 204.126 195.359 202.85 192.876L186.504 161.061C185.228 158.578 185.977 155.649 188.039 154.59C190.1 153.531 192.917 154.628 194.192 157.111L210.538 188.926Z" fill="url(#paint25_linear_189_23950)"/>
<path d="M186.023 159.618L185.408 161.987C185.106 163.225 185.242 164.451 185.793 165.6L198.24 191.827C199.157 193.741 201.091 195.231 203.213 195.231H204.173L186.023 159.618Z" fill="url(#paint26_linear_189_23950)"/>
<path d="M311.694 259.256C311.694 257.726 310.454 256.486 308.924 256.486H264.019C262.489 256.486 261.249 257.726 261.249 259.256V287.345C261.249 288.875 262.489 290.116 264.019 290.116H308.924C310.454 290.116 311.694 288.875 311.694 287.345V259.256Z" fill="url(#paint27_linear_189_23950)"/>
<path d="M307.025 257.772H265.882C264.483 257.772 263.349 258.847 263.349 260.173V284.183C263.349 285.509 264.483 286.584 265.882 286.584H307.025C308.424 286.584 309.559 285.509 309.559 284.183V260.173C309.559 258.847 308.424 257.772 307.025 257.772Z" fill="#91B3FA"/>
<path d="M196.088 153.47L194.211 153.404L194.199 153.404C193.761 153.388 193.418 153.02 193.433 152.581C193.449 152.142 193.817 151.799 194.255 151.815H194.26L196.16 151.893C196.595 151.911 196.934 152.278 196.916 152.714C196.898 153.148 196.533 153.486 196.1 153.471L196.088 153.47Z" fill="white"/>
<path d="M189.831 153.359L187.954 153.387L187.942 153.388C187.493 153.394 187.124 153.036 187.117 152.587C187.111 152.139 187.469 151.769 187.918 151.763H187.922L189.824 151.745C190.269 151.741 190.634 152.099 190.638 152.544C190.642 152.988 190.287 153.352 189.843 153.359L189.831 153.359Z" fill="white"/>
<path d="M183.578 153.564L181.705 153.687L181.692 153.687C181.235 153.718 180.839 153.371 180.809 152.913C180.779 152.456 181.126 152.06 181.583 152.03L181.588 152.03L183.487 151.916C183.942 151.889 184.332 152.235 184.36 152.69C184.387 153.143 184.043 153.532 183.591 153.562L183.578 153.564Z" fill="white"/>
<path d="M177.346 154.085L175.482 154.304L175.469 154.305C175.004 154.36 174.583 154.027 174.528 153.562C174.474 153.097 174.806 152.675 175.272 152.621L175.276 152.62L177.167 152.41C177.629 152.358 178.046 152.691 178.098 153.154C178.149 153.614 177.819 154.03 177.359 154.084L177.346 154.085Z" fill="white"/>
<path d="M171.15 154.925L169.301 155.239L169.288 155.241C168.817 155.321 168.37 155.004 168.29 154.533C168.21 154.062 168.527 153.615 168.998 153.535L169.003 153.534L170.88 153.226C171.349 153.149 171.791 153.466 171.868 153.935C171.945 154.402 171.63 154.843 171.164 154.922L171.15 154.925Z" fill="white"/>
<path d="M165.009 156.085L163.18 156.495L163.167 156.498C162.691 156.605 162.218 156.306 162.111 155.829C162.005 155.353 162.304 154.881 162.78 154.774L162.785 154.773L164.644 154.367C165.117 154.263 165.585 154.564 165.689 155.037C165.792 155.51 165.494 155.976 165.024 156.082L165.009 156.085Z" fill="white"/>
<path d="M158.939 157.565L157.134 158.072L157.121 158.076C156.642 158.211 156.144 157.931 156.009 157.452C155.875 156.973 156.154 156.475 156.633 156.341L156.638 156.339L158.473 155.835C158.951 155.704 159.444 155.985 159.574 156.462C159.705 156.937 159.427 157.428 158.953 157.561L158.939 157.565Z" fill="white"/>
<path d="M152.957 159.367L151.182 159.971L151.168 159.976C150.687 160.139 150.166 159.882 150.002 159.401C149.839 158.921 150.096 158.399 150.577 158.236L150.582 158.234L152.388 157.631C152.867 157.471 153.384 157.73 153.544 158.209C153.703 158.686 153.447 159.201 152.972 159.363L152.957 159.367Z" fill="white"/>
<path d="M147.08 161.489L145.34 162.184L145.326 162.19C144.847 162.381 144.302 162.148 144.111 161.669C143.919 161.189 144.153 160.645 144.632 160.454L144.636 160.452L146.406 159.753C146.884 159.564 147.425 159.798 147.614 160.276C147.803 160.755 147.569 161.296 147.09 161.485L147.08 161.489Z" fill="white"/>
<path d="M141.323 163.909L139.621 164.694L139.607 164.7C139.136 164.917 138.577 164.711 138.359 164.239C138.142 163.767 138.348 163.208 138.82 162.99L138.822 162.99L140.552 162.197C141.023 161.98 141.581 162.187 141.797 162.659C142.013 163.13 141.806 163.688 141.334 163.904L141.323 163.909Z" fill="white"/>
<path d="M135.7 166.626L134.041 167.497L134.028 167.504C133.565 167.747 132.992 167.569 132.749 167.106C132.505 166.643 132.683 166.07 133.146 165.827L133.148 165.826L134.835 164.944C135.298 164.703 135.868 164.882 136.11 165.344C136.352 165.807 136.173 166.378 135.71 166.62L135.7 166.626Z" fill="white"/>
<path d="M130.223 169.629L128.611 170.584L128.598 170.592C128.145 170.86 127.561 170.711 127.293 170.258C127.024 169.805 127.174 169.22 127.627 168.952L127.628 168.951L129.268 167.984C129.72 167.717 130.303 167.868 130.571 168.32C130.837 168.773 130.687 169.356 130.234 169.623L130.223 169.629Z" fill="white"/>
<path d="M124.906 172.909L123.344 173.945L123.332 173.953C122.89 174.246 122.294 174.125 122.002 173.683C121.709 173.242 121.83 172.646 122.271 172.354L122.273 172.352L123.861 171.303C124.303 171.012 124.896 171.133 125.188 171.575C125.479 172.016 125.358 172.61 124.917 172.901L124.906 172.909Z" fill="white"/>
<path d="M119.76 176.454L118.252 177.567L118.24 177.576C117.811 177.893 117.207 177.802 116.89 177.373C116.573 176.944 116.664 176.339 117.093 176.023L117.095 176.022L118.629 174.893C119.057 174.578 119.66 174.67 119.976 175.099C120.291 175.528 120.199 176.131 119.77 176.446L119.76 176.454Z" fill="white"/>
<path d="M114.798 180.254L113.348 181.442L113.336 181.451C112.921 181.791 112.309 181.73 111.969 181.315C111.629 180.9 111.69 180.288 112.105 179.948L112.106 179.946L113.582 178.743C113.997 178.404 114.608 178.466 114.946 178.881C115.285 179.296 115.223 179.907 114.808 180.246L114.798 180.254Z" fill="white"/>
<path d="M110.034 184.298L108.644 185.557L108.633 185.567C108.233 185.93 107.615 185.9 107.252 185.499C106.89 185.099 106.92 184.481 107.32 184.118L107.322 184.117L108.735 182.841C109.135 182.479 109.752 182.511 110.114 182.911C110.475 183.311 110.443 183.928 110.043 184.289L110.034 184.298Z" fill="white"/>
<path d="M105.478 188.576L104.154 189.903L104.143 189.913C103.759 190.298 103.136 190.298 102.752 189.914C102.367 189.531 102.367 188.908 102.75 188.523L102.752 188.522L104.1 187.176C104.484 186.793 105.105 186.793 105.488 187.177C105.872 187.561 105.871 188.183 105.487 188.566L105.478 188.576Z" fill="white"/>
<path d="M101.142 193.076L99.8862 194.467L99.8762 194.479C99.51 194.885 98.8842 194.917 98.4782 194.551C98.0723 194.185 98.04 193.559 98.4062 193.153L98.4076 193.151L99.6861 191.74C100.052 191.335 100.677 191.304 101.082 191.671C101.486 192.037 101.517 192.662 101.151 193.066L101.142 193.076Z" fill="white"/>
<path d="M97.0406 197.788L95.8573 199.241L95.8476 199.253C95.5005 199.68 94.873 199.744 94.4463 199.397C94.0197 199.049 93.9554 198.422 94.3028 197.995L94.3039 197.994L95.5093 196.519C95.8567 196.094 96.4832 196.031 96.9081 196.379C97.3334 196.726 97.3963 197.353 97.0489 197.778L97.0406 197.788Z" fill="white"/>
<path d="M93.1853 202.701L92.0784 204.212L92.0693 204.225C91.7423 204.671 91.1153 204.768 90.6688 204.441C90.2223 204.114 90.1255 203.487 90.4525 203.04L90.4536 203.039L91.5817 201.505C91.909 201.059 92.5351 200.964 92.9802 201.291C93.4253 201.619 93.5208 202.245 93.1935 202.69L93.1853 202.701Z" fill="white"/>
<path d="M89.5882 207.804L88.5614 209.37L88.5528 209.383C88.2476 209.849 87.6226 209.979 87.1568 209.674C86.691 209.368 86.561 208.743 86.8665 208.278L86.8676 208.276L87.9148 206.686C88.2203 206.221 88.8445 206.093 89.3087 206.398C89.7728 206.704 89.9014 207.328 89.5959 207.792L89.5882 207.804Z" fill="white"/>
<path d="M86.2618 213.086L85.3188 214.703L85.3108 214.717C85.0285 215.201 84.4076 215.365 83.9236 215.082C83.4396 214.8 83.2759 214.179 83.5582 213.695L83.5593 213.693L84.5219 212.05C84.8044 211.567 85.4248 211.405 85.9071 211.688C86.3898 211.97 86.5518 212.59 86.2692 213.073L86.2618 213.086Z" fill="white"/>
<path d="M83.219 218.534L82.3635 220.2L82.3561 220.215C82.0986 220.716 81.4835 220.914 80.9821 220.656C80.4807 220.399 80.2831 219.783 80.5409 219.282L80.5417 219.28L81.4156 217.587C81.6737 217.088 82.2882 216.891 82.788 217.149C83.288 217.407 83.4839 218.022 83.2259 218.522L83.219 218.534Z" fill="white"/>
<path d="M80.4753 224.137L79.7173 225.847L79.7096 225.864C79.4797 226.383 78.8734 226.617 78.3549 226.387C77.8367 226.157 77.6027 225.551 77.8325 225.032L77.8333 225.03L78.6099 223.288C78.8403 222.771 79.446 222.538 79.9632 222.769C80.48 222.999 80.7124 223.605 80.482 224.122L80.4753 224.137Z" fill="white"/>
<path d="M78.0759 229.888L77.429 231.641L77.4219 231.66C77.2243 232.195 76.6307 232.469 76.0954 232.271C75.5603 232.074 75.2865 231.48 75.4841 230.945L75.485 230.943L76.1494 229.153C76.3476 228.619 76.9409 228.347 77.4746 228.545C78.0083 228.743 78.2804 229.336 78.0822 229.87L78.0759 229.888Z" fill="white"/>
<path d="M76.0621 235.777L75.5408 237.568L75.5345 237.591C75.3741 238.142 74.7977 238.458 74.2469 238.298C73.6961 238.138 73.3795 237.561 73.5396 237.01L73.5401 237.009L74.078 235.174C74.2391 234.624 74.8151 234.309 75.3648 234.47C75.9145 234.631 76.2293 235.207 76.0682 235.757L76.0621 235.777Z" fill="white"/>
<path d="M74.486 241.789L74.1076 243.613L74.1024 243.639C73.9851 244.204 73.4321 244.567 72.867 244.45C72.3018 244.333 71.9389 243.78 72.0562 243.214L72.0565 243.213L72.4492 241.338C72.5673 240.774 73.12 240.413 73.6838 240.531C74.2476 240.649 74.6088 241.202 74.4909 241.766L74.486 241.789Z" fill="white"/>
<path d="M73.4102 247.9L73.1953 249.746L73.1917 249.776C73.1246 250.353 72.6028 250.766 72.0263 250.699C71.4499 250.632 71.0368 250.11 71.1038 249.533L71.1041 249.531L71.3296 247.626C71.3977 247.05 71.9193 246.639 72.4946 246.707C73.07 246.775 73.4814 247.297 73.4133 247.872L73.4102 247.9Z" fill="white"/>
<path d="M72.9049 254.07L72.8762 255.927L72.8757 255.961C72.8665 256.544 72.3861 257.011 71.8025 257.001C71.2188 256.992 70.7527 256.512 70.7618 255.928V255.926L70.7952 254.002C70.8054 253.419 71.2859 252.955 71.8687 252.965C72.4512 252.976 72.9154 253.456 72.9055 254.039L72.9049 254.07Z" fill="white"/>
<path d="M73.0472 260.247L73.2269 262.09L73.2305 262.127C73.2876 262.712 72.8599 263.232 72.2754 263.289C71.6909 263.346 71.171 262.918 71.1142 262.334L71.1139 262.332L70.9307 260.414C70.8749 259.831 71.3026 259.312 71.886 259.257C72.4697 259.201 72.9879 259.629 73.0436 260.212L73.0472 260.247Z" fill="white"/>
<path d="M73.9069 266.351L74.3128 268.153L74.3219 268.193C74.4516 268.77 74.0899 269.342 73.5137 269.471C72.9375 269.601 72.3654 269.239 72.2357 268.663L72.2352 268.661L71.8149 266.777C71.6866 266.202 72.0489 265.631 72.6243 265.503C73.1996 265.375 73.77 265.737 73.8986 266.312L73.9069 266.351Z" fill="white"/>
<path d="M75.5331 272.284L76.1725 274.016L76.1871 274.056C76.3927 274.613 76.1077 275.231 75.5508 275.437C74.9936 275.642 74.3752 275.358 74.1696 274.8L74.1688 274.799L73.5035 272.985C73.2993 272.429 73.5849 271.812 74.1415 271.608C74.6981 271.404 75.3148 271.689 75.5191 272.246L75.5331 272.284Z" fill="white"/>
<path d="M77.9236 277.955L78.7793 279.593L78.7975 279.628C79.0741 280.158 78.869 280.811 78.3395 281.088C77.8099 281.364 77.1567 281.159 76.8802 280.629L76.8791 280.628L75.99 278.917C75.7151 278.388 75.921 277.736 76.4503 277.461C76.9793 277.186 77.6311 277.392 77.9059 277.921L77.9236 277.955Z" fill="white"/>
<path d="M81.0025 283.295L82.045 284.826L82.0652 284.856C82.4032 285.352 82.2749 286.029 81.7782 286.367C81.2818 286.705 80.6051 286.576 80.2671 286.08L80.266 286.078L79.1862 284.485C78.8498 283.989 78.9792 283.314 79.4756 282.977C79.9721 282.641 80.6471 282.771 80.9837 283.267L81.0025 283.295Z" fill="white"/>
<path d="M84.6666 288.269L85.8642 289.688L85.8844 289.712C86.274 290.174 86.2155 290.864 85.7538 291.254C85.2922 291.643 84.602 291.585 84.2126 291.123L84.2112 291.121L82.9758 289.651C82.5878 289.19 82.6474 288.501 83.1091 288.113C83.5708 287.725 84.2595 287.785 84.6475 288.246L84.6666 288.269Z" fill="white"/>
<path d="M88.8122 292.872L90.1348 294.181L90.1541 294.2C90.586 294.628 90.5893 295.324 90.1619 295.756C89.7344 296.188 89.0379 296.191 88.6063 295.764L88.6049 295.762L87.2458 294.411C86.8156 293.984 86.8137 293.289 87.2412 292.859C87.6686 292.428 88.364 292.426 88.7939 292.854L88.8122 292.872Z" fill="white"/>
<path d="M93.3446 297.115L94.7671 298.322L94.785 298.337C95.2509 298.732 95.3083 299.43 94.9131 299.896C94.5179 300.362 93.82 300.419 93.3539 300.024L93.3523 300.023L91.8961 298.783C91.4319 298.388 91.3759 297.691 91.7714 297.226C92.1668 296.762 92.8636 296.706 93.328 297.102L93.3446 297.115Z" fill="white"/>
<path d="M98.1829 301.025L99.6847 302.137L99.701 302.149C100.195 302.515 100.298 303.212 99.9328 303.705C99.5671 304.199 98.8706 304.302 98.3769 303.937L98.3753 303.935L96.8432 302.796C96.3512 302.43 96.2491 301.734 96.615 301.242C96.9809 300.75 97.6766 300.648 98.1686 301.014L98.1829 301.025Z" fill="white"/>
<path d="M103.266 304.631L104.83 305.658L104.845 305.668C105.361 306.006 105.505 306.7 105.166 307.216C104.827 307.732 104.134 307.876 103.617 307.537L103.615 307.536L102.024 306.487C101.509 306.147 101.367 305.455 101.706 304.94C102.045 304.425 102.738 304.283 103.253 304.623L103.266 304.631Z" fill="white"/>
<path d="M108.542 307.963L110.157 308.914L110.17 308.922C110.705 309.237 110.883 309.926 110.568 310.461C110.253 310.996 109.564 311.175 109.028 310.86L109.027 310.859L107.387 309.889C106.854 309.574 106.677 308.885 106.992 308.352C107.308 307.818 107.996 307.641 108.53 307.957L108.542 307.963Z" fill="white"/>
<path d="M113.975 311.054L115.629 311.941L115.64 311.947C116.191 312.242 116.398 312.927 116.103 313.478C115.808 314.028 115.122 314.235 114.572 313.94L114.57 313.939L112.896 313.037C112.347 312.741 112.141 312.057 112.437 311.508C112.732 310.959 113.417 310.754 113.966 311.049L113.975 311.054Z" fill="white"/>
<path d="M119.526 313.939L121.212 314.764L121.223 314.769C121.786 315.045 122.02 315.726 121.744 316.29C121.468 316.854 120.787 317.087 120.223 316.811L120.221 316.81L118.515 315.971C117.953 315.694 117.721 315.014 117.998 314.451C118.275 313.889 118.955 313.657 119.517 313.934L119.526 313.939Z" fill="white"/>
<path d="M125.177 316.617L126.891 317.381L126.903 317.386C127.479 317.643 127.738 318.318 127.482 318.895C127.225 319.471 126.549 319.73 125.973 319.474L125.971 319.473L124.236 318.696C123.66 318.439 123.403 317.764 123.66 317.189C123.918 316.614 124.593 316.356 125.168 316.614L125.177 316.617Z" fill="white"/>
<path d="M130.922 319.089L132.662 319.79L132.674 319.795C133.263 320.032 133.547 320.702 133.31 321.29C133.073 321.878 132.404 322.163 131.816 321.926L131.814 321.925L130.052 321.211C129.464 320.974 129.181 320.305 129.419 319.718C129.657 319.131 130.326 318.847 130.913 319.085L130.922 319.089Z" fill="white"/>
<path d="M136.752 321.353L138.516 321.992L138.528 321.996C139.128 322.213 139.438 322.875 139.221 323.475C139.004 324.075 138.342 324.385 137.742 324.168L137.74 324.167L135.953 323.517C135.355 323.299 135.046 322.637 135.264 322.039C135.482 321.44 136.144 321.132 136.742 321.35L136.752 321.353Z" fill="white"/>
<path d="M142.659 323.408L144.445 323.984L144.457 323.988C145.067 324.184 145.402 324.838 145.206 325.449C145.009 326.059 144.354 326.395 143.744 326.198L143.742 326.197L141.934 325.611C141.325 325.413 140.991 324.759 141.189 324.15C141.386 323.541 142.04 323.208 142.649 323.405L142.659 323.408Z" fill="white"/>
<path d="M148.635 325.253L150.441 325.765L150.452 325.768C151.072 325.944 151.433 326.59 151.257 327.21C151.081 327.83 150.435 328.19 149.815 328.014L149.813 328.014L147.985 327.491C147.366 327.314 147.008 326.669 147.185 326.051C147.362 325.432 148.007 325.073 148.626 325.25L148.635 325.253Z" fill="white"/>
<path d="M154.674 326.886L156.497 327.335L156.508 327.338C157.138 327.493 157.522 328.129 157.367 328.758C157.212 329.387 156.577 329.771 155.947 329.616L155.945 329.616L154.1 329.158C153.471 329.002 153.089 328.366 153.245 327.739C153.401 327.111 154.036 326.728 154.664 326.884L154.674 326.886Z" fill="white"/>
<path d="M160.767 328.307L162.604 328.692L162.617 328.694C163.254 328.828 163.663 329.453 163.529 330.091C163.396 330.728 162.771 331.137 162.133 331.003L162.131 331.003L160.27 330.609C159.634 330.475 159.227 329.85 159.362 329.214C159.496 328.577 160.121 328.17 160.757 328.305L160.767 328.307Z" fill="white"/>
<path d="M166.906 329.515L168.756 329.835L168.768 329.837C169.413 329.949 169.846 330.562 169.734 331.208C169.622 331.853 169.008 332.285 168.363 332.173L168.361 332.173L166.487 331.845C165.844 331.732 165.413 331.118 165.526 330.475C165.639 329.831 166.252 329.4 166.896 329.513L166.906 329.515Z" fill="white"/>
<path d="M173.084 330.507L174.944 330.763L174.956 330.765C175.608 330.854 176.064 331.456 175.974 332.108C175.885 332.76 175.283 333.216 174.631 333.126L174.629 333.126L172.745 332.863C172.094 332.772 171.64 332.171 171.731 331.52C171.822 330.869 172.423 330.415 173.074 330.506L173.084 330.507Z" fill="white"/>
<path d="M179.292 331.284L181.159 331.475L181.172 331.476C181.83 331.543 182.309 332.132 182.242 332.789C182.174 333.448 181.586 333.927 180.928 333.859L180.926 333.859L179.034 333.662C178.377 333.594 177.9 333.005 177.968 332.348C178.037 331.691 178.625 331.214 179.282 331.283L179.292 331.284Z" fill="white"/>
<path d="M185.523 331.844L187.396 331.97L187.408 331.97C188.072 332.015 188.574 332.589 188.529 333.252C188.485 333.916 187.911 334.418 187.248 334.373L187.245 334.373L185.348 334.242C184.686 334.196 184.186 333.622 184.231 332.96C184.277 332.298 184.851 331.798 185.513 331.843L185.523 331.844Z" fill="white"/>
<path d="M191.77 332.186L193.646 332.246L193.658 332.246C194.326 332.267 194.851 332.826 194.829 333.494C194.808 334.162 194.249 334.686 193.581 334.665H193.579L191.678 334.6C191.011 334.578 190.489 334.019 190.511 333.352C190.534 332.685 191.093 332.162 191.76 332.185L191.77 332.186Z" fill="white"/>
<path d="M198.023 332.308L199.899 332.302H199.912C200.584 332.3 201.13 332.842 201.133 333.514C201.135 334.186 200.592 334.732 199.92 334.734H199.918L198.016 334.737C197.345 334.738 196.801 334.195 196.8 333.524C196.799 332.853 197.342 332.309 198.012 332.308H198.023Z" fill="white"/>
<path d="M204.276 332.21L206.151 332.138L206.164 332.137C206.838 332.111 207.406 332.637 207.432 333.311C207.458 333.986 206.933 334.554 206.258 334.58H206.256L204.355 334.65C203.681 334.674 203.116 334.149 203.091 333.475C203.066 332.801 203.592 332.235 204.265 332.21L204.276 332.21Z" fill="white"/>
<path d="M210.521 331.891L212.391 331.752L212.404 331.75C213.081 331.7 213.67 332.208 213.72 332.884C213.771 333.561 213.263 334.15 212.587 334.2L212.584 334.201L210.687 334.338C210.012 334.387 209.424 333.879 209.375 333.203C209.326 332.528 209.835 331.94 210.51 331.891L210.521 331.891Z" fill="white"/>
<path d="M216.749 331.349L218.613 331.143L218.626 331.141C219.304 331.066 219.914 331.555 219.989 332.233C220.064 332.91 219.575 333.52 218.897 333.595L218.895 333.595L217.004 333.801C216.327 333.875 215.718 333.385 215.645 332.709C215.572 332.032 216.061 331.424 216.737 331.35L216.749 331.349Z" fill="white"/>
<path d="M222.953 330.584L224.808 330.313L224.822 330.311C225.498 330.213 226.125 330.681 226.224 331.357C226.322 332.032 225.856 332.66 225.18 332.758L223.298 333.035C222.622 333.134 221.993 332.667 221.893 331.99C221.794 331.314 222.261 330.685 222.938 330.586L222.939 330.585L222.953 330.584Z" fill="white"/>
<path d="M229.126 329.604L230.97 329.266L230.984 329.263C231.653 329.14 232.295 329.584 232.418 330.253C232.541 330.922 232.099 331.564 231.43 331.687L229.559 332.032C228.889 332.156 228.246 331.713 228.122 331.043C227.999 330.373 228.441 329.73 229.111 329.606L229.113 329.606L229.126 329.604Z" fill="white"/>
<path d="M235.259 328.398L237.09 327.992L237.103 327.989C237.765 327.842 238.421 328.26 238.568 328.922C238.715 329.584 238.298 330.239 237.636 330.386L235.779 330.801C235.117 330.949 234.46 330.531 234.312 329.869C234.164 329.206 234.581 328.549 235.244 328.401L235.246 328.401L235.259 328.398Z" fill="white"/>
<path d="M241.345 326.966L243.16 326.493L243.173 326.489C243.827 326.319 244.495 326.71 244.666 327.364C244.836 328.018 244.446 328.686 243.792 328.856L241.952 329.339C241.297 329.51 240.628 329.119 240.456 328.465C240.285 327.811 240.676 327.141 241.33 326.969L241.332 326.969L241.345 326.966Z" fill="white"/>
<path d="M247.374 325.311L249.17 324.772L249.183 324.768C249.827 324.574 250.507 324.94 250.701 325.585C250.894 326.229 250.53 326.908 249.885 327.102L248.064 327.652C247.419 327.846 246.738 327.481 246.544 326.836C246.349 326.191 246.714 325.51 247.359 325.315L247.361 325.315L247.374 325.311Z" fill="white"/>
<path d="M253.338 323.437L255.113 322.833L255.126 322.829C255.761 322.613 256.451 322.952 256.667 323.587C256.883 324.222 256.545 324.912 255.91 325.128L254.11 325.743C253.475 325.96 252.784 325.621 252.567 324.986C252.349 324.35 252.689 323.659 253.324 323.442L253.326 323.441L253.338 323.437Z" fill="white"/>
<path d="M259.23 321.349L260.983 320.681L260.995 320.677C261.62 320.439 262.319 320.752 262.557 321.377C262.795 322.001 262.483 322.7 261.858 322.938L260.082 323.617C259.457 323.856 258.757 323.543 258.518 322.919C258.279 322.294 258.592 321.593 259.216 321.354L259.218 321.354L259.23 321.349Z" fill="white"/>
<path d="M265.044 319.051L266.772 318.321L266.784 318.316C267.398 318.057 268.105 318.345 268.364 318.958C268.623 319.571 268.337 320.278 267.724 320.537L265.973 321.279C265.36 321.539 264.651 321.253 264.391 320.639C264.131 320.025 264.417 319.317 265.031 319.057L265.033 319.056L265.044 319.051Z" fill="white"/>
<path d="M270.774 316.548L272.476 315.757L272.487 315.752C273.089 315.472 273.803 315.733 274.083 316.335C274.362 316.937 274.103 317.651 273.501 317.93L271.778 318.734C271.176 319.014 270.46 318.754 270.179 318.152C269.899 317.55 270.159 316.834 270.761 316.554L270.762 316.553L270.774 316.548Z" fill="white"/>
<path d="M276.413 313.843L278.086 312.993L278.097 312.987C278.687 312.688 279.407 312.923 279.706 313.512C280.006 314.101 279.772 314.821 279.183 315.121L277.489 315.984C276.899 316.285 276.178 316.051 275.877 315.461C275.577 314.872 275.811 314.15 276.4 313.849L276.402 313.848L276.413 313.843Z" fill="white"/>
<path d="M281.954 310.941L283.597 310.033L283.608 310.027C284.184 309.708 284.91 309.917 285.229 310.493C285.547 311.07 285.34 311.795 284.764 312.113L283.1 313.036C282.524 313.356 281.797 313.148 281.477 312.571C281.157 311.995 281.365 311.268 281.942 310.948L281.943 310.947L281.954 310.941Z" fill="white"/>
<path d="M287.391 307.847L289.001 306.882L289.012 306.875C289.575 306.538 290.305 306.721 290.642 307.284C290.979 307.846 290.798 308.575 290.235 308.912L288.605 309.893C288.042 310.231 287.312 310.049 286.973 309.486C286.634 308.924 286.816 308.193 287.379 307.854L287.381 307.853L287.391 307.847Z" fill="white"/>
<path d="M292.718 304.565L294.293 303.544L294.304 303.537C294.852 303.182 295.585 303.338 295.941 303.887C296.296 304.435 296.141 305.167 295.593 305.523L293.998 306.559C293.449 306.916 292.715 306.76 292.358 306.211C292.002 305.663 292.158 304.929 292.706 304.572L292.708 304.571L292.718 304.565Z" fill="white"/>
<path d="M297.927 301.098L299.466 300.023L299.476 300.016C300.01 299.643 300.745 299.773 301.118 300.307C301.491 300.841 301.362 301.575 300.828 301.948L299.27 303.04C298.736 303.414 298 303.284 297.626 302.75C297.252 302.216 297.381 301.48 297.915 301.106L297.917 301.105L297.927 301.098Z" fill="white"/>
<path d="M303.013 297.452L304.513 296.324L304.523 296.317C305.042 295.927 305.778 296.031 306.168 296.549C306.558 297.068 306.455 297.804 305.936 298.194L304.418 299.339C303.899 299.73 303.162 299.626 302.77 299.108C302.379 298.589 302.483 297.851 303.001 297.46L303.003 297.459L303.013 297.452Z" fill="white"/>
<path d="M307.967 293.631L309.427 292.452L309.436 292.444C309.939 292.038 310.676 292.116 311.082 292.618C311.489 293.121 311.412 293.857 310.909 294.264L309.431 295.461C308.929 295.869 308.191 295.791 307.783 295.288C307.375 294.786 307.453 294.048 307.956 293.64L307.957 293.639L307.967 293.631Z" fill="white"/>
<path d="M312.785 289.64L314.202 288.409L314.212 288.401C314.698 287.979 315.435 288.031 315.857 288.518C316.279 289.004 316.228 289.74 315.741 290.162L314.307 291.41C313.821 291.833 313.083 291.782 312.66 291.296C312.237 290.809 312.288 290.072 312.774 289.649L312.775 289.648L312.785 289.64Z" fill="white"/>
<path d="M317.458 285.481L318.832 284.202L318.841 284.193C319.31 283.756 320.046 283.782 320.483 284.252C320.92 284.721 320.895 285.455 320.426 285.892L319.036 287.191C318.567 287.629 317.831 287.604 317.392 287.134C316.954 286.665 316.979 285.929 317.448 285.491L317.449 285.49L317.458 285.481Z" fill="white"/>
<path d="M321.983 281.161L323.31 279.834L323.319 279.825C323.771 279.373 324.503 279.373 324.955 279.825C325.407 280.277 325.408 281.009 324.956 281.461L323.614 282.807C323.162 283.26 322.428 283.261 321.975 282.809C321.522 282.358 321.521 281.624 321.973 281.171L321.974 281.17L321.983 281.161Z" fill="white"/>
<path d="M326.351 276.684L327.629 275.31L327.638 275.301C328.072 274.835 328.801 274.809 329.267 275.243C329.733 275.677 329.76 276.405 329.327 276.871L328.033 278.265C327.599 278.732 326.869 278.759 326.402 278.325C325.935 277.892 325.908 277.161 326.342 276.694L326.343 276.693L326.351 276.684Z" fill="white"/>
<path d="M330.554 272.053L331.783 270.635L331.791 270.625C332.206 270.146 332.932 270.094 333.411 270.509C333.891 270.924 333.944 271.648 333.528 272.128L332.286 273.566C331.871 274.047 331.145 274.1 330.664 273.685C330.183 273.27 330.13 272.544 330.545 272.064L330.546 272.062L330.554 272.053Z" fill="white"/>
<path d="M334.588 267.274L335.764 265.812L335.772 265.802C336.168 265.31 336.888 265.232 337.381 265.628C337.873 266.024 337.952 266.743 337.556 267.235L336.366 268.718C335.97 269.212 335.249 269.291 334.756 268.895C334.263 268.5 334.183 267.779 334.579 267.285L334.58 267.284L334.588 267.274Z" fill="white"/>
<path d="M338.449 262.354L339.573 260.851L339.58 260.841C339.955 260.34 340.665 260.237 341.166 260.612C341.667 260.987 341.772 261.693 341.397 262.194L340.265 263.721C339.891 264.226 339.179 264.332 338.675 263.958C338.17 263.584 338.065 262.872 338.439 262.367L338.441 262.363L338.449 262.354Z" fill="white"/>
<path d="M342.129 257.297L343.198 255.754L343.205 255.745C343.557 255.236 344.254 255.11 344.762 255.462C345.271 255.814 345.4 256.507 345.048 257.016L343.973 258.582C343.622 259.094 342.922 259.224 342.411 258.872C341.899 258.521 341.769 257.822 342.12 257.31L342.123 257.306L342.129 257.297Z" fill="white"/>
<path d="M345.635 252.111L346.654 250.534L346.66 250.526C346.992 250.013 347.676 249.867 348.189 250.199C348.702 250.531 348.852 251.211 348.52 251.724L347.496 253.321C347.165 253.837 346.478 253.987 345.962 253.657C345.446 253.326 345.296 252.639 345.627 252.123L345.629 252.119L345.635 252.111Z" fill="white"/>
<path d="M348.987 246.819L349.967 245.215L349.97 245.208C350.285 244.693 350.958 244.53 351.473 244.844C351.988 245.159 352.153 245.828 351.838 246.343L350.858 247.964C350.544 248.483 349.87 248.649 349.352 248.336C348.834 248.022 348.667 247.348 348.981 246.829L348.983 246.825L348.987 246.819Z" fill="white"/>
<path d="M352.211 241.443L353.158 239.817L353.161 239.812C353.461 239.296 354.122 239.122 354.637 239.422C355.152 239.722 355.329 240.379 355.029 240.894L354.083 242.535C353.784 243.054 353.122 243.232 352.603 242.932C352.085 242.634 351.907 241.971 352.206 241.453L352.208 241.449L352.211 241.443Z" fill="white"/>
<path d="M355.339 236L356.262 234.355L356.264 234.352C356.552 233.838 357.203 233.656 357.716 233.944C358.229 234.233 358.414 234.879 358.126 235.392L357.205 237.047C356.918 237.564 356.266 237.749 355.749 237.462C355.233 237.175 355.047 236.523 355.334 236.007L355.337 236.003L355.339 236Z" fill="white"/>
<path d="M358.396 230.507L359.305 228.851C359.583 228.34 360.223 228.153 360.733 228.431C361.244 228.709 361.433 229.347 361.154 229.858L360.251 231.522C359.972 232.035 359.33 232.225 358.817 231.946C358.304 231.668 358.114 231.026 358.393 230.513L358.396 230.507Z" fill="white"/>
<path d="M361.41 224.984L362.311 223.321C362.585 222.816 363.216 222.629 363.721 222.902C364.226 223.175 364.415 223.803 364.142 224.308L363.247 225.975C362.974 226.483 362.341 226.674 361.834 226.401C361.326 226.129 361.135 225.496 361.408 224.988L361.41 224.984Z" fill="white"/>
<path d="M364.411 219.445L365.313 217.784C365.583 217.286 366.206 217.101 366.704 217.372C367.202 217.642 367.389 218.262 367.118 218.76L366.225 220.424C365.956 220.925 365.331 221.114 364.83 220.845C364.328 220.576 364.14 219.951 364.409 219.45L364.411 219.445Z" fill="white"/>
<path d="M367.426 213.912L368.339 212.252C368.609 211.762 369.225 211.583 369.715 211.853C370.205 212.122 370.385 212.737 370.115 213.227L369.211 214.886C368.944 215.38 368.327 215.564 367.833 215.296C367.339 215.029 367.155 214.412 367.423 213.918L367.426 213.912Z" fill="white"/>
<path d="M370.486 208.394L371.418 206.743C371.69 206.263 372.3 206.093 372.78 206.364C373.261 206.636 373.431 207.246 373.159 207.726L372.238 209.374L372.237 209.377C371.966 209.861 371.354 210.034 370.871 209.764C370.387 209.493 370.214 208.881 370.484 208.398L370.486 208.394Z" fill="white"/>
<path d="M373.62 202.912L374.579 201.277C374.854 200.807 375.459 200.649 375.929 200.925C376.399 201.201 376.556 201.805 376.281 202.275L376.28 202.276L375.333 203.906L375.33 203.911C375.056 204.384 374.45 204.544 373.977 204.27C373.504 203.995 373.343 203.389 373.618 202.916L373.62 202.912Z" fill="white"/>
<path d="M376.857 197.485L377.851 195.87C378.133 195.413 378.733 195.27 379.19 195.552C379.648 195.834 379.79 196.434 379.508 196.891L379.506 196.894L378.526 198.5L378.523 198.506C378.241 198.967 377.64 199.112 377.179 198.831C376.719 198.55 376.573 197.949 376.854 197.488L376.857 197.485Z" fill="white"/>
<path d="M380.221 192.134L381.259 190.546C381.55 190.103 382.144 189.978 382.588 190.269C383.032 190.559 383.156 191.153 382.866 191.597L382.863 191.601L381.841 193.178L381.836 193.186C381.547 193.632 380.95 193.76 380.503 193.47C380.056 193.181 379.929 192.584 380.219 192.137L380.221 192.134Z" fill="white"/>
<path d="M383.741 186.879L384.832 185.325C385.132 184.897 385.722 184.794 386.15 185.094C386.578 185.394 386.682 185.984 386.381 186.412L386.378 186.417L385.305 187.96L385.3 187.968C385 188.399 384.408 188.505 383.976 188.206C383.545 187.906 383.439 187.314 383.739 186.883L383.741 186.879Z" fill="white"/>
<path d="M387.451 181.745L388.61 180.236C388.924 179.828 389.509 179.751 389.918 180.065C390.326 180.379 390.403 180.964 390.089 181.373L390.084 181.38L388.948 182.873L388.94 182.883C388.626 183.295 388.038 183.375 387.627 183.062C387.215 182.748 387.135 182.16 387.448 181.748L387.451 181.745Z" fill="white"/>
<path d="M391.403 176.786L392.635 175.336C392.96 174.954 393.533 174.907 393.916 175.232C394.297 175.556 394.344 176.126 394.024 176.508L394.016 176.519L392.812 177.957L392.803 177.967C392.479 178.355 391.901 178.406 391.513 178.082C391.125 177.757 391.073 177.179 391.398 176.791L391.403 176.786Z" fill="white"/>
<path d="M395.591 172.026L396.894 170.639C397.228 170.283 397.788 170.265 398.145 170.6C398.5 170.933 398.519 171.49 398.189 171.846L398.18 171.856L396.906 173.233L396.897 173.243C396.562 173.604 395.998 173.627 395.636 173.292C395.274 172.957 395.252 172.392 395.587 172.03L395.591 172.026Z" fill="white"/>
<path d="M400.015 167.482L401.389 166.165C401.732 165.836 402.278 165.847 402.607 166.191C402.935 166.533 402.925 167.075 402.586 167.405L402.576 167.415L401.233 168.723L401.223 168.732C400.879 169.067 400.329 169.06 399.994 168.716C399.66 168.372 399.667 167.822 400.011 167.487L400.015 167.482Z" fill="white"/>
<path d="M404.677 163.181L406.122 161.942C406.473 161.64 407.002 161.681 407.304 162.032C407.604 162.382 407.565 162.908 407.218 163.21L407.207 163.219L405.793 164.45L405.782 164.46C405.43 164.766 404.896 164.729 404.59 164.377C404.283 164.025 404.32 163.491 404.672 163.185L404.677 163.181Z" fill="white"/>
<path d="M409.578 159.15L411.095 157.999C411.454 157.727 411.964 157.798 412.236 158.156C412.507 158.513 412.438 159.02 412.085 159.293L412.072 159.303L410.588 160.446L410.576 160.456C410.216 160.732 409.7 160.666 409.424 160.306C409.147 159.947 409.214 159.431 409.573 159.154L409.578 159.15Z" fill="white"/>
<path d="M414.721 155.428L416.311 154.378C416.675 154.137 417.165 154.237 417.406 154.602C417.646 154.965 417.547 155.452 417.187 155.694L417.173 155.703L415.618 156.747L415.605 156.756C415.239 157.002 414.743 156.904 414.498 156.538C414.252 156.172 414.35 155.677 414.716 155.431L414.721 155.428Z" fill="white"/>
<path d="M420.104 152.058L421.765 151.124C422.134 150.916 422.602 151.047 422.81 151.416C423.016 151.783 422.888 152.248 422.523 152.458L422.507 152.466L420.883 153.396L420.868 153.405C420.497 153.617 420.024 153.489 419.811 153.118C419.599 152.746 419.728 152.273 420.099 152.061L420.104 152.058Z" fill="white"/>
<path d="M425.723 149.092L427.453 148.289C427.826 148.116 428.268 148.278 428.441 148.651C428.612 149.021 428.453 149.461 428.084 149.635L428.067 149.643L426.376 150.443L426.36 150.451C425.985 150.628 425.538 150.468 425.36 150.093C425.183 149.719 425.343 149.271 425.718 149.094L425.723 149.092Z" fill="white"/>
<path d="M431.567 146.586L433.358 145.935C433.731 145.799 434.144 145.992 434.28 146.365C434.416 146.737 434.225 147.148 433.855 147.285L433.837 147.292L432.088 147.944L432.07 147.95C431.694 148.091 431.275 147.899 431.135 147.523C430.995 147.147 431.186 146.728 431.562 146.588L431.567 146.586Z" fill="white"/>
<path d="M437.608 144.605L439.455 144.122C439.827 144.024 440.207 144.247 440.305 144.619C440.402 144.989 440.182 145.368 439.813 145.467L439.793 145.473L437.989 145.959L437.969 145.964C437.594 146.066 437.209 145.844 437.107 145.468C437.006 145.093 437.228 144.707 437.603 144.606L437.608 144.605Z" fill="white"/>
<path d="M443.815 143.208L445.702 142.911C446.069 142.853 446.413 143.104 446.471 143.471C446.528 143.836 446.28 144.179 445.916 144.239L445.895 144.242L444.052 144.546L444.032 144.55C443.661 144.611 443.312 144.36 443.25 143.99C443.189 143.619 443.44 143.27 443.81 143.208L443.815 143.208Z" fill="white"/>
<path d="M450.134 142.449L452.042 142.352C452.4 142.334 452.704 142.61 452.722 142.967C452.741 143.323 452.468 143.627 452.113 143.648L452.091 143.649L450.227 143.758L450.206 143.759C449.844 143.78 449.534 143.504 449.513 143.142C449.492 142.781 449.768 142.471 450.13 142.45L450.134 142.449Z" fill="white"/>
<path d="M456.498 142.368L457.228 142.402C457.576 142.419 457.843 142.714 457.827 143.061C457.811 143.407 457.518 143.674 457.173 143.66L457.165 143.66L456.45 143.631L456.443 143.631C456.094 143.617 455.822 143.323 455.836 142.974C455.851 142.625 456.145 142.353 456.494 142.368H456.498Z" fill="white"/>
</g>
<defs>
<linearGradient id="paint0_linear_189_23950" x1="0.0001214" y1="187.5" x2="623.387" y2="187.5" gradientUnits="userSpaceOnUse">
<stop stop-color="#DAE3FE"/>
<stop offset="1" stop-color="#E9EFFD"/>
</linearGradient>
<linearGradient id="paint1_linear_189_23950" x1="155.974" y1="94.0755" x2="174.943" y2="94.0755" gradientUnits="userSpaceOnUse">
<stop stop-color="#DAE3FE"/>
<stop offset="1" stop-color="#E9EFFD"/>
</linearGradient>
<linearGradient id="paint2_linear_189_23950" x1="111.133" y1="290.954" x2="210.967" y2="290.954" gradientUnits="userSpaceOnUse">
<stop stop-color="#DAE3FE"/>
<stop offset="1" stop-color="#E9EFFD"/>
</linearGradient>
<linearGradient id="paint3_linear_189_23950" x1="404.299" y1="292.983" x2="498.181" y2="301.276" gradientUnits="userSpaceOnUse">
<stop stop-color="#DAE3FE"/>
<stop offset="1" stop-color="#E9EFFD"/>
</linearGradient>
<linearGradient id="paint4_linear_189_23950" x1="256.568" y1="349.578" x2="256.819" y2="349.578" gradientUnits="userSpaceOnUse">
<stop stop-color="#4042E2"/>
<stop offset="1" stop-color="#4F52FF"/>
</linearGradient>
<linearGradient id="paint5_linear_189_23950" x1="242.476" y1="306.781" x2="302.588" y2="306.781" gradientUnits="userSpaceOnUse">
<stop stop-color="#4042E2"/>
<stop offset="1" stop-color="#4F52FF"/>
</linearGradient>
<linearGradient id="paint6_linear_189_23950" x1="417.142" y1="114.611" x2="497.169" y2="154.349" gradientUnits="userSpaceOnUse">
<stop stop-color="#09005D"/>
<stop offset="1" stop-color="#1A0F91"/>
</linearGradient>
<linearGradient id="paint7_linear_189_23950" x1="347.013" y1="79.6834" x2="419.588" y2="121.904" gradientUnits="userSpaceOnUse">
<stop stop-color="#09005D"/>
<stop offset="1" stop-color="#1A0F91"/>
</linearGradient>
<linearGradient id="paint8_linear_189_23950" x1="251.814" y1="250.767" x2="37.0476" y2="140.156" gradientUnits="userSpaceOnUse">
<stop stop-color="#FE7062"/>
<stop offset="1" stop-color="#FF928E"/>
</linearGradient>
<linearGradient id="paint9_linear_189_23950" x1="176.562" y1="-39.91" x2="161.659" y2="11.4226" gradientUnits="userSpaceOnUse">
<stop stop-color="#FF928E"/>
<stop offset="1" stop-color="#FEB3B1"/>
</linearGradient>
<linearGradient id="paint10_linear_189_23950" x1="211.145" y1="251.633" x2="230.411" y2="273.049" gradientUnits="userSpaceOnUse">
<stop stop-color="#09005D"/>
<stop offset="1" stop-color="#1A0F91"/>
</linearGradient>
<linearGradient id="paint11_linear_189_23950" x1="58.5992" y1="82.6254" x2="87.2986" y2="128.158" gradientUnits="userSpaceOnUse">
<stop stop-color="#09005D"/>
<stop offset="1" stop-color="#1A0F91"/>
</linearGradient>
<linearGradient id="paint12_linear_189_23950" x1="-306.857" y1="-467.686" x2="-290.93" y2="-443.683" gradientUnits="userSpaceOnUse">
<stop stop-color="#09005D"/>
<stop offset="1" stop-color="#1A0F91"/>
</linearGradient>
<linearGradient id="paint13_linear_189_23950" x1="76.4241" y1="131.23" x2="75.5683" y2="269.143" gradientUnits="userSpaceOnUse">
<stop stop-color="#E1473D"/>
<stop offset="1" stop-color="#E9605A"/>
</linearGradient>
<linearGradient id="paint14_linear_189_23950" x1="264.302" y1="256.658" x2="286.93" y2="200.087" gradientUnits="userSpaceOnUse">
<stop stop-color="#4042E2"/>
<stop offset="1" stop-color="#4F52FF"/>
</linearGradient>
<linearGradient id="paint15_linear_189_23950" x1="300.542" y1="271.154" x2="323.17" y2="214.583" gradientUnits="userSpaceOnUse">
<stop stop-color="#4042E2"/>
<stop offset="1" stop-color="#4F52FF"/>
</linearGradient>
<linearGradient id="paint16_linear_189_23950" x1="251.137" y1="127.387" x2="237.063" y2="151.119" gradientUnits="userSpaceOnUse">
<stop stop-color="#09005D"/>
<stop offset="1" stop-color="#1A0F91"/>
</linearGradient>
<linearGradient id="paint17_linear_189_23950" x1="276.671" y1="254.992" x2="301.783" y2="198.145" gradientUnits="userSpaceOnUse">
<stop stop-color="#4042E2"/>
<stop offset="1" stop-color="#4F52FF"/>
</linearGradient>
<linearGradient id="paint18_linear_189_23950" x1="333.069" y1="207.023" x2="303.542" y2="227.72" gradientUnits="userSpaceOnUse">
<stop stop-color="#4042E2"/>
<stop offset="1" stop-color="#4F52FF"/>
</linearGradient>
<linearGradient id="paint19_linear_189_23950" x1="141.752" y1="323.025" x2="199.992" y2="323.025" gradientUnits="userSpaceOnUse">
<stop stop-color="#4042E2"/>
<stop offset="1" stop-color="#4F52FF"/>
</linearGradient>
<linearGradient id="paint20_linear_189_23950" x1="140.271" y1="297.213" x2="153.939" y2="297.213" gradientUnits="userSpaceOnUse">
<stop stop-color="#4042E2"/>
<stop offset="1" stop-color="#4F52FF"/>
</linearGradient>
<linearGradient id="paint21_linear_189_23950" x1="239.629" y1="190.426" x2="247.436" y2="190.426" gradientUnits="userSpaceOnUse">
<stop stop-color="#09005D"/>
<stop offset="1" stop-color="#1A0F91"/>
</linearGradient>
<linearGradient id="paint22_linear_189_23950" x1="239.629" y1="251.681" x2="247.436" y2="251.681" gradientUnits="userSpaceOnUse">
<stop stop-color="#09005D"/>
<stop offset="1" stop-color="#1A0F91"/>
</linearGradient>
<linearGradient id="paint23_linear_189_23950" x1="259.446" y1="248.979" x2="272.058" y2="248.979" gradientUnits="userSpaceOnUse">
<stop stop-color="#09005D"/>
<stop offset="1" stop-color="#1A0F91"/>
</linearGradient>
<linearGradient id="paint24_linear_189_23950" x1="300.283" y1="248.979" x2="312.895" y2="248.979" gradientUnits="userSpaceOnUse">
<stop stop-color="#09005D"/>
<stop offset="1" stop-color="#1A0F91"/>
</linearGradient>
<linearGradient id="paint25_linear_189_23950" x1="194.677" y1="176.968" x2="202.366" y2="173.018" gradientUnits="userSpaceOnUse">
<stop stop-color="#4042E2"/>
<stop offset="1" stop-color="#4F52FF"/>
</linearGradient>
<linearGradient id="paint26_linear_189_23950" x1="185.251" y1="177.424" x2="204.173" y2="177.424" gradientUnits="userSpaceOnUse">
<stop stop-color="#09005D"/>
<stop offset="1" stop-color="#1A0F91"/>
</linearGradient>
<linearGradient id="paint27_linear_189_23950" x1="261.249" y1="273.301" x2="311.694" y2="273.301" gradientUnits="userSpaceOnUse">
<stop stop-color="#4042E2"/>
<stop offset="1" stop-color="#4F52FF"/>
</linearGradient>
<clipPath id="clip0_189_23950">
<rect width="623" height="375" fill="white"/>
</clipPath>
</defs>
</svg>
