<svg width="64" height="64" viewBox="0 0 64 64" fill="none" xmlns="http://www.w3.org/2000/svg">
<rect width="64" height="64" rx="32" fill="url(#paint0_linear_161_4724)"/>
<path fill-rule="evenodd" clip-rule="evenodd" d="M20.6094 35.6801C20.8289 35.8868 20.8385 36.2313 20.6318 36.4525L20.1414 36.9717C20.0341 37.087 19.8898 37.1415 19.744 37.1415C19.6094 37.1415 19.4764 37.095 19.3706 36.9941C19.1511 36.7874 19.1415 36.4428 19.3482 36.2265L19.8386 35.7025C20.0453 35.4862 20.3898 35.4733 20.6094 35.6801ZM18.2184 39.2344C17.9428 39.1142 17.8162 38.7937 17.938 38.5165L18.1928 37.9364C18.313 37.6607 18.6351 37.5358 18.9107 37.6559C19.1864 37.7761 19.3129 38.0966 19.1912 38.3739L18.938 38.954C18.8482 39.1607 18.6479 39.2809 18.438 39.2809C18.3642 39.2809 18.2906 39.2665 18.2184 39.2344ZM18.079 41.5564C17.7778 41.5564 17.5342 41.3129 17.5342 41.01V40.4074C17.5342 40.1078 17.7778 39.8642 18.079 39.8642C18.3803 39.8642 18.6239 40.1078 18.6239 40.4074V41.01C18.6239 41.3129 18.3787 41.5564 18.079 41.5564ZM18.9091 43.7599C18.8386 43.7919 18.7633 43.8063 18.6912 43.8063C18.4812 43.8063 18.2809 43.6862 18.1912 43.4794L17.9364 42.8993C17.8162 42.6237 17.9412 42.3016 18.2168 42.1814C18.4924 42.0612 18.8145 42.1862 18.9347 42.4618L19.1879 43.0419C19.3113 43.3176 19.1847 43.6397 18.9091 43.7599ZM20.6318 44.9681C20.8385 45.1845 20.8273 45.529 20.6093 45.7357C20.5036 45.8367 20.369 45.8832 20.236 45.8832C20.0917 45.8832 19.9459 45.8287 19.8385 45.7133L19.3482 45.1941C19.1415 44.973 19.1527 44.6284 19.3706 44.4217C19.5902 44.2198 19.9347 44.2278 20.1414 44.4441L20.6318 44.9681ZM23.0692 47.3879C22.9666 47.5578 22.7871 47.6507 22.6044 47.6507C22.5067 47.6507 22.4089 47.6235 22.3208 47.5674L21.6269 47.1443C21.3705 46.9873 21.2904 46.6524 21.4475 46.3944C21.6045 46.1364 21.941 46.0595 22.1974 46.2149L22.8913 46.6379C23.1461 46.795 23.2262 47.1299 23.0692 47.3879ZM26.1508 48.6106C26.0722 48.8366 25.8623 48.9744 25.638 48.9744C25.5771 48.9744 25.5162 48.9648 25.4569 48.9423L24.6076 48.6427C24.3239 48.5417 24.1749 48.234 24.2758 47.9488C24.3768 47.6635 24.6877 47.5161 24.9713 47.6171L25.8206 47.9167C26.1027 48.0177 26.2517 48.3302 26.1508 48.6106ZM29.6666 49.3189C29.6234 49.5849 29.3926 49.774 29.1298 49.774C29.1009 49.774 29.0705 49.774 29.0416 49.7692L28.093 49.6122C27.7965 49.5609 27.5946 49.2805 27.6443 48.9872C27.6939 48.6876 27.9728 48.4905 28.2708 48.5369L29.2195 48.694C29.5143 48.7452 29.7147 49.0257 29.6666 49.3189ZM33.3828 49.4391C33.3892 49.742 33.1504 49.9904 32.8492 49.9952C32.6777 50 32.5126 50 32.3476 50C32.1825 50 32.0159 50 31.846 49.9952C31.5447 49.9904 31.3059 49.742 31.3123 49.4391C31.3187 49.1394 31.5687 48.9007 31.8684 48.9055C32.1953 48.9151 32.4998 48.9151 32.8267 48.9055C33.128 48.9007 33.3764 49.1394 33.3828 49.4391ZM37.0525 48.9888C37.1022 49.2837 36.9003 49.5641 36.6038 49.6138L35.6551 49.7708C35.6247 49.7756 35.5958 49.7756 35.567 49.7756C35.3042 49.7756 35.0734 49.5865 35.0301 49.3205C34.9821 49.0256 35.1824 48.7452 35.4789 48.6955L36.4275 48.5385C36.724 48.492 37.0044 48.6891 37.0525 48.9888ZM40.4209 47.9488C40.5219 48.234 40.3729 48.5417 40.0892 48.6426L39.2399 48.9423C39.179 48.9647 39.1181 48.9744 39.0588 48.9744C38.8345 48.9744 38.6245 48.8365 38.546 48.6106C38.4451 48.3302 38.5941 48.0177 38.8777 47.9167L39.7271 47.617C40.0091 47.5161 40.32 47.6635 40.4209 47.9488ZM43.2493 46.3943C43.4064 46.6523 43.3262 46.9872 43.0698 47.1443L42.376 47.5673C42.2878 47.6218 42.1885 47.6507 42.0923 47.6507C41.9096 47.6507 41.7302 47.5593 41.6276 47.3878C41.4706 47.1298 41.5507 46.7949 41.8071 46.6379L42.501 46.2148C42.7558 46.0594 43.0923 46.1363 43.2493 46.3943ZM45.3246 44.4217C45.5441 44.6284 45.5537 44.9729 45.347 45.1941L44.8566 45.7132C44.7493 45.8286 44.605 45.8831 44.4592 45.8831C44.3246 45.8831 44.1916 45.8366 44.0858 45.7357C43.8663 45.529 43.8567 45.1844 44.0634 44.9681L44.5538 44.4441C44.7605 44.2278 45.105 44.2197 45.3246 44.4217ZM46.7572 42.8993L46.5024 43.4794C46.4127 43.6861 46.2123 43.8063 46.0024 43.8063C45.9287 43.8063 45.855 43.7919 45.7845 43.7599C45.5088 43.6397 45.3838 43.3192 45.504 43.0419L45.7588 42.4618C45.879 42.1862 46.2011 42.0612 46.4767 42.1814C46.7524 42.3016 46.8774 42.6237 46.7572 42.8993ZM47.161 40.4074V41.01C47.161 41.3129 46.9174 41.5564 46.6162 41.5564C46.3149 41.5564 46.0713 41.3128 46.0713 41.01V40.4074C46.0713 40.1078 46.3149 39.8642 46.6162 39.8642C46.9174 39.8642 47.161 40.1078 47.161 40.4074ZM45.504 38.3739C45.3838 38.0982 45.5088 37.7762 45.7845 37.656C46.0601 37.5358 46.3822 37.6608 46.5024 37.9364L46.7572 38.5165C46.8774 38.7921 46.7524 39.1142 46.4767 39.2344C46.4062 39.2665 46.3309 39.2809 46.2588 39.2809C46.0489 39.2809 45.8486 39.1607 45.7588 38.954L45.504 38.3739ZM45.347 36.2265C45.5537 36.4429 45.5425 36.7874 45.3245 36.9941C45.2188 37.0951 45.0858 37.1416 44.9512 37.1416C44.8069 37.1416 44.6611 37.0871 44.5537 36.9717L44.0634 36.4525C43.8567 36.2314 43.8679 35.8868 44.0858 35.6801C44.3054 35.4734 44.6499 35.4862 44.8566 35.7025L45.347 36.2265ZM46.5665 25.3647C46.645 25.2268 46.6034 25.0522 46.4687 24.964L46.4046 24.9224C46.2668 24.831 46.0793 24.8679 45.9848 25.0009C45.3102 25.98 44.557 26.9191 43.7461 27.7876C42.9481 28.6434 41.9962 29.6641 40.7318 30.1737C40.4802 30.3019 40.203 30.3901 39.9114 30.4221C39.828 30.4398 39.7431 30.4542 39.6566 30.4638C39.3809 30.5055 39.1261 30.5231 38.8922 30.5231C37.3986 30.5231 36.6727 29.7924 35.7176 28.8357L33.4565 26.5729C33.3972 26.5137 33.3219 26.4816 33.2402 26.4816H33.2386C33.1584 26.4816 33.0815 26.5137 33.0222 26.5729L32.9806 26.6194C32.878 26.7204 32.862 26.8678 32.9389 26.9912C33.1312 27.3037 33.3203 27.5986 33.503 27.8838C34.7465 29.8196 35.7289 31.3516 35.716 34.1559C35.7064 36.3273 34.9949 39.279 34.3667 41.8865C34.2241 42.4746 34.0895 43.0355 33.9693 43.561C33.9517 43.6396 34.0013 43.7213 34.0798 43.7405L34.1936 43.7726C34.2657 43.7902 34.3298 43.763 34.3667 43.6989L37.554 37.9924C37.6534 37.8178 37.8377 37.7168 38.03 37.7168C38.0893 37.7168 38.1486 37.7264 38.2063 37.7441C38.4547 37.8322 38.6085 38.079 38.5684 38.3418L37.7271 43.8882C37.7143 43.9763 37.7512 44.0356 37.7736 44.0629C37.796 44.0949 37.8489 44.1414 37.937 44.151L38.0652 44.1606C38.1694 44.1654 38.2527 44.1141 38.2928 44.018C39.6662 40.656 40.8344 37.1559 41.8663 33.3116C42.0154 32.7603 42.2269 32.3004 42.5522 31.8309C43.9656 29.7893 45.3149 27.6132 46.5665 25.3647ZM31.7548 26.9928C31.8318 26.8694 31.8157 26.722 31.7132 26.621L31.6715 26.5746C31.6122 26.5153 31.5369 26.4832 31.4552 26.4832H31.4536C31.3735 26.4832 31.2965 26.5153 31.2388 26.5746L28.9777 28.8373C27.8736 29.9462 27.0756 30.7458 25.0388 30.4654C24.9523 30.4558 24.8673 30.443 24.784 30.4238C24.4923 30.3917 24.2151 30.3036 23.9635 30.1754C22.6992 29.6642 21.7457 28.6434 20.9492 27.7893C20.1383 26.9207 19.3852 25.9817 18.7105 25.0025C18.6512 24.9192 18.5551 24.8743 18.4589 24.8743C18.4013 24.8743 18.342 24.8887 18.2907 24.9256L18.2266 24.9673C18.092 25.0554 18.0503 25.2301 18.1288 25.3679C19.3804 27.6162 20.7313 29.7923 22.1399 31.834C22.4652 32.3036 22.6767 32.7635 22.8257 33.3148C23.8577 37.1591 25.026 40.6589 26.3993 44.0212C26.4393 44.1173 26.5227 44.1686 26.6268 44.1638L26.755 44.1542C26.8432 44.1446 26.8961 44.0997 26.9185 44.066C26.9409 44.0388 26.9778 43.9779 26.965 43.8914L26.1236 38.3449C26.0836 38.0821 26.2358 37.8337 26.4858 37.7472C26.7358 37.6639 27.0098 37.7649 27.138 37.9956L30.3253 43.702C30.3622 43.7661 30.4263 43.7934 30.4968 43.7757L30.6106 43.7437C30.6907 43.7261 30.7404 43.6427 30.7212 43.5642C30.601 43.0402 30.4664 42.4793 30.3237 41.8896C29.6956 39.2824 28.9857 36.3305 28.9744 34.1591C28.9616 31.3531 29.9439 29.8229 31.1875 27.887C31.3717 27.6001 31.5625 27.3053 31.7548 26.9928ZM19.1351 23.7782C20.119 23.8696 20.9539 23.8295 21.6911 23.6628C23.784 23.1853 24.2775 22.0443 24.9025 20.6005C24.9986 20.3793 25.0996 20.1454 25.2118 19.9066L26.5322 17.0461C26.67 17.317 26.8095 17.5974 26.9489 17.8827C26.1925 20.7431 25.6765 23.0972 25.4778 25.5812C25.3432 25.554 25.2054 25.5443 25.0644 25.5443C23.7295 25.5443 22.643 26.6164 22.6174 27.9449C22.3113 27.65 22.0228 27.3423 21.7456 27.0443C20.9716 26.2126 20.2521 25.32 19.6079 24.3857C19.438 24.1374 19.1977 23.9627 18.9333 23.8713C18.9413 23.8569 18.9493 23.8489 18.9557 23.8441C18.9829 23.8153 19.0437 23.7686 19.1351 23.7782ZM21.909 19.6069C21.1606 19.6069 20.5501 20.2191 20.5501 20.9674C20.5501 21.7126 21.159 22.3247 21.909 22.3247C22.1894 22.3247 22.4506 22.2366 22.6686 22.0956C22.6686 22.0908 22.6686 22.0908 22.6702 22.0908C22.6782 22.086 22.6862 22.0812 22.6942 22.0764C22.7359 22.0443 22.7744 22.0123 22.8128 21.9802C23.0917 21.7318 23.2695 21.368 23.2695 20.9691C23.2679 20.2191 22.6574 19.6069 21.909 19.6069ZM26.5369 26.0362C26.6795 23.8616 27.0817 21.8009 27.6811 19.4002C28.3862 20.9081 29.0064 22.4257 29.2612 23.7364C29.4278 24.5921 29.5416 25.5536 29.6089 26.6609L28.2035 28.0679C27.8782 28.3948 27.6074 28.6608 27.3446 28.8772C27.4519 28.6016 27.5112 28.3019 27.5112 27.9894C27.5128 27.1946 27.1282 26.4816 26.5369 26.0362ZM24.4136 29.1819C23.9922 28.9527 23.7053 28.5056 23.7053 27.9912C23.7053 27.2413 24.3142 26.6339 25.0642 26.6339C25.8125 26.6339 26.4231 27.2413 26.4231 27.9912C26.4231 28.7412 25.8141 29.3518 25.0642 29.3518C25.0241 29.3518 24.9841 29.3469 24.944 29.3421C24.7613 29.3053 24.5835 29.2508 24.4136 29.1819ZM26.9439 15.2481C26.9584 15.2113 26.9968 15.1472 27.085 15.1199L27.1314 15.1055C27.2388 15.0687 27.3478 15.1103 27.4023 15.2113C28.2323 16.7016 29.1986 17.9019 30.2707 18.7704C31.4934 19.7688 33.2017 19.7688 34.4244 18.7704C35.4965 17.9019 36.4611 16.7016 37.2929 15.2113C37.3377 15.1279 37.4114 15.0911 37.5108 15.0959C37.5941 15.1007 37.7063 15.1424 37.7512 15.2481C37.78 15.317 37.7784 15.3715 37.7464 15.4372C37.5701 15.801 37.3842 16.1728 37.1935 16.5542C36.0637 18.8169 34.7849 21.3778 34.3651 23.5299C34.2369 24.1837 34.1391 24.8872 34.0686 25.6676C33.8299 25.4881 33.5446 25.392 33.2434 25.392H33.2385C32.91 25.3968 32.5991 25.5121 32.3491 25.7189C32.0992 25.5121 31.7883 25.3968 31.4598 25.392C31.1569 25.392 30.87 25.4881 30.6297 25.6676C30.5592 24.8856 30.4598 24.1821 30.3332 23.5299C29.9134 21.3777 28.6346 18.8171 27.5048 16.5542C27.3141 16.1728 27.1282 15.7994 26.9503 15.4372C26.9087 15.3539 26.9295 15.2802 26.9439 15.2481ZM32.3476 15.7129C31.5976 15.7129 30.9887 16.3202 30.9887 17.0702C30.9887 17.7736 31.5239 18.3538 32.2066 18.4227C32.2995 18.4275 32.3941 18.4275 32.487 18.4227C33.1713 18.3538 33.7049 17.7737 33.7049 17.0702C33.7066 16.3186 33.0976 15.7129 32.3476 15.7129ZM37.0124 19.4002C37.6133 21.8007 38.014 23.8615 38.1582 26.0362C37.5669 26.4817 37.1823 27.1948 37.1823 27.9912C37.1823 28.3037 37.2416 28.6034 37.349 28.879C37.0861 28.6627 36.8153 28.3967 36.49 28.0698L35.0846 26.6628C35.1519 25.5539 35.2657 24.5939 35.4323 23.7382C35.6887 22.4258 36.3073 20.9081 37.0124 19.4002ZM39.7527 29.3419C39.7126 29.3467 39.6726 29.3515 39.6325 29.3515C38.8841 29.3515 38.2736 28.7394 38.2736 27.991C38.2736 27.2411 38.8825 26.6337 39.6325 26.6337C40.3825 26.6337 40.9914 27.2411 40.9914 27.991C40.9914 28.5054 40.7046 28.9525 40.2831 29.1816C40.1116 29.2506 39.9354 29.3051 39.7527 29.3419ZM39.7927 20.6051C40.1485 21.4287 40.4754 22.1819 41.126 22.762C41.2206 22.8502 41.3215 22.9319 41.4289 23.0008C41.8295 23.2812 42.3359 23.5072 43.0041 23.6626C43.7397 23.8277 44.5762 23.8693 45.5601 23.778C45.6531 23.7684 45.714 23.8149 45.7412 23.8421C45.7476 23.8469 45.7556 23.8565 45.7636 23.8693C45.4976 23.9607 45.2588 24.1354 45.089 24.3837C44.4448 25.318 43.7253 26.209 42.9513 27.0423C42.6741 27.342 42.3856 27.6497 42.0795 27.9429C42.0539 26.6144 40.9658 25.5423 39.6325 25.5423C39.4915 25.5423 39.3537 25.552 39.2191 25.5792C39.022 23.0953 38.5044 20.7462 37.7496 17.8807C37.889 17.5954 38.0285 17.315 38.1663 17.0441L39.4867 19.9046C39.5957 20.145 39.6966 20.3791 39.7927 20.6051ZM42.7862 19.6067C42.0363 19.6067 41.4273 20.2189 41.4273 20.9672C41.4273 21.3807 41.6164 21.7541 41.9113 22.0024C41.9177 22.012 41.9241 22.0168 41.9289 22.02C42.1629 22.2091 42.4609 22.3229 42.7846 22.3229C43.533 22.3229 44.1435 21.7108 44.1435 20.9656C44.1451 20.2188 43.5362 19.6067 42.7862 19.6067ZM47.0728 24.0586L47.0087 24.0121C46.9718 23.9897 46.935 23.9657 46.8965 23.948C46.8821 23.6131 46.7411 23.2958 46.4991 23.0602C46.2235 22.7894 45.8437 22.6548 45.4591 22.6917C45.1081 22.7237 44.7828 22.7381 44.4767 22.7333C44.9431 22.2879 45.2347 21.6613 45.2347 20.9674C45.2347 19.6149 44.137 18.5156 42.7861 18.5156C41.8567 18.5156 41.0474 19.0348 40.6324 19.7991C40.5811 19.6838 40.5298 19.57 40.4721 19.445L38.7799 15.7801C38.8937 15.4676 38.884 15.1311 38.751 14.8186C38.5523 14.3539 38.0876 14.0317 37.5652 14.0045C37.054 13.9773 36.5845 14.2337 36.3377 14.6807C35.8634 15.5317 35.3441 16.2768 34.7881 16.9066C34.7048 15.6326 33.6423 14.6215 32.3459 14.6215C31.0495 14.6215 29.9854 15.6326 29.9037 16.9066C29.3476 16.2768 28.8284 15.5317 28.3541 14.6807C28.0448 14.1247 27.4054 13.8715 26.7997 14.0638L26.7532 14.0782C26.3862 14.1984 26.0914 14.4644 25.9407 14.8186C25.8109 15.1262 25.8029 15.4676 25.9135 15.7801L24.2213 19.445C24.1652 19.5684 24.1123 19.6838 24.061 19.7991C23.646 19.0363 22.8367 18.5155 21.9073 18.5155C20.558 18.5155 19.4586 19.6149 19.4586 20.9674C19.4586 21.6612 19.7503 22.2878 20.2166 22.7333C19.9106 22.7381 19.5836 22.7237 19.2343 22.6917C18.8497 22.6548 18.4699 22.7878 18.1943 23.0602C17.9523 23.2942 17.8113 23.6115 17.7969 23.948C17.7584 23.9657 17.7216 23.9897 17.6847 24.0121L17.6206 24.0586C17.018 24.4592 16.8226 25.2637 17.1751 25.8983C18.4443 28.1738 19.8128 30.3773 21.2407 32.4461C21.4955 32.8179 21.6541 33.1592 21.7711 33.5951C22.8143 37.4811 23.9986 41.0224 25.3879 44.4295C25.5914 44.9262 26.0738 45.2483 26.6074 45.2483C26.6379 45.2483 26.6699 45.2483 26.7004 45.2435L26.8286 45.2339C27.1955 45.2115 27.5385 45.032 27.7677 44.7468C27.9968 44.4567 28.0962 44.0849 28.0401 43.7212L27.6491 41.146L29.3717 44.2276C29.6522 44.7292 30.2131 44.9727 30.7691 44.8253L30.8829 44.798C31.5383 44.6282 31.9325 43.9744 31.7819 43.3173C31.6601 42.7837 31.5255 42.2228 31.3828 41.6299C30.7691 39.0819 30.0736 36.1942 30.064 34.1525C30.0528 31.6686 30.9133 30.3257 32.1056 28.4731C32.1841 28.3498 32.2659 28.2248 32.346 28.0966C32.4277 28.2248 32.5078 28.3498 32.5864 28.4731C33.777 30.3256 34.6391 31.6685 34.6263 34.1525C34.6167 36.1941 33.9212 39.0819 33.3075 41.6299C33.1649 42.2228 33.0287 42.7837 32.9085 43.3173C32.7579 43.9744 33.1521 44.6282 33.8075 44.798L33.9213 44.8253C34.4773 44.9727 35.0382 44.7291 35.3186 44.2276L37.0413 41.146L36.6503 43.7212C36.5942 44.0849 36.6952 44.4567 36.9227 44.7468C37.1519 45.032 37.4932 45.2115 37.8618 45.2339L37.99 45.2435C38.022 45.2483 38.0525 45.2483 38.0829 45.2483C38.6166 45.2483 39.0989 44.9262 39.3024 44.4295C40.6918 41.0226 41.876 37.4809 42.9193 33.5951C43.0362 33.1576 43.1949 32.8179 43.4497 32.4461C44.8775 30.3773 46.246 28.1739 47.5152 25.8983C47.871 25.2637 47.6753 24.4593 47.0728 24.0586Z" fill="white"/>
<defs>
<linearGradient id="paint0_linear_161_4724" x1="64" y1="7.62939e-06" x2="7.62939e-06" y2="64" gradientUnits="userSpaceOnUse">
<stop stop-color="#F65A75"/>
<stop offset="1" stop-color="#48179C"/>
</linearGradient>
</defs>
</svg>
