<svg width="64" height="64" viewBox="0 0 64 64" fill="none" xmlns="http://www.w3.org/2000/svg">
<rect width="64" height="64" rx="32" fill="url(#paint0_linear_161_4592)"/>
<path fill-rule="evenodd" clip-rule="evenodd" d="M32 18.125C29.9498 18.1254 27.9481 18.7482 26.2595 19.9109C24.571 21.0737 23.2752 22.7217 22.5436 24.6369C21.8119 26.5521 21.679 28.6442 22.1622 30.6367C22.6455 32.6291 23.7222 34.4278 25.25 35.795L25.2545 35.801C26.09 36.5495 26.7245 37.1165 27.1775 37.5335C27.605 37.9235 27.9425 38.2445 28.121 38.4635L28.139 38.486C28.472 38.8955 28.76 39.2525 28.952 39.68C29.1425 40.106 29.2145 40.5605 29.2985 41.081L29.303 41.111C29.3465 41.378 29.363 41.705 29.3705 42.125H34.6295C34.637 41.705 34.6535 41.378 34.697 41.111L34.7015 41.081C34.7855 40.5605 34.8575 40.106 35.048 39.68C35.24 39.2525 35.528 38.8955 35.861 38.486L35.879 38.4635C36.0575 38.2445 36.395 37.9235 36.8225 37.5335C37.2755 37.1165 37.91 36.5495 38.7455 35.801L38.7515 35.795C40.2794 34.4277 41.3561 32.6288 41.8393 30.6363C42.3226 28.6437 42.1895 26.5514 41.4577 24.6362C40.7259 22.7209 39.4299 21.0729 37.7411 19.9103C36.0523 18.7476 34.0503 18.1251 32 18.125ZM34.616 44.375H29.384C29.39 44.53 29.398 44.6685 29.408 44.7905C29.438 45.128 29.4905 45.251 29.5265 45.3125C29.6251 45.4831 29.7669 45.6249 29.9375 45.7235C29.9975 45.7595 30.122 45.8105 30.4595 45.842C30.812 45.8735 31.2785 45.875 32 45.875C32.7215 45.875 33.188 45.875 33.5405 45.842C33.878 45.812 34.001 45.7595 34.0625 45.7235C34.2331 45.6249 34.3749 45.4831 34.4735 45.3125C34.5095 45.2525 34.562 45.128 34.592 44.7905C34.602 44.6685 34.61 44.53 34.616 44.375ZM19.625 28.25C19.6252 26.186 20.1416 24.1548 21.1272 22.3413C22.1129 20.5278 23.5365 18.9897 25.2684 17.867C27.0003 16.7442 28.9856 16.0725 31.0434 15.9129C33.1013 15.7534 35.1664 16.1111 37.0506 16.9535C38.9349 17.7959 40.5786 19.0962 41.832 20.7361C43.0854 22.376 43.9087 24.3033 44.227 26.3426C44.5453 28.382 44.3484 30.4685 43.6543 32.4123C42.9602 34.3561 41.791 36.0955 40.253 37.472C39.6131 38.0418 38.9761 38.6148 38.342 39.191C38.118 39.3968 37.898 39.6068 37.682 39.821L37.628 39.8795C37.238 40.361 37.1525 40.4855 37.103 40.598C37.052 40.7105 37.016 40.856 36.9185 41.468C36.8795 41.7095 36.875 42.1235 36.875 43.25V43.298C36.875 43.958 36.875 44.528 36.833 44.993C36.788 45.488 36.689 45.977 36.4235 46.4375C36.1272 46.9509 35.7009 47.3772 35.1875 47.6735C34.727 47.939 34.238 48.038 33.7445 48.083C33.2765 48.125 32.708 48.125 32.0495 48.125H31.952C31.292 48.125 30.722 48.125 30.257 48.083C29.762 48.038 29.273 47.939 28.8125 47.6735C28.2991 47.3772 27.8728 46.9509 27.5765 46.4375C27.311 45.977 27.212 45.488 27.167 44.9945C27.125 44.5265 27.125 43.958 27.125 43.2995V43.25C27.125 42.125 27.1205 41.7095 27.0815 41.468C26.984 40.856 26.9465 40.7105 26.897 40.598C26.8475 40.4855 26.762 40.361 26.372 39.878L26.357 39.863L26.318 39.8195L26.1725 39.674C26.0032 39.5106 25.8317 39.3496 25.658 39.191C25.2155 38.786 24.59 38.2265 23.747 37.472C22.4485 36.3124 21.41 34.8913 20.6996 33.3019C19.9892 31.7125 19.623 29.9909 19.625 28.25ZM28.838 34.025C28.9659 33.951 29.1072 33.9029 29.2537 33.8835C29.4002 33.8641 29.5491 33.8738 29.6919 33.9119C29.8347 33.9501 29.9686 34.016 30.0858 34.106C30.2031 34.1959 30.3016 34.308 30.3755 34.436C30.54 34.7214 30.7767 34.9584 31.0619 35.1232C31.3471 35.288 31.6706 35.3747 32 35.3747C32.3294 35.3747 32.6529 35.288 32.9381 35.1232C33.2233 34.9584 33.46 34.7214 33.6245 34.436C33.6986 34.3081 33.7971 34.196 33.9145 34.1061C34.0319 34.0162 34.1658 33.9504 34.3087 33.9123C34.4515 33.8742 34.6004 33.8646 34.747 33.8841C34.8935 33.9035 35.0348 33.9517 35.1628 34.0257C35.2907 34.0998 35.4028 34.1984 35.4926 34.3157C35.5825 34.4331 35.6484 34.5671 35.6865 34.7099C35.7246 34.8527 35.7341 35.0017 35.7147 35.1482C35.6952 35.2948 35.6471 35.4361 35.573 35.564C35.0347 36.4922 34.157 37.1752 33.125 37.469V39.5C33.125 39.7984 33.0065 40.0845 32.7955 40.2955C32.5845 40.5065 32.2984 40.625 32 40.625C31.7016 40.625 31.4155 40.5065 31.2045 40.2955C30.9935 40.0845 30.875 39.7984 30.875 39.5V37.469C29.843 37.1752 28.9653 36.4922 28.427 35.564C28.353 35.4361 28.3049 35.2948 28.2855 35.1483C28.2661 35.0018 28.2758 34.8529 28.3139 34.7101C28.3521 34.5673 28.418 34.4334 28.508 34.3162C28.5979 34.1989 28.71 34.0989 28.838 34.025Z" fill="white"/>
<defs>
<linearGradient id="paint0_linear_161_4592" x1="64" y1="7.62939e-06" x2="7.62939e-06" y2="64" gradientUnits="userSpaceOnUse">
<stop stop-color="#F65A75"/>
<stop offset="1" stop-color="#48179C"/>
</linearGradient>
</defs>
</svg>
