<svg width="64" height="64" viewBox="0 0 64 64" fill="none" xmlns="http://www.w3.org/2000/svg">
<rect width="64" height="64" rx="32" fill="url(#paint0_linear_164_4759)"/>
<path d="M47.3656 16.747H44.6343V16.1315C44.6343 14.9569 43.6774 14 42.5028 14C41.3282 14 40.3714 14.9569 40.3714 16.1315V16.747H34.1322V16.1315C34.1322 14.9569 33.1753 14 32.0007 14C30.8261 14 29.8692 14.9569 29.8692 16.1315V16.747H23.6284V16.1315C23.6284 14.9569 22.6716 14 21.497 14C20.3224 14 19.3655 14.9569 19.3655 16.1315V16.747H16.6342C15.1824 16.747 14 17.9294 14 19.3812L14.0016 47.3661C14.0016 48.8179 15.184 50.0003 16.6358 50.0003H47.3658C48.8176 50.0003 50 48.8179 50 47.3661V19.3812C50 17.9294 48.819 16.747 47.3656 16.747ZM41.2499 16.1331C41.2499 15.4424 41.8121 14.8802 42.5028 14.8802C43.1935 14.8802 43.7557 15.4424 43.7557 16.1331V19.3185C43.7557 20.0092 43.1935 20.5714 42.5028 20.5714C41.8121 20.5714 41.2499 20.0092 41.2499 19.3185V16.1331ZM30.7477 16.1331C30.7477 15.4424 31.3099 14.8802 32.0006 14.8802C32.6913 14.8802 33.2535 15.4424 33.2535 16.1331V19.3185C33.2535 20.0092 32.6913 20.5714 32.0006 20.5714C31.3099 20.5714 30.7477 20.0092 30.7477 19.3185V16.1331ZM20.2439 16.1331C20.2439 15.4424 20.8061 14.8802 21.4968 14.8802C22.1874 14.8802 22.7497 15.4424 22.7497 16.1331V19.3185C22.7497 20.0092 22.1874 20.5714 21.4968 20.5714C20.8061 20.5714 20.2439 20.0092 20.2439 19.3185V16.1331ZM16.6356 17.6256H19.3669V19.3186C19.3669 20.4932 20.3237 21.4501 21.4983 21.4501C22.6729 21.4501 23.6298 20.4932 23.6298 19.3186L23.6282 17.6256H29.869V19.3186C29.869 20.4932 30.8259 21.4501 32.0005 21.4501C33.1751 21.4501 34.132 20.4932 34.132 19.3186V17.6256H40.3728V19.3186C40.3728 20.4932 41.3296 21.4501 42.5042 21.4501C43.6788 21.4501 44.6357 20.4932 44.6357 19.3186V17.6256H47.367C48.3349 17.6256 49.1226 18.4133 49.1226 19.3812V23.1555H14.8781V19.3812C14.8781 18.4133 15.6661 17.6256 16.6356 17.6256ZM14.8784 24.034H49.1213V39.9378H46.1379C44.6861 39.9378 43.5037 41.1202 43.5037 42.572V45.5555H16.6354C15.6675 45.5555 14.8797 44.7677 14.8797 43.7999L14.8784 24.034ZM48.5011 40.8147L44.3836 44.9334V42.5717C44.3836 41.6038 45.1713 40.8161 46.1392 40.8161L48.5011 40.8147ZM47.3657 49.123H16.6356C15.6678 49.123 14.88 48.3353 14.88 47.3674V45.7575C15.3467 46.1772 15.9606 46.434 16.6356 46.434H43.9454C44.0613 46.434 44.174 46.387 44.2555 46.3056L49.1231 41.438V47.3656C49.1231 48.3351 48.3351 49.123 47.3657 49.123ZM43.4723 30.3124H46.0799C46.6046 30.3124 47.0305 29.8865 47.0305 29.3618V26.7542C47.0305 26.2296 46.6046 25.8036 46.0799 25.8036H43.4723C42.9477 25.8036 42.5217 26.2296 42.5217 26.7542V29.3618C42.5202 29.8865 42.9477 30.3124 43.4723 30.3124ZM43.3987 26.7542C43.3987 26.7151 43.4316 26.6806 43.4723 26.6806H46.0799C46.1191 26.6806 46.1535 26.7135 46.1535 26.7542V29.3618C46.1535 29.401 46.1206 29.4354 46.0799 29.4354H43.4723C43.4332 29.4354 43.3987 29.4025 43.3987 29.3618V26.7542ZM37.0842 30.3124H39.6918C40.2164 30.3124 40.6424 29.8865 40.6424 29.3618V26.7542C40.6424 26.2296 40.2164 25.8036 39.6918 25.8036H37.0842C36.5595 25.8036 36.1336 26.2296 36.1336 26.7542V29.3618C36.1336 29.8865 36.5595 30.3124 37.0842 30.3124ZM37.0106 26.7542C37.0106 26.7151 37.0435 26.6806 37.0842 26.6806H39.6918C39.7309 26.6806 39.7654 26.7135 39.7654 26.7542V29.3618C39.7654 29.401 39.7325 29.4354 39.6918 29.4354H37.0842C37.045 29.4354 37.0106 29.4025 37.0106 29.3618V26.7542ZM43.4723 37.0484H46.0798C46.6045 37.0484 47.0305 36.6224 47.0305 36.0977V33.4902C47.0305 32.9655 46.6045 32.5395 46.0798 32.5395H43.4723C42.9476 32.5395 42.5216 32.9655 42.5216 33.4902V36.0977C42.5201 36.6224 42.9476 37.0484 43.4723 37.0484ZM43.3987 33.4902C43.3987 33.451 43.4316 33.4166 43.4723 33.4166H46.0798C46.119 33.4166 46.1535 33.4495 46.1535 33.4902V36.0977C46.1535 36.1369 46.1206 36.1714 46.0798 36.1714H43.4723C43.4331 36.1714 43.3987 36.1385 43.3987 36.0977V33.4902ZM17.9227 30.3125H20.5303C21.055 30.3125 21.4809 29.8865 21.4809 29.3619V26.7543C21.4809 26.2297 21.055 25.8037 20.5303 25.8037H17.9227C17.3981 25.8037 16.9721 26.2297 16.9721 26.7543V29.3619C16.9705 29.8865 17.3981 30.3125 17.9227 30.3125ZM17.8491 26.7543C17.8491 26.7152 17.882 26.6807 17.9227 26.6807H20.5303C20.5695 26.6807 20.6039 26.7136 20.6039 26.7543V29.3619C20.6039 29.401 20.571 29.4355 20.5303 29.4355H17.9227C17.8836 29.4355 17.8491 29.4026 17.8491 29.3619V26.7543ZM37.0843 37.0485H39.6918C40.2165 37.0485 40.6425 36.6225 40.6425 36.0978V33.4903C40.6425 32.9656 40.2165 32.5396 39.6918 32.5396H37.0843C36.5596 32.5396 36.1336 32.9656 36.1336 33.4903V36.0978C36.1336 36.6225 36.5596 37.0485 37.0843 37.0485ZM37.0107 33.4903C37.0107 33.4511 37.0436 33.4166 37.0843 33.4166H39.6918C39.731 33.4166 39.7655 33.4495 39.7655 33.4903V36.0978C39.7655 36.137 39.7326 36.1714 39.6918 36.1714H37.0843C37.0451 36.1714 37.0107 36.1385 37.0107 36.0978V33.4903ZM24.3094 43.7844H26.917C27.4416 43.7844 27.8676 43.3584 27.8676 42.8338V40.2262C27.8676 39.7015 27.4416 39.2756 26.917 39.2756H24.3094C23.7847 39.2756 23.3588 39.7015 23.3588 40.2262V42.8338C23.3588 43.3584 23.7847 43.7844 24.3094 43.7844ZM24.2358 40.2262C24.2358 40.187 24.2687 40.1526 24.3094 40.1526H26.917C26.9561 40.1526 26.9906 40.1855 26.9906 40.2262V42.8338C26.9906 42.8729 26.9577 42.9074 26.917 42.9074H24.3094C24.2702 42.9074 24.2358 42.8745 24.2358 42.8338V40.2262ZM17.9228 37.0485H20.5304C21.055 37.0485 21.481 36.6226 21.481 36.0979V33.4903C21.481 32.9657 21.055 32.5397 20.5304 32.5397H17.9228C17.3982 32.5397 16.9722 32.9657 16.9722 33.4903V36.0979C16.9706 36.6226 17.3982 37.0485 17.9228 37.0485ZM17.8492 33.4903C17.8492 33.4512 17.8821 33.4167 17.9228 33.4167H20.5304C20.5696 33.4167 20.604 33.4496 20.604 33.4903V36.0979C20.604 36.1371 20.5711 36.1715 20.5304 36.1715H17.9228C17.8837 36.1715 17.8492 36.1386 17.8492 36.0979V33.4903ZM17.9228 43.7845H20.5304C21.055 43.7845 21.481 43.3585 21.481 42.8338V40.2263C21.481 39.7016 21.055 39.2756 20.5304 39.2756H17.9228C17.3982 39.2756 16.9722 39.7016 16.9722 40.2263V42.8338C16.9706 43.3585 17.3982 43.7845 17.9228 43.7845ZM17.8492 40.2263C17.8492 40.1871 17.8821 40.1527 17.9228 40.1527H20.5304C20.5696 40.1527 20.604 40.1855 20.604 40.2263V42.8338C20.604 42.873 20.5711 42.9074 20.5304 42.9074H17.9228C17.8837 42.9074 17.8492 42.8746 17.8492 42.8338V40.2263ZM24.3093 30.3126H26.9169C27.4415 30.3126 27.8675 29.8866 27.8675 29.362V26.7544C27.8675 26.2298 27.4415 25.8038 26.9169 25.8038H24.3093C23.7847 25.8038 23.3587 26.2298 23.3587 26.7544V29.362C23.3587 29.8866 23.7847 30.3126 24.3093 30.3126ZM24.2357 26.7544C24.2357 26.7153 24.2686 26.6808 24.3093 26.6808H26.9169C26.956 26.6808 26.9905 26.7137 26.9905 26.7544V29.362C26.9905 29.4011 26.9576 29.4356 26.9169 29.4356H24.3093C24.2702 29.4356 24.2357 29.4027 24.2357 29.362V26.7544ZM24.3093 37.0485H26.9169C27.4415 37.0485 27.8675 36.6226 27.8675 36.0979V33.4903C27.8675 32.9657 27.4415 32.5397 26.9169 32.5397H24.3093C23.7847 32.5397 23.3587 32.9657 23.3587 33.4903V36.0979C23.3587 36.6226 23.7847 37.0485 24.3093 37.0485ZM24.2357 33.4903C24.2357 33.4512 24.2686 33.4167 24.3093 33.4167H26.9169C26.956 33.4167 26.9905 33.4496 26.9905 33.4903V36.0979C26.9905 36.1371 26.9576 36.1715 26.9169 36.1715H24.3093C24.2702 36.1715 24.2357 36.1386 24.2357 36.0979V33.4903ZM37.0841 43.7845H39.6917C40.2164 43.7845 40.6423 43.3585 40.6423 42.8338V40.2263C40.6423 39.7016 40.2164 39.2756 39.6917 39.2756H37.0841C36.5595 39.2756 36.1335 39.7016 36.1335 40.2263V42.8338C36.1335 43.3585 36.5595 43.7845 37.0841 43.7845ZM37.0105 40.2263C37.0105 40.1871 37.0434 40.1527 37.0841 40.1527H39.6917C39.7309 40.1527 39.7653 40.1855 39.7653 40.2263V42.8338C39.7653 42.873 39.7324 42.9074 39.6917 42.9074H37.0841C37.045 42.9074 37.0105 42.8746 37.0105 42.8338V40.2263ZM30.6976 30.3126H33.3051C33.8298 30.3126 34.2558 29.8866 34.2558 29.362V26.7544C34.2558 26.2298 33.8298 25.8038 33.3051 25.8038H30.6976C30.1729 25.8038 29.7469 26.2298 29.7469 26.7544V29.362C29.7454 29.8866 30.1729 30.3126 30.6976 30.3126ZM30.624 26.7544C30.624 26.7153 30.6569 26.6808 30.6976 26.6808H33.3051C33.3443 26.6808 33.3788 26.7137 33.3788 26.7544V29.362C33.3788 29.4011 33.3459 29.4356 33.3051 29.4356H30.6976C30.6584 29.4356 30.624 29.4027 30.624 29.362V26.7544ZM30.6976 43.7845H33.3051C33.8298 43.7845 34.2558 43.3585 34.2558 42.8338V40.2263C34.2558 39.7016 33.8298 39.2756 33.3051 39.2756H30.6976C30.1729 39.2756 29.7469 39.7016 29.7469 40.2263V42.8338C29.7454 43.3585 30.1729 43.7845 30.6976 43.7845ZM30.624 40.2263C30.624 40.1871 30.6569 40.1527 30.6976 40.1527H33.3051C33.3443 40.1527 33.3788 40.1855 33.3788 40.2263V42.8338C33.3788 42.873 33.3459 42.9074 33.3051 42.9074H30.6976C30.6584 42.9074 30.624 42.8746 30.624 42.8338V40.2263ZM30.6976 37.0486H33.3051C33.8298 37.0486 34.2558 36.6226 34.2558 36.098V33.4904C34.2558 32.9658 33.8298 32.5398 33.3051 32.5398H30.6976C30.1729 32.5398 29.7469 32.9658 29.7469 33.4904V36.098C29.7454 36.6226 30.1729 37.0486 30.6976 37.0486ZM30.624 33.4904C30.624 33.4513 30.6569 33.4168 30.6976 33.4168H33.3051C33.3443 33.4168 33.3788 33.4497 33.3788 33.4904V36.098C33.3788 36.1371 33.3459 36.1716 33.3051 36.1716H30.6976C30.6584 36.1716 30.624 36.1387 30.624 36.098V33.4904Z" fill="white"/>
<defs>
<linearGradient id="paint0_linear_164_4759" x1="64" y1="7.62939e-06" x2="7.62939e-06" y2="64" gradientUnits="userSpaceOnUse">
<stop stop-color="#F65A75"/>
<stop offset="1" stop-color="#48179C"/>
</linearGradient>
</defs>
</svg>
