<svg width="64" height="64" viewBox="0 0 64 64" fill="none" xmlns="http://www.w3.org/2000/svg">
<rect width="64" height="64" rx="32" fill="url(#paint0_linear_164_4761)"/>
<path d="M49.869 41.6783C49.7138 41.4368 49.4551 41.2931 49.1677 41.2931H48.5985V21.7184C48.5985 20.3559 47.4948 19.2521 46.1323 19.2521H44.2697C44.0397 19.2521 43.85 19.4419 43.85 19.6718C43.85 19.9018 44.0397 20.0915 44.2697 20.0915H46.1323C47.0291 20.0915 47.765 20.8216 47.765 21.7241V41.2988H16.2442V21.7184C16.2442 20.8216 16.9743 20.0857 17.8769 20.0857H22.6484C22.8784 20.0857 23.0681 19.896 23.0681 19.6661C23.0681 19.4361 22.8784 19.2464 22.6484 19.2464H17.8769C16.5144 19.2464 15.4107 20.3502 15.4107 21.7126V41.2873H14.8358C14.5483 41.2873 14.2896 41.4311 14.1344 41.6725C13.9792 41.914 13.9562 42.2072 14.0769 42.4716L16.2902 47.3523C16.5892 48.0135 17.2503 48.4331 17.9689 48.4331H46.0288C46.7532 48.4331 47.4085 48.0077 47.7075 47.3523L49.9208 42.4716C50.0415 42.2129 50.0243 41.9197 49.869 41.6783ZM29.0526 42.1324H34.9509V43.2592C34.9509 43.5294 34.7324 43.7478 34.4622 43.7478H29.5412C29.271 43.7478 29.0526 43.5294 29.0526 43.2592V42.1324ZM46.9486 47.0074C46.7877 47.3696 46.4255 47.5995 46.0288 47.5995H17.9689C17.5722 47.5995 17.2158 47.3638 17.0491 47.0074L14.8358 42.1267H15.8246C15.8246 42.1267 15.8246 42.1267 15.8303 42.1267H28.219V43.2534C28.219 43.9835 28.8111 44.5814 29.547 44.5814H34.468C35.1981 44.5814 35.7959 43.9893 35.7959 43.2534V42.1267H48.1846C48.1904 42.1267 48.1961 42.1209 48.2019 42.1209H49.1734L46.9486 47.0074Z" fill="white"/>
<path d="M19.3658 23.0464H21.5446C21.7746 23.0464 21.9643 22.8566 21.9643 22.6267C21.9643 22.3967 21.7746 22.207 21.5446 22.207H19.3658C18.7967 22.207 18.3368 22.6669 18.3368 23.2361V38.137C18.3368 38.7061 18.7967 39.166 19.3658 39.166H44.6434C45.2125 39.166 45.6724 38.7061 45.6724 38.137V23.2418C45.6724 22.6727 45.2125 22.2128 44.6434 22.2128H43.0797C42.8497 22.2128 42.66 22.4025 42.66 22.6324C42.66 22.8624 42.8497 23.0521 43.0797 23.0521H44.6434C44.7526 23.0521 44.8388 23.1383 44.8388 23.2476V38.1485C44.8388 38.2577 44.7526 38.3439 44.6434 38.3439H19.3658C19.2566 38.3439 19.1704 38.2577 19.1704 38.1485V23.2418C19.1704 23.1326 19.2566 23.0464 19.3658 23.0464Z" fill="white"/>
<path d="M32.0017 35.7512C37.2504 35.7512 41.516 31.4856 41.516 26.2427C41.516 24.7652 41.1883 23.351 40.5387 22.0345C40.4352 21.8276 40.188 21.7414 39.9811 21.8448C39.7741 21.9483 39.6879 22.1955 39.7914 22.4025C40.3835 23.5982 40.6824 24.8917 40.6824 26.2369C40.6824 31.0199 36.7905 34.9119 32.0017 34.9119C27.213 34.9119 23.321 31.0199 23.321 26.2369C23.321 21.4482 27.213 17.5562 32.0017 17.5562C33.3297 17.5562 34.6002 17.8494 35.7844 18.4185C35.9914 18.522 36.2443 18.43 36.3421 18.2231C36.4455 18.0161 36.3536 17.7632 36.1466 17.6654C34.8474 17.0446 33.4562 16.7284 32.0017 16.7284C26.7531 16.7284 22.4874 20.9998 22.4874 26.2427C22.4817 31.4856 26.7531 35.7512 32.0017 35.7512Z" fill="white"/>
<path d="M35.7384 21.4425C35.8707 21.2528 35.8189 20.9941 35.6292 20.8618C34.5542 20.1375 33.301 19.7523 32.0017 19.7523C28.426 19.7523 25.5171 22.6612 25.5171 26.237C25.5171 29.8127 28.426 32.7159 32.0017 32.7159C35.5775 32.7159 38.4864 29.807 38.4864 26.237C38.4864 25.0125 38.1415 23.8167 37.4918 22.7819C37.3711 22.5865 37.1124 22.529 36.917 22.6497C36.7215 22.7704 36.664 23.0291 36.7847 23.2246C37.3539 24.1272 37.6528 25.1677 37.6528 26.237C37.6528 29.3471 35.1176 31.8823 32.0017 31.8823C28.8859 31.8823 26.3506 29.3471 26.3506 26.237C26.3506 23.1211 28.8859 20.5859 32.0017 20.5859C33.1342 20.5859 34.2265 20.9193 35.1636 21.5517C35.3533 21.6839 35.612 21.6379 35.7384 21.4425Z" fill="white"/>
<path d="M32.0017 23.9604C32.2029 23.9604 32.4041 23.9892 32.5938 24.0351C32.8238 24.0984 33.048 23.9604 33.1055 23.742C33.163 23.5178 33.0308 23.2878 32.8123 23.2303C32.5479 23.1613 32.2777 23.1268 32.0017 23.1268C30.2828 23.1268 28.8859 24.5238 28.8859 26.2427C28.8859 27.9616 30.2828 29.3585 32.0017 29.3585C33.7206 29.3585 35.1176 27.9616 35.1176 26.2427C35.1176 25.9495 35.0773 25.6621 34.9969 25.3861C34.9336 25.1677 34.7094 25.0354 34.4795 25.0987C34.2553 25.1619 34.1288 25.3919 34.192 25.6161C34.2495 25.8173 34.2782 26.03 34.2782 26.2427C34.2782 27.5017 33.255 28.525 31.996 28.525C30.737 28.525 29.7137 27.5017 29.7137 26.2427C29.7194 24.9837 30.7427 23.9604 32.0017 23.9604Z" fill="white"/>
<path d="M31.7085 25.938C31.5418 26.099 31.5361 26.3635 31.6971 26.5302C31.7775 26.6164 31.8868 26.6566 31.996 26.6566C32.0995 26.6566 32.2029 26.6164 32.2892 26.5417L37.8828 21.1378L40.3433 21.3217C40.3605 21.3217 40.3778 21.3217 40.395 21.3217C40.5847 21.3217 40.7629 21.247 40.8951 21.1148L43.051 18.9302C43.2464 18.7348 43.3039 18.4473 43.2119 18.1886C43.1142 17.9299 42.8842 17.7575 42.6083 17.7345L40.7974 17.5965L40.6307 15.6477C40.6077 15.3717 40.4295 15.1418 40.1708 15.044C39.9121 14.9463 39.6247 15.0153 39.4292 15.2108L37.2734 17.3953C37.1297 17.539 37.0549 17.746 37.0722 17.9472L37.2906 20.5342L31.7085 25.938ZM39.8259 16.0098L39.9983 18.0277C40.0156 18.2346 40.1765 18.3956 40.3835 18.4071L42.2576 18.5451L40.3433 20.4824L38.1127 20.3157L37.9115 17.9414L39.8259 16.0098Z" fill="white"/>
<defs>
<linearGradient id="paint0_linear_164_4761" x1="64" y1="7.62939e-06" x2="7.62939e-06" y2="64" gradientUnits="userSpaceOnUse">
<stop stop-color="#F65A75"/>
<stop offset="1" stop-color="#48179C"/>
</linearGradient>
</defs>
</svg>
