<svg width="64" height="64" viewBox="0 0 64 64" fill="none" xmlns="http://www.w3.org/2000/svg">
<rect width="64" height="64" rx="32" fill="url(#paint0_linear_189_27139)"/>
<path d="M18.596 25.265C19.8446 22.7803 21.7592 20.6916 24.1262 19.2321C26.4932 17.7726 29.2192 16.9998 32 17C36.0425 17 39.4385 18.4865 42.035 20.9075L37.7345 25.2095C36.179 23.723 34.202 22.9655 32 22.9655C28.0925 22.9655 24.785 25.6055 23.6075 29.15C23.3075 30.05 23.1365 31.01 23.1365 32C23.1365 32.99 23.3075 33.95 23.6075 34.85C24.7865 38.396 28.0925 41.0345 32 41.0345C34.0175 41.0345 35.735 40.502 37.079 39.602C37.8582 39.089 38.5252 38.4233 39.0398 37.6452C39.5544 36.8671 39.9059 35.9928 40.073 35.075H32V29.273H46.127C46.304 30.254 46.4 31.277 46.4 32.3405C46.4 36.9095 44.765 40.7555 41.927 43.3655C39.446 45.6575 36.05 47 32 47C30.03 47.0008 28.0791 46.6133 26.2588 45.8598C24.4386 45.1063 22.7847 44.0014 21.3916 42.6084C19.9986 41.2153 18.8937 39.5614 18.1402 37.7412C17.3867 35.9209 16.9992 33.97 17 32C17 29.579 17.579 27.29 18.596 25.265Z" fill="white"/>
<defs>
<linearGradient id="paint0_linear_189_27139" x1="64" y1="7.62939e-06" x2="7.62939e-06" y2="64" gradientUnits="userSpaceOnUse">
<stop stop-color="#F65A75"/>
<stop offset="1" stop-color="#48179C"/>
</linearGradient>
</defs>
</svg>
