<svg width="64" height="64" viewBox="0 0 64 64" fill="none" xmlns="http://www.w3.org/2000/svg">
<rect width="64" height="64" rx="32" fill="url(#paint0_linear_189_27129)"/>
<path d="M25.7 17H38.3C43.1 17 47 20.9 47 25.7V38.3C47 40.6074 46.0834 42.8203 44.4518 44.4518C42.8203 46.0834 40.6074 47 38.3 47H25.7C20.9 47 17 43.1 17 38.3V25.7C17 23.3926 17.9166 21.1797 19.5482 19.5482C21.1797 17.9166 23.3926 17 25.7 17ZM25.4 20C23.9678 20 22.5943 20.5689 21.5816 21.5816C20.5689 22.5943 20 23.9678 20 25.4V38.6C20 41.585 22.415 44 25.4 44H38.6C40.0322 44 41.4057 43.4311 42.4184 42.4184C43.4311 41.4057 44 40.0322 44 38.6V25.4C44 22.415 41.585 20 38.6 20H25.4ZM39.875 22.25C40.3723 22.25 40.8492 22.4475 41.2008 22.7992C41.5525 23.1508 41.75 23.6277 41.75 24.125C41.75 24.6223 41.5525 25.0992 41.2008 25.4508C40.8492 25.8025 40.3723 26 39.875 26C39.3777 26 38.9008 25.8025 38.5492 25.4508C38.1975 25.0992 38 24.6223 38 24.125C38 23.6277 38.1975 23.1508 38.5492 22.7992C38.9008 22.4475 39.3777 22.25 39.875 22.25ZM32 24.5C33.9891 24.5 35.8968 25.2902 37.3033 26.6967C38.7098 28.1032 39.5 30.0109 39.5 32C39.5 33.9891 38.7098 35.8968 37.3033 37.3033C35.8968 38.7098 33.9891 39.5 32 39.5C30.0109 39.5 28.1032 38.7098 26.6967 37.3033C25.2902 35.8968 24.5 33.9891 24.5 32C24.5 30.0109 25.2902 28.1032 26.6967 26.6967C28.1032 25.2902 30.0109 24.5 32 24.5ZM32 27.5C30.8065 27.5 29.6619 27.9741 28.818 28.818C27.9741 29.6619 27.5 30.8065 27.5 32C27.5 33.1935 27.9741 34.3381 28.818 35.182C29.6619 36.0259 30.8065 36.5 32 36.5C33.1935 36.5 34.3381 36.0259 35.182 35.182C36.0259 34.3381 36.5 33.1935 36.5 32C36.5 30.8065 36.0259 29.6619 35.182 28.818C34.3381 27.9741 33.1935 27.5 32 27.5Z" fill="white"/>
<defs>
<linearGradient id="paint0_linear_189_27129" x1="64" y1="7.62939e-06" x2="7.62939e-06" y2="64" gradientUnits="userSpaceOnUse">
<stop stop-color="#F65A75"/>
<stop offset="1" stop-color="#48179C"/>
</linearGradient>
</defs>
</svg>
