<svg width="64" height="64" viewBox="0 0 64 64" fill="none" xmlns="http://www.w3.org/2000/svg">
<rect width="64" height="64" rx="32" fill="url(#paint0_linear_189_27144)"/>
<path d="M42.5 18.5C43.2956 18.5 44.0587 18.8161 44.6213 19.3787C45.1839 19.9413 45.5 20.7044 45.5 21.5V42.5C45.5 43.2956 45.1839 44.0587 44.6213 44.6213C44.0587 45.1839 43.2956 45.5 42.5 45.5H21.5C20.7044 45.5 19.9413 45.1839 19.3787 44.6213C18.8161 44.0587 18.5 43.2956 18.5 42.5V21.5C18.5 20.7044 18.8161 19.9413 19.3787 19.3787C19.9413 18.8161 20.7044 18.5 21.5 18.5H42.5ZM41.75 41.75V33.8C41.75 32.5031 41.2348 31.2593 40.3178 30.3422C39.4007 29.4252 38.1569 28.91 36.86 28.91C35.585 28.91 34.1 29.69 33.38 30.86V29.195H29.195V41.75H33.38V34.355C33.38 33.2 34.31 32.255 35.465 32.255C36.022 32.255 36.5561 32.4762 36.9499 32.8701C37.3438 33.2639 37.565 33.798 37.565 34.355V41.75H41.75ZM24.32 26.84C24.9883 26.84 25.6293 26.5745 26.1019 26.1019C26.5745 25.6293 26.84 24.9883 26.84 24.32C26.84 22.925 25.715 21.785 24.32 21.785C23.6477 21.785 23.0029 22.0521 22.5275 22.5275C22.0521 23.0029 21.785 23.6477 21.785 24.32C21.785 25.715 22.925 26.84 24.32 26.84ZM26.405 41.75V29.195H22.25V41.75H26.405Z" fill="white"/>
<defs>
<linearGradient id="paint0_linear_189_27144" x1="64" y1="7.62939e-06" x2="7.62939e-06" y2="64" gradientUnits="userSpaceOnUse">
<stop stop-color="#F65A75"/>
<stop offset="1" stop-color="#48179C"/>
</linearGradient>
</defs>
</svg>
