<svg width="64" height="64" viewBox="0 0 64 64" fill="none" xmlns="http://www.w3.org/2000/svg">
<rect width="64" height="64" rx="32" fill="url(#paint0_linear_164_4764)"/>
<path d="M49.9884 46.4422C49.9806 46.3919 49.9652 46.3454 49.9458 46.3028C49.9458 46.2951 49.9381 46.2873 49.9342 46.2796C49.9148 46.2409 49.8916 46.206 49.8645 46.1712C49.8606 46.1673 49.8568 46.1596 49.8529 46.1557L46.1286 41.9553V25.0257C46.1286 23.8372 45.1608 22.8693 43.9723 22.8693H38.1652C38.4246 22.1647 38.5717 21.406 38.5717 20.6085C38.5717 16.9655 35.6062 14 31.9632 14C28.3202 14 25.3548 16.9655 25.3548 20.6085C25.3548 21.4021 25.5019 22.1609 25.7613 22.8693H20.0239C18.8354 22.8693 17.8675 23.8372 17.8675 25.0257V41.9553L14.1432 46.1557C14.1432 46.1557 14.1355 46.1673 14.1316 46.1712C14.1045 46.206 14.0813 46.2409 14.0619 46.2796C14.0619 46.2873 14.0542 46.2951 14.0503 46.3028C14.031 46.3454 14.0155 46.3919 14.0077 46.4422C14.0077 46.4538 14.0077 46.4654 14.0077 46.477C14.0077 46.4964 14 46.5196 14 46.539V47.4836C14 48.8734 15.1304 50 16.5164 50H47.4836C48.8734 50 50 48.8696 50 47.4836V46.539C50 46.5158 49.9961 46.4964 49.9923 46.477C49.9923 46.4654 49.9923 46.4538 49.9923 46.4422H49.9884ZM48.8386 47.4875C48.8386 48.2346 48.2308 48.8425 47.4836 48.8425H16.5125C15.7654 48.8425 15.1575 48.2346 15.1575 47.4875V47.1236H48.8386V47.4875ZM19.0289 25.0257C19.0289 24.476 19.4741 24.0308 20.0239 24.0308H26.3187C26.6439 24.5689 27.0466 25.0528 27.5073 25.4787H21.0188C20.6975 25.4787 20.4381 25.738 20.4381 26.0594V39.5705C20.4381 39.8918 20.6975 40.1512 21.0188 40.1512H42.9734C43.2948 40.1512 43.5541 39.8918 43.5541 39.5705V26.0594C43.5541 25.738 43.2948 25.4787 42.9734 25.4787H36.4153C36.876 25.0567 37.2786 24.5689 37.6038 24.0308H43.9684C44.5181 24.0308 44.9633 24.476 44.9633 25.0257V41.5952H19.0289V25.0257ZM26.5162 20.6085C26.5162 17.6043 28.959 15.1614 31.9632 15.1614C34.9674 15.1614 37.4103 17.6043 37.4103 20.6085C37.4103 23.6126 34.9674 26.0555 31.9632 26.0555C28.959 26.0555 26.5162 23.6126 26.5162 20.6085ZM31.9632 27.2169C32.9233 27.2169 33.8331 27.0078 34.6577 26.6362H42.3966V38.9859H21.5995V26.6362H29.2687C30.0933 27.004 31.0031 27.2169 31.9632 27.2169ZM18.7076 42.7566H45.2885L48.1301 45.9621H15.866L18.7076 42.7566Z" fill="white"/>
<path d="M27.2324 34.2744C27.6118 34.5958 28.0647 34.7777 28.5448 34.828L29.563 37.6193C29.6481 37.8516 29.8649 38.0026 30.1088 38.0026C30.1243 38.0026 30.1398 38.0026 30.1592 38.0026L32.0174 37.8439C32.1955 37.8284 32.3581 37.7316 32.4549 37.5806C32.5517 37.4296 32.5749 37.2438 32.5168 37.0734L31.8084 35.0603L35.1145 36.2334C35.1765 36.2566 35.2423 36.2682 35.3081 36.2682C35.4359 36.2682 35.5597 36.2256 35.6604 36.1482C35.8153 36.0282 35.9004 35.8385 35.8849 35.641L35.7533 34.0189C35.8966 33.9686 36.0437 33.9067 36.1792 33.8254C36.7289 33.5002 37.1199 32.9853 37.2786 32.3697C37.4335 31.7735 37.3445 31.1502 37.0309 30.6237C36.667 30.012 36.0553 29.6288 35.3933 29.5242L35.2616 27.9176C35.2462 27.7202 35.13 27.546 34.9558 27.4531C34.7816 27.3601 34.5725 27.3601 34.3983 27.4569L30.3721 29.7062L28.599 29.8572C27.2518 29.9733 26.2452 31.1812 26.3575 32.5555C26.4117 33.2292 26.7252 33.8408 27.2363 34.2744H27.2324ZM28.6958 31.0186L30.0159 30.9063L30.2327 33.5737L28.9087 33.686C28.5758 33.7131 28.2428 33.6086 27.9834 33.3879C27.7086 33.1556 27.5421 32.8265 27.515 32.4626C27.4569 31.7271 27.9873 31.0767 28.6997 31.0147L28.6958 31.0186ZM36.0321 31.2199C36.1869 31.4793 36.2295 31.7851 36.1521 32.0832C36.0785 32.3697 35.9004 32.6136 35.6527 32.7801L35.4901 30.7631C35.7069 30.856 35.9043 31.007 36.0321 31.2199ZM34.6577 34.8397L31.4057 33.686L31.2702 32.0019L31.158 30.6044L34.1777 28.9164L34.6577 34.8397ZM30.5037 36.8063L29.7643 34.7816L30.4573 34.7235L31.1696 36.7521L30.5037 36.8102V36.8063Z" fill="white"/>
<path d="M31.3825 24.3908V24.4837C31.3825 24.805 31.6419 25.0644 31.9632 25.0644C32.2846 25.0644 32.5439 24.805 32.5439 24.4837V24.3908C33.4886 24.1353 34.1854 23.272 34.1854 22.2499C34.1854 21.0266 33.1905 20.0278 31.9632 20.0278C31.3786 20.0278 30.9025 19.5516 30.9025 18.967C30.9025 18.3824 31.3786 17.9062 31.9632 17.9062C32.5478 17.9062 33.024 18.3824 33.024 18.967C33.024 19.2883 33.2834 19.5477 33.6047 19.5477C33.926 19.5477 34.1854 19.2883 34.1854 18.967C34.1854 17.945 33.4886 17.0816 32.5439 16.8261V16.7371C32.5439 16.4158 32.2846 16.1564 31.9632 16.1564C31.6419 16.1564 31.3825 16.4158 31.3825 16.7371V16.8261C30.4379 17.0816 29.7411 17.945 29.7411 18.967C29.7411 20.1904 30.736 21.1892 31.9632 21.1892C32.5478 21.1892 33.024 21.6654 33.024 22.2499C33.024 22.8345 32.5517 23.3068 31.9671 23.3107C31.3825 23.3107 30.9102 22.8345 30.9102 22.2499C30.9102 21.9286 30.6508 21.6692 30.3295 21.6692C30.0082 21.6692 29.7488 21.9286 29.7488 22.2499C29.7488 23.272 30.4456 24.1353 31.3903 24.3908H31.3825Z" fill="white"/>
<defs>
<linearGradient id="paint0_linear_164_4764" x1="64" y1="7.62939e-06" x2="7.62939e-06" y2="64" gradientUnits="userSpaceOnUse">
<stop stop-color="#F65A75"/>
<stop offset="1" stop-color="#48179C"/>
</linearGradient>
</defs>
</svg>
