<svg width="64" height="64" viewBox="0 0 64 64" fill="none" xmlns="http://www.w3.org/2000/svg">
<rect width="64" height="64" rx="32" fill="url(#paint0_linear_189_27177)"/>
<path d="M35.7027 18.0432L33.8606 17.5493L32.8211 15.947C32.7396 15.8216 32.6001 15.7463 32.4511 15.7463H32.4495C32.3006 15.7463 32.1611 15.8216 32.0795 15.9486L31.0495 17.5509L29.2089 18.0432C29.0646 18.0824 28.9502 18.1906 28.9032 18.3317C28.8577 18.4743 28.8859 18.6296 28.98 18.7456L30.1778 20.2209L30.0743 22.1258C30.0665 22.2747 30.1339 22.419 30.2546 22.5068C30.3315 22.5616 30.4208 22.5914 30.5133 22.5914C30.5666 22.5914 30.6215 22.582 30.6717 22.5616L32.448 21.8718L34.2243 22.5616C34.3639 22.6165 34.5207 22.5961 34.6414 22.5083C34.7621 22.4205 34.8311 22.2779 34.8233 22.1289L34.7276 20.224L35.927 18.7471C36.0195 18.6327 36.0509 18.4759 36.0038 18.3332C35.9615 18.1906 35.847 18.0808 35.7027 18.0432ZM33.9405 19.7976C33.8715 19.8822 33.837 19.9888 33.8433 20.097L33.9139 21.4924L32.6126 20.986C32.5608 20.9656 32.5075 20.9562 32.4542 20.9562C32.4009 20.9562 32.346 20.9656 32.2943 20.986L30.9961 21.4908L31.0714 20.0986C31.0777 19.9904 31.0432 19.8807 30.9742 19.796L30.0978 18.7173L31.4461 18.3567C31.5527 18.3285 31.6421 18.2611 31.7017 18.1686L32.4573 16.9959L33.2177 18.1702C33.2757 18.2611 33.3682 18.3285 33.4733 18.3567L34.8216 18.7173L33.9405 19.7976ZM43.8176 44.6819C43.0839 42.8319 40.5315 41.1794 36.0147 39.6368C35.6761 39.4706 35.4895 39.052 35.455 38.392C37.2706 36.5419 37.8914 33.8718 37.5324 29.5307C37.2972 26.4124 34.7338 24.9917 32.4528 24.9917C30.1669 24.9917 27.6068 26.4122 27.3808 29.5259C27.0124 33.8654 27.6332 36.5341 29.4566 38.392C29.4221 39.052 29.2324 39.4706 28.8922 39.6368C24.3817 41.1811 21.8274 42.8336 21.0861 44.6835C20.655 45.5066 20.3775 46.4693 20.2615 47.5417C20.2599 47.5573 20.2583 47.573 20.2583 47.5887C20.2583 48.9182 21.3432 50 22.6774 50H42.2329C43.5624 50 44.6442 48.9182 44.6442 47.5887C44.6442 47.573 44.6442 47.5573 44.6411 47.5417C44.5251 46.4489 44.2472 45.4862 43.8176 44.6819ZM42.2325 49.119H22.6787C21.8383 49.119 21.1516 48.4448 21.1406 47.6107C21.2472 46.6497 21.4934 45.7968 21.8759 45.0725C21.8838 45.0583 21.89 45.0427 21.8963 45.027C22.5187 43.4419 24.9755 41.9071 29.1975 40.4615C29.21 40.4568 29.2241 40.4521 29.2367 40.4458C29.961 40.1182 30.3326 39.3687 30.342 38.2164C30.3435 38.0957 30.2949 37.9797 30.2071 37.895C28.4872 36.2363 27.904 33.7546 28.2583 29.5933C28.4449 27.0221 30.4972 25.8728 32.4505 25.8728C34.4025 25.8728 36.4563 27.0236 36.6524 29.5979C36.9973 33.7605 36.4141 36.2425 34.7036 37.8949C34.6158 37.9795 34.5672 38.094 34.5672 38.2163C34.5782 39.3655 34.945 40.1149 35.6615 40.4457C35.6756 40.452 35.6897 40.4567 35.7039 40.4614C39.937 41.9069 42.3921 43.4418 43.005 45.0253C43.0128 45.0425 43.0191 45.0598 43.0285 45.077C43.4079 45.7794 43.6541 46.6323 43.7607 47.6106C43.7497 48.4447 43.0677 49.1188 42.2321 49.1188L42.2325 49.119ZM39.2082 43.1395C38.7645 43.1395 38.3553 43.2837 38.0433 43.5424C37.7298 43.2853 37.3206 43.1395 36.8769 43.1395C36.2435 43.1395 35.6305 43.4296 35.2417 43.9171C34.8246 44.4377 34.6867 45.1432 34.8576 45.9067C35.1163 47.0481 36.2043 48.1737 37.8474 48.9953C37.9085 49.0266 37.9759 49.0423 38.0434 49.0423C38.1092 49.0423 38.1782 49.0266 38.2393 48.9953C39.8808 48.1737 40.972 47.048 41.2292 45.9067C41.3985 45.1447 41.2621 44.4376 40.8435 43.9187C40.4546 43.4295 39.8416 43.1395 39.2082 43.1395ZM40.3699 45.7123C40.1802 46.5542 39.3368 47.4181 38.0433 48.1048C36.7483 47.4181 35.9064 46.5542 35.7167 45.7154C35.6053 45.2122 35.6775 44.781 35.9283 44.469C36.1525 44.1899 36.5068 44.0222 36.8768 44.0222C37.2233 44.0222 37.5087 44.1727 37.6623 44.4329C37.7407 44.5678 37.8865 44.6524 38.0433 44.6524C38.2001 44.6524 38.3459 44.5678 38.4227 44.4329C38.5763 44.1727 38.8617 44.0222 39.2082 44.0222C39.5782 44.0222 39.9325 44.1899 40.1567 44.469C40.4075 44.781 40.4797 45.2106 40.3699 45.7123ZM45.517 14H19.394C18.0739 14 17 15.0771 17 16.4019V21.9314C17 23.2563 18.074 24.3334 19.394 24.3334H39.727V26.3464C39.727 26.5346 39.8461 26.7007 40.0217 26.7619C40.0703 26.7792 40.1189 26.787 40.1675 26.787C40.2992 26.787 40.4262 26.729 40.5109 26.6224L42.3405 24.3334H45.5154C46.8339 24.3334 47.9094 23.2563 47.9094 21.9315L47.911 16.4035C47.911 15.0787 46.8355 14 45.517 14ZM47.0299 21.9333C47.0299 22.7721 46.3511 23.4541 45.517 23.4541H42.1305C41.9957 23.4541 41.8703 23.5152 41.7872 23.6187L40.6097 25.0909V23.8946C40.6097 23.6516 40.4122 23.4541 40.1676 23.4541H19.394C18.5599 23.4541 17.881 22.7721 17.881 21.9333V16.4037C17.881 15.565 18.5583 14.8829 19.394 14.8829H45.5169C46.3494 14.8829 47.0299 15.5649 47.0299 16.4037L47.0299 21.9333ZM27.0859 18.0435L25.2453 17.5512L24.2059 15.9489C24.1243 15.8235 23.9848 15.7482 23.8359 15.7482H23.8343C23.6854 15.7482 23.5458 15.8251 23.4643 15.9505L22.4342 17.5528L20.5936 18.0451C20.451 18.0843 20.335 18.1925 20.2879 18.3336C20.2424 18.4763 20.2691 18.6315 20.3647 18.7475L21.561 20.2228L21.4575 22.1277C21.4497 22.2766 21.5171 22.4209 21.6378 22.5087C21.7601 22.5965 21.9169 22.6169 22.0564 22.562L23.8328 21.8721L25.6091 22.562C25.6609 22.5824 25.7142 22.5918 25.769 22.5918C25.86 22.5918 25.9509 22.5635 26.0277 22.5071C26.15 22.4193 26.2174 22.2751 26.2096 22.1261L26.1061 20.2228L27.3118 18.7475C27.4058 18.6315 27.4372 18.4747 27.3902 18.3336C27.3447 18.1909 27.2301 18.0812 27.0859 18.0435ZM25.319 19.7964C25.2485 19.881 25.214 19.9892 25.2202 20.099L25.2955 21.4912L23.9973 20.9864C23.9456 20.966 23.8907 20.9566 23.8374 20.9566C23.7841 20.9566 23.7292 20.966 23.6791 20.9864L22.3793 21.4912L22.4546 20.099C22.4609 19.9908 22.4248 19.881 22.3574 19.7964L21.481 18.7177L22.8277 18.3571C22.9343 18.3289 23.0253 18.2615 23.0864 18.169L23.8405 16.9962L24.6009 18.1705C24.6589 18.2615 24.7514 18.3289 24.8565 18.3571L26.2032 18.7161L25.319 19.7964ZM44.3178 18.0435L42.4756 17.5512L41.4362 15.9489C41.3547 15.8235 41.2151 15.7482 41.0662 15.7482H41.0646C40.9157 15.7482 40.7746 15.8235 40.6946 15.9505L39.6646 17.5528L37.824 18.0451C37.6797 18.0843 37.5637 18.1925 37.5182 18.3336C37.4728 18.4763 37.501 18.6315 37.5951 18.7475L38.7929 20.2228L38.6894 22.1277C38.6816 22.2766 38.749 22.4209 38.8697 22.5087C38.9465 22.5636 39.0359 22.5933 39.1284 22.5933C39.1817 22.5933 39.2366 22.5839 39.2883 22.5636L41.0647 21.8737L42.8488 22.5636C42.9899 22.6184 43.1451 22.5965 43.2659 22.5102C43.3866 22.4224 43.4556 22.2782 43.4462 22.1293L43.3427 20.2244L44.5405 18.749C44.6346 18.6346 44.6644 18.4778 44.6174 18.3352C44.5766 18.1909 44.4605 18.0812 44.3178 18.0435ZM42.5556 19.7979C42.4866 19.8826 42.4521 19.9908 42.4584 20.1005L42.5336 21.4943L41.2245 20.9879C41.1728 20.9676 41.1179 20.9581 41.0662 20.9581C41.0113 20.9581 40.958 20.9676 40.9078 20.9879L39.6081 21.4928L39.6834 20.1005C39.6896 19.9923 39.6551 19.8826 39.5862 19.7979L38.7097 18.7193L40.0565 18.3587C40.1631 18.3305 40.2541 18.263 40.3136 18.1705L41.0693 16.9978L41.8297 18.1721C41.8893 18.263 41.9802 18.3305 42.0868 18.3587L43.4336 18.7193L42.5556 19.7979Z" fill="white"/>
<defs>
<linearGradient id="paint0_linear_189_27177" x1="64" y1="7.62939e-06" x2="7.62939e-06" y2="64" gradientUnits="userSpaceOnUse">
<stop stop-color="#F65A75"/>
<stop offset="1" stop-color="#48179C"/>
</linearGradient>
</defs>
</svg>
