<svg width="64" height="64" viewBox="0 0 64 64" fill="none" xmlns="http://www.w3.org/2000/svg">
<rect width="64" height="64" rx="32" fill="url(#paint0_linear_189_27154)"/>
<path d="M40.2713 27.5241C40.3499 27.4455 40.4035 27.3453 40.4252 27.2362C40.4469 27.1271 40.4357 27.014 40.3932 26.9112C40.3506 26.8084 40.2785 26.7206 40.186 26.6588C40.0935 26.597 39.9848 26.564 39.8736 26.5639H38.7486V25.4389C38.7486 25.3277 38.7156 25.219 38.6537 25.1265C38.5919 25.034 38.5041 24.9619 38.4013 24.9194C38.2986 24.8768 38.1855 24.8657 38.0764 24.8874C37.9673 24.9091 37.8671 24.9626 37.7884 25.0413L36.5891 26.2405C34.8379 25.1028 32.7273 24.6539 30.6646 24.9804C28.6019 25.3068 26.7332 26.3855 25.4188 28.0084C24.1044 29.6313 23.4375 31.6833 23.5467 33.7689C23.6559 35.8544 24.5335 37.8256 26.0102 39.3023C27.4869 40.779 29.4582 41.6566 31.5437 41.7658C33.6292 41.875 35.6813 41.2081 37.3041 39.8937C38.927 38.5794 40.0057 36.7106 40.3322 34.6479C40.6586 32.5852 40.2097 30.4747 39.072 28.7234L40.2713 27.5241ZM38.1861 27.6889H38.5157L37.9532 28.2514H37.0611V27.3593L37.6236 26.7968V27.1264C37.6236 27.2756 37.6828 27.4187 37.7883 27.5242C37.8938 27.6297 38.0369 27.6889 38.1861 27.6889ZM33.6861 33.3139C33.6861 33.6477 33.5871 33.974 33.4017 34.2515C33.2163 34.529 32.9527 34.7453 32.6444 34.873C32.336 35.0007 31.9967 35.0341 31.6694 34.969C31.342 34.9039 31.0413 34.7432 30.8053 34.5072C30.5693 34.2712 30.4086 33.9705 30.3435 33.6432C30.2784 33.3158 30.3118 32.9765 30.4395 32.6682C30.5673 32.3598 30.7835 32.0963 31.0611 31.9108C31.3386 31.7254 31.6648 31.6264 31.9986 31.6264C32.2492 31.6274 32.4963 31.6851 32.7214 31.7952L31.6009 32.9157C31.5472 32.9676 31.5043 33.0297 31.4748 33.0983C31.4454 33.1669 31.4298 33.2407 31.4292 33.3154C31.4285 33.3901 31.4428 33.4642 31.4711 33.5333C31.4993 33.6024 31.5411 33.6652 31.5939 33.718C31.6467 33.7709 31.7095 33.8126 31.7787 33.8409C31.8478 33.8692 31.9219 33.8834 31.9966 33.8828C32.0712 33.8821 32.1451 33.8666 32.2137 33.8371C32.2823 33.8077 32.3444 33.7648 32.3963 33.7111L33.5173 32.5911C33.6274 32.8162 33.6851 33.0634 33.6861 33.3139ZM33.5471 30.97C32.9641 30.5841 32.2584 30.4285 31.5671 30.5333C30.8758 30.6382 30.2481 30.9961 29.8057 31.5375C29.3633 32.079 29.1377 32.7655 29.1728 33.4638C29.2079 34.1622 29.501 34.8226 29.9955 35.3171C30.4899 35.8115 31.1503 36.1047 31.8487 36.1397C32.547 36.1748 33.2335 35.9493 33.775 35.5069C34.3165 35.0645 34.6743 34.4367 34.7792 33.7454C34.8841 33.0541 34.7284 32.3485 34.3425 31.7654L35.5491 30.5577C36.2539 31.4646 36.5866 32.6062 36.4793 33.7498C36.372 34.8934 35.8329 35.9531 34.9716 36.7132C34.1103 37.4732 32.9918 37.8763 31.8437 37.8405C30.6956 37.8047 29.6043 37.3326 28.7921 36.5204C27.9799 35.7082 27.5078 34.6169 27.472 33.4688C27.4362 32.3208 27.8393 31.2022 28.5994 30.3409C29.3594 29.4797 30.4191 28.9405 31.5627 28.8332C32.7064 28.7259 33.8479 29.0586 34.7548 29.7634L33.5471 30.97ZM31.9986 40.6264C30.8624 40.6275 29.7417 40.3637 28.7252 39.8562C27.7087 39.3486 26.8245 38.6111 26.1427 37.7023C25.4609 36.7935 25.0002 35.7383 24.7972 34.6205C24.5942 33.5026 24.6545 32.3528 24.9733 31.2623C25.292 30.1718 25.8605 29.1705 26.6336 28.338C27.4068 27.5054 28.3632 26.8645 29.4272 26.466C30.4912 26.0675 31.6334 25.9224 32.7632 26.0422C33.893 26.162 34.9794 26.5435 35.9361 27.1563V28.5811L35.5558 28.9613C34.4368 28.0463 33.0089 27.5965 31.5675 27.7048C30.126 27.8131 28.7814 28.4713 27.8116 29.5432C26.8419 30.6151 26.3212 32.0187 26.3573 33.4638C26.3935 34.9088 26.9836 36.2847 28.0057 37.3068C29.0279 38.3289 30.4037 38.9191 31.8488 38.9552C33.2938 38.9913 34.6974 38.4707 35.7693 37.5009C36.8413 36.5311 37.4994 35.1865 37.6077 33.7451C37.716 32.3036 37.2662 30.8757 36.3512 29.7567L36.7315 29.3764H38.1563C38.864 30.481 39.2614 31.7557 39.3067 33.0667C39.352 34.3778 39.0435 35.6768 38.4137 36.8276C37.7838 37.9783 36.8558 38.9382 35.7271 39.6067C34.5983 40.2751 33.3104 40.6274 31.9986 40.6264Z" fill="white"/>
<path d="M48.3125 18.1264H45.4713C45.4068 17.8085 45.2343 17.5227 44.9831 17.3174C44.732 17.1121 44.4176 17 44.0932 17C43.7688 17 43.4544 17.1121 43.2032 17.3174C42.9521 17.5227 42.7796 17.8085 42.7151 18.1264H41.5338C41.4693 17.8085 41.2968 17.5227 41.0456 17.3174C40.7945 17.1121 40.4801 17 40.1557 17C39.8313 17 39.5169 17.1121 39.2657 17.3174C39.0146 17.5227 38.8421 17.8085 38.7776 18.1264H25.2213C25.1568 17.8085 24.9843 17.5227 24.7331 17.3174C24.482 17.1121 24.1676 17 23.8432 17C23.5188 17 23.2044 17.1121 22.9532 17.3174C22.7021 17.5227 22.5296 17.8085 22.4651 18.1264H21.2838C21.2193 17.8085 21.0468 17.5227 20.7956 17.3174C20.5445 17.1121 20.2301 17 19.9057 17C19.5813 17 19.2669 17.1121 19.0157 17.3174C18.7646 17.5227 18.5921 17.8085 18.5276 18.1264H15.6875C15.2399 18.1264 14.8107 18.3042 14.4943 18.6207C14.1778 18.9371 14 19.3664 14 19.8139V44.5639C14 45.0115 14.1778 45.4407 14.4943 45.7572C14.8107 46.0736 15.2399 46.2514 15.6875 46.2514H48.3125C48.7601 46.2514 49.1893 46.0736 49.5057 45.7572C49.8222 45.4407 50 45.0115 50 44.5639V19.8139C50 19.3664 49.8222 18.9371 49.5057 18.6207C49.1893 18.3042 48.7601 18.1264 48.3125 18.1264ZM16.8125 42.8764C16.3649 42.8764 15.9357 42.6986 15.6193 42.3822C15.3028 42.0657 15.125 41.6365 15.125 41.1889V23.7514H48.875V35.5639C48.875 37.4365 46.3505 38.3764 44.9375 38.3764C44.7883 38.3764 44.6452 38.4357 44.5398 38.5412C44.4343 38.6467 44.375 38.7897 44.375 38.9389C44.375 40.3525 43.4351 42.8764 41.5625 42.8764H16.8125ZM45.4708 39.4722C46.6506 39.346 47.7697 38.8846 48.6956 38.1424C48.4266 39.2465 47.8594 40.2554 47.0558 41.0589C46.2523 41.8625 45.2434 42.4297 44.1393 42.6987C44.8824 41.7725 45.3444 40.6528 45.4708 39.4722ZM43.8125 18.4077C43.8125 18.3331 43.8421 18.2615 43.8949 18.2088C43.9476 18.156 44.0192 18.1264 44.0938 18.1264C44.1683 18.1264 44.2399 18.156 44.2926 18.2088C44.3454 18.2615 44.375 18.3331 44.375 18.4077V20.0952C44.375 20.1698 44.3454 20.2413 44.2926 20.294C44.2399 20.3468 44.1683 20.3764 44.0938 20.3764C44.0192 20.3764 43.9476 20.3468 43.8949 20.294C43.8421 20.2413 43.8125 20.1698 43.8125 20.0952V18.4077ZM39.875 18.4077C39.875 18.3331 39.9046 18.2615 39.9574 18.2088C40.0101 18.156 40.0817 18.1264 40.1562 18.1264C40.2308 18.1264 40.3024 18.156 40.3551 18.2088C40.4079 18.2615 40.4375 18.3331 40.4375 18.4077V20.0952C40.4375 20.1698 40.4079 20.2413 40.3551 20.294C40.3024 20.3468 40.2308 20.3764 40.1562 20.3764C40.0817 20.3764 40.0101 20.3468 39.9574 20.294C39.9046 20.2413 39.875 20.1698 39.875 20.0952V18.4077ZM23.5625 18.4077C23.5625 18.3331 23.5921 18.2615 23.6449 18.2088C23.6976 18.156 23.7692 18.1264 23.8438 18.1264C23.9183 18.1264 23.9899 18.156 24.0426 18.2088C24.0954 18.2615 24.125 18.3331 24.125 18.4077V20.0952C24.125 20.1698 24.0954 20.2413 24.0426 20.294C23.9899 20.3468 23.9183 20.3764 23.8438 20.3764C23.7692 20.3764 23.6976 20.3468 23.6449 20.294C23.5921 20.2413 23.5625 20.1698 23.5625 20.0952V18.4077ZM19.625 18.4077C19.625 18.3331 19.6546 18.2615 19.7074 18.2088C19.7601 18.156 19.8317 18.1264 19.9062 18.1264C19.9808 18.1264 20.0524 18.156 20.1051 18.2088C20.1579 18.2615 20.1875 18.3331 20.1875 18.4077V20.0952C20.1875 20.1698 20.1579 20.2413 20.1051 20.294C20.0524 20.3468 19.9808 20.3764 19.9062 20.3764C19.8317 20.3764 19.7601 20.3468 19.7074 20.294C19.6546 20.2413 19.625 20.1698 19.625 20.0952V18.4077ZM15.125 19.8139C15.125 19.6647 15.1843 19.5217 15.2898 19.4162C15.3952 19.3107 15.5383 19.2514 15.6875 19.2514H18.5V20.0952C18.5 20.4681 18.6482 20.8258 18.9119 21.0895C19.1756 21.3533 19.5333 21.5014 19.9062 21.5014C20.2792 21.5014 20.6369 21.3533 20.9006 21.0895C21.1643 20.8258 21.3125 20.4681 21.3125 20.0952V19.2514H22.4375V20.0952C22.4375 20.4681 22.5857 20.8258 22.8494 21.0895C23.1131 21.3533 23.4708 21.5014 23.8438 21.5014C24.2167 21.5014 24.5744 21.3533 24.8381 21.0895C25.1018 20.8258 25.25 20.4681 25.25 20.0952V19.2514H38.75V20.0952C38.75 20.4681 38.8982 20.8258 39.1619 21.0895C39.4256 21.3533 39.7833 21.5014 40.1562 21.5014C40.5292 21.5014 40.8869 21.3533 41.1506 21.0895C41.4143 20.8258 41.5625 20.4681 41.5625 20.0952V19.2514H42.6875V20.0952C42.6875 20.4681 42.8357 20.8258 43.0994 21.0895C43.3631 21.3533 43.7208 21.5014 44.0938 21.5014C44.4667 21.5014 44.8244 21.3533 45.0881 21.0895C45.3518 20.8258 45.5 20.4681 45.5 20.0952V19.2514H48.3125C48.4617 19.2514 48.6048 19.3107 48.7102 19.4162C48.8157 19.5217 48.875 19.6647 48.875 19.8139V22.6264H15.125V19.8139ZM48.875 44.5639C48.875 44.7131 48.8157 44.8562 48.7102 44.9617C48.6048 45.0671 48.4617 45.1264 48.3125 45.1264H15.6875C15.5383 45.1264 15.3952 45.0671 15.2898 44.9617C15.1843 44.8562 15.125 44.7131 15.125 44.5639V43.4243C15.609 43.7966 16.2019 43.9993 16.8125 44.0014H42.6875C43.925 44.0004 45.1421 43.6849 46.2243 43.0848C47.3066 42.4846 48.2187 41.6193 48.875 40.5702V44.5639Z" fill="white"/>
<defs>
<linearGradient id="paint0_linear_189_27154" x1="64" y1="7.62939e-06" x2="7.62939e-06" y2="64" gradientUnits="userSpaceOnUse">
<stop stop-color="#F65A75"/>
<stop offset="1" stop-color="#48179C"/>
</linearGradient>
</defs>
</svg>
