<svg width="64" height="64" viewBox="0 0 64 64" fill="none" xmlns="http://www.w3.org/2000/svg">
<rect width="64" height="64" rx="32" fill="url(#paint0_linear_164_4773)"/>
<path fill-rule="evenodd" clip-rule="evenodd" d="M28.0475 24.4241C28.1248 24.3409 28.2332 24.2934 28.3477 24.2919C28.4621 24.2904 28.572 24.335 28.6522 24.4152C28.7325 24.4955 28.777 24.6054 28.7756 24.7198C28.7741 24.8342 28.7265 24.9427 28.6448 25.02L27.8618 25.803L28.6448 26.5845C28.8097 26.7494 28.8097 27.0169 28.6448 27.1818C28.4799 27.3467 28.2124 27.3467 28.0475 27.1818L27.266 26.3988L26.483 27.1818C26.318 27.3467 26.0506 27.3467 25.8857 27.1818C25.7207 27.0169 25.7192 26.7494 25.8842 26.5845L26.6657 25.803L25.8842 25.02C25.7207 24.855 25.7207 24.5891 25.8842 24.4241C26.0491 24.2592 26.3165 24.2592 26.4815 24.4241L27.2645 25.2072L28.0475 24.4241ZM18.846 49.1557H31.5408V47.9403C31.5408 47.8735 31.4858 47.82 31.4205 47.82H18.9649C18.8995 47.82 18.8461 47.8734 18.8461 47.9403L18.846 49.1557ZM31.9626 49.9997C32.0741 49.9997 32.1811 49.9551 32.2613 49.8763C32.34 49.7976 32.3846 49.6906 32.3846 49.5777V48.6892H44.1239C44.6841 48.6877 45.1388 48.2331 45.1402 47.6729V19.4678C45.1388 18.9061 44.6841 18.4515 44.1239 18.45H38.3172C38.2845 17.9731 37.8863 17.6016 37.4079 17.6016H36.5268V16.8631C36.509 15.2763 35.2164 14 33.6295 14C32.0426 14 30.75 15.2763 30.7307 16.8631V17.6016H29.8481C29.3697 17.6016 28.9729 17.9716 28.9388 18.45H23.1321C22.5719 18.45 22.1158 18.9047 22.1158 19.4663V30.3144C22.092 30.3011 22.0682 30.2877 22.043 30.2773C21.9419 30.2327 21.8335 30.2089 21.7235 30.206L21.1634 30.1926H21.1619C20.7087 30.1822 20.3298 30.5343 20.3075 30.9875C20.208 32.9295 19.9866 34.8638 19.6463 36.7778C19.1932 39.5459 18.9079 41.2901 20.1337 45.171H19.8855C19.3521 45.171 18.9212 45.6034 18.9212 46.1354V46.9763C18.4056 47.0001 18 47.425 18 47.9406V49.5795V49.578C18 49.6909 18.0446 49.7979 18.1233 49.8766C18.2036 49.9569 18.3105 50.0014 18.4235 50L31.9626 49.9997ZM19.7658 46.9746V46.1336V46.1351C19.7658 46.0682 19.8192 46.0147 19.8861 46.0147H30.5007H30.4992C30.566 46.0147 30.6195 46.0682 30.6195 46.1351V46.976L19.7658 46.9746ZM31.4651 46.9746H42.6324C42.8434 46.9746 43.0454 46.8914 43.194 46.7428C43.3426 46.5942 43.4258 46.3921 43.4258 46.1811V20.9566V20.9581C43.4258 20.7634 43.3545 20.5762 43.2252 20.4306C43.2163 20.4187 43.2059 20.4069 43.1955 20.3965C43.0469 20.2479 42.8449 20.1632 42.6339 20.1632H38.319V19.2955H44.1241C44.2192 19.297 44.295 19.3727 44.2965 19.4678V47.6729C44.2965 47.768 44.2192 47.8438 44.1241 47.8438H32.3803C32.3312 47.3683 31.942 46.9998 31.465 46.9761L31.4651 46.9746ZM21.0183 45.1693C19.7598 41.2987 20.0362 39.6167 20.4804 36.9126C20.8222 34.9692 21.0436 33.0051 21.1431 31.0333L21.6958 31.0466C22.5145 31.9248 23.1267 31.898 23.8933 31.8668C24.6303 31.8356 25.55 31.7984 27.1621 33.0272L27.1072 33.1565L27.1057 33.158C27.0136 33.3749 27.018 33.62 27.1176 33.834C27.2156 34.048 27.4013 34.2084 27.6257 34.2783C28.0774 34.4551 28.4815 34.7314 28.8099 35.0866C29.3225 35.6081 29.798 36.1638 30.2318 36.7522C30.3314 36.874 30.3462 37.0434 30.2719 37.183L29.8514 38.024C29.7742 38.1859 29.5974 38.2766 29.4206 38.2424L28.9228 38.1622H28.9213C28.8738 38.1562 28.8292 38.1399 28.7861 38.1176C28.7445 38.0923 28.7074 38.0611 28.6777 38.024C27.5885 36.7373 27.076 36.9423 26.5292 37.1607C26.2647 37.2662 25.9824 37.3792 25.2484 36.663L25.2469 36.6615C25.131 36.5471 24.9572 36.5114 24.8041 36.5694C24.6511 36.6273 24.5456 36.7685 24.5337 36.9319C24.3079 38.7431 25.2216 39.599 26.3152 40.6227C27.3493 41.59 28.5647 42.7281 28.9154 45.1723L21.0183 45.1693ZM29.7698 45.1693H30.4994C31.0313 45.1708 31.4622 45.6002 31.4652 46.1306H42.5822V21.0084H38.1543C37.9107 21.466 37.4352 21.7528 36.9166 21.7543H30.3389C29.8204 21.7528 29.3434 21.466 29.0998 21.0084H24.6734V31.0273C25.4163 31.0838 26.3509 31.3482 27.6762 32.3601C27.9808 32.5904 28.0893 32.999 27.9392 33.3496L27.8857 33.4759H27.8843C28.4607 33.6914 28.9778 34.0361 29.3983 34.4833C29.9406 35.0316 30.4443 35.62 30.9034 36.241C31.1961 36.6184 31.2452 37.1325 31.0268 37.5589L30.6063 38.3999C30.3641 38.8902 29.8277 39.1651 29.2884 39.0744L28.7906 38.9942C28.4949 38.9481 28.2275 38.7966 28.0373 38.5678C27.3405 37.7446 27.1012 37.8397 26.8457 37.9422C26.3821 38.1933 25.8145 38.1577 25.3851 37.8501C25.5411 38.7431 26.1696 39.3315 26.8932 40.009C28.0477 41.0907 29.4072 42.364 29.7727 45.1721L29.7698 45.1693ZM22.9589 30.9412C23.2398 31.0319 23.5354 31.0616 23.8282 31.0289V20.9579C23.8297 20.5196 24.1848 20.1645 24.6231 20.1645H28.9364V19.2952H23.1313C23.0362 19.2967 22.9589 19.3725 22.9589 19.4676L22.9589 30.9412ZM33.6271 15.5899C34.2586 15.5899 34.8009 16.0356 34.9243 16.6537C35.0476 17.2718 34.7163 17.8914 34.1338 18.1321C33.5529 18.3743 32.8798 18.1707 32.5307 17.6463C32.18 17.1218 32.2483 16.4235 32.6941 15.9777C32.9407 15.7296 33.2765 15.5899 33.6271 15.5899ZM33.9644 16.575C34.1264 16.7354 34.1501 16.988 34.0239 17.1767C33.899 17.3654 33.6554 17.4397 33.4459 17.3535C33.2349 17.2659 33.116 17.043 33.1606 16.8201C33.2037 16.5958 33.3998 16.4353 33.6272 16.4353C33.7535 16.4353 33.8753 16.4858 33.9644 16.575ZM31.5737 19.0043V16.8632C31.5901 15.7399 32.5053 14.8381 33.6271 14.8381C34.7504 14.8381 35.6657 15.7399 35.6805 16.8632V19.0057C35.6775 19.1202 35.7206 19.2301 35.7994 19.3118C35.8796 19.395 35.9895 19.4411 36.1039 19.4411C36.2169 19.4411 36.3268 19.395 36.4071 19.3118C36.4858 19.2301 36.5289 19.1202 36.5259 19.0057V18.4456H37.407C37.4248 18.4456 37.4412 18.4515 37.4546 18.4649C37.4664 18.4768 37.4739 18.4946 37.4739 18.5124V20.3504C37.4724 20.6579 37.2243 20.9061 36.9167 20.9075H30.339C30.0314 20.9061 29.7833 20.6579 29.7803 20.3504V18.5139C29.7818 18.4961 29.7877 18.4798 29.8011 18.4664C29.813 18.4545 29.8308 18.4471 29.8487 18.4471H30.7297V19.0072C30.7253 19.1216 30.7684 19.2316 30.8486 19.3148C30.9274 19.3965 31.0373 19.4426 31.1517 19.4426C31.2661 19.4426 31.3761 19.3965 31.4548 19.3148C31.5351 19.2316 31.5781 19.1216 31.5737 19.0072L31.5737 19.0043ZM31.7535 23.5493L31.755 23.5508C32.5544 23.5493 33.2438 24.1154 33.4013 24.8999C33.5573 25.6844 33.1368 26.4704 32.3984 26.7765C31.6584 27.0841 30.8056 26.8255 30.3613 26.1599C29.917 25.4942 30.0032 24.6072 30.5693 24.0426C30.8843 23.7261 31.3107 23.5493 31.7565 23.5508L31.7535 23.5493ZM32.3434 24.6399C32.6242 24.9207 32.6688 25.3605 32.4474 25.6918C32.226 26.0217 31.8026 26.1509 31.4355 25.9979C31.0685 25.8464 30.8605 25.4556 30.9378 25.0663C31.0151 24.6756 31.3568 24.3947 31.755 24.3947C31.9749 24.3947 32.1874 24.4824 32.3434 24.6399ZM35.4235 30.8848C36.2214 30.8848 36.9093 31.4494 37.0653 32.2325C37.2198 33.017 36.8009 33.8 36.0639 34.1061C35.3254 34.4122 34.4741 34.1536 34.0313 33.4895C33.587 32.8253 33.6747 31.9398 34.2393 31.3751C34.5528 31.0616 34.9792 30.8848 35.4235 30.8848ZM36.0089 31.9724C36.2897 32.2533 36.3328 32.6916 36.1129 33.0199C35.893 33.3483 35.4711 33.4761 35.1056 33.3245C34.7401 33.173 34.532 32.7852 34.6093 32.3974C34.6866 32.0096 35.0268 31.7302 35.4235 31.7302C35.6434 31.7288 35.8544 31.8164 36.0089 31.9724ZM40.8541 30.8507V30.8521C40.9997 31.0185 40.9922 31.2712 40.8347 31.4286C40.6787 31.5846 40.4262 31.595 40.2597 31.4494L39.4782 30.6679L38.6952 31.4494C38.5302 31.6143 38.2628 31.6143 38.0979 31.4494C37.933 31.2845 37.9315 31.0171 38.0964 30.8521L38.8794 30.0691L38.0964 29.2876C37.9389 29.1212 37.9434 28.8596 38.1053 28.6977C38.2673 28.5357 38.5288 28.5328 38.6937 28.6903L39.4767 29.4733L40.2598 28.6903C40.4247 28.5328 40.6862 28.5357 40.8481 28.6977C41.0101 28.8596 41.0146 29.1212 40.8571 29.2876L40.074 30.0706L40.8571 30.8536L40.8541 30.8507ZM39.0666 27.3634V27.3649C38.9686 27.4229 38.8527 27.4392 38.7427 27.411C38.6328 27.3813 38.5392 27.3099 38.4827 27.2104C38.4277 27.1108 38.4144 26.9935 38.4456 26.885C38.4783 26.7765 38.554 26.6844 38.6536 26.6324L39.3712 26.2268H39.3727C37.1663 26.3754 35.1099 27.3932 33.6523 29.0558C32.1963 30.7184 31.4578 32.8922 31.6004 35.0987C31.6123 35.2116 31.5767 35.326 31.5024 35.4137C31.4296 35.5013 31.3226 35.5563 31.2082 35.5623C31.0923 35.5697 30.9809 35.5296 30.8962 35.4523C30.8115 35.3751 30.7625 35.2651 30.7595 35.1507C30.599 32.656 31.4623 30.2029 33.1487 28.3577C34.8351 26.5123 37.1988 25.4336 39.6982 25.3682L38.8409 24.6432C38.6641 24.4916 38.6418 24.2256 38.7919 24.0488C38.9419 23.8705 39.2094 23.8483 39.3862 23.9998L41.184 25.5213C41.2925 25.6134 41.3475 25.7531 41.3297 25.8942C41.3118 26.0339 41.2256 26.1572 41.0979 26.2196L39.0666 27.3634Z" fill="white"/>
<defs>
<linearGradient id="paint0_linear_164_4773" x1="64" y1="7.62939e-06" x2="7.62939e-06" y2="64" gradientUnits="userSpaceOnUse">
<stop stop-color="#F65A75"/>
<stop offset="1" stop-color="#48179C"/>
</linearGradient>
</defs>
</svg>
