<svg width="64" height="64" viewBox="0 0 64 64" fill="none" xmlns="http://www.w3.org/2000/svg">
<rect width="64" height="64" rx="32" fill="url(#paint0_linear_164_4778)"/>
<path fill-rule="evenodd" clip-rule="evenodd" d="M18.2833 13.674C16.7767 13.674 15.5439 14.9053 15.5439 16.4098V46.9382C15.5439 48.4427 16.7767 49.6739 18.2833 49.6739H30.1632C30.2447 49.6736 30.3254 49.6573 30.4006 49.6258C30.4757 49.5943 30.544 49.5483 30.6014 49.4905C30.6588 49.4326 30.7042 49.364 30.7351 49.2886C30.766 49.2132 30.7817 49.1324 30.7814 49.0509C30.7808 48.8872 30.7154 48.7303 30.5996 48.6145C30.4839 48.4987 30.327 48.4334 30.1632 48.4327H18.2833C17.441 48.4327 16.7851 47.7738 16.7851 46.9382V16.4098C16.7851 15.5742 17.441 14.9153 18.2833 14.9153H33.242V20.0837C33.242 21.5882 34.4748 22.8183 35.9814 22.8183H41.162V32.251C41.1623 32.3325 41.1787 32.4131 41.2102 32.4883C41.2416 32.5634 41.2876 32.6317 41.3455 32.6891C41.4033 32.7465 41.4719 32.7919 41.5473 32.8228C41.6228 32.8537 41.7035 32.8695 41.785 32.8691C41.949 32.8688 42.1062 32.8036 42.2222 32.6878C42.3383 32.572 42.4038 32.4149 42.4044 32.251V22.2001C42.4034 22.1908 42.4021 22.1815 42.4007 22.1722C42.3988 22.1392 42.3944 22.1063 42.3873 22.074C42.384 22.0561 42.3799 22.0383 42.3751 22.0207C42.3626 21.9799 42.346 21.9405 42.3254 21.9031C42.3219 21.8957 42.3183 21.8885 42.3146 21.8813C42.2882 21.8371 42.2565 21.7964 42.2201 21.7601L34.3001 13.8571C34.2478 13.8065 34.1871 13.7654 34.1207 13.7359C34.1044 13.7287 34.0878 13.7222 34.071 13.7164C34.0163 13.6968 33.9592 13.6849 33.9013 13.6812C33.8892 13.6784 33.8771 13.676 33.8649 13.674L18.2833 13.674ZM34.4832 15.7904L36.5063 17.8086L40.2808 21.5771H35.9814C35.1391 21.5771 34.4832 20.9193 34.4832 20.0837V15.7904ZM25.6687 19.5795C22.49 19.5795 19.9014 22.1649 19.9014 25.3383C19.9014 28.5116 22.49 31.097 25.6687 31.097C28.8474 31.097 31.4408 28.5116 31.4408 25.3383C31.4408 22.1649 28.8474 19.5795 25.6687 19.5795ZM25.6687 20.8207C28.1783 20.8207 30.1996 22.8373 30.1996 25.3383C30.1996 27.8392 28.1783 29.8558 25.6687 29.8558C24.3433 29.8558 23.1553 29.2932 22.3293 28.394L25.9802 26.291C26.0745 26.2368 26.153 26.1588 26.2076 26.0648C26.2623 25.9707 26.2913 25.864 26.2917 25.7552V20.8668H25.0505V25.3928L21.6736 27.3358L22.202 28.2485C21.5404 27.4633 21.1427 26.4485 21.1427 25.3383C21.1427 22.8373 23.1591 20.8207 25.6687 20.8207ZM20.8081 34.24C20.7266 34.2397 20.6458 34.2555 20.5704 34.2864C20.495 34.3173 20.4264 34.3627 20.3686 34.4201C20.3107 34.4775 20.2647 34.5457 20.2332 34.6209C20.2018 34.6961 20.1854 34.7767 20.1851 34.8582C20.1854 34.9397 20.2018 35.0204 20.2332 35.0955C20.2647 35.1707 20.3107 35.2389 20.3686 35.2964C20.4264 35.3538 20.495 35.3992 20.5704 35.4301C20.6458 35.461 20.7266 35.4767 20.8081 35.4764H37.1402C37.2217 35.4767 37.3025 35.461 37.3779 35.4301C37.4533 35.3992 37.5219 35.3538 37.5797 35.2963C37.6376 35.2389 37.6836 35.1707 37.715 35.0955C37.7465 35.0204 37.7629 34.9397 37.7632 34.8582C37.7629 34.7767 37.7465 34.6961 37.715 34.6209C37.6836 34.5457 37.6376 34.4775 37.5797 34.4201C37.5219 34.3627 37.4533 34.3173 37.3779 34.2864C37.3025 34.2555 37.2217 34.2397 37.1402 34.24H20.8081ZM43.1826 35.16C43.0188 35.1607 42.862 35.226 42.7462 35.3418C42.6304 35.4576 42.5651 35.6145 42.5644 35.7782V40.0122H38.4784C38.3968 40.0123 38.316 40.0286 38.2407 40.06C38.1654 40.0914 38.097 40.1374 38.0395 40.1952C37.9819 40.2531 37.9364 40.3217 37.9054 40.3972C37.8744 40.4727 37.8587 40.5536 37.859 40.6352V43.8146H33.7729C33.691 43.8143 33.6099 43.8302 33.5341 43.8614C33.4584 43.8926 33.3896 43.9384 33.3317 43.9964C33.2738 44.0543 33.2279 44.1231 33.1967 44.1988C33.1655 44.2745 33.1496 44.3557 33.1499 44.4376V49.0509C33.1496 49.1328 33.1655 49.214 33.1967 49.2897C33.2279 49.3654 33.2738 49.4342 33.3317 49.4922C33.3896 49.5501 33.4584 49.596 33.5341 49.6272C33.6099 49.6584 33.691 49.6743 33.7729 49.6739H38.4784H43.1826H47.8917C47.9733 49.6738 48.054 49.6575 48.1294 49.6261C48.2047 49.5947 48.273 49.5487 48.3306 49.4909C48.3881 49.433 48.4337 49.3644 48.4646 49.2889C48.4956 49.2134 48.5114 49.1325 48.5111 49.0509V35.7782C48.5104 35.6143 48.4449 35.4572 48.3289 35.3414C48.2128 35.2256 48.0556 35.1604 47.8917 35.16H43.1826ZM43.8056 36.4013H47.2686V48.4327H43.8056V40.6352V36.4013ZM20.8954 38.8946C20.8139 38.8943 20.7331 38.91 20.6577 38.9409C20.5823 38.9718 20.5137 39.0172 20.4558 39.0746C20.398 39.132 20.352 39.2003 20.3205 39.2754C20.289 39.3506 20.2727 39.4313 20.2724 39.5128C20.272 39.5947 20.2879 39.6758 20.3191 39.7516C20.3503 39.8273 20.3962 39.8961 20.4541 39.954C20.512 40.0119 20.5809 40.0578 20.6566 40.089C20.7323 40.1202 20.8135 40.1361 20.8954 40.1358H28.3996C28.4815 40.1361 28.5627 40.1202 28.6384 40.089C28.7141 40.0578 28.783 40.0119 28.8409 39.954C28.8988 39.8961 28.9447 39.8273 28.9759 39.7516C29.0071 39.6758 29.023 39.5947 29.0226 39.5128C29.0223 39.4313 29.006 39.3506 28.9745 39.2754C28.943 39.2003 28.897 39.132 28.8392 39.0746C28.7813 39.0172 28.7127 38.9718 28.6373 38.9409C28.5619 38.91 28.4811 38.8943 28.3996 38.8946H20.8954ZM39.1014 41.2534H42.5644V48.4327H39.1014V44.4376V41.2534ZM34.3911 45.0558H37.859V48.4327H34.3911V45.0558Z" fill="white"/>
<defs>
<linearGradient id="paint0_linear_164_4778" x1="64" y1="7.62939e-06" x2="7.62939e-06" y2="64" gradientUnits="userSpaceOnUse">
<stop stop-color="#F65A75"/>
<stop offset="1" stop-color="#48179C"/>
</linearGradient>
</defs>
</svg>
