<svg width="64" height="64" viewBox="0 0 64 64" fill="none" xmlns="http://www.w3.org/2000/svg">
<rect width="64" height="64" rx="32" fill="url(#paint0_linear_189_27149)"/>
<path d="M42.5742 21.365C41.1988 19.9761 39.5608 18.8749 37.7555 18.1255C35.9502 17.3761 34.0138 16.9935 32.0592 17C23.8692 17 17.1942 23.675 17.1942 31.865C17.1942 34.49 17.8842 37.04 19.1742 39.29L17.0742 47L24.9492 44.93C27.1242 46.115 29.5692 46.745 32.0592 46.745C40.2492 46.745 46.9242 40.07 46.9242 31.88C46.9242 27.905 45.3792 24.17 42.5742 21.365ZM32.0592 44.225C29.8392 44.225 27.6642 43.625 25.7592 42.5L25.3092 42.23L20.6292 43.46L21.8742 38.9L21.5742 38.435C20.3405 36.4655 19.6856 34.1889 19.6842 31.865C19.6842 25.055 25.2342 19.505 32.0442 19.505C35.3442 19.505 38.4492 20.795 40.7742 23.135C41.9256 24.2808 42.8381 25.6438 43.4587 27.145C44.0792 28.6461 44.3955 30.2556 44.3892 31.88C44.4192 38.69 38.8692 44.225 32.0592 44.225ZM38.8392 34.985C38.4642 34.805 36.6342 33.905 36.3042 33.77C35.9592 33.65 35.7192 33.59 35.4642 33.95C35.2092 34.325 34.5042 35.165 34.2942 35.405C34.0842 35.66 33.8592 35.69 33.4842 35.495C33.1092 35.315 31.9092 34.91 30.4992 33.65C29.3892 32.66 28.6542 31.445 28.4292 31.07C28.2192 30.695 28.3992 30.5 28.5942 30.305C28.7592 30.14 28.9692 29.87 29.1492 29.66C29.3292 29.45 29.4042 29.285 29.5242 29.045C29.6442 28.79 29.5842 28.58 29.4942 28.4C29.4042 28.22 28.6542 26.39 28.3542 25.64C28.0542 24.92 27.7392 25.01 27.5142 24.995H26.7942C26.5392 24.995 26.1492 25.085 25.8042 25.46C25.4742 25.835 24.5142 26.735 24.5142 28.565C24.5142 30.395 25.8492 32.165 26.0292 32.405C26.2092 32.66 28.6542 36.41 32.3742 38.015C33.2592 38.405 33.9492 38.63 34.4892 38.795C35.3742 39.08 36.1842 39.035 36.8292 38.945C37.5492 38.84 39.0342 38.045 39.3342 37.175C39.6492 36.305 39.6492 35.57 39.5442 35.405C39.4392 35.24 39.2142 35.165 38.8392 34.985Z" fill="white"/>
<defs>
<linearGradient id="paint0_linear_189_27149" x1="64" y1="7.62939e-06" x2="7.62939e-06" y2="64" gradientUnits="userSpaceOnUse">
<stop stop-color="#F65A75"/>
<stop offset="1" stop-color="#48179C"/>
</linearGradient>
</defs>
</svg>
