<svg width="64" height="64" viewBox="0 0 64 64" fill="none" xmlns="http://www.w3.org/2000/svg">
<rect width="64" height="64" rx="32" fill="url(#paint0_linear_164_4859)"/>
<path d="M23 45.5V42.5C23 40.9087 23.6321 39.3826 24.7574 38.2574C25.8826 37.1321 27.4087 36.5 29 36.5H32.75M42.5015 45.5C41.7058 45.5 40.9428 45.1839 40.3802 44.6213C39.8176 44.0587 39.5015 43.2956 39.5015 42.5C39.5015 41.7044 39.8176 40.9413 40.3802 40.3787C40.9428 39.8161 41.7058 39.5 42.5015 39.5M42.5015 45.5C43.2971 45.5 44.0602 45.1839 44.6228 44.6213C45.1854 44.0587 45.5015 43.2956 45.5015 42.5C45.5015 41.7044 45.1854 40.9413 44.6228 40.3787C44.0602 39.8161 43.2971 39.5 42.5015 39.5M42.5015 45.5V47.75M42.5015 39.5V37.25M47.048 39.875L45.0995 41M39.905 44L37.955 45.125M37.955 39.875L39.905 41M45.0995 44L47.0495 45.125M26 24.5C26 26.0913 26.6321 27.6174 27.7574 28.7426C28.8826 29.8679 30.4087 30.5 32 30.5C33.5913 30.5 35.1174 29.8679 36.2426 28.7426C37.3679 27.6174 38 26.0913 38 24.5C38 22.9087 37.3679 21.3826 36.2426 20.2574C35.1174 19.1321 33.5913 18.5 32 18.5C30.4087 18.5 28.8826 19.1321 27.7574 20.2574C26.6321 21.3826 26 22.9087 26 24.5Z" stroke="white" stroke-width="3" stroke-linecap="round" stroke-linejoin="round"/>
<defs>
<linearGradient id="paint0_linear_164_4859" x1="64" y1="7.62939e-06" x2="7.62939e-06" y2="64" gradientUnits="userSpaceOnUse">
<stop stop-color="#F65A75"/>
<stop offset="1" stop-color="#48179C"/>
</linearGradient>
</defs>
</svg>
