<svg width="64" height="64" viewBox="0 0 64 64" fill="none" xmlns="http://www.w3.org/2000/svg">
<rect width="64" height="64" rx="32" fill="url(#paint0_linear_164_4825)"/>
<path d="M26.375 17.375V16.25C26.375 15.9516 26.4935 15.6655 26.7045 15.4545C26.9155 15.2435 27.2016 15.125 27.5 15.125C27.7983 15.125 28.0845 15.2435 28.2955 15.4545C28.5064 15.6655 28.625 15.9516 28.625 16.25V17.375C28.625 17.6734 28.5064 17.9595 28.2955 18.1705C28.0845 18.3815 27.7983 18.5 27.5 18.5C27.2016 18.5 26.9155 18.3815 26.7045 18.1705C26.4935 17.9595 26.375 17.6734 26.375 17.375ZM16.25 28.625H17.375C17.6733 28.625 17.9595 28.5065 18.1705 28.2955C18.3814 28.0845 18.5 27.7984 18.5 27.5C18.5 27.2016 18.3814 26.9155 18.1705 26.7045C17.9595 26.4935 17.6733 26.375 17.375 26.375H16.25C15.9516 26.375 15.6655 26.4935 15.4545 26.7045C15.2435 26.9155 15.125 27.2016 15.125 27.5C15.125 27.7984 15.2435 28.0845 15.4545 28.2955C15.6655 28.5065 15.9516 28.625 16.25 28.625ZM31.4965 19.5069C31.6287 19.5731 31.7727 19.6126 31.9202 19.6231C32.0677 19.6336 32.2158 19.615 32.356 19.5682C32.4963 19.5215 32.626 19.4475 32.7377 19.3506C32.8493 19.2537 32.9408 19.1357 33.0068 19.0034L34.1318 16.7534C34.2654 16.4866 34.2874 16.1776 34.1931 15.8945C34.0988 15.6114 33.896 15.3773 33.6291 15.2438C33.3623 15.1103 33.0533 15.0883 32.7702 15.1825C32.4871 15.2768 32.253 15.4797 32.1195 15.7466L30.9945 17.9966C30.9282 18.1287 30.8887 18.2726 30.878 18.42C30.8674 18.5674 30.8859 18.7155 30.9326 18.8557C30.9792 18.996 31.053 19.1257 31.1498 19.2374C31.2465 19.3492 31.3644 19.4407 31.4965 19.5069ZM17.9965 30.9945L15.7465 32.1195C15.4797 32.2531 15.2768 32.4871 15.1825 32.7702C15.0882 33.0533 15.1103 33.3623 15.2438 33.6291C15.3773 33.896 15.6114 34.0989 15.8945 34.1932C16.1776 34.2874 16.4866 34.2654 16.7534 34.1319L19.0034 33.0069C19.1355 32.9408 19.2534 32.8493 19.3501 32.7376C19.4469 32.626 19.5207 32.4964 19.5674 32.3562C19.6141 32.216 19.6327 32.068 19.6222 31.9206C19.6117 31.7733 19.5723 31.6294 19.5061 31.4973C19.44 31.3651 19.3485 31.2473 19.2369 31.1505C19.1253 31.0538 18.9956 30.9799 18.8555 30.9332C18.7153 30.8866 18.5673 30.868 18.4199 30.8785C18.2725 30.889 18.1287 30.9284 17.9965 30.9945ZM44.8404 39.875C45.0494 40.0839 45.2152 40.332 45.3283 40.605C45.4414 40.878 45.4996 41.1707 45.4996 41.4662C45.4996 41.7617 45.4414 42.0543 45.3283 42.3273C45.2152 42.6003 45.0494 42.8484 44.8404 43.0573L43.0573 44.8405C42.8484 45.0495 42.6003 45.2152 42.3273 45.3283C42.0543 45.4414 41.7617 45.4997 41.4661 45.4997C41.1706 45.4997 40.878 45.4414 40.605 45.3283C40.332 45.2152 40.0839 45.0495 39.875 44.8405L32.6609 37.625L30.1718 44.1064C30.1718 44.1205 30.1606 44.1359 30.1536 44.1514C29.9814 44.5528 29.6949 44.8947 29.3299 45.1345C28.9648 45.3743 28.5372 45.5014 28.1004 45.5H27.9893C27.5338 45.4807 27.0952 45.322 26.7328 45.0454C26.3704 44.7687 26.1016 44.3875 25.9629 43.9531L18.6125 21.4419C18.4863 21.0482 18.471 20.6273 18.5683 20.2255C18.6656 19.8237 18.8718 19.4565 19.1641 19.1641C19.4565 18.8718 19.8237 18.6657 20.2255 18.5684C20.6273 18.471 21.0481 18.4863 21.4418 18.6125L43.9531 25.963C44.3833 26.1069 44.76 26.3775 45.0337 26.7393C45.3074 27.1011 45.4653 27.5372 45.4868 27.9904C45.5082 28.4436 45.3922 28.8926 45.1539 29.2787C44.9156 29.6647 44.5661 29.9697 44.1514 30.1536L44.1064 30.1719L37.625 32.6595L44.8404 39.875ZM43.25 41.4655L36.0345 34.25C35.7748 33.9908 35.5824 33.6719 35.4742 33.3213C35.3659 32.9707 35.3451 32.5989 35.4134 32.2384C35.4818 31.8778 35.6373 31.5395 35.8664 31.2529C36.0955 30.9662 36.3912 30.7399 36.7278 30.5938L36.7728 30.5741L43.2345 28.0934L20.75 20.75L28.0906 43.2303L30.5726 36.7616C30.5726 36.7461 30.5839 36.7306 30.5909 36.7152C30.7371 36.3788 30.9633 36.0833 31.2499 35.8544C31.5364 35.6255 31.8745 35.4701 32.2348 35.4017C32.374 35.3759 32.5152 35.3627 32.6567 35.3623C33.2528 35.363 33.8244 35.6002 34.2458 36.0219L41.4654 43.25L43.25 41.4655Z" fill="white"/>
<defs>
<linearGradient id="paint0_linear_164_4825" x1="64" y1="7.62939e-06" x2="7.62939e-06" y2="64" gradientUnits="userSpaceOnUse">
<stop stop-color="#F65A75"/>
<stop offset="1" stop-color="#48179C"/>
</linearGradient>
</defs>
</svg>
