<svg width="64" height="64" viewBox="0 0 64 64" fill="none" xmlns="http://www.w3.org/2000/svg">
<rect width="64" height="64" rx="32" fill="url(#paint0_linear_164_4879)"/>
<path d="M39.5 39.5L45.5 45.5M18.5 30.5C18.5 33.6826 19.7643 36.7348 22.0147 38.9853C24.2652 41.2357 27.3174 42.5 30.5 42.5C33.6826 42.5 36.7348 41.2357 38.9853 38.9853C41.2357 36.7348 42.5 33.6826 42.5 30.5C42.5 27.3174 41.2357 24.2652 38.9853 22.0147C36.7348 19.7643 33.6826 18.5 30.5 18.5C27.3174 18.5 24.2652 19.7643 22.0147 22.0147C19.7643 24.2652 18.5 27.3174 18.5 30.5Z" stroke="white" stroke-width="2.25" stroke-linecap="round" stroke-linejoin="round"/>
<defs>
<linearGradient id="paint0_linear_164_4879" x1="64" y1="7.62939e-06" x2="7.62939e-06" y2="64" gradientUnits="userSpaceOnUse">
<stop stop-color="#F65A75"/>
<stop offset="1" stop-color="#48179C"/>
</linearGradient>
</defs>
</svg>
