<svg width="64" height="64" viewBox="0 0 64 64" fill="none" xmlns="http://www.w3.org/2000/svg">
<rect width="64" height="64" rx="32" fill="url(#paint0_linear_164_4884)"/>
<path d="M27.5 17.8419L25.9093 16.25L21.875 20.2854L17.8408 16.25L16.25 17.8419L20.2842 21.875L16.25 25.9093L17.8408 27.5L21.875 23.4657L25.9093 27.5L27.5 25.9093L23.4657 21.875L27.5 17.8419ZM42.125 16.25L36.5 21.875L38.0851 23.4714L41 20.5183V30.875H23C21.7591 30.875 20.75 31.8853 20.75 33.125V36.6136C18.185 37.1356 16.25 39.4081 16.25 42.125C16.25 45.2266 18.7734 47.75 21.875 47.75C24.9766 47.75 27.5 45.2266 27.5 42.125C27.4979 40.829 27.0492 39.5734 26.2296 38.5695C25.4099 37.5656 24.2694 36.8749 23 36.6136V33.125H41C42.2409 33.125 43.25 32.1159 43.25 30.875V20.5779L46.1649 23.4714L47.75 21.875L42.125 16.25ZM25.25 42.125C25.25 43.9858 23.7358 45.5 21.875 45.5C20.0142 45.5 18.5 43.9858 18.5 42.125C18.5 40.2642 20.0142 38.75 21.875 38.75C23.7358 38.75 25.25 40.2642 25.25 42.125Z" fill="white"/>
<path d="M47.75 38.0919L46.1593 36.5L42.125 40.5354L38.0907 36.5L36.5 38.0919L40.5343 42.125L36.5 46.1593L38.0907 47.75L42.125 43.7157L46.1593 47.75L47.75 46.1593L43.7157 42.125L47.75 38.0919Z" fill="white"/>
<defs>
<linearGradient id="paint0_linear_164_4884" x1="64" y1="7.62939e-06" x2="7.62939e-06" y2="64" gradientUnits="userSpaceOnUse">
<stop stop-color="#F65A75"/>
<stop offset="1" stop-color="#48179C"/>
</linearGradient>
</defs>
</svg>
