<svg width="64" height="64" viewBox="0 0 64 64" fill="none" xmlns="http://www.w3.org/2000/svg">
<rect width="64" height="64" rx="32" fill="url(#paint0_linear_164_4837)"/>
<path d="M18.5 16.25H16.25V45.5C16.25 46.0967 16.4871 46.669 16.909 47.091C17.331 47.5129 17.9033 47.75 18.5 47.75H47.75V45.5H18.5V16.25Z" fill="white"/>
<path d="M47.75 24.125H39.875V26.375H43.9138L35.375 34.9138L30.5488 30.0762C30.4442 29.9708 30.3197 29.8871 30.1826 29.83C30.0456 29.7729 29.8985 29.7435 29.75 29.7435C29.6015 29.7435 29.4544 29.7729 29.3174 29.83C29.1803 29.8871 29.0558 29.9708 28.9512 30.0762L20.75 38.2888L22.3362 39.875L29.75 32.4612L34.5763 37.2987C34.6808 37.4042 34.8053 37.4879 34.9424 37.545C35.0794 37.6021 35.2265 37.6315 35.375 37.6315C35.5235 37.6315 35.6706 37.6021 35.8076 37.545C35.9447 37.4879 36.0692 37.4042 36.1737 37.2987L45.5 27.9612V32H47.75V24.125Z" fill="white"/>
<defs>
<linearGradient id="paint0_linear_164_4837" x1="64" y1="7.62939e-06" x2="7.62939e-06" y2="64" gradientUnits="userSpaceOnUse">
<stop stop-color="#F65A75"/>
<stop offset="1" stop-color="#48179C"/>
</linearGradient>
</defs>
</svg>
