<svg width="64" height="64" viewBox="0 0 64 64" fill="none" xmlns="http://www.w3.org/2000/svg">
<rect width="64" height="64" rx="32" fill="url(#paint0_linear_164_4869)"/>
<path d="M24.6875 35.375C23.6862 35.375 22.7075 35.6719 21.8749 36.2282C21.0424 36.7845 20.3935 37.5751 20.0104 38.5002C19.6272 39.4252 19.527 40.4431 19.7223 41.4251C19.9176 42.4072 20.3998 43.3092 21.1078 44.0172C21.8158 44.7252 22.7178 45.2074 23.6999 45.4027C24.6819 45.5981 25.6998 45.4978 26.6249 45.1146C27.5499 44.7315 28.3406 44.0826 28.8968 43.2501C29.4531 42.4176 29.75 41.4388 29.75 40.4375C29.75 39.0948 29.2166 37.8072 28.2672 36.8578C27.3178 35.9084 26.0302 35.375 24.6875 35.375ZM24.6875 43.25C24.1313 43.25 23.5875 43.0851 23.125 42.776C22.6625 42.467 22.302 42.0277 22.0891 41.5138C21.8762 40.9999 21.8205 40.4344 21.9291 39.8888C22.0376 39.3432 22.3054 38.8421 22.6988 38.4488C23.0921 38.0554 23.5933 37.7876 24.1388 37.679C24.6844 37.5705 25.2499 37.6262 25.7638 37.8391C26.2777 38.052 26.717 38.4124 27.026 38.875C27.3351 39.3375 27.5 39.8812 27.5 40.4375C27.5 40.8068 27.4273 41.1726 27.2859 41.5138C27.1446 41.855 26.9374 42.1651 26.6763 42.4262C26.4151 42.6874 26.105 42.8946 25.7638 43.0359C25.4226 43.1773 25.0569 43.25 24.6875 43.25ZM19.9541 28.9541L21.972 26.9375L19.9541 24.9209C19.743 24.7098 19.6244 24.4235 19.6244 24.125C19.6244 23.8265 19.743 23.5402 19.9541 23.3291C20.1652 23.118 20.4515 22.9994 20.75 22.9994C21.0485 22.9994 21.3349 23.118 21.546 23.3291L23.5625 25.347L25.5791 23.3291C25.7902 23.118 26.0765 22.9994 26.375 22.9994C26.6735 22.9994 26.9599 23.118 27.171 23.3291C27.382 23.5402 27.5006 23.8265 27.5006 24.125C27.5006 24.4235 27.382 24.7098 27.171 24.9209L25.153 26.9375L27.171 28.9541C27.382 29.1652 27.5006 29.4515 27.5006 29.75C27.5006 30.0485 27.382 30.3348 27.171 30.5459C26.9599 30.757 26.6735 30.8756 26.375 30.8756C26.0765 30.8756 25.7902 30.757 25.5791 30.5459L23.5625 28.528L21.546 30.5459C21.3349 30.757 21.0485 30.8756 20.75 30.8756C20.4515 30.8756 20.1652 30.757 19.9541 30.5459C19.743 30.3348 19.6244 30.0485 19.6244 29.75C19.6244 29.4515 19.743 29.1652 19.9541 28.9541ZM46.296 42.4541C46.4005 42.5586 46.4834 42.6827 46.54 42.8192C46.5965 42.9558 46.6256 43.1022 46.6256 43.25C46.6256 43.3978 46.5965 43.5442 46.54 43.6808C46.4834 43.8173 46.4005 43.9414 46.296 44.0459C46.1914 44.1505 46.0673 44.2334 45.9308 44.2899C45.7942 44.3465 45.6478 44.3756 45.5 44.3756C45.3522 44.3756 45.2058 44.3465 45.0693 44.2899C44.9327 44.2334 44.8086 44.1505 44.7041 44.0459L42.6875 42.028L40.671 44.0459C40.4599 44.257 40.1736 44.3756 39.875 44.3756C39.5765 44.3756 39.2902 44.257 39.0791 44.0459C38.868 43.8348 38.7494 43.5485 38.7494 43.25C38.7494 42.9515 38.868 42.6652 39.0791 42.4541L41.097 40.4375L39.0791 38.4209C38.868 38.2098 38.7494 37.9235 38.7494 37.625C38.7494 37.3265 38.868 37.0402 39.0791 36.8291C39.2902 36.618 39.5765 36.4994 39.875 36.4994C40.1736 36.4994 40.4599 36.618 40.671 36.8291L42.6875 38.847L44.7041 36.8291C44.9152 36.618 45.2015 36.4994 45.5 36.4994C45.7986 36.4994 46.0849 36.618 46.296 36.8291C46.507 37.0402 46.6256 37.3265 46.6256 37.625C46.6256 37.9235 46.507 38.2098 46.296 38.4209L44.278 40.4375L46.296 42.4541ZM39.9411 29.8667C39.072 33.0069 36.3805 35.7209 33.3978 36.4662C33.3086 36.4886 33.217 36.4999 33.125 36.5C32.8507 36.4995 32.586 36.3988 32.3807 36.2168C32.1755 36.0348 32.0438 35.784 32.0104 35.5117C31.9771 35.2395 32.0444 34.9644 32.1997 34.7382C32.3549 34.5121 32.5875 34.3504 32.8536 34.2838C35.0516 33.7339 37.1216 31.6245 37.7755 29.2662C38.2241 27.6491 38.2283 25.1881 35.7069 22.6709L35.375 22.3405V25.25C35.375 25.5484 35.2565 25.8345 35.0455 26.0455C34.8345 26.2565 34.5484 26.375 34.25 26.375C33.9516 26.375 33.6655 26.2565 33.4545 26.0455C33.2435 25.8345 33.125 25.5484 33.125 25.25V19.625C33.125 19.3266 33.2435 19.0405 33.4545 18.8295C33.6655 18.6185 33.9516 18.5 34.25 18.5H39.875C40.1734 18.5 40.4595 18.6185 40.6705 18.8295C40.8815 19.0405 41 19.3266 41 19.625C41 19.9234 40.8815 20.2095 40.6705 20.4205C40.4595 20.6315 40.1734 20.75 39.875 20.75H36.9655L37.296 21.0791C39.861 23.6455 40.8003 26.7659 39.9411 29.8667Z" fill="white"/>
<defs>
<linearGradient id="paint0_linear_164_4869" x1="64" y1="7.62939e-06" x2="7.62939e-06" y2="64" gradientUnits="userSpaceOnUse">
<stop stop-color="#F65A75"/>
<stop offset="1" stop-color="#48179C"/>
</linearGradient>
</defs>
</svg>
