<svg width="64" height="64" viewBox="0 0 64 64" fill="none" xmlns="http://www.w3.org/2000/svg">
<rect width="64" height="64" rx="32" fill="url(#paint0_linear_164_4890)"/>
<path d="M33.587 17.8655L21.6755 33.9755C21.5827 34.1033 21.5245 34.2529 21.5066 34.4098C21.4887 34.5667 21.5118 34.7256 21.5735 34.871C21.6322 35.0128 21.73 35.1351 21.8555 35.2235C21.9756 35.3069 22.1188 35.351 22.265 35.3495H31.244L29.8835 45.884C29.877 45.954 29.891 46.0244 29.924 46.0865C29.9547 46.1459 30.0043 46.1935 30.065 46.2215C30.126 46.2515 30.1885 46.258 30.2525 46.241C30.3161 46.2245 30.3724 46.1876 30.413 46.136L42.3245 30.0245C42.4174 29.8967 42.4755 29.7471 42.4934 29.5902C42.5113 29.4332 42.4882 29.2744 42.4265 29.129C42.3676 28.9877 42.2698 28.866 42.1445 28.778C42.0246 28.694 41.8814 28.6494 41.735 28.6505H32.756L34.1165 18.116C34.1231 18.046 34.109 17.9756 34.076 17.9135C34.0454 17.854 33.9958 17.8065 33.935 17.7785C33.8762 17.752 33.8105 17.7452 33.7475 17.759C33.684 17.7755 33.6276 17.8139 33.587 17.8655Z" stroke="white" stroke-width="2.25" stroke-linecap="round" stroke-linejoin="round"/>
<defs>
<linearGradient id="paint0_linear_164_4890" x1="64" y1="7.62939e-06" x2="7.62939e-06" y2="64" gradientUnits="userSpaceOnUse">
<stop stop-color="#F65A75"/>
<stop offset="1" stop-color="#48179C"/>
</linearGradient>
</defs>
</svg>
