<svg width="64" height="64" viewBox="0 0 64 64" fill="none" xmlns="http://www.w3.org/2000/svg">
<rect width="64" height="64" rx="32" fill="url(#paint0_linear_164_4901)"/>
<path d="M43.9325 24.005C41.5724 21.645 38.5656 20.0378 35.2922 19.3867C32.0187 18.7356 28.6257 19.0697 25.5422 20.347C22.4587 21.6242 19.8232 23.7871 17.9689 26.5622C16.1147 29.3373 15.125 32.5999 15.125 35.9375V42.125H25.25V39.875H17.375V35.9375C17.375 27.8733 23.9358 21.3125 32 21.3125C40.0642 21.3125 46.625 27.8733 46.625 35.9375V39.875H38.75V42.125H48.875V35.9375C48.8811 33.7205 48.4473 31.5244 47.5989 29.4762C46.7506 27.428 45.5044 25.5684 43.9325 24.005Z" fill="white"/>
<path d="M19.625 32.5625H21.875V34.8125H19.625V32.5625ZM30.875 23H33.125V25.25H30.875V23ZM23.5625 25.8125H25.8125V28.0625H23.5625V25.8125ZM42.125 32.5625H44.375V34.8125H42.125V32.5625ZM34.8984 37.5617L39.764 27.4246L37.7355 26.4509L32.8711 36.5854C31.7944 36.3708 30.6764 36.5564 29.7267 37.1073C28.777 37.6582 28.061 38.5367 27.7127 39.5779C27.3645 40.6191 27.408 41.7516 27.8352 42.7629C28.2623 43.7743 29.0437 44.5952 30.0329 45.0716C31.0221 45.5479 32.151 45.6471 33.2081 45.3506C34.2652 45.054 35.1778 44.382 35.7747 43.4605C36.3717 42.5391 36.6121 41.4316 36.4507 40.3456C36.2894 39.2596 35.7375 38.2698 34.8984 37.5617ZM32 43.25C31.555 43.25 31.12 43.118 30.75 42.8708C30.38 42.6236 30.0916 42.2722 29.9213 41.861C29.751 41.4499 29.7064 40.9975 29.7932 40.561C29.88 40.1246 30.0943 39.7237 30.409 39.409C30.7237 39.0943 31.1246 38.88 31.561 38.7932C31.9975 38.7064 32.4499 38.751 32.861 38.9213C33.2722 39.0916 33.6236 39.38 33.8708 39.75C34.118 40.12 34.25 40.555 34.25 41C34.2493 41.5965 34.0121 42.1684 33.5902 42.5902C33.1684 43.0121 32.5965 43.2493 32 43.25Z" fill="white"/>
<defs>
<linearGradient id="paint0_linear_164_4901" x1="64" y1="7.62939e-06" x2="7.62939e-06" y2="64" gradientUnits="userSpaceOnUse">
<stop stop-color="#F65A75"/>
<stop offset="1" stop-color="#48179C"/>
</linearGradient>
</defs>
</svg>
