<svg width="64" height="64" viewBox="0 0 64 64" fill="none" xmlns="http://www.w3.org/2000/svg">
<rect width="64" height="64" rx="32" fill="url(#paint0_linear_164_4851)"/>
<path d="M43.25 18.5H35.75C34.505 18.5 33.5 19.505 33.5 20.75V28.25C33.5 29.495 34.505 30.5 35.75 30.5H43.25C44.495 30.5 45.5 29.495 45.5 28.25V20.75C45.5 19.505 44.495 18.5 43.25 18.5ZM42.5 27.5H36.5V21.5H42.5V27.5ZM28.25 18.5H20.75C19.505 18.5 18.5 19.505 18.5 20.75V43.25C18.5 44.495 19.505 45.5 20.75 45.5H28.25C29.495 45.5 30.5 44.495 30.5 43.25V20.75C30.5 19.505 29.495 18.5 28.25 18.5ZM27.5 42.5H21.5V21.5H27.5V42.5ZM43.25 33.5H35.75C34.505 33.5 33.5 34.505 33.5 35.75V43.25C33.5 44.495 34.505 45.5 35.75 45.5H43.25C44.495 45.5 45.5 44.495 45.5 43.25V35.75C45.5 34.505 44.495 33.5 43.25 33.5ZM42.5 42.5H36.5V36.5H42.5V42.5Z" fill="white"/>
<defs>
<linearGradient id="paint0_linear_164_4851" x1="64" y1="7.62939e-06" x2="7.62939e-06" y2="64" gradientUnits="userSpaceOnUse">
<stop stop-color="#F65A75"/>
<stop offset="1" stop-color="#48179C"/>
</linearGradient>
</defs>
</svg>
