<svg width="64" height="64" viewBox="0 0 64 64" fill="none" xmlns="http://www.w3.org/2000/svg">
<rect width="64" height="64" rx="32" fill="url(#paint0_linear_135_3949)"/>
<path d="M36.5 42.692C37.7796 43.0631 39.1053 43.251 40.4375 43.25C42.5804 43.2551 44.6956 42.7664 46.619 41.822C46.623 41.736 46.625 41.6495 46.625 41.5625C46.6252 40.2393 46.2011 38.951 45.4151 37.8865C44.6292 36.8221 43.5227 36.0377 42.2581 35.6483C40.9935 35.259 39.6374 35.2854 38.3888 35.7235C37.1403 36.1616 36.0651 36.9884 35.321 38.0825M36.5 42.692V42.6875C36.5 41.018 36.0725 39.4475 35.321 38.0825M36.5 42.692V42.851C33.6138 44.5909 30.3061 45.5071 26.936 45.5C23.4395 45.5 20.168 44.5325 17.375 42.851L17.3735 42.6875C17.3724 40.5642 18.078 38.5009 19.379 36.8229C20.6801 35.1449 22.5026 33.9476 24.5593 33.4199C26.6159 32.8921 28.7898 33.0639 30.738 33.9081C32.6863 34.7524 34.2997 36.221 35.321 38.0825M32 23.5625C32 24.9052 31.4667 26.1928 30.5173 27.1422C29.5679 28.0916 28.2802 28.625 26.9375 28.625C25.5949 28.625 24.3072 28.0916 23.3578 27.1422C22.4084 26.1928 21.875 24.9052 21.875 23.5625C21.875 22.2198 22.4084 20.9322 23.3578 19.9828C24.3072 19.0334 25.5949 18.5 26.9375 18.5C28.2802 18.5 29.5679 19.0334 30.5173 19.9828C31.4667 20.9322 32 22.2198 32 23.5625ZM44.375 26.9375C44.375 27.9818 43.9602 28.9833 43.2218 29.7217C42.4833 30.4602 41.4818 30.875 40.4375 30.875C39.3932 30.875 38.3917 30.4602 37.6533 29.7217C36.9149 28.9833 36.5 27.9818 36.5 26.9375C36.5 25.8932 36.9149 24.8917 37.6533 24.1533C38.3917 23.4148 39.3932 23 40.4375 23C41.4818 23 42.4833 23.4148 43.2218 24.1533C43.9602 24.8917 44.375 25.8932 44.375 26.9375Z" stroke="white" stroke-width="2.25" stroke-linecap="round" stroke-linejoin="round"/>
<defs>
<linearGradient id="paint0_linear_135_3949" x1="64" y1="7.62939e-06" x2="7.62939e-06" y2="64" gradientUnits="userSpaceOnUse">
<stop stop-color="#F65A75"/>
<stop offset="1" stop-color="#48179C"/>
</linearGradient>
</defs>
</svg>
