<svg width="64" height="64" viewBox="0 0 64 64" fill="none" xmlns="http://www.w3.org/2000/svg">
<rect width="64" height="64" rx="32" fill="url(#paint0_linear_125_4870)"/>
<path d="M25.25 34.25H34.25V36.5H25.25V34.25ZM25.25 28.625H38.75V30.875H25.25V28.625ZM25.25 39.875H30.875V42.125H25.25V39.875Z" fill="white"/>
<path d="M42.125 19.625H38.75V18.5C38.75 17.9033 38.5129 17.331 38.091 16.909C37.669 16.4871 37.0967 16.25 36.5 16.25H27.5C26.9033 16.25 26.331 16.4871 25.909 16.909C25.4871 17.331 25.25 17.9033 25.25 18.5V19.625H21.875C21.2783 19.625 20.706 19.8621 20.284 20.284C19.8621 20.706 19.625 21.2783 19.625 21.875V45.5C19.625 46.0967 19.8621 46.669 20.284 47.091C20.706 47.5129 21.2783 47.75 21.875 47.75H42.125C42.7217 47.75 43.294 47.5129 43.716 47.091C44.1379 46.669 44.375 46.0967 44.375 45.5V21.875C44.375 21.2783 44.1379 20.706 43.716 20.284C43.294 19.8621 42.7217 19.625 42.125 19.625ZM27.5 18.5H36.5V23H27.5V18.5ZM42.125 45.5H21.875V21.875H25.25V25.25H38.75V21.875H42.125V45.5Z" fill="white"/>
<defs>
<linearGradient id="paint0_linear_125_4870" x1="64" y1="7.62939e-06" x2="7.62939e-06" y2="64" gradientUnits="userSpaceOnUse">
<stop stop-color="#F65A75"/>
<stop offset="1" stop-color="#48179C"/>
</linearGradient>
</defs>
</svg>
