<svg width="64" height="64" viewBox="0 0 64 64" fill="none" xmlns="http://www.w3.org/2000/svg">
<rect width="64" height="64" rx="32" fill="url(#paint0_linear_135_4016)"/>
<path d="M18.125 32H33.875M33.875 32C33.875 32.9946 34.2701 33.9484 34.9733 34.6517C35.6766 35.3549 36.6304 35.75 37.625 35.75C38.6196 35.75 39.5734 35.3549 40.2767 34.6517C40.9799 33.9484 41.375 32.9946 41.375 32M33.875 32C33.875 31.0054 34.2701 30.0516 34.9733 29.3483C35.6766 28.6451 36.6304 28.25 37.625 28.25C38.6196 28.25 39.5734 28.6451 40.2767 29.3483C40.9799 30.0516 41.375 31.0054 41.375 32M41.375 32H45.875M25.625 21.875H45.875M25.625 21.875C25.625 22.8696 25.2299 23.8234 24.5267 24.5267C23.8234 25.2299 22.8696 25.625 21.875 25.625C20.8804 25.625 19.9266 25.2299 19.2233 24.5267C18.5201 23.8234 18.125 22.8696 18.125 21.875C18.125 20.8804 18.5201 19.9266 19.2233 19.2233C19.9266 18.5201 20.8804 18.125 21.875 18.125C22.8696 18.125 23.8234 18.5201 24.5267 19.2233C25.2299 19.9266 25.625 20.8804 25.625 21.875ZM18.125 42.125H22.625M22.625 42.125C22.625 43.1196 23.0201 44.0734 23.7233 44.7767C24.4266 45.4799 25.3804 45.875 26.375 45.875C27.3696 45.875 28.3234 45.4799 29.0267 44.7767C29.7299 44.0734 30.125 43.1196 30.125 42.125M22.625 42.125C22.625 41.1304 23.0201 40.1766 23.7233 39.4733C24.4266 38.7701 25.3804 38.375 26.375 38.375C27.3696 38.375 28.3234 38.7701 29.0267 39.4733C29.7299 40.1766 30.125 41.1304 30.125 42.125M30.125 42.125H45.875" stroke="white" stroke-width="2.25" stroke-linecap="round" stroke-linejoin="round"/>
<defs>
<linearGradient id="paint0_linear_135_4016" x1="64" y1="7.62939e-06" x2="7.62939e-06" y2="64" gradientUnits="userSpaceOnUse">
<stop stop-color="#F65A75"/>
<stop offset="1" stop-color="#48179C"/>
</linearGradient>
</defs>
</svg>
