<svg width="64" height="64" viewBox="0 0 64 64" fill="none" xmlns="http://www.w3.org/2000/svg">
<rect width="64" height="64" rx="32" fill="url(#paint0_linear_135_4004)"/>
<path d="M30.1029 26.5816H19.5147C19.0467 26.5816 18.5978 26.7676 18.2669 27.0985C17.9359 27.4295 17.75 27.8783 17.75 28.3464V35.4052C17.75 35.8732 17.9359 36.3221 18.2669 36.653C18.5978 36.984 19.0467 37.1699 19.5147 37.1699H30.1029M30.1029 26.5816V37.1699M30.1029 26.5816L39.6659 19.7522C39.9295 19.564 40.2399 19.452 40.5629 19.4285C40.886 19.405 41.2093 19.4708 41.4974 19.6188C41.7855 19.7667 42.0274 19.9912 42.1965 20.2675C42.3655 20.5438 42.4553 20.8613 42.4559 21.1852V42.5628C42.4559 42.887 42.3666 43.205 42.1978 43.4818C42.029 43.7586 41.7872 43.9835 41.499 44.132C41.2107 44.2804 40.8872 44.3465 40.5638 44.3231C40.2404 44.2997 39.9298 44.1877 39.6659 43.9993L30.1029 37.1699M42.4559 37.1699C43.86 37.1699 45.2066 36.6121 46.1994 35.6193C47.1922 34.6264 47.75 33.2799 47.75 31.8758C47.75 30.4717 47.1922 29.1251 46.1994 28.1323C45.2066 27.1394 43.86 26.5816 42.4559 26.5816M21.2794 37.1699H26.5735V45.9934H21.2794V37.1699Z" stroke="white" stroke-width="2.35294" stroke-linecap="round" stroke-linejoin="round"/>
<defs>
<linearGradient id="paint0_linear_135_4004" x1="64" y1="7.62939e-06" x2="7.62939e-06" y2="64" gradientUnits="userSpaceOnUse">
<stop stop-color="#F65A75"/>
<stop offset="1" stop-color="#48179C"/>
</linearGradient>
</defs>
</svg>
