<svg width="64" height="64" viewBox="0 0 64 64" fill="none" xmlns="http://www.w3.org/2000/svg">
<rect width="64" height="64" rx="32" fill="url(#paint0_linear_135_3990)"/>
<path d="M32 17C32.563 17 33.118 17.0305 33.665 17.0915C33.8608 17.1132 34.0504 17.1732 34.223 17.2681C34.3956 17.3631 34.5478 17.4911 34.671 17.6449C34.7941 17.7987 34.8857 17.9752 34.9406 18.1644C34.9956 18.3535 35.0127 18.5517 34.991 18.7475C34.9693 18.9433 34.9093 19.1329 34.8144 19.3055C34.7194 19.4781 34.5914 19.6303 34.4376 19.7535C34.2838 19.8766 34.1073 19.9682 33.9181 20.0231C33.729 20.0781 33.5308 20.0952 33.335 20.0735C30.8631 19.797 28.3663 20.2954 26.19 21.4999C24.0137 22.7044 22.2655 24.5553 21.1872 26.7968C20.1089 29.0383 19.7537 31.5594 20.1708 34.0115C20.588 36.4637 21.7568 38.7256 23.5156 40.4844C25.2744 42.2432 27.5363 43.412 29.9885 43.8292C32.4406 44.2463 34.9617 43.8911 37.2032 42.8128C39.4447 41.7345 41.2956 39.9863 42.5001 37.81C43.7046 35.6337 44.203 33.1369 43.9265 30.665C43.9048 30.4692 43.9219 30.271 43.9769 30.0819C44.0318 29.8927 44.1234 29.7162 44.2465 29.5624C44.4952 29.2518 44.8571 29.0528 45.2525 29.009C45.6479 28.9652 46.0446 29.0804 46.3551 29.329C46.5089 29.4522 46.6369 29.6044 46.7319 29.777C46.8268 29.9496 46.8868 30.1392 46.9085 30.335C46.9685 30.882 46.999 31.437 47 32C47 40.2845 40.2845 47 32 47C23.7155 47 17 40.2845 17 32C17 23.7155 23.7155 17 32 17ZM31.952 25.8155C32.0509 26.2006 31.9928 26.6092 31.7906 26.9515C31.5883 27.2938 31.2585 27.5418 30.8735 27.641C29.8158 27.9181 28.8951 28.5705 28.2831 29.4766C27.6711 30.3826 27.4096 31.4804 27.5476 32.565C27.6855 33.6497 28.2133 34.6471 29.0326 35.3712C29.8519 36.0952 30.9066 36.4965 32 36.5C32.998 36.5004 33.9677 36.1691 34.7568 35.5581C35.5459 34.9472 36.1095 34.0913 36.359 33.125C36.4653 32.7475 36.7152 32.4267 37.0552 32.2313C37.3952 32.0358 37.7982 31.9813 38.1779 32.0793C38.5576 32.1774 38.8838 32.4203 39.0866 32.7559C39.2894 33.0915 39.3528 33.4933 39.263 33.875C38.8028 35.6389 37.7163 37.1749 36.2062 38.1962C34.6962 39.2174 32.866 39.6539 31.0576 39.4243C29.2492 39.1946 27.5863 38.3144 26.3795 36.9481C25.1727 35.5818 24.5046 33.8229 24.5 32C24.4997 30.3371 25.0522 28.7212 26.0704 27.4065C27.0886 26.0918 28.5149 25.1527 30.125 24.737C30.3158 24.6878 30.5144 24.6767 30.7094 24.7043C30.9045 24.7319 31.0922 24.7976 31.2619 24.8978C31.4316 24.998 31.5798 25.1305 31.6982 25.288C31.8166 25.4455 31.9029 25.6247 31.952 25.8155ZM41.756 17.1905C42.0298 17.304 42.2638 17.4961 42.4285 17.7425C42.5933 17.9889 42.6813 18.2786 42.6815 18.575V21.32H45.425C45.7216 21.3201 46.0116 21.4081 46.2582 21.5729C46.5048 21.7377 46.697 21.972 46.8105 22.246C46.924 22.5201 46.9537 22.8216 46.8959 23.1125C46.838 23.4035 46.6952 23.6707 46.4855 23.8805L41.18 29.18C40.8988 29.4613 40.5173 29.6194 40.1195 29.6195H36.5L33.758 32.363C33.4765 32.6445 33.0948 32.8026 32.6968 32.8026C32.2987 32.8026 31.917 32.6445 31.6355 32.363C31.354 32.0815 31.1959 31.6998 31.1959 31.3018C31.1959 30.9037 31.354 30.522 31.6355 30.2405L34.379 27.5V23.879C34.3791 23.4812 34.5372 23.0997 34.8185 22.8185L40.121 17.5145C40.3308 17.3046 40.5981 17.1616 40.8891 17.1037C41.1802 17.0458 41.4818 17.0754 41.756 17.189M39.6815 22.1945L37.379 24.5V26.621H39.5L41.804 24.3185H41.1815C40.7837 24.3185 40.4021 24.1605 40.1208 23.8792C39.8395 23.5979 39.6815 23.2163 39.6815 22.8185V22.1945Z" fill="white"/>
<defs>
<linearGradient id="paint0_linear_135_3990" x1="64" y1="7.62939e-06" x2="7.62939e-06" y2="64" gradientUnits="userSpaceOnUse">
<stop stop-color="#F65A75"/>
<stop offset="1" stop-color="#48179C"/>
</linearGradient>
</defs>
</svg>
