<svg width="64" height="64" viewBox="0 0 64 64" fill="none" xmlns="http://www.w3.org/2000/svg">
<rect width="64" height="64" rx="32" fill="url(#paint0_linear_125_4903)"/>
<path d="M26.8312 38.4964H19.3426C18.3188 38.4964 17.4695 37.73 17.3696 36.7119L16.3712 26.7497H37.0364L37.0266 26.8987C37.0041 27.2123 37.2403 27.4838 37.5539 27.5063C37.8605 27.5189 38.1389 27.2925 38.1614 26.9789L38.1783 26.7384C38.8561 26.6794 39.3905 26.1154 39.3905 25.4236V23.9076C39.3905 23.1764 38.7957 22.5815 38.0644 22.5815H28.7801V17.0841C28.7801 15.9352 27.8449 15 26.696 15C25.5471 15 24.6119 15.9352 24.6119 17.0841V22.5786L15.3261 22.58C14.5949 22.58 14 23.1748 14 23.9061V25.4221C14 26.1196 14.5428 26.6877 15.2277 26.7384L16.2388 36.823C16.3963 38.4247 17.7323 39.6327 19.3425 39.6327H26.8311C27.1447 39.6327 27.3992 39.3782 27.3992 39.0646C27.3992 38.751 27.1448 38.4964 26.8312 38.4964ZM25.7484 17.0841C25.7484 16.561 26.1731 16.1363 26.6962 16.1363C27.2193 16.1363 27.644 16.561 27.644 17.0841V22.5786H25.7498L25.7484 17.0841ZM15.1364 23.906C15.1364 23.8019 15.2221 23.7161 15.3262 23.7161H38.063C38.167 23.7161 38.2528 23.8019 38.2528 23.906V25.4219C38.2528 25.526 38.167 25.6118 38.063 25.6118H15.3262C15.2221 25.6118 15.1364 25.526 15.1364 25.4219V23.906ZM21.9089 28.9137C22.2225 28.9137 22.477 29.1682 22.477 29.4818V35.8637C22.477 36.1773 22.2225 36.4318 21.9089 36.4318C21.5953 36.4318 21.3407 36.1773 21.3407 35.8637V29.4818C21.3407 29.1682 21.5953 28.9137 21.9089 28.9137ZM25.0997 28.9137C25.4133 28.9137 25.6679 29.1682 25.6679 29.4818V35.8637C25.6679 36.1773 25.4133 36.4318 25.0997 36.4318C24.7861 36.4318 24.5316 36.1773 24.5316 35.8637V29.4818C24.5316 29.1682 24.7861 28.9137 25.0997 28.9137ZM28.2948 35.9184C27.9812 35.9184 27.7267 35.6639 27.7267 35.3503V29.4846C27.7267 29.171 27.9812 28.9165 28.2948 28.9165C28.6084 28.9165 28.8629 29.171 28.8629 29.4846V35.3503C28.8629 35.6639 28.6084 35.9184 28.2948 35.9184ZM31.4857 28.9166C31.7993 28.9166 32.0538 29.1711 32.0538 29.4847V33.5251C32.0538 33.8387 31.7993 34.0932 31.4857 34.0932C31.1721 34.0932 30.9176 33.8387 30.9176 33.5251V29.4847C30.9176 29.1711 31.1721 28.9166 31.4857 28.9166ZM44.9338 36.5625L45.0407 36.4935C45.4724 36.2095 45.7959 35.7819 45.9534 35.2869C46.1095 34.7933 46.0912 34.2589 45.9056 33.7808C45.5217 32.7908 44.4825 32.1945 43.4348 32.3647L43.311 32.3844L41.8119 28.5269C41.6333 28.067 41.2859 27.7056 40.8359 27.5073C40.3845 27.309 39.8825 27.2978 39.4254 27.4764C38.5592 27.8125 38.0993 28.735 38.3046 29.6139C37.8391 30.7797 37.2077 31.864 36.416 32.8315C35.8239 33.5543 35.1447 34.204 34.4021 34.7778C34.3459 34.7398 34.2995 34.6906 34.2362 34.6625C33.9409 34.5331 33.6118 34.5247 33.3123 34.6428L30.9342 35.5667C29.0034 36.3177 28.0429 38.4988 28.7924 40.4297C29.1553 41.3649 29.8626 42.1046 30.7809 42.5082C31.2661 42.722 31.7794 42.8288 32.2941 42.8288C32.5669 42.8288 32.8383 42.7895 33.1069 42.729L35.2304 48.1939C35.5145 48.9224 36.212 49.3696 36.9517 49.3696C37.1739 49.3696 37.3989 49.3302 37.6183 49.2444C38.5661 48.876 39.0372 47.8044 38.6688 46.858L36.5101 41.303C36.6325 41.1596 36.7211 40.9922 36.7661 40.8108C37.6942 40.7335 38.6266 40.7546 39.5449 40.8896C40.7824 41.0696 41.9792 41.4422 43.1112 41.9865C43.3053 42.3338 43.5992 42.6123 43.9705 42.7768C44.2081 42.8809 44.4599 42.9343 44.713 42.9343C44.9394 42.9343 45.1658 42.8935 45.381 42.8091C46.3288 42.4407 46.7999 41.3705 46.4329 40.4227L44.9338 36.5652L44.9338 36.5625ZM44.8453 34.1929C44.9381 34.4305 44.9465 34.6977 44.8692 34.9438C44.8031 35.1505 44.6695 35.3235 44.5049 35.4599L43.7399 33.4897C44.218 33.4672 44.6695 33.7386 44.8467 34.1942L44.8453 34.1929ZM31.2394 41.4676C30.5996 41.1849 30.106 40.6716 29.8528 40.0177C29.5983 39.3652 29.6151 38.6522 29.8964 38.0124C30.1791 37.3725 30.6937 36.8789 31.3463 36.6257L33.7243 35.7018C33.7257 35.7018 33.8143 35.7412 33.8143 35.7412L35.6622 40.4973C35.6748 40.5324 35.6579 40.5732 35.6228 40.5873L33.2447 41.5112C32.5922 41.7657 31.8792 41.7503 31.2394 41.4662L31.2394 41.4676ZM37.2062 48.1839C36.8378 48.3245 36.4314 48.1431 36.2907 47.7817L34.1869 42.3661L35.506 41.8542L37.6098 47.2684C37.7518 47.6312 37.5704 48.0432 37.2076 48.1839L37.2062 48.1839ZM39.7094 39.7629C39.0724 39.6701 38.4283 39.6237 37.7856 39.6237C37.3792 39.6237 36.9713 39.642 36.5649 39.6786L35.0321 35.7339C35.8702 35.0955 36.6296 34.3628 37.2948 33.55C37.9051 32.8018 38.4311 31.9946 38.867 31.1354L42.4995 40.4816C41.5967 40.1413 40.6629 39.9008 39.7095 39.7616L39.7094 39.7629ZM44.9688 41.7458C44.7916 41.8147 44.6003 41.8105 44.4273 41.7345C44.2544 41.6586 44.1222 41.5194 44.0533 41.3436L39.4322 29.4536C39.3633 29.2778 39.3675 29.0851 39.4434 28.9122C39.5194 28.7392 39.6586 28.6056 39.8344 28.5381C39.9173 28.5057 40.0045 28.4889 40.0917 28.4889C40.1873 28.4889 40.2844 28.5099 40.3758 28.5493C40.5488 28.6253 40.6824 28.7645 40.7499 28.9403L45.371 40.8317C45.513 41.1945 45.3316 41.6066 44.9673 41.7472L44.9688 41.7458ZM47.1583 33.8609C46.9305 33.8609 46.7154 33.7231 46.6282 33.4981C46.5143 33.2055 46.6605 32.8765 46.953 32.7626L48.7362 32.0692C49.0273 31.9581 49.3578 32.1002 49.4717 32.3941C49.5856 32.6866 49.4393 33.0157 49.1468 33.1296L47.3637 33.8229C47.2962 33.8482 47.2273 33.8609 47.1583 33.8609ZM44.9406 31.1453C44.6987 30.9442 44.6678 30.5856 44.8689 30.3451L46.0966 28.877C46.2991 28.6351 46.6577 28.6041 46.8968 28.8052C47.1387 29.0063 47.1696 29.365 46.9685 29.6054L45.7408 31.0736C45.6283 31.2086 45.4666 31.2775 45.3049 31.2775C45.1755 31.2775 45.0461 31.2339 44.9406 31.1453ZM49.9948 36.7816C49.9568 37.0671 49.7121 37.2752 49.4323 37.2752C49.407 37.2752 49.3817 37.2738 49.3563 37.2696L47.4607 37.0151C47.1485 36.9743 46.9305 36.6874 46.9727 36.3766C47.0149 36.0644 47.3046 35.8408 47.6111 35.8886L49.5068 36.1432C49.819 36.184 50.037 36.4709 49.9948 36.7816Z" fill="white"/>
<defs>
<linearGradient id="paint0_linear_125_4903" x1="64" y1="7.62939e-06" x2="7.62939e-06" y2="64" gradientUnits="userSpaceOnUse">
<stop stop-color="#F65A75"/>
<stop offset="1" stop-color="#48179C"/>
</linearGradient>
</defs>
</svg>
