<svg width="64" height="64" viewBox="0 0 64 64" fill="none" xmlns="http://www.w3.org/2000/svg">
<rect width="64" height="64" rx="32" fill="url(#paint0_linear_134_3877)"/>
<path d="M33.4595 38.7061C31.7984 38.7061 30.2652 37.8123 29.4561 36.4011H25.0665C24.7039 36.4011 24.359 36.2627 24.0948 36.0117L23.6635 35.6024C23.5542 35.503 23.3763 35.5035 23.2587 35.614L23.1895 35.6832C22.6242 36.2094 21.769 36.2083 21.229 35.6925L21.1274 35.5909C21.0296 35.5035 20.8505 35.503 20.7384 35.609L20.6203 35.7194C20.1182 36.2094 19.2849 36.2347 18.7301 35.7694L18.0122 35.1509C17.7013 34.8817 17.5205 34.4922 17.5167 34.083C17.5123 33.6749 17.6842 33.2838 17.988 33.0102L19.0086 32.111C19.2729 31.8863 19.6041 31.766 19.9491 31.766H29.4726C30.2817 30.3592 31.8094 29.4688 33.4595 29.4688C36.01 29.4688 38.0853 31.5441 38.0853 34.0951C38.0853 36.6373 36.01 38.7061 33.4595 38.7061ZM23.4724 34.4049C23.8152 34.4049 24.1557 34.5296 24.4287 34.7779L24.8693 35.1959C24.9259 35.2492 24.9918 35.2761 25.0665 35.2761H29.7972C30.0153 35.2761 30.2136 35.4019 30.3064 35.5997C30.8717 36.8032 32.1093 37.5811 33.4595 37.5811C35.3898 37.5811 36.9603 36.0172 36.9603 34.0951C36.9603 32.1642 35.3898 30.5938 33.4595 30.5938C32.1197 30.5938 30.8876 31.3688 30.3213 32.5685C30.2284 32.7652 30.0301 32.891 29.8126 32.891H19.9491C19.8733 32.891 19.7969 32.9174 19.7453 32.9619L18.7362 33.8506C18.6532 33.9248 18.6411 34.0215 18.6417 34.0715C18.6422 34.1226 18.6565 34.2203 18.7477 34.2989L19.4596 34.9125C19.5695 35.0059 19.7453 35.0031 19.8441 34.9053L19.9672 34.7905C20.4995 34.283 21.3515 34.2758 21.9041 34.7779L22.0156 34.8889C22.115 34.9833 22.2919 34.9822 22.4084 34.874L22.4776 34.8043C22.7638 34.5373 23.1192 34.4049 23.4724 34.4049Z" fill="white"/>
<path d="M33.5848 42.0854C31.5347 42.0854 29.4841 41.3048 27.9235 39.7442C26.8771 38.6978 26.1443 37.3926 25.8043 35.9704C25.7642 35.8029 25.8032 35.6265 25.9097 35.4914C26.0163 35.3563 26.1794 35.2772 26.3514 35.2772H29.795C30.012 35.2772 30.2103 35.4024 30.3032 35.5985C30.875 36.8037 32.1126 37.5826 33.4557 37.5826C35.3871 37.5826 36.9587 36.0176 36.9587 34.0934C36.9587 32.162 35.3871 30.5904 33.4557 30.5904C32.1219 30.5904 30.8898 31.3666 30.3169 32.5685C30.2235 32.764 30.0263 32.8887 29.8093 32.8887H26.3585C26.0476 32.8887 25.796 32.6371 25.796 32.3262C25.796 32.2466 25.8103 32.1631 25.8389 32.0779C26.1855 30.7145 26.9133 29.4385 27.9318 28.4266C31.0491 25.3104 36.1215 25.3109 39.2389 28.4283C42.3607 31.55 42.364 36.6263 39.246 39.7442C37.6854 41.3048 35.6348 42.0854 33.5848 42.0854ZM27.1039 36.4022C27.4423 37.3525 27.9927 38.2226 28.7189 38.9488C31.4018 41.6317 35.7678 41.6317 38.4506 38.9488C41.1296 36.2698 41.1263 31.9071 38.4435 29.2237C35.7639 26.5452 31.4056 26.5452 28.7261 29.2237C28.0059 29.9389 27.4555 30.8074 27.1111 31.7637H29.4704C30.285 30.3564 31.8121 29.4654 33.4557 29.4654C36.0078 29.4654 38.0837 31.5413 38.0837 34.0934C38.0837 36.6378 36.0078 38.7076 33.4557 38.7076C31.8028 38.7076 30.2702 37.8134 29.4556 36.4022H27.1039Z" fill="white"/>
<path d="M39.5691 42.9307C39.4251 42.9307 39.2812 42.8757 39.1714 42.7659L37.1729 40.768C37.0521 40.6472 36.9928 40.478 37.0114 40.3082C37.0307 40.1385 37.1257 39.9863 37.2702 39.8946C37.6937 39.6271 38.0793 39.3173 38.4495 38.947C38.8148 38.5817 39.1313 38.1873 39.3905 37.7748C39.4817 37.6298 39.6339 37.5342 39.8036 37.5149C39.9761 37.4968 40.1436 37.5556 40.2645 37.6764L42.2629 39.6743C42.3684 39.7798 42.4277 39.9226 42.4277 40.072C42.4277 40.2214 42.3684 40.3643 42.2629 40.4697L39.9668 42.7659C39.8569 42.8757 39.713 42.9307 39.5691 42.9307ZM38.443 40.4466L39.5691 41.5727L41.0698 40.072L39.9437 38.9465C39.7322 39.2228 39.4982 39.4892 39.245 39.7424C38.9906 39.9968 38.722 40.2324 38.443 40.4466Z" fill="white"/>
<path d="M44.2563 47.6948C43.5043 47.6948 42.7517 47.4086 42.1788 46.8357L39.1647 43.821C38.9186 43.575 38.7834 43.2481 38.7834 42.9004C38.7834 42.5527 38.9186 42.2258 39.1647 41.9797L41.4784 39.666C41.9706 39.1738 42.8275 39.1738 43.3197 39.666L46.3344 42.6801C47.4802 43.826 47.4802 45.6898 46.3344 46.8357C45.7614 47.4086 45.0088 47.6948 44.2563 47.6948ZM42.399 40.4098C42.3535 40.4098 42.3084 40.4268 42.2738 40.4614L39.9601 42.7751C39.8909 42.8444 39.8909 42.9564 39.9601 43.0256L42.9742 46.0403C43.6817 46.7467 44.8314 46.7467 45.5389 46.0403C46.2459 45.3333 46.2459 44.1825 45.5389 43.4755L42.5243 40.4614C42.4897 40.4268 42.4446 40.4098 42.399 40.4098Z" fill="white"/>
<path d="M47.1611 44.78H46.6327C46.3218 44.78 46.0702 44.5284 46.0702 44.2175C46.0702 43.9066 46.3218 43.655 46.6327 43.655H47.1611C48.1021 43.655 48.8673 42.8865 48.8673 41.9417V19.8306C48.8673 18.8902 48.1021 18.125 47.1611 18.125H16.8389C15.894 18.125 15.125 18.8902 15.125 19.8306V41.9417C15.125 42.8865 15.894 43.655 16.8389 43.655H40.0793C40.3903 43.655 40.6418 43.9066 40.6418 44.2175C40.6418 44.5284 40.3903 44.78 40.0793 44.78H16.8389C15.2733 44.78 14 43.5067 14 41.9417V19.8306C14 18.27 15.2733 17 16.8389 17H47.1611C48.7223 17 49.9923 18.27 49.9923 19.8306V41.9417C49.9923 43.5067 48.7223 44.78 47.1611 44.78Z" fill="white"/>
<path d="M49.4375 24.4592H14.5625C14.2516 24.4592 14 24.2076 14 23.8967V19.8306C14 18.27 15.2733 17 16.8389 17H47.1611C48.7267 17 50 18.2733 50 19.8383V23.8967C50 24.2076 49.7484 24.4592 49.4375 24.4592ZM15.125 23.3342H48.875V19.8383C48.875 18.8935 48.106 18.125 47.1611 18.125H16.8389C15.894 18.125 15.125 18.8902 15.125 19.8306V23.3342Z" fill="white"/>
<path d="M18.3776 21.291H18.0776C17.7667 21.291 17.5151 21.0394 17.5151 20.7285C17.5151 20.4176 17.7667 20.166 18.0776 20.166H18.3776C18.6885 20.166 18.9401 20.4176 18.9401 20.7285C18.9401 21.0394 18.6885 21.291 18.3776 21.291Z" fill="white"/>
<path d="M21.3422 21.291H21.0422C20.7313 21.291 20.4797 21.0394 20.4797 20.7285C20.4797 20.4176 20.7313 20.166 21.0422 20.166H21.3422C21.6531 20.166 21.9047 20.4176 21.9047 20.7285C21.9047 21.0394 21.6531 21.291 21.3422 21.291Z" fill="white"/>
<path d="M24.3068 21.291H24.0068C23.6959 21.291 23.4443 21.0394 23.4443 20.7285C23.4443 20.4176 23.6959 20.166 24.0068 20.166H24.3068C24.6177 20.166 24.8693 20.4176 24.8693 20.7285C24.8693 21.0394 24.6177 21.291 24.3068 21.291Z" fill="white"/>
<path d="M45.6072 21.291H36.3545C36.0436 21.291 35.792 21.0394 35.792 20.7285C35.792 20.4176 36.0436 20.166 36.3545 20.166H45.6072C45.9181 20.166 46.1697 20.4176 46.1697 20.7285C46.1697 21.0394 45.9181 21.291 45.6072 21.291Z" fill="white"/>
<defs>
<linearGradient id="paint0_linear_134_3877" x1="64" y1="7.62939e-06" x2="7.62939e-06" y2="64" gradientUnits="userSpaceOnUse">
<stop stop-color="#F65A75"/>
<stop offset="1" stop-color="#48179C"/>
</linearGradient>
</defs>
</svg>
