<svg width="64" height="64" viewBox="0 0 64 64" fill="none" xmlns="http://www.w3.org/2000/svg">
<rect width="64" height="64" rx="32" fill="url(#paint0_linear_135_3954)"/>
<path d="M45.2222 19C47.3 19 49 20.6714 49 22.7143V41.2857C49 43.3286 47.3 45 45.2222 45H18.7778C16.7 45 15 43.3286 15 41.2857V22.7143C15 20.6714 16.7 19 18.7778 19H45.2222ZM18.7778 21.7857C18.2111 21.7857 17.8333 22.1571 17.8333 22.7143V41.2857C17.8333 41.8429 18.2111 42.2143 18.7778 42.2143H45.2222C45.7889 42.2143 46.1667 41.8429 46.1667 41.2857V22.7143C46.1667 22.1571 45.7889 21.7857 45.2222 21.7857H18.7778ZM37.1642 26.4286C38.0633 26.4286 38.7874 26.5852 39.3364 26.8984C39.8867 27.2042 40.2891 27.7242 40.5434 28.4584C40.7953 29.1901 40.9212 30.1868 40.9212 31.4484V33.5841C40.9212 34.0819 40.9439 34.4948 40.9892 34.8229C41.0396 35.1423 41.1479 35.3837 41.3141 35.5471C41.4879 35.7044 41.763 35.783 42.1396 35.783H42.336L42.03 37.3207H41.8789C41.2493 37.3207 40.7607 37.2607 40.4131 37.1406C40.1071 37.0418 39.8359 36.8595 39.6311 36.615C39.4321 36.3597 39.2676 36.08 39.1419 35.783C38.744 36.2374 38.273 36.6076 37.729 36.8936C37.1875 37.1783 36.5724 37.3207 35.8836 37.3207C35.2237 37.3207 34.6482 37.1889 34.1571 36.9251C33.6799 36.6767 33.2813 36.3041 33.0049 35.848C32.7318 35.3725 32.5929 34.834 32.6026 34.288C32.6026 33.6974 32.7329 33.1917 32.9936 32.7707C33.2618 32.3436 33.6169 31.992 34.0589 31.7159C34.5084 31.4311 35.0084 31.2064 35.5587 31.0417C36.109 30.8696 36.6769 30.7483 37.2624 30.6777C37.8556 30.601 38.4235 30.5589 38.9662 30.5514C38.9662 29.5548 38.7679 28.9029 38.3712 28.5959C37.9733 28.29 37.3972 28.1371 36.6429 28.1371C36.245 28.1371 35.8181 28.1978 35.3622 28.3191C34.9139 28.4392 34.4071 28.6918 33.8417 29.0769L33.5583 27.5169C34.0424 27.1704 34.5827 26.9073 35.1563 26.7387C35.8046 26.5312 36.4824 26.4265 37.1642 26.4286ZM26.0632 29.5281H27.9578L29.0722 26.6849H30.3737L29.2687 29.5263H30.9649L30.4946 30.8764H28.753L28.1164 32.4847H30.0412L29.3726 33.9203H27.5554L26.2691 37.2706H24.945L26.2483 33.9203H24.3613L23.0523 37.2706H21.749L23.0429 33.9203H21.2333L21.8756 32.4847H23.6039L24.2329 30.8764H22.3553L22.8162 29.5281H24.7467L25.8687 26.6849H27.1777L26.0632 29.5281ZM38.9681 31.8756C37.9317 31.9115 37.0912 32.0105 36.4464 32.1727C35.8093 32.3374 35.3433 32.5831 35.0487 32.91C34.7515 33.2381 34.6029 33.6621 34.6029 34.1821C34.6029 34.7442 34.7546 35.1528 35.0581 35.4079C35.3704 35.658 35.7683 35.783 36.2519 35.783C36.7732 35.783 37.2769 35.6549 37.763 35.3986C38.2541 35.1423 38.6552 34.8006 38.9662 34.3734L38.9681 31.8756ZM24.9129 32.4847H26.8018L27.444 30.8764H25.5551L24.9129 32.4847Z" fill="white"/>
<defs>
<linearGradient id="paint0_linear_135_3954" x1="64" y1="7.62939e-06" x2="7.62939e-06" y2="64" gradientUnits="userSpaceOnUse">
<stop stop-color="#F65A75"/>
<stop offset="1" stop-color="#48179C"/>
</linearGradient>
</defs>
</svg>
