<svg width="64" height="64" viewBox="0 0 64 64" fill="none" xmlns="http://www.w3.org/2000/svg">
<rect width="64" height="64" rx="32" fill="url(#paint0_linear_135_3970)"/>
<g clip-path="url(#clip0_135_3970)">
<path d="M15.2856 22.9994H48.7142M46.1428 15.2852H17.8571C17.1751 15.2852 16.521 15.5561 16.0388 16.0383C15.5566 16.5205 15.2856 17.1746 15.2856 17.8566V46.1423C15.2856 46.8243 15.5566 47.4783 16.0388 47.9606C16.521 48.4428 17.1751 48.7137 17.8571 48.7137H46.1428C46.8248 48.7137 47.4788 48.4428 47.9611 47.9606C48.4433 47.4783 48.7142 46.8243 48.7142 46.1423V17.8566C48.7142 17.1746 48.4433 16.5205 47.9611 16.0383C47.4788 15.5561 46.8248 15.2852 46.1428 15.2852Z" stroke="white" stroke-width="2.57143" stroke-linecap="round" stroke-linejoin="round"/>
<path d="M24.2856 37.1415L29.4285 40.9986L38.4285 30.7129" stroke="white" stroke-width="2.57143" stroke-linecap="round" stroke-linejoin="round"/>
</g>
<defs>
<linearGradient id="paint0_linear_135_3970" x1="64" y1="7.62939e-06" x2="7.62939e-06" y2="64" gradientUnits="userSpaceOnUse">
<stop stop-color="#F65A75"/>
<stop offset="1" stop-color="#48179C"/>
</linearGradient>
<clipPath id="clip0_135_3970">
<rect width="36" height="36" fill="white" transform="translate(14 14)"/>
</clipPath>
</defs>
</svg>
