<svg width="64" height="64" viewBox="0 0 64 64" fill="none" xmlns="http://www.w3.org/2000/svg">
<rect width="64" height="64" rx="32" fill="url(#paint0_linear_134_3880)"/>
<path d="M41.307 43.6051L37.8836 40.1817C37.7205 40.0186 37.4572 40.0186 37.2952 40.1817L37.2232 40.2537L36.4031 39.4336C38.0715 37.2578 37.9173 34.1224 35.9261 32.1312C33.7604 29.9667 30.2381 29.9667 28.0736 32.1312C25.9091 34.2979 25.9091 37.8192 28.0736 39.9848C30.0648 41.9772 33.2002 42.1291 35.3748 40.4607L36.1961 41.2808L36.1218 41.3539C35.9587 41.5171 35.9587 41.7803 36.1218 41.9401L39.5452 45.3657C39.7095 45.5266 39.9716 45.5266 40.1336 45.3657L41.307 44.1901C41.4701 44.0292 41.4701 43.7682 41.307 43.6051ZM35.1926 39.2524C33.4331 41.0119 30.5677 41.0119 28.8071 39.2524C27.0476 37.4907 27.0476 34.6276 28.8071 32.8647C30.5666 31.1063 33.4319 31.1063 35.1926 32.8647C36.9532 34.6276 36.9532 37.4896 35.1926 39.2524Z" fill="white"/>
<path d="M47.7388 38.2627C48.9876 38.2627 50 37.2503 50 36.0015C50 34.7526 48.9876 33.7402 47.7388 33.7402C46.4899 33.7402 45.4775 34.7526 45.4775 36.0015C45.4775 37.2503 46.4899 38.2627 47.7388 38.2627Z" fill="white"/>
<path d="M44.6337 35.2964H40.7705C40.6186 33.3974 39.866 31.6705 38.6993 30.3014L41.4342 27.5676C41.2351 27.4439 41.0472 27.2988 40.8762 27.1266C40.703 26.9545 40.559 26.7666 40.4341 26.5675L37.7003 29.3024C36.3301 28.1346 34.6021 27.3831 32.7065 27.2324V23.3691C32.4781 23.4198 32.243 23.4513 31.9988 23.4513C31.7547 23.4513 31.5196 23.4198 31.2923 23.3691V27.2335C29.3945 27.3843 27.6676 28.138 26.2996 29.3035L23.5658 26.5686C23.441 26.7678 23.2958 26.9556 23.1237 27.1278C22.9505 27.2988 22.7637 27.4439 22.5657 27.5688L25.2995 30.3025C24.1328 31.6728 23.3813 33.4019 23.2295 35.2975H19.3662C19.4191 35.5259 19.4483 35.7599 19.4483 36.0051C19.4483 36.247 19.4191 36.4833 19.3662 36.7094H23.2317C23.594 41.2353 27.3841 44.8094 32.0022 44.8094C33.638 44.8094 35.1668 44.3538 36.4786 43.5719L35.4852 42.5785C35.4728 42.5662 35.4672 42.547 35.4548 42.5347C34.4243 43.0803 33.2487 43.3964 32.0022 43.3964C27.9252 43.3964 24.6098 40.0788 24.6098 36.0029C24.6098 31.927 27.9252 28.6105 32.0022 28.6105C36.0792 28.6105 39.3946 31.927 39.3946 36.0029C39.3946 37.2798 39.0695 38.4813 38.4968 39.5298C38.5047 39.5388 38.5137 39.5399 38.5205 39.5478L39.5285 40.5558C40.2181 39.415 40.6602 38.1078 40.7716 36.7094H44.6349C44.5842 36.481 44.5539 36.247 44.5539 36.004C44.5527 35.7588 44.5842 35.5225 44.6337 35.2964Z" fill="white"/>
<path d="M43.1297 27.1358C44.3785 27.1358 45.3909 26.1234 45.3909 24.8745C45.3909 23.6257 44.3785 22.6133 43.1297 22.6133C41.8808 22.6133 40.8684 23.6257 40.8684 24.8745C40.8684 26.1234 41.8808 27.1358 43.1297 27.1358Z" fill="white"/>
<path d="M32 22.5225C33.2489 22.5225 34.2613 21.5101 34.2613 20.2613C34.2613 19.0124 33.2489 18 32 18C30.7512 18 29.7388 19.0124 29.7388 20.2613C29.7388 21.5101 30.7512 22.5225 32 22.5225Z" fill="white"/>
<path d="M20.8714 27.1358C22.1202 27.1358 23.1326 26.1234 23.1326 24.8745C23.1326 23.6257 22.1202 22.6133 20.8714 22.6133C19.6225 22.6133 18.6101 23.6257 18.6101 24.8745C18.6101 26.1234 19.6225 27.1358 20.8714 27.1358Z" fill="white"/>
<path d="M16.2624 38.265C17.5119 38.265 18.5248 37.2521 18.5248 36.0026C18.5248 34.7531 17.5119 33.7402 16.2624 33.7402C15.0129 33.7402 14 34.7531 14 36.0026C14 37.2521 15.0129 38.265 16.2624 38.265Z" fill="white"/>
<defs>
<linearGradient id="paint0_linear_134_3880" x1="64" y1="7.62939e-06" x2="7.62939e-06" y2="64" gradientUnits="userSpaceOnUse">
<stop stop-color="#F65A75"/>
<stop offset="1" stop-color="#48179C"/>
</linearGradient>
</defs>
</svg>
