<svg width="64" height="64" viewBox="0 0 64 64" fill="none" xmlns="http://www.w3.org/2000/svg">
<rect width="64" height="64" rx="32" fill="url(#paint0_linear_125_4882)"/>
<path d="M39.1999 18.9496C39.1999 18.5916 39.3421 18.2482 39.5953 17.995C39.8485 17.7418 40.1918 17.5996 40.5499 17.5996H45.0499C45.4079 17.5996 45.7513 17.7418 46.0045 17.995C46.2577 18.2482 46.3999 18.5916 46.3999 18.9496V23.4496C46.3999 23.8077 46.2577 24.151 46.0045 24.4042C45.7513 24.6574 45.4079 24.7996 45.0499 24.7996C44.6918 24.7996 44.3485 24.6574 44.0953 24.4042C43.8421 24.151 43.6999 23.8077 43.6999 23.4496V22.2076L35.6539 30.2536C35.4008 30.5064 35.0576 30.6484 34.6999 30.6484C34.3421 30.6484 33.999 30.5064 33.7459 30.2536L29.2999 25.8076L21.7039 33.4036C21.5803 33.5362 21.4313 33.6426 21.2657 33.7164C21.1001 33.7902 20.9213 33.8299 20.74 33.8331C20.5588 33.8363 20.3787 33.8029 20.2106 33.735C20.0425 33.6671 19.8898 33.5661 19.7616 33.4379C19.6334 33.3097 19.5324 33.157 19.4645 32.9889C19.3966 32.8208 19.3632 32.6407 19.3664 32.4595C19.3696 32.2782 19.4093 32.0994 19.4831 31.9338C19.5569 31.7682 19.6632 31.6192 19.7959 31.4956L28.3459 22.9456C28.599 22.6928 28.9421 22.5508 29.2999 22.5508C29.6576 22.5508 30.0008 22.6928 30.2539 22.9456L34.6999 27.3916L41.7919 20.2996H40.5499C40.1918 20.2996 39.8485 20.1574 39.5953 19.9042C39.3421 19.651 39.1999 19.3077 39.1999 18.9496ZM20.7499 39.1996C21.1079 39.1996 21.4513 39.3418 21.7045 39.595C21.9577 39.8482 22.0999 40.1916 22.0999 40.5496V45.0496C22.0999 45.4076 21.9577 45.751 21.7045 46.0042C21.4513 46.2574 21.1079 46.3996 20.7499 46.3996C20.3918 46.3996 20.0485 46.2574 19.7953 46.0042C19.5421 45.751 19.3999 45.4076 19.3999 45.0496V40.5496C19.3999 40.1916 19.5421 39.8482 19.7953 39.595C20.0485 39.3418 20.3918 39.1996 20.7499 39.1996ZM29.2999 35.1496C29.2999 34.7916 29.1577 34.4482 28.9045 34.195C28.6513 33.9418 28.3079 33.7996 27.9499 33.7996C27.5918 33.7996 27.2485 33.9418 26.9953 34.195C26.7421 34.4482 26.5999 34.7916 26.5999 35.1496V45.0496C26.5999 45.4076 26.7421 45.751 26.9953 46.0042C27.2485 46.2574 27.5918 46.3996 27.9499 46.3996C28.3079 46.3996 28.6513 46.2574 28.9045 46.0042C29.1577 45.751 29.2999 45.4076 29.2999 45.0496V35.1496ZM35.1499 37.3996C35.5079 37.3996 35.8513 37.5418 36.1045 37.795C36.3577 38.0482 36.4999 38.3916 36.4999 38.7496V45.0496C36.4999 45.4076 36.3577 45.751 36.1045 46.0042C35.8513 46.2574 35.5079 46.3996 35.1499 46.3996C34.7918 46.3996 34.4485 46.2574 34.1953 46.0042C33.9421 45.751 33.7999 45.4076 33.7999 45.0496V38.7496C33.7999 38.3916 33.9421 38.0482 34.1953 37.795C34.4485 37.5418 34.7918 37.3996 35.1499 37.3996ZM43.6999 31.5496C43.6999 31.1916 43.5577 30.8482 43.3045 30.595C43.0513 30.3418 42.7079 30.1996 42.3499 30.1996C41.9918 30.1996 41.6485 30.3418 41.3953 30.595C41.1421 30.8482 40.9999 31.1916 40.9999 31.5496V45.0496C40.9999 45.4076 41.1421 45.751 41.3953 46.0042C41.6485 46.2574 41.9918 46.3996 42.3499 46.3996C42.7079 46.3996 43.0513 46.2574 43.3045 46.0042C43.5577 45.751 43.6999 45.4076 43.6999 45.0496V31.5496Z" fill="white"/>
<defs>
<linearGradient id="paint0_linear_125_4882" x1="64" y1="7.62939e-06" x2="7.62939e-06" y2="64" gradientUnits="userSpaceOnUse">
<stop stop-color="#F65A75"/>
<stop offset="1" stop-color="#48179C"/>
</linearGradient>
</defs>
</svg>
