<svg width="64" height="64" viewBox="0 0 64 64" fill="none" xmlns="http://www.w3.org/2000/svg">
<rect width="64" height="64" rx="32" fill="url(#paint0_linear_135_4009)"/>
<path d="M43.25 24.125H20.75C18.886 24.125 17.375 25.636 17.375 27.5V41C17.375 42.864 18.886 44.375 20.75 44.375H43.25C45.114 44.375 46.625 42.864 46.625 41V27.5C46.625 25.636 45.114 24.125 43.25 24.125Z" stroke="white" stroke-width="2.25" stroke-linejoin="round"/>
<path d="M42.9237 24.1258V22.0164C42.9236 21.4991 42.8092 20.9882 42.5889 20.5201C42.3685 20.052 42.0475 19.6383 41.6489 19.3086C41.2502 18.9788 40.7837 18.7411 40.2826 18.6125C39.7815 18.4838 39.2582 18.4673 38.75 18.5641L20.2325 21.7246C19.4284 21.8779 18.7029 22.307 18.1812 22.9378C17.6596 23.5687 17.3744 24.3619 17.375 25.1805V28.6258" stroke="white" stroke-width="2.25" stroke-linejoin="round"/>
<path d="M39.875 36.5C39.43 36.5 38.995 36.368 38.625 36.1208C38.255 35.8736 37.9666 35.5222 37.7963 35.111C37.626 34.6999 37.5814 34.2475 37.6682 33.811C37.7551 33.3746 37.9693 32.9737 38.284 32.659C38.5987 32.3443 38.9996 32.1301 39.436 32.0432C39.8725 31.9564 40.3249 32.001 40.736 32.1713C41.1472 32.3416 41.4986 32.63 41.7458 33C41.993 33.37 42.125 33.805 42.125 34.25C42.125 34.8467 41.8879 35.419 41.466 35.841C41.044 36.2629 40.4717 36.5 39.875 36.5Z" fill="white"/>
<defs>
<linearGradient id="paint0_linear_135_4009" x1="64" y1="7.62939e-06" x2="7.62939e-06" y2="64" gradientUnits="userSpaceOnUse">
<stop stop-color="#F65A75"/>
<stop offset="1" stop-color="#48179C"/>
</linearGradient>
</defs>
</svg>
