<svg width="64" height="64" viewBox="0 0 64 64" fill="none" xmlns="http://www.w3.org/2000/svg">
<rect width="64" height="64" rx="32" fill="url(#paint0_linear_134_3883)"/>
<path d="M38.9151 34.9656C38.2975 34.348 37.291 34.3423 36.6676 34.9656L34.0713 37.562L28.9244 42.7089C27.8607 43.7726 26.4596 44.3101 24.9384 44.3044C23.4286 44.2701 22.0447 43.6353 21.0267 42.5202C19.0938 40.3985 19.2367 36.9615 21.3413 34.857L26.3566 29.8473L28.953 27.251C29.5706 26.6333 29.5706 25.6211 28.953 25.0035L27.1687 23.2249C26.5511 22.6073 25.5389 22.6073 24.9212 23.2249L22.3249 25.8213L17.3724 30.7738C13.0719 35.0743 12.8546 42.1084 16.892 46.4433C18.9737 48.6793 21.8045 49.9432 24.864 50.0003C24.9327 50.0003 25.007 50.0003 25.0756 50.0003C28.0551 50.0003 30.8516 48.8451 32.9561 46.7406L38.103 41.5937L40.6994 38.9974C41.317 38.3798 41.317 37.3675 40.6994 36.7499L38.9151 34.9656ZM25.6933 23.9913C25.8877 23.7968 26.2022 23.7968 26.3967 23.9913L28.1809 25.7698C28.2724 25.8613 28.3296 25.9871 28.3296 26.1244C28.3296 26.2616 28.2782 26.3817 28.1809 26.4789L25.9735 28.6864L24.7325 27.4454L23.4915 26.2044L25.6933 23.9913ZM32.1841 45.9629C30.2797 47.8672 27.7635 48.9023 25.0699 48.9023C25.007 48.9023 24.9441 48.9023 24.8812 48.9023C22.1247 48.8509 19.5684 47.7128 17.6927 45.6941C14.0498 41.7767 14.2557 35.4289 18.1502 31.5344L22.7138 26.9708L23.9547 28.2117L25.1957 29.4527L20.5692 34.0792C18.0129 36.6355 17.8642 40.6615 20.2204 43.2464C21.4385 44.5846 23.1026 45.3452 24.9155 45.3853C26.7455 45.4196 28.4211 44.7505 29.7021 43.4695L34.4659 38.7114L35.7069 39.9524L36.9478 41.1934L32.1841 45.9629ZM39.9273 38.2253L37.7199 40.4328L36.4789 39.1918L35.2379 37.9508L37.4454 35.7434C37.6398 35.5489 37.9544 35.5489 38.1488 35.7434L39.9273 37.5219C40.0188 37.6134 40.076 37.7392 40.076 37.8765C40.0703 38.0023 40.0188 38.1281 39.9273 38.2253Z" fill="white"/>
<path d="M33.4823 24.4826C33.854 24.4826 34.2257 24.4425 34.5803 24.3682C35.4781 24.1737 36.3131 23.7505 36.9936 23.1329C37.1309 23.0071 37.2624 22.8813 37.3825 22.7383C38.246 21.7718 38.7207 20.5309 38.7207 19.2441C38.7207 16.3561 36.3703 14 33.4766 14C30.5886 14 28.2324 16.3504 28.2324 19.2441C28.2324 20.5366 28.7071 21.7776 29.5706 22.7383C30.5657 23.842 31.9897 24.4826 33.4823 24.4826ZM33.0591 23.3674C33.0133 23.3617 32.9676 23.3559 32.9218 23.3502C32.8303 23.3388 32.7388 23.3274 32.6473 23.3045C32.5959 23.293 32.5387 23.2816 32.4872 23.2644C32.4071 23.2473 32.3271 23.2244 32.247 23.2015C32.1898 23.1844 32.1384 23.1672 32.0812 23.1444C32.0068 23.1158 31.9325 23.0872 31.8581 23.0586C31.801 23.0357 31.7495 23.0128 31.698 22.9842C31.6237 22.9499 31.555 22.9156 31.4864 22.8756C31.4349 22.847 31.3835 22.8184 31.332 22.7898C31.2634 22.7498 31.1948 22.704 31.1319 22.6583C31.0861 22.6239 31.0346 22.5954 30.9889 22.561C30.9203 22.5096 30.8573 22.4581 30.7944 22.4009C30.7544 22.3666 30.7144 22.3323 30.6743 22.298C30.6629 22.2865 30.6515 22.2751 30.64 22.2637C31.1948 21.2114 32.2756 20.5423 33.4823 20.5423C34.6947 20.5423 35.7755 21.2057 36.3245 22.2637C36.3131 22.2751 36.3016 22.2865 36.2902 22.298C36.2502 22.338 36.2044 22.3723 36.1644 22.4066C36.1015 22.4581 36.0386 22.5153 35.97 22.561C35.9242 22.5954 35.8727 22.6297 35.827 22.664C35.7641 22.7097 35.6955 22.7498 35.6268 22.7955C35.5754 22.8241 35.5239 22.8584 35.4724 22.887C35.4038 22.927 35.3352 22.9614 35.2608 22.9957C35.2094 23.0185 35.1522 23.0471 35.095 23.07C35.0206 23.0986 34.9463 23.1272 34.8719 23.1558C34.8148 23.1729 34.7633 23.1958 34.7061 23.213C34.626 23.2359 34.546 23.2587 34.4659 23.2759C34.4144 23.2873 34.3573 23.3045 34.3058 23.3159C34.2143 23.3331 34.1228 23.3445 34.0313 23.3617C33.9855 23.3674 33.9398 23.3788 33.894 23.3788C33.7568 23.3903 33.6138 23.4017 33.4766 23.4017C33.3393 23.3903 33.2021 23.3788 33.0591 23.3674ZM33.4823 19.45C32.9104 19.45 32.4415 18.9868 32.4415 18.4092C32.4415 17.8373 32.9104 17.3684 33.4823 17.3684C34.0542 17.3684 34.5231 17.8316 34.5231 18.4092C34.5231 18.9811 34.0542 19.45 33.4823 19.45ZM33.4823 15.0866C35.7698 15.0866 37.6341 16.9509 37.6341 19.2384C37.6341 19.9876 37.4282 20.7196 37.0451 21.3601C36.5647 20.6395 35.8899 20.0962 35.1007 19.776C35.4152 19.4043 35.6097 18.9353 35.6097 18.4092C35.6097 17.2368 34.6546 16.2818 33.4766 16.2818C32.2985 16.2818 31.3434 17.2368 31.3434 18.4092C31.3434 18.9296 31.5379 19.4043 31.8524 19.776C31.0632 20.0962 30.3884 20.6452 29.908 21.3601C29.5249 20.7196 29.3247 19.9933 29.3247 19.2384C29.3304 16.9509 31.189 15.0866 33.4823 15.0866Z" fill="white"/>
<path d="M49.9753 30.4941C49.9753 27.6004 47.6249 25.25 44.7312 25.25C41.8432 25.25 39.4871 27.6004 39.4871 30.4941C39.4871 31.7866 39.9617 33.0276 40.8253 33.9883C41.8146 35.0978 43.2386 35.7326 44.7255 35.7326C45.0972 35.7326 45.4689 35.6925 45.8235 35.6182C46.7213 35.4237 47.5563 35.0005 48.2368 34.3829C48.3741 34.2571 48.5056 34.1313 48.6257 33.9883C49.5007 33.0276 49.9753 31.7866 49.9753 30.4941ZM44.7369 26.3423C47.0244 26.3423 48.8888 28.2066 48.8888 30.4941C48.8888 31.2433 48.6829 31.9753 48.3054 32.6158C47.8251 31.8952 47.1502 31.352 46.3611 31.0317C46.6756 30.66 46.87 30.191 46.87 29.6649C46.87 28.4926 45.915 27.5375 44.7369 27.5375C43.5588 27.5375 42.6038 28.4926 42.6038 29.6649C42.6038 30.1853 42.7982 30.66 43.1128 31.0317C42.3236 31.352 41.6488 31.901 41.1684 32.6158C40.7852 31.9753 40.5794 31.249 40.5794 30.4941C40.5851 28.2066 42.4437 26.3423 44.7369 26.3423ZM44.7369 30.7C44.165 30.7 43.6961 30.2368 43.6961 29.6592C43.6961 29.0873 44.165 28.6184 44.7369 28.6184C45.3088 28.6184 45.7777 29.0816 45.7777 29.6592C45.7777 30.2368 45.3088 30.7 44.7369 30.7ZM44.3137 34.6231C44.268 34.6174 44.2222 34.6117 44.1765 34.606C44.085 34.5945 43.9935 34.5831 43.902 34.5602C43.8505 34.5488 43.7933 34.5373 43.7418 34.5202C43.6618 34.503 43.5817 34.4801 43.5017 34.4573C43.4445 34.4401 43.393 34.4229 43.3358 34.4001C43.2615 34.3715 43.1871 34.3429 43.1128 34.3143C43.0556 34.2914 43.0041 34.2685 42.9526 34.2399C42.884 34.2056 42.8097 34.1713 42.7411 34.1313C42.6896 34.1027 42.6381 34.0741 42.5866 34.0455C42.518 34.0055 42.4494 33.9597 42.3865 33.914C42.3407 33.8797 42.2893 33.8511 42.2435 33.811C42.1749 33.7596 42.112 33.7081 42.0491 33.6509C42.009 33.6166 41.9633 33.5823 41.9233 33.5423C41.9118 33.5308 41.9004 33.5194 41.889 33.5079C42.4437 32.4557 43.5245 31.7866 44.7312 31.7866C45.9379 31.7866 47.0244 32.45 47.5734 33.5079C47.562 33.5194 47.5506 33.5308 47.5391 33.5423C47.4991 33.5823 47.4533 33.6166 47.4133 33.6509C47.3504 33.7024 47.2875 33.7596 47.2189 33.8053C47.1731 33.8396 47.1217 33.8739 47.0759 33.9083C47.013 33.954 46.9444 33.994 46.8757 34.0398C46.8243 34.0684 46.7728 34.1027 46.7213 34.1313C46.6527 34.1713 46.5841 34.2056 46.5097 34.2399C46.4583 34.2628 46.4011 34.2914 46.3439 34.3143C46.2696 34.3429 46.1952 34.3715 46.1209 34.4001C46.0637 34.4172 46.0122 34.4401 45.955 34.4573C45.875 34.4801 45.7949 34.503 45.7148 34.5202C45.6634 34.5316 45.6062 34.5488 45.5547 34.5602C45.4632 34.5774 45.3717 34.5888 45.2802 34.606C45.2345 34.6117 45.1887 34.6231 45.1429 34.6231C45.0057 34.6345 44.8627 34.646 44.7255 34.646C44.5939 34.6403 44.4567 34.6345 44.3137 34.6231Z" fill="white"/>
<path d="M38.1946 28.4014L28.5127 29.6881C28.3068 29.7167 28.1352 29.8597 28.0666 30.0541C27.998 30.2485 28.0495 30.4659 28.1981 30.6146L29.9195 32.3359L25.4474 34.572C25.2129 34.6921 25.0928 34.9608 25.1672 35.2182C25.2358 35.4527 25.4531 35.6071 25.6876 35.6071C25.7105 35.6071 25.7276 35.6071 25.7505 35.6013L35.4896 34.4805C35.6955 34.4576 35.8728 34.3146 35.9414 34.1202C36.01 33.92 35.9585 33.7027 35.8099 33.554L34.18 31.9242L38.5263 29.4136C38.7493 29.2821 38.8523 29.0133 38.7722 28.7674C38.6978 28.5158 38.4519 28.3671 38.1946 28.4014ZM33.0248 31.3351C32.8761 31.4209 32.7789 31.5696 32.756 31.7354C32.7331 31.9013 32.7903 32.0728 32.9104 32.1929L34.2429 33.5254L28.6957 34.1602L31.0804 32.9707C31.2348 32.8906 31.3492 32.7419 31.3778 32.5704C31.4064 32.3988 31.3492 32.2215 31.2234 32.0957L29.7479 30.6203L35.6097 29.8425L33.0248 31.3351Z" fill="white"/>
<defs>
<linearGradient id="paint0_linear_134_3883" x1="64" y1="7.62939e-06" x2="7.62939e-06" y2="64" gradientUnits="userSpaceOnUse">
<stop stop-color="#F65A75"/>
<stop offset="1" stop-color="#48179C"/>
</linearGradient>
</defs>
</svg>
