<svg width="64" height="64" viewBox="0 0 64 64" fill="none" xmlns="http://www.w3.org/2000/svg">
<rect width="64" height="64" rx="32" fill="url(#paint0_linear_134_3886)"/>
<path d="M46.3623 14H23.911C22.4985 14.0015 21.3523 15.1463 21.3507 16.5602V29.9522H20.0306C17.7396 29.9538 15.7381 31.5016 15.1626 33.7203C14.5856 35.9374 15.5796 38.2653 17.5813 39.3808V46.9874C17.5813 48.6507 18.9306 50 20.5938 50C22.2586 50 23.608 48.6506 23.608 46.9874V40.1024C24.2572 40.1716 24.9019 40.2916 25.5343 40.4609C25.6404 40.5624 25.7805 40.6224 25.9282 40.6255C25.9712 40.6301 26.0143 40.6301 26.0574 40.6255C27.0944 40.9548 28.0853 41.4179 29.0038 42.001C29.0377 43.6412 30.3947 44.9428 32.0349 44.909C33.6751 44.8751 34.9767 43.5196 34.9428 41.8779V39.4562C36.7507 39.1992 38.1924 37.816 38.5247 36.022H46.3622C47.7746 36.0189 48.9209 34.8742 48.9224 33.4617V16.5602C48.9209 15.1463 47.7747 14.0015 46.3623 14ZM22.5403 16.5602C22.5403 15.7986 23.1572 15.1816 23.9188 15.1816H26.2114V19.2111H22.5403V16.5602ZM22.5403 20.3929H26.2114V24.4223H22.5403V20.3929ZM22.4264 46.9879C22.4264 47.9987 21.6063 48.8188 20.5939 48.8188C19.5831 48.8188 18.763 47.9987 18.763 46.9879V39.855C19.1769 39.9643 19.6031 40.0212 20.0308 40.0243H22.4264L22.4264 46.9879ZM25.3528 39.1933C24.3404 38.9594 23.3034 38.841 22.2649 38.8425H20.0308C17.9014 38.8425 16.1751 37.1162 16.1751 34.9852C16.1751 32.8558 17.9014 31.1295 20.0308 31.1295H22.2649C23.3034 31.131 24.3404 31.0125 25.3528 30.7787V39.1933ZM29.0163 40.6027C28.2254 40.1642 27.3946 39.8026 26.5345 39.5241V30.4648C27.3946 30.1879 28.227 29.8263 29.0163 29.3847V40.6027ZM33.7783 41.8674C33.8014 42.3567 33.6229 42.8336 33.2844 43.1875C32.9459 43.5429 32.4782 43.743 31.9874 43.743C31.4981 43.743 31.0288 43.543 30.6903 43.1875C30.3533 42.8336 30.1749 42.3567 30.1979 41.8674V28.657C30.1949 27.8907 30.6811 27.2091 31.4057 26.9599C32.1289 26.7122 32.9305 26.9522 33.3998 27.5568C33.6521 27.8676 33.7906 28.2554 33.7937 28.657L33.7783 41.8674ZM34.9599 38.2593V32.2526C36.3954 32.5342 37.4309 33.7928 37.4309 35.256C37.4309 36.7192 36.3954 37.9778 34.9599 38.2593ZM42.8884 19.7898V34.8357H38.5911C38.4004 32.8863 36.9002 31.32 34.96 31.0461V28.6475C34.9569 27.0088 33.6291 25.6779 31.989 25.6749C31.7782 25.6749 31.5674 25.6964 31.3597 25.741V21.5852C31.3597 21.2959 31.5151 21.0282 31.7658 20.8836C32.0166 20.739 32.3259 20.7405 32.5767 20.8851L38.5156 24.3116C38.768 24.4562 38.9234 24.724 38.9234 25.0148C38.9234 25.304 38.768 25.5733 38.5156 25.7179L37.2863 26.4272H37.2878C37.0555 26.5595 36.9416 26.8334 37.0109 27.0919C37.0801 27.3504 37.3155 27.5304 37.5832 27.5289C37.6863 27.5273 37.7879 27.5012 37.8786 27.4504L39.108 26.738H39.1065C39.7234 26.3811 40.1019 25.7241 40.1019 25.0133C40.1019 24.3009 39.7234 23.6439 39.1065 23.2869L33.1675 19.8605C32.5505 19.5051 31.792 19.5051 31.175 19.8605C30.558 20.2159 30.178 20.8744 30.178 21.5853V26.2658V26.2935C29.6441 26.7027 29.2656 27.2797 29.1025 27.9321C27.1423 29.1953 24.8683 29.8907 22.5357 29.94V25.6073H26.2068V26.5889C26.2068 26.9151 26.4714 27.1797 26.7976 27.1797C27.1238 27.1797 27.3884 26.9151 27.3884 26.5889V15.1817H42.8885L42.8884 19.7898ZM47.741 33.4571C47.741 33.8233 47.5964 34.1741 47.3364 34.4326C47.0779 34.6911 46.7286 34.8357 46.3624 34.8357H44.0699V30.8185H47.741V33.4571ZM47.741 29.6245H44.0699V25.6041H47.741V29.6245ZM47.741 24.4102H44.0699V20.393H47.741V24.4102ZM47.741 19.1992H44.0699V15.182H46.3624C47.1241 15.182 47.741 15.7989 47.741 16.5606V19.1992Z" fill="white"/>
<defs>
<linearGradient id="paint0_linear_134_3886" x1="64" y1="7.62939e-06" x2="7.62939e-06" y2="64" gradientUnits="userSpaceOnUse">
<stop stop-color="#F65A75"/>
<stop offset="1" stop-color="#48179C"/>
</linearGradient>
</defs>
</svg>
