<svg width="64" height="64" viewBox="0 0 64 64" fill="none" xmlns="http://www.w3.org/2000/svg">
<rect width="64" height="64" rx="32" fill="url(#paint0_linear_134_3889)"/>
<path d="M16.8611 14C15.2864 14 14 15.2849 14 16.8611V37.5802C14 39.1549 15.2849 40.4413 16.8611 40.4413H27.4865L26.0657 44.9174H23.9845C22.5861 44.9174 21.4432 46.0603 21.4432 47.4587C21.4432 48.8571 22.5846 50 23.9845 50H39.5506C40.949 50 42.0964 48.8571 42.0964 47.4587C42.0964 46.0603 40.9505 44.9174 39.5506 44.9174H37.4725L36.0546 40.4413H46.6758C48.2505 40.4413 49.5369 39.1564 49.5369 37.5802V16.8611C49.5369 15.2864 48.2505 14 46.6758 14H16.8611ZM16.8611 15.125H46.6758C47.6469 15.125 48.4118 15.8884 48.4118 16.8611V33.5808H15.1251V16.8611C15.1251 15.8899 15.8884 15.125 16.8611 15.125ZM15.125 34.7056H48.4102V37.58C48.4102 38.5512 47.6468 39.3161 46.6742 39.3161L16.861 39.3146C15.8899 39.3146 15.1249 38.5512 15.1249 37.5786L15.125 34.7056ZM28.6637 40.4395H34.87L36.2908 44.9156H27.2446L28.6637 40.4395ZM23.9845 46.0408H39.5507C40.3455 46.0408 40.97 46.6623 40.97 47.4571C40.97 48.252 40.3455 48.8735 39.5507 48.8735L23.9845 48.872C23.1897 48.872 22.5652 48.2505 22.5652 47.4557C22.5652 46.6608 23.1897 46.0393 23.9845 46.0393V46.0408Z" fill="white"/>
<defs>
<linearGradient id="paint0_linear_134_3889" x1="64" y1="7.62939e-06" x2="7.62939e-06" y2="64" gradientUnits="userSpaceOnUse">
<stop stop-color="#F65A75"/>
<stop offset="1" stop-color="#48179C"/>
</linearGradient>
</defs>
</svg>
