<svg width="64" height="64" viewBox="0 0 64 64" fill="none" xmlns="http://www.w3.org/2000/svg">
<rect width="64" height="64" rx="32" fill="url(#paint0_linear_193_6408)"/>
<g clip-path="url(#clip0_193_6408)">
<path d="M38.428 20.4286V24.2857M38.428 30.0714C38.2575 30.0714 38.094 30.0037 37.9734 29.8832C37.8529 29.7626 37.7852 29.5991 37.7852 29.4286C37.7852 29.2581 37.8529 29.0946 37.9734 28.974C38.094 28.8535 38.2575 28.7857 38.428 28.7857C38.5985 28.7857 38.762 28.8535 38.8826 28.974C39.0031 29.0946 39.0709 29.2581 39.0709 29.4286C39.0709 29.5991 39.0031 29.7626 38.8826 29.8832C38.762 30.0037 38.5985 30.0714 38.428 30.0714Z" stroke="white" stroke-width="2.57143" stroke-linecap="round" stroke-linejoin="round"/>
<path d="M38.4289 15.2857C35.7009 15.2857 33.0847 16.3694 31.1558 18.2983C29.2268 20.2273 28.1431 22.8435 28.1431 25.5714C28.1525 26.9661 28.4319 28.3458 28.966 29.6343L26.8574 34.5714L32.3603 33.8771C33.6719 34.8352 35.1917 35.4691 36.7954 35.7268C38.3991 35.9846 40.041 35.8588 41.5867 35.3599C43.1325 34.8611 44.5381 34.0032 45.6885 32.8566C46.8389 31.71 47.7015 30.3072 48.2055 28.7631C48.7095 27.219 48.8407 25.5776 48.5883 23.973C48.3358 22.3685 47.707 20.8466 46.7533 19.5318C45.7996 18.2171 44.548 17.1469 43.1011 16.4088C41.6542 15.6708 40.0531 15.2859 38.4289 15.2857Z" stroke="white" stroke-width="2.57143" stroke-linecap="round" stroke-linejoin="round"/>
<path d="M26.8566 15.2857H17.8566C17.1746 15.2857 16.5205 15.5566 16.0383 16.0389C15.5561 16.5211 15.2852 17.1751 15.2852 17.8571V46.1428C15.2852 46.8248 15.5561 47.4789 16.0383 47.9611C16.5205 48.4434 17.1746 48.7143 17.8566 48.7143H35.8566C36.5386 48.7143 37.1926 48.4434 37.6749 47.9611C38.1571 47.4789 38.428 46.8248 38.428 46.1428V41M25.5709 42.2857H28.1423" stroke="white" stroke-width="2.57143" stroke-linecap="round" stroke-linejoin="round"/>
</g>
<defs>
<linearGradient id="paint0_linear_193_6408" x1="64" y1="7.62939e-06" x2="7.62939e-06" y2="64" gradientUnits="userSpaceOnUse">
<stop stop-color="#F65A75"/>
<stop offset="1" stop-color="#48179C"/>
</linearGradient>
<clipPath id="clip0_193_6408">
<rect width="36" height="36" fill="white" transform="translate(14 14)"/>
</clipPath>
</defs>
</svg>
