<svg width="64" height="64" viewBox="0 0 64 64" fill="none" xmlns="http://www.w3.org/2000/svg">
<rect width="64" height="64" rx="32" fill="url(#paint0_linear_193_6426)"/>
<path d="M17.75 18.5H46.25V39.5H23.75L17.75 44.75V18.5Z" stroke="white" stroke-width="3" stroke-linecap="square"/>
<path d="M26.9612 29.1365C26.6478 28.8231 26.3992 28.4511 26.2296 28.0416C26.06 27.6321 25.9727 27.1932 25.9727 26.75C25.9727 25.8549 26.3282 24.9965 26.9612 24.3635C27.5941 23.7306 28.4526 23.375 29.3477 23.375C29.7909 23.375 30.2298 23.4623 30.6392 23.6319C31.0487 23.8015 31.4208 24.0501 31.7342 24.3635L31.9997 24.629L32.2652 24.3635C32.8981 23.7306 33.7566 23.375 34.6517 23.375C35.0949 23.375 35.5338 23.4623 35.9432 23.6319C36.3527 23.8015 36.7248 24.0501 37.0382 24.3635C37.3516 24.6769 37.6002 25.049 37.7698 25.4585C37.9394 25.8679 38.0267 26.3068 38.0267 26.75C38.0267 27.1932 37.9394 27.6321 37.7698 28.0416C37.6002 28.4511 37.3516 28.8231 37.0382 29.1365L31.9997 34.175L26.9612 29.1365Z" stroke="white" stroke-width="3" stroke-linecap="square"/>
<defs>
<linearGradient id="paint0_linear_193_6426" x1="64" y1="7.62939e-06" x2="7.62939e-06" y2="64" gradientUnits="userSpaceOnUse">
<stop stop-color="#F65A75"/>
<stop offset="1" stop-color="#48179C"/>
</linearGradient>
</defs>
</svg>
