<svg width="64" height="64" viewBox="0 0 64 64" fill="none" xmlns="http://www.w3.org/2000/svg">
<rect width="64" height="64" rx="32" fill="url(#paint0_linear_193_6448)"/>
<path d="M32 23L34.151 27.1659L38.75 27.8341L35.375 30.875L36.5 35.375L32 32.8438L27.5 35.375L28.625 30.875L25.25 27.8341L29.975 27.1659L32 23Z" fill="white"/>
<path d="M33.953 47.75L32 46.625L36.5 38.75H43.25C43.5456 38.7504 43.8384 38.6926 44.1116 38.5796C44.3847 38.4667 44.633 38.301 44.842 38.092C45.051 37.883 45.2167 37.6347 45.3296 37.3616C45.4426 37.0884 45.5004 36.7956 45.5 36.5V23C45.5004 22.7044 45.4426 22.4116 45.3296 22.1384C45.2167 21.8653 45.051 21.617 44.842 21.408C44.633 21.199 44.3847 21.0333 44.1116 20.9204C43.8384 20.8075 43.5456 20.7496 43.25 20.75H20.75C20.4544 20.7496 20.1616 20.8075 19.8884 20.9204C19.6153 21.0333 19.367 21.199 19.158 21.408C18.949 21.617 18.7833 21.8653 18.6704 22.1384C18.5575 22.4116 18.4996 22.7044 18.5 23V36.5C18.4996 36.7956 18.5575 37.0884 18.6704 37.3616C18.7833 37.6347 18.949 37.883 19.158 38.092C19.367 38.301 19.6153 38.4667 19.8884 38.5796C20.1616 38.6926 20.4544 38.7504 20.75 38.75H30.875V41H20.75C19.5565 41 18.4119 40.5259 17.568 39.682C16.7241 38.8381 16.25 37.6935 16.25 36.5V23C16.25 21.8065 16.7241 20.6619 17.568 19.818C18.4119 18.9741 19.5565 18.5 20.75 18.5H43.25C44.4435 18.5 45.5881 18.9741 46.432 19.818C47.2759 20.6619 47.75 21.8065 47.75 23V36.5C47.75 37.6935 47.2759 38.8381 46.432 39.682C45.5881 40.5259 44.4435 41 43.25 41H37.8106L33.953 47.75Z" fill="white"/>
<defs>
<linearGradient id="paint0_linear_193_6448" x1="64" y1="7.62939e-06" x2="7.62939e-06" y2="64" gradientUnits="userSpaceOnUse">
<stop stop-color="#F65A75"/>
<stop offset="1" stop-color="#48179C"/>
</linearGradient>
</defs>
</svg>
