<svg width="64" height="64" viewBox="0 0 64 64" fill="none" xmlns="http://www.w3.org/2000/svg">
<rect width="64" height="64" rx="32" fill="url(#paint0_linear_193_6488)"/>
<path d="M39.1231 17H45.9541L46.1041 17.021L46.2526 17.063L46.3426 17.102C46.4626 17.154 46.5721 17.229 46.6711 17.327L46.7311 17.393L46.7971 17.4785L46.8781 17.6135L46.9366 17.7485L46.9651 17.8445L46.9861 17.9405L46.9996 18.083V24.881C46.9996 25.166 46.8913 25.4404 46.6967 25.6487C46.5021 25.857 46.2357 25.9836 45.9513 26.003C45.6669 26.0225 45.3858 25.9332 45.1647 25.7534C44.9436 25.5735 44.799 25.3164 44.7601 25.034L44.7496 24.881V20.8385L35.0896 30.4985C34.8992 30.689 34.6466 30.8049 34.378 30.825C34.1093 30.8451 33.8423 30.7681 33.6256 30.608L33.4996 30.5L28.9546 26.135L20.4196 34.6685C20.2189 34.8698 19.9494 34.9876 19.6653 34.9983C19.3812 35.009 19.1037 34.9117 18.8884 34.7261C18.6731 34.5404 18.5361 34.2802 18.5049 33.9976C18.4736 33.7151 18.5506 33.4312 18.7201 33.203L18.8296 33.077L28.1596 23.747C28.3503 23.5567 28.6029 23.4411 28.8716 23.4213C29.1403 23.4015 29.4071 23.4787 29.6236 23.639L29.7496 23.747L34.2946 28.112L43.1566 19.25H39.1216C38.85 19.2496 38.5877 19.151 38.3832 18.9724C38.1786 18.7937 38.0456 18.5471 38.0086 18.278L37.9981 18.125C37.9981 17.8531 38.0966 17.5905 38.2753 17.3856C38.454 17.1807 38.7008 17.0475 38.9701 17.0105L39.1231 17ZM19.6246 39.5C19.923 39.5 20.2092 39.6185 20.4201 39.8295C20.6311 40.0405 20.7496 40.3266 20.7496 40.625V45.875C20.7496 46.1734 20.6311 46.4595 20.4201 46.6705C20.2092 46.8815 19.923 47 19.6246 47C19.3263 47 19.0401 46.8815 18.8291 46.6705C18.6182 46.4595 18.4996 46.1734 18.4996 45.875V40.625C18.4996 40.3266 18.6182 40.0405 18.8291 39.8295C19.0401 39.6185 19.3263 39.5 19.6246 39.5ZM28.2496 34.625C28.2496 34.3266 28.1311 34.0405 27.9201 33.8295C27.7092 33.6185 27.423 33.5 27.1246 33.5C26.8263 33.5 26.5401 33.6185 26.3291 33.8295C26.1182 34.0405 25.9996 34.3266 25.9996 34.625V45.875C25.9996 46.1734 26.1182 46.4595 26.3291 46.6705C26.5401 46.8815 26.8263 47 27.1246 47C27.423 47 27.7092 46.8815 27.9201 46.6705C28.1311 46.4595 28.2496 46.1734 28.2496 45.875V34.625ZM34.6246 36.5C34.923 36.5 35.2092 36.6185 35.4201 36.8295C35.6311 37.0405 35.7496 37.3266 35.7496 37.625V45.875C35.7496 46.1734 35.6311 46.4595 35.4201 46.6705C35.2092 46.8815 34.923 47 34.6246 47C34.3263 47 34.0401 46.8815 33.8291 46.6705C33.6182 46.4595 33.4996 46.1734 33.4996 45.875V37.625C33.4996 37.3266 33.6182 37.0405 33.8291 36.8295C34.0401 36.6185 34.3263 36.5 34.6246 36.5ZM43.2496 30.125C43.2496 29.8266 43.1311 29.5405 42.9201 29.3295C42.7092 29.1185 42.423 29 42.1246 29C41.8263 29 41.5401 29.1185 41.3291 29.3295C41.1182 29.5405 40.9996 29.8266 40.9996 30.125V45.875C40.9996 46.1734 41.1182 46.4595 41.3291 46.6705C41.5401 46.8815 41.8263 47 42.1246 47C42.423 47 42.7092 46.8815 42.9201 46.6705C43.1311 46.4595 43.2496 46.1734 43.2496 45.875V30.125Z" fill="white"/>
<defs>
<linearGradient id="paint0_linear_193_6488" x1="64" y1="7.62939e-06" x2="7.62939e-06" y2="64" gradientUnits="userSpaceOnUse">
<stop stop-color="#F65A75"/>
<stop offset="1" stop-color="#48179C"/>
</linearGradient>
</defs>
</svg>
