<svg width="64" height="64" viewBox="0 0 64 64" fill="none" xmlns="http://www.w3.org/2000/svg">
<rect width="64" height="64" rx="32" fill="url(#paint0_linear_193_6401)"/>
<path fill-rule="evenodd" clip-rule="evenodd" d="M44 22.8234H20V24.2352H44V22.8234ZM20 41.1763V27.0587H44V41.1763H20ZM17 19.9999V43.9999H47V19.9999H17ZM39.5 30.4999V39.4999H42.5V30.4999H39.5ZM35 39.4999V33.4999H38V39.4999H35ZM30.5 37.9999V39.4999H33.5V37.9999H30.5Z" fill="white"/>
<path fill-rule="evenodd" clip-rule="evenodd" d="M26 39.4999C28.8995 39.4999 31.25 37.1494 31.25 34.2499C31.25 31.3504 28.8995 28.9999 26 28.9999C23.1005 28.9999 20.75 31.3504 20.75 34.2499C20.75 37.1494 23.1005 39.4999 26 39.4999ZM28.4944 35.9166C28.824 35.4232 29 34.8432 29 34.2499H26V31.2499C25.4067 31.2498 24.8266 31.4257 24.3333 31.7554C23.8399 32.085 23.4554 32.5536 23.2284 33.1018C23.0586 33.5117 22.9818 33.954 23.0035 34.3971C23.0253 34.8402 23.145 35.2729 23.3541 35.6641C23.5633 36.0554 23.8565 36.3953 24.2128 36.6596C24.5692 36.9238 24.9797 37.1058 25.4147 37.1923C25.9967 37.308 26.5999 37.2486 27.1481 37.0215C27.6962 36.7944 28.1648 36.4099 28.4944 35.9166Z" fill="white"/>
<defs>
<linearGradient id="paint0_linear_193_6401" x1="64" y1="7.62939e-06" x2="7.62939e-06" y2="64" gradientUnits="userSpaceOnUse">
<stop stop-color="#F65A75"/>
<stop offset="1" stop-color="#48179C"/>
</linearGradient>
</defs>
</svg>
