<svg width="64" height="64" viewBox="0 0 64 64" fill="none" xmlns="http://www.w3.org/2000/svg">
<rect width="64" height="64" rx="32" fill="url(#paint0_linear_193_6454)"/>
<path fill-rule="evenodd" clip-rule="evenodd" d="M32 17C40.2845 17 47 23.7155 47 32C47 40.2845 40.2845 47 32 47C23.7155 47 17 40.2845 17 32C17 23.7155 23.7155 17 32 17ZM33.5 20.093V21.5C33.4996 21.8823 33.3532 22.25 33.0907 22.5281C32.8283 22.8061 32.4696 22.9734 32.0879 22.9958C31.7062 23.0182 31.3304 22.894 31.0373 22.6486C30.7441 22.4032 30.5557 22.0551 30.5105 21.6755L30.5 21.5V20.093C27.9227 20.4185 25.5204 21.571 23.6537 23.3777C21.787 25.1843 20.5565 27.5477 20.147 30.113L20.093 30.5H21.5C21.8823 30.5004 22.25 30.6468 22.5281 30.9093C22.8061 31.1717 22.9734 31.5304 22.9958 31.9121C23.0182 32.2938 22.894 32.6696 22.6486 32.9627C22.4032 33.2559 22.0551 33.4443 21.6755 33.4895L21.5 33.5H20.093C20.4555 36.3669 21.8401 39.0067 23.9926 40.9346C26.1452 42.8625 28.921 43.9491 31.8103 43.9947C34.6996 44.0403 37.5084 43.0419 39.7207 41.1828C41.933 39.3238 43.4003 36.729 43.853 33.875L43.907 33.5H42.5C42.1177 33.4996 41.75 33.3532 41.4719 33.0907C41.1939 32.8283 41.0266 32.4696 41.0042 32.0879C40.9818 31.7062 41.106 31.3304 41.3514 31.0373C41.5968 30.7441 41.9449 30.5557 42.3245 30.5105L42.5 30.5H43.907C43.5796 27.8843 42.398 25.4499 40.5455 23.5745L36.9095 30.713L36.677 31.154L36.212 32.069C35.657 33.149 35.054 34.25 34.2275 35.0765C32.7695 36.533 30.3455 36.71 28.8185 35.1815C27.29 33.6545 27.467 31.2305 28.9235 29.7725C29.6315 29.0645 30.5405 28.52 31.4675 28.0295L32.846 27.323L34.1195 26.657L40.424 23.4545C38.549 21.6023 36.1151 20.4207 33.5 20.093ZM33.743 30.257L33.428 30.425L33.104 30.5945C32.501 30.908 31.871 31.2335 31.346 31.6415L31.0445 31.8965L30.935 32.0225C30.6455 32.4125 30.7325 32.8535 30.9395 33.0605C31.1465 33.2675 31.5875 33.3545 31.9775 33.065L32.1065 32.954L32.3585 32.654C32.684 32.234 32.9585 31.7465 33.215 31.259L33.4055 30.896C33.5175 30.676 33.63 30.463 33.743 30.257Z" fill="white"/>
<defs>
<linearGradient id="paint0_linear_193_6454" x1="64" y1="7.62939e-06" x2="7.62939e-06" y2="64" gradientUnits="userSpaceOnUse">
<stop stop-color="#F65A75"/>
<stop offset="1" stop-color="#48179C"/>
</linearGradient>
</defs>
</svg>
