<svg width="64" height="64" viewBox="0 0 64 64" fill="none" xmlns="http://www.w3.org/2000/svg">
<rect width="64" height="64" rx="32" fill="url(#paint0_linear_193_6462)"/>
<path d="M21.8753 24.6875C21.8753 22.4497 22.7642 20.3036 24.3466 18.7213C25.9289 17.1389 28.075 16.25 30.3128 16.25C32.5506 16.25 34.6967 17.1389 36.279 18.7213C37.8613 20.3036 38.7503 22.4497 38.7503 24.6875C38.7503 24.9859 38.6318 25.272 38.4208 25.483C38.2098 25.694 37.9237 25.8125 37.6253 25.8125C37.3269 25.8125 37.0408 25.694 36.8298 25.483C36.6188 25.272 36.5003 24.9859 36.5003 24.6875C36.5003 23.0465 35.8484 21.4727 34.688 20.3123C33.5276 19.1519 31.9538 18.5 30.3128 18.5C28.6718 18.5 27.098 19.1519 25.9376 20.3123C24.7772 21.4727 24.1253 23.0465 24.1253 24.6875C24.1253 24.9859 24.0068 25.272 23.7958 25.483C23.5848 25.694 23.2987 25.8125 23.0003 25.8125C22.7019 25.8125 22.4158 25.694 22.2048 25.483C21.9938 25.272 21.8753 24.9859 21.8753 24.6875ZM41.5628 30.875C40.9065 30.8743 40.2606 31.0382 39.684 31.3517C39.5118 30.8186 39.2277 30.3284 38.8508 29.9138C38.474 29.4993 38.013 29.1699 37.4986 28.9478C36.9843 28.7256 36.4285 28.6158 35.8683 28.6256C35.3082 28.6354 34.7565 28.7646 34.2503 29.0047V24.6875C34.2503 23.6432 33.8355 22.6417 33.097 21.9033C32.3586 21.1648 31.3571 20.75 30.3128 20.75C29.2685 20.75 28.267 21.1648 27.5286 21.9033C26.7901 22.6417 26.3753 23.6432 26.3753 24.6875V35.9375L25.8381 35.0755C25.3128 34.1727 24.4504 33.5156 23.4406 33.2487C22.4308 32.9818 21.3563 33.127 20.4536 33.6523C19.5508 34.1777 18.8937 35.0401 18.6268 36.0499C18.36 37.0597 18.5051 38.1341 19.0305 39.0369L23.1536 46.0681C23.2227 46.2051 23.3192 46.3264 23.4369 46.4247C23.5547 46.523 23.6914 46.5962 23.8385 46.6398C23.9856 46.6833 24.14 46.6963 24.2923 46.678C24.4446 46.6596 24.5916 46.6103 24.7241 46.5331C24.8567 46.4559 24.9721 46.3523 25.0631 46.2289C25.1542 46.1054 25.2191 45.9647 25.2537 45.8152C25.2884 45.6658 25.2921 45.5108 25.2647 45.3599C25.2372 45.2089 25.1792 45.0652 25.0942 44.9375L20.9753 37.9062C20.8597 37.7142 20.7835 37.501 20.7511 37.2791C20.7188 37.0573 20.731 36.8312 20.787 36.6141C20.8431 36.397 20.9418 36.1933 21.0774 36.0148C21.2131 35.8363 21.383 35.6866 21.5771 35.5745C21.7713 35.4624 21.9858 35.3901 22.2082 35.3618C22.4306 35.3335 22.6564 35.3499 22.8724 35.4099C23.0885 35.4698 23.2904 35.5723 23.4664 35.7111C23.6424 35.85 23.7889 36.0226 23.8975 36.2188L23.9172 36.2511L26.544 40.4698C26.673 40.678 26.8664 40.8383 27.0947 40.9266C27.3231 41.0148 27.574 41.0262 27.8095 40.9589C28.0449 40.8916 28.2519 40.7494 28.3991 40.5538C28.5464 40.3581 28.6258 40.1198 28.6253 39.875V24.6875C28.6253 24.2399 28.8031 23.8107 29.1196 23.4943C29.436 23.1778 29.8652 23 30.3128 23C30.7603 23 31.1896 23.1778 31.506 23.4943C31.8225 23.8107 32.0003 24.2399 32.0003 24.6875V34.25C32.0003 34.5484 32.1188 34.8345 32.3298 35.0455C32.5408 35.2565 32.8269 35.375 33.1253 35.375C33.4237 35.375 33.7098 35.2565 33.9208 35.0455C34.1318 34.8345 34.2503 34.5484 34.2503 34.25V32.5625C34.2503 32.1149 34.4281 31.6857 34.7446 31.3693C35.061 31.0528 35.4902 30.875 35.9378 30.875C36.3853 30.875 36.8146 31.0528 37.131 31.3693C37.4475 31.6857 37.6253 32.1149 37.6253 32.5625V35.375C37.6253 35.6734 37.7438 35.9595 37.9548 36.1705C38.1658 36.3815 38.4519 36.5 38.7503 36.5C39.0487 36.5 39.3348 36.3815 39.5458 36.1705C39.7568 35.9595 39.8753 35.6734 39.8753 35.375V34.8125C39.8753 34.3649 40.0531 33.9357 40.3696 33.6193C40.686 33.3028 41.1152 33.125 41.5628 33.125C42.0103 33.125 42.4396 33.3028 42.756 33.6193C43.0725 33.9357 43.2503 34.3649 43.2503 34.8125V39.875C43.2503 42.9139 42.2519 44.9797 42.2434 44.9966C42.1101 45.2634 42.0883 45.5723 42.1827 45.8553C42.2771 46.1382 42.48 46.3721 42.7469 46.5055C42.9029 46.5844 43.0754 46.6253 43.2503 46.625C43.4593 46.6251 43.6642 46.5671 43.8421 46.4573C44.0199 46.3475 44.1636 46.1903 44.2572 46.0034C44.3092 45.9008 45.5017 43.4722 45.5017 39.875V34.8125C45.5017 34.2953 45.3998 33.7832 45.2018 33.3054C45.0039 32.8275 44.7137 32.3934 44.3479 32.0278C43.9822 31.6621 43.5479 31.3721 43.07 31.1743C42.5922 30.9765 42.08 30.8748 41.5628 30.875Z" fill="white"/>
<defs>
<linearGradient id="paint0_linear_193_6462" x1="64" y1="7.62939e-06" x2="7.62939e-06" y2="64" gradientUnits="userSpaceOnUse">
<stop stop-color="#F65A75"/>
<stop offset="1" stop-color="#48179C"/>
</linearGradient>
</defs>
</svg>
