<svg width="64" height="64" viewBox="0 0 64 64" fill="none" xmlns="http://www.w3.org/2000/svg">
<rect width="64" height="64" rx="32" fill="url(#paint0_linear_189_27185)"/>
<path d="M41.3514 23.2529C41.3498 23.2404 41.3483 23.2279 41.3451 23.2138L41.3436 23.2029C41.3404 23.1873 41.3373 23.1732 41.3326 23.1576V23.1545C41.3279 23.1388 41.3233 23.1248 41.317 23.1092V23.1076C41.3108 23.0935 41.3045 23.0795 41.2983 23.067L41.2967 23.0623C41.2904 23.0498 41.2826 23.0373 41.2748 23.0263L41.2701 23.0201C41.2623 23.0092 41.2545 22.9982 41.2467 22.9873L41.2404 22.9795C41.2295 22.967 41.2186 22.9545 41.2076 22.942L32.4109 14.15C32.3984 14.1375 32.3874 14.1266 32.3734 14.1172L32.3656 14.1109C32.3546 14.1031 32.3437 14.0937 32.3327 14.0875L32.3265 14.0828C32.314 14.075 32.3031 14.0672 32.2906 14.0609L32.2859 14.0594C32.2718 14.0531 32.2593 14.0453 32.2452 14.0406H32.2437C32.2296 14.0344 32.214 14.0297 32.1984 14.025H32.1952C32.1812 14.0203 32.1656 14.0172 32.1499 14.0141L32.139 14.0125C32.1265 14.0109 32.114 14.0078 32.0999 14.0062C32.0843 14.0016 32.0671 14 32.0499 14H19.3C16.925 14.0031 15.0016 15.9281 15 18.3032V45.6983C15.0016 48.0733 16.9266 49.9967 19.3 49.9999H37.0531C37.6531 49.9999 38.2469 49.8733 38.7953 49.6296C40.9625 50.3577 43.3485 49.9999 45.2077 48.6671C47.0655 47.3343 48.1702 45.189 48.1749 42.9015V42.889C48.1749 42.7546 48.1218 42.6249 48.0264 42.5281C47.9311 42.4328 47.8014 42.3796 47.6655 42.3796H41.5735V36.2877C41.5735 36.1205 41.4923 35.9642 41.3548 35.8689V23.3049C41.3548 23.2878 41.3532 23.2706 41.3517 23.2534L41.3514 23.2529ZM32.5606 15.7421L39.6122 22.7937H35.0842C33.692 22.7921 32.5623 21.6625 32.5608 20.2703L32.5606 15.7421ZM37.0526 48.9796H19.2995C17.4886 48.978 16.0214 47.5093 16.0198 45.6984V18.3033C16.0214 16.4924 17.4886 15.0236 19.2995 15.0205H31.5402V20.2705C31.5418 22.2267 33.1277 23.8127 35.084 23.8142H40.3339V35.8142C39.4527 35.9048 38.5964 36.1595 37.809 36.5657V33.7689C37.809 33.6345 37.7558 33.5048 37.6605 33.4079C37.5636 33.3126 37.434 33.2595 37.2996 33.2595H34.3887C34.2527 33.2595 34.1231 33.3126 34.0277 33.4079C33.9324 33.5048 33.8777 33.6345 33.8777 33.7689V42.8892C33.8777 42.9861 33.9059 43.0783 33.9559 43.1595C33.9871 44.0064 34.1699 44.8392 34.4965 45.6204H17.7702C17.4889 45.622 17.2608 45.8501 17.2608 46.1314C17.2608 46.4126 17.4889 46.6407 17.7702 46.6407H35.0233C35.6139 47.5876 36.4171 48.3814 37.3686 48.9626C37.2639 48.9735 37.1592 48.9798 37.053 48.9798L37.0526 48.9796ZM36.7885 34.2797V37.2078C36.0213 37.7859 35.3792 38.5124 34.8979 39.3437V34.2797L36.7885 34.2797ZM40.5526 48.956C39.1198 48.8341 37.7761 48.2091 36.7589 47.1935C35.7417 46.1763 35.1167 44.8326 34.9932 43.3998H40.5524L40.5526 48.956ZM40.5526 42.3796H34.9934C35.1153 40.9453 35.7403 39.6015 36.7575 38.5843C37.7747 37.5671 39.12 36.9421 40.5528 36.8187L40.5526 42.3796ZM41.5729 43.3999H47.1337C47.0103 44.8327 46.3853 46.1765 45.3665 47.1937C44.3493 48.2093 43.0056 48.8343 41.5728 48.9562L41.5729 43.3999ZM19.0542 44.3234H21.9651C22.0995 44.3234 22.2307 44.2687 22.326 44.1734C22.4214 44.0781 22.4745 43.9484 22.4745 43.8124V41.3421C22.4745 41.2062 22.4214 41.0765 22.326 40.9812C22.2307 40.8859 22.0995 40.8328 21.9651 40.8328H19.0542C18.9183 40.8328 18.7886 40.8859 18.6933 40.9812C18.598 41.0765 18.5433 41.2062 18.5433 41.3421V43.8124C18.5433 43.9484 18.598 44.0781 18.6933 44.1734C18.7886 44.2687 18.9183 44.3234 19.0542 44.3234ZM19.5651 41.8531H21.4542V43.3031H19.5651V41.8531ZM27.0759 36.8967H24.1665C24.0322 36.8967 23.9009 36.9498 23.8056 37.0467C23.7103 37.142 23.6572 37.2717 23.6572 37.4076V43.8124C23.6572 43.9483 23.7103 44.078 23.8056 44.1733C23.9009 44.2686 24.0322 44.3233 24.1665 44.3233H27.0759C27.2103 44.3233 27.34 44.2686 27.4368 44.1733C27.5321 44.078 27.5853 43.9483 27.5853 43.8124V37.4076C27.5853 37.2717 27.5321 37.142 27.4368 37.0467C27.34 36.9498 27.2103 36.8967 27.0759 36.8967ZM26.565 43.3031H24.6775V37.9171H26.565V43.3031ZM32.187 38.2811H29.2776C29.1417 38.2811 29.012 38.3342 28.9167 38.4295C28.8214 38.5264 28.7667 38.6561 28.7667 38.7905V43.8124C28.7667 43.9484 28.8214 44.0781 28.9167 44.1734C29.012 44.2687 29.1417 44.3234 29.2776 44.3234H32.187C32.3213 44.3234 32.451 44.2687 32.5463 44.1734C32.6432 44.0781 32.6963 43.9484 32.6963 43.8124V38.7905C32.6963 38.6561 32.6432 38.5264 32.5463 38.4295C32.451 38.3342 32.3213 38.2811 32.187 38.2811ZM31.676 43.3031H29.7885V39.3015H31.676V43.3031ZM20.5105 38.7951C21.087 38.7951 21.6261 38.5123 21.9527 38.0373C22.2808 37.5638 22.3542 36.9592 22.1511 36.4201L24.6027 34.5326C24.9948 34.8138 25.487 34.9201 25.962 34.8263C26.4355 34.7326 26.8495 34.4482 27.1073 34.0388L28.9776 34.5482C28.9917 35.0825 29.2495 35.5825 29.6776 35.9044C30.1058 36.2247 30.6573 36.3341 31.1761 36.1982C31.6933 36.0638 32.1214 35.6997 32.3386 35.2091C32.5542 34.72 32.5354 34.1575 32.287 33.6841L35.0042 31.0107C35.7698 31.4279 36.7261 31.2232 37.2526 30.5263C37.7776 29.831 37.7151 28.856 37.1026 28.2325C36.4917 27.6107 35.5167 27.531 34.812 28.0435C34.1073 28.5576 33.8854 29.5091 34.2901 30.2826L31.5729 32.956H31.5713C30.7573 32.5122 29.7386 32.7779 29.2464 33.5638L27.376 33.0544C27.362 32.5372 27.1198 32.0544 26.7167 31.731C26.3136 31.4091 25.7886 31.281 25.2808 31.381C24.7745 31.481 24.337 31.7997 24.087 32.2513C23.8355 32.7029 23.7964 33.2419 23.9792 33.7247L21.5292 35.6123H21.5277C21.0714 35.2873 20.4886 35.1982 19.9558 35.3748C19.4245 35.5529 19.0089 35.9716 18.8386 36.506C18.6667 37.0403 18.762 37.6232 19.0933 38.0763C19.423 38.5279 19.9495 38.7951 20.5105 38.7951ZM35.8432 28.7327C36.1401 28.7327 36.4089 28.9108 36.5229 29.1858C36.6385 29.4608 36.576 29.7765 36.3651 29.9874C36.1557 30.1983 35.8385 30.2624 35.5635 30.1483C35.2885 30.0343 35.1089 29.7655 35.1089 29.4687C35.1104 29.0624 35.437 28.7343 35.8432 28.7327ZM30.7324 33.7623C31.0293 33.7639 31.2965 33.942 31.409 34.217C31.5231 34.4904 31.4606 34.8061 31.2496 35.017C31.0402 35.2264 30.7246 35.2889 30.4512 35.1764C30.1762 35.0623 29.9965 34.7951 29.9965 34.4982C29.9965 34.092 30.3262 33.7639 30.7324 33.7623ZM25.6217 32.3685C25.9185 32.3685 26.1873 32.5482 26.3013 32.8217C26.4154 33.0967 26.3513 33.4139 26.142 33.6232C25.931 33.8342 25.6154 33.8967 25.3404 33.7826C25.0654 33.6701 24.8857 33.4014 24.8857 33.1045C24.8873 32.6982 25.2154 32.3685 25.6217 32.3685ZM20.5109 36.3061C20.8078 36.3061 21.075 36.4857 21.189 36.7607C21.3015 37.0342 21.239 37.3498 21.0281 37.5607C20.8187 37.7701 20.5031 37.8326 20.2281 37.7185C19.9531 37.6045 19.7749 37.3357 19.7749 37.0389C19.7765 36.8451 19.8531 36.6576 19.9921 36.5201C20.1296 36.3826 20.3156 36.3061 20.5109 36.3061ZM19.0546 18.1357C19.0546 17.9998 19.1078 17.8701 19.2046 17.7748C19.3 17.6795 19.4296 17.6248 19.5656 17.6248H23.8796C24.1608 17.6263 24.3889 17.8545 24.3889 18.1357C24.3889 18.4169 24.1608 18.6451 23.8796 18.6451H19.5656C19.4296 18.6451 19.3 18.5919 19.2046 18.4966C19.1078 18.4013 19.0546 18.2701 19.0546 18.1357ZM19.0546 21.0248C19.0546 20.8904 19.1078 20.7607 19.2046 20.6639C19.3 20.5685 19.4296 20.5154 19.5656 20.5154H27.8919C28.1732 20.5154 28.4029 20.7435 28.4029 21.0248C28.4029 21.3076 28.1732 21.5357 27.8919 21.5357H19.5656C19.4296 21.5357 19.3 21.4826 19.2046 21.3857C19.1078 21.2904 19.0546 21.1607 19.0546 21.0248ZM19.0546 24.1967C19.0546 24.0607 19.1078 23.931 19.2046 23.8357C19.3 23.7404 19.4296 23.6857 19.5656 23.6857H23.8796C24.1624 23.6857 24.3905 23.9138 24.3905 24.1966C24.3905 24.4779 24.1624 24.706 23.8796 24.706H19.5656C19.4296 24.706 19.3 24.6529 19.2046 24.5576C19.1078 24.4607 19.0546 24.331 19.0546 24.1967ZM19.0546 27.0857C19.0546 26.9513 19.1078 26.8217 19.2046 26.7263C19.3 26.6295 19.4296 26.5764 19.5656 26.5764H27.8919C28.1732 26.5764 28.4013 26.8045 28.4013 27.0857C28.4013 27.3669 28.1732 27.5951 27.8919 27.5966H19.5656C19.4296 27.5966 19.3 27.5435 19.2046 27.4466C19.1078 27.3513 19.0546 27.2217 19.0546 27.0857ZM43.1702 41.292L49.0621 41.2905C49.3434 41.2905 49.5699 41.0639 49.5715 40.7827C49.5434 39.1014 48.8481 37.4999 47.6387 36.3311C46.4575 35.1311 44.8606 34.4327 43.1763 34.378C43.0404 34.378 42.9091 34.4311 42.8123 34.5264C42.7154 34.6217 42.6607 34.753 42.6607 34.8889V40.7825C42.6607 40.9169 42.7138 41.0481 42.8091 41.1434C42.9044 41.2387 43.0342 41.292 43.1702 41.292ZM43.6795 35.4329L43.6811 35.4344C46.1904 35.7922 48.1623 37.7625 48.5247 40.2704L43.6811 40.272L43.6795 35.4329Z" fill="white"/>
<defs>
<linearGradient id="paint0_linear_189_27185" x1="64" y1="7.62939e-06" x2="7.62939e-06" y2="64" gradientUnits="userSpaceOnUse">
<stop stop-color="#F65A75"/>
<stop offset="1" stop-color="#48179C"/>
</linearGradient>
</defs>
</svg>
