<svg width="64" height="64" viewBox="0 0 64 64" fill="none" xmlns="http://www.w3.org/2000/svg">
<rect width="64" height="64" rx="32" fill="url(#paint0_linear_189_27163)"/>
<path d="M20.7816 48.8269C22.3346 48.8269 23.7424 48.1963 24.7573 47.1771C25.775 46.1594 26.4071 44.7531 26.4071 43.2014C26.4071 41.6454 25.7765 40.2406 24.7573 39.2215C23.7426 38.2038 22.3333 37.5763 20.7816 37.5763C19.2286 37.5763 17.8208 38.2038 16.8059 39.2215C15.7883 40.2392 15.1562 41.6455 15.1562 43.2014C15.1562 44.7544 15.7867 46.1592 16.8059 47.1771C17.8206 48.1948 19.2299 48.8269 20.7816 48.8269ZM20.2009 39.4695C20.2009 39.1489 20.461 38.8888 20.7816 38.8888C21.1022 38.8888 21.3623 39.1489 21.3623 39.4695V43.2015C21.3623 43.5191 21.1022 43.7822 20.7816 43.7822H17.913C17.5924 43.7822 17.3323 43.5191 17.3323 43.2015C17.3323 42.881 17.5924 42.6209 17.913 42.6209H20.2009V39.4695ZM28.7221 17.0788H38.2459V16.4936C38.2459 15.8086 38.5242 15.1856 38.9733 14.7319L39.0126 14.7017C39.4617 14.2677 40.0696 14.0015 40.7349 14.0015C41.4199 14.0015 42.043 14.2843 42.4966 14.7364C42.9503 15.1855 43.2285 15.8085 43.2285 16.4936V17.0788H44.65C46.1213 17.0788 47.4611 17.6791 48.4289 18.6499C49.4012 19.6177 50 20.9575 50 22.4288V41.6681C50 43.1349 49.3997 44.4746 48.4289 45.4424C47.4611 46.4147 46.1213 47.0136 44.65 47.0136H26.3982C26.1578 47.3659 25.8841 47.6956 25.5817 47.9965C24.3538 49.2244 22.6586 49.9865 20.7849 49.9865C18.9114 49.9865 17.2162 49.2243 15.9855 47.9965C14.7576 46.7686 14 45.0735 14 43.1998C14 41.3262 14.7591 39.6265 15.9855 38.4003C16.2879 38.0979 16.616 37.8272 16.9684 37.5867V22.4273C16.9684 20.956 17.5718 19.6162 18.5395 18.6484C19.5073 17.6761 20.8471 17.0773 22.3184 17.0773H23.7399V16.4921C23.7399 15.8071 24.0181 15.184 24.4718 14.7304L24.5066 14.7001C24.9557 14.2661 25.5636 14 26.2334 14C26.9184 14 27.5415 14.2828 27.9951 14.7319C28.4442 15.1855 28.727 15.8085 28.727 16.4936V17.0788L28.7221 17.0788ZM27.03 45.8523H44.6484C45.8022 45.8523 46.8471 45.3835 47.6062 44.6244C48.3653 43.8653 48.8371 42.8158 48.8371 41.6666V22.4274C48.8371 21.2736 48.3653 20.2287 47.6062 19.4696C46.8471 18.7105 45.8021 18.2387 44.6484 18.2387H43.2269V18.8239C43.2269 19.5058 42.9487 20.1289 42.4951 20.581L42.4905 20.5856C42.0414 21.0347 41.4184 21.3129 40.7334 21.3129C40.0484 21.3129 39.4253 21.0347 38.9717 20.581C38.5225 20.1319 38.2443 19.5089 38.2443 18.8239V18.2387H28.7205V18.8239C28.7205 19.5058 28.4377 20.1289 27.9856 20.581C27.5365 21.0347 26.9135 21.3129 26.2285 21.3129C25.5435 21.3129 24.9159 21.0347 24.4668 20.581C24.0131 20.1319 23.7349 19.5089 23.7349 18.8239V18.2387H22.3135C21.1642 18.2387 20.1148 18.7105 19.3557 19.4696C18.5966 20.2287 18.1248 21.2736 18.1248 22.4274V36.9519C18.6041 36.7463 19.1122 36.5951 19.643 36.5074V26.1443C19.643 25.3549 19.9636 24.6352 20.4868 24.1119C21.0054 23.5933 21.7252 23.2681 22.5146 23.2681H44.4439C45.2333 23.2681 45.953 23.5933 46.4763 24.1119L46.5065 24.1467C47.0101 24.6654 47.3201 25.3701 47.3201 26.1443V41.4625C47.3201 42.2518 46.9949 42.9716 46.4717 43.4903C45.9531 44.0135 45.2333 44.3386 44.4439 44.3386H27.4681C27.3789 44.8648 27.2277 45.376 27.0266 45.8523L27.03 45.8523ZM20.806 36.4148C22.6674 36.4193 24.3596 37.1769 25.5783 38.4003C26.8017 39.6236 27.5608 41.3112 27.5683 43.1773H44.4473C44.9161 43.1773 45.3455 42.9837 45.6555 42.6737C45.9686 42.3637 46.1621 41.9342 46.1621 41.4625V26.1443C46.1621 25.6831 45.9807 25.2658 45.6858 24.9603L45.6555 24.9331C45.3455 24.6231 44.9161 24.4295 44.4473 24.4295H22.518C22.0493 24.4295 21.6198 24.6231 21.3098 24.9331C20.9998 25.2431 20.8062 25.6725 20.8062 26.1443L20.806 36.4148ZM37.3249 31.2085L38.9853 30.1167C39.2136 29.9625 39.4737 29.8808 39.7369 29.8687C40 29.8566 40.2631 29.9156 40.5066 30.0471C40.75 30.1787 40.9436 30.3677 41.0797 30.5931C41.2158 30.8214 41.2884 31.0815 41.2884 31.3552V36.2514C41.2884 36.5267 41.2143 36.7898 41.0797 37.0136C40.9436 37.2374 40.75 37.4279 40.5066 37.5595C40.2631 37.6911 40 37.7485 39.7369 37.7379C39.4737 37.7258 39.2182 37.6412 38.9853 37.4899L37.3249 36.3951C37.2781 36.8095 37.0921 37.1814 36.8138 37.4597L36.7745 37.4945C36.4539 37.7969 36.0199 37.9829 35.5512 37.9829H27.4639C26.9725 37.9829 26.5264 37.7818 26.2013 37.4567C25.8762 37.1361 25.675 36.69 25.675 36.194V31.4124C25.675 30.9209 25.8762 30.4718 26.2013 30.1497C26.5264 29.8246 26.971 29.6235 27.4639 29.6235H35.5512C36.0396 29.6235 36.4887 29.8246 36.8093 30.1467C37.0921 30.4295 37.278 30.7969 37.3234 31.2067L37.3249 31.2085ZM37.337 35.0176L39.625 36.5237C39.6749 36.563 39.7338 36.5812 39.7883 36.5812C39.8427 36.5857 39.9002 36.5691 39.9592 36.5388C40.0166 36.5086 40.0605 36.4693 40.0862 36.4224C40.1134 36.3755 40.1285 36.3181 40.1285 36.2515V31.3553C40.1285 31.2888 40.1134 31.2313 40.0862 31.1844C40.059 31.1376 40.0121 31.0997 39.9592 31.068C39.9017 31.0377 39.8427 31.0211 39.7883 31.0256C39.7338 31.0256 39.6764 31.0453 39.625 31.0801L37.337 32.5892V35.0176ZM35.5527 30.7865H27.4654C27.2915 30.7865 27.1358 30.856 27.0239 30.9679C26.912 31.0798 26.8379 31.2386 26.8379 31.4125V36.1941C26.8379 36.368 26.912 36.5238 27.0239 36.6387C27.1358 36.7506 27.2916 36.8201 27.4654 36.8201H35.5527C35.7114 36.8201 35.8627 36.7627 35.97 36.6614L35.9927 36.6387C36.1046 36.5222 36.1742 36.368 36.1742 36.1941V31.4125C36.1742 31.2386 36.1046 31.0798 35.9927 30.9679C35.8808 30.856 35.722 30.7864 35.5512 30.7864L35.5527 30.7865ZM32.8277 33.7715L30.2344 32.2457L30.195 32.2411L30.1799 32.2563C30.1451 32.5587 30.1603 35.3759 30.2344 35.3607L32.8398 33.8244L32.8353 33.7775L32.8277 33.7699L32.8277 33.7715ZM30.8181 31.2477L33.4114 32.7734C33.5823 32.8748 33.7169 33.0093 33.8137 33.1606L33.8363 33.1999C33.9452 33.3859 34.0027 33.5991 34.0027 33.8078C34.0027 34.0134 33.9452 34.2251 33.8318 34.4156C33.735 34.582 33.5914 34.7287 33.4099 34.8375L30.8166 36.3633C30.6185 36.4797 30.4143 36.5296 30.2132 36.5296C30 36.5296 29.7959 36.4752 29.6174 36.3709C29.4586 36.2786 29.3195 36.1501 29.2152 35.9958L29.1758 35.9384C29.0745 35.7645 29.0125 35.5558 29.0125 35.335V32.2804C29.0125 32.0566 29.0745 31.851 29.1758 31.6771C29.2877 31.4911 29.439 31.3444 29.6174 31.2431C29.7988 31.1388 30.0045 31.0843 30.2132 31.0843C30.4113 31.0843 30.62 31.1342 30.8166 31.2507L30.8181 31.2477ZM40.7363 15.1626C40.384 15.1626 40.0589 15.3018 39.823 15.5301L39.8003 15.5573C39.5568 15.7978 39.4086 16.1304 39.4086 16.4949V18.8251C39.4086 19.1895 39.5553 19.5222 39.8003 19.7627C40.0407 20.0031 40.3734 20.1543 40.7378 20.1543C41.1053 20.1543 41.438 20.0076 41.6784 19.7672C41.9219 19.5237 42.0701 19.1911 42.0701 18.8266V16.4964C42.0701 16.1319 41.9188 15.7993 41.6784 15.5588C41.438 15.3154 41.1053 15.1642 40.7378 15.1642L40.7363 15.1626ZM26.2315 15.1626C25.8746 15.1626 25.5541 15.3018 25.3182 15.5301L25.2909 15.5573C25.0505 15.7978 24.8993 16.1304 24.8993 16.4949V18.8251C24.8993 19.1895 25.0505 19.5222 25.2909 19.7627C25.5314 20.0031 25.8641 20.1543 26.2315 20.1543C26.5959 20.1543 26.9286 20.0031 27.1721 19.7627C27.4125 19.5222 27.5637 19.1895 27.5637 18.8251V16.4949C27.5637 16.1304 27.4125 15.7978 27.1721 15.5573C26.9286 15.3139 26.5959 15.1626 26.2315 15.1626Z" fill="white"/>
<defs>
<linearGradient id="paint0_linear_189_27163" x1="64" y1="7.62939e-06" x2="7.62939e-06" y2="64" gradientUnits="userSpaceOnUse">
<stop stop-color="#F65A75"/>
<stop offset="1" stop-color="#48179C"/>
</linearGradient>
</defs>
</svg>
