<svg width="496" height="375" viewBox="0 0 496 375" fill="none" xmlns="http://www.w3.org/2000/svg">
<g clip-path="url(#clip0_189_27197)">
<path d="M387.352 133.483L379.749 133.61L375.934 129.427L375.204 122.702L371.305 124.832L369.204 133.054L363.571 127.056L363.343 121.388L357.899 116.703L355.89 114.708H349.574L351.572 120.332L359.17 124.567L360.489 125.966L358.849 126.789L358.91 131.243L355.214 132.79L352.048 132.096L350.08 129.297L355.213 129.573L356.601 127.704L345.213 120.022L344.348 116.752L339.724 120.934L335.029 119.97L327.891 129.248L326.492 132.882L321.928 133.298L315.173 133.34L311.136 131.453L309.948 123.433L311.397 119.609L318.268 118.104L325.767 119.609L326.675 115.461L323.492 114.709L324.583 108.252L332.125 107.072L337.4 99.6208L342.847 98.7067L347.764 99.4339H349.572L348.581 92.4373L342.601 94.8508L340.501 89.6215L337.036 89.1382L336.383 85.553L339.22 82.4721L345.944 79.8349L347.678 76.743C322.049 54.1625 288.473 40.3966 251.733 40.3147C251.623 40.3138 251.515 40.311 251.404 40.311C219.408 40.311 189.808 50.6969 165.731 68.2358L173.085 68.1769L176.36 69.9912L182.533 71.3222L183.015 73.7496L192.834 74.1113L191.504 70.9641L182.781 70.7202L184.835 68.7854L184.117 66.4786H176.23L184.836 60.0555H193.077L196.953 65.3915L203.385 65.7542L207.255 61.9922L210.17 63.4484L204.833 68.6611C204.833 68.6611 197.441 68.7844 197.806 68.7844C198.171 68.7844 198.419 73.8711 198.419 73.8711L207.372 73.6234L208.351 71.2053L214.523 70.8399L215.253 67.2086L211.618 66.5955L212.832 63.3269L215.617 62.4819L225.314 62.9614L219.963 67.8124L220.83 71.5634L226.402 72.4148L226.036 65.629L231.369 62.8399L240.828 61.7501L254.511 67.8115V73.0214L258.88 74.1104L256.695 78.2314H250.516L248.691 82.9553L234.562 79.6213L245.664 73.7081L241.427 70.1109L231.851 71.3204L231.015 72.1875L230.984 72.1718L230.828 72.3799L228.074 75.2426L223.524 75.6264L223.89 77.8991L225.476 78.5554L225.413 79.3047L221.713 79.833L221.439 81.9842L217.891 82.1702L217.253 77.8982L210.889 79.833L197.894 87.4427L199.356 92.7972L202.989 95.1656L210.257 96.1689V104.431L213.613 103.89L216.709 97.4364L224.437 94.987V85.078L228.733 81.8333L239.128 84.2854L238.396 90.8329H241.189L248.823 87.0782L249.188 95.6774L254.748 99.0675L254.513 104.167L251.733 105.113V108.661L255.968 110.59L255.844 114.101L253.982 114.258C253.974 114.2 253.969 114.164 253.969 114.164L245.863 111.665L245.523 109.069H245.511L247.875 107.439V105.072L245.329 104.434L244.699 106.62L240.235 107.311L239.789 107.162V107.385L238.241 107.62L236.977 105.072L235.517 104.434H232.335L230.887 105.617V108.251L233.611 109.158L236.297 109.535L235.697 109.799L233.247 112.517L232.162 111.158L229.797 110.532L223.339 116.608L224.182 117.301L214.647 122.579L205.677 131.91L205.07 136.064L196.075 141.97L191.622 146.452L192.112 155.417L185.926 152.539L185.976 147.295L168.777 147.302L159.874 151.811L155.997 158.94L154.469 164.596L156.977 170.078L163.99 170.933L175.14 163.476L176.118 167.172L172.714 173.601L181.21 175.05L182.051 188.161L193.691 190.136L201.077 181.592L210.048 183.416L213.198 187.798L221.799 187.291L222.041 184.746L226.765 187.05L232.101 195.404L241.302 195.533L244.7 201.473L245.183 208.738L255.368 212.617L268.206 212.74L271.971 218.91L277.662 220.733L276.567 225.828L270.326 233.76L268.506 251.304L262.878 255.758L254.514 255.509L251.734 260.338V260.38L253.795 269.449L244.7 281.081L241.796 286.414L233.13 290.58L227.428 291.445L227.192 293.861L231.192 295.012L230.708 297.613L227.124 301.067L229.303 303.801L233.613 303.923L233.371 307.254L232.225 310.526L231.855 313.189L238.231 318.56L237.382 321.35L228.71 321.185L220.072 313.648L213.342 301.824L214.284 290.412L209.194 283.623L211.256 272.117L208.228 271.266V246.307C208.228 246.307 199.746 239.876 199.264 239.876C198.781 239.876 194.782 238.789 194.782 238.789L193.928 234.064L182.907 220.249L183.997 215.283L184.357 207.161L191.983 201.831L190.893 192.739L179.75 191.901L171.025 181.958L164.848 180.267L160.853 179.535L161.33 175.902L156.242 175.176V177.234L143.518 174.086L138.398 166.251L140.485 162.454L132.423 150.696L131.037 142.094H127.768L128.857 150.453L134.43 159.055L133.824 162.454L129.099 161.726L123.286 151.814V140.279L117.231 137.367V129.067C109.739 146.603 105.586 165.893 105.586 186.135C105.586 266.54 171.001 331.956 251.408 331.956C251.517 331.956 251.626 331.952 251.736 331.952C297.19 331.85 337.808 310.837 364.503 278.054H359.693V268.361L354.132 260.863V249.206L349.878 244.975L349.514 240.124L354.906 229.822L344.672 211.766L345.887 199.518L336.673 198.559L333.286 195.166H327.099L323.954 198.072H313.045L312.681 199.041H306.619L292.689 183.173L292.799 170.809L295.103 169.963L295.958 165.234H292.689L291.351 160.267L307.474 148.638V140.397L315.361 136.017L318.549 136.336H325.044L330.122 133.61L346.485 132.334V140.697L359.392 143.971L361.937 145.788H364.303V141.238L371.75 140.513L378.845 145.788H390.473L391.291 145.041C390.137 141.117 388.82 137.265 387.352 133.483ZM318.494 91.9789L319.83 89.9234L324.616 88.9551L325.823 94.7744L328.375 98.8917L330.063 100.835L333.154 102.04L330.251 105.501L324.616 106.042H320.375L320.851 101.015L324.376 100.284L324.077 97.9224L320.795 95.8606L318.494 94.2884V91.9789ZM310.618 101.074L313.535 96.4101L317.46 95.4988L320.258 96.7129L320.005 99.8601L314.012 104.102H310.618V101.074ZM231.395 119.007L228.361 119.262L228.523 117.153L229.885 115.46L231.705 116.891L231.395 119.007ZM242.046 115.28L239.97 115.46L239.549 117.466L237.953 118.459L235.395 118.672C235.309 118.073 235.247 117.614 235.247 117.614H234.256V115.46H238.431L239.297 113.234L240.955 113.201L242.855 113.594L242.046 115.28Z" fill="white"/>
<path d="M109.262 193.185C109.262 208.169 97.116 220.317 82.1314 220.317C67.1486 220.317 55 208.17 55 193.185C55 178.202 67.1477 166.055 82.1314 166.055C97.115 166.055 109.262 178.202 109.262 193.185Z" fill="#BA3A9A"/>
<path d="M88.8265 177.499H75.4519C70.4085 177.499 66.3206 181.588 66.3206 186.631V200.004C66.3206 205.049 70.4085 209.136 75.4519 209.136H88.8265C93.8699 209.136 97.9569 205.049 97.9569 200.004V186.63C97.9569 181.588 93.8699 177.499 88.8265 177.499ZM95.0444 200.239C95.0444 203.589 92.3299 206.301 88.9821 206.301H75.2954C71.9476 206.301 69.234 203.589 69.234 200.239V186.552C69.234 183.206 71.9476 180.491 75.2954 180.491H88.9821C92.3299 180.491 95.0444 183.206 95.0444 186.552V200.239Z" fill="white"/>
<path d="M82.1812 185.698C77.6478 185.698 73.9714 189.375 73.9714 193.908C73.9714 198.442 77.6478 202.117 82.1812 202.117C86.7146 202.117 90.3901 198.442 90.3901 193.908C90.3901 189.375 86.7146 185.698 82.1812 185.698ZM82.1812 199.228C79.243 199.228 76.8599 196.847 76.8599 193.908C76.8599 190.969 79.243 188.586 82.1812 188.586C85.1203 188.586 87.5026 190.968 87.5026 193.908C87.5026 196.847 85.1203 199.228 82.1812 199.228Z" fill="white"/>
<path d="M90.665 183.474C89.6083 183.474 88.7513 184.33 88.7513 185.385C88.7513 186.442 89.6083 187.298 90.665 187.298C91.7199 187.298 92.5769 186.442 92.5769 185.385C92.5769 184.33 91.719 183.474 90.665 183.474Z" fill="white"/>
<path d="M360.555 345.066C360.555 360.05 348.409 372.197 333.424 372.197C318.442 372.197 306.293 360.05 306.293 345.066C306.293 330.081 318.441 317.935 333.424 317.935C348.408 317.936 360.555 330.082 360.555 345.066Z" fill="#BA3A9A"/>
<path d="M340.12 329.379H326.745C321.702 329.379 317.614 333.469 317.614 338.51V351.884C317.614 356.928 321.702 361.015 326.745 361.015H340.12C345.163 361.015 349.25 356.928 349.25 351.884V338.51C349.25 333.47 345.163 329.379 340.12 329.379ZM346.337 352.12C346.337 355.469 343.623 358.182 340.275 358.182H326.588C323.241 358.182 320.527 355.469 320.527 352.12V338.433C320.527 335.085 323.241 332.372 326.588 332.372H340.275C343.623 332.372 346.337 335.085 346.337 338.433V352.12Z" fill="white"/>
<path d="M333.472 337.579C328.939 337.579 325.262 341.255 325.262 345.788C325.262 350.322 328.939 353.996 333.472 353.996C338.006 353.996 341.681 350.322 341.681 345.788C341.681 341.256 338.006 337.579 333.472 337.579ZM333.472 351.108C330.534 351.108 328.151 348.728 328.151 345.788C328.151 342.849 330.534 340.467 333.472 340.467C336.411 340.467 338.794 342.849 338.794 345.788C338.794 348.728 336.411 351.108 333.472 351.108Z" fill="white"/>
<path d="M341.956 335.355C340.899 335.355 340.042 336.211 340.042 337.266C340.042 338.322 340.899 339.178 341.956 339.178C343.011 339.178 343.868 338.322 343.868 337.266C343.868 336.211 343.01 335.355 341.956 335.355Z" fill="white"/>
<path d="M255.98 19.8274C255.98 29.7595 247.929 37.8119 237.996 37.8119C228.064 37.8119 220.012 29.7604 220.012 19.8274C220.012 9.89535 228.064 1.84293 237.996 1.84293C247.929 1.84293 255.98 9.89535 255.98 19.8274Z" fill="#BA3A9A"/>
<path fill-rule="evenodd" clip-rule="evenodd" d="M236.859 22.6901C236.845 22.7417 236.831 22.7849 236.821 22.8282C236.161 25.4102 236.088 25.9836 235.41 27.1812C235.087 27.751 234.724 28.2913 234.321 28.8086C234.275 28.8657 234.232 28.9412 234.143 28.9237C234.045 28.9025 234.037 28.8123 234.026 28.7322C233.917 27.9479 233.858 27.1618 233.883 26.3712C233.917 25.3393 234.045 24.9849 235.375 19.3911C235.394 19.3073 235.373 19.2355 235.345 19.1601C235.026 18.3003 234.963 17.4295 235.241 16.5459C235.843 14.6377 238.005 14.4932 238.385 16.0672C238.617 17.0402 238 18.3141 237.527 20.1956C237.135 21.7503 238.964 22.854 240.528 21.7199C241.968 20.6752 242.529 18.1687 242.423 16.3922C242.212 12.8501 238.329 12.0852 235.864 13.2257C233.04 14.5309 232.398 18.0325 233.674 19.6332C233.835 19.8366 233.959 19.96 233.906 20.1671C233.823 20.4883 233.751 20.8114 233.662 21.129C233.597 21.3665 233.399 21.453 233.159 21.3563C232.689 21.1658 232.295 20.8648 231.978 20.4718C230.895 19.1306 230.586 16.4787 232.018 14.2318C233.605 11.7437 236.556 10.7376 239.249 11.0432C242.468 11.4086 244.502 13.6077 244.882 16.1022C245.056 17.239 244.932 20.0419 243.337 22.0228C241.501 24.2982 238.525 24.4483 237.154 23.051C237.049 22.9433 236.963 22.8181 236.859 22.6901Z" fill="white"/>
<path d="M123.431 272.961C123.431 282.894 115.38 290.945 105.447 290.945C95.5145 290.945 87.463 282.894 87.463 272.961C87.463 263.029 95.5145 254.977 105.447 254.977C115.38 254.977 123.431 263.029 123.431 272.961Z" fill="#BA3A9A"/>
<path fill-rule="evenodd" clip-rule="evenodd" d="M104.31 275.824C104.295 275.877 104.282 275.92 104.272 275.962C103.612 278.544 103.539 279.118 102.861 280.316C102.538 280.886 102.175 281.427 101.772 281.943C101.726 282.001 101.683 282.076 101.594 282.058C101.496 282.036 101.488 281.946 101.477 281.867C101.368 281.082 101.309 280.296 101.334 279.505C101.368 278.473 101.496 278.119 102.826 272.526C102.846 272.441 102.824 272.37 102.796 272.294C102.477 271.434 102.414 270.563 102.692 269.68C103.294 267.773 105.456 267.627 105.835 269.201C106.068 270.174 105.451 271.448 104.978 273.329C104.586 274.883 106.415 275.988 107.979 274.853C109.419 273.808 109.98 271.303 109.874 269.526C109.663 265.982 105.78 265.218 103.315 266.359C100.491 267.664 99.8486 271.166 101.125 272.766C101.286 272.97 101.41 273.093 101.357 273.3C101.274 273.622 101.202 273.944 101.113 274.262C101.048 274.5 100.85 274.586 100.61 274.49C100.139 274.3 99.7465 273.998 99.4289 273.604C98.3464 272.263 98.0371 269.611 99.4694 267.366C101.056 264.878 104.007 263.871 106.7 264.176C109.919 264.541 111.953 266.74 112.333 269.235C112.506 270.371 112.383 273.174 110.788 275.156C108.952 277.43 105.976 277.581 104.605 276.184C104.5 276.077 104.414 275.951 104.31 275.824Z" fill="white"/>
<path d="M440.03 177.129C439.863 190.592 428.813 201.371 415.349 201.203C401.885 201.035 391.107 189.986 391.275 176.523C391.442 163.06 402.492 152.281 415.956 152.448C429.419 152.616 440.198 163.665 440.03 177.129Z" fill="#6BE0FF"/>
<path d="M408.128 182.292C410.297 182.319 412.034 184.103 412.008 186.272C411.98 188.444 410.2 190.181 408.032 190.153C405.861 190.127 404.124 188.346 404.152 186.174C404.177 184.005 405.959 182.266 408.128 182.292Z" fill="white"/>
<path d="M404.272 176.774C411.583 176.865 417.475 182.871 417.382 190.297L422.849 190.365C422.978 179.987 414.676 171.437 404.341 171.309L404.272 176.774Z" fill="white"/>
<path d="M404.399 167.085C417.041 167.243 427.199 177.713 427.04 190.42L432.503 190.488C432.698 174.763 420.123 161.813 404.469 161.618L404.399 167.085Z" fill="white"/>
<path d="M208.988 346.498C208.82 359.962 197.772 370.741 184.307 370.572C170.843 370.405 160.065 359.355 160.232 345.891C160.4 332.427 171.45 321.65 184.913 321.817C198.376 321.985 209.155 333.034 208.988 346.498Z" fill="#3A6EBA"/>
<path d="M177.086 351.661C179.254 351.688 180.991 353.472 180.966 355.641C180.937 357.813 179.158 359.55 176.989 359.523C174.819 359.496 173.082 357.716 173.109 355.545C173.135 353.375 174.916 351.634 177.086 351.661Z" fill="white"/>
<path d="M173.229 346.144C180.541 346.236 186.433 352.242 186.34 359.667L191.806 359.735C191.935 349.356 183.633 340.805 173.297 340.678L173.229 346.144Z" fill="white"/>
<path d="M173.357 336.456C185.998 336.612 196.157 347.083 195.997 359.792L201.46 359.86C201.656 344.134 189.081 331.183 173.426 330.989L173.357 336.456Z" fill="white"/>
<path d="M105.637 139.474C105.637 148.237 98.5325 155.34 89.7713 155.34C81.0083 155.34 73.9058 148.237 73.9058 139.474C73.9058 130.712 81.0092 123.61 89.7713 123.61C98.5325 123.609 105.637 130.712 105.637 139.474Z" fill="#BAB13A"/>
<path d="M89.8986 149.06C89.8406 149.06 89.7872 149.058 89.7458 149.055C89.7136 149.059 89.6795 149.06 89.6445 149.06C88.4461 149.06 87.6434 148.493 86.9374 147.992C86.4293 147.634 85.9516 147.296 85.3919 147.203C85.1158 147.157 84.8414 147.134 84.5773 147.134C84.0995 147.134 83.724 147.208 83.4478 147.262C83.2785 147.296 83.1321 147.324 83.0207 147.324C82.902 147.324 82.7593 147.297 82.6976 147.093C82.6507 146.932 82.6166 146.775 82.5835 146.625C82.5025 146.25 82.4427 146.021 82.3018 145.999C80.7977 145.767 79.9086 145.425 79.7318 145.01C79.7153 144.969 79.7033 144.926 79.7005 144.881C79.6941 144.757 79.7806 144.649 79.904 144.63C81.0969 144.432 82.1591 143.801 83.0603 142.752C83.7571 141.94 84.0995 141.164 84.1364 141.079C84.1391 141.075 84.141 141.07 84.1419 141.067C84.3159 140.715 84.3517 140.41 84.2459 140.163C84.0507 139.706 83.4092 139.503 82.9857 139.366C82.879 139.334 82.7796 139.302 82.6995 139.271C82.3221 139.122 81.7044 138.807 81.7864 138.374C81.8462 138.058 82.2659 137.838 82.6028 137.838C82.6967 137.838 82.7796 137.854 82.8504 137.887C83.2324 138.066 83.5767 138.157 83.8713 138.157C84.2376 138.157 84.4162 138.016 84.4594 137.976C84.4484 137.776 84.4364 137.574 84.4235 137.374C84.337 136.002 84.2284 134.294 84.6666 133.315C85.9736 130.382 88.7471 130.155 89.5654 130.155C89.6998 130.153 89.8351 130.153 89.9704 130.151C90.7906 130.151 93.5704 130.378 94.8775 133.313C95.3148 134.292 95.2061 136.002 95.1196 137.375L95.1159 137.442C95.104 137.628 95.0929 137.804 95.0837 137.975C95.1242 138.013 95.2881 138.141 95.6167 138.153C95.8993 138.142 96.2233 138.052 96.5795 137.885C96.69 137.834 96.8115 137.823 96.8952 137.823C97.0213 137.823 97.1474 137.847 97.2542 137.891L97.2597 137.894C97.5617 138.001 97.7596 138.216 97.7651 138.44C97.7697 138.651 97.6123 138.965 96.8437 139.269C96.7664 139.3 96.666 139.332 96.5583 139.365C96.134 139.501 95.4924 139.704 95.2982 140.161C95.1932 140.408 95.2291 140.713 95.4013 141.065C95.4031 141.068 95.405 141.073 95.4077 141.077C95.4611 141.201 96.7553 144.152 99.642 144.627C99.7625 144.648 99.8491 144.756 99.8435 144.879C99.8399 144.925 99.8297 144.969 99.8113 145.011C99.6364 145.423 98.7482 145.763 97.2422 145.997C97.1014 146.018 97.0416 146.246 96.9606 146.62C96.9265 146.775 96.8925 146.925 96.8455 147.084C96.8023 147.235 96.7047 147.308 96.5482 147.308H96.5252C96.423 147.308 96.2785 147.289 96.0962 147.253C95.7778 147.192 95.4215 147.134 94.9686 147.134C94.7035 147.134 94.4302 147.157 94.1549 147.203C93.5953 147.296 93.1166 147.634 92.6104 147.99C91.8997 148.493 91.0971 149.06 89.8986 149.06Z" fill="white"/>
<path d="M376.869 61.4886C376.869 69.831 370.105 76.5947 361.763 76.5947C353.42 76.5947 346.656 69.8319 346.656 61.4886C346.656 53.1453 353.421 46.3834 361.763 46.3834C370.106 46.3834 376.869 53.1453 376.869 61.4886Z" fill="#86FF6B"/>
<path d="M361.765 51.795H361.759C356.342 51.795 351.937 56.2013 351.937 61.6193C351.937 63.7678 352.629 65.7606 353.808 67.3779L352.584 71.0295L356.36 69.8209C357.913 70.85 359.766 71.4455 361.765 71.4455C367.181 71.4455 371.586 67.0382 371.586 61.6193C371.586 56.2013 367.181 51.795 361.765 51.795ZM367.483 65.6686C367.244 66.3387 366.304 66.8937 365.553 67.0548C365.038 67.1643 364.37 67.2518 362.113 66.3157C359.225 65.1199 357.365 62.1864 357.22 61.9967C357.082 61.8034 356.053 60.443 356.053 59.0328C356.053 57.6226 356.77 56.9359 357.058 56.6413C357.296 56.3993 357.689 56.2897 358.063 56.2897C358.186 56.2897 358.294 56.2952 358.393 56.2998C358.681 56.3127 358.827 56.3293 359.016 56.7859C359.253 57.3584 359.831 58.7667 359.899 58.9103C359.97 59.0558 360.038 59.2518 359.94 59.4442C359.847 59.6394 359.766 59.7259 359.624 59.8943C359.478 60.0619 359.338 60.1889 359.195 60.3666C359.062 60.5221 358.912 60.6924 359.081 60.9787C359.247 61.2622 359.825 62.2048 360.674 62.9596C361.77 63.9362 362.66 64.2482 362.978 64.3808C363.214 64.4802 363.497 64.4554 363.67 64.2713C363.89 64.0347 364.162 63.6416 364.44 63.256C364.637 62.977 364.881 62.943 365.142 63.0406C365.408 63.1335 366.812 63.8276 367.101 63.9712C367.389 64.1148 367.58 64.1838 367.65 64.3072C367.718 64.4268 367.718 64.9975 367.483 65.6686Z" fill="white"/>
<path d="M155.02 317.567C155.118 309.225 148.435 302.384 140.093 302.286C131.751 302.189 124.909 308.872 124.811 317.213C124.714 325.555 131.397 332.396 139.739 332.494C148.081 332.591 154.923 325.908 155.02 317.567Z" fill="#86FF6B"/>
<path d="M139.93 307.69H139.924C134.507 307.69 130.102 312.097 130.102 317.516C130.102 319.664 130.794 321.656 131.973 323.274L130.749 326.926L134.525 325.717C136.078 326.745 137.931 327.341 139.93 327.341C145.346 327.341 149.751 322.935 149.751 317.516C149.751 312.097 145.346 307.69 139.93 307.69ZM145.648 321.564C145.409 322.234 144.469 322.79 143.718 322.95C143.203 323.06 142.535 323.148 140.278 322.211C137.39 321.015 135.53 318.082 135.385 317.891C135.247 317.699 134.218 316.337 134.218 314.928C134.218 313.517 134.935 312.83 135.223 312.535C135.461 312.294 135.854 312.184 136.228 312.184C136.351 312.184 136.46 312.19 136.558 312.193C136.846 312.208 136.992 312.224 137.181 312.68C137.418 313.252 137.996 314.661 138.064 314.806C138.135 314.951 138.203 315.145 138.105 315.338C138.012 315.534 137.931 315.62 137.789 315.789C137.643 315.956 137.503 316.081 137.36 316.26C137.227 316.417 137.077 316.585 137.246 316.873C137.412 317.158 137.99 318.099 138.839 318.854C139.935 319.831 140.825 320.143 141.143 320.276C141.38 320.375 141.662 320.35 141.835 320.167C142.055 319.929 142.327 319.537 142.605 319.151C142.802 318.872 143.047 318.838 143.307 318.936C143.573 319.03 144.977 319.723 145.266 319.866C145.554 320.009 145.744 320.079 145.815 320.202C145.883 320.321 145.883 320.894 145.648 321.564Z" fill="white"/>
<path d="M151.373 79.2541C151.373 94.2378 139.226 106.385 124.242 106.385C109.258 106.385 97.1095 94.2387 97.1095 79.2541C97.1095 64.2695 109.257 52.1236 124.242 52.1236C139.225 52.1236 151.373 64.2704 151.373 79.2541Z" fill="#6BE0FF"/>
<path d="M141.918 68.4181C140.619 68.9962 139.221 69.3855 137.753 69.5613C139.251 68.6629 140.4 67.2408 140.942 65.5471C139.518 66.3939 137.96 66.9895 136.336 67.3071C135.013 65.8996 133.129 65.0187 131.042 65.0187C127.037 65.0187 123.79 68.2653 123.79 72.2731C123.79 72.8392 123.853 73.3924 123.977 73.9263C117.949 73.6244 112.605 70.7359 109.027 66.3479C108.402 67.4203 108.045 68.6648 108.045 69.9949C108.045 72.5097 109.327 74.7299 111.273 76.0296C110.121 75.9946 108.993 75.6844 107.987 75.1248V75.2168C107.987 78.7303 110.487 81.6602 113.806 82.3257C113.195 82.4942 112.556 82.5816 111.894 82.5816C111.426 82.5816 110.972 82.5374 110.529 82.4546C111.451 85.3357 114.131 87.4317 117.304 87.4906C114.82 89.4365 111.692 90.5963 108.296 90.5963C107.71 90.5963 107.131 90.5604 106.564 90.4923C109.775 92.5514 113.587 93.7527 117.682 93.7527C131.023 93.7527 138.319 82.7004 138.319 73.1163C138.319 72.8033 138.311 72.4913 138.296 72.1792C139.717 71.1501 140.945 69.878 141.918 68.4181Z" fill="white"/>
<path d="M194.836 35.7003C194.836 45.162 187.166 52.8315 177.706 52.8315C168.244 52.8315 160.574 45.162 160.574 35.7003C160.574 26.2395 168.244 18.5691 177.706 18.5691C187.166 18.5691 194.836 26.2395 194.836 35.7003Z" fill="#3A6EBA"/>
<path d="M171.098 33.5418H173.932V42.6472H171.098V33.5418ZM172.515 29.0176C173.421 29.0176 174.156 29.7521 174.156 30.6561C174.156 31.5646 173.421 32.3001 172.515 32.3001C171.607 32.3001 170.873 31.5646 170.873 30.6561C170.873 29.7512 171.607 29.0176 172.515 29.0176Z" fill="white"/>
<path d="M175.709 33.5418H178.423V34.7881H178.461C178.839 34.072 179.762 33.3154 181.139 33.3154C184.005 33.3154 184.534 35.2014 184.534 37.6518V42.6482H181.706V38.2216C181.706 37.163 181.687 35.8071 180.236 35.8071C178.762 35.8071 178.537 36.9568 178.537 38.1424V42.6482H175.709V33.5418Z" fill="white"/>
<path d="M408.389 286.073C408.389 295.534 400.72 303.204 391.259 303.204C381.798 303.204 374.128 295.534 374.128 286.073C374.128 276.613 381.798 268.942 391.259 268.942C400.719 268.942 408.389 276.613 408.389 286.073Z" fill="#6BE0FF"/>
<path d="M384.653 283.914H387.487V293.021H384.653V283.914ZM386.07 279.391C386.977 279.391 387.711 280.125 387.711 281.028C387.711 281.936 386.977 282.672 386.07 282.672C385.163 282.672 384.429 281.936 384.429 281.028C384.428 280.124 385.162 279.391 386.07 279.391Z" fill="white"/>
<path d="M389.263 283.914H391.977V285.161H392.015C392.393 284.445 393.316 283.688 394.693 283.688C397.559 283.688 398.088 285.574 398.088 288.024V293.021H395.26V288.594C395.26 287.535 395.241 286.179 393.789 286.179C392.316 286.179 392.091 287.33 392.091 288.515V293.021H389.263V283.914Z" fill="white"/>
<path d="M274.919 359.712C274.919 369.173 267.249 376.843 257.788 376.843C248.327 376.843 240.657 369.173 240.657 359.712C240.657 350.252 248.327 342.581 257.788 342.581C267.248 342.581 274.919 350.252 274.919 359.712Z" fill="#6BE0FF"/>
<path d="M251.181 357.553H254.015V366.66H251.181V357.553ZM252.597 353.03C253.504 353.03 254.239 353.764 254.239 354.667C254.239 355.575 253.504 356.311 252.597 356.311C251.69 356.311 250.956 355.575 250.956 354.667C250.956 353.763 251.69 353.03 252.597 353.03Z" fill="white"/>
<path d="M255.792 357.553H258.506V358.8H258.544C258.922 358.084 259.845 357.327 261.222 357.327C264.088 357.327 264.617 359.213 264.617 361.663V366.66H261.789V362.233C261.789 361.174 261.77 359.818 260.318 359.818C258.845 359.818 258.62 360.969 258.62 362.154V366.66H255.792V357.553Z" fill="white"/>
<path d="M422.717 118.06C422.832 129.376 413.754 138.643 402.438 138.758C391.123 138.874 381.856 129.794 381.741 118.479C381.625 107.164 390.705 97.8967 402.019 97.7816C413.335 97.6656 422.601 106.744 422.717 118.06Z" fill="#BA3A3C"/>
<path d="M407.504 118.399L398.618 123.653L398.589 113.197L407.504 118.399ZM415.832 123.227L415.808 113.505C415.808 113.505 415.795 108.82 411.108 108.833L393.293 108.881C393.293 108.881 388.61 108.893 388.622 113.578L388.649 123.299C388.649 123.299 388.661 127.982 393.344 127.97L411.16 127.922C411.16 127.922 415.845 127.908 415.832 123.227Z" fill="white"/>
<path d="M433.763 233.12C433.878 244.436 424.799 253.703 413.483 253.818C402.168 253.934 392.901 244.854 392.786 233.539C392.67 222.224 401.75 212.958 413.065 212.842C424.38 212.726 433.647 221.805 433.763 233.12Z" fill="#BA3A3C"/>
<path d="M418.549 233.46L409.663 238.713L409.634 228.257L418.549 233.46ZM426.878 238.287L426.853 228.566C426.853 228.566 426.84 223.881 422.153 223.894L404.338 223.941C404.338 223.941 399.655 223.954 399.667 228.639L399.694 238.359C399.694 238.359 399.706 243.043 404.389 243.03L422.205 242.983C422.205 242.983 426.891 242.97 426.878 238.287Z" fill="white"/>
<path d="M331.981 30.7628C331.981 41.8362 323.004 50.8138 311.93 50.8138C300.857 50.8138 291.88 41.8362 291.88 30.7628C291.88 19.6902 300.857 10.7118 311.93 10.7118C323.004 10.7118 331.981 19.6902 331.981 30.7628Z" fill="#3A6EBA"/>
<path d="M318.283 26.0766H313.957V23.2378C313.957 22.1719 314.664 21.9234 315.161 21.9234C315.656 21.9234 318.213 21.9234 318.213 21.9234V17.239L314.009 17.2215C309.34 17.2215 308.277 20.7166 308.277 22.9534V26.0757H305.577V30.9027H308.277C308.277 37.0994 308.277 44.5637 308.277 44.5637H313.957C313.957 44.5637 313.957 37.0249 313.957 30.9027H317.787L318.283 26.0766Z" fill="white"/>
<path d="M158.779 258.005C158.757 258.224 158.713 258.435 158.713 258.66V259.01C158.713 262.504 161.546 265.337 165.039 265.337H341.659C345.153 265.337 347.986 262.504 347.986 259.01V258.66C347.986 258.435 347.942 258.224 347.92 258.005H158.779Z" fill="#929393"/>
<path d="M330.362 256.017C330.362 258.411 328.422 260.352 326.029 260.352H180.973C178.58 260.352 176.641 258.411 176.641 256.017V165.274C176.641 162.879 178.58 160.939 180.973 160.939H326.029C328.422 160.939 330.362 162.879 330.362 165.274V256.017Z" fill="#929393"/>
<path d="M324.839 167.382H182.163V255.749H324.839V167.382Z" fill="#23292A"/>
<path d="M292.47 146.001C289.175 139.472 283.448 136.601 277.889 135.127C272.845 133.79 267.797 135.097 263.328 138.412C260.266 140.684 256.855 141.837 253.438 141.875C253.143 141.872 251.965 141.872 251.67 141.875C248.252 141.837 244.841 140.684 241.78 138.412C237.311 135.097 232.263 133.79 227.219 135.127C221.66 136.601 215.933 139.472 212.638 146.001C206.837 157.496 208.021 174.503 213.783 185.544C214.995 187.868 215.15 190.89 215.005 193.716C214.795 197.802 214.737 201.636 214.86 205.725C215.012 210.772 215.371 215.824 216.12 220.779C217.405 229.278 219.934 237.783 224.862 243.688C226.09 245.161 227.443 246.445 228.884 247.519C232.922 250.529 237.368 247.716 239.223 242.336C240.398 238.931 240.597 235.094 240.846 231.359C241.396 223.122 243.542 215.432 250.508 214.45C250.896 214.396 251.284 214.375 251.669 214.384C251.963 214.377 252.258 214.405 252.554 214.435C252.849 214.405 253.144 214.377 253.437 214.384C253.823 214.375 254.211 214.396 254.599 214.45C261.565 215.432 263.711 223.122 264.261 231.359C264.51 235.094 264.709 238.931 265.883 242.336C267.739 247.716 272.184 250.529 276.223 247.519C277.664 246.445 279.016 245.161 280.245 243.688C285.172 237.782 287.701 229.278 288.986 220.779C289.735 215.824 290.094 210.772 290.246 205.725C290.37 201.636 290.311 197.803 290.101 193.716C289.956 190.89 290.111 187.868 291.324 185.544C297.086 174.503 298.271 157.496 292.47 146.001Z" fill="white"/>
<path d="M269.61 260.812C269.61 261.574 268.991 262.193 268.229 262.193H238.773C238.011 262.193 237.393 261.574 237.393 260.812C237.393 260.05 238.011 259.431 238.773 259.431H268.229C268.991 259.431 269.61 260.05 269.61 260.812Z" fill="#23292A"/>
<path d="M254.793 164.451C254.793 165.25 254.147 165.895 253.349 165.895C252.551 165.895 251.905 165.25 251.905 164.451C251.905 163.653 252.551 163.006 253.349 163.006C254.147 163.006 254.793 163.653 254.793 164.451Z" fill="#23292A"/>
<path d="M347.061 207.111L341.143 196L380.446 177.136L347.061 207.111Z" fill="#3A6EBA"/>
<path d="M379.917 177.486L347.061 207.111L351.305 199.271L379.917 177.486Z" fill="#363C76"/>
<path d="M380.446 177.136L351.305 199.271L362.814 203.902L380.446 177.136Z" fill="#6BE0FF"/>
<path d="M341.143 196L330.399 192.989L380.446 177.136L341.143 196Z" fill="#6BE0FF"/>
<path d="M185.288 153.722L191.206 142.612L151.902 123.748L185.288 153.722Z" fill="#3A6EBA"/>
<path d="M152.431 124.097L185.288 153.722L181.042 145.883L152.431 124.097Z" fill="#363C76"/>
<path d="M151.902 123.748L181.042 145.883L169.535 150.514L151.902 123.748Z" fill="#6BE0FF"/>
<path d="M191.206 142.612L201.95 139.601L151.902 123.748L191.206 142.612Z" fill="#6BE0FF"/>
</g>
<defs>
<clipPath id="clip0_189_27197">
<rect width="496" height="375" fill="white"/>
</clipPath>
</defs>
</svg>
