<svg width="623" height="390" viewBox="0 0 623 390" fill="none" xmlns="http://www.w3.org/2000/svg">
<path d="M132.365 284.613C83.1269 223.78 95.4766 118.35 157.051 59.9533C231.153 -10.3229 340.598 21.6092 356.404 26.2208C437.231 49.8034 513.581 120.633 520.847 207.304C524.951 256.257 508.213 324.552 466.363 341.341C435.676 353.653 418.421 327.464 350.64 327.961C299.964 328.333 294.124 343.085 253.69 340.85C245.678 340.407 173.493 335.426 132.365 284.613Z" fill="#ABD1FF"/>
<path d="M377.908 314.631L377.25 313.867C408.396 280.673 421.39 229.891 421.517 229.382L422.521 229.512C422.393 230.025 409.314 281.16 377.908 314.631Z" fill="#223242"/>
<path d="M421 230.582C421 230.582 422.821 198.271 431.402 176.322C434.363 168.749 437.832 162.356 441.006 157.289C441.006 157.289 442.483 197.634 421 230.582Z" fill="#80BA91"/>
<path d="M441.005 157.289C441.005 157.289 432.907 172.489 432.595 191.723C432.282 210.957 434.996 225.159 410.855 251.939C410.855 251.939 423.446 180.985 441.005 157.289Z" fill="#223242"/>
<path d="M393.408 300.06C390.447 298.905 394.686 280.269 403.347 263.501C413.251 244.323 420.689 243.556 431.003 223.859C440.387 205.939 436.401 202.43 444.421 189.853C459.606 166.043 487.331 157.549 488.058 160.4C488.492 162.103 478.95 166.462 472.334 178.857C464.75 193.069 470.471 200.125 465.532 214.213C459.868 230.37 448.667 231.582 426.6 256.411C404.782 280.959 393.408 300.06 393.408 300.06Z" fill="#80BA91"/>
<path d="M393.408 300.06C393.408 300.06 426.591 270.548 459.116 225.391C459.116 225.391 419.077 251.58 393.408 300.06Z" fill="#223242"/>
<path d="M386.527 316.252C388.592 305.486 394.679 294.253 394.74 294.141C403.4 272.131 414.251 254.164 426.952 240.82C428.14 239.571 429.362 238.342 430.601 237.097C436.45 231.219 442.497 225.141 447.01 214.992C449.452 209.499 450.235 205.516 450.992 201.665C451.761 197.746 452.489 194.044 454.833 189.097C459.414 179.435 467.586 170.857 479.122 163.599L479.519 164.578C468.204 171.696 460.203 180.078 455.741 189.491C453.472 194.276 452.762 197.895 452.009 201.725C451.238 205.653 450.44 209.715 447.932 215.354C443.311 225.746 437.169 231.92 431.23 237.888C429.999 239.126 428.783 240.348 427.6 241.589C415.029 254.799 404.277 272.61 395.647 294.526C395.549 294.718 389.569 305.76 387.545 316.306L386.527 316.252Z" fill="#223242"/>
<path d="M389 308.325C389 308.325 435.522 272.9 470.216 254.21L440.264 256.6L406.874 283.139L389 308.325Z" fill="#223242"/>
<path d="M389 308.324C396.914 291.971 405.226 282.22 411.309 276.359C420.106 267.881 425.096 266.714 436.809 255.096C447.252 244.738 448.721 240.275 454.043 235.413C462.351 227.824 476.676 222.344 502.966 233.133C502.966 233.133 498.872 231.669 494.201 233.961C489.529 236.252 475.303 255.508 460.299 258.137C445.294 260.766 430.377 262.696 413.699 279.754C397.022 296.812 389 308.324 389 308.324Z" fill="#80BA91"/>
<path d="M384.73 316.913L383.869 316.428L388.57 308.082C402.977 282.505 421.796 270.334 439.994 258.564C447.106 253.964 453.825 249.619 460.025 244.608C481.854 226.965 493.607 231.11 494.097 231.294L493.622 232.393C493.507 232.35 481.831 228.296 460.545 245.5C454.292 250.553 447.546 254.916 440.405 259.535C422.343 271.216 403.667 283.295 389.432 308.568L384.73 316.913Z" fill="#223242"/>
<path d="M250.427 325.534L251.225 324.919C227.397 286.136 224.892 233.777 224.87 233.252L223.861 233.178C223.883 233.705 226.401 286.426 250.427 325.534Z" fill="#223242"/>
<path d="M225.136 234.532C225.136 234.532 229.857 202.515 225.869 179.289C224.493 171.275 222.382 164.316 220.292 158.712C220.292 158.712 210.725 197.934 225.136 234.532Z" fill="#80BA91"/>
<path d="M220.293 158.712C220.293 158.712 225.164 175.23 221.599 194.134C218.034 213.037 212.516 226.402 230.773 257.493C230.773 257.493 232.723 185.457 220.293 158.712Z" fill="#223242"/>
<path d="M238.178 308.141C241.311 307.606 240.91 288.498 235.802 270.329C229.961 249.551 222.83 247.302 216.691 225.933C211.106 206.491 215.718 203.856 210.393 189.923C200.313 163.543 174.864 149.643 173.578 152.289C172.81 153.87 181.28 160.06 185.265 173.532C189.834 188.98 182.81 194.74 184.812 209.535C187.108 226.501 197.835 229.944 214.453 258.705C230.881 287.142 238.178 308.141 238.178 308.141Z" fill="#80BA91"/>
<path d="M238.178 308.141C238.178 308.141 211.615 272.554 188.846 221.773C188.846 221.773 222.793 255.487 238.178 308.141Z" fill="#223242"/>
<path d="M241.659 325.387C241.804 314.426 238.103 302.198 238.066 302.076C234.013 278.774 227.001 258.991 217.246 243.363C216.334 241.9 215.383 240.45 214.421 238.981C209.874 232.046 205.174 224.875 202.797 214.026C201.51 208.154 201.546 204.095 201.58 200.169C201.615 196.176 201.647 192.404 200.347 187.086C197.805 176.699 191.527 166.652 181.687 157.22L181.102 158.099C190.752 167.349 196.901 177.17 199.378 187.289C200.636 192.433 200.604 196.12 200.571 200.023C200.536 204.026 200.499 208.165 201.82 214.194C204.256 225.304 209.029 232.587 213.645 239.63C214.602 241.091 215.547 242.532 216.454 243.985C226.11 259.456 233.056 279.066 237.098 302.271C237.155 302.479 240.791 314.498 240.65 325.236L241.659 325.387Z" fill="#223242"/>
<path d="M240.831 317.125C240.831 317.125 202.392 273.061 172.17 247.77L201.028 256.139L228.392 288.856L240.831 317.125Z" fill="#223242"/>
<path d="M240.83 317.125C236.37 299.513 230.19 288.289 225.413 281.322C218.502 271.247 213.849 269.099 204.714 255.362C196.569 243.114 196.029 238.446 191.794 232.612C185.185 223.507 172.255 215.255 144.332 220.532C144.332 220.532 148.636 219.923 152.751 223.107C156.865 226.292 166.926 248.016 181.093 253.612C195.262 259.208 209.485 264.1 222.387 284.166C235.29 304.232 240.83 317.125 240.83 317.125Z" fill="#80BA91"/>
<path d="M243.284 326.396L244.225 326.095L241.301 316.974C232.337 289.02 216.354 273.31 200.897 258.117C194.856 252.179 189.15 246.571 184.085 240.415C166.254 218.739 153.907 220.433 153.391 220.516L153.636 221.687C153.757 221.668 166.01 220.048 183.397 241.184C188.505 247.393 194.234 253.025 200.299 258.986C215.64 274.064 231.502 289.654 240.359 317.275L243.284 326.396Z" fill="#223242"/>
<path opacity="0.52" d="M319.181 372.988C366.37 372.988 404.625 370.669 404.625 367.808C404.625 364.947 366.37 362.628 319.181 362.628C271.991 362.628 233.736 364.947 233.736 367.808C233.736 370.669 271.991 372.988 319.181 372.988Z" fill="#BBC5D4"/>
<path d="M418.486 111.566C410.289 95.2403 396.04 88.0606 382.21 84.3757C369.663 81.0326 357.103 84.2998 345.985 92.5909C338.369 98.2708 329.882 101.152 321.38 101.249C320.646 101.241 317.715 101.241 316.981 101.249C308.479 101.152 299.993 98.2708 292.376 92.5909C281.259 84.2998 268.699 81.0326 256.151 84.3757C242.321 88.0606 228.073 95.2403 219.875 111.566C205.445 140.306 208.39 182.831 222.724 210.438C225.741 216.249 226.126 223.804 225.765 230.871C225.244 241.088 225.097 250.673 225.404 260.898C225.783 273.516 226.676 286.148 228.54 298.538C231.737 319.79 238.028 341.054 250.287 355.82C253.344 359.502 256.708 362.712 260.293 365.398C270.34 372.923 281.4 365.891 286.016 352.439C288.938 343.924 289.433 334.332 290.054 324.993C291.421 304.397 296.761 285.169 314.091 282.714C315.057 282.578 316.021 282.526 316.98 282.549C317.711 282.531 318.445 282.601 319.18 282.675C319.914 282.601 320.649 282.531 321.379 282.549C322.339 282.526 323.303 282.578 324.268 282.714C341.598 285.169 346.938 304.397 348.306 324.993C348.925 334.332 349.421 343.925 352.342 352.439C356.959 365.892 368.019 372.924 378.065 365.398C381.651 362.712 385.016 359.503 388.072 355.82C400.329 341.053 406.621 319.79 409.818 298.538C411.683 286.148 412.576 273.516 412.954 260.898C413.261 250.673 413.115 241.089 412.593 230.871C412.232 223.804 412.618 216.249 415.634 210.438C429.971 182.831 432.917 140.306 418.486 111.566Z" fill="white"/>
<path d="M400.715 322.538C386.804 330.063 371.491 323.03 365.1 309.578C361.055 301.063 360.369 291.471 359.51 282.133C357.616 261.537 350.223 242.308 326.228 239.853C324.893 239.717 323.558 239.665 322.229 239.689C321.217 239.671 320.201 239.741 319.184 239.814C318.167 239.74 317.15 239.671 316.139 239.689C314.811 239.665 313.474 239.717 312.139 239.853C288.144 242.307 280.751 261.537 278.857 282.133C277.999 291.471 277.313 301.064 273.268 309.578C266.876 323.031 251.563 330.063 237.653 322.538C236.06 321.676 234.511 320.741 232.984 319.772C236.703 333.371 242.167 346.033 250.291 355.82C253.348 359.502 256.712 362.712 260.298 365.398C270.344 372.924 281.404 365.891 286.021 352.438C288.942 343.924 289.438 334.331 290.057 324.992C291.425 304.397 296.765 285.168 314.095 282.714C315.059 282.578 316.024 282.526 316.984 282.549C317.714 282.531 318.449 282.601 319.183 282.675C319.917 282.601 320.651 282.531 321.383 282.549C322.342 282.526 323.306 282.578 324.271 282.714C341.602 285.168 346.942 304.397 348.309 324.992C348.929 334.331 349.424 343.924 352.346 352.438C356.962 365.891 368.022 372.924 378.069 365.398C381.654 362.712 385.019 359.502 388.075 355.82C396.2 346.033 401.663 333.371 405.382 319.772C403.856 320.741 402.308 321.676 400.715 322.538Z" fill="#D9E7FC"/>
<path d="M319.181 126.792C343.441 126.792 364.037 108.534 371.476 83.1511C362.598 83.3722 353.921 86.6705 345.985 92.59C338.368 98.2708 329.882 101.151 321.38 101.248C320.646 101.24 317.715 101.24 316.981 101.248C308.479 101.151 299.992 98.2699 292.376 92.59C284.439 86.6705 275.763 83.3713 266.885 83.1511C274.325 108.534 294.92 126.792 319.181 126.792Z" fill="#D9E7FC"/>
<path opacity="0.52" d="M421.001 390C445.655 390 465.641 388.695 465.641 387.086C465.641 385.476 445.655 384.171 421.001 384.171C396.347 384.171 376.361 385.476 376.361 387.086C376.361 388.695 396.347 390 421.001 390Z" fill="#BBC5D4"/>
<path d="M456.863 387.086H385.135C382.548 387.086 380.451 384.988 380.451 382.401V280.721C380.451 278.133 382.549 276.036 385.135 276.036H456.863C459.451 276.036 461.547 278.133 461.547 280.721V382.401C461.548 384.988 459.451 387.086 456.863 387.086Z" fill="#353535"/>
<path d="M453.209 276.037H388.793V378.628H453.209V276.037Z" fill="white"/>
<path d="M435.328 270.895H431.394C430.677 270.895 430.04 270.382 429.944 269.671C429.346 265.265 425.57 261.869 421 261.869C416.43 261.869 412.653 265.265 412.055 269.671C411.959 270.382 411.322 270.895 410.605 270.895H406.671C405.88 270.895 405.238 271.537 405.238 272.328V280.638C405.238 281.43 405.88 282.071 406.671 282.071H435.328C436.119 282.071 436.761 281.43 436.761 280.638V272.328C436.761 271.537 436.119 270.895 435.328 270.895ZM421.001 274.62C418.943 274.62 417.275 272.952 417.275 270.895C417.275 268.838 418.943 267.17 421.001 267.17C423.058 267.17 424.726 268.838 424.726 270.895C424.726 272.952 423.058 274.62 421.001 274.62Z" fill="#909AB5"/>
<path d="M441.942 294.267C441.351 293.169 440.323 292.687 439.325 292.439C438.419 292.214 437.513 292.433 436.711 292.991C436.162 293.373 435.549 293.567 434.935 293.573C434.882 293.572 434.671 293.572 434.618 293.573C434.005 293.567 433.392 293.373 432.842 292.991C432.04 292.433 431.134 292.214 430.229 292.439C429.231 292.687 428.202 293.169 427.611 294.267C426.57 296.199 426.782 299.058 427.817 300.915C428.034 301.305 428.063 301.813 428.036 302.288C427.999 302.975 427.988 303.62 428.01 304.307C428.038 305.155 428.102 306.005 428.236 306.838C428.466 308.266 428.921 309.696 429.805 310.689C430.026 310.936 430.269 311.152 430.527 311.333C431.252 311.839 432.05 311.366 432.384 310.462C432.595 309.89 432.63 309.245 432.675 308.617C432.774 307.232 433.159 305.939 434.41 305.775C434.479 305.766 434.549 305.762 434.618 305.764C434.671 305.763 434.724 305.767 434.777 305.772C434.83 305.767 434.883 305.762 434.936 305.764C435.006 305.762 435.075 305.766 435.144 305.775C436.395 305.94 436.78 307.232 436.879 308.617C436.924 309.245 436.959 309.89 437.171 310.462C437.504 311.367 438.302 311.839 439.027 311.333C439.285 311.152 439.528 310.936 439.749 310.689C440.633 309.696 441.088 308.266 441.318 306.838C441.452 306.005 441.517 305.155 441.545 304.307C441.566 303.62 441.556 302.975 441.518 302.288C441.492 301.813 441.52 301.305 441.737 300.915C442.771 299.058 442.984 296.2 441.942 294.267Z" fill="#6588FC"/>
<path d="M430.757 308.774C430.475 308.197 430.258 307.453 430.115 306.575C430.004 305.892 429.938 305.132 429.909 304.255C429.89 303.637 429.898 303.041 429.934 302.38C429.967 301.792 429.958 300.915 429.504 300.099C428.688 298.636 428.601 296.377 429.309 295.062C429.482 294.741 429.784 294.382 430.717 294.151C430.791 294.132 430.863 294.123 430.936 294.123C431.23 294.123 431.516 294.28 431.705 294.411C432.569 295.011 433.568 295.334 434.595 295.345H434.918C435.984 295.334 436.983 295.012 437.847 294.411C438.036 294.28 438.323 294.123 438.616 294.123C438.688 294.123 438.76 294.131 438.834 294.151C439.767 294.382 440.068 294.741 440.241 295.062C440.95 296.376 440.864 298.635 440.048 300.098C439.595 300.913 439.585 301.79 439.617 302.379C439.654 303.04 439.661 303.636 439.642 304.255C439.613 305.132 439.546 305.891 439.436 306.574C439.294 307.453 439.076 308.197 438.794 308.774C438.789 308.717 438.774 308.5 438.774 308.5C438.534 305.133 436.812 304.206 435.41 304.021C435.26 304.001 435.114 303.992 434.97 303.992C434.898 303.992 434.836 303.993 434.781 303.995C434.732 303.993 434.631 303.992 434.629 303.992C434.434 303.992 434.29 304.001 434.145 304.02C432.74 304.206 431.018 305.133 430.778 308.499C430.778 308.499 430.762 308.717 430.757 308.774Z" fill="white"/>
<path d="M433.008 299.439L434.627 301.123L436.801 298.396" stroke="#6588FC" stroke-width="0.913913" stroke-miterlimit="10" stroke-linecap="round" stroke-linejoin="round"/>
<path d="M419.367 318.464H398.896C398.382 318.464 397.965 318.048 397.965 317.533C397.965 317.019 398.382 316.602 398.896 316.602H419.367C419.881 316.602 420.298 317.019 420.298 317.533C420.298 318.048 419.881 318.464 419.367 318.464Z" fill="#6588FC"/>
<path d="M443.104 324.447H398.896C398.382 324.447 397.965 324.03 397.965 323.516C397.965 323.001 398.382 322.584 398.896 322.584H443.104C443.618 322.584 444.035 323.001 444.035 323.516C444.035 324.03 443.618 324.447 443.104 324.447Z" fill="#6588FC"/>
<path d="M443.104 330.805H398.896C398.382 330.805 397.965 330.388 397.965 329.874C397.965 329.359 398.382 328.942 398.896 328.942H443.104C443.618 328.942 444.035 329.359 444.035 329.874C444.035 330.388 443.618 330.805 443.104 330.805Z" fill="#6588FC"/>
<path d="M443.104 337.163H398.896C398.382 337.163 397.965 336.746 397.965 336.232C397.965 335.717 398.382 335.301 398.896 335.301H443.104C443.618 335.301 444.035 335.717 444.035 336.232C444.035 336.746 443.618 337.163 443.104 337.163Z" fill="#6588FC"/>
<path d="M443.104 343.521H398.896C398.382 343.521 397.965 343.104 397.965 342.59C397.965 342.075 398.382 341.659 398.896 341.659H443.104C443.618 341.659 444.035 342.075 444.035 342.59C444.035 343.104 443.618 343.521 443.104 343.521Z" fill="#6588FC"/>
<path d="M443.104 349.879H398.896C398.382 349.879 397.965 349.463 397.965 348.948C397.965 348.433 398.382 348.017 398.896 348.017H443.104C443.618 348.017 444.035 348.433 444.035 348.948C444.035 349.463 443.618 349.879 443.104 349.879Z" fill="#6588FC"/>
<path d="M443.104 356.972H398.896C398.382 356.972 397.965 356.555 397.965 356.041C397.965 355.526 398.382 355.11 398.896 355.11H443.104C443.618 355.11 444.035 355.526 444.035 356.041C444.035 356.555 443.618 356.972 443.104 356.972Z" fill="#6588FC"/>
<path d="M443.104 363.33H398.896C398.382 363.33 397.965 362.913 397.965 362.399C397.965 361.884 398.382 361.468 398.896 361.468H443.104C443.618 361.468 444.035 361.884 444.035 362.399C444.035 362.913 443.618 363.33 443.104 363.33Z" fill="#6588FC"/>
<path d="M453.208 378.627H388.793V381.011L421.001 379.819L453.208 381.011V378.627Z" fill="#223242"/>
<path d="M315.305 60.0117L317.65 66.8752C317.687 66.984 317.764 67.0745 317.865 67.1293L325.001 69.4534C325.402 69.5841 325.401 70.1516 325 70.2814L317.902 72.5689C317.802 72.6246 317.726 72.7151 317.691 72.8239L315.402 79.723C315.265 80.137 314.679 80.1397 314.539 79.7267L312.194 72.8632C312.156 72.7544 312.079 72.6639 311.978 72.6091L305.077 70.3591C304.613 70.2073 304.608 69.5521 305.073 69.4022C307.481 68.6299 311.941 67.1695 311.941 67.1695C312.041 67.1138 312.117 67.0233 312.152 66.9145L314.441 60.0154C314.578 59.6014 315.163 59.5986 315.305 60.0117Z" fill="white"/>
<path d="M331.869 47.3111L333.14 51.0325C333.161 51.0919 333.203 51.1404 333.257 51.1705L337.126 52.4308C337.344 52.5012 337.343 52.8092 337.125 52.8796L333.277 54.1197C333.223 54.1499 333.182 54.1992 333.162 54.2577L331.922 57.9984C331.848 58.2232 331.53 58.2241 331.454 58.0002L330.183 54.2788C330.163 54.2193 330.121 54.1709 330.066 54.1408L326.325 52.9207C326.073 52.8384 326.07 52.4829 326.323 52.4025C327.629 51.9839 330.046 51.1916 330.046 51.1916C330.1 51.1614 330.141 51.112 330.16 51.0536L331.4 47.3129C331.475 47.089 331.792 47.0881 331.869 47.3111Z" fill="white"/>
<path d="M448.45 115.936L449.721 119.657C449.741 119.716 449.783 119.765 449.838 119.795L453.706 121.056C453.924 121.126 453.923 121.434 453.706 121.504L449.857 122.744C449.803 122.775 449.762 122.824 449.743 122.882L448.503 126.623C448.429 126.848 448.111 126.849 448.035 126.625L446.763 122.904C446.743 122.844 446.701 122.796 446.646 122.766L442.905 121.545C442.653 121.463 442.651 121.108 442.903 121.027C444.209 120.609 446.626 119.816 446.626 119.816C446.68 119.786 446.721 119.737 446.741 119.678L447.981 115.938C448.056 115.714 448.373 115.712 448.45 115.936Z" fill="white"/>
<path d="M271.281 162.63L267.561 159.681L233.145 201.208L238.699 205.611L271.281 162.63Z" fill="#BBC5D4"/>
<path d="M244.263 201.948L235.543 195.036C234.278 194.034 232.441 194.247 231.438 195.51L228.689 198.976L241.988 209.52L244.737 206.054C245.74 204.79 245.528 202.952 244.263 201.948Z" fill="#BBC5D4"/>
<path d="M242.453 208.588L238.697 205.611L233.144 201.208L230.141 198.828C229.069 197.978 227.513 198.158 226.665 199.23L128.502 323.048C125.844 326.401 125.601 330.893 127.531 334.425C128.175 335.604 129.061 336.675 130.179 337.563C131.015 338.225 131.921 338.737 132.866 339.104C136.976 340.696 141.811 339.521 144.693 335.885L242.857 212.067C243.704 210.994 243.525 209.439 242.453 208.588Z" fill="#BBC5D4"/>
<path d="M234.925 203.921L130.178 337.563" stroke="#223242" stroke-width="0.685434" stroke-miterlimit="10" stroke-linecap="round" stroke-linejoin="round"/>
<path d="M140.95 338.768L126.505 327.316L125.796 328.211C124.017 330.455 124.394 333.717 126.638 335.496L132.956 340.505C135.2 342.284 138.462 341.907 140.241 339.663L140.95 338.768Z" fill="#BBC5D4"/>
<path d="M318.595 155.983C304.25 174.077 280.398 179.054 265.322 167.101C250.244 155.148 249.651 130.789 263.995 112.695C278.34 94.6016 302.192 89.6243 317.269 101.577C332.345 113.53 332.94 137.889 318.595 155.983Z" fill="#909AB5"/>
<g opacity="0.5">
<path d="M313.888 152.252C302.015 167.227 282.276 171.347 269.798 161.454C257.32 151.562 256.827 131.402 268.699 116.427C280.572 101.453 300.311 97.333 312.79 107.225C325.268 117.118 325.759 137.276 313.888 152.252Z" fill="white"/>
</g>
<g opacity="0.5">
<path d="M313.887 152.252C325.759 137.278 325.268 117.118 312.789 107.225C300.311 97.333 280.57 101.453 268.699 116.427C267.842 117.507 267.07 118.618 266.344 119.746C273.315 117.789 279.929 117.593 285.193 121.051C298.385 129.711 293.117 154.6 295.819 165.156C302.483 162.936 308.884 158.563 313.887 152.252Z" fill="white"/>
</g>
</svg>
