<svg width="64" height="64" viewBox="0 0 64 64" fill="none" xmlns="http://www.w3.org/2000/svg">
<rect width="64" height="64" rx="32" fill="url(#paint0_linear_189_27175)"/>
<path fill-rule="evenodd" clip-rule="evenodd" d="M15.3832 40.9179L20.0113 37.2412L15.3832 33.5645V40.9179ZM18.4645 29.3799L20.6521 28.1174C20.6802 28.0971 20.7099 28.0799 20.7411 28.0658L22.4178 27.0971V27.0955C22.9021 26.8158 23.2287 26.3611 23.3647 25.8564C23.5006 25.3501 23.4444 24.7939 23.1662 24.3094H23.1647C22.885 23.8251 22.4303 23.4985 21.9255 23.3625C21.6552 23.2907 21.3708 23.2719 21.0912 23.3141C21.0693 23.3188 21.0458 23.3235 21.0224 23.325C20.8005 23.3657 20.5833 23.4438 20.3786 23.561V23.5625L19.9067 23.8344C19.6473 23.986 19.3145 23.8969 19.1629 23.636C19.1567 23.6266 19.152 23.6157 19.1473 23.6063L18.8926 23.1641H18.8911C18.6114 22.6797 18.1567 22.3531 17.6519 22.2172C17.1457 22.0812 16.5894 22.1375 16.105 22.4156V22.4172C15.6206 22.6969 15.2941 23.1516 15.1581 23.6563C15.0222 24.1626 15.0784 24.7188 15.3565 25.2032H15.3581L17.641 29.1565C17.6457 29.1643 17.6488 29.1705 17.6535 29.1783C17.7363 29.308 17.8629 29.3971 18.0066 29.4346C18.1566 29.4752 18.3207 29.458 18.4644 29.3768L18.4645 29.3799ZM20.8864 37.9366L21.3568 38.31C21.5615 38.4725 21.8474 38.4647 22.0412 38.3038L22.5053 37.935L26.9914 41.4992L16.3991 41.5008L20.8852 37.9366L20.8864 37.9366ZM21.2161 36.8084L16.4004 32.9818H22.0426V32.9802C22.1816 32.9802 22.3223 32.9271 22.4285 32.8193L24.0036 31.2395L25.5489 32.7911C25.6489 32.9068 25.7974 32.9818 25.963 32.9818H26.9927L21.6974 37.1899L21.2177 36.8086L21.2161 36.8084ZM24.3866 30.0862C24.1741 29.8737 23.8303 29.8722 23.6178 30.0847L21.8162 31.891H21.5115V28.8752L22.9584 28.0393L22.96 28.0377V28.0393C23.7053 27.6096 24.2069 26.9142 24.4147 26.1392C24.6209 25.3673 24.535 24.5142 24.1037 23.7688L24.1022 23.7673H24.1037C23.674 23.0219 22.9787 22.5203 22.2037 22.3125C21.9771 22.2516 21.7459 22.2172 21.5099 22.2079V21.3735H32.9022V25.694C32.9022 26.1393 33.0835 26.5425 33.3757 26.8347C33.6679 27.1269 34.071 27.3081 34.5164 27.3081H36.2477L38.3727 29.4394C38.5852 29.6519 38.929 29.6535 39.1415 29.441L40.5806 27.9972V32.8457C40.2744 33.1286 39.9384 33.3833 39.5775 33.602L36.579 32.7989C36.2883 32.7207 35.9899 32.8942 35.9117 33.1848L34.221 39.493C34.1429 39.7836 34.3164 40.0821 34.607 40.1602L40.5792 41.7603V44.0869L21.513 44.0854V42.5915H27.5068C27.9459 42.5915 28.3443 42.4134 28.6334 42.1243C28.9224 41.8353 29.1006 41.4368 29.1006 40.9977V33.4819C29.1006 33.0428 28.9225 32.6444 28.6334 32.3553C28.3443 32.0662 27.9458 31.8881 27.5068 31.8881H26.1864L24.3879 30.0834L24.3866 30.0862ZM20.4208 22.3612V18.9392C20.4208 18.2173 20.7161 17.5626 21.1911 17.086C21.6662 16.611 22.3224 16.3157 23.0443 16.3157H32.9338C32.9948 15.9907 33.1541 15.6985 33.3792 15.4735C33.6714 15.1813 34.0745 15 34.5198 15H48.3859C48.8312 15 49.2343 15.1813 49.5265 15.4735C49.8187 15.7657 50 16.1688 50 16.6141V25.6908C50 26.1361 49.8187 26.5393 49.5265 26.8315C49.2343 27.1237 48.8312 27.3049 48.3859 27.3049H41.6765V31.5207C41.8124 31.3004 41.9358 31.0722 42.0452 30.8347C42.053 30.8191 42.0593 30.805 42.0687 30.7894C42.314 30.3644 42.7093 30.0785 43.1484 29.9597C43.5875 29.8425 44.0734 29.8925 44.5 30.1378V30.1394C44.8469 30.341 45.1016 30.6425 45.2469 30.9863C45.3922 31.3301 45.4297 31.716 45.3422 32.0863C45.3406 32.0957 45.3375 32.1051 45.3359 32.1145C45.1797 32.7301 44.9516 33.3286 44.6594 33.8958C44.4969 34.2114 44.314 34.5177 44.1125 34.8114L45.6563 35.2255C45.925 35.2974 46.161 35.4177 46.3625 35.5849C46.5641 35.7505 46.7266 35.9615 46.8485 36.2115C46.9688 36.4599 47.0313 36.7178 47.036 36.9818C47.0407 37.2428 46.9891 37.5037 46.8782 37.7569L45.3094 41.3773C45.125 41.8023 44.8031 42.1273 44.414 42.3148C44.0249 42.5024 43.5702 42.5539 43.1249 42.4352L41.6764 42.0477V46.9198C41.6764 47.6417 41.3811 48.2964 40.9061 48.773C40.431 49.248 39.7748 49.5433 39.0529 49.5433L23.0444 49.5449C22.3225 49.5449 21.6678 49.2496 21.1912 48.7745C20.7162 48.2995 20.4209 47.6433 20.4209 46.9214V42.59H15.8847C15.4456 42.59 15.0472 42.4119 14.7581 42.1228C14.469 41.8337 14.2909 41.4353 14.2909 40.9962V33.4804C14.2909 33.0413 14.469 32.6428 14.7581 32.3538C15.0472 32.0647 15.4457 31.8866 15.8847 31.8866H20.4209V29.5006L19.0052 30.3178C18.602 30.5506 18.1411 30.5975 17.7255 30.4866C17.3208 30.3787 16.9567 30.1194 16.7223 29.735C16.7145 29.724 16.7067 29.7115 16.7004 29.7006L14.4176 25.7458H14.4191L14.4176 25.7442C13.9879 24.9989 13.9003 24.1457 14.1066 23.3738C14.3144 22.6004 14.816 21.905 15.5613 21.4738V21.4753L15.5629 21.4738C16.3082 21.0441 17.1614 20.9566 17.9333 21.1628C18.7068 21.3707 19.4021 21.8722 19.8333 22.6176H19.8318L19.8333 22.6191H19.8349L19.8365 22.6176C20.0255 22.5082 20.2224 22.4207 20.4224 22.3551L20.4208 22.3612ZM28.007 40.9182V33.5647L23.3789 37.2414L28.007 40.9182ZM36.8885 26.4069L38.762 28.2851L40.6636 26.3772C40.7699 26.271 40.9089 26.2163 41.0496 26.2163V26.2147H48.3858C48.5296 26.2147 48.6608 26.1554 48.7546 26.0616C48.8499 25.9663 48.9077 25.8366 48.9077 25.6928L48.9093 16.6162C48.9093 16.4724 48.8499 16.3411 48.7561 16.2474C48.6608 16.1521 48.5311 16.0943 48.3874 16.0943H34.5213C34.3776 16.0943 34.2463 16.1536 34.1526 16.2474C34.0573 16.3427 33.9994 16.4724 33.9994 16.6162V25.6928C33.9994 25.8366 34.0588 25.9678 34.1526 26.0616C34.2479 26.1569 34.3776 26.2147 34.5213 26.2147H36.4776C36.6433 26.2147 36.7917 26.2882 36.8917 26.4054L36.8885 26.4069ZM32.904 20.2819V17.4084H23.0429C22.6226 17.4084 22.2398 17.5803 21.9616 17.8584C21.6835 18.1365 21.5116 18.5193 21.5116 18.9397V20.2819H32.904ZM35.4182 39.2481L37.5839 39.8278L38.9917 34.5728L36.826 33.9932L35.4182 39.2481ZM40.5823 45.1763H21.513V46.9232C21.513 47.3436 21.6848 47.7264 21.963 48.0045C22.2411 48.2826 22.6239 48.4545 23.0442 48.4545H39.0539C39.4743 48.4545 39.8571 48.2826 40.1352 48.0045C40.4133 47.7264 40.5852 47.3436 40.5852 46.9232V45.1763H40.5823ZM38.9761 19.9863H45.9499C46.2514 19.9863 46.4952 19.7426 46.4952 19.441C46.4952 19.1394 46.2515 18.8956 45.9499 18.8956H38.9761C38.6745 18.8956 38.4307 19.1394 38.4307 19.441C38.4307 19.7426 38.6745 19.9863 38.9761 19.9863ZM36.951 23.413H45.9497C46.2512 23.413 46.495 23.1692 46.495 22.8676C46.495 22.5661 46.2513 22.3223 45.9497 22.3223H36.951C36.6494 22.3223 36.4057 22.5661 36.4057 22.8676C36.4057 23.1692 36.6494 23.413 36.951 23.413ZM41.5371 33.4381C41.5215 33.4568 41.5043 33.4725 41.4856 33.4881C41.0762 33.8897 40.6215 34.2444 40.1277 34.5428L38.637 40.1086L41.2418 40.807C41.2621 40.8117 41.2809 40.8164 41.2996 40.8227L43.4059 41.3868C43.5934 41.4368 43.7809 41.4165 43.9403 41.3399C44.1012 41.2618 44.2341 41.1289 44.3106 40.9524L45.8794 37.3319C45.9263 37.2226 45.9497 37.1148 45.9466 37.0085C45.9451 36.9054 45.9169 36.7976 45.8654 36.6897C45.8138 36.5835 45.7466 36.496 45.6654 36.4288C45.5841 36.3616 45.4857 36.3132 45.3716 36.2819L43.0434 35.6585C42.7528 35.5803 42.5809 35.2819 42.6575 34.9912C42.6809 34.9022 42.7262 34.8256 42.784 34.7615C43.1372 34.3412 43.4403 33.8849 43.6903 33.4006C43.9419 32.9115 44.1388 32.3927 44.2762 31.8505L44.2809 31.8349C44.3137 31.6911 44.2997 31.5427 44.2434 31.4114C44.1919 31.2896 44.1044 31.1818 43.9856 31.1036C43.9653 31.0943 43.945 31.0818 43.9262 31.0693C43.7684 30.9864 43.5887 30.9708 43.4262 31.0146C43.2637 31.0583 43.1184 31.1599 43.0215 31.3114L43.0137 31.3255C42.6887 32.0224 42.259 32.6615 41.7433 33.2209C41.6746 33.2943 41.6058 33.3662 41.5355 33.4381L41.5371 33.4381Z" fill="white"/>
<defs>
<linearGradient id="paint0_linear_189_27175" x1="64" y1="7.62939e-06" x2="7.62939e-06" y2="64" gradientUnits="userSpaceOnUse">
<stop stop-color="#F65A75"/>
<stop offset="1" stop-color="#48179C"/>
</linearGradient>
</defs>
</svg>
