<svg width="595" height="375" viewBox="0 0 595 375" fill="none" xmlns="http://www.w3.org/2000/svg">
<g clip-path="url(#clip0_152_22731)">
<path d="M123.936 238.541C126.256 240.429 128.485 242.42 130.471 244.691C132.396 246.889 133.795 248.858 134.685 250.196L177.965 236.899C177.95 235.292 178.003 232.877 178.36 229.977C179.463 221.055 183.714 212.971 185.317 204.182C188.617 186.112 181.877 167.485 166.507 157.063C155.276 149.448 140.948 147.286 127.975 151.272C131.239 151.044 149.881 150.048 163.878 163.793C166.562 166.426 172.844 173.304 175.436 184.038C178.872 198.267 173.565 209.944 171.202 215.14C168.774 220.482 166.324 223.424 165.401 224.484C165.401 224.484 160.521 230.078 152.266 233.857C146.795 236.363 136.937 238.149 123.936 238.541Z" fill="#EF941E"/>
<path d="M140.968 268.049C145.456 278.543 157.234 284.171 168.387 280.744C179.542 277.317 186.126 266.047 183.948 254.843C183.824 254.899 183.697 254.946 183.565 254.986L141.364 267.952C141.233 267.993 141.1 268.026 140.968 268.049Z" fill="#98B8EB"/>
<path d="M136.761 265.513C137.06 266.485 137.724 267.244 138.556 267.685C139.276 268.067 140.123 268.213 140.968 268.049C141.1 268.026 141.233 267.993 141.365 267.952L183.565 254.986C183.697 254.946 183.824 254.899 183.948 254.844C185.652 254.111 186.565 252.196 186.008 250.382C185.709 249.409 185.043 248.648 184.209 248.208C183.377 247.765 182.376 247.641 181.401 247.941L139.2 260.907C137.255 261.504 136.163 263.565 136.761 265.513Z" fill="#2E599C"/>
<path d="M180.109 243.951L138.035 256.878L139.267 260.886L181.341 247.959L180.109 243.951Z" fill="#98B8EB"/>
<path d="M100.064 212.195C102.443 217.704 105.883 222.825 110.232 227.252C114.39 231.486 119.345 234.806 123.936 238.541C136.937 238.149 146.796 236.363 152.266 233.858C160.521 230.078 165.401 224.485 165.401 224.485C166.324 223.424 168.774 220.482 171.202 215.14C173.566 209.945 178.872 198.268 175.436 184.038C172.844 173.304 166.562 166.427 163.878 163.793C149.881 150.048 131.239 151.044 127.975 151.273C115.003 155.258 104.359 165.092 99.3408 177.699C94.7946 189.125 95.3981 201.4 100.064 212.195Z" fill="#FDBE54"/>
<g opacity="0.45">
<path d="M111.35 197.648C112.068 197.427 112.52 196.696 112.376 195.941C111.723 192.533 111.157 185.733 114.7 178.483C118.179 171.363 123.758 167.643 126.773 166.06C127.503 165.676 127.784 164.774 127.401 164.044C127.018 163.314 126.116 163.033 125.386 163.417C122.047 165.17 115.87 169.289 112.018 177.172C108.095 185.201 108.721 192.73 109.444 196.502C109.599 197.312 110.381 197.843 111.191 197.687C111.245 197.677 111.298 197.664 111.35 197.648Z" fill="white"/>
</g>
<g opacity="0.75">
<path d="M148.229 246.035C147.539 243.789 146.386 240.071 145.034 235.713C141.594 224.623 136.883 209.434 135.211 203.693C134.727 202.033 134.248 200.402 133.733 198.774C131.924 198.783 130.189 198.603 128.562 198.235C124.21 197.252 118.193 193.749 119.455 188.132C120.062 185.422 122.503 183.349 125.39 183.09C125.839 183.05 126.289 183.061 126.725 183.12C131.091 183.709 132.936 188.169 134.158 191.12L134.18 191.174C134.751 192.553 135.305 194.036 135.862 195.68C137.64 195.513 139.462 195.156 141.276 194.621C143.103 194.037 144.815 193.308 146.381 192.448C145.919 190.774 145.545 189.236 145.243 187.775L145.232 187.72C144.585 184.592 143.608 179.864 146.889 176.925C147.219 176.629 147.586 176.368 147.979 176.15C150.512 174.744 153.695 175.089 155.721 176.989C159.919 180.93 156.906 187.206 153.856 190.463C152.715 191.682 151.382 192.805 149.88 193.812C150.369 195.45 150.889 197.068 151.42 198.713C153.259 204.402 157.889 219.616 161.27 230.725C162.598 235.09 163.731 238.814 164.421 241.06C164.663 241.848 164.221 242.683 163.433 242.925C162.645 243.167 161.81 242.725 161.568 241.937C160.877 239.689 159.743 235.963 158.414 231.594C155.037 220.496 150.411 205.296 148.58 199.631C148.119 198.206 147.667 196.799 147.234 195.377C145.66 196.195 143.962 196.897 142.152 197.474C140.353 198.005 138.561 198.376 136.801 198.583C137.241 200.002 137.657 201.42 138.076 202.859C139.741 208.575 144.448 223.749 147.885 234.829C149.238 239.191 150.392 242.911 151.082 245.159C151.324 245.947 150.882 246.782 150.094 247.024C149.306 247.265 148.471 246.823 148.229 246.035ZM122.367 188.786C121.561 192.373 126.636 194.74 129.22 195.323C130.333 195.575 131.51 195.725 132.736 195.772C132.301 194.531 131.866 193.389 131.422 192.315L131.4 192.261C130.326 189.666 128.989 186.437 126.323 186.078C126.106 186.048 125.881 186.043 125.655 186.063C125.39 186.087 125.13 186.139 124.879 186.216C123.638 186.598 122.635 187.591 122.367 188.786ZM149.429 178.759C149.231 178.869 149.047 179 148.881 179.148C146.879 180.941 147.587 184.365 148.155 187.116L148.166 187.171C148.401 188.308 148.683 189.498 149.02 190.77C150.008 190.042 150.898 189.257 151.678 188.423C153.489 186.489 156.36 181.682 153.678 179.166C152.785 178.327 151.397 178.069 150.156 178.45C149.906 178.527 149.661 178.63 149.429 178.759Z" fill="white"/>
</g>
<path d="M133.365 254.459C133.664 255.431 134.328 256.191 135.16 256.631C135.995 257.074 136.996 257.197 137.969 256.898L180.169 243.933C182.117 243.334 183.209 241.273 182.612 239.328C182.313 238.355 181.647 237.594 180.813 237.154C179.981 236.711 178.98 236.587 178.005 236.887L135.804 249.853C133.859 250.45 132.767 252.511 133.365 254.459Z" fill="#2E599C"/>
<path d="M488.005 212.339C488.23 245.92 461.505 273.589 428.316 274.131C426.868 274.159 425.42 274.121 424 274.046C456.152 272.346 481.681 245.164 481.467 212.339C481.261 180.234 456.488 154.322 425.308 152.594C426.046 152.547 426.784 152.519 427.531 152.51C460.711 151.968 487.791 178.758 488.005 212.339Z" fill="#AF3849"/>
<path d="M481.467 212.339C481.681 245.164 456.152 272.346 424 274.046C423.262 274.093 422.524 274.121 421.777 274.131C388.598 274.672 361.518 247.891 361.303 214.301C361.237 204.409 363.516 195.021 367.608 186.698C368.075 185.745 368.561 184.811 369.074 183.886C379.331 165.475 398.695 152.874 420.992 152.509C422.44 152.482 423.888 152.519 425.308 152.594C456.489 154.322 481.261 180.234 481.467 212.339Z" fill="#F44D5E"/>
<path d="M468.254 212.553C468.424 238.75 447.578 260.331 421.694 260.754C395.809 261.177 374.688 240.283 374.518 214.087C374.347 187.89 395.193 166.31 421.077 165.886C446.962 165.463 468.083 186.357 468.254 212.553Z" fill="white"/>
<path d="M455.176 212.767C455.299 231.655 440.27 247.214 421.608 247.519C402.946 247.824 387.718 232.76 387.595 213.873C387.472 194.985 402.501 179.427 421.163 179.122C439.826 178.816 455.054 193.88 455.176 212.767Z" fill="#F44D5E"/>
<path d="M441.958 212.984C442.033 224.482 432.883 233.955 421.521 234.14C410.16 234.326 400.889 225.155 400.814 213.657C400.739 202.158 409.889 192.685 421.251 192.5C432.612 192.314 441.884 201.485 441.958 212.984Z" fill="white"/>
<path d="M430.544 213.17C430.578 218.289 426.504 222.506 421.446 222.589C416.388 222.671 412.261 218.589 412.228 213.47C412.195 208.351 416.268 204.134 421.326 204.051C426.384 203.968 430.511 208.051 430.544 213.17Z" fill="#F44D5E"/>
<path d="M419.747 211.618L422.631 208.12C422.908 207.784 423.36 207.649 423.776 207.781C424.192 207.911 424.486 208.281 424.521 208.715L424.643 210.266L484.044 179.031C484.542 177.925 484.94 176.706 485.227 175.402C485.295 175.094 485.496 174.831 485.776 174.685L493.748 170.517C494.134 170.315 494.606 170.368 494.939 170.652C495.271 170.938 495.395 171.395 495.254 171.809L493.944 175.644L497.904 176.849C498.319 176.976 498.616 177.34 498.656 177.772C498.697 178.204 498.472 178.617 498.087 178.818L490.091 182.998C489.817 183.141 489.494 183.159 489.205 183.045L485.455 181.872L426.11 213.077L427.328 214.074C427.664 214.349 427.8 214.801 427.671 215.217C427.543 215.633 427.175 215.929 426.741 215.966L422.32 216.342C422.29 216.345 422.26 216.347 422.229 216.347C421.844 216.347 421.486 216.138 421.296 215.798L419.637 212.817C419.424 212.433 419.467 211.957 419.747 211.618Z" fill="#20468F"/>
<path d="M412.323 127.961H167.063C163.925 127.961 161.381 130.504 161.381 133.642V295.833C161.381 298.501 163.544 300.664 166.212 300.664H413.173C415.841 300.664 418.004 298.501 418.004 295.833V133.642C418.004 130.504 415.46 127.961 412.323 127.961Z" fill="#1A284D"/>
<path d="M410.707 140.123H168.679V290.934H410.707V140.123Z" fill="url(#paint0_linear_152_22731)"/>
<path d="M260.657 86.147H250.067V290.934H226.19V86.147H215.601L238.129 55.18L260.657 86.147Z" fill="url(#paint1_linear_152_22731)"/>
<path d="M209.092 135.377H198.503V290.934H174.625V135.377H164.036L186.564 104.41L209.092 135.377Z" fill="url(#paint2_linear_152_22731)"/>
<path d="M312.221 64.5281H301.631V290.934H277.754V64.5281H267.165L289.693 33.561L312.221 64.5281Z" fill="url(#paint3_linear_152_22731)"/>
<path d="M363.786 30.967H353.196V290.934H329.319V30.967H318.73L341.258 0L363.786 30.967Z" fill="url(#paint4_linear_152_22731)"/>
<path d="M415.35 87.062H404.76V290.934H380.883V87.062H370.294L392.822 56.0948L415.35 87.062Z" fill="url(#paint5_linear_152_22731)"/>
<path d="M289.693 136.474C290.701 136.474 291.517 135.657 291.517 134.65C291.517 133.642 290.701 132.826 289.693 132.826C288.685 132.826 287.869 133.642 287.869 134.65C287.869 135.657 288.685 136.474 289.693 136.474Z" fill="#BDBDBD"/>
<path d="M445.905 375H133.487C126.035 375 119.994 368.959 119.994 361.507H459.398C459.398 368.959 453.357 375 445.905 375Z" fill="#6F89C6"/>
<path d="M459.47 361.297L417.404 302.676C417.204 302.396 416.803 302.129 416.251 301.888C415.701 301.647 414.999 301.43 414.196 301.249C413.394 301.068 412.489 300.921 411.528 300.82C410.569 300.719 409.553 300.664 408.527 300.664L170.646 300.703C169.62 300.703 168.605 300.759 167.646 300.86C166.685 300.961 165.781 301.108 164.979 301.289C164.176 301.471 163.475 301.687 162.925 301.929C162.374 302.171 161.973 302.438 161.772 302.718L119.912 361.372C119.559 361.868 119.501 362.343 119.7 362.777C119.9 363.212 120.358 363.605 121.036 363.936C121.716 364.269 122.615 364.538 123.695 364.725C124.776 364.912 126.036 365.015 127.434 365.015C127.435 365.015 127.437 365.015 127.439 365.015C127.44 365.015 127.442 365.015 127.444 365.015C127.446 365.015 127.447 365.015 127.449 365.015C127.451 365.015 127.452 365.015 127.454 365.015L451.945 364.943C453.344 364.943 454.606 364.839 455.689 364.652C456.77 364.466 457.672 364.196 458.352 363.863C459.03 363.532 459.489 363.138 459.687 362.703C459.886 362.269 459.826 361.794 459.47 361.297Z" fill="#CDDDFE"/>
<path d="M340.41 335.315C340.408 335.315 340.407 335.315 340.406 335.315C340.405 335.315 340.403 335.315 340.402 335.315C340.4 335.315 340.399 335.315 340.398 335.315C340.396 335.315 340.395 335.315 340.394 335.315L238.935 335.334C238.505 335.334 238.088 335.362 237.702 335.412C237.315 335.462 236.959 335.535 236.652 335.625C236.345 335.715 236.086 335.823 235.896 335.942C235.704 336.061 235.581 336.193 235.544 336.331L228.752 360.363C228.702 360.539 228.754 360.707 228.889 360.86C229.025 361.013 229.246 361.151 229.534 361.267C229.823 361.382 230.179 361.476 230.586 361.541C230.992 361.606 231.449 361.641 231.938 361.641L347.49 361.616C347.982 361.616 348.44 361.58 348.847 361.515C349.254 361.45 349.61 361.356 349.897 361.24C350.185 361.124 350.404 360.986 350.539 360.834C350.675 360.681 350.725 360.514 350.675 360.338L343.793 336.309C343.754 336.171 343.63 336.04 343.439 335.921C343.249 335.802 342.992 335.695 342.686 335.605C342.381 335.515 342.026 335.443 341.641 335.392C341.256 335.342 340.84 335.315 340.41 335.315Z" fill="#6F89C6"/>
<path d="M377.797 304.075L364.482 304.077C364.323 304.077 364.176 304.086 364.045 304.102C363.915 304.118 363.801 304.141 363.709 304.17C363.617 304.198 363.547 304.232 363.505 304.27C363.462 304.308 363.447 304.349 363.465 304.393L364.173 306.122C364.193 306.166 364.244 306.209 364.32 306.247C364.395 306.285 364.495 306.32 364.612 306.349C364.73 306.378 364.865 306.402 365.011 306.418C365.157 306.434 365.313 306.443 365.474 306.443L378.956 306.441C379.117 306.441 379.266 306.432 379.398 306.415C379.53 306.399 379.644 306.376 379.735 306.347C379.826 306.318 379.894 306.283 379.933 306.245C379.972 306.206 379.983 306.164 379.959 306.12L379.1 304.388C379.078 304.345 379.026 304.304 378.95 304.267C378.873 304.229 378.772 304.196 378.655 304.167C378.537 304.139 378.402 304.116 378.257 304.1C378.111 304.084 377.956 304.075 377.797 304.075Z" fill="#1A284D"/>
<path d="M360.547 304.077L347.232 304.079C347.073 304.079 346.925 304.088 346.793 304.104C346.66 304.12 346.544 304.143 346.449 304.172C346.355 304.201 346.282 304.235 346.235 304.272C346.189 304.31 346.17 304.352 346.184 304.395L346.735 306.124C346.748 306.169 346.794 306.211 346.865 306.25C346.935 306.288 347.031 306.323 347.145 306.352C347.26 306.382 347.392 306.405 347.537 306.422C347.681 306.438 347.837 306.447 347.998 306.447L361.48 306.445C361.641 306.445 361.791 306.436 361.924 306.419C362.057 306.403 362.174 306.379 362.268 306.35C362.363 306.321 362.435 306.286 362.479 306.247C362.523 306.209 362.538 306.166 362.521 306.122L361.82 304.393C361.803 304.349 361.754 304.308 361.681 304.27C361.608 304.232 361.51 304.198 361.395 304.17C361.28 304.141 361.147 304.118 361.004 304.102C360.861 304.086 360.706 304.077 360.547 304.077Z" fill="#1A284D"/>
<path d="M343.297 304.082L329.99 304.084C329.831 304.084 329.681 304.093 329.547 304.108C329.412 304.124 329.293 304.147 329.194 304.175C329.095 304.204 329.018 304.238 328.968 304.275C328.917 304.313 328.894 304.354 328.903 304.397L329.288 306.129C329.298 306.173 329.34 306.216 329.406 306.254C329.473 306.292 329.566 306.327 329.677 306.356C329.788 306.385 329.919 306.408 330.061 306.424C330.204 306.441 330.359 306.45 330.52 306.45L344.002 306.447C344.163 306.447 344.314 306.438 344.449 306.422C344.584 306.405 344.703 306.382 344.8 306.353C344.897 306.323 344.973 306.289 345.02 306.25C345.068 306.212 345.088 306.17 345.075 306.127L344.54 304.395C344.526 304.351 344.482 304.31 344.412 304.273C344.343 304.235 344.249 304.201 344.137 304.173C344.024 304.145 343.894 304.122 343.752 304.106C343.61 304.09 343.456 304.082 343.297 304.082Z" fill="#1A284D"/>
<path d="M326.046 304.084L312.738 304.086C312.579 304.086 312.429 304.095 312.293 304.111C312.156 304.127 312.035 304.15 311.934 304.179C311.832 304.207 311.752 304.241 311.698 304.278C311.644 304.316 311.616 304.357 311.621 304.4L311.841 306.131C311.846 306.176 311.884 306.218 311.947 306.256C312.01 306.295 312.099 306.329 312.208 306.358C312.316 306.387 312.444 306.411 312.585 306.427C312.726 306.443 312.881 306.452 313.042 306.452L326.533 306.45C326.694 306.45 326.845 306.441 326.981 306.425C327.116 306.408 327.237 306.385 327.336 306.356C327.435 306.327 327.512 306.293 327.563 306.254C327.613 306.216 327.637 306.173 327.628 306.129L327.258 304.398C327.249 304.354 327.208 304.313 327.143 304.275C327.077 304.238 326.986 304.204 326.877 304.176C326.767 304.147 326.639 304.124 326.498 304.109C326.357 304.093 326.205 304.084 326.046 304.084Z" fill="#1A284D"/>
<path d="M308.794 304.086L295.486 304.088C295.327 304.088 295.176 304.097 295.038 304.113C294.9 304.129 294.776 304.153 294.672 304.181C294.569 304.21 294.484 304.244 294.427 304.281C294.369 304.319 294.338 304.361 294.339 304.404L294.392 306.133C294.393 306.178 294.427 306.22 294.487 306.259C294.546 306.298 294.632 306.332 294.738 306.362C294.844 306.391 294.969 306.415 295.109 306.431C295.248 306.448 295.402 306.457 295.563 306.457L309.054 306.454C309.215 306.454 309.367 306.444 309.505 306.428C309.642 306.411 309.764 306.388 309.866 306.358C309.968 306.329 310.049 306.295 310.103 306.256C310.157 306.218 310.185 306.175 310.18 306.131L309.985 304.402C309.98 304.358 309.943 304.317 309.88 304.279C309.817 304.241 309.728 304.207 309.62 304.179C309.512 304.15 309.385 304.127 309.245 304.111C309.105 304.095 308.953 304.086 308.794 304.086Z" fill="#1A284D"/>
<path d="M291.542 304.09L278.233 304.093C278.074 304.093 277.922 304.102 277.784 304.117C277.646 304.133 277.521 304.156 277.415 304.184C277.309 304.213 277.223 304.246 277.163 304.284C277.102 304.322 277.067 304.363 277.064 304.406L276.943 306.138C276.94 306.182 276.97 306.224 277.027 306.262C277.084 306.3 277.167 306.335 277.271 306.364C277.375 306.393 277.5 306.417 277.638 306.433C277.777 306.45 277.93 306.459 278.091 306.459L291.575 306.456C291.736 306.456 291.889 306.447 292.028 306.431C292.167 306.414 292.291 306.391 292.396 306.361C292.5 306.332 292.585 306.297 292.643 306.259C292.7 306.22 292.732 306.178 292.731 306.133L292.702 304.404C292.701 304.36 292.668 304.319 292.609 304.281C292.549 304.244 292.464 304.21 292.359 304.182C292.254 304.153 292.129 304.131 291.991 304.115C291.852 304.099 291.701 304.09 291.542 304.09Z" fill="#1A284D"/>
<path d="M274.289 304.093L260.98 304.095C260.821 304.095 260.668 304.104 260.529 304.119C260.389 304.135 260.261 304.158 260.153 304.186C260.045 304.215 259.955 304.249 259.891 304.286C259.827 304.324 259.788 304.365 259.781 304.409L259.494 306.14C259.487 306.185 259.512 306.227 259.566 306.265C259.619 306.304 259.699 306.338 259.8 306.367C259.901 306.396 260.024 306.42 260.161 306.436C260.298 306.452 260.45 306.461 260.611 306.461L274.095 306.459C274.256 306.459 274.41 306.45 274.551 306.434C274.691 306.417 274.818 306.394 274.925 306.365C275.032 306.336 275.12 306.301 275.182 306.263C275.243 306.225 275.279 306.182 275.283 306.138L275.419 304.406C275.423 304.363 275.393 304.322 275.338 304.284C275.282 304.246 275.2 304.213 275.097 304.184C274.995 304.156 274.872 304.133 274.736 304.117C274.599 304.102 274.448 304.093 274.289 304.093Z" fill="#1A284D"/>
<path d="M257.035 304.095L243.726 304.097C243.567 304.097 243.414 304.106 243.272 304.122C243.131 304.138 243.001 304.161 242.89 304.19C242.779 304.219 242.686 304.253 242.619 304.291C242.551 304.328 242.508 304.37 242.497 304.413L242.044 306.143C242.032 306.187 242.054 306.229 242.104 306.268C242.153 306.306 242.23 306.341 242.328 306.37C242.427 306.399 242.547 306.422 242.683 306.439C242.818 306.455 242.97 306.464 243.13 306.464L256.615 306.461C256.776 306.461 256.931 306.452 257.073 306.436C257.215 306.42 257.344 306.397 257.454 306.368C257.564 306.338 257.655 306.304 257.72 306.266C257.786 306.227 257.825 306.185 257.833 306.14L258.136 304.409C258.143 304.365 258.118 304.324 258.066 304.286C258.014 304.249 257.935 304.215 257.835 304.187C257.735 304.158 257.615 304.135 257.48 304.12C257.344 304.104 257.194 304.095 257.035 304.095Z" fill="#1A284D"/>
<path d="M239.79 304.097L226.472 304.1C226.313 304.1 226.159 304.108 226.016 304.125C225.873 304.141 225.741 304.164 225.627 304.193C225.513 304.221 225.417 304.255 225.346 304.293C225.275 304.331 225.228 304.372 225.212 304.416L224.594 306.145C224.578 306.189 224.596 306.232 224.642 306.271C224.687 306.309 224.761 306.344 224.856 306.373C224.952 306.403 225.069 306.427 225.203 306.443C225.338 306.459 225.488 306.468 225.649 306.468L239.134 306.466C239.295 306.466 239.451 306.457 239.595 306.44C239.74 306.424 239.872 306.4 239.985 306.371C240.099 306.342 240.193 306.307 240.262 306.268C240.331 306.23 240.374 306.187 240.383 306.143L240.851 304.413C240.863 304.37 240.842 304.328 240.795 304.291C240.747 304.253 240.672 304.219 240.576 304.19C240.48 304.162 240.363 304.139 240.23 304.123C240.098 304.106 239.949 304.097 239.79 304.097Z" fill="#1A284D"/>
<path d="M188.025 304.106L174.714 304.109C174.555 304.109 174.398 304.118 174.249 304.133C174.101 304.149 173.962 304.173 173.838 304.201C173.715 304.23 173.608 304.264 173.525 304.302C173.442 304.339 173.383 304.381 173.355 304.424L172.248 306.154C172.219 306.198 172.224 306.24 172.257 306.278C172.29 306.317 172.351 306.351 172.436 306.381C172.521 306.41 172.629 306.433 172.756 306.45C172.883 306.466 173.028 306.475 173.188 306.475C173.189 306.475 173.19 306.475 173.191 306.475C173.192 306.475 173.194 306.475 173.195 306.475C173.196 306.475 173.198 306.475 173.199 306.475C173.2 306.475 173.201 306.475 173.203 306.475L186.697 306.473C186.858 306.473 187.016 306.464 187.165 306.447C187.313 306.431 187.451 306.408 187.573 306.379C187.694 306.35 187.798 306.315 187.878 306.277C187.958 306.238 188.014 306.196 188.039 306.152L188.997 304.42C189.021 304.377 189.012 304.336 188.975 304.298C188.938 304.261 188.873 304.227 188.785 304.198C188.697 304.17 188.587 304.147 188.458 304.131C188.33 304.115 188.184 304.106 188.025 304.106Z" fill="#1A284D"/>
<path d="M381.976 306.843L369.73 306.846C369.569 306.846 369.419 306.855 369.287 306.871C369.155 306.887 369.04 306.911 368.947 306.94C368.854 306.969 368.784 307.004 368.742 307.043C368.7 307.082 368.686 307.124 368.705 307.169L370.183 310.572C370.203 310.618 370.256 310.663 370.333 310.703C370.411 310.744 370.514 310.78 370.634 310.811C370.755 310.842 370.894 310.867 371.044 310.884C371.194 310.901 371.355 310.911 371.52 310.911L384.039 310.908C384.204 310.908 384.356 310.899 384.491 310.882C384.625 310.864 384.742 310.839 384.835 310.809C384.928 310.778 384.997 310.741 385.037 310.701C385.077 310.66 385.088 310.616 385.064 310.569L383.315 307.167C383.292 307.122 383.237 307.079 383.158 307.04C383.078 307.002 382.974 306.967 382.853 306.938C382.732 306.909 382.593 306.885 382.445 306.869C382.296 306.852 382.138 306.843 381.976 306.843Z" fill="#1A284D"/>
<path d="M406.25 306.839L385.696 306.844C385.535 306.844 385.386 306.853 385.255 306.869C385.124 306.885 385.011 306.909 384.921 306.938C384.831 306.967 384.764 307.002 384.725 307.041C384.686 307.079 384.676 307.122 384.699 307.167L386.475 310.569C386.499 310.616 386.555 310.66 386.636 310.7C386.717 310.741 386.823 310.777 386.946 310.807C387.069 310.838 387.21 310.862 387.362 310.88C387.513 310.897 387.675 310.906 387.84 310.906L408.853 310.903C409.017 310.903 409.168 310.894 409.299 310.877C409.431 310.859 409.543 310.834 409.631 310.804C409.719 310.773 409.782 310.736 409.816 310.696C409.85 310.655 409.854 310.611 409.824 310.565L407.625 307.164C407.596 307.119 407.536 307.077 407.452 307.038C407.368 306.999 407.26 306.964 407.136 306.934C407.012 306.905 406.871 306.881 406.721 306.864C406.571 306.848 406.412 306.839 406.25 306.839Z" fill="#1A284D"/>
<path d="M365.633 306.846L353.386 306.848C353.225 306.848 353.074 306.857 352.94 306.874C352.806 306.89 352.687 306.914 352.591 306.943C352.495 306.973 352.421 307.008 352.374 307.047C352.328 307.086 352.31 307.129 352.325 307.174L353.498 310.574C353.514 310.621 353.563 310.665 353.637 310.706C353.712 310.746 353.813 310.783 353.932 310.813C354.051 310.844 354.189 310.869 354.338 310.886C354.487 310.904 354.648 310.913 354.813 310.913L367.332 310.91C367.497 310.91 367.649 310.901 367.785 310.884C367.92 310.867 368.038 310.842 368.132 310.811C368.227 310.78 368.298 310.744 368.341 310.703C368.384 310.663 368.399 310.618 368.379 310.572L366.935 307.171C366.916 307.126 366.866 307.083 366.791 307.045C366.715 307.006 366.615 306.971 366.498 306.941C366.38 306.912 366.245 306.888 366.098 306.871C365.952 306.855 365.794 306.846 365.633 306.846Z" fill="#1A284D"/>
<path d="M349.282 306.848L337.035 306.85C336.874 306.85 336.723 306.86 336.588 306.876C336.452 306.893 336.333 306.916 336.235 306.946C336.138 306.976 336.061 307.011 336.012 307.049C335.963 307.088 335.942 307.131 335.953 307.176L336.822 310.579C336.834 310.626 336.878 310.67 336.949 310.71C337.019 310.75 337.115 310.787 337.23 310.817C337.346 310.848 337.48 310.872 337.627 310.889C337.774 310.906 337.933 310.916 338.098 310.916L350.617 310.914C350.782 310.914 350.936 310.904 351.074 310.887C351.212 310.87 351.333 310.845 351.432 310.815C351.53 310.784 351.606 310.748 351.654 310.708C351.701 310.668 351.72 310.624 351.704 310.577L350.564 307.174C350.549 307.129 350.502 307.086 350.429 307.047C350.356 307.009 350.258 306.973 350.142 306.944C350.026 306.915 349.892 306.891 349.746 306.874C349.601 306.858 349.444 306.848 349.282 306.848Z" fill="#1A284D"/>
<path d="M332.939 306.853L320.691 306.855C320.53 306.855 320.377 306.864 320.24 306.88C320.102 306.897 319.98 306.92 319.879 306.95C319.777 306.979 319.696 307.014 319.643 307.052C319.59 307.091 319.564 307.134 319.571 307.178L320.136 310.582C320.143 310.628 320.184 310.673 320.252 310.713C320.319 310.753 320.413 310.789 320.526 310.82C320.64 310.85 320.773 310.875 320.919 310.892C321.066 310.909 321.224 310.918 321.389 310.918L333.909 310.916C334.074 310.916 334.229 310.906 334.367 310.889C334.505 310.872 334.628 310.848 334.728 310.817C334.828 310.787 334.906 310.751 334.957 310.71C335.007 310.67 335.029 310.626 335.018 310.579L334.182 307.176C334.171 307.131 334.128 307.088 334.059 307.05C333.991 307.011 333.898 306.976 333.785 306.947C333.673 306.918 333.542 306.894 333.399 306.878C333.256 306.862 333.1 306.853 332.939 306.853Z" fill="#1A284D"/>
<path d="M316.587 306.855L304.339 306.858C304.177 306.858 304.025 306.867 303.886 306.883C303.748 306.899 303.625 306.923 303.522 306.952C303.418 306.981 303.336 307.016 303.28 307.055C303.224 307.093 303.195 307.136 303.198 307.181L303.458 310.584C303.462 310.631 303.498 310.675 303.561 310.715C303.624 310.756 303.714 310.792 303.824 310.822C303.934 310.853 304.064 310.877 304.207 310.894C304.351 310.911 304.509 310.921 304.674 310.921L317.194 310.919C317.359 310.919 317.515 310.909 317.656 310.892C317.796 310.875 317.922 310.85 318.026 310.82C318.129 310.789 318.212 310.753 318.267 310.713C318.321 310.673 318.348 310.629 318.341 310.582L317.809 307.179C317.802 307.134 317.762 307.091 317.697 307.052C317.631 307.014 317.54 306.979 317.429 306.95C317.318 306.92 317.188 306.897 317.046 306.88C316.903 306.864 316.748 306.855 316.587 306.855Z" fill="#1A284D"/>
<path d="M300.242 306.857L287.994 306.86C287.832 306.86 287.678 306.869 287.538 306.885C287.398 306.901 287.271 306.925 287.164 306.954C287.057 306.983 286.971 307.018 286.91 307.057C286.85 307.095 286.817 307.138 286.816 307.183L286.771 310.586C286.771 310.632 286.803 310.676 286.863 310.717C286.922 310.757 287.008 310.793 287.115 310.824C287.222 310.854 287.349 310.879 287.49 310.896C287.631 310.913 287.787 310.923 287.95 310.923C287.951 310.923 287.952 310.923 287.954 310.923C287.955 310.923 287.956 310.923 287.958 310.923C287.959 310.923 287.96 310.923 287.961 310.923C287.963 310.923 287.964 310.923 287.965 310.923H300.486C300.651 310.923 300.807 310.913 300.949 310.896C301.09 310.879 301.217 310.854 301.322 310.823C301.428 310.792 301.513 310.756 301.57 310.715C301.627 310.675 301.658 310.631 301.655 310.584L301.427 307.181C301.424 307.136 301.389 307.093 301.328 307.054C301.267 307.016 301.179 306.981 301.072 306.952C300.965 306.923 300.838 306.899 300.698 306.883C300.557 306.866 300.403 306.857 300.242 306.857Z" fill="#1A284D"/>
<path d="M283.888 306.86L271.64 306.862C271.478 306.862 271.324 306.871 271.183 306.888C271.042 306.904 270.914 306.928 270.806 306.957C270.697 306.987 270.609 307.022 270.546 307.061C270.483 307.1 270.446 307.143 270.441 307.187L270.093 310.589C270.088 310.635 270.116 310.68 270.172 310.72C270.228 310.761 270.311 310.797 270.415 310.828C270.52 310.859 270.646 310.884 270.786 310.901C270.927 310.918 271.083 310.928 271.248 310.928L283.769 310.925C283.934 310.925 284.091 310.916 284.235 310.899C284.379 310.881 284.509 310.856 284.618 310.826C284.727 310.795 284.817 310.758 284.878 310.718C284.94 310.677 284.975 310.633 284.976 310.586L285.053 307.183C285.054 307.139 285.022 307.096 284.964 307.058C284.905 307.019 284.82 306.984 284.714 306.955C284.609 306.926 284.483 306.902 284.343 306.885C284.203 306.869 284.05 306.86 283.888 306.86Z" fill="#1A284D"/>
<path d="M267.543 306.862L255.294 306.864C255.132 306.864 254.977 306.874 254.833 306.89C254.69 306.907 254.559 306.93 254.447 306.96C254.335 306.989 254.242 307.025 254.175 307.063C254.107 307.102 254.066 307.145 254.057 307.19L253.404 310.594C253.395 310.64 253.42 310.685 253.473 310.725C253.526 310.765 253.607 310.801 253.71 310.832C253.813 310.862 253.937 310.887 254.077 310.904C254.217 310.921 254.373 310.93 254.537 310.93L267.059 310.928C267.224 310.928 267.382 310.918 267.526 310.901C267.671 310.884 267.802 310.859 267.913 310.829C268.024 310.798 268.115 310.762 268.18 310.722C268.244 310.682 268.283 310.637 268.288 310.591L268.669 307.187C268.674 307.142 268.647 307.1 268.593 307.061C268.538 307.022 268.457 306.987 268.355 306.957C268.253 306.928 268.131 306.904 267.993 306.887C267.856 306.871 267.704 306.862 267.543 306.862Z" fill="#1A284D"/>
<path d="M251.188 306.867L238.938 306.869C238.777 306.869 238.621 306.878 238.477 306.895C238.333 306.911 238.201 306.934 238.088 306.963C237.974 306.993 237.879 307.028 237.809 307.066C237.74 307.105 237.695 307.148 237.682 307.192L236.725 310.596C236.711 310.643 236.732 310.687 236.781 310.728C236.829 310.768 236.906 310.804 237.005 310.834C237.104 310.865 237.225 310.89 237.363 310.907C237.501 310.924 237.655 310.933 237.82 310.933L250.342 310.931C250.506 310.931 250.666 310.921 250.813 310.904C250.959 310.887 251.094 310.863 251.209 310.832C251.324 310.802 251.419 310.766 251.488 310.725C251.557 310.685 251.6 310.641 251.609 310.594L252.295 307.191C252.304 307.146 252.28 307.103 252.228 307.064C252.177 307.026 252.098 306.991 251.997 306.962C251.897 306.932 251.775 306.909 251.638 306.892C251.501 306.876 251.349 306.867 251.188 306.867Z" fill="#1A284D"/>
<path d="M234.841 306.869L222.592 306.871C222.43 306.871 222.273 306.88 222.127 306.897C221.981 306.913 221.846 306.937 221.728 306.966C221.611 306.995 221.512 307.03 221.438 307.069C221.364 307.107 221.315 307.15 221.298 307.195L220.036 310.599C220.019 310.645 220.036 310.69 220.082 310.73C220.127 310.77 220.202 310.806 220.299 310.837C220.396 310.867 220.516 310.892 220.653 310.909C220.79 310.926 220.944 310.935 221.109 310.935L233.631 310.933C233.796 310.933 233.956 310.924 234.104 310.907C234.251 310.889 234.386 310.865 234.503 310.834C234.62 310.804 234.717 310.768 234.789 310.727C234.861 310.687 234.907 310.643 234.921 310.596L235.911 307.192C235.925 307.148 235.905 307.105 235.857 307.066C235.81 307.027 235.735 306.993 235.638 306.963C235.542 306.934 235.423 306.911 235.289 306.894C235.153 306.878 235.003 306.869 234.841 306.869Z" fill="#1A284D"/>
<path d="M218.486 306.871L206.236 306.873C206.075 306.873 205.917 306.882 205.77 306.899C205.623 306.915 205.487 306.939 205.368 306.968C205.25 306.997 205.148 307.032 205.071 307.071C204.995 307.109 204.942 307.152 204.922 307.197L203.355 310.601C203.334 310.647 203.346 310.691 203.386 310.731C203.427 310.772 203.496 310.808 203.588 310.838C203.68 310.869 203.795 310.894 203.928 310.911C204.061 310.928 204.211 310.937 204.374 310.937C204.376 310.937 204.377 310.937 204.378 310.937C204.379 310.937 204.381 310.937 204.382 310.937C204.383 310.937 204.385 310.937 204.386 310.937C204.387 310.937 204.388 310.937 204.39 310.937H216.911C217.076 310.937 217.238 310.927 217.388 310.91C217.538 310.892 217.677 310.867 217.797 310.837C217.917 310.806 218.019 310.77 218.096 310.73C218.172 310.689 218.222 310.645 218.24 310.599L219.535 307.195C219.552 307.15 219.536 307.107 219.491 307.069C219.446 307.03 219.373 306.995 219.278 306.966C219.183 306.936 219.065 306.913 218.931 306.897C218.798 306.88 218.648 306.871 218.486 306.871Z" fill="#1A284D"/>
<path d="M202.139 306.874L189.888 306.876C189.727 306.876 189.568 306.885 189.419 306.902C189.27 306.918 189.13 306.942 189.008 306.971C188.885 307 188.78 307.035 188.699 307.074C188.617 307.113 188.56 307.157 188.535 307.202L186.665 310.604C186.64 310.65 186.649 310.695 186.687 310.735C186.726 310.776 186.794 310.812 186.885 310.843C186.977 310.874 187.093 310.899 187.226 310.916C187.36 310.933 187.512 310.943 187.677 310.943L200.2 310.94C200.365 310.94 200.527 310.931 200.677 310.914C200.828 310.896 200.968 310.871 201.09 310.841C201.212 310.81 201.317 310.773 201.396 310.733C201.475 310.692 201.529 310.648 201.551 310.601L203.151 307.197C203.172 307.153 203.159 307.111 203.119 307.072C203.078 307.034 203.009 306.999 202.918 306.969C202.827 306.94 202.713 306.916 202.581 306.9C202.449 306.883 202.3 306.874 202.139 306.874Z" fill="#1A284D"/>
<path d="M392.574 311.388L380.023 311.39C379.858 311.39 379.705 311.4 379.571 311.417C379.436 311.434 379.32 311.46 379.227 311.491C379.134 311.522 379.064 311.558 379.023 311.599C378.982 311.64 378.97 311.685 378.993 311.732L380.704 315.309C380.727 315.357 380.784 315.404 380.865 315.446C380.947 315.489 381.054 315.527 381.18 315.559C381.305 315.591 381.449 315.617 381.604 315.635C381.758 315.653 381.924 315.662 382.093 315.662L394.93 315.66C395.101 315.66 395.258 315.65 395.396 315.632C395.533 315.614 395.651 315.587 395.743 315.555C395.836 315.523 395.904 315.484 395.942 315.442C395.98 315.399 395.988 315.352 395.961 315.303L393.965 311.73C393.939 311.683 393.881 311.638 393.797 311.597C393.713 311.556 393.604 311.519 393.478 311.488C393.352 311.457 393.208 311.432 393.055 311.415C392.902 311.397 392.739 311.388 392.574 311.388Z" fill="#1A284D"/>
<path d="M409.16 311.385L396.609 311.388C396.444 311.388 396.292 311.397 396.158 311.415C396.024 311.432 395.909 311.457 395.817 311.488C395.726 311.519 395.658 311.556 395.62 311.597C395.582 311.638 395.574 311.683 395.6 311.73L397.627 315.304C397.655 315.352 397.716 315.399 397.802 315.442C397.888 315.484 398 315.523 398.13 315.555C398.26 315.588 398.407 315.614 398.564 315.632C398.722 315.65 398.889 315.66 399.058 315.66L411.894 315.657C412.063 315.657 412.218 315.647 412.352 315.629C412.487 315.611 412.601 315.585 412.691 315.553C412.78 315.52 412.845 315.482 412.879 315.439C412.913 315.397 412.917 315.35 412.885 315.301L410.572 311.725C410.541 311.678 410.479 311.633 410.393 311.592C410.306 311.552 410.195 311.515 410.068 311.485C409.94 311.454 409.796 311.429 409.642 311.412C409.488 311.395 409.325 311.385 409.16 311.385Z" fill="#1A284D"/>
<path d="M375.841 311.392C375.84 311.392 375.839 311.392 375.837 311.392C375.836 311.392 375.835 311.392 375.833 311.392C375.832 311.392 375.831 311.392 375.83 311.392C375.828 311.392 375.827 311.392 375.826 311.392H363.273C363.108 311.392 362.954 311.402 362.817 311.419C362.68 311.437 362.561 311.462 362.463 311.493C362.367 311.524 362.292 311.561 362.247 311.601C362.202 311.642 362.185 311.687 362.204 311.734L363.595 315.311C363.614 315.36 363.667 315.406 363.745 315.449C363.824 315.491 363.929 315.529 364.053 315.561C364.177 315.593 364.319 315.619 364.473 315.637C364.627 315.655 364.792 315.665 364.961 315.665L377.799 315.662C377.968 315.662 378.124 315.652 378.262 315.635C378.4 315.617 378.519 315.591 378.614 315.559C378.71 315.527 378.781 315.489 378.823 315.446C378.865 315.404 378.877 315.357 378.854 315.308L377.177 311.732C377.155 311.685 377.101 311.641 377.023 311.6C376.945 311.56 376.842 311.523 376.721 311.492C376.6 311.462 376.462 311.437 376.313 311.419C376.164 311.402 376.005 311.392 375.841 311.392Z" fill="#1A284D"/>
<path d="M359.077 311.395L346.517 311.397C346.351 311.397 346.197 311.407 346.059 311.424C345.921 311.441 345.8 311.466 345.701 311.497C345.603 311.527 345.526 311.564 345.478 311.605C345.43 311.645 345.41 311.69 345.424 311.737L346.496 315.314C346.51 315.362 346.558 315.409 346.632 315.451C346.706 315.494 346.807 315.532 346.927 315.564C347.047 315.596 347.186 315.622 347.337 315.64C347.489 315.658 347.653 315.667 347.822 315.667L360.659 315.665C360.831 315.665 360.989 315.655 361.13 315.637C361.271 315.619 361.393 315.593 361.492 315.561C361.591 315.529 361.666 315.491 361.712 315.449C361.757 315.406 361.774 315.36 361.755 315.311L360.398 311.734C360.381 311.687 360.33 311.643 360.253 311.602C360.177 311.561 360.075 311.525 359.955 311.494C359.835 311.463 359.697 311.439 359.548 311.421C359.399 311.405 359.24 311.395 359.077 311.395Z" fill="#1A284D"/>
<path d="M342.318 311.398L329.766 311.4C329.6 311.4 329.444 311.409 329.305 311.427C329.165 311.444 329.041 311.468 328.939 311.499C328.837 311.53 328.756 311.566 328.705 311.607C328.654 311.648 328.631 311.692 328.643 311.739L329.386 315.316C329.396 315.365 329.44 315.412 329.512 315.454C329.583 315.496 329.681 315.534 329.799 315.566C329.917 315.598 330.055 315.624 330.206 315.642C330.357 315.66 330.52 315.67 330.689 315.67H343.528C343.697 315.67 343.855 315.66 343.996 315.642C344.137 315.624 344.261 315.598 344.362 315.565C344.463 315.533 344.541 315.494 344.59 315.452C344.64 315.409 344.66 315.363 344.646 315.314L343.609 311.737C343.595 311.69 343.549 311.645 343.477 311.605C343.405 311.564 343.308 311.527 343.191 311.497C343.074 311.466 342.939 311.441 342.791 311.424C342.643 311.407 342.483 311.398 342.318 311.398Z" fill="#1A284D"/>
<path d="M325.567 311.4L313.007 311.402C312.841 311.402 312.685 311.412 312.544 311.429C312.404 311.446 312.278 311.471 312.174 311.502C312.07 311.533 311.987 311.57 311.931 311.61C311.876 311.651 311.848 311.695 311.853 311.742L312.285 315.318C312.291 315.367 312.33 315.414 312.397 315.457C312.463 315.499 312.557 315.538 312.671 315.57C312.786 315.602 312.92 315.628 313.068 315.647C313.217 315.665 313.379 315.675 313.548 315.675L326.395 315.672C326.564 315.672 326.723 315.662 326.866 315.644C327.008 315.626 327.135 315.6 327.239 315.567C327.343 315.535 327.424 315.497 327.477 315.454C327.53 315.411 327.555 315.365 327.545 315.316L326.828 311.739C326.819 311.692 326.776 311.647 326.707 311.606C326.638 311.566 326.543 311.529 326.428 311.499C326.314 311.468 326.18 311.443 326.034 311.426C325.889 311.409 325.731 311.4 325.567 311.4Z" fill="#1A284D"/>
<path d="M308.808 311.402L296.255 311.405C296.09 311.405 295.933 311.414 295.79 311.432C295.648 311.449 295.52 311.474 295.413 311.505C295.306 311.536 295.22 311.573 295.161 311.614C295.102 311.655 295.07 311.7 295.071 311.747L295.175 315.324C295.176 315.372 295.212 315.418 295.276 315.46C295.339 315.503 295.43 315.541 295.543 315.573C295.655 315.605 295.789 315.631 295.936 315.65C296.084 315.668 296.245 315.678 296.414 315.678L309.254 315.675C309.423 315.675 309.582 315.665 309.726 315.647C309.871 315.629 309.999 315.603 310.106 315.57C310.213 315.538 310.298 315.5 310.355 315.457C310.412 315.415 310.441 315.368 310.435 315.319L310.038 311.745C310.033 311.697 309.995 311.653 309.93 311.612C309.866 311.571 309.774 311.534 309.663 311.503C309.552 311.472 309.421 311.447 309.276 311.429C309.131 311.412 308.973 311.402 308.808 311.402Z" fill="#1A284D"/>
<path d="M292.072 311.407C292.071 311.407 292.07 311.407 292.068 311.407C292.067 311.407 292.066 311.407 292.065 311.407C292.063 311.407 292.062 311.407 292.061 311.407C292.059 311.407 292.058 311.407 292.057 311.407H279.495C279.33 311.407 279.172 311.417 279.028 311.434C278.884 311.451 278.754 311.476 278.644 311.507C278.534 311.538 278.445 311.575 278.382 311.616C278.32 311.657 278.283 311.702 278.281 311.749L278.072 315.326C278.069 315.375 278.101 315.422 278.16 315.464C278.219 315.506 278.305 315.544 278.414 315.576C278.522 315.608 278.652 315.634 278.797 315.652C278.942 315.67 279.103 315.68 279.272 315.68L292.12 315.677C292.289 315.677 292.45 315.668 292.596 315.65C292.742 315.632 292.873 315.606 292.982 315.574C293.092 315.542 293.18 315.503 293.241 315.461C293.302 315.419 293.335 315.372 293.334 315.323L293.257 311.746C293.256 311.7 293.222 311.655 293.162 311.615C293.102 311.574 293.015 311.537 292.908 311.507C292.801 311.476 292.674 311.451 292.532 311.434C292.391 311.417 292.236 311.407 292.072 311.407Z" fill="#1A284D"/>
<path d="M275.296 311.41L262.742 311.412C262.577 311.412 262.418 311.421 262.273 311.439C262.128 311.456 261.995 311.48 261.883 311.511C261.77 311.542 261.678 311.578 261.611 311.619C261.545 311.66 261.505 311.705 261.498 311.752L260.961 315.329C260.954 315.378 260.981 315.424 261.037 315.467C261.093 315.509 261.178 315.547 261.285 315.579C261.391 315.611 261.52 315.637 261.664 315.655C261.809 315.673 261.969 315.683 262.138 315.683L274.978 315.68C275.147 315.68 275.308 315.67 275.456 315.652C275.603 315.634 275.736 315.609 275.849 315.577C275.961 315.545 276.053 315.506 276.118 315.464C276.182 315.422 276.22 315.375 276.223 315.326L276.474 311.749C276.478 311.702 276.447 311.657 276.389 311.617C276.33 311.576 276.244 311.539 276.138 311.509C276.031 311.478 275.903 311.453 275.761 311.436C275.618 311.419 275.461 311.41 275.296 311.41Z" fill="#1A284D"/>
<path d="M258.544 311.412L245.981 311.415C245.816 311.415 245.656 311.424 245.509 311.441C245.362 311.458 245.228 311.483 245.113 311.514C244.997 311.544 244.901 311.581 244.832 311.622C244.762 311.663 244.717 311.707 244.706 311.754L243.858 315.331C243.846 315.38 243.869 315.427 243.921 315.469C243.972 315.512 244.052 315.55 244.155 315.582C244.257 315.614 244.383 315.64 244.524 315.658C244.666 315.675 244.825 315.685 244.994 315.685L257.843 315.683C258.012 315.683 258.174 315.673 258.324 315.655C258.473 315.637 258.608 315.611 258.724 315.579C258.839 315.547 258.934 315.509 259.003 315.467C259.071 315.425 259.112 315.378 259.12 315.329L259.683 311.752C259.69 311.705 259.664 311.66 259.61 311.619C259.557 311.578 259.475 311.542 259.372 311.511C259.269 311.481 259.145 311.456 259.005 311.439C258.864 311.422 258.709 311.412 258.544 311.412Z" fill="#1A284D"/>
<path d="M241.782 311.415L229.227 311.417C229.062 311.417 228.902 311.426 228.753 311.444C228.605 311.461 228.468 311.486 228.35 311.516C228.232 311.547 228.133 311.583 228.059 311.624C227.986 311.665 227.938 311.71 227.922 311.757L226.745 315.334C226.732 315.383 226.752 315.43 226.801 315.472C226.849 315.515 226.927 315.554 227.027 315.586C227.127 315.618 227.25 315.644 227.391 315.663C227.531 315.681 227.688 315.691 227.858 315.691L240.699 315.688C240.868 315.688 241.031 315.678 241.182 315.66C241.332 315.642 241.47 315.616 241.589 315.583C241.707 315.551 241.806 315.513 241.878 315.47C241.95 315.427 241.996 315.381 242.008 315.332L242.899 311.755C242.911 311.708 242.888 311.663 242.837 311.622C242.786 311.581 242.707 311.545 242.606 311.514C242.505 311.483 242.381 311.459 242.242 311.442C242.102 311.425 241.947 311.415 241.782 311.415Z" fill="#1A284D"/>
<path d="M225.028 311.417L212.465 311.42C212.299 311.42 212.138 311.429 211.988 311.446C211.838 311.464 211.699 311.489 211.578 311.52C211.457 311.551 211.355 311.588 211.277 311.628C211.2 311.669 211.148 311.714 211.128 311.762L209.641 315.336C209.62 315.385 209.635 315.432 209.679 315.475C209.722 315.517 209.796 315.556 209.892 315.588C209.989 315.62 210.11 315.646 210.248 315.665C210.387 315.683 210.544 315.693 210.713 315.693L223.563 315.69C223.732 315.69 223.896 315.68 224.049 315.662C224.201 315.644 224.341 315.618 224.463 315.585C224.584 315.553 224.686 315.515 224.762 315.472C224.838 315.429 224.888 315.382 224.904 315.334L226.106 311.759C226.122 311.712 226.104 311.667 226.057 311.626C226.011 311.585 225.936 311.548 225.839 311.517C225.742 311.486 225.622 311.461 225.484 311.444C225.347 311.427 225.194 311.417 225.028 311.417Z" fill="#1A284D"/>
<path d="M208.266 311.42L195.711 311.422C195.545 311.422 195.383 311.431 195.232 311.449C195.08 311.466 194.939 311.491 194.815 311.522C194.692 311.553 194.585 311.59 194.504 311.631C194.423 311.672 194.367 311.717 194.343 311.764L192.526 315.341C192.504 315.39 192.516 315.437 192.557 315.479C192.598 315.522 192.669 315.56 192.764 315.592C192.858 315.624 192.977 315.65 193.114 315.668C193.251 315.686 193.407 315.696 193.576 315.696L206.418 315.693C206.587 315.693 206.752 315.683 206.906 315.665C207.06 315.647 207.203 315.621 207.327 315.589C207.451 315.557 207.556 315.519 207.636 315.477C207.715 315.435 207.769 315.388 207.79 315.339L209.322 311.762C209.342 311.714 209.327 311.669 209.284 311.628C209.24 311.587 209.168 311.551 209.072 311.52C208.976 311.489 208.858 311.464 208.721 311.446C208.585 311.429 208.431 311.42 208.266 311.42Z" fill="#1A284D"/>
<path d="M191.202 311.424L170.651 311.427C170.486 311.427 170.323 311.436 170.169 311.454C170.015 311.471 169.87 311.496 169.742 311.527C169.614 311.558 169.504 311.595 169.417 311.636C169.33 311.677 169.268 311.722 169.238 311.769L166.953 315.344C166.922 315.393 166.926 315.44 166.96 315.482C166.994 315.525 167.058 315.563 167.148 315.596C167.238 315.628 167.352 315.654 167.487 315.672C167.622 315.691 167.776 315.701 167.945 315.701L188.966 315.696C189.135 315.696 189.301 315.686 189.456 315.668C189.612 315.65 189.757 315.624 189.884 315.592C190.011 315.56 190.12 315.522 190.203 315.479C190.287 315.437 190.345 315.39 190.37 315.341L192.219 311.764C192.243 311.717 192.233 311.672 192.194 311.631C192.155 311.591 192.087 311.554 191.995 311.523C191.903 311.493 191.787 311.468 191.653 311.451C191.519 311.434 191.367 311.424 191.202 311.424Z" fill="#1A284D"/>
<path d="M381.599 316.174C381.598 316.174 381.597 316.174 381.595 316.174C381.594 316.174 381.592 316.174 381.591 316.174C381.59 316.174 381.589 316.174 381.587 316.174C381.586 316.174 381.585 316.174 381.583 316.174H368.711C368.541 316.174 368.384 316.184 368.244 316.202C368.104 316.221 367.982 316.247 367.883 316.28C367.785 316.312 367.71 316.351 367.665 316.394C367.619 316.437 367.604 316.484 367.624 316.534L369.158 320.297C369.179 320.349 369.234 320.398 369.316 320.442C369.398 320.487 369.507 320.527 369.635 320.561C369.763 320.595 369.91 320.622 370.069 320.641C370.227 320.66 370.397 320.67 370.57 320.67L383.743 320.667C383.917 320.667 384.076 320.657 384.217 320.638C384.358 320.619 384.48 320.592 384.577 320.558C384.674 320.524 384.746 320.484 384.787 320.44C384.829 320.395 384.84 320.346 384.815 320.294L382.981 316.531C382.957 316.482 382.9 316.435 382.819 316.392C382.737 316.35 382.63 316.311 382.506 316.279C382.381 316.246 382.238 316.22 382.085 316.202C381.931 316.184 381.767 316.174 381.599 316.174Z" fill="#1A284D"/>
<path d="M412.219 316.166L386.204 316.171C386.035 316.171 385.878 316.182 385.74 316.2C385.601 316.218 385.482 316.244 385.386 316.277C385.29 316.31 385.219 316.349 385.178 316.391C385.137 316.434 385.126 316.482 385.15 316.531L387.025 320.292C387.051 320.344 387.111 320.394 387.198 320.438C387.284 320.483 387.396 320.524 387.528 320.558C387.659 320.592 387.809 320.619 387.969 320.638C388.129 320.657 388.3 320.667 388.473 320.667L415.097 320.662C415.27 320.662 415.429 320.651 415.568 320.632C415.706 320.614 415.824 320.586 415.916 320.553C416.008 320.519 416.074 320.479 416.108 320.434C416.142 320.39 416.144 320.341 416.109 320.289L413.683 316.526C413.651 316.476 413.586 316.429 413.496 316.386C413.405 316.343 413.29 316.304 413.157 316.272C413.024 316.239 412.874 316.213 412.715 316.194C412.556 316.176 412.388 316.166 412.219 316.166Z" fill="#1A284D"/>
<path d="M364.397 316.177L351.525 316.179C351.356 316.179 351.198 316.189 351.057 316.207C350.916 316.225 350.792 316.251 350.692 316.283C350.592 316.315 350.514 316.354 350.466 316.397C350.418 316.439 350.398 316.487 350.414 316.536L351.611 320.3C351.628 320.352 351.678 320.4 351.755 320.445C351.832 320.49 351.937 320.53 352.061 320.564C352.184 320.597 352.328 320.625 352.484 320.643C352.64 320.662 352.808 320.673 352.982 320.673L366.155 320.67C366.328 320.67 366.49 320.659 366.633 320.641C366.777 320.622 366.902 320.594 367.003 320.561C367.104 320.527 367.181 320.487 367.227 320.442C367.273 320.398 367.289 320.349 367.269 320.297L365.771 316.534C365.752 316.484 365.698 316.437 365.619 316.394C365.539 316.352 365.434 316.313 365.309 316.281C365.185 316.248 365.042 316.222 364.887 316.204C364.732 316.187 364.567 316.177 364.397 316.177Z" fill="#1A284D"/>
<path d="M347.219 316.179L334.347 316.182C334.178 316.182 334.018 316.192 333.875 316.21C333.732 316.228 333.605 316.254 333.5 316.286C333.396 316.318 333.314 316.357 333.261 316.4C333.208 316.442 333.184 316.489 333.195 316.539L334.056 320.302C334.067 320.354 334.114 320.403 334.188 320.448C334.262 320.492 334.364 320.533 334.486 320.566C334.608 320.6 334.75 320.627 334.905 320.646C335.06 320.665 335.228 320.675 335.402 320.675H348.576C348.749 320.675 348.911 320.665 349.055 320.646C349.199 320.626 349.326 320.599 349.429 320.565C349.532 320.531 349.611 320.491 349.66 320.446C349.709 320.401 349.729 320.352 349.713 320.3L348.552 316.537C348.537 316.487 348.489 316.44 348.414 316.397C348.339 316.354 348.238 316.316 348.117 316.283C347.997 316.251 347.857 316.225 347.705 316.207C347.553 316.189 347.389 316.179 347.219 316.179Z" fill="#1A284D"/>
<path d="M330.033 316.182L317.16 316.184C316.99 316.184 316.831 316.194 316.687 316.213C316.542 316.231 316.414 316.257 316.308 316.289C316.202 316.322 316.118 316.36 316.062 316.403C316.006 316.446 315.978 316.492 315.985 316.541L316.509 320.305C316.516 320.356 316.557 320.406 316.627 320.451C316.696 320.496 316.793 320.536 316.911 320.57C317.029 320.604 317.168 320.632 317.32 320.651C317.473 320.67 317.639 320.68 317.813 320.68L330.987 320.678C331.16 320.678 331.323 320.667 331.47 320.648C331.617 320.629 331.747 320.601 331.854 320.567C331.961 320.533 332.045 320.493 332.099 320.448C332.153 320.403 332.178 320.354 332.167 320.302L331.342 316.539C331.332 316.489 331.287 316.442 331.215 316.399C331.143 316.357 331.044 316.318 330.925 316.286C330.806 316.254 330.668 316.228 330.517 316.21C330.366 316.191 330.202 316.182 330.033 316.182Z" fill="#1A284D"/>
<path d="M312.854 316.184L299.981 316.187C299.812 316.187 299.65 316.197 299.504 316.215C299.357 316.233 299.226 316.26 299.116 316.292C299.005 316.325 298.917 316.364 298.856 316.407C298.796 316.45 298.763 316.497 298.765 316.547L298.952 320.308C298.955 320.359 298.993 320.409 299.059 320.453C299.125 320.498 299.219 320.539 299.335 320.573C299.451 320.607 299.589 320.634 299.74 320.653C299.892 320.672 300.058 320.683 300.232 320.683L313.406 320.68C313.58 320.68 313.743 320.67 313.891 320.651C314.039 320.632 314.17 320.604 314.279 320.57C314.388 320.536 314.474 320.496 314.532 320.45C314.589 320.406 314.618 320.356 314.611 320.305L314.124 316.544C314.117 316.494 314.077 316.447 314.01 316.404C313.943 316.361 313.848 316.322 313.734 316.29C313.619 316.257 313.484 316.231 313.335 316.212C313.186 316.194 313.024 316.184 312.854 316.184Z" fill="#1A284D"/>
<path d="M295.667 316.187L282.793 316.189C282.624 316.189 282.462 316.2 282.315 316.218C282.167 316.236 282.034 316.262 281.922 316.295C281.81 316.328 281.719 316.367 281.656 316.409C281.592 316.453 281.556 316.5 281.554 316.549L281.404 320.314C281.402 320.365 281.435 320.414 281.496 320.459C281.558 320.503 281.647 320.544 281.759 320.577C281.871 320.611 282.005 320.638 282.154 320.657C282.303 320.676 282.468 320.686 282.641 320.686L295.816 320.684C295.99 320.684 296.155 320.673 296.305 320.654C296.455 320.636 296.59 320.608 296.703 320.575C296.816 320.541 296.908 320.501 296.97 320.456C297.032 320.411 297.066 320.362 297.064 320.311L296.913 316.547C296.911 316.497 296.874 316.45 296.81 316.407C296.746 316.364 296.654 316.325 296.541 316.293C296.428 316.26 296.294 316.233 296.146 316.215C295.998 316.197 295.836 316.187 295.667 316.187Z" fill="#1A284D"/>
<path d="M278.486 316.192L265.612 316.194C265.443 316.194 265.28 316.204 265.13 316.222C264.98 316.24 264.844 316.267 264.728 316.299C264.612 316.331 264.516 316.37 264.448 316.412C264.38 316.455 264.339 316.502 264.333 316.552L263.846 320.316C263.839 320.367 263.868 320.416 263.926 320.461C263.985 320.506 264.072 320.546 264.182 320.58C264.292 320.613 264.424 320.641 264.573 320.659C264.721 320.678 264.885 320.689 265.059 320.689L278.234 320.686C278.408 320.686 278.573 320.675 278.724 320.657C278.875 320.638 279.011 320.61 279.126 320.577C279.241 320.543 279.335 320.503 279.4 320.458C279.466 320.414 279.503 320.365 279.506 320.313L279.692 316.549C279.694 316.499 279.662 316.452 279.603 316.409C279.543 316.367 279.456 316.328 279.347 316.296C279.238 316.264 279.107 316.238 278.962 316.219C278.816 316.202 278.656 316.192 278.486 316.192Z" fill="#1A284D"/>
<path d="M261.298 316.194L248.423 316.197C248.254 316.197 248.09 316.207 247.94 316.225C247.789 316.243 247.652 316.269 247.534 316.301C247.416 316.334 247.318 316.372 247.247 316.415C247.176 316.458 247.131 316.505 247.12 316.554L246.297 320.319C246.286 320.37 246.31 320.419 246.363 320.464C246.417 320.508 246.499 320.549 246.605 320.582C246.711 320.616 246.84 320.643 246.985 320.662C247.131 320.681 247.294 320.691 247.468 320.691L260.643 320.689C260.817 320.689 260.984 320.678 261.137 320.659C261.291 320.64 261.431 320.613 261.55 320.579C261.669 320.546 261.767 320.506 261.837 320.461C261.908 320.416 261.95 320.367 261.957 320.316L262.48 316.552C262.487 316.502 262.459 316.455 262.402 316.412C262.346 316.37 262.26 316.331 262.153 316.299C262.046 316.267 261.917 316.241 261.772 316.222C261.628 316.204 261.467 316.194 261.298 316.194Z" fill="#1A284D"/>
<path d="M244.117 316.197L231.242 316.199C231.073 316.199 230.908 316.21 230.755 316.227C230.602 316.246 230.461 316.272 230.339 316.304C230.218 316.336 230.115 316.374 230.039 316.417C229.963 316.46 229.914 316.507 229.899 316.557L228.739 320.321C228.723 320.373 228.743 320.422 228.793 320.467C228.843 320.512 228.923 320.552 229.027 320.586C229.131 320.62 229.258 320.648 229.403 320.667C229.548 320.686 229.71 320.697 229.884 320.697L243.06 320.694C243.234 320.694 243.401 320.683 243.556 320.664C243.71 320.645 243.851 320.617 243.972 320.583C244.093 320.549 244.194 320.509 244.268 320.464C244.341 320.419 244.387 320.37 244.399 320.319L245.259 316.554C245.27 316.505 245.247 316.457 245.195 316.415C245.143 316.372 245.062 316.334 244.959 316.301C244.856 316.269 244.73 316.243 244.588 316.225C244.446 316.207 244.287 316.197 244.117 316.197Z" fill="#1A284D"/>
<path d="M226.927 316.199L214.052 316.202C213.882 316.202 213.717 316.212 213.563 316.23C213.409 316.249 213.267 316.275 213.144 316.308C213.02 316.34 212.915 316.379 212.836 316.422C212.757 316.465 212.704 316.512 212.684 316.562L211.189 320.324C211.168 320.376 211.183 320.425 211.229 320.469C211.274 320.514 211.349 320.555 211.449 320.589C211.548 320.623 211.672 320.651 211.815 320.67C211.957 320.689 212.118 320.699 212.291 320.699L225.468 320.697C225.642 320.697 225.811 320.686 225.968 320.667C226.125 320.648 226.269 320.62 226.395 320.586C226.52 320.552 226.626 320.512 226.704 320.467C226.782 320.422 226.833 320.373 226.85 320.321L228.045 316.559C228.061 316.51 228.041 316.463 227.992 316.419C227.944 316.377 227.865 316.338 227.764 316.305C227.663 316.272 227.538 316.246 227.397 316.228C227.255 316.21 227.097 316.199 226.927 316.199Z" fill="#1A284D"/>
<path d="M209.746 316.202L196.87 316.205C196.701 316.205 196.534 316.215 196.378 316.233C196.222 316.251 196.076 316.278 195.948 316.31C195.82 316.343 195.711 316.382 195.627 316.425C195.544 316.468 195.486 316.515 195.461 316.564L193.628 320.329C193.603 320.381 193.614 320.43 193.656 320.474C193.699 320.519 193.771 320.559 193.869 320.593C193.967 320.627 194.09 320.654 194.232 320.673C194.373 320.692 194.534 320.702 194.707 320.702L207.884 320.699C208.058 320.699 208.227 320.689 208.385 320.67C208.543 320.651 208.689 320.624 208.816 320.59C208.943 320.556 209.051 320.516 209.132 320.472C209.214 320.427 209.269 320.378 209.29 320.327L210.823 316.562C210.843 316.512 210.828 316.465 210.784 316.422C210.74 316.379 210.666 316.34 210.569 316.308C210.472 316.275 210.351 316.249 210.212 316.23C210.073 316.212 209.916 316.202 209.746 316.202Z" fill="#1A284D"/>
<path d="M415.44 321.2L380.558 321.206C380.384 321.206 380.223 321.216 380.08 321.235C379.937 321.254 379.814 321.282 379.714 321.316C379.615 321.35 379.541 321.39 379.497 321.435C379.453 321.48 379.44 321.53 379.464 321.582L381.277 325.548C381.301 325.602 381.361 325.654 381.448 325.701C381.536 325.748 381.65 325.791 381.784 325.827C381.917 325.863 382.07 325.892 382.234 325.912C382.399 325.932 382.574 325.943 382.752 325.943L418.471 325.935C418.649 325.935 418.812 325.924 418.954 325.904C419.096 325.884 419.217 325.855 419.312 325.82C419.406 325.784 419.474 325.742 419.509 325.695C419.545 325.648 419.548 325.596 419.513 325.542L416.948 321.576C416.914 321.524 416.846 321.474 416.753 321.429C416.66 321.384 416.541 321.344 416.404 321.31C416.268 321.276 416.114 321.249 415.95 321.23C415.787 321.211 415.614 321.2 415.44 321.2Z" fill="#1A284D"/>
<path d="M376.13 321.206L362.922 321.209C362.748 321.209 362.586 321.219 362.443 321.238C362.299 321.258 362.174 321.285 362.073 321.32C361.973 321.354 361.896 321.395 361.849 321.44C361.802 321.486 361.785 321.535 361.804 321.588L363.262 325.553C363.282 325.607 363.336 325.658 363.418 325.705C363.5 325.752 363.61 325.795 363.739 325.83C363.868 325.866 364.017 325.895 364.179 325.915C364.34 325.935 364.514 325.946 364.692 325.946L378.218 325.943C378.396 325.943 378.561 325.932 378.707 325.912C378.853 325.892 378.98 325.863 379.081 325.827C379.182 325.791 379.259 325.748 379.303 325.701C379.348 325.654 379.361 325.602 379.337 325.547L377.564 321.585C377.541 321.532 377.483 321.483 377.398 321.437C377.314 321.392 377.203 321.351 377.073 321.317C376.943 321.282 376.794 321.255 376.635 321.235C376.475 321.216 376.304 321.206 376.13 321.206Z" fill="#1A284D"/>
<path d="M358.52 321.211C358.519 321.211 358.518 321.211 358.516 321.211C358.515 321.211 358.514 321.211 358.512 321.211C358.511 321.211 358.51 321.211 358.508 321.211C358.507 321.211 358.506 321.211 358.504 321.211H345.294C345.12 321.211 344.957 321.222 344.811 321.241C344.665 321.26 344.536 321.288 344.431 321.322C344.326 321.357 344.244 321.397 344.193 321.443C344.141 321.488 344.119 321.538 344.133 321.59L345.236 325.556C345.251 325.61 345.302 325.662 345.381 325.709C345.459 325.756 345.566 325.798 345.693 325.834C345.82 325.869 345.968 325.898 346.129 325.918C346.289 325.938 346.462 325.949 346.64 325.949L360.167 325.946C360.345 325.946 360.511 325.935 360.658 325.915C360.805 325.895 360.933 325.867 361.036 325.831C361.14 325.795 361.219 325.753 361.267 325.706C361.315 325.659 361.333 325.607 361.313 325.553L359.894 321.587C359.875 321.535 359.823 321.486 359.745 321.441C359.666 321.396 359.561 321.356 359.437 321.322C359.313 321.288 359.17 321.26 359.015 321.241C358.86 321.222 358.692 321.211 358.52 321.211Z" fill="#1A284D"/>
<path d="M340.867 321.214L327.657 321.217C327.483 321.217 327.32 321.227 327.173 321.246C327.026 321.265 326.896 321.292 326.789 321.326C326.682 321.36 326.598 321.401 326.542 321.446C326.487 321.491 326.462 321.541 326.471 321.593L327.22 325.559C327.23 325.613 327.275 325.665 327.349 325.712C327.423 325.759 327.524 325.801 327.647 325.837C327.77 325.872 327.914 325.901 328.072 325.921C328.229 325.94 328.401 325.952 328.579 325.952L342.106 325.949C342.284 325.949 342.451 325.938 342.601 325.918C342.751 325.898 342.883 325.869 342.991 325.834C343.099 325.798 343.182 325.756 343.236 325.709C343.289 325.662 343.311 325.61 343.297 325.556L342.232 321.59C342.218 321.538 342.169 321.488 342.093 321.443C342.017 321.398 341.913 321.358 341.789 321.324C341.666 321.29 341.522 321.262 341.366 321.243C341.21 321.224 341.041 321.214 340.867 321.214Z" fill="#1A284D"/>
<path d="M323.239 321.217L310.029 321.219C309.855 321.219 309.69 321.23 309.54 321.249C309.391 321.268 309.257 321.295 309.146 321.329C309.035 321.363 308.946 321.404 308.886 321.449C308.826 321.494 308.795 321.543 308.8 321.596L309.194 325.562C309.199 325.616 309.24 325.668 309.31 325.715C309.381 325.762 309.48 325.804 309.601 325.84C309.722 325.875 309.864 325.904 310.021 325.924C310.178 325.944 310.349 325.955 310.527 325.955L324.055 325.952C324.233 325.952 324.4 325.941 324.551 325.921C324.701 325.901 324.835 325.872 324.945 325.837C325.055 325.801 325.141 325.759 325.198 325.712C325.254 325.665 325.281 325.613 325.271 325.559L324.561 321.593C324.552 321.541 324.508 321.491 324.437 321.446C324.365 321.401 324.266 321.361 324.147 321.327C324.027 321.293 323.887 321.265 323.734 321.246C323.58 321.227 323.413 321.217 323.239 321.217Z" fill="#1A284D"/>
<path d="M305.601 321.219L292.39 321.222C292.216 321.222 292.051 321.232 291.901 321.251C291.751 321.27 291.615 321.298 291.502 321.332C291.389 321.366 291.297 321.406 291.235 321.451C291.171 321.496 291.137 321.546 291.137 321.598L291.176 325.565C291.177 325.619 291.213 325.671 291.278 325.718C291.343 325.765 291.438 325.808 291.554 325.844C291.67 325.88 291.809 325.909 291.963 325.929C292.118 325.949 292.287 325.96 292.465 325.96L305.994 325.957C306.174 325.957 306.344 325.946 306.498 325.926C306.651 325.906 306.788 325.877 306.902 325.841C307.016 325.805 307.106 325.762 307.167 325.715C307.228 325.668 307.259 325.616 307.255 325.562L306.899 321.596C306.895 321.543 306.855 321.494 306.787 321.449C306.718 321.404 306.622 321.363 306.504 321.329C306.387 321.295 306.248 321.268 306.095 321.249C305.942 321.23 305.775 321.219 305.601 321.219Z" fill="#1A284D"/>
<path d="M287.972 321.222L274.761 321.225C274.587 321.225 274.42 321.236 274.267 321.255C274.115 321.274 273.976 321.302 273.859 321.336C273.742 321.37 273.647 321.411 273.58 321.456C273.514 321.502 273.476 321.552 273.474 321.604L273.149 325.567C273.145 325.622 273.177 325.673 273.238 325.721C273.3 325.768 273.392 325.811 273.506 325.847C273.621 325.882 273.758 325.911 273.911 325.932C274.064 325.952 274.234 325.963 274.412 325.963L287.941 325.96C288.119 325.96 288.288 325.949 288.442 325.929C288.596 325.909 288.735 325.88 288.851 325.844C288.968 325.808 289.062 325.765 289.127 325.718C289.192 325.67 289.228 325.619 289.228 325.564L289.227 321.598C289.227 321.547 289.192 321.497 289.129 321.452C289.065 321.407 288.974 321.367 288.86 321.333C288.747 321.298 288.612 321.271 288.462 321.252C288.311 321.233 288.146 321.222 287.972 321.222Z" fill="#1A284D"/>
<path d="M270.333 321.225L257.121 321.228C256.947 321.228 256.78 321.238 256.627 321.257C256.473 321.276 256.333 321.304 256.214 321.339C256.094 321.373 255.995 321.414 255.924 321.459C255.853 321.504 255.809 321.554 255.8 321.606L255.13 325.573C255.12 325.627 255.147 325.679 255.204 325.726C255.261 325.773 255.348 325.815 255.458 325.851C255.568 325.886 255.702 325.915 255.852 325.935C256.003 325.955 256.17 325.966 256.349 325.966L269.887 325.963C270.063 325.963 270.232 325.952 270.388 325.932C270.543 325.912 270.685 325.883 270.805 325.848C270.925 325.812 271.023 325.77 271.093 325.723C271.163 325.676 271.204 325.624 271.209 325.57L271.563 321.603C271.568 321.551 271.537 321.501 271.477 321.456C271.417 321.411 271.328 321.37 271.216 321.336C271.105 321.301 270.971 321.274 270.821 321.254C270.671 321.235 270.507 321.225 270.333 321.225Z" fill="#1A284D"/>
<path d="M252.702 321.23L239.49 321.233C239.316 321.233 239.147 321.243 238.991 321.262C238.835 321.281 238.692 321.309 238.569 321.343C238.446 321.377 238.343 321.417 238.268 321.462C238.194 321.507 238.147 321.557 238.135 321.609L237.101 325.576C237.087 325.63 237.11 325.682 237.163 325.729C237.216 325.776 237.3 325.818 237.408 325.854C237.517 325.889 237.649 325.918 237.799 325.938C237.948 325.958 238.115 325.969 238.294 325.969L251.823 325.966C252.001 325.966 252.173 325.955 252.331 325.935C252.488 325.915 252.632 325.887 252.755 325.851C252.877 325.815 252.979 325.773 253.052 325.726C253.126 325.679 253.171 325.627 253.181 325.573L253.89 321.606C253.899 321.554 253.873 321.505 253.818 321.46C253.762 321.415 253.678 321.374 253.571 321.34C253.463 321.306 253.333 321.279 253.186 321.26C253.039 321.24 252.876 321.23 252.702 321.23Z" fill="#1A284D"/>
<path d="M235.071 321.233L221.849 321.236C221.675 321.236 221.506 321.246 221.349 321.265C221.192 321.284 221.048 321.312 220.922 321.346C220.796 321.38 220.691 321.42 220.611 321.465C220.532 321.51 220.48 321.56 220.461 321.612L219.081 325.579C219.062 325.633 219.079 325.685 219.128 325.732C219.176 325.779 219.255 325.821 219.359 325.857C219.463 325.892 219.591 325.921 219.738 325.941C219.885 325.96 220.051 325.972 220.229 325.972L233.769 325.969C233.947 325.969 234.119 325.958 234.279 325.938C234.438 325.918 234.584 325.89 234.71 325.854C234.836 325.818 234.941 325.776 235.019 325.729C235.097 325.682 235.147 325.63 235.161 325.576L236.225 321.609C236.239 321.557 236.217 321.507 236.166 321.462C236.115 321.417 236.034 321.377 235.93 321.343C235.825 321.309 235.698 321.281 235.552 321.262C235.407 321.243 235.245 321.233 235.071 321.233Z" fill="#1A284D"/>
<path d="M217.43 321.235L204.217 321.238C204.043 321.238 203.873 321.249 203.714 321.268C203.556 321.287 203.408 321.314 203.28 321.348C203.152 321.382 203.042 321.422 202.959 321.467C202.875 321.513 202.818 321.562 202.796 321.614L201.051 325.581C201.03 325.635 201.044 325.687 201.089 325.733C201.133 325.78 201.208 325.823 201.308 325.859C201.407 325.894 201.532 325.923 201.675 325.943C201.818 325.963 201.981 325.974 202.157 325.974C202.158 325.974 202.16 325.974 202.161 325.974C202.163 325.974 202.164 325.974 202.166 325.974C202.167 325.974 202.168 325.974 202.17 325.974C202.171 325.974 202.172 325.974 202.174 325.974H215.703C215.881 325.974 216.055 325.963 216.216 325.943C216.377 325.923 216.527 325.894 216.656 325.858C216.785 325.822 216.894 325.779 216.976 325.732C217.058 325.685 217.113 325.633 217.132 325.579L218.56 321.612C218.576 321.559 218.558 321.51 218.509 321.465C218.461 321.42 218.382 321.379 218.28 321.345C218.179 321.311 218.053 321.284 217.909 321.265C217.766 321.246 217.604 321.235 217.43 321.235Z" fill="#1A284D"/>
<path d="M192.835 316.207L167.674 316.21C167.504 316.21 167.337 316.22 167.178 316.238C167.02 316.257 166.871 316.283 166.74 316.315C166.609 316.348 166.494 316.387 166.405 316.43C166.315 316.473 166.251 316.52 166.219 316.57L163.814 320.335C163.78 320.386 163.784 320.435 163.818 320.48C163.853 320.524 163.919 320.565 164.01 320.598C164.102 320.632 164.219 320.659 164.357 320.678C164.495 320.697 164.654 320.707 164.827 320.707L190.579 320.702C190.752 320.702 190.923 320.692 191.082 320.673C191.242 320.654 191.39 320.627 191.52 320.593C191.65 320.559 191.762 320.519 191.847 320.475C191.932 320.43 191.992 320.381 192.017 320.329L193.881 316.564C193.906 316.515 193.896 316.468 193.855 316.425C193.814 316.382 193.744 316.344 193.649 316.312C193.555 316.279 193.436 316.253 193.298 316.235C193.161 316.217 193.005 316.207 192.835 316.207Z" fill="#1A284D"/>
<path d="M199.084 321.238L164.486 321.246C164.312 321.246 164.14 321.257 163.977 321.276C163.815 321.295 163.662 321.322 163.527 321.356C163.391 321.39 163.273 321.431 163.181 321.476C163.089 321.521 163.022 321.571 162.988 321.623L160.454 325.59C160.419 325.644 160.421 325.696 160.456 325.743C160.491 325.79 160.558 325.832 160.651 325.868C160.744 325.903 160.865 325.932 161.006 325.952C161.147 325.972 161.31 325.983 161.488 325.983L196.917 325.977C197.095 325.977 197.269 325.966 197.433 325.946C197.596 325.926 197.748 325.897 197.88 325.861C198.013 325.825 198.126 325.782 198.212 325.735C198.298 325.688 198.358 325.636 198.382 325.581L200.169 321.617C200.193 321.565 200.18 321.515 200.137 321.47C200.094 321.424 200.021 321.384 199.923 321.349C199.825 321.315 199.702 321.287 199.561 321.268C199.419 321.249 199.258 321.238 199.084 321.238Z" fill="#1A284D"/>
<path d="M174.65 326.548L161.136 326.551C160.957 326.551 160.78 326.562 160.612 326.582C160.443 326.602 160.285 326.631 160.144 326.667C160.003 326.703 159.881 326.746 159.784 326.793C159.688 326.841 159.618 326.893 159.582 326.948L156.908 331.134C156.871 331.192 156.873 331.246 156.909 331.296C156.944 331.345 157.014 331.39 157.11 331.428C157.207 331.465 157.331 331.495 157.477 331.517C157.622 331.538 157.79 331.549 157.973 331.549H171.819C172.002 331.548 172.183 331.536 172.353 331.515C172.524 331.493 172.683 331.463 172.824 331.425C172.965 331.387 173.086 331.342 173.181 331.293C173.276 331.243 173.343 331.188 173.375 331.131L175.726 326.945C175.757 326.89 175.75 326.837 175.711 326.79C175.672 326.742 175.6 326.699 175.502 326.664C175.405 326.628 175.281 326.599 175.137 326.579C174.993 326.559 174.829 326.548 174.65 326.548Z" fill="#1A284D"/>
<path d="M192.739 326.545L179.216 326.548C179.038 326.548 178.862 326.559 178.696 326.579C178.531 326.599 178.376 326.628 178.24 326.664C178.103 326.7 177.985 326.743 177.894 326.79C177.803 326.838 177.738 326.89 177.708 326.945L175.407 331.131C175.375 331.189 175.382 331.243 175.421 331.293C175.46 331.343 175.532 331.387 175.631 331.425C175.73 331.462 175.855 331.493 176.002 331.514C176.149 331.535 176.317 331.547 176.5 331.547L190.356 331.544C190.539 331.544 190.719 331.532 190.887 331.511C191.055 331.49 191.212 331.459 191.349 331.422C191.487 331.385 191.604 331.34 191.694 331.29C191.784 331.24 191.847 331.186 191.874 331.129L193.842 326.942C193.868 326.887 193.856 326.835 193.814 326.788C193.771 326.74 193.697 326.697 193.597 326.662C193.497 326.626 193.372 326.597 193.227 326.577C193.082 326.556 192.918 326.545 192.739 326.545Z" fill="#1A284D"/>
<path d="M210.754 326.54L197.241 326.543C197.063 326.543 196.887 326.554 196.722 326.574C196.558 326.594 196.404 326.624 196.27 326.66C196.135 326.696 196.02 326.739 195.932 326.787C195.844 326.835 195.783 326.887 195.757 326.942L193.829 331.128C193.802 331.185 193.814 331.24 193.859 331.29C193.904 331.339 193.981 331.384 194.084 331.422C194.187 331.459 194.317 331.49 194.466 331.51C194.616 331.531 194.785 331.543 194.968 331.543L208.815 331.54C208.998 331.54 209.177 331.528 209.343 331.507C209.509 331.487 209.663 331.456 209.797 331.419C209.931 331.381 210.045 331.337 210.13 331.287C210.216 331.237 210.274 331.183 210.296 331.125L211.891 326.939C211.912 326.884 211.896 326.832 211.849 326.784C211.803 326.736 211.725 326.693 211.622 326.657C211.519 326.621 211.392 326.592 211.245 326.571C211.098 326.551 210.933 326.54 210.754 326.54Z" fill="#1A284D"/>
<path d="M232.869 326.537L215.246 326.54C215.067 326.54 214.893 326.551 214.731 326.571C214.569 326.591 214.419 326.621 214.289 326.657C214.159 326.693 214.048 326.736 213.965 326.784C213.882 326.832 213.827 326.884 213.806 326.939L212.25 331.125C212.229 331.183 212.245 331.237 212.294 331.287C212.342 331.336 212.421 331.381 212.527 331.419C212.632 331.456 212.763 331.486 212.914 331.507C213.064 331.528 213.234 331.54 213.417 331.54L231.476 331.537C231.659 331.537 231.836 331.525 232 331.504C232.164 331.483 232.315 331.452 232.445 331.414C232.575 331.376 232.684 331.331 232.764 331.281C232.845 331.231 232.896 331.176 232.912 331.119L234.05 326.933C234.065 326.878 234.043 326.826 233.991 326.779C233.939 326.731 233.857 326.688 233.75 326.652C233.643 326.617 233.512 326.588 233.363 326.568C233.215 326.548 233.048 326.537 232.869 326.537Z" fill="#1A284D"/>
<path d="M346.309 326.517L328.689 326.52C328.51 326.52 328.343 326.531 328.192 326.551C328.041 326.571 327.908 326.6 327.798 326.635C327.688 326.671 327.602 326.714 327.546 326.762C327.489 326.809 327.463 326.861 327.473 326.916L328.263 331.101C328.274 331.159 328.321 331.213 328.398 331.263C328.475 331.313 328.58 331.357 328.707 331.395C328.834 331.432 328.983 331.463 329.145 331.484C329.306 331.504 329.481 331.516 329.662 331.516L347.717 331.513C347.9 331.513 348.071 331.501 348.223 331.48C348.376 331.459 348.509 331.429 348.618 331.392C348.726 331.354 348.81 331.309 348.863 331.26C348.915 331.21 348.936 331.156 348.92 331.098L347.712 326.913C347.696 326.858 347.645 326.806 347.567 326.758C347.488 326.711 347.381 326.668 347.254 326.632C347.128 326.596 346.981 326.568 346.82 326.548C346.661 326.528 346.488 326.517 346.309 326.517Z" fill="#1A284D"/>
<path d="M364.707 326.511L351.142 326.514C350.964 326.514 350.797 326.525 350.647 326.545C350.498 326.566 350.367 326.595 350.261 326.631C350.154 326.667 350.073 326.711 350.022 326.758C349.972 326.806 349.953 326.858 349.971 326.914L351.216 331.098C351.233 331.156 351.287 331.21 351.369 331.26C351.451 331.31 351.562 331.354 351.694 331.392C351.826 331.429 351.978 331.46 352.144 331.481C352.309 331.501 352.487 331.513 352.67 331.513L366.57 331.51C366.753 331.51 366.923 331.499 367.073 331.478C367.224 331.457 367.354 331.426 367.46 331.389C367.565 331.351 367.645 331.307 367.693 331.257C367.741 331.207 367.757 331.153 367.735 331.095L366.147 326.911C366.126 326.856 366.071 326.803 365.988 326.755C365.904 326.708 365.794 326.664 365.664 326.628C365.533 326.592 365.383 326.563 365.221 326.543C365.06 326.522 364.886 326.511 364.707 326.511Z" fill="#1A284D"/>
<path d="M324.151 326.52L237.295 326.537C237.117 326.537 236.944 326.548 236.784 326.568C236.624 326.588 236.478 326.617 236.352 326.652C236.226 326.688 236.12 326.731 236.042 326.779C235.965 326.826 235.915 326.878 235.9 326.934L234.801 331.119C234.785 331.176 234.808 331.231 234.861 331.281C234.915 331.331 234.999 331.375 235.109 331.413C235.218 331.45 235.353 331.481 235.505 331.501C235.658 331.523 235.829 331.534 236.012 331.534L325.013 331.519C325.196 331.519 325.369 331.507 325.524 331.486C325.68 331.465 325.818 331.434 325.932 331.396C326.046 331.358 326.136 331.313 326.194 331.263C326.253 331.213 326.281 331.159 326.271 331.101L325.521 326.916C325.511 326.861 325.466 326.809 325.391 326.761C325.317 326.714 325.214 326.671 325.09 326.635C324.966 326.599 324.821 326.571 324.662 326.55C324.502 326.531 324.33 326.52 324.151 326.52Z" fill="#1A284D"/>
<path d="M185.783 306.876L173.532 306.878C173.371 306.878 173.211 306.888 173.062 306.904C172.912 306.92 172.771 306.944 172.647 306.974C172.523 307.003 172.415 307.038 172.331 307.077C172.247 307.116 172.187 307.159 172.158 307.204L169.983 310.608C169.953 310.655 169.958 310.699 169.992 310.739C170.026 310.779 170.09 310.816 170.178 310.846C170.265 310.876 170.378 310.901 170.51 310.918C170.641 310.935 170.792 310.945 170.957 310.945L183.481 310.942C183.645 310.942 183.808 310.932 183.961 310.915C184.114 310.898 184.258 310.873 184.384 310.842C184.51 310.812 184.618 310.775 184.702 310.735C184.785 310.694 184.844 310.65 184.87 310.603L186.773 307.201C186.798 307.157 186.789 307.114 186.751 307.075C186.713 307.036 186.647 307.001 186.557 306.971C186.468 306.942 186.355 306.918 186.224 306.901C186.093 306.885 185.944 306.876 185.783 306.876Z" fill="#1A284D"/>
<path d="M395.047 304.073L381.732 304.075C381.574 304.075 381.427 304.084 381.298 304.099C381.168 304.115 381.057 304.138 380.967 304.167C380.878 304.195 380.811 304.229 380.772 304.266C380.733 304.304 380.722 304.345 380.744 304.388L381.627 306.12C381.65 306.164 381.703 306.206 381.781 306.245C381.859 306.283 381.962 306.318 382.081 306.347C382.201 306.376 382.338 306.399 382.485 306.415C382.633 306.432 382.79 306.441 382.951 306.441L396.432 306.438C396.593 306.438 396.742 306.429 396.872 306.413C397.002 306.397 397.115 306.373 397.203 306.344C397.292 306.315 397.358 306.281 397.394 306.242C397.431 306.204 397.439 306.162 397.413 306.117L396.379 304.386C396.354 304.342 396.297 304.301 396.217 304.264C396.137 304.226 396.033 304.192 395.913 304.164C395.792 304.136 395.655 304.113 395.509 304.097C395.362 304.081 395.206 304.073 395.047 304.073Z" fill="#1A284D"/>
<path d="M222.535 304.102L209.216 304.104C209.058 304.104 208.902 304.113 208.758 304.129C208.614 304.144 208.48 304.167 208.363 304.196C208.247 304.224 208.148 304.258 208.073 304.295C207.998 304.333 207.947 304.374 207.927 304.418L207.151 306.15C207.131 306.194 207.144 306.236 207.185 306.275C207.226 306.313 207.296 306.348 207.387 306.377C207.479 306.406 207.594 306.429 207.726 306.446C207.858 306.462 208.007 306.471 208.167 306.471L221.653 306.468C221.814 306.468 221.971 306.459 222.117 306.443C222.263 306.426 222.398 306.403 222.515 306.373C222.631 306.344 222.73 306.309 222.804 306.271C222.877 306.232 222.926 306.19 222.942 306.145L223.567 304.415C223.583 304.372 223.567 304.331 223.522 304.293C223.478 304.256 223.407 304.222 223.313 304.194C223.22 304.165 223.105 304.142 222.974 304.127C222.842 304.111 222.694 304.102 222.535 304.102Z" fill="#1A284D"/>
<path d="M205.28 304.104L191.969 304.107C191.811 304.107 191.654 304.115 191.508 304.131C191.361 304.147 191.224 304.17 191.104 304.198C190.983 304.226 190.88 304.26 190.801 304.298C190.721 304.335 190.666 304.377 190.642 304.42L189.699 306.152C189.676 306.196 189.684 306.238 189.721 306.276C189.757 306.314 189.821 306.348 189.908 306.377C189.995 306.406 190.104 306.429 190.232 306.446C190.359 306.462 190.504 306.472 190.662 306.473C190.664 306.473 190.666 306.473 190.668 306.473C190.67 306.473 190.672 306.473 190.674 306.473C190.676 306.473 190.677 306.473 190.679 306.473C190.681 306.473 190.683 306.473 190.685 306.473L197.404 306.472L204.171 306.47C204.332 306.47 204.49 306.461 204.638 306.445C204.785 306.429 204.922 306.405 205.042 306.376C205.161 306.347 205.263 306.313 205.34 306.274C205.417 306.236 205.47 306.194 205.49 306.149L206.283 304.417C206.303 304.374 206.29 304.333 206.249 304.295C206.209 304.258 206.14 304.224 206.05 304.195C205.96 304.167 205.847 304.144 205.717 304.128C205.586 304.113 205.439 304.104 205.28 304.104Z" fill="#1A284D"/>
<path d="M404.707 304.07L398.364 304.072C398.238 304.072 398.122 304.08 398.02 304.092C397.918 304.104 397.83 304.123 397.761 304.145C397.691 304.168 397.64 304.195 397.612 304.225C397.583 304.255 397.577 304.288 397.598 304.323L398.711 306.182C398.733 306.217 398.779 306.251 398.844 306.281C398.91 306.312 398.995 306.34 399.093 306.363C399.192 306.386 399.304 306.405 399.424 306.418C399.544 306.431 399.671 306.438 399.801 306.438L406.227 306.436C406.354 306.436 406.471 306.429 406.574 306.416C406.677 306.403 406.765 306.384 406.834 306.361C406.903 306.338 406.954 306.311 406.981 306.28C407.008 306.249 407.013 306.215 406.99 306.18L405.792 304.321C405.767 304.286 405.719 304.253 405.653 304.223C405.587 304.193 405.502 304.166 405.404 304.144C405.307 304.121 405.196 304.103 405.078 304.09C404.96 304.077 404.835 304.07 404.707 304.07Z" fill="#1A284D"/>
<path d="M383.787 328.88L369.529 328.883C369.384 328.883 369.25 328.892 369.131 328.908C369.013 328.925 368.909 328.949 368.827 328.978C368.744 329.007 368.682 329.042 368.645 329.081C368.607 329.12 368.595 329.162 368.612 329.207L369.371 331.179C369.389 331.225 369.435 331.268 369.504 331.308C369.573 331.347 369.664 331.383 369.771 331.413C369.879 331.443 370.002 331.468 370.134 331.484C370.267 331.501 370.409 331.511 370.554 331.511L384.995 331.508C385.142 331.508 385.278 331.498 385.397 331.481C385.515 331.465 385.618 331.44 385.699 331.41C385.78 331.38 385.84 331.344 385.874 331.305C385.909 331.265 385.917 331.222 385.896 331.176L384.98 329.204C384.959 329.159 384.91 329.117 384.839 329.078C384.768 329.04 384.675 329.005 384.567 328.975C384.459 328.946 384.336 328.922 384.203 328.906C384.071 328.889 383.931 328.88 383.787 328.88Z" fill="#1A284D"/>
<path d="M402.316 328.877L388.058 328.88C387.913 328.88 387.779 328.889 387.662 328.905C387.545 328.922 387.444 328.946 387.364 328.975C387.284 329.004 387.225 329.039 387.191 329.078C387.158 329.117 387.149 329.159 387.17 329.204L388.108 331.176C388.129 331.221 388.18 331.265 388.252 331.304C388.325 331.344 388.419 331.38 388.529 331.41C388.639 331.44 388.764 331.464 388.899 331.481C389.033 331.498 389.176 331.507 389.321 331.507L403.761 331.504C403.906 331.504 404.039 331.495 404.156 331.478C404.273 331.461 404.373 331.437 404.452 331.406C404.531 331.376 404.589 331.34 404.62 331.3C404.651 331.26 404.657 331.216 404.631 331.17L403.538 329.201C403.513 329.156 403.46 329.114 403.385 329.075C403.311 329.036 403.215 329.001 403.104 328.972C402.993 328.942 402.868 328.919 402.734 328.902C402.601 328.886 402.459 328.877 402.316 328.877Z" fill="#1A284D"/>
<path d="M400.897 326.315L386.818 326.318C386.677 326.318 386.546 326.327 386.431 326.343C386.315 326.359 386.215 326.382 386.136 326.411C386.056 326.439 385.997 326.473 385.962 326.511C385.928 326.549 385.918 326.59 385.939 326.634L386.863 328.557C386.884 328.601 386.932 328.643 387.003 328.682C387.074 328.721 387.166 328.755 387.274 328.785C387.381 328.814 387.505 328.838 387.638 328.855C387.771 328.871 387.913 328.88 388.058 328.88L402.316 328.877C402.459 328.877 402.591 328.868 402.706 328.852C402.822 328.835 402.921 328.811 402.999 328.782C403.077 328.753 403.134 328.718 403.166 328.68C403.197 328.641 403.203 328.599 403.178 328.554L402.101 326.632C402.077 326.588 402.025 326.547 401.952 326.509C401.879 326.471 401.784 326.437 401.675 326.408C401.566 326.38 401.442 326.357 401.31 326.341C401.178 326.324 401.039 326.315 400.897 326.315Z" fill="#1A284D"/>
<path d="M420.619 328.874L406.362 328.877C406.219 328.877 406.088 328.886 405.972 328.902C405.857 328.919 405.758 328.943 405.68 328.972C405.602 329.001 405.546 329.036 405.515 329.075C405.483 329.114 405.478 329.156 405.503 329.201L406.625 331.17C406.651 331.217 406.705 331.26 406.781 331.3C406.857 331.34 406.955 331.375 407.067 331.405C407.18 331.435 407.307 331.459 407.443 331.476C407.579 331.492 407.722 331.502 407.867 331.502L422.307 331.499C422.452 331.499 422.585 331.489 422.7 331.473C422.816 331.456 422.914 331.432 422.99 331.402C423.067 331.372 423.121 331.337 423.149 331.297C423.177 331.257 423.179 331.214 423.149 331.167L421.87 329.198C421.841 329.154 421.785 329.111 421.708 329.072C421.631 329.034 421.532 328.999 421.419 328.969C421.307 328.94 421.179 328.916 421.044 328.9C420.908 328.883 420.765 328.874 420.619 328.874Z" fill="#1A284D"/>
<path d="M361.098 272.385C361.101 271.14 360.836 269.907 360.309 268.733C353.297 253.108 295.54 252.472 288.972 252.445C270.779 252.385 253.633 253.843 240.666 256.566C224.348 259.974 216.733 264.849 216.704 271.919C216.701 273.165 216.966 274.397 217.493 275.571C219.341 279.689 224.734 282.778 231.789 285.075C231.808 285.081 231.808 285.081 231.826 285.088L231.839 285.082C243.467 288.878 259.591 290.55 271.83 291.279C280.287 291.793 286.872 291.858 288.842 291.854C294.649 291.873 300.343 291.746 305.827 291.455C317.546 290.854 328.315 289.587 337.136 287.738C341.907 286.735 345.925 285.614 349.226 284.345C357.268 281.298 361.082 277.385 361.098 272.385ZM307.57 285.801C301.63 286.16 295.351 286.338 288.863 286.32C282.357 286.297 276.082 286.078 270.143 285.693C242.442 283.89 222.215 278.384 222.25 271.934C222.273 264.108 252.132 257.87 288.951 257.978C325.764 258.104 355.589 264.538 355.565 272.364C355.543 278.809 335.283 284.184 307.57 285.801Z" fill="white"/>
<path d="M345.574 259.087C344.418 258.717 343.224 258.371 341.999 258.045C338.777 257.185 335.322 256.456 331.77 255.845C330.164 255.561 328.537 255.308 326.907 255.076C314.213 253.249 301.167 252.692 293.979 252.519C293.752 252.512 293.533 252.509 293.32 252.503C292.816 253.482 292.381 254.492 292.017 255.51C292.014 255.518 292.011 255.526 292.005 255.529C291.547 256.338 291.136 257.16 290.771 257.996C290.924 257.988 291.076 257.994 291.234 257.998C294.397 258.031 297.505 258.108 300.539 258.232C304.561 258.395 308.463 258.638 312.204 258.947C315.142 259.189 317.981 259.468 320.708 259.799C324.083 260.197 327.288 260.658 330.281 261.174C335.514 262.069 340.116 263.131 343.904 264.315C344.718 264.573 345.5 264.833 346.237 265.099C346.233 263.079 346.012 261.061 345.574 259.087Z" fill="#652500"/>
<path d="M307.57 285.801C301.63 286.16 295.352 286.338 288.864 286.321C282.357 286.297 276.083 286.078 270.143 285.693C269.026 277.59 273.285 269.396 281.129 265.875C290.653 261.6 301.834 265.855 306.109 275.379C307.634 278.777 308.066 282.377 307.57 285.801Z" fill="#FDCA01"/>
<path d="M307.568 285.802C301.633 286.163 295.348 286.336 288.862 286.317C282.359 286.297 276.083 286.078 270.139 285.693C269.026 277.589 273.282 269.396 281.126 265.875C282.404 265.302 283.708 264.884 285.027 264.618C283.201 266.135 281.191 268.202 279.425 270.953C277.032 274.684 276.022 278.234 275.561 280.55C279.869 281.458 285.051 282.151 290.925 282.144C297.106 282.132 302.688 281.338 307.542 280.219C307.835 282.091 307.832 283.972 307.568 285.802Z" fill="#FAB001"/>
<path d="M341.221 281.09C336.904 282.234 331.753 283.229 325.962 284.037C322.333 284.539 318.456 284.97 314.377 285.315C312.161 285.502 309.893 285.665 307.571 285.798C305.06 285.948 302.489 286.07 299.868 286.155C291.637 278.972 288.615 267.96 291.234 257.998C291.446 257.17 291.705 256.342 292.005 255.528C292.01 255.526 292.013 255.518 292.016 255.51C292.38 254.491 292.816 253.482 293.32 252.502C294.256 250.644 295.419 248.866 296.805 247.207C306.693 235.346 324.326 233.756 336.187 243.644C341.132 247.769 344.294 253.243 345.574 259.087C346.012 261.061 346.233 263.079 346.237 265.099C346.24 269.793 345.067 274.512 342.673 278.776C342.232 279.564 341.746 280.339 341.221 281.09Z" fill="#355BAF"/>
<path d="M341.785 280.939C341.597 280.989 341.409 281.04 341.222 281.09C336.904 282.234 331.754 283.229 325.962 284.037C322.334 284.54 318.456 284.97 314.377 285.315C312.161 285.502 309.894 285.665 307.572 285.798C305.061 285.948 302.49 286.071 299.868 286.155C298.003 286.218 296.117 286.264 294.208 286.287C287.968 278.19 286.687 267.279 290.772 257.996C291.136 257.16 291.547 256.338 292.005 255.529C292.011 255.526 292.014 255.518 292.017 255.51C292.6 254.482 293.252 253.484 293.979 252.519C294.273 252.116 294.586 251.725 294.907 251.336C304.798 239.481 322.428 237.885 334.289 247.774C337.74 250.656 340.321 254.185 342 258.046C342.885 260.064 343.517 262.168 343.904 264.315C344.759 269.108 344.365 274.11 342.673 278.777C342.41 279.505 342.117 280.227 341.785 280.939Z" fill="url(#paint6_linear_152_22731)"/>
<path d="M306.618 264.766L297.824 266.475C297.049 266.626 296.542 267.377 296.693 268.152L299.976 285.05C300.127 285.825 300.878 286.332 301.653 286.181L310.447 284.473C311.223 284.322 311.73 283.571 311.579 282.795L308.296 265.898C308.145 265.122 307.394 264.616 306.618 264.766Z" fill="white"/>
<path d="M334.677 276.563C332.774 279.693 327.475 279.925 327.475 279.925L315.395 282.27C315.395 282.27 314.239 282.614 312.884 282.097L309.696 265.702C309.947 265.411 310.141 265.142 310.21 264.93C310.387 264.388 311.121 261.554 311.692 258.9C312.08 257.068 312.393 255.326 312.385 254.471C312.373 253.533 312.165 252.279 311.946 251.111C311.671 249.672 311.377 248.357 311.389 247.879C311.401 247.261 313.707 247.123 315.614 247.826C316.375 248.094 317.078 248.506 317.542 249.073C318.079 249.723 318.493 250.975 318.805 252.346C319.434 255.117 319.647 258.41 319.647 258.41L319.64 259.37L330.228 257.31C330.228 257.31 334.534 257.811 332.426 262.712C332.426 262.712 336.369 264.813 333.293 268.661C333.293 268.661 337.958 272.813 334.677 276.563Z" fill="white"/>
<path d="M223.102 205.986C232.374 209.514 242.75 204.857 246.278 195.585C249.805 186.312 245.148 175.936 235.876 172.409C226.604 168.881 216.228 173.538 212.7 182.81C209.173 192.082 213.83 202.459 223.102 205.986Z" fill="#355BAF"/>
<path d="M223.435 209.154C232.99 211.824 242.9 206.243 245.57 196.689C248.24 187.134 242.659 177.224 233.105 174.554C223.55 171.884 213.64 177.465 210.97 187.019C208.3 196.574 213.881 206.484 223.435 209.154Z" fill="url(#paint7_linear_152_22731)"/>
<path d="M222.087 189.566L216.426 190.603C215.926 190.694 215.596 191.173 215.687 191.673L217.68 202.55C217.772 203.05 218.251 203.38 218.75 203.289L224.411 202.251C224.91 202.16 225.241 201.681 225.149 201.182L223.157 190.304C223.065 189.805 222.586 189.475 222.087 189.566Z" fill="white"/>
<path d="M238.681 188.425C240.067 185.292 237.307 184.939 237.307 184.939L230.49 186.188L230.5 185.574C230.5 185.574 230.246 180.842 229.214 179.56C228.183 178.279 225.288 178.197 225.268 178.751C225.247 179.307 225.859 181.645 225.861 182.993C225.863 184.341 224.592 189.107 224.393 189.695C224.347 189.831 224.222 190.004 224.059 190.19L225.992 200.742C226.859 201.082 227.605 200.87 227.605 200.87L237.504 199.056C239.594 197.754 238.513 195.869 238.513 195.869C240.316 194.007 239.198 192.252 239.198 192.252C241.2 189.802 238.681 188.425 238.681 188.425Z" fill="white"/>
<path d="M252.181 145.914C257.58 153.815 268.362 155.844 276.263 150.446C284.164 145.047 286.193 134.265 280.795 126.364C275.396 118.462 264.614 116.433 256.713 121.832C248.811 127.23 246.782 138.012 252.181 145.914Z" fill="#F98202"/>
<path d="M263.708 153.618C272.652 157.021 282.661 152.529 286.064 143.585C289.466 134.641 284.974 124.632 276.03 121.229C267.086 117.826 257.077 122.318 253.674 131.262C250.272 140.206 254.764 150.215 263.708 153.618Z" fill="#FFD530"/>
<mask id="mask0_152_22731" style="mask-type:luminance" maskUnits="userSpaceOnUse" x="258" y="135" width="24" height="14">
<path d="M281.587 137.855C280.821 144.079 275.253 148.619 268.959 148.06C262.665 147.501 257.985 142.049 258.328 135.788L281.587 137.855Z" fill="white"/>
</mask>
<g mask="url(#mask0_152_22731)">
<path d="M281.587 137.855C280.821 144.079 275.253 148.619 268.959 148.06C262.665 147.501 257.985 142.049 258.328 135.788L281.587 137.855Z" fill="black"/>
<path d="M268.911 148.598C264.112 148.172 260.172 145.149 258.344 141.038C261.818 139.827 265.6 139.317 269.503 139.664C273.531 140.021 277.27 141.257 280.551 143.162C278.012 146.802 273.649 149.019 268.911 148.598Z" fill="#FE3957"/>
</g>
<path d="M279.182 131.812C279.526 130.716 278.916 129.548 277.82 129.204C276.724 128.86 275.556 129.47 275.212 130.566C274.868 131.662 275.478 132.83 276.574 133.174C277.67 133.518 278.838 132.908 279.182 131.812Z" fill="black"/>
<path d="M261.234 129.778C261.132 130.922 261.978 131.932 263.122 132.034C264.266 132.135 265.276 131.29 265.378 130.146C265.48 129.001 264.635 127.991 263.49 127.89C262.346 127.788 261.336 128.633 261.234 129.778Z" fill="black"/>
<path d="M342.682 222.766C348.433 229.641 358.667 230.552 365.542 224.801C372.417 219.051 373.328 208.816 367.577 201.942C361.827 195.067 351.592 194.156 344.718 199.907C337.843 205.657 336.932 215.892 342.682 222.766Z" fill="#582E89"/>
<path d="M342.43 216.479C346.1 224.656 355.703 228.31 363.88 224.64C372.057 220.97 375.711 211.366 372.041 203.19C368.371 195.013 358.767 191.359 350.591 195.029C342.414 198.699 338.76 208.302 342.43 216.479Z" fill="url(#paint8_linear_152_22731)"/>
<path d="M354.681 203.482C354.16 205.938 355.589 209.012 358.046 209.533C360.502 210.054 363.056 207.825 363.577 205.368C364.098 202.912 362.476 200.747 360.02 200.226C357.563 199.705 355.202 201.025 354.681 203.482Z" fill="white"/>
<path d="M361.559 220.161L350.702 217.858C349.559 217.616 348.704 216.663 348.586 215.5L348.389 213.55C348.245 212.122 349.248 210.822 350.668 210.62C355.43 209.941 359.955 211.118 364.305 213.668C365.523 214.382 365.954 215.939 365.309 217.196L364.507 218.759C363.954 219.838 362.746 220.413 361.559 220.161Z" fill="white"/>
<path d="M325.173 164.525C341.079 170.576 358.878 162.587 364.929 146.682C370.98 130.777 362.992 112.977 347.086 106.926C331.181 100.875 313.382 108.864 307.331 124.769C301.279 140.674 309.268 158.474 325.173 164.525Z" fill="#BA3E50"/>
<path d="M312.041 147.895C319.009 163.42 337.244 170.358 352.769 163.39C368.295 156.422 375.232 138.187 368.264 122.661C361.296 107.135 343.061 100.198 327.536 107.166C312.01 114.134 305.073 132.369 312.041 147.895Z" fill="url(#paint9_linear_152_22731)"/>
<path d="M321.846 128.236C322.002 122.604 326.694 118.164 332.326 118.319C336.11 118.424 339.348 120.58 341.024 123.688C342.869 120.677 346.221 118.703 350.004 118.807C355.637 118.962 360.077 123.655 359.921 129.287C359.792 133.987 356.088 138.044 353.06 141.29C348.983 145.662 340.533 153.145 340.533 153.145C340.533 153.145 331.849 145.19 328.018 140.599C325.031 137.018 321.709 133.201 321.846 128.236Z" fill="white"/>
<path d="M244.914 268.568C257.208 273.245 270.966 267.071 275.643 254.777C280.32 242.483 274.145 228.726 261.852 224.049C249.558 219.372 235.8 225.546 231.123 237.84C226.446 250.134 232.621 263.891 244.914 268.568Z" fill="#BA3E50"/>
<path d="M233.76 258.377C239.146 270.378 253.24 275.74 265.24 270.354C277.241 264.968 282.603 250.874 277.217 238.873C271.831 226.873 257.737 221.511 245.736 226.897C233.736 232.283 228.374 246.377 233.76 258.377Z" fill="url(#paint10_linear_152_22731)"/>
<path d="M245.208 242.675C247.094 238.749 251.805 237.095 255.731 238.981C258.368 240.248 259.973 242.79 260.175 245.512C262.427 243.969 265.415 243.633 268.052 244.9C271.978 246.786 273.631 251.497 271.745 255.423C270.172 258.698 266.279 260.393 263.118 261.729C258.862 263.529 250.54 266.145 250.54 266.145C250.54 266.145 246.921 257.792 245.665 253.345C244.686 249.876 243.545 246.135 245.208 242.675Z" fill="white"/>
<path d="M301.755 220.332C314.27 216.105 320.99 202.533 316.764 190.018C312.537 177.502 298.965 170.782 286.449 175.009C273.934 179.235 267.214 192.807 271.44 205.323C275.667 217.839 289.239 224.558 301.755 220.332Z" fill="#1F664E"/>
<path d="M275.054 204.374C280.463 216.426 294.618 221.811 306.67 216.402C318.721 210.993 324.107 196.838 318.698 184.786C313.289 172.734 299.134 167.349 287.082 172.758C275.03 178.167 269.645 192.322 275.054 204.374Z" fill="url(#paint11_linear_152_22731)"/>
<path d="M311.545 184.924C316.87 193.013 314.621 203.925 306.532 209.249C298.444 214.573 287.532 212.324 282.208 204.236C276.884 196.147 279.132 185.235 287.221 179.911C295.309 174.587 306.221 176.836 311.545 184.924ZM309.087 186.542C304.655 179.809 295.572 177.937 288.839 182.369C282.106 186.801 280.234 195.885 284.666 202.618C289.098 209.351 298.181 211.223 304.914 206.791C311.647 202.359 313.519 193.275 309.087 186.542Z" fill="white"/>
<path fill-rule="evenodd" clip-rule="evenodd" d="M288.563 191.956L295.505 202.502C296.246 203.628 297.933 203.52 298.523 202.307L303.939 191.184C304.517 189.996 303.613 188.622 302.293 188.684L289.936 189.26C288.588 189.323 287.821 190.829 288.563 191.956Z" fill="white"/>
</g>
<defs>
<linearGradient id="paint0_linear_152_22731" x1="293.031" y1="295.289" x2="286.909" y2="148.982" gradientUnits="userSpaceOnUse">
<stop stop-color="#1E2B56"/>
<stop offset="1" stop-color="#354986"/>
</linearGradient>
<linearGradient id="paint1_linear_152_22731" x1="238.129" y1="-17.7789" x2="238.129" y2="266.654" gradientUnits="userSpaceOnUse">
<stop stop-color="#01FFCC"/>
<stop offset="1" stop-color="#00FE50"/>
</linearGradient>
<linearGradient id="paint2_linear_152_22731" x1="186.564" y1="46.6859" x2="186.564" y2="271.724" gradientUnits="userSpaceOnUse">
<stop stop-color="#01FFCC"/>
<stop offset="1" stop-color="#00FE50"/>
</linearGradient>
<linearGradient id="paint3_linear_152_22731" x1="289.693" y1="-46.0884" x2="289.693" y2="264.427" gradientUnits="userSpaceOnUse">
<stop stop-color="#01FFCC"/>
<stop offset="1" stop-color="#00FE50"/>
</linearGradient>
<linearGradient id="paint4_linear_152_22731" x1="341.258" y1="-90.0355" x2="341.258" y2="260.971" gradientUnits="userSpaceOnUse">
<stop stop-color="#01FFCC"/>
<stop offset="1" stop-color="#00FE50"/>
</linearGradient>
<linearGradient id="paint5_linear_152_22731" x1="392.822" y1="-16.581" x2="392.822" y2="266.748" gradientUnits="userSpaceOnUse">
<stop stop-color="#01FFCC"/>
<stop offset="1" stop-color="#00FE50"/>
</linearGradient>
<linearGradient id="paint6_linear_152_22731" x1="304.927" y1="243.733" x2="325.005" y2="288.47" gradientUnits="userSpaceOnUse">
<stop stop-color="#349CFF"/>
<stop offset="1" stop-color="#2F85FE"/>
</linearGradient>
<linearGradient id="paint7_linear_152_22731" x1="210.966" y1="187.018" x2="245.574" y2="196.69" gradientUnits="userSpaceOnUse">
<stop stop-color="#349CFF"/>
<stop offset="1" stop-color="#2F85FE"/>
</linearGradient>
<linearGradient id="paint8_linear_152_22731" x1="370.035" y1="196.635" x2="346.93" y2="220.462" gradientUnits="userSpaceOnUse">
<stop stop-color="#C900FF"/>
<stop offset="1" stop-color="#8900AE"/>
</linearGradient>
<linearGradient id="paint9_linear_152_22731" x1="371.715" y1="95.9046" x2="339.422" y2="136.19" gradientUnits="userSpaceOnUse">
<stop stop-color="#FA9090"/>
<stop offset="1" stop-color="#FF595A"/>
</linearGradient>
<linearGradient id="paint10_linear_152_22731" x1="276.736" y1="225.791" x2="252.268" y2="252.086" gradientUnits="userSpaceOnUse">
<stop stop-color="#FA9090"/>
<stop offset="1" stop-color="#FF595A"/>
</linearGradient>
<linearGradient id="paint11_linear_152_22731" x1="287.081" y1="172.757" x2="306.67" y2="216.403" gradientUnits="userSpaceOnUse">
<stop stop-color="#30A781"/>
<stop offset="1" stop-color="#64CA77"/>
</linearGradient>
<clipPath id="clip0_152_22731">
<rect width="594.246" height="375" fill="white"/>
</clipPath>
</defs>
</svg>
