<svg width="64" height="64" viewBox="0 0 64 64" fill="none" xmlns="http://www.w3.org/2000/svg">
<rect width="64" height="64" rx="32" fill="url(#paint0_linear_189_27191)"/>
<path fill-rule="evenodd" clip-rule="evenodd" d="M33.8556 33.988L33.6172 33.7496C32.512 34.7553 31.0658 35.3932 29.4727 35.4674V39.9215C30.3679 40.0715 31.0516 40.8515 31.0516 41.7893C31.0516 42.8345 30.2021 43.6839 29.1569 43.6839C28.1118 43.6839 27.2623 42.8345 27.2623 41.7893C27.2623 40.8515 27.946 40.0715 28.8412 39.9215V35.4674C27.2497 35.3932 25.8035 34.7553 24.6967 33.7496L21.8595 36.5868C22.6568 37.3352 23.1557 38.4009 23.1557 39.5803C23.1557 41.8459 21.3163 43.6852 19.0508 43.6852C16.7852 43.6852 14.9459 41.8458 14.9459 39.5803C14.9459 37.3147 16.7853 35.4754 19.0508 35.4754C19.9081 35.4754 20.7055 35.739 21.3638 36.189L24.25 33.3029C23.2442 32.1977 22.6064 30.7515 22.5322 29.1584H17.7624C17.6124 30.0536 16.8324 30.7372 15.8946 30.7372C14.8494 30.7372 14 29.8878 14 28.8426C14 27.7974 14.8494 26.948 15.8946 26.948C16.8324 26.948 17.6124 27.6316 17.7624 28.5268H22.5322C22.6064 26.9353 23.2442 25.4891 24.25 24.3823L21.3638 21.4962C20.7055 21.9461 19.9081 22.2098 19.0508 22.2098C16.7852 22.2098 14.9459 20.3704 14.9459 18.1049C14.9459 15.8392 16.7853 14 19.0508 14C21.3165 14 23.1557 15.8394 23.1557 18.1049C23.1557 19.2843 22.6568 20.3484 21.8595 21.0984L24.6967 23.9355C25.8019 22.9298 27.2481 22.292 28.8412 22.2178V17.7636C27.946 17.6137 27.2623 16.8337 27.2623 15.8959C27.2623 14.8507 28.1118 14.0013 29.1569 14.0013C30.2021 14.0013 31.0516 14.8507 31.0516 15.8959C31.0516 16.8337 30.3679 17.6136 29.4727 17.7636V22.2178C31.0642 22.292 32.5104 22.9298 33.6172 23.9355L36.4544 21.0984C35.6571 20.35 35.1582 19.2843 35.1582 18.1049C35.1582 15.8392 36.9976 14 39.2631 14C41.5287 14 43.368 15.8394 43.368 18.1049C43.368 20.3706 41.5286 22.2098 39.2631 22.2098C38.4058 22.2098 37.6084 21.9461 36.9501 21.4962L34.0639 24.3823C35.0697 25.4875 35.7075 26.9337 35.7817 28.5268H40.2358C40.3858 27.6316 41.1658 26.948 42.1036 26.948C43.1488 26.948 43.9982 27.7974 43.9982 28.8426C43.9982 29.8878 43.1488 30.7372 42.1036 30.7372C41.1658 30.7372 40.3858 30.0536 40.2358 29.1584H35.7817C35.7075 30.7498 35.0697 32.1961 34.0639 33.3029L34.3118 33.5507C34.1555 33.6913 34.0024 33.8365 33.8555 33.9865L33.8556 33.988ZM15.8945 27.5809C15.1966 27.5809 14.6314 28.1461 14.6314 28.844C14.6314 29.5418 15.1966 30.107 15.8945 30.107C16.5924 30.107 17.1576 29.5418 17.1576 28.844C17.1576 28.1461 16.5924 27.5809 15.8945 27.5809ZM39.2612 14.6345C37.3445 14.6345 35.7877 16.1912 35.7877 18.1079C35.7877 20.0247 37.3445 21.5814 39.2612 21.5814C41.1779 21.5814 42.7347 20.0247 42.7347 18.1079C42.7347 16.1912 41.1779 14.6345 39.2612 14.6345ZM38.295 20.0958L37.444 20.3089C37.3366 20.3358 37.2229 20.3042 37.144 20.2253C37.065 20.1463 37.0335 20.0326 37.0603 19.9253L37.2734 19.0743C37.1313 18.7822 37.0508 18.4538 37.0508 18.108C37.0508 16.8876 38.0407 15.8976 39.2612 15.8976C40.4817 15.8976 41.4716 16.8876 41.4716 18.108C41.4716 19.3285 40.4817 20.3184 39.2612 20.3184C38.9139 20.3184 38.587 20.2379 38.295 20.0958ZM40.8401 18.108C40.8401 17.2365 40.1328 16.5292 39.2612 16.5292C38.3897 16.5292 37.6824 17.2365 37.6824 18.108C37.6824 17.7591 37.965 17.4765 38.314 17.4765C38.5018 17.4765 38.6724 17.5586 38.7876 17.6912C38.9029 17.5602 39.0734 17.4765 39.2613 17.4765C39.4492 17.4765 39.6197 17.5586 39.735 17.6912C39.8502 17.5602 40.0207 17.4765 40.2086 17.4765C40.5575 17.4765 40.8401 17.7591 40.8401 18.108ZM37.6824 18.108C37.6824 18.3891 37.755 18.6512 37.8845 18.8801C37.9239 18.9511 37.935 19.0332 37.9161 19.1122L37.8008 19.57L38.2587 19.4548C38.3376 19.4358 38.4197 19.4469 38.4907 19.4864C38.7181 19.6143 38.9817 19.6885 39.2628 19.6885C40.1343 19.6885 40.8416 18.9811 40.8416 18.1096C40.8416 18.4586 40.559 18.7412 40.2101 18.7412C40.0222 18.7412 39.8517 18.6591 39.7364 18.5264C39.6212 18.6575 39.4507 18.7412 39.2628 18.7412C39.0749 18.7412 38.9044 18.6591 38.7891 18.5264C38.6739 18.6575 38.5033 18.7412 38.3155 18.7412C37.9665 18.7412 37.6839 18.4586 37.6839 18.1096L37.6824 18.108ZM29.1565 14.6345C28.4587 14.6345 27.8934 15.1998 27.8934 15.8976C27.8934 16.5955 28.4587 17.1607 29.1565 17.1607C29.8544 17.1607 30.4196 16.5955 30.4196 15.8976C30.4196 15.1998 29.8544 14.6345 29.1565 14.6345ZM42.1029 27.581C41.4051 27.581 40.8399 28.1462 40.8399 28.844C40.8399 29.5419 41.4051 30.1071 42.1029 30.1071C42.8008 30.1071 43.366 29.5419 43.366 28.844C43.366 28.1462 42.8008 27.581 42.1029 27.581ZM19.0519 21.5813C20.9686 21.5813 22.5254 20.0245 22.5254 18.1078C22.5254 16.1911 20.9686 14.6343 19.0519 14.6343C17.1352 14.6343 15.5784 16.1911 15.5784 18.1078C15.5784 20.0245 17.1352 21.5813 19.0519 21.5813ZM19.0519 15.5815C20.446 15.5815 21.5781 16.7136 21.5781 18.1077C21.5781 19.5018 20.446 20.6339 19.0519 20.6339C17.6578 20.6339 16.5258 19.5018 16.5258 18.1077C16.5258 16.7136 17.6578 15.5815 19.0519 15.5815ZM18.1393 16.4467C17.642 16.7215 17.282 17.2109 17.1841 17.7919H17.8014C17.8378 17.3167 17.9546 16.8635 18.1393 16.4467ZM20.9213 17.7919C20.8234 17.2125 20.4634 16.7215 19.9661 16.4467C20.1508 16.8635 20.2676 17.3167 20.3039 17.7919H20.9213ZM19.123 20.0007C19.4245 19.5397 19.6187 19.0013 19.6708 18.4234H18.4362C18.4883 19.0013 18.6825 19.5397 18.9841 20.0007C19.0077 20.0023 19.0298 20.0023 19.0535 20.0023C19.0772 20.0023 19.1009 20.0023 19.123 20.0007ZM18.984 16.2146C18.6825 16.6756 18.4883 17.214 18.4362 17.7919H19.6708C19.6187 17.214 19.4245 16.6756 19.123 16.2146C19.0993 16.213 19.0772 16.213 19.0535 16.213C19.0298 16.213 19.0061 16.213 18.984 16.2146ZM17.1857 18.4234C17.2836 19.0028 17.6436 19.4939 18.1409 19.7686C17.9562 19.3518 17.8394 18.8986 17.8031 18.4234H17.1857ZM19.9677 19.7686C20.465 19.4939 20.825 19.0044 20.9229 18.4234H20.3056C20.2692 18.8986 20.1524 19.3518 19.9677 19.7686ZM29.1596 40.5271C28.4617 40.5271 27.8965 41.0923 27.8965 41.7901C27.8965 42.488 28.4617 43.0532 29.1596 43.0532C29.8575 43.0532 30.4227 42.488 30.4227 41.7901C30.4227 41.0923 29.8575 40.5271 29.1596 40.5271ZM19.055 43.0532C20.9717 43.0532 22.5285 41.4965 22.5285 39.5797C22.5285 37.663 20.9717 36.1063 19.055 36.1063C17.1383 36.1063 15.5815 37.663 15.5815 39.5797C15.5815 41.4965 17.1383 43.0532 19.055 43.0532ZM18.4014 41.5896C18.3556 41.7065 18.2419 41.7901 18.1077 41.7901H16.8446C16.6709 41.7901 16.5289 41.6481 16.5289 41.4744V38.6325C16.5289 38.4588 16.6709 38.3167 16.8446 38.3167H18.1077C18.2814 38.3167 18.4235 38.4588 18.4235 38.6325H18.5261L19.0787 37.2525C19.1261 37.1326 19.2429 37.0536 19.3724 37.0536H20.0039C20.1776 37.0536 20.3197 37.1957 20.3197 37.3694V38.6325H21.267C21.357 38.6325 21.4438 38.6719 21.5038 38.7398C21.5638 38.8077 21.5922 38.8977 21.5796 38.9877L21.2638 41.5138C21.2449 41.6717 21.1091 41.7901 20.9512 41.7901H19.0566C19.0235 41.7901 18.9887 41.7854 18.9571 41.7744L18.403 41.5896H18.4014ZM17.7919 38.9482H17.1604V41.1586H17.7919V38.9482ZM18.4235 39.264V40.9312L19.1055 41.1586H20.6702L20.907 39.264H20.0023C19.8286 39.264 19.6865 39.1219 19.6865 38.9482V37.6851H19.5839L19.0313 39.0651C18.9839 39.1851 18.8671 39.264 18.7376 39.264H18.4219L18.4235 39.264ZM29.1594 34.843C32.4702 34.843 35.1591 32.1543 35.1591 28.8433C35.1591 25.5323 32.4704 22.8436 29.1594 22.8436C25.8486 22.8436 23.1597 25.5323 23.1597 28.8433C23.1597 32.1543 25.8485 34.843 29.1594 34.843ZM26.4059 30.1064H26.0017C25.4791 30.1064 25.0544 29.6817 25.0544 29.159V27.896C25.0544 27.3734 25.4791 26.9486 26.0017 26.9486H27.8221L31.545 25.0872C31.6429 25.0382 31.7598 25.043 31.8529 25.1014C31.9461 25.1598 32.0029 25.2608 32.0029 25.3698V31.6852C32.0029 31.7941 31.9461 31.8967 31.8529 31.9536C31.7598 32.0104 31.6429 32.0167 31.545 31.9678L28.0589 30.2247L28.5121 31.5857C28.5436 31.682 28.5279 31.7878 28.4679 31.8699C28.4079 31.952 28.3131 32.0009 28.2121 32.0009H27.2648C27.129 32.0009 27.0074 31.9141 26.9648 31.7846L26.4059 30.1064ZM27.2648 29.4748H27.5806V27.5802H27.2648V29.4748ZM28.2121 29.5948L31.3698 31.1737V25.8796L28.2121 27.4585V29.5948ZM27.3532 30.1064H27.0722L27.4938 31.3694H27.7748L27.3532 30.1064ZM26.6333 27.5802H26.0018C25.8281 27.5802 25.686 27.7223 25.686 27.896V29.1591C25.686 29.3327 25.8281 29.4748 26.0018 29.4748H26.6333V27.5802ZM40.8428 31.6851C45.8967 31.6851 50 35.7884 50 40.8423C50 45.8962 45.8967 49.9995 40.8428 49.9995C35.7889 49.9995 31.6856 45.8962 31.6856 40.8423C31.6856 35.7884 35.7889 31.6851 40.8428 31.6851ZM40.8428 32.3166C36.1377 32.3166 32.3169 36.1374 32.3169 40.8425C32.3169 45.5476 36.1377 49.3684 40.8428 49.3684C45.5479 49.3684 49.3687 45.5476 49.3687 40.8425C49.3687 36.1374 45.5479 32.3166 40.8428 32.3166ZM43.6516 44.3161H44.0005C44.1552 44.3161 44.2863 44.4282 44.3115 44.5797L44.6273 46.4744C44.6431 46.5659 44.6162 46.6591 44.5562 46.7301C44.4962 46.8012 44.4078 46.8422 44.3147 46.8422H37.3676C37.2744 46.8422 37.186 46.8012 37.126 46.7301C37.066 46.6591 37.0407 46.5659 37.0549 46.4744L37.3707 44.5797C37.396 44.4266 37.527 44.3161 37.6817 44.3161H38.0307L38.5927 39.2638H38.3133C38.168 39.2638 38.0417 39.1659 38.007 39.0254L37.7512 38.0007H37.6817C37.5081 38.0007 37.366 37.8586 37.366 37.6849V35.1588C37.366 34.9851 37.5081 34.843 37.6817 34.843H38.9448C39.1185 34.843 39.2606 34.9851 39.2606 35.1588V36.1061H39.8921V35.1588C39.8921 34.9851 40.0342 34.843 40.2079 34.843H41.471C41.6446 34.843 41.7867 34.9851 41.7867 35.1588V36.1061H42.4183V35.1588C42.4183 34.9851 42.5604 34.843 42.734 34.843H43.9971C44.1708 34.843 44.3129 34.9851 44.3129 35.1588V37.6849C44.3129 37.8586 44.1708 38.0007 43.9971 38.0007H43.9276L43.6719 39.0254C43.6371 39.1659 43.5108 39.2638 43.3656 39.2638H43.0861L43.6482 44.3161H43.6516ZM39.2306 39.2638L38.6685 44.3161H43.0151L42.4531 39.2638H39.2291H39.2306ZM38.4048 38.0007L38.5627 38.6322H43.1223L43.2802 38.0007H38.4048ZM37.7938 45.8948L37.7417 46.2106H43.9435L43.8914 45.8948H37.7938ZM43.7855 45.2633L43.7334 44.9475H37.9531L37.901 45.2633H43.7867H43.7855ZM38.0008 37.3692H43.6844V35.4745H43.0529V36.4219C43.0529 36.5955 42.9108 36.7376 42.7371 36.7376H41.474C41.3004 36.7376 41.1583 36.5955 41.1583 36.4219V35.4745H40.5267V36.4219C40.5267 36.5955 40.3846 36.7376 40.211 36.7376H38.9479C38.7742 36.7376 38.6321 36.5955 38.6321 36.4219V35.4745H38.0006L38.0008 37.3692Z" fill="white"/>
<defs>
<linearGradient id="paint0_linear_189_27191" x1="64" y1="7.62939e-06" x2="7.62939e-06" y2="64" gradientUnits="userSpaceOnUse">
<stop stop-color="#F65A75"/>
<stop offset="1" stop-color="#48179C"/>
</linearGradient>
</defs>
</svg>
