<svg width="666" height="390" viewBox="0 0 666 390" fill="none" xmlns="http://www.w3.org/2000/svg">
<g clip-path="url(#clip0_183_19826)">
<path opacity="0.24" d="M640.805 284.142C634.921 263.777 629.036 243.411 623.152 223.046C621.083 215.886 619.007 208.691 618.051 201.286C614.886 176.753 628.922 157.616 634.759 135.073C639.423 117.061 643.535 94.7912 641.377 76.2526C640.547 69.1179 638.83 61.9793 635.277 55.7936C630.814 48.0216 623.724 42.2049 616.25 37.4821C590.661 21.3134 561.522 18.5469 532.297 23.9497C502.394 29.4776 476.353 41.1134 444.968 35.5951C407.331 28.9774 374.399 3.59775 336.322 0.357199C303.898 -2.40211 272.535 11.2852 243.281 25.5369C218.216 37.7474 192.566 51.1689 164.622 55.1668C140.332 58.6416 116.599 41.5673 93.3292 36.2652C68.3367 30.5706 37.6248 41.536 29.1713 67.5731C21.3484 91.6685 30.6463 119.718 37.7638 142.862C46.2652 170.506 53.7831 198.333 48.5159 227.476C45.6354 243.414 39.7378 258.642 34.1268 273.866C25.6182 296.953 17.0708 318.866 28.5646 342.769C40.3583 367.296 66.8668 369.263 92.2257 370.281C122.023 371.478 151.819 369.545 181.619 369.545C233.671 369.545 285.724 369.545 337.776 369.545C389.073 369.545 440.37 369.545 491.667 369.545C515.788 369.545 539.91 369.545 564.032 369.545C581.939 369.545 603.767 365.47 619.678 357.598C639.156 347.961 644.198 331.351 645.218 312.104C645.741 302.224 643.525 293.554 640.805 284.142Z" fill="url(#paint0_linear_183_19826)"/>
<path opacity="0.2" d="M196.636 389.951C157.596 389.379 110.576 387.11 82.998 346.551C64.3752 319.163 43.9734 286.084 60.3268 248.64C63.2669 241.909 67.1355 235.85 69.4418 228.706C78.4214 200.89 61.2433 171.282 57.292 141.522C53.5831 113.59 62.881 83.378 80.3332 66.6535C89.0637 58.2868 99.4408 53.2485 110.017 50.3027C124.526 46.2618 139.642 46.0158 154.222 49.5836C185.958 57.3493 216.371 82.9359 248.114 75.2279C268.985 70.1602 286.139 51.4487 304.933 38.5087C347.663 9.08756 401.922 10.7602 443.552 42.7819C462.305 57.207 478.565 77.2494 498.499 88.6278C522.912 102.561 550.418 102.229 576.958 104.978C598.869 107.248 623.018 113.563 635.994 136.835C641.997 147.599 644.847 160.911 645.936 174.171C649.87 222.088 631.429 270.082 603.715 301.718C576.001 333.354 540.095 350.328 503.945 358.909C467.795 367.489 430.881 368.317 394.226 371.537C328.315 377.327 262.691 390.919 196.636 389.951Z" fill="url(#paint1_linear_183_19826)"/>
<path opacity="0.2" d="M602.208 287.883H504.037C501.939 287.883 500.238 286.182 500.238 284.084C500.238 281.986 501.939 280.285 504.037 280.285H602.208C604.306 280.285 606.007 281.986 606.007 284.084C606.007 286.182 604.306 287.883 602.208 287.883Z" fill="white"/>
<path opacity="0.53" d="M614.004 302.764H515.833C513.735 302.764 512.034 301.063 512.034 298.965C512.034 296.867 513.735 295.166 515.833 295.166H614.004C616.102 295.166 617.803 296.867 617.803 298.965C617.803 301.063 616.102 302.764 614.004 302.764Z" fill="white"/>
<path opacity="0.53" d="M586.088 332.524H515.833C513.735 332.524 512.034 330.824 512.034 328.725C512.034 326.627 513.735 324.927 515.833 324.927H586.088C588.186 324.927 589.886 326.627 589.886 328.725C589.886 330.824 588.186 332.524 586.088 332.524Z" fill="white"/>
<path opacity="0.2" d="M625.014 317.644H526.842C524.744 317.644 523.043 315.943 523.043 313.845C523.043 311.747 524.744 310.046 526.842 310.046H625.014C627.112 310.046 628.812 311.747 628.812 313.845C628.812 315.943 627.112 317.644 625.014 317.644Z" fill="white"/>
<path opacity="0.2" d="M160.644 216.38H62.4723C60.3744 216.38 58.6738 214.679 58.6738 212.581C58.6738 210.483 60.3747 208.782 62.4723 208.782H160.644C162.742 208.782 164.442 210.483 164.442 212.581C164.442 214.679 162.742 216.38 160.644 216.38Z" fill="white"/>
<path opacity="0.53" d="M172.439 231.26H74.268C72.1701 231.26 70.4692 229.56 70.4692 227.462C70.4692 225.364 72.1701 223.663 74.268 223.663H172.439C174.537 223.663 176.238 225.364 176.238 227.462C176.238 229.56 174.537 231.26 172.439 231.26Z" fill="white"/>
<path opacity="0.53" d="M144.523 261.021H74.268C72.1701 261.021 70.4692 259.32 70.4692 257.222C70.4692 255.124 72.1701 253.423 74.268 253.423H144.523C146.621 253.423 148.321 255.124 148.321 257.222C148.321 259.32 146.621 261.021 144.523 261.021Z" fill="white"/>
<path opacity="0.2" d="M183.449 246.141H85.2778C83.1799 246.141 81.479 244.44 81.479 242.342C81.479 240.244 83.1799 238.543 85.2778 238.543H183.449C185.547 238.543 187.248 240.244 187.248 242.342C187.248 244.44 185.547 246.141 183.449 246.141Z" fill="white"/>
<path d="M242.455 362.537C228.197 364.758 210.804 348.571 205.71 331.484C200.468 313.899 211.753 307.11 212.699 283.061C213.774 255.743 199.742 251.017 191.922 213.796C190.157 205.399 179.947 156.801 195.542 148.443C209.961 140.715 248.435 166.317 254.047 197.216C258.048 219.249 242.395 227.756 247.134 253.421C251.292 275.94 264.718 276.839 268.945 298.574C274.09 325.035 261.177 359.622 242.455 362.537Z" fill="url(#paint2_linear_183_19826)"/>
<path d="M241.145 369.111C246.218 339.845 240.729 294.124 235.232 260.922C229.28 224.975 222.037 195.552 221.965 195.259L220.774 195.553C220.846 195.846 228.079 225.23 234.023 261.131C239.504 294.236 244.979 339.806 239.936 368.901L241.145 369.111Z" fill="url(#paint3_linear_183_19826)"/>
<path d="M243.312 379.019C259.101 370.791 264.506 342.54 255.531 333.358C249.466 327.154 240.769 333.68 232.379 327.248C221.666 319.037 229.547 303.573 221.124 283.517C213.957 266.449 196.765 250.298 186.718 253.612C176.202 257.081 170.663 282.819 179.644 298.308C185.485 308.381 194.425 308.876 196.365 318.245C198.615 329.115 187.742 334.073 187.683 344.612C187.577 363.544 222.423 389.903 243.312 379.019Z" fill="url(#paint4_linear_183_19826)"/>
<path d="M234.791 386.254C234.885 386.254 234.981 386.233 235.072 386.189C235.391 386.034 235.525 385.649 235.369 385.33C214.436 342.195 208.298 292.154 208.238 291.654C208.196 291.301 207.876 291.049 207.524 291.091C207.171 291.133 206.919 291.453 206.961 291.806C207.021 292.309 213.186 342.564 234.212 385.891C234.323 386.12 234.553 386.254 234.791 386.254Z" fill="url(#paint5_linear_183_19826)"/>
<path d="M191.844 304.613C191.91 304.613 191.977 304.591 192.033 304.548C192.167 304.444 192.191 304.251 192.086 304.117C185.479 295.636 178.156 282.894 180.792 270.354C182.362 262.886 186.781 258.992 186.825 258.953C186.954 258.842 186.968 258.648 186.857 258.52C186.745 258.391 186.551 258.377 186.423 258.488C186.235 258.651 181.803 262.559 180.19 270.228C178.709 277.276 179.486 288.943 191.601 304.494C191.662 304.572 191.752 304.613 191.844 304.613Z" fill="#F0F0F0"/>
<path d="M244.736 375.252C244.834 375.252 244.93 375.205 244.989 375.118C255.144 360.298 258.606 348.847 255.281 341.084C252.325 334.181 244.86 332.896 244.785 332.884C244.617 332.858 244.46 332.971 244.433 333.138C244.406 333.305 244.519 333.463 244.686 333.491C244.758 333.503 251.901 334.741 254.719 341.333C257.95 348.891 254.506 360.141 244.482 374.771C244.386 374.911 244.422 375.102 244.562 375.198C244.615 375.234 244.676 375.252 244.736 375.252Z" fill="#F0F0F0"/>
<path d="M427.322 362.307C440.569 364.37 456.727 349.332 461.46 333.457C466.33 317.121 455.846 310.814 454.967 288.472C453.968 263.092 467.005 258.702 474.27 224.123C475.909 216.322 485.394 171.174 470.906 163.409C457.511 156.229 421.767 180.014 416.554 208.72C412.837 229.189 427.379 237.092 422.977 260.935C419.114 281.856 406.641 282.691 402.714 302.884C397.933 327.466 409.929 359.598 427.322 362.307Z" fill="url(#paint6_linear_183_19826)"/>
<path d="M428.539 368.414C423.827 341.225 428.926 298.749 434.033 267.904C439.562 234.509 446.291 207.174 446.358 206.901L447.465 207.175C447.398 207.447 440.678 234.746 435.156 268.099C430.064 298.854 424.978 341.19 429.663 368.219L428.539 368.414Z" fill="url(#paint7_linear_183_19826)"/>
<path d="M428.604 378.417C412.815 370.19 407.41 341.938 416.385 332.757C422.45 326.553 431.147 333.078 439.537 326.647C450.25 318.436 442.37 302.972 450.792 282.916C457.959 265.848 475.151 249.697 485.198 253.011C495.715 256.48 501.254 282.217 492.272 297.707C486.431 307.78 477.491 308.275 475.551 317.643C473.301 328.514 484.174 333.472 484.233 344.011C484.34 362.942 449.493 389.301 428.604 378.417Z" fill="url(#paint8_linear_183_19826)"/>
<path d="M437.125 385.652C437.031 385.652 436.935 385.632 436.844 385.588C436.525 385.433 436.392 385.048 436.547 384.728C457.48 341.593 463.618 291.553 463.678 291.052C463.72 290.7 464.04 290.448 464.392 290.49C464.745 290.532 464.997 290.852 464.955 291.204C464.895 291.707 458.73 341.962 437.704 385.29C437.593 385.519 437.363 385.652 437.125 385.652Z" fill="url(#paint9_linear_183_19826)"/>
<path d="M480.072 304.012C480.006 304.012 479.94 303.99 479.884 303.947C479.75 303.843 479.726 303.65 479.83 303.516C486.437 295.034 493.761 282.292 491.125 269.753C489.555 262.285 485.136 258.391 485.091 258.352C484.963 258.241 484.949 258.047 485.06 257.919C485.171 257.79 485.365 257.776 485.493 257.887C485.681 258.05 490.114 261.958 491.726 269.627C493.208 276.675 492.431 288.342 480.315 303.894C480.254 303.971 480.164 304.012 480.072 304.012Z" fill="#F0F0F0"/>
<path d="M427.181 374.65C427.083 374.65 426.987 374.604 426.927 374.517C416.773 359.697 413.31 348.246 416.635 340.482C419.591 333.58 427.056 332.295 427.131 332.283C427.299 332.257 427.456 332.37 427.484 332.537C427.511 332.704 427.397 332.863 427.23 332.89C427.158 332.901 420.016 334.139 417.197 340.732C413.966 348.29 417.41 359.54 427.434 374.169C427.53 374.309 427.494 374.501 427.354 374.597C427.301 374.633 427.241 374.65 427.181 374.65Z" fill="#F0F0F0"/>
<path d="M570.831 168.091C581.296 168.091 589.78 159.608 589.78 149.142C589.78 138.677 581.296 130.193 570.831 130.193C560.365 130.193 551.881 138.677 551.881 149.142C551.881 159.608 560.365 168.091 570.831 168.091Z" fill="url(#paint10_linear_183_19826)"/>
<path d="M566.12 142.874C566.12 142.385 565.724 141.99 565.236 141.99H562.14C561.652 141.99 561.256 142.385 561.256 142.874V156.996C561.256 157.484 561.652 157.88 562.14 157.88H565.236C565.724 157.88 566.12 157.484 566.12 156.996V142.874Z" fill="white"/>
<path d="M577.099 141.99H573.903V138.188C573.903 136.961 573.256 136.152 572.03 136.152H571.951C570.725 136.152 569.731 137.054 569.731 138.28L568.672 142.065C568.184 142.065 567.417 142.415 567.417 142.903V157.409C567.417 157.897 568.554 158.528 569.043 158.528H569.731H577.1C578.934 158.528 580.39 156.806 580.39 154.971V145.34C580.39 143.506 578.934 141.99 577.099 141.99Z" fill="white"/>
<path d="M438.466 82.8859C438.418 134.048 438.027 310.521 434.965 372.992C434.641 379.611 429.985 384.826 424.32 384.917C396.299 385.369 293.604 385.813 247.861 382.552C238.333 381.873 230.948 372.666 230.997 361.497C231.234 307.799 232.477 156.783 238.998 87.7335C239.78 79.4603 245.485 72.9847 252.577 72.3136C283.145 69.4205 386.415 62.98 425.911 66.8597C433.034 67.559 438.474 74.5198 438.466 82.8859Z" fill="url(#paint11_linear_183_19826)"/>
<path d="M425.627 98.2987C426.22 139.608 427.933 277.029 425.3 327.772C424.916 335.189 419.783 341.079 413.436 341.373C387.305 342.581 298.199 344.549 260.008 340.117C253.132 339.319 247.868 332.679 247.675 324.595C246.668 282.442 243.931 154.458 246.488 104.283C246.896 96.2784 252.344 89.855 259.183 89.2893C287.476 86.9496 382.225 81.9892 414.699 84.7849C420.796 85.31 425.525 91.1469 425.627 98.2987Z" fill="url(#paint12_linear_183_19826)"/>
<g opacity="0.3">
<path d="M414.021 104.965C414.546 141.546 416.063 263.238 413.732 308.173C413.391 314.741 408.846 319.957 403.225 320.217C380.085 321.288 301.178 323.03 267.358 319.105C261.268 318.398 256.607 312.519 256.436 305.36C255.545 268.032 253.12 154.697 255.385 110.264C255.747 103.176 260.571 97.4876 266.627 96.9865C291.682 94.9144 375.586 90.5219 404.344 92.9976C409.742 93.4623 413.93 98.6314 414.021 104.965Z" fill="white"/>
</g>
<path d="M369.426 74.5488C369.391 76.1179 368.317 77.389 366.976 77.4413C360.354 77.7 341.7 78.4339 333.363 78.8143C331.719 78.8895 330.469 77.1351 330.822 75.2532L330.882 74.9319C331.123 73.6479 332.059 72.6984 333.178 72.603C338.819 72.1245 355.836 70.8276 367.076 71.5464C368.427 71.6333 369.461 72.9667 369.426 74.5488Z" fill="url(#paint13_linear_183_19826)"/>
<path d="M410.131 123.443C410.131 118.467 406.097 114.433 401.121 114.433H269.64C264.663 114.433 260.629 118.467 260.629 123.443V191.686C260.629 196.663 264.663 200.697 269.64 200.697H401.121C406.097 200.697 410.131 196.663 410.131 191.686V123.443Z" fill="url(#paint14_linear_183_19826)"/>
<g opacity="0.9">
<path d="M334.688 184.154C319.478 184.154 307.105 171.78 307.105 156.571C307.105 141.362 319.479 128.989 334.688 128.989C349.897 128.989 362.27 141.362 362.27 156.571C362.27 171.78 349.897 184.154 334.688 184.154ZM334.688 133.611C322.027 133.611 311.727 143.911 311.727 156.571C311.727 169.232 322.027 179.532 334.688 179.532C347.348 179.532 357.648 169.232 357.648 156.571C357.648 143.911 347.348 133.611 334.688 133.611Z" fill="white"/>
<path fill-rule="evenodd" clip-rule="evenodd" d="M326.047 167.194V147.364C326.047 145.245 328.353 143.932 330.176 145.013L346.885 154.928C348.67 155.987 348.67 158.571 346.885 159.63L330.176 169.545C328.354 170.626 326.047 169.313 326.047 167.194Z" fill="white"/>
</g>
<g opacity="0.7">
<path d="M409.807 213.586C409.807 215.423 408.277 216.903 406.262 216.903H265.899C263.884 216.903 262.25 215.423 262.25 213.586V213.427C262.25 211.59 263.884 210.093 265.899 210.093H406.262C408.277 210.093 409.807 211.59 409.807 213.427V213.586Z" fill="url(#paint15_linear_183_19826)"/>
<path d="M409.807 234.99C409.807 236.827 408.277 238.307 406.262 238.307H265.899C263.884 238.307 262.25 236.827 262.25 234.99V234.831C262.25 232.994 263.884 231.497 265.899 231.497H406.262C408.277 231.497 409.807 232.994 409.807 234.831V234.99Z" fill="url(#paint16_linear_183_19826)"/>
<path d="M409.807 256.394C409.807 258.23 408.277 259.71 406.262 259.71H265.899C263.884 259.71 262.25 258.23 262.25 256.394V256.234C262.25 254.398 263.884 252.9 265.899 252.9H406.262C408.277 252.9 409.807 254.398 409.807 256.234V256.394Z" fill="url(#paint17_linear_183_19826)"/>
<path d="M409.807 277.798C409.807 279.634 408.277 281.114 406.262 281.114H265.899C263.884 281.114 262.25 279.634 262.25 277.798V277.638C262.25 275.802 263.884 274.304 265.899 274.304H406.262C408.277 274.304 409.807 275.802 409.807 277.638V277.798Z" fill="url(#paint18_linear_183_19826)"/>
<path d="M409.807 299.202C409.807 301.038 408.277 302.518 406.262 302.518H265.899C263.884 302.518 262.25 301.038 262.25 299.202V299.042C262.25 297.205 263.884 295.708 265.899 295.708H406.262C408.277 295.708 409.807 297.205 409.807 299.042V299.202Z" fill="url(#paint19_linear_183_19826)"/>
<path d="M409.807 320.606C409.807 322.442 408.277 323.922 406.262 323.922H265.899C263.884 323.922 262.25 322.442 262.25 320.606V320.446C262.25 318.609 263.884 317.112 265.899 317.112H406.262C408.277 317.112 409.807 318.609 409.807 320.446V320.606Z" fill="url(#paint20_linear_183_19826)"/>
</g>
<path opacity="0.7" d="M342.353 100.195C342.353 101.964 340.919 103.398 339.15 103.398H265.453C263.684 103.398 262.25 101.964 262.25 100.195V100.115C262.25 98.3457 263.684 96.9119 265.453 96.9119H339.15C340.919 96.9119 342.353 98.3457 342.353 100.115V100.195Z" fill="url(#paint21_linear_183_19826)"/>
<path d="M266.791 377.107H256.011C251.436 377.107 247.107 375.343 243.821 372.14C240.539 368.94 238.66 364.657 238.529 360.079L237.334 318.243C237.324 317.885 237.606 317.586 237.964 317.576C238.327 317.565 238.62 317.848 238.63 318.206L239.825 360.042C239.947 364.281 241.687 368.248 244.727 371.211C247.769 374.177 251.776 375.81 256.011 375.81H266.791C267.149 375.81 267.439 376.1 267.439 376.458C267.439 376.817 267.149 377.107 266.791 377.107Z" fill="white"/>
<path d="M508.682 97.8522C521.413 97.8522 531.733 87.5318 531.733 74.8011C531.733 62.0703 521.413 51.75 508.682 51.75C495.951 51.75 485.631 62.0703 485.631 74.8011C485.631 87.5318 495.951 97.8522 508.682 97.8522Z" fill="url(#paint22_linear_183_19826)"/>
<path d="M524.436 72.477L511.558 60.8599C511.413 60.7284 511.333 60.695 511.154 60.7747C510.974 60.8545 510.989 61.0325 510.989 61.2286V66.2883C496.719 67.2552 493.825 79.2074 493.334 82.5996C493.315 82.7304 493.317 82.8588 493.434 82.9193C493.552 82.9797 493.792 82.959 493.888 82.8679C500.651 76.4009 509.692 77.508 510.989 77.6789V84.1798C510.989 84.5224 511.06 84.8328 511.373 84.9721C511.686 85.1113 511.987 85.053 512.241 84.8238L524.468 73.7643C524.65 73.5998 524.738 73.3661 524.738 73.1206C524.738 72.8752 524.618 72.6415 524.436 72.477Z" fill="white"/>
<path d="M465.1 134.859C473.591 134.859 480.473 127.976 480.473 119.486C480.473 110.996 473.591 104.113 465.1 104.113C456.61 104.113 449.727 110.996 449.727 119.486C449.727 127.976 456.61 134.859 465.1 134.859Z" fill="url(#paint23_linear_183_19826)"/>
<path d="M471.692 115.205C470.024 113.566 467.423 114.059 465.632 115.562C465.375 115.778 465.003 115.78 464.743 115.569C462.928 114.097 460.329 113.649 458.69 115.317C456.91 117.128 456.935 120.039 458.746 121.819L464.805 127.774C465.08 128.045 465.522 128.041 465.793 127.766L471.749 121.707C473.528 119.896 473.503 116.985 471.692 115.205Z" fill="white"/>
<path d="M605.195 105.996C611.535 105.996 616.674 100.857 616.674 94.5174C616.674 88.1777 611.535 83.0383 605.195 83.0383C598.855 83.0383 593.716 88.1777 593.716 94.5174C593.716 100.857 598.855 105.996 605.195 105.996Z" fill="url(#paint24_linear_183_19826)"/>
<path d="M610.118 91.3212C608.872 90.097 606.929 90.4652 605.592 91.5879C605.401 91.7489 605.123 91.7507 604.928 91.5931C603.573 90.494 601.633 90.1593 600.409 91.4048C599.079 92.7571 599.098 94.9305 600.45 96.2593L604.975 100.706C605.18 100.908 605.511 100.905 605.713 100.7L610.16 96.1757C611.489 94.8234 611.47 92.65 610.118 91.3212Z" fill="white"/>
<path d="M201.807 122.689C214.08 122.689 224.029 112.74 224.029 100.467C224.029 88.1947 214.08 78.2456 201.807 78.2456C189.534 78.2456 179.585 88.1947 179.585 100.467C179.585 112.74 189.534 122.689 201.807 122.689Z" fill="url(#paint25_linear_183_19826)"/>
<path d="M196.418 93.0842C196.418 92.5115 195.954 92.0471 195.381 92.0471H191.618C191.045 92.0471 190.581 92.5115 190.581 93.0842V109.495C190.581 110.068 191.045 110.532 191.618 110.532H195.381C195.954 110.532 196.418 110.068 196.418 109.495V93.0842Z" fill="white"/>
<path d="M209.158 92.0472H205.498V87.6216C205.498 86.1836 204.651 85.2371 203.213 85.2371H203.121C201.682 85.2371 200.516 86.2934 200.516 87.7314L199.231 92.169C198.658 92.169 197.715 92.5784 197.715 93.1513V110.163C197.715 110.735 199.137 111.506 199.71 111.506H200.516H209.158C211.309 111.506 212.957 109.455 212.957 107.304V96.0099C212.957 93.8582 211.309 92.0472 209.158 92.0472Z" fill="white"/>
<path d="M73.0695 172.308C81.0494 172.308 87.5184 165.839 87.5184 157.859C87.5184 149.879 81.0494 143.41 73.0695 143.41C65.0896 143.41 58.6206 149.879 58.6206 157.859C58.6206 165.839 65.0896 172.308 73.0695 172.308Z" fill="url(#paint26_linear_183_19826)"/>
<path d="M69.6168 153.042C69.6168 152.669 69.3148 152.367 68.9425 152.367H66.3994C66.0271 152.367 65.7251 152.669 65.7251 153.042V163.692C65.7251 164.064 66.0271 164.366 66.3994 164.366H68.9425C69.3148 164.366 69.6168 164.064 69.6168 163.692V153.042Z" fill="white"/>
<path d="M77.8492 152.367H75.4538V149.506C75.4538 148.571 74.9187 147.827 73.9836 147.827H73.9238C72.9887 147.827 72.2304 148.578 72.2304 149.513L71.3227 152.431C70.9503 152.431 70.2651 152.729 70.2651 153.102V164.162C70.2651 164.535 71.3338 165.015 71.7062 165.015H72.2307H77.8495C79.2484 165.015 80.3185 163.703 80.3185 162.304V154.96C80.3185 153.561 79.2481 152.367 77.8492 152.367Z" fill="white"/>
<path d="M106.32 115.689C117.313 115.689 126.224 106.778 126.224 95.7856C126.224 84.7932 117.313 75.8821 106.32 75.8821C95.3281 75.8821 86.417 84.7932 86.417 95.7856C86.417 106.778 95.3281 115.689 106.32 115.689Z" fill="url(#paint27_linear_183_19826)"/>
<path d="M119.923 93.7789L108.804 83.7483C108.678 83.6349 108.557 83.6061 108.402 83.6749C108.248 83.7438 108.208 83.8975 108.208 84.0668V88.4356C95.8848 89.2705 93.4404 99.5904 93.0166 102.52C93.0003 102.632 93.0274 102.743 93.1291 102.796C93.2304 102.848 93.3989 102.83 93.4816 102.751C99.3211 97.1674 107.235 98.1236 108.208 98.2709V103.884C108.208 104.18 108.322 104.448 108.592 104.568C108.862 104.688 109.148 104.638 109.368 104.44L119.938 94.8908C120.095 94.7489 120.178 94.547 120.178 94.335C120.178 94.123 120.081 93.9208 119.923 93.7789Z" fill="white"/>
<path d="M166.979 157.56C174.166 157.56 179.993 151.734 179.993 144.546C179.993 137.359 174.166 131.532 166.979 131.532C159.791 131.532 153.965 137.359 153.965 144.546C153.965 151.734 159.791 157.56 166.979 157.56Z" fill="url(#paint28_linear_183_19826)"/>
<path d="M172.559 140.922C171.147 139.534 168.945 139.952 167.429 141.225C167.211 141.408 166.896 141.41 166.676 141.231C165.14 139.985 162.94 139.605 161.552 141.017C160.046 142.55 160.067 145.014 161.6 146.521L166.729 151.562C166.962 151.791 167.336 151.788 167.566 151.555L172.607 146.426C174.113 144.893 174.092 142.429 172.559 140.922Z" fill="white"/>
<path d="M314.408 41.175C314.408 41.175 314.5 41.0207 314.678 40.7428C314.78 40.5849 314.989 40.5392 315.147 40.6402C315.217 40.685 315.264 40.7506 315.288 40.8231C315.433 40.7837 315.599 40.7404 315.781 40.6962C315.963 40.652 316.146 40.7642 316.191 40.9461C316.235 41.1284 316.123 41.3119 315.941 41.3561C315.427 41.4806 315.065 41.5925 314.891 41.646C314.84 41.6614 314.806 41.6719 314.788 41.6767L313.979 41.8948L314.408 41.175ZM315.639 39.3222C315.964 38.8636 316.305 38.3998 316.654 37.9438C316.768 37.7952 316.981 37.7666 317.13 37.8806C317.278 37.9949 317.308 38.2076 317.193 38.3567C316.85 38.8058 316.513 39.2627 316.193 39.7144C316.085 39.8675 315.873 39.9036 315.72 39.7954C315.694 39.7764 315.67 39.7548 315.651 39.7301C315.559 39.6152 315.55 39.4486 315.639 39.3222ZM317.193 40.75C317.166 40.5647 317.295 40.3921 317.48 40.365C318.066 40.2793 318.646 40.2234 319.205 40.1993C319.393 40.1909 319.551 40.3361 319.559 40.5235C319.567 40.7109 319.422 40.8694 319.235 40.8772C318.698 40.9004 318.141 40.9539 317.578 41.0367C317.454 41.0547 317.337 41.0036 317.264 40.9124C317.228 40.8673 317.202 40.8117 317.193 40.75ZM320.579 40.5398C320.594 40.353 320.758 40.2137 320.945 40.2291C321.546 40.2781 322.127 40.3698 322.672 40.5013C322.854 40.5449 322.967 40.7284 322.923 40.9109C322.879 41.0932 322.695 41.2051 322.513 41.1612C322.002 41.0379 321.456 40.9518 320.889 40.9058C320.793 40.8977 320.708 40.8499 320.652 40.7795C320.6 40.7142 320.571 40.6297 320.579 40.5398ZM317.718 36.6044C318.083 36.1611 318.457 35.7235 318.829 35.3042C318.954 35.164 319.168 35.1511 319.309 35.2756C319.45 35.4013 319.462 35.6146 319.337 35.7547C318.97 36.168 318.602 36.599 318.242 37.0357C318.122 37.1807 317.909 37.2012 317.764 37.0821C317.745 37.0667 317.729 37.0499 317.715 37.0318C317.616 36.9091 317.614 36.7305 317.718 36.6044ZM323.887 41.2382C323.965 41.0676 324.166 40.9921 324.337 41.07C324.724 41.246 325.095 41.4505 325.44 41.6779C325.577 41.7678 325.711 41.8524 325.842 41.9324C326.002 42.0298 326.053 42.2385 325.956 42.3989C325.859 42.5592 325.65 42.6103 325.49 42.5132C325.351 42.4289 325.21 42.3396 325.067 42.2452C324.751 42.037 324.41 41.85 324.056 41.6881C324.005 41.6653 323.963 41.6319 323.931 41.5916C323.854 41.4941 323.833 41.3585 323.887 41.2382ZM328.51 46.0449C328.607 45.9471 328.749 45.9209 328.87 45.9666C329.166 45.8761 329.497 45.8554 329.889 45.8981C330.075 45.9185 330.21 46.0858 330.19 46.2719C330.17 46.4584 330.002 46.5929 329.816 46.5727C329.341 46.521 329.014 46.5847 328.723 46.7851L328.29 46.265L328.51 46.0449ZM326.861 42.8624C326.931 42.6885 327.129 42.6037 327.303 42.6732C327.841 42.8888 328.362 43.0272 328.85 43.0843C329.036 43.1063 329.17 43.2753 329.148 43.4609C329.126 43.6474 328.957 43.7803 328.771 43.7587C328.224 43.6943 327.645 43.5412 327.051 43.3036C326.994 43.281 326.947 43.2449 326.912 43.2007C326.838 43.1081 326.814 42.98 326.861 42.8624ZM319.99 34.0457C320.386 33.6322 320.794 33.2249 321.2 32.8351C321.336 32.7055 321.55 32.7097 321.68 32.8451C321.811 32.9807 321.805 33.1955 321.67 33.3251C321.271 33.7086 320.87 34.1089 320.48 34.5159C320.35 34.6512 320.135 34.6557 320 34.5258C319.989 34.515 319.979 34.5041 319.97 34.4924C319.865 34.3616 319.871 34.17 319.99 34.0457ZM329.698 44.8321C330.153 44.3605 330.543 43.9466 330.86 43.6011C330.986 43.4627 331.201 43.4528 331.339 43.5794C331.474 43.7069 331.487 43.9205 331.361 44.0588C331.041 44.4089 330.645 44.8276 330.186 45.3034C330.056 45.4385 329.841 45.4421 329.706 45.3119C329.696 45.3013 329.686 45.2905 329.677 45.2791C329.572 45.1482 329.578 44.9563 329.698 44.8321ZM331.18 46.5089C331.224 46.3267 331.407 46.2145 331.59 46.2584C332.073 46.3745 332.606 46.4954 333.225 46.5917C333.41 46.6205 333.536 46.7944 333.508 46.9794C333.479 47.1646 333.305 47.2916 333.12 47.2627C332.477 47.1628 331.929 47.0383 331.431 46.9186C331.355 46.9003 331.291 46.8575 331.245 46.8007C331.182 46.7216 331.155 46.6151 331.18 46.5089ZM330.164 43.3959C330.114 43.2155 330.218 43.0281 330.399 42.9773C330.923 42.829 331.3 42.5923 331.55 42.4353C331.655 42.3691 331.741 42.3165 331.808 42.284C331.844 42.2665 331.876 42.2536 331.904 42.244C332.081 42.1835 332.264 42.2825 332.325 42.4602C332.385 42.6374 332.281 42.835 332.103 42.8954C332.053 42.9198 331.99 42.9607 331.911 43.0103C331.646 43.177 331.202 43.4561 330.583 43.6305C330.448 43.6687 330.309 43.6191 330.226 43.5156C330.198 43.4814 330.177 43.441 330.164 43.3959ZM322.464 31.6771C322.849 31.3403 323.241 31.0118 323.629 30.7014L323.781 30.5802C323.928 30.4641 324.141 30.4885 324.258 30.6347L324.258 30.6359C324.375 30.7829 324.35 30.9965 324.203 31.1126L324.053 31.2317C323.673 31.5358 323.288 31.8579 322.91 32.1882C322.769 32.3118 322.555 32.2973 322.431 32.1563C322.428 32.1524 322.425 32.1485 322.421 32.1445C322.309 32.0035 322.326 31.7971 322.464 31.6771ZM334.52 47.0801C334.528 46.893 334.687 46.7478 334.874 46.7559C335.413 46.7794 335.971 46.7745 336.534 46.7411C336.721 46.73 336.882 46.8723 336.893 47.06C336.905 47.2471 336.762 47.4077 336.574 47.4188C335.988 47.4537 335.406 47.4588 334.844 47.4341C334.742 47.4296 334.653 47.3809 334.594 47.3069C334.545 47.2453 334.516 47.1658 334.52 47.0801ZM337.905 46.9532C337.878 46.7679 338.005 46.595 338.191 46.5673C338.308 46.5499 338.427 46.5315 338.547 46.5114C338.975 46.4407 339.399 46.3459 339.808 46.2289C339.988 46.1778 340.177 46.2822 340.227 46.4623C340.279 46.6425 340.174 46.8305 339.994 46.8819C339.56 47.0055 339.111 47.1063 338.658 47.1812C338.534 47.2016 338.412 47.2209 338.291 47.2389C338.167 47.2573 338.049 47.2061 337.976 47.1147C337.939 47.0699 337.914 47.0145 337.905 46.9532ZM325.074 30.0265C324.966 29.8731 325.003 29.6613 325.157 29.5537C325.632 29.2195 326.114 28.9016 326.591 28.6083C326.751 28.51 326.965 28.5593 327.058 28.7196C327.156 28.8793 327.107 29.0884 326.947 29.1864C326.482 29.4725 326.011 29.7826 325.547 30.1089C325.4 30.2127 325.198 30.1826 325.087 30.0436C325.083 30.0382 325.078 30.0325 325.074 30.0265ZM341.183 46.1101C341.105 45.9399 341.18 45.7384 341.351 45.6602C341.846 45.4334 342.331 45.1657 342.79 44.8643C342.946 44.7618 343.161 44.8024 343.26 44.9621C343.362 45.1188 343.319 45.329 343.162 45.4322C342.674 45.7522 342.16 46.0364 341.633 46.278C341.489 46.3441 341.322 46.3002 341.227 46.1814C341.21 46.1601 341.195 46.1363 341.183 46.1101ZM327.944 28.2158C327.857 28.0495 327.921 27.8444 328.087 27.7577C328.603 27.4886 329.126 27.2398 329.644 27.0181C329.816 26.9444 330.015 27.0245 330.09 27.1968C330.163 27.3691 330.083 27.5689 329.911 27.6425C329.41 27.8567 328.902 28.0982 328.402 28.3593C328.255 28.4357 328.079 28.3948 327.98 28.2706C327.966 28.254 327.954 28.2357 327.944 28.2158ZM344.096 43.8624C344.502 43.5009 344.89 43.1045 345.249 42.6837C345.371 42.5411 345.585 42.524 345.728 42.6455C345.871 42.7679 345.887 42.9812 345.766 43.124C345.387 43.5689 344.977 43.9882 344.547 44.3701C344.407 44.4947 344.192 44.482 344.068 44.3419C344.064 44.3374 344.06 44.3328 344.056 44.328C343.944 44.1879 343.96 43.9827 344.096 43.8624ZM331.042 26.8368C330.983 26.6587 331.08 26.4668 331.258 26.4085C331.81 26.2271 332.37 26.0719 332.923 25.9468C333.106 25.905 333.288 26.0208 333.329 26.203C333.37 26.3859 333.256 26.5676 333.073 26.6088C332.541 26.7291 332.002 26.8789 331.47 27.0536C331.331 27.0991 331.185 27.0506 331.099 26.9432C331.074 26.9123 331.055 26.8765 331.042 26.8368ZM346.231 41.3576C346.676 40.6586 346.902 40.1334 346.943 39.9981L347.051 39.2549C347.078 39.0693 347.25 38.9409 347.436 38.9679C347.621 38.9947 347.749 39.167 347.723 39.3529L347.617 40.079L347.611 40.0781C347.539 40.5641 346.811 41.7101 346.803 41.723C346.703 41.8812 346.493 41.9275 346.335 41.8271C346.302 41.8063 346.275 41.7811 346.252 41.7528C346.164 41.6418 346.151 41.4833 346.231 41.3576ZM334.332 26.0286C334.309 25.8424 334.442 25.6734 334.629 25.6511C335.204 25.5822 335.785 25.5437 336.357 25.5371C336.544 25.5353 336.698 25.686 336.7 25.8728C336.702 26.0602 336.552 26.2139 336.364 26.2163C335.818 26.2223 335.261 26.2587 334.709 26.3255C334.589 26.3399 334.475 26.2888 334.404 26.2C334.366 26.1522 334.34 26.0936 334.332 26.0286ZM337.716 25.9167C337.735 25.7302 337.901 25.5937 338.088 25.6126C338.657 25.6689 339.233 25.7582 339.799 25.8773C339.983 25.9158 340.1 26.0963 340.062 26.2794C340.023 26.4629 339.843 26.5805 339.659 26.5417C339.117 26.4274 338.566 26.342 338.021 26.2879C337.926 26.2785 337.844 26.231 337.789 26.1621C337.736 26.0954 337.708 26.0084 337.716 25.9167ZM347.294 37.575L347.538 35.8952C347.565 35.7096 347.737 35.5812 347.923 35.608C348.108 35.6347 348.237 35.8071 348.21 35.9927L347.967 37.6725C347.94 37.8581 347.768 37.9865 347.582 37.9597C347.493 37.9468 347.418 37.9008 347.365 37.8358C347.309 37.7651 347.28 37.6719 347.294 37.575ZM341.044 26.542C341.101 26.3637 341.293 26.2656 341.471 26.3231C342.007 26.4957 342.551 26.7011 343.087 26.933C343.26 27.0073 343.339 27.207 343.264 27.3794C343.19 27.5514 342.99 27.6305 342.818 27.5562C342.302 27.3331 341.778 27.1354 341.263 26.9694C341.197 26.9481 341.142 26.9087 341.102 26.8584C341.033 26.7724 341.007 26.6548 341.044 26.542ZM347.782 34.2157L348.026 32.5359C348.053 32.3506 348.225 32.2218 348.411 32.2486C348.596 32.2754 348.724 32.4477 348.698 32.6333L348.454 34.3131C348.427 34.4987 348.255 34.6271 348.069 34.6004C347.98 34.5874 347.905 34.5414 347.853 34.4765C347.796 34.4055 347.768 34.3122 347.782 34.2157ZM344.178 27.8251C344.267 27.6603 344.474 27.5992 344.638 27.6886C345.13 27.9554 345.628 28.2513 346.118 28.5689C346.275 28.6715 346.32 28.8811 346.218 29.0384C346.116 29.1958 345.906 29.2406 345.749 29.1386C345.274 28.8309 344.791 28.5437 344.315 28.2853C344.274 28.263 344.239 28.2336 344.212 28.1993C344.129 28.0958 344.111 27.949 344.178 27.8251ZM347.05 29.6232C347.162 29.4734 347.375 29.4433 347.525 29.5564C347.96 29.8845 348.4 30.2373 348.832 30.6055L348.974 30.7273L348.941 30.9538C348.914 31.1394 348.742 31.2678 348.556 31.2407C348.435 31.2233 348.339 31.1445 348.294 31.0395C347.904 30.7098 347.509 30.3937 347.116 30.0987C347.093 30.0812 347.073 30.0614 347.056 30.0394C346.961 29.9209 346.955 29.7495 347.05 29.6232Z" fill="#CE41A4"/>
<path d="M347.409 36.2639C347.409 36.2639 343.937 42.9366 338.764 40.9166C333.591 38.8966 328.873 35.5746 326.474 36.6119C326.474 36.6119 335.616 25.0905 347.499 33.612L347.409 36.2639Z" fill="url(#paint29_linear_183_19826)"/>
<path d="M361.043 44.3263C361.043 44.3263 360.145 51.6561 357.813 52.5666C355.596 53.4325 338.943 51.9346 337.324 51.7864C337.251 51.7798 337.198 51.7184 337.199 51.6453C337.207 51.0404 337.501 50.4768 337.994 50.1264C340.376 48.4333 347.53 43.4387 350.178 42.6224C353.375 41.6361 361.043 44.3263 361.043 44.3263Z" fill="url(#paint30_linear_183_19826)"/>
<path d="M343.31 51.3212C343.339 51.3566 343.381 51.3807 343.431 51.3843C343.523 51.3909 352.657 52.0535 356.599 52.1859C357.301 52.2096 357.952 51.8168 358.256 51.1861C358.737 50.1911 359.616 48.2138 360.108 46.152C360.13 46.0612 360.074 45.9695 359.983 45.9475C359.891 45.9259 359.8 45.9821 359.778 46.0732C359.294 48.1041 358.425 50.0558 357.951 51.0384C357.705 51.5485 357.179 51.8659 356.611 51.8466C352.675 51.7149 343.547 51.0529 343.456 51.0459C343.362 51.039 343.281 51.1094 343.274 51.2029C343.271 51.2475 343.285 51.289 343.31 51.3212Z" fill="white"/>
<path d="M361.265 27.1715C361.265 27.1715 360.557 19.8209 358.25 18.8503C356.055 17.9272 339.37 18.9938 337.747 19.0999C337.673 19.1047 337.619 19.1646 337.618 19.238C337.61 19.8428 337.89 20.4137 338.374 20.7771C340.711 22.5315 347.734 27.7093 350.359 28.5939C353.53 29.6622 361.265 27.1715 361.265 27.1715Z" fill="url(#paint31_linear_183_19826)"/>
<path d="M343.717 19.9352C343.749 19.9761 343.8 20.0014 343.857 19.999C343.949 19.9948 353.091 19.5689 357.029 19.5391C357.598 19.5349 358.115 19.8657 358.348 20.3816C358.797 21.3762 359.614 23.3505 360.046 25.3925C360.064 25.4845 360.155 25.5429 360.247 25.5236C360.338 25.5044 360.397 25.4144 360.378 25.3224C359.961 23.3529 359.213 21.4728 358.657 20.242C358.369 19.6035 357.729 19.1944 357.027 19.1995C353.082 19.2293 343.933 19.6558 343.841 19.6597C343.748 19.6642 343.675 19.7436 343.68 19.8372C343.681 19.8741 343.695 19.9081 343.717 19.9352Z" fill="white"/>
<path d="M385.845 44.5519C382.418 45.6212 378.464 46.3391 374.064 46.2952C360.406 46.1581 350.39 43.6947 347.562 42.9184C347.05 42.7779 346.662 42.3656 346.54 41.8491C345.577 37.7797 345.6 33.7192 346.602 29.6669C346.791 28.9047 347.396 28.3134 348.16 28.1314C351.475 27.3419 361.264 25.3333 374.333 25.5405C378.698 25.6097 382.606 26.4176 385.987 27.5614C387.792 34.355 386.685 40.8876 385.845 44.5519Z" fill="url(#paint32_linear_183_19826)"/>
<path d="M385.987 27.5613C393.456 30.0878 398.352 34.2541 399.922 35.724C400.229 36.0112 400.223 36.4976 399.909 36.7767C398.307 38.2006 393.333 42.2156 385.845 44.5518C386.685 40.8874 387.792 34.3549 385.987 27.5613Z" fill="url(#paint33_linear_183_19826)"/>
<path d="M375.186 29.0672C371.648 29.0214 368.74 32.0623 368.691 35.8593C368.642 39.6562 371.47 42.7714 375.008 42.8171C378.545 42.8628 381.453 39.822 381.502 36.025C381.552 32.228 378.723 29.1129 375.186 29.0672Z" fill="url(#paint34_linear_183_19826)"/>
<path d="M375.349 30.2738C372.531 30.2374 370.214 32.6605 370.174 35.686C370.135 38.7115 372.389 41.1938 375.207 41.2302C378.026 41.2666 380.343 38.8435 380.382 35.8183C380.422 32.7925 378.168 30.3105 375.349 30.2738Z" fill="url(#paint35_linear_183_19826)"/>
<path d="M376.178 39.6008C376.219 39.6528 376.29 39.6775 376.358 39.6577C378.099 39.1493 379.331 37.4746 379.356 35.5846C379.362 35.1084 379.294 34.6398 379.153 34.1917C379.125 34.102 379.03 34.0524 378.94 34.0807C378.851 34.1087 378.801 34.204 378.829 34.2933C378.959 34.7072 379.022 35.1406 379.016 35.5804C378.994 37.3224 377.861 38.8651 376.263 39.3319C376.173 39.3584 376.121 39.4525 376.148 39.5425C376.154 39.5644 376.164 39.584 376.178 39.6008Z" fill="white"/>
<path d="M362.282 31.2335C359.945 31.2031 358.024 33.212 357.992 35.7205C357.959 38.2289 359.828 40.2868 362.165 40.3172C364.502 40.3476 366.423 38.3384 366.455 35.8302C366.488 33.3218 364.619 31.2639 362.282 31.2335Z" fill="url(#paint36_linear_183_19826)"/>
<path d="M362.39 32.0308C360.528 32.0067 358.997 33.6074 358.971 35.6061C358.945 37.6047 360.434 39.2446 362.296 39.2686C364.158 39.2927 365.689 37.692 365.715 35.6933C365.741 33.6947 364.252 32.0548 362.39 32.0308Z" fill="url(#paint37_linear_183_19826)"/>
<path d="M362.892 38.2284C362.934 38.2805 363.004 38.3051 363.073 38.2853C364.247 37.9427 365.078 36.8136 365.094 35.5401C365.099 35.2195 365.053 34.9037 364.958 34.6017C364.93 34.5124 364.835 34.4627 364.745 34.4907C364.656 34.519 364.606 34.614 364.634 34.7034C364.718 34.971 364.759 35.2511 364.755 35.5356C364.74 36.6617 364.01 37.6582 362.978 37.9596C362.887 37.986 362.836 38.0802 362.862 38.1698C362.868 38.1921 362.879 38.2116 362.892 38.2284Z" fill="white"/>
<path d="M303.448 42.6385L301.757 42.5627C301.445 42.5486 301.203 42.2842 301.217 41.9717C301.231 41.6592 301.495 41.4174 301.808 41.4315H301.809L303.5 41.5112C303.811 41.5259 304.052 41.79 304.037 42.1013C304.022 42.4126 303.759 42.6532 303.448 42.6385Z" fill="#CE41A4"/>
<path d="M297.811 42.3837L296.121 42.3073C295.805 42.2932 295.56 42.0255 295.574 41.7094C295.588 41.3936 295.856 41.149 296.172 41.1632H296.173L297.864 41.2435C298.179 41.2585 298.422 41.5256 298.407 41.8405C298.392 42.1554 298.126 42.3988 297.811 42.3837Z" fill="#CE41A4"/>
<path d="M292.176 42.1331L290.485 42.0612C290.165 42.0476 289.917 41.7775 289.931 41.4581C289.944 41.1387 290.214 40.8906 290.534 40.9041H290.535L292.226 40.9799C292.545 40.994 292.791 41.2638 292.777 41.5823C292.763 41.9009 292.495 42.1472 292.176 42.1331Z" fill="#CE41A4"/>
<path d="M286.541 41.9037L284.85 41.8411C284.527 41.8291 284.275 41.5575 284.287 41.2345C284.299 40.9114 284.571 40.6591 284.894 40.6708H284.895L286.586 40.7373C286.908 40.7499 287.159 41.0212 287.146 41.3433C287.134 41.6655 286.863 41.9163 286.541 41.9037Z" fill="#CE41A4"/>
<path d="M280.908 41.7092L279.216 41.6599C278.889 41.6502 278.632 41.3777 278.641 41.0508C278.651 40.7242 278.923 40.467 279.25 40.4763H279.252L280.944 40.5296C281.27 40.5398 281.525 40.8123 281.515 41.1377C281.504 41.4635 281.233 41.7194 280.908 41.7092Z" fill="#CE41A4"/>
<path d="M275.273 41.564L273.581 41.5321C273.25 41.5258 272.987 41.253 272.994 40.9224C273 40.5919 273.273 40.3293 273.603 40.3353H273.605L275.297 40.3714C275.627 40.3783 275.888 40.6511 275.881 40.9805C275.874 41.3095 275.603 41.5709 275.273 41.564Z" fill="#CE41A4"/>
<path d="M269.639 41.481L267.946 41.4702C267.612 41.4681 267.343 41.1956 267.345 40.8615C267.347 40.5273 267.62 40.2584 267.954 40.2605H267.956L269.648 40.2753C269.981 40.2783 270.249 40.5505 270.246 40.8834C270.243 41.2164 269.972 41.4841 269.639 41.481Z" fill="#CE41A4"/>
<path d="M264.006 41.4732L262.313 41.4873C261.975 41.49 261.699 41.2187 261.696 40.8813C261.694 40.5435 261.965 40.2677 262.302 40.2647H262.304L263.997 40.2542C264.333 40.2521 264.608 40.5233 264.61 40.8599C264.612 41.1968 264.342 41.4711 264.006 41.4732Z" fill="#CE41A4"/>
<path d="M258.374 41.5536L256.682 41.5969C256.341 41.6056 256.057 41.3361 256.049 40.9951C256.04 40.654 256.309 40.3704 256.65 40.3616H256.652L258.344 40.3219C258.684 40.3141 258.966 40.5833 258.974 40.9232C258.982 41.2637 258.714 41.5458 258.374 41.5536Z" fill="#CE41A4"/>
<path d="M252.747 41.7354L251.056 41.8121C250.712 41.8277 250.42 41.5612 250.404 41.2168C250.389 40.8725 250.655 40.5804 251 40.5651H251.001L252.692 40.4923C253.036 40.4775 253.326 40.7437 253.341 41.0872C253.356 41.4301 253.091 41.7203 252.747 41.7354Z" fill="#CE41A4"/>
<path d="M247.126 42.0326L245.438 42.1468C245.09 42.1703 244.789 41.9077 244.766 41.56C244.742 41.2126 245.005 40.9119 245.352 40.8884L245.354 40.8881L247.043 40.7777C247.39 40.7552 247.689 41.0177 247.711 41.3642C247.734 41.7107 247.473 42.01 247.126 42.0326Z" fill="#CE41A4"/>
<path d="M241.516 42.4601L239.83 42.6165C239.48 42.649 239.17 42.3912 239.137 42.0411C239.105 41.6907 239.362 41.3803 239.712 41.3478H239.714L241.4 41.195C241.749 41.1634 242.058 41.4209 242.09 41.7704C242.121 42.1199 241.865 42.4285 241.516 42.4601Z" fill="#CE41A4"/>
<path d="M235.921 43.0337L234.24 43.2374C233.887 43.2801 233.566 43.0289 233.524 42.6758C233.481 42.3227 233.733 42.0021 234.085 41.9594H234.087L235.768 41.7597C236.12 41.7179 236.439 41.9693 236.481 42.3212C236.523 42.6728 236.273 42.9916 235.921 43.0337Z" fill="#CE41A4"/>
<path d="M230.346 43.7694L228.673 44.0253C228.318 44.0798 227.986 43.8361 227.932 43.4812C227.877 43.1263 228.121 42.7946 228.476 42.7404L228.478 42.7401L230.151 42.4878C230.505 42.4345 230.836 42.6782 230.889 43.0322C230.942 43.3862 230.7 43.7161 230.346 43.7694Z" fill="#CE41A4"/>
<path d="M224.802 44.6856L223.138 44.9999C222.782 45.0673 222.439 44.833 222.371 44.4766C222.304 44.1201 222.538 43.777 222.895 43.7096L222.896 43.7093L224.56 43.3989C224.916 43.3327 225.258 43.567 225.324 43.9222C225.39 44.2777 225.157 44.6194 224.802 44.6856Z" fill="#CE41A4"/>
<path d="M219.296 45.8008L217.646 46.1789C217.289 46.2607 216.934 46.0378 216.852 45.6808C216.77 45.3238 216.993 44.9683 217.35 44.8865L217.351 44.8862L219.002 44.5117C219.359 44.4308 219.713 44.654 219.793 45.0101C219.874 45.3665 219.652 45.7202 219.296 45.8008Z" fill="#CE41A4"/>
<path d="M213.843 47.1349L212.21 47.5834C211.854 47.6814 211.485 47.4718 211.387 47.1153C211.289 46.7589 211.499 46.3905 211.855 46.2924L211.857 46.2921L213.49 45.8476C213.846 45.7507 214.213 45.9607 214.309 46.3162C214.407 46.6717 214.198 47.038 213.843 47.1349Z" fill="#CE41A4"/>
<path d="M208.457 48.7084L206.848 49.2333C206.493 49.3491 206.111 49.1551 205.995 48.8002C205.88 48.4453 206.074 48.0639 206.428 47.9481L206.43 47.9475L208.04 47.4262C208.394 47.3117 208.775 47.5056 208.889 47.86C209.004 48.2143 208.811 48.5939 208.457 48.7084Z" fill="#CE41A4"/>
<path d="M203.158 50.5414L201.578 51.1489C201.226 51.2843 200.831 51.1086 200.696 50.757C200.561 50.4051 200.736 50.0105 201.088 49.8751L201.089 49.8745L202.671 49.2706C203.022 49.1364 203.415 49.3124 203.549 49.6634C203.683 50.0144 203.509 50.4072 203.158 50.5414Z" fill="#CE41A4"/>
<path d="M197.968 52.6531L196.425 53.3488C196.078 53.5052 195.671 53.3509 195.514 53.0041C195.358 52.6573 195.512 52.2494 195.859 52.093L195.86 52.0924L197.405 51.4004C197.751 51.2452 198.157 51.4001 198.312 51.7462C198.468 52.0921 198.314 52.4979 197.968 52.6531Z" fill="#CE41A4"/>
<path d="M192.913 55.061L191.416 55.8499C191.076 56.0289 190.656 55.8986 190.477 55.5588C190.298 55.2192 190.428 54.7987 190.768 54.6197L190.769 54.6188L192.269 53.8332C192.608 53.6555 193.027 53.7866 193.205 54.1256C193.382 54.4651 193.252 54.8835 192.913 55.061Z" fill="#CE41A4"/>
<path d="M188.023 57.7799L186.58 58.6654C186.25 58.8681 185.818 58.7646 185.615 58.4344C185.412 58.1041 185.516 57.6719 185.846 57.4692L185.847 57.4683L187.292 56.5861C187.622 56.3846 188.052 56.4887 188.254 56.8186C188.455 57.1486 188.353 57.5784 188.023 57.7799Z" fill="#CE41A4"/>
<path d="M183.328 60.8186L181.95 61.8019C181.631 62.0289 181.189 61.9553 180.962 61.637C180.735 61.3188 180.809 60.8767 181.127 60.6496L181.129 60.6487L182.508 59.6682C182.826 59.4423 183.267 59.5169 183.493 59.8348C183.719 60.1527 183.645 60.5927 183.328 60.8186Z" fill="#CE41A4"/>
<path d="M178.859 64.1772L177.556 65.257C177.254 65.5072 176.806 65.4651 176.556 65.1631C176.306 64.8612 176.348 64.4133 176.65 64.1634L176.65 64.1631L177.954 63.0842C178.256 62.8345 178.704 62.8766 178.953 63.1786C179.203 63.4806 179.161 63.9276 178.859 64.1772Z" fill="#CE41A4"/>
<path d="M174.644 67.857L173.429 69.0249C173.147 69.2986 172.696 69.2911 172.422 69.0083C172.148 68.7256 172.156 68.2748 172.439 68.001L172.441 67.9989L173.667 66.8214C173.951 66.5492 174.401 66.5582 174.673 66.8419C174.946 67.1255 174.936 67.5758 174.653 67.848L174.644 67.857Z" fill="#CE41A4"/>
<path d="M170.717 71.8265L169.583 73.0828C169.318 73.3758 168.866 73.399 168.573 73.1346C168.28 72.8702 168.257 72.4181 168.521 72.1252L168.522 72.1246L169.657 70.8691C169.921 70.5768 170.372 70.5539 170.665 70.8183C170.958 71.083 170.981 71.5342 170.717 71.8265Z" fill="#CE41A4"/>
<path d="M167.07 76.0667L166.024 77.3974C165.78 77.7087 165.329 77.7628 165.018 77.518C164.706 77.2734 164.652 76.8226 164.897 76.5113L164.897 76.5107L165.944 75.181C166.189 74.8703 166.639 74.8164 166.95 75.0613C167.261 75.3061 167.315 75.7557 167.07 76.0667Z" fill="#CE41A4"/>
<path d="M163.716 80.5438L162.76 81.94C162.535 82.2675 162.088 82.3515 161.76 82.1268C161.432 81.9024 161.348 81.4545 161.573 81.127L161.573 81.1264L162.531 79.7308C162.755 79.4036 163.202 79.3202 163.529 79.5449C163.857 79.7696 163.94 80.2166 163.716 80.5438Z" fill="#CE41A4"/>
<path d="M160.656 85.2297L159.789 86.6833C159.585 87.0256 159.142 87.1375 158.8 86.9332C158.457 86.7293 158.346 86.2863 158.55 85.944L158.55 85.9434L159.418 84.4904C159.622 84.1487 160.065 84.0371 160.407 84.2413C160.748 84.4458 160.86 84.8877 160.656 85.2297Z" fill="#CE41A4"/>
<path d="M157.891 90.0968L157.113 91.6001C156.929 91.955 156.492 92.094 156.137 91.9102C155.782 91.7264 155.643 91.2897 155.827 90.9348L155.828 90.9342L156.607 89.4315C156.791 89.0769 157.227 88.9388 157.582 89.1226C157.936 89.3064 158.075 89.7422 157.891 90.0968Z" fill="#CE41A4"/>
<path d="M155.418 95.1213L154.728 96.667C154.564 97.033 154.135 97.1972 153.768 97.0336C153.402 96.87 153.238 96.4408 153.402 96.0747L153.402 96.0742L154.094 94.5291C154.257 94.1633 154.686 93.9997 155.052 94.1633C155.418 94.3269 155.581 94.7556 155.418 95.1213Z" fill="#CE41A4"/>
<path d="M153.233 100.28L152.629 101.861C152.486 102.237 152.064 102.425 151.689 102.281C151.313 102.138 151.125 101.717 151.268 101.341L151.269 101.341L151.874 99.7598C152.018 99.3844 152.438 99.1967 152.813 99.3402C153.189 99.484 153.377 99.9041 153.233 100.28Z" fill="#CE41A4"/>
<path d="M151.332 105.551L150.814 107.162C150.69 107.546 150.278 107.757 149.894 107.633C149.51 107.51 149.299 107.098 149.423 106.714L149.423 106.713L149.943 105.102C150.067 104.719 150.478 104.508 150.862 104.632C151.246 104.756 151.456 105.167 151.332 105.551Z" fill="#CE41A4"/>
<path d="M149.712 110.916L149.277 112.551C149.173 112.942 148.771 113.176 148.38 113.071C147.989 112.967 147.756 112.566 147.86 112.175V112.174L148.297 110.539C148.401 110.148 148.802 109.916 149.193 110.02C149.584 110.124 149.816 110.525 149.712 110.916Z" fill="#CE41A4"/>
<path d="M148.366 116.357L148.014 118.012C147.929 118.409 147.539 118.663 147.142 118.579C146.745 118.494 146.491 118.103 146.576 117.706V117.706L146.93 116.051C147.015 115.654 147.405 115.401 147.802 115.486C148.198 115.57 148.451 115.96 148.366 116.357Z" fill="#CE41A4"/>
<path d="M147.293 121.86L147.022 123.531C146.956 123.932 146.577 124.206 146.175 124.14C145.773 124.075 145.501 123.696 145.566 123.294V123.294L145.838 121.623C145.904 121.221 146.283 120.949 146.684 121.014C147.086 121.08 147.358 121.458 147.293 121.86Z" fill="#CE41A4"/>
<path d="M146.487 127.408L146.296 129.09C146.25 129.496 145.884 129.788 145.478 129.742C145.072 129.696 144.78 129.329 144.826 128.923V128.923L145.018 127.241C145.065 126.835 145.431 126.544 145.836 126.59C146.242 126.637 146.533 127.003 146.487 127.408Z" fill="#CE41A4"/>
<path d="M145.948 132.989L145.838 134.678C145.811 135.087 145.458 135.397 145.049 135.37C144.64 135.343 144.33 134.99 144.357 134.581V134.581L144.468 132.892C144.496 132.483 144.849 132.174 145.257 132.201C145.666 132.228 145.975 132.581 145.948 132.989Z" fill="#CE41A4"/>
<path d="M145.675 138.59L145.644 140.282C145.636 140.694 145.297 141.02 144.886 141.013C144.475 141.006 144.148 140.667 144.155 140.256V140.255L144.187 138.563C144.195 138.152 144.534 137.825 144.945 137.833C145.356 137.841 145.682 138.179 145.675 138.59Z" fill="#CE41A4"/>
<path d="M145.666 144.197L145.715 145.889C145.728 146.301 145.403 146.645 144.991 146.657C144.579 146.669 144.235 146.345 144.223 145.933V145.932L144.175 144.24C144.163 143.828 144.487 143.485 144.899 143.473C145.311 143.461 145.654 143.785 145.666 144.197Z" fill="#CE41A4"/>
<path d="M145.923 149.798L146.053 151.485C146.085 151.898 145.777 152.258 145.364 152.29C144.952 152.321 144.592 152.013 144.56 151.6V151.6L144.431 149.912C144.399 149.5 144.708 149.14 145.12 149.109C145.532 149.078 145.892 149.386 145.923 149.798Z" fill="#CE41A4"/>
<path d="M146.449 155.379L146.661 157.058C146.713 157.47 146.421 157.846 146.009 157.898C145.598 157.95 145.222 157.658 145.17 157.247V157.246L144.959 155.566C144.908 155.155 145.2 154.78 145.611 154.728C146.022 154.676 146.397 154.968 146.449 155.379Z" fill="#CE41A4"/>
<path d="M147.246 160.927L147.541 162.594C147.613 163.003 147.34 163.394 146.93 163.467C146.521 163.539 146.13 163.266 146.057 162.856V162.855L145.764 161.188C145.691 160.779 145.965 160.389 146.374 160.316C146.784 160.245 147.174 160.518 147.246 160.927Z" fill="#CE41A4"/>
<path d="M148.319 166.427L148.699 168.077C148.792 168.483 148.538 168.889 148.131 168.983C147.725 169.076 147.319 168.822 147.225 168.415V168.415L146.847 166.765C146.754 166.358 147.008 165.953 147.415 165.86C147.821 165.767 148.226 166.021 148.319 166.427Z" fill="#CE41A4"/>
<path d="M149.674 171.863L150.14 173.491C150.255 173.893 150.022 174.313 149.62 174.428C149.218 174.544 148.798 174.311 148.682 173.908L148.682 173.908L148.218 172.28C148.103 171.878 148.336 171.459 148.738 171.344C149.14 171.229 149.559 171.461 149.674 171.863Z" fill="#CE41A4"/>
<path d="M151.317 177.217L151.872 178.817C152.009 179.214 151.799 179.647 151.402 179.785C151.006 179.922 150.572 179.712 150.435 179.315L150.434 179.315L149.881 177.715C149.744 177.319 149.954 176.886 150.351 176.749C150.748 176.611 151.18 176.821 151.317 177.217Z" fill="#CE41A4"/>
<path d="M153.256 182.47L153.901 184.035C154.062 184.424 153.876 184.87 153.487 185.031C153.098 185.191 152.652 185.006 152.491 184.617L152.491 184.616L151.847 183.05C151.687 182.661 151.872 182.216 152.261 182.056C152.65 181.895 153.096 182.081 153.256 182.47Z" fill="#CE41A4"/>
<path d="M155.496 187.598L156.235 189.121C156.419 189.501 156.261 189.958 155.881 190.143C155.501 190.327 155.043 190.168 154.859 189.788L154.858 189.788L154.121 188.264C153.937 187.884 154.096 187.427 154.476 187.243C154.856 187.059 155.313 187.218 155.496 187.598Z" fill="#CE41A4"/>
<path d="M158.039 192.589L158.856 194.071C159.061 194.441 158.927 194.908 158.555 195.113C158.185 195.318 157.718 195.183 157.513 194.812L157.513 194.811L156.696 193.328C156.492 192.957 156.627 192.491 156.998 192.287C157.369 192.083 157.834 192.218 158.039 192.589Z" fill="#CE41A4"/>
<path d="M160.83 197.45L161.719 198.891C161.942 199.252 161.83 199.726 161.468 199.949C161.107 200.173 160.633 200.06 160.41 199.699L160.409 199.698L159.521 198.256C159.299 197.895 159.411 197.421 159.773 197.199C160.134 196.976 160.608 197.088 160.83 197.45Z" fill="#CE41A4"/>
<path d="M163.853 202.171L164.809 203.567C165.05 203.919 164.96 204.399 164.608 204.64C164.257 204.88 163.777 204.791 163.536 204.439L163.536 204.438L162.58 203.041C162.34 202.69 162.43 202.21 162.781 201.97C163.133 201.73 163.612 201.819 163.853 202.171Z" fill="#CE41A4"/>
<path d="M167.096 206.742L168.118 208.092C168.376 208.433 168.308 208.918 167.968 209.176C167.627 209.434 167.142 209.367 166.884 209.026L166.883 209.025L165.863 207.675C165.605 207.334 165.673 206.85 166.014 206.592C166.355 206.335 166.839 206.402 167.096 206.742Z" fill="#CE41A4"/>
<path d="M170.552 211.156L171.636 212.457C171.91 212.786 171.866 213.275 171.537 213.549C171.208 213.824 170.718 213.779 170.444 213.45L170.444 213.449L169.361 212.148C169.087 211.819 169.132 211.33 169.461 211.056C169.79 210.783 170.279 210.827 170.552 211.156Z" fill="#CE41A4"/>
<path d="M174.211 215.404L175.355 216.652C175.645 216.969 175.623 217.461 175.306 217.751C174.989 218.041 174.497 218.02 174.207 217.703L174.207 217.703L173.064 216.454C172.775 216.137 172.797 215.645 173.114 215.355C173.43 215.065 173.922 215.087 174.211 215.404Z" fill="#CE41A4"/>
<path d="M178.065 219.475L179.265 220.668C179.571 220.972 179.572 221.466 179.268 221.772C178.964 222.078 178.47 222.079 178.165 221.775L178.164 221.774L176.965 220.58C176.66 220.276 176.659 219.783 176.962 219.477C177.266 219.172 177.76 219.171 178.065 219.475Z" fill="#CE41A4"/>
<path d="M182.104 223.362L183.359 224.499C183.679 224.789 183.704 225.283 183.413 225.604C183.123 225.924 182.629 225.949 182.308 225.658L182.308 225.658L181.054 224.521C180.734 224.231 180.71 223.736 181 223.417C181.29 223.097 181.784 223.072 182.104 223.362Z" fill="#CE41A4"/>
<path d="M186.32 227.056L187.627 228.132C187.961 228.407 188.009 228.902 187.734 229.236C187.458 229.571 186.964 229.619 186.63 229.343L186.629 229.343L185.323 228.266C184.989 227.991 184.941 227.497 185.217 227.163C185.492 226.828 185.986 226.781 186.32 227.056Z" fill="#CE41A4"/>
<path d="M190.705 230.546L192.062 231.558C192.41 231.818 192.482 232.311 192.222 232.66C191.962 233.008 191.469 233.079 191.121 232.819L191.12 232.819L189.764 231.805C189.417 231.545 189.345 231.053 189.605 230.705C189.866 230.358 190.358 230.286 190.705 230.546Z" fill="#CE41A4"/>
<path d="M195.252 233.823L196.656 234.769C197.017 235.013 197.113 235.503 196.869 235.864C196.626 236.226 196.135 236.321 195.774 236.078L195.774 236.077L194.371 235.13C194.01 234.887 193.915 234.397 194.158 234.036C194.402 233.674 194.891 233.579 195.252 233.823Z" fill="#CE41A4"/>
<path d="M199.952 236.875L201.4 237.752C201.774 237.978 201.894 238.465 201.667 238.838C201.441 239.212 200.955 239.332 200.581 239.105L200.58 239.105L199.133 238.228C198.76 238.001 198.64 237.515 198.867 237.142C199.093 236.768 199.578 236.649 199.952 236.875Z" fill="#CE41A4"/>
<path d="M204.795 239.693L206.285 240.496C206.67 240.704 206.814 241.185 206.607 241.571C206.399 241.957 205.918 242.101 205.532 241.893L205.531 241.893L204.042 241.088C203.656 240.88 203.513 240.399 203.721 240.014C203.929 239.629 204.409 239.485 204.795 239.693Z" fill="#CE41A4"/>
<path d="M209.772 242.264L211.3 242.991C211.697 243.179 211.866 243.654 211.677 244.051C211.489 244.448 211.014 244.617 210.617 244.428L210.617 244.428L209.089 243.7C208.692 243.511 208.524 243.037 208.713 242.64C208.901 242.244 209.375 242.075 209.772 242.264Z" fill="#CE41A4"/>
<path d="M214.872 244.577L216.437 245.224C216.844 245.393 217.038 245.859 216.869 246.266C216.701 246.673 216.234 246.867 215.827 246.698L215.827 246.698L214.263 246.05C213.856 245.882 213.663 245.416 213.831 245.009C214 244.602 214.466 244.409 214.872 244.577Z" fill="#CE41A4"/>
<path d="M220.086 246.621L221.682 247.184C222.099 247.33 222.317 247.787 222.171 248.204C222.024 248.621 221.567 248.839 221.15 248.693L221.15 248.692L219.554 248.128C219.137 247.981 218.919 247.525 219.066 247.108C219.213 246.692 219.669 246.474 220.086 246.621Z" fill="#CE41A4"/>
<path d="M225.4 248.382L227.024 248.858C227.45 248.982 227.693 249.428 227.569 249.853C227.444 250.279 226.999 250.522 226.574 250.398L226.573 250.397L224.949 249.921C224.524 249.796 224.281 249.351 224.406 248.926C224.53 248.502 224.975 248.258 225.4 248.382Z" fill="#CE41A4"/>
<path d="M230.801 249.851L232.45 250.236C232.882 250.337 233.151 250.769 233.05 251.202C232.949 251.634 232.517 251.903 232.084 251.802H232.084L230.435 251.416C230.003 251.315 229.735 250.883 229.836 250.451C229.937 250.018 230.369 249.75 230.801 249.851Z" fill="#CE41A4"/>
<path d="M236.275 251.016L237.942 251.306C238.381 251.383 238.675 251.801 238.598 252.239C238.522 252.678 238.104 252.972 237.665 252.895H237.665L235.998 252.603C235.559 252.527 235.266 252.109 235.343 251.671C235.419 251.232 235.836 250.939 236.275 251.016Z" fill="#CE41A4"/>
<path d="M241.805 251.866L243.487 252.06C243.931 252.111 244.249 252.512 244.198 252.956C244.147 253.399 243.745 253.718 243.302 253.667H243.301L241.62 253.471C241.176 253.42 240.859 253.019 240.91 252.576C240.962 252.132 241.362 251.814 241.805 251.866Z" fill="#CE41A4"/>
<path d="M247.375 252.393L249.065 252.488C249.512 252.513 249.854 252.896 249.829 253.344C249.804 253.791 249.422 254.133 248.974 254.108H248.974L247.284 254.012C246.837 253.986 246.495 253.603 246.521 253.156C246.546 252.71 246.928 252.368 247.375 252.393Z" fill="#CE41A4"/>
<path d="M252.967 252.592L254.652 252.586H254.664C255.113 252.585 255.478 252.947 255.479 253.396C255.481 253.846 255.118 254.211 254.669 254.212H254.668L252.969 254.216C252.52 254.218 252.156 253.855 252.154 253.406C252.153 252.957 252.516 252.593 252.965 252.592H252.967Z" fill="#CE41A4"/>
<path d="M258.563 252.469L260.253 252.375C260.703 252.35 261.088 252.694 261.113 253.144C261.138 253.594 260.794 253.978 260.344 254.003H260.343L258.653 254.096C258.204 254.12 257.82 253.776 257.795 253.327C257.771 252.878 258.114 252.494 258.563 252.469Z" fill="#CE41A4"/>
<path d="M264.15 252.06L265.833 251.883C266.282 251.835 266.684 252.16 266.731 252.61C266.779 253.059 266.454 253.461 266.005 253.509H266.004L264.32 253.685C263.872 253.732 263.47 253.407 263.423 252.958C263.376 252.509 263.701 252.108 264.15 252.06Z" fill="#CE41A4"/>
<path d="M269.711 251.378L271.383 251.119C271.831 251.05 272.249 251.357 272.318 251.805C272.388 252.252 272.081 252.67 271.634 252.74H271.633L269.96 252.996C269.513 253.065 269.095 252.758 269.026 252.311C268.958 251.864 269.264 251.447 269.711 251.378Z" fill="#CE41A4"/>
<path d="M275.235 250.433L276.894 250.099C277.339 250.01 277.772 250.298 277.862 250.743C277.952 251.188 277.663 251.621 277.219 251.711H277.218L275.559 252.044C275.114 252.133 274.681 251.845 274.592 251.4C274.503 250.955 274.79 250.523 275.235 250.433Z" fill="#CE41A4"/>
<path d="M280.713 249.242L282.357 248.837C282.798 248.728 283.245 248.998 283.354 249.439C283.463 249.881 283.194 250.328 282.752 250.437H282.751L281.108 250.841C280.666 250.95 280.22 250.68 280.112 250.238C280.003 249.797 280.272 249.351 280.713 249.242Z" fill="#CE41A4"/>
<path d="M286.139 247.82L287.764 247.348C288.202 247.221 288.661 247.473 288.788 247.911C288.915 248.349 288.663 248.808 288.225 248.935L288.224 248.935L286.598 249.406C286.161 249.533 285.703 249.281 285.576 248.843C285.449 248.404 285.701 247.947 286.139 247.82Z" fill="#CE41A4"/>
<path d="M291.505 246.183L293.111 245.65C293.545 245.506 294.014 245.74 294.158 246.175C294.302 246.609 294.067 247.078 293.633 247.222L293.632 247.222L292.026 247.754C291.592 247.898 291.123 247.663 290.98 247.229C290.836 246.795 291.071 246.327 291.505 246.183Z" fill="#CE41A4"/>
<path d="M296.809 244.348L298.396 243.758C298.826 243.598 299.304 243.817 299.464 244.247C299.623 244.677 299.404 245.155 298.975 245.315L298.974 245.315L297.387 245.904C296.957 246.063 296.48 245.844 296.32 245.414C296.161 244.984 296.379 244.507 296.809 244.348Z" fill="#CE41A4"/>
<path d="M302.049 242.33L303.615 241.689C304.041 241.515 304.527 241.718 304.702 242.144C304.876 242.569 304.672 243.056 304.247 243.23L304.246 243.23L302.679 243.871C302.254 244.045 301.768 243.841 301.594 243.415C301.42 242.99 301.624 242.504 302.049 242.33Z" fill="#CE41A4"/>
<path d="M307.223 240.146L308.77 239.458C309.191 239.27 309.685 239.46 309.872 239.881C310.059 240.302 309.87 240.796 309.449 240.983L309.448 240.984L307.901 241.671C307.48 241.858 306.987 241.668 306.8 241.247C306.613 240.826 306.802 240.333 307.223 240.146Z" fill="#CE41A4"/>
<path d="M312.334 237.81L313.861 237.079C314.278 236.88 314.778 237.056 314.977 237.473C315.177 237.89 315.001 238.39 314.584 238.589L314.583 238.59L313.056 239.32C312.639 239.519 312.14 239.342 311.941 238.926C311.741 238.509 311.917 238.009 312.334 237.81Z" fill="#CE41A4"/>
<path d="M317.382 235.337L318.89 234.568C319.303 234.357 319.808 234.521 320.019 234.934C320.23 235.347 320.066 235.852 319.653 236.063L319.652 236.063L318.144 236.831C317.731 237.041 317.226 236.877 317.016 236.465C316.806 236.052 316.969 235.547 317.382 235.337Z" fill="#CE41A4"/>
<path d="M322.369 232.74L323.859 231.936C324.268 231.715 324.779 231.867 324.999 232.276C325.22 232.685 325.068 233.196 324.659 233.417L324.658 233.417L323.168 234.22C322.759 234.44 322.249 234.287 322.029 233.879C321.808 233.47 321.961 232.96 322.369 232.74Z" fill="#CE41A4"/>
<path d="M327.299 230.031L328.771 229.195C329.177 228.966 329.692 229.108 329.922 229.513C330.151 229.918 330.009 230.433 329.604 230.663L329.603 230.663L328.13 231.498C327.725 231.727 327.211 231.584 326.981 231.179C326.752 230.774 326.894 230.26 327.299 230.031Z" fill="#CE41A4"/>
<path d="M332.174 227.222L333.63 226.359C334.032 226.121 334.551 226.254 334.789 226.655C335.027 227.057 334.895 227.576 334.493 227.814L334.492 227.815L333.035 228.676C332.633 228.914 332.115 228.781 331.877 228.379C331.64 227.977 331.772 227.459 332.174 227.222Z" fill="#CE41A4"/>
<path d="M336.999 224.324L338.44 223.436C338.839 223.191 339.362 223.315 339.607 223.714C339.852 224.113 339.728 224.636 339.329 224.881L339.329 224.881L337.886 225.767C337.487 226.013 336.965 225.888 336.721 225.489C336.476 225.09 336.6 224.569 336.999 224.324Z" fill="#CE41A4"/>
<path d="M341.778 221.348L343.206 220.439C343.602 220.187 344.128 220.304 344.38 220.7C344.632 221.096 344.515 221.622 344.119 221.874L344.118 221.874L342.689 222.782C342.293 223.033 341.768 222.916 341.516 222.52C341.265 222.124 341.382 221.599 341.778 221.348Z" fill="#CE41A4"/>
<path d="M346.515 218.304L347.933 217.378C348.325 217.122 348.851 217.233 349.108 217.625C349.364 218.018 349.255 218.543 348.862 218.799L347.446 219.727C347.054 219.984 346.527 219.875 346.269 219.482C346.012 219.089 346.121 218.562 346.514 218.305L346.515 218.304Z" fill="#CE41A4"/>
<path d="M351.219 215.205L352.626 214.263C353.014 214.004 353.538 214.108 353.798 214.495C354.057 214.883 353.954 215.407 353.567 215.666L352.161 216.61C351.773 216.87 351.248 216.767 350.987 216.379C350.727 215.992 350.83 215.466 351.218 215.206L351.219 215.205Z" fill="#CE41A4"/>
<path d="M355.892 212.055L357.289 211.101C357.672 210.838 358.195 210.936 358.457 211.319C358.719 211.701 358.622 212.225 358.239 212.487L356.842 213.444C356.458 213.707 355.935 213.609 355.672 213.226C355.409 212.842 355.507 212.318 355.89 212.055L355.892 212.055Z" fill="#CE41A4"/>
<path d="M360.541 208.865L361.934 207.903C362.313 207.641 362.834 207.736 363.097 208.116C363.359 208.496 363.265 209.016 362.885 209.278L361.494 210.242C361.113 210.506 360.592 210.411 360.328 210.031C360.065 209.651 360.16 209.13 360.54 208.866L360.541 208.865Z" fill="#CE41A4"/>
<path d="M365.178 205.654L366.568 204.687C366.945 204.425 367.463 204.518 367.725 204.896C367.988 205.273 367.895 205.79 367.518 206.052L366.13 207.021C365.753 207.284 365.233 207.192 364.97 206.814C364.707 206.437 364.799 205.918 365.177 205.654L365.178 205.654Z" fill="#CE41A4"/>
<path d="M369.808 202.431L371.197 201.463C371.572 201.202 372.088 201.294 372.349 201.669C372.61 202.045 372.519 202.559 372.144 202.821L370.756 203.79C370.381 204.052 369.865 203.96 369.603 203.585C369.34 203.21 369.432 202.694 369.807 202.431L369.808 202.431Z" fill="#CE41A4"/>
<path d="M374.44 199.207L375.831 198.242C376.204 197.982 376.717 198.075 376.976 198.448C377.236 198.821 377.144 199.334 376.771 199.593L375.382 200.56C375.008 200.821 374.495 200.729 374.234 200.355C373.974 199.982 374.066 199.468 374.44 199.208L374.44 199.207Z" fill="#CE41A4"/>
<path d="M379.081 195.992L380.475 195.032C380.847 194.775 381.357 194.869 381.613 195.241C381.87 195.614 381.777 196.123 381.405 196.379L380.012 197.342C379.64 197.6 379.129 197.506 378.872 197.134C378.614 196.761 378.707 196.251 379.08 195.993L379.081 195.992Z" fill="#CE41A4"/>
<path d="M383.737 192.796L385.137 191.844C385.509 191.591 386.015 191.687 386.268 192.059C386.521 192.431 386.426 192.936 386.054 193.19L384.656 194.144C384.284 194.399 383.777 194.303 383.523 193.931C383.268 193.559 383.364 193.051 383.736 192.797L383.737 192.796Z" fill="#CE41A4"/>
<path d="M388.416 189.63L389.823 188.689C390.194 188.44 390.698 188.54 390.946 188.912C391.195 189.284 391.096 189.786 390.724 190.035L389.319 190.978C388.947 191.228 388.443 191.129 388.193 190.757C387.943 190.385 388.042 189.881 388.414 189.631L388.416 189.63Z" fill="#CE41A4"/>
<path d="M393.123 186.504L394.539 185.577C394.912 185.334 395.411 185.438 395.655 185.81C395.898 186.183 395.795 186.682 395.423 186.925L394.007 187.854C393.635 188.099 393.134 187.995 392.89 187.623C392.645 187.25 392.749 186.75 393.122 186.505L393.123 186.504Z" fill="#CE41A4"/>
<path d="M397.866 183.429L399.294 182.52C399.667 182.282 400.163 182.392 400.4 182.765C400.638 183.139 400.529 183.633 400.156 183.871L398.729 184.783C398.356 185.021 397.859 184.912 397.62 184.538C397.382 184.165 397.491 183.668 397.865 183.43L397.866 183.429Z" fill="#CE41A4"/>
<path d="M402.651 180.416L404.092 179.528C404.467 179.297 404.958 179.414 405.189 179.789C405.42 180.163 405.304 180.654 404.929 180.885L403.489 181.775C403.114 182.007 402.622 181.891 402.39 181.516C402.159 181.14 402.275 180.648 402.65 180.417L402.651 180.416Z" fill="#CE41A4"/>
<path d="M407.484 177.477L408.94 176.614C409.316 176.391 409.803 176.515 410.026 176.892C410.249 177.269 410.126 177.754 409.749 177.978L408.294 178.843C407.918 179.067 407.43 178.943 407.206 178.566C406.982 178.19 407.105 177.702 407.483 177.478L407.484 177.477Z" fill="#CE41A4"/>
<path d="M412.369 174.624L413.842 173.79C414.221 173.575 414.702 173.708 414.917 174.087C415.132 174.466 415 174.946 414.621 175.161L413.149 175.998C412.77 176.214 412.288 176.081 412.072 175.702C411.856 175.323 411.989 174.841 412.368 174.625L412.369 174.624Z" fill="#CE41A4"/>
<path d="M417.315 171.871L418.805 171.069C419.187 170.863 419.662 171.006 419.868 171.387C420.073 171.769 419.931 172.244 419.55 172.449L418.06 173.253C417.679 173.46 417.202 173.317 416.996 172.935C416.79 172.554 416.932 172.077 417.314 171.871L417.315 171.871Z" fill="#CE41A4"/>
<path d="M422.322 169.23L423.832 168.464C424.216 168.269 424.686 168.423 424.881 168.807C425.075 169.191 424.923 169.66 424.539 169.855L423.03 170.623C422.645 170.819 422.175 170.666 421.979 170.281C421.783 169.896 421.937 169.426 422.321 169.231L422.322 169.23Z" fill="#CE41A4"/>
<path d="M427.396 166.715L428.926 165.99C429.313 165.806 429.776 165.971 429.959 166.358C430.143 166.746 429.979 167.208 429.592 167.391L428.063 168.118C427.676 168.303 427.212 168.138 427.028 167.75C426.843 167.363 427.008 166.9 427.396 166.715L427.396 166.715Z" fill="#CE41A4"/>
<path d="M432.54 164.34L434.09 163.66C434.48 163.489 434.935 163.666 435.107 164.056C435.278 164.446 435.101 164.901 434.711 165.072L433.162 165.755C432.771 165.927 432.315 165.749 432.143 165.359C431.971 164.969 432.149 164.513 432.539 164.341L432.54 164.34Z" fill="#CE41A4"/>
<path d="M437.754 162.12L439.325 161.49C439.718 161.332 440.164 161.522 440.322 161.915C440.48 162.309 440.29 162.755 439.897 162.913L438.328 163.546C437.934 163.704 437.486 163.514 437.327 163.12C437.169 162.727 437.359 162.279 437.753 162.12H437.754Z" fill="#CE41A4"/>
<path d="M443.038 160.07L444.63 159.493C445.026 159.349 445.463 159.554 445.607 159.95C445.751 160.346 445.547 160.783 445.151 160.926L443.56 161.506C443.164 161.65 442.725 161.446 442.581 161.05C442.437 160.653 442.641 160.215 443.037 160.07L443.038 160.07Z" fill="#CE41A4"/>
<path d="M448.392 158.203L450.003 157.684C450.402 157.556 450.829 157.774 450.958 158.173C451.086 158.572 450.868 158.999 450.47 159.127L448.86 159.649C448.46 159.779 448.032 159.56 447.902 159.161C447.773 158.762 447.992 158.333 448.391 158.204L448.392 158.203Z" fill="#CE41A4"/>
<path d="M453.811 156.535L455.445 156.076C455.846 155.963 456.262 156.197 456.375 156.598C456.488 156.999 456.254 157.415 455.853 157.528L455.848 157.529L454.224 157.988L454.22 157.989C453.819 158.102 453.401 157.869 453.288 157.467C453.175 157.066 453.408 156.648 453.809 156.535L453.811 156.535Z" fill="#CE41A4"/>
<path d="M459.305 155.091L460.955 154.714C461.359 154.622 461.761 154.875 461.853 155.279C461.945 155.682 461.693 156.084 461.289 156.176L459.64 156.555C459.235 156.648 458.832 156.395 458.739 155.991C458.647 155.587 458.899 155.184 459.303 155.091L459.305 155.091Z" fill="#CE41A4"/>
<path d="M464.871 153.935L466.541 153.654C466.947 153.585 467.331 153.859 467.4 154.265C467.468 154.671 467.195 155.055 466.789 155.124L465.121 155.408C464.714 155.477 464.328 155.203 464.259 154.797C464.19 154.39 464.463 154.004 464.87 153.935H464.871Z" fill="#CE41A4"/>
<path d="M470.502 153.115L472.186 152.943C472.593 152.902 472.957 153.198 472.999 153.605C473.04 154.013 472.745 154.376 472.337 154.418L470.654 154.592C470.246 154.634 469.881 154.338 469.839 153.93C469.797 153.522 470.093 153.157 470.501 153.115L470.502 153.115Z" fill="#CE41A4"/>
<path d="M476.184 152.684L477.876 152.641C478.283 152.63 478.621 152.952 478.632 153.359C478.642 153.765 478.321 154.104 477.915 154.114L476.223 154.16C475.815 154.171 475.476 153.849 475.465 153.442C475.454 153.034 475.775 152.695 476.183 152.684L476.184 152.684Z" fill="#CE41A4"/>
<path d="M481.889 152.709L483.579 152.815C483.983 152.841 484.29 153.189 484.264 153.592C484.239 153.996 483.892 154.303 483.488 154.278L481.799 154.174C481.394 154.15 481.086 153.802 481.111 153.397C481.135 152.993 481.483 152.685 481.888 152.709H481.889Z" fill="#CE41A4"/>
<path d="M487.578 153.265L489.247 153.542C489.644 153.608 489.912 153.983 489.847 154.38C489.781 154.776 489.407 155.045 489.01 154.979L487.339 154.704C486.942 154.639 486.673 154.264 486.738 153.866C486.803 153.469 487.178 153.199 487.576 153.265H487.578Z" fill="#CE41A4"/>
<path d="M493.183 154.427L494.81 154.896C495.194 155.007 495.415 155.408 495.304 155.792C495.194 156.176 494.793 156.398 494.409 156.287L492.782 155.821C492.397 155.71 492.174 155.308 492.285 154.923C492.395 154.538 492.797 154.316 493.182 154.426L493.183 154.427Z" fill="#CE41A4"/>
<path d="M498.614 156.261L500.166 156.936C500.531 157.094 500.698 157.518 500.539 157.883C500.381 158.247 499.958 158.414 499.593 158.256L498.04 157.583C497.675 157.425 497.507 157 497.665 156.635C497.823 156.27 498.248 156.102 498.613 156.26L498.614 156.261Z" fill="#CE41A4"/>
<path d="M503.76 158.801L505.203 159.685C505.54 159.891 505.646 160.332 505.439 160.669C505.233 161.006 504.794 161.112 504.457 160.906L503.012 160.024C502.674 159.818 502.567 159.377 502.773 159.039C502.979 158.701 503.421 158.594 503.758 158.8L503.76 158.801Z" fill="#CE41A4"/>
<path d="M508.497 162.037L509.804 163.114C510.107 163.363 510.15 163.811 509.901 164.115C509.651 164.418 509.204 164.462 508.901 164.212L507.592 163.138C507.288 162.888 507.244 162.44 507.494 162.135C507.743 161.831 508.192 161.787 508.496 162.037L508.497 162.037Z" fill="#CE41A4"/>
<path d="M512.746 165.885L513.899 167.124C514.164 167.409 514.148 167.855 513.864 168.12C513.579 168.385 513.135 168.371 512.869 168.086L511.711 166.852C511.444 166.566 511.458 166.118 511.743 165.851C512.028 165.583 512.476 165.598 512.744 165.883L512.746 165.885Z" fill="#CE41A4"/>
<path d="M516.458 170.243L517.45 171.615C517.674 171.925 517.604 172.358 517.295 172.582C516.985 172.806 516.554 172.739 516.33 172.429L515.332 171.062C515.105 170.751 515.173 170.316 515.484 170.089C515.794 169.863 516.23 169.931 516.456 170.241L516.458 170.243Z" fill="#CE41A4"/>
<path d="M519.615 175.014L520.439 176.492C520.622 176.819 520.505 177.234 520.177 177.417C519.849 177.599 519.437 177.485 519.254 177.157L518.422 175.683C518.237 175.354 518.353 174.937 518.682 174.752C519.011 174.566 519.427 174.682 519.613 175.011L519.615 175.014Z" fill="#CE41A4"/>
<path d="M522.198 180.113L522.851 181.674C522.993 182.014 522.833 182.405 522.493 182.547C522.153 182.69 521.763 182.532 521.621 182.192L520.961 180.633C520.817 180.292 520.976 179.898 521.318 179.753C521.659 179.609 522.053 179.768 522.197 180.11L522.198 180.113Z" fill="#CE41A4"/>
<path d="M524.193 185.467L524.668 187.092C524.769 187.439 524.57 187.803 524.223 187.904C523.876 188.005 523.513 187.809 523.412 187.462L522.93 185.839C522.826 185.49 523.025 185.124 523.374 185.02C523.722 184.917 524.089 185.115 524.192 185.464L524.193 185.467Z" fill="#CE41A4"/>
<path d="M525.578 191.007L525.873 192.674C525.935 193.023 525.702 193.357 525.353 193.419C525.004 193.48 524.671 193.25 524.609 192.901L524.306 191.235C524.243 190.884 524.475 190.548 524.826 190.484C525.177 190.42 525.514 190.653 525.578 191.004L525.578 191.007Z" fill="#CE41A4"/>
<path d="M526.371 196.656L526.497 198.344C526.523 198.691 526.263 198.993 525.916 199.02C525.569 199.045 525.267 198.788 525.241 198.441L525.107 196.754C525.08 196.405 525.34 196.1 525.689 196.072C526.038 196.045 526.343 196.305 526.37 196.654L526.371 196.656Z" fill="#CE41A4"/>
<path d="M526.605 202.351L526.572 204.044C526.565 204.385 526.283 204.656 525.943 204.649C525.602 204.642 525.331 204.363 525.338 204.023L525.363 202.33C525.369 201.987 525.651 201.713 525.994 201.719C526.337 201.724 526.611 202.006 526.605 202.349L526.605 202.351Z" fill="#CE41A4"/>
<path d="M526.315 208.039L526.133 209.722C526.097 210.054 525.798 210.294 525.466 210.258C525.134 210.222 524.894 209.927 524.93 209.595L525.104 207.911C525.139 207.577 525.438 207.334 525.772 207.368C526.106 207.403 526.349 207.702 526.315 208.036L526.315 208.039Z" fill="#CE41A4"/>
<path d="M525.537 213.676L525.217 215.338C525.155 215.659 524.845 215.869 524.523 215.808C524.202 215.746 523.991 215.438 524.053 215.117L524.366 213.453C524.427 213.13 524.738 212.917 525.061 212.977C525.385 213.038 525.598 213.35 525.537 213.673L525.537 213.676Z" fill="#CE41A4"/>
<path d="M524.308 219.229L523.86 220.861C523.775 221.17 523.456 221.351 523.148 221.267C522.839 221.182 522.657 220.865 522.741 220.556L523.182 218.922C523.266 218.611 523.587 218.427 523.898 218.511C524.209 218.594 524.393 218.915 524.309 219.226L524.308 219.229Z" fill="#CE41A4"/>
<path d="M522.66 224.668L522.092 226.263C521.987 226.558 521.662 226.712 521.367 226.607C521.072 226.502 520.917 226.18 521.022 225.885L521.583 224.287C521.688 223.99 522.014 223.833 522.311 223.938C522.609 224.042 522.765 224.368 522.661 224.666L522.66 224.668Z" fill="#CE41A4"/>
<path d="M336.908 214.633H207.376C201.324 214.633 196.417 219.548 196.417 225.6V251.356C196.417 257.408 201.324 262.305 207.376 262.305H319.598C319.986 262.305 320.3 262.628 320.3 263.017V276.8C320.3 277.1 320.491 277.367 320.776 277.464C321.06 277.561 321.374 277.467 321.558 277.23L332.907 262.582C333.041 262.41 333.245 262.305 333.463 262.305H336.908C342.96 262.305 347.866 257.408 347.866 251.356V225.6C347.866 219.548 342.96 214.633 336.908 214.633Z" fill="url(#paint38_linear_183_19826)"/>
<path opacity="0.78" d="M238.58 240.836C239.56 232.874 233.901 225.626 225.939 224.645C217.978 223.665 210.729 229.324 209.749 237.286C208.769 245.247 214.428 252.496 222.39 253.476C230.351 254.457 237.6 248.797 238.58 240.836Z" fill="white"/>
<path d="M228.61 233.566C228.61 236.025 226.616 238.68 224.157 238.68C221.697 238.68 219.704 236.025 219.704 233.566C219.704 231.106 221.697 229.362 224.157 229.362C226.616 229.362 228.61 231.106 228.61 233.566Z" fill="url(#paint39_linear_183_19826)"/>
<path d="M218.63 248.149H229.501C230.645 248.149 231.658 247.409 232.007 246.319L232.592 244.491C233.02 243.152 232.324 241.703 231.004 241.22C226.58 239.603 222.005 239.81 217.319 241.369C216.006 241.806 215.278 243.211 215.64 244.546L216.09 246.206C216.402 247.353 217.442 248.149 218.63 248.149Z" fill="url(#paint40_linear_183_19826)"/>
<g opacity="0.8">
<path d="M284.628 228.091C284.628 228.898 283.975 229.551 283.169 229.551H247.82C247.014 229.551 246.36 228.898 246.36 228.091C246.36 227.285 247.014 226.632 247.82 226.632H283.169C283.974 226.632 284.628 227.285 284.628 228.091Z" fill="white"/>
<path d="M334.895 242.36C334.895 243.167 334.241 243.82 333.435 243.82H298.086C297.28 243.82 296.627 243.167 296.627 242.36C296.627 241.554 297.28 240.901 298.086 240.901H333.435C334.241 240.901 334.895 241.555 334.895 242.36Z" fill="white"/>
<path d="M334.894 235.55C334.894 236.356 334.241 237.01 333.435 237.01H247.82C247.014 237.01 246.36 236.356 246.36 235.55C246.36 234.744 247.014 234.091 247.82 234.091H333.435C334.241 234.091 334.894 234.744 334.894 235.55Z" fill="white"/>
<path d="M334.894 249.495C334.894 250.301 334.241 250.955 333.435 250.955H247.82C247.014 250.955 246.36 250.301 246.36 249.495C246.36 248.689 247.014 248.036 247.82 248.036H333.435C334.241 248.036 334.894 248.689 334.894 249.495Z" fill="white"/>
<path d="M292.087 242.36C292.087 243.167 291.434 243.82 290.628 243.82H247.82C247.014 243.82 246.36 243.167 246.36 242.36C246.36 241.554 247.014 240.901 247.82 240.901H290.627C291.433 240.901 292.087 241.555 292.087 242.36Z" fill="white"/>
</g>
<path d="M366.607 260.035H496.139C502.191 260.035 507.097 264.95 507.097 271.002V296.757C507.097 302.81 502.191 307.707 496.139 307.707H383.917C383.529 307.707 383.214 308.031 383.214 308.419V322.202C383.214 322.502 383.023 322.769 382.739 322.866C382.455 322.963 382.14 322.869 381.956 322.632L370.607 307.984C370.474 307.812 370.269 307.707 370.052 307.707H366.607C360.555 307.707 355.649 302.81 355.649 296.757V271.002C355.649 264.95 360.555 260.035 366.607 260.035Z" fill="url(#paint41_linear_183_19826)"/>
<path opacity="0.78" d="M396.826 289.687C399.896 282.276 396.377 273.779 388.966 270.709C381.555 267.639 373.058 271.159 369.988 278.57C366.918 285.981 370.438 294.478 377.849 297.547C385.26 300.617 393.757 297.098 396.826 289.687Z" fill="white"/>
<path d="M387.841 278.643C387.841 281.103 385.847 283.758 383.388 283.758C380.928 283.758 378.935 281.103 378.935 278.643C378.935 276.184 380.928 274.439 383.388 274.439C385.847 274.439 387.841 276.184 387.841 278.643Z" fill="url(#paint42_linear_183_19826)"/>
<path d="M377.861 293.226H388.732C389.876 293.226 390.889 292.487 391.238 291.397L391.823 289.568C392.251 288.23 391.555 286.78 390.235 286.298C385.811 284.68 381.236 284.888 376.55 286.447C375.237 286.884 374.509 288.288 374.871 289.623L375.322 291.283C375.633 292.43 376.673 293.226 377.861 293.226Z" fill="url(#paint43_linear_183_19826)"/>
<g opacity="0.8">
<path d="M443.859 273.169C443.859 273.975 443.206 274.628 442.4 274.628H407.051C406.245 274.628 405.592 273.975 405.592 273.169C405.592 272.363 406.245 271.709 407.051 271.709H442.4C443.206 271.709 443.859 272.363 443.859 273.169Z" fill="white"/>
<path d="M494.125 287.438C494.125 288.244 493.472 288.897 492.666 288.897H457.317C456.511 288.897 455.858 288.244 455.858 287.438C455.858 286.632 456.511 285.979 457.317 285.979H492.666C493.472 285.979 494.125 286.632 494.125 287.438Z" fill="white"/>
<path d="M494.125 280.628C494.125 281.434 493.472 282.087 492.666 282.087H407.051C406.245 282.087 405.591 281.434 405.591 280.628C405.591 279.822 406.245 279.168 407.051 279.168H492.666C493.472 279.168 494.125 279.822 494.125 280.628Z" fill="white"/>
<path d="M494.125 294.573C494.125 295.379 493.472 296.032 492.666 296.032H407.051C406.245 296.032 405.591 295.379 405.591 294.573C405.591 293.767 406.245 293.113 407.051 293.113H492.666C493.472 293.113 494.125 293.767 494.125 294.573Z" fill="white"/>
<path d="M451.318 287.438C451.318 288.244 450.665 288.897 449.859 288.897H407.051C406.245 288.897 405.592 288.244 405.592 287.438C405.592 286.632 406.245 285.979 407.051 285.979H449.859C450.664 285.979 451.318 286.632 451.318 287.438Z" fill="white"/>
</g>
<path d="M541.53 172.284H497.75C493.813 172.284 490.62 175.476 490.62 179.414V190.648C490.62 194.586 493.812 197.778 497.75 197.778H511.271C511.61 197.778 511.917 197.976 512.056 198.285L517.658 210.722C517.779 210.99 518.042 211.166 518.336 211.176C518.63 211.186 518.904 211.029 519.043 210.769L525.761 198.232C525.911 197.952 526.202 197.778 526.519 197.778H541.53C545.467 197.778 548.659 194.585 548.659 190.648V179.414C548.66 175.476 545.468 172.284 541.53 172.284Z" fill="url(#paint44_linear_183_19826)"/>
<path d="M505.959 180.466C504.616 179.145 502.52 179.543 501.078 180.754C500.871 180.927 500.572 180.929 500.362 180.759C498.9 179.574 496.807 179.213 495.487 180.556C494.054 182.014 494.074 184.358 495.532 185.792L500.412 190.588C500.634 190.806 500.99 190.803 501.208 190.581L506.004 185.702C507.437 184.243 507.417 181.899 505.959 180.466Z" fill="white"/>
<path d="M515.276 180.269H515.233L512.703 181.545L512.256 179.568L515.616 177.909H517.806V191.73H515.276V180.269H515.276Z" fill="white"/>
<path d="M522.566 191.73V190.135L524.204 188.626C527.457 185.606 528.988 183.948 529.009 182.12C529.009 180.886 528.35 179.802 526.543 179.802C525.331 179.802 524.289 180.418 523.587 180.95L522.822 179.1C523.821 178.292 525.331 177.675 527.074 177.675C530.136 177.675 531.625 179.61 531.625 181.864C531.625 184.288 529.881 186.244 527.479 188.477L526.267 189.519V189.561H531.943V191.73L522.566 191.73Z" fill="white"/>
<path d="M542.743 180.078H537.427L537.024 182.842C537.342 182.799 537.619 182.778 538.023 182.778C539.235 182.778 540.447 183.055 541.382 183.671C542.424 184.33 543.19 185.5 543.19 187.18C543.19 189.816 541 191.964 537.598 191.964C536.003 191.964 534.663 191.56 533.94 191.156L534.472 189.178C535.067 189.497 536.258 189.901 537.513 189.901C539.044 189.901 540.511 189.029 540.511 187.371C540.511 185.798 539.341 184.756 536.577 184.756C535.812 184.756 535.238 184.798 534.685 184.883L535.599 177.909H542.743V180.078H542.743Z" fill="white"/>
<path d="M174.388 178.698H130.609C126.671 178.698 123.479 181.89 123.479 185.828V197.062C123.479 201 126.671 204.192 130.609 204.192H144.13C144.469 204.192 144.776 204.39 144.915 204.699L150.517 217.136C150.638 217.404 150.901 217.581 151.195 217.591C151.489 217.601 151.763 217.443 151.902 217.183L158.62 204.646C158.77 204.366 159.061 204.192 159.378 204.192H174.388C178.326 204.192 181.519 201 181.519 197.062V185.828C181.519 181.89 178.326 178.698 174.388 178.698Z" fill="url(#paint45_linear_183_19826)"/>
<path d="M139.903 186.88C138.559 185.56 136.464 185.957 135.022 187.168C134.815 187.342 134.515 187.344 134.306 187.174C132.844 185.989 130.751 185.628 129.431 186.971C127.998 188.429 128.018 190.773 129.476 192.206L134.356 197.003C134.577 197.22 134.934 197.217 135.152 196.996L139.948 192.116C141.381 190.658 141.361 188.314 139.903 186.88Z" fill="white"/>
<path d="M147.112 186.684H147.07L144.539 187.96L144.093 185.982L147.452 184.324H149.643V198.145H147.112V186.684Z" fill="white"/>
<path d="M164.163 191.149C164.163 195.593 162.419 198.378 159.124 198.378C155.934 198.378 154.233 195.487 154.212 191.276C154.212 186.981 156.041 184.089 159.272 184.089C162.611 184.09 164.163 187.066 164.163 191.149ZM156.848 191.277C156.827 194.636 157.763 196.38 159.209 196.38C160.74 196.38 161.548 194.509 161.548 191.192C161.548 187.981 160.782 186.089 159.209 186.089C157.805 186.089 156.827 187.811 156.848 191.277Z" fill="white"/>
<path d="M175.558 191.149C175.558 195.593 173.814 198.378 170.519 198.378C167.329 198.378 165.628 195.487 165.607 191.276C165.607 186.981 167.435 184.089 170.667 184.089C174.005 184.09 175.558 187.066 175.558 191.149ZM168.243 191.277C168.222 194.636 169.158 196.38 170.604 196.38C172.135 196.38 172.943 194.509 172.943 191.192C172.943 187.981 172.177 186.089 170.604 186.089C169.2 186.089 168.222 187.811 168.243 191.277Z" fill="white"/>
</g>
<defs>
<linearGradient id="paint0_linear_183_19826" x1="22.9994" y1="185.337" x2="645.294" y2="185.337" gradientUnits="userSpaceOnUse">
<stop stop-color="#B37CFF"/>
<stop offset="1" stop-color="#F895E7"/>
</linearGradient>
<linearGradient id="paint1_linear_183_19826" x1="51.0966" y1="216.426" x2="646.583" y2="185.218" gradientUnits="userSpaceOnUse">
<stop stop-color="#B37CFF"/>
<stop offset="1" stop-color="#F895E7"/>
</linearGradient>
<linearGradient id="paint2_linear_183_19826" x1="210.081" y1="142.952" x2="247.898" y2="376.593" gradientUnits="userSpaceOnUse">
<stop stop-color="#ED539F"/>
<stop offset="1" stop-color="#A061C2"/>
</linearGradient>
<linearGradient id="paint3_linear_183_19826" x1="218.315" y1="195.849" x2="246.226" y2="368.288" gradientUnits="userSpaceOnUse">
<stop stop-color="#2B3582"/>
<stop offset="1" stop-color="#150E42"/>
</linearGradient>
<linearGradient id="paint4_linear_183_19826" x1="173.945" y1="257.47" x2="298.658" y2="476.746" gradientUnits="userSpaceOnUse">
<stop stop-color="#B37CFF"/>
<stop offset="1" stop-color="#F895E7"/>
</linearGradient>
<linearGradient id="paint5_linear_183_19826" x1="210.877" y1="290.398" x2="230.808" y2="387.088" gradientUnits="userSpaceOnUse">
<stop stop-color="#2B3582"/>
<stop offset="1" stop-color="#150E42"/>
</linearGradient>
<linearGradient id="paint6_linear_183_19826" x1="457.399" y1="158.307" x2="422.266" y2="375.364" gradientUnits="userSpaceOnUse">
<stop stop-color="#ED539F"/>
<stop offset="1" stop-color="#A061C2"/>
</linearGradient>
<linearGradient id="paint7_linear_183_19826" x1="449.749" y1="207.45" x2="423.819" y2="367.65" gradientUnits="userSpaceOnUse">
<stop stop-color="#2B3582"/>
<stop offset="1" stop-color="#150E42"/>
</linearGradient>
<linearGradient id="paint8_linear_183_19826" x1="497.971" y1="256.869" x2="373.258" y2="476.145" gradientUnits="userSpaceOnUse">
<stop stop-color="#B37CFF"/>
<stop offset="1" stop-color="#F895E7"/>
</linearGradient>
<linearGradient id="paint9_linear_183_19826" x1="461.039" y1="289.796" x2="441.108" y2="386.487" gradientUnits="userSpaceOnUse">
<stop stop-color="#2B3582"/>
<stop offset="1" stop-color="#150E42"/>
</linearGradient>
<linearGradient id="paint10_linear_183_19826" x1="107.533" y1="-343.161" x2="955.599" y2="557.998" gradientUnits="userSpaceOnUse">
<stop stop-color="#53D8FF"/>
<stop offset="1" stop-color="#3840F7"/>
</linearGradient>
<linearGradient id="paint11_linear_183_19826" x1="438.639" y1="227.079" x2="232.814" y2="222.529" gradientUnits="userSpaceOnUse">
<stop stop-color="#2B3582"/>
<stop offset="1" stop-color="#150E42"/>
</linearGradient>
<linearGradient id="paint12_linear_183_19826" x1="284.407" y1="141.807" x2="696.347" y2="693.484" gradientUnits="userSpaceOnUse">
<stop stop-color="#53D8FF"/>
<stop offset="1" stop-color="#3840F7"/>
</linearGradient>
<linearGradient id="paint13_linear_183_19826" x1="348.197" y1="70.9545" x2="402.336" y2="191.459" gradientUnits="userSpaceOnUse">
<stop stop-color="#2B3582"/>
<stop offset="1" stop-color="#150E42"/>
</linearGradient>
<linearGradient id="paint14_linear_183_19826" x1="260.629" y1="157.565" x2="410.132" y2="157.565" gradientUnits="userSpaceOnUse">
<stop stop-color="#7C27DD"/>
<stop offset="1" stop-color="#2B41D9"/>
</linearGradient>
<linearGradient id="paint15_linear_183_19826" x1="262.251" y1="213.498" x2="409.807" y2="213.498" gradientUnits="userSpaceOnUse">
<stop stop-color="#7C27DD"/>
<stop offset="1" stop-color="#2B41D9"/>
</linearGradient>
<linearGradient id="paint16_linear_183_19826" x1="262.251" y1="234.901" x2="409.807" y2="234.901" gradientUnits="userSpaceOnUse">
<stop stop-color="#7C27DD"/>
<stop offset="1" stop-color="#2B41D9"/>
</linearGradient>
<linearGradient id="paint17_linear_183_19826" x1="262.251" y1="256.305" x2="409.807" y2="256.305" gradientUnits="userSpaceOnUse">
<stop stop-color="#7C27DD"/>
<stop offset="1" stop-color="#2B41D9"/>
</linearGradient>
<linearGradient id="paint18_linear_183_19826" x1="262.251" y1="277.709" x2="409.807" y2="277.709" gradientUnits="userSpaceOnUse">
<stop stop-color="#7C27DD"/>
<stop offset="1" stop-color="#2B41D9"/>
</linearGradient>
<linearGradient id="paint19_linear_183_19826" x1="262.251" y1="299.113" x2="409.807" y2="299.113" gradientUnits="userSpaceOnUse">
<stop stop-color="#7C27DD"/>
<stop offset="1" stop-color="#2B41D9"/>
</linearGradient>
<linearGradient id="paint20_linear_183_19826" x1="262.251" y1="320.517" x2="409.807" y2="320.517" gradientUnits="userSpaceOnUse">
<stop stop-color="#7C27DD"/>
<stop offset="1" stop-color="#2B41D9"/>
</linearGradient>
<linearGradient id="paint21_linear_183_19826" x1="262.25" y1="100.155" x2="342.353" y2="100.155" gradientUnits="userSpaceOnUse">
<stop stop-color="#7C27DD"/>
<stop offset="1" stop-color="#2B41D9"/>
</linearGradient>
<linearGradient id="paint22_linear_183_19826" x1="111.674" y1="-347.062" x2="959.741" y2="554.097" gradientUnits="userSpaceOnUse">
<stop stop-color="#53D8FF"/>
<stop offset="1" stop-color="#3840F7"/>
</linearGradient>
<linearGradient id="paint23_linear_183_19826" x1="66.2599" y1="-304.323" x2="914.328" y2="596.838" gradientUnits="userSpaceOnUse">
<stop stop-color="#53D8FF"/>
<stop offset="1" stop-color="#3840F7"/>
</linearGradient>
<linearGradient id="paint24_linear_183_19826" x1="153.017" y1="-385.969" x2="1001.08" y2="515.192" gradientUnits="userSpaceOnUse">
<stop stop-color="#53D8FF"/>
<stop offset="1" stop-color="#3840F7"/>
</linearGradient>
<linearGradient id="paint25_linear_183_19826" x1="-63.8784" y1="-181.85" x2="784.19" y2="719.31" gradientUnits="userSpaceOnUse">
<stop stop-color="#53D8FF"/>
<stop offset="1" stop-color="#3840F7"/>
</linearGradient>
<linearGradient id="paint26_linear_183_19826" x1="-160.793" y1="-90.6446" x2="687.276" y2="810.517" gradientUnits="userSpaceOnUse">
<stop stop-color="#53D8FF"/>
<stop offset="1" stop-color="#3840F7"/>
</linearGradient>
<linearGradient id="paint27_linear_183_19826" x1="-112.18" y1="-136.394" x2="735.889" y2="764.767" gradientUnits="userSpaceOnUse">
<stop stop-color="#53D8FF"/>
<stop offset="1" stop-color="#3840F7"/>
</linearGradient>
<linearGradient id="paint28_linear_183_19826" x1="-104.347" y1="-143.765" x2="743.723" y2="757.396" gradientUnits="userSpaceOnUse">
<stop stop-color="#53D8FF"/>
<stop offset="1" stop-color="#3840F7"/>
</linearGradient>
<linearGradient id="paint29_linear_183_19826" x1="352.835" y1="38.3567" x2="330.539" y2="34.0501" gradientUnits="userSpaceOnUse">
<stop stop-color="#FDF53F"/>
<stop offset="1" stop-color="#D93C65"/>
</linearGradient>
<linearGradient id="paint30_linear_183_19826" x1="336.805" y1="55.7189" x2="353.55" y2="47.7698" gradientUnits="userSpaceOnUse">
<stop stop-color="#53D8FF"/>
<stop offset="1" stop-color="#3840F7"/>
</linearGradient>
<linearGradient id="paint31_linear_183_19826" x1="336.581" y1="13.0517" x2="357.907" y2="26.0411" gradientUnits="userSpaceOnUse">
<stop stop-color="#53D8FF"/>
<stop offset="1" stop-color="#3840F7"/>
</linearGradient>
<linearGradient id="paint32_linear_183_19826" x1="375.999" y1="29.5772" x2="298.672" y2="86.8064" gradientUnits="userSpaceOnUse">
<stop stop-color="#53D8FF"/>
<stop offset="1" stop-color="#3840F7"/>
</linearGradient>
<linearGradient id="paint33_linear_183_19826" x1="396.67" y1="29.8345" x2="371.487" y2="46.7653" gradientUnits="userSpaceOnUse">
<stop stop-color="#FDF53F"/>
<stop offset="1" stop-color="#D93C65"/>
</linearGradient>
<linearGradient id="paint34_linear_183_19826" x1="379.276" y1="41.167" x2="370.917" y2="30.717" gradientUnits="userSpaceOnUse">
<stop stop-color="#53D8FF"/>
<stop offset="1" stop-color="#3840F7"/>
</linearGradient>
<linearGradient id="paint35_linear_183_19826" x1="375.207" y1="41.2301" x2="375.35" y2="30.274" gradientUnits="userSpaceOnUse">
<stop stop-color="#2B3582"/>
<stop offset="1" stop-color="#150E42"/>
</linearGradient>
<linearGradient id="paint36_linear_183_19826" x1="364.984" y1="39.2272" x2="359.462" y2="32.3235" gradientUnits="userSpaceOnUse">
<stop stop-color="#53D8FF"/>
<stop offset="1" stop-color="#3840F7"/>
</linearGradient>
<linearGradient id="paint37_linear_183_19826" x1="362.296" y1="39.2687" x2="362.39" y2="32.0308" gradientUnits="userSpaceOnUse">
<stop stop-color="#2B3582"/>
<stop offset="1" stop-color="#150E42"/>
</linearGradient>
<linearGradient id="paint38_linear_183_19826" x1="374.742" y1="290.131" x2="76.4519" y2="139.938" gradientUnits="userSpaceOnUse">
<stop stop-color="#FDF53F"/>
<stop offset="1" stop-color="#D93C65"/>
</linearGradient>
<linearGradient id="paint39_linear_183_19826" x1="213.917" y1="202.456" x2="246.401" y2="301.304" gradientUnits="userSpaceOnUse">
<stop stop-color="#FDF53F"/>
<stop offset="1" stop-color="#D93C65"/>
</linearGradient>
<linearGradient id="paint40_linear_183_19826" x1="210.841" y1="203.467" x2="243.324" y2="302.315" gradientUnits="userSpaceOnUse">
<stop stop-color="#FDF53F"/>
<stop offset="1" stop-color="#D93C65"/>
</linearGradient>
<linearGradient id="paint41_linear_183_19826" x1="338.412" y1="319.813" x2="749.173" y2="161.004" gradientUnits="userSpaceOnUse">
<stop stop-color="#FDF53F"/>
<stop offset="1" stop-color="#D93C65"/>
</linearGradient>
<linearGradient id="paint42_linear_183_19826" x1="365.697" y1="231.349" x2="411.105" y2="352.902" gradientUnits="userSpaceOnUse">
<stop stop-color="#FDF53F"/>
<stop offset="1" stop-color="#D93C65"/>
</linearGradient>
<linearGradient id="paint43_linear_183_19826" x1="362.277" y1="232.627" x2="407.684" y2="354.179" gradientUnits="userSpaceOnUse">
<stop stop-color="#FDF53F"/>
<stop offset="1" stop-color="#D93C65"/>
</linearGradient>
<linearGradient id="paint44_linear_183_19826" x1="526.313" y1="151.983" x2="503.911" y2="262.926" gradientUnits="userSpaceOnUse">
<stop stop-color="#C32B78"/>
<stop offset="1" stop-color="#593092"/>
</linearGradient>
<linearGradient id="paint45_linear_183_19826" x1="159.172" y1="158.398" x2="136.77" y2="269.34" gradientUnits="userSpaceOnUse">
<stop stop-color="#C32B78"/>
<stop offset="1" stop-color="#593092"/>
</linearGradient>
<clipPath id="clip0_183_19826">
<rect width="666" height="390" fill="white"/>
</clipPath>
</defs>
</svg>
