<svg width="64" height="64" viewBox="0 0 64 64" fill="none" xmlns="http://www.w3.org/2000/svg">
<rect width="64" height="64" rx="32" fill="url(#paint0_linear_165_5111)"/>
<path fill-rule="evenodd" clip-rule="evenodd" d="M42.3397 24.5917C42.4923 24.778 42.4666 25.0542 42.2803 25.2068C42.094 25.361 41.8178 25.3337 41.6652 25.1474C41.5432 24.998 41.3697 24.8728 41.1625 24.7844C40.9553 24.6945 40.7145 24.6447 40.4575 24.6447C40.0496 24.6447 39.685 24.7716 39.4264 24.9756C39.1968 25.157 39.0555 25.3995 39.0555 25.6613C39.0555 25.9231 39.1968 26.1656 39.4264 26.3471C39.685 26.5511 40.048 26.678 40.4575 26.678C41.0646 26.678 41.6218 26.8771 42.0298 27.1999C42.4666 27.5452 42.7364 28.0302 42.7364 28.5714C42.7364 29.1142 42.4666 29.5976 42.0298 29.9429C41.723 30.1854 41.3312 30.3589 40.8959 30.4295V31.1265C40.8959 31.369 40.7 31.565 40.4575 31.565C40.215 31.565 40.0191 31.369 40.0191 31.1265V30.4295C39.7701 30.3894 39.534 30.3155 39.3205 30.2143C38.9639 30.0441 38.6684 29.7952 38.4661 29.4948C38.3312 29.2941 38.3858 29.0227 38.5865 28.8878C38.7873 28.7528 39.0587 28.8075 39.1936 29.0082C39.306 29.1752 39.4811 29.3198 39.6979 29.4226C39.9179 29.5269 40.1781 29.588 40.4576 29.588C40.8655 29.588 41.23 29.4611 41.4886 29.2571C41.7183 29.0757 41.8596 28.8332 41.8596 28.5714C41.8596 28.3096 41.7183 28.0671 41.4886 27.8856C41.23 27.6816 40.8671 27.5547 40.4576 27.5547C39.8489 27.5547 39.2932 27.3556 38.8853 27.0328C38.4485 26.6875 38.1786 26.2025 38.1786 25.6613C38.1786 25.1201 38.4484 24.635 38.8853 24.2898C39.192 24.0473 39.5839 23.8738 40.0191 23.8032V23.1062C40.0191 22.8636 40.2151 22.6677 40.4576 22.6677C40.7001 22.6677 40.896 22.8636 40.896 23.1062V23.8032C41.1128 23.8385 41.3184 23.8979 41.5079 23.9798C41.8419 24.1211 42.1277 24.3331 42.3397 24.5917ZM19.6117 29.58C18.8392 28.7449 18.3654 27.6962 18.2385 26.617C18.1117 25.5538 18.3188 24.4553 18.8986 23.4933C19.7755 22.0382 21.1133 21.2545 22.5105 21.0216C23.4019 20.8723 24.3189 20.9494 25.1556 21.2208C25.9988 21.4938 26.7633 21.9644 27.343 22.5988C28.146 23.4788 28.5941 24.6673 28.4142 26.0822C28.4014 26.1866 28.3982 26.2059 28.395 26.2267V26.2284C28.3709 26.3889 28.3484 26.5351 28.3998 26.609C28.5796 26.8708 28.7499 27.1647 28.9009 27.4585C29.0791 27.8038 29.2269 28.1443 29.3329 28.4238C29.3698 28.5217 29.3811 28.6245 29.3682 28.7257C29.3554 28.8285 29.3184 28.9248 29.2574 29.01C29.1964 29.0967 29.1177 29.1641 29.0261 29.2107C28.9362 29.2557 28.8366 29.2798 28.7306 29.2766L28.5427 29.275C28.5395 29.3649 28.5315 29.4677 28.5203 29.5769V29.5785C28.5074 29.6957 28.4624 29.8017 28.3918 29.8868C28.4046 30.0587 28.3259 30.2835 28.0914 30.5742C28.2087 31.9618 27.8313 32.23 26.6653 32.3312C26.5015 32.3456 26.2734 32.3553 26.0117 32.3681C25.8976 32.3729 25.7756 32.3794 25.623 32.3874C25.5604 32.4484 25.5186 32.5159 25.4929 32.5865C25.456 32.6925 25.448 32.8162 25.4624 32.9543C25.4704 33.0314 25.4624 33.1069 25.4383 33.1792C25.4158 33.2514 25.3773 33.3173 25.3259 33.3751C25.2729 33.4345 25.2135 33.4795 25.1444 33.5116C25.077 33.5437 25.0015 33.5598 24.9228 33.5614C24.0539 33.5774 23.2092 33.5212 22.3644 33.465C21.5277 33.4088 20.6926 33.3526 19.8799 33.3687C19.7852 33.3703 19.6952 33.3478 19.6149 33.3044C19.5346 33.2594 19.4656 33.1952 19.4158 33.1117C19.3676 33.0298 19.3419 32.9399 19.3403 32.8467C19.3387 32.7536 19.3612 32.662 19.4077 32.5817C19.6551 32.1401 19.7611 31.7097 19.7803 31.2471C19.7996 30.7589 19.7241 30.2161 19.6117 29.5849L19.6117 29.58ZM19.109 26.5142C19.2166 27.4184 19.6101 28.2936 20.2541 28.989C20.3038 29.0436 20.3456 29.0998 20.3793 29.1593C20.3857 29.1705 20.3922 29.1818 20.3986 29.193C20.4355 29.2685 20.4612 29.3472 20.4773 29.4339C20.5977 30.1132 20.6797 30.7075 20.6556 31.2824C20.6379 31.7 20.5672 32.0983 20.4163 32.4949C21.094 32.503 21.7589 32.5479 22.4238 32.5929C23.1497 32.6411 23.8756 32.6893 24.587 32.6925C24.5967 32.556 24.624 32.4243 24.669 32.2974C24.7573 32.0485 24.9099 31.8285 25.146 31.6454V31.647L25.1476 31.6454C25.1941 31.6084 25.2471 31.5795 25.3049 31.5587C25.3628 31.5378 25.4206 31.5249 25.48 31.5217C25.6326 31.5137 25.8108 31.504 25.9746 31.4976C26.1947 31.488 26.389 31.4784 26.5929 31.4607C27.1037 31.4173 27.2707 31.2921 27.2161 30.6496V30.6416C27.2129 30.6015 27.2113 30.5902 27.2096 30.5822C27.1759 30.3461 27.1711 30.3172 27.3189 30.1373C27.0747 30.0683 26.9398 29.9848 27.0635 29.6041C27.0667 29.5961 27.0683 29.5865 27.0715 29.5784C27.1663 29.3086 27.3012 29.2942 27.6673 29.2572L27.669 29.2107C27.6706 29.1352 27.669 29.079 27.6657 29.0452C27.6545 28.9537 27.6657 28.867 27.6946 28.7851C27.722 28.708 27.7669 28.6373 27.8247 28.5779C27.8826 28.5169 27.9484 28.4719 28.0239 28.4398C28.0962 28.4093 28.1749 28.3948 28.2584 28.3964L28.374 28.398C28.2985 28.2246 28.2134 28.0399 28.1202 27.8568C27.9886 27.5982 27.8376 27.3381 27.677 27.1068C27.4281 26.7454 27.4746 26.4371 27.5244 26.0982C27.5341 26.0308 27.5421 25.9858 27.5437 25.973C27.6882 24.8407 27.3317 23.89 26.6925 23.1898C26.2172 22.6694 25.586 22.2824 24.8858 22.0543C24.1791 21.8247 23.405 21.7604 22.6518 21.8857C21.4907 22.08 20.3777 22.7321 19.647 23.9446C19.1732 24.7348 19.0046 25.6373 19.109 26.5142ZM32.0018 32.5045L17.3953 40.9361C18.102 42.0892 18.9419 43.1523 19.8943 44.1047C22.9923 47.2027 27.2721 49.1185 32.0002 49.1185C36.7283 49.1185 41.0082 47.2025 44.1061 44.1047C45.0585 43.1523 45.8985 42.0892 46.6051 40.9361L32.0018 32.5045ZM16.9567 40.1779L31.5615 31.7463V14.8831C27.0069 14.9971 22.8955 16.8906 19.8938 19.8924C16.7958 22.9904 14.88 27.2703 14.88 31.9984C14.88 34.9614 15.6317 37.7477 16.9567 40.1779ZM32.4384 31.7463L47.0433 40.1779C48.3682 37.748 49.1198 34.9602 49.1198 31.9971C49.1198 27.269 47.2039 22.9891 44.106 19.8912C41.1044 16.8912 36.9929 14.9978 32.4384 14.8835L32.4384 31.7463ZM32 14C27.0294 14 22.5311 16.0139 19.2724 19.2724C16.0154 22.5294 14 27.0293 14 32C14 36.9706 16.0139 41.4705 19.2724 44.7276C22.5294 47.9846 27.0294 50 32 50C36.9707 50 41.4705 47.9861 44.7276 44.7276C47.9846 41.4706 50 36.9706 50 32C50 27.0293 47.9861 22.5311 44.7276 19.2724C41.4691 16.0137 36.9707 14 32 14ZM40.4571 32.4078C41.9186 32.4078 43.2419 31.8152 44.1991 30.8581C45.1563 29.9009 45.7489 28.5775 45.7489 27.1161C45.7489 25.6546 45.1563 24.3313 44.1991 23.3741C43.2419 22.4169 41.9186 21.8243 40.4571 21.8243C38.9956 21.8243 37.6723 22.4169 36.7151 23.3741C35.7579 24.3312 35.1653 25.6546 35.1653 27.1161C35.1653 28.5775 35.7579 29.9009 36.7151 30.8581C37.6723 31.8152 38.9956 32.4078 40.4571 32.4078ZM44.8205 31.478C45.9366 30.3618 46.6272 28.8184 46.6272 27.1146C46.6272 25.4106 45.9366 23.8673 44.8205 22.7512C43.7043 21.635 42.1609 20.9444 40.4571 20.9444C38.7531 20.9444 37.2098 21.635 36.0937 22.7512C34.9775 23.8673 34.287 25.4107 34.287 27.1146C34.287 28.8185 34.9775 30.3619 36.0937 31.478C37.2098 32.5941 38.7533 33.2847 40.4571 33.2847C42.1611 33.2863 43.7044 32.5957 44.8205 31.478ZM34.8294 36.9223H36.7165C36.8739 36.9223 37.0184 36.9865 37.1228 37.0909C37.2272 37.1953 37.2914 37.3382 37.2914 37.4972V45.5917C37.2914 45.7491 37.2272 45.8936 37.1228 45.998C37.0184 46.1024 36.8755 46.1666 36.7165 46.1666L27.2813 46.165C27.1239 46.165 26.9794 46.1008 26.875 45.9964C26.7706 45.892 26.7063 45.7491 26.7063 45.5901V37.4972C26.7063 37.3399 26.7706 37.1953 26.875 37.0909C26.9794 36.9865 27.1223 36.9223 27.2813 36.9223H29.8027V39.1129C29.8027 39.3554 29.9987 39.5513 30.2412 39.5513H34.3895C34.632 39.5513 34.828 39.3554 34.828 39.1129L34.8294 36.9223ZM30.6811 36.9223H33.9509V38.6728H30.6811V36.9223ZM27.2812 36.0438H36.7164C37.1163 36.0438 37.4792 36.2076 37.7426 36.471C38.006 36.7344 38.1682 37.0973 38.1682 37.4972V45.5917C38.1682 45.9916 38.0044 46.3546 37.7426 46.6179C37.4792 46.8813 37.1163 47.0452 36.7164 47.0452L27.2812 47.0436C26.8813 47.0436 26.5183 46.8797 26.2549 46.6163C25.9915 46.353 25.8277 45.99 25.8277 45.5901L25.8293 37.4973C25.8293 37.0974 25.9931 36.7344 26.2565 36.471C26.5183 36.2076 26.8813 36.0438 27.2812 36.0438Z" fill="white"/>
<defs>
<linearGradient id="paint0_linear_165_5111" x1="64" y1="7.62939e-06" x2="7.62939e-06" y2="64" gradientUnits="userSpaceOnUse">
<stop stop-color="#F65A75"/>
<stop offset="1" stop-color="#48179C"/>
</linearGradient>
</defs>
</svg>
