<svg width="64" height="64" viewBox="0 0 64 64" fill="none" xmlns="http://www.w3.org/2000/svg">
<rect width="64" height="64" rx="32" fill="url(#paint0_linear_164_4914)"/>
<path fill-rule="evenodd" clip-rule="evenodd" d="M29.2761 21.8553C28.7609 21.8553 28.7609 21.0727 29.2761 21.0727H40.7238C43.9522 21.0727 46.5923 23.7127 46.5923 26.9412C46.5923 30.1696 43.9522 32.8096 40.7238 32.8096C40.2086 32.8096 40.2086 32.027 40.7238 32.027C43.5202 32.027 45.8097 29.7377 45.8097 26.9412C45.8097 24.1447 43.5202 21.8553 40.7238 21.8553H29.2761ZM24.3233 45.5248C23.8081 45.5248 23.8081 44.7422 24.3233 44.7422H28.0094C28.5246 44.7422 28.5246 45.5248 28.0094 45.5248H24.3233ZM24.3233 43.764C23.8081 43.764 23.8081 42.9813 24.3233 42.9813H28.0094C28.5246 42.9813 28.5246 43.764 28.0094 43.764H24.3233ZM32.1506 34.5239C31.6354 34.5239 31.6354 33.7413 32.1506 33.7413H35.8367C36.3519 33.7413 36.3519 34.5239 35.8367 34.5239H32.1506ZM32.1506 32.7631H35.8367C36.3519 32.7631 36.3519 31.9805 35.8367 31.9805H32.1506C31.6354 31.9805 31.6354 32.7631 32.1506 32.7631ZM27.6335 37.6025H21.8318C21.6157 37.6025 21.4405 37.7777 21.4405 37.9938V48.7514C21.4405 48.9674 21.6157 49.1427 21.8318 49.1427H30.501C30.7268 49.1427 30.903 48.9615 30.8906 48.7144L30.8461 41.3144C30.851 41.1846 30.819 41.0989 30.7341 41.0067L27.9482 37.7612C27.877 37.665 27.7626 37.6025 27.6335 37.6025ZM28.0248 39.0489L29.6059 40.8909H28.0248V39.0489ZM30.0687 41.6735H27.6335C27.4174 41.6735 27.2422 41.4982 27.2422 41.2821V38.3851H22.2231V48.3601H30.1088L30.0687 41.6735ZM43.3041 44.1405C43.1335 44.0088 43.1021 43.7638 43.2338 43.5933C43.3654 43.4227 43.6105 43.3913 43.781 43.5229L44.6895 44.2218L46.2772 42.0738C46.4056 41.9007 46.6498 41.8644 46.8229 41.9928C46.996 42.1211 47.0323 42.3654 46.9039 42.5385L45.0802 45.0058C44.9511 45.1819 44.7006 45.2149 44.5284 45.0823L43.3041 44.1405ZM45.2338 38.6064C42.6017 38.6064 40.4677 40.7404 40.4677 43.3726C40.4677 46.0047 42.6016 48.1387 45.2338 48.1387C47.8661 48.1387 50 46.0048 50 43.3726C50 40.7404 47.8661 38.6064 45.2338 38.6064ZM48.0507 40.5557C46.495 39.0001 43.9727 39.0001 42.417 40.5557C40.8614 42.1113 40.8614 44.6337 42.417 46.1894C43.9726 47.745 46.4951 47.745 48.0507 46.1894C49.6063 44.6338 49.6063 42.1113 48.0507 40.5557ZM35.4608 25.6588H29.6591C29.443 25.6588 29.2678 25.834 29.2678 26.0501V36.8077C29.2678 37.0237 29.443 37.199 29.6591 37.199H38.3282C38.554 37.199 38.7302 37.0178 38.7178 36.7707L38.6734 29.3707C38.6782 29.2409 38.6463 29.1552 38.5614 29.063L35.7755 25.8175C35.7042 25.7213 35.5897 25.6588 35.4608 25.6588ZM35.8521 27.1052V28.9472H37.4332L35.8521 27.1052ZM37.8959 29.7297H35.4608C35.2447 29.7297 35.0695 29.5545 35.0695 29.3384V26.4414H30.0504V36.4164H37.9361L37.8959 29.7297ZM21.6081 19.8517C22.909 19.8517 23.6263 21.3677 22.8078 22.3732C23.2046 22.5179 23.5701 22.7317 23.8883 23.0034C25.0777 21.201 23.7861 18.7713 21.6081 18.7713C19.43 18.7713 18.1383 21.2011 19.3278 23.0035C19.6463 22.7316 20.0113 22.518 20.4082 22.3733C19.5898 21.3676 20.3072 19.8517 21.6081 19.8517ZM22.1481 20.858C22.4462 21.1562 22.4462 21.6398 22.1481 21.9379C21.6691 22.4169 20.8445 22.0772 20.8445 21.3979C20.8445 20.7195 21.6684 20.3784 22.1481 20.858ZM23.3695 23.5875C22.3532 24.4466 20.863 24.4466 19.8466 23.5875C20.8611 22.7288 22.3551 22.7288 23.3695 23.5875ZM21.6081 17.9887C23.548 17.9887 25.1209 19.5615 25.1209 21.5015C25.1209 23.4414 23.548 25.0143 21.6081 25.0143C19.668 25.0143 18.0952 23.4414 18.0952 21.5015C18.0952 19.5615 19.6681 17.9887 21.6081 17.9887ZM23.8572 15.995C24.3631 16.2019 24.8221 16.4673 25.25 16.7993C25.7613 17.196 26.0465 16.3551 26.89 16.5235C27.1516 16.5757 27.3949 16.7211 27.5694 16.9492C27.9593 17.4589 28.2846 18.0199 28.5326 18.6134C28.753 19.1409 28.5473 19.7477 28.0526 20.0332C27.7774 20.1921 27.4489 20.3084 27.5016 20.6973C27.5751 21.2394 27.5751 21.7635 27.5015 22.3056C27.4483 22.697 27.7736 22.8066 28.0522 22.9704L28.0526 22.9697C28.5473 23.2553 28.7529 23.8621 28.5326 24.3895C28.2847 24.983 27.9592 25.544 27.5694 26.0538C27.2205 26.5099 26.5987 26.6345 26.101 26.3472C25.8238 26.1871 25.5584 25.9646 25.2502 26.2038C24.8221 26.5358 24.3631 26.8013 23.8572 27.0082C23.2632 27.2511 23.849 27.9163 23.277 28.5662C22.952 28.9356 22.545 28.9582 22.0891 28.9872C21.5996 29.0184 21.1407 29.0037 20.649 28.9406C20.0773 28.8673 19.6565 28.3881 19.6565 27.8151C19.6565 27.4895 19.717 27.1543 19.359 27.008C18.8531 26.8011 18.3941 26.5357 17.9662 26.2037C17.4549 25.8071 17.1696 26.6479 16.3261 26.4795C16.0646 26.4273 15.8213 26.282 15.6468 26.0538C15.2569 25.5441 14.9316 24.9831 14.6836 24.3896C14.4593 23.8527 14.679 23.2305 15.1853 22.9581L15.479 22.7886C15.8259 22.5884 15.6973 22.2594 15.6735 21.905C15.646 21.4954 15.659 21.1077 15.7146 20.6974C15.7675 20.3072 15.4402 20.1952 15.164 20.0327L15.1636 20.0333C14.6689 19.7477 14.4633 19.141 14.6837 18.6135C14.9315 18.02 15.257 17.459 15.6468 16.9493C15.9957 16.4932 16.6176 16.3686 17.1153 16.6559C17.3925 16.8159 17.6579 17.0385 17.9663 16.7993C18.3944 16.4673 18.853 16.202 19.3591 15.995C19.9531 15.7521 19.3672 15.0867 19.9392 14.4368C20.2642 14.0675 20.6713 14.0449 21.1272 14.0158C21.617 13.9846 22.0753 13.9993 22.5674 14.0623C23.1391 14.1356 23.56 14.6148 23.56 15.1879C23.5597 15.5134 23.4992 15.8487 23.8572 15.995ZM24.1903 17.0252C24.3946 17.1433 24.5893 17.2743 24.7731 17.4169C24.9787 17.5764 25.2167 17.6654 25.4606 17.682C25.8967 17.7118 26.1427 17.5315 26.4892 17.3315C26.6434 17.2424 26.8403 17.2813 26.9488 17.4231C27.2989 17.8808 27.5881 18.3793 27.8111 18.9131C27.9577 19.2638 27.5677 19.4117 27.3474 19.5389C26.8993 19.7977 26.6586 20.2887 26.7281 20.8013C26.7738 21.1387 26.7862 21.5084 26.763 21.8529C26.7356 22.2599 26.6434 22.5207 26.8432 22.9277C27.0346 23.3178 27.3101 23.4416 27.6617 23.6447L27.6613 23.6454C27.8195 23.7367 27.8811 23.9225 27.8111 24.09C27.5883 24.6235 27.2986 25.1224 26.9487 25.5799C26.719 25.8802 26.3879 25.6131 26.1765 25.491C25.725 25.2304 25.1846 25.2672 24.7732 25.5862C24.4073 25.8702 23.9909 26.1121 23.5637 26.2867C23.322 26.3855 23.1259 26.5471 22.9898 26.7497C22.7467 27.1118 22.7771 27.4092 22.7771 27.8151C22.7771 27.996 22.6454 28.1447 22.4694 28.1672C21.9123 28.2386 21.3039 28.2386 20.7467 28.1672C20.3731 28.1193 20.439 27.6995 20.439 27.4545C20.439 26.9358 20.1348 26.4839 19.6524 26.2866C19.2252 26.1119 18.809 25.8701 18.443 25.5862C18.2374 25.4267 17.9994 25.3377 17.7555 25.3211C17.3194 25.2913 17.0734 25.4717 16.7269 25.6716C16.5727 25.7607 16.3758 25.7218 16.2673 25.58C15.9172 25.1222 15.628 24.6238 15.405 24.09C15.2588 23.7401 15.6508 23.5891 15.8671 23.4642C16.317 23.2045 16.5576 22.716 16.488 22.2018C16.4423 21.8646 16.4299 21.4944 16.4531 21.15C16.4805 20.7431 16.5725 20.4822 16.3729 20.0753C16.179 19.6802 15.9021 19.559 15.5545 19.3583L15.5549 19.3577C15.3966 19.2663 15.3351 19.0805 15.4051 18.9131C15.628 18.3795 15.9175 17.8807 16.2675 17.4231C16.4971 17.1229 16.8283 17.39 17.04 17.5121C17.4915 17.7728 18.0318 17.736 18.4432 17.4169C18.8091 17.1331 19.2255 16.8911 19.6525 16.7165C19.8942 16.6178 20.0903 16.4562 20.2264 16.2535C20.4696 15.8914 20.4391 15.594 20.4391 15.1879C20.4391 15.0071 20.5709 14.8584 20.7469 14.8358C21.3044 14.7645 21.912 14.7645 22.4695 14.8358C22.8431 14.8837 22.7773 15.3037 22.7773 15.5486C22.7773 16.0674 23.0815 16.5192 23.5639 16.7165C23.776 16.8032 23.9854 16.9066 24.1903 17.0252ZM27.4842 32.027H19.8685C16.6401 32.027 14 34.6671 14 37.8955C14 41.1239 16.6401 43.764 19.8685 43.764C20.3837 43.764 20.3837 42.9813 19.8685 42.9813C17.0721 42.9813 14.7826 40.6919 14.7826 37.8955C14.7826 35.0991 17.0721 32.8096 19.8685 32.8096H27.4842C27.9993 32.8096 27.9993 32.027 27.4842 32.027ZM32.4351 43.764C31.9199 43.764 31.9199 42.9813 32.4351 42.9813H38.5542C39.0694 42.9813 39.0694 43.764 38.5542 43.764H32.4351Z" fill="white"/>
<defs>
<linearGradient id="paint0_linear_164_4914" x1="64" y1="7.62939e-06" x2="7.62939e-06" y2="64" gradientUnits="userSpaceOnUse">
<stop stop-color="#F65A75"/>
<stop offset="1" stop-color="#48179C"/>
</linearGradient>
</defs>
</svg>
