<svg width="64" height="64" viewBox="0 0 64 64" fill="none" xmlns="http://www.w3.org/2000/svg">
<rect width="64" height="64" rx="32" fill="url(#paint0_linear_164_4940)"/>
<path d="M26.1634 40.0185C26.1634 40.3871 25.8643 40.6862 25.4957 40.6862H18.5245C18.1559 40.6862 17.8568 40.3871 17.8568 40.0185C17.8568 39.6498 18.1559 39.3507 18.5245 39.3507H25.5131C25.8747 39.3612 26.1634 39.6568 26.1634 40.0185ZM47.2198 28.0794L42.3231 33.59V45.6319C42.3196 48.0438 40.3668 49.9965 37.955 50H23.6614C21.2791 50 19.335 48.0872 19.2985 45.7032H19.0933H19.0951C16.8345 45.7015 15.0017 43.8687 15 41.6081V21.8788C15.007 21.8405 15.0191 21.804 15.0348 21.7675V21.7014C15.0365 21.6823 15.0365 21.6614 15.0348 21.6423C15.0435 21.6214 15.0556 21.6006 15.0696 21.5797L15.0956 21.5258L15.1756 21.4284L22.2514 14.2C22.3766 14.0713 22.5487 14 22.7278 14H33.9142C36.1747 14.0017 38.0075 15.8345 38.0093 18.0951V18.3003C40.3898 18.3385 42.3008 20.2774 42.3061 22.658C42.3061 23.0266 42.007 23.3257 41.6383 23.3257C41.2679 23.3257 40.9706 23.0266 40.9706 22.658C40.9671 21.013 39.6543 19.6688 38.0093 19.6305V28.9788L40.369 26.3305L42.2557 24.2108L42.5321 23.8995C43.6868 22.6058 45.6709 22.4928 46.9663 23.6457C48.26 24.8003 48.3748 26.7861 47.2202 28.0798L47.2198 28.0794ZM43.6046 30.1226L40.9337 27.7281L32.5122 37.1601L31.9506 37.7931L34.6215 40.184L35.4579 39.245L43.6046 30.1226ZM40.9702 35.0905L36.4732 40.1297L35.2838 41.4651C34.7743 42.0355 34.0857 42.4128 33.331 42.5381L30.4027 43.0145H30.2949C30.1123 43.0145 29.9385 42.9397 29.8133 42.8093C29.6863 42.6789 29.6185 42.5015 29.6272 42.3207L29.7646 39.3506C29.7994 38.6725 30.0411 38.0204 30.4584 37.4848C30.4723 37.4518 30.4897 37.4205 30.5123 37.3926C30.5262 37.3753 30.5436 37.3596 30.561 37.3474C30.5749 37.3266 30.5906 37.3074 30.6062 37.2901L31.4965 36.2658L36.6643 30.4788C36.6626 30.4423 36.6626 30.404 36.6643 30.3675V18.1083C36.6626 16.5851 35.428 15.3505 33.9047 15.347H23.5321V19.9864C23.5321 21.3984 22.3879 22.5409 20.9777 22.5409H16.3347V41.6078C16.3364 43.1311 17.571 44.3657 19.0943 44.3674H33.9131C35.4364 44.3657 36.671 43.1311 36.6728 41.6078C36.6728 41.2392 36.9718 40.9401 37.3405 40.9401C37.7091 40.9401 38.0082 41.2392 38.0082 41.6078C38.0065 43.8684 36.1737 45.7012 33.9131 45.7029H20.6332C20.6732 47.3479 22.0157 48.6607 23.6607 48.6642H37.9368C39.6096 48.6607 40.966 47.3044 40.9695 45.6316L40.9702 35.0905ZM45.4965 27.9992L42.8256 25.6047L41.824 26.7315L44.4949 29.1259L45.4965 27.9992ZM18.5245 26.8776H25.5811C25.9498 26.8776 26.2489 26.5785 26.2489 26.2099C26.2489 25.8412 25.9498 25.5421 25.5811 25.5421H18.5245C18.1559 25.5421 17.8568 25.8412 17.8568 26.2099C17.8568 26.5785 18.1559 26.8776 18.5245 26.8776ZM18.5245 29.5485H34.4842C34.8529 29.5485 35.152 29.2494 35.152 28.8808C35.152 28.5122 34.8529 28.2131 34.4842 28.2131H18.5245C18.1559 28.2131 17.8568 28.5122 17.8568 28.8808C17.8568 29.2494 18.1559 29.5485 18.5245 29.5485ZM18.5245 32.2195H31.8133C32.182 32.2195 32.481 31.9204 32.481 31.5517C32.481 31.1831 32.182 30.884 31.8133 30.884H18.5245C18.1559 30.884 17.8568 31.1831 17.8568 31.5517C17.8568 31.9204 18.1559 32.2195 18.5245 32.2195ZM28.6972 33.5549H18.5245C18.1559 33.5549 17.8568 33.854 17.8568 34.2227C17.8568 34.5913 18.1559 34.8904 18.5245 34.8904H28.6972C29.0659 34.8904 29.3649 34.5913 29.3649 34.2227C29.3649 33.854 29.0659 33.5549 28.6972 33.5549Z" fill="white"/>
<defs>
<linearGradient id="paint0_linear_164_4940" x1="64" y1="7.62939e-06" x2="7.62939e-06" y2="64" gradientUnits="userSpaceOnUse">
<stop stop-color="#F65A75"/>
<stop offset="1" stop-color="#48179C"/>
</linearGradient>
</defs>
</svg>
