<svg width="64" height="64" viewBox="0 0 64 64" fill="none" xmlns="http://www.w3.org/2000/svg">
<rect width="64" height="64" rx="32" fill="url(#paint0_linear_164_4949)"/>
<path d="M32 18.5H21.5C20.7044 18.5 19.9413 18.8161 19.3787 19.3787C18.8161 19.9413 18.5 20.7044 18.5 21.5V42.5C18.5 43.2956 18.8161 44.0587 19.3787 44.6213C19.9413 45.1839 20.7044 45.5 21.5 45.5H42.5C43.2956 45.5 44.0587 45.1839 44.6213 44.6213C45.1839 44.0587 45.5 43.2956 45.5 42.5V32" stroke="white" stroke-width="3" stroke-linecap="round" stroke-linejoin="round"/>
<path d="M41.5624 17.9375C42.1591 17.3408 42.9685 17.0055 43.8124 17.0055C44.6563 17.0055 45.4657 17.3408 46.0624 17.9375C46.6591 18.5342 46.9944 19.3436 46.9944 20.1875C46.9944 21.0314 46.6591 21.8408 46.0624 22.4375L32.5429 35.9585C32.1867 36.3144 31.7467 36.5749 31.2634 36.716L26.9539 37.976C26.8248 38.0136 26.688 38.0159 26.5578 37.9825C26.4275 37.9492 26.3086 37.8814 26.2136 37.7863C26.1185 37.6913 26.0507 37.5724 26.0174 37.4421C25.984 37.3119 25.9862 37.1751 26.0239 37.046L27.2839 32.7365C27.4257 32.2536 27.6867 31.8141 28.0429 31.4585L41.5624 17.9375Z" stroke="white" stroke-width="3" stroke-linecap="round" stroke-linejoin="round"/>
<defs>
<linearGradient id="paint0_linear_164_4949" x1="64" y1="7.62939e-06" x2="7.62939e-06" y2="64" gradientUnits="userSpaceOnUse">
<stop stop-color="#F65A75"/>
<stop offset="1" stop-color="#48179C"/>
</linearGradient>
</defs>
</svg>
