<svg width="64" height="64" viewBox="0 0 64 64" fill="none" xmlns="http://www.w3.org/2000/svg">
<rect width="64" height="64" rx="32" fill="url(#paint0_linear_164_4943)"/>
<path d="M49.0567 49.1455C46.3193 46.7638 42.9324 44.5638 38.9886 42.5997C39.6962 41.6099 40.3032 40.5699 40.3032 39.379C40.3032 37.0282 38.3894 35.1144 36.0386 35.1144C33.6878 35.1144 31.774 37.0282 31.774 39.379C31.774 39.4138 31.774 39.4486 31.7778 39.4834C29.1177 38.4163 24.3969 36.3439 24.0102 33.8539C23.844 32.7829 24.4935 31.6462 25.9396 30.4747C26.999 29.6164 32.2225 27.8262 35.3465 26.7591C36.2551 26.4459 37.0439 26.1791 37.5465 25.9936C37.5503 25.9936 37.5503 25.9936 37.5542 25.9897C39.6807 25.17 40.9334 24.1106 41.2776 22.8386C41.5598 21.7908 41.2157 20.6502 40.2568 19.4477C40.1718 19.3434 40.079 19.239 39.9784 19.1384C40.3458 18.5507 40.628 17.9128 40.628 17.2168C40.628 15.4422 39.1858 14 37.4112 14C35.7602 14 34.3992 15.2488 34.2175 16.8534C34.1557 16.8418 34.0938 16.8341 34.0319 16.8225C33.6917 16.749 33.2741 16.6678 32.7908 16.5789C32.1606 16.4629 31.4453 16.3276 30.7494 16.1729C30.6604 16.1536 30.5676 16.1613 30.4826 16.1961L26.8134 17.6885C26.6355 17.762 26.5234 17.936 26.535 18.1293C26.5466 18.3188 26.6742 18.485 26.8598 18.5353L32.0059 20.0122C33.6878 20.6425 33.7999 21.1451 33.7961 21.2843C33.7883 21.4969 33.4558 22.6453 27.749 24.2459C26.4422 24.6133 24.4085 25.3595 22.483 26.1791C21.7987 25.0927 20.5923 24.3697 19.2159 24.3697C17.0894 24.3697 15.3572 26.1018 15.3572 28.2283C15.3572 28.8508 15.5467 29.4346 15.8289 29.9875C15.8019 30.0185 15.7748 30.0494 15.7477 30.0803C14.2824 31.8705 13.7334 33.7302 14.12 35.6015C15.2142 40.856 23.295 45.0317 29.1951 48.0784C30.5638 48.786 31.7469 49.3968 32.6787 49.9381C32.7483 49.9768 32.8256 50 32.9029 50L48.7629 49.9304C48.9485 49.9304 49.1147 49.8144 49.1805 49.6366C49.2462 49.4664 49.1959 49.2692 49.0567 49.1455ZM36.0425 36.0114C37.8983 36.0114 39.4101 37.5231 39.4101 39.379C39.4101 40.5467 38.5749 41.6679 37.7669 42.7466C37.5078 43.0946 37.241 43.4542 37.0052 43.806L36.5258 44.5329L36.5219 44.5368L36.0425 45.2598L35.563 44.5329C35.563 44.5329 35.563 44.5291 35.5592 44.5291L35.0797 43.8022C34.8439 43.4465 34.5771 43.0908 34.318 42.7428C33.51 41.6602 32.6748 40.5428 32.6748 39.3751C32.6748 37.5231 34.1827 36.0114 36.0425 36.0114ZM35.6674 46.3231C35.7486 46.4468 35.8917 46.5241 36.0425 46.5241C36.1932 46.5241 36.3324 46.4468 36.4175 46.3231L37.1057 45.283C37.821 45.4686 38.2386 45.8127 38.2386 46.0756C38.2386 46.4506 37.3841 46.9958 36.0425 46.9958C34.7008 46.9958 33.8463 46.4506 33.8463 46.0756C33.8463 45.8127 34.2639 45.4686 34.9792 45.283L35.6674 46.3231ZM37.415 14.9009C38.6948 14.9009 39.7349 15.9409 39.7349 17.2207C39.7349 18.0288 39.1433 18.8214 38.5672 19.5908C38.3778 19.846 38.1844 20.105 38.0104 20.3641L37.6779 20.8667C37.6779 20.8667 37.6779 20.8706 37.6741 20.8706L37.415 21.265L37.156 20.8706L37.1521 20.8667L36.8196 20.3641C36.6495 20.105 36.4523 19.8421 36.2628 19.5908C35.6906 18.8214 35.0952 18.0288 35.0952 17.2207C35.0991 15.9409 36.1391 14.9009 37.415 14.9009ZM36.576 21.6207L37.04 22.3243C37.1212 22.4481 37.2642 22.5254 37.415 22.5254C37.5658 22.5254 37.705 22.4481 37.7901 22.3243L38.254 21.6207C38.7219 21.756 38.9307 21.9764 38.9307 22.0769C38.9307 22.2741 38.3391 22.6453 37.415 22.6453C36.491 22.6453 35.8994 22.2702 35.8994 22.0769C35.8994 21.9764 36.1082 21.756 36.576 21.6207ZM19.2198 25.2667C20.8514 25.2667 22.1814 26.5967 22.1814 28.2283C22.1814 29.2568 21.4391 30.2505 20.7238 31.2132C20.4918 31.5225 20.2521 31.8473 20.0433 32.1643L19.7031 32.6786L19.2236 33.4054L18.7442 32.6786C18.7442 32.6786 18.7442 32.6747 18.7403 32.6747L18.4001 32.1643C18.1913 31.8473 17.9516 31.5264 17.7196 31.2132C17.0043 30.2505 16.262 29.2607 16.262 28.2283C16.2581 26.5928 17.5843 25.2667 19.2198 25.2667ZM18.1565 33.4209L18.8447 34.461C18.9259 34.5847 19.069 34.662 19.2198 34.662C19.3706 34.662 19.5098 34.5847 19.5948 34.461L20.283 33.4209C20.9983 33.6065 21.4159 33.9506 21.4159 34.2135C21.4159 34.5886 20.5614 35.1337 19.2198 35.1337C17.8781 35.1337 17.0237 34.5886 17.0237 34.2135C17.0237 33.9506 17.4412 33.6065 18.1565 33.4209ZM33.0228 49.103C32.091 48.5656 30.9349 47.9701 29.6049 47.2819C24.1881 44.4827 16.0029 40.2567 15.0054 35.4198C14.6806 33.8578 15.1137 32.346 16.3238 30.8072C16.5404 31.132 16.7762 31.4452 17.0005 31.7468C17.2324 32.0561 17.449 32.3499 17.6423 32.6399C16.7066 32.9531 16.1305 33.5369 16.1305 34.2135C16.1305 35.2497 17.4606 36.0307 19.2198 36.0307C20.979 36.0307 22.309 35.2497 22.309 34.2135C22.309 33.5369 21.7329 32.9531 20.7973 32.6399C20.9906 32.3499 21.2071 32.0561 21.4391 31.7468C22.2046 30.7183 23.0746 29.5545 23.0746 28.2283C23.0746 27.7953 23.0011 27.3777 22.8696 26.9872C24.9884 26.0863 26.9448 25.402 27.9888 25.1082C28.5687 24.9458 30.3357 24.4509 31.8474 23.7974C33.7535 22.9778 34.6544 22.189 34.6931 21.3191C34.7279 20.4801 33.9469 19.7764 32.3037 19.1655C32.2921 19.1616 32.2805 19.1578 32.2727 19.1539L28.3561 18.0288L30.6952 17.0776C31.3641 17.2246 32.0369 17.3522 32.6323 17.4604C33.1117 17.5494 33.5254 17.6267 33.8541 17.7001C33.8618 17.7001 33.8695 17.704 33.8773 17.704C34.0087 17.7272 34.1363 17.7465 34.26 17.7697C34.4418 18.6435 35.0217 19.4207 35.5437 20.1244C35.7293 20.3757 35.9071 20.6115 36.0657 20.8474C35.4045 21.1064 35.0024 21.5549 35.0024 22.073C35.0024 22.9082 36.0386 23.5384 37.415 23.5384C38.7915 23.5384 39.8277 22.9082 39.8277 22.073C39.8277 21.5549 39.4255 21.1064 38.7644 20.8474C38.9191 20.6115 39.0969 20.3757 39.2864 20.1244C39.3444 20.047 39.4023 19.9697 39.4603 19.8924C39.4951 19.931 39.5299 19.9697 39.5609 20.0084C40.3342 20.975 40.6241 21.8488 40.4192 22.6066C40.1563 23.5732 39.0582 24.4547 37.241 25.1545C36.7461 25.3363 35.9651 25.603 35.0643 25.9124C30.7648 27.3855 26.477 28.8934 25.3828 29.7826C23.67 31.1707 22.9122 32.5896 23.1326 33.997C23.3491 35.3889 24.4819 36.6957 26.6046 37.9948C28.2362 38.9924 30.2158 39.8314 31.9673 40.5273C32.2805 41.5171 32.9493 42.4141 33.6028 43.2918C33.8657 43.6436 34.1131 43.98 34.3335 44.3125L34.465 44.5097C33.5293 44.8229 32.9532 45.4067 32.9532 46.0833C32.9532 47.1195 34.2832 47.9005 36.0425 47.9005C37.8055 47.9005 39.1317 47.1195 39.1317 46.0833C39.1317 45.4067 38.5556 44.8229 37.6199 44.5097L37.7514 44.3125C37.9602 43.9955 38.1999 43.6746 38.4474 43.3421C41.9464 45.0742 44.997 46.9881 47.5372 49.0489L33.0228 49.103ZM36.0425 41.8032C37.3802 41.8032 38.4667 40.7168 38.4667 39.379C38.4667 38.0412 37.3802 36.9548 36.0425 36.9548C34.7047 36.9548 33.6182 38.0412 33.6182 39.379C33.6182 40.7168 34.7047 41.8032 36.0425 41.8032ZM36.0425 37.8518C36.8853 37.8518 37.5697 38.5361 37.5697 39.379C37.5697 40.2219 36.8853 40.9062 36.0425 40.9062C35.1996 40.9062 34.5152 40.2219 34.5152 39.379C34.5152 38.5361 35.1996 37.8518 36.0425 37.8518ZM21.4313 28.2283C21.4313 27.0066 20.4377 26.0168 19.2198 26.0168C18.0019 26.0168 17.0082 27.0104 17.0082 28.2283C17.0082 29.4462 18.0019 30.4399 19.2198 30.4399C20.4377 30.4399 21.4313 29.4462 21.4313 28.2283ZM17.9013 28.2283C17.9013 27.5015 18.4929 26.9099 19.2198 26.9099C19.9467 26.9099 20.5382 27.5015 20.5382 28.2283C20.5382 28.9552 19.9467 29.5468 19.2198 29.5468C18.4929 29.5429 17.9013 28.9513 17.9013 28.2283ZM37.415 18.8446C38.312 18.8446 39.0428 18.1138 39.0428 17.2168C39.0428 16.3198 38.312 15.5891 37.415 15.5891C36.518 15.5891 35.7873 16.3198 35.7873 17.2168C35.7873 18.1138 36.5219 18.8446 37.415 18.8446ZM37.415 16.49C37.8171 16.49 38.1458 16.8186 38.1458 17.2207C38.1458 17.6228 37.8171 17.9515 37.415 17.9515C37.0129 17.9515 36.6843 17.6228 36.6843 17.2207C36.6843 16.8186 37.0129 16.49 37.415 16.49Z" fill="white"/>
<defs>
<linearGradient id="paint0_linear_164_4943" x1="64" y1="7.62939e-06" x2="7.62939e-06" y2="64" gradientUnits="userSpaceOnUse">
<stop stop-color="#F65A75"/>
<stop offset="1" stop-color="#48179C"/>
</linearGradient>
</defs>
</svg>
