<svg width="64" height="64" viewBox="0 0 64 64" fill="none" xmlns="http://www.w3.org/2000/svg">
<rect width="64" height="64" rx="32" fill="url(#paint0_linear_164_4908)"/>
<path d="M32.1185 17.375C24.9275 17.375 19.0175 22.8695 18.4415 29.8745H17C16.777 29.8744 16.559 29.9406 16.3736 30.0647C16.1883 30.1887 16.044 30.3651 15.9592 30.5714C15.8743 30.7776 15.8526 31.0044 15.8969 31.223C15.9413 31.4416 16.0495 31.6421 16.208 31.799L18.728 34.298C18.9387 34.5068 19.2234 34.624 19.52 34.624C19.8167 34.624 20.1014 34.5068 20.312 34.298L22.832 31.799C22.9905 31.6421 23.0988 31.4416 23.1431 31.223C23.1875 31.0044 23.1658 30.7776 23.0809 30.5714C22.996 30.3651 22.8518 30.1887 22.6664 30.0647C22.4811 29.9406 22.2631 29.8744 22.04 29.8745H20.7005C21.2705 24.128 26.1575 19.625 32.1185 19.625C34.0839 19.6212 36.0173 20.1216 37.734 21.0783C39.4508 22.035 40.8934 23.4161 41.924 25.0895C41.9995 25.2194 42.1001 25.3328 42.22 25.4231C42.34 25.5135 42.4768 25.5789 42.6224 25.6155C42.768 25.6522 42.9195 25.6593 43.0679 25.6364C43.2164 25.6136 43.3587 25.5613 43.4866 25.4826C43.6145 25.4039 43.7253 25.3004 43.8125 25.1782C43.8998 25.0559 43.9617 24.9175 43.9946 24.771C44.0275 24.6245 44.0307 24.4728 44.0041 24.3251C43.9774 24.1773 43.9215 24.0363 43.8395 23.9105C42.6077 21.9101 40.8836 20.259 38.8319 19.1148C36.7801 17.9706 34.4678 17.3716 32.1185 17.375ZM45.2615 29.7005C45.051 29.4926 44.767 29.376 44.471 29.376C44.1751 29.376 43.8911 29.4926 43.6805 29.7005L41.15 32.1995C40.9911 32.3562 40.8824 32.5567 40.8377 32.7754C40.7931 32.9941 40.8145 33.2212 40.8992 33.4277C40.984 33.6342 41.1283 33.8108 41.3137 33.935C41.4991 34.0593 41.7173 34.1256 41.9405 34.1255H43.289C42.716 39.8705 37.8125 44.375 31.823 44.375C29.8516 44.3801 27.9116 43.8804 26.1879 42.9237C24.4642 41.9669 23.014 40.5848 21.9755 38.909C21.8979 38.7832 21.7963 38.674 21.6765 38.5875C21.5566 38.501 21.4209 38.4389 21.2771 38.4049C21.1333 38.3708 20.9842 38.3654 20.8383 38.389C20.6924 38.4126 20.5526 38.4646 20.4268 38.5422C20.1728 38.699 19.9914 38.9502 19.9227 39.2407C19.8539 39.5311 19.9033 39.837 20.06 40.091C21.3002 42.0934 23.0322 43.7451 25.0912 44.8888C27.1502 46.0326 29.4677 46.6302 31.823 46.625C39.035 46.625 44.9705 41.135 45.548 34.1255H47C47.2233 34.1256 47.4415 34.0593 47.6269 33.935C47.8123 33.8108 47.9566 33.6342 48.0413 33.4277C48.1261 33.2212 48.1475 32.9941 48.1028 32.7754C48.0582 32.5567 47.9495 32.3562 47.7905 32.1995L45.2615 29.7005Z" fill="white"/>
<defs>
<linearGradient id="paint0_linear_164_4908" x1="64" y1="7.62939e-06" x2="7.62939e-06" y2="64" gradientUnits="userSpaceOnUse">
<stop stop-color="#F65A75"/>
<stop offset="1" stop-color="#48179C"/>
</linearGradient>
</defs>
</svg>
