<svg width="64" height="64" viewBox="0 0 64 64" fill="none" xmlns="http://www.w3.org/2000/svg">
<rect width="64" height="64" rx="32" fill="url(#paint0_linear_164_4934)"/>
<path d="M32.4289 19.1414C25.1723 18.9919 19.9795 26.9605 22.9995 33.5403C23.3434 34.3101 24.5086 33.799 24.1776 33.0276C20.5871 24.6942 30.2352 16.8624 37.6412 22.0939C37.9289 22.2996 38.3323 22.2337 38.538 21.9444C38.7454 21.6551 38.6779 21.2549 38.3886 21.0476C36.6431 19.8004 34.5811 19.1398 32.4292 19.1398L32.4289 19.1414Z" fill="white"/>
<path d="M38.3031 36.2372C37.6683 36.7853 38.5008 37.7593 39.1405 37.2128C43.1216 33.9116 43.8865 27.6225 40.8072 23.4681C40.317 22.7883 39.2755 23.526 39.7609 24.2155C42.453 27.8494 41.7844 33.3506 38.3031 36.2372Z" fill="white"/>
<path d="M18.2858 31.999H19.189C19.2838 32.4908 19.4108 32.9858 19.5699 33.4808C19.8464 34.2796 21.0357 33.9019 20.7946 33.0903C20.5986 32.4779 20.4555 31.864 20.3687 31.2645C20.3221 30.9479 20.0521 30.7149 19.7322 30.7149H18.2858V28.1433H19.7322C20.0505 28.1433 20.3205 27.9103 20.3687 27.5953C20.658 25.657 21.4311 23.7878 22.6043 22.1918C22.7924 21.9363 22.765 21.5811 22.54 21.3561L21.5178 20.3371L23.334 18.5177L24.3562 19.5399C24.5796 19.7633 24.9348 19.7906 25.1919 19.6042C26.7879 18.4309 28.657 17.6579 30.5954 17.3686C30.9104 17.322 31.1434 17.052 31.1434 16.7321V15.2857H33.715V16.7321C33.715 17.0504 33.948 17.3204 34.263 17.3686C36.2013 17.6579 38.0705 18.4309 39.6665 19.6042C39.922 19.7923 40.2772 19.7649 40.5022 19.5399L41.5212 18.5177L43.3406 20.3339L42.3184 21.3561C42.0934 21.5811 42.0676 21.9346 42.2541 22.1918C43.4274 23.7877 44.2004 25.6569 44.4897 27.5953C44.5363 27.9103 44.8063 28.1433 45.1262 28.1433H46.5726V30.7149H45.1262C44.8079 30.7149 44.5379 30.9479 44.4897 31.2629C44.2004 33.2012 43.4274 35.0703 42.2541 36.6664C42.066 36.9219 42.0934 37.2771 42.3184 37.5021C42.4743 37.6709 42.7041 37.8959 42.9532 37.8702C43.1188 37.8702 43.2827 37.8075 43.4081 37.6821C43.5817 37.5069 43.6347 37.2578 43.5672 37.0376C44.6038 35.5172 45.3222 33.7927 45.6678 32.0007H46.5727C47.2815 32.0007 47.8584 31.4238 47.8584 30.715V28.1435C47.8584 27.4347 47.2815 26.8577 46.5727 26.8577H45.6678C45.3271 25.0898 44.6231 23.3893 43.609 21.8833L44.2487 21.2437C44.7485 20.7438 44.7485 19.929 44.2487 19.4291L42.4293 17.6098C41.9295 17.1099 41.1146 17.1099 40.6148 17.6098L39.9751 18.2494C38.4691 17.2369 36.7687 16.5329 35.0007 16.1906V15.2858C35.0007 14.577 34.4238 14 33.715 14H31.1435C30.4347 14 29.8577 14.577 29.8577 15.2858V16.1906C28.0898 16.5313 26.3893 17.2353 24.8833 18.2494L24.2437 17.6098C23.7438 17.1099 22.929 17.1099 22.4291 17.6098L20.6098 19.4291C20.1099 19.9289 20.1099 20.7438 20.6098 21.2437L21.2494 21.8833C20.2369 23.3893 19.5329 25.0897 19.1906 26.8577H18.2858C17.577 26.8577 17 27.4347 17 28.1435V30.715C17 31.4238 17.577 32.0007 18.2858 32.0007L18.2858 31.999Z" fill="white"/>
<path d="M45.3316 42.7208L34.128 48.0264C31.9937 49.0373 29.5042 48.9296 27.4647 47.7403L23.0162 45.1462C22.6433 44.9293 22.2174 44.8136 21.7867 44.8136H18.2862C17.931 44.8136 17.6433 45.1012 17.6433 45.4564C17.6433 45.8116 17.931 46.0993 18.2862 46.0993H21.7867C21.9908 46.0993 22.1933 46.154 22.3685 46.2568L26.817 48.8509C28.1269 49.6159 29.5959 50 31.0681 50C32.2992 50 33.5319 49.73 34.6778 49.1884L45.8814 43.8828C48.432 42.6308 46.9824 38.7879 44.234 39.5371L38.257 41.2713C38.2731 41.1572 38.2924 41.0431 38.2924 40.9241C38.2924 39.4696 37.1079 38.2851 35.6533 38.2851H31.4875C31.1548 38.2851 30.8285 38.1903 30.5472 38.0119C29.1297 37.1247 27.3457 35.7344 25.5729 35.8566H18.2858C17.4484 35.8711 17.434 37.1263 18.2858 37.1424H25.5729C27.0338 37.0234 28.6812 38.3944 29.8576 39.0967C30.3462 39.4069 30.9088 39.5708 31.4873 39.5708H35.6532C36.3989 39.5708 37.0065 40.1784 37.0065 40.9241C37.0065 41.6698 36.3989 42.2774 35.6532 42.2774H29.6906C29.3354 42.2774 29.0477 42.5651 29.0477 42.9203C29.0477 43.2755 29.3354 43.5631 29.6906 43.5631H35.6532C36.3507 43.5631 36.9808 43.2867 37.4533 42.8431L44.5939 40.7714C45.8057 40.4259 46.4856 42.1665 45.3332 42.721L45.3316 42.7208Z" fill="white"/>
<path d="M36.976 30.0701C37.3312 30.0701 37.6189 29.7824 37.6189 29.4272C37.6028 29.3196 37.6671 26.4588 37.569 26.4539C37.4742 26.2176 37.2299 26.0553 36.976 26.0569H34.2486C33.4032 26.073 33.4048 27.3282 34.2486 27.3427H35.4234L33.3389 29.4272L31.976 28.0643C31.7253 27.8136 31.3186 27.8136 31.0663 28.0643L27.4293 31.7014C27.1785 31.9521 27.1785 32.3588 27.4293 32.6111C27.68 32.8618 28.0866 32.8618 28.3389 32.6111L31.5212 29.4288L32.8841 30.7917C33.1348 31.0424 33.5415 31.0424 33.7938 30.7917L36.3331 28.2523V29.4272C36.3331 29.7824 36.6208 30.0701 36.976 30.0701Z" fill="white"/>
<defs>
<linearGradient id="paint0_linear_164_4934" x1="64" y1="7.62939e-06" x2="7.62939e-06" y2="64" gradientUnits="userSpaceOnUse">
<stop stop-color="#F65A75"/>
<stop offset="1" stop-color="#48179C"/>
</linearGradient>
</defs>
</svg>
