<svg width="64" height="64" viewBox="0 0 64 64" fill="none" xmlns="http://www.w3.org/2000/svg">
<rect width="64" height="64" rx="32" fill="url(#paint0_linear_164_4937)"/>
<path d="M30.7036 31.456C30.6382 31.456 30.5645 31.4396 30.4991 31.3987L26.2619 28.9856C26.131 28.912 26.0574 28.7811 26.0574 28.6339V23.7586C26.0574 23.5296 26.2373 23.3496 26.4664 23.3496C26.6954 23.3496 26.8754 23.5296 26.8754 23.7586V28.3967L30.9081 30.6952C31.1044 30.8098 31.1698 31.0552 31.0635 31.2515C30.9817 31.3824 30.8426 31.456 30.7036 31.456Z" fill="white"/>
<path d="M24.1513 33.0429C24.0858 33.0429 24.0122 33.0266 23.9468 32.9857C23.7504 32.8711 23.685 32.6257 23.7995 32.4294L26.1144 28.4212C26.229 28.2249 26.4744 28.1595 26.6707 28.274C26.867 28.3885 26.9324 28.6339 26.8179 28.8302L24.503 32.8384C24.4294 32.9693 24.2903 33.0429 24.1513 33.0429Z" fill="white"/>
<path d="M26.9324 33.9183C24.0204 33.9183 21.6482 31.5461 21.6482 28.634C21.6482 25.722 24.0204 23.3498 26.9324 23.3498C29.8445 23.3498 32.2167 25.722 32.2167 28.634C32.2167 31.5461 29.8445 33.9183 26.9324 33.9183ZM26.9324 24.1596C24.4703 24.1596 22.4662 26.1637 22.4662 28.6258C22.4662 31.088 24.4703 33.0921 26.9324 33.0921C29.3946 33.0921 31.3987 31.088 31.3987 28.6258C31.3987 26.1637 29.3946 24.1596 26.9324 24.1596Z" fill="white"/>
<path d="M42.3926 50H21.7546C19.6851 50 18 48.3149 18 46.2454V17.7546C18 15.6851 19.6851 14 21.7546 14H39.5051C39.7342 14 39.9141 14.18 39.9141 14.409C39.9141 14.638 39.7342 14.818 39.5051 14.818H21.7546C20.135 14.818 18.818 16.135 18.818 17.7546V46.2536C18.818 47.8732 20.135 49.1902 21.7546 49.1902H42.3926C44.0123 49.1902 45.3292 47.8732 45.3292 46.2536V20.6421C45.3292 20.4131 45.5092 20.2331 45.7382 20.2331C45.9673 20.2331 46.1472 20.4131 46.1472 20.6421V46.2536C46.1472 48.3149 44.4622 50 42.3926 50Z" fill="white"/>
<path d="M45.7382 21.0512H41.1574C40.0286 21.0512 39.1042 20.1269 39.1042 18.9981V14.4173C39.1042 14.2537 39.2024 14.1064 39.3578 14.041C39.5132 13.9756 39.685 14.0165 39.7995 14.131L46.0327 20.3641C46.1472 20.4786 46.1881 20.6586 46.1227 20.8058C46.049 20.9449 45.9018 21.0512 45.7382 21.0512ZM39.9141 15.3989V18.9981C39.9141 19.677 40.4703 20.2332 41.1492 20.2332H44.7484L39.9141 15.3989Z" fill="white"/>
<path d="M42.0982 24.2659H34.1636C33.9346 24.2659 33.7546 24.0859 33.7546 23.8569C33.7546 23.6279 33.9346 23.4479 34.1636 23.4479H42.0982C42.3272 23.4479 42.5072 23.6279 42.5072 23.8569C42.5072 24.0859 42.3191 24.2659 42.0982 24.2659Z" fill="white"/>
<path d="M42.0982 27.4806H34.1636C33.9346 27.4806 33.7546 27.3007 33.7546 27.0716C33.7546 26.8426 33.9346 26.6626 34.1636 26.6626H42.0982C42.3272 26.6626 42.5072 26.8426 42.5072 27.0716C42.5072 27.3007 42.3191 27.4806 42.0982 27.4806Z" fill="white"/>
<path d="M42.0982 30.6953H34.1636C33.9346 30.6953 33.7546 30.5154 33.7546 30.2863C33.7546 30.0573 33.9346 29.8773 34.1636 29.8773H42.0982C42.3272 29.8773 42.5072 30.0573 42.5072 30.2863C42.5072 30.5154 42.3191 30.6953 42.0982 30.6953Z" fill="white"/>
<path d="M42.0982 33.9182H34.1636C33.9346 33.9182 33.7546 33.7383 33.7546 33.5092C33.7546 33.2802 33.9346 33.1003 34.1636 33.1003H42.0982C42.3272 33.1003 42.5072 33.2802 42.5072 33.5092C42.5072 33.7383 42.3191 33.9182 42.0982 33.9182Z" fill="white"/>
<path d="M36.0286 21.0512H22.0572C21.8282 21.0512 21.6482 20.8713 21.6482 20.6422V17.8692C21.6482 17.6402 21.8282 17.4602 22.0572 17.4602H36.0367C36.2658 17.4602 36.4457 17.6402 36.4457 17.8692V20.6341C36.4376 20.8631 36.2576 21.0512 36.0286 21.0512ZM22.4662 20.2332H35.6277V18.2782H22.4662V20.2332Z" fill="white"/>
<path d="M30.6052 46.7853H22.0572C21.8282 46.7853 21.6482 46.6054 21.6482 46.3763V36.724C21.6482 36.4949 21.8282 36.315 22.0572 36.315H30.6052C30.8343 36.315 31.0142 36.4949 31.0142 36.724V46.3763C31.0142 46.5972 30.8261 46.7853 30.6052 46.7853ZM22.4662 45.9673H30.1963V37.133H22.4662V45.9673Z" fill="white"/>
<path d="M34.8672 46.7853H32.994C32.7649 46.7853 32.585 46.6054 32.585 46.3763V41.5011C32.585 41.272 32.7649 41.0921 32.994 41.0921H34.8672C35.0962 41.0921 35.2762 41.272 35.2762 41.5011V46.3763C35.2762 46.5972 35.088 46.7853 34.8672 46.7853ZM33.3948 45.9673H34.45V41.9101H33.3948V45.9673Z" fill="white"/>
<path d="M38.4826 46.7854H36.6094C36.3804 46.7854 36.2004 46.6054 36.2004 46.3764V37.3457C36.2004 37.1167 36.3804 36.9367 36.6094 36.9367H38.4826C38.7117 36.9367 38.8916 37.1167 38.8916 37.3457V46.3682C38.8916 46.5972 38.7035 46.7854 38.4826 46.7854ZM37.0103 45.9674H38.0655V37.7547H37.0103V45.9674Z" fill="white"/>
<path d="M42.0979 46.7853H40.2247C39.9956 46.7853 39.8157 46.6053 39.8157 46.3763V39.5951C39.8157 39.3661 39.9956 39.1861 40.2247 39.1861H42.0979C42.3269 39.1861 42.5069 39.3661 42.5069 39.5951V46.3763C42.5069 46.5972 42.3187 46.7853 42.0979 46.7853ZM40.6255 45.9673H41.6807V40.0041H40.6255V45.9673Z" fill="white"/>
<defs>
<linearGradient id="paint0_linear_164_4937" x1="64" y1="7.62939e-06" x2="7.62939e-06" y2="64" gradientUnits="userSpaceOnUse">
<stop stop-color="#F65A75"/>
<stop offset="1" stop-color="#48179C"/>
</linearGradient>
</defs>
</svg>
