<svg width="64" height="64" viewBox="0 0 64 64" fill="none" xmlns="http://www.w3.org/2000/svg">
<rect width="64" height="64" rx="32" fill="url(#paint0_linear_164_4952)"/>
<path d="M32 23C31.6022 23 31.2206 23.158 30.9393 23.4393C30.658 23.7206 30.5 24.1022 30.5 24.5V39.5C30.5 39.8978 30.658 40.2794 30.9393 40.5607C31.2206 40.842 31.6022 41 32 41C32.3978 41 32.7794 40.842 33.0607 40.5607C33.342 40.2794 33.5 39.8978 33.5 39.5V24.5C33.5 24.1022 33.342 23.7206 33.0607 23.4393C32.7794 23.158 32.3978 23 32 23ZM24.5 32C24.1022 32 23.7206 32.158 23.4393 32.4393C23.158 32.7206 23 33.1022 23 33.5V39.5C23 39.8978 23.158 40.2794 23.4393 40.5607C23.7206 40.842 24.1022 41 24.5 41C24.8978 41 25.2794 40.842 25.5607 40.5607C25.842 40.2794 26 39.8978 26 39.5V33.5C26 33.1022 25.842 32.7206 25.5607 32.4393C25.2794 32.158 24.8978 32 24.5 32ZM39.5 29C39.1022 29 38.7206 29.158 38.4393 29.4393C38.158 29.7206 38 30.1022 38 30.5V39.5C38 39.8978 38.158 40.2794 38.4393 40.5607C38.7206 40.842 39.1022 41 39.5 41C39.8978 41 40.2794 40.842 40.5607 40.5607C40.842 40.2794 41 39.8978 41 39.5V30.5C41 30.1022 40.842 29.7206 40.5607 29.4393C40.2794 29.158 39.8978 29 39.5 29ZM42.5 17H21.5C20.3065 17 19.1619 17.4741 18.318 18.318C17.4741 19.1619 17 20.3065 17 21.5V42.5C17 43.6935 17.4741 44.8381 18.318 45.682C19.1619 46.5259 20.3065 47 21.5 47H42.5C43.6935 47 44.8381 46.5259 45.682 45.682C46.5259 44.8381 47 43.6935 47 42.5V21.5C47 20.3065 46.5259 19.1619 45.682 18.318C44.8381 17.4741 43.6935 17 42.5 17ZM44 42.5C44 42.8978 43.842 43.2794 43.5607 43.5607C43.2794 43.842 42.8978 44 42.5 44H21.5C21.1022 44 20.7206 43.842 20.4393 43.5607C20.158 43.2794 20 42.8978 20 42.5V21.5C20 21.1022 20.158 20.7206 20.4393 20.4393C20.7206 20.158 21.1022 20 21.5 20H42.5C42.8978 20 43.2794 20.158 43.5607 20.4393C43.842 20.7206 44 21.1022 44 21.5V42.5Z" fill="white"/>
<defs>
<linearGradient id="paint0_linear_164_4952" x1="64" y1="7.62939e-06" x2="7.62939e-06" y2="64" gradientUnits="userSpaceOnUse">
<stop stop-color="#F65A75"/>
<stop offset="1" stop-color="#48179C"/>
</linearGradient>
</defs>
</svg>
