<svg width="64" height="64" viewBox="0 0 64 64" fill="none" xmlns="http://www.w3.org/2000/svg">
<rect width="64" height="64" rx="32" fill="url(#paint0_linear_164_4946)"/>
<path d="M44 17H20C19.175 17 18.5 17.675 18.5 18.5V21.5C18.5 21.83 18.605 22.145 18.8 22.4L27.5 33.995V45.5C27.5 45.8978 27.658 46.2794 27.9393 46.5607C28.2206 46.842 28.6022 47 29 47C29.225 47 29.465 46.94 29.675 46.835L35.675 43.835C35.9224 43.7103 36.1304 43.5196 36.276 43.284C36.4216 43.0484 36.4992 42.777 36.5 42.5V33.995L45.2 22.4C45.395 22.145 45.5 21.83 45.5 21.5V18.5C45.5 17.675 44.825 17 44 17ZM42.5 21.005L33.8 32.6C33.605 32.855 33.5 33.17 33.5 33.5V41.57L30.5 43.07V33.5C30.5 33.17 30.395 32.855 30.2 32.6L21.5 21.005V20H42.5V21.005Z" fill="white"/>
<defs>
<linearGradient id="paint0_linear_164_4946" x1="64" y1="7.62939e-06" x2="7.62939e-06" y2="64" gradientUnits="userSpaceOnUse">
<stop stop-color="#F65A75"/>
<stop offset="1" stop-color="#48179C"/>
</linearGradient>
</defs>
</svg>
