<svg width="64" height="64" viewBox="0 0 64 64" fill="none" xmlns="http://www.w3.org/2000/svg">
<rect width="64" height="64" rx="32" fill="url(#paint0_linear_165_5621)"/>
<path d="M48.2 15H15.8C14.8078 15 14 15.8078 14 16.8V44.4C14 45.3922 14.8078 46.2 15.8 46.2H39.8C40.1312 46.2 40.4 45.9312 40.4 45.6C40.4 45.2688 40.1312 45 39.8 45H15.8C15.4688 45 15.2 44.7312 15.2 44.4V21H48.8V42.6C48.8 42.9312 49.0688 43.2 49.4 43.2C49.7312 43.2 50 42.9312 50 42.6V16.8C50 15.8078 49.1922 15 48.2 15ZM48.8 19.8H15.2V16.8C15.2 16.4688 15.4688 16.2 15.8 16.2H48.2C48.5312 16.2 48.8 16.4688 48.8 16.8V19.8Z" fill="white"/>
<path d="M16.9999 25.8C16.6687 25.8 16.3999 26.0687 16.3999 26.4C16.3999 26.7312 16.6687 27 16.9999 27H20.5999C20.9312 27 21.1999 26.7312 21.1999 26.4C21.1999 26.0687 20.9312 25.8 20.5999 25.8H16.9999Z" fill="white"/>
<path d="M23.5999 24C23.5999 23.6688 23.3312 23.4 22.9999 23.4H16.9999C16.6687 23.4 16.3999 23.6688 16.3999 24C16.3999 24.3313 16.6687 24.6 16.9999 24.6H22.9999C23.3312 24.6 23.5999 24.3313 23.5999 24Z" fill="white"/>
<path d="M44.472 40.9032C44.0173 40.4501 43.4158 40.2001 42.7751 40.2001C42.3329 40.2001 41.9111 40.322 41.5423 40.5439L40.372 39.3736C41.8814 37.6767 42.8001 35.4439 42.8001 33C42.8001 32.0343 42.6564 31.0796 42.3751 30.164C42.2767 29.8468 41.9423 29.6718 41.6251 29.7672C41.3079 29.864 41.1314 30.2015 41.2283 30.5172C41.4751 31.3187 41.6001 32.1531 41.6001 33C41.6001 37.6312 37.8314 41.4 33.2001 41.4C28.5689 41.4 24.8001 37.6312 24.8001 33C24.8001 28.3687 28.5689 24.6 33.2001 24.6C35.0298 24.6 36.7673 25.1781 38.2281 26.2687C38.4938 26.4656 38.8688 26.4125 39.0688 26.1468C39.2672 25.8812 39.2125 25.5062 38.9469 25.3062C37.2781 24.0593 35.2907 23.4 33.2001 23.4C27.9065 23.4 23.6001 27.7064 23.6001 33C23.6001 38.2936 27.9065 42.6 33.2001 42.6C35.6189 42.6 37.8297 41.7 39.5189 40.2172L40.6986 41.3968C40.4876 41.7593 40.3736 42.1687 40.3736 42.6C40.3736 43.2406 40.6236 43.8437 41.0767 44.2968L44.7017 47.9234C45.1564 48.3765 45.7595 48.625 46.4001 48.625C47.0408 48.625 47.6439 48.375 48.097 47.9218C48.5501 47.4687 48.8001 46.8672 48.8001 46.225C48.8001 45.5843 48.5501 44.9812 48.097 44.5281L44.472 40.9032ZM47.2486 47.0752C46.7955 47.5284 46.0048 47.5284 45.5517 47.0752L41.9251 43.4487C41.6986 43.2221 41.5751 42.9206 41.5751 42.6002C41.5751 42.2799 41.7001 41.9784 41.9267 41.7518C42.1533 41.5252 42.4533 41.4002 42.7751 41.4002C43.0955 41.4002 43.397 41.5252 43.6236 41.7518L47.2486 45.3768C47.4751 45.6049 47.6001 45.9065 47.6001 46.2252C47.6001 46.5456 47.4751 46.8471 47.2486 47.0752Z" fill="white"/>
<path d="M41.1564 26.572C41.3923 26.3408 41.772 26.3439 42.0048 26.5798C42.236 26.8158 42.2329 27.1955 41.9923 27.4283L33.7203 35.5127C33.6047 35.6252 33.4515 35.6814 33.3 35.6814C33.1484 35.6814 32.9922 35.622 32.8765 35.5048L28.7233 31.3236C28.4921 31.0877 28.4921 30.708 28.7265 30.4752C28.9624 30.2393 29.3421 30.2393 29.5749 30.4752L33.3061 34.2346L41.1564 26.572Z" fill="white"/>
<path d="M19.9998 18C19.9998 18.8 18.7998 18.8 18.7998 18C18.7998 17.2 19.9998 17.2 19.9998 18Z" fill="white"/>
<path d="M17.5999 18C17.5999 18.8 16.3999 18.8 16.3999 18C16.3999 17.2 17.5999 17.2 17.5999 18Z" fill="white"/>
<path d="M22.4002 18C22.4002 18.8 21.2002 18.8 21.2002 18C21.2002 17.2 22.4002 17.2 22.4002 18Z" fill="white"/>
<defs>
<linearGradient id="paint0_linear_165_5621" x1="64" y1="7.62939e-06" x2="7.62939e-06" y2="64" gradientUnits="userSpaceOnUse">
<stop stop-color="#F65A75"/>
<stop offset="1" stop-color="#48179C"/>
</linearGradient>
</defs>
</svg>
