<svg width="64" height="64" viewBox="0 0 64 64" fill="none" xmlns="http://www.w3.org/2000/svg">
<rect width="64" height="64" rx="32" fill="url(#paint0_linear_165_5352)"/>
<path d="M24.5 38C25.0967 38 25.669 37.7629 26.091 37.341C26.5129 36.919 26.75 36.3467 26.75 35.75C26.7556 35.6751 26.7556 35.5999 26.75 35.525L30.935 31.34H31.625L34.04 33.755V33.875C34.04 34.4717 34.2771 35.044 34.699 35.466C35.121 35.8879 35.6933 36.125 36.29 36.125C36.8867 36.125 37.459 35.8879 37.881 35.466C38.3029 35.044 38.54 34.4717 38.54 33.875V33.755L44 28.25C44.445 28.25 44.88 28.118 45.25 27.8708C45.62 27.6236 45.9084 27.2722 46.0787 26.861C46.249 26.4499 46.2936 25.9975 46.2068 25.561C46.12 25.1246 45.9057 24.7237 45.591 24.409C45.2763 24.0943 44.8754 23.88 44.439 23.7932C44.0025 23.7064 43.5501 23.751 43.139 23.9213C42.7278 24.0916 42.3764 24.38 42.1292 24.75C41.882 25.12 41.75 25.555 41.75 26C41.7444 26.0749 41.7444 26.1501 41.75 26.225L36.335 31.64H36.095L33.5 29C33.5 28.4033 33.2629 27.831 32.841 27.409C32.419 26.9871 31.8467 26.75 31.25 26.75C30.6533 26.75 30.081 26.9871 29.659 27.409C29.2371 27.831 29 28.4033 29 29L24.5 33.5C23.9033 33.5 23.331 33.7371 22.909 34.159C22.4871 34.581 22.25 35.1533 22.25 35.75C22.25 36.3467 22.4871 36.919 22.909 37.341C23.331 37.7629 23.9033 38 24.5 38ZM44.75 44H19.25V18.5C19.25 18.1022 19.092 17.7206 18.8107 17.4393C18.5294 17.158 18.1478 17 17.75 17C17.3522 17 16.9706 17.158 16.6893 17.4393C16.408 17.7206 16.25 18.1022 16.25 18.5V45.5C16.25 45.8978 16.408 46.2794 16.6893 46.5607C16.9706 46.842 17.3522 47 17.75 47H44.75C45.1478 47 45.5294 46.842 45.8107 46.5607C46.092 46.2794 46.25 45.8978 46.25 45.5C46.25 45.1022 46.092 44.7206 45.8107 44.4393C45.5294 44.158 45.1478 44 44.75 44Z" fill="white"/>
<defs>
<linearGradient id="paint0_linear_165_5352" x1="64" y1="7.62939e-06" x2="7.62939e-06" y2="64" gradientUnits="userSpaceOnUse">
<stop stop-color="#F65A75"/>
<stop offset="1" stop-color="#48179C"/>
</linearGradient>
</defs>
</svg>
