<svg width="64" height="64" viewBox="0 0 64 64" fill="none" xmlns="http://www.w3.org/2000/svg">
<rect width="64" height="64" rx="32" fill="url(#paint0_linear_165_5649)"/>
<path d="M32.0089 16.9063H38.8732C39.6228 16.9063 39.6228 18.0392 38.8732 18.0392H32.0089C31.2593 18.0392 31.2593 16.9063 32.0089 16.9063ZM32.0089 21.1801H38.8732C39.6228 21.1801 39.6228 20.0471 38.8732 20.0471H32.0089C31.2593 20.0471 31.2593 21.1801 32.0089 21.1801ZM32.0089 24.3209H38.8732C39.6228 24.3209 39.6228 23.188 38.8732 23.188H32.0089C31.2593 23.188 31.2593 24.3209 32.0089 24.3209ZM48.565 46.0223C48.9702 46.5008 49.165 47.1088 49.1125 47.7349C48.943 49.7575 46.2719 50.8606 44.8399 49.1726L42.7319 46.682C42.67 46.9279 42.4491 47.1103 42.1844 47.1103H18.9297C18.1801 47.1103 18.1801 45.9774 18.9297 45.9774H23.7635C25.021 44.6315 25.6249 42.9676 25.6286 41.2973H16.7481C15.2326 41.2973 14 40.0647 14 38.5492V19.6544C14 18.1389 15.233 16.9063 16.7481 16.9063H18.3629V16.0196C18.3629 14.906 19.2688 14 20.3829 14H40.7312C41.8445 14 42.7508 14.906 42.7508 16.0196V16.9063H44.366C45.8796 16.9063 47.1107 18.1389 47.1107 19.6544V38.5496C47.1107 40.065 45.8796 41.2977 44.366 41.2977H42.1111L42.7742 42.0733C43.6081 41.3823 44.7689 41.536 45.4105 42.2924L48.565 46.0223ZM47.9838 47.6405C48.04 46.9657 47.9075 47 44.5457 43.0242C44.2825 42.7138 43.8165 42.6753 43.5061 42.9381C41.7429 44.4294 41.7459 43.764 45.704 48.4403C46.497 49.3746 47.8996 48.6401 47.9838 47.6405ZM35.8812 45.9774C35.2566 45.119 34.814 44.1538 34.5727 43.1254C33.885 43.0288 33.215 42.8554 32.5753 42.5998V43.275C32.5753 44.3886 31.6694 45.2946 30.5553 45.2946C29.4413 45.2946 28.5357 44.3886 28.5357 43.275V42.5465C28.5357 42.2335 28.7895 41.9801 29.1022 41.9801H31.3276C30.9911 41.7776 30.6698 41.5469 30.3593 41.2973H26.7619C26.7585 42.9687 26.2468 44.5726 25.2272 45.9774H35.8812ZM15.1329 35.8015H18.3632V18.0392H16.7485C15.858 18.0392 15.1333 18.7635 15.1333 19.6544L15.1329 35.8015ZM19.4962 35.8015H27.1936C26.0014 27.7117 35.6081 22.6472 41.6179 28.0463V16.0196C41.6179 15.5306 41.2202 15.1329 40.7312 15.1329H20.3829C19.8938 15.1329 19.4958 15.5306 19.4958 16.0196V35.8015H19.4962ZM44.366 18.0392H42.7508V29.2785C44.1885 31.1788 44.7504 33.5285 44.417 35.8015H45.9777V19.6544C45.9777 18.7639 45.2549 18.0392 44.366 18.0392ZM45.9777 36.9344H44.1624C43.8229 38.1127 43.2346 39.2101 42.4174 40.1647H44.366C45.2549 40.1647 45.9777 39.4404 45.9777 38.5496V36.9344ZM41.6179 29.6841C36.9631 24.1045 27.8835 27.643 28.2408 34.8887C28.5115 40.3785 34.3317 43.6938 39.1678 41.2977C43.5461 39.1285 44.7482 33.4363 41.6179 29.6841ZM29.6686 43.1134V43.2754C29.6686 43.764 30.0663 44.1621 30.5553 44.1621C31.0444 44.1621 31.4424 43.7644 31.4424 43.2754V43.1134H29.6686ZM15.1329 38.5496C15.1329 39.4401 15.8576 40.1647 16.7481 40.1647H29.1902C28.379 39.2188 27.7895 38.1221 27.4481 36.9344H15.1329V38.5496ZM42.1353 45.9774C41.6613 45.4173 41.1746 44.971 41.2497 44.0786C41.2916 43.5797 41.5258 43.1273 41.9094 42.8048L40.8713 41.5911C39.4046 42.6447 37.6474 43.2229 35.7626 43.2183C36.0613 44.2421 36.6006 45.1821 37.3464 45.9774H42.1353ZM41.0133 38.4012H30.5939C30.3333 38.4012 30.1218 38.1897 30.1218 37.9291V31.129C30.1218 30.5044 31.0659 30.5044 31.0659 31.129V37.4571H31.6218V34.5719C31.6218 34.3113 31.8333 34.0999 32.0938 34.0999H33.6267C33.8872 34.0999 34.0987 34.3113 34.0987 34.5719V37.4571H34.5538V32.919C34.5538 32.6584 34.7653 32.4469 35.0258 32.4469H36.5583C36.8189 32.4469 37.0303 32.6584 37.0303 32.919V37.4571H37.4854V31.1048C37.4854 30.8442 37.6969 30.6328 37.9574 30.6328H39.4903C39.7509 30.6328 39.9623 30.8442 39.9623 31.1048V37.4571H41.0137C41.6383 37.4571 41.6379 38.4012 41.0133 38.4012ZM32.5659 37.4571H33.1546V35.044H32.5659V37.4571ZM35.4979 37.4571H36.0862V33.391H35.4979V37.4571ZM38.4295 37.4571H39.0182V31.5768H38.4295V37.4571ZM21.1857 24.1351V23.2144C21.1857 21.7348 22.1589 20.4788 23.4984 20.0505C22.3239 18.4694 23.458 16.2179 25.4274 16.2179C27.3968 16.2179 28.5308 18.4701 27.356 20.0513C28.6958 20.4799 29.6694 21.7352 29.6694 23.2144V24.1351C29.6694 24.4481 29.4156 24.7015 29.1029 24.7015H21.7522C21.4395 24.7015 21.1857 24.4481 21.1857 24.1351ZM22.3186 23.5686H28.5365V23.2144C28.5365 22.0078 27.5531 21.026 26.3447 21.026H24.5071C23.3005 21.026 22.3186 22.0078 22.3186 23.2144V23.5686ZM24.1562 18.6223C24.1562 19.3232 24.7265 19.8934 25.4274 19.8934C26.1283 19.8934 26.6985 19.3232 26.6985 18.6223C26.6985 17.9214 26.1283 17.3512 25.4274 17.3512C24.7265 17.3512 24.1562 17.9214 24.1562 18.6223Z" fill="white"/>
<defs>
<linearGradient id="paint0_linear_165_5649" x1="64" y1="7.62939e-06" x2="7.62939e-06" y2="64" gradientUnits="userSpaceOnUse">
<stop stop-color="#F65A75"/>
<stop offset="1" stop-color="#48179C"/>
</linearGradient>
</defs>
</svg>
