<svg width="64" height="64" viewBox="0 0 64 64" fill="none" xmlns="http://www.w3.org/2000/svg">
<rect width="64" height="64" rx="32" fill="url(#paint0_linear_165_5381)"/>
<path d="M35 35V23M35 35L44.153 40.2305C44.2898 40.3088 44.4447 40.3498 44.6023 40.3494C44.7599 40.349 44.9146 40.3072 45.051 40.2282C45.1874 40.1492 45.3006 40.0359 45.3794 39.8994C45.4582 39.7629 45.4998 39.6081 45.5 39.4505V18.5495C45.5001 18.3918 45.4587 18.2368 45.38 18.1001C45.3013 17.9635 45.1881 17.8499 45.0516 17.7707C44.9152 17.6916 44.7604 17.6496 44.6027 17.6492C44.445 17.6487 44.2899 17.6897 44.153 17.768L35 23M35 35H24.5M35 23H24.5C22.9087 23 21.3826 23.6322 20.2574 24.7574C19.1321 25.8826 18.5 27.4087 18.5 29C18.5 30.5913 19.1321 32.1174 20.2574 33.2427C21.3826 34.3679 22.9087 35 24.5 35M24.5 35L25.6355 42.95C25.754 43.7235 26.1729 44.419 26.8013 44.8853C27.4296 45.3516 28.2166 45.5511 28.9913 45.4405C29.7659 45.3298 30.4656 44.9179 30.9382 44.2943C31.4109 43.6707 31.6183 42.8857 31.5155 42.11L30.5 35H24.5Z" stroke="white" stroke-width="2.25"/>
<defs>
<linearGradient id="paint0_linear_165_5381" x1="64" y1="7.62939e-06" x2="7.62939e-06" y2="64" gradientUnits="userSpaceOnUse">
<stop stop-color="#F65A75"/>
<stop offset="1" stop-color="#48179C"/>
</linearGradient>
</defs>
</svg>
