<svg width="64" height="64" viewBox="0 0 64 64" fill="none" xmlns="http://www.w3.org/2000/svg">
<rect width="64" height="64" rx="32" fill="url(#paint0_linear_165_5336)"/>
<path d="M32 47V32M38 39.5L41 42.5L47 36.5" stroke="white" stroke-width="3" stroke-linecap="round" stroke-linejoin="round"/>
<path d="M45.5 30.6905V26C45.4995 25.4739 45.3606 24.9572 45.0973 24.5017C44.834 24.0463 44.4556 23.668 44 23.405L33.5 17.405C33.0439 17.1417 32.5266 17.0031 32 17.0031C31.4734 17.0031 30.9561 17.1417 30.5 17.405L20 23.405C19.5444 23.668 19.166 24.0463 18.9027 24.5017C18.6394 24.9572 18.5005 25.4739 18.5 26V38C18.5008 38.5258 18.6398 39.0422 18.9031 39.4974C19.1663 39.9526 19.5446 40.3306 20 40.5935L30.5 46.5935C30.9559 46.857 31.4732 46.9959 31.9998 46.9962C32.5264 46.9964 33.0438 46.8581 33.5 46.595L35.48 45.4655" stroke="white" stroke-width="3" stroke-linecap="round" stroke-linejoin="round"/>
<path d="M18.9351 24.5L32.0001 32L45.0651 24.5M25.2501 20.405L38.7456 28.127" stroke="white" stroke-width="3" stroke-linecap="round" stroke-linejoin="round"/>
<defs>
<linearGradient id="paint0_linear_165_5336" x1="64" y1="7.62939e-06" x2="7.62939e-06" y2="64" gradientUnits="userSpaceOnUse">
<stop stop-color="#F65A75"/>
<stop offset="1" stop-color="#48179C"/>
</linearGradient>
</defs>
</svg>
