<svg width="64" height="64" viewBox="0 0 64 64" fill="none" xmlns="http://www.w3.org/2000/svg">
<rect width="64" height="64" rx="32" fill="url(#paint0_linear_165_5284)"/>
<path d="M22.382 46.1195C21.794 45.5315 21.5 44.825 21.5 44C21.5 43.175 21.794 42.469 22.382 41.882C22.97 41.295 23.676 41.001 24.5 41C25.324 40.999 26.0305 41.293 26.6195 41.882C27.2085 42.471 27.502 43.177 27.5 44C27.498 44.823 27.2045 45.5295 26.6195 46.1195C26.0345 46.7095 25.328 47.003 24.5 47C23.672 46.997 22.966 46.7035 22.382 46.1195ZM37.382 46.1195C36.794 45.5315 36.5 44.825 36.5 44C36.5 43.175 36.794 42.469 37.382 41.882C37.97 41.295 38.676 41.001 39.5 41C40.324 40.999 41.0305 41.293 41.6195 41.882C42.2085 42.471 42.502 43.177 42.5 44C42.498 44.823 42.2045 45.5295 41.6195 46.1195C41.0345 46.7095 40.328 47.003 39.5 47C38.672 46.997 37.966 46.7035 37.382 46.1195ZM23.225 23L26.825 30.5H37.325L41.45 23H23.225ZM21.8 20H43.925C44.5 20 44.9375 20.2565 45.2375 20.7695C45.5375 21.2825 45.55 21.801 45.275 22.325L39.95 31.925C39.675 32.425 39.3065 32.8125 38.8445 33.0875C38.3825 33.3625 37.876 33.5 37.325 33.5H26.15L24.5 36.5H42.5V39.5H24.5C23.375 39.5 22.525 39.0065 21.95 38.0195C21.375 37.0325 21.35 36.051 21.875 35.075L23.9 31.4L18.5 20H15.5V17H20.375L21.8 20Z" fill="white"/>
<defs>
<linearGradient id="paint0_linear_165_5284" x1="64" y1="7.62939e-06" x2="7.62939e-06" y2="64" gradientUnits="userSpaceOnUse">
<stop stop-color="#F65A75"/>
<stop offset="1" stop-color="#48179C"/>
</linearGradient>
</defs>
</svg>
