<svg width="64" height="64" viewBox="0 0 64 64" fill="none" xmlns="http://www.w3.org/2000/svg">
<rect width="64" height="64" rx="32" fill="url(#paint0_linear_165_5619)"/>
<path d="M49.4203 38.3728H43.9529C43.801 38.3728 43.6772 38.2491 43.6772 38.0972V17.1612C43.6772 15.4175 45.0947 14 46.8385 14C48.5822 14 49.9997 15.4175 49.9997 17.1612V37.7934C49.9997 38.1141 49.7409 38.3728 49.4203 38.3728ZM44.2285 37.8159H49.4147C49.4315 37.8159 49.4428 37.8047 49.4428 37.7878V17.1612C49.4428 15.7212 48.2728 14.5512 46.8328 14.5512C45.3928 14.5512 44.2229 15.7212 44.2229 17.1612V37.8159H44.2285Z" fill="white"/>
<path d="M42.9969 49.167H22.7865C22.1059 49.167 21.5547 48.6158 21.5547 47.9352V17.51C21.5547 15.575 23.1297 14 25.0646 14H46.8387C46.9906 14 47.1143 14.1237 47.1143 14.2756C47.1143 14.4275 46.9906 14.5512 46.8387 14.5512H25.0646C23.4334 14.5512 22.1116 15.8787 22.1116 17.5043V47.9352C22.1116 48.3064 22.4153 48.6102 22.7865 48.6102H42.9969C43.3681 48.6102 43.6719 48.3064 43.6719 47.9352V38.0916C43.6719 37.9397 43.7956 37.8159 43.9475 37.8159C44.0994 37.8159 44.2231 37.9397 44.2231 38.0916V47.9352C44.2288 48.6158 43.6775 49.167 42.9969 49.167Z" fill="white"/>
<path d="M19.6029 42.7434H14.2761C14.1242 42.7434 14.0005 42.6196 14.0005 42.4678V23.1743C14.0005 22.3924 14.6361 21.7568 15.418 21.7568H18.4667C19.2485 21.7568 19.8842 22.3924 19.8842 23.1743V42.4678C19.8842 42.6196 19.7604 42.7434 19.6029 42.7434ZM14.5574 42.1921H19.3329V23.1743C19.3329 22.7018 18.9448 22.3136 18.4723 22.3136H15.418C14.9399 22.3136 14.5574 22.7018 14.5574 23.1743V42.1921Z" fill="white"/>
<path d="M16.9311 48.0533C16.8242 48.0533 16.7286 47.9914 16.6836 47.9014L14.0286 42.5971C13.9611 42.4621 14.0174 42.2934 14.1524 42.2259C14.2873 42.1584 14.4561 42.2146 14.5236 42.3496L16.9311 47.1646L19.3554 42.3496C19.4229 42.2146 19.5917 42.1584 19.7267 42.2259C19.8616 42.2934 19.9179 42.4621 19.8504 42.5971L17.1786 47.9014C17.1336 47.9914 17.0379 48.0533 16.9311 48.0533Z" fill="white"/>
<path d="M16.9309 42.7434C16.779 42.7434 16.6553 42.6196 16.6553 42.4677V26.4255C16.6553 26.2736 16.779 26.1498 16.9309 26.1498C17.0828 26.1498 17.2065 26.2736 17.2065 26.4255V42.4677C17.2065 42.6196 17.0828 42.7434 16.9309 42.7434Z" fill="white"/>
<path d="M19.6029 26.7011H14.2761C14.1242 26.7011 14.0005 26.5773 14.0005 26.4255C14.0005 26.2736 14.1242 26.1498 14.2761 26.1498H19.6029C19.7548 26.1498 19.8785 26.2736 19.8785 26.4255C19.8785 26.5773 19.7604 26.7011 19.6029 26.7011Z" fill="white"/>
<path d="M30.1552 25.593H24.8059C24.654 25.593 24.5303 25.4692 24.5303 25.3173V20.8005C24.5303 20.6487 24.654 20.5249 24.8059 20.5249H30.1552C30.3071 20.5249 30.4308 20.6487 30.4308 20.8005V25.3173C30.4364 25.4692 30.3127 25.593 30.1552 25.593ZM25.0871 25.0417H29.8796V21.0761H25.0871V25.0417Z" fill="white"/>
<path d="M40.1112 23.3374H31.9719C31.82 23.3374 31.6963 23.2136 31.6963 23.0618C31.6963 22.9099 31.82 22.7861 31.9719 22.7861H40.1056C40.2574 22.7861 40.3812 22.9099 40.3812 23.0618C40.3812 23.2136 40.2631 23.3374 40.1112 23.3374Z" fill="white"/>
<path d="M30.1552 34.7897H24.8059C24.654 34.7897 24.5303 34.666 24.5303 34.5141V29.9973C24.5303 29.8454 24.654 29.7217 24.8059 29.7217H30.1552C30.3071 29.7217 30.4308 29.8454 30.4308 29.9973V34.5141C30.4364 34.666 30.3127 34.7897 30.1552 34.7897ZM25.0871 34.2329H29.8796V30.2673H25.0871V34.2329Z" fill="white"/>
<path d="M40.1112 32.5285H31.9719C31.82 32.5285 31.6963 32.4048 31.6963 32.2529C31.6963 32.101 31.82 31.9773 31.9719 31.9773H40.1056C40.2574 31.9773 40.3812 32.101 40.3812 32.2529C40.3868 32.4048 40.2631 32.5285 40.1112 32.5285Z" fill="white"/>
<path d="M30.1552 43.9809H24.8059C24.654 43.9809 24.5303 43.8571 24.5303 43.7052V39.1884C24.5303 39.0366 24.654 38.9128 24.8059 38.9128H30.1552C30.3071 38.9128 30.4308 39.0366 30.4308 39.1884V43.7052C30.4364 43.8571 30.3127 43.9809 30.1552 43.9809ZM25.0871 43.4296H29.8796V39.4641H25.0871V43.4296Z" fill="white"/>
<path d="M40.1112 41.7196H31.9719C31.82 41.7196 31.6963 41.5959 31.6963 41.444C31.6963 41.2921 31.82 41.1684 31.9719 41.1684H40.1056C40.2574 41.1684 40.3812 41.2921 40.3812 41.444C40.3812 41.5959 40.2631 41.7196 40.1112 41.7196Z" fill="white"/>
<defs>
<linearGradient id="paint0_linear_165_5619" x1="64" y1="7.62939e-06" x2="7.62939e-06" y2="64" gradientUnits="userSpaceOnUse">
<stop stop-color="#F65A75"/>
<stop offset="1" stop-color="#48179C"/>
</linearGradient>
</defs>
</svg>
