<svg width="64" height="64" viewBox="0 0 64 64" fill="none" xmlns="http://www.w3.org/2000/svg">
<rect width="64" height="64" rx="32" fill="url(#paint0_linear_165_5660)"/>
<path fill-rule="evenodd" clip-rule="evenodd" d="M45.5297 45.3081H18.4689C16.0052 45.3081 14 43.3029 14 40.8393V39.7087C14 39.4443 14.2151 39.2292 14.4795 39.2292H49.5205C49.7849 39.2292 50 39.4443 50 39.7087V40.8393C50 43.3029 47.9948 45.3081 45.5311 45.3081H45.5297ZM14.9576 40.188V40.8391C14.9576 42.7754 16.5325 44.3504 18.4674 44.3504H45.5283C47.4646 44.3504 49.0395 42.7754 49.0395 40.8391V40.188H14.9576Z" fill="white"/>
<path fill-rule="evenodd" clip-rule="evenodd" d="M46.3414 40.1866H17.6592C17.3948 40.1866 17.1797 39.9715 17.1797 39.7071V21.8191C17.1797 19.714 18.8924 18 20.9973 18H43.0015C45.1065 18 46.8191 19.7127 46.8191 21.8191V39.7085C46.8191 39.9729 46.604 40.188 46.3396 40.188L46.3414 40.1866ZM18.1372 39.229H45.8619V21.819C45.8619 20.2412 44.5795 18.9588 43.0017 18.9588H20.9976C19.4198 18.9588 18.1374 20.2412 18.1374 21.819L18.1372 39.229Z" fill="white"/>
<path fill-rule="evenodd" clip-rule="evenodd" d="M43.8139 40.1866H20.1841C19.9197 40.1866 19.7046 39.9715 19.7046 39.7071V21.8191C19.7046 21.1061 20.284 20.5268 20.9969 20.5268H43.001C43.7139 20.5268 44.2919 21.1062 44.2919 21.8191V39.7086C44.2919 39.9729 44.0767 40.1881 43.8124 40.1881L43.8139 40.1866ZM20.6636 39.229H43.3344V21.819C43.3344 21.6376 43.1811 21.4857 43.0011 21.4857H20.997C20.8128 21.4857 20.6637 21.6362 20.6637 21.819L20.6636 39.229Z" fill="white"/>
<path fill-rule="evenodd" clip-rule="evenodd" d="M35.0691 42.8894H28.931C28.2321 42.8894 27.6626 42.3213 27.6626 41.6224V39.7086C27.6626 39.4442 27.8777 39.2291 28.1421 39.2291H35.858C36.1224 39.2291 36.3375 39.4442 36.3375 39.7086V41.6224C36.3375 42.3213 35.768 42.8894 35.0691 42.8894ZM28.6203 40.1867V41.621C28.6203 41.7884 28.7623 41.9304 28.9297 41.9304H35.0678C35.2393 41.9304 35.3786 41.7912 35.3786 41.621V40.1867H28.6203Z" fill="white"/>
<path fill-rule="evenodd" clip-rule="evenodd" d="M28.9986 37.0439H27.3506C27.0862 37.0439 26.8711 36.8288 26.8711 36.5644V33.461C26.8711 33.1966 27.0862 32.9815 27.3506 32.9815H28.9986C29.263 32.9815 29.4781 33.1966 29.4781 33.461V36.5644C29.4781 36.8288 29.263 37.0439 28.9986 37.0439ZM27.8301 36.0863H28.5191V33.9405H27.8301V36.0863Z" fill="white"/>
<path fill-rule="evenodd" clip-rule="evenodd" d="M33.0426 37.044H31.3945C31.1302 37.044 30.915 36.8288 30.915 36.5645V30.3576C30.915 30.0932 31.1302 29.8781 31.3945 29.8781H33.0426C33.307 29.8781 33.5221 30.0932 33.5221 30.3576V36.5659C33.5221 36.8303 33.3069 37.0454 33.0426 37.0454V37.044ZM31.874 36.0863H32.5631V30.837H31.874V36.0863Z" fill="white"/>
<path fill-rule="evenodd" clip-rule="evenodd" d="M37.087 37.0439H35.439C35.1746 37.0439 34.9595 36.8288 34.9595 36.5644V27.2541C34.9595 26.9898 35.1746 26.7746 35.439 26.7746H37.087C37.3514 26.7746 37.5665 26.9898 37.5665 27.2541V36.5644C37.5665 36.8288 37.3514 37.0439 37.087 37.0439ZM35.9185 36.0863H36.6075V27.7336H35.9185V36.0863Z" fill="white"/>
<path fill-rule="evenodd" clip-rule="evenodd" d="M41.131 37.0439H39.4829C39.2186 37.0439 39.0034 36.8288 39.0034 36.5644V24.1492C39.0034 23.8849 39.2186 23.6697 39.4829 23.6697H41.131C41.3953 23.6697 41.6105 23.8849 41.6105 24.1492V36.5644C41.6105 36.8288 41.3953 37.0439 41.131 37.0439ZM39.9624 36.0863H40.6515V24.6301H39.9624V36.0863Z" fill="white"/>
<path fill-rule="evenodd" clip-rule="evenodd" d="M25.8779 32.0632C23.9542 32.0632 22.3892 30.4981 22.3892 28.5744C22.3892 26.6508 23.9543 25.0843 25.8779 25.0843C26.1423 25.0843 26.3574 25.2994 26.3574 25.5638V28.0949H28.8886C29.1529 28.0949 29.3681 28.31 29.3681 28.5744C29.3681 30.4981 27.8029 32.0646 25.8793 32.0646L25.8779 32.0632ZM25.3984 26.0867C24.2313 26.3117 23.3454 27.341 23.3454 28.5728C23.3454 29.9692 24.4802 31.104 25.8765 31.104C27.1084 31.104 28.1377 30.2195 28.3627 29.0509H25.8765C25.6122 29.0509 25.397 28.8358 25.397 28.5714V26.0853L25.3984 26.0867Z" fill="white"/>
<path fill-rule="evenodd" clip-rule="evenodd" d="M30.3078 27.6393H30.3022H27.2915C27.0271 27.6393 26.812 27.4242 26.812 27.1598V24.1492C26.812 23.8848 27.0272 23.6697 27.2915 23.6697C29.1885 23.6697 30.7381 25.1926 30.7803 27.0797C30.7845 27.105 30.7873 27.1317 30.7873 27.1599C30.7873 27.4242 30.5722 27.6393 30.3078 27.6393ZM27.771 26.6803H29.7777C29.5836 25.6678 28.7835 24.8677 27.771 24.6737V26.6803Z" fill="white"/>
<defs>
<linearGradient id="paint0_linear_165_5660" x1="64" y1="7.62939e-06" x2="7.62939e-06" y2="64" gradientUnits="userSpaceOnUse">
<stop stop-color="#F65A75"/>
<stop offset="1" stop-color="#48179C"/>
</linearGradient>
</defs>
</svg>
