<svg width="64" height="64" viewBox="0 0 64 64" fill="none" xmlns="http://www.w3.org/2000/svg">
<rect width="64" height="64" rx="32" fill="url(#paint0_linear_165_5658)"/>
<path d="M23.1991 24.1928L19.6999 22.1736C19.5642 22.0946 19.3959 22.0946 19.2603 22.1736C19.1247 22.2525 19.0405 22.3968 19.0405 22.5547V26.5948C19.0405 26.7511 19.1247 26.897 19.2603 26.976C19.3273 27.0155 19.4045 27.0344 19.4801 27.0344C19.5556 27.0344 19.6329 27.0155 19.6999 26.976L23.1991 24.9568C23.3347 24.8778 23.4188 24.7336 23.4188 24.5756C23.4188 24.4194 23.3347 24.2734 23.1991 24.1944V24.1928ZM19.9196 25.8325V23.3154L22.1002 24.5739L19.9196 25.8325Z" fill="white"/>
<path d="M47.8005 17H16.1977C14.9856 17 14 17.9856 14 19.1977V37.4237C14 38.6359 14.9856 39.6214 16.1977 39.6214H20.0816V45.765C20.0816 46.323 20.4198 46.8089 20.9452 47.0012C21.098 47.0579 21.2525 47.0837 21.4071 47.0837C21.7831 47.0837 22.1471 46.9205 22.4046 46.6184L28.3781 39.6181H47.8023C49.0144 39.6181 50 38.6325 50 37.4203L49.9983 19.1979C49.9983 17.9857 49.0127 17 47.8005 17ZM49.1191 37.4254C49.1191 38.1517 48.5268 38.7441 47.8005 38.7441L28.1737 38.7424C28.0449 38.7424 27.923 38.799 27.8389 38.8969L21.7331 46.0497C21.5477 46.2643 21.3142 46.2008 21.2472 46.1767C21.1802 46.1527 20.9605 46.0497 20.9605 45.7647V39.1815C20.9605 38.9377 20.7647 38.742 20.5209 38.742H16.1975C15.4713 38.742 14.8789 38.1496 14.8789 37.4233V19.1974C14.8789 18.4711 15.4713 17.8788 16.1975 17.8788H47.8003C48.5266 17.8788 49.1189 18.4711 49.1189 19.1974L49.1191 37.4254Z" fill="white"/>
<path d="M42.1327 26.6547C42.2581 26.7526 42.38 26.8453 42.4933 26.9363C42.574 26.9998 42.6702 27.0324 42.7663 27.0324C42.8642 27.0324 42.9603 26.9998 43.0393 26.9363C43.1526 26.847 43.2728 26.7526 43.3982 26.6564C44.3408 25.9284 45.5152 25.0236 45.5152 23.88C45.5152 23.3838 45.3761 22.9597 45.11 22.6524C44.7992 22.2952 44.3425 22.1132 43.7501 22.1132C43.3741 22.1132 43.0256 22.2574 42.7646 22.5064C42.5053 22.2574 42.155 22.1132 41.7807 22.1132C41.1901 22.1132 40.7316 22.2952 40.4191 22.6541C40.1513 22.9649 40.0156 23.3769 40.0156 23.88C40.0122 25.0236 41.1866 25.9284 42.131 26.6564L42.1327 26.6547ZM41.0871 23.2293C41.2245 23.0713 41.458 22.9923 41.7825 22.9923C41.9919 22.9923 42.1791 23.1091 42.2718 23.298C42.3645 23.4868 42.5534 23.6036 42.7663 23.6036C42.9792 23.6036 43.1681 23.4868 43.2608 23.298C43.3535 23.1091 43.5407 22.9923 43.7502 22.9923C44.0747 22.9923 44.3099 23.0713 44.4438 23.2276C44.6018 23.4113 44.6344 23.6826 44.6344 23.88C44.6344 24.5909 43.6506 25.3498 42.859 25.961C42.8264 25.9851 42.7955 26.0108 42.7629 26.0349C42.7302 26.0091 42.6976 25.9851 42.665 25.9593C41.8752 25.3498 40.8913 24.5909 40.8931 23.88C40.8931 23.6826 40.9257 23.4096 41.0819 23.2293L41.0871 23.2293Z" fill="white"/>
<path d="M24.2141 30.8511H18.2477C18.0038 30.8511 17.8081 31.0485 17.8081 31.2906C17.8081 31.5327 18.0038 31.7302 18.2477 31.7302H24.2141C24.4579 31.7302 24.6537 31.5327 24.6537 31.2906C24.6537 31.0485 24.4579 30.8511 24.2141 30.8511Z" fill="white"/>
<path d="M47.0416 20.3947H38.4928C38.249 20.3947 38.0533 20.5921 38.0533 20.8342V21.3751H25.9432V20.8342C25.9432 20.5921 25.7475 20.3947 25.5037 20.3947L16.9566 20.3964C16.7128 20.3964 16.5171 20.5938 16.5171 20.8359V35.7859C16.5171 36.0297 16.7128 36.2254 16.9566 36.2254H25.5054C25.7493 36.2254 25.945 36.0297 25.945 35.7859V35.245H38.2796L38.1028 35.585C38.0684 35.6502 38.0547 35.7206 38.0547 35.791C38.0547 35.8425 38.0667 35.8923 38.0856 35.9421C38.089 35.9524 38.0942 35.9627 38.0993 35.9713C38.1062 35.985 38.1097 36.0005 38.1182 36.0142C38.1354 36.0434 38.1577 36.0675 38.18 36.0915C38.1818 36.0932 38.1818 36.0949 38.1835 36.0949C38.2213 36.1327 38.2642 36.1602 38.3123 36.1808C38.3191 36.1842 38.3277 36.1876 38.3363 36.1894C38.3861 36.2082 38.4393 36.222 38.4943 36.222H47.0431C47.0997 36.222 47.1512 36.2082 47.201 36.1894C47.2079 36.1859 47.2165 36.1842 47.2233 36.1808C47.2714 36.1585 47.3161 36.131 47.3521 36.0932C47.3538 36.0915 47.3538 36.0915 47.3538 36.0898C47.3779 36.0657 47.3985 36.04 47.4174 36.0108C47.426 35.9971 47.4294 35.9816 47.4363 35.9679C47.4414 35.9576 47.4448 35.949 47.45 35.9387C47.4689 35.8906 47.4792 35.8391 47.4809 35.7876C47.4809 35.7859 47.4826 35.7842 47.4826 35.7824L47.4809 20.8342C47.4809 20.5921 47.2854 20.3947 47.0416 20.3947ZM38.9324 21.2738H46.6021V27.8705H38.9341V21.8166C38.9341 21.8132 38.9324 21.8114 38.9324 21.808L38.9324 21.2738ZM17.3962 21.2738H25.0659V27.8705H17.3962V21.2738ZM25.0659 35.3464H17.3962V28.7496H25.0659V35.3464ZM38.0568 28.3017V34.3662H25.945V22.2561H38.0568V28.3035V28.3017ZM39.2175 35.3481L39.2192 35.3464L40.7662 32.364L42.3115 35.3464L42.3132 35.3481H39.2175ZM43.3005 35.3481L43.2988 35.3464L42.6274 34.0518L44.1367 31.1381L46.3172 35.3464L46.319 35.3481H43.3005ZM44.5281 29.9808C44.4526 29.8348 44.3015 29.7438 44.1384 29.7438C43.9736 29.7438 43.8242 29.8348 43.7486 29.9808L42.1346 33.0954L41.1559 31.205C41.0804 31.059 40.9293 30.968 40.7662 30.968C40.6014 30.968 40.452 31.059 40.3764 31.205L38.9376 33.9814V28.7498H46.6056V33.9831L44.5314 29.9808H44.5281Z" fill="white"/>
<path d="M24.2141 29.3333H18.2477C18.0038 29.3333 17.8081 29.5307 17.8081 29.7728C17.8081 30.0149 18.0038 30.2124 18.2477 30.2124H24.2141C24.4579 30.2124 24.6537 30.0149 24.6537 29.7728C24.6537 29.5307 24.4579 29.3333 24.2141 29.3333Z" fill="white"/>
<path d="M36.5683 28.4783C36.7159 28.298 36.8121 28.0783 36.8258 27.8327C36.8464 27.4945 36.7262 27.1768 36.4876 26.9381C36.273 26.7235 35.9725 26.5999 35.6651 26.5999H33.7507L34.3053 25.1885C34.3585 25.0409 34.4117 24.8795 34.4117 24.6769C34.4117 24.1721 34.1147 23.7068 33.6528 23.4921C33.0003 23.1934 32.226 23.4801 31.9272 24.1309L30.9073 26.3492C30.5828 27.036 30.0351 27.1321 29.5234 27.1734V27.0395C29.5234 26.7974 29.3277 26.5999 29.0839 26.5999H27.6124C27.3686 26.5999 27.1729 26.7974 27.1729 27.0395V32.8085C27.1729 33.0524 27.3686 33.2481 27.6124 33.2481H29.0839C29.3277 33.2481 29.5234 33.0524 29.5234 32.8085V32.7416C29.8668 32.7313 30.0265 32.7879 30.2652 32.8738C30.7081 33.0318 31.3125 33.2498 33.2012 33.2498H35.6239C35.9604 33.2498 36.2849 33.109 36.515 32.8635C36.7348 32.63 36.8464 32.3312 36.8275 32.0187C36.8138 31.7749 36.7193 31.5465 36.5717 31.3662C36.7313 31.1671 36.8309 30.9198 36.8309 30.6451C36.8309 30.3756 36.7348 30.1232 36.5717 29.924C36.7313 29.7248 36.8309 29.4776 36.8309 29.2029C36.8309 28.935 36.7365 28.6843 36.5699 28.4783L36.5683 28.4783ZM28.6445 32.369H28.0521V27.4791H28.6445V32.369ZM35.8747 32.2592C35.8111 32.3278 35.7167 32.369 35.6223 32.369H33.1996C31.4637 32.369 30.9418 32.1819 30.5606 32.0462C30.2773 31.9449 30.0369 31.8539 29.5235 31.8642V28.0577C30.1313 28.013 31.1529 27.8877 31.7041 26.7235L32.7257 24.5017C32.8235 24.2906 33.0725 24.1978 33.2854 24.294C33.4365 24.3644 33.5326 24.5155 33.5326 24.6803C33.5326 24.7284 33.5206 24.7782 33.4829 24.8795L32.8665 26.4505C32.7617 26.6772 32.7806 26.9364 32.9145 27.1459C33.0485 27.3554 33.2768 27.4807 33.5275 27.4807H35.6652C35.7407 27.4807 35.8163 27.5116 35.866 27.5614C35.9073 27.6026 35.9553 27.6747 35.9502 27.7812C35.9416 27.9237 35.7957 28.0439 35.6325 28.0439H34.9046C34.6607 28.0439 34.465 28.2413 34.465 28.4834C34.465 28.7255 34.6607 28.923 34.9046 28.923H35.6652C35.7407 28.923 35.8146 28.9522 35.8661 29.0037C35.921 29.0586 35.9502 29.1273 35.9502 29.2046C35.9502 29.3591 35.8232 29.4861 35.6652 29.4861H34.9046C34.6607 29.4861 34.465 29.6836 34.465 29.9257C34.465 30.1678 34.6607 30.3652 34.9046 30.3652H35.6652C35.7407 30.3652 35.8129 30.3944 35.8695 30.4528C35.921 30.5026 35.9502 30.573 35.9502 30.6468C35.9502 30.8014 35.8232 30.9284 35.6652 30.9284H34.9046C34.6607 30.9284 34.465 31.1259 34.465 31.368C34.465 31.6101 34.6607 31.8075 34.9046 31.8075H35.6652C35.7407 31.8075 35.8129 31.8367 35.8695 31.8951C35.9176 31.9414 35.9451 32.005 35.9502 32.0719C35.9554 32.1578 35.9124 32.2213 35.8747 32.2608V32.2592Z" fill="white"/>
<path d="M24.2141 32.3671H18.2477C18.0038 32.3671 17.8081 32.5628 17.8081 32.8066C17.8081 33.0504 18.0038 33.2462 18.2477 33.2462H24.2141C24.4579 33.2462 24.6537 33.0504 24.6537 32.8066C24.6537 32.5628 24.4579 32.3671 24.2141 32.3671Z" fill="white"/>
<path d="M24.2141 33.8848H18.2477C18.0038 33.8848 17.8081 34.0806 17.8081 34.3244C17.8081 34.5682 18.0038 34.7639 18.2477 34.7639H24.2141C24.4579 34.7639 24.6537 34.5682 24.6537 34.3244C24.6537 34.0806 24.4579 33.8848 24.2141 33.8848Z" fill="white"/>
<defs>
<linearGradient id="paint0_linear_165_5658" x1="64" y1="7.62939e-06" x2="7.62939e-06" y2="64" gradientUnits="userSpaceOnUse">
<stop stop-color="#F65A75"/>
<stop offset="1" stop-color="#48179C"/>
</linearGradient>
</defs>
</svg>
