<svg width="64" height="64" viewBox="0 0 64 64" fill="none" xmlns="http://www.w3.org/2000/svg">
<rect width="64" height="64" rx="32" fill="url(#paint0_linear_165_5357)"/>
<path fill-rule="evenodd" clip-rule="evenodd" d="M16.0878 15H47.9122C49.0612 15 50 15.9388 50 17.0878V38.8059C50 39.9548 49.0612 40.8937 47.9122 40.8937H34.232L35.0068 44.6578H39.2385C39.8952 44.6578 40.4312 45.1938 40.4312 45.8505V47.6842C40.4312 48.3409 39.8952 48.8769 39.2385 48.8769H24.7615C24.1048 48.8769 23.5688 48.3409 23.5688 47.6842V45.8505C23.5688 45.1938 24.1047 44.6578 24.7615 44.6578H28.9932L29.7679 40.8937H16.0878C14.9387 40.8937 14 39.9548 14 38.8059V17.0878C14 15.9388 14.9388 15 16.0878 15ZM32 22.4446C28.9614 22.4446 26.4978 24.9081 26.4978 27.9469C26.4978 30.9856 28.9613 33.4491 32 33.4491C35.0387 33.4491 37.5022 30.9856 37.5022 27.9469C37.5022 24.9081 35.0387 22.4446 32 22.4446ZM35.3709 24.576C33.5092 22.7144 30.4908 22.7144 28.6291 24.576C26.7675 26.4376 26.7676 29.4561 28.6291 31.3177C30.4907 33.1793 33.5092 33.1793 35.3709 31.3177C37.2324 29.4561 37.2324 26.4376 35.3709 24.576ZM32.3289 30.1532C33.4424 30.1181 33.9988 28.7583 33.1975 27.9571C32.7524 27.512 32.2857 27.5792 31.7119 27.5792C31.5604 27.5792 31.4225 27.5169 31.3223 27.4167C30.9706 27.0651 31.2293 26.4749 31.7119 26.4749H32.974C33.458 26.4749 33.458 25.7398 32.974 25.7398H32.3289V25.2032C32.3289 24.7193 31.5937 24.7193 31.5937 25.2032V25.7451C30.5224 25.8436 30.0255 27.1594 30.8025 27.9364C31.2476 28.3816 31.7142 28.3143 32.288 28.3143C32.4395 28.3143 32.5775 28.3766 32.6777 28.4768C33.0294 28.8284 32.7707 29.4186 32.288 29.4186H31.0259C30.542 29.4186 30.542 30.1537 31.0259 30.1537H31.5937V30.6903C31.5937 31.1742 32.3288 31.1742 32.3288 30.6903V30.1532H32.3289ZM39.4823 31.6361C39.2865 31.6884 39.1701 31.8896 39.2225 32.0855L40.1549 35.5656L40.1553 35.5656C40.239 35.8787 40.6634 35.9375 40.8269 35.6547L41.5431 34.4141L43.1917 35.931L43.1922 35.9304C43.3642 36.0883 43.6396 36.0479 43.7574 35.8434L44.9876 33.7126C45.1318 33.487 45.0265 33.2319 44.8107 33.1548L42.7041 32.4033L43.3667 31.2557C43.5481 30.957 43.2739 30.6202 42.9626 30.7035L39.4823 31.6361ZM42.2968 31.642L40.0266 32.2503L40.6349 34.5205L41.1847 33.5857C41.3219 33.4366 41.5539 33.427 41.703 33.5642L43.3521 35.0815L44.1501 33.6994L42.0428 32.9476L42.043 32.947C41.8277 32.8699 41.7339 32.6167 41.8489 32.4178L42.2968 31.642ZM32 20.6894C27.9919 20.6894 24.7426 23.9388 24.7426 27.9469C24.7426 31.955 27.9919 35.2043 32 35.2043C36.0081 35.2043 39.2574 31.955 39.2574 27.9469C39.2574 23.9388 36.0081 20.6894 32 20.6894ZM36.612 23.3348C34.0648 20.7878 29.935 20.7878 27.388 23.3348C24.8409 25.8819 24.8409 30.0118 27.388 32.5588C29.935 35.1059 34.0649 35.1059 36.612 32.5588C39.159 30.0118 39.159 25.8819 36.612 23.3348ZM34.2587 44.6578L33.4839 40.8937H30.5159L29.7412 44.6578H34.2587ZM39.2385 45.3929H24.7615C24.5106 45.3929 24.304 45.5995 24.304 45.8505V47.6842C24.304 47.9351 24.5106 48.1418 24.7615 48.1418H39.2385C39.4894 48.1418 39.696 47.9351 39.696 47.6842V45.8505C39.696 45.5995 39.4894 45.3929 39.2385 45.3929ZM18.9385 18.1301C18.0249 18.1301 17.2787 18.8763 17.2787 19.7899V36.1038C17.2787 37.0174 18.0249 37.7636 18.9385 37.7636H45.0614C45.9749 37.7636 46.7212 37.0174 46.7212 36.1038V19.7899C46.7212 18.8762 45.9749 18.1301 45.0614 18.1301H18.9385ZM45.0615 18.8653H18.9385C18.4307 18.8653 18.0139 19.282 18.0139 19.7899V36.1038C18.0139 36.6116 18.4307 37.0284 18.9385 37.0284H45.0614C45.5692 37.0284 45.986 36.6116 45.986 36.1038V19.7899C45.986 19.2821 45.5692 18.8653 45.0615 18.8653ZM47.9122 15.7352H16.0878C15.3446 15.7352 14.7352 16.3445 14.7352 17.0878V38.8059C14.7352 39.5491 15.3445 40.1585 16.0878 40.1585H47.9122C48.6554 40.1585 49.2648 39.549 49.2648 38.8059V17.0878C49.2648 16.3445 48.6555 15.7352 47.9122 15.7352Z" fill="white"/>
<defs>
<linearGradient id="paint0_linear_165_5357" x1="64" y1="7.62939e-06" x2="7.62939e-06" y2="64" gradientUnits="userSpaceOnUse">
<stop stop-color="#F65A75"/>
<stop offset="1" stop-color="#48179C"/>
</linearGradient>
</defs>
</svg>
