<svg width="619" height="390" viewBox="0 0 619 390" fill="none" xmlns="http://www.w3.org/2000/svg">
<g clip-path="url(#clip0_182_18866)">
<path d="M530.136 278.185C528.291 268.682 510.626 267.099 510.626 267.099C510.626 267.099 520.947 249.887 513.627 242.092C506.307 234.297 489.488 252.605 489.488 252.605C489.488 252.605 483.934 241.037 475.674 252.605C475.674 252.605 461.91 242.093 450.007 247.496C441.505 251.355 442.758 261.548 444.168 267.06H210.404C210.206 266.651 209.961 266.256 209.651 265.882C201.755 256.352 178.854 261.258 178.854 261.258C178.854 261.258 188.419 237.639 172.647 230.48C156.874 223.321 138.638 237.248 138.638 237.248C127.693 221.921 120.335 237.248 120.335 237.248C120.335 237.248 98.0497 212.992 88.3509 223.319C78.6531 233.647 92.3272 256.453 92.3272 256.453C92.3272 256.453 68.9224 258.55 66.4784 271.141C64.0345 283.733 106.972 296.806 106.972 296.806L499.575 297.554C499.575 297.554 531.981 287.688 530.136 278.185Z" fill="#71BF9D"/>
<path d="M128.569 293.1C121.515 273.103 110.789 254.409 97.0894 238.226" stroke="#E57E55" stroke-width="0.995436" stroke-miterlimit="10" stroke-linecap="round" stroke-linejoin="round"/>
<path d="M128.561 293.818C129.107 278.033 130.75 262.286 133.474 246.729" stroke="#E57E55" stroke-width="0.995436" stroke-miterlimit="10" stroke-linecap="round" stroke-linejoin="round"/>
<path d="M124.323 282.86C114.142 277.809 103.209 274.278 91.9966 272.419" stroke="#E57E55" stroke-width="0.995436" stroke-miterlimit="10" stroke-linecap="round" stroke-linejoin="round"/>
<path d="M113.929 261.434C115.981 256.661 117.385 251.61 118.09 246.463" stroke="#E57E55" stroke-width="0.995436" stroke-miterlimit="10" stroke-linecap="round" stroke-linejoin="round"/>
<path d="M481.833 294.854C487.481 278.845 496.067 263.877 507.036 250.92" stroke="#E57E55" stroke-width="0.796968" stroke-miterlimit="10" stroke-linecap="round" stroke-linejoin="round"/>
<path d="M481.84 295.428C481.403 282.79 480.087 270.183 477.907 257.728" stroke="#E57E55" stroke-width="0.796968" stroke-miterlimit="10" stroke-linecap="round" stroke-linejoin="round"/>
<path d="M485.233 286.656C493.385 282.612 502.138 279.785 511.114 278.297" stroke="#E57E55" stroke-width="0.796968" stroke-miterlimit="10" stroke-linecap="round" stroke-linejoin="round"/>
<path d="M493.555 269.501C491.911 265.68 490.787 261.636 490.223 257.515" stroke="#E57E55" stroke-width="0.796968" stroke-miterlimit="10" stroke-linecap="round" stroke-linejoin="round"/>
<path d="M108.573 228.896C108.771 228.936 108.916 229.044 109.066 229.146C109.199 229.267 109.338 229.383 109.42 229.569C109.516 229.785 109.418 230.039 109.203 230.141C109.115 230.183 109.02 230.192 108.933 230.173C108.738 230.13 108.594 230.025 108.447 229.925C108.315 229.805 108.179 229.69 108.095 229.508C107.997 229.296 108.089 229.039 108.301 228.933C108.389 228.888 108.485 228.878 108.573 228.896Z" fill="white"/>
<path d="M110.174 230.184C110.369 230.23 110.511 230.342 110.658 230.447C110.788 230.573 110.923 230.694 111.001 230.879C111.092 231.095 110.986 231.349 110.77 231.444C110.68 231.484 110.586 231.49 110.498 231.469C110.303 231.424 110.163 231.313 110.018 231.208C109.89 231.083 109.757 230.965 109.679 230.78C109.586 230.567 109.684 230.313 109.899 230.213C109.989 230.172 110.086 230.164 110.174 230.184Z" fill="white"/>
<path d="M111.736 231.514C111.932 231.563 112.07 231.678 112.214 231.788C112.341 231.917 112.471 232.041 112.545 232.228C112.632 232.446 112.52 232.698 112.301 232.787C112.211 232.824 112.114 232.829 112.028 232.807C111.833 232.758 111.697 232.643 111.555 232.535C111.43 232.407 111.301 232.283 111.225 232.1C111.138 231.885 111.242 231.632 111.461 231.538C111.552 231.498 111.649 231.492 111.736 231.514Z" fill="white"/>
<path d="M114.434 233.961C114.627 234.018 114.762 234.137 114.902 234.252C115.023 234.386 115.15 234.515 115.216 234.705C115.293 234.927 115.174 235.173 114.95 235.255C114.858 235.289 114.762 235.29 114.678 235.264C114.486 235.207 114.353 235.087 114.215 234.973C114.095 234.841 113.969 234.714 113.901 234.526C113.822 234.306 113.937 234.058 114.158 233.973C114.251 233.937 114.348 233.935 114.434 233.961Z" fill="white"/>
<path d="M116.297 235.761C116.437 235.773 116.519 235.845 116.605 235.912C116.673 235.998 116.746 236.08 116.758 236.221C116.781 236.493 116.577 236.737 116.305 236.767C116.273 236.771 116.239 236.771 116.208 236.768C116.067 236.756 115.988 236.683 115.902 236.616C115.835 236.531 115.762 236.451 115.75 236.311C115.727 236.04 115.925 235.794 116.198 235.762C116.23 235.759 116.265 235.759 116.297 235.761Z" fill="white"/>
<path d="M117.82 237.339C117.961 237.355 118.041 237.43 118.125 237.5C118.191 237.589 118.262 237.671 118.27 237.813C118.286 238.088 118.071 238.322 117.8 238.345C117.768 238.348 117.734 238.347 117.703 238.344C117.563 238.328 117.485 238.254 117.403 238.186C117.338 238.099 117.268 238.017 117.259 237.877C117.242 237.606 117.446 237.365 117.719 237.339C117.753 237.335 117.788 237.335 117.82 237.339Z" fill="white"/>
<path d="M90.7131 223.57C92.0599 222.71 93.6701 222.4 95.2275 222.388C96.8169 222.428 98.3384 222.852 99.763 223.426C101.184 224.021 102.527 224.759 103.82 225.562C105.109 226.372 106.34 227.265 107.526 228.206C107.69 228.338 107.713 228.58 107.579 228.747C107.449 228.909 107.221 228.942 107.06 228.827C105.84 227.963 104.598 227.133 103.325 226.367C102.055 225.598 100.744 224.9 99.3866 224.349C98.0378 223.786 96.6202 223.384 95.2106 223.332C93.784 223.318 92.3394 223.542 91.1134 224.235C90.9437 224.325 90.7091 224.254 90.5903 224.075C90.4765 223.902 90.5324 223.681 90.7131 223.57Z" fill="white"/>
<path d="M90.2618 224.735C90.2149 224.9 90.0941 224.973 90.0152 225.095C89.9114 225.192 89.8146 225.292 89.6499 225.337C89.4242 225.399 89.1597 225.281 89.0808 225.049C89.0558 224.975 89.0538 224.895 89.0698 224.822C89.1097 224.641 89.2166 224.515 89.3174 224.386C89.4292 224.268 89.578 224.184 89.7577 224.145C90.0133 224.098 90.2329 224.275 90.2758 224.515C90.2888 224.593 90.2828 224.669 90.2618 224.735Z" fill="white"/>
<path d="M89.1693 225.944C89.1633 226.116 89.0894 226.236 89.0195 226.36C88.9217 226.467 88.8608 226.597 88.7131 226.682C88.5124 226.799 88.2319 226.743 88.0981 226.532C88.0561 226.465 88.0342 226.388 88.0302 226.313C88.0242 226.128 88.0841 225.977 88.171 225.84C88.2728 225.712 88.3686 225.581 88.5334 225.5C88.761 225.388 89.0165 225.5 89.1224 225.725C89.1563 225.796 89.1713 225.873 89.1693 225.944Z" fill="white"/>
<path d="M88.3683 227.386C88.3054 227.681 88.2196 227.963 88.1317 228.243L87.9141 229.104C87.7703 229.68 87.6495 230.261 87.4898 230.847C87.4299 231.045 87.2153 231.165 87.0076 231.113C86.8319 231.071 86.7221 230.919 86.7201 230.75C86.7021 230.114 86.8189 229.487 86.9487 228.864L87.2352 227.949C87.359 227.651 87.4998 227.36 87.6555 227.079C87.7604 226.887 88.0239 226.845 88.1986 226.961C88.3504 227.062 88.3953 227.226 88.3683 227.386Z" fill="white"/>
<path d="M87.3613 232.373C87.4492 232.467 87.4512 232.557 87.4612 232.647C87.4452 232.736 87.4362 232.825 87.3414 232.913C87.1257 233.114 86.7833 233.118 86.5766 232.907L86.5656 232.896C86.4778 232.802 86.4758 232.708 86.4658 232.614C86.4828 232.521 86.4918 232.427 86.5856 232.338C86.8003 232.136 87.1417 232.153 87.3483 232.361L87.3613 232.373Z" fill="white"/>
<path d="M87.3663 234.189C87.4601 234.277 87.4691 234.366 87.4851 234.456C87.4751 234.546 87.4731 234.636 87.3853 234.73C87.1846 234.945 86.8432 234.971 86.6215 234.776L86.6096 234.766C86.5147 234.678 86.5057 234.585 86.4897 234.493C86.4997 234.399 86.5017 234.306 86.5896 234.211C86.7893 233.995 87.1307 233.986 87.3513 234.178L87.3663 234.189Z" fill="white"/>
<path d="M513.088 253.69C513.136 253.898 513.1 254.089 513.071 254.282C513.019 254.469 512.964 254.655 512.83 254.822C512.673 255.015 512.399 255.041 512.218 254.883C512.143 254.818 512.095 254.731 512.075 254.639C512.03 254.432 512.074 254.248 512.1 254.059C512.153 253.876 512.199 253.693 512.329 253.526C512.479 253.332 512.753 253.294 512.939 253.445C513.017 253.51 513.067 253.597 513.088 253.69Z" fill="white"/>
<path d="M512.576 255.834C512.614 256.044 512.57 256.233 512.532 256.423C512.47 256.607 512.408 256.79 512.268 256.951C512.105 257.138 511.83 257.153 511.654 256.987C511.582 256.919 511.538 256.83 511.522 256.737C511.486 256.529 511.536 256.345 511.572 256.158C511.634 255.978 511.687 255.796 511.824 255.635C511.983 255.449 512.258 255.424 512.437 255.584C512.512 255.651 512.559 255.74 512.576 255.834Z" fill="white"/>
<path d="M511.974 257.95C512.005 258.161 511.953 258.348 511.909 258.538C511.839 258.718 511.773 258.9 511.627 259.056C511.457 259.236 511.183 259.242 511.012 259.072C510.942 259.001 510.9 258.911 510.888 258.818C510.859 258.608 510.914 258.426 510.958 258.24C511.026 258.061 511.087 257.882 511.23 257.725C511.396 257.543 511.671 257.529 511.844 257.696C511.917 257.767 511.96 257.857 511.974 257.95Z" fill="white"/>
<path d="M510.743 261.652C510.762 261.864 510.702 262.048 510.648 262.233C510.571 262.411 510.496 262.589 510.344 262.737C510.165 262.91 509.89 262.903 509.729 262.724C509.662 262.651 509.625 262.559 509.617 262.465C509.598 262.254 509.662 262.074 509.714 261.89C509.791 261.715 509.861 261.537 510.012 261.389C510.188 261.216 510.461 261.216 510.627 261.392C510.696 261.466 510.734 261.557 510.743 261.652Z" fill="white"/>
<path d="M509.76 264.247C509.802 264.389 509.764 264.5 509.733 264.612C509.678 264.716 509.629 264.822 509.5 264.896C509.253 265.038 508.948 264.948 508.818 264.698C508.804 264.669 508.79 264.635 508.782 264.605C508.74 264.465 508.779 264.356 508.809 264.244C508.864 264.142 508.912 264.037 509.039 263.963C509.284 263.822 509.59 263.905 509.722 264.153C509.737 264.182 509.751 264.216 509.76 264.247Z" fill="white"/>
<path d="M508.849 266.41C508.886 266.553 508.846 266.663 508.811 266.775C508.752 266.877 508.701 266.981 508.569 267.052C508.317 267.188 508.016 267.084 507.894 266.832C507.88 266.802 507.868 266.769 507.859 266.738C507.822 266.596 507.863 266.488 507.897 266.378C507.955 266.279 508.005 266.175 508.135 266.105C508.382 265.97 508.686 266.061 508.812 266.314C508.828 266.344 508.84 266.378 508.849 266.41Z" fill="white"/>
<path d="M501.997 244.564C503.395 243.728 504.864 242.963 506.482 242.528C508.061 242.084 509.937 241.974 511.513 242.901C512.299 243.375 512.869 244.152 513.183 244.961C513.497 245.777 513.631 246.619 513.7 247.452C513.783 249.12 513.579 250.757 513.26 252.352C513.212 252.572 513.004 252.714 512.794 252.668C512.592 252.624 512.462 252.425 512.496 252.217C512.73 250.646 512.863 249.059 512.758 247.519C512.636 246.013 512.195 244.431 510.994 243.749C509.796 243.018 508.193 243.037 506.722 243.441C505.226 243.811 503.782 244.492 502.386 245.236C502.194 245.343 501.954 245.278 501.849 245.091C501.747 244.911 501.815 244.679 501.997 244.564Z" fill="white"/>
<path d="M501.387 245.732C501.299 245.895 501.168 245.984 501.04 246.08C500.897 246.153 500.762 246.24 500.579 246.252C500.326 246.27 500.108 246.083 500.098 245.832C500.095 245.752 500.114 245.673 500.149 245.605C500.236 245.438 500.368 245.341 500.501 245.244C500.647 245.167 500.789 245.084 500.976 245.073C501.234 245.058 501.44 245.254 501.443 245.505C501.444 245.586 501.423 245.664 501.387 245.732Z" fill="white"/>
<path d="M499.861 246.738C499.781 246.905 499.653 247.002 499.53 247.104C499.39 247.184 499.259 247.275 499.075 247.296C498.823 247.325 498.598 247.148 498.578 246.897C498.571 246.817 498.587 246.738 498.619 246.668C498.698 246.499 498.826 246.396 498.954 246.293C499.095 246.21 499.233 246.12 499.419 246.101C499.674 246.074 499.891 246.259 499.906 246.51C499.911 246.59 499.893 246.669 499.861 246.738Z" fill="white"/>
<path d="M498.379 247.811C497.914 248.277 497.405 248.681 496.908 249.102C496.393 249.501 495.892 249.918 495.337 250.273C495.15 250.395 494.903 250.347 494.786 250.165C494.69 250.015 494.713 249.819 494.83 249.686C495.272 249.187 495.774 248.754 496.281 248.329C496.802 247.92 497.329 247.517 497.912 247.191C498.11 247.079 498.353 247.146 498.455 247.337C498.539 247.495 498.503 247.688 498.379 247.811Z" fill="white"/>
<path d="M494.097 251.376C494.086 251.509 494.018 251.579 493.955 251.654C493.875 251.71 493.8 251.772 493.667 251.771C493.363 251.769 493.125 251.523 493.139 251.218L493.14 251.202C493.15 251.068 493.219 250.997 493.283 250.921C493.364 250.864 493.441 250.802 493.575 250.803C493.881 250.805 494.112 251.056 494.098 251.358L494.097 251.376Z" fill="white"/>
<path d="M492.68 252.732C492.674 252.865 492.609 252.937 492.548 253.014C492.47 253.073 492.397 253.137 492.265 253.14C491.964 253.148 491.712 252.915 491.716 252.606V252.59C491.722 252.456 491.789 252.383 491.85 252.303C491.93 252.243 492.005 252.178 492.139 252.174C492.445 252.166 492.685 252.41 492.68 252.712V252.732Z" fill="white"/>
<path d="M303.236 192.724C243.448 191.783 83.5503 241.277 64.0439 192.724C47.9688 152.71 108.076 155.777 111.571 122.648C115.067 89.517 99.4168 75.4066 124.365 60.0682C149.313 44.7299 189.97 66.0253 216.82 44.7299C243.669 23.4344 257.682 7.91837 318.122 0.555676C378.562 -6.80702 423.294 61.2942 449.154 68.0439C475.015 74.7926 512.058 57.6143 530.23 78.4735C548.402 99.3336 489.692 145.496 502.273 164.748C514.854 184 545.659 194.43 533.751 221.425C521.843 248.42 361.433 193.639 303.236 192.724Z" fill="#FFD25A"/>
<path d="M64.6167 174.196C64.6097 173.924 64.6816 173.677 64.7684 173.437C64.8742 173.204 64.9741 172.968 65.1518 172.765C65.3554 172.528 65.6519 172.53 65.7867 172.744C65.8416 172.832 65.8716 172.947 65.8686 173.064C65.8626 173.327 65.7787 173.556 65.7009 173.787C65.593 174.008 65.5142 174.239 65.3525 174.442C65.1638 174.679 64.8792 174.716 64.7195 174.513C64.6536 174.43 64.6197 174.316 64.6167 174.196Z" fill="white"/>
<path d="M65.7163 171.516C65.7432 171.245 65.865 171.021 65.9709 170.788C66.1046 170.571 66.2184 170.341 66.4321 170.17C66.6757 169.969 66.9592 170.001 67.071 170.232C67.1169 170.327 67.1269 170.442 67.1059 170.556C67.055 170.81 66.9572 171.035 66.8504 171.255C66.7266 171.467 66.5998 171.677 66.4141 171.858C66.1995 172.07 65.9139 172.071 65.7812 171.848C65.7253 171.755 65.7053 171.637 65.7163 171.516Z" fill="white"/>
<path d="M67.1452 169.001C67.2091 168.74 67.3449 168.524 67.4747 168.304C67.6284 168.102 67.7871 167.901 68.0088 167.748C68.2683 167.572 68.5449 167.633 68.6317 167.877C68.6677 167.978 68.6667 168.094 68.6347 168.207C68.5648 168.46 68.4211 168.659 68.2943 168.868C68.1485 169.066 68.0088 169.267 67.7971 169.422C67.5515 169.603 67.264 169.567 67.1622 169.333C67.1203 169.235 67.1173 169.118 67.1452 169.001Z" fill="white"/>
<path d="M70.3118 164.979C70.4167 164.73 70.5954 164.549 70.7621 164.357C70.9468 164.183 71.1325 164.009 71.3801 163.901C71.6666 163.773 71.9291 163.882 71.9731 164.136C71.991 164.241 71.9691 164.355 71.9182 164.46C71.8014 164.694 71.6306 164.87 71.4689 165.057C71.2882 165.224 71.1085 165.391 70.8759 165.511C70.6053 165.65 70.3328 165.563 70.2729 165.311C70.248 165.208 70.2639 165.091 70.3118 164.979Z" fill="white"/>
<path d="M72.9584 162.479C73.0153 162.309 73.1301 162.208 73.2409 162.102C73.3677 162.015 73.4905 161.922 73.6662 161.898C74.0067 161.853 74.2333 162.08 74.1794 162.392C74.1724 162.429 74.1624 162.469 74.1494 162.505C74.0905 162.671 73.9787 162.769 73.8719 162.871C73.7481 162.954 73.6293 163.044 73.4586 163.072C73.1281 163.125 72.8865 162.916 72.9305 162.597C72.9344 162.559 72.9454 162.517 72.9584 162.479Z" fill="white"/>
<path d="M75.4187 160.628C75.4946 160.467 75.6184 160.376 75.7412 160.281C75.876 160.207 76.0107 160.128 76.1904 160.123C76.5419 160.115 76.7276 160.374 76.6407 160.675C76.6307 160.711 76.6157 160.748 76.5988 160.783C76.5219 160.939 76.4021 161.021 76.2853 161.113C76.1545 161.182 76.0297 161.261 75.856 161.269C75.5216 161.285 75.3019 161.056 75.3778 160.742C75.3878 160.704 75.4028 160.664 75.4187 160.628Z" fill="white"/>
<path d="M71.1231 199.503C70.3943 198.732 69.7883 197.855 69.1174 197.029C68.5444 196.137 67.9544 195.25 67.4182 194.335C66.947 193.384 66.4429 192.448 65.9996 191.485L64.8286 188.526C64.1507 186.506 63.7014 184.399 63.5697 182.263C63.4349 180.129 63.6505 177.971 64.2126 175.914C64.2925 175.628 64.5231 175.45 64.7277 175.515C64.9254 175.578 65.0292 175.837 64.9663 176.1C64.5031 178.1 64.3554 180.163 64.5131 182.202C64.6569 184.244 65.1021 186.26 65.771 188.203L66.8881 191.095C67.3124 192.036 67.7956 192.949 68.2449 193.879C68.753 194.774 69.3081 195.645 69.8402 196.529C70.4691 197.344 71.0292 198.218 71.7091 198.994C71.8977 199.208 71.9177 199.493 71.754 199.632C71.5953 199.765 71.3177 199.706 71.1231 199.503Z" fill="white"/>
<path d="M72.616 200.117C72.8246 200.205 72.9604 200.361 73.1201 200.494C73.2649 200.642 73.4136 200.785 73.5045 200.991C73.6303 201.274 73.5174 201.545 73.2449 201.587C73.158 201.6 73.0632 201.588 72.9724 201.556C72.7517 201.478 72.588 201.337 72.4203 201.201C72.2725 201.046 72.1397 200.875 72.0569 200.656C71.9471 200.352 72.0819 200.092 72.3514 200.069C72.4393 200.061 72.5311 200.08 72.616 200.117Z" fill="white"/>
<path d="M74.3338 201.745C74.5505 201.811 74.6942 201.961 74.8729 202.069C75.0296 202.205 75.1904 202.335 75.2992 202.532C75.4489 202.805 75.3611 203.084 75.0945 203.15C75.0097 203.171 74.9138 203.167 74.821 203.143C74.5944 203.085 74.4197 202.958 74.241 202.838C74.0722 202.704 73.9295 202.54 73.8267 202.332C73.6899 202.038 73.8017 201.767 74.0673 201.721C74.1521 201.706 74.245 201.716 74.3338 201.745Z" fill="white"/>
<path d="M76.1916 203.213C76.9313 203.642 77.6491 204.059 78.3729 204.479C79.1027 204.888 79.8265 205.293 80.5722 205.711C80.8188 205.858 80.9236 206.123 80.8028 206.304C80.703 206.452 80.4774 206.494 80.2578 206.421C79.4182 206.166 78.6474 205.753 77.8777 205.343C77.131 204.896 76.4012 204.41 75.7393 203.844C75.5217 203.639 75.4787 203.356 75.6395 203.21C75.7733 203.09 75.9999 203.097 76.1916 203.213Z" fill="white"/>
<path d="M82.5605 206.499C82.7093 206.45 82.8291 206.482 82.9519 206.507C83.0667 206.557 83.1835 206.598 83.2773 206.723C83.49 207.008 83.4081 207.341 83.0717 207.461L83.0537 207.467C82.904 207.516 82.7772 207.482 82.6494 207.455C82.5296 207.403 82.4068 207.359 82.3119 207.234C82.0973 206.944 82.2101 206.619 82.5396 206.507L82.5605 206.499Z" fill="white"/>
<path d="M84.9965 207.139C85.1363 207.075 85.2581 207.097 85.3809 207.105C85.4997 207.136 85.6185 207.16 85.7263 207.27C85.9639 207.513 85.9669 207.857 85.6345 208.03L85.6175 208.039C85.4747 208.109 85.3409 208.093 85.2082 208.085C85.0804 208.049 84.9536 208.015 84.8428 207.9C84.5912 207.638 84.6651 207.304 84.9766 207.148L84.9965 207.139Z" fill="white"/>
<path d="M305.323 31.5549C277.316 36.1072 255.532 48.8549 239.972 69.7979C225.45 88.92 228.562 113.505 241.01 132.626C252.421 150.838 274.203 157.211 294.949 161.764C353.038 175.422 405.941 192.724 460.918 210.024C484.776 217.308 512.783 228.235 533.53 211.845C533.541 211.837 533.551 211.828 533.562 211.82C535.593 210.209 536.465 207.755 535.981 205.391C532.678 189.275 512.014 179.655 502.271 164.748C489.69 145.496 548.4 99.3336 530.228 78.4735C512.057 57.6133 475.013 74.7926 449.153 68.0439C446.087 67.2442 442.753 65.574 439.163 63.2768C392.894 53.01 356.344 23.6521 305.323 31.5549Z" fill="#FFBE57"/>
<path d="M511.275 224.343C486.836 224.343 444.868 214.964 404.283 205.895C364.34 196.968 326.611 188.538 303.329 188.171C302.737 188.162 302.125 188.157 301.514 188.157C282.368 188.157 254.174 192.743 224.323 197.597C189.9 203.196 150.886 209.541 120.61 209.542C90.7949 209.542 73.8921 203.546 68.9354 191.209C61.2782 172.151 72.5743 165.347 88.2092 155.932C100.752 148.379 114.969 139.816 116.736 123.067C117.984 111.233 116.87 101.639 115.975 93.9297C114.304 79.5467 113.465 72.3268 127.341 63.7971C133.319 60.1212 140.752 58.5538 152.197 58.5538C156.561 58.5538 161.01 58.7685 165.72 58.9961C170.488 59.2267 175.417 59.4643 180.316 59.4643C192.264 59.4643 207.606 58.1734 220.296 48.1083C222.766 46.1495 225.127 44.2397 227.427 42.3798C249.55 24.4867 265.534 11.5583 318.836 5.0662C321.628 4.72577 324.466 4.55305 327.274 4.55305C361.129 4.55305 389.903 29.0681 413.023 48.7652C426.824 60.5235 437.725 69.811 447.674 72.4077C452.496 73.6656 458.006 74.2775 464.52 74.2775C470.591 74.2775 476.86 73.7574 482.923 73.2542C488.96 72.7531 494.66 72.2799 500.141 72.2799C512.873 72.2799 520.639 74.9594 526.109 81.2389C533.625 89.8665 522.112 107.382 511.954 122.835C500.852 139.725 490.365 155.678 497.773 167.014C502.055 173.567 508.095 179.002 513.935 184.258C526.192 195.289 535.874 204.002 528.913 219.78C527.617 222.722 521.351 224.343 511.275 224.343Z" stroke="white" stroke-width="0.971876" stroke-miterlimit="10"/>
<path d="M472.961 273.728H160.714C158.588 273.728 156.865 272.005 156.865 269.88V100.907C156.865 98.7815 158.588 97.0584 160.714 97.0584H472.96C475.085 97.0584 476.809 98.7815 476.809 100.907V269.88C476.81 272.005 475.086 273.728 472.961 273.728Z" fill="#764582"/>
<path d="M467.366 267.06H155.12C152.994 267.06 151.271 265.337 151.271 263.212V94.2391C151.271 92.1137 152.994 90.3906 155.12 90.3906H467.366C469.491 90.3906 471.214 92.1137 471.214 94.2391V263.212C471.214 265.337 469.491 267.06 467.366 267.06Z" fill="#9D68AA"/>
<path d="M463.498 260.391H147.795C146.624 260.391 145.674 259.442 145.674 258.271V85.8421C145.674 84.671 146.624 83.7216 147.795 83.7216H463.498C464.669 83.7216 465.619 84.671 465.619 85.8421V258.272C465.618 259.443 464.669 260.391 463.498 260.391Z" fill="white" stroke="#764582" stroke-width="0.971976" stroke-miterlimit="10"/>
<path fill-rule="evenodd" clip-rule="evenodd" d="M163.509 98.8633H183.972V97.6593H163.509V98.8633ZM158.694 99.4653H161.101V97.0583H158.694V99.4653ZM163.509 105.483H183.972V104.279H163.509V105.483ZM158.694 106.085H161.101V103.678H158.694V106.085ZM163.509 112.104H183.972V110.9H163.509V112.104ZM158.694 112.706H161.101V110.299H158.694V112.706Z" fill="#764582"/>
<path fill-rule="evenodd" clip-rule="evenodd" d="M234.474 211.446H173.781C165.449 211.446 158.694 204.691 158.694 196.359V138.445C158.694 130.113 165.449 123.358 173.781 123.358H234.474C242.806 123.358 249.561 130.113 249.561 138.445V196.359C249.561 204.691 242.806 211.446 234.474 211.446Z" fill="white" stroke="#764582" stroke-width="1.02269" stroke-miterlimit="10"/>
<path fill-rule="evenodd" clip-rule="evenodd" d="M336.543 211.446H275.849C267.517 211.446 260.763 204.691 260.763 196.359V138.445C260.763 130.113 267.517 123.358 275.849 123.358H336.543C344.875 123.358 351.63 130.113 351.63 138.445V196.359C351.63 204.691 344.875 211.446 336.543 211.446Z" fill="white" stroke="#764582" stroke-width="1.02269" stroke-miterlimit="10"/>
<path fill-rule="evenodd" clip-rule="evenodd" d="M438.609 211.446H377.916C369.584 211.446 362.829 204.691 362.829 196.359V138.445C362.829 130.113 369.584 123.358 377.916 123.358H438.609C446.942 123.358 453.696 130.113 453.696 138.445V196.359C453.697 204.691 446.943 211.446 438.609 211.446Z" fill="white" stroke="#764582" stroke-width="1.02269" stroke-miterlimit="10"/>
<path d="M431.46 106.066L429.933 95.8913C429.891 95.6108 429.654 95.4061 429.371 95.4041L426.634 95.3872L426.642 94.1243L429.379 94.1412C430.287 94.1472 431.046 94.8041 431.181 95.7036L431.35 96.8357L448.61 96.9446L446.836 104.97L431.46 106.066ZM431.542 98.0996L432.536 104.724L445.809 103.776L447.041 98.1965L431.542 98.0996Z" fill="#764582"/>
<path d="M447.072 108.461L432.156 108.375C431.836 108.373 431.533 108.233 431.327 107.988C431.12 107.743 431.031 107.422 431.082 107.105L431.375 105.295L432.622 105.497L432.361 107.113L447.08 107.198L447.072 108.461Z" fill="#764582"/>
<path d="M435.963 110.957C435.957 111.898 435.189 112.655 434.25 112.649C433.309 112.643 432.552 111.877 432.558 110.936C432.564 109.996 433.33 109.238 434.271 109.244C435.212 109.249 435.969 110.017 435.963 110.957Z" stroke="#764582" stroke-width="1.26289" stroke-miterlimit="10"/>
<path d="M444.898 111.014C444.892 111.954 444.125 112.712 443.185 112.706C442.244 112.7 441.487 111.933 441.493 110.992C441.499 110.052 442.266 109.294 443.206 109.3C444.147 109.306 444.904 110.073 444.898 111.014Z" stroke="#764582" stroke-width="1.26289" stroke-miterlimit="10"/>
<path d="M260.325 217.54H351.629" stroke="#764582" stroke-width="1.02269" stroke-miterlimit="10" stroke-linecap="round" stroke-linejoin="round"/>
<path opacity="0.7" d="M341.505 179.246C341.505 180.492 326.595 181.502 308.202 181.502C289.809 181.502 274.898 180.492 274.898 179.246C274.898 178 289.809 176.99 308.202 176.99C326.594 176.989 341.505 177.999 341.505 179.246Z" fill="#A1ABAD"/>
<path d="M281.692 155.707C281.692 155.707 282.358 154.023 288.189 156.235C291.352 157.435 295.473 160.334 303.494 156.836C303.494 156.836 305.938 164.947 295.716 164.237C285.495 163.529 281.692 155.707 281.692 155.707Z" fill="#DD4026"/>
<path d="M338.547 168.758L340.915 169.382C342.259 170.096 342.188 173.675 341.079 174.781C341.079 174.781 331.518 180.371 303.52 180.845C287.415 180.535 276.652 177.781 276.155 176.687C275.658 175.593 275.613 173.147 275.711 171.418L278.747 167.88L338.547 168.758Z" fill="#E2E2E2"/>
<path d="M281.692 155.707C281.692 155.707 278.536 158.735 278.163 161.229C277.626 164.813 277.02 166.59 277.406 170.21C277.406 170.21 286.486 173.75 301.615 173.926C309.081 174.013 319.795 173.56 327.632 172.164C334.302 170.975 340.914 169.382 340.914 169.382C338.988 162.639 333.161 165.142 324.857 162.514C319.209 160.726 305.759 149.625 305.759 149.625C305.759 149.625 302.642 151.939 302.473 153.128C302.366 153.878 303.849 155.83 303.849 155.83C303.849 155.83 303.476 162.204 297.114 162.628C290.921 163.038 281.692 155.707 281.692 155.707Z" fill="#FD6141"/>
<path d="M303.85 155.829C303.85 155.829 307.073 155.839 308.215 156.238C310.902 157.178 318.68 163.385 324.507 164.122" stroke="#EFE9DA" stroke-width="1.15537" stroke-miterlimit="10" stroke-linecap="round"/>
<path d="M313.477 155.592L310.88 159.788C310.523 160.284 308.968 159.164 309.323 158.669L311.729 154.241C312.25 153.571 313.997 154.922 313.477 155.592Z" fill="#E2E2E2"/>
<path d="M317.257 157.824L314.526 162.273C314.193 163.021 312.447 162.244 312.778 161.497L315.509 156.472C316.029 155.801 317.776 157.153 317.257 157.824Z" fill="#E2E2E2"/>
<path d="M321.038 160.055L318.273 164.526C317.979 165.158 316.266 164.36 316.56 163.728L319.291 158.703C319.81 158.033 321.557 159.384 321.038 160.055Z" fill="#E2E2E2"/>
<path d="M305.583 157.912C305.633 156.685 307.614 156.765 307.563 157.993L306.778 165.448C306.778 166.524 305.647 166.524 305.647 165.448L305.583 157.912Z" fill="#E2E2E2"/>
<path d="M298.691 173.99C298.691 173.99 299.601 170.663 302.791 169.161C306.366 167.476 314.861 170.66 319.561 168.053C320.942 167.286 324.508 164.123 324.508 164.123" stroke="#EFE9DA" stroke-width="1.15537" stroke-miterlimit="10" stroke-linecap="round"/>
<path d="M278.989 159.262C278.989 159.262 284.029 161.52 286.373 164.497C287.429 165.838 288.901 173.05 288.901 173.05" stroke="#EFE9DA" stroke-width="1.15537" stroke-miterlimit="10" stroke-linecap="round"/>
<path opacity="0.7" d="M236.863 179.246C236.863 180.492 221.952 181.502 203.559 181.502C185.166 181.502 170.256 180.492 170.256 179.246C170.256 178 185.166 176.99 203.559 176.99C221.951 176.989 236.863 177.999 236.863 179.246Z" fill="#A1ABAD"/>
<path d="M177.048 155.707C177.048 155.707 177.714 154.023 183.545 156.235C186.708 157.435 190.829 160.335 198.851 156.836C198.851 156.836 201.295 164.947 191.073 164.237C180.851 163.529 177.048 155.707 177.048 155.707Z" fill="#DD4026"/>
<path d="M233.903 168.759L236.27 169.382C237.615 170.096 237.544 173.675 236.435 174.781C236.435 174.781 226.874 180.371 198.876 180.845C182.771 180.535 172.008 177.781 171.511 176.687C171.014 175.593 170.969 173.147 171.067 171.418L174.103 167.88L233.903 168.759Z" fill="#E2E2E2"/>
<path d="M177.048 155.707C177.048 155.707 173.892 158.735 173.519 161.229C172.982 164.813 172.376 166.59 172.762 170.21C172.762 170.21 181.842 173.75 196.971 173.926C204.437 174.013 215.151 173.56 222.988 172.164C229.658 170.975 236.27 169.382 236.27 169.382C234.344 162.639 228.517 165.142 220.213 162.514C214.565 160.726 201.115 149.625 201.115 149.625C201.115 149.625 197.998 151.939 197.828 153.128C197.722 153.878 199.205 155.83 199.205 155.83C199.205 155.83 198.832 162.204 192.47 162.628C186.277 163.038 177.048 155.707 177.048 155.707Z" fill="#FFD25A"/>
<path d="M199.206 155.829C199.206 155.829 202.429 155.839 203.571 156.238C206.258 157.178 214.036 163.385 219.863 164.122" stroke="#EFE9DA" stroke-width="1.15537" stroke-miterlimit="10"/>
<path d="M208.833 155.592L206.236 159.788C205.879 160.284 204.324 159.164 204.679 158.669L207.086 154.241C207.605 153.571 209.353 154.922 208.833 155.592Z" fill="#E2E2E2"/>
<path d="M212.613 157.824L209.882 162.273C209.549 163.021 207.803 162.244 208.136 161.497L210.866 156.472C211.385 155.801 213.132 157.153 212.613 157.824Z" fill="#E2E2E2"/>
<path d="M216.393 160.055L213.629 164.526C213.334 165.158 211.621 164.36 211.916 163.728L214.646 158.703C215.165 158.033 216.912 159.384 216.393 160.055Z" fill="#E2E2E2"/>
<path d="M200.94 157.912C200.991 156.685 202.972 156.765 202.921 157.993L202.135 165.448C202.135 166.524 201.005 166.524 201.005 165.448L200.94 157.912Z" fill="#E2E2E2"/>
<path d="M194.047 173.99C194.047 173.99 194.957 170.663 198.147 169.161C201.722 167.476 210.217 170.66 214.917 168.053C216.298 167.286 219.864 164.123 219.864 164.123" stroke="#EFE9DA" stroke-width="1.15537" stroke-miterlimit="10"/>
<path d="M174.346 159.262C174.346 159.262 179.385 161.521 181.729 164.498C182.786 165.838 184.257 173.05 184.257 173.05" stroke="#EFE9DA" stroke-width="1.15537" stroke-miterlimit="10"/>
<path opacity="0.7" d="M441.363 179.246C441.363 180.492 426.452 181.502 408.059 181.502C389.666 181.502 374.756 180.492 374.756 179.246C374.756 178 389.666 176.99 408.059 176.99C426.452 176.989 441.363 177.999 441.363 179.246Z" fill="#A1ABAD"/>
<path d="M381.548 155.707C381.548 155.707 382.214 154.023 388.045 156.235C391.208 157.435 395.329 160.334 403.35 156.836C403.35 156.836 405.794 164.947 395.572 164.237C385.35 163.529 381.548 155.707 381.548 155.707Z" fill="#3C8460"/>
<path d="M438.403 168.758L440.77 169.382C442.115 170.096 442.044 173.675 440.935 174.781C440.935 174.781 431.374 180.371 403.376 180.845C387.27 180.535 376.507 177.781 376.01 176.687C375.513 175.593 375.468 173.147 375.567 171.418L378.603 167.88L438.403 168.758Z" fill="#E2E2E2"/>
<path d="M381.549 155.707C381.549 155.707 378.393 158.735 378.02 161.229C377.482 164.813 376.877 166.59 377.263 170.21C377.263 170.21 386.343 173.75 401.471 173.926C408.938 174.013 419.651 173.56 427.489 172.164C434.159 170.975 440.771 169.382 440.771 169.382C438.845 162.639 433.018 165.142 424.714 162.514C419.065 160.726 405.616 149.625 405.616 149.625C405.616 149.625 402.499 151.939 402.329 153.128C402.222 153.878 403.706 155.83 403.706 155.83C403.706 155.83 403.332 162.204 396.971 162.628C390.776 163.038 381.549 155.707 381.549 155.707Z" fill="#71BF9D"/>
<path d="M403.705 155.829C403.705 155.829 406.928 155.839 408.07 156.238C410.757 157.178 418.535 163.385 424.362 164.122" stroke="#EFE9DA" stroke-width="1.15537" stroke-miterlimit="10"/>
<path d="M413.332 155.592L410.735 159.788C410.378 160.284 408.823 159.164 409.178 158.669L411.584 154.241C412.105 153.571 413.852 154.922 413.332 155.592Z" fill="#E2E2E2"/>
<path d="M417.113 157.824L414.382 162.273C414.049 163.021 412.303 162.244 412.636 161.497L415.366 156.472C415.884 155.801 417.632 157.153 417.113 157.824Z" fill="#E2E2E2"/>
<path d="M420.893 160.055L418.128 164.526C417.834 165.158 416.121 164.36 416.415 163.728L419.146 158.703C419.665 158.033 421.412 159.384 420.893 160.055Z" fill="#E2E2E2"/>
<path d="M405.439 157.912C405.49 156.685 407.471 156.765 407.42 157.993L406.634 165.448C406.634 166.524 405.504 166.524 405.504 165.448L405.439 157.912Z" fill="#E2E2E2"/>
<path d="M398.546 173.99C398.546 173.99 399.456 170.663 402.646 169.161C406.221 167.476 414.716 170.66 419.416 168.053C420.797 167.286 424.363 164.123 424.363 164.123" stroke="#EFE9DA" stroke-width="1.15537" stroke-miterlimit="10"/>
<path d="M378.844 159.262C378.844 159.262 383.884 161.52 386.228 164.497C387.284 165.838 388.756 173.05 388.756 173.05" stroke="#EFE9DA" stroke-width="1.15537" stroke-miterlimit="10"/>
<path d="M270.596 139.569V139.673C270.596 140.19 270.468 140.412 270.17 140.412H267.28C266.983 140.412 266.855 140.19 266.855 139.673V139.569C266.855 139.052 266.983 138.831 267.28 138.831H270.17C270.468 138.831 270.596 139.052 270.596 139.569Z" fill="#764582"/>
<path d="M277.301 135.565C277.301 137.619 276.168 138.047 275.175 138.047C274.184 138.047 273.05 137.619 273.05 135.565C273.05 133.511 274.183 133.083 275.175 133.083C276.167 133.083 277.301 133.511 277.301 135.565ZM274.495 135.565C274.495 136.141 274.623 136.836 275.175 136.836C275.727 136.836 275.841 136.142 275.841 135.565C275.841 134.989 275.727 134.353 275.175 134.353C274.623 134.353 274.495 134.989 274.495 135.565ZM281.252 133.379C281.252 133.423 281.224 133.496 281.181 133.585L276.124 143.159C275.982 143.425 275.798 143.573 275.5 143.573H274.877C274.679 143.573 274.579 143.484 274.579 143.381C274.579 143.322 274.607 143.248 274.65 143.159L279.708 133.585C279.849 133.319 280.033 133.171 280.332 133.171H280.955C281.154 133.172 281.252 133.261 281.252 133.379ZM282.783 141.18C282.783 143.233 281.649 143.661 280.657 143.661C279.666 143.661 278.532 143.233 278.532 141.18C278.532 139.126 279.665 138.697 280.657 138.697C281.649 138.697 282.783 139.125 282.783 141.18ZM279.978 141.18C279.978 141.756 280.106 142.451 280.658 142.451C281.21 142.451 281.324 141.757 281.324 141.18C281.324 140.604 281.21 139.969 280.658 139.969C280.105 139.968 279.978 140.604 279.978 141.18Z" fill="#764582"/>
<path d="M331.186 187.856V188.83C332.574 188.854 335.034 189.414 335.034 190.219C335.034 190.584 334.498 191.509 334.254 191.509C333.889 191.509 333.012 190.632 331.186 190.584V196.259C333.354 197.039 335.838 197.916 335.838 201.278C335.838 204.055 334.035 205.81 331.186 206.052V207.27C331.186 207.539 331.04 207.66 330.698 207.66C330.357 207.66 330.211 207.539 330.211 207.27V206.077C327.459 206.004 325.388 204.957 325.388 204.299C325.388 203.91 325.973 202.983 326.241 202.983C326.533 202.983 327.848 204.25 330.211 204.323V198.039C328.068 197.21 325.705 196.357 325.705 193.216C325.705 190.829 327.459 189.171 330.211 188.88V187.857C330.211 187.589 330.357 187.467 330.698 187.467C331.04 187.467 331.186 187.587 331.186 187.856ZM327.922 193.311C327.922 194.7 328.921 195.358 330.212 195.894V190.657C328.823 190.9 327.922 191.777 327.922 193.311ZM331.186 204.249C332.623 203.982 333.621 202.86 333.621 201.277C333.621 199.743 332.525 199.012 331.186 198.427V204.249Z" fill="#FD6141"/>
<path d="M320.216 206.864H281.263C279.095 206.864 277.336 205.106 277.336 202.936V202.354C277.336 200.185 279.094 198.427 281.263 198.427H320.217C322.386 198.427 324.145 200.185 324.145 202.354V202.936C324.144 205.106 322.386 206.864 320.216 206.864Z" fill="#FD6141"/>
<path opacity="0.2" d="M604.743 390H13.7723C11.5709 390 10.5996 387.228 12.3197 385.854L100.826 315.155C102.725 313.639 105.144 312.805 107.645 312.805H510.87C513.371 312.805 515.79 313.639 517.689 315.155L606.195 385.854C607.915 387.228 606.944 390 604.743 390Z" fill="#764582"/>
<path d="M602.479 361.092H16.0366L106.972 288.454C108.815 286.982 111.162 286.173 113.59 286.173H504.926C507.354 286.173 509.702 286.982 511.544 288.454L602.479 361.092Z" fill="#E4BCE8"/>
<path d="M544.346 354.596H74.1699L140.366 292.669H478.15L544.346 354.596Z" fill="#9D68AA"/>
<path d="M538.579 354.596H79.9355L144.508 295.327H474.007L538.579 354.596Z" fill="white"/>
<path d="M588.187 380.58H30.3287C22.4349 380.58 16.0366 374.18 16.0366 366.288V361.092H602.479V366.288C602.479 374.181 596.079 380.58 588.187 380.58Z" fill="#9D68AA"/>
<path d="M16.0366 368.671H602.479" stroke="white" stroke-width="0.971776" stroke-miterlimit="10"/>
<path d="M213.104 374.369H132.886C130.252 374.369 128.117 372.234 128.117 369.6V368.893C128.117 366.26 130.252 364.124 132.886 364.124H213.104C215.737 364.124 217.873 366.26 217.873 368.893V369.6C217.873 372.234 215.737 374.369 213.104 374.369Z" fill="#764582"/>
<path d="M213.639 374.369H132.349C130.011 374.369 128.115 372.473 128.115 370.136V369.508C128.115 367.17 130.01 365.274 132.349 365.274H213.639C215.977 365.274 217.873 367.169 217.873 369.508V370.136C217.873 372.473 215.977 374.369 213.639 374.369Z" fill="#E4BCE8"/>
<path d="M500.961 304.047L534.288 333.514H552.132V331.168L500.961 301.7V304.047Z" fill="#9D68AA"/>
<path d="M500.961 301.7L534.288 331.168H552.132L515.091 301.7H500.961Z" fill="#FDEEFF"/>
<path d="M93.9571 321.871C101.701 321.871 107.979 319.138 107.979 315.767C107.979 312.396 101.701 309.663 93.9571 309.663C86.2132 309.663 79.9355 312.396 79.9355 315.767C79.9355 319.138 86.2132 321.871 93.9571 321.871Z" fill="white"/>
<path d="M103.776 315.314C103.776 317.424 99.3802 319.135 93.9563 319.135C88.5334 319.135 84.1367 317.424 84.1367 315.314C84.1367 313.203 88.5334 311.492 93.9563 311.492C99.3802 311.493 103.776 313.203 103.776 315.314Z" fill="#764582"/>
<path d="M95.1203 314.45C95.1203 315.178 93.6048 315.768 91.7349 315.768C89.8651 315.768 88.3496 315.178 88.3496 314.45C88.3496 313.722 89.8651 313.132 91.7349 313.132C93.6048 313.132 95.1203 313.722 95.1203 314.45Z" fill="white"/>
<path d="M486.357 68.2785H163.317C155.939 68.2785 149.958 62.2975 149.958 54.9188V52.9391C149.958 45.5604 155.939 39.5794 163.317 39.5794H486.357C493.736 39.5794 499.717 45.5604 499.717 52.9391V54.9188C499.717 62.2965 493.735 68.2785 486.357 68.2785Z" fill="#E4BCE8"/>
<path d="M97.4076 68.2774C105.332 68.2774 111.757 61.8532 111.757 53.9284C111.757 46.0037 105.332 39.5794 97.4076 39.5794C89.4829 39.5794 83.0586 46.0037 83.0586 53.9284C83.0586 61.8532 89.4829 68.2774 97.4076 68.2774Z" fill="#E4BCE8"/>
<path d="M130.857 68.2785C138.783 68.2785 145.207 61.8538 145.207 53.9285C145.207 46.0032 138.783 39.5784 130.857 39.5784C122.932 39.5784 116.507 46.0032 116.507 53.9285C116.507 61.8538 122.932 68.2785 130.857 68.2785Z" fill="#E4BCE8"/>
<path d="M519.61 38.8577L524.352 48.9938L535.458 50.3704L527.282 58.0127L529.404 68.9993L519.61 63.5864L509.817 68.9993L511.939 58.0127L503.764 50.3704L514.869 48.9938L519.61 38.8577Z" fill="#E4BCE8"/>
<path d="M486.357 63.3138H163.317C155.939 63.3138 149.958 57.3328 149.958 49.9542V47.9745C149.958 40.5958 155.939 34.6148 163.317 34.6148H486.357C493.736 34.6148 499.717 40.5958 499.717 47.9745V49.9542C499.717 57.3328 493.735 63.3138 486.357 63.3138Z" fill="white" stroke="#764582" stroke-width="0.971976" stroke-miterlimit="10"/>
<path d="M234.378 43.6797V44.2128C235.647 44.2597 236.87 44.7299 236.87 45.2161C236.87 45.5765 236.447 46.3921 236.15 46.3921C235.93 46.3921 235.429 45.9529 234.379 45.9219V48.7742C235.727 49.3232 237.357 49.9502 237.357 52.0347C237.357 54.1661 236.009 55.1854 234.379 55.3582V56.0789C234.379 56.3615 234.254 56.4713 234.003 56.4713C233.706 56.4713 233.58 56.3615 233.58 56.0789V55.3741C231.558 55.3112 230.319 54.5745 230.319 54.0883C230.319 53.681 230.867 52.8813 231.134 52.8813C231.385 52.8813 232.247 53.65 233.579 53.665V50.5452C232.2 50.0281 230.538 49.4321 230.538 47.2687C230.538 45.4038 231.902 44.4164 233.579 44.2278V43.6797C233.579 43.3971 233.705 43.2873 233.971 43.2873C234.253 43.2873 234.378 43.3971 234.378 43.6797ZM232.529 47.1589C232.529 47.7698 232.967 48.1312 233.579 48.4287V45.9988C232.826 46.1715 232.529 46.6257 232.529 47.1589ZM234.378 53.5392C234.958 53.3665 235.381 52.9122 235.381 52.2224C235.381 51.5795 234.958 51.1871 234.378 50.9056V53.5392Z" fill="#A1ABAD"/>
<path d="M242.168 51.0464V51.1722C242.168 51.6424 242.043 51.8311 241.76 51.8311H238.64C238.359 51.8311 238.233 51.6434 238.233 51.1722V51.0464C238.233 50.5762 238.359 50.3725 238.64 50.3725H241.76C242.043 50.3725 242.168 50.5762 242.168 51.0464Z" fill="#A1ABAD"/>
<path d="M248.063 46.7825C248.063 48.9299 246.825 49.3842 245.774 49.3842C244.723 49.3842 243.501 48.9299 243.501 46.7825C243.501 44.6351 244.708 44.1809 245.774 44.1809C246.825 44.1809 248.063 44.6351 248.063 46.7825ZM244.897 46.7825C244.897 47.4414 245.022 48.2561 245.775 48.2561C246.527 48.2561 246.668 47.4414 246.668 46.7825C246.668 46.1246 246.558 45.3409 245.775 45.3409C245.022 45.3409 244.897 46.1246 244.897 46.7825ZM252.406 44.4314C252.406 44.4784 252.374 44.5413 252.327 44.6191L246.636 54.9329C246.511 55.1835 246.292 55.3252 245.977 55.3252H245.507C245.287 55.3252 245.162 55.2464 245.162 55.1376C245.162 55.0906 245.194 55.0128 245.241 54.9339L250.915 44.6201C251.056 44.3686 251.275 44.2438 251.589 44.2438H252.059C252.28 44.2438 252.406 44.3216 252.406 44.4314ZM254.051 52.7705C254.051 54.9339 252.813 55.3732 251.762 55.3732C250.711 55.3732 249.489 54.9339 249.489 52.7705C249.489 50.6231 250.696 50.1689 251.762 50.1689C252.813 50.1689 254.051 50.6231 254.051 52.7705ZM250.884 52.7705C250.884 53.4294 251.01 54.244 251.762 54.244C252.514 54.244 252.655 53.4294 252.655 52.7705C252.655 52.1286 252.545 51.3289 251.762 51.3289C251.01 51.3289 250.884 52.1286 250.884 52.7705Z" fill="#A1ABAD"/>
<path d="M220.26 56.4703H192.112C188.472 56.4703 185.521 53.5192 185.521 49.8793C185.521 46.2394 188.472 43.2883 192.112 43.2883H220.26C223.9 43.2883 226.851 46.2394 226.851 49.8793C226.851 53.5192 223.9 56.4703 220.26 56.4703Z" fill="#A1ABAD"/>
<path d="M97.4076 63.3138C105.332 63.3138 111.757 56.8895 111.757 48.9648C111.757 41.04 105.332 34.6158 97.4076 34.6158C89.4829 34.6158 83.0586 41.04 83.0586 48.9648C83.0586 56.8895 89.4829 63.3138 97.4076 63.3138Z" fill="white" stroke="#764582" stroke-width="0.971976" stroke-miterlimit="10"/>
<path d="M130.857 63.3148C138.783 63.3148 145.207 56.8901 145.207 48.9648C145.207 41.0395 138.783 34.6148 130.857 34.6148C122.932 34.6148 116.507 41.0395 116.507 48.9648C116.507 56.8901 122.932 63.3148 130.857 63.3148Z" fill="white" stroke="#764582" stroke-width="0.971976" stroke-miterlimit="10"/>
<path d="M519.61 33.893L524.352 44.029L535.458 45.4067L527.282 53.0479L529.404 64.0356L519.61 58.6226L509.817 64.0356L511.939 53.0479L503.764 45.4067L514.869 44.029L519.61 33.893Z" fill="#FFCC5A" stroke="#764582" stroke-width="0.971976" stroke-miterlimit="10"/>
<path d="M99.1834 40.2194L90.1025 49.2134L99.1834 58.3811L100.912 56.652L93.5618 49.2134L100.912 41.9485L99.1834 40.2194Z" fill="#764582"/>
<path d="M129.556 58.3811L138.637 49.3871L129.556 40.2194L127.826 41.9485L135.178 49.3871L127.826 56.652L129.556 58.3811Z" fill="#764582"/>
<path d="M179.445 57.206L173.659 51.4866C174.468 50.2756 174.906 48.832 174.899 47.3814C174.881 43.2773 171.487 39.9189 167.333 39.8949C165.378 39.8889 163.407 40.6766 162.004 42.0633C160.6 43.451 159.802 45.3728 159.814 47.3335C159.832 51.4376 163.226 54.797 167.38 54.82C167.39 54.82 167.401 54.82 167.411 54.82C168.876 54.82 170.33 54.3827 171.557 53.5741L177.341 59.2905L179.445 57.206ZM172.647 47.3804C172.655 48.7511 172.097 50.0939 171.115 51.0633C170.138 52.0296 168.785 52.5837 167.401 52.5837C167.394 52.5837 167.386 52.5837 167.379 52.5837C164.463 52.5667 162.079 50.2127 162.066 47.3355C162.058 45.9648 162.616 44.622 163.598 43.6516C164.58 42.6803 165.935 42.1222 167.333 42.1312C170.251 42.1492 172.634 44.5032 172.647 47.3804Z" fill="#764582"/>
<path fill-rule="evenodd" clip-rule="evenodd" d="M480.283 49.3002L477.029 52.5717C476.644 52.9591 476.644 53.587 477.029 53.9744C477.415 54.3617 478.039 54.3617 478.424 53.9744L481.678 50.7028L484.931 53.9744C485.317 54.3617 485.94 54.3617 486.326 53.9744C486.711 53.587 486.711 52.9591 486.326 52.5717L483.072 49.3002L486.326 46.0286C486.711 45.6413 486.711 45.0133 486.326 44.626C485.94 44.2386 485.317 44.2386 484.931 44.626L481.678 47.8975L478.424 44.626C478.039 44.2386 477.415 44.2386 477.029 44.626C476.644 45.0133 476.644 45.6413 477.029 46.0286L480.283 49.3002ZM481.678 59.8755C475.868 59.8755 471.159 55.1404 471.159 49.3002C471.159 43.4589 475.868 38.7248 481.678 38.7248C487.487 38.7248 492.196 43.4599 492.196 49.3002C492.196 55.1414 487.487 59.8755 481.678 59.8755Z" fill="#9D68AA"/>
<path d="M118.512 115.736C118.512 105.014 109.821 96.3227 99.0985 96.3227C88.3764 96.3227 79.6849 105.014 79.6849 115.736C79.6849 120.194 78.3472 123.109 99.0985 160.363C119.935 122.941 118.494 118.033 118.512 115.736Z" fill="#FD6141"/>
<path d="M99.0972 124.775C94.3601 124.775 90.5195 120.935 90.5195 116.198C90.5195 111.46 94.3601 107.62 99.0972 107.62C103.835 107.62 107.675 111.46 107.675 116.198C107.675 120.936 103.834 124.775 99.0972 124.775Z" fill="white"/>
<path opacity="0.2" d="M225.025 314.929L217.146 328.573C215.547 331.342 217.728 334.682 221.138 334.682H298.592C301.673 334.682 303.852 331.908 302.883 329.216L297.974 315.573C297.362 313.871 295.632 312.721 293.684 312.721H229.016C227.345 312.722 225.81 313.571 225.025 314.929Z" fill="#764582"/>
<path d="M240.884 311.138C240.884 314.937 237.803 318.017 234.004 318.017C230.204 318.017 227.124 314.937 227.124 311.138C227.124 307.338 230.204 304.257 234.004 304.257C237.803 304.257 240.884 307.338 240.884 311.138Z" fill="#764582"/>
<path d="M234.005 315.275C236.29 315.275 238.142 313.422 238.142 311.138C238.142 308.853 236.29 307.001 234.005 307.001C231.72 307.001 229.868 308.853 229.868 311.138C229.868 313.422 231.72 315.275 234.005 315.275Z" fill="#3E2344"/>
<path d="M231.284 310.385L233.643 304.163C233.77 303.83 234.09 303.609 234.446 303.609H242.65C243.399 303.609 243.788 304.502 243.28 305.051L235.893 313.025C235.278 313.688 234.332 313.934 233.472 313.652L232.733 313.411C231.475 313 230.816 311.622 231.284 310.385Z" fill="#FFDCAE"/>
<path d="M234.004 312.722C234.879 312.722 235.589 312.013 235.589 311.138C235.589 310.263 234.879 309.553 234.004 309.553C233.129 309.553 232.42 310.263 232.42 311.138C232.42 312.013 233.129 312.722 234.004 312.722Z" fill="#764582"/>
<path d="M280.736 311.138C280.736 314.937 283.816 318.017 287.615 318.017C291.415 318.017 294.496 314.937 294.496 311.138C294.496 307.338 291.416 304.257 287.615 304.257C283.816 304.257 280.736 307.338 280.736 311.138Z" fill="#764582"/>
<path d="M283.479 311.138C283.479 313.423 285.33 315.275 287.616 315.275C289.901 315.275 291.753 313.423 291.753 311.138C291.753 308.852 289.901 307.001 287.616 307.001C285.331 307.001 283.479 308.852 283.479 311.138Z" fill="#3E2344"/>
<path d="M290.336 310.385L287.977 304.163C287.85 303.83 287.531 303.609 287.174 303.609H278.97C278.221 303.609 277.832 304.502 278.341 305.051L285.729 313.025C286.344 313.688 287.289 313.934 288.149 313.652L288.888 313.411C290.145 313 290.804 311.622 290.336 310.385Z" fill="#FFDCAE"/>
<path d="M287.615 312.722C288.49 312.722 289.199 312.013 289.199 311.138C289.199 310.263 288.49 309.553 287.615 309.553C286.74 309.553 286.031 310.263 286.031 311.138C286.031 312.013 286.74 312.722 287.615 312.722Z" fill="#764582"/>
<path d="M216.01 247.217C215.615 247.217 215.239 246.988 215.074 246.602C212.742 241.205 208.857 232.407 208.16 231.306C207.118 230.548 199.266 227.751 192.154 225.444C191.734 225.307 191.449 224.916 191.449 224.474C191.449 224.032 191.734 223.641 192.154 223.505L204.791 219.41C204.981 219.35 205.182 219.344 205.374 219.396C206.583 219.725 217.25 222.679 219.544 224.813C221.367 226.506 226.742 237.717 227.801 239.947C228.043 240.455 227.826 241.063 227.317 241.304C226.806 241.545 226.2 241.329 225.96 240.82C223.573 235.795 219.343 227.409 218.157 226.305C216.737 224.986 209.542 222.662 205.129 221.443L195.757 224.479C202.284 226.646 209.034 229.066 209.757 230.031C210.604 231.159 215.892 243.359 216.945 245.793C217.167 246.309 216.93 246.91 216.413 247.133C216.283 247.191 216.145 247.217 216.01 247.217Z" fill="#FD6141"/>
<path d="M213.248 242.056L224.752 234.912L313.469 239.253L315.504 244.815L213.248 242.056Z" fill="white" stroke="#FD6141" stroke-width="1.85131" stroke-miterlimit="10" stroke-linecap="round" stroke-linejoin="round"/>
<path d="M212.408 242.238L225.834 286.518C226.236 287.845 227.478 288.737 228.865 288.694L303.129 286.397C304.509 286.354 305.691 285.395 306.016 284.052L315.505 244.815L212.408 242.238Z" fill="#FD6141"/>
<path d="M232.376 260.759C237.174 270.743 247.79 272.756 257.896 272.255C279.592 271.18 298.55 262.708 311.256 244.709C311.256 244.709 232.276 242.734 232.257 242.734C231.09 242.718 230.516 250.296 230.458 251.28C230.267 254.552 230.967 257.824 232.376 260.759Z" fill="#FF8976"/>
<path d="M302.948 310.944C302.041 307.317 300.172 303.688 298.821 301.852C298.119 300.9 296.968 299.807 294.272 299.807H232.777C231.809 299.807 230.074 299.647 229.34 298.572C228.651 297.562 229.045 295.97 229.497 294.811C231.31 290.165 232.929 287.225 232.945 287.196L230.542 287.397C230.474 287.521 229.464 289.286 227.598 294.07C226.681 296.42 226.701 298.322 227.656 299.722C228.606 301.111 230.377 301.846 232.777 301.846H236.07V303.226C236.07 304.081 236.764 304.775 237.62 304.775H238.798C239.653 304.775 240.347 304.081 240.347 303.226V301.846H281.008V303.226C281.008 304.081 281.702 304.775 282.558 304.775H283.736C284.591 304.775 285.285 304.081 285.285 303.226V301.846H294.271C296.127 301.846 296.744 302.473 297.177 303.061C298.454 304.795 300.167 308.23 300.97 311.439C301.151 312.16 301.101 312.71 300.823 313.073C300.267 313.803 298.86 313.891 298.442 313.9C284.193 314.22 253.461 314.045 236.951 313.95C232.043 313.921 228.325 313.9 226.554 313.9C224.05 313.9 222.188 313.183 221.307 311.882C220.46 310.63 220.483 308.791 221.377 306.563C223.343 301.666 229.121 287.078 229.121 287.078L227.226 286.327C227.226 286.327 221.451 300.91 219.486 305.805C218.025 309.447 218.751 311.742 219.62 313.024C220.891 314.903 223.354 315.938 226.555 315.938C227.716 315.938 229.729 315.947 232.353 315.961V317.294C232.353 318.15 233.046 318.844 233.902 318.844H235.08C235.936 318.844 236.629 318.15 236.629 317.294V316.294C236.749 316.172 236.814 316.107 236.934 315.986C246.343 316.04 260.367 316.12 273.338 316.12C276.859 316.12 280.3 316.114 283.551 316.1V317.294C283.551 318.15 284.245 318.844 285.1 318.844H286.279C287.134 318.844 287.828 318.15 287.828 317.294V316.076C291.9 316.047 295.547 316.004 298.489 315.938C299.52 315.914 301.406 315.672 302.445 314.309C303.117 313.428 303.286 312.296 302.948 310.944Z" fill="#FD6141"/>
<path d="M312.53 243.986L303.327 281.944C303.074 282.989 302.146 283.743 301.071 283.776L266.393 284.849C269.083 281.943 271.753 279.02 274.398 276.073C274.593 275.856 274.656 275.586 274.535 275.46C274.409 275.33 274.133 275.403 273.917 275.625C271.063 278.573 268.233 281.543 265.425 284.535L265.42 284.541C265.318 284.651 265.252 284.769 265.202 284.886L234.588 285.832C237.444 282.75 240.279 279.647 243.09 276.523C243.294 276.295 243.364 276.016 243.243 275.891C243.117 275.759 242.833 275.842 242.608 276.074C239.621 279.164 236.658 282.276 233.719 285.411L233.713 285.417C233.578 285.561 233.493 285.72 233.444 285.868L230.676 285.954C229.611 285.995 228.621 285.288 228.307 284.253L222.196 264.104C223.776 262.392 225.333 260.659 226.867 258.903C226.977 258.775 226.971 258.58 226.848 258.457C226.719 258.329 226.512 258.328 226.385 258.455C224.865 259.981 223.371 261.533 221.891 263.097L215.327 241.453L214.352 241.75L227.332 284.549C227.769 285.99 229.104 286.974 230.601 286.974C230.637 286.974 230.672 286.974 230.708 286.973L301.101 284.796C302.634 284.748 303.957 283.674 304.317 282.184L313.521 244.227L312.53 243.986Z" fill="white"/>
<path d="M227.674 258.056C227.95 257.885 228.166 257.66 228.389 257.439C228.594 257.203 228.803 256.97 228.955 256.684C229.014 256.571 229.013 256.43 228.939 256.313C228.829 256.14 228.599 256.085 228.427 256.191C228.151 256.362 227.935 256.588 227.712 256.808C227.507 257.045 227.298 257.278 227.146 257.564C227.086 257.677 227.088 257.819 227.162 257.936C227.272 258.109 227.501 258.163 227.674 258.056Z" fill="white"/>
<path d="M229.566 256.027C229.686 256.022 229.748 255.964 229.815 255.909C229.864 255.839 229.919 255.772 229.915 255.652C229.915 255.649 229.915 255.644 229.915 255.642C229.9 255.366 229.664 255.15 229.388 255.16C229.268 255.165 229.206 255.223 229.139 255.278C229.09 255.349 229.035 255.415 229.039 255.535C229.039 255.538 229.039 255.544 229.04 255.548C229.054 255.823 229.291 256.038 229.566 256.027Z" fill="white"/>
<path d="M238.052 246.908C240.122 244.802 242.169 242.672 244.192 240.52L244.194 240.517C244.364 240.332 244.351 240.041 244.163 239.868C243.975 239.694 243.684 239.703 243.514 239.888C241.508 242.055 239.527 244.245 237.57 246.459C237.457 246.587 237.464 246.785 237.589 246.908C237.72 247.036 237.927 247.036 238.052 246.908Z" fill="white"/>
<path d="M236.984 248.101C237.104 248.097 237.166 248.038 237.233 247.983C237.282 247.912 237.337 247.846 237.333 247.727C237.333 247.724 237.333 247.718 237.332 247.714C237.317 247.438 237.08 247.223 236.805 247.234C236.685 247.239 236.623 247.297 236.556 247.352C236.507 247.422 236.452 247.488 236.456 247.609C236.456 247.612 236.456 247.616 236.457 247.619C236.471 247.895 236.707 248.111 236.984 248.101Z" fill="white"/>
<path d="M235.857 249.309C235.977 249.305 236.039 249.246 236.106 249.191C236.155 249.12 236.209 249.054 236.206 248.935C236.206 248.932 236.206 248.926 236.206 248.922C236.191 248.646 235.954 248.431 235.679 248.442C235.559 248.447 235.497 248.505 235.43 248.56C235.381 248.631 235.326 248.697 235.33 248.817C235.33 248.819 235.33 248.824 235.33 248.827C235.344 249.103 235.58 249.32 235.857 249.309Z" fill="white"/>
<path d="M234.731 250.518C234.851 250.514 234.913 250.455 234.98 250.4C235.028 250.329 235.083 250.263 235.079 250.144C235.079 250.141 235.079 250.135 235.078 250.131C235.063 249.855 234.827 249.64 234.551 249.651C234.431 249.656 234.37 249.714 234.303 249.769C234.253 249.839 234.199 249.905 234.203 250.026C234.203 250.029 234.203 250.034 234.203 250.036C234.218 250.312 234.454 250.528 234.731 250.518Z" fill="white"/>
<path d="M230.863 254.665C231.396 254.218 231.87 253.717 232.35 253.22C232.812 252.707 233.278 252.199 233.687 251.637C233.782 251.507 233.779 251.323 233.668 251.192C233.539 251.039 233.311 251.017 233.16 251.145C232.628 251.592 232.153 252.093 231.674 252.59C231.212 253.103 230.745 253.611 230.336 254.174C230.241 254.304 230.245 254.488 230.355 254.618C230.484 254.771 230.711 254.793 230.863 254.665Z" fill="white"/>
<path d="M243.886 275.018C243.968 275.223 244.261 275.208 244.542 274.984C244.99 274.628 245.38 274.216 245.776 273.81C246.153 273.388 246.536 272.969 246.86 272.497C246.987 272.312 247.043 272.11 246.988 271.972C246.907 271.766 246.613 271.781 246.332 272.005C245.883 272.361 245.493 272.773 245.098 273.179C244.72 273.601 244.338 274.02 244.014 274.492C243.887 274.678 243.831 274.88 243.886 275.018Z" fill="white"/>
<path d="M247.967 271.31C248.134 271.255 248.243 271.146 248.357 271.042C248.454 270.921 248.555 270.804 248.598 270.633C248.599 270.629 248.601 270.622 248.601 270.619C248.693 270.229 248.455 270.014 248.07 270.141C247.903 270.196 247.793 270.306 247.68 270.41C247.583 270.531 247.482 270.647 247.439 270.818C247.438 270.823 247.436 270.831 247.435 270.836C247.345 271.224 247.583 271.437 247.967 271.31Z" fill="white"/>
<path d="M263.341 254.806C267.043 250.948 270.722 247.068 274.378 243.165L274.382 243.16C274.693 242.827 274.79 242.416 274.603 242.243C274.415 242.07 274.011 242.2 273.701 242.534C270.063 246.453 266.449 250.394 262.86 254.358C262.653 254.587 262.583 254.868 262.706 254.994C262.831 255.123 263.116 255.039 263.341 254.806Z" fill="white"/>
<path d="M261.388 256.947C261.556 256.892 261.665 256.782 261.779 256.679C261.874 256.558 261.976 256.441 262.019 256.27C262.02 256.265 262.022 256.257 262.023 256.252C262.114 255.863 261.875 255.65 261.491 255.778C261.324 255.833 261.216 255.943 261.101 256.047C261.004 256.168 260.903 256.284 260.86 256.455C260.859 256.459 260.857 256.466 260.857 256.469C260.765 256.859 261.003 257.073 261.388 256.947Z" fill="white"/>
<path d="M259.348 259.136C259.515 259.081 259.624 258.971 259.738 258.867C259.834 258.746 259.936 258.629 259.979 258.459C259.98 258.454 259.982 258.446 259.983 258.441C260.074 258.051 259.835 257.839 259.451 257.967C259.284 258.021 259.174 258.131 259.06 258.235C258.963 258.356 258.863 258.473 258.82 258.643C258.819 258.647 258.817 258.654 258.817 258.657C258.725 259.048 258.962 259.261 259.348 259.136Z" fill="white"/>
<path d="M257.307 261.324C257.475 261.269 257.584 261.16 257.698 261.055C257.793 260.935 257.895 260.818 257.938 260.647C257.939 260.642 257.941 260.634 257.942 260.629C258.033 260.24 257.794 260.027 257.41 260.155C257.243 260.21 257.133 260.32 257.02 260.423C256.923 260.544 256.822 260.661 256.779 260.832C256.778 260.836 256.776 260.843 256.776 260.846C256.684 261.236 256.922 261.45 257.307 261.324Z" fill="white"/>
<path d="M250.304 268.833C251.218 267.978 252.074 267.066 252.936 266.161C253.779 265.238 254.627 264.321 255.417 263.35C255.6 263.125 255.67 262.861 255.571 262.72C255.454 262.552 255.15 262.615 254.89 262.857C253.977 263.714 253.12 264.624 252.259 265.53C251.415 266.452 250.567 267.37 249.777 268.341C249.594 268.566 249.524 268.828 249.623 268.971C249.74 269.138 250.044 269.077 250.304 268.833Z" fill="white"/>
<path d="M275.785 274.605C276.215 274.266 276.588 273.875 276.966 273.488C277.326 273.083 277.691 272.685 277.998 272.231C278.118 272.053 278.168 271.856 278.112 271.722C278.028 271.52 277.74 271.528 277.471 271.74C277.039 272.077 276.667 272.469 276.29 272.858C275.929 273.262 275.565 273.661 275.257 274.115C275.137 274.293 275.087 274.49 275.144 274.626C275.227 274.825 275.515 274.816 275.785 274.605Z" fill="white"/>
<path d="M279.056 271.097C279.218 271.047 279.323 270.943 279.432 270.843C279.524 270.727 279.621 270.616 279.658 270.451C279.659 270.447 279.66 270.441 279.661 270.437C279.742 270.057 279.505 269.844 279.13 269.959C278.968 270.008 278.864 270.112 278.754 270.212C278.662 270.328 278.566 270.44 278.527 270.605C278.526 270.609 278.524 270.617 278.523 270.621C278.444 271 278.683 271.212 279.056 271.097Z" fill="white"/>
<path d="M293.734 255.338C297.272 251.657 300.786 247.953 304.277 244.227L304.281 244.223C304.577 243.905 304.665 243.506 304.476 243.333C304.288 243.16 303.896 243.278 303.6 243.597C300.126 247.338 296.677 251.103 293.253 254.89C293.055 255.109 292.992 255.382 293.115 255.507C293.243 255.636 293.519 255.56 293.734 255.338Z" fill="white"/>
<path d="M291.871 257.383C292.033 257.334 292.137 257.23 292.247 257.13C292.339 257.014 292.435 256.902 292.474 256.738C292.475 256.733 292.477 256.725 292.478 256.721C292.557 256.343 292.319 256.131 291.945 256.245C291.784 256.295 291.679 256.399 291.57 256.499C291.478 256.615 291.381 256.726 291.343 256.891C291.342 256.894 291.342 256.901 291.341 256.905C291.26 257.284 291.497 257.498 291.871 257.383Z" fill="white"/>
<path d="M289.923 259.473C290.086 259.423 290.189 259.319 290.298 259.219C290.39 259.104 290.486 258.992 290.525 258.827C290.526 258.822 290.528 258.814 290.529 258.81C290.609 258.433 290.37 258.22 289.997 258.335C289.835 258.385 289.73 258.49 289.621 258.588C289.53 258.704 289.433 258.816 289.395 258.981C289.394 258.984 289.393 258.991 289.392 258.995C289.311 259.373 289.548 259.588 289.923 259.473Z" fill="white"/>
<path d="M287.974 261.563C288.136 261.513 288.24 261.409 288.349 261.309C288.441 261.193 288.537 261.081 288.576 260.917C288.577 260.912 288.579 260.904 288.58 260.9C288.66 260.522 288.421 260.31 288.048 260.424C287.886 260.474 287.781 260.578 287.672 260.678C287.58 260.794 287.484 260.905 287.446 261.07C287.445 261.074 287.444 261.08 287.443 261.084C287.362 261.463 287.599 261.677 287.974 261.563Z" fill="white"/>
<path d="M281.288 268.733C282.163 267.918 282.981 267.048 283.804 266.184C284.608 265.303 285.418 264.427 286.171 263.496C286.344 263.281 286.407 263.026 286.306 262.884C286.189 262.719 285.891 262.772 285.643 263.004C284.767 263.819 283.949 264.688 283.127 265.553C282.322 266.433 281.511 267.31 280.76 268.24C280.586 268.456 280.523 268.711 280.624 268.851C280.742 269.017 281.038 268.964 281.288 268.733Z" fill="white"/>
<path d="M239.375 313.962L242.991 301.164H281.333L283.423 313.962H239.375Z" fill="#FF8976"/>
<path d="M229.407 334.682C233.872 334.682 237.491 331.063 237.491 326.599C237.491 322.134 233.872 318.515 229.407 318.515C224.943 318.515 221.324 322.134 221.324 326.599C221.324 331.063 224.943 334.682 229.407 334.682Z" fill="#764582"/>
<path d="M234.268 326.599C234.268 329.283 232.091 331.46 229.407 331.46C226.722 331.46 224.546 329.283 224.546 326.599C224.546 323.914 226.722 321.738 229.407 321.738C232.091 321.739 234.268 323.914 234.268 326.599Z" fill="#3E2344"/>
<path d="M226.212 325.714L228.983 318.404C229.132 318.012 229.507 317.753 229.925 317.753H239.565C240.445 317.753 240.903 318.801 240.305 319.446L231.624 328.814C230.902 329.594 229.791 329.882 228.779 329.552L227.912 329.268C226.435 328.787 225.66 327.168 226.212 325.714Z" fill="#FFDCAE"/>
<path d="M231.27 326.599C231.27 327.627 230.436 328.461 229.408 328.461C228.379 328.461 227.546 327.627 227.546 326.599C227.546 325.571 228.379 324.737 229.408 324.737C230.436 324.738 231.27 325.572 231.27 326.599Z" fill="#764582"/>
<path d="M291.164 334.682C295.628 334.682 299.247 331.063 299.247 326.599C299.247 322.134 295.628 318.515 291.164 318.515C286.699 318.515 283.08 322.134 283.08 326.599C283.08 331.063 286.699 334.682 291.164 334.682Z" fill="#764582"/>
<path d="M286.303 326.599C286.303 329.283 288.48 331.46 291.164 331.46C293.849 331.46 296.025 329.283 296.025 326.599C296.025 323.914 293.849 321.738 291.164 321.738C288.48 321.739 286.303 323.914 286.303 326.599Z" fill="#3E2344"/>
<path d="M294.36 325.714L291.588 318.404C291.439 318.012 291.064 317.753 290.646 317.753H281.006C280.126 317.753 279.668 318.801 280.266 319.446L288.947 328.814C289.669 329.594 290.781 329.882 291.791 329.552L292.659 329.268C294.136 328.787 294.911 327.168 294.36 325.714Z" fill="#FFDCAE"/>
<path d="M289.302 326.599C289.302 327.627 290.136 328.461 291.164 328.461C292.192 328.461 293.026 327.627 293.026 326.599C293.026 325.571 292.192 324.737 291.164 324.737C290.136 324.738 289.302 325.572 289.302 326.599Z" fill="#764582"/>
<path d="M239.136 227.44V241.848L273.16 242.734V225.964L239.136 227.44Z" fill="#FFBE57"/>
<path d="M273.16 225.964V242.734L289.376 243.252V228.895L273.16 225.964Z" fill="#F99441"/>
<path d="M238.143 224.713L273.952 223.253V227.935L238.143 229.425V224.713Z" fill="#FFD25A"/>
<path d="M273.952 227.935L290.555 230.779V226.339L273.952 223.253V227.935Z" fill="#FFBE57"/>
<path opacity="0.2" d="M351.131 318.702L344.757 329.74C343.463 331.98 345.228 334.682 347.986 334.682H410.647C413.139 334.682 414.902 332.438 414.118 330.26L410.147 319.223C409.652 317.846 408.252 316.916 406.676 316.916H354.359C353.008 316.916 351.766 317.603 351.131 318.702Z" fill="#764582"/>
<path d="M363.961 315.635C363.961 318.709 361.469 321.2 358.395 321.2C355.321 321.2 352.829 318.709 352.829 315.635C352.829 312.561 355.321 310.068 358.395 310.068C361.469 310.068 363.961 312.561 363.961 315.635Z" fill="#764582"/>
<path d="M358.396 318.982C360.244 318.982 361.743 317.483 361.743 315.635C361.743 313.786 360.244 312.288 358.396 312.288C356.547 312.288 355.049 313.786 355.049 315.635C355.049 317.483 356.547 318.982 358.396 318.982Z" fill="#3E2344"/>
<path d="M356.194 315.026L358.103 309.992C358.205 309.723 358.464 309.544 358.752 309.544H365.39C365.995 309.544 366.31 310.266 365.899 310.71L359.923 317.161C359.425 317.698 358.66 317.897 357.964 317.669L357.366 317.474C356.349 317.141 355.816 316.026 356.194 315.026Z" fill="#FFDCAE"/>
<path d="M358.395 316.916C359.103 316.916 359.677 316.343 359.677 315.635C359.677 314.927 359.103 314.353 358.395 314.353C357.687 314.353 357.113 314.927 357.113 315.635C357.113 316.343 357.687 316.916 358.395 316.916Z" fill="#764582"/>
<path d="M396.201 315.635C396.201 318.709 398.692 321.2 401.766 321.2C404.84 321.2 407.333 318.709 407.333 315.635C407.333 312.561 404.841 310.068 401.766 310.068C398.692 310.068 396.201 312.561 396.201 315.635Z" fill="#764582"/>
<path d="M398.42 315.635C398.42 317.483 399.918 318.982 401.767 318.982C403.616 318.982 405.114 317.483 405.114 315.635C405.114 313.786 403.616 312.288 401.767 312.288C399.919 312.288 398.42 313.786 398.42 315.635Z" fill="#3E2344"/>
<path d="M403.968 315.026L402.059 309.992C401.957 309.723 401.698 309.544 401.41 309.544H394.772C394.167 309.544 393.852 310.266 394.264 310.71L400.24 317.161C400.738 317.698 401.503 317.897 402.199 317.669L402.796 317.474C403.813 317.141 404.346 316.026 403.968 315.026Z" fill="#FFDCAE"/>
<path d="M401.767 316.916C402.474 316.916 403.048 316.343 403.048 315.635C403.048 314.927 402.474 314.353 401.767 314.353C401.059 314.353 400.485 314.927 400.485 315.635C400.485 316.343 401.059 316.916 401.767 316.916Z" fill="#764582"/>
<path d="M343.838 263.923C343.518 263.923 343.214 263.737 343.08 263.426C341.193 259.06 338.051 251.942 337.487 251.051C336.644 250.438 330.292 248.175 324.538 246.308C324.198 246.198 323.968 245.881 323.968 245.524C323.968 245.166 324.198 244.85 324.538 244.74L334.761 241.427C334.915 241.379 335.078 241.374 335.233 241.416C336.211 241.682 344.841 244.072 346.697 245.798C348.171 247.168 352.52 256.238 353.377 258.041C353.572 258.452 353.397 258.944 352.985 259.14C352.572 259.334 352.081 259.16 351.887 258.748C349.956 254.682 346.534 247.898 345.574 247.005C344.426 245.938 338.605 244.058 335.035 243.071L327.453 245.528C332.733 247.281 338.194 249.239 338.778 250.02C339.464 250.932 343.742 260.802 344.594 262.771C344.774 263.188 344.581 263.674 344.163 263.855C344.058 263.901 343.947 263.923 343.838 263.923Z" fill="#FD6141"/>
<path d="M341.603 259.748L350.91 253.968L422.682 257.48L424.328 261.979L341.603 259.748Z" fill="white" stroke="#FD6141" stroke-width="1.49771" stroke-miterlimit="10" stroke-linecap="round" stroke-linejoin="round"/>
<path d="M340.924 259.895L351.785 295.717C352.111 296.791 353.115 297.513 354.237 297.478L414.317 295.619C415.434 295.585 416.39 294.809 416.652 293.722L424.329 261.98L340.924 259.895Z" fill="#FD6141"/>
<path d="M357.078 274.878C360.96 282.956 369.548 284.584 377.723 284.178C395.275 283.309 410.613 276.455 420.892 261.894C420.892 261.894 356.997 260.296 356.981 260.296C356.037 260.283 355.573 266.414 355.526 267.21C355.372 269.857 355.938 272.504 357.078 274.878Z" fill="#FF8976"/>
<path d="M414.17 315.478C413.437 312.544 411.925 309.608 410.831 308.123C410.264 307.352 409.332 306.468 407.152 306.468H357.402C356.619 306.468 355.216 306.339 354.621 305.469C354.064 304.652 354.383 303.364 354.749 302.426C356.216 298.668 357.525 296.289 357.538 296.266L355.594 296.429C355.539 296.529 354.722 297.957 353.212 301.827C352.471 303.728 352.487 305.267 353.26 306.399C354.028 307.523 355.46 308.118 357.402 308.118H360.067V309.234C360.067 309.926 360.628 310.488 361.32 310.488H362.273C362.965 310.488 363.527 309.926 363.527 309.234V308.118H396.421V309.234C396.421 309.926 396.983 310.488 397.675 310.488H398.628C399.32 310.488 399.881 309.926 399.881 309.234V308.118H407.151C408.652 308.118 409.151 308.625 409.502 309.101C410.535 310.504 411.921 313.282 412.57 315.879C412.716 316.462 412.676 316.907 412.452 317.201C412.002 317.791 410.864 317.862 410.525 317.869C398.998 318.128 374.136 317.987 360.779 317.91C356.808 317.886 353.801 317.869 352.368 317.869C350.342 317.869 348.835 317.29 348.123 316.237C347.437 315.224 347.457 313.736 348.18 311.934C349.77 307.972 354.444 296.17 354.444 296.17L352.912 295.563C352.912 295.563 348.239 307.36 346.65 311.32C345.467 314.267 346.055 316.123 346.758 317.16C347.786 318.681 349.779 319.518 352.369 319.518C353.308 319.518 354.936 319.525 357.059 319.536V320.615C357.059 321.308 357.62 321.869 358.312 321.869H359.265C359.957 321.869 360.519 321.308 360.519 320.615V319.806C360.616 319.708 360.668 319.655 360.765 319.557C368.377 319.601 379.722 319.666 390.216 319.666C393.065 319.666 395.848 319.661 398.478 319.65V320.615C398.478 321.308 399.04 321.869 399.732 321.869H400.685C401.377 321.869 401.938 321.308 401.938 320.615V319.63C405.233 319.607 408.183 319.571 410.563 319.518C411.398 319.499 412.923 319.303 413.764 318.201C414.308 317.487 414.444 316.572 414.17 315.478Z" fill="#FD6141"/>
<path d="M421.923 261.309L414.477 292.017C414.273 292.862 413.522 293.473 412.652 293.499L384.597 294.367C386.774 292.017 388.934 289.652 391.074 287.268C391.231 287.092 391.282 286.873 391.184 286.772C391.083 286.666 390.859 286.726 390.685 286.905C388.375 289.29 386.086 291.693 383.815 294.113L383.811 294.118C383.728 294.207 383.674 294.302 383.634 294.397L358.867 295.162C361.178 292.669 363.472 290.159 365.745 287.631C365.911 287.447 365.967 287.222 365.869 287.12C365.768 287.013 365.538 287.08 365.356 287.268C362.939 289.768 360.542 292.286 358.165 294.822L358.16 294.826C358.051 294.944 357.981 295.072 357.942 295.191L355.703 295.261C354.841 295.294 354.04 294.722 353.786 293.885L348.843 277.585C350.12 276.2 351.38 274.797 352.621 273.377C352.71 273.273 352.706 273.115 352.605 273.016C352.501 272.912 352.334 272.912 352.231 273.014C351.001 274.249 349.793 275.504 348.595 276.77L343.285 259.26L342.496 259.5L352.997 294.125C353.351 295.29 354.431 296.086 355.642 296.086C355.671 296.086 355.7 296.086 355.729 296.086L412.676 294.324C413.917 294.285 414.987 293.416 415.278 292.211L422.724 261.504L421.923 261.309Z" fill="white"/>
<path d="M353.274 272.692C353.497 272.553 353.672 272.371 353.852 272.193C354.018 272.001 354.187 271.813 354.31 271.581C354.358 271.49 354.357 271.376 354.297 271.282C354.209 271.141 354.023 271.097 353.883 271.183C353.66 271.321 353.485 271.504 353.305 271.682C353.139 271.874 352.97 272.062 352.847 272.294C352.798 272.385 352.8 272.5 352.86 272.594C352.949 272.735 353.134 272.778 353.274 272.692Z" fill="white"/>
<path d="M354.805 271.05C354.902 271.046 354.952 270.999 355.006 270.955C355.046 270.898 355.09 270.844 355.087 270.747C355.087 270.745 355.087 270.741 355.087 270.739C355.075 270.515 354.884 270.341 354.66 270.349C354.564 270.353 354.513 270.4 354.459 270.444C354.42 270.502 354.375 270.555 354.379 270.652C354.379 270.654 354.379 270.659 354.379 270.662C354.391 270.885 354.582 271.059 354.805 271.05Z" fill="white"/>
<path d="M361.669 263.673C363.344 261.969 365 260.246 366.636 258.505L366.638 258.502C366.776 258.353 366.765 258.118 366.613 257.977C366.461 257.837 366.226 257.844 366.088 257.994C364.465 259.747 362.863 261.519 361.279 263.309C361.188 263.413 361.193 263.574 361.294 263.673C361.401 263.776 361.568 263.776 361.669 263.673Z" fill="white"/>
<path d="M360.806 264.638C360.903 264.635 360.953 264.587 361.007 264.543C361.046 264.485 361.091 264.432 361.088 264.335C361.088 264.333 361.088 264.328 361.087 264.325C361.075 264.102 360.883 263.928 360.66 263.937C360.564 263.941 360.513 263.988 360.459 264.032C360.42 264.089 360.375 264.142 360.379 264.24C360.379 264.242 360.379 264.245 360.379 264.248C360.391 264.472 360.581 264.646 360.806 264.638Z" fill="white"/>
<path d="M359.894 265.615C359.991 265.612 360.041 265.564 360.095 265.52C360.135 265.463 360.179 265.409 360.176 265.312C360.176 265.31 360.176 265.305 360.176 265.302C360.164 265.079 359.973 264.905 359.75 264.914C359.653 264.918 359.603 264.965 359.549 265.01C359.509 265.067 359.465 265.12 359.468 265.217C359.468 265.219 359.468 265.223 359.468 265.225C359.479 265.449 359.67 265.624 359.894 265.615Z" fill="white"/>
<path d="M358.983 266.593C359.08 266.59 359.13 266.542 359.184 266.498C359.224 266.441 359.268 266.387 359.265 266.29C359.265 266.288 359.265 266.283 359.264 266.28C359.252 266.057 359.061 265.883 358.838 265.892C358.741 265.896 358.691 265.943 358.637 265.988C358.596 266.044 358.553 266.097 358.556 266.195C358.556 266.198 358.556 266.202 358.556 266.203C358.568 266.427 358.759 266.601 358.983 266.593Z" fill="white"/>
<path d="M355.854 269.948C356.285 269.587 356.669 269.181 357.056 268.78C357.43 268.365 357.807 267.953 358.138 267.499C358.215 267.394 358.213 267.244 358.123 267.139C358.018 267.015 357.834 266.997 357.712 267.101C357.282 267.462 356.897 267.868 356.509 268.269C356.135 268.684 355.758 269.095 355.427 269.551C355.35 269.656 355.354 269.805 355.443 269.91C355.547 270.034 355.731 270.052 355.854 269.948Z" fill="white"/>
<path d="M366.389 286.414C366.455 286.579 366.693 286.567 366.92 286.386C367.282 286.098 367.598 285.765 367.918 285.437C368.223 285.095 368.533 284.757 368.795 284.375C368.898 284.224 368.943 284.061 368.898 283.95C368.833 283.783 368.596 283.795 368.368 283.976C368.005 284.265 367.689 284.597 367.37 284.926C367.064 285.268 366.755 285.606 366.492 285.988C366.39 286.138 366.345 286.302 366.389 286.414Z" fill="white"/>
<path d="M369.691 283.414C369.826 283.37 369.914 283.281 370.007 283.197C370.086 283.099 370.167 283.005 370.202 282.867C370.203 282.863 370.204 282.858 370.204 282.855C370.279 282.54 370.086 282.366 369.775 282.469C369.64 282.513 369.551 282.602 369.459 282.686C369.38 282.784 369.299 282.878 369.264 283.016C369.263 283.02 369.262 283.027 369.261 283.031C369.188 283.345 369.38 283.517 369.691 283.414Z" fill="white"/>
<path d="M382.128 270.062C385.124 266.942 388.1 263.802 391.057 260.645L391.061 260.641C391.312 260.371 391.391 260.039 391.239 259.899C391.087 259.759 390.76 259.864 390.51 260.135C387.567 263.305 384.643 266.493 381.74 269.7C381.572 269.885 381.515 270.112 381.614 270.214C381.716 270.319 381.946 270.251 382.128 270.062Z" fill="white"/>
<path d="M380.549 271.795C380.684 271.75 380.772 271.661 380.864 271.577C380.942 271.48 381.024 271.385 381.059 271.247C381.06 271.243 381.062 271.237 381.062 271.233C381.136 270.918 380.943 270.745 380.632 270.849C380.497 270.893 380.409 270.982 380.316 271.066C380.238 271.164 380.156 271.258 380.121 271.396C380.121 271.4 380.119 271.405 380.119 271.408C380.045 271.724 380.237 271.896 380.549 271.795Z" fill="white"/>
<path d="M378.898 273.565C379.033 273.521 379.122 273.432 379.214 273.348C379.291 273.25 379.373 273.156 379.408 273.017C379.409 273.013 379.411 273.007 379.411 273.003C379.485 272.688 379.292 272.516 378.981 272.619C378.846 272.664 378.757 272.753 378.665 272.837C378.587 272.934 378.505 273.029 378.471 273.167C378.47 273.17 378.468 273.176 378.468 273.178C378.394 273.494 378.586 273.667 378.898 273.565Z" fill="white"/>
<path d="M377.247 275.335C377.383 275.291 377.471 275.203 377.563 275.118C377.641 275.02 377.723 274.926 377.758 274.788C377.759 274.784 377.76 274.777 377.761 274.773C377.835 274.458 377.642 274.286 377.331 274.39C377.196 274.434 377.107 274.523 377.015 274.607C376.936 274.705 376.855 274.799 376.82 274.937C376.819 274.94 376.818 274.946 376.818 274.949C376.743 275.264 376.936 275.437 377.247 275.335Z" fill="white"/>
<path d="M371.581 281.411C372.321 280.718 373.013 279.981 373.71 279.248C374.393 278.502 375.078 277.76 375.718 276.974C375.866 276.792 375.922 276.579 375.842 276.464C375.748 276.329 375.502 276.38 375.292 276.576C374.553 277.269 373.86 278.005 373.163 278.738C372.48 279.484 371.794 280.227 371.155 281.012C371.007 281.194 370.951 281.406 371.03 281.522C371.125 281.657 371.371 281.608 371.581 281.411Z" fill="white"/>
<path d="M392.195 286.08C392.543 285.806 392.845 285.489 393.151 285.176C393.442 284.849 393.738 284.526 393.986 284.159C394.083 284.015 394.123 283.856 394.078 283.747C394.01 283.584 393.777 283.59 393.559 283.762C393.21 284.035 392.909 284.352 392.604 284.666C392.312 284.993 392.018 285.316 391.769 285.683C391.671 285.828 391.631 285.987 391.677 286.097C391.745 286.258 391.977 286.251 392.195 286.08Z" fill="white"/>
<path d="M394.842 283.241C394.973 283.201 395.058 283.117 395.146 283.036C395.22 282.943 395.298 282.853 395.329 282.719C395.33 282.716 395.331 282.711 395.331 282.708C395.397 282.401 395.205 282.228 394.902 282.321C394.77 282.361 394.686 282.445 394.597 282.526C394.523 282.62 394.445 282.71 394.414 282.843C394.413 282.847 394.411 282.854 394.411 282.857C394.347 283.163 394.54 283.335 394.842 283.241Z" fill="white"/>
<path d="M406.717 270.493C409.579 267.515 412.422 264.518 415.246 261.504L415.249 261.501C415.489 261.243 415.56 260.92 415.407 260.781C415.255 260.641 414.938 260.736 414.698 260.994C411.888 264.021 409.098 267.067 406.327 270.13C406.167 270.308 406.117 270.528 406.216 270.629C406.319 270.734 406.543 270.673 406.717 270.493Z" fill="white"/>
<path d="M405.209 272.148C405.341 272.107 405.425 272.023 405.514 271.942C405.588 271.849 405.666 271.758 405.697 271.625C405.698 271.621 405.699 271.615 405.7 271.611C405.765 271.306 405.572 271.134 405.27 271.227C405.139 271.267 405.054 271.351 404.966 271.432C404.892 271.526 404.813 271.615 404.783 271.749C404.782 271.752 404.781 271.757 404.78 271.761C404.715 272.067 404.907 272.24 405.209 272.148Z" fill="white"/>
<path d="M403.633 273.838C403.765 273.798 403.849 273.714 403.937 273.633C404.011 273.539 404.089 273.449 404.12 273.315C404.121 273.311 404.123 273.305 404.124 273.302C404.188 272.996 403.995 272.824 403.693 272.917C403.562 272.958 403.477 273.042 403.389 273.122C403.315 273.216 403.237 273.307 403.206 273.44C403.205 273.442 403.205 273.448 403.204 273.451C403.138 273.757 403.33 273.931 403.633 273.838Z" fill="white"/>
<path d="M402.057 275.528C402.188 275.488 402.272 275.404 402.36 275.323C402.435 275.23 402.512 275.139 402.544 275.006C402.545 275.002 402.546 274.995 402.547 274.992C402.612 274.687 402.419 274.515 402.116 274.608C401.986 274.648 401.901 274.732 401.813 274.813C401.738 274.907 401.66 274.996 401.629 275.13C401.629 275.133 401.628 275.138 401.627 275.142C401.562 275.448 401.754 275.621 402.057 275.528Z" fill="white"/>
<path d="M396.647 281.329C397.356 280.67 398.017 279.966 398.683 279.267C399.334 278.555 399.989 277.845 400.598 277.093C400.738 276.918 400.789 276.712 400.707 276.598C400.612 276.464 400.371 276.507 400.17 276.695C399.462 277.354 398.801 278.057 398.135 278.757C397.484 279.469 396.828 280.178 396.22 280.931C396.08 281.105 396.029 281.311 396.11 281.425C396.206 281.559 396.445 281.516 396.647 281.329Z" fill="white"/>
<path d="M362.739 317.919L365.665 307.566H396.684L398.374 317.919H362.739Z" fill="#FF8976"/>
<path d="M354.676 334.682C358.288 334.682 361.216 331.755 361.216 328.143C361.216 324.531 358.288 321.603 354.676 321.603C351.065 321.603 348.137 324.531 348.137 328.143C348.137 331.755 351.065 334.682 354.676 334.682Z" fill="#764582"/>
<path d="M358.608 328.143C358.608 330.315 356.847 332.075 354.676 332.075C352.504 332.075 350.743 330.315 350.743 328.143C350.743 325.971 352.504 324.21 354.676 324.21C356.847 324.211 358.608 325.971 358.608 328.143Z" fill="#3E2344"/>
<path d="M352.091 327.427L354.333 321.513C354.453 321.196 354.757 320.986 355.095 320.986H362.894C363.605 320.986 363.976 321.834 363.492 322.356L356.47 329.935C355.885 330.566 354.986 330.799 354.168 330.532L353.466 330.302C352.272 329.913 351.645 328.603 352.091 327.427Z" fill="#FFDCAE"/>
<path d="M356.183 328.143C356.183 328.975 355.509 329.649 354.677 329.649C353.845 329.649 353.17 328.975 353.17 328.143C353.17 327.311 353.845 326.637 354.677 326.637C355.509 326.637 356.183 327.312 356.183 328.143Z" fill="#764582"/>
<path d="M404.637 334.682C408.249 334.682 411.177 331.755 411.177 328.143C411.177 324.531 408.249 321.603 404.637 321.603C401.026 321.603 398.098 324.531 398.098 328.143C398.098 331.755 401.026 334.682 404.637 334.682Z" fill="#764582"/>
<path d="M400.705 328.143C400.705 330.315 402.465 332.075 404.637 332.075C406.809 332.075 408.569 330.315 408.569 328.143C408.569 325.971 406.809 324.21 404.637 324.21C402.465 324.211 400.705 325.971 400.705 328.143Z" fill="#3E2344"/>
<path d="M407.223 327.427L404.98 321.513C404.86 321.196 404.556 320.986 404.218 320.986H396.419C395.708 320.986 395.337 321.834 395.821 322.356L402.843 329.935C403.428 330.566 404.327 330.799 405.144 330.532L405.847 330.302C407.042 329.913 407.668 328.603 407.223 327.427Z" fill="#FFDCAE"/>
<path d="M403.131 328.143C403.131 328.975 403.805 329.649 404.637 329.649C405.469 329.649 406.143 328.975 406.143 328.143C406.143 327.311 405.469 326.637 404.637 326.637C403.805 326.637 403.131 327.312 403.131 328.143Z" fill="#764582"/>
<path d="M362.546 247.923V259.579L390.072 260.296V246.729L362.546 247.923Z" fill="#FFBE57"/>
<path d="M390.072 246.729V260.296L403.191 260.715V249.101L390.072 246.729Z" fill="#F99441"/>
<path d="M361.743 245.717L390.713 244.536V248.324L361.743 249.529V245.717Z" fill="#FFD25A"/>
<path d="M390.712 248.324L404.144 250.625V247.032L390.712 244.536V248.324Z" fill="#FFBE57"/>
<path fill-rule="evenodd" clip-rule="evenodd" d="M529.976 172.316C538.92 159.424 548.147 162.222 551.538 167.655C554.928 173.089 552.482 181.161 545.422 187.834C540.357 192.908 530.218 196.445 522.075 198.383C516.377 192.25 509.908 183.68 508.514 176.647C506.346 167.178 508.793 159.107 514.629 156.469C520.467 153.832 529.693 156.628 529.976 172.316Z" fill="#FD6141"/>
<g opacity="0.5">
<path fill-rule="evenodd" clip-rule="evenodd" d="M551.536 167.656C548.641 163.015 541.489 160.307 533.892 167.64C540.362 162.538 549.637 162.44 550.448 171.772C551.3 181.569 543.447 188.265 534.404 186.554C522.536 184.309 525.454 174.355 519.815 169.484C515.405 165.777 510.176 171.382 509.943 175.978C509.837 178.062 510.057 180.15 510.41 182.128C513.083 187.799 517.796 193.777 522.072 198.382C530.216 196.444 540.355 192.907 545.419 187.833C552.481 181.161 554.926 173.089 551.536 167.656Z" fill="#DD4026"/>
</g>
<path opacity="0.3" d="M389.876 107.205L326.44 91.5926L318.418 89.6179C315.295 88.8492 312.14 90.758 311.371 93.8808L305.07 119.485L304.711 120.943L301.829 132.652C301.061 135.775 302.969 138.93 306.092 139.698L376.414 157.005C379.536 157.774 382.691 155.865 383.46 152.742L384.302 149.323L386.7 139.574L390.199 125.36L393.281 112.833C393.896 110.339 392.372 107.818 389.876 107.205Z" fill="#764582"/>
<path d="M375.28 154.688L304.958 137.381C301.836 136.612 299.927 133.458 300.696 130.335L310.238 91.5626C311.006 88.4398 314.161 86.531 317.284 87.2997L387.605 104.607C390.728 105.376 392.637 108.53 391.868 111.653L382.326 150.425C381.557 153.548 378.403 155.457 375.28 154.688Z" fill="#FFBE57"/>
<path d="M315.066 101.268C312.673 107.65 313.471 116.424 319.852 119.615C342.706 133.23 367.041 132.023 389.064 123.044L392.147 110.517C392.761 108.022 391.237 105.501 388.741 104.887L325.305 89.2755C320.554 91.972 317.136 96.6132 315.066 101.268Z" fill="#FFD25A"/>
<path d="M385.552 137.261L303.924 117.169L301.524 126.917L383.153 147.009L385.552 137.261Z" fill="#764582"/>
<path d="M339.332 103.704L314.665 97.6335C313.412 97.325 312.647 96.0592 312.955 94.8062L313.038 94.4698C313.346 93.2169 314.612 92.4512 315.865 92.7597L340.532 98.8305C341.785 99.139 342.551 100.405 342.242 101.658L342.159 101.994C341.851 103.247 340.585 104.013 339.332 103.704Z" fill="#764582"/>
<path d="M360.96 114.197L312.331 102.229C311.704 102.075 311.322 101.442 311.475 100.815L311.517 100.647C311.672 100.021 312.304 99.6382 312.931 99.7919L361.561 111.76C362.188 111.914 362.57 112.547 362.416 113.174L362.375 113.342C362.22 113.968 361.587 114.351 360.96 114.197Z" fill="#764582"/>
<path d="M350.993 123.445L349.407 123.055C348.526 122.838 347.988 121.948 348.204 121.067L348.262 120.831C348.479 119.95 349.369 119.411 350.25 119.628L351.835 120.018C352.717 120.235 353.255 121.125 353.038 122.006L352.98 122.242C352.764 123.124 351.874 123.662 350.993 123.445Z" fill="white"/>
<path d="M357.07 124.942L355.484 124.552C354.603 124.335 354.065 123.444 354.281 122.564L354.339 122.327C354.556 121.447 355.446 120.908 356.327 121.124L357.912 121.515C358.794 121.731 359.332 122.622 359.115 123.502L359.057 123.739C358.841 124.619 357.951 125.159 357.07 124.942Z" fill="white"/>
<path d="M363.149 126.437L361.563 126.047C360.682 125.83 360.144 124.94 360.36 124.059L360.418 123.823C360.635 122.941 361.525 122.403 362.406 122.62L363.991 123.01C364.873 123.227 365.411 124.117 365.194 124.998L365.136 125.234C364.92 126.116 364.029 126.654 363.149 126.437Z" fill="white"/>
<path d="M377.514 108.455C376.796 107.202 375.591 106.229 374.077 105.857C371.143 105.135 368.18 106.927 367.459 109.86C366.737 112.793 368.529 115.756 371.462 116.478C372.975 116.85 374.495 116.55 375.712 115.771C375.039 114.595 374.795 113.172 375.145 111.752C375.496 110.332 376.373 109.184 377.514 108.455Z" fill="#FD6141"/>
<path d="M381.763 107.749C380.249 107.376 378.73 107.677 377.513 108.455C378.186 109.631 378.429 111.055 378.08 112.475C377.731 113.894 376.854 115.042 375.713 115.771C376.43 117.025 377.636 117.998 379.15 118.37C382.083 119.092 385.046 117.3 385.768 114.367C386.49 111.433 384.696 108.47 381.763 107.749Z" fill="#FD6141"/>
</g>
<defs>
<clipPath id="clip0_182_18866">
<rect width="618.016" height="390" fill="white"/>
</clipPath>
</defs>
</svg>
