<svg width="496" height="375" viewBox="0 0 496 375" fill="none" xmlns="http://www.w3.org/2000/svg">
<path d="M234.781 267.449C233.802 276.45 233.935 292.014 232.942 302.246C231.95 312.48 229.831 317.382 225.662 320.588C221.492 323.796 215.27 325.307 210.926 326.246C206.583 327.186 204.117 327.555 202.714 329.854C201.311 332.155 200.972 336.387 200.681 340.619C200.392 344.85 200.15 349.084 203.078 351.675C206.006 354.266 212.103 355.215 223.621 355.729C235.139 356.243 252.078 356.32 263.408 356.044C274.738 355.767 280.457 355.138 284.36 353.897C288.263 352.657 290.351 350.809 291.55 349.047C292.752 347.287 293.063 345.616 292.901 342.313C292.739 339.013 292.1 334.082 290.062 331.156C288.025 328.229 284.587 327.308 280.853 326.382C277.12 325.456 273.092 324.529 270.105 322.872C267.118 321.216 265.174 318.833 263.729 315.715C262.284 312.597 261.339 308.747 260.935 300.272C260.53 291.798 260.666 278.699 260.064 270.272C259.462 261.845 258.123 258.088 254.648 256.082C251.172 254.077 245.56 253.821 241.707 254.914C237.855 256.007 235.761 258.447 234.781 267.449Z" fill="#FEA807"/>
<path d="M174.929 136.077C174.41 133.905 173.852 130.749 174.612 128.64C175.373 126.53 177.452 125.465 179.378 124.945C181.305 124.421 183.077 124.44 183.771 124.005C184.465 123.57 184.08 122.681 184.435 121.597C184.791 120.52 185.889 119.251 188.56 118.098C191.231 116.944 195.478 115.903 199.867 115.159C204.258 114.418 208.793 113.972 211.068 113.109C213.342 112.249 213.355 110.966 213.867 109.152C214.378 107.334 215.387 104.981 216.434 103.761C217.481 102.54 218.565 102.452 228.269 102.208C237.973 101.965 256.297 101.563 266.095 101.714C275.893 101.865 277.167 102.57 278.139 103.713C279.112 104.852 279.785 106.437 280.113 108.016C280.442 109.594 280.425 111.172 282.091 111.976C283.758 112.78 287.106 112.817 291.978 113.163C296.85 113.51 303.244 114.166 306.733 114.893C310.222 115.615 310.806 116.412 311.184 117.89C311.563 119.373 311.738 121.541 312.512 122.732C313.288 123.923 314.664 124.133 316.183 124.889C317.702 125.641 319.363 126.939 320.627 128.481C321.892 130.022 322.759 131.803 323.282 133.58C323.806 135.357 323.985 137.135 323.769 139.001C323.552 140.871 322.94 142.835 319.426 144.521C315.912 146.21 309.496 147.62 294.268 148.545C279.042 149.47 255.007 149.911 235.908 149.022C216.81 148.135 202.65 145.918 193.557 144.297C184.463 142.676 180.436 141.65 178.181 140.542C175.928 139.436 175.448 138.249 174.929 136.077Z" fill="#FEA807"/>
<path d="M324.073 157.922C326.933 157.657 330.784 156.614 333.906 154.775C337.028 152.937 339.419 150.301 340.789 146.474C342.158 142.648 342.506 137.629 343.675 134.045C344.846 130.461 346.838 128.315 349.851 127.511C352.863 126.704 356.896 127.239 360.421 129.197C363.946 131.155 366.963 134.532 369.094 142.73C371.225 150.927 372.468 163.941 367.276 180.384C362.081 196.828 350.45 216.7 339.237 229.486C328.024 242.272 317.228 247.971 307.531 252.302C297.834 256.633 289.236 259.597 285.274 261.674C281.313 263.749 281.991 264.939 283.817 265.409C285.643 265.879 288.617 265.628 296.372 263.394C304.128 261.16 316.661 256.943 329.956 246.733C343.252 236.522 357.308 220.317 365.78 205.73C374.254 191.143 377.149 178.173 378.362 165.824C379.571 153.477 379.103 141.75 377.263 134.048C375.423 126.349 372.211 122.669 368.69 120.317C365.168 117.968 361.337 116.943 357.548 116.608C353.76 116.276 350.014 116.63 346.447 118.658C342.88 120.689 339.493 124.399 337.636 127.729C335.78 131.058 335.454 134.008 334.515 136.895C333.576 139.779 332.024 142.598 330.276 144.845C328.529 147.093 326.588 148.769 324.478 150.185C322.369 151.602 320.09 152.761 318.897 153.88C317.704 155.001 317.594 156.083 318.472 156.879C319.349 157.676 321.214 158.188 324.073 157.922Z" fill="#FF7038"/>
<path d="M175.412 156.378C172.559 156.053 168.73 154.93 165.648 153.026C162.564 151.124 160.228 148.44 158.939 144.585C157.649 140.731 157.406 135.705 156.311 132.099C155.215 128.492 153.268 126.306 150.273 125.436C147.278 124.569 143.235 125.019 139.67 126.903C136.105 128.787 133.017 132.102 130.717 140.255C128.415 148.405 126.902 161.389 131.753 177.937C136.605 194.485 147.82 214.595 158.765 227.611C169.711 240.627 180.385 246.55 189.99 251.081C199.595 255.613 208.13 258.755 212.048 260.913C215.965 263.071 215.263 264.247 213.428 264.677C211.592 265.11 208.624 264.797 200.918 262.402C193.21 260.008 180.767 255.532 167.687 245.047C154.606 234.562 140.891 218.069 132.722 203.309C124.552 188.549 121.929 175.521 120.974 163.151C120.019 150.781 120.732 139.068 122.732 131.406C124.733 123.743 128.02 120.133 131.589 117.855C135.159 115.58 139.01 114.636 142.805 114.378C146.599 114.123 150.337 114.555 153.861 116.66C157.385 118.766 160.695 122.542 162.483 125.908C164.269 129.275 164.533 132.235 165.412 135.138C166.291 138.043 167.784 140.893 169.485 143.175C171.185 145.458 173.091 147.175 175.171 148.634C177.251 150.094 179.504 151.301 180.674 152.445C181.844 153.59 181.932 154.674 181.037 155.452C180.141 156.23 178.265 156.703 175.412 156.378Z" fill="#FF7038"/>
<path d="M203.938 136.483C229.347 136.748 277.208 137.246 301.921 138.142C326.632 139.038 328.195 140.336 329.211 142.019C330.227 143.705 330.699 145.778 330.91 149.03C331.124 152.283 331.078 156.715 328.247 173.233C325.416 189.75 319.8 218.352 312.167 237.231C304.535 256.112 294.887 265.271 282.327 270.213C269.766 275.155 254.297 275.88 243.759 275.819C233.221 275.759 227.616 274.913 222.361 273.479C217.107 272.046 212.203 270.026 205.914 263.804C199.627 257.583 191.954 247.162 186.274 229.719C180.596 212.276 176.911 187.811 174.619 171.438C172.326 155.065 171.427 146.781 171.326 142.251C171.225 137.717 171.924 136.94 173.749 136.564C175.576 136.188 178.531 136.221 203.938 136.483Z" fill="#FED106"/>
<path d="M222.606 344.168C238.858 344.165 265.45 344.194 279.728 344.416C294.008 344.64 295.974 345.053 297.444 345.782C298.913 346.512 299.887 347.556 300.362 351.55C300.838 355.544 300.816 362.488 300.679 366.082C300.543 369.675 300.295 369.919 299.749 370.208C299.205 370.499 298.365 370.834 280.835 370.652C263.304 370.469 229.087 369.77 211.262 369.436C193.439 369.104 192.011 369.138 191.227 368.834C190.442 368.531 190.3 367.889 190.488 364.001C190.677 360.113 191.194 352.977 191.923 349.143C192.653 345.31 193.594 344.778 197.02 344.493C200.446 344.209 206.355 344.171 222.606 344.168Z" fill="#FED106"/>
<path d="M214.773 365.754C232.132 365.91 266.403 366.118 284.351 366.329C302.299 366.541 303.923 366.755 305.245 367.433C306.568 368.112 307.59 369.255 308.094 370.516C308.598 371.777 308.584 373.156 308.304 373.941C308.026 374.726 307.483 374.918 306.274 374.979C305.068 375.04 303.198 374.97 283.6 374.718C264.003 374.465 226.679 374.028 207.722 373.733C188.766 373.438 188.177 373.283 187.74 372.712C187.302 372.141 187.017 371.154 187.201 369.998C187.385 368.844 188.04 367.52 188.738 366.714C189.435 365.91 190.177 365.623 191.483 365.488C192.79 365.354 194.66 365.373 195.816 365.435C196.974 365.496 197.416 365.599 214.773 365.754Z" fill="#FEA807"/>
<path d="M178.459 125.236C178.765 125.122 179.073 125.026 179.377 124.945C181.304 124.421 183.076 124.44 183.769 124.005C184.464 123.57 184.079 122.681 184.434 121.597C184.535 121.294 184.695 120.973 184.934 120.642C188.875 120.741 194.346 120.885 202.07 121.044C225.85 121.538 270.953 122.202 294.391 122.497C302.961 122.604 308.632 122.659 312.445 122.626L312.511 122.733C313.287 123.924 314.663 124.134 316.181 124.89C316.917 125.255 317.685 125.749 318.426 126.335C314.094 126.361 307.761 126.357 298.291 126.328C272.29 126.254 222.652 126.036 197.097 125.671C188.38 125.546 182.467 125.406 178.459 125.236ZM209.578 113.551C210.141 113.418 210.644 113.271 211.067 113.108C213.341 112.249 213.355 110.966 213.866 109.151C213.993 108.698 214.153 108.207 214.334 107.713C217.306 107.757 221.449 107.872 227.517 108.06C240.957 108.477 263.838 109.247 280.402 109.568C280.618 110.56 280.98 111.437 282.09 111.976C283.757 112.779 287.104 112.816 291.976 113.163C293.869 113.296 295.992 113.476 298.085 113.69C278.795 113.635 247.065 113.985 228.737 113.934C219.277 113.905 213.391 113.769 209.578 113.551Z" fill="#ED992B"/>
<path d="M118.916 39.0329C80.9456 53.5282 46.6232 72.4479 14 96.7183C30.5163 96.8107 46.8246 97.4409 63.207 99.7309C58.2513 114.547 54.3199 129.702 51.5044 145.072C79.0287 124.698 107.654 108.912 139.619 96.6259C132.718 77.4294 125.817 58.2329 118.916 39.0329Z" fill="#F8F8F8"/>
<path d="M139.618 96.6259C123.716 95.9069 107.761 96.4709 91.9445 98.2629C82.5298 80.1652 73.1181 62.068 63.7051 43.9663C81.9377 41.0128 100.433 39.1691 118.915 39.0325C125.816 58.2329 132.717 77.4294 139.618 96.6259Z" fill="#777777"/>
<path d="M377.393 39.0329C415.388 53.5356 449.703 72.4554 482.313 96.7183C465.794 96.8107 449.488 97.4409 433.106 99.7309C438.062 114.547 441.992 129.702 444.809 145.072C417.283 124.698 388.658 108.909 356.695 96.6259C363.594 77.4294 370.494 58.2329 377.393 39.0329Z" fill="#F8F8F8"/>
<path d="M356.695 96.6259C372.596 95.9069 388.551 96.4709 404.37 98.2594C413.78 80.1657 423.194 62.068 432.608 43.9663C414.393 40.8394 395.867 39.3421 377.394 39.0325C370.494 58.2329 363.594 77.4294 356.695 96.6259Z" fill="#777777"/>
<path d="M404.369 98.2594C303.586 48.8191 192.717 48.823 91.9445 98.2629C82.5298 80.1652 73.1181 62.0679 63.7051 43.9663C181.989 -14.6554 314.323 -14.6554 432.607 43.9663C423.193 62.0679 413.78 80.1657 404.369 98.2594Z" fill="white"/>
<path fill-rule="evenodd" clip-rule="evenodd" d="M104.843 170.97C104.589 172.899 104.462 176.125 103.893 178.623C103.325 181.121 102.313 182.892 99.1196 184.062C95.9258 185.232 90.5518 185.8 88.8754 186.117C87.1994 186.434 89.2231 186.496 91.9729 186.907C94.7245 187.318 98.2022 188.077 100.321 188.93C102.439 189.784 103.198 190.734 104.241 194.084C105.285 197.436 106.612 203.191 107.276 205.215C107.94 207.239 107.94 205.53 108.383 202.525C108.827 199.523 109.711 195.224 110.881 192.567C112.051 189.912 113.505 188.9 116.035 187.824C118.565 186.749 122.168 185.611 122.705 185.072C123.244 184.536 120.716 184.599 118.186 184.346C115.657 184.094 113.127 183.524 111.483 182.574C109.839 181.626 109.08 180.299 108.383 177.169C107.688 174.039 107.057 169.105 106.645 167.24C106.234 165.375 106.044 166.577 105.759 167.493C105.474 168.409 105.095 169.043 104.843 170.97Z" fill="#FEFEFE"/>
<path fill-rule="evenodd" clip-rule="evenodd" d="M432.032 169.136C431.881 170.314 431.8 172.285 431.453 173.81C431.106 175.337 430.487 176.418 428.537 177.133C426.586 177.847 423.304 178.195 422.279 178.388C421.258 178.581 422.493 178.619 424.175 178.87C425.853 179.121 427.976 179.585 429.271 180.106C430.565 180.628 431.03 181.208 431.668 183.254C432.306 185.302 433.117 188.817 433.523 190.053C433.928 191.289 433.928 190.245 434.197 188.41C434.467 186.576 435.009 183.95 435.724 182.327C436.439 180.706 437.324 180.088 438.873 179.43C440.418 178.774 442.615 178.079 442.943 177.75C443.275 177.421 441.73 177.461 440.185 177.306C438.64 177.151 437.095 176.803 436.088 176.223C435.086 175.644 434.621 174.834 434.197 172.922C433.773 171.01 433.386 167.997 433.135 166.857C432.884 165.717 432.766 166.452 432.593 167.011C432.419 167.572 432.187 167.959 432.032 169.136Z" fill="#FEFEFE"/>
<path fill-rule="evenodd" clip-rule="evenodd" d="M378.222 266C378.067 267.179 377.99 269.15 377.64 270.675C377.294 272.201 376.677 273.283 374.727 273.997C372.776 274.712 369.491 275.059 368.469 275.252C367.444 275.446 368.679 275.484 370.361 275.735C372.042 275.986 374.166 276.45 375.46 276.971C376.755 277.493 377.216 278.073 377.853 280.119C378.491 282.166 379.302 285.682 379.708 286.918C380.113 288.153 380.113 287.11 380.383 285.275C380.656 283.44 381.194 280.815 381.909 279.192C382.625 277.57 383.513 276.952 385.058 276.295C386.603 275.638 388.805 274.943 389.133 274.614C389.461 274.286 387.916 274.325 386.371 274.171C384.826 274.016 383.281 273.668 382.278 273.088C381.271 272.509 380.811 271.698 380.383 269.786C379.959 267.874 379.572 264.861 379.321 263.721C379.07 262.582 378.956 263.317 378.779 263.876C378.606 264.436 378.377 264.823 378.222 266Z" fill="#FEFEFE"/>
<path fill-rule="evenodd" clip-rule="evenodd" d="M141.442 255.238C141.288 256.416 141.21 258.386 140.863 259.912C140.515 261.438 139.897 262.52 137.946 263.234C135.995 263.949 132.713 264.296 131.689 264.49C130.665 264.683 131.901 264.721 133.581 264.972C135.261 265.224 137.386 265.687 138.68 266.208C139.974 266.73 140.437 267.31 141.074 269.356C141.713 271.404 142.522 274.919 142.928 276.155C143.334 277.391 143.334 276.348 143.604 274.512C143.875 272.678 144.415 270.052 145.13 268.43C145.845 266.808 146.733 266.19 148.278 265.533C149.824 264.876 152.025 264.181 152.352 263.852C152.682 263.524 151.138 263.563 149.592 263.408C148.047 263.254 146.502 262.906 145.497 262.326C144.493 261.747 144.03 260.937 143.604 259.025C143.179 257.112 142.794 254.099 142.543 252.96C142.291 251.82 142.176 252.554 142.001 253.114C141.828 253.673 141.597 254.061 141.442 255.238Z" fill="#FEFEFE"/>
<path fill-rule="evenodd" clip-rule="evenodd" d="M51.9225 19.254C51.7679 20.4338 51.6904 22.4032 51.3423 23.9298C50.9959 25.4565 50.3775 26.5369 48.4269 27.252C46.4759 27.9672 43.1931 28.314 42.1692 28.5058C41.1458 28.7011 42.3816 28.7379 44.0611 28.9889C45.7424 29.2398 47.8659 29.704 49.16 30.2278C50.4546 30.7481 50.9179 31.3266 51.5547 33.373C52.1927 35.4235 53.0029 38.9375 53.4089 40.1724C53.8144 41.4074 53.8144 40.3643 54.0846 38.5315C54.3557 36.6952 54.8957 34.0698 55.6108 32.4472C56.3255 30.8247 57.2137 30.205 58.7587 29.549C60.3042 28.8925 62.5048 28.1993 62.8328 27.8677C63.1617 27.5397 61.618 27.58 60.0725 27.4254C58.5275 27.2704 56.9825 26.924 55.9778 26.345C54.9736 25.7622 54.5103 24.955 54.0846 23.0413C53.6598 21.1314 53.2744 18.1149 53.0231 16.9754C52.7717 15.8359 52.6561 16.5734 52.4813 17.13C52.3084 17.6905 52.0771 18.0777 51.9225 19.254Z" fill="#FEFEFE"/>
<path fill-rule="evenodd" clip-rule="evenodd" d="M443.243 4.88792C443.088 6.06422 443.011 8.03712 442.66 9.56377C442.313 11.0904 441.694 12.1708 439.744 12.886C437.793 13.5976 434.511 13.948 433.486 14.1398C432.465 14.3316 433.7 14.3719 435.382 14.6228C437.06 14.8737 439.184 15.3384 440.478 15.8582C441.772 16.382 442.236 16.9605 442.874 19.0074C443.513 21.0539 444.324 24.5679 444.729 25.8068C445.135 27.0418 445.135 25.9986 445.404 24.1624C445.673 22.3296 446.215 19.7046 446.931 18.0781C447.646 16.4595 448.535 15.8398 450.079 15.1834C451.624 14.5269 453.826 13.8301 454.15 13.5021C454.482 13.1741 452.937 13.2144 451.392 13.0598C449.847 12.9048 448.302 12.5549 447.295 11.9755C446.293 11.3965 445.828 10.5855 445.404 8.6752C444.98 6.76141 444.593 3.74885 444.342 2.60934C444.091 1.46983 443.973 2.20381 443.8 2.76437C443.626 3.32449 443.394 3.71163 443.243 4.88792Z" fill="#FEFEFE"/>
<path fill-rule="evenodd" clip-rule="evenodd" d="M330.142 85.6005C329.987 86.7807 329.909 88.7497 329.561 90.2759C329.215 91.8025 328.597 92.8829 326.646 93.5985C324.695 94.3136 321.412 94.6605 320.388 94.8523C319.364 95.0476 320.601 95.0848 322.28 95.3353C323.961 95.5863 326.085 96.0509 327.379 96.5708C328.673 97.0945 329.137 97.673 329.774 99.72C330.412 101.766 331.222 105.284 331.628 106.519C332.034 107.755 332.034 106.711 332.304 104.875C332.575 103.042 333.115 100.417 333.83 98.7942C334.545 97.172 335.433 96.5524 336.978 95.8959C338.523 95.2394 340.724 94.5427 341.052 94.2147C341.381 93.8862 339.837 93.9269 338.292 93.7719C336.747 93.6173 335.202 93.2705 334.197 92.688C333.193 92.1091 332.73 91.2976 332.304 89.3877C331.879 87.4739 331.493 84.4614 331.242 83.3219C330.991 82.1824 330.875 82.9163 330.701 83.4769C330.527 84.037 330.296 84.4246 330.142 85.6005Z" fill="#FEFEFE"/>
<path opacity="0.52" d="M248.135 258.405C265.113 258.405 278.876 257.57 278.876 256.541C278.876 255.512 265.113 254.677 248.135 254.677C231.158 254.677 217.395 255.512 217.395 256.541C217.395 257.57 231.158 258.405 248.135 258.405Z" fill="#BBC5D4"/>
<path d="M283.862 164.248C280.913 158.375 275.787 155.792 270.811 154.466C266.297 153.263 261.778 154.439 257.778 157.421C255.038 159.465 251.985 160.502 248.926 160.537C248.662 160.534 247.608 160.534 247.344 160.537C244.285 160.502 241.232 159.465 238.491 157.421C234.492 154.439 229.973 153.263 225.459 154.466C220.483 155.792 215.357 158.375 212.407 164.248C207.216 174.588 208.275 189.887 213.432 199.82C214.518 201.91 214.656 204.629 214.527 207.171C214.339 210.847 214.286 214.295 214.397 217.974C214.533 222.514 214.854 227.058 215.525 231.516C216.675 239.162 218.938 246.812 223.349 252.124C224.448 253.449 225.659 254.604 226.949 255.57C230.563 258.278 234.542 255.748 236.203 250.908C237.254 247.845 237.433 244.394 237.656 241.034C238.148 233.624 240.069 226.706 246.304 225.823C246.651 225.774 246.998 225.755 247.343 225.764C247.606 225.757 247.87 225.782 248.135 225.809C248.399 225.782 248.663 225.757 248.926 225.764C249.271 225.755 249.618 225.774 249.965 225.823C256.2 226.706 258.121 233.624 258.613 241.034C258.836 244.394 259.014 247.845 260.066 250.908C261.726 255.748 265.706 258.278 269.32 255.57C270.61 254.604 271.821 253.449 272.92 252.124C277.33 246.812 279.594 239.162 280.744 231.516C281.415 227.058 281.736 222.514 281.872 217.974C281.983 214.295 281.93 210.847 281.742 207.171C281.612 204.629 281.751 201.91 282.836 199.82C287.994 189.887 289.054 174.588 283.862 164.248Z" fill="white"/>
<path d="M277.47 240.15C272.465 242.858 266.956 240.328 264.657 235.488C263.201 232.424 262.955 228.973 262.646 225.614C261.964 218.204 259.304 211.286 250.672 210.403C250.191 210.354 249.711 210.335 249.233 210.343C248.869 210.337 248.503 210.362 248.137 210.389C247.772 210.362 247.406 210.337 247.042 210.343C246.564 210.335 246.083 210.354 245.603 210.403C236.97 211.285 234.31 218.204 233.629 225.614C233.32 228.973 233.073 232.425 231.618 235.488C229.318 240.328 223.809 242.858 218.805 240.15C218.231 239.84 217.674 239.504 217.125 239.155C218.463 244.048 220.429 248.604 223.352 252.124C224.451 253.449 225.662 254.604 226.952 255.57C230.566 258.278 234.545 255.748 236.206 250.908C237.257 247.845 237.435 244.393 237.658 241.034C238.15 233.624 240.072 226.706 246.306 225.823C246.653 225.774 247.001 225.755 247.346 225.764C247.609 225.757 247.873 225.782 248.137 225.809C248.401 225.782 248.665 225.757 248.928 225.764C249.274 225.755 249.62 225.774 249.968 225.823C256.203 226.706 258.124 233.624 258.616 241.034C258.839 244.393 259.017 247.845 260.068 250.908C261.729 255.748 265.708 258.278 269.323 255.57C270.613 254.604 271.823 253.449 272.923 252.124C275.846 248.603 277.811 244.048 279.149 239.155C278.6 239.504 278.043 239.84 277.47 240.15Z" fill="#D9E7FC"/>
<path d="M248.135 169.726C256.863 169.726 264.273 163.157 266.949 154.025C263.755 154.105 260.634 155.292 257.778 157.421C255.038 159.465 251.985 160.501 248.926 160.536C248.662 160.533 247.608 160.533 247.344 160.536C244.285 160.501 241.231 159.465 238.491 157.421C235.636 155.292 232.514 154.105 229.32 154.025C231.997 163.157 239.407 169.726 248.135 169.726Z" fill="#D9E7FC"/>
<path d="M100.297 58.7166C101.343 58.6273 102.247 58.8525 103.011 59.3924C103.785 59.9121 104.323 60.6348 104.625 61.5605C105.086 62.9717 104.972 64.2178 104.284 65.2987C103.606 66.3595 102.394 67.1747 100.649 67.7442L92.2045 70.5001L86.9453 54.3849L95.1622 51.7032C96.8011 51.1684 98.2073 51.1041 99.3808 51.5102C100.554 51.9164 101.364 52.8023 101.81 54.168C102.117 55.1088 102.126 55.9872 101.839 56.8031C101.561 57.5989 101.047 58.2367 100.297 58.7166ZM94.0486 59.018L96.0061 58.3791C96.4613 58.2306 96.7654 58.0306 96.9185 57.7791C97.0866 57.5228 97.1088 57.2049 96.985 56.8255C96.8563 56.431 96.6484 56.1798 96.3613 56.072C96.0845 55.9441 95.7185 55.9544 95.2633 56.103L93.3058 56.7418L94.0486 59.018ZM98.2343 64.0492C98.6895 63.9006 98.9961 63.7082 99.1541 63.4719C99.3223 63.2156 99.342 62.8901 99.2132 62.4956C98.9607 61.7217 98.3868 61.4808 97.4915 61.773L95.1925 62.5233L95.9354 64.7994L98.2343 64.0492Z" fill="#48179C"/>
<path d="M114.256 50.3457L114.822 52.3503L119.891 50.9176L120.979 54.7653L115.91 56.198L116.561 58.5021L122.321 56.874L123.474 60.9522L112.599 64.0259L107.988 47.7133L118.863 44.6396L120.016 48.7177L114.256 50.3457Z" fill="#48179C"/>
<path d="M136.267 57.8906C134.296 58.3671 132.557 58.3034 131.047 57.6994C129.55 57.0762 128.531 55.8856 127.991 54.1276L133.484 52.7995C133.79 53.7271 134.323 54.099 135.084 53.9152C135.363 53.8476 135.581 53.7293 135.737 53.5601C135.905 53.3717 135.955 53.1379 135.887 52.8586C135.794 52.4708 135.509 52.2111 135.034 52.0797C134.555 51.9328 133.836 51.8111 132.876 51.7146C131.731 51.5974 130.767 51.4448 129.982 51.2568C129.213 51.065 128.498 50.6879 127.836 50.1253C127.175 49.5627 126.722 48.7442 126.479 47.67C126.22 46.5995 126.272 45.6262 126.635 44.7501C127.01 43.8549 127.623 43.0988 128.476 42.4821C129.344 41.8616 130.375 41.4069 131.57 41.118C133.587 40.6303 135.298 40.7093 136.702 41.355C138.122 41.997 139.067 43.1561 139.538 44.8322L133.976 46.1772C133.848 45.7155 133.651 45.4101 133.385 45.2609C133.119 45.1118 132.831 45.0747 132.52 45.1497C132.303 45.2023 132.144 45.323 132.041 45.5119C131.936 45.6853 131.915 45.9039 131.978 46.1676C132.068 46.54 132.345 46.8015 132.809 46.9522C133.284 47.0836 134.013 47.2112 134.995 47.3349C136.128 47.4714 137.072 47.6374 137.825 47.8329C138.594 48.0247 139.304 48.3786 139.954 48.8946C140.604 49.4107 141.046 50.1496 141.278 51.1116C141.522 52.12 141.493 53.0877 141.192 54.0145C140.887 54.9258 140.316 55.7209 139.478 56.3997C138.64 57.0785 137.57 57.5754 136.267 57.8906Z" fill="#48179C"/>
<path d="M158.605 35.5779L159.431 39.7102L155.017 40.5924L157.513 53.083L152.301 54.1248L149.805 41.6342L145.438 42.507L144.612 38.3748L158.605 35.5779Z" fill="#48179C"/>
<path d="M181.617 31.8962C183.372 31.6553 184.955 31.8007 186.365 32.3322C187.791 32.8615 188.947 33.7099 189.832 34.8774C190.717 36.0449 191.27 37.4351 191.492 39.0481C191.711 40.6453 191.553 42.1332 191.017 43.5118C190.481 44.8903 189.6 46.0424 188.373 46.9679C187.161 47.8754 185.677 48.4496 183.921 48.6905L176.924 49.6507L174.619 32.8564L181.617 31.8962ZM182.802 44.0589C183.988 43.8961 184.885 43.4428 185.492 42.699C186.099 41.9552 186.32 40.9823 186.155 39.7805C185.99 38.5786 185.515 37.7012 184.73 37.1483C183.945 36.5954 182.96 36.4004 181.774 36.5631L180.517 36.7356L181.545 44.2314L182.802 44.0589Z" fill="#48179C"/>
<path d="M203.109 33.6419L203.307 35.7155L208.551 35.2134L208.932 39.1937L203.688 39.6958L203.916 42.0792L209.875 41.5087L210.279 45.7273L199.029 46.8044L197.413 29.9299L208.663 28.8528L209.067 33.0714L203.109 33.6419Z" fill="#48179C"/>
<path d="M233.013 44.3203L227.705 44.6053L221.63 36.3954L222.086 44.9069L216.779 45.1919L215.87 28.2646L221.178 27.9796L227.261 36.3329L226.796 27.678L232.104 27.393L233.013 44.3203Z" fill="#48179C"/>
<path d="M253.076 27.0528L253.118 31.2666L248.617 31.3116L248.744 44.0486L243.429 44.1018L243.302 31.3647L238.849 31.4093L238.806 27.1955L253.076 27.0528Z" fill="#48179C"/>
<path d="M270.491 41.8556L264.844 41.6655L263.92 44.1978L258.344 44.0102L265.112 27.2767L271.238 27.4828L276.842 44.6326L271.242 44.4442L270.491 41.8556ZM269.333 37.8159L267.96 33.0502L266.27 37.7128L269.333 37.8159Z" fill="#48179C"/>
<path d="M288.301 41.418L293.411 41.7996L293.111 45.8108L282.701 45.0334L283.963 28.1288L289.264 28.5246L288.301 41.418Z" fill="#48179C"/>
<path d="M309.099 38.8415C309.322 37.1804 309.853 35.7459 310.692 34.538C311.547 33.3323 312.647 32.4575 313.992 31.9136C315.34 31.3539 316.86 31.1878 318.553 31.4154C320.008 31.6111 321.268 32.0623 322.333 32.7691C323.415 33.4622 324.245 34.355 324.823 35.4473C325.417 36.5418 325.743 37.7694 325.802 39.1302L320.249 38.3837C320.071 37.796 319.764 37.3199 319.33 36.9555C318.914 36.5775 318.405 36.348 317.804 36.2672C316.918 36.1481 316.169 36.3857 315.558 36.9799C314.962 37.5763 314.589 38.4361 314.438 39.5593C314.287 40.6825 314.42 41.6103 314.837 42.3428C315.27 43.0774 315.929 43.5043 316.815 43.6234C317.416 43.7042 317.966 43.6251 318.465 43.3862C318.983 43.1336 319.405 42.7475 319.732 42.2279L325.285 42.9744C324.869 44.2713 324.23 45.3692 323.369 46.268C322.523 47.1689 321.485 47.8186 320.256 48.2171C319.045 48.6018 317.711 48.6963 316.256 48.5007C314.563 48.2731 313.14 47.7194 311.986 46.8395C310.834 45.9438 310.005 44.8016 309.499 43.4129C309.009 42.0264 308.876 40.5026 309.099 38.8415Z" fill="#48179C"/>
<path d="M337.322 47.5812L342.367 48.471L341.669 52.4323L331.388 50.6194L334.332 33.9253L339.567 34.8484L337.322 47.5812Z" fill="#48179C"/>
<path d="M356.693 38.1763L353.25 54.7746L348.045 53.6949L351.489 37.0966L356.693 38.1763Z" fill="#48179C"/>
<path d="M376.036 60.1327L370.874 58.8645L367.444 49.2445L365.41 57.5221L360.248 56.2539L364.293 39.7918L369.455 41.0599L372.851 50.8194L374.919 42.4024L380.081 43.6705L376.036 60.1327Z" fill="#48179C"/>
<path d="M392.465 47.1511L387.824 63.4553L382.712 62.0003L387.352 45.6961L392.465 47.1511Z" fill="#48179C"/>
<path d="M396.864 57.2064C397.381 55.6121 398.161 54.2959 399.202 53.2577C400.259 52.2244 401.498 51.5607 402.919 51.2665C404.345 50.9571 405.87 51.0659 407.495 51.5928C408.892 52.0458 410.05 52.7154 410.971 53.6014C411.912 54.4771 412.569 55.504 412.942 56.6822C413.33 57.8653 413.432 59.1315 413.246 60.4807L407.916 58.7522C407.846 58.142 407.629 57.6188 407.267 57.1825C406.926 56.7361 406.466 56.4193 405.889 56.2321C405.039 55.9563 404.26 56.056 403.552 56.5312C402.859 57.0114 402.338 57.7904 401.989 58.8684C401.639 59.9465 401.604 60.8831 401.883 61.6784C402.177 62.4786 402.749 63.0166 403.599 63.2924C404.176 63.4795 404.732 63.5003 405.266 63.3546C405.82 63.1987 406.304 62.8944 406.72 62.4418L412.049 64.1703C411.408 65.3718 410.582 66.3376 409.574 67.0676C408.58 67.8026 407.443 68.256 406.162 68.4279C404.902 68.5896 403.573 68.4439 402.176 67.9908C400.552 67.4639 399.25 66.6643 398.272 65.592C397.299 64.5045 396.688 63.2324 396.439 61.7756C396.205 60.3237 396.347 58.8006 396.864 57.2064Z" fill="#48179C"/>
</svg>
