<svg width="623" height="390" viewBox="0 0 623 390" fill="none" xmlns="http://www.w3.org/2000/svg">
<path d="M183.35 81.5708C180.334 99.0342 178.166 116.856 171.525 133.286C159.185 163.822 132.66 186.606 118.359 216.274C95.6184 263.451 110.131 325.575 151.421 357.794C163.641 367.33 177.701 374.338 192.317 379.501C244.767 398.031 301.605 390.955 351.682 366.735C401.76 342.515 440.852 300.716 467.702 251.999C490.027 211.492 504.498 161.782 494.364 121.601C490.673 106.965 479.418 92.4151 467.249 83.483C445.54 67.5476 416.205 69.2246 389.498 65.7592C364.698 62.5416 344.446 57.3856 322.891 44.7075C299.761 31.1043 286.692 4.2443 259.329 0.4131C248.256 -1.13718 234.627 1.74178 224.823 7.94292C213.735 14.9569 202.694 26.4718 196.467 38.0748C189.25 51.526 185.927 66.6495 183.35 81.5708Z" fill="#D1E1F8"/>
<path d="M429.599 325.8C422.354 331.448 414.92 337.313 410.415 345.32C405.911 353.326 405.035 364.107 410.782 371.273C416.248 378.086 425.82 379.8 434.54 380.304C443.342 380.813 452.188 380.574 460.951 379.595C474.937 378.031 489.869 373.829 498.216 362.498C503.185 355.751 505.182 347.23 505.742 338.869C506.513 327.363 504.499 315.104 497.156 306.213C490.598 298.273 482.909 294.339 472.966 295.611C469.289 296.081 464.695 298.495 461.763 300.733C456.728 304.578 451.765 308.521 446.77 312.416C441.046 316.875 435.323 321.338 429.599 325.8Z" fill="#D1E1F8"/>
<path d="M488.434 158.14H519.759" stroke="#324969" stroke-width="0.967718" stroke-miterlimit="10" stroke-linecap="round" stroke-linejoin="round"/>
<path d="M475.842 162.983H507.168" stroke="#324969" stroke-width="0.967718" stroke-miterlimit="10" stroke-linecap="round" stroke-linejoin="round"/>
<path d="M318.535 94.0262H342.592" stroke="#324969" stroke-width="0.967718" stroke-miterlimit="10" stroke-linecap="round" stroke-linejoin="round"/>
<path d="M140.223 264.397H205.407" stroke="#324969" stroke-width="0.967718" stroke-miterlimit="10" stroke-linecap="round" stroke-linejoin="round"/>
<path d="M123.404 268.919H188.589" stroke="#324969" stroke-width="0.967718" stroke-miterlimit="10" stroke-linecap="round" stroke-linejoin="round"/>
<path d="M103 291.656H145.145" stroke="#324969" stroke-width="0.967718" stroke-miterlimit="10" stroke-linecap="round" stroke-linejoin="round"/>
<path d="M131.693 178.297H158.991" stroke="#324969" stroke-width="0.967718" stroke-miterlimit="10" stroke-linecap="round" stroke-linejoin="round"/>
<path d="M271.16 359.319H294.5" stroke="#324969" stroke-width="0.967718" stroke-miterlimit="10" stroke-linecap="round" stroke-linejoin="round"/>
<path opacity="0.57" d="M153.654 230.061C153.654 228.529 152.413 227.288 150.881 227.288C149.349 227.288 148.107 228.529 148.107 230.061C148.107 231.593 149.349 232.835 150.881 232.835C152.413 232.835 153.654 231.593 153.654 230.061Z" fill="#D1E1F8"/>
<path opacity="0.57" d="M405.027 260.635C405.027 259.103 403.786 257.862 402.254 257.862C400.722 257.862 399.48 259.103 399.48 260.635C399.48 262.167 400.722 263.409 402.254 263.409C403.786 263.408 405.027 262.166 405.027 260.635Z" fill="#D1E1F8"/>
<path opacity="0.57" d="M327.102 68.8269C327.102 67.295 325.86 66.0534 324.328 66.0534C322.796 66.0534 321.555 67.295 321.555 68.8269C321.555 70.3588 322.796 71.6003 324.328 71.6003C325.86 71.5994 327.102 70.3578 327.102 68.8269Z" fill="#D1E1F8"/>
<path d="M352.966 34.3054C354.786 34.3054 356.262 32.8298 356.262 31.0094C356.262 29.189 354.786 27.7133 352.966 27.7133C351.146 27.7133 349.67 29.189 349.67 31.0094C349.67 32.8298 351.146 34.3054 352.966 34.3054Z" stroke="#324969" stroke-width="0.967718" stroke-miterlimit="10"/>
<path d="M203.353 143.316C204.55 143.316 205.521 142.345 205.521 141.148C205.521 139.951 204.55 138.981 203.353 138.981C202.156 138.981 201.186 139.951 201.186 141.148C201.186 142.345 202.156 143.316 203.353 143.316Z" stroke="#324969" stroke-width="0.967718" stroke-miterlimit="10"/>
<path d="M347.126 381.907C347.126 380.71 346.156 379.739 344.959 379.739C343.762 379.739 342.791 380.71 342.791 381.907C342.791 383.104 343.762 384.075 344.959 384.075C346.156 384.074 347.126 383.104 347.126 381.907Z" stroke="#324969" stroke-width="0.967718" stroke-miterlimit="10"/>
<path d="M122.039 122.628C123.236 122.628 124.206 121.658 124.206 120.46C124.206 119.263 123.236 118.293 122.039 118.293C120.842 118.293 119.871 119.263 119.871 120.46C119.871 121.658 120.842 122.628 122.039 122.628Z" stroke="#324969" stroke-width="0.967718" stroke-miterlimit="10"/>
<path d="M187.832 351.26C190.01 351.26 191.776 349.495 191.776 347.317C191.776 345.139 190.01 343.373 187.832 343.373C185.654 343.373 183.889 345.139 183.889 347.317C183.889 349.495 185.654 351.26 187.832 351.26Z" stroke="#324969" stroke-width="0.967718" stroke-miterlimit="10"/>
<path d="M210.093 353.19C210.093 351.993 209.123 351.022 207.926 351.022C206.728 351.022 205.758 351.993 205.758 353.19C205.758 354.387 206.728 355.358 207.926 355.358C209.123 355.358 210.093 354.387 210.093 353.19Z" stroke="#324969" stroke-width="0.967718" stroke-miterlimit="10"/>
<path d="M506.867 88.037C508.064 88.037 509.035 87.0665 509.035 85.8693C509.035 84.6722 508.064 83.7017 506.867 83.7017C505.67 83.7017 504.699 84.6722 504.699 85.8693C504.699 87.0665 505.67 88.037 506.867 88.037Z" stroke="#324969" stroke-width="0.967718" stroke-miterlimit="10"/>
<path d="M493.387 75.5428C495.565 75.5428 497.33 73.7773 497.33 71.5994C497.33 69.4215 495.565 67.6559 493.387 67.6559C491.209 67.6559 489.443 69.4215 489.443 71.5994C489.443 73.7773 491.209 75.5428 493.387 75.5428Z" stroke="#324969" stroke-width="0.967718" stroke-miterlimit="10"/>
<path d="M201.514 121.574L205.581 117.507" stroke="#324969" stroke-width="0.967718" stroke-miterlimit="10" stroke-linecap="round" stroke-linejoin="round"/>
<path d="M211.266 111.823L215.333 107.755" stroke="#324969" stroke-width="0.967718" stroke-miterlimit="10" stroke-linecap="round" stroke-linejoin="round"/>
<path d="M215.333 121.574L211.266 117.507" stroke="#324969" stroke-width="0.967718" stroke-miterlimit="10" stroke-linecap="round" stroke-linejoin="round"/>
<path d="M205.581 111.823L201.514 107.755" stroke="#324969" stroke-width="0.967718" stroke-miterlimit="10" stroke-linecap="round" stroke-linejoin="round"/>
<path d="M385.473 282.823L388.853 279.443" stroke="#324969" stroke-width="0.967718" stroke-miterlimit="10" stroke-linecap="round" stroke-linejoin="round"/>
<path d="M393.58 274.717L396.961 271.336" stroke="#324969" stroke-width="0.967718" stroke-miterlimit="10" stroke-linecap="round" stroke-linejoin="round"/>
<path d="M396.961 282.823L393.58 279.443" stroke="#324969" stroke-width="0.967718" stroke-miterlimit="10" stroke-linecap="round" stroke-linejoin="round"/>
<path d="M388.853 274.717L385.473 271.336" stroke="#324969" stroke-width="0.967718" stroke-miterlimit="10" stroke-linecap="round" stroke-linejoin="round"/>
<path opacity="0.57" d="M307.745 324.693C351.161 324.693 386.356 321.521 386.356 317.608C386.356 313.695 351.161 310.523 307.745 310.523C264.33 310.523 229.135 313.695 229.135 317.608C229.135 321.521 264.33 324.693 307.745 324.693Z" fill="#D1E1F8"/>
<path d="M159.45 142.791L150.237 123.246C149.569 121.83 148.961 121.345 148.453 121.057L132.752 112.133L135.563 107.185L151.264 116.109C153.034 117.114 154.343 118.611 155.384 120.819L164.598 140.364L159.45 142.791Z" fill="#324969"/>
<path d="M157.673 140.703C156.237 141.377 155.618 143.087 156.292 144.524L231.152 304.473C231.999 306.281 233.601 307.493 235.406 307.911C236.724 308.217 238.15 308.099 239.471 307.48C242.599 306.014 243.945 302.288 242.478 299.16L167.618 139.21C166.945 137.774 165.234 137.156 163.798 137.829L157.673 140.703Z" fill="#CB785C"/>
<path d="M162.605 87.1293C164.22 71.4884 155.219 57.7445 142.501 56.4314C129.783 55.1183 118.164 66.7333 116.549 82.3742C114.934 98.0151 123.935 111.759 136.653 113.072C149.371 114.385 160.99 102.77 162.605 87.1293Z" fill="#7BA2D2"/>
<path d="M167.125 87.5964C168.739 71.9555 159.739 58.2116 147.021 56.8985C134.303 55.5854 122.683 67.2004 121.069 82.8412C119.454 98.4821 128.455 112.226 141.173 113.539C153.891 114.852 165.51 103.237 167.125 87.5964Z" fill="#DAE7F9"/>
<path opacity="0.8" d="M129.621 89.627L146.013 104.653" stroke="#D1E1F8" stroke-width="0.967718" stroke-miterlimit="10" stroke-linecap="round" stroke-linejoin="round"/>
<path opacity="0.8" d="M128.26 80.8672L144.652 95.893" stroke="#D1E1F8" stroke-width="0.967718" stroke-miterlimit="10" stroke-linecap="round" stroke-linejoin="round"/>
<path d="M472.596 242.74H342.848C339.218 242.74 336.275 239.798 336.275 236.168V52.3166C336.275 48.6867 339.218 45.7439 342.848 45.7439H472.597C476.227 45.7439 479.17 48.6867 479.17 52.3166V236.168C479.169 239.798 476.226 242.74 472.596 242.74Z" fill="#CB785C"/>
<path d="M465.535 229.109L465.535 59.3777L349.906 59.3777V229.109L465.535 229.109Z" fill="white"/>
<path d="M455.313 77.877H360.129V84.5649H455.313V77.877Z" fill="#D1E1F8"/>
<path d="M407.721 90.5231H360.129V97.1075H407.721V90.5231Z" fill="#D1E1F8"/>
<path d="M407.721 100.856H360.129V107.441H407.721V100.856Z" fill="#D1E1F8"/>
<path d="M407.721 111.191H360.129V117.775H407.721V111.191Z" fill="#D1E1F8"/>
<path d="M407.721 121.524H360.129V128.108H407.721V121.524Z" fill="#D1E1F8"/>
<path d="M407.721 131.857H360.129V138.442H407.721V131.857Z" fill="#D1E1F8"/>
<path d="M407.721 142.191H360.129V148.775H407.721V142.191Z" fill="#D1E1F8"/>
<path d="M407.721 152.525H360.129V159.109H407.721V152.525Z" fill="#D1E1F8"/>
<path d="M454.493 90.5231H414.934V159.108H454.493V90.5231Z" fill="#EDCAB8"/>
<path d="M454.492 165.157H360.129V217.803H454.492V165.157Z" fill="#D1E1F8"/>
<path d="M446.05 66.0795H369.391V47.628C369.391 43.0256 373.121 39.295 377.724 39.295H437.717C442.32 39.295 446.05 43.0256 446.05 47.628V66.0795Z" fill="#324969"/>
<path d="M407.265 17.503C400.588 17.503 395.176 23.1196 395.176 30.0485V48.7835H419.354V30.0485C419.353 23.1196 413.941 17.503 407.265 17.503ZM407.265 31.3965C405.609 31.3965 404.267 30.0543 404.267 28.3985C404.267 26.7427 405.609 25.4005 407.265 25.4005C408.92 25.4005 410.263 26.7427 410.263 28.3985C410.262 30.0543 408.919 31.3965 407.265 31.3965Z" fill="#324969"/>
<path d="M304.549 121.861C296.797 121.861 292.29 120.139 280.67 114.761C269.051 109.382 258.902 109.714 258.902 109.714C235.008 109.714 217.413 126.81 214.974 152.979C214.974 152.979 212.088 175.106 226.772 225.57C242.049 278.07 244.38 288.182 257 299.662C259.816 301.959 263.412 303.336 267.329 303.336C272.344 303.336 276.831 301.079 279.831 297.525C279.831 297.525 284.866 291.625 289.277 276.671C293.617 261.955 296.726 248.162 304.549 248.162C312.372 248.162 315.479 261.955 319.82 276.671C324.231 291.626 329.266 297.525 329.266 297.525C332.266 301.078 336.753 303.336 341.768 303.336C345.686 303.336 349.282 301.959 352.098 299.662C364.718 288.182 367.049 278.07 382.325 225.57C397.009 175.107 394.124 152.979 394.124 152.979C391.685 126.81 374.09 109.714 350.195 109.714C350.195 109.714 340.046 109.382 328.427 114.761C316.808 120.14 312.3 121.861 304.549 121.861Z" fill="white"/>
<g opacity="0.45">
<path d="M259.142 285.013C241.733 238.023 229.215 185.207 227.311 152.844C226.491 138.899 230.172 124.752 236.162 115.875C224.398 123.063 216.544 136.136 214.976 152.978C214.976 152.978 212.09 175.105 226.774 225.569C242.051 278.069 244.382 288.181 257.002 299.661C259.818 301.958 263.414 303.335 267.331 303.335C271.4 303.335 275.105 301.832 277.967 299.374C265.765 300.574 259.142 285.013 259.142 285.013Z" fill="#D1E1F8"/>
</g>
<path opacity="0.45" d="M323.391 128.839C334.606 128.839 340.849 124.397 350.241 121.646C359.289 118.995 371.273 118.64 380.339 121.67C372.635 114.042 362.214 109.714 350.196 109.714C350.196 109.714 340.046 109.382 328.428 114.761C316.809 120.14 312.301 121.861 304.55 121.861C299.415 121.861 295.693 121.096 290.393 119.022C304.162 129.517 323.391 128.839 323.391 128.839Z" fill="#D1E1F8"/>
<path d="M346.508 122.868C341.823 125.777 336.523 127.712 331.077 128.823C328.352 129.395 325.572 129.705 322.784 129.844C319.992 129.948 317.192 129.809 314.416 129.482C308.866 128.786 303.441 127.132 298.449 124.67C293.453 122.203 288.895 118.945 284.908 115.152C289.378 118.367 294.117 121.123 299.08 123.299C301.588 124.325 304.112 125.312 306.731 125.976C309.331 126.698 311.976 127.263 314.658 127.563C320.005 128.266 325.454 128.144 330.815 127.342C333.494 126.933 336.161 126.377 338.781 125.624C341.416 124.913 343.995 123.988 346.508 122.868Z" fill="#7BA2D2"/>
<path opacity="0.45" d="M371.069 159.975C372.481 164.008 372.251 168.4 372.674 172.651C372.809 174.01 373.082 175.493 374.135 176.364C374.818 176.929 375.735 177.14 376.621 177.162C379.356 177.23 381.941 175.63 383.605 173.459C385.269 171.289 386.575 168.385 387.128 165.706C388.234 160.345 388.256 155.279 387.128 149.924C386.386 146.407 384.599 142.497 381.83 140.062C379.215 137.761 375.67 136.75 372.233 137.228C366.289 138.055 363.708 143.106 365.463 148.644C366.746 152.692 369.668 155.974 371.069 159.975Z" fill="#D1E1F8"/>
<path d="M308.784 122.251C301.034 122.251 296.526 120.529 284.909 115.152C273.291 109.773 263.143 110.105 263.143 110.105C239.251 110.105 221.658 127.199 219.22 153.365C219.22 153.365 216.334 175.49 231.016 225.948C246.291 278.441 248.622 288.552 261.24 300.03C264.056 302.328 267.651 303.705 271.569 303.705C276.582 303.705 281.07 301.448 284.07 297.894C284.07 297.894 289.104 291.995 293.515 277.043C297.855 262.329 300.962 248.537 308.784 248.537C316.606 248.537 319.714 262.328 324.054 277.043C328.464 291.995 333.498 297.894 333.498 297.894C336.498 301.448 340.984 303.705 345.999 303.705C349.916 303.705 353.511 302.328 356.327 300.03C368.945 288.552 371.277 278.441 386.551 225.948C401.233 175.49 398.348 153.365 398.348 153.365C395.909 127.199 378.316 110.105 354.425 110.105C354.425 110.105 344.276 109.773 332.659 115.152C321.041 120.53 316.534 122.251 308.784 122.251Z" stroke="#324969" stroke-width="0.967718" stroke-miterlimit="10"/>
<path d="M243.156 235.371H163.539V259.876H243.156V235.371Z" fill="#324969"/>
<path d="M187.967 244.663C188.591 246.311 190.171 247.402 191.933 247.402H214.761C216.525 247.402 218.103 246.311 218.727 244.663L221.229 238.059H243.155V228.628C243.155 223.179 238.738 218.761 233.288 218.761H173.404C167.955 218.761 163.537 223.179 163.537 228.628V238.059H185.464L187.967 244.663Z" fill="#7BA2D2"/>
<path d="M221.231 249.504L218.729 256.108C218.105 257.757 216.526 258.847 214.763 258.847H191.935C190.172 258.847 188.593 257.756 187.969 256.108L185.468 249.504H163.541V328.923C163.541 331.844 165.909 334.212 168.83 334.212H237.87C240.791 334.212 243.159 331.844 243.159 328.923V249.504H221.231Z" fill="#7BA2D2"/>
<path d="M203.347 280.915C202.136 280.915 201.431 280.646 199.616 279.805C197.799 278.964 196.213 279.016 196.213 279.016C192.479 279.016 189.729 281.688 189.348 285.778C189.348 285.778 188.897 289.235 191.192 297.122C193.579 305.328 193.944 306.908 195.916 308.702C196.357 309.061 196.919 309.277 197.53 309.277C198.314 309.277 199.016 308.924 199.484 308.368C199.484 308.368 200.271 307.446 200.96 305.109C201.638 302.809 202.124 300.653 203.346 300.653C204.569 300.653 205.054 302.81 205.733 305.109C206.422 307.446 207.21 308.368 207.21 308.368C207.678 308.924 208.38 309.277 209.163 309.277C209.776 309.277 210.337 309.061 210.778 308.702C212.75 306.908 213.115 305.328 215.502 297.122C217.796 289.235 217.345 285.778 217.345 285.778C216.964 281.688 214.215 279.016 210.48 279.016C210.48 279.016 208.894 278.964 207.079 279.805C205.264 280.646 204.559 280.915 203.347 280.915Z" fill="white"/>
<path opacity="0.4" d="M190.142 334.212H168.828C165.907 334.212 163.539 331.844 163.539 328.923V259.876V249.504V238.06V235.371V228.629C163.539 223.18 167.957 218.762 173.406 218.762C173.406 218.762 169.981 323.015 190.142 334.212Z" fill="#7BA2D2"/>
<path d="M229.738 249.806C241.506 232.599 258.7 219.275 277.304 214.291C295.21 209.495 318.258 211.547 330.17 225.751C341.176 238.875 340.325 258.434 334.845 274.662C329.365 290.891 319.972 305.653 315.258 322.119C312.329 332.355 312.006 345.08 320.252 351.816C329.326 359.228 343.208 354.842 352.535 347.751C361.863 340.66 368.387 330.894 379.493 327.159C381.516 326.479 384.957 326.134 387.087 327.052C390.377 328.469 391.594 332.554 391.75 335.796C392.034 341.716 390.508 347.296 388.64 352.919C387.375 356.723 385.625 360.414 385.107 364.388C384.59 368.364 385.596 372.862 388.843 375.212C393.9 378.875 400.972 375.574 405.912 371.755C429.94 353.177 443.26 321.626 439.815 291.45C436.549 262.845 414.931 227.968 385.818 218.762" stroke="#CB785C" stroke-width="0.725789" stroke-miterlimit="10"/>
<path d="M285.666 85.8693H231.052C226.61 85.8693 223.008 82.2675 223.008 77.8247V58.0426C223.008 53.5998 226.61 49.998 231.052 49.998H285.666C290.109 49.998 293.711 53.5998 293.711 58.0426V77.8247C293.71 82.2675 290.108 85.8693 285.666 85.8693Z" fill="#CB785C"/>
<path d="M271.523 85.8693C271.523 85.8693 271.523 91.7753 276.905 91.7753C276.905 91.7753 274.015 88.6854 276.905 85.8693H271.523Z" fill="#CB785C"/>
<path d="M259.981 68.8269H193.519C188.112 68.8269 183.729 64.4431 183.729 59.0364V34.9625C183.729 29.5549 188.112 25.1721 193.519 25.1721H259.981C265.388 25.1721 269.771 29.5559 269.771 34.9625V59.0355C269.771 64.4431 265.387 68.8269 259.981 68.8269Z" fill="#7BA2D2"/>
<path d="M242.77 68.8268C242.77 68.8268 242.77 76.0141 249.319 76.0141C249.319 76.0141 245.802 72.2545 249.319 68.8268H242.77Z" fill="#7BA2D2"/>
<path d="M231.384 46.999C231.384 44.4404 229.309 42.3656 226.751 42.3656C224.192 42.3656 222.117 44.4404 222.117 46.999C222.117 49.5577 224.192 51.6324 226.751 51.6324C229.309 51.6324 231.384 49.5586 231.384 46.999Z" fill="white"/>
<path d="M212.558 46.999C212.558 44.4404 210.483 42.3656 207.924 42.3656C205.366 42.3656 203.291 44.4404 203.291 46.999C203.291 49.5577 205.366 51.6324 207.924 51.6324C210.484 51.6324 212.558 49.5586 212.558 46.999Z" fill="white"/>
<path d="M250.21 46.999C250.21 44.4404 248.135 42.3656 245.577 42.3656C243.018 42.3656 240.943 44.4404 240.943 46.999C240.943 49.5577 243.018 51.6324 245.577 51.6324C248.135 51.6324 250.21 49.5586 250.21 46.999Z" fill="white"/>
<path d="M263.075 27.2353H196.613C191.206 27.2353 186.822 31.6191 186.822 37.0257V61.0987C186.822 66.5063 191.206 70.8891 196.613 70.8891H245.863C245.863 70.8891 245.863 78.0763 252.412 78.0763C252.412 78.0763 248.896 74.3167 252.412 70.8891H263.076C268.483 70.8891 272.866 66.5053 272.866 61.0987V37.0267C272.866 31.6191 268.482 27.2353 263.075 27.2353Z" stroke="#324969" stroke-width="0.967718" stroke-miterlimit="10"/>
</svg>
