<svg width="64" height="64" viewBox="0 0 64 64" fill="none" xmlns="http://www.w3.org/2000/svg">
<rect width="64" height="64" rx="32" fill="url(#paint0_linear_212_12207)"/>
<path d="M44.1497 20.7498C40.0165 20.7498 36.3062 20.0005 32.9582 16.6458C32.7051 16.393 32.362 16.251 32.0042 16.251C31.6465 16.251 31.3033 16.393 31.0502 16.6458C27.6932 20.0005 23.9807 20.7498 19.852 20.7498C19.4939 20.7498 19.1505 20.892 18.8974 21.1452C18.6442 21.3984 18.502 21.7417 18.502 22.0998V30.2043C18.502 38.8938 22.9345 44.8 31.5745 47.6823C31.8519 47.7749 32.152 47.7749 32.4295 47.6823C41.0717 44.8023 45.502 38.8938 45.502 30.2043V22.0998C45.502 21.355 44.8945 20.7498 44.1497 20.7498ZM43.2497 30.202C43.2497 37.843 39.5687 42.8335 31.9997 45.448C24.4307 42.8335 20.7497 37.843 20.7497 30.202V22.9885C24.3025 22.9008 28.2917 22.2033 32.002 18.8418C35.7055 22.201 39.697 22.8985 43.2497 22.9885V30.202ZM30.8725 33.784L36.826 27.8305C36.9306 27.7259 37.0547 27.643 37.1914 27.5864C37.3281 27.5298 37.4745 27.5006 37.6225 27.5006C37.7704 27.5006 37.9169 27.5298 38.0535 27.5864C38.1902 27.643 38.3144 27.7259 38.419 27.8305C38.5235 27.9351 38.6065 28.0593 38.6631 28.196C38.7197 28.3326 38.7489 28.4791 38.7489 28.627C38.7489 28.775 38.7197 28.9214 38.6631 29.0581C38.6065 29.1948 38.5235 29.3189 38.419 29.4235L31.669 36.1735C31.5645 36.2783 31.4403 36.3614 31.3036 36.4181C31.167 36.4749 31.0204 36.504 30.8725 36.504C30.7245 36.504 30.578 36.4749 30.4413 36.4181C30.3046 36.3614 30.1805 36.2783 30.076 36.1735L26.701 32.7985C26.4897 32.5873 26.371 32.3008 26.371 32.002C26.371 31.7033 26.4897 31.4168 26.701 31.2055C26.9122 30.9943 27.1987 30.8756 27.4975 30.8756C27.7962 30.8756 28.0827 30.9943 28.294 31.2055L30.8725 33.784Z" fill="white"/>
<defs>
<linearGradient id="paint0_linear_212_12207" x1="64" y1="7.62939e-06" x2="7.62939e-06" y2="64" gradientUnits="userSpaceOnUse">
<stop stopColor="#F65A75"/>
<stop offset="1" stopColor="#48179C"/>
</linearGradient>
</defs>
</svg>
