<svg width="64" height="64" viewBox="0 0 64 64" fill="none" xmlns="http://www.w3.org/2000/svg">
<rect width="64" height="64" rx="32" fill="url(#paint0_linear_165_5245)"/>
<path fill-rule="evenodd" clip-rule="evenodd" d="M35.3391 26.3901L36.4439 26.8495L37.3596 26.1323C37.533 25.9979 37.7831 26.0104 37.9393 26.1666L39.4223 27.6496C39.5895 27.8168 39.5942 28.0871 39.4332 28.259L38.7394 29.145L39.1988 30.2498L40.3504 30.3904C40.5739 30.417 40.738 30.606 40.738 30.8264V32.9234C40.738 33.1547 40.5598 33.3438 40.3317 33.361L39.1972 33.4985L38.7378 34.6033L39.4551 35.519C39.5895 35.6924 39.577 35.9425 39.4207 36.0987L37.9378 37.5817C37.7706 37.7489 37.5002 37.7536 37.3284 37.5926L36.4424 36.8988L35.3376 37.3582L35.197 38.5098C35.1704 38.7333 34.9813 38.8974 34.761 38.8974H32.6639C32.4327 38.8974 32.2436 38.7192 32.2264 38.4911L32.0889 37.3566L30.9841 36.8972L30.0684 37.6145C29.8949 37.7489 29.6449 37.7364 29.4886 37.5801L28.0057 36.0972C27.8385 35.93 27.8338 35.6596 27.9948 35.4878L28.6886 34.6018L28.2292 33.497L27.0775 33.3564C26.8541 33.3298 26.69 33.1407 26.69 32.9204V30.8233C26.69 30.5921 26.8681 30.403 27.0963 30.3858L28.2307 30.2483L28.6901 29.1435L27.9729 28.2278C27.8385 28.0543 27.851 27.8043 28.0072 27.648L29.4902 26.1651C29.6574 25.9979 29.9277 25.9932 30.0996 26.1542L30.9856 26.848L32.0904 26.3886L32.231 25.2369C32.2576 25.0135 32.4466 24.8494 32.667 24.8494H34.764C34.9953 24.8494 35.1844 25.0275 35.2016 25.2557L35.3391 26.3901ZM35.5672 27.3996C34.4031 26.9167 34.589 27.4886 34.3749 25.7291H33.0545C32.8404 27.4839 33.0326 26.9151 31.8622 27.3996C30.6824 27.8887 31.2199 28.145 29.8354 27.0605L28.8994 27.9965C30.2464 29.7169 29.5011 28.6543 29.0026 30.7514C28.8994 31.1811 28.2525 31.1311 27.5665 31.2155V32.536C29.3558 32.7532 28.7385 32.5688 29.237 33.7283C29.7402 34.8971 29.9636 34.394 28.8979 35.755L29.8339 36.691C31.5544 35.344 30.4933 36.0894 32.5888 36.5879C33.0186 36.691 32.9686 37.338 33.053 38.0239H34.3734C34.5906 36.2347 34.4062 36.8519 35.5657 36.3535C36.7346 35.8503 36.2314 35.6268 37.5924 36.691L38.5284 35.755C37.1814 34.0345 37.9268 35.0971 38.4253 33.0001C38.5284 32.5703 39.1754 32.6203 39.8614 32.5359V31.2155C38.0721 30.9983 38.6894 31.1827 38.1909 30.0232C37.6877 28.8543 37.4643 29.3575 38.5284 27.9965L37.5924 27.0604C36.2111 28.1418 36.7486 27.8902 35.5657 27.3995L35.5672 27.3996ZM33.7155 28.6919C31.9576 28.6919 30.5324 30.117 30.5324 31.875C30.5324 34.7018 33.9655 36.1253 35.9657 34.1252C37.9659 32.125 36.5423 28.6919 33.7155 28.6919ZM35.3453 30.2451C33.8968 28.7966 31.4106 29.8279 31.4106 31.875C31.4106 33.922 33.8968 34.9534 35.3453 33.5048C36.2454 32.6047 36.2454 31.1452 35.3453 30.2451ZM16 18.5877V46.5122C16 48.4343 17.7689 49.9984 19.8457 49.9984L47.4638 50C47.706 50 47.9029 49.8031 47.9029 49.5609V16.7815C47.9029 16.5393 47.706 16.3424 47.4638 16.3424H44.0775V14.4391C44.0775 14.1969 43.8806 14 43.6384 14H19.8567C16.9595 14 16.0001 15.9314 16.0001 18.5896L16 18.5877ZM16.8782 18.5877C16.8782 17.4079 17.072 16.4578 17.5455 15.8218C18.1393 15.0248 18.9925 14.8764 20.1832 14.8764V43.0181C18.8784 43.0181 17.7939 43.2869 16.8782 44.312L16.8782 18.5877ZM17.6924 48.2888C18.2752 48.8435 19.0472 49.1201 19.8472 49.1201H47.0261L47.0245 17.2204H44.0774V43.4588C44.0774 43.7119 43.882 43.9026 43.5992 43.8963L19.8551 43.8979C17.3611 43.8979 15.8531 46.5434 17.6892 48.2919L17.6924 48.2888ZM43.201 14.8778H40.0976L40.0961 21.1407C40.0961 21.5283 39.6257 21.7267 39.3491 21.4517L36.6239 18.7358L33.9221 21.4282C33.6236 21.7486 33.1501 21.522 33.1501 21.1407L33.1517 14.8778H24.2305V43.0195H43.201L43.201 14.8778ZM39.2194 14.8778V20.0846L36.9333 17.8063C36.763 17.636 36.4864 17.636 36.3161 17.8063L34.0299 20.0846V14.8778H39.2194ZM23.354 14.8778V43.0195H21.0632L21.0616 14.8778H23.354ZM20.099 46.0698H43.6216V46.948H20.0974V46.0698H20.099Z" fill="white"/>
<defs>
<linearGradient id="paint0_linear_165_5245" x1="64" y1="7.62939e-06" x2="7.62939e-06" y2="64" gradientUnits="userSpaceOnUse">
<stop stop-color="#F65A75"/>
<stop offset="1" stop-color="#48179C"/>
</linearGradient>
</defs>
</svg>
