<svg width="64" height="64" viewBox="0 0 64 64" fill="none" xmlns="http://www.w3.org/2000/svg">
<rect width="64" height="64" rx="32" fill="url(#paint0_linear_179_18379)"/>
<path d="M42.5 20H39.5V18.5C39.5 18.1022 39.342 17.7206 39.0607 17.4393C38.7794 17.158 38.3978 17 38 17C37.6022 17 37.2206 17.158 36.9393 17.4393C36.658 17.7206 36.5 18.1022 36.5 18.5V20H27.5V18.5C27.5 18.1022 27.342 17.7206 27.0607 17.4393C26.7794 17.158 26.3978 17 26 17C25.6022 17 25.2206 17.158 24.9393 17.4393C24.658 17.7206 24.5 18.1022 24.5 18.5V20H21.5C20.3065 20 19.1619 20.4741 18.318 21.318C17.4741 22.1619 17 23.3065 17 24.5V42.5C17 43.6935 17.4741 44.8381 18.318 45.682C19.1619 46.5259 20.3065 47 21.5 47H42.5C43.6935 47 44.8381 46.5259 45.682 45.682C46.5259 44.8381 47 43.6935 47 42.5V24.5C47 23.3065 46.5259 22.1619 45.682 21.318C44.8381 20.4741 43.6935 20 42.5 20ZM44 42.5C44 42.8978 43.842 43.2794 43.5607 43.5607C43.2794 43.842 42.8978 44 42.5 44H21.5C21.1022 44 20.7206 43.842 20.4393 43.5607C20.158 43.2794 20 42.8978 20 42.5V32H44V42.5ZM44 29H20V24.5C20 24.1022 20.158 23.7206 20.4393 23.4393C20.7206 23.158 21.1022 23 21.5 23H24.5V24.5C24.5 24.8978 24.658 25.2794 24.9393 25.5607C25.2206 25.842 25.6022 26 26 26C26.3978 26 26.7794 25.842 27.0607 25.5607C27.342 25.2794 27.5 24.8978 27.5 24.5V23H36.5V24.5C36.5 24.8978 36.658 25.2794 36.9393 25.5607C37.2206 25.842 37.6022 26 38 26C38.3978 26 38.7794 25.842 39.0607 25.5607C39.342 25.2794 39.5 24.8978 39.5 24.5V23H42.5C42.8978 23 43.2794 23.158 43.5607 23.4393C43.842 23.7206 44 24.1022 44 24.5V29Z" fill="white"/>
<defs>
<linearGradient id="paint0_linear_179_18379" x1="64" y1="7.62939e-06" x2="7.62939e-06" y2="64" gradientUnits="userSpaceOnUse">
<stop stop-color="#F65A75"/>
<stop offset="1" stop-color="#48179C"/>
</linearGradient>
</defs>
</svg>
