<svg width="64" height="64" viewBox="0 0 64 64" fill="none" xmlns="http://www.w3.org/2000/svg">
<rect width="64" height="64" rx="32" fill="url(#paint0_linear_165_5249)"/>
<path d="M48.701 19.0001H19.5744C18.859 19.0001 18.2754 19.582 18.2754 20.2974V32.1781C17.0765 34.2364 17.0765 36.8008 18.2754 38.8614V38.958L14.7317 42.1238C14.2799 42.5281 14.0145 43.0977 14.0004 43.6865C13.9899 44.2068 14.1727 44.6796 14.5154 45.0136C14.8459 45.3441 15.2994 45.5234 15.8004 45.5234C15.8197 45.5234 15.8391 45.5234 15.8584 45.5216C16.4438 45.5058 17.0063 45.2421 17.4053 44.7957L18.2754 43.8254V44.2314C18.2754 44.9486 18.859 45.5304 19.5744 45.5304H48.701C49.4164 45.5304 50 44.9486 50 44.2314V20.2972C50 19.5818 49.4164 19.0001 48.701 19.0001ZM19.5744 19.8808H48.701C48.9313 19.8808 49.1176 20.0671 49.1176 20.2974V21.9813H19.158V20.2974C19.158 20.0689 19.3441 19.8808 19.5744 19.8808ZM19.9365 31.4451C21.0597 30.3219 22.5362 29.7612 24.011 29.7612C25.4858 29.7612 26.9623 30.3219 28.0855 31.4451C30.332 33.6916 30.332 37.3477 28.0855 39.594C25.8391 41.8422 22.183 41.8405 19.9366 39.594C17.6884 37.3476 17.6882 33.6915 19.9365 31.4451ZM25.7072 29.1038C24.5752 28.8067 23.3834 28.8102 22.2531 29.1196C22.5379 28.4429 22.951 27.8224 23.4783 27.295C24.1111 26.6622 24.874 26.1911 25.7072 25.9116V29.1038ZM30.2386 33.2276H33.0088C32.7276 34.066 32.2565 34.8236 31.6272 35.4441C31.3143 35.757 30.9716 36.0225 30.6095 36.2492C30.7184 35.2332 30.5937 34.1978 30.2386 33.2276ZM16.7478 44.2101C16.5105 44.4755 16.1783 44.6319 15.8355 44.6425C15.5648 44.653 15.3064 44.5581 15.1359 44.3876C14.9672 44.2224 14.8775 43.9816 14.8828 43.7073C14.8898 43.3611 15.0498 43.0253 15.3205 42.7827L18.8167 39.6592C18.9714 39.8525 19.1349 40.0406 19.3124 40.2181C19.4917 40.3974 19.6781 40.5609 19.8714 40.7139L16.7478 44.2101ZM48.7009 44.6478H19.5742C19.3439 44.6478 19.1576 44.4614 19.1576 44.2312V42.8372L20.6043 41.2165C21.6501 41.8405 22.8278 42.1605 24.0091 42.1605C25.7106 42.1605 27.4121 41.5136 28.7074 40.2181C29.5283 39.3973 30.0873 38.4129 30.3879 37.3688C31.0717 37.0524 31.6975 36.6199 32.2459 36.0698C33.1265 35.2014 33.74 34.1011 34.0195 32.8847C34.0493 32.7546 34.0177 32.6158 33.9351 32.5103C33.8507 32.4048 33.7242 32.3451 33.5906 32.3451H29.843C29.5459 31.7984 29.1698 31.2833 28.7075 30.8211C28.0817 30.1953 27.3575 29.7242 26.5876 29.4008V25.3298C26.5876 25.1962 26.5261 25.0696 26.4224 24.9852C26.3169 24.9009 26.1798 24.871 26.0497 24.8991C24.8421 25.1733 23.7365 25.7868 22.8541 26.671C22.0596 27.4655 21.4865 28.4463 21.1806 29.5168C20.5039 29.8332 19.8693 30.2639 19.3121 30.8211C19.2576 30.8755 19.2102 30.9353 19.1574 30.9916V22.8638H49.117V44.2312C49.117 44.4597 48.9311 44.6478 48.7009 44.6478ZM33.6171 25.5285C32.3761 24.2752 30.708 23.5861 28.9188 23.5861C28.6762 23.5861 28.4775 23.783 28.4775 24.0273V30.2269C28.4775 30.4695 28.6744 30.6681 28.9188 30.6681H35.1327C35.2505 30.6681 35.363 30.6206 35.4456 30.538C35.5282 30.4536 35.5739 30.3411 35.5739 30.2234C35.5581 28.4304 34.8638 26.7641 33.6175 25.5281L33.6171 25.5285ZM29.3598 29.7858V24.4827C30.7432 24.5846 32.0193 25.1682 32.9914 26.149L32.9949 26.1525C33.9722 27.1211 34.5593 28.3972 34.6718 29.7841L29.3598 29.7858ZM24.0089 40.3975C25.2587 40.3975 26.5067 39.9229 27.4542 38.9755C28.3823 38.0474 28.8903 36.8187 28.8885 35.5126C28.8868 34.2136 28.377 32.992 27.4542 32.0762C26.5383 31.1533 25.3185 30.6453 24.0177 30.6418C22.7257 30.6436 21.4812 31.1481 20.5549 32.0762C18.66 33.9711 18.6583 37.0666 20.5566 38.9773C21.5094 39.9247 22.7591 40.3975 24.0089 40.3975ZM24.016 31.5241C25.0794 31.5259 26.0796 31.9425 26.8284 32.6983L26.8302 32.7001C27.586 33.4507 28.0026 34.4491 28.0044 35.5126C28.0061 36.075 27.8884 36.6182 27.6686 37.1192C26.1113 37.1526 24.5978 36.5532 23.4763 35.4422C22.5851 34.5528 22.0174 33.3944 21.8486 32.1587C22.4885 31.7456 23.2302 31.5223 24.0072 31.5223C24.0107 31.5241 24.0142 31.5241 24.016 31.5241ZM21.0734 32.8179C21.3459 34.0395 21.9576 35.1715 22.8558 36.0698C24.0177 37.2194 25.547 37.8926 27.1466 37.9928C27.0481 38.1176 26.9444 38.2389 26.8302 38.3531C25.278 39.9052 22.7416 39.9052 21.1805 38.3549C19.6635 36.8256 19.6303 34.3772 21.0734 32.8179ZM46.8427 25.3295C46.8427 25.5721 46.6458 25.7707 46.4015 25.7707H36.3981C36.1556 25.7707 35.9569 25.5739 35.9569 25.3295C35.9569 25.087 36.1538 24.8883 36.3981 24.8883H46.4015C46.6458 24.8883 46.8427 25.087 46.8427 25.3295ZM46.8427 27.119C46.8427 27.3616 46.6458 27.5602 46.4015 27.5602H44.2271C43.9845 27.5602 43.7859 27.3633 43.7859 27.119C43.7859 26.8764 43.9828 26.6778 44.2271 26.6778H46.4015C46.6458 26.6778 46.8427 26.8764 46.8427 27.119ZM46.8427 28.9207C46.8427 29.1633 46.6458 29.3619 46.4015 29.3619H37.3188C37.0763 29.3619 36.8776 29.165 36.8776 28.9207C36.8776 28.6781 37.0745 28.4795 37.3188 28.4795H46.4033C46.6458 28.4813 46.8427 28.6781 46.8427 28.9207ZM35.9583 30.7224C35.9583 30.4799 36.1551 30.2812 36.3995 30.2812H38.4244C38.667 30.2812 38.8656 30.4781 38.8656 30.7224C38.8656 30.965 38.6688 31.1636 38.4244 31.1636H36.3995C36.1551 31.1636 35.9583 30.9668 35.9583 30.7224ZM46.8427 32.5119C46.8427 32.7544 46.6458 32.9531 46.4015 32.9531H36.3981C36.1556 32.9531 35.9569 32.7562 35.9569 32.5119C35.9569 32.2693 36.1538 32.0707 36.3981 32.0707H46.4015C46.6458 32.0707 46.8427 32.2693 46.8427 32.5119ZM35.9583 27.1192C35.9583 26.8766 36.1551 26.678 36.3995 26.678H41.8678C42.1103 26.678 42.309 26.8748 42.309 27.1192C42.309 27.3617 42.1121 27.5604 41.8678 27.5604H36.3995C36.1551 27.5604 35.9583 27.3635 35.9583 27.1192ZM46.8427 30.7226C46.8427 30.9652 46.6458 31.1638 46.4015 31.1638H39.8536C39.6111 31.1638 39.4124 30.9669 39.4124 30.7226C39.4124 30.48 39.6093 30.2814 39.8536 30.2814H46.4033C46.6458 30.2832 46.8427 30.48 46.8427 30.7226ZM36.3435 39.9069V42.0444C36.3435 42.287 36.1466 42.4856 35.9023 42.4856C35.6597 42.4856 35.461 42.2887 35.461 42.0444V39.9069C35.461 39.6644 35.6579 39.4657 35.9023 39.4657C36.1466 39.4657 36.3435 39.6626 36.3435 39.9069ZM37.8463 37.2966V42.0427C37.8463 42.2853 37.6495 42.4839 37.4051 42.4839C37.1626 42.4839 36.9639 42.287 36.9639 42.0427V37.2966C36.9639 37.0541 37.1608 36.8554 37.4051 36.8554C37.6495 36.8554 37.8463 37.0523 37.8463 37.2966ZM39.3387 38.3531V42.0444C39.3387 42.287 39.1418 42.4856 38.8975 42.4856C38.6549 42.4856 38.4563 42.2887 38.4563 42.0444V38.3531C38.4563 38.1105 38.6532 37.9119 38.8975 37.9119C39.1401 37.9119 39.3387 38.1087 39.3387 38.3531ZM40.8416 36.7377V42.0427C40.8416 42.2852 40.6447 42.4839 40.4004 42.4839C40.1578 42.4839 39.9592 42.287 39.9592 42.0427V36.7377C39.9592 36.4951 40.156 36.2965 40.4004 36.2965C40.6447 36.2965 40.8416 36.4934 40.8416 36.7377ZM42.3445 39.8824V42.0445C42.3445 42.287 42.1476 42.4857 41.9033 42.4857C41.6607 42.4857 41.4621 42.2888 41.4621 42.0445V39.8824C41.4621 39.6398 41.6589 39.4412 41.9033 39.4412C42.1476 39.4412 42.3445 39.638 42.3445 39.8824ZM43.8491 37.9682V42.0445C43.8491 42.287 43.6523 42.4857 43.4079 42.4857C43.1654 42.4857 42.9667 42.2888 42.9667 42.0445V37.9682C42.9667 37.7256 43.1636 37.527 43.4079 37.527C43.6505 37.527 43.8491 37.7238 43.8491 37.9682ZM45.3397 35.9168V42.0426C45.3397 42.2851 45.1429 42.4838 44.8985 42.4838C44.656 42.4838 44.4573 42.2869 44.4573 42.0426V35.9168C44.4573 35.6743 44.6542 35.4756 44.8985 35.4756C45.1429 35.4756 45.3397 35.6743 45.3397 35.9168ZM46.8426 34.6248V42.0425C46.8426 42.2851 46.6458 42.4837 46.4014 42.4837C46.1589 42.4837 45.9602 42.2869 45.9602 42.0425L45.962 34.6248C45.962 34.3823 46.1589 34.1836 46.4032 34.1836C46.6458 34.1836 46.8426 34.3805 46.8426 34.6248Z" fill="white"/>
<defs>
<linearGradient id="paint0_linear_165_5249" x1="64" y1="7.62939e-06" x2="7.62939e-06" y2="64" gradientUnits="userSpaceOnUse">
<stop stop-color="#F65A75"/>
<stop offset="1" stop-color="#48179C"/>
</linearGradient>
</defs>
</svg>
