<svg width="64" height="64" viewBox="0 0 64 64" fill="none" xmlns="http://www.w3.org/2000/svg">
<rect width="64" height="64" rx="32" fill="url(#paint0_linear_179_18399)"/>
<path d="M18.5 24.125C18.5 22.6332 19.0926 21.2024 20.1475 20.1475C21.2024 19.0926 22.6332 18.5 24.125 18.5H39.875C41.3668 18.5 42.7976 19.0926 43.8525 20.1475C44.9074 21.2024 45.5 22.6332 45.5 24.125V39.875C45.5 41.3668 44.9074 42.7976 43.8525 43.8525C42.7976 44.9074 41.3668 45.5 39.875 45.5H24.125C22.6332 45.5 21.2024 44.9074 20.1475 43.8525C19.0926 42.7976 18.5 41.3668 18.5 39.875V24.125ZM24.125 20.75C23.2299 20.75 22.3714 21.1056 21.7385 21.7385C21.1056 22.3714 20.75 23.2299 20.75 24.125V39.875C20.75 40.7701 21.1056 41.6286 21.7385 42.2615C22.3714 42.8944 23.2299 43.25 24.125 43.25H39.875C40.7701 43.25 41.6286 42.8944 42.2615 42.2615C42.8944 41.6286 43.25 40.7701 43.25 39.875V24.125C43.25 23.2299 42.8944 22.3714 42.2615 21.7385C41.6286 21.1056 40.7701 20.75 39.875 20.75H24.125ZM23 39.875C23 39.5766 23.1185 39.2905 23.3295 39.0795C23.5405 38.8685 23.8266 38.75 24.125 38.75H30.875C31.1734 38.75 31.4595 38.8685 31.6705 39.0795C31.8815 39.2905 32 39.5766 32 39.875C32 40.1734 31.8815 40.4595 31.6705 40.6705C31.4595 40.8815 31.1734 41 30.875 41H24.125C23.8266 41 23.5405 40.8815 23.3295 40.6705C23.1185 40.4595 23 40.1734 23 39.875ZM24.125 34.25C23.8266 34.25 23.5405 34.3685 23.3295 34.5795C23.1185 34.7905 23 35.0766 23 35.375C23 35.6734 23.1185 35.9595 23.3295 36.1705C23.5405 36.3815 23.8266 36.5 24.125 36.5H30.875C31.1734 36.5 31.4595 36.3815 31.6705 36.1705C31.8815 35.9595 32 35.6734 32 35.375C32 35.0766 31.8815 34.7905 31.6705 34.5795C31.4595 34.3685 31.1734 34.25 30.875 34.25H24.125ZM23 25.25C23 24.6533 23.2371 24.081 23.659 23.659C24.081 23.2371 24.6533 23 25.25 23H38.75C39.3467 23 39.919 23.2371 40.341 23.659C40.7629 24.081 41 24.6533 41 25.25V29.75C41 30.3467 40.7629 30.919 40.341 31.341C39.919 31.7629 39.3467 32 38.75 32H25.25C24.6533 32 24.081 31.7629 23.659 31.341C23.2371 30.919 23 30.3467 23 29.75V25.25ZM38.75 25.25H25.25V29.75H38.75V25.25ZM36.5 34.25C35.9033 34.25 35.331 34.4871 34.909 34.909C34.4871 35.331 34.25 35.9033 34.25 36.5V38.75C34.25 39.3467 34.4871 39.919 34.909 40.341C35.331 40.7629 35.9033 41 36.5 41H38.75C39.3467 41 39.919 40.7629 40.341 40.341C40.7629 39.919 41 39.3467 41 38.75V36.5C41 35.9033 40.7629 35.331 40.341 34.909C39.919 34.4871 39.3467 34.25 38.75 34.25H36.5ZM36.5 36.5H38.75V38.75H36.5V36.5Z" fill="white"/>
<defs>
<linearGradient id="paint0_linear_179_18399" x1="64" y1="7.62939e-06" x2="7.62939e-06" y2="64" gradientUnits="userSpaceOnUse">
<stop stop-color="#F65A75"/>
<stop offset="1" stop-color="#48179C"/>
</linearGradient>
</defs>
</svg>
