<svg width="64" height="64" viewBox="0 0 64 64" fill="none" xmlns="http://www.w3.org/2000/svg">
<rect width="64" height="64" rx="32" fill="url(#paint0_linear_179_18394)"/>
<path d="M45.4998 45.5L38.9853 38.9855M38.9853 38.9855C40.0997 37.8712 40.9836 36.5483 41.5867 35.0923C42.1897 33.6364 42.5001 32.0759 42.5001 30.5C42.5001 28.9241 42.1897 27.3636 41.5867 25.9077C40.9836 24.4517 40.0997 23.1288 38.9853 22.0145C37.871 20.9002 36.5481 20.0162 35.0921 19.4132C33.6362 18.8101 32.0757 18.4997 30.4998 18.4997C28.9239 18.4997 27.3634 18.8101 25.9075 19.4132C24.4516 20.0162 23.1287 20.9002 22.0143 22.0145C19.7638 24.265 18.4995 27.3173 18.4995 30.5C18.4995 33.6827 19.7638 36.735 22.0143 38.9855C24.2648 41.236 27.3171 42.5003 30.4998 42.5003C33.6825 42.5003 36.7348 41.236 38.9853 38.9855Z" stroke="white" stroke-width="3" stroke-linecap="round" stroke-linejoin="round"/>
<defs>
<linearGradient id="paint0_linear_179_18394" x1="64" y1="7.62939e-06" x2="7.62939e-06" y2="64" gradientUnits="userSpaceOnUse">
<stop stop-color="#F65A75"/>
<stop offset="1" stop-color="#48179C"/>
</linearGradient>
</defs>
</svg>
