<svg width="64" height="64" viewBox="0 0 64 64" fill="none" xmlns="http://www.w3.org/2000/svg">
<rect width="64" height="64" rx="32" fill="url(#paint0_linear_165_5251)"/>
<path fill-rule="evenodd" clip-rule="evenodd" d="M29.6254 32.0809C28.9665 32.0648 28.3365 31.7964 27.8673 31.3272C27.3867 30.845 27.1151 30.1909 27.1151 29.5095V29.3488C27.1151 28.6674 27.3867 28.0133 27.8673 27.5311C28.351 27.049 29.0051 26.7774 29.6849 26.7774H32.1406C32.1406 26.7774 38.0465 24.153 38.0531 24.1498L41.0552 22.8143C41.2577 22.7259 41.4875 22.7452 41.6691 22.8625C41.8507 22.9814 41.9616 23.1839 41.9616 23.4025V26.8562C43.1155 27.1438 43.9705 28.1869 43.9705 29.4291C43.9705 30.6714 43.1155 31.7145 41.9616 32.0021V35.4558C41.9616 35.6744 41.8507 35.8768 41.6691 35.9958C41.4875 36.1131 41.2577 36.1324 41.0552 36.044L32.9202 32.428V35.4558C32.9202 35.811 32.6325 36.0986 32.2774 36.0986H30.2685C29.9149 36.0986 29.6256 35.811 29.6256 35.4558L29.6254 32.0809ZM37.6609 25.731L32.9201 27.838V31.02L40.6745 34.4673V24.3908L38.9469 25.159V29.4291C38.9469 29.7843 38.6592 30.072 38.304 30.072C37.9505 30.072 37.6612 29.7843 37.6612 29.4291L37.6609 25.731ZM31.6344 28.063H29.6849C29.3442 28.063 29.0196 28.198 28.7769 28.439C28.5359 28.6801 28.4009 29.0079 28.4009 29.3486V29.5093C28.4009 29.8501 28.5359 30.1779 28.7769 30.4189C29.0196 30.66 29.3443 30.795 29.6866 30.795H31.6344V28.063ZM41.9619 30.6343C42.3926 30.4045 42.6834 29.9513 42.6834 29.429C42.6834 28.9067 42.3926 28.4535 41.9619 28.2237V30.6343ZM30.9115 32.0807V34.8128H31.6347V32.0807H30.9115ZM44.0161 31.3189V31.3575V48.0715C44.0161 49.137 43.1546 50 42.0892 50H15.9269C14.8614 50 14 49.137 14 48.0715V31.3575C14 30.292 14.8614 29.429 15.9269 29.429H26.4712V29.5093C26.4712 29.9272 26.5532 30.3354 26.7059 30.7147H15.9271C15.5719 30.7147 15.2826 31.0023 15.2826 31.3575V48.0715C15.2826 48.4266 15.5719 48.7143 15.9271 48.7143H42.0893C42.4428 48.7143 42.7321 48.4266 42.7321 48.0715V32.4054C43.248 32.1595 43.6898 31.7834 44.0161 31.3189ZM39.2703 35.9524L30.5548 41.5049C29.4861 42.1863 28.1184 42.1767 27.061 41.4808L16.2241 34.3595C15.9268 34.1634 15.8433 33.7649 16.0393 33.4691C16.2338 33.1718 16.6323 33.0899 16.9297 33.2843L27.7665 40.4068C28.4013 40.8231 29.2225 40.8295 29.8622 40.4213L37.8594 35.325L39.2703 35.9524ZM33.6775 41.8439C33.3995 41.6221 33.3529 41.2171 33.5762 40.9407C33.798 40.6627 34.203 40.6177 34.4794 40.8395L41.8208 46.7117C42.0973 46.9334 42.1439 47.3384 41.9205 47.6165C41.7003 47.8929 41.2937 47.9379 41.0189 47.7161L33.6775 41.8439ZM16.9973 47.7161C16.7225 47.9379 16.3142 47.8929 16.0941 47.6165C15.8723 47.3384 15.9173 46.9334 16.1953 46.7117L23.5367 40.8395C23.8115 40.6177 24.2165 40.6627 24.4383 40.9407C24.6617 41.2171 24.6167 41.6221 24.3387 41.8439L16.9973 47.7161ZM26.5225 28.7858H26.2123V22.8976C26.2123 22.5424 26.5 22.2547 26.8552 22.2547H30.7122C31.0674 22.2547 31.3535 22.5424 31.3535 22.8976V26.1343H30.0678V23.5404H27.4964V26.9941C27.4707 27.0214 27.4418 27.0487 27.4128 27.0761C26.9452 27.5437 26.6366 28.143 26.5225 28.7858ZM32.6391 25.8512V20.1074C32.6391 19.7522 32.9267 19.4646 33.2835 19.4646H37.1406C37.4958 19.4646 37.7834 19.7522 37.7834 20.1074V23.5659C37.7754 23.5691 37.7706 23.5707 37.7641 23.5739L36.4978 24.138V20.7502H33.9248V25.2808L32.6391 25.8512ZM19.7838 28.7858V21.7016C19.7838 21.3464 20.0715 21.0587 20.4251 21.0587H24.2837C24.6373 21.0587 24.9266 21.3464 24.9266 21.7016V28.7858H23.6409V22.3446H21.0695V28.7858H19.7838ZM34.6608 16.7291L29.3041 21.5489C29.108 21.7257 28.822 21.7643 28.5857 21.647L22.5255 18.616L19.4302 21.0941C19.1522 21.3159 18.7472 21.2709 18.527 20.9929C18.3036 20.7164 18.3502 20.3115 18.6283 20.0897L22.045 17.356C22.2411 17.1985 22.5094 17.1696 22.7345 17.2821L28.7708 20.3002L33.9761 15.617L32.5747 15.2666C32.2324 15.1815 32.0219 14.8311 32.1087 14.4872C32.1938 14.1433 32.5442 13.9327 32.8881 14.0196L35.4579 14.6624C35.5816 14.6929 35.6941 14.7604 35.7809 14.8552C35.8886 14.9742 35.9464 15.1269 35.9464 15.286V17.8573C35.9464 18.2125 35.6572 18.5002 35.302 18.5002C34.9484 18.5002 34.6607 18.2125 34.6607 17.8573L34.6608 16.7291ZM45.8383 30.0715C45.4831 30.0715 45.1954 29.7838 45.1954 29.4287C45.1954 29.0735 45.4831 28.7858 45.8383 28.7858H49.3546C49.7098 28.7858 49.9975 29.0735 49.9975 29.4287C49.9975 29.7838 49.7098 30.0715 49.3546 30.0715H45.8383ZM45.0958 27.5612C44.7695 27.7042 44.3919 27.558 44.2456 27.2349C44.1026 26.9103 44.2472 26.5294 44.5735 26.3864L48.0882 24.8227C48.4113 24.6796 48.7921 24.8259 48.9368 25.1489C49.0814 25.4735 48.9368 25.8544 48.6105 25.9975L45.0958 27.5612ZM44.6972 32.527C44.3742 32.3824 44.2279 32.0031 44.3726 31.6785C44.5156 31.3538 44.8965 31.2076 45.2195 31.3522L48.6105 32.8597C48.9368 33.0028 49.0814 33.3836 48.9368 33.7083C48.7921 34.0313 48.4113 34.1775 48.0882 34.0345L44.6972 32.527Z" fill="white"/>
<defs>
<linearGradient id="paint0_linear_165_5251" x1="64" y1="7.62939e-06" x2="7.62939e-06" y2="64" gradientUnits="userSpaceOnUse">
<stop stop-color="#F65A75"/>
<stop offset="1" stop-color="#48179C"/>
</linearGradient>
</defs>
</svg>
