<svg width="64" height="64" viewBox="0 0 64 64" fill="none" xmlns="http://www.w3.org/2000/svg">
<rect width="64" height="64" rx="32" fill="url(#paint0_linear_165_5253)"/>
<path d="M44.7754 14H19.2089C17.9909 14 17 14.9989 17 16.2272V42.892C17 44.1203 17.9909 45.1192 19.2089 45.1192H33.7983L33.927 45.2986L34.8081 49.5149C34.8673 49.7974 35.1162 50 35.4055 50H41.2748C41.5311 50 41.7605 49.8395 41.8477 49.5985L43.4812 45.1186H44.7754C45.9933 45.1186 46.9842 44.1197 46.9842 42.8914V16.2272C46.9842 14.9989 45.9933 14 44.7754 14ZM19.2089 15.2204H44.7754C45.3209 15.2204 45.7639 15.6719 45.7639 16.2272V17.2321H18.2204V16.2272C18.2204 15.6719 18.6634 15.2204 19.2089 15.2204ZM40.8477 48.7803H35.9015L35.0955 44.9233C35.0955 44.9221 35.0943 44.9209 35.0937 44.9196C35.0839 44.8757 35.0589 44.8354 35.0394 44.7939C35.0241 44.7616 35.0162 44.7256 34.996 44.6969C34.9948 44.6957 34.9948 44.6939 34.9942 44.692L32.8775 41.7394C32.692 41.4843 32.7195 41.1219 32.9367 40.9498C33.0416 40.8674 33.157 40.865 33.2338 40.8748C33.3711 40.8943 33.4987 40.9761 33.5865 41.1005L34.7953 42.7919V43.5388C34.7953 43.8756 35.068 44.149 35.4055 44.149C35.7429 44.149 36.0156 43.8756 36.0156 43.5388V35.1531C36.0156 34.9328 36.1786 34.7461 36.3708 34.7461C36.563 34.7461 36.7259 34.9322 36.7259 35.1531V39.2212V40.2377V42.2715C36.7259 42.6083 36.9986 42.8816 37.3361 42.8816C37.6735 42.8816 37.9463 42.6083 37.9463 42.2715V40.2377V39.2206C37.9463 39.0003 38.1092 38.8136 38.3014 38.8136C38.4936 38.8136 38.6565 39.0003 38.6565 39.2206V40.2377V43.2886C38.6565 43.6255 38.9293 43.8988 39.2667 43.8988C39.6041 43.8988 39.8769 43.6255 39.8769 43.2886V40.2377C39.8769 40.0175 40.0398 39.8307 40.232 39.8307C40.4242 39.8307 40.5871 40.0168 40.5871 40.2377V41.2549V44.3058C40.5871 44.6426 40.8599 44.916 41.1973 44.916C41.5347 44.916 41.8075 44.6426 41.8075 44.3058V41.2549C41.8075 41.1371 41.8545 41.0481 41.8978 40.9876C41.9612 40.8986 42.0576 40.8479 42.1632 40.8479C42.3554 40.8479 42.5183 41.034 42.5183 41.2549V44.1984L40.8477 48.7803ZM44.7754 43.8988H43.7387V41.2549C43.7387 40.3579 43.0321 39.6276 42.1632 39.6276C42.0082 39.6276 41.8581 39.6587 41.7129 39.7038C41.4975 39.0698 40.9184 38.611 40.232 38.611C40.0746 38.611 39.9257 38.6421 39.7823 38.6867C39.7341 38.5457 39.6725 38.4121 39.5913 38.2919H44.5441C44.8816 38.2919 45.1543 38.0185 45.1543 37.6817C45.1543 37.3449 44.8816 37.0715 44.5441 37.0715H37.9463V36.4613H44.5435C44.8809 36.4613 45.1537 36.188 45.1537 35.8512C45.1537 35.5143 44.8809 35.241 44.5435 35.241H37.9463V35.1531C37.9463 34.9694 37.9103 34.7961 37.8553 34.6314H44.5435C44.8809 34.6314 45.1537 34.358 45.1537 34.0212C45.1537 33.6844 44.8809 33.411 44.5435 33.411H29.8278C29.4904 33.411 29.2176 33.6844 29.2176 34.0212C29.2176 34.358 29.4904 34.6314 29.8278 34.6314H34.8856C34.8313 34.7961 34.7947 34.9701 34.7947 35.1531V35.241H29.826C29.4886 35.241 29.2158 35.5143 29.2158 35.8512C29.2158 36.188 29.4886 36.4613 29.826 36.4613H34.7953V37.0715H29.826C29.4886 37.0715 29.2158 37.3449 29.2158 37.6817C29.2158 38.0185 29.4886 38.2919 29.826 38.2919H34.7953V40.6948L34.5805 40.3945C34.3023 40.0004 33.8745 39.7349 33.4077 39.6678C32.9605 39.6031 32.5254 39.7191 32.1776 39.9943C31.4515 40.5715 31.3228 41.6765 31.8872 42.4545L32.9226 43.8994H19.2089C18.6634 43.8994 18.2204 43.4479 18.2204 42.8926V18.4525H45.7639V42.892C45.7639 43.4473 45.3209 43.8988 44.7754 43.8988Z" fill="white"/>
<path d="M25.1029 16.8373C25.2615 16.8373 25.4201 16.7702 25.53 16.6604C25.6453 16.5444 25.713 16.3858 25.713 16.2271C25.713 16.0624 25.6459 15.9098 25.53 15.7939C25.3042 15.5681 24.8887 15.5681 24.6696 15.7939C24.5537 15.9098 24.4927 16.0624 24.4927 16.2271C24.4927 16.3858 24.5537 16.5444 24.6696 16.6543C24.7795 16.7702 24.9375 16.8373 25.1029 16.8373Z" fill="white"/>
<path d="M23.5042 16.8373C23.6629 16.8373 23.8215 16.7702 23.9313 16.6543C24.0467 16.5444 24.1144 16.3858 24.1144 16.2271C24.1144 16.0685 24.0473 15.9098 23.9313 15.7939C23.7056 15.5681 23.2907 15.5681 23.071 15.7939C22.9551 15.9037 22.894 16.0624 22.894 16.2271C22.894 16.3919 22.9551 16.5444 23.071 16.6543C23.1808 16.7702 23.3389 16.8373 23.5042 16.8373Z" fill="white"/>
<path d="M21.9056 16.8373C22.0642 16.8373 22.2235 16.7702 22.3388 16.6604C22.4487 16.5444 22.5158 16.3858 22.5158 16.2271C22.5158 16.0624 22.4486 15.9098 22.3327 15.7939C22.1069 15.5681 21.6981 15.5681 21.4724 15.7939C21.3625 15.9037 21.2954 16.0624 21.2954 16.2271C21.2954 16.3919 21.3625 16.5444 21.4724 16.6604C21.5883 16.7702 21.7469 16.8373 21.9056 16.8373Z" fill="white"/>
<path d="M20.307 16.8373C20.4656 16.8373 20.6249 16.7702 20.7402 16.6543C20.8506 16.5444 20.9171 16.3858 20.9171 16.2271C20.9171 16.0685 20.8506 15.9098 20.7402 15.7939C20.5083 15.5681 20.0995 15.5681 19.8737 15.7939C19.7639 15.9098 19.6968 16.0624 19.6968 16.2271C19.6968 16.3858 19.7639 16.5444 19.8737 16.6604C19.9897 16.7702 20.1483 16.8373 20.307 16.8373Z" fill="white"/>
<path d="M27.9974 19.4586H19.2083C18.8709 19.4586 18.5981 19.732 18.5981 20.0688V28.9579C18.5981 29.2947 18.8709 29.5681 19.2083 29.5681H27.9974C28.3348 29.5681 28.6075 29.2947 28.6075 28.9579V20.0688C28.6075 19.732 28.3348 19.4586 27.9974 19.4586ZM27.3872 28.3477H19.8185V20.679H27.3872V28.3477Z" fill="white"/>
<path d="M27.9974 29.9635H19.2083C18.8709 29.9635 18.5981 30.2369 18.5981 30.5737C18.5981 30.9105 18.8709 31.1839 19.2083 31.1839H27.9974C28.3348 31.1839 28.6075 30.9105 28.6075 30.5737C28.6075 30.2369 28.3348 29.9635 27.9974 29.9635Z" fill="white"/>
<path d="M27.9974 42.0847H19.2083C18.8709 42.0847 18.5981 42.3581 18.5981 42.6949C18.5981 43.0317 18.8709 43.3051 19.2083 43.3051H27.9974C28.3348 43.3051 28.6075 43.0317 28.6075 42.6949C28.6075 42.3581 28.3348 42.0847 27.9974 42.0847Z" fill="white"/>
<path d="M27.9974 31.5799H19.2083C18.8709 31.5799 18.5981 31.8532 18.5981 32.19V41.0785C18.5981 41.4154 18.8709 41.6887 19.2083 41.6887H27.9974C28.3348 41.6887 28.6075 41.4154 28.6075 41.0785V32.19C28.6075 31.8532 28.3348 31.5799 27.9974 31.5799ZM27.3872 40.4684H19.8185V32.8002H27.3872V40.4684Z" fill="white"/>
<path d="M44.5432 19.4586H29.8275C29.49 19.4586 29.2173 19.732 29.2173 20.0688C29.2173 20.4056 29.49 20.679 29.8275 20.679H44.5432C44.8806 20.679 45.1534 20.4056 45.1534 20.0688C45.1534 19.732 44.8806 19.4586 44.5432 19.4586Z" fill="white"/>
<path d="M44.5432 21.2892H29.8275C29.49 21.2892 29.2173 21.5625 29.2173 21.8994C29.2173 22.2362 29.49 22.5095 29.8275 22.5095H44.5432C44.8806 22.5095 45.1534 22.2362 45.1534 21.8994C45.1534 21.5625 44.8806 21.2892 44.5432 21.2892Z" fill="white"/>
<path d="M44.5432 23.1197H29.8275C29.49 23.1197 29.2173 23.3931 29.2173 23.7299C29.2173 24.0667 29.49 24.3401 29.8275 24.3401H44.5432C44.8806 24.3401 45.1534 24.0667 45.1534 23.7299C45.1534 23.3931 44.8806 23.1197 44.5432 23.1197Z" fill="white"/>
<path d="M44.5432 24.9503H29.8275C29.49 24.9503 29.2173 25.2236 29.2173 25.5604C29.2173 25.8973 29.49 26.1706 29.8275 26.1706H44.5432C44.8806 26.1706 45.1534 25.8973 45.1534 25.5604C45.1534 25.2236 44.8806 24.9503 44.5432 24.9503Z" fill="white"/>
<path d="M44.5432 31.5799H29.8275C29.49 31.5799 29.2173 31.8532 29.2173 32.19C29.2173 32.5269 29.49 32.8002 29.8275 32.8002H44.5432C44.8806 32.8002 45.1534 32.5269 45.1534 32.19C45.1534 31.8532 44.8806 31.5799 44.5432 31.5799Z" fill="white"/>
<defs>
<linearGradient id="paint0_linear_165_5253" x1="64" y1="7.62939e-06" x2="7.62939e-06" y2="64" gradientUnits="userSpaceOnUse">
<stop stop-color="#F65A75"/>
<stop offset="1" stop-color="#48179C"/>
</linearGradient>
</defs>
</svg>
