<svg width="64" height="64" viewBox="0 0 64 64" fill="none" xmlns="http://www.w3.org/2000/svg">
<rect width="64" height="64" rx="32" fill="url(#paint0_linear_179_18409)"/>
<path d="M20.75 44.375C20.4528 44.3711 20.1689 44.2513 19.9588 44.0412C19.7487 43.8311 19.6289 43.5472 19.625 43.25V20.75C19.625 20.4516 19.7435 20.1655 19.9545 19.9545C20.1655 19.7435 20.4516 19.625 20.75 19.625C21.0484 19.625 21.3345 19.7435 21.5455 19.9545C21.7565 20.1655 21.875 20.4516 21.875 20.75V43.25C21.8711 43.5472 21.7513 43.8311 21.5412 44.0412C21.3311 44.2513 21.0472 44.3711 20.75 44.375Z" fill="white"/>
<path d="M43.25 44.375H20.75C20.4516 44.375 20.1655 44.2565 19.9545 44.0455C19.7435 43.8345 19.625 43.5484 19.625 43.25C19.625 42.9516 19.7435 42.6655 19.9545 42.4545C20.1655 42.2435 20.4516 42.125 20.75 42.125H43.25C43.5484 42.125 43.8345 42.2435 44.0455 42.4545C44.2565 42.6655 44.375 42.9516 44.375 43.25C44.375 43.5484 44.2565 43.8345 44.0455 44.0455C43.8345 44.2565 43.5484 44.375 43.25 44.375ZM35 36.125C34.8522 36.1257 34.7057 36.0969 34.5692 36.0402C34.4327 35.9835 34.3089 35.9002 34.205 35.795L30.5 32.09L26.795 35.795C26.5817 35.9937 26.2997 36.1019 26.0082 36.0968C25.7168 36.0916 25.4387 35.9736 25.2326 35.7674C25.0264 35.5613 24.9084 35.2832 24.9032 34.9918C24.8981 34.7003 25.0063 34.4183 25.205 34.205L29.705 29.705C29.9159 29.4943 30.2019 29.376 30.5 29.376C30.7981 29.376 31.0841 29.4943 31.295 29.705L35 33.41L40.205 28.205C40.4183 28.0063 40.7003 27.8981 40.9918 27.9033C41.2832 27.9084 41.5613 28.0265 41.7674 28.2326C41.9736 28.4387 42.0916 28.7168 42.0968 29.0082C42.1019 29.2997 41.9937 29.5818 41.795 29.795L35.795 35.795C35.6911 35.9002 35.5673 35.9835 35.4308 36.0402C35.2943 36.0969 35.1478 36.1257 35 36.125Z" fill="white"/>
<path d="M41.75 34.76C41.4528 34.7561 41.1689 34.6363 40.9588 34.4262C40.7487 34.2161 40.6289 33.9322 40.625 33.635V29.375H36.5C36.2016 29.375 35.9155 29.2565 35.7045 29.0455C35.4935 28.8345 35.375 28.5484 35.375 28.25C35.375 27.9516 35.4935 27.6655 35.7045 27.4545C35.9155 27.2435 36.2016 27.125 36.5 27.125H41.75C42.0472 27.1289 42.3311 27.2487 42.5412 27.4588C42.7513 27.6689 42.8711 27.9528 42.875 28.25V33.635C42.8711 33.9322 42.7513 34.2161 42.5412 34.4262C42.3311 34.6363 42.0472 34.7561 41.75 34.76Z" fill="white"/>
<defs>
<linearGradient id="paint0_linear_179_18409" x1="64" y1="7.62939e-06" x2="7.62939e-06" y2="64" gradientUnits="userSpaceOnUse">
<stop stop-color="#F65A75"/>
<stop offset="1" stop-color="#48179C"/>
</linearGradient>
</defs>
</svg>
