<svg width="64" height="64" viewBox="0 0 64 64" fill="none" xmlns="http://www.w3.org/2000/svg">
<rect width="64" height="64" rx="32" fill="url(#paint0_linear_165_5255)"/>
<path d="M33.7998 25.1C33.7998 24.543 33.5786 24.0089 33.1847 23.6151C32.7909 23.2212 32.2568 23 31.6998 23H23.8998C23.3429 23 22.8087 23.2212 22.4149 23.6151C22.0211 24.0089 21.7998 24.543 21.7998 25.1C21.7998 25.657 22.0211 26.1911 22.4149 26.5849C22.8087 26.9788 23.3429 27.2 23.8998 27.2H31.6998C32.2568 27.2 32.7909 26.9788 33.1847 26.5849C33.5786 26.1911 33.7998 25.657 33.7998 25.1ZM22.9998 25.1C22.9998 24.8613 23.0946 24.6324 23.2634 24.4636C23.4322 24.2948 23.6611 24.2 23.8998 24.2H31.6998C31.9385 24.2 32.1674 24.2948 32.3362 24.4636C32.505 24.6324 32.5998 24.8613 32.5998 25.1C32.5998 25.3387 32.505 25.5676 32.3362 25.7364C32.1674 25.9052 31.9385 26 31.6998 26H23.8998C23.6611 26 23.4322 25.9052 23.2634 25.7364C23.0946 25.5676 22.9998 25.3387 22.9998 25.1Z" fill="white"/>
<path d="M48.2 24.8H40.4V21.6896C40.7497 21.566 41.0527 21.3373 41.2675 21.0348C41.4824 20.7324 41.5985 20.371 41.6 20V15.8C41.6 15.3226 41.4104 14.8648 41.0728 14.5272C40.7352 14.1896 40.2774 14 39.8 14H15.8C15.3226 14 14.8648 14.1896 14.5272 14.5272C14.1896 14.8648 14 15.3226 14 15.8V20C14.0015 20.371 14.1177 20.7324 14.3325 21.0348C14.5473 21.3373 14.8503 21.566 15.2 21.6896V38C15.2 38.6365 15.4529 39.247 15.9029 39.6971C16.353 40.1471 16.9635 40.4 17.6 40.4H30.8V48.2C30.8 48.6774 30.9896 49.1352 31.3272 49.4728C31.6648 49.8104 32.1226 50 32.6 50H48.2C48.6774 50 49.1352 49.8104 49.4728 49.4728C49.8104 49.1352 50 48.6774 50 48.2V26.6C50 26.1226 49.8104 25.6648 49.4728 25.3272C49.1352 24.9896 48.6774 24.8 48.2 24.8ZM15.2 15.8C15.2 15.6409 15.2632 15.4883 15.3757 15.3757C15.4883 15.2632 15.6409 15.2 15.8 15.2H39.8C39.9591 15.2 40.1117 15.2632 40.2243 15.3757C40.3368 15.4883 40.4 15.6409 40.4 15.8V20C40.4 20.1591 40.3368 20.3117 40.2243 20.4243C40.1117 20.5368 39.9591 20.6 39.8 20.6H15.8C15.6409 20.6 15.4883 20.5368 15.3757 20.4243C15.2632 20.3117 15.2 20.1591 15.2 20V15.8ZM17.6 39.2C17.2817 39.2 16.9765 39.0736 16.7515 38.8485C16.5264 38.6235 16.4 38.3183 16.4 38V21.8H39.2V24.8H38.1464C37.8308 24.7991 37.5181 24.8608 37.2266 24.9816C36.935 25.1025 36.6703 25.2799 36.4478 25.5038L31.5038 30.4478C31.2799 30.6703 31.1025 30.935 30.9816 31.2266C30.8608 31.5181 30.7991 31.8308 30.8 32.1464V39.2H17.6ZM36.8 26.8484V29.684C36.7995 29.9798 36.6818 30.2634 36.4726 30.4726C36.2634 30.6818 35.9798 30.7995 35.684 30.8H32.8484L36.8 26.8484ZM48.8 48.2C48.8 48.3591 48.7368 48.5117 48.6243 48.6243C48.5117 48.7368 48.3591 48.8 48.2 48.8H32.6C32.4409 48.8 32.2883 48.7368 32.1757 48.6243C32.0632 48.5117 32 48.3591 32 48.2V32.1464C32.0018 32.0973 32.0066 32.0485 32.0144 32H35.684C36.298 31.9994 36.8868 31.7552 37.321 31.321C37.7552 30.8868 37.9994 30.298 38 29.684V26.0144C38.0485 26.0066 38.0973 26.0018 38.1464 26H48.2C48.3591 26 48.5117 26.0632 48.6243 26.1757C48.7368 26.2883 48.8 26.4409 48.8 26.6V48.2Z" fill="white"/>
<path d="M22.8243 32.1758C22.7118 32.0633 22.5592 32.0001 22.4001 32.0001C22.241 32.0001 22.0884 32.0633 21.9759 32.1758L21.3759 32.7758C21.292 32.8597 21.2349 32.9666 21.2117 33.083C21.1886 33.1993 21.2005 33.32 21.2459 33.4296C21.2913 33.5392 21.3681 33.6329 21.4668 33.6988C21.5654 33.7648 21.6814 33.8 21.8001 33.8V35C21.8001 35.1591 21.8633 35.3117 21.9758 35.4243C22.0883 35.5368 22.2409 35.6 22.4001 35.6C22.5592 35.6 22.7118 35.5368 22.8243 35.4243C22.9369 35.3117 23.0001 35.1591 23.0001 35V33.8C23.1187 33.8 23.2347 33.7648 23.3333 33.6988C23.432 33.6329 23.5089 33.5392 23.5543 33.4296C23.5997 33.32 23.6116 33.1993 23.5884 33.083C23.5653 32.9666 23.5082 32.8597 23.4243 32.7758L22.8243 32.1758Z" fill="white"/>
<path d="M18.2 35C18.2 35.1591 18.2632 35.3117 18.3757 35.4243C18.4882 35.5368 18.6408 35.6 18.8 35.6C18.9591 35.6 19.1117 35.5368 19.2242 35.4243C19.3368 35.3117 19.4 35.1591 19.4 35V33.8C19.5186 33.8 19.6346 33.7648 19.7332 33.6988C19.8319 33.6329 19.9088 33.5392 19.9542 33.4296C19.9996 33.32 20.0115 33.1993 19.9883 33.083C19.9652 32.9666 19.9081 32.8597 19.8242 32.7758L19.2242 32.1758C19.1117 32.0633 18.9591 32.0001 18.8 32.0001C18.6409 32.0001 18.4883 32.0633 18.3758 32.1758L17.7758 32.7758C17.6919 32.8597 17.6348 32.9666 17.6116 33.083C17.5885 33.1993 17.6004 33.32 17.6458 33.4296C17.6912 33.5392 17.768 33.6329 17.8667 33.6988C17.9653 33.7648 18.0813 33.8 18.2 33.8V35Z" fill="white"/>
<path d="M22.4002 36.8H18.8002C18.6411 36.8 18.4885 36.8632 18.3759 36.9757C18.2634 37.0882 18.2002 37.2409 18.2002 37.4C18.2002 37.5591 18.2634 37.7117 18.3759 37.8243C18.4885 37.9368 18.6411 38 18.8002 38H22.4002C22.5593 38 22.7119 37.9368 22.8245 37.8243C22.937 37.7117 23.0002 37.5591 23.0002 37.4C23.0002 37.2409 22.937 37.0882 22.8245 36.9757C22.7119 36.8632 22.5593 36.8 22.4002 36.8Z" fill="white"/>
<path d="M45.7999 35H34.9999C34.8408 35 34.6882 35.0632 34.5756 35.1757C34.4631 35.2883 34.3999 35.4409 34.3999 35.6C34.3999 35.7591 34.4631 35.9117 34.5756 36.0243C34.6882 36.1368 34.8408 36.2 34.9999 36.2H45.7999C45.959 36.2 46.1116 36.1368 46.2242 36.0243C46.3367 35.9117 46.3999 35.7591 46.3999 35.6C46.3999 35.4409 46.3367 35.2883 46.2242 35.1757C46.1116 35.0632 45.959 35 45.7999 35Z" fill="white"/>
<path d="M45.8001 32H39.2001C39.041 32 38.8884 32.0632 38.7758 32.1757C38.6633 32.2883 38.6001 32.4409 38.6001 32.6C38.6001 32.7591 38.6633 32.9117 38.7758 33.0243C38.8884 33.1368 39.041 33.2 39.2001 33.2H45.8001C45.9592 33.2 46.1118 33.1368 46.2244 33.0243C46.3369 32.9117 46.4001 32.7591 46.4001 32.6C46.4001 32.4409 46.3369 32.2883 46.2244 32.1757C46.1118 32.0632 45.9592 32 45.8001 32Z" fill="white"/>
<path d="M45.7999 38H34.9999C34.8408 38 34.6882 38.0632 34.5756 38.1757C34.4631 38.2883 34.3999 38.4409 34.3999 38.6C34.3999 38.7591 34.4631 38.9117 34.5756 39.0243C34.6882 39.1368 34.8408 39.2 34.9999 39.2H45.7999C45.959 39.2 46.1116 39.1368 46.2242 39.0243C46.3367 38.9117 46.3999 38.7591 46.3999 38.6C46.3999 38.4409 46.3367 38.2883 46.2242 38.1757C46.1116 38.0632 45.959 38 45.7999 38Z" fill="white"/>
<path d="M45.7999 41H34.9999C34.8408 41 34.6882 41.0632 34.5756 41.1757C34.4631 41.2883 34.3999 41.4409 34.3999 41.6C34.3999 41.7591 34.4631 41.9117 34.5756 42.0243C34.6882 42.1368 34.8408 42.2 34.9999 42.2H45.7999C45.959 42.2 46.1116 42.1368 46.2242 42.0243C46.3367 41.9117 46.3999 41.7591 46.3999 41.6C46.3999 41.4409 46.3367 41.2883 46.2242 41.1757C46.1116 41.0632 45.959 41 45.7999 41Z" fill="white"/>
<path d="M45.7999 44H34.9999C34.8408 44 34.6882 44.0632 34.5756 44.1757C34.4631 44.2883 34.3999 44.4409 34.3999 44.6C34.3999 44.7591 34.4631 44.9117 34.5756 45.0243C34.6882 45.1368 34.8408 45.2 34.9999 45.2H45.7999C45.959 45.2 46.1116 45.1368 46.2242 45.0243C46.3367 44.9117 46.3999 44.7591 46.3999 44.6C46.3999 44.4409 46.3367 44.2883 46.2242 44.1757C46.1116 44.0632 45.959 44 45.7999 44Z" fill="white"/>
<defs>
<linearGradient id="paint0_linear_165_5255" x1="64" y1="7.62939e-06" x2="7.62939e-06" y2="64" gradientUnits="userSpaceOnUse">
<stop stop-color="#F65A75"/>
<stop offset="1" stop-color="#48179C"/>
</linearGradient>
</defs>
</svg>
