<svg width="64" height="64" viewBox="0 0 64 64" fill="none" xmlns="http://www.w3.org/2000/svg">
<rect width="64" height="64" rx="32" fill="url(#paint0_linear_165_5272)"/>
<path fill-rule="evenodd" clip-rule="evenodd" d="M14.0001 40.6249V15.875C14.0001 15.3784 14.1979 14.9009 14.5494 14.5493C14.901 14.1977 15.3785 14 15.8751 14H48.125C48.6216 14 49.0991 14.1978 49.4507 14.5493C49.8023 14.9008 50 15.3784 50 15.875V40.6249C50 41.1215 49.8022 41.5991 49.4507 41.9506C49.0992 42.3022 48.6216 42.4999 48.125 42.4999H35.246L39.4355 46.6894C40.0215 47.2753 40.0215 48.226 39.4355 48.8105C38.8496 49.3964 37.9004 49.3964 37.3145 48.8105L32.4849 43.9809C32.2153 43.7128 32.0703 43.3671 32.0483 43.0141L31.5342 42.4999H29.3296C28.0039 43.2177 26.4863 43.6249 24.875 43.6249C23.2636 43.6249 21.7461 43.2177 20.4204 42.4999H15.875C15.3784 42.4999 14.9009 42.3022 14.5493 41.9506C14.1977 41.5991 14.0001 41.1215 14.0001 40.6249ZM32.3957 30.0267C30.9162 27.4002 28.1008 25.625 24.8751 25.625C20.1145 25.625 16.2501 29.4893 16.2501 34.2499C16.2501 39.0105 20.1145 42.8749 24.8751 42.8749C29.6357 42.8749 33.5001 39.0105 33.5001 34.2499C33.5001 33.2612 33.3331 32.3119 33.0269 31.4272C32.8585 30.9394 32.6462 30.4705 32.3957 30.0267ZM31.6706 31.0755C31.9181 31.6044 32.1057 32.1669 32.2258 32.7543C32.3239 33.2377 32.3752 33.7386 32.3752 34.2513C32.3752 38.3909 29.0149 41.7513 24.8752 41.7513C20.7356 41.7513 17.3752 38.391 17.3752 34.2513C17.3752 30.1117 20.7356 26.7513 24.8752 26.7513C27.8796 26.7513 30.474 28.5224 31.6706 31.0755ZM31.048 31.5179C31.029 31.4754 31.0099 31.433 30.9909 31.3919C29.9142 29.0936 27.5793 27.4998 24.875 27.4998C21.1499 27.4998 18.125 30.5247 18.125 34.2498C18.125 36.5965 19.3247 38.6647 21.1441 39.8748C22.2134 40.5852 23.4966 40.9998 24.875 40.9998C28.6001 40.9998 31.625 37.9749 31.625 34.2498C31.625 33.8748 31.5942 33.5071 31.5357 33.1497L30.2803 34.4051C29.9873 34.6981 29.5127 34.6981 29.2197 34.4051L26.375 31.5604L22.7803 35.1551C22.4874 35.4481 22.0127 35.4481 21.7198 35.1551C21.4268 34.8621 21.4268 34.3875 21.7198 34.0946L25.8448 29.9696C26.1377 29.6766 26.6124 29.6766 26.9053 29.9696L29.75 32.8143L31.048 31.5179ZM23.1715 28.8885C23.3693 28.8256 23.5802 28.934 23.6432 29.1317C23.7062 29.3295 23.5978 29.5404 23.4 29.6034C23.0719 29.7074 22.7496 29.8495 22.4391 30.0282C22.234 30.1468 22.0407 30.2772 21.8605 30.4193C21.6979 30.5467 21.462 30.5189 21.3346 30.3563C21.2072 30.1937 21.235 29.9579 21.3976 29.8305C21.6056 29.6664 21.8283 29.5155 22.0641 29.3793C22.4215 29.1727 22.7936 29.0101 23.173 28.8886L23.1715 28.8885ZM20.2462 31.0536C20.3634 30.8836 20.5978 30.8397 20.7677 30.9569C20.9376 31.0741 20.9816 31.3084 20.8644 31.4784C19.8302 32.9798 19.6823 35.0042 20.6549 36.6875C20.7589 36.8662 20.6974 37.0961 20.5172 37.2002C20.3385 37.3042 20.1086 37.2426 20.0045 37.0625C18.8839 35.1201 19.0538 32.7849 20.2462 31.0536ZM30.7845 41.7497L30.6599 41.6251C30.6072 41.6676 30.553 41.7086 30.4988 41.7497H30.7845ZM49.2502 18.1247V15.8747C49.2502 15.5759 49.1315 15.2903 48.9206 15.0793C48.7096 14.8684 48.424 14.7497 48.1252 14.7497H15.8753C15.5764 14.7497 15.2908 14.8684 15.0798 15.0793C14.8689 15.2903 14.7503 15.5759 14.7503 15.8747V18.1247H22.2502C22.4494 18.1247 22.6399 18.0456 22.7805 17.905C22.9211 17.7644 23.0002 17.5739 23.0002 17.3747V16.9997C23.0002 16.1706 23.6712 15.4997 24.5002 15.4997H30.5002C31.3293 15.4997 32.0002 16.1706 32.0002 16.9997V17.3747C32.0002 17.5739 32.0793 17.7644 32.2199 17.905C32.3606 18.0456 32.551 18.1247 32.7502 18.1247H39.3258C39.1955 17.8991 39.1251 17.6399 39.1251 17.3747V16.9997C39.1251 16.8005 39.046 16.6101 38.9054 16.4694C38.7648 16.3288 38.5744 16.2497 38.3751 16.2497H32.3752C32.1686 16.2497 32.0002 16.0813 32.0002 15.8747C32.0002 15.6682 32.1686 15.4997 32.3752 15.4997H38.3751C38.7736 15.4997 39.1544 15.6579 39.4357 15.9392C39.7169 16.2204 39.8751 16.6013 39.8751 16.9997V17.3747C39.8751 17.5739 39.9542 17.7644 40.0949 17.905C40.2355 18.0456 40.4259 18.1247 40.6251 18.1247H47.2007C47.0704 17.8991 47.0001 17.6399 47.0001 17.3747V16.9997C47.0001 16.8005 46.921 16.6101 46.7803 16.4694C46.6397 16.3288 46.4493 16.2497 46.25 16.2497H40.2501C40.0435 16.2497 39.8751 16.0813 39.8751 15.8747C39.8751 15.6682 40.0435 15.4997 40.2501 15.4997H46.25C46.6485 15.4997 47.0293 15.6579 47.3106 15.9392C47.5918 16.2204 47.75 16.6013 47.75 16.9997V17.3747C47.75 17.5739 47.8291 17.7644 47.9698 17.905C48.1104 18.0456 48.3008 18.1247 48.5001 18.1247H49.2502ZM16.6253 15.8747C17.0398 15.8747 17.3753 16.2102 17.3753 16.6247C17.3753 17.0393 17.0398 17.3747 16.6253 17.3747C16.2107 17.3747 15.8753 17.0393 15.8753 16.6247C15.8753 16.2102 16.2107 15.8747 16.6253 15.8747ZM21.1252 15.8747C21.5398 15.8747 21.8752 16.2102 21.8752 16.6247C21.8752 17.0393 21.5398 17.3747 21.1252 17.3747C20.7107 17.3747 20.3752 17.0393 20.3752 16.6247C20.3752 16.2102 20.7107 15.8747 21.1252 15.8747ZM18.8752 15.8747C19.2898 15.8747 19.6252 16.2102 19.6252 16.6247C19.6252 17.0393 19.2898 17.3747 18.8752 17.3747C18.4607 17.3747 18.1252 17.0393 18.1252 16.6247C18.1252 16.2102 18.4607 15.8747 18.8752 15.8747ZM34.0758 42.3898C33.7829 42.0968 33.3082 42.0968 33.0153 42.3898C32.7223 42.6827 32.7223 43.1574 33.0153 43.4503L37.8449 48.2799C38.1379 48.5729 38.6125 48.5729 38.9054 48.2799C39.1984 47.987 39.1984 47.5123 38.9054 47.2194L34.0758 42.3898ZM32.2536 42.1583C32.3165 42.0514 32.3942 41.9518 32.485 41.8595C32.5758 41.7687 32.6769 41.691 32.7838 41.6281L31.7628 40.607C31.5929 40.7901 31.4157 40.9674 31.2325 41.1373L32.2536 42.1583ZM49.25 20.3746V18.8747H32.7501C32.3516 18.8747 31.9708 18.7164 31.6895 18.4352C31.4083 18.1539 31.2501 17.7731 31.2501 17.3747V16.9997C31.2501 16.5851 30.9146 16.2497 30.5001 16.2497H24.5001C24.0855 16.2497 23.7501 16.5851 23.7501 16.9997V17.3747C23.7501 17.7731 23.5919 18.1539 23.3106 18.4352C23.0294 18.7164 22.6485 18.8747 22.2501 18.8747H14.7501V20.3746H38.375C38.5816 20.3746 38.75 20.5431 38.75 20.7496C38.75 20.9562 38.5816 21.1246 38.375 21.1246H14.7501V40.6246C14.7501 40.9234 14.8688 41.2091 15.0797 41.42C15.2906 41.6309 15.5763 41.7496 15.8751 41.7496H19.2516C16.9737 40.0387 15.5001 37.3156 15.5001 34.2496C15.5001 29.0757 19.7012 24.8746 24.875 24.8746C28.3438 24.8746 31.376 26.7628 32.996 29.5666L36.7196 25.8445C37.0024 25.5617 37.455 25.55 37.7524 25.8166L40.9735 28.7156L44.413 25.2761L42.557 23.4202L48.125 22.6247L47.3296 28.1927L45.4737 26.3368L41.5302 30.2803C41.2475 30.563 40.7948 30.5747 40.4975 30.3081L37.2763 27.4092L33.6742 31.0112C33.6948 31.0684 33.7153 31.1255 33.7358 31.1811C34.0697 32.1421 34.2499 33.1748 34.2499 34.25C34.2499 36.4311 33.5029 38.441 32.2504 40.0347L33.6391 41.4234C33.9394 41.4424 34.2353 41.5508 34.4828 41.75H48.1249C48.4237 41.75 48.7094 41.6314 48.9203 41.4204C49.1313 41.2095 49.2499 40.9239 49.2499 40.625V21.1251H42.4999C42.2934 21.1251 42.1249 20.9566 42.1249 20.7501C42.1249 20.5436 42.2934 20.3751 42.4999 20.3751L49.25 20.3746ZM44.75 38.7496C44.75 38.9561 44.5816 39.1246 44.375 39.1246C44.1685 39.1246 44 38.9561 44 38.7496V28.9996C44 28.7931 44.1685 28.6246 44.375 28.6246C44.5816 28.6246 44.75 28.7931 44.75 28.9996V38.7496ZM35.75 38.7496C35.75 38.9561 35.5816 39.1246 35.375 39.1246C35.1685 39.1246 35 38.9561 35 38.7496V30.8746C35 30.6681 35.1685 30.4996 35.375 30.4996C35.5816 30.4996 35.75 30.6681 35.75 30.8746V38.7496ZM39.875 21.1246C39.6685 21.1246 39.5 20.9562 39.5 20.7496C39.5 20.5431 39.6685 20.3746 39.875 20.3746H41C41.2066 20.3746 41.375 20.5431 41.375 20.7496C41.375 20.9562 41.2066 21.1246 41 21.1246H39.875ZM37.25 38.7496C37.25 38.9561 37.0816 39.1246 36.875 39.1246C36.6685 39.1246 36.5 38.9561 36.5 38.7496V29.3746C36.5 29.1681 36.6685 28.9996 36.875 28.9996C37.0816 28.9996 37.25 29.1681 37.25 29.3746V38.7496ZM38.75 38.7496C38.75 38.9561 38.5816 39.1246 38.375 39.1246C38.1685 39.1246 38 38.9561 38 38.7496V29.7496C38 29.5431 38.1685 29.3746 38.375 29.3746C38.5816 29.3746 38.75 29.5431 38.75 29.7496V38.7496ZM43.25 38.7496C43.25 38.9561 43.0816 39.1246 42.875 39.1246C42.6685 39.1246 42.5 38.9561 42.5 38.7496V30.8746C42.5 30.6681 42.6685 30.4996 42.875 30.4996C43.0816 30.4996 43.25 30.6681 43.25 30.8746V38.7496ZM46.25 38.7496C46.25 38.9561 46.0816 39.1246 45.875 39.1246C45.6685 39.1246 45.5 38.9561 45.5 38.7496V28.2496C45.5 28.0431 45.6685 27.8746 45.875 27.8746C46.0816 27.8746 46.25 28.0431 46.25 28.2496V38.7496ZM40.25 38.7496C40.25 38.9561 40.0816 39.1246 39.875 39.1246C39.6685 39.1246 39.5 38.9561 39.5 38.7496V31.2496C39.5 31.0431 39.6685 30.8746 39.875 30.8746C40.0816 30.8746 40.25 31.0431 40.25 31.2496V38.7496ZM41.75 38.7496C41.75 38.9561 41.5816 39.1246 41.375 39.1246C41.1685 39.1246 41 38.9561 41 38.7496V31.6246C41 31.4181 41.1685 31.2496 41.375 31.2496C41.5816 31.2496 41.75 31.4181 41.75 31.6246V38.7496Z" fill="white"/>
<defs>
<linearGradient id="paint0_linear_165_5272" x1="64" y1="7.62939e-06" x2="7.62939e-06" y2="64" gradientUnits="userSpaceOnUse">
<stop stop-color="#F65A75"/>
<stop offset="1" stop-color="#48179C"/>
</linearGradient>
</defs>
</svg>
