<svg width="64" height="64" viewBox="0 0 64 64" fill="none" xmlns="http://www.w3.org/2000/svg">
<rect width="64" height="64" rx="32" fill="url(#paint0_linear_165_5178)"/>
<path d="M19.25 44C19.037 44 18.8585 43.9285 18.7145 43.7855C18.5705 43.6425 18.499 43.464 18.5 43.25C18.501 43.036 18.5725 42.8575 18.7145 42.7145C18.8565 42.5715 19.035 42.5 19.25 42.5H31.25V25.91C30.542 25.781 29.917 25.46 29.375 24.947C28.833 24.434 28.488 23.785 28.34 23H23.174L27.212 33.1085C27.318 33.3445 27.3735 33.587 27.3785 33.836C27.3835 34.085 27.3615 34.331 27.3125 34.574C27.0875 35.493 26.536 36.1975 25.658 36.6875C24.78 37.1775 23.894 37.4225 23 37.4225C22.106 37.4225 21.22 37.1775 20.342 36.6875C19.464 36.1975 18.9125 35.4925 18.6875 34.5725C18.6375 34.3305 18.6155 34.085 18.6215 33.836C18.6275 33.587 18.683 33.344 18.788 33.107L22.8275 23H20.75C20.537 23 20.3585 22.9285 20.2145 22.7855C20.0705 22.6425 19.999 22.464 20 22.25C20.001 22.036 20.0725 21.8575 20.2145 21.7145C20.3565 21.5715 20.535 21.5 20.75 21.5H28.34C28.505 20.664 28.922 19.955 29.591 19.373C30.26 18.791 31.063 18.5 32 18.5C32.937 18.5 33.74 18.791 34.409 19.373C35.078 19.955 35.495 20.664 35.66 21.5H43.25C43.464 21.5 43.6425 21.5715 43.7855 21.7145C43.9285 21.8575 44 22.036 44 22.25C44 22.464 43.9285 22.6425 43.7855 22.7855C43.6425 22.9285 43.464 23 43.25 23H41.174L45.212 33.1085C45.318 33.3445 45.3735 33.587 45.3785 33.836C45.3835 34.085 45.3615 34.331 45.3125 34.574C45.0875 35.493 44.536 36.1975 43.658 36.6875C42.78 37.1775 41.894 37.4225 41 37.4225C40.106 37.4225 39.22 37.1775 38.342 36.6875C37.464 36.1975 36.9125 35.4925 36.6875 34.5725C36.6375 34.3305 36.6155 34.085 36.6215 33.836C36.6275 33.587 36.683 33.344 36.788 33.107L40.826 23H35.6615C35.5125 23.785 35.167 24.434 34.625 24.947C34.083 25.46 33.458 25.7815 32.75 25.9115V42.5H44.75C44.964 42.5 45.1425 42.5715 45.2855 42.7145C45.4285 42.8575 45.5 43.036 45.5 43.25C45.5 43.464 45.4285 43.6425 45.2855 43.7855C45.1425 43.9285 44.964 44 44.75 44H19.25ZM37.985 33.674H44.015L41 26.138L37.985 33.674ZM19.985 33.674H26.015L23 26.138L19.985 33.674ZM32 24.5C32.617 24.5 33.1465 24.2795 33.5885 23.8385C34.0295 23.3965 34.25 22.867 34.25 22.25C34.25 21.633 34.0295 21.1035 33.5885 20.6615C33.1465 20.2205 32.617 20 32 20C31.383 20 30.8535 20.2205 30.4115 20.6615C29.9695 21.1025 29.749 21.632 29.75 22.25C29.751 22.868 29.9715 23.3975 30.4115 23.8385C30.8535 24.2795 31.383 24.5 32 24.5Z" fill="white"/>
<defs>
<linearGradient id="paint0_linear_165_5178" x1="64" y1="7.62939e-06" x2="7.62939e-06" y2="64" gradientUnits="userSpaceOnUse">
<stop stop-color="#F65A75"/>
<stop offset="1" stop-color="#48179C"/>
</linearGradient>
</defs>
</svg>
