<svg width="64" height="64" viewBox="0 0 64 64" fill="none" xmlns="http://www.w3.org/2000/svg">
<rect width="64" height="64" rx="32" fill="url(#paint0_linear_37_184)"/>
<g clip-path="url(#clip0_37_184)">
<path d="M15.785 45.8087C17.0798 45.8165 19.0934 45.8279 20.0552 45.8273C20.3674 45.8196 20.6785 45.8686 20.9732 45.9719L33.0266 49.8563C33.4859 50.0039 33.9741 50.0385 34.4496 49.9573C34.9252 49.876 35.3741 49.6813 35.7584 49.3895L49.2314 39.1553C49.4459 38.9889 49.624 38.7802 49.7547 38.5423C49.8854 38.3043 49.9659 38.042 49.9912 37.7717C50.0165 37.5014 49.9861 37.2288 49.9018 36.9707C49.8176 36.7125 49.6813 36.4745 49.5014 36.2711L49.481 36.2477C49.1669 35.8994 48.7388 35.6746 48.2737 35.6139C47.8087 35.5531 47.3372 35.6605 46.9442 35.9165L41.774 39.1901C41.733 38.6962 41.5264 38.2306 41.1875 37.8689C40.8487 37.5072 40.3976 37.2706 39.9074 37.1975L26.3066 35.0417C25.5436 34.9245 24.7631 35.0559 24.0806 35.4167L21.1184 37.0367C20.6775 37.2759 20.1836 37.4009 19.682 37.4003H15.8C15.3226 37.4003 14.8648 37.59 14.5272 37.9275C14.1896 38.2651 14 38.7229 14 39.2003V44.0087C14.0009 44.4832 14.1888 44.9383 14.5229 45.2752C14.8571 45.6121 15.3105 45.8038 15.785 45.8087ZM15.2 39.2003C15.2 39.0412 15.2632 38.8886 15.3757 38.7761C15.4883 38.6635 15.6409 38.6003 15.8 38.6003H19.682C20.3849 38.5997 21.0765 38.4234 21.6938 38.0873L24.647 36.4751C25.0994 36.2369 25.6164 36.15 26.1218 36.2273L39.7226 38.3831C39.975 38.4223 40.2034 38.5553 40.3621 38.7554C40.5208 38.9556 40.5981 39.2083 40.5787 39.4631C40.5592 39.7178 40.4444 39.9558 40.2571 40.1295C40.0698 40.3033 39.8239 40.4 39.5684 40.4003H27.8C27.6409 40.4003 27.4883 40.4635 27.3757 40.5761C27.2632 40.6886 27.2 40.8412 27.2 41.0003C27.2 41.1595 27.2632 41.3121 27.3757 41.4246C27.4883 41.5371 27.6409 41.6003 27.8 41.6003H30.5984L34.1468 44.2961C34.3883 44.4785 34.6796 44.5829 34.982 44.5957C35.2843 44.6084 35.5834 44.5289 35.8394 44.3675L47.5928 36.9275C47.7449 36.8278 47.9272 36.7846 48.1078 36.8057C48.2885 36.8267 48.456 36.9106 48.581 37.0427C48.5857 37.0488 48.5907 37.0546 48.596 37.0601C48.6684 37.1399 48.7236 37.2337 48.7582 37.3357C48.7928 37.4377 48.8061 37.5458 48.7972 37.6531C48.7883 37.7605 48.7574 37.8648 48.7065 37.9598C48.6556 38.0547 48.5857 38.1381 48.5012 38.2049L35.033 48.4343C34.8024 48.6091 34.5331 48.7257 34.2478 48.7743C33.9626 48.8229 33.6698 48.8019 33.3944 48.7133L21.3404 44.8295C20.9269 44.6959 20.4951 44.6277 20.0606 44.6273H20.054C19.1066 44.6207 17.0858 44.6159 15.794 44.6087C15.6362 44.6067 15.4856 44.5426 15.3748 44.4303C15.2639 44.318 15.2018 44.1665 15.2018 44.0087L15.2 39.2003ZM37.967 41.6003L35.1974 43.3541C35.148 43.3849 35.0905 43.4001 35.0324 43.3976C34.9742 43.3952 34.9182 43.3752 34.8716 43.3403L32.582 41.6003H37.967Z" fill="white"/>
<path d="M48.7998 14H19.9998C19.6815 14 19.3763 14.1264 19.1513 14.3515C18.9262 14.5765 18.7998 14.8817 18.7998 15.2V32C18.7998 32.3183 18.9262 32.6235 19.1513 32.8485C19.3763 33.0736 19.6815 33.2 19.9998 33.2H48.7998C49.1181 33.2 49.4233 33.0736 49.6483 32.8485C49.8734 32.6235 49.9998 32.3183 49.9998 32V15.2C49.9998 14.8817 49.8734 14.5765 49.6483 14.3515C49.4233 14.1264 49.1181 14 48.7998 14ZM19.9998 32V15.2H48.7998V32H19.9998Z" fill="white"/>
<path d="M46.654 19.422C46.1347 19.3438 45.6544 19.1002 45.2844 18.7274C44.9144 18.3546 44.6745 17.8725 44.6002 17.3526C44.5624 17.0901 44.4319 16.8497 44.2322 16.6751C44.0326 16.5004 43.777 16.403 43.5118 16.4004H25.2886C25.0235 16.4027 24.7679 16.4999 24.5683 16.6743C24.3686 16.8488 24.238 17.089 24.2002 17.3514C24.1184 17.919 23.8403 18.44 23.4142 18.8238C23.0613 19.1453 22.6205 19.3542 22.1482 19.4238C21.8849 19.4601 21.6438 19.5907 21.4694 19.7912C21.2951 19.9918 21.1995 20.2488 21.2002 20.5146V26.6862C21.2015 26.9513 21.2975 27.2072 21.4711 27.4076C21.6446 27.608 21.8842 27.7397 22.1464 27.7788C22.6658 27.857 23.1461 28.1006 23.516 28.4734C23.886 28.8461 24.1259 29.3283 24.2002 29.8482C24.238 30.1107 24.3686 30.3511 24.5682 30.5257C24.7678 30.7004 25.0234 30.7978 25.2886 30.8004H43.5118C43.7771 30.7978 44.0327 30.7003 44.2324 30.5255C44.432 30.3507 44.5625 30.1102 44.6002 29.8476C44.6746 29.3281 44.9143 28.8463 45.2839 28.4737C45.6535 28.1011 46.1333 27.8574 46.6522 27.7788C46.9147 27.7401 47.1547 27.6086 47.3286 27.4081C47.5025 27.2077 47.5989 26.9516 47.6002 26.6862V20.5146C47.5989 20.2495 47.5029 19.9936 47.3293 19.7932C47.1558 19.5928 46.9162 19.4611 46.654 19.422ZM46.4002 26.604C45.6545 26.7325 44.9674 27.0901 44.4343 27.6271C43.9012 28.1641 43.5485 28.8538 43.4254 29.6004H25.375C25.2516 28.8539 24.8989 28.1643 24.3658 27.6274C23.8328 27.0905 23.1458 26.7328 22.4002 26.604V20.5968C23.078 20.4826 23.7089 20.1765 24.2182 19.7148C24.8315 19.1608 25.2392 18.4156 25.375 17.6004H43.4254C43.5488 18.3469 43.9015 19.0364 44.4346 19.5734C44.9676 20.1103 45.6546 20.468 46.4002 20.5968V26.604Z" fill="white"/>
<path d="M25.4001 21.8008C25.0441 21.8008 24.6961 21.9063 24.4001 22.1041C24.1041 22.3019 23.8734 22.583 23.7371 22.912C23.6009 23.2409 23.5652 23.6028 23.6347 23.9519C23.7041 24.3011 23.8756 24.6218 24.1273 24.8736C24.379 25.1253 24.6998 25.2967 25.0489 25.3662C25.3981 25.4356 25.76 25.4 26.0889 25.2638C26.4178 25.1275 26.699 24.8968 26.8967 24.6008C27.0945 24.3048 27.2001 23.9568 27.2001 23.6008C27.2001 23.1234 27.0105 22.6656 26.6729 22.328C26.3353 21.9904 25.8775 21.8008 25.4001 21.8008ZM25.4001 24.2008C25.2814 24.2008 25.1654 24.1656 25.0668 24.0997C24.9681 24.0337 24.8912 23.94 24.8458 23.8304C24.8004 23.7208 24.7885 23.6001 24.8116 23.4837C24.8348 23.3673 24.8919 23.2604 24.9758 23.1765C25.0597 23.0926 25.1667 23.0355 25.283 23.0123C25.3994 22.9892 25.5201 23.001 25.6297 23.0465C25.7393 23.0919 25.8331 23.1688 25.899 23.2674C25.9649 23.3661 26.0001 23.4821 26.0001 23.6008C26.0001 23.7599 25.9369 23.9125 25.8244 24.025C25.7118 24.1376 25.5592 24.2008 25.4001 24.2008Z" fill="white"/>
<path d="M41.6001 23.6008C41.6001 23.9568 41.7057 24.3048 41.9035 24.6008C42.1012 24.8968 42.3824 25.1275 42.7113 25.2638C43.0402 25.4 43.4021 25.4356 43.7513 25.3662C44.1004 25.2967 44.4212 25.1253 44.6729 24.8736C44.9246 24.6218 45.0961 24.3011 45.1655 23.9519C45.235 23.6028 45.1993 23.2409 45.0631 22.912C44.9268 22.583 44.6961 22.3019 44.4001 22.1041C44.1041 21.9063 43.7561 21.8008 43.4001 21.8008C42.9227 21.8008 42.4649 21.9904 42.1273 22.328C41.7897 22.6656 41.6001 23.1234 41.6001 23.6008ZM44.0001 23.6008C44.0001 23.7195 43.9649 23.8355 43.899 23.9341C43.8331 24.0328 43.7393 24.1097 43.6297 24.1551C43.5201 24.2005 43.3994 24.2124 43.283 24.1893C43.1667 24.1661 43.0597 24.109 42.9758 24.025C42.8919 23.9411 42.8348 23.8342 42.8116 23.7178C42.7885 23.6014 42.8004 23.4808 42.8458 23.3712C42.8912 23.2615 42.9681 23.1678 43.0668 23.1019C43.1654 23.036 43.2814 23.0008 43.4001 23.0008C43.5592 23.0008 43.7118 23.064 43.8244 23.1765C43.9369 23.289 44.0001 23.4417 44.0001 23.6008Z" fill="white"/>
<path d="M34.4001 18.8008C33.4508 18.8008 32.5227 19.0823 31.7334 19.6097C30.944 20.1372 30.3288 20.8868 29.9655 21.7639C29.6022 22.641 29.5071 23.6061 29.6923 24.5372C29.8775 25.4683 30.3347 26.3236 31.006 26.9949C31.6773 27.6662 32.5326 28.1233 33.4637 28.3086C34.3948 28.4938 35.3599 28.3987 36.237 28.0354C37.1141 27.6721 37.8637 27.0569 38.3912 26.2675C38.9186 25.4782 39.2001 24.5501 39.2001 23.6008C39.1987 22.3282 38.6925 21.1081 37.7926 20.2082C36.8928 19.3084 35.6727 18.8022 34.4001 18.8008ZM34.4001 27.2008C33.6881 27.2008 32.9921 26.9896 32.4 26.5941C31.808 26.1985 31.3466 25.6363 31.0741 24.9784C30.8017 24.3206 30.7304 23.5968 30.8693 22.8985C31.0082 22.2001 31.351 21.5587 31.8545 21.0552C32.358 20.5517 32.9994 20.2089 33.6978 20.07C34.3961 19.931 35.1199 20.0023 35.7778 20.2748C36.4356 20.5473 36.9978 21.0087 37.3934 21.6007C37.789 22.1927 38.0001 22.8888 38.0001 23.6008C37.9991 24.5553 37.6196 25.4704 36.9446 26.1453C36.2697 26.8202 35.3546 27.1998 34.4001 27.2008Z" fill="white"/>
</g>
<defs>
<linearGradient id="paint0_linear_37_184" x1="64" y1="7.62939e-06" x2="7.62939e-06" y2="64" gradientUnits="userSpaceOnUse">
<stop stop-color="#F65A75"/>
<stop offset="1" stop-color="#48179C"/>
</linearGradient>
<clipPath id="clip0_37_184">
<rect width="36" height="36" fill="white" transform="translate(14 14)"/>
</clipPath>
</defs>
</svg>
