<svg width="64" height="64" viewBox="0 0 64 64" fill="none" xmlns="http://www.w3.org/2000/svg">
<rect width="64" height="64" rx="32" fill="url(#paint0_linear_112_3480)"/>
<path d="M44.1502 20.7508C40.0169 20.7508 36.3067 20.0015 32.9587 16.6468C32.7056 16.394 32.3624 16.252 32.0047 16.252C31.6469 16.252 31.3038 16.394 31.0507 16.6468C27.6937 20.0015 23.9812 20.7508 19.8524 20.7508C19.4944 20.7508 19.151 20.893 18.8978 21.1462C18.6447 21.3993 18.5024 21.7427 18.5024 22.1008V30.2053C18.5024 38.8948 22.9349 44.801 31.5749 47.6833C31.8524 47.7759 32.1525 47.7759 32.4299 47.6833C41.0722 44.8033 45.5024 38.8948 45.5024 30.2053V22.1008C45.5024 21.356 44.8949 20.7508 44.1502 20.7508ZM43.2502 30.203C43.2502 37.844 39.5692 42.8345 32.0002 45.449C24.4312 42.8345 20.7502 37.844 20.7502 30.203V22.9895C24.3029 22.9018 28.2922 22.2043 32.0024 18.8428C35.7059 22.202 39.6974 22.8995 43.2502 22.9895V30.203ZM30.8729 33.785L36.8264 27.8315C36.931 27.7269 37.0552 27.6439 37.1919 27.5873C37.3285 27.5307 37.475 27.5016 37.6229 27.5016C37.7709 27.5016 37.9173 27.5307 38.054 27.5873C38.1907 27.6439 38.3148 27.7269 38.4194 27.8315C38.524 27.9361 38.607 28.0603 38.6636 28.197C38.7202 28.3336 38.7494 28.4801 38.7494 28.628C38.7494 28.7759 38.7202 28.9224 38.6636 29.0591C38.607 29.1957 38.524 29.3199 38.4194 29.4245L31.6694 36.1745C31.5649 36.2793 31.4408 36.3624 31.3041 36.4191C31.1674 36.4758 31.0209 36.505 30.8729 36.505C30.725 36.505 30.5784 36.4758 30.4418 36.4191C30.3051 36.3624 30.1809 36.2793 30.0764 36.1745L26.7014 32.7995C26.4902 32.5883 26.3715 32.3018 26.3715 32.003C26.3715 31.7043 26.4902 31.4178 26.7014 31.2065C26.9127 30.9953 27.1992 30.8766 27.4979 30.8766C27.7967 30.8766 28.0832 30.9953 28.2944 31.2065L30.8729 33.785Z" fill="white"/>
<defs>
<linearGradient id="paint0_linear_112_3480" x1="64" y1="7.62939e-06" x2="7.62939e-06" y2="64" gradientUnits="userSpaceOnUse">
<stop stop-color="#F65A75"/>
<stop offset="1" stop-color="#48179C"/>
</linearGradient>
</defs>
</svg>
