<svg width="64" height="64" viewBox="0 0 64 64" fill="none" xmlns="http://www.w3.org/2000/svg">
<rect width="64" height="64" rx="32" fill="url(#paint0_linear_19_331)"/>
<g clip-path="url(#clip0_19_331)">
<path fill-rule="evenodd" clip-rule="evenodd" d="M35.176 27.7934V19.5387C35.176 18.9076 36.1559 18.9076 36.1559 19.5387V27.7934C36.5628 27.7934 37.3351 27.6688 37.3351 28.2917C37.3351 28.5574 37.1192 28.7816 36.8452 28.7816H27.1538C26.5144 28.7816 26.5144 27.7934 27.1538 27.7934H27.8431V24.8536C27.8431 24.2225 28.823 24.2225 28.823 24.8536V27.7934H30.2846V23.2093C30.2846 22.5699 31.2729 22.5699 31.2729 23.2093V27.7934H32.7261V21.6149C32.7261 20.9754 33.7144 20.9754 33.7144 21.6149V27.7934H35.176ZM20.9255 40.8813C20.5684 40.8813 20.2196 40.8149 19.8957 40.6986L19.4722 41.4377L20.9172 43.356L22.3621 41.4377L21.9386 40.7069C21.623 40.8149 21.2825 40.8813 20.9255 40.8813ZM19.0403 40.2169C17.5206 39.0045 18.0106 37.4515 17.9026 37.0612C17.2881 36.0979 17.0888 35.2093 17.3213 34.437C17.5372 33.6896 18.1019 33.2661 18.4009 33.0917C18.8327 32.2446 19.796 31.6965 20.9088 31.6965C22.0133 31.6965 22.9767 32.2363 23.4168 33.0917C23.7158 33.2661 24.2971 33.6896 24.5296 34.4536C24.7621 35.2259 24.5628 36.0979 23.9566 37.0612C23.8403 37.4515 24.3386 39.0211 22.8023 40.2252L23.2341 40.981H23.7075C25.9746 40.981 27.8182 42.8246 27.8182 45.0917V48.7124C27.8182 48.9865 27.594 49.2024 27.3282 49.2024H14.5061C14.2403 49.2024 14.0161 48.9865 14.0161 48.7124V45.0917C14.0161 42.8246 15.8597 40.981 18.1268 40.981H18.6002L19.0403 40.2169ZM18.8825 36.9367C18.8825 38.1076 18.8161 38.963 19.9621 39.6522C21.2493 40.4246 22.9684 39.3782 22.9684 37.8502V36.9367C22.877 34.3041 18.9739 35.1761 18.8825 36.9367ZM18.3095 35.6827C19.4805 34.0384 22.5033 33.7062 23.5746 35.5664C23.9483 34.1713 22.7524 34.0467 22.5864 33.6398C22.0549 32.3526 19.7545 32.3526 19.2313 33.6398C19.0652 34.0467 17.8279 34.1962 18.3095 35.6827ZM15.0043 48.2225H16.5075V45.864C16.5075 45.2329 17.4957 45.2329 17.4957 45.864V48.2225H24.3386V45.864C24.3386 45.2329 25.3268 45.2329 25.3268 45.864V48.2225H26.83V45.0917C26.83 43.3643 25.4348 41.9692 23.7075 41.9692H23.2009L21.3075 44.4688C21.1248 44.718 20.7095 44.718 20.5268 44.4688L18.6334 41.9692H18.1268C16.3995 41.9692 14.996 43.3643 14.996 45.0917L15.0043 48.2225ZM43.0902 40.8813C42.7331 40.8813 42.3843 40.8149 42.0604 40.6986L41.6369 41.4377L43.0819 43.356L44.5268 41.4377L44.1033 40.7069C43.7877 40.8149 43.4473 40.8813 43.0902 40.8813ZM41.205 40.2169C39.6853 39.0045 40.1753 37.4432 40.0673 37.0612C39.4528 36.0979 39.2535 35.2093 39.486 34.437C39.7019 33.6896 40.2666 33.2661 40.5656 33.0917C40.9974 32.2446 41.9607 31.6965 43.0736 31.6965C44.1781 31.6965 45.1414 32.2363 45.5815 33.0917C45.8805 33.2661 46.4618 33.6896 46.6943 34.4536C46.9268 35.2259 46.7275 36.0979 46.1213 37.0612C46.005 37.4515 46.5033 39.0128 44.967 40.2252L45.3988 40.981H45.8722C48.1393 40.981 49.9829 42.8246 49.9829 45.0917V48.7124C49.9829 48.9865 49.7587 49.2024 49.4929 49.2024H36.6708C36.405 49.2024 36.1808 48.9865 36.1808 48.7124V45.0917C36.1808 42.8246 38.0244 40.981 40.2915 40.981H40.7649L41.205 40.2169ZM41.0473 36.9201C41.0473 38.0661 40.9725 38.9879 42.1268 39.6522C43.4473 40.4079 45.1331 39.3616 45.1331 37.8502V36.9367C45.0417 34.2709 41.0722 35.2342 41.0473 36.9201ZM40.4742 35.6827C41.6452 34.0384 44.668 33.6979 45.7393 35.5664C46.1047 34.1713 44.9172 34.0467 44.7511 33.6398C44.2196 32.3526 41.9275 32.3526 41.396 33.6398C41.2216 34.0467 39.9926 34.1962 40.4742 35.6827ZM37.1607 48.2225H38.6722V45.864C38.6722 45.2329 39.6604 45.2329 39.6604 45.864V48.2225H46.5033V45.864C46.5033 45.2329 47.4915 45.2329 47.4915 45.864V48.2225H48.9947V45.0917C48.9947 43.3643 47.5995 41.9692 45.8722 41.9692H45.3656L43.4722 44.4688C43.2895 44.718 42.8742 44.718 42.6915 44.4688L40.7981 41.9692H40.2915C38.5642 41.9692 37.1607 43.3643 37.1607 45.0917V48.2225ZM31.9954 33.0336L31.439 33.0169V35.8239H32.5601V33.0169L31.9954 33.0336ZM30.459 32.9007C26.1573 32.1699 22.877 28.4163 22.877 23.9152C22.877 18.8827 26.9711 14.7969 31.9954 14.7969C37.0279 14.7969 41.1137 18.891 41.1137 23.9152C41.1137 28.4163 37.8417 32.1699 33.54 32.9007V35.8239C34.0881 35.8239 35.0016 35.6578 35.0016 36.3138V47.0432C35.0016 47.3173 34.7857 47.5415 34.5116 47.5415H29.4874C29.2133 47.5415 28.9974 47.3173 28.9974 47.0432V36.3138C28.9974 35.6578 29.9192 35.8239 30.459 35.8239V32.9007ZM31.9954 15.7768C27.5109 15.7768 23.8652 19.4308 23.8652 23.9152C23.8652 28.873 28.2168 32.4772 32.8424 32.0038C36.9282 31.5886 40.1338 28.1173 40.1338 23.9152C40.1338 19.4308 36.4881 15.7768 31.9954 15.7768ZM33.05 36.8121H29.9774V38.39H34.0216V36.8121H33.05ZM29.9774 46.5533H34.0216V39.3699H29.9774V46.5533Z" fill="white"/>
</g>
<defs>
<linearGradient id="paint0_linear_19_331" x1="64" y1="7.62939e-06" x2="7.62939e-06" y2="64" gradientUnits="userSpaceOnUse">
<stop stop-color="#F65A75"/>
<stop offset="1" stop-color="#48179C"/>
</linearGradient>
<clipPath id="clip0_19_331">
<rect width="36" height="36" fill="white" transform="translate(14 14)"/>
</clipPath>
</defs>
</svg>
