<svg width="64" height="64" viewBox="0 0 64 64" fill="none" xmlns="http://www.w3.org/2000/svg">
<rect width="64" height="64" rx="32" fill="url(#paint0_linear_19_343)"/>
<g clip-path="url(#clip0_19_343)">
<path d="M16.4746 47.9746H17.5996V49.0996H16.4746V47.9746Z" fill="white"/>
<path d="M45.7246 47.9746H46.8496V49.0996H45.7246V47.9746Z" fill="white"/>
<path d="M47.4111 14.2236H15.9111C14.9808 14.2236 14.2236 14.9808 14.2236 15.9111V42.9111C14.2236 43.8415 14.9808 44.5986 15.9111 44.5986H19.8486V47.9736H18.7236V49.0986H44.5986V47.9736H43.4736V44.5986H47.4111C48.3415 44.5986 49.0986 43.8415 49.0986 42.9111V15.9111C49.0986 14.9808 48.3415 14.2236 47.4111 14.2236ZM15.9111 15.3486H47.4111C47.7216 15.3486 47.9736 15.6012 47.9736 15.9111V20.9736H15.3486V15.9111C15.3486 15.6012 15.6006 15.3486 15.9111 15.3486ZM20.4871 41.2236L22.0986 39.2898L23.7102 41.2236H23.2236V47.9736H20.9736V41.2236H20.4871ZM24.3486 44.5986H28.8486V47.9736H24.3486V44.5986ZM35.0564 38.9736H33.3486V47.9736H29.9736V38.9736H28.2659L31.6611 34.3049L35.0564 38.9736ZM38.9736 47.9736H34.4736V44.5986H38.9736V47.9736ZM40.0986 47.9736V41.2236H39.6121L41.2236 39.2898L42.8352 41.2236H42.3486V47.9736H40.0986ZM47.4111 43.4736H43.4736V42.3486H45.2371L41.2236 37.5325L37.2102 42.3486H38.9736V43.4736H34.4736V40.0986H37.2659L34.8111 36.7236H46.8486V23.2236H33.3486V34.7127L31.6611 32.3924L26.0564 40.0986H28.8486V43.4736H24.3486V42.3486H26.1121L22.0986 37.5325L18.0852 42.3486H19.8486V43.4736H15.9111C15.6006 43.4736 15.3486 43.2211 15.3486 42.9111V22.0986H47.9736V42.9111C47.9736 43.2211 47.7216 43.4736 47.4111 43.4736ZM34.4736 35.5986V24.3486H45.7236V35.5986H34.4736Z" fill="white"/>
<path d="M18.1621 19.8496C19.0925 19.8496 19.8496 19.0925 19.8496 18.1621C19.8496 17.2317 19.0925 16.4746 18.1621 16.4746C17.2317 16.4746 16.4746 17.2317 16.4746 18.1621C16.4746 19.0925 17.2317 19.8496 18.1621 19.8496ZM18.1621 17.5996C18.4726 17.5996 18.7246 17.8522 18.7246 18.1621C18.7246 18.472 18.4726 18.7246 18.1621 18.7246C17.8516 18.7246 17.5996 18.472 17.5996 18.1621C17.5996 17.8522 17.8516 17.5996 18.1621 17.5996Z" fill="white"/>
<path d="M22.6611 19.8496C23.5915 19.8496 24.3486 19.0925 24.3486 18.1621C24.3486 17.2317 23.5915 16.4746 22.6611 16.4746C21.7308 16.4746 20.9736 17.2317 20.9736 18.1621C20.9736 19.0925 21.7308 19.8496 22.6611 19.8496ZM22.6611 17.5996C22.9716 17.5996 23.2236 17.8522 23.2236 18.1621C23.2236 18.472 22.9716 18.7246 22.6611 18.7246C22.3506 18.7246 22.0986 18.472 22.0986 18.1621C22.0986 17.8522 22.3506 17.5996 22.6611 17.5996Z" fill="white"/>
<path d="M27.1616 19.8496C28.092 19.8496 28.8491 19.0925 28.8491 18.1621C28.8491 17.2317 28.092 16.4746 27.1616 16.4746C26.2312 16.4746 25.4741 17.2317 25.4741 18.1621C25.4741 19.0925 26.2312 19.8496 27.1616 19.8496ZM27.1616 17.5996C27.4721 17.5996 27.7241 17.8522 27.7241 18.1621C27.7241 18.472 27.4721 18.7246 27.1616 18.7246C26.8511 18.7246 26.5991 18.472 26.5991 18.1621C26.5991 17.8522 26.8511 17.5996 27.1616 17.5996Z" fill="white"/>
<path d="M37.8486 16.4746H32.2236V19.8496H37.8486V16.4746ZM36.7236 18.7246H33.3486V17.5996H36.7236V18.7246Z" fill="white"/>
<path d="M46.8486 16.4746H38.9736V19.8496H46.8486V16.4746ZM45.7236 18.7246H40.0986V17.5996H45.7236V18.7246Z" fill="white"/>
<path d="M16.4746 26.5996H28.8496V23.2246H16.4746V26.5996ZM17.5996 24.3496H27.7246V25.4746H17.5996V24.3496Z" fill="white"/>
<path d="M16.4746 27.7236H19.8496V28.8486H16.4746V27.7236Z" fill="white"/>
<path d="M20.9736 27.7236H28.8486V28.8486H20.9736V27.7236Z" fill="white"/>
<path d="M16.4746 29.9746H28.8496V31.0996H16.4746V29.9746Z" fill="white"/>
<path d="M16.4746 32.2246H24.3496V33.3496H16.4746V32.2246Z" fill="white"/>
<path d="M25.4741 32.2246H28.8491V33.3496H25.4741V32.2246Z" fill="white"/>
<path d="M18.7241 34.4736H19.8491V35.5986H18.7241V34.4736Z" fill="white"/>
<path d="M20.9736 34.4736H22.0986V35.5986H20.9736V34.4736Z" fill="white"/>
<path d="M23.2241 34.4736H24.3491V35.5986H23.2241V34.4736Z" fill="white"/>
<path d="M43.8437 28.6404L38.91 25.6805C38.6861 25.5455 38.4291 25.4746 38.1675 25.4746C37.3716 25.4746 36.7241 26.122 36.7241 26.918V33.0307C36.7241 33.8272 37.3716 34.4746 38.1675 34.4746C38.4291 34.4746 38.6861 34.4037 38.91 34.2687L43.8437 31.3089C44.3094 31.0293 44.5991 30.518 44.5991 29.9746C44.5991 29.4312 44.3094 28.9199 43.8437 28.6404ZM43.2649 30.3442L38.3312 33.304C38.1304 33.4233 37.8491 33.2647 37.8491 33.0312V26.918C37.8491 26.7425 37.992 26.5996 38.1675 26.5996C38.2254 26.5996 38.2817 26.6154 38.3312 26.6452L43.2649 29.605C43.3937 29.6821 43.4741 29.8239 43.4741 29.9746C43.4741 30.1254 43.3937 30.2671 43.2649 30.3442Z" fill="white"/>
</g>
<defs>
<linearGradient id="paint0_linear_19_343" x1="64" y1="7.62939e-06" x2="7.62939e-06" y2="64" gradientUnits="userSpaceOnUse">
<stop stop-color="#F65A75"/>
<stop offset="1" stop-color="#48179C"/>
</linearGradient>
<clipPath id="clip0_19_343">
<rect width="36" height="36" fill="white" transform="translate(13.6616 13.6621)"/>
</clipPath>
</defs>
</svg>
