<svg width="64" height="64" viewBox="0 0 64 64" fill="none" xmlns="http://www.w3.org/2000/svg">
<rect width="64" height="64" rx="32" fill="url(#paint0_linear_37_239)"/>
<path d="M28.9437 15.125C21.6374 15.125 15.6929 21.1224 15.6929 28.4939C15.6929 35.8655 21.6374 41.8623 28.9442 41.8623C30.3398 41.8623 31.6982 41.6345 33.0004 41.2104L33.6321 43.9475C33.6782 44.1472 33.8296 44.3058 34.0264 44.3621C34.2227 44.4178 34.4359 44.3621 34.5794 44.2169L37.5106 41.2593L42.1034 45.8943C42.2091 46.0012 42.3526 46.0608 42.5027 46.0608C42.6529 46.0608 42.7964 46.0012 42.9021 45.8943L45.1634 43.6123C45.3811 43.3929 45.3811 43.0396 45.1634 42.8208L40.5638 38.1779L43.4995 35.2147C43.6429 35.0701 43.6975 34.8592 43.6407 34.664C43.5844 34.4683 43.4269 34.3181 43.2289 34.2714L41.1179 33.7752C41.8322 32.1153 42.1962 30.3429 42.1962 28.4945C42.1962 21.1229 36.2517 15.1256 28.9448 15.1256L28.9437 15.125ZM28.9437 40.7373C22.2572 40.7373 16.8173 35.2451 16.8173 28.4939C16.8173 21.7428 22.2578 16.25 28.9437 16.25C35.6296 16.25 41.0701 21.7428 41.0701 28.4939C41.0701 30.2557 40.7072 31.9409 40.0002 33.512L31.5992 31.5371C31.4119 31.4932 31.2122 31.5489 31.0733 31.6861C30.9361 31.8234 30.8787 32.0219 30.922 32.2115L32.7456 40.1112C31.5278 40.5191 30.2537 40.7373 28.9437 40.7373ZM39.3719 37.7819C39.1542 38.0013 39.1542 38.3546 39.3719 38.5734L43.9714 43.2162L42.5027 44.699L37.9099 40.064C37.8042 39.9571 37.6607 39.8975 37.5106 39.8975C37.3604 39.8975 37.2169 39.9571 37.1112 40.064L34.4984 42.7004L32.2219 32.8393L41.9926 35.1365L39.3719 37.7819Z" fill="white"/>
<path d="M32.7274 45.4527C32.9462 45.2322 32.944 44.8762 32.7235 44.6573C32.5019 44.438 32.1469 44.4402 31.9275 44.6613C31.171 45.4263 29.8502 45.4268 29.0925 44.6613C28.8732 44.4402 28.5182 44.4385 28.2966 44.6573C28.0761 44.8762 28.0739 45.2322 28.2927 45.4527C28.885 46.0501 29.6719 46.3792 30.5095 46.3792C31.347 46.3792 32.1357 46.0501 32.7274 45.4527Z" fill="white"/>
<path d="M26.5483 46.4228C26.3278 46.6416 26.3261 46.9977 26.5449 47.2188C27.6035 48.287 29.012 48.8759 30.51 48.8759C32.0079 48.8759 33.4164 48.2875 34.475 47.2188C34.6938 46.9977 34.6921 46.6416 34.4716 46.4228C34.2506 46.2046 33.8951 46.2057 33.6763 46.4262C32.8303 47.2801 31.7058 47.7503 30.51 47.7503C29.3141 47.7503 28.1896 47.2801 27.3436 46.4262C27.1254 46.2057 26.7693 46.204 26.5483 46.4228Z" fill="white"/>
<path d="M28.209 29.0553C28.2141 29.0553 28.2186 29.0581 28.2237 29.0581H29.6648C30.6677 29.0581 31.521 29.7826 31.6926 30.7805C31.7399 31.0544 31.9772 31.2473 32.2461 31.2473C32.2776 31.2473 32.3097 31.2451 32.3423 31.2389C32.6483 31.186 32.8536 30.8952 32.8007 30.5892C32.5369 29.0564 31.2274 27.9438 29.6839 27.9342C29.6772 27.9342 29.6715 27.9303 29.6642 27.9303H28.2237C27.0869 27.9303 26.1621 26.9943 26.1621 25.844C26.1621 24.6936 27.0874 23.7576 28.2237 23.7576H28.933C28.938 23.7576 28.942 23.7605 28.9465 23.7605C28.951 23.7605 28.9555 23.7576 28.96 23.7576H29.6637C30.8005 23.7576 31.7258 24.6936 31.7258 25.844C31.7258 26.1545 31.9772 26.4065 32.2883 26.4065C32.5994 26.4065 32.8508 26.1545 32.8508 25.844C32.8508 24.0732 31.4209 22.6326 29.6637 22.6326H29.509V20.791C29.509 20.4805 29.2575 20.2285 28.9465 20.2285C28.6354 20.2285 28.384 20.4805 28.384 20.791V22.6326H28.2237C26.4664 22.6326 25.0371 24.0732 25.0371 25.844C25.0371 27.6147 26.458 29.0463 28.2085 29.0547L28.209 29.0553Z" fill="white"/>
<path d="M30.1394 33.1732C29.9864 33.2131 29.8306 33.2323 29.6641 33.2323H28.9576C28.9536 33.2323 28.9508 33.23 28.9469 33.23C28.943 33.23 28.9401 33.2323 28.9362 33.2323H28.2235C27.0873 33.2323 26.1631 32.2946 26.1631 31.1426C26.1631 30.8321 25.9116 30.5801 25.6006 30.5801C25.2895 30.5801 25.0381 30.8321 25.0381 31.1426C25.0381 32.915 26.4668 34.3573 28.2235 34.3573H28.3844V36.2C28.3844 36.5105 28.6358 36.7625 28.9469 36.7625C29.258 36.7625 29.5094 36.5105 29.5094 36.2V34.3573H29.6641C29.9273 34.3573 30.1748 34.3263 30.4218 34.2622C30.7227 34.184 30.9027 33.8769 30.8251 33.5765C30.7469 33.2761 30.4392 33.0956 30.1394 33.1738V33.1732Z" fill="white"/>
<path d="M44.691 32.8276C44.8007 32.9362 44.9436 32.9908 45.087 32.9908C45.2321 32.9908 45.3767 32.9351 45.4864 32.8243C46.7047 31.5946 46.7047 29.5938 45.4864 28.3642C45.267 28.1431 44.9121 28.1414 44.6904 28.3603C44.4699 28.5791 44.4677 28.9351 44.6865 29.1556C45.4723 29.9488 45.4723 31.2397 44.6865 32.0328C44.4677 32.2533 44.4694 32.6094 44.6899 32.8282L44.691 32.8276Z" fill="white"/>
<path d="M46.4394 26.5941C46.2189 26.8129 46.2172 27.1689 46.436 27.3894C48.1854 29.1557 48.1854 32.0295 46.436 33.7952C46.2172 34.0163 46.2189 34.3723 46.4394 34.5911C46.5491 34.6997 46.6919 34.7543 46.8354 34.7543C46.9805 34.7543 47.1251 34.6986 47.2348 34.5878C49.4173 32.385 49.4173 28.8013 47.2348 26.5986C47.0165 26.3775 46.6604 26.3758 46.4394 26.5946V26.5941Z" fill="white"/>
<defs>
<linearGradient id="paint0_linear_37_239" x1="64" y1="7.62939e-06" x2="7.62939e-06" y2="64" gradientUnits="userSpaceOnUse">
<stop stop-color="#F65A75"/>
<stop offset="1" stop-color="#48179C"/>
</linearGradient>
</defs>
</svg>
