<svg width="64" height="64" viewBox="0 0 64 64" fill="none" xmlns="http://www.w3.org/2000/svg">
<rect width="64" height="64" rx="32" fill="url(#paint0_linear_19_355)"/>
<path d="M38.3808 46.6984H18.6528C16.8322 46.6984 15.3511 45.2173 15.3511 43.3967V18.5876C15.3511 16.7722 16.8322 15.291 18.6528 15.291H38.3808C40.2014 15.291 41.6825 16.7722 41.6825 18.5876V27.423C41.6825 27.567 41.5694 27.6802 41.4254 27.6802C41.2814 27.6802 41.1682 27.567 41.1682 27.423V18.5876C41.1682 17.055 39.9185 15.8053 38.3808 15.8053H18.6528C17.1151 15.8053 15.8654 17.055 15.8654 18.5876V43.3967C15.8654 44.9344 17.1151 46.1842 18.6528 46.1842H38.3808C38.4734 46.1842 38.5659 46.179 38.6585 46.1687C38.7974 46.1584 38.9259 46.2562 38.9414 46.395C38.9568 46.5339 38.8539 46.6624 38.7151 46.6779C38.6019 46.6933 38.4888 46.6984 38.3808 46.6984Z" fill="white"/>
<path d="M22.9613 28.6352H19.9424C19.1916 28.6352 18.5796 28.0232 18.5796 27.2723V24.2535C18.5796 23.5026 19.1916 22.8906 19.9424 22.8906H22.9613C23.7122 22.8906 24.3242 23.5026 24.3242 24.2535V27.2723C24.319 28.0232 23.707 28.6352 22.9613 28.6352ZM19.9373 23.4049C19.4693 23.4049 19.0887 23.7855 19.0887 24.2535V27.2723C19.0887 27.7403 19.4693 28.1209 19.9373 28.1209H22.9562C23.4242 28.1209 23.8047 27.7403 23.8047 27.2723V24.2535C23.8047 23.7855 23.4242 23.4049 22.9562 23.4049H19.9373Z" fill="white"/>
<path d="M38.1959 24.7116H27.9359C27.7919 24.7116 27.6787 24.5984 27.6787 24.4544C27.6787 24.3104 27.7919 24.1973 27.9359 24.1973H38.1907C38.3347 24.1973 38.4479 24.3104 38.4479 24.4544C38.4479 24.5984 38.3347 24.7116 38.1959 24.7116Z" fill="white"/>
<path d="M34.601 27.3092H27.9359C27.7919 27.3092 27.6787 27.1961 27.6787 27.0521C27.6787 26.9081 27.7919 26.7949 27.9359 26.7949H34.5959C34.7399 26.7949 34.853 26.9081 34.853 27.0521C34.853 27.1961 34.7399 27.3092 34.601 27.3092Z" fill="white"/>
<path d="M22.9613 36.0424H19.9424C19.1916 36.0424 18.5796 35.4304 18.5796 34.6796V31.6607C18.5796 30.9099 19.1916 30.2979 19.9424 30.2979H22.9613C23.7122 30.2979 24.3242 30.9099 24.3242 31.6607V34.6796C24.319 35.4304 23.707 36.0424 22.9613 36.0424ZM19.9373 30.8121C19.4693 30.8121 19.0887 31.1927 19.0887 31.6607V34.6796C19.0887 35.1476 19.4693 35.5281 19.9373 35.5281H22.9562C23.4242 35.5281 23.8047 35.1476 23.8047 34.6796V31.6607C23.8047 31.1927 23.4242 30.8121 22.9562 30.8121H19.9373Z" fill="white"/>
<path d="M32.7239 32.1334H27.9359C27.7919 32.1334 27.6787 32.0203 27.6787 31.8763C27.6787 31.7323 27.7919 31.6191 27.9359 31.6191H32.7239C32.8679 31.6191 32.981 31.7323 32.981 31.8763C32.981 32.0203 32.8679 32.1334 32.7239 32.1334Z" fill="white"/>
<path d="M31.2684 34.7311H27.9359C27.7919 34.7311 27.6787 34.6179 27.6787 34.4739C27.6787 34.3299 27.7919 34.2168 27.9359 34.2168H31.2684C31.4124 34.2168 31.5256 34.3299 31.5256 34.4739C31.5256 34.6179 31.4124 34.7311 31.2684 34.7311Z" fill="white"/>
<path d="M22.9613 43.4643H19.9424C19.1916 43.4643 18.5796 42.8523 18.5796 42.1014V39.0826C18.5796 38.3317 19.1916 37.7197 19.9424 37.7197H22.9613C23.7122 37.7197 24.3242 38.3317 24.3242 39.0826V42.1014C24.319 42.8523 23.707 43.4643 22.9613 43.4643ZM19.9373 38.2392C19.4693 38.2392 19.0887 38.6197 19.0887 39.0877V42.1066C19.0887 42.5746 19.4693 42.9552 19.9373 42.9552H22.9562C23.4242 42.9552 23.8047 42.5746 23.8047 42.1066V39.0877C23.8047 38.6197 23.4242 38.2392 22.9562 38.2392H19.9373Z" fill="white"/>
<path d="M31.9164 39.5553H27.9359C27.7919 39.5553 27.6787 39.4422 27.6787 39.2982C27.6787 39.1542 27.7919 39.041 27.9359 39.041H31.9113C32.0553 39.041 32.1684 39.1542 32.1684 39.2982C32.1684 39.4422 32.0553 39.5553 31.9164 39.5553Z" fill="white"/>
<path d="M30.5227 42.153H27.9359C27.7919 42.153 27.6787 42.0398 27.6787 41.8958C27.6787 41.7518 27.7919 41.6387 27.9359 41.6387H30.5176C30.6616 41.6387 30.7747 41.7518 30.7747 41.8958C30.7747 42.0398 30.6616 42.153 30.5227 42.153Z" fill="white"/>
<path d="M21.0642 26.6506C20.9974 26.6506 20.9305 26.6249 20.8842 26.5734L20.2671 25.9563C20.1642 25.8534 20.1642 25.694 20.2671 25.5912C20.3699 25.4883 20.5294 25.4883 20.6322 25.5912L21.0642 26.0232L22.1597 24.9277C22.2625 24.8249 22.4219 24.8249 22.5248 24.9277C22.6277 25.0306 22.6277 25.19 22.5248 25.2929L21.2442 26.5734C21.1979 26.6249 21.1311 26.6506 21.0642 26.6506Z" fill="white"/>
<path d="M21.0642 34.0725C20.9974 34.0725 20.9305 34.0467 20.8842 33.9953L20.2671 33.3782C20.1642 33.2753 20.1642 33.1159 20.2671 33.013C20.3699 32.9102 20.5294 32.9102 20.6322 33.013L21.0642 33.445L22.1597 32.3496C22.2625 32.2467 22.4219 32.2467 22.5248 32.3496C22.6277 32.4525 22.6277 32.6119 22.5248 32.7147L21.2442 33.9953C21.1979 34.0467 21.1311 34.0725 21.0642 34.0725Z" fill="white"/>
<path d="M21.0642 41.4943C20.9974 41.4943 20.9305 41.4686 20.8842 41.4172L20.2671 40.8001C20.1642 40.6972 20.1642 40.5378 20.2671 40.4349C20.3699 40.3321 20.5294 40.3321 20.6322 40.4349L21.0642 40.8669L22.1597 39.7715C22.2625 39.6686 22.4219 39.6686 22.5248 39.7715C22.6277 39.8743 22.6277 40.0338 22.5248 40.1366L21.2442 41.4172C21.1979 41.4686 21.1311 41.4943 21.0642 41.4943Z" fill="white"/>
<path d="M32.3465 21.5151H25.3111C24.4779 21.5151 23.8042 20.8414 23.8042 20.0083C23.8042 19.6071 23.9636 19.2214 24.2465 18.9489C24.5293 18.666 24.9048 18.5117 25.3111 18.5117H32.3465C33.1745 18.5117 33.8533 19.1854 33.8533 20.0134C33.8533 20.4146 33.6991 20.7951 33.4111 21.078C33.1282 21.3609 32.7476 21.5151 32.3465 21.5151ZM25.3111 19.0209C25.0488 19.0209 24.7968 19.1237 24.6116 19.3089C24.4213 19.494 24.3185 19.7409 24.3185 20.0031C24.3185 20.5483 24.7659 20.9957 25.3111 20.9957H32.3465C32.6088 20.9957 32.8608 20.8929 33.0459 20.7026C33.2311 20.5123 33.3391 20.2654 33.3391 20.0031C33.3391 19.458 32.8916 19.0157 32.3465 19.0157H25.3111V19.0209Z" fill="white"/>
<path d="M42.1487 48.7117H39.7984C39.0424 48.7117 38.4253 48.0945 38.4253 47.3385V41.8665C38.4253 41.7225 38.5384 41.6094 38.6824 41.6094C38.8264 41.6094 38.9396 41.7225 38.9396 41.8665V47.3385C38.9396 47.8117 39.3253 48.1974 39.7984 48.1974H42.1487C42.6219 48.1974 43.0076 47.8117 43.0076 47.3385V41.8717C43.0076 41.7277 43.1207 41.6145 43.2647 41.6145C43.4087 41.6145 43.5219 41.7277 43.5219 41.8717V47.3385C43.5219 48.0945 42.9047 48.7117 42.1487 48.7117Z" fill="white"/>
<path d="M40.97 42.483C36.7374 42.483 33.2969 39.0424 33.2969 34.8099C33.2969 30.5773 36.7374 27.1367 40.97 27.1367C45.2026 27.1367 48.6432 30.5773 48.6432 34.8099C48.6432 39.0424 45.2026 42.483 40.97 42.483ZM40.97 27.651C37.0203 27.651 33.8112 30.8653 33.8112 34.8099C33.8112 38.7544 37.0203 41.9687 40.97 41.9687C44.9197 41.9687 48.1289 38.7544 48.1289 34.8099C48.1289 30.8653 44.9197 27.651 40.97 27.651Z" fill="white"/>
<path d="M40.9745 40.3241C37.9403 40.3241 35.4717 37.8555 35.4717 34.8212C35.4717 31.7869 37.9403 29.3184 40.9745 29.3184C44.0088 29.3184 46.4774 31.7869 46.4774 34.8212C46.4774 37.8555 44.0088 40.3241 40.9745 40.3241ZM40.9745 29.8326C38.2231 29.8326 35.986 32.0698 35.986 34.8212C35.986 37.5726 38.2231 39.8098 40.9745 39.8098C43.726 39.8098 45.9631 37.5726 45.9631 34.8212C45.9631 32.0698 43.726 29.8326 40.9745 29.8326Z" fill="white"/>
<path d="M39.1283 34.8162C39.0255 34.7391 38.8763 34.6825 38.6912 34.6362L38.3209 34.554C38.0175 34.482 37.8992 34.4408 37.8529 34.4151C37.7655 34.3637 37.7192 34.2865 37.7192 34.1785C37.7192 34.0757 37.7603 33.9882 37.8426 33.9111C37.9249 33.834 38.0638 33.7928 38.2592 33.7928C38.5009 33.7928 38.6758 33.8545 38.7683 33.978C38.8198 34.0448 38.8558 34.1477 38.8712 34.2762L38.8763 34.3277H39.3238V34.2711C39.3238 33.9574 39.2158 33.726 39.0049 33.582C38.7992 33.4431 38.5523 33.3711 38.2643 33.3711C37.9506 33.3711 37.6986 33.4534 37.5238 33.618C37.3489 33.7825 37.2563 33.9934 37.2563 34.2454C37.2563 34.4871 37.3489 34.6671 37.5341 34.7905C37.6369 34.8574 37.8066 34.9191 38.0535 34.9757L38.4135 35.058C38.5986 35.0991 38.7375 35.1505 38.8249 35.2071C38.8969 35.2585 38.9329 35.3408 38.9329 35.4694C38.9329 35.634 38.8403 35.7471 38.6501 35.814C38.5472 35.85 38.4289 35.8705 38.3003 35.8705C38.0175 35.8705 37.8272 35.7934 37.7192 35.634C37.6626 35.5517 37.6318 35.4334 37.6215 35.2945L37.6163 35.238H37.1638V35.2945C37.1586 35.598 37.2563 35.8397 37.4569 36.0197C37.6523 36.1997 37.9249 36.2871 38.2695 36.2871C38.5626 36.2871 38.8198 36.2202 39.0461 36.0917C39.2775 35.9528 39.3958 35.7265 39.3958 35.4128C39.4061 35.1505 39.3135 34.95 39.1283 34.8162Z" fill="white"/>
<path d="M40.2444 34.988H41.7101V34.5611H40.2444V33.872H41.8284V33.4297H39.7764V36.2017H41.8541V35.7697H40.2444V34.988Z" fill="white"/>
<path d="M44.4973 33.8286C44.2607 33.5149 43.8955 33.3555 43.4121 33.3555C42.9441 33.3555 42.5893 33.5303 42.3475 33.8698C42.1624 34.132 42.0698 34.456 42.0698 34.8263C42.0698 35.2326 42.1778 35.5772 42.3938 35.8498C42.6355 36.1326 42.975 36.2766 43.4018 36.2766C43.8544 36.2766 44.2093 36.112 44.4561 35.7932C44.6618 35.5206 44.7698 35.176 44.7698 34.7698C44.775 34.384 44.6824 34.0703 44.4973 33.8286ZM43.4481 35.8343C43.1293 35.8343 42.9081 35.7418 42.7744 35.5566C42.6355 35.3663 42.5635 35.1298 42.5635 34.8469C42.5635 34.4972 42.6458 34.2298 42.8104 34.0549C42.975 33.88 43.1807 33.7926 43.4378 33.7926C43.7053 33.7926 43.911 33.88 44.0601 34.0549C44.2144 34.2349 44.2915 34.4715 44.2915 34.7698C44.2915 35.0526 44.2247 35.3046 44.0858 35.5206C43.9521 35.7315 43.7464 35.8343 43.4481 35.8343Z" fill="white"/>
<defs>
<linearGradient id="paint0_linear_19_355" x1="64" y1="7.62939e-06" x2="7.62939e-06" y2="64" gradientUnits="userSpaceOnUse">
<stop stop-color="#F65A75"/>
<stop offset="1" stop-color="#48179C"/>
</linearGradient>
</defs>
</svg>
