<svg width="64" height="64" viewBox="0 0 64 64" fill="none" xmlns="http://www.w3.org/2000/svg">
<rect width="64" height="64" rx="32" fill="url(#paint0_linear_37_137)"/>
<path d="M46.7788 33.55C46.4222 33.55 46.0887 33.6512 45.8056 33.8267C45.4856 33.2696 44.8847 32.8937 44.1975 32.8937C43.8116 32.8937 43.4524 33.0127 43.1551 33.2161C42.8221 32.7209 42.2565 32.3945 41.6161 32.3945C41.3578 32.3945 41.1116 32.4476 40.8881 32.5435V28.273C40.8855 27.2537 40.0541 26.4244 39.0349 26.4244C38.013 26.4244 37.1817 27.2557 37.1817 28.2776V34.7864L35.8773 33.1218C34.9758 31.9714 33.938 32.0465 33.3234 32.4602C32.3656 33.1049 31.9522 34.7797 32.9183 36.4664C33.8623 38.1144 34.6487 39.2122 35.2806 40.0943C36.4103 41.6716 36.926 42.3914 36.9745 44.256L36.9769 44.256V45.9549C36.9769 46.2655 37.2288 46.5174 37.5394 46.5174H46.589C46.8996 46.5174 47.1515 46.2655 47.1515 45.9549V43.9126C48.4848 41.677 48.6321 38.6264 48.6321 37.3992L48.6321 35.4031C48.632 34.3813 47.8007 33.55 46.7788 33.55ZM46.0263 45.3924H38.1018V44.3235H46.0263V45.3924ZM47.5069 37.3992C47.5069 38.5064 47.3815 41.2157 46.2652 43.1985H38.0148C37.7916 41.6692 37.1507 40.7733 36.195 39.4391C35.578 38.5777 34.81 37.5056 33.8943 35.9072C33.2267 34.7416 33.4985 33.6984 33.9514 33.3935C34.3703 33.1118 34.8185 33.5948 34.9916 33.8158L37.3013 36.7632C37.4493 36.952 37.7009 37.026 37.9276 36.948C38.1544 36.8697 38.3066 36.6562 38.3066 36.4163V28.2777C38.3066 27.8761 38.6333 27.5495 39.0348 27.5495C39.4353 27.5495 39.7619 27.8754 39.7629 28.2745V35.042C39.7629 35.3526 40.0148 35.6045 40.3254 35.6045C40.6361 35.6045 40.8879 35.3526 40.8879 35.042V34.2478C40.8879 33.8462 41.2146 33.5196 41.616 33.5196C42.0176 33.5196 42.3442 33.8463 42.3442 34.2478V34.7416C42.3442 35.0518 42.5954 35.3034 42.9055 35.3041H42.9067C43.2164 35.3041 43.4679 35.0536 43.4692 34.7438C43.4708 34.3439 43.7975 34.0188 44.1973 34.0188C44.5989 34.0188 44.9255 34.3454 44.9255 34.7469V35.4031C44.9255 35.7138 45.1773 35.9656 45.488 35.9656C45.7986 35.9656 46.0505 35.7138 46.0505 35.4031C46.0505 35.0016 46.3771 34.675 46.7786 34.675C47.1801 34.675 47.5067 35.0017 47.5067 35.4031L47.5069 37.3992ZM18.4913 27.214C18.6851 27.3313 18.9301 27.3211 19.1133 27.1879C19.2965 27.0548 19.382 26.8249 19.3304 26.6044L18.985 25.132L20.13 24.1436C20.3014 23.9956 20.3673 23.7593 20.2974 23.544C20.2274 23.3286 20.0352 23.1763 19.8096 23.1573L18.3023 23.0307L17.7161 21.6364C17.6284 21.4276 17.4241 21.2919 17.1976 21.2919C16.9711 21.2919 16.7668 21.4278 16.679 21.6364L16.093 23.0307L14.5857 23.1573C14.3601 23.1763 14.1678 23.3286 14.0979 23.544C14.0279 23.7593 14.0939 23.9956 14.2653 24.1436L15.4102 25.132L15.0649 26.6044C15.0132 26.8249 15.0987 27.0548 15.2819 27.188C15.3802 27.2593 15.4962 27.2953 15.6126 27.2953C15.7132 27.2953 15.8141 27.2683 15.904 27.214L17.1976 26.4304L18.4913 27.214ZM16.4656 25.5585L16.5833 25.0571C16.6311 24.8532 16.5616 24.6396 16.4031 24.5029L16.0132 24.1663L16.5265 24.1232C16.7352 24.1057 16.9168 23.9737 16.998 23.7806L17.1975 23.3059L17.3971 23.7807C17.4783 23.9737 17.66 24.1057 17.8686 24.1232L18.3819 24.1663L17.992 24.5029C17.8335 24.6396 17.7641 24.8532 17.8118 25.0571L17.9295 25.5585L17.4889 25.2917C17.3993 25.2375 17.2984 25.2104 17.1975 25.2104C17.0965 25.2104 16.9956 25.2375 16.906 25.2917L16.4656 25.5585ZM22.445 25.132L22.0996 26.6044C22.048 26.8249 22.1335 27.0548 22.3167 27.1879C22.4999 27.3211 22.7452 27.3313 22.9387 27.214L24.2324 26.4305L25.5261 27.214C25.6159 27.2683 25.7168 27.2953 25.8174 27.2953C25.9338 27.2953 26.0499 27.2593 26.1481 27.1879C26.3313 27.0548 26.4168 26.8249 26.3651 26.6044L26.0198 25.1319L27.1647 24.1436C27.3361 23.9956 27.402 23.7593 27.3321 23.5439C27.2621 23.3286 27.0699 23.1763 26.8443 23.1573L25.337 23.0307L24.7509 21.6364C24.6632 21.4276 24.4588 21.2919 24.2324 21.2919C24.0059 21.2919 23.8016 21.4277 23.7138 21.6364L23.1277 23.0307L21.6205 23.1573C21.3948 23.1763 21.2026 23.3286 21.1326 23.544C21.0627 23.7593 21.1286 23.9957 21.3 24.1436L22.445 25.132ZM23.5614 24.1232C23.7701 24.1057 23.9517 23.9737 24.0328 23.7806L24.2324 23.3059L24.432 23.7806C24.5131 23.9737 24.6947 24.1057 24.9034 24.1232L25.4167 24.1663L25.0268 24.5029C24.8683 24.6397 24.7989 24.8532 24.8467 25.0571L24.9643 25.5586L24.5237 25.2918C24.4342 25.2376 24.3333 25.2104 24.2323 25.2104C24.1313 25.2104 24.0305 25.2376 23.9409 25.2918L23.5003 25.5585L23.618 25.0571C23.6658 24.8533 23.5963 24.6397 23.4378 24.5029L23.0479 24.1663L23.5614 24.1232ZM29.4798 25.132L29.1345 26.6044C29.0829 26.8249 29.1683 27.0548 29.3515 27.1879C29.5347 27.3211 29.78 27.3313 29.9735 27.214L31.2672 26.4305L32.5609 27.214C32.6507 27.2683 32.7516 27.2953 32.8522 27.2953C32.9686 27.2953 33.0847 27.2593 33.1829 27.1879C33.3661 27.0548 33.4516 26.8249 33.4 26.6044L33.0546 25.1319L34.1995 24.1436C34.3709 23.9956 34.4369 23.7593 34.3669 23.544C34.297 23.3286 34.1047 23.1763 33.8791 23.1573L32.3719 23.0307L31.7857 21.6364C31.698 21.4276 31.4937 21.2919 31.2672 21.2919C31.0407 21.2919 30.8364 21.4277 30.7486 21.6364L30.1626 23.0307L28.6553 23.1573C28.4297 23.1763 28.2374 23.3286 28.1675 23.544C28.0975 23.7593 28.1635 23.9957 28.3349 24.1436L29.4798 25.132ZM30.5962 24.1232C30.8049 24.1057 30.9865 23.9737 31.0676 23.7806L31.2672 23.3059L31.4668 23.7806C31.548 23.9737 31.7296 24.1057 31.9383 24.1232L32.4515 24.1663L32.0617 24.5029C31.9032 24.6397 31.8338 24.8532 31.8815 25.0571L31.9991 25.5586L31.5585 25.2918C31.469 25.2376 31.3681 25.2104 31.2671 25.2104C31.1662 25.2104 31.0653 25.2376 30.9757 25.2918L30.5352 25.5585L30.6528 25.0571C30.7006 24.8533 30.6311 24.6397 30.4727 24.5029L30.0827 24.1663L30.5962 24.1232ZM36.3316 22.7493L35.6527 25.6438C35.601 25.8643 35.6865 26.0943 35.8697 26.2274C35.9679 26.2988 36.084 26.3348 36.2004 26.3348C36.301 26.3348 36.4018 26.3078 36.4917 26.2534L39.0348 24.7134L41.5779 26.2534C41.7717 26.3707 42.0167 26.3605 42.1999 26.2274C42.3831 26.0943 42.4687 25.8643 42.417 25.6438L41.7381 22.7493L43.9887 20.8066C44.1601 20.6587 44.2261 20.4224 44.1561 20.207C44.0861 19.9917 43.8939 19.8393 43.6682 19.8203L40.7056 19.5716L39.5535 16.8308C39.4657 16.622 39.2613 16.4863 39.0349 16.4863C38.8084 16.4863 38.6041 16.6222 38.5163 16.8309L37.3643 19.5716L34.4016 19.8203C34.1759 19.8393 33.9836 19.9917 33.9137 20.207C33.8437 20.4224 33.9097 20.6587 34.0811 20.8066L36.3316 22.7493ZM37.7977 20.6641C38.0064 20.6466 38.1881 20.5146 38.2693 20.3216L39.0348 18.5004L39.8005 20.3216C39.8816 20.5146 40.0633 20.6466 40.272 20.6641L42.2407 20.8295L40.745 22.1204C40.5866 22.2572 40.5172 22.4708 40.565 22.6747L41.0161 24.598L39.3262 23.5746C39.2366 23.5204 39.1357 23.4932 39.0348 23.4932C38.9338 23.4932 38.833 23.5204 38.7433 23.5746L37.0535 24.598L37.5046 22.6747C37.5524 22.4708 37.483 22.2572 37.3245 22.1204L35.8289 20.8295L37.7977 20.6641ZM49.9021 23.544C49.8322 23.3286 49.6399 23.1763 49.4143 23.1573L47.9071 23.0307L47.3209 21.6364C47.2332 21.4276 47.0289 21.2919 46.8024 21.2919C46.5759 21.2919 46.3716 21.4278 46.2838 21.6364L45.6978 23.0307L44.1905 23.1573C43.9649 23.1763 43.7726 23.3286 43.7027 23.544C43.6327 23.7593 43.6987 23.9956 43.8701 24.1436L45.015 25.1319L44.6697 26.6044C44.6179 26.8249 44.7034 27.0548 44.8867 27.1879C45.0699 27.3211 45.315 27.3313 45.5087 27.214L46.8024 26.4304L48.0961 27.214C48.1859 27.2683 48.2868 27.2953 48.3874 27.2953C48.5038 27.2953 48.6199 27.2593 48.7181 27.1879C48.9013 27.0548 48.9869 26.8249 48.9351 26.6044L48.5897 25.1319L49.7347 24.1436C49.9061 23.9956 49.9721 23.7593 49.9021 23.544ZM47.5968 24.5029C47.4383 24.6397 47.3689 24.8532 47.4167 25.0571L47.5343 25.5585L47.0938 25.2917C47.0042 25.2375 46.9033 25.2104 46.8023 25.2104C46.7013 25.2104 46.6005 25.2375 46.5109 25.2917L46.0704 25.5585L46.1879 25.0571C46.2358 24.8533 46.1663 24.6397 46.0079 24.5029L45.6179 24.1663L46.1313 24.1232C46.3399 24.1057 46.5216 23.9737 46.6027 23.7806L46.8022 23.3059L47.0019 23.7807C47.083 23.9737 47.2647 24.1057 47.4733 24.1232L47.9866 24.1663L47.5968 24.5029ZM30.3166 35.9339C30.3166 32.579 27.5873 29.8497 24.2325 29.8497C20.8776 29.8497 18.1483 32.579 18.1483 35.9339C18.1483 39.2887 20.8776 42.018 24.2325 42.018C27.5872 42.018 30.3166 39.2886 30.3166 35.9339ZM19.2732 35.9339C19.2732 33.1993 21.498 30.9747 24.2324 30.9747C26.9669 30.9747 29.1916 33.1994 29.1916 35.9339C29.1916 37.2069 28.709 38.3691 27.9178 39.248C27.3982 38.5783 26.7115 38.0669 25.9366 37.7609C26.5907 37.2518 27.0127 36.4578 27.0127 35.5665C27.0127 34.0334 25.7655 32.7862 24.2324 32.7862C22.6993 32.7862 21.4521 34.0334 21.4521 35.5665C21.4521 36.4578 21.8741 37.2518 22.5283 37.7609C21.7533 38.0669 21.0666 38.5783 20.547 39.248C19.7558 38.369 19.2732 37.2069 19.2732 35.9339ZM24.2324 37.2218C23.3197 37.2218 22.5771 36.4792 22.5771 35.5665C22.5771 34.6538 23.3197 33.9112 24.2324 33.9112C25.1452 33.9112 25.8877 34.6538 25.8877 35.5665C25.8877 36.4792 25.1452 37.2218 24.2324 37.2218ZM21.3916 39.995C22.057 39.1004 23.1076 38.561 24.2325 38.561C25.3574 38.561 26.4079 39.1004 27.0733 39.995C26.268 40.56 25.2887 40.893 24.2325 40.893C23.1763 40.893 22.1969 40.56 21.3916 39.995ZM22.6477 44.1549H17.4245C16.9592 44.1549 16.5807 44.5334 16.5807 44.9987V46.6716C16.5807 47.1368 16.9592 47.5153 17.4245 47.5153H22.6477C23.1129 47.5153 23.4914 47.1368 23.4914 46.6716V44.9987C23.4914 44.5334 23.1129 44.1549 22.6477 44.1549ZM22.3664 46.3903H17.7057V45.2799H22.3664V46.3903ZM31.0404 44.1549H25.8171C25.3519 44.1549 24.9734 44.5334 24.9734 44.9987V46.6716C24.9734 47.1368 25.3519 47.5153 25.8171 47.5153H31.0404C31.5056 47.5153 31.8841 47.1368 31.8841 46.6716V44.9987C31.8841 44.5334 31.5056 44.1549 31.0404 44.1549ZM30.7591 46.3903H26.0984V45.2799H30.7591V46.3903Z" fill="white"/>
<defs>
<linearGradient id="paint0_linear_37_137" x1="64" y1="7.62939e-06" x2="7.62939e-06" y2="64" gradientUnits="userSpaceOnUse">
<stop stop-color="#F65A75"/>
<stop offset="1" stop-color="#48179C"/>
</linearGradient>
</defs>
</svg>
