<svg width="64" height="64" viewBox="0 0 64 64" fill="none" xmlns="http://www.w3.org/2000/svg">
<rect width="64" height="64" rx="32" fill="url(#paint0_linear_37_300)"/>
<path fill-rule="evenodd" clip-rule="evenodd" d="M31.25 31.25H30.5C30.086 31.25 29.75 31.586 29.75 32C29.75 32.414 30.086 32.75 30.5 32.75H31.25V36.5C31.25 36.914 31.586 37.25 32 37.25C32.414 37.25 32.75 36.914 32.75 36.5V32.75H33.5C33.914 32.75 34.25 32.414 34.25 32C34.25 31.586 33.914 31.25 33.5 31.25H32.75V27.5C32.75 27.086 32.414 26.75 32 26.75C31.586 26.75 31.25 27.086 31.25 27.5V31.25Z" fill="white"/>
<path fill-rule="evenodd" clip-rule="evenodd" d="M26.75 28.25H26C25.586 28.25 25.25 28.586 25.25 29C25.25 29.414 25.586 29.75 26 29.75H26.75V36.5C26.75 36.914 27.086 37.25 27.5 37.25C27.914 37.25 28.25 36.914 28.25 36.5V29.75H29C29.414 29.75 29.75 29.414 29.75 29C29.75 28.586 29.414 28.25 29 28.25H28.25V27.5C28.25 27.086 27.914 26.75 27.5 26.75C27.086 26.75 26.75 27.086 26.75 27.5V28.25Z" fill="white"/>
<path fill-rule="evenodd" clip-rule="evenodd" d="M35.75 34.25H35C34.586 34.25 34.25 34.586 34.25 35C34.25 35.414 34.586 35.75 35 35.75H35.75V36.5C35.75 36.914 36.086 37.25 36.5 37.25C36.914 37.25 37.25 36.914 37.25 36.5V35.75H38C38.414 35.75 38.75 35.414 38.75 35C38.75 34.586 38.414 34.25 38 34.25H37.25V27.5C37.25 27.086 36.914 26.75 36.5 26.75C36.086 26.75 35.75 27.086 35.75 27.5V34.25Z" fill="white"/>
<path fill-rule="evenodd" clip-rule="evenodd" d="M34.868 16.5775C34.6685 15.5628 33.8038 14.815 32.771 14.764C32.768 14.764 32.7643 14.7633 32.7613 14.7633C32.252 14.7445 31.742 14.7453 31.2328 14.7678C31.2313 14.7678 31.2305 14.7678 31.229 14.7678C30.1985 14.8188 29.3345 15.565 29.1358 16.5783C29.0435 17.026 28.9415 17.545 28.856 17.98C28.8005 18.2605 28.5913 18.4848 28.3153 18.559C27.899 18.6708 27.4873 18.8043 27.083 18.9565C27.0823 18.9573 27.0808 18.9573 27.08 18.958C26.8138 19.0593 26.5138 19.0015 26.3053 18.808C26.3038 18.8065 26.3023 18.805 26.3008 18.8035C25.976 18.5065 25.5913 18.1495 25.2545 17.8375C24.497 17.1333 23.3578 17.0365 22.4923 17.6028C22.4893 17.6043 22.487 17.6058 22.484 17.608C22.061 17.8923 21.6485 18.1923 21.2503 18.5095C21.2495 18.5103 21.248 18.511 21.2473 18.5118C20.4433 19.159 20.183 20.2705 20.6173 21.2073C20.8063 21.6235 21.029 22.1035 21.2158 22.5055C21.3358 22.765 21.2983 23.0703 21.1183 23.2923C20.8468 23.6268 20.5925 23.977 20.3548 24.3378C20.3548 24.3393 20.354 24.34 20.3533 24.3408C20.198 24.5793 19.9205 24.709 19.6385 24.6745C19.6363 24.6745 19.6348 24.6745 19.6325 24.6738C19.1953 24.625 18.674 24.562 18.218 24.5073C17.192 24.3828 16.2125 24.9745 15.845 25.9405C15.8443 25.9435 15.8428 25.9465 15.842 25.9495C15.6665 26.4288 15.509 26.9133 15.3733 27.4053C15.3733 27.406 15.3725 27.4075 15.3725 27.4083C15.1025 28.4043 15.5458 29.4565 16.4473 29.959C16.8448 30.1848 17.3068 30.442 17.6945 30.658C17.9443 30.7975 18.0928 31.066 18.0778 31.3518C18.0553 31.7815 18.0553 32.2143 18.0755 32.6463V32.6493C18.0898 32.9335 17.9413 33.2013 17.693 33.34C17.6915 33.3408 17.69 33.3415 17.6878 33.343C17.3053 33.5598 16.8463 33.8155 16.4458 34.039C15.542 34.5415 15.098 35.596 15.3688 36.5935C15.3695 36.5965 15.3703 36.5995 15.371 36.6033C15.5113 37.093 15.6688 37.5783 15.8473 38.0553C15.848 38.0568 15.8488 38.0575 15.8488 38.059C16.2155 39.0235 17.1928 39.6145 18.2173 39.4908C18.6718 39.4398 19.1968 39.376 19.6378 39.3228C19.9213 39.289 20.1995 39.4188 20.3555 39.6588C20.5895 40.0203 20.8438 40.3698 21.1138 40.7073C21.1145 40.7088 21.1153 40.7095 21.116 40.7103C21.2953 40.9315 21.332 41.2353 21.2128 41.4933C21.212 41.4955 21.2113 41.497 21.2105 41.4985C21.0283 41.8998 20.8078 42.376 20.6143 42.7923C20.1793 43.7298 20.4395 44.8435 21.245 45.4923C21.2473 45.4938 21.2495 45.496 21.2525 45.4983C21.6538 45.8125 22.0663 46.1125 22.4915 46.393C22.4923 46.3938 22.4938 46.3945 22.4945 46.3953C23.3585 46.96 24.4963 46.8633 25.2523 46.1613C25.5898 45.853 25.9775 45.493 26.3023 45.1908C26.5123 44.9965 26.8138 44.9388 27.0808 45.0408C27.4828 45.1953 27.8938 45.3288 28.3108 45.4435C28.3123 45.4435 28.313 45.4443 28.3145 45.4443C28.589 45.5185 28.7975 45.742 28.853 46.021C28.853 46.0233 28.8538 46.0248 28.8538 46.027C28.9423 46.4583 29.0435 46.9735 29.132 47.4235C29.3315 48.4383 30.1963 49.186 31.229 49.237C31.232 49.237 31.2358 49.2378 31.2388 49.2378C31.748 49.2565 32.258 49.2558 32.7673 49.2333H32.771C33.8015 49.1823 34.6655 48.436 34.8643 47.4228C34.9565 46.975 35.0585 46.456 35.144 46.021C35.1995 45.7405 35.4088 45.5163 35.6848 45.442C36.101 45.3303 36.5128 45.1968 36.917 45.0445C36.9178 45.0438 36.9193 45.0438 36.92 45.043C37.1863 44.9418 37.4863 44.9995 37.6948 45.193L37.6993 45.1975C38.024 45.4945 38.4088 45.8515 38.7455 46.1635C39.503 46.8678 40.6423 46.9645 41.5078 46.3983C41.5108 46.3968 41.513 46.3953 41.516 46.393C41.939 46.1088 42.3515 45.8088 42.7498 45.4915C42.7505 45.4908 42.752 45.49 42.7528 45.4893C43.5568 44.842 43.817 43.7305 43.3828 42.7938C43.1938 42.3775 42.971 41.8975 42.7843 41.4955C42.6643 41.236 42.7018 40.9308 42.8818 40.7088C43.1533 40.3743 43.4075 40.024 43.6453 39.6633C43.6453 39.6618 43.646 39.661 43.6468 39.6603C43.802 39.4218 44.0795 39.292 44.3615 39.3265C44.3638 39.3265 44.3653 39.3265 44.3675 39.3273C44.8048 39.376 45.326 39.439 45.782 39.4938C46.808 39.6183 47.7875 39.0265 48.155 38.0605C48.1558 38.0575 48.1573 38.0545 48.158 38.0515C48.3335 37.5723 48.491 37.0878 48.6268 36.5958C48.6268 36.595 48.6275 36.5935 48.6275 36.5928C48.8975 35.5968 48.4543 34.5445 47.5528 34.042C47.1553 33.8163 46.6933 33.559 46.3055 33.343C46.0558 33.2035 45.9073 32.935 45.9223 32.6493C45.9448 32.2195 45.9448 31.7868 45.9245 31.3548C45.9245 31.354 45.9245 31.3525 45.9245 31.3518C45.9103 31.0675 46.0588 30.7998 46.307 30.661C46.3085 30.6603 46.31 30.6595 46.3123 30.658C46.6948 30.4413 47.1538 30.1855 47.5543 29.962C48.458 29.4595 48.902 28.405 48.6313 27.4075C48.6305 27.4045 48.6298 27.4015 48.629 27.3978C48.4888 26.908 48.3313 26.4228 48.1528 25.9458C48.152 25.9443 48.1513 25.9435 48.1513 25.942C47.7845 24.9775 46.8073 24.3865 45.7828 24.5103C45.3283 24.5613 44.8033 24.625 44.3623 24.6783C44.0788 24.712 43.8005 24.5823 43.6445 24.3423C43.4105 23.9808 43.1563 23.6313 42.8863 23.2938C42.8855 23.2923 42.8848 23.2915 42.884 23.2908C42.7048 23.0695 42.668 22.7658 42.7873 22.5078C42.788 22.5055 42.7888 22.504 42.7895 22.5025C42.9718 22.1013 43.1923 21.625 43.3858 21.2088C43.8208 20.2713 43.5605 19.1575 42.755 18.5088C42.7528 18.5073 42.7505 18.505 42.7475 18.5028C42.3463 18.1885 41.9338 17.8885 41.5085 17.608C41.5078 17.6073 41.5063 17.6065 41.5055 17.6058C40.6415 17.041 39.5038 17.1378 38.7478 17.8398C38.4103 18.148 38.0225 18.508 37.6978 18.8103C37.4878 19.0045 37.1863 19.0623 36.9193 18.9603C36.5173 18.8058 36.1063 18.6723 35.6893 18.5575C35.6878 18.5575 35.687 18.5568 35.6855 18.5568C35.411 18.4825 35.2025 18.259 35.147 17.98C35.147 17.9778 35.1463 17.9763 35.1463 17.974C35.0578 17.5428 34.9565 17.0275 34.868 16.5775ZM33.3958 16.8663C33.4858 17.32 33.5878 17.8405 33.6763 18.2748C33.8405 19.1095 34.469 19.7823 35.2955 20.005C35.6608 20.1055 36.0253 20.224 36.3823 20.3613H36.3838C37.184 20.668 38.0893 20.4925 38.7178 19.9098C39.0403 19.6098 39.425 19.2528 39.764 18.943C39.7655 18.9415 39.767 18.94 39.7685 18.9393C40.0198 18.706 40.397 18.6738 40.6843 18.8605C41.0728 19.1178 41.45 19.3923 41.8175 19.6795C42.0838 19.8963 42.1693 20.266 42.0253 20.5773L42.0245 20.578C41.8303 20.998 41.6075 21.478 41.4238 21.8823C41.066 22.6533 41.1793 23.5668 41.717 24.2328C41.9533 24.529 42.179 24.8388 42.3868 25.1598C42.3868 25.1605 42.3875 25.1605 42.3875 25.1605C42.8555 25.879 43.6903 26.2698 44.5415 26.167C44.9788 26.1145 45.5 26.0515 45.9568 26.0005C45.9583 25.9998 45.9598 25.9998 45.962 25.9998C46.3025 25.9585 46.6265 26.1543 46.7488 26.4745C46.9123 26.911 47.0563 27.355 47.1845 27.8035C47.273 28.135 47.1245 28.4845 46.8245 28.6518C46.4203 28.8768 45.9575 29.1348 45.572 29.3538C44.8288 29.7678 44.3833 30.5733 44.4268 31.4283C44.444 31.8063 44.444 32.1895 44.4238 32.5713V32.5728C44.3803 33.4285 44.8265 34.2355 45.575 34.6533C45.9598 34.867 46.4188 35.1228 46.8178 35.3493C46.8193 35.3508 46.8208 35.3515 46.823 35.3523C47.1223 35.5188 47.2693 35.8683 47.18 36.199C47.0555 36.6483 46.9115 37.0923 46.7518 37.5303C46.628 37.8505 46.3033 38.0463 45.962 38.005C45.962 38.005 45.962 38.005 45.9613 38.005C45.5023 37.9495 44.9765 37.8865 44.5355 37.8363C43.691 37.735 42.857 38.1243 42.3898 38.8413C42.1813 39.1585 41.9563 39.4683 41.7155 39.7653L41.7148 39.766C41.1763 40.4328 41.063 41.3478 41.423 42.1255C41.6083 42.5253 41.8295 43.0015 42.0193 43.42C42.02 43.4215 42.0208 43.423 42.0215 43.4245C42.1663 43.7358 42.08 44.1048 41.813 44.32C41.4485 44.6103 41.0713 44.8848 40.6843 45.145C40.3963 45.331 40.0175 45.2988 39.7663 45.0648C39.7663 45.0648 39.7663 45.0648 39.7655 45.0648C39.4265 44.7498 39.0388 44.3898 38.711 44.0898C38.0878 43.5115 37.184 43.336 36.3845 43.642C36.0298 43.7755 35.666 43.894 35.2963 43.993C35.2955 43.993 35.2955 43.993 35.2948 43.993C34.4675 44.2158 33.8383 44.8893 33.6725 45.7308C33.587 46.1628 33.4858 46.678 33.3935 47.128C33.3935 47.1295 33.3928 47.1318 33.3928 47.1333C33.3268 47.47 33.0403 47.7175 32.6975 47.7348C32.2318 47.7558 31.7653 47.7558 31.2995 47.7385C30.9568 47.7205 30.6703 47.4715 30.6043 47.1348C30.5143 46.681 30.4123 46.1605 30.3238 45.7263C30.1595 44.8915 29.531 44.2188 28.7045 43.996C28.3393 43.8955 27.9748 43.777 27.6178 43.6398C27.617 43.6398 27.617 43.6398 27.6163 43.6398C26.816 43.333 25.9108 43.5085 25.2823 44.0913C24.9598 44.3913 24.575 44.7483 24.236 45.058C24.2345 45.0595 24.233 45.061 24.2315 45.0618C23.9803 45.295 23.603 45.3273 23.3158 45.1405C22.9273 44.8833 22.55 44.6088 22.1825 44.3215C21.9163 44.1048 21.8308 43.735 21.9748 43.4238L21.9755 43.423C22.1698 43.003 22.3925 42.523 22.5763 42.1188C22.934 41.3478 22.8208 40.4343 22.283 39.7683C22.0468 39.472 21.821 39.1623 21.6133 38.8413C21.6133 38.8405 21.6125 38.8405 21.6125 38.8405C21.1445 38.122 20.3098 37.7313 19.4585 37.834C19.0213 37.8865 18.5 37.9495 18.0433 38.0005C18.0418 38.0013 18.0403 38.0013 18.038 38.0013C17.6975 38.0425 17.3735 37.8468 17.2513 37.5265C17.0878 37.09 16.9438 36.646 16.8155 36.1975C16.727 35.866 16.8755 35.5165 17.1755 35.3493C17.5798 35.1243 18.0425 34.8663 18.428 34.6473C19.1713 34.2333 19.6168 33.4278 19.5733 32.5728C19.556 32.1948 19.556 31.8115 19.5763 31.4298C19.5763 31.429 19.5763 31.429 19.5763 31.4283C19.6198 30.5725 19.1735 29.7655 18.425 29.3478C18.0403 29.134 17.5813 28.8783 17.1823 28.6518C17.1808 28.6503 17.1793 28.6495 17.177 28.6488C16.8778 28.4823 16.7308 28.1328 16.82 27.802C16.9445 27.3528 17.0885 26.9088 17.2483 26.4708C17.372 26.1505 17.6968 25.9548 18.038 25.996H18.0388C18.4978 26.0515 19.0235 26.1145 19.4645 26.1648C20.309 26.266 21.143 25.8768 21.6103 25.1598C21.8188 24.8425 22.0438 24.5328 22.2845 24.2358L22.2853 24.235C22.8238 23.5683 22.937 22.6533 22.577 21.8755C22.3918 21.4758 22.1705 20.9995 21.9808 20.581C21.98 20.5795 21.9793 20.578 21.9785 20.5765C21.8338 20.2653 21.92 19.8963 22.187 19.681C22.5515 19.3908 22.9288 19.1163 23.3158 18.856C23.6038 18.67 23.9825 18.7023 24.2338 18.9363H24.2345C24.5735 19.2513 24.9613 19.6113 25.289 19.9113C25.9123 20.4895 26.816 20.665 27.6155 20.359C27.9703 20.2255 28.334 20.107 28.7038 20.008H28.7053C29.5325 19.7853 30.1618 19.1118 30.3275 18.2703C30.413 17.8383 30.5143 17.323 30.6065 16.873C30.6065 16.8715 30.6073 16.8693 30.6073 16.8678C30.6733 16.531 30.9598 16.2835 31.3025 16.2663C31.7683 16.2453 32.2348 16.2453 32.7005 16.2625C33.0433 16.2805 33.3298 16.5295 33.3958 16.8663ZM32 22.2505C26.6188 22.2505 22.25 26.6193 22.25 32.0005C22.25 37.3818 26.6188 41.7505 32 41.7505C37.3813 41.7505 41.75 37.3818 41.75 32.0005C41.75 26.6193 37.3813 22.2505 32 22.2505ZM32 23.7505C36.5533 23.7505 40.25 27.4473 40.25 32.0005C40.25 36.5538 36.5533 40.2505 32 40.2505C27.4468 40.2505 23.75 36.5538 23.75 32.0005C23.75 27.4473 27.4468 23.7505 32 23.7505Z" fill="white"/>
<defs>
<linearGradient id="paint0_linear_37_300" x1="64" y1="7.62939e-06" x2="7.62939e-06" y2="64" gradientUnits="userSpaceOnUse">
<stop stop-color="#F65A75"/>
<stop offset="1" stop-color="#48179C"/>
</linearGradient>
</defs>
</svg>
