<svg width="64" height="64" viewBox="0 0 64 64" fill="none" xmlns="http://www.w3.org/2000/svg">
<rect width="64" height="64" rx="32" fill="url(#paint0_linear_18_184)"/>
<path d="M46.0862 22.8729H39.7134C39.7145 22.8452 39.7155 22.8176 39.7155 22.7896V16.3789C39.7155 15.1361 38.7054 14.125 37.4638 14.125H17.6678C16.4262 14.125 15.416 15.1361 15.416 16.3789V22.7896C15.416 24.0324 16.4262 25.0435 17.6678 25.0435H18.214V41.3903C18.214 42.7851 19.3487 43.9199 20.7436 43.9199H30.417L28.9747 46.4196H26.2367C25.307 46.4196 24.5507 47.175 24.5507 48.1036V49.5438C24.5507 49.8648 24.8109 50.125 25.1319 50.125H41.6978C42.0189 50.125 42.2791 49.8648 42.2791 49.5438V48.1036C42.2791 47.1751 41.5237 46.4196 40.5951 46.4196H37.8569L36.4133 43.9199H46.0862C47.4821 43.9199 48.6179 42.7851 48.6179 41.3903V25.4025C48.6179 24.0077 47.4822 22.8729 46.0862 22.8729ZM46.0862 24.0354C46.8412 24.0354 47.4554 24.6487 47.4554 25.4025V38.69H19.3764V25.6089L21.0297 28.4382C21.1339 28.6165 21.3249 28.7261 21.5313 28.7262H21.5315C21.738 28.7262 21.9289 28.6167 22.0332 28.4384L24.0189 25.0435H37.4637C38.2455 25.0435 38.9352 24.6425 39.3391 24.0354H46.0862ZM16.5784 22.7896V16.3789C16.5784 15.7771 17.0671 15.2874 17.6678 15.2874H37.4638C38.0644 15.2874 38.5532 15.7771 38.5532 16.3789V22.7896C38.5532 23.3914 38.0645 23.8811 37.4638 23.8811H23.6856C23.4791 23.8811 23.2881 23.9906 23.1839 24.1688L21.5317 26.9934L19.8813 24.1691C19.7771 23.9907 19.5861 23.8811 19.3795 23.8811H17.6678C17.0671 23.8811 16.5784 23.3914 16.5784 22.7896ZM41.1166 48.1035V48.9625H25.7131V48.1035C25.7131 47.816 25.948 47.582 26.2367 47.582H29.3082C29.3087 47.582 29.3093 47.582 29.3098 47.582C29.3104 47.582 29.3109 47.582 29.3114 47.582H37.5203C37.5208 47.582 37.5214 47.582 37.5219 47.582C37.5224 47.582 37.523 47.582 37.5236 47.582H40.5951C40.8826 47.582 41.1166 47.816 41.1166 48.1035ZM36.5145 46.4195H30.3167L31.759 43.9198H35.0708L36.5145 46.4195ZM46.0861 42.7574H20.7436C19.9897 42.7574 19.3764 42.1441 19.3764 41.3903V39.8524H47.4554V41.3903C47.4554 42.1441 46.8411 42.7574 46.0861 42.7574ZM29.5869 31.2348C30.0432 30.7328 30.3217 30.0664 30.3217 29.3361C30.3217 27.7791 29.054 26.5124 27.4958 26.5124C25.9376 26.5124 24.6721 27.7791 24.6721 29.3361C24.6721 30.0664 24.9503 30.7329 25.4063 31.2349C24.0953 31.5582 23.129 32.6364 23.129 33.9137V36.6418C23.129 36.9628 23.3892 37.223 23.7103 37.223H31.2835C31.6045 37.223 31.8647 36.9628 31.8647 36.6418V33.9137C31.8647 32.6362 30.8982 31.558 29.587 31.2347L29.5869 31.2348ZM27.4958 27.6748C28.413 27.6748 29.1592 28.4201 29.1592 29.3361C29.1592 30.2522 28.413 30.9995 27.4958 30.9995C26.5785 30.9995 25.8344 30.2533 25.8344 29.3361C25.8344 28.4189 26.5798 27.6748 27.4958 27.6748ZM30.7023 36.0607H24.2915V33.9138C24.2915 33.0227 25.1595 32.2977 26.2264 32.2977H28.7673C29.8342 32.2977 30.7023 33.0227 30.7023 33.9138V36.0607ZM40.0653 33.7945C40.0653 34.1155 39.8051 34.3757 39.4841 34.3757H35.7211C35.4001 34.3757 35.1399 34.1155 35.1399 33.7945C35.1399 33.4735 35.4001 33.2133 35.7211 33.2133H39.4841C39.8051 33.2133 40.0653 33.4735 40.0653 33.7945ZM43.6946 31.1816C43.6946 31.5026 43.4344 31.7628 43.1134 31.7628H35.7211C35.4001 31.7628 35.1399 31.5026 35.1399 31.1816C35.1399 30.8606 35.4001 30.6004 35.7211 30.6004H43.1134C43.4344 30.6004 43.6946 30.8606 43.6946 31.1816ZM35.7212 27.9896H43.1134C43.4344 27.9896 43.6946 28.2498 43.6946 28.5709C43.6946 28.8919 43.4344 29.1521 43.1134 29.1521H35.7212C35.4002 29.1521 35.14 28.8919 35.14 28.5709C35.14 28.2498 35.4002 27.9896 35.7212 27.9896ZM25.5427 19.9768L25.3932 21.0706C25.3527 21.3722 25.4747 21.6618 25.7192 21.8452C25.724 21.8488 25.7289 21.8524 25.7338 21.8559C25.983 22.0309 26.2948 22.0577 26.5712 21.9265L27.5657 21.4473L28.5631 21.9279C28.6777 21.9823 28.799 22.0092 28.9196 22.0092C29.0869 22.0092 29.2529 21.9575 29.3976 21.8559C29.4025 21.8524 29.4075 21.8488 29.4122 21.8452C29.6565 21.6619 29.7785 21.3725 29.7381 21.0691L29.5888 19.9767L30.3552 19.1756C30.5659 18.9514 30.6349 18.6431 30.5385 18.3468C30.4409 18.0545 30.2021 17.8477 29.9017 17.7943L28.817 17.5974L28.2944 16.6275C28.1511 16.3579 27.8723 16.1905 27.5657 16.1905C27.259 16.1905 26.9779 16.3593 26.838 16.6257L26.3144 17.5974L25.2316 17.794C24.9276 17.8481 24.6823 18.0628 24.5903 18.3549C24.497 18.6458 24.5664 18.9523 24.7798 19.1795L25.5426 19.9767L25.5427 19.9768ZM26.7973 18.6913C26.9712 18.6597 27.1213 18.5507 27.2051 18.3951L27.5657 17.7257L27.9265 18.3951C28.0103 18.5507 28.1605 18.6597 28.3343 18.6912L29.0805 18.8267L28.5552 19.3758C28.4326 19.5038 28.3752 19.6807 28.3993 19.8562L28.502 20.6081L27.818 20.2785C27.7383 20.2401 27.652 20.2209 27.5657 20.2209C27.4795 20.2209 27.3932 20.2402 27.3135 20.2786L26.6296 20.6081L26.7323 19.8563C26.7563 19.6807 26.6989 19.5039 26.5764 19.3758L26.051 18.8268L26.7973 18.6913ZM19.5107 21.9264L20.503 21.4475L21.4973 21.9266L21.5051 21.9303C21.7822 22.0586 22.0946 22.0293 22.3432 21.8498C22.5919 21.6682 22.7161 21.3771 22.6752 21.0701L22.5276 19.9772L23.2943 19.1757C23.505 18.9515 23.574 18.6432 23.4777 18.3473C23.3822 18.0603 23.1382 17.8485 22.8407 17.7944L21.7539 17.5974L21.2314 16.6277C21.0882 16.358 20.8094 16.1906 20.5027 16.1906C20.196 16.1906 19.9256 16.3517 19.7747 16.6264L19.253 17.5975L18.1663 17.7945C17.8691 17.8486 17.6252 18.0604 17.5284 18.3511C17.4334 18.6432 17.5025 18.9515 17.7168 19.1796L18.48 19.9772L18.3329 21.0659C18.2886 21.3681 18.4151 21.6678 18.6669 21.8516C18.8116 21.9561 18.9792 22.0093 19.1492 22.0093C19.2682 22.0093 19.3884 21.9832 19.5025 21.9303C19.5052 21.929 19.508 21.9277 19.5107 21.9264ZM18.9882 18.8269L19.7362 18.6913C19.9104 18.6598 20.0608 18.5505 20.1446 18.3945L20.5033 17.7267L20.8635 18.3951C20.9474 18.5508 21.0975 18.6598 21.2714 18.6913L22.0194 18.8269L21.4943 19.3758C21.372 19.5036 21.3145 19.6802 21.3383 19.8554L21.44 20.6086L20.755 20.2786C20.6753 20.2402 20.589 20.221 20.5027 20.221C20.4165 20.221 20.3299 20.2403 20.2502 20.2788L19.5678 20.6082L19.6695 19.8555C19.6931 19.6802 19.6357 19.5037 19.5135 19.3759L18.9882 18.827L18.9882 18.8269ZM32.6039 19.9772L32.4561 21.0711C32.4153 21.3771 32.5395 21.6682 32.7907 21.8516C32.9355 21.9561 33.1031 22.0093 33.2731 22.0093C33.3921 22.0093 33.5123 21.9832 33.6264 21.9303L33.6342 21.9266L34.629 21.4473C34.9593 21.6063 35.2889 21.7654 35.6197 21.926C35.6228 21.9275 35.626 21.929 35.6291 21.9305C35.9062 22.0587 36.2185 22.0293 36.4671 21.8499C36.7158 21.6683 36.84 21.3772 36.7991 21.0702L36.6515 19.9774L37.4182 19.1759C37.6289 18.9517 37.6979 18.6434 37.6015 18.3471C37.5058 18.0604 37.2619 17.8488 36.9646 17.7946L35.8783 17.5977L35.3565 16.6262C35.3556 16.6246 35.3548 16.623 35.3539 16.6214C35.2055 16.3518 34.9344 16.1908 34.6287 16.1908C34.3208 16.1908 34.0409 16.3596 33.901 16.6259L33.3775 17.5976L32.2903 17.7947C31.9932 17.8488 31.7492 18.0606 31.6526 18.3509C31.5574 18.6429 31.6263 18.9513 31.8408 19.1798L32.604 19.9774L32.6039 19.9772ZM33.8599 18.6913C34.034 18.6598 34.1842 18.5508 34.2681 18.3951L34.6283 17.7266L34.9872 18.3949C35.071 18.5506 35.2213 18.6598 35.3953 18.6913L36.1433 18.8269L35.6181 19.3759C35.4959 19.5037 35.4384 19.6802 35.4622 19.8555L35.5637 20.6074C35.3361 20.4974 35.1086 20.3879 34.8803 20.2783C34.7211 20.2018 34.5356 20.2019 34.3765 20.2786L33.6916 20.6086L33.7934 19.8555C33.817 19.6802 33.7596 19.5036 33.6374 19.3758L33.1121 18.8269L33.86 18.6913H33.8599Z" fill="white"/>
<defs>
<linearGradient id="paint0_linear_18_184" x1="64" y1="7.62939e-06" x2="7.62939e-06" y2="64" gradientUnits="userSpaceOnUse">
<stop stop-color="#F65A75"/>
<stop offset="1" stop-color="#48179C"/>
</linearGradient>
</defs>
</svg>
