<svg width="64" height="64" viewBox="0 0 64 64" fill="none" xmlns="http://www.w3.org/2000/svg">
<rect width="64" height="64" rx="32" fill="url(#paint0_linear_112_3475)"/>
<path d="M29.1568 45.9832L40.8549 31.968H31.8129L33.4517 19.1396L22.9968 34.2285H30.8522L29.1568 45.9832ZM28.2616 36.489H21.514C20.9006 36.489 20.456 36.2216 20.1802 35.6866C19.9045 35.1516 19.9451 34.6384 20.3023 34.1471L33.0268 15.7126C33.2573 15.3886 33.5437 15.1739 33.8858 15.0684C34.2279 14.9629 34.5895 14.9795 34.9708 15.1181C35.3521 15.2568 35.6271 15.4858 35.7959 15.8053C35.9647 16.1248 36.0265 16.4737 35.9813 16.8519L34.3921 29.7075H42.4983C43.1313 29.7075 43.5796 29.9961 43.8434 30.5733C44.1086 31.1505 44.037 31.6854 43.6286 32.1782L29.4687 49.1389C29.2276 49.4252 28.9367 49.6083 28.5962 49.6882C28.2541 49.7666 27.9165 49.7312 27.5834 49.582C27.2504 49.4343 26.9957 49.2105 26.8194 48.9106C26.6446 48.6107 26.5805 48.2716 26.6272 47.8934L28.2616 36.489Z" fill="white"/>
<defs>
<linearGradient id="paint0_linear_112_3475" x1="64" y1="7.62939e-06" x2="7.62939e-06" y2="64" gradientUnits="userSpaceOnUse">
<stop stop-color="#F65A75"/>
<stop offset="1" stop-color="#48179C"/>
</linearGradient>
</defs>
</svg>
