<svg width="64" height="64" viewBox="0 0 64 64" fill="none" xmlns="http://www.w3.org/2000/svg">
<rect width="64" height="64" rx="32" fill="url(#paint0_linear_37_133)"/>
<g clip-path="url(#clip0_37_133)">
<path d="M31.895 46.7889C31.895 46.0298 32.5124 45.4123 33.2715 45.4123H35.5817C36.3408 45.4123 36.9583 46.0298 36.9583 46.7889C36.9583 47.548 36.3408 48.1655 35.5817 48.1655H33.2715C32.5124 48.1655 31.895 47.548 31.895 46.7889ZM31.7484 25.2041L31.3929 26.7842C31.3467 26.9897 31.427 27.2029 31.5974 27.3266C31.7677 27.4504 31.9953 27.461 32.1764 27.3535L33.5693 26.5272L34.9623 27.3535C35.0455 27.4029 35.1385 27.4274 35.2313 27.4274C35.3405 27.4274 35.4493 27.3935 35.5413 27.3266C35.7117 27.2029 35.792 26.9897 35.7458 26.7842L35.3903 25.2042L36.6067 24.1348C36.7648 23.9957 36.8251 23.776 36.76 23.5757C36.6949 23.3755 36.517 23.2332 36.3073 23.2137L34.6948 23.0636L34.0536 21.5762C33.9702 21.3829 33.7798 21.2577 33.5693 21.2577C33.3587 21.2577 33.1684 21.3829 33.085 21.5762L32.444 23.0635L30.8313 23.2137C30.6217 23.2332 30.4436 23.3756 30.3786 23.5758C30.3135 23.776 30.3738 23.9958 30.5319 24.1348L31.7484 25.2041ZM49.2356 37.0463C49.4369 37.7973 48.9897 38.572 48.2387 38.7732C48.117 38.8058 47.9945 38.8214 47.874 38.8214C47.2515 38.8214 46.6803 38.4055 46.5117 37.7763L46.4989 37.7285L45.7422 37.6948V47.7613C45.7422 48.8601 44.8481 49.7541 43.7493 49.7541H25.1038C24.005 49.7541 23.111 48.8601 23.111 47.7613V29.5864H16.3851C15.2057 29.5864 14.2461 28.6268 14.2461 27.4473V21.2377C14.2461 20.0582 15.2056 19.0986 16.3851 19.0986H23.1112V16.2389C23.1112 15.14 24.0051 14.2461 25.104 14.2461H43.7494C44.8483 14.2461 45.7423 15.14 45.7423 16.2389V24.9005C45.9461 25.0816 46.0929 25.3174 46.1649 25.5859L46.9873 28.655C48.5236 28.7187 49.754 29.9879 49.754 31.5397C49.754 32.5455 49.2413 33.456 48.4138 33.9788L49.2356 37.0463ZM27.4876 28.5317C27.6232 28.5317 27.7535 28.5839 27.8516 28.6774L31.0707 31.7474V29.059C31.0707 28.7677 31.3068 28.5317 31.5981 28.5317H36.4444C37.0423 28.5317 37.5287 28.0452 37.5287 27.4473V21.2377C37.5287 20.6397 37.0423 20.1533 36.4444 20.1533H16.3851C15.7872 20.1533 15.3008 20.6397 15.3008 21.2377V27.4473C15.3008 28.0452 15.7872 28.5317 16.3851 28.5317H27.4876ZM44.6875 44.8786H24.1659V47.761C24.1659 48.2783 24.5867 48.6992 25.104 48.6992H43.7494C44.2667 48.6992 44.6876 48.2784 44.6876 47.761V44.8786H44.6875ZM44.6875 37.6475L40.2031 37.4473L42.0756 40.6906C42.2162 40.934 42.2534 41.218 42.1805 41.4901C42.1075 41.7623 41.9333 41.9896 41.6898 42.1301L40.742 42.6773C40.5765 42.7729 40.3955 42.8183 40.2169 42.8183C39.8524 42.8183 39.4975 42.6293 39.3025 42.2916L36.979 38.267C36.8945 38.2804 36.8102 38.2878 36.7268 38.2878C36.0376 38.2878 35.4045 37.8432 35.1863 37.164C35.0363 37.1924 34.8863 37.2067 34.7382 37.2067C33.671 37.2067 32.6919 36.4936 32.403 35.415C32.0738 34.1863 32.7575 32.9214 33.9394 32.5087C33.8544 32.1157 33.9158 31.7105 34.1188 31.3587C34.3354 30.9836 34.6842 30.7156 35.1013 30.6039L38.0493 29.814L43.4537 26.3636L43.4409 26.3159C43.2397 25.5649 43.6869 24.7902 44.4379 24.589C44.5205 24.5668 44.6039 24.5533 44.6875 24.5464V16.2389C44.6875 15.7217 44.2666 15.3008 43.7493 15.3008H40.7041L40.052 16.9029C39.9712 17.1014 39.778 17.2314 39.5636 17.2314H29.2895C29.0751 17.2314 28.8819 17.1015 28.8011 16.9029L28.1489 15.3008H25.104C24.5867 15.3008 24.1659 15.7216 24.1659 16.2389V19.0986H36.4444C37.6238 19.0986 38.5834 20.0581 38.5834 21.2377V27.4473C38.5834 28.6268 37.6239 29.5864 36.4444 29.5864H32.1254V32.9791C32.1254 33.1901 31.9996 33.3808 31.8057 33.4639C31.7388 33.4925 31.6682 33.5064 31.5982 33.5064C31.4651 33.5064 31.3342 33.4561 31.2342 33.3608L27.2765 29.5864H24.1659V43.8239H44.6875V37.6475ZM39.3898 36.5392L37.8917 30.948L35.3744 31.6225C35.2295 31.6614 35.1081 31.7549 35.0324 31.886C34.9567 32.017 34.9365 32.169 34.9753 32.3139L36.1811 36.8145C36.2617 37.1152 36.5721 37.2941 36.8726 37.2137L39.3898 36.5392ZM48.2169 37.3194L45.1462 25.8588C45.1042 25.7022 44.9564 25.596 44.7997 25.596C44.7702 25.596 44.7404 25.5997 44.711 25.6076C44.5249 25.6575 44.4099 25.8567 44.4597 26.0427L47.5305 37.5031C47.5548 37.5939 47.6138 37.6702 47.6966 37.718C47.7793 37.7658 47.8747 37.7784 47.9656 37.7544C48.0564 37.73 48.1326 37.6711 48.1805 37.5884C48.2283 37.5057 48.2412 37.4101 48.2169 37.3194ZM28.0766 27.4273C28.1858 27.4273 28.2947 27.3935 28.3866 27.3265C28.557 27.2028 28.6374 26.9896 28.5912 26.7841L28.2356 25.2041L29.4521 24.1347C29.6102 23.9956 29.6705 23.7759 29.6054 23.5757C29.5403 23.3754 29.3624 23.2331 29.1528 23.2136L27.5401 23.0635L26.899 21.5762C26.8156 21.3828 26.6252 21.2576 26.4147 21.2576C26.2041 21.2576 26.0137 21.3828 25.9303 21.5762L25.2893 23.0634L23.6766 23.2136C23.467 23.2331 23.289 23.3755 23.2239 23.5757C23.1588 23.776 23.2192 23.9957 23.3773 24.1347L24.5936 25.204L24.2381 26.7841C24.1919 26.9896 24.2722 27.2028 24.4426 27.3265C24.613 27.4504 24.8404 27.4609 25.0216 27.3535L26.4145 26.5271L27.8075 27.3535C27.8909 27.4028 27.9839 27.4273 28.0766 27.4273ZM21.9982 23.2136L20.3856 23.0635L19.7445 21.5762C19.6611 21.3828 19.4707 21.2576 19.2601 21.2576C19.0496 21.2576 18.8592 21.3828 18.7758 21.5762L18.1347 23.0634L16.522 23.2136C16.3124 23.2331 16.1344 23.3755 16.0694 23.5757C16.0043 23.776 16.0646 23.9957 16.2227 24.1347L17.4391 25.204L17.0836 26.7841C17.0374 26.9896 17.1177 27.2028 17.2881 27.3265C17.4584 27.4504 17.686 27.4609 17.8671 27.3535L19.2599 26.5271L20.6529 27.3535C20.7361 27.4028 20.8292 27.4273 20.9219 27.4273C21.0311 27.4273 21.14 27.3935 21.2319 27.3265C21.4023 27.2028 21.4827 26.9896 21.4365 26.7841L21.0809 25.2041L22.2974 24.1347C22.4555 23.9956 22.5158 23.7759 22.4507 23.5757C22.3858 23.3755 22.2078 23.2332 21.9982 23.2136Z" fill="white"/>
</g>
<defs>
<linearGradient id="paint0_linear_37_133" x1="64" y1="7.62939e-06" x2="7.62939e-06" y2="64" gradientUnits="userSpaceOnUse">
<stop stop-color="#F65A75"/>
<stop offset="1" stop-color="#48179C"/>
</linearGradient>
<clipPath id="clip0_37_133">
<rect width="36" height="36" fill="white" transform="translate(14 14)"/>
</clipPath>
</defs>
</svg>
