<svg width="64" height="64" viewBox="0 0 64 64" fill="none" xmlns="http://www.w3.org/2000/svg">
<rect width="64" height="64" rx="32" fill="url(#paint0_linear_37_158)"/>
<g clip-path="url(#clip0_37_158)">
<path d="M49.8914 37.745L42.2227 30.0725C42.5802 29.607 42.7962 29.0486 42.8452 28.4637C42.8452 27.4137 41.9114 26.63 41.6939 25.8387C41.4764 25.0475 41.8964 23.8888 41.3864 23.0038C40.8764 22.1188 39.6539 21.8788 39.0839 21.3238C38.5139 20.7688 38.2964 19.5388 37.4039 19.0175C36.5114 18.4963 35.3789 18.9313 34.5689 18.71C33.7589 18.4888 33.0089 17.5625 31.9439 17.5625C30.8789 17.5625 30.1027 18.5075 29.3189 18.71C28.5352 18.9125 27.3652 18.5075 26.4839 19.0175C25.6027 19.5275 25.4152 20.75 24.8339 21.3387C24.2527 21.9275 23.0452 22.13 22.5314 23.0187C22.0177 23.9075 22.4452 25.0363 22.2202 25.8538C21.9952 26.6713 21.0727 27.41 21.0727 28.4788C21.1298 29.0789 21.3575 29.6502 21.7289 30.125L14.1127 37.745C14.0649 37.7884 14.0291 37.8434 14.0088 37.9047C13.9885 37.966 13.9843 38.0316 13.9968 38.0949C14.0092 38.1583 14.0378 38.2174 14.0798 38.2664C14.1218 38.3155 14.1757 38.3529 14.2364 38.375C18.8939 40.25 15.1702 38.75 19.8277 40.625C21.7889 45.53 21.1477 43.9175 22.0777 46.2163C22.1011 46.2733 22.1382 46.3237 22.1857 46.363C22.2333 46.4023 22.2898 46.4293 22.3502 46.4415C22.4107 46.4537 22.4732 46.4509 22.5323 46.4332C22.5914 46.4155 22.6452 46.3835 22.6889 46.34L30.2939 38.6937C30.7743 39.0679 31.3524 39.2958 31.9589 39.35C32.5688 39.2948 33.1497 39.0643 33.6314 38.6863C33.6989 38.6525 33.0614 38.0488 41.3227 46.31C41.3664 46.3543 41.4204 46.387 41.48 46.4052C41.5395 46.4234 41.6026 46.4265 41.6636 46.4143C41.7246 46.402 41.7816 46.3747 41.8295 46.3349C41.8773 46.2951 41.9145 46.244 41.9377 46.1863C42.8602 43.8838 42.2152 45.5037 44.1877 40.595L47.1877 39.395L49.7639 38.375C49.8249 38.3533 49.8792 38.3162 49.9216 38.2674C49.964 38.2185 49.993 38.1595 50.0058 38.0961C50.0187 38.0326 50.0149 37.967 49.9948 37.9055C49.9748 37.844 49.9392 37.7887 49.8914 37.745ZM22.1189 30.7963C22.4452 31.5463 22.1789 32.3487 22.2914 33.1887L16.8764 38.6038L15.0427 37.8538L22.1189 30.7963ZM20.4652 40.1713C20.4463 40.1238 20.418 40.0807 20.3818 40.0446C20.3457 40.0085 20.3026 39.9801 20.2552 39.9613L17.6302 38.9113L22.5689 33.9725C22.9231 34.4269 23.3897 34.7811 23.9227 35C24.8489 35.4837 24.9427 35.585 25.4227 36.5C25.6409 37.0354 25.9998 37.5019 26.4614 37.85L21.5002 42.7887L20.4652 40.1713ZM22.5502 45.3838L21.8189 43.55L27.2339 38.1275C28.0627 38.2475 28.9364 37.9737 29.6264 38.3037L22.5502 45.3838ZM33.2302 38.0525C32.0864 38.8025 31.7677 38.75 30.6877 38.0525C29.6077 37.355 29.4164 37.37 28.2239 37.3962C26.8889 37.4525 26.7239 37.3437 26.0789 36.1512C25.5539 35.1537 25.3552 34.9025 24.2714 34.3438C23.0977 33.7325 22.9664 33.5337 23.0227 32.1987C23.0789 30.8637 22.9777 30.6762 22.2727 29.5737C21.6277 28.5537 21.6877 28.25 22.3702 27.185C22.9739 26.2212 23.0752 25.9625 23.0227 24.7213C22.9739 23.3938 23.0789 23.1988 24.2714 22.5763C25.3177 22.0288 25.5314 21.8263 26.0789 20.765C26.7089 19.5613 26.9077 19.4713 28.2239 19.52C29.4427 19.5725 29.7239 19.4862 30.6877 18.8675C31.8352 18.14 32.0789 18.1362 33.2302 18.8675C34.2164 19.4937 34.5052 19.5725 35.6939 19.52C37.0214 19.4713 37.2164 19.5762 37.8389 20.7687C38.3864 21.8337 38.6302 22.0438 39.6464 22.5763C40.8352 23.195 40.9477 23.3975 40.8914 24.7213C40.8502 25.97 40.9364 26.2212 41.5477 27.185C42.1589 28.1487 42.2977 28.5312 41.6789 29.5212C40.8764 30.725 40.8502 31.0212 40.8914 32.1912C40.9777 33.5637 40.7452 33.7587 39.6464 34.3362C38.6152 34.865 38.3714 35.0862 37.8389 36.1437C37.2502 37.2687 37.0514 37.475 35.6939 37.3887C34.5314 37.355 34.2277 37.4075 33.2302 38.0525ZM41.4539 45.38C34.3589 38.285 34.3289 38.255 34.3477 38.255C35.0489 37.9738 35.9489 38.255 36.7552 38.0975L42.1852 43.5463L41.4539 45.38ZM43.7489 39.9575C43.7018 39.9759 43.6589 40.0037 43.6228 40.0392C43.5868 40.0746 43.5582 40.117 43.5389 40.1637L42.4889 42.7887L37.5164 37.8162C37.9487 37.4655 38.2875 37.0134 38.5027 36.5C38.9827 35.5812 39.0764 35.4875 40.0027 35C40.5528 34.7766 41.0286 34.4022 41.3752 33.92L46.3664 38.9075L43.7489 39.9575ZM47.1239 38.6038L41.6339 33.125C41.7277 32.2775 41.4689 31.4675 41.8252 30.755L48.9502 37.88L47.1239 38.6038Z" fill="white"/>
<path d="M39.1511 30.6309C39.6043 29.1212 39.5703 27.5071 39.054 26.0178C38.5376 24.5286 37.5652 23.2398 36.2748 22.3346C34.9844 21.4294 33.4416 20.9538 31.8655 20.9753C30.2894 20.9968 28.7602 21.5143 27.4949 22.4543C26.2297 23.3944 25.2928 24.7091 24.8172 26.2119C24.3417 27.7147 24.3517 29.3291 24.8459 30.8259C25.34 32.3227 26.2932 33.6257 27.57 34.5499C28.8468 35.4742 30.3824 35.9727 31.9586 35.9746C33.5729 35.9766 35.1448 35.4576 36.4406 34.4949C37.7364 33.5322 38.687 32.177 39.1511 30.6309ZM32.7499 35.1759C31.391 35.3347 30.0159 35.0769 28.8069 34.4365C27.5978 33.7962 26.6119 32.8036 25.9798 31.5902C25.3477 30.3768 25.0992 29 25.2673 27.6423C25.4353 26.2845 26.0121 25.0098 26.921 23.9872C27.8299 22.9646 29.0281 22.2424 30.3568 21.9162C31.6855 21.59 33.0819 21.6752 34.361 22.1606C35.6402 22.6461 36.7416 23.5087 37.5194 24.6343C38.2971 25.7599 38.7145 27.0952 38.7161 28.4634C38.7181 30.1193 38.1114 31.7181 37.0113 32.9558C35.9112 34.1935 34.3946 34.9836 32.7499 35.1759Z" fill="white"/>
<path d="M35.4049 32.5246C35.5043 32.5246 35.5997 32.485 35.67 32.4147C35.7404 32.3444 35.7799 32.249 35.7799 32.1496V28.6246L36.2636 29.1083C36.2986 29.143 36.3401 29.1705 36.3856 29.1892C36.4312 29.2079 36.4801 29.2174 36.5293 29.2173C36.5786 29.2171 36.6274 29.2072 36.6728 29.1882C36.7183 29.1692 36.7595 29.1414 36.7943 29.1064C36.829 29.0715 36.8565 29.03 36.8752 28.9844C36.8939 28.9388 36.9034 28.89 36.9032 28.8407C36.903 28.7915 36.8932 28.7427 36.8741 28.6972C36.8551 28.6518 36.8273 28.6105 36.7924 28.5758L34.0736 25.8608L34.0474 25.8383L32.2736 24.0646C32.1724 23.9746 32.1874 23.9896 32.0111 23.9558C31.7486 23.9558 32.0449 23.7871 27.2299 28.5833C27.1852 28.6285 27.1527 28.6843 27.1355 28.7456C27.1184 28.8068 27.117 28.8713 27.1316 28.9332C27.1463 28.9951 27.1764 29.0522 27.2191 29.0992C27.2619 29.1463 27.3159 29.1816 27.3761 29.2021C27.4409 29.2224 27.51 29.2248 27.5761 29.209C27.6421 29.1931 27.7026 29.1596 27.7511 29.1121L28.1524 28.7108V32.1496C28.1524 32.249 28.1919 32.3444 28.2622 32.4147C28.3325 32.485 28.4279 32.5246 28.5274 32.5246H35.4049ZM31.1411 31.7746V29.1796H32.7761V31.7746H31.1411ZM33.5261 31.7746V28.8046C33.5261 28.7051 33.4866 28.6097 33.4163 28.5394C33.346 28.4691 33.2506 28.4296 33.1511 28.4296H32.5774L32.5324 28.3846C32.4649 28.4483 32.6299 28.4296 31.5161 28.4296L31.4711 28.3846C31.4036 28.4483 31.5199 28.4296 30.7661 28.4296C30.6667 28.4296 30.5713 28.4691 30.501 28.5394C30.4306 28.6097 30.3911 28.7051 30.3911 28.8046V31.7521C30.3911 31.7896 30.4886 31.7746 28.8911 31.7746V27.9346L29.9524 26.8733L30.4999 26.3446L31.9999 24.8446L35.0224 27.8746V31.7746H33.5261Z" fill="white"/>
</g>
<defs>
<linearGradient id="paint0_linear_37_158" x1="64" y1="7.62939e-06" x2="7.62939e-06" y2="64" gradientUnits="userSpaceOnUse">
<stop stop-color="#F65A75"/>
<stop offset="1" stop-color="#48179C"/>
</linearGradient>
<clipPath id="clip0_37_158">
<rect width="36" height="36" fill="white" transform="translate(14 14)"/>
</clipPath>
</defs>
</svg>
