<svg width="64" height="64" viewBox="0 0 64 64" fill="none" xmlns="http://www.w3.org/2000/svg">
<rect width="64" height="64" rx="32" fill="url(#paint0_linear_37_123)"/>
<path d="M46.1442 46.8266H44.2429V29.2996C44.2429 29.0278 44.0225 28.8075 43.7507 28.8075H39.8401C39.5682 28.8075 39.3479 29.0278 39.3479 29.2996V46.8266H37.7126V32.7817C37.7126 32.5099 37.4923 32.2895 37.2204 32.2895H33.3099C33.038 32.2895 32.8177 32.5099 32.8177 32.7817V46.8266H31.1824V36.2639C31.1824 35.9921 30.9621 35.7717 30.6902 35.7717H26.7797C26.5078 35.7717 26.2875 35.9921 26.2875 36.2639V46.8266H24.6522V39.746C24.6522 39.4741 24.4319 39.2538 24.16 39.2538H20.2494C19.9776 39.2538 19.7572 39.4741 19.7572 39.746V46.8266H17.856C17.5841 46.8266 17.3638 47.0469 17.3638 47.3188V49.2266C17.3638 49.4984 17.5841 49.7188 17.856 49.7188H46.1442C46.416 49.7188 46.6363 49.4984 46.6363 49.2266V47.3188C46.6363 47.0469 46.416 46.8266 46.1442 46.8266ZM40.3323 29.7918H43.2585V46.8266H40.3323V29.7918ZM33.8021 33.274H36.7283V46.8267H33.8021V33.274ZM27.2719 36.7561H30.1981V46.8266H27.2719V36.7561ZM20.7416 40.2382H23.6678V46.8266H20.7416V40.2382ZM45.652 48.7344H18.3481V47.811H45.6519V48.7344H45.652ZM36.0434 21.9758L37.1416 22.8899C35.9599 24.2516 33.8434 26.129 31.0819 27.7064C27.1866 29.9314 22.9979 31.0596 18.6322 31.0596C18.3852 31.0596 18.1765 31.2427 18.1442 31.4875C18.112 31.7323 18.2662 31.9632 18.5049 32.0271C20.6025 32.5892 22.6736 32.87 24.707 32.87C27.0302 32.87 29.3039 32.5032 31.5085 31.77C34.9608 30.6219 38.1338 28.5837 40.7127 25.8621L41.9317 26.8767C42.1666 27.0722 42.4878 27.1207 42.7702 27.0032C43.0525 26.8859 43.2445 26.6237 43.2715 26.319L43.8681 19.5427C43.8923 19.2695 43.7846 19.0129 43.5726 18.8383C43.3609 18.6642 43.0884 18.608 42.8248 18.6841L36.3398 20.5595C36.0435 20.6452 35.8289 20.8767 35.7657 21.1786C35.7026 21.4805 35.8064 21.7785 36.0434 21.9758ZM42.8665 19.6967L42.3186 25.918L40.9841 24.8072C40.7815 24.6388 40.4824 24.6595 40.3053 24.8543C38.1581 27.2138 32.872 31.898 24.7668 31.8973C24.0056 31.8973 23.2193 31.856 22.4087 31.7675C25.5914 31.296 28.6603 30.2232 31.5703 28.561C34.7124 26.7662 37.0654 24.5805 38.2197 23.1335C38.3868 22.9241 38.3558 22.6195 38.1499 22.4483L36.9127 21.4185L42.8665 19.6966L42.8665 19.6967ZM25.187 28.3752C29.0728 28.3752 32.234 25.2139 32.234 21.3282C32.234 17.4424 29.0728 14.2812 25.187 14.2812C21.3013 14.2812 18.14 17.4425 18.14 21.3282C18.14 25.214 21.3013 28.3752 25.187 28.3752ZM25.187 15.2656C28.53 15.2656 31.2496 17.9853 31.2496 21.3282C31.2496 24.6712 28.53 27.3909 25.187 27.3909C21.8441 27.3909 19.1244 24.6712 19.1244 21.3282C19.1244 17.9853 21.8441 15.2656 25.187 15.2656ZM25.187 26.8483C28.2308 26.8483 30.7071 24.372 30.7071 21.3282C30.7071 18.2845 28.2308 15.8081 25.187 15.8081C22.1433 15.8081 19.6669 18.2844 19.6669 21.3282C19.6669 24.3719 22.1432 26.8483 25.187 26.8483ZM25.187 16.7925C27.688 16.7925 29.7227 18.8272 29.7227 21.3282C29.7227 23.8292 27.688 25.8639 25.187 25.8639C22.686 25.8639 20.6512 23.8292 20.6512 21.3282C20.6512 18.8272 22.6859 16.7925 25.187 16.7925ZM26.1704 22.4728C26.1845 22.3571 26.1768 22.2204 25.9049 22.0607C25.662 21.918 25.3632 21.8469 25.0468 21.7715C24.9181 21.7408 24.7849 21.7091 24.6496 21.6714C24.2464 21.5589 23.7455 21.3685 23.4471 20.8908C23.1216 20.37 23.1952 19.7379 23.6346 19.2802C23.8853 19.019 24.2646 18.839 24.6944 18.7621V18.3403C24.6944 18.0684 24.9148 17.8481 25.1866 17.8481C25.4584 17.8481 25.6788 18.0684 25.6788 18.3403V18.7654C26.2933 18.8771 26.7738 19.1841 27.008 19.6188C27.1369 19.8582 27.0475 20.1566 26.8081 20.2855C26.5688 20.4144 26.2704 20.325 26.1414 20.0856C26.0459 19.9082 25.7711 19.7686 25.4245 19.7214C24.9897 19.6622 24.5354 19.7632 24.3447 19.9618C24.273 20.0366 24.1693 20.189 24.2819 20.3692C24.376 20.52 24.565 20.6258 24.9139 20.7231C25.0312 20.7558 25.1495 20.784 25.2748 20.8138C25.6478 20.9026 26.0334 20.9945 26.4034 21.2118C26.9525 21.5343 27.2167 22.0244 27.1475 22.5918C27.0897 23.067 26.7917 23.4818 26.3506 23.7013C26.1503 23.8009 25.9209 23.869 25.6788 23.9056V24.316C25.6788 24.5879 25.4584 24.8082 25.1866 24.8082C24.9148 24.8082 24.6944 24.5879 24.6944 24.316V23.8861C24.0927 23.7734 23.5421 23.4743 23.2761 22.9883C23.1456 22.7498 23.233 22.4507 23.4714 22.3202C23.7096 22.1897 24.0089 22.2772 24.1394 22.5156C24.3637 22.9252 25.3577 23.0958 25.912 22.82C26.056 22.7484 26.1526 22.6186 26.1704 22.4728Z" fill="white"/>
<defs>
<linearGradient id="paint0_linear_37_123" x1="64" y1="7.62939e-06" x2="7.62939e-06" y2="64" gradientUnits="userSpaceOnUse">
<stop stop-color="#F65A75"/>
<stop offset="1" stop-color="#48179C"/>
</linearGradient>
</defs>
</svg>
