<svg width="64" height="64" viewBox="0 0 64 64" fill="none" xmlns="http://www.w3.org/2000/svg">
<rect width="64" height="64" rx="32" fill="url(#paint0_linear_19_215)"/>
<path d="M45.7246 23.7656V17.0156C45.724 16.4191 45.4868 15.8471 45.0649 15.4253C44.6431 15.0035 44.0712 14.7662 43.4746 14.7656H29.9746C29.3781 14.7662 28.8061 15.0035 28.3843 15.4253C27.9624 15.8471 27.7252 16.4191 27.7246 17.0156V23.7656H17.5996C16.854 23.7665 16.1391 24.0631 15.6118 24.5904C15.0846 25.1176 14.788 25.8325 14.7871 26.5781V43.4531C14.788 44.1988 15.0846 44.9136 15.6118 45.4409C16.1391 45.9682 16.854 46.2647 17.5996 46.2656H34.0349C34.9384 46.6569 35.9166 46.8459 36.9009 46.8194C37.8852 46.7928 38.8518 46.5514 39.7329 46.1119L41.3564 47.9784C41.6183 48.2723 41.9747 48.4655 42.3639 48.5244C42.7531 48.5833 43.1507 48.5043 43.4878 48.3011C43.825 48.0979 44.0805 47.7832 44.2101 47.4114C44.3397 47.0397 44.3353 46.6344 44.1976 46.2656H45.7246C46.4703 46.2647 47.1851 45.9681 47.7124 45.4409C48.2396 44.9136 48.5362 44.1988 48.5371 43.4531V26.5781C48.5362 25.8325 48.2396 25.1176 47.7124 24.5904C47.1851 24.0631 46.4703 23.7665 45.7246 23.7656ZM28.8496 17.0156C28.85 16.7174 28.9686 16.4315 29.1795 16.2206C29.3904 16.0097 29.6764 15.891 29.9746 15.8906H43.4746C43.7729 15.891 44.0588 16.0097 44.2697 16.2206C44.4806 16.4315 44.5992 16.7174 44.5996 17.0156V24.8906C44.5992 25.1889 44.4806 25.4748 44.2697 25.6857C44.0588 25.8966 43.7729 26.0152 43.4746 26.0156H35.5996C35.5123 26.0156 35.4262 26.036 35.3481 26.0751C35.27 26.1142 35.2021 26.1709 35.1497 26.2408L33.9121 27.8904L32.6745 26.2408C32.6222 26.1709 32.5542 26.1142 32.4761 26.0751C32.3981 26.036 32.3119 26.0156 32.2246 26.0156H29.9746C29.6764 26.0152 29.3904 25.8966 29.1795 25.6857C28.9686 25.4748 28.85 25.1889 28.8496 24.8906V17.0156ZM36.7246 45.7031C35.2333 45.7014 33.8036 45.1082 32.7491 44.0537C31.6946 42.9992 31.1014 41.5694 31.0996 40.0781C31.4089 32.6158 42.0415 32.618 42.3496 40.0782C42.3478 41.5695 41.7546 42.9992 40.7001 44.0537C39.6456 45.1082 38.2159 45.7014 36.7246 45.7031ZM30.5963 37.2656H22.6621C21.9194 37.2607 21.2088 36.9622 20.6854 36.4353C20.162 35.9084 19.8682 35.1958 19.8682 34.4531C19.8682 33.7104 20.162 32.9978 20.6854 32.4709C21.2089 31.944 21.9195 31.6455 22.6621 31.6406H40.6621C43.2249 31.604 44.48 34.9553 42.4876 36.5818C41.8497 35.5388 40.9407 34.6886 39.8576 34.1216C38.7744 33.5547 37.5577 33.2923 36.3372 33.3625C35.1166 33.4327 33.938 33.8328 32.927 34.5202C31.916 35.2075 31.1105 36.1564 30.5963 37.2656ZM42.9961 47.2945C42.8837 47.3911 42.7378 47.4396 42.5899 47.4295C42.442 47.4194 42.304 47.3516 42.2057 47.2407L40.7064 45.5165C41.0106 45.2946 41.2959 45.0478 41.5593 44.7786L43.0533 46.4969C43.151 46.6104 43.1998 46.758 43.1891 46.9075C43.1784 47.0569 43.109 47.196 42.9961 47.2945ZM47.4121 43.4531C47.4116 43.9005 47.2337 44.3295 46.9173 44.6458C46.6009 44.9622 46.172 45.1401 45.7246 45.1406H43.3651L42.2844 43.8976C42.9069 42.9883 43.2978 41.9407 43.4231 40.8458C43.5483 39.751 43.4041 38.6422 43.003 37.6158C46.0362 35.4019 44.4253 30.5035 40.662 30.5157L22.6621 30.5156C17.4514 30.7022 17.4405 38.1923 22.6622 38.3906H30.1967C29.8855 39.5979 29.9149 40.8678 30.2817 42.0593C30.6485 43.2508 31.3384 44.3174 32.2747 45.1406H17.5996C17.1522 45.1401 16.7233 44.9622 16.4069 44.6458C16.0905 44.3295 15.9126 43.9005 15.9121 43.4531V26.5781C15.9126 26.1307 16.0905 25.7018 16.4069 25.3854C16.7233 25.0691 17.1522 24.8911 17.5996 24.8906H27.7246C27.7252 25.4872 27.9624 26.0591 28.3843 26.481C28.8061 26.9028 29.3781 27.14 29.9746 27.1406H31.9434L33.4622 29.1654C33.5145 29.2353 33.5825 29.2921 33.6606 29.3312C33.7386 29.3703 33.8248 29.3906 33.9121 29.3906C33.9994 29.3906 34.0856 29.3703 34.1637 29.3312C34.2418 29.2921 34.3097 29.2353 34.362 29.1654L35.8809 27.1406H43.4746C44.0712 27.14 44.6431 26.9028 45.0649 26.481C45.4868 26.0591 45.724 25.4872 45.7246 24.8906C46.172 24.8911 46.6009 25.0691 46.9173 25.3854C47.2337 25.7018 47.4116 26.1307 47.4121 26.5781V43.4531Z" fill="white"/>
<path d="M17.5991 25.4521C17.4514 25.4543 17.3104 25.5146 17.2067 25.6198C17.103 25.7251 17.0449 25.8669 17.0449 26.0147C17.0449 26.1624 17.1031 26.3042 17.2068 26.4095C17.3105 26.5147 17.4514 26.575 17.5992 26.5771C17.7469 26.575 17.8878 26.5147 17.9915 26.4095C18.0952 26.3042 18.1534 26.1624 18.1534 26.0146C18.1534 25.8669 18.0952 25.7251 17.9915 25.6198C17.8878 25.5146 17.7469 25.4543 17.5991 25.4521Z" fill="white"/>
<path d="M22.0991 25.4521C21.9514 25.4543 21.8104 25.5146 21.7067 25.6198C21.603 25.7251 21.5449 25.8669 21.5449 26.0147C21.5449 26.1624 21.6031 26.3042 21.7068 26.4095C21.8105 26.5147 21.9514 26.575 22.0992 26.5771C22.2469 26.575 22.3878 26.5147 22.4915 26.4095C22.5952 26.3042 22.6534 26.1624 22.6534 26.0146C22.6534 25.8669 22.5952 25.7251 22.4915 25.6198C22.3878 25.5146 22.2469 25.4543 22.0991 25.4521Z" fill="white"/>
<path d="M19.8496 25.4521C19.7019 25.4543 19.5609 25.5146 19.4572 25.6198C19.3535 25.7251 19.2954 25.8669 19.2954 26.0147C19.2954 26.1624 19.3535 26.3042 19.4573 26.4095C19.561 26.5147 19.7019 26.575 19.8496 26.5771C19.9974 26.575 20.1383 26.5147 20.242 26.4095C20.3457 26.3042 20.4039 26.1624 20.4038 26.0146C20.4038 25.8669 20.3457 25.7251 20.242 25.6198C20.1383 25.5146 19.9974 25.4543 19.8496 25.4521Z" fill="white"/>
<path d="M32.7867 23.7656C33.4347 23.7647 34.0626 23.5405 34.5646 23.1306C35.0665 22.7208 35.4118 22.1504 35.5423 21.5156H39.5367V22.0781C39.5367 22.2273 39.5959 22.3704 39.7014 22.4759C39.8069 22.5814 39.95 22.6406 40.0992 22.6406C40.2483 22.6406 40.3914 22.5814 40.4969 22.4759C40.6024 22.3704 40.6617 22.2273 40.6617 22.0781V21.5156H42.3492V22.6406C42.3492 22.7898 42.4084 22.9329 42.5139 23.0384C42.6194 23.1439 42.7625 23.2031 42.9117 23.2031C43.0608 23.2031 43.2039 23.1439 43.3094 23.0384C43.4149 22.9329 43.4742 22.7898 43.4742 22.6406V20.9531C43.4742 20.8792 43.4597 20.8061 43.4314 20.7378C43.4032 20.6696 43.3617 20.6075 43.3095 20.5553C43.2573 20.503 43.1952 20.4616 43.127 20.4334C43.0587 20.4051 42.9855 20.3906 42.9117 20.3906H35.5423C35.4359 19.8692 35.1837 19.3887 34.815 19.0049C34.4464 18.6211 33.9764 18.3497 33.4597 18.2224C32.943 18.095 32.4008 18.1168 31.896 18.2854C31.3912 18.4539 30.9446 18.7621 30.6081 19.1744C30.2715 19.5866 30.0588 20.0858 29.9946 20.6141C29.9305 21.1424 30.0175 21.678 30.2457 22.1588C30.4738 22.6396 30.8337 23.0458 31.2835 23.3302C31.7332 23.6147 32.2545 23.7656 32.7867 23.7656ZM32.7867 19.2656C33.2309 19.2706 33.6553 19.4506 33.9677 19.7666C34.2801 20.0825 34.4553 20.5089 34.4552 20.9531C34.4552 21.3974 34.28 21.8238 33.9676 22.1397C33.6553 22.4556 33.2309 22.6356 32.7866 22.6406C32.3424 22.6356 31.918 22.4556 31.6056 22.1397C31.2932 21.8238 31.118 21.3974 31.118 20.9531C31.118 20.5088 31.2932 20.0824 31.6056 19.7665C31.918 19.4506 32.3424 19.2706 32.7867 19.2656Z" fill="white"/>
<defs>
<linearGradient id="paint0_linear_19_215" x1="64" y1="7.62939e-06" x2="7.62939e-06" y2="64" gradientUnits="userSpaceOnUse">
<stop stop-color="#F65A75"/>
<stop offset="1" stop-color="#48179C"/>
</linearGradient>
</defs>
</svg>
