<svg width="64" height="64" viewBox="0 0 64 64" fill="none" xmlns="http://www.w3.org/2000/svg">
<rect width="64" height="64" rx="32" fill="url(#paint0_linear_18_194)"/>
<path d="M21.2007 36.8007C21.203 37.2774 21.3935 37.7339 21.7306 38.0709C22.0676 38.408 22.5241 38.5985 23.0008 38.6008H31.3062C31.84 39.8257 32.7675 40.8374 33.9415 41.4754C35.1154 42.1135 36.4688 42.3415 37.787 42.1232C39.1052 41.905 40.3129 41.253 41.2186 40.2706C42.1243 39.2882 42.6762 38.0317 42.7868 36.7001C42.8975 35.3685 42.5605 34.0381 41.8293 32.9197C41.0981 31.8013 40.0146 30.959 38.7505 30.5262C37.4863 30.0935 36.1139 30.095 34.8507 30.5306C33.5875 30.9662 32.5059 31.8109 31.7772 32.9309C31.5793 32.6944 31.3632 32.4737 31.131 32.2709C31.2463 31.9677 31.3258 31.6522 31.368 31.3306C31.8901 31.2029 32.3544 30.904 32.6868 30.4815C33.0192 30.0591 33.2005 29.5375 33.2017 29V28.3999C33.1998 28.1929 33.1618 27.9878 33.0895 27.7939C33.1617 27.2407 33.1992 26.6836 33.2017 26.1257C33.2007 25.7885 33.1688 25.452 33.1063 25.1206C32.995 24.5888 32.7207 24.105 32.3214 23.7365C31.9222 23.368 31.4179 23.1332 30.8789 23.0648C30.7117 22.8493 30.5087 22.664 30.2789 22.517C29.3435 21.9865 28.2748 21.7373 27.2012 21.7993C24.855 21.7993 23.8961 22.5728 23.5235 23.0666C22.9853 23.141 22.483 23.3787 22.0843 23.7478C21.6856 24.1168 21.4099 24.5994 21.2943 25.1302C21.2329 25.4585 21.2016 25.7917 21.2007 26.1257C21.2032 26.6836 21.2407 27.2407 21.3129 27.7939C21.2406 27.9878 21.2026 28.1929 21.2007 28.3999V29C21.2014 29.5379 21.3824 30.0601 21.7149 30.483C22.0473 30.9059 22.5119 31.2052 23.0344 31.333C23.077 31.6562 23.1576 31.9732 23.2745 32.2775C22.6264 32.84 22.1061 33.5347 21.7484 34.3148C21.3907 35.0949 21.204 35.9425 21.2007 36.8007ZM36.8021 31.4002C37.7515 31.4002 38.6796 31.6817 39.469 32.2092C40.2585 32.7367 40.8737 33.4864 41.2371 34.3636C41.6004 35.2407 41.6955 36.2059 41.5102 37.1371C41.325 38.0683 40.8678 38.9237 40.1965 39.595C39.5251 40.2664 38.6698 40.7236 37.7386 40.9088C36.8074 41.094 35.8422 40.999 34.965 40.6356C34.0879 40.2723 33.3381 39.657 32.8107 38.8676C32.2832 38.0782 32.0016 37.15 32.0016 36.2006C32.0031 34.9279 32.5093 33.7077 33.4092 32.8078C34.3092 31.9078 35.5293 31.4016 36.8021 31.4002ZM22.4746 25.3451C22.5517 25.031 22.7317 24.7518 22.9858 24.5519C23.2399 24.3519 23.5536 24.2427 23.8769 24.2416C23.999 24.2472 24.1196 24.2129 24.2205 24.144C24.3214 24.075 24.3971 23.9751 24.4362 23.8593C24.4362 23.8509 24.8562 22.9994 27.2012 22.9994C28.0405 22.9356 28.8804 23.1161 29.6194 23.5191C29.7516 23.5987 29.866 23.7047 29.9555 23.8305C29.9949 23.9506 30.0712 24.0552 30.1736 24.1293C30.276 24.2034 30.3991 24.2433 30.5255 24.2434C30.8505 24.2383 31.1673 24.3453 31.4227 24.5464C31.6781 24.7475 31.8565 25.0303 31.9278 25.3475C31.976 25.6041 32.0007 25.8646 32.0016 26.1257C32.0016 26.3249 31.9944 26.5176 31.9842 26.7048C31.5927 26.5623 31.163 26.5651 30.7733 26.7126C30.7299 26.4949 30.6377 26.2899 30.5038 26.1129C30.3699 25.9359 30.1977 25.7915 30.0001 25.6905C29.8024 25.5895 29.5845 25.5345 29.3626 25.5296C29.1407 25.5248 28.9206 25.5702 28.7187 25.6625C28.2434 25.8834 27.7254 25.9979 27.2012 25.9979C26.677 25.9979 26.1591 25.8834 25.6837 25.6625C25.4818 25.5702 25.2617 25.5248 25.0398 25.5296C24.8179 25.5345 24.6 25.5895 24.4024 25.6905C24.2047 25.7915 24.0325 25.9359 23.8986 26.1129C23.7647 26.2899 23.6725 26.4949 23.6291 26.7126C23.2394 26.5651 22.8097 26.5623 22.4182 26.7048C22.408 26.5176 22.4008 26.3249 22.4008 26.1257C22.4017 25.8638 22.4264 25.6025 22.4746 25.3451ZM22.4008 29V28.3999C22.4008 28.2408 22.464 28.0881 22.5765 27.9756C22.6891 27.8631 22.8417 27.7999 23.0008 27.7999C23.16 27.7999 23.3126 27.8631 23.4251 27.9756C23.5377 28.0881 23.6009 28.2408 23.6009 28.3999C23.6009 28.5591 23.6641 28.7117 23.7766 28.8242C23.8892 28.9368 24.0418 29 24.2009 29C24.3601 29 24.5127 28.9368 24.6252 28.8242C24.7378 28.7117 24.801 28.5591 24.801 28.3999V27.0006C24.7999 26.9558 24.8103 26.9114 24.8314 26.8718C24.8524 26.8321 24.8833 26.7986 24.921 26.7744C24.9603 26.7487 25.0055 26.7337 25.0522 26.7306C25.099 26.7276 25.1458 26.7367 25.188 26.757C25.8183 27.0476 26.5041 27.1981 27.1982 27.1981C27.8923 27.1981 28.5781 27.0476 29.2084 26.757C29.2508 26.737 29.2975 26.7282 29.3442 26.7314C29.391 26.7345 29.4361 26.7495 29.4754 26.775C29.5132 26.7992 29.544 26.8327 29.5651 26.8724C29.5861 26.912 29.5965 26.9564 29.5954 27.0012V28.3999C29.5954 28.5591 29.6586 28.7117 29.7712 28.8242C29.8837 28.9368 30.0363 29 30.1955 29C30.3546 29 30.5072 28.9368 30.6198 28.8242C30.7323 28.7117 30.7955 28.5591 30.7955 28.3999C30.7955 28.2408 30.8587 28.0881 30.9713 27.9756C31.0838 27.8631 31.2364 27.7999 31.3956 27.7999C31.5547 27.7999 31.7074 27.8631 31.8199 27.9756C31.9324 28.0881 31.9956 28.2408 31.9956 28.3999V29C31.9956 29.3183 31.8692 29.6235 31.6441 29.8486C31.4191 30.0736 31.1138 30.2001 30.7955 30.2001C30.6364 30.2001 30.4838 30.2633 30.3712 30.3758C30.2587 30.4884 30.1955 30.641 30.1955 30.8001C30.1955 31.5959 29.8794 32.359 29.3167 32.9216C28.7541 33.4843 27.9909 33.8004 27.1952 33.8004C26.3995 33.8004 25.6364 33.4843 25.0737 32.9216C24.511 32.359 24.1949 31.5959 24.1949 30.8001C24.1949 30.641 24.1317 30.4884 24.0192 30.3758C23.9067 30.2633 23.754 30.2001 23.5949 30.2001C23.2776 30.1985 22.9739 30.0714 22.7502 29.8465C22.5264 29.6216 22.4008 29.3172 22.4008 29ZM27.2012 35.0005C27.8458 35.0002 28.4817 34.8514 29.0595 34.5655C29.6373 34.2796 30.1414 33.8644 30.5327 33.3522C30.7751 33.5867 30.9916 33.8466 31.1784 34.1274C30.7864 35.1726 30.6974 36.3072 30.9215 37.4007H23.0008C22.9207 37.4009 22.8414 37.3846 22.7678 37.3529C22.6943 37.3212 22.6279 37.2748 22.573 37.2165C22.5178 37.1623 22.4741 37.0976 22.4446 37.0261C22.415 36.9547 22.4001 36.878 22.4008 36.8007C22.4028 36.1569 22.5338 35.52 22.7861 34.9277C23.0384 34.3354 23.4069 33.7996 23.8697 33.3522C24.2609 33.8645 24.765 34.2798 25.3428 34.5657C25.9206 34.8516 26.5566 35.0004 27.2012 35.0005Z" fill="white"/>
<path d="M45.3732 22.3512C45.5262 22.172 45.6422 21.9642 45.7143 21.7398C45.7864 21.5155 45.8132 21.2791 45.7932 21.0443L45.4446 17.0239C45.4091 16.6632 45.2332 16.3309 44.9547 16.0988C44.6763 15.8667 44.3177 15.7535 43.9565 15.7836L43.1086 15.8556C42.8128 15.8841 42.5338 16.0062 42.3122 16.2041C42.0905 16.402 41.9378 16.6654 41.8761 16.9561C39.1614 15.1722 36.0144 14.1565 32.769 14.0167C29.5237 13.8768 26.301 14.6181 23.4429 16.1619C20.5848 17.7056 18.1978 19.9942 16.5353 22.7849C14.8728 25.5756 13.9967 28.7643 14 32.0126C13.995 34.6092 14.5593 37.1752 15.6532 39.5301C15.7389 39.715 15.863 39.8797 16.0171 40.0131C16.1712 40.1466 16.3519 40.2458 16.5473 40.3042C16.7399 40.3616 16.9427 40.3772 17.1418 40.35C17.341 40.3228 17.5321 40.2533 17.7024 40.1463L18.3516 39.7407C18.6418 39.5606 18.8569 39.2813 18.957 38.9547C19.0571 38.6281 19.0353 38.2763 18.8959 37.9645C18.0279 36.0755 17.5857 34.0188 17.6004 31.94C17.655 28.2712 19.0922 24.7582 21.6245 22.1029C24.1568 19.4477 27.5979 17.8458 31.26 17.6174C34.2044 17.4675 37.1237 18.2265 39.6223 19.7913C39.3064 19.8729 39.0294 20.0632 38.84 20.3288C38.6506 20.5944 38.5609 20.9183 38.5866 21.2435L38.6586 22.0961C38.6934 22.4583 38.8691 22.7922 39.148 23.0259C39.4269 23.2595 39.7865 23.3741 40.1491 23.3449L44.1533 22.9914C44.6285 22.9475 45.0671 22.7173 45.3732 22.3512ZM40.0459 22.1496C40.0002 22.153 39.9549 22.139 39.9192 22.1102C39.8836 22.0814 39.8602 22.0401 39.8539 21.9947L39.7819 21.1427C39.7784 21.0968 39.7927 21.0513 39.8217 21.0156C39.8507 20.9799 39.8923 20.9567 39.9379 20.9506L41.336 20.8306C41.4558 20.8203 41.5696 20.7742 41.6629 20.6984C41.7561 20.6226 41.8244 20.5206 41.859 20.4055C41.8936 20.2905 41.8928 20.1676 41.8568 20.053C41.8208 19.9384 41.7512 19.8372 41.6571 19.7625C38.6917 17.4177 34.9757 16.2294 31.1999 16.4184C27.2326 16.6661 23.5048 18.4015 20.7612 21.2779C18.0176 24.1543 16.4602 27.96 16.4002 31.9346C16.3843 34.1875 16.8639 36.4163 17.805 38.4632C17.8231 38.5102 17.8238 38.5621 17.8071 38.6096C17.7904 38.6571 17.7573 38.6971 17.7138 38.7224L17.0645 39.1292C17.0386 39.1458 17.0094 39.1565 16.9789 39.1607C16.9485 39.1648 16.9175 39.1623 16.8881 39.1533C16.8559 39.1436 16.8262 39.1272 16.8009 39.105C16.7756 39.0828 16.7554 39.0555 16.7417 39.0248C15.7213 36.8278 15.1951 34.4338 15.2001 32.0114C15.21 27.5884 16.9583 23.3466 20.0679 20.2012C23.1775 17.0558 27.399 15.259 31.8216 15.1985H32.0016C35.6771 15.1885 39.2523 16.3965 42.1683 18.6338C42.2609 18.704 42.3719 18.7458 42.4878 18.7541C42.6036 18.7624 42.7194 18.7369 42.8211 18.6806C42.9228 18.6244 43.0059 18.5399 43.0605 18.4373C43.115 18.3347 43.1386 18.2185 43.1284 18.1028L43.0504 17.2387C43.0479 17.193 43.063 17.148 43.0926 17.113C43.1221 17.078 43.1639 17.0556 43.2094 17.0503L44.0573 16.9783C44.1025 16.9778 44.1464 16.9932 44.1814 17.0217C44.2165 17.0502 44.2405 17.09 44.2493 17.1343L44.5973 21.1511C44.608 21.3086 44.5568 21.4641 44.4546 21.5845C44.3524 21.7048 44.2073 21.7806 44.0501 21.7955L40.0459 22.1496Z" fill="white"/>
<path d="M18.6301 41.6485C18.477 41.8277 18.3611 42.0355 18.289 42.2599C18.2169 42.4842 18.19 42.7206 18.21 42.9554L18.5587 46.9758C18.5941 47.3365 18.7701 47.6688 19.0485 47.9009C19.327 48.133 19.6856 48.2462 20.0468 48.2161L20.8947 48.1441C21.1904 48.1156 21.4694 47.9935 21.6911 47.7956C21.9127 47.5977 22.0655 47.3343 22.1272 47.0436C24.8419 48.8274 27.9889 49.8432 31.2342 49.983C34.4796 50.1228 37.7023 49.3816 40.5604 47.8378C43.4185 46.2941 45.8054 44.0055 47.4679 41.2148C49.1304 38.4241 50.0065 35.2354 50.0032 31.9871C50.0083 29.3905 49.444 26.8245 48.3501 24.4696C48.2643 24.2847 48.1403 24.12 47.9862 23.9866C47.832 23.8531 47.6513 23.7539 47.456 23.6955C47.2633 23.6381 47.0606 23.6225 46.8614 23.6497C46.6622 23.6769 46.4711 23.7464 46.3009 23.8534L45.6517 24.2602C45.3613 24.4403 45.1461 24.7197 45.046 25.0464C44.946 25.3731 44.9678 25.7251 45.1074 26.0369C45.9752 27.9254 46.4175 29.9814 46.4029 32.0597C46.3482 35.7285 44.9111 39.2415 42.3788 41.8968C39.8464 44.552 36.4054 46.1539 32.7433 46.3823C29.7989 46.5322 26.8796 45.7732 24.381 44.2083C24.6968 44.1268 24.9738 43.9365 25.1633 43.6709C25.3527 43.4053 25.4424 43.0814 25.4167 42.7562L25.3447 41.9035C25.3099 41.5414 25.1341 41.2074 24.8552 40.9738C24.5764 40.7402 24.2168 40.6256 23.8541 40.6548L19.85 41.0083C19.3747 41.0522 18.9362 41.2824 18.6301 41.6485ZM23.9573 41.8501C24.003 41.8467 24.0483 41.8607 24.084 41.8895C24.1197 41.9183 24.1431 41.9596 24.1494 42.005L24.2214 42.857C24.2248 42.9029 24.2106 42.9484 24.1816 42.9841C24.1526 43.0198 24.111 43.043 24.0653 43.049L22.6672 43.1691C22.5475 43.1794 22.4337 43.2255 22.3404 43.3012C22.2472 43.377 22.1788 43.4791 22.1442 43.5942C22.1097 43.7092 22.1104 43.832 22.1464 43.9467C22.1824 44.0613 22.252 44.1625 22.3462 44.2372C25.3116 46.582 29.0276 47.7703 32.8033 47.5812C36.7707 47.3336 40.4985 45.5982 43.2421 42.7218C45.9857 39.8453 47.543 36.0397 47.603 32.0651C47.619 29.8122 47.1394 27.5834 46.1983 25.5365C46.1802 25.4895 46.1794 25.4376 46.1962 25.3901C46.2129 25.3426 46.246 25.3026 46.2895 25.2773L46.9388 24.8704C46.9647 24.8539 46.9939 24.8432 47.0243 24.839C47.0548 24.8349 47.0858 24.8374 47.1152 24.8464C47.1474 24.8561 47.1771 24.8725 47.2024 24.8947C47.2276 24.9169 47.2478 24.9442 47.2616 24.9749C48.2819 27.1719 48.8081 29.5659 48.8031 31.9883C48.7933 36.4113 47.045 40.6531 43.9354 43.7985C40.8258 46.9439 36.6043 48.7407 32.1817 48.8012H32.0016C28.3272 48.8106 24.7532 47.6026 21.838 45.3659C21.7454 45.2957 21.6344 45.2539 21.5185 45.2456C21.4026 45.2373 21.2868 45.2628 21.1852 45.3191C21.0835 45.3753 21.0003 45.4598 20.9458 45.5624C20.8913 45.665 20.8677 45.7812 20.8779 45.8969L20.9559 46.761C20.9583 46.8067 20.9432 46.8517 20.9137 46.8867C20.8841 46.9217 20.8424 46.9441 20.7969 46.9494L19.949 47.0214C19.9038 47.0218 19.8599 47.0065 19.8248 46.978C19.7898 46.9495 19.7658 46.9097 19.757 46.8654L19.4089 42.8486C19.3982 42.6911 19.4494 42.5356 19.5516 42.4152C19.6538 42.2948 19.799 42.2191 19.9562 42.2042L23.9573 41.8501Z" fill="white"/>
<path d="M36.8018 36.8C36.9071 36.8001 37.0105 36.8279 37.1017 36.8806C37.1928 36.9334 37.2685 37.0091 37.3211 37.1004C37.3737 37.1916 37.4013 37.2951 37.4013 37.4004C37.4012 37.5057 37.3734 37.6091 37.3207 37.7003C37.268 37.7915 37.1923 37.8672 37.1011 37.9198C37.0098 37.9724 36.9064 38.0001 36.8011 38.0001C36.6958 38.0001 36.5923 37.9723 36.5011 37.9197C36.4099 37.867 36.3342 37.7913 36.2816 37.7001C36.1995 37.5674 36.069 37.4719 35.9177 37.4338C35.7664 37.3958 35.6062 37.4181 35.4711 37.4962C35.336 37.5742 35.2366 37.7018 35.194 37.8519C35.1514 38.002 35.1689 38.1627 35.2429 38.3001C35.4604 38.6656 35.8006 38.9421 36.203 39.0802V39.2002C36.203 39.3593 36.2662 39.512 36.3787 39.6245C36.4912 39.737 36.6439 39.8002 36.803 39.8002C36.9621 39.8002 37.1148 39.737 37.2273 39.6245C37.3398 39.512 37.4031 39.3593 37.4031 39.2002V39.0898C37.8032 38.9488 38.1405 38.6708 38.3553 38.3049C38.57 37.9391 38.6483 37.509 38.5763 37.0909C38.5043 36.6728 38.2866 36.2937 37.9618 36.0208C37.637 35.7479 37.226 35.5988 36.8018 35.5999C36.6965 35.5998 36.5931 35.572 36.5019 35.5192C36.4108 35.4665 36.3351 35.3907 36.2825 35.2995C36.2299 35.2082 36.2023 35.1048 36.2023 34.9995C36.2024 34.8941 36.2302 34.7907 36.2829 34.6995C36.3356 34.6084 36.4113 34.5327 36.5026 34.4801C36.5938 34.4274 36.6972 34.3997 36.8025 34.3998C36.9078 34.3998 37.0113 34.4275 37.1025 34.4802C37.1937 34.5329 37.2694 34.6086 37.3221 34.6998C37.4041 34.8325 37.5347 34.928 37.686 34.966C37.8372 35.0041 37.9974 34.9817 38.1325 34.9037C38.2676 34.8256 38.367 34.6981 38.4096 34.548C38.4522 34.3979 38.4347 34.2371 38.3607 34.0997C38.1435 33.7344 37.8037 33.458 37.4019 33.3197V33.1997C37.4019 33.0405 37.3386 32.8879 37.2261 32.7754C37.1136 32.6628 36.961 32.5996 36.8018 32.5996C36.6427 32.5996 36.49 32.6628 36.3775 32.7754C36.265 32.8879 36.2018 33.0405 36.2018 33.1997V33.3101C35.8017 33.451 35.4644 33.7289 35.2497 34.0947C35.0349 34.4604 34.9565 34.8904 35.0284 35.3084C35.1003 35.7264 35.3178 36.1054 35.6424 36.3784C35.9669 36.6515 36.3777 36.8008 36.8018 36.8Z" fill="white"/>
<defs>
<linearGradient id="paint0_linear_18_194" x1="64" y1="7.62939e-06" x2="7.62939e-06" y2="64" gradientUnits="userSpaceOnUse">
<stop stop-color="#F65A75"/>
<stop offset="1" stop-color="#48179C"/>
</linearGradient>
</defs>
</svg>
