<svg width="64" height="64" viewBox="0 0 64 64" fill="none" xmlns="http://www.w3.org/2000/svg">
<rect width="64" height="64" rx="32" fill="url(#paint0_linear_19_349)"/>
<g clip-path="url(#clip0_19_349)">
<path d="M47.4111 14.2236H32.7861C31.8558 14.2236 31.0986 14.9808 31.0986 15.9111V25.2408L29.8488 26.4906C29.2531 27.0863 28.8205 27.8001 28.5623 28.5769C27.7849 28.8396 27.0711 29.2683 26.4906 29.8493L23.0993 33.2406C22.4344 33.9055 21.9721 34.7161 21.7302 35.5986H15.9111C14.9808 35.5986 14.2236 36.3558 14.2236 37.2861V47.4111C14.2236 48.3415 14.9808 49.0986 15.9111 49.0986H30.5361C31.4665 49.0986 32.2236 48.3415 32.2236 47.4111V39.2065L34.036 37.3941C34.6317 36.7984 35.0643 36.0846 35.3224 35.3078C36.0998 35.0457 36.8136 34.6165 37.3941 34.0354L40.2229 31.2066C41.1618 30.2673 41.7012 29.0393 41.7715 27.7236H47.4111C48.3415 27.7236 49.0986 26.9665 49.0986 26.0361V15.9111C49.0986 14.9808 48.3415 14.2236 47.4111 14.2236ZM32.7861 15.3486H47.4111C47.7211 15.3486 47.9736 15.6006 47.9736 15.9111V18.7236H32.2236V15.9111C32.2236 15.6006 32.4762 15.3486 32.7861 15.3486ZM32.3862 28.726L33.3886 27.7236H38.3791C38.3701 27.7883 38.3689 27.853 38.3538 27.9183C38.2756 28.2484 38.0849 28.5724 37.8025 28.8554L35.1588 31.4991C34.6266 30.2701 33.6434 29.2694 32.3862 28.726ZM30.6441 27.286L31.2336 26.6965C31.3855 27.0526 31.6606 27.34 32.0009 27.5206L31.4727 28.0488C31.0463 28.4751 30.7538 28.9808 30.6261 29.5113C30.3207 30.7853 30.8084 32.0695 31.8704 32.803C32.0971 33.0494 32.2219 33.334 32.2236 33.6102C32.2242 33.7806 32.2039 33.9528 32.1623 34.1226C32.1567 34.1457 32.1466 34.1688 32.1393 34.1918C30.5159 33.5804 29.4111 32.0335 29.4111 30.2633C29.4111 29.1389 29.8493 28.0814 30.6441 27.286ZM26.6464 38.9759C26.1014 38.9292 25.6036 38.6468 25.2807 38.2008C24.9736 37.7772 24.8639 37.258 24.9426 36.7236H30.5361C30.8461 36.7236 31.0986 36.9756 31.0986 37.2861V40.0986H27.1611V39.0198L26.6464 38.9759ZM30.985 35.6673C30.841 35.6268 30.6925 35.5986 30.5361 35.5986H25.5141C25.5158 35.5969 25.5164 35.5958 25.5181 35.5941L28.726 32.3856C29.2581 33.6141 30.2414 34.6148 31.4974 35.1582L30.985 35.6673ZM23.8941 34.036L27.2854 30.6447C27.5847 30.3454 27.9306 30.1008 28.303 29.9044C28.2957 30.0231 28.2861 30.1424 28.2861 30.2633C28.2861 30.5778 28.3143 30.8871 28.3671 31.1886C28.267 31.2668 28.1714 31.3506 28.0814 31.4401L24.7227 34.7993C24.2941 35.2279 24.0004 35.7364 23.8739 36.2703C23.6579 37.1826 23.8384 38.1271 24.3694 38.8606C24.7806 39.4287 25.3707 39.8309 26.0361 40.0069V41.1561C24.1023 40.7888 22.6611 39.0715 22.6611 37.0133C22.6611 35.8889 23.0993 34.8314 23.8941 34.036ZM15.9111 36.7236H21.5502C21.5451 36.8198 21.5361 36.916 21.5361 37.0133C21.5361 37.2979 21.5637 37.5758 21.6059 37.8486H20.9736V38.9736H21.9034C22.0593 39.3753 22.264 39.7516 22.507 40.0986H15.3486V37.2861C15.3486 36.9756 15.6012 36.7236 15.9111 36.7236ZM30.5361 47.9736H15.9111C15.6012 47.9736 15.3486 47.7216 15.3486 47.4111V41.2236H23.5673C24.4015 41.8823 25.4359 42.2974 26.5733 42.3481L27.1611 42.3745V41.2236H31.0986V47.4111C31.0986 47.7216 30.8461 47.9736 30.5361 47.9736ZM33.2406 36.5988L32.2236 37.6158V37.2861C32.2236 36.9284 32.11 36.5976 31.9193 36.3243L32.4154 35.8321C32.8362 35.4113 33.1264 34.9129 33.2547 34.3904C33.3183 34.1311 33.3498 33.8661 33.3486 33.604C33.3453 33.0235 33.0955 32.4486 32.6331 31.9733L32.5454 31.9019C31.8451 31.4389 31.5211 30.6036 31.7202 29.7745C31.7269 29.7475 31.7382 29.7211 31.7461 29.6946C33.3694 30.3044 34.4736 31.8513 34.4736 33.6214C34.4736 34.7459 34.0354 35.8034 33.2406 36.5988ZM39.4281 30.4113L36.5993 33.2401C36.3001 33.5393 35.9541 33.784 35.5818 33.9803C35.5891 33.8616 35.5986 33.7424 35.5986 33.6214C35.5986 33.307 35.5705 32.9976 35.5176 32.6961C35.6178 32.6179 35.7134 32.5347 35.8034 32.4447L38.5979 29.6502C39.0276 29.2193 39.3218 28.7103 39.4484 28.177C39.6571 27.2973 39.4889 26.4068 38.9748 25.6711C38.5608 25.0782 37.9623 24.6513 37.2861 24.4538V23.3024C39.22 23.7023 40.6611 25.414 40.6611 27.4345C40.6611 28.5584 40.2229 29.6159 39.4281 30.4113ZM47.4111 26.5986H41.7147C41.3283 24.1681 39.2931 22.2567 36.7585 22.0998L36.1611 22.0626V25.4106L36.6573 25.4697C37.2147 25.5361 37.7238 25.8443 38.0523 26.3151C38.1153 26.4051 38.1625 26.5019 38.2092 26.5986H32.7861C32.4762 26.5986 32.2236 26.3466 32.2236 26.0361V19.8486H47.9736V26.0361C47.9736 26.3466 47.7211 26.5986 47.4111 26.5986Z" fill="white"/>
<path d="M37.8491 16.4746H38.9741V17.5996H37.8491V16.4746Z" fill="white"/>
<path d="M33.3491 16.4746H34.4741V17.5996H33.3491V16.4746Z" fill="white"/>
<path d="M35.5986 16.4746H36.7236V17.5996H35.5986V16.4746Z" fill="white"/>
<path d="M18.7241 37.8486H19.8491V38.9736H18.7241V37.8486Z" fill="white"/>
<path d="M16.4746 37.8486H17.5996V38.9736H16.4746V37.8486Z" fill="white"/>
<path d="M45.1618 44.367L41.622 40.8271L40.8267 41.6225L44.3665 45.1623H41.2243V46.2873H46.2868V41.2248H45.1618V44.367Z" fill="white"/>
<path d="M38.9399 39.748L39.7354 38.9526L40.4908 39.7079L39.6953 40.5034L38.9399 39.748Z" fill="white"/>
<path d="M37.3501 38.1504L38.1456 37.3549L38.9411 38.1504L38.1456 38.9459L37.3501 38.1504Z" fill="white"/>
<path d="M35.7588 36.5596L36.5543 35.7641L37.3498 36.5596L36.5543 37.3551L35.7588 36.5596Z" fill="white"/>
<path d="M45.7237 35.6002C45.1269 35.6002 44.6044 35.9135 44.304 36.3826L38.5378 35.0518L38.2847 36.1481L44.0559 37.4801C44.1527 38.3193 44.8592 38.9752 45.7237 38.9752C46.6541 38.9752 47.4112 38.2181 47.4112 37.2877C47.4112 36.3573 46.6541 35.6002 45.7237 35.6002ZM45.7237 37.8502C45.4138 37.8502 45.1612 37.5982 45.1612 37.2877C45.1612 36.9772 45.4138 36.7252 45.7237 36.7252C46.0337 36.7252 46.2862 36.9772 46.2862 37.2877C46.2862 37.5982 46.0337 37.8502 45.7237 37.8502Z" fill="white"/>
<path d="M37.4791 44.0578L36.1471 38.2871L35.0508 38.5397L36.3817 44.3064C35.9125 44.6062 35.5992 45.1288 35.5992 45.7256C35.5992 46.656 36.3563 47.4131 37.2867 47.4131C38.2171 47.4131 38.9742 46.656 38.9742 45.7256C38.9742 44.861 38.3183 44.1545 37.4791 44.0578ZM37.2867 46.2881C36.9768 46.2881 36.7242 46.0361 36.7242 45.7256C36.7242 45.4151 36.9768 45.1631 37.2867 45.1631C37.5967 45.1631 37.8492 45.4151 37.8492 45.7256C37.8492 46.0361 37.5967 46.2881 37.2867 46.2881Z" fill="white"/>
<path d="M18.1616 18.9565L21.7014 22.4963L22.4968 21.7009L18.957 18.1611H22.0991V17.0361H17.0366V22.0986H18.1616V18.9565Z" fill="white"/>
<path d="M22.8247 23.624L23.6202 22.8285L24.3755 23.5839L23.58 24.3793L22.8247 23.624Z" fill="white"/>
<path d="M24.375 25.1748L25.1705 24.3793L25.966 25.1748L25.1705 25.9703L24.375 25.1748Z" fill="white"/>
<path d="M25.9658 26.7637L26.7613 25.9682L27.5568 26.7637L26.7613 27.5592L25.9658 26.7637Z" fill="white"/>
<path d="M17.5986 27.7236C18.1954 27.7236 18.718 27.4103 19.0184 26.9412L24.7846 28.2721L25.0377 27.1758L19.2664 25.8438C19.1697 25.0045 18.4632 24.3486 17.5986 24.3486C16.6683 24.3486 15.9111 25.1058 15.9111 26.0361C15.9111 26.9665 16.6683 27.7236 17.5986 27.7236ZM17.5986 25.4736C17.9086 25.4736 18.1611 25.7256 18.1611 26.0361C18.1611 26.3466 17.9086 26.5986 17.5986 26.5986C17.2887 26.5986 17.0361 26.3466 17.0361 26.0361C17.0361 25.7256 17.2887 25.4736 17.5986 25.4736Z" fill="white"/>
<path d="M25.8438 19.2674L27.1758 25.0381L28.2721 24.7855L26.9412 19.0194C27.4103 18.719 27.7236 18.1964 27.7236 17.5996C27.7236 16.6692 26.9665 15.9121 26.0361 15.9121C25.1058 15.9121 24.3486 16.6692 24.3486 17.5996C24.3486 18.4642 25.0045 19.1707 25.8438 19.2674ZM26.0361 17.0371C26.3461 17.0371 26.5986 17.2891 26.5986 17.5996C26.5986 17.9101 26.3461 18.1621 26.0361 18.1621C25.7262 18.1621 25.4736 17.9101 25.4736 17.5996C25.4736 17.2891 25.7262 17.0371 26.0361 17.0371Z" fill="white"/>
<path d="M33.3491 20.9736H34.4741V22.0986H33.3491V20.9736Z" fill="white"/>
<path d="M33.3491 23.2246H34.4741V24.3496H33.3491V23.2246Z" fill="white"/>
<path d="M42.3486 25.4736H46.8486V20.9736H42.3486V25.4736ZM43.4736 22.0986H45.7236V24.3486H43.4736V22.0986Z" fill="white"/>
<path d="M16.4746 43.4736H22.0996V44.5986H16.4746V43.4736Z" fill="white"/>
<path d="M16.4746 45.7246H22.0996V46.8496H16.4746V45.7246Z" fill="white"/>
<path d="M23.2241 46.8486H29.9741V43.4736H23.2241V46.8486ZM24.3491 44.5986H28.8491V45.7236H24.3491V44.5986Z" fill="white"/>
</g>
<defs>
<linearGradient id="paint0_linear_19_349" x1="64" y1="7.62939e-06" x2="7.62939e-06" y2="64" gradientUnits="userSpaceOnUse">
<stop stop-color="#F65A75"/>
<stop offset="1" stop-color="#48179C"/>
</linearGradient>
<clipPath id="clip0_19_349">
<rect width="36" height="36" fill="white" transform="translate(13.6616 13.6621)"/>
</clipPath>
</defs>
</svg>
