<svg width="64" height="64" viewBox="0 0 64 64" fill="none" xmlns="http://www.w3.org/2000/svg">
<rect width="64" height="64" rx="32" fill="url(#paint0_linear_19_337)"/>
<g clip-path="url(#clip0_19_337)">
<path d="M47.0352 15.5186H16.2889C14.8398 15.5186 13.6606 16.6963 13.6606 18.1447V45.175C13.6606 46.6241 14.8398 47.8025 16.2889 47.8025H47.0345C48.4836 47.8025 49.6621 46.6234 49.6621 45.175V18.1447C49.6628 16.697 48.4836 15.5186 47.0352 15.5186ZM16.2889 16.645H47.0345C47.8628 16.645 48.5363 17.3179 48.5363 18.1447V22.6222H14.7871V18.1447C14.7871 17.3179 15.4613 16.645 16.2889 16.645ZM47.0352 46.6768H16.2889C15.4606 46.6768 14.7871 46.0032 14.7871 45.175V23.7479H48.5371V45.175C48.5371 46.0032 47.8628 46.6768 47.0352 46.6768ZM18.9699 21.3207C19.9016 21.3207 20.6588 20.5642 20.6588 19.6332C20.6588 18.7023 19.9009 17.9457 18.9699 17.9457C18.0397 17.9457 17.2824 18.7023 17.2824 19.6332C17.2824 20.5642 18.0397 21.3207 18.9699 21.3207ZM18.9699 19.0721C19.2807 19.0721 19.5331 19.3239 19.5331 19.6332C19.5331 19.9426 19.2807 20.1943 18.9699 20.1943C18.6606 20.1943 18.4088 19.9426 18.4088 19.6332C18.4088 19.3239 18.6606 19.0721 18.9699 19.0721ZM23.1535 21.3207C24.0852 21.3207 24.8424 20.5642 24.8424 19.6332C24.8424 18.7023 24.0845 17.9457 23.1535 17.9457C22.2233 17.9457 21.466 18.7023 21.466 19.6332C21.466 20.5642 22.2233 21.3207 23.1535 21.3207ZM23.1535 19.0721C23.4643 19.0721 23.7167 19.3239 23.7167 19.6332C23.7167 19.9426 23.4643 20.1943 23.1535 20.1943C22.8442 20.1943 22.5924 19.9426 22.5924 19.6332C22.5924 19.3239 22.8442 19.0721 23.1535 19.0721ZM27.3371 21.3207C28.2688 21.3207 29.026 20.5642 29.026 19.6332C29.026 18.7023 28.2681 17.9457 27.3371 17.9457C26.4069 17.9457 25.6496 18.7023 25.6496 19.6332C25.6496 20.5642 26.4069 21.3207 27.3371 21.3207ZM27.3371 19.0721C27.6479 19.0721 27.9003 19.3239 27.9003 19.6332C27.9003 19.9426 27.6479 20.1943 27.3371 20.1943C27.0278 20.1943 26.776 19.9426 26.776 19.6332C26.776 19.3239 27.0278 19.0721 27.3371 19.0721ZM31.063 19.6332C31.063 19.3225 31.3147 19.07 31.6262 19.07H45.4785C45.7892 19.07 46.0417 19.3218 46.0417 19.6332C46.0417 19.9447 45.7899 20.1964 45.4785 20.1964H31.6262C31.3154 20.1964 31.063 19.9447 31.063 19.6332ZM45.7506 39.429C45.7506 39.7398 45.4981 39.9922 45.1874 39.9922H18.1346C17.8238 39.9922 17.5714 39.7405 17.5714 39.429C17.5714 39.1175 17.8231 38.8658 18.1346 38.8658H45.1874C45.4981 38.8658 45.7506 39.1182 45.7506 39.429ZM45.7506 43.5268C45.7506 43.8376 45.4981 44.09 45.1874 44.09H18.1346C17.8238 44.09 17.5714 43.8383 17.5714 43.5268C17.5714 43.2154 17.8231 42.9636 18.1346 42.9636H45.1874C45.4981 42.9636 45.7506 43.2161 45.7506 43.5268ZM19.1176 36.6854H29.1111C29.9633 36.6854 30.6566 35.9921 30.6566 35.14V27.8809C30.6566 27.0287 29.9633 26.3354 29.1111 26.3354H19.1176C18.2654 26.3354 17.5721 27.0287 17.5721 27.8809V35.14C17.5714 35.9921 18.2654 36.6854 19.1176 36.6854ZM19.0206 35.5471L21.0224 32.7557L22.9904 35.5028C23.001 35.5189 23.0122 35.5344 23.0242 35.5499L23.0312 35.5597H19.1176C19.0846 35.5597 19.0522 35.5548 19.0206 35.5471ZM29.1111 35.5597H24.4163L24.1583 35.199L26.9349 31.3255L29.417 34.7905C29.45 34.8362 29.4887 34.8756 29.5309 34.9086V35.1407C29.5302 35.3671 29.3382 35.5597 29.1111 35.5597ZM19.1176 27.4611H29.1111C29.3382 27.4611 29.5309 27.6531 29.5309 27.8809V33.0151L27.3927 30.0304C27.2872 29.8827 27.1163 29.7955 26.9349 29.7955C26.7535 29.7955 26.5834 29.8827 26.4772 30.0304L23.4657 34.2322L21.4808 31.4619C21.3753 31.3143 21.2045 31.2271 21.0231 31.2271C20.8417 31.2271 20.6715 31.3143 20.5653 31.4619L18.6978 34.0656V27.8809C18.6978 27.6538 18.8898 27.4611 19.1176 27.4611ZM23.4285 31.2327C24.3095 31.2327 25.026 30.5162 25.026 29.6352C25.026 28.7535 24.3095 28.0356 23.4285 28.0356C22.5474 28.0356 21.831 28.7535 21.831 29.6352C21.831 30.5155 22.5474 31.2327 23.4285 31.2327ZM23.4285 29.1613C23.6886 29.1613 23.8996 29.3736 23.8996 29.6345C23.8996 29.8946 23.6879 30.1056 23.4285 30.1056C23.169 30.1056 22.9574 29.8939 22.9574 29.6345C22.9574 29.3736 23.1683 29.1613 23.4285 29.1613ZM45.7506 29.4615C45.7506 29.7723 45.4988 30.0247 45.1874 30.0247H33.6111C33.3003 30.0247 33.0479 29.773 33.0479 29.4615C33.0479 29.15 33.2996 28.8983 33.6111 28.8983H45.1874C45.4981 28.8983 45.7506 29.1507 45.7506 29.4615ZM45.7506 33.5593C45.7506 33.8701 45.4988 34.1225 45.1874 34.1225H33.6111C33.3003 34.1225 33.0479 33.8708 33.0479 33.5593C33.0479 33.2479 33.2996 32.9961 33.6111 32.9961H45.1874C45.4981 32.9961 45.7506 33.2486 45.7506 33.5593Z" fill="white"/>
</g>
<defs>
<linearGradient id="paint0_linear_19_337" x1="64" y1="7.62939e-06" x2="7.62939e-06" y2="64" gradientUnits="userSpaceOnUse">
<stop stop-color="#F65A75"/>
<stop offset="1" stop-color="#48179C"/>
</linearGradient>
<clipPath id="clip0_19_337">
<rect width="36" height="36" fill="white" transform="translate(13.6616 13.6621)"/>
</clipPath>
</defs>
</svg>
