<svg width="64" height="64" viewBox="0 0 64 64" fill="none" xmlns="http://www.w3.org/2000/svg">
<rect width="64" height="64" rx="32" fill="url(#paint0_linear_112_3465)"/>
<path d="M33.2452 17.2705C32.8543 17.0923 32.4298 17 32.0002 17C31.5706 17 31.146 17.0923 30.7552 17.2705L17.9002 23.1205C17.634 23.2379 17.4077 23.4301 17.2488 23.6738C17.09 23.9175 17.0054 24.2021 17.0054 24.493C17.0054 24.7839 17.09 25.0686 17.2488 25.3123C17.4077 25.5559 17.634 25.7482 17.9002 25.8655L30.7702 31.7305C31.161 31.9088 31.5856 32.0011 32.0152 32.0011C32.4448 32.0011 32.8693 31.9088 33.2602 31.7305L46.1302 25.8805C46.3964 25.7632 46.6227 25.5709 46.7815 25.3273C46.9404 25.0836 47.025 24.7989 47.025 24.508C47.025 24.2171 46.9404 23.9325 46.7815 23.6888C46.6227 23.4451 46.3964 23.2529 46.1302 23.1355L33.2452 17.2705Z" stroke="white" stroke-width="3" stroke-linecap="round" stroke-linejoin="round"/>
<path d="M17 32C16.9993 32.2869 17.0809 32.568 17.2351 32.8099C17.3893 33.0519 17.6096 33.2445 17.87 33.365L30.77 39.23C31.1588 39.4061 31.5807 39.4971 32.0075 39.4971C32.4343 39.4971 32.8562 39.4061 33.245 39.23L46.115 33.38C46.3805 33.2607 46.6056 33.0666 46.7627 32.8216C46.9199 32.5766 47.0023 32.2911 47 32" stroke="white" stroke-width="3" stroke-linecap="round" stroke-linejoin="round"/>
<path d="M17 39.5C16.9993 39.7869 17.0809 40.068 17.2351 40.3099C17.3893 40.5519 17.6096 40.7445 17.87 40.865L30.77 46.73C31.1588 46.9061 31.5807 46.9971 32.0075 46.9971C32.4343 46.9971 32.8562 46.9061 33.245 46.73L46.115 40.88C46.3805 40.7607 46.6056 40.5666 46.7627 40.3216C46.9199 40.0766 47.0023 39.7911 47 39.5" stroke="white" stroke-width="3" stroke-linecap="round" stroke-linejoin="round"/>
<defs>
<linearGradient id="paint0_linear_112_3465" x1="64" y1="7.62939e-06" x2="7.62939e-06" y2="64" gradientUnits="userSpaceOnUse">
<stop stop-color="#F65A75"/>
<stop offset="1" stop-color="#48179C"/>
</linearGradient>
</defs>
</svg>
