<svg width="64" height="64" viewBox="0 0 64 64" fill="none" xmlns="http://www.w3.org/2000/svg">
<rect width="64" height="64" rx="32" fill="url(#paint0_linear_37_130)"/>
<path d="M46.9063 40.9438H17.0938C15.9688 40.9438 15.0688 40.0437 15.0688 38.9187V19.9625C15.1251 18.8375 16.0251 17.9375 17.0938 17.9375H46.7938C47.9188 17.9375 48.8188 18.8375 48.8188 19.9625V38.9187C48.8751 39.425 48.6501 39.9312 48.3126 40.325C47.9751 40.7187 47.4126 40.9438 46.9063 40.9438ZM17.0938 18.7812C16.4751 18.7812 15.9126 19.2875 15.9126 19.9625V38.9187C15.9126 39.5375 16.4188 40.1 17.0938 40.1H46.8501C47.1876 40.1 47.4688 39.9875 47.6938 39.7625C47.9188 39.5375 47.9751 39.2563 47.9751 38.975V19.9625C47.9751 19.3438 47.4688 18.7812 46.7938 18.7812H17.0938Z" fill="white"/>
<path d="M46.2314 38.7492H17.7127C17.4877 38.7492 17.2627 38.5805 17.2627 38.2992V20.5242C17.2627 20.2992 17.4314 20.0742 17.7127 20.0742H46.2314C46.4564 20.0742 46.6814 20.243 46.6814 20.5242V38.2992C46.6814 38.5805 46.4564 38.7492 46.2314 38.7492ZM18.1064 37.9055H45.7814V20.9742H18.1064V37.9055Z" fill="white"/>
<path d="M39.0874 46.0617H24.9124C24.6874 46.0617 24.4624 45.893 24.4624 45.6117C24.4624 44.2617 25.5874 43.1367 26.9374 43.1367H36.8937C38.2437 43.1367 39.3687 44.2055 39.4249 45.4992V45.6117C39.5374 45.893 39.3124 46.0617 39.0874 46.0617ZM25.3624 45.218H38.5812C38.3562 44.543 37.6812 43.9805 36.9499 43.9805H26.9937C26.2062 43.9805 25.5874 44.4867 25.3624 45.218Z" fill="white"/>
<path d="M35.4874 43.9819C35.3186 43.9819 35.1499 43.8694 35.0936 43.7007L34.1374 40.6632C34.0811 40.4382 34.1936 40.2132 34.4186 40.1569C34.6436 40.1007 34.8686 40.2132 34.9249 40.4382L35.8811 43.4757C35.9374 43.7007 35.8249 43.9257 35.5999 43.9819C35.5999 43.9819 35.5436 43.9819 35.4874 43.9819Z" fill="white"/>
<path d="M28.5126 43.9819C28.4563 43.9819 28.4001 43.9819 28.4001 43.9819C28.1751 43.9257 28.0626 43.7007 28.1188 43.4757L29.0751 40.4382C29.1313 40.2132 29.3563 40.1007 29.5813 40.1569C29.8063 40.2132 29.9188 40.4382 29.8626 40.6632L28.9063 43.7007C28.8501 43.8694 28.6813 43.9819 28.5126 43.9819Z" fill="white"/>
<path d="M43.25 36.5004H40.0437C39.8187 36.5004 39.5938 36.3316 39.5938 36.0504V30.5379C39.5938 30.3129 39.7625 30.0879 40.0437 30.0879H43.25C43.475 30.0879 43.7 30.2566 43.7 30.5379V36.0504C43.6437 36.3316 43.475 36.5004 43.25 36.5004ZM40.4375 35.6566H42.8V30.9879H40.4375V35.6566Z" fill="white"/>
<path d="M40.7751 26.3184C40.7188 26.3184 40.6626 26.3184 40.6063 26.2621L35.9376 24.4059C35.7126 24.2934 35.6001 24.0684 35.7126 23.8434C35.8251 23.6184 36.0501 23.5059 36.2751 23.6184L40.9438 25.4746C41.1688 25.5871 41.2813 25.8121 41.1688 26.0371C41.1126 26.2059 40.9438 26.3184 40.7751 26.3184Z" fill="white"/>
<path d="M27.8937 28.8496C27.8375 28.8496 27.7812 28.8496 27.725 28.7934L23.0562 26.9371C22.8312 26.8246 22.7187 26.5996 22.8312 26.3746C22.9437 26.1496 23.1687 26.0371 23.3937 26.1496L28.0625 28.0059C28.2875 28.1184 28.4 28.3434 28.2875 28.5684C28.2312 28.7371 28.0625 28.8496 27.8937 28.8496Z" fill="white"/>
<path d="M29.4687 28.6257C29.3562 28.6257 29.2437 28.5695 29.1312 28.457C28.9624 28.2882 29.0187 28.007 29.1874 27.8382L34.1937 23.9007C34.3624 23.732 34.6437 23.7882 34.8124 23.957C34.9812 24.1257 34.9249 24.407 34.7562 24.5757L29.7499 28.5132C29.6937 28.5695 29.5812 28.6257 29.4687 28.6257Z" fill="white"/>
<path d="M23.9561 36.5004H20.7498C20.5248 36.5004 20.2998 36.3316 20.2998 36.0504V30.5379C20.2998 30.3129 20.4686 30.0879 20.7498 30.0879H23.9561C24.1811 30.0879 24.4061 30.2566 24.4061 30.5379V36.0504C24.4061 36.3316 24.2373 36.5004 23.9561 36.5004ZM21.1998 35.6566H23.5623V30.9879H21.1998V35.6566Z" fill="white"/>
<path d="M30.4248 36.5004H27.2186C26.9936 36.5004 26.7686 36.3316 26.7686 36.0504V33.0691C26.7686 32.8441 26.9373 32.6191 27.2186 32.6191H30.4248C30.6498 32.6191 30.8748 32.7879 30.8748 33.0691V36.0504C30.8186 36.3316 30.6498 36.5004 30.4248 36.5004ZM27.6123 35.6566H29.9748V33.5191H27.6123V35.6566Z" fill="white"/>
<path d="M36.7813 36.5008H33.575C33.35 36.5008 33.125 36.332 33.125 36.0508V28.0633C33.125 27.8383 33.2937 27.6133 33.575 27.6133H36.7813C37.0063 27.6133 37.2313 27.782 37.2313 28.0633V36.107C37.2313 36.332 37.0063 36.5008 36.7813 36.5008ZM34.025 35.657H36.3875V28.5133H34.025V35.657Z" fill="white"/>
<path d="M22.3251 27.5555C21.5938 27.5555 20.9751 26.9367 20.9751 26.2055C20.9751 25.4742 21.5938 24.8555 22.3251 24.8555C23.0563 24.8555 23.6751 25.4742 23.6751 26.2055C23.6751 26.9367 23.1126 27.5555 22.3251 27.5555ZM22.3251 25.6992C22.0438 25.6992 21.8188 25.9242 21.8188 26.2055C21.8188 26.4867 22.0438 26.7117 22.3251 26.7117C22.6063 26.7117 22.8313 26.4867 22.8313 26.2055C22.8313 25.9242 22.6063 25.6992 22.3251 25.6992Z" fill="white"/>
<path d="M28.7938 30.0867C28.0626 30.0867 27.4438 29.468 27.4438 28.7367C27.4438 28.0055 28.0626 27.3867 28.7938 27.3867C29.5251 27.3867 30.1438 28.0055 30.1438 28.7367C30.1438 29.468 29.5251 30.0867 28.7938 30.0867ZM28.7938 28.2305C28.5126 28.2305 28.2876 28.4555 28.2876 28.7367C28.2876 29.018 28.5126 29.243 28.7938 29.243C29.0751 29.243 29.3001 29.018 29.3001 28.7367C29.3001 28.4555 29.0751 28.2305 28.7938 28.2305Z" fill="white"/>
<path d="M35.2064 25.0809C34.4752 25.0809 33.8564 24.4621 33.8564 23.7309C33.8564 22.9996 34.4752 22.3809 35.2064 22.3809C35.9377 22.3809 36.5564 22.9996 36.5564 23.7309C36.5564 24.4621 35.9377 25.0809 35.2064 25.0809ZM35.2064 23.2246C34.9252 23.2246 34.7002 23.4496 34.7002 23.7309C34.7002 24.0121 34.9252 24.2371 35.2064 24.2371C35.4877 24.2371 35.7127 24.0121 35.7127 23.7309C35.7127 23.4496 35.4877 23.2246 35.2064 23.2246Z" fill="white"/>
<path d="M41.6752 27.5555C40.9439 27.5555 40.3252 26.9367 40.3252 26.2055C40.3252 25.4742 40.9439 24.8555 41.6752 24.8555C42.4064 24.8555 43.0252 25.4742 43.0252 26.2055C43.0252 26.9367 42.4064 27.5555 41.6752 27.5555ZM41.6752 25.6992C41.3939 25.6992 41.1689 25.9242 41.1689 26.2055C41.1689 26.4867 41.3939 26.7117 41.6752 26.7117C41.9564 26.7117 42.1814 26.4867 42.1814 26.2055C42.1814 25.9242 41.9564 25.6992 41.6752 25.6992Z" fill="white"/>
<defs>
<linearGradient id="paint0_linear_37_130" x1="64" y1="7.62939e-06" x2="7.62939e-06" y2="64" gradientUnits="userSpaceOnUse">
<stop stop-color="#F65A75"/>
<stop offset="1" stop-color="#48179C"/>
</linearGradient>
</defs>
</svg>
