<svg width="64" height="64" viewBox="0 0 64 64" fill="none" xmlns="http://www.w3.org/2000/svg">
<rect width="64" height="64" rx="32" fill="url(#paint0_linear_112_3425)"/>
<g clip-path="url(#clip0_112_3425)">
<path d="M20.6875 50H44.3125C45.2429 50 46 49.2429 46 48.3125V24.6875C46 24.6684 45.991 24.6526 45.9899 24.6346C45.9869 24.6099 45.982 24.5855 45.9753 24.5615C45.9572 24.4835 45.9227 24.4102 45.874 24.3466C45.8661 24.3365 45.8673 24.3241 45.8594 24.314L36.8594 14.189L36.8481 14.1823C36.7793 14.1107 36.6927 14.0587 36.5973 14.0315C36.577 14.0255 36.556 14.0214 36.5343 14.0191C36.5016 14.0135 36.4712 14 36.4375 14H20.6875C19.7571 14 19 14.7571 19 15.6875V48.3125C19 49.2429 19.7571 50 20.6875 50ZM37 16.0419L44.1854 24.125H37.5625C37.315 24.125 37 23.6525 37 23.2812V16.0419ZM20.125 15.6875C20.125 15.5383 20.1843 15.3952 20.2898 15.2898C20.3952 15.1843 20.5383 15.125 20.6875 15.125H35.875V23.2812C35.875 24.1914 36.6119 25.25 37.5625 25.25H44.875V48.3125C44.875 48.4617 44.8157 48.6048 44.7102 48.7102C44.6048 48.8157 44.4617 48.875 44.3125 48.875H20.6875C20.3725 48.875 20.125 48.6275 20.125 48.3125V15.6875Z" fill="white"/>
<path d="M25.1875 29.75H39.8125C39.9617 29.75 40.1048 29.6907 40.2102 29.5852C40.3157 29.4798 40.375 29.3367 40.375 29.1875C40.375 29.0383 40.3157 28.8952 40.2102 28.7898C40.1048 28.6843 39.9617 28.625 39.8125 28.625H25.1875C25.0383 28.625 24.8952 28.6843 24.7898 28.7898C24.6843 28.8952 24.625 29.0383 24.625 29.1875C24.625 29.3367 24.6843 29.4798 24.7898 29.5852C24.8952 29.6907 25.0383 29.75 25.1875 29.75ZM25.1875 34.25H39.8125C39.9617 34.25 40.1048 34.1907 40.2102 34.0852C40.3157 33.9798 40.375 33.8367 40.375 33.6875C40.375 33.5383 40.3157 33.3952 40.2102 33.2898C40.1048 33.1843 39.9617 33.125 39.8125 33.125H25.1875C25.0383 33.125 24.8952 33.1843 24.7898 33.2898C24.6843 33.3952 24.625 33.5383 24.625 33.6875C24.625 33.8367 24.6843 33.9798 24.7898 34.0852C24.8952 34.1907 25.0383 34.25 25.1875 34.25ZM25.1875 25.25H31.9375C32.0867 25.25 32.2298 25.1907 32.3352 25.0852C32.4407 24.9798 32.5 24.8367 32.5 24.6875C32.5 24.5383 32.4407 24.3952 32.3352 24.2898C32.2298 24.1843 32.0867 24.125 31.9375 24.125H25.1875C25.0383 24.125 24.8952 24.1843 24.7898 24.2898C24.6843 24.3952 24.625 24.5383 24.625 24.6875C24.625 24.8367 24.6843 24.9798 24.7898 25.0852C24.8952 25.1907 25.0383 25.25 25.1875 25.25ZM25.1875 38.75H39.8125C39.9617 38.75 40.1048 38.6907 40.2102 38.5852C40.3157 38.4798 40.375 38.3367 40.375 38.1875C40.375 38.0383 40.3157 37.8952 40.2102 37.7898C40.1048 37.6843 39.9617 37.625 39.8125 37.625H25.1875C25.0383 37.625 24.8952 37.6843 24.7898 37.7898C24.6843 37.8952 24.625 38.0383 24.625 38.1875C24.625 38.3367 24.6843 38.4798 24.7898 38.5852C24.8952 38.6907 25.0383 38.75 25.1875 38.75ZM25.1875 43.25H39.8125C39.9617 43.25 40.1048 43.1907 40.2102 43.0852C40.3157 42.9798 40.375 42.8367 40.375 42.6875C40.375 42.5383 40.3157 42.3952 40.2102 42.2898C40.1048 42.1843 39.9617 42.125 39.8125 42.125H25.1875C25.0383 42.125 24.8952 42.1843 24.7898 42.2898C24.6843 42.3952 24.625 42.5383 24.625 42.6875C24.625 42.8367 24.6843 42.9798 24.7898 43.0852C24.8952 43.1907 25.0383 43.25 25.1875 43.25Z" fill="white"/>
</g>
<defs>
<linearGradient id="paint0_linear_112_3425" x1="64" y1="7.62939e-06" x2="7.62939e-06" y2="64" gradientUnits="userSpaceOnUse">
<stop stop-color="#F65A75"/>
<stop offset="1" stop-color="#48179C"/>
</linearGradient>
<clipPath id="clip0_112_3425">
<rect width="27" height="36" fill="white" transform="translate(19 14)"/>
</clipPath>
</defs>
</svg>
