<svg width="64" height="64" viewBox="0 0 64 64" fill="none" xmlns="http://www.w3.org/2000/svg">
<rect width="64" height="64" rx="32" fill="url(#paint0_linear_18_203)"/>
<path d="M48.5425 14H15.1891C13.982 14 13 14.982 13 16.189V44.3155C13 45.5214 13.982 46.5025 15.1891 46.5025H19.6306V48.7829H17.313C16.977 48.7829 16.7045 49.0553 16.7045 49.3914C16.7045 49.7275 16.977 50 17.313 50H46.4184C46.7545 50 47.027 49.7275 47.027 49.3914C47.027 49.0553 46.7545 48.7829 46.4184 48.7829H44.101V46.5025H48.5424C49.7495 46.5025 50.7315 45.5214 50.7315 44.3155V16.189C50.7315 14.982 49.7495 14 48.5425 14ZM15.1891 15.2171H48.5424C49.0784 15.2171 49.5143 15.6531 49.5143 16.1891V17.7411H24.9894C24.7852 17.7411 24.5946 17.8436 24.4819 18.0139L23.4483 19.5761H14.2171V16.189C14.2171 15.6531 14.6531 15.2171 15.1891 15.2171ZM24.77 46.5025H26.0736V48.7829H24.77V46.5025ZM31.2129 46.5025H32.5186V48.7829H31.2129V46.5025ZM37.6581 46.5025H38.9617V48.7829H37.6581V46.5025ZM36.441 48.7829H33.7358V37.5065H36.441V48.7829ZM29.9958 48.7829H27.2907V40.5318H29.9958V48.7829ZM23.5529 48.7829H20.8477V43.0999H23.5529V48.7829ZM40.1787 48.7829V32.795H42.8839V48.7829H40.1787ZM48.5425 45.2854H44.1011V32.1865C44.1011 31.8504 43.8286 31.5779 43.4925 31.5779H39.5702C39.2341 31.5779 38.9616 31.8504 38.9616 32.1865V45.2853H37.658V36.8979C37.658 36.5619 37.3855 36.2894 37.0494 36.2894H33.1271C32.791 36.2894 32.5185 36.5619 32.5185 36.8979V45.2854H31.2129V39.9232C31.2129 39.5872 30.9404 39.3147 30.6043 39.3147H26.682C26.3459 39.3147 26.0734 39.5872 26.0734 39.9232V45.2854H24.7699V42.4913C24.7699 42.1553 24.4974 41.8828 24.1613 41.8828H20.239C19.9029 41.8828 19.6304 42.1553 19.6304 42.4913V45.2854H15.1891C14.6531 45.2854 14.2171 44.8503 14.2171 44.3156V20.7932H23.7754C23.9797 20.7932 24.1702 20.6907 24.2829 20.5204L25.3165 18.9582H49.5144V44.3155C49.5144 44.8503 49.0784 45.2854 48.5425 45.2854ZM16.3125 17.3966C16.3125 17.0623 16.5864 16.7886 16.9206 16.7886C17.2548 16.7886 17.5286 17.0624 17.5286 17.3966C17.5286 17.7308 17.2548 18.0046 16.9206 18.0046C16.5864 18.0046 16.3125 17.7309 16.3125 17.3966ZM18.3265 17.3966C18.3265 17.0623 18.6004 16.7886 18.9346 16.7886C19.271 16.7886 19.5448 17.0624 19.5448 17.3966C19.5448 17.7308 19.271 18.0046 18.9346 18.0046C18.6004 18.0046 18.3265 17.7309 18.3265 17.3966ZM20.3405 17.3966C20.3405 17.0623 20.6143 16.7886 20.9507 16.7886C21.285 16.7886 21.5587 17.0624 21.5587 17.3966C21.5587 17.7308 21.2849 18.0046 20.9507 18.0046C20.6143 18.0046 20.3405 17.7309 20.3405 17.3966ZM19.6435 24.8099C19.6435 24.4738 19.916 24.2013 20.2521 24.2013H21.6925C22.0286 24.2013 22.3011 24.4738 22.3011 24.8099C22.3011 25.1459 22.0286 25.4184 21.6925 25.4184H20.2521C19.916 25.4184 19.6435 25.146 19.6435 24.8099ZM23.0008 24.8099C23.0008 24.4738 23.2733 24.2013 23.6094 24.2013H28.3058C28.6419 24.2013 28.9143 24.4738 28.9143 24.8099C28.9143 25.1459 28.6419 25.4184 28.3058 25.4184H23.6094C23.2733 25.4184 23.0008 25.146 23.0008 24.8099ZM19.6306 26.9791C19.6306 26.643 19.903 26.3705 20.2391 26.3705H28.3058C28.6419 26.3705 28.9143 26.643 28.9143 26.9791C28.9143 27.3152 28.6419 27.5877 28.3058 27.5877H20.2391C19.903 27.5877 19.6306 27.3152 19.6306 26.9791ZM19.6306 29.1462C19.6306 28.8101 19.903 28.5376 20.2391 28.5376H24.9355C25.2716 28.5376 25.5441 28.8101 25.5441 29.1462C25.5441 29.4823 25.2716 29.7547 24.9355 29.7547H20.2391C19.903 29.7547 19.6306 29.4823 19.6306 29.1462ZM44.1011 24.8099V27.6044C44.1011 27.9405 43.8286 28.213 43.4925 28.213C43.1564 28.213 42.8839 27.9405 42.8839 27.6044V26.2793L34.7738 34.3914C34.5486 34.6169 34.1875 34.6303 33.9459 34.4219L30.7974 31.7058L20.6403 40.6137C20.5249 40.715 20.3818 40.7647 20.2394 40.7647C20.0702 40.7647 19.9019 40.6945 19.7816 40.5573C19.56 40.3047 19.5851 39.9201 19.8379 39.6985L30.3928 30.4416C30.6211 30.2414 30.9618 30.2401 31.1916 30.4383L34.3127 33.1309L42.0234 25.4184H40.6999C40.3638 25.4184 40.0913 25.1459 40.0913 24.8099C40.0913 24.4738 40.3638 24.2013 40.6999 24.2013H43.4923C43.8286 24.2013 44.1011 24.4738 44.1011 24.8099Z" fill="white"/>
<defs>
<linearGradient id="paint0_linear_18_203" x1="64" y1="7.62939e-06" x2="7.62939e-06" y2="64" gradientUnits="userSpaceOnUse">
<stop stop-color="#F65A75"/>
<stop offset="1" stop-color="#48179C"/>
</linearGradient>
</defs>
</svg>
