<svg width="64" height="64" viewBox="0 0 64 64" fill="none" xmlns="http://www.w3.org/2000/svg">
<rect width="64" height="64" rx="32" fill="url(#paint0_linear_37_249)"/>
<g clip-path="url(#clip0_37_249)">
<path d="M48.9698 28.9328L45.9698 28.5038C45.6268 27.128 45.0808 25.8109 44.3498 24.596L46.1696 22.1702C46.3421 21.9384 46.4256 21.6523 46.4049 21.3641C46.3842 21.0759 46.2607 20.8048 46.0568 20.6L43.4 17.9432C43.1953 17.7399 42.9243 17.6168 42.6365 17.5963C42.3487 17.5758 42.0631 17.6593 41.8316 17.8316L39.404 19.6514C38.1891 18.9204 36.872 18.3744 35.4962 18.0314L35.0672 15.0314C35.0257 14.7457 34.8829 14.4845 34.665 14.2952C34.4471 14.1059 34.1685 14.0012 33.8798 14H30.1202C29.8317 14.0011 29.5532 14.1057 29.3353 14.2948C29.1174 14.4838 28.9746 14.7448 28.9328 15.0302L28.5038 18.0302C27.128 18.3732 25.8109 18.9192 24.596 19.6502L22.1702 17.8316C21.9385 17.6589 21.6526 17.5752 21.3644 17.5957C21.0762 17.6162 20.8049 17.7395 20.6 17.9432L17.9432 20.6C17.7399 20.8047 17.6168 21.0757 17.5963 21.3635C17.5758 21.6513 17.6593 21.9369 17.8316 22.1684L19.6514 24.596C18.9204 25.8109 18.3744 27.128 18.0314 28.5038L15.0314 28.9328C14.7457 28.9743 14.4845 29.1171 14.2952 29.335C14.1059 29.5529 14.0012 29.8315 14 30.1202V33.8798C14.0011 34.1683 14.1057 34.4468 14.2948 34.6647C14.4838 34.8826 14.7448 35.0254 15.0302 35.0672L18.0302 35.4962C18.3732 36.872 18.9192 38.1891 19.6502 39.404L17.8316 41.8298C17.6589 42.0615 17.5752 42.3474 17.5957 42.6356C17.6162 42.9238 17.7395 43.1951 17.9432 43.4L20.6 46.0568C20.8047 46.2601 21.0757 46.3832 21.3635 46.4037C21.6513 46.4242 21.9369 46.3407 22.1684 46.1684L24.5948 44.3486C25.8097 45.0796 27.1268 45.6256 28.5026 45.9686L28.9316 48.9686C28.9732 49.2545 29.1161 49.5159 29.3342 49.7052C29.5524 49.8945 29.8313 49.9991 30.1202 50H33.8798C34.1683 49.9989 34.4468 49.8943 34.6647 49.7052C34.8826 49.5162 35.0254 49.2552 35.0672 48.9698L35.4962 45.9698C36.872 45.6268 38.1891 45.0808 39.404 44.3498L41.8298 46.1696C42.0616 46.3421 42.3477 46.4256 42.6359 46.4049C42.9241 46.3842 43.1952 46.2607 43.4 46.0568L46.0568 43.4C46.2601 43.1953 46.3832 42.9243 46.4037 42.6365C46.4242 42.3487 46.3407 42.0631 46.1684 41.8316L44.3486 39.404C45.0796 38.1891 45.6256 36.872 45.9686 35.4962L48.9686 35.0672C49.2543 35.0257 49.5155 34.8829 49.7048 34.665C49.8941 34.4471 49.9988 34.1685 50 33.8798V30.1202C49.9989 29.8317 49.8943 29.5532 49.7052 29.3353C49.5162 29.1174 49.2552 28.9746 48.9698 28.9328ZM48.8 33.8798L45.3932 34.3664C45.2722 34.3837 45.1594 34.4376 45.0699 34.5208C44.9803 34.604 44.9183 34.7126 44.8922 34.832C44.5601 36.3531 43.959 37.8026 43.1174 39.1124C43.0515 39.2153 43.0186 39.3359 43.0231 39.458C43.0276 39.5802 43.0693 39.698 43.1426 39.7958L45.2084 42.5504L42.5504 45.2084L39.7958 43.1426C39.698 43.0693 39.5802 43.0276 39.458 43.0231C39.3359 43.0186 39.2153 43.0515 39.1124 43.1174C37.8026 43.959 36.3531 44.5601 34.832 44.8922C34.7126 44.9183 34.604 44.9803 34.5208 45.0699C34.4376 45.1594 34.3837 45.2722 34.3664 45.3932L33.8798 48.8H30.1202L29.6336 45.3932C29.6163 45.2722 29.5624 45.1594 29.4792 45.0699C29.396 44.9803 29.2874 44.9183 29.168 44.8922C27.6469 44.5601 26.1974 43.959 24.8876 43.1174C24.7847 43.0515 24.6641 43.0186 24.542 43.0231C24.4198 43.0276 24.302 43.0693 24.2042 43.1426L21.4496 45.2084L18.7916 42.5504L20.8574 39.7958C20.9307 39.698 20.9724 39.5802 20.9769 39.458C20.9814 39.3359 20.9485 39.2153 20.8826 39.1124C20.041 37.8026 19.4399 36.3531 19.1078 34.832C19.0817 34.7126 19.0197 34.604 18.9301 34.5208C18.8406 34.4376 18.7278 34.3837 18.6068 34.3664L15.2 33.8798V30.1202L18.6068 29.6336C18.7278 29.6163 18.8406 29.5624 18.9301 29.4792C19.0197 29.396 19.0817 29.2874 19.1078 29.168C19.4399 27.6469 20.041 26.1974 20.8826 24.8876C20.9485 24.7847 20.9814 24.6641 20.9769 24.542C20.9724 24.4198 20.9307 24.302 20.8574 24.2042L18.7916 21.4496L21.4496 18.7916L24.2042 20.8574C24.302 20.9307 24.4198 20.9724 24.542 20.9769C24.6641 20.9814 24.7847 20.9485 24.8876 20.8826C26.1974 20.041 27.6469 19.4399 29.168 19.1078C29.2874 19.0817 29.396 19.0197 29.4792 18.9301C29.5624 18.8406 29.6163 18.7278 29.6336 18.6068L30.1202 15.2H33.8798L34.3664 18.6068C34.3837 18.7278 34.4376 18.8406 34.5208 18.9301C34.604 19.0197 34.7126 19.0817 34.832 19.1078C36.3531 19.4399 37.8026 20.041 39.1124 20.8826C39.2153 20.9485 39.3359 20.9814 39.458 20.9769C39.5802 20.9724 39.698 20.9307 39.7958 20.8574L42.5504 18.7916L45.2084 21.4496L43.1426 24.2042C43.0693 24.302 43.0276 24.4198 43.0231 24.542C43.0186 24.6641 43.0515 24.7847 43.1174 24.8876C43.959 26.1974 44.5601 27.6469 44.8922 29.168C44.9183 29.2874 44.9803 29.396 45.0699 29.4792C45.1594 29.5624 45.2722 29.6163 45.3932 29.6336L48.8 30.1202V33.8798Z" fill="white"/>
<path d="M32 20C29.6266 20 27.3066 20.7038 25.3332 22.0224C23.3598 23.3409 21.8217 25.2151 20.9135 27.4078C20.0052 29.6005 19.7676 32.0133 20.2306 34.3411C20.6936 36.6689 21.8365 38.8071 23.5147 40.4853C25.193 42.1635 27.3312 43.3064 29.6589 43.7694C31.9867 44.2324 34.3995 43.9948 36.5922 43.0866C38.7849 42.1783 40.6591 40.6402 41.9776 38.6668C43.2962 36.6935 44 34.3734 44 32C43.9964 28.8185 42.7309 25.7684 40.4813 23.5188C38.2316 21.2691 35.1815 20.0037 32 20ZM24.32 35.4266C23.2223 34.3769 22.2218 33.23 21.3308 32C22.2226 30.7673 23.2249 29.6186 24.3254 28.568C23.8479 29.6482 23.6012 30.8162 23.6012 31.9973C23.6012 33.1784 23.8479 34.3464 24.3254 35.4266H24.32ZM32 42.8C29.496 42.7963 27.0708 41.9238 25.1383 40.3314C23.2058 38.739 21.8857 36.5254 21.4034 34.0682C24.0332 37.2608 27.86 40.4 32 40.4C36.14 40.4 39.9674 37.2602 42.5966 34.0682C42.1143 36.5254 40.7942 38.739 38.8617 40.3314C36.9293 41.9238 34.5041 42.7963 32 42.8ZM24.8 32C24.8 30.576 25.2223 29.1839 26.0134 27.9999C26.8046 26.8159 27.9291 25.893 29.2447 25.3481C30.5603 24.8031 32.008 24.6605 33.4047 24.9383C34.8013 25.2162 36.0842 25.9019 37.0912 26.9088C38.0981 27.9158 38.7838 29.1987 39.0617 30.5954C39.3395 31.992 39.1969 33.4397 38.6519 34.7553C38.107 36.0709 37.1841 37.1954 36.0001 37.9866C34.8161 38.7777 33.424 39.2 32 39.2C31.0539 39.202 30.1168 39.0171 29.2423 38.656C28.3679 38.2948 27.5734 37.7646 26.9044 37.0956C26.2355 36.4266 25.7052 35.6321 25.344 34.7577C24.9829 33.8832 24.798 32.9461 24.8 32ZM39.6746 35.432C40.1544 34.3502 40.4016 33.1797 40.4 31.9963C40.3985 30.813 40.1483 29.6431 39.6656 28.5626C40.7688 29.6151 41.7741 30.7657 42.6692 32C41.7774 33.2327 40.7751 34.3814 39.6746 35.432ZM32 23.6C27.86 23.6 24.0326 26.7398 21.4034 29.9318C21.8824 27.473 23.2015 25.2574 25.1348 23.6644C27.068 22.0714 29.495 21.2003 32 21.2003C34.505 21.2003 36.932 22.0714 38.8653 23.6644C40.7985 25.2574 42.1176 27.473 42.5966 29.9318C39.974 26.7482 36.14 23.6 32 23.6Z" fill="white"/>
<path d="M36.8002 31.9992C36.7988 30.7266 36.2926 29.5066 35.3927 28.6067C34.4929 27.7068 33.2728 27.2006 32.0002 27.1992C31.5206 27.1988 31.0438 27.2723 30.5866 27.417C30.1431 27.2136 29.648 27.1508 29.1678 27.237C28.6876 27.3232 28.2453 27.5543 27.9003 27.8993C27.5553 28.2443 27.3242 28.6866 27.238 29.1669C27.1517 29.6471 27.2146 30.1422 27.418 30.5856C27.2733 31.0428 27.1998 31.5196 27.2002 31.9992C27.2002 33.2723 27.7059 34.4932 28.6061 35.3933C29.5063 36.2935 30.7272 36.7992 32.0002 36.7992C33.2732 36.7992 34.4941 36.2935 35.3943 35.3933C36.2945 34.4932 36.8002 33.2723 36.8002 31.9992ZM29.6002 28.3992C29.8375 28.3992 30.0695 28.4696 30.2669 28.6015C30.4642 28.7333 30.618 28.9207 30.7089 29.14C30.7997 29.3593 30.8234 29.6006 30.7771 29.8333C30.7308 30.0661 30.6165 30.2799 30.4487 30.4477C30.2809 30.6156 30.0671 30.7299 29.8343 30.7762C29.6015 30.8225 29.3602 30.7987 29.141 30.7079C28.9217 30.6171 28.7343 30.4632 28.6024 30.2659C28.4706 30.0686 28.4002 29.8366 28.4002 29.5992C28.4002 29.281 28.5266 28.9757 28.7517 28.7507C28.9767 28.5256 29.2819 28.3992 29.6002 28.3992ZM28.4002 31.9992C28.4002 31.89 28.4188 31.7868 28.4278 31.6806C28.7844 31.8867 29.1884 31.9965 29.6002 31.9992C30.2367 31.9992 30.8472 31.7464 31.2973 31.2963C31.7473 30.8462 32.0002 30.2357 32.0002 29.5992C31.9975 29.1874 31.8877 28.7834 31.6816 28.4268C31.7878 28.4178 31.891 28.3992 32.0002 28.3992C32.7122 28.3992 33.4082 28.6104 34.0002 29.0059C34.5923 29.4015 35.0537 29.9637 35.3262 30.6216C35.5986 31.2794 35.6699 32.0032 35.531 32.7015C35.3921 33.3999 35.0493 34.0413 34.5458 34.5448C34.0423 35.0483 33.4009 35.3911 32.7025 35.53C32.0042 35.669 31.2804 35.5977 30.6225 35.3252C29.9647 35.0527 29.4025 34.5913 29.0069 33.9993C28.6113 33.4073 28.4002 32.7112 28.4002 31.9992Z" fill="white"/>
</g>
<defs>
<linearGradient id="paint0_linear_37_249" x1="64" y1="7.62939e-06" x2="7.62939e-06" y2="64" gradientUnits="userSpaceOnUse">
<stop stop-color="#F65A75"/>
<stop offset="1" stop-color="#48179C"/>
</linearGradient>
<clipPath id="clip0_37_249">
<rect width="36" height="36" fill="white" transform="translate(14 14)"/>
</clipPath>
</defs>
</svg>
