<svg width="68" height="68" viewBox="0 0 68 68" fill="none" xmlns="http://www.w3.org/2000/svg">
<rect width="68" height="68" rx="34" fill="url(#paint0_linear_7_428)"/>
<path d="M37.3115 17.9105C38.0222 15.8306 40.896 15.7676 41.7387 17.7215L41.81 17.9117L42.7691 20.7166C42.9889 21.3598 43.3441 21.9485 43.8108 22.4428C44.2774 22.9371 44.8446 23.3256 45.4742 23.5821L45.7321 23.6783L48.537 24.6363C50.6169 25.347 50.6799 28.2208 48.7271 29.0635L48.537 29.1348L45.7321 30.0939C45.0886 30.3136 44.4997 30.6687 44.0052 31.1354C43.5107 31.602 43.122 32.1693 42.8654 32.799L42.7691 33.0557L41.8112 35.8618C41.1005 37.9417 38.2266 38.0047 37.3852 36.052L37.3115 35.8618L36.3535 33.0569C36.1339 32.4134 35.7787 31.8245 35.3121 31.33C34.8454 30.8355 34.2781 30.4468 33.6485 30.1902L33.3918 30.0939L30.5869 29.136C28.5058 28.4253 28.4428 25.5514 30.3967 24.71L30.5869 24.6363L33.3918 23.6783C34.035 23.4585 34.6237 23.1033 35.118 22.6367C35.6123 22.1701 36.0008 21.6028 36.2573 20.9733L36.3535 20.7166L37.3115 17.9105ZM39.5613 18.6783L38.6034 21.4832C38.2687 22.464 37.7242 23.3602 37.0079 24.1092C36.2915 24.8582 35.4205 25.442 34.4555 25.82L34.1583 25.9282L31.3535 26.8861L34.1583 27.8441C35.1392 28.1788 36.0354 28.7233 36.7844 29.4396C37.5334 30.156 38.1172 31.027 38.4952 31.992L38.6034 32.2891L39.5613 35.094L40.5193 32.2891C40.854 31.3082 41.3985 30.4121 42.1148 29.6631C42.8312 28.9141 43.7022 28.3303 44.6672 27.9522L44.9643 27.8453L47.7692 26.8861L44.9643 25.9282C43.9834 25.5935 43.0873 25.049 42.3383 24.3327C41.5893 23.6163 41.0055 22.7453 40.6274 21.7803L40.5205 21.4832L39.5613 18.6783ZM49.0694 13.8125C49.2918 13.8125 49.5097 13.8749 49.6983 13.9925C49.887 14.1102 50.0389 14.2784 50.1367 14.4781L50.1938 14.6171L50.6097 15.8365L51.8303 16.2525C52.0532 16.3282 52.2485 16.4684 52.3916 16.6552C52.5347 16.842 52.6191 17.0671 52.6341 17.302C52.6491 17.5369 52.5941 17.7709 52.476 17.9744C52.3578 18.178 52.182 18.3419 51.9706 18.4453L51.8303 18.5024L50.6109 18.9184L50.195 20.139C50.1191 20.3617 49.9789 20.557 49.792 20.6999C49.6051 20.8429 49.3799 20.9272 49.1451 20.9421C48.9102 20.957 48.6762 20.9018 48.4728 20.7836C48.2693 20.6654 48.1055 20.4894 48.0021 20.278L47.9451 20.139L47.5291 18.9195L46.3085 18.5036C46.0857 18.4279 45.8904 18.2877 45.7473 18.1009C45.6042 17.914 45.5198 17.6889 45.5048 17.4541C45.4897 17.2192 45.5448 16.9852 45.6629 16.7817C45.781 16.5781 45.9569 16.4142 46.1683 16.3108L46.3085 16.2537L47.5279 15.8377L47.9439 14.6171C48.0241 14.3823 48.1757 14.1785 48.3775 14.0342C48.5794 13.8899 48.8213 13.8124 49.0694 13.8125Z" fill="white"/>
<path d="M22.0442 46.1504L14.715 53.4796" stroke="white" stroke-width="1.78277" stroke-linecap="round" stroke-linejoin="round"/>
<path d="M26.9715 21.8115C25.3866 22.532 23.9277 23.5358 22.6729 24.7907C19.9239 27.5396 18.3796 31.268 18.3796 35.1557C18.3796 39.0433 19.9239 42.7717 22.6729 45.5207C25.4219 48.2696 29.1503 49.814 33.0379 49.814C36.9255 49.814 40.6539 48.2696 43.4029 45.5207C45.6091 43.3145 47.0394 40.4775 47.5182 37.4336" stroke="white" stroke-width="1.78277" stroke-linecap="round" stroke-linejoin="round"/>
<defs>
<linearGradient id="paint0_linear_7_428" x1="68" y1="8.10623e-06" x2="8.10623e-06" y2="68" gradientUnits="userSpaceOnUse">
<stop stop-color="#F65A75"/>
<stop offset="1" stop-color="#48179C"/>
</linearGradient>
</defs>
</svg>
