<svg width="96" height="96" viewBox="0 0 96 96" fill="none" xmlns="http://www.w3.org/2000/svg">
<rect width="96" height="96" rx="48" fill="url(#paint0_linear_4_66)"/>
<path fill-rule="evenodd" clip-rule="evenodd" d="M60.914 20.8129C64.1054 20.1703 67.3616 19.9072 70.6148 20.0289C71.3663 20.0581 72.079 20.3697 72.6108 20.9015C73.1426 21.4332 73.4542 22.146 73.4834 22.8975C73.558 24.6597 73.5667 28.372 72.6993 32.5983C72.1891 35.091 69.1911 35.7668 67.5384 34.1128L65.1527 31.7284C64.2236 32.5689 63.3055 33.4214 62.3986 34.2858C60.0453 36.5272 57.0934 39.4903 54.6031 42.4485C52.485 44.9648 48.4217 44.9474 46.433 42.1622C45.1755 40.3964 43.8691 38.6659 42.5154 36.9727C39.7352 38.8755 33.9632 43.2549 27.4744 50.6746C27.0712 51.135 26.6663 51.6071 26.2598 52.0908C25.8345 52.5958 25.226 52.9112 24.5682 52.9675C23.9104 53.0239 23.2572 52.8166 22.7522 52.3913C22.2472 51.9661 21.9318 51.3576 21.8755 50.6998C21.8191 50.042 22.0264 49.3887 22.4517 48.8837C22.8798 48.3776 23.3045 47.8827 23.726 47.399C30.6827 39.4442 36.9015 34.765 39.8957 32.7339C41.9902 31.314 44.738 31.8031 46.275 33.7046C47.7308 35.5184 49.134 37.3739 50.4826 39.2688C50.4917 39.2801 50.5026 39.2898 50.515 39.2974C50.5437 39.3097 50.5746 39.3164 50.6058 39.3173C50.6409 39.3197 50.6761 39.3143 50.7088 39.3013C50.7416 39.2884 50.771 39.2684 50.795 39.2426C53.4532 36.0854 56.552 32.9803 58.9638 30.6818C60.0005 29.6949 60.9177 28.8486 61.6283 28.2052L59.4007 25.9726C57.7467 24.3199 58.4225 21.3232 60.9152 20.8117M60.1536 71.3008C59.9893 69.0483 59.825 65.0298 59.825 57.9536C59.825 50.8774 59.9893 46.8602 60.1536 44.6052C60.3353 42.1037 62.1622 40.1524 64.7607 39.9931C65.587 39.9433 66.6237 39.9084 67.9142 39.9084C69.2048 39.9084 70.2414 39.9433 71.0678 39.9931C73.6663 40.1524 75.4932 42.1037 75.6749 44.6052C75.8392 46.8602 76.0035 50.8774 76.0035 57.9536C76.0035 65.0298 75.8392 69.047 75.6749 71.302C75.4932 73.8035 73.6663 75.7548 71.0678 75.9141C70.2414 75.9639 69.2048 75.9988 67.9142 75.9988C66.6237 75.9988 65.587 75.9639 64.7607 75.9141C62.1622 75.7548 60.3353 73.8022 60.1536 71.3008ZM20.2116 71.9803C20.0908 70.8055 20 69.113 20 66.6663C20 64.2196 20.0908 62.5271 20.2103 61.3523C20.4605 58.8758 22.4479 57.4558 24.6245 57.3824C25.7791 57.3466 26.9341 57.33 28.0892 57.3326C29.5664 57.3326 30.6989 57.3538 31.5539 57.3824C33.7305 57.4558 35.718 58.8758 35.9681 61.3523C36.0876 62.5271 36.1784 64.2196 36.1784 66.6663C36.1784 69.113 36.0876 70.8055 35.9693 71.9803C35.718 74.4568 33.7293 75.8768 31.5539 75.9502C30.6989 75.9788 29.5664 76 28.0892 76C26.612 76 25.4795 75.9788 24.6245 75.9502C22.4479 75.8768 20.4617 74.4568 20.2116 71.9803ZM39.9119 62.9328C39.9119 67.1778 40.0351 69.8572 40.177 71.541C40.391 74.0897 42.3424 75.8307 44.8065 75.939C45.6328 75.9751 46.6807 76 48.0011 76C49.3215 76 50.3694 75.9751 51.1957 75.9378C53.6598 75.8307 55.6112 74.0897 55.8252 71.541C55.9671 69.8572 56.0903 67.1778 56.0903 62.9328C56.0903 58.6878 55.9671 56.0085 55.8265 54.3247C55.6112 51.7759 53.6611 50.0349 51.1957 49.9266C50.3694 49.8905 49.3215 49.8656 48.0011 49.8656C46.6807 49.8656 45.6328 49.8905 44.8077 49.9279C42.3424 50.0349 40.3898 51.7759 40.1757 54.3247C40.0363 56.0085 39.9119 58.6878 39.9119 62.9328Z" fill="white"/>
<defs>
<linearGradient id="paint0_linear_4_66" x1="96" y1="1.14441e-05" x2="1.14441e-05" y2="96" gradientUnits="userSpaceOnUse">
<stop stop-color="#F65A75"/>
<stop offset="1" stop-color="#48179C"/>
</linearGradient>
</defs>
</svg>
