<svg width="96" height="96" viewBox="0 0 96 96" fill="none" xmlns="http://www.w3.org/2000/svg">
<rect width="96" height="96" rx="48" fill="url(#paint0_linear_4_62)"/>
<path d="M74.25 40.9L72.5 39.5V25.5C72.5 23.4 71.1 22 69 22C66.9 22 65.5 23.4 65.5 25.5V27.25C58.5 30.4 48 36 37.5 36H28.75C23.85 36 20 40.2 20 44.75C20 47.9 21.75 50.7 24.2 52.1L28.05 72.75C28.05 73.8 29.1 74.5 30.5 74.5H31.2L43.8 72.05C45.2 71.7 45.9 70.65 45.55 69.6C44.5 67.5 42.75 64.35 41.35 63.3C40.65 62.95 39.6 60.15 38.9 57H41V53.85C50.45 54.9 62 59.45 65.5 62.25V64C65.5 66.1 66.9 67.5 69 67.5C71.1 67.5 72.5 66.1 72.5 64V50L73.9 48.95C75.3 47.9 76 46.5 76 45.1V44.4C76 43 75.3 41.95 74.25 40.9ZM27 39.5H37.5V43H27V39.5ZM39.6 66.1C39.95 66.1 40.65 67.15 41.35 68.55L31.55 71L28.05 53.5H34.7C35.4 58.05 36.8 64.7 39.6 66.1ZM65.5 58.05C59.9 55.25 50.1 51.05 41 50V39.5C50.1 38.45 59.9 34.6 65.5 31.45V58.05Z" fill="white"/>
<defs>
<linearGradient id="paint0_linear_4_62" x1="96" y1="1.14441e-05" x2="1.14441e-05" y2="96" gradientUnits="userSpaceOnUse">
<stop stop-color="#F65A75"/>
<stop offset="1" stop-color="#48179C"/>
</linearGradient>
</defs>
</svg>
