<svg width="96" height="96" viewBox="0 0 96 96" fill="none" xmlns="http://www.w3.org/2000/svg">
<rect width="96" height="96" rx="48" fill="url(#paint0_linear_4_68)"/>
<path d="M24 47.6667C23.9944 41.9883 26.1203 36.5146 29.9571 32.3285C33.794 28.1425 39.0622 25.5491 44.7196 25.0613C50.377 24.5735 56.0115 26.227 60.5082 29.6945C65.0049 33.1621 68.0363 38.1911 69.0027 43.7867C70.1175 44.4943 71.0696 45.4304 71.7959 46.5332C72.5222 47.6359 73.0062 48.8803 73.216 50.184C73.2942 49.3538 73.3333 48.5147 73.3333 47.6667C73.3333 32.9387 61.3947 21 46.6667 21C31.9387 21 20 32.9387 20 47.6667C19.9957 51.1654 20.682 54.6306 22.0196 57.8635C23.3572 61.0965 25.3197 64.0337 27.7947 66.5066C28.1717 66.8711 28.6768 67.073 29.2012 67.0687C29.7256 67.0644 30.2273 66.8543 30.5983 66.4836C30.9693 66.113 31.1799 65.6114 31.1847 65.0871C31.1895 64.5627 30.9882 64.0574 30.624 63.68C28.5201 61.5783 26.8519 59.0818 25.7152 56.3339C24.5785 53.5859 23.9956 50.6405 24 47.6667ZM63.1733 42.3707C62.3706 39.874 61.0118 37.592 59.1993 35.6967C57.3868 33.8013 55.1678 32.3419 52.7095 31.4284C50.2512 30.5149 47.6177 30.1712 45.0073 30.4231C42.3969 30.6749 39.8776 31.5158 37.6393 32.8825C35.401 34.2491 33.502 36.1058 32.0853 38.3128C30.6687 40.5198 29.7712 43.0194 29.4606 45.6235C29.1501 48.2276 29.4344 50.8682 30.2923 53.3464C31.1502 55.8247 32.5593 58.0759 34.4133 59.9307C34.5993 60.1164 34.82 60.2638 35.0629 60.3642C35.3058 60.4647 35.5661 60.5164 35.829 60.5162C36.0918 60.5161 36.3521 60.4642 36.5949 60.3635C36.8377 60.2628 37.0582 60.1153 37.244 59.9293C37.4298 59.7434 37.5771 59.5226 37.6776 59.2798C37.7781 59.0369 37.8297 58.7766 37.8296 58.5137C37.8295 58.2509 37.7776 57.9906 37.6769 57.7478C37.5762 57.505 37.4286 57.2844 37.2427 57.0987C35.8168 55.6728 34.733 53.9421 34.0727 52.0368C33.4124 50.1315 33.1928 48.1012 33.4306 46.0988C33.6683 44.0964 34.3571 42.174 35.4452 40.4763C36.5332 38.7786 37.9922 37.3497 39.7122 36.2973C41.4323 35.2449 43.3686 34.5964 45.3755 34.4005C47.3825 34.2046 49.4077 34.4664 51.2988 35.1663C53.1899 35.8662 54.8976 36.9859 56.2935 38.4412C57.6893 39.8964 58.7369 41.6494 59.3573 43.568C60.5285 42.8965 61.8313 42.4871 63.176 42.368M40 47.6667C40 45.8985 40.7024 44.2029 41.9526 42.9526C43.2029 41.7024 44.8986 41 46.6667 41C48.4348 41 50.1305 41.7024 51.3807 42.9526C52.631 44.2029 53.3333 45.8985 53.3333 47.6667C53.3333 49.4348 52.631 51.1305 51.3807 52.3807C50.1305 53.6309 48.4348 54.3333 46.6667 54.3333C44.8986 54.3333 43.2029 53.6309 41.9526 52.3807C40.7024 51.1305 40 49.4348 40 47.6667ZM46.6667 45C45.9594 45 45.2812 45.2809 44.7811 45.781C44.281 46.2811 44 46.9594 44 47.6667C44 48.3739 44.281 49.0522 44.7811 49.5523C45.2812 50.0524 45.9594 50.3333 46.6667 50.3333C47.3739 50.3333 48.0522 50.0524 48.5523 49.5523C49.0524 49.0522 49.3333 48.3739 49.3333 47.6667C49.3333 46.9594 49.0524 46.2811 48.5523 45.781C48.0522 45.2809 47.3739 45 46.6667 45ZM70.6667 51.6667C70.6667 53.4348 69.9643 55.1305 68.714 56.3807C67.4638 57.6309 65.7681 58.3333 64 58.3333C62.2319 58.3333 60.5362 57.6309 59.286 56.3807C58.0357 55.1305 57.3333 53.4348 57.3333 51.6667C57.3333 49.8985 58.0357 48.2029 59.286 46.9526C60.5362 45.7024 62.2319 45 64 45C65.7681 45 67.4638 45.7024 68.714 46.9526C69.9643 48.2029 70.6667 49.8985 70.6667 51.6667ZM76 66C76 70.1493 72.5707 74.3333 64 74.3333C55.4293 74.3333 52 70.1653 52 66V65.7253C52 63.112 54.1173 61 56.728 61H71.272C73.8853 61 76 63.1146 76 65.7253V66Z" fill="white"/>
<defs>
<linearGradient id="paint0_linear_4_68" x1="96" y1="1.14441e-05" x2="1.14441e-05" y2="96" gradientUnits="userSpaceOnUse">
<stop stop-color="#F65A75"/>
<stop offset="1" stop-color="#48179C"/>
</linearGradient>
</defs>
</svg>
