<svg width="64" height="64" viewBox="0 0 64 64" fill="none" xmlns="http://www.w3.org/2000/svg">
<rect width="64" height="64" rx="32" fill="url(#paint0_linear_7_428)"/>
<path fill-rule="evenodd" clip-rule="evenodd" d="M19.7337 41.3533H22.5102C22.7148 41.3533 22.8755 41.1853 22.8755 40.988V32.2641C22.8755 32.0595 22.7075 31.8988 22.5102 31.8988H19.7337C19.5291 31.8988 19.3684 32.0668 19.3684 32.2641V40.9807C19.3684 41.1853 19.5364 41.3533 19.7337 41.3533ZM20.1064 32.6294H22.1449V40.6154H20.1064V32.6294ZM24.2857 26.8208C24.0811 26.8208 23.9203 26.9888 23.9203 27.1861V40.9807C23.9203 41.1853 24.0884 41.346 24.2857 41.346H27.0621C27.2667 41.346 27.4274 41.178 27.4274 40.9807V27.1861C27.4274 26.9815 27.2594 26.8208 27.0621 26.8208H24.2857ZM26.6895 40.6154H24.651V27.5514H26.6895V40.6154ZM28.8303 29.5753C28.6257 29.5753 28.465 29.7434 28.465 29.9406V40.9807C28.465 41.1853 28.633 41.346 28.8303 41.346H31.6067C31.8113 41.346 31.9721 41.178 31.9721 40.9807V29.9479C31.9721 29.7434 31.804 29.5826 31.6067 29.5826H28.8303V29.5753ZM31.2414 40.6154H29.2029V30.3133H31.2414V40.6154ZM26.1634 23.9493L29.0933 25.6371C29.5829 25.9148 30.182 25.8636 30.6131 25.5202L36.1075 21.0486C36.3925 20.8148 36.5605 20.486 36.5971 20.1426C36.7505 19.0101 35.2892 18.1991 34.4051 18.9663L29.6267 22.8533L26.7918 21.2167C26.3169 20.9098 25.6958 20.9244 25.2428 21.2751L17.7683 26.9815C17.476 27.208 17.3007 27.5295 17.2495 27.8729C17.0522 29.0127 18.4916 29.8676 19.3976 29.1223L26.1634 23.9493ZM18.5062 28.662C17.9875 28.6108 17.7829 27.8729 18.214 27.566L25.6885 21.8524C25.9004 21.6916 26.1853 21.6843 26.4045 21.8304L29.4879 23.6132C29.6267 23.6936 29.802 23.6717 29.9116 23.5694L34.8727 19.5362C35.5011 19.0321 36.261 19.9819 35.6472 20.486L30.1528 24.9503C29.9628 25.1037 29.6778 25.133 29.4659 25.0088L26.3242 23.1968C26.1926 23.1164 26.0246 23.1383 25.915 23.226L18.9665 28.5451C18.8204 28.6401 18.6597 28.6839 18.5062 28.662ZM35.8591 26.1997C35.8445 26.2216 35.8299 26.2509 35.8153 26.2801C35.1358 27.6975 34.9385 29.3488 35.3769 30.9781C36.2537 34.288 39.1763 36.0415 42.0842 36.005C42.1646 36.0269 42.2523 36.0269 42.3327 35.9977C44.4954 35.8954 46.6216 34.8067 47.8637 32.6294C50.8885 27.4637 46.0443 21.056 40.1992 22.6415C38.2264 23.1602 36.6921 24.5046 35.8591 26.1997ZM43.5309 35.0917C43.2094 35.1794 42.8806 35.2305 42.5592 35.2597C42.5592 33.3454 42.5592 25.0307 42.5592 23.1529C43.3775 23.2333 44.2031 23.4817 44.9995 23.9493C49.6318 26.5943 48.7623 33.7108 43.5309 35.0917ZM41.8212 23.131V35.2963C39.5927 35.2451 37.5323 33.9665 36.524 31.9499C36.524 31.3069 36.524 27.1496 36.524 26.4993C37.5396 24.5411 39.5927 23.1968 41.8212 23.131ZM49.4857 33.5646C52.8247 27.8144 48.6308 20.9244 42.5592 20.5372V16.2629C42.5592 15.4592 42.2304 14.7285 41.697 14.1952C41.1636 13.6618 40.433 13.333 39.6293 13.333H21.2535C21.2462 13.333 21.2389 13.3403 21.2242 13.3403C21.1877 13.3403 21.1585 13.3476 21.122 13.3622C21.1146 13.3622 21.1073 13.3622 21.1073 13.3695C21.0635 13.3842 21.027 13.4134 20.9904 13.4499L13.4428 20.9902C13.4063 21.0267 13.3844 21.0633 13.3698 21.0998C13.3698 21.1071 13.3698 21.1071 13.3625 21.1144C13.3479 21.1509 13.3406 21.1875 13.3406 21.224C13.3406 21.2313 13.3333 21.2386 13.3333 21.2532V47.4616C13.3333 48.2653 13.662 48.9959 14.1954 49.5293C14.7288 50.0627 15.4594 50.3915 16.2631 50.3915H39.6219C40.4184 50.3915 41.1417 50.07 41.6678 49.5512C42.2157 49.0178 42.5518 48.2799 42.5518 47.4616V37.8682C42.6907 37.8608 42.8295 37.8462 42.961 37.8316L43.414 39.5267C43.151 39.9432 43.0487 40.462 43.1875 40.9734L44.6707 46.5044C45.3868 48.8425 48.7916 47.9292 48.2436 45.5473L46.7677 40.0236C46.6289 39.5121 46.2781 39.1029 45.8398 38.8764L45.3941 37.2033C47.0234 36.5238 48.4774 35.3255 49.4857 33.5646ZM48.85 33.1993C46.1393 37.9193 39.9507 38.2846 36.4582 34.9894C36.429 34.9456 36.3998 34.9163 36.356 34.8871C35.4061 33.9592 34.6682 32.7609 34.2736 31.2923C33.1192 27.04 35.6545 22.6561 39.9142 21.5236C46.7677 19.7116 52.3644 27.1496 48.85 33.1993ZM33.7475 32.0814C34.2005 33.3893 34.9093 34.4853 35.786 35.362V40.6154H33.7475V32.0814ZM33.7475 26.3531V25.0672H34.3248C34.1056 25.4837 33.9083 25.9075 33.7475 26.3531ZM17.7391 17.7388L20.8881 14.5897V18.6887C20.8881 19.8942 19.9018 20.8879 18.6889 20.8879H14.59L17.7391 17.7388ZM39.6219 49.6535H16.2705C15.664 49.6535 15.116 49.4051 14.7215 49.0105C14.3269 48.616 14.0785 48.068 14.0785 47.4616V21.6186H18.6962C19.4999 21.6186 20.2379 21.2898 20.7639 20.7564C21.2973 20.223 21.6261 19.4924 21.6261 18.6887V14.071H39.6293C40.8421 14.071 41.8212 15.0573 41.8285 16.2702V20.5226C41.1417 20.5372 40.4403 20.6322 39.7242 20.8221C37.6273 21.3847 35.9176 22.6707 34.7851 24.3366H33.3895C33.1849 24.3366 33.0242 24.5046 33.0242 24.7019V40.9807C33.0242 41.1853 33.1923 41.346 33.3895 41.346H36.166C36.3706 41.346 36.5313 41.178 36.5313 40.9807V36.005C38.0511 37.196 39.9288 37.8316 41.8285 37.8755V47.4543C41.8212 48.6671 40.8348 49.6535 39.6219 49.6535ZM47.5349 45.7372C47.8198 46.6652 46.7092 47.4981 45.8982 46.9866C45.6498 46.8478 45.4598 46.6067 45.3795 46.3144L43.8962 40.7761C43.6478 39.9213 44.5684 39.1687 45.3429 39.4464C45.3575 39.4537 45.3721 39.4537 45.3868 39.461C45.4379 39.4829 45.4817 39.5048 45.5329 39.534C45.7813 39.6802 45.9713 39.914 46.0516 40.2062C46.059 40.2135 47.5349 45.7372 47.5349 45.7372ZM45.0214 38.6646C44.8461 38.6573 44.678 38.6719 44.5027 38.7157C44.3273 38.7595 44.1739 38.8399 44.0278 38.9276L43.699 37.7147C44.0351 37.649 44.3712 37.5613 44.6999 37.459L45.0214 38.6646ZM36.1587 43.9398H19.741C19.2661 43.9398 19.2588 43.2092 19.741 43.2019H36.1587C36.6336 43.2019 36.6409 43.9398 36.1587 43.9398ZM27.9462 45.9418H19.7337C19.2588 45.9418 19.2515 45.2112 19.7337 45.2039H27.9462C28.4211 45.2112 28.4284 45.9418 27.9462 45.9418Z" fill="white"/>
<defs>
<linearGradient id="paint0_linear_7_428" x1="64" y1="7.62939e-06" x2="7.62939e-06" y2="64" gradientUnits="userSpaceOnUse">
<stop stop-color="#F65A75"/>
<stop offset="1" stop-color="#48179C"/>
</linearGradient>
</defs>
</svg>
