<svg width="96" height="96" viewBox="0 0 96 96" fill="none" xmlns="http://www.w3.org/2000/svg">
<rect width="96" height="96" rx="48" fill="url(#paint0_linear_4_73)"/>
<path d="M76 25V47.5623C74.292 46.5752 72.416 45.5115 70.4 45.1448V41.9223H30.528L25.6 31.9664V64.4854H48.8772C48.7372 65.4162 49.1689 66.2185 50.1748 67.6796C51.1806 69.1408 52.0777 69.3107 53.2268 70.1262H25.6C24.1148 70.1262 22.6904 69.5319 21.6402 68.4741C20.59 67.4162 20 65.9815 20 64.4854V30.6408C20 29.1447 20.59 27.71 21.6402 26.6521C22.6904 25.5943 24.1148 25 25.6 25H28.4L34 36.2816H42.4L36.8 25H42.4L48 36.2816H56.4L50.8 25H56.4L62 36.2816H70.4L64.8 25H76Z" fill="white"/>
<path d="M64.0388 46.2036C61.6731 46.2036 59.3606 46.9051 57.3936 48.2194C55.4266 49.5337 53.8935 51.4018 52.9882 53.5874C52.0828 55.7731 51.846 58.178 52.3075 60.4983C52.769 62.8185 53.9082 64.9498 55.581 66.6226C57.2538 68.2954 59.3851 69.4346 61.7053 69.8961C64.0256 70.3576 66.4306 70.1208 68.6162 69.2154C70.8018 68.3101 72.6699 66.777 73.9842 64.81C75.2985 62.843 76 60.5305 76 58.1648C75.9969 54.9934 74.7357 51.9529 72.4932 49.7104C70.2508 47.4679 67.2102 46.2067 64.0388 46.2036ZM64.914 64.8747V65.7966C64.914 66.0287 64.8218 66.2513 64.6577 66.4154C64.4936 66.5796 64.271 66.6718 64.0388 66.6718C63.8067 66.6718 63.5841 66.5796 63.42 66.4154C63.2558 66.2513 63.1636 66.0287 63.1636 65.7966V64.8747C62.4032 64.761 61.6908 64.4332 61.1098 63.9295C60.6951 63.5818 60.3536 63.1552 60.1052 62.6744C59.8568 62.1936 59.7064 61.6682 59.6628 61.1288C59.648 60.9564 59.6847 60.7835 59.7682 60.6319C59.8517 60.4803 59.9782 60.3569 60.1318 60.2772C60.2854 60.1975 60.4592 60.1652 60.6312 60.1842C60.8032 60.2033 60.9657 60.2729 61.0981 60.3843C61.2768 60.533 61.3899 60.7459 61.4132 60.9771C61.4355 61.2892 61.5204 61.5936 61.6627 61.8723C61.805 62.1509 62.002 62.3981 62.2417 62.5992C62.724 63.0114 63.3472 63.2205 63.9805 63.1826C65.8009 63.1826 66.6645 62.4825 66.6645 61.0588C66.6645 60.1136 65.8359 59.0983 64.0388 59.0983C60.2346 59.0983 59.6628 56.7644 59.6628 55.4225C59.6939 54.5856 59.9815 53.7785 60.4866 53.1106C60.9918 52.4426 61.69 51.9461 62.4868 51.6882C62.7085 51.6198 62.9341 51.5692 63.1636 51.5365V50.6263C63.1636 50.3942 63.2558 50.1716 63.42 50.0075C63.5841 49.8433 63.8067 49.7511 64.0388 49.7511C64.271 49.7511 64.4936 49.8433 64.6577 50.0075C64.8218 50.1716 64.914 50.3942 64.914 50.6263V51.5715C65.8302 51.7243 66.6701 52.1756 67.3033 52.8552C67.9364 53.5347 68.3272 54.4045 68.4149 55.3291C68.4245 55.5523 68.3483 55.7708 68.202 55.9397C68.0558 56.1086 67.8504 56.2151 67.6281 56.2375C67.4058 56.2599 67.1834 56.1964 67.0064 56.06C66.8294 55.9237 66.7112 55.7248 66.6761 55.5041C66.6113 54.8708 66.307 54.2862 65.8255 53.8698C65.3439 53.4533 64.7216 53.2365 64.0855 53.2636H63.8755C63.5912 53.2614 63.3082 53.3007 63.0353 53.3803C62.7367 53.4777 62.4608 53.6344 62.2242 53.8409C61.9876 54.0474 61.7951 54.2996 61.6583 54.5823C61.5179 54.862 61.4384 55.1682 61.4249 55.4808C61.4249 56.4377 61.74 57.3713 64.0505 57.3713C66.9212 57.3713 68.4265 59.2384 68.4265 61.0821C68.4421 61.5626 68.362 62.0414 68.191 62.4907C68.0199 62.94 67.7613 63.3508 67.4302 63.6993C67.0991 64.0478 66.702 64.327 66.262 64.5208C65.8221 64.7146 65.348 64.819 64.8674 64.828L64.914 64.8747Z" fill="white"/>
<defs>
<linearGradient id="paint0_linear_4_73" x1="96" y1="1.14441e-05" x2="1.14441e-05" y2="96" gradientUnits="userSpaceOnUse">
<stop stop-color="#F65A75"/>
<stop offset="1" stop-color="#48179C"/>
</linearGradient>
</defs>
</svg>
