<svg width="68" height="68" viewBox="0 0 68 68" fill="none" xmlns="http://www.w3.org/2000/svg">
<rect width="68" height="68" rx="34" fill="url(#paint0_linear_22_571)"/>
<path fill-rule="evenodd" clip-rule="evenodd" d="M33.632 58.264C36.8667 58.264 40.0698 57.6269 43.0583 56.389C46.0468 55.1511 48.7622 53.3367 51.0495 51.0495C53.3367 48.7622 55.1511 46.0468 56.389 43.0583C57.6269 40.0698 58.264 36.8667 58.264 33.632C58.264 30.3973 57.6269 27.1942 56.389 24.2057C55.1511 21.2172 53.3367 18.5018 51.0495 16.2145C48.7622 13.9273 46.0468 12.1129 43.0583 10.875C40.0698 9.63713 36.8667 9 33.632 9C27.0992 9 20.8339 11.5951 16.2145 16.2145C11.5951 20.8339 9 27.0992 9 33.632C9 40.1648 11.5951 46.4301 16.2145 51.0495C20.8339 55.6688 27.0992 58.264 33.632 58.264ZM41.6053 13.008C42.5653 14.04 43.432 15.2427 44.192 16.568C45.5867 18.9813 46.6747 21.8747 47.3787 25.0747C48.4862 25.352 49.5227 25.6613 50.488 26.0027C52.2693 26.6347 53.8347 27.3813 55.0747 28.2427C54.2087 24.8125 52.534 21.6396 50.1907 18.9891C47.8474 16.3387 44.9035 14.2878 41.6053 13.008ZM55.3947 37.5307C54.1067 38.488 52.4267 39.312 50.488 39.9973C49.6027 40.3102 48.6551 40.5964 47.6453 40.856C46.968 44.5893 45.7787 47.9493 44.1947 50.696C43.467 51.9755 42.5985 53.1696 41.6053 54.256C45.1452 52.8847 48.2728 50.626 50.6877 47.697C53.1025 44.7679 54.7235 41.267 55.3947 37.5307ZM25.6613 54.256C24.6672 53.1698 23.7978 51.9757 23.0693 50.696C21.488 47.9493 20.296 44.5893 19.6187 40.856C18.6593 40.6105 17.7109 40.324 16.776 39.9973C14.8373 39.312 13.1573 38.488 11.8693 37.5307C12.5405 41.267 14.1615 44.7679 16.5763 47.697C18.9912 50.626 22.1215 52.8847 25.6613 54.256ZM12.1867 28.24C13.4267 27.3813 14.992 26.6347 16.7733 26.0027C17.7387 25.6631 18.7751 25.3538 19.8827 25.0747C20.5867 21.8747 21.6747 18.9813 23.0667 16.568C23.7943 15.2885 24.6628 14.0944 25.656 13.008C22.3591 14.2883 19.4166 16.339 17.0742 18.9889C14.7319 21.6388 13.0579 24.8109 12.192 28.24M42.0053 17.8267C43.096 19.72 43.9947 21.9707 44.6427 24.4827C41.4249 23.903 38.1652 23.5872 34.896 23.5387V11.7787C37.504 12.2853 40.0107 14.3653 42.0053 17.8267ZM45.216 27.1707C41.8177 26.4831 38.3628 26.1126 34.896 26.064V39.936C38.7547 39.8613 42.3413 39.448 45.416 38.7893C45.6418 37.1324 45.7556 35.4133 45.7573 33.632C45.7573 31.3787 45.568 29.2107 45.216 27.1707ZM32.368 11.776V23.536C29.0996 23.5856 25.8408 23.9022 22.624 24.4827C23.2693 21.9707 24.1707 19.7173 25.2587 17.8267C27.2533 14.368 29.76 12.2853 32.368 11.776ZM32.368 26.064C28.9012 26.1126 25.4463 26.4831 22.048 27.1707C21.6844 29.3052 21.5033 31.4668 21.5067 33.632C21.5067 35.4107 21.624 37.136 21.848 38.7867C24.9227 39.448 28.5093 39.8613 32.368 39.9333V26.064ZM17.6187 28.384C18.1787 28.1884 18.768 28.0018 19.3867 27.824C18.9017 31.2392 18.8462 34.7017 19.2213 38.1307C18.6613 37.9653 18.1271 37.7938 17.6187 37.616C15.592 36.8987 14.0453 36.0773 13.0267 35.2267C12 34.3707 11.6533 33.6133 11.6533 33C11.6533 32.3867 12 31.6293 13.0267 30.7733C14.0453 29.9227 15.592 29.1013 17.6187 28.3867M25.2587 49.44C23.9813 47.2213 22.9653 44.5067 22.312 41.4613C25.3467 42.0453 28.76 42.3973 32.368 42.464V55.4907C29.76 54.9813 27.2533 52.9013 25.2587 49.44ZM34.896 55.488V42.4587C38.2703 42.4091 41.6343 42.0737 44.952 41.456C44.3013 44.504 43.2827 47.216 42.0053 49.4347C40.0107 52.8933 37.504 54.9787 34.896 55.488ZM48.2827 33.632C48.2827 35.168 48.2027 36.6676 48.0427 38.1307C48.6027 37.9671 49.1369 37.7956 49.6453 37.616C51.672 36.8987 53.2187 36.0773 54.2373 35.2267C55.264 34.3707 55.6107 33.6133 55.6107 33C55.6107 32.3867 55.264 31.6293 54.2373 30.7733C53.2187 29.9227 51.672 29.1013 49.6453 28.3867C49.0853 28.1893 48.496 28.0018 47.8773 27.824C48.144 29.6907 48.2853 31.6347 48.2853 33.632" fill="white"/>
<defs>
<linearGradient id="paint0_linear_22_571" x1="68" y1="8.10623e-06" x2="8.10623e-06" y2="68" gradientUnits="userSpaceOnUse">
<stop stop-color="#F65A75"/>
<stop offset="1" stop-color="#48179C"/>
</linearGradient>
</defs>
</svg>
