<svg width="64" height="64" viewBox="0 0 64 64" fill="none" xmlns="http://www.w3.org/2000/svg">
<rect width="64" height="64" rx="32" fill="url(#paint0_linear_7_443)"/>
<path d="M31.5352 38.4971C34.0226 38.4971 36.0391 36.4806 36.0391 33.9932C36.0391 31.5057 34.0226 29.4893 31.5352 29.4893C29.0477 29.4893 27.0312 31.5057 27.0312 33.9932C27.0312 36.4806 29.0477 38.4971 31.5352 38.4971Z" stroke="white" stroke-width="2.32365" stroke-miterlimit="10"/>
<path d="M19.7139 50.6662L14.1852 45.1375C13.0922 44.0445 13.0922 42.2725 14.1852 41.1795C15.2782 40.0865 17.0503 40.0865 18.1432 41.1795L20.4392 43.4755C21.7483 40.542 24.6903 38.4971 28.1102 38.4971H34.9599C38.3799 38.4971 41.3218 40.5419 42.6309 43.4755L44.9269 41.1795C46.0199 40.0865 47.7919 40.0865 48.8849 41.1795C49.9779 42.2725 49.9779 44.0445 48.8849 45.1375L43.3563 50.6662H19.7139Z" stroke="white" stroke-width="2.32365" stroke-miterlimit="10"/>
<path d="M39.1321 18.1997L43.9988 13.333H50.2018V28.9739H39.1321V18.1997Z" stroke="white" stroke-width="2.32365" stroke-miterlimit="10"/>
<path d="M44.7734 13.333V18.9743H39.1321" stroke="white" stroke-width="2.32365" stroke-miterlimit="10"/>
<path d="M27.148 20.9007C27.148 20.6328 27.1289 20.3696 27.0955 20.1108L28.7377 19.2129L26.6135 15.3278L24.9715 16.2255C24.462 15.796 23.8812 15.449 23.2495 15.2033V13.333H18.8215V15.2034C18.1898 15.4491 17.6089 15.7961 17.0993 16.2255L15.4574 15.3278L13.3333 19.2129L14.9755 20.1108C14.942 20.3696 14.9229 20.6329 14.9229 20.9007C14.9229 21.1687 14.9421 21.4319 14.9755 21.6907L13.3333 22.5886L15.4574 26.4737L17.0993 25.576C17.6089 26.0055 18.1898 26.3525 18.8215 26.5982V28.4685H23.2494V26.5982C23.8811 26.3525 24.4619 26.0055 24.9715 25.576L26.6134 26.4737L28.7376 22.5886L27.0954 21.6907C27.1289 21.4319 27.148 21.1687 27.148 20.9007Z" stroke="white" stroke-width="2.32365" stroke-miterlimit="10"/>
<path d="M21.0354 19.7393V22.0629" stroke="white" stroke-width="2.32365" stroke-miterlimit="10"/>
<path d="M38.3813 50.6673V44.8643" stroke="white" stroke-width="2.32365" stroke-miterlimit="10"/>
<path d="M31.5351 50.6662L27.6624 38.4971" stroke="white" stroke-width="2.32365" stroke-miterlimit="10"/>
<path d="M31.5352 50.6662L35.4079 38.4971" stroke="white" stroke-width="2.32365" stroke-miterlimit="10"/>
<path d="M24.6887 44.8643V50.6673" stroke="white" stroke-width="2.32365" stroke-miterlimit="10"/>
<defs>
<linearGradient id="paint0_linear_7_443" x1="64" y1="7.62939e-06" x2="7.62939e-06" y2="64" gradientUnits="userSpaceOnUse">
<stop stop-color="#F65A75"/>
<stop offset="1" stop-color="#48179C"/>
</linearGradient>
</defs>
</svg>
