<svg width="96" height="96" viewBox="0 0 96 96" fill="none" xmlns="http://www.w3.org/2000/svg">
<rect width="96" height="96" rx="48" fill="url(#paint0_linear_4_61)"/>
<path d="M51.2736 26.4609H22.1535C21.5823 26.4609 21.0344 26.6879 20.6305 27.0918C20.2266 27.4957 19.9996 28.0436 19.9996 28.6148V63.0765C19.9996 63.6477 20.2266 64.1956 20.6305 64.5995C21.0344 65.0034 21.5823 65.2303 22.1535 65.2303H73.846C74.4173 65.2303 74.9651 65.0034 75.369 64.5995C75.773 64.1956 75.9999 63.6477 75.9999 63.0765V58.7688M43.6921 65.2303L39.3843 75.9996M52.3075 65.2303L56.6152 75.9996M35.0766 75.9996H60.9229" stroke="white" stroke-width="4.30771" stroke-linecap="round" stroke-linejoin="round"/>
<path d="M75.6724 29.5712C75.2784 28.4502 74.5456 27.4794 73.5755 26.7933C72.6053 26.1072 71.4459 25.7397 70.2576 25.7417H65.8121C64.5459 25.7385 63.3234 26.2041 62.3801 27.0486C61.4368 27.8931 60.8394 29.0568 60.7029 30.3156C60.5665 31.5743 60.9008 32.839 61.6413 33.866C62.3818 34.893 63.4762 35.6096 64.7136 35.8777L71.4853 37.3596C72.8689 37.6632 74.0916 38.4671 74.9187 39.617C75.7458 40.7669 76.1191 42.1817 75.9669 43.59C75.8147 44.9983 75.1477 46.3007 74.094 47.2473C73.0403 48.194 71.6741 48.7181 70.2576 48.719H66.4237C63.9253 48.719 61.7973 47.1209 61.009 44.8852M68.3407 25.7417V19.9995M68.3407 54.4612V48.719" stroke="white" stroke-width="4.30771" stroke-linecap="round" stroke-linejoin="round"/>
<defs>
<linearGradient id="paint0_linear_4_61" x1="96" y1="1.14441e-05" x2="1.14441e-05" y2="96" gradientUnits="userSpaceOnUse">
<stop stop-color="#F65A75"/>
<stop offset="1" stop-color="#48179C"/>
</linearGradient>
</defs>
</svg>
