<svg width="48" height="48" viewBox="0 0 48 48" fill="none" xmlns="http://www.w3.org/2000/svg">
<path d="M16.5 34.4992C16.1022 34.4992 15.7206 34.3412 15.4393 34.0599C15.158 33.7786 15 33.397 15 32.9992V14.9992C15.0001 14.7436 15.0656 14.4923 15.1901 14.2691C15.3147 14.0459 15.4942 13.8582 15.7116 13.7239C15.929 13.5896 16.1772 13.513 16.4325 13.5015C16.6878 13.49 16.9419 13.544 17.1705 13.6582L35.1705 22.6582C35.4193 22.7829 35.6285 22.9744 35.7748 23.2112C35.921 23.448 35.9984 23.7209 35.9984 23.9992C35.9984 24.2775 35.921 24.5504 35.7748 24.7872C35.6285 25.024 35.4193 25.2155 35.1705 25.3402L17.1705 34.3402C16.9624 34.4445 16.7328 34.499 16.5 34.4992ZM18 17.4262V30.5722L31.146 23.9992L18 17.4262Z" fill="white"/>
<path d="M24 6C27.5601 6 31.0402 7.05568 34.0003 9.03355C36.9604 11.0114 39.2675 13.8226 40.6298 17.1117C41.9922 20.4008 42.3487 24.02 41.6541 27.5116C40.9596 31.0033 39.2453 34.2106 36.7279 36.7279C34.2106 39.2453 31.0033 40.9596 27.5116 41.6541C24.02 42.3487 20.4008 41.9922 17.1117 40.6298C13.8226 39.2675 11.0114 36.9603 9.03356 34.0003C7.05569 31.0402 6.00001 27.5601 6.00001 24C6.00001 19.2261 7.89643 14.6477 11.2721 11.2721C14.6477 7.89642 19.2261 6 24 6ZM24 3C19.8466 3 15.7865 4.23163 12.333 6.53914C8.8796 8.84665 6.18798 12.1264 4.59854 15.9636C3.0091 19.8009 2.59323 24.0233 3.40352 28.0969C4.21381 32.1705 6.21386 35.9123 9.15077 38.8492C12.0877 41.7861 15.8295 43.7862 19.9031 44.5965C23.9767 45.4068 28.1991 44.9909 32.0364 43.4015C35.8736 41.812 39.1534 39.1204 41.4609 35.667C43.7684 32.2135 45 28.1534 45 24C45 18.4305 42.7875 13.089 38.8492 9.15076C34.911 5.21249 29.5696 3 24 3Z" fill="white"/>
</svg>
