<svg width="68" height="68" viewBox="0 0 68 68" fill="none" xmlns="http://www.w3.org/2000/svg">
<rect width="68" height="68" rx="34" fill="url(#paint0_linear_22_563)"/>
<path d="M26.4502 14.333H41.5497C41.9611 14.333 42.3154 14.333 42.6354 14.3719C43.7821 14.5147 44.8474 15.0396 45.6593 15.8619C46.4712 16.6842 46.9825 17.756 47.1108 18.9044H48.9531C49.4377 18.8999 50.5005 18.8907 51.3783 19.4782C52.5143 20.2347 52.8571 21.5353 52.8571 22.9044C52.8571 29.1353 49.536 33.2953 45.296 35.6062C42.9302 39.9124 38.56 42.9044 34 42.9044C30.528 42.9044 27.2343 41.0256 24.864 38.4267C24.0764 37.5675 23.385 36.6247 22.8022 35.6153C18.5645 33.3159 15.1428 29.1604 15.1428 22.9044C15.1428 21.533 15.4857 20.2347 16.6194 19.4782C17.4994 18.8907 18.5623 18.8999 19.0468 18.9044H20.8891L20.896 18.8404C21.0373 17.7045 21.5535 16.6482 22.3629 15.8388C23.1723 15.0294 24.2286 14.5132 25.3645 14.3719C25.6845 14.333 26.0388 14.333 26.4502 14.333ZM24.2857 20.6187V20.6256L24.2628 28.6187V28.621C24.2628 30.269 24.7337 31.9536 25.5497 33.4964L25.5817 33.5536C26.0731 34.4724 26.688 35.3364 27.3988 36.1136C29.3234 38.2256 31.76 39.4759 34.0023 39.4759C37.2525 39.4759 40.6788 37.1262 42.4594 33.661C43.2683 32.1032 43.6915 30.374 43.6937 28.6187L43.6891 28.6142L43.7165 20.0176C43.7165 19.4644 43.712 19.3433 43.7028 19.2633C43.6555 18.8852 43.4835 18.5336 43.214 18.2641C42.9445 17.9946 42.593 17.8226 42.2148 17.7753C41.9637 17.7603 41.712 17.7558 41.4605 17.7616H26.5417C25.9863 17.7616 25.8674 17.7639 25.7874 17.7753C25.4093 17.8226 25.0577 17.9946 24.7882 18.2641C24.5187 18.5336 24.3467 18.8852 24.2994 19.2633C24.2844 19.5144 24.2799 19.7661 24.2857 20.0176V20.6187ZM47.1382 22.333L47.1177 28.6187V28.621M47.0651 29.853C48.5234 28.0976 49.4308 25.8073 49.4308 22.9044C49.4308 22.6347 49.408 22.4564 49.3874 22.3444C49.2116 22.3338 49.0355 22.33 48.8594 22.333H47.1382M20.88 29.7204C20.8455 29.3542 20.8287 28.9866 20.8297 28.6187V28.6142L20.8503 22.333H19.1428C18.8937 22.333 18.736 22.333 18.6148 22.3444C18.5827 22.5293 18.5682 22.7168 18.5714 22.9044C18.5714 25.7319 19.4583 27.9787 20.88 29.7204ZM34 44.0473C34.4546 44.0473 34.8907 44.2279 35.2121 44.5494C35.5336 44.8709 35.7142 45.3069 35.7142 45.7616V50.9044H43.1428C43.5975 50.9044 44.0335 51.085 44.355 51.4065C44.6765 51.728 44.8571 52.1641 44.8571 52.6187C44.8571 53.0734 44.6765 53.5094 44.355 53.8309C44.0335 54.1524 43.5975 54.333 43.1428 54.333H24.8571C24.4025 54.333 23.9664 54.1524 23.6449 53.8309C23.3234 53.5094 23.1428 53.0734 23.1428 52.6187C23.1428 52.1641 23.3234 51.728 23.6449 51.4065C23.9664 51.085 24.4025 50.9044 24.8571 50.9044H32.2857V45.7616C32.2857 45.3069 32.4663 44.8709 32.7878 44.5494C33.1093 44.2279 33.5453 44.0473 34 44.0473Z" fill="white"/>
<path opacity="0.5" d="M33.4742 21.8865C33.5181 21.7835 33.5913 21.6956 33.6848 21.6338C33.7783 21.572 33.8878 21.5391 33.9999 21.5391C34.1119 21.5391 34.2215 21.572 34.3149 21.6338C34.4084 21.6956 34.4817 21.7835 34.5256 21.8865L35.6799 24.6568C35.7201 24.7535 35.7862 24.8373 35.8709 24.8989C35.9555 24.9606 36.0555 24.9978 36.1599 25.0065L39.1519 25.2465C39.2644 25.2555 39.3718 25.2975 39.4605 25.3674C39.5491 25.4373 39.6151 25.5319 39.6501 25.6392C39.685 25.7465 39.6874 25.8618 39.6569 25.9705C39.6264 26.0792 39.5644 26.1765 39.4787 26.25L37.1999 28.202C37.1202 28.2705 37.061 28.3597 37.0287 28.4597C36.9965 28.5597 36.9924 28.6667 37.017 28.7688L37.7119 31.6854C37.7387 31.7955 37.7321 31.911 37.6931 32.0174C37.6541 32.1237 37.5844 32.2161 37.4927 32.2827C37.4011 32.3493 37.2918 32.3872 37.1786 32.3915C37.0654 32.3959 36.9535 32.3665 36.857 32.3071L34.297 30.7437C34.2075 30.6892 34.1047 30.6603 33.9999 30.6603C33.895 30.6603 33.7923 30.6892 33.7027 30.7437L31.1427 32.3071C31.0463 32.3665 30.9343 32.3959 30.8211 32.3915C30.7079 32.3872 30.5986 32.3493 30.507 32.2827C30.4154 32.2161 30.3456 32.1237 30.3066 32.0174C30.2676 31.911 30.2611 31.7955 30.2879 31.6854L30.985 28.7688C31.0096 28.6667 31.0055 28.5597 30.9733 28.4597C30.941 28.3597 30.8818 28.2705 30.8022 28.202L28.521 26.25C28.4345 26.1766 28.3718 26.0793 28.3408 25.9702C28.3099 25.8611 28.312 25.7453 28.3471 25.6375C28.3821 25.5296 28.4484 25.4347 28.5376 25.3646C28.6268 25.2946 28.7348 25.2527 28.8479 25.2443L31.8376 25.0065C31.9424 24.9982 32.0428 24.9612 32.1279 24.8995C32.213 24.8378 32.2794 24.7538 32.3199 24.6568L33.4742 21.8865Z" fill="white"/>
<defs>
<linearGradient id="paint0_linear_22_563" x1="68" y1="8.10623e-06" x2="8.10623e-06" y2="68" gradientUnits="userSpaceOnUse">
<stop stop-color="#F65A75"/>
<stop offset="1" stop-color="#48179C"/>
</linearGradient>
</defs>
</svg>
