<svg width="96" height="96" viewBox="0 0 96 96" fill="none" xmlns="http://www.w3.org/2000/svg">
<rect width="96" height="96" rx="48" fill="url(#paint0_linear_4_77)"/>
<path d="M76 76L62.4886 62.4886M62.4886 62.4886C64.7998 60.1774 66.6331 57.4336 67.8839 54.4139C69.1347 51.3942 69.7785 48.1577 69.7785 44.8892C69.7785 41.6207 69.1347 38.3842 67.8839 35.3645C66.6331 32.3448 64.7998 29.6011 62.4886 27.2899C60.1774 24.9787 57.4336 23.1454 54.4139 21.8946C51.3942 20.6438 48.1577 20 44.8892 20C41.6207 20 38.3842 20.6438 35.3645 21.8946C32.3448 23.1454 29.6011 24.9787 27.2899 27.2899C22.6223 31.9575 20 38.2882 20 44.8892C20 51.4903 22.6223 57.821 27.2899 62.4886C31.9575 67.1562 38.2882 69.7785 44.8892 69.7785C51.4903 69.7785 57.821 67.1562 62.4886 62.4886Z" stroke="white" stroke-width="8" stroke-linecap="round" stroke-linejoin="round"/>
<defs>
<linearGradient id="paint0_linear_4_77" x1="96" y1="1.14441e-05" x2="1.14441e-05" y2="96" gradientUnits="userSpaceOnUse">
<stop stop-color="#F65A75"/>
<stop offset="1" stop-color="#48179C"/>
</linearGradient>
</defs>
</svg>
