<svg width="64" height="64" viewBox="0 0 64 64" fill="none" xmlns="http://www.w3.org/2000/svg">
<rect width="64" height="64" rx="32" fill="url(#paint0_linear_7_440)"/>
<path d="M46.2265 42.3125V37.1388L43.9729 36.3691C43.9193 36.2302 43.8622 36.0926 43.8019 35.9564L44.8512 33.8186L42.0229 30.9903V13.333H25.0798L18 20.4129V47.0195H27.1071L29.3787 49.2911L31.5166 48.2419C31.6526 48.3021 31.7903 48.3592 31.9292 48.4129L32.6989 50.6663H37.8726L38.6424 48.4128C38.7813 48.3591 38.9189 48.302 39.0551 48.2418L41.1929 49.2911L44.8513 45.6327L43.802 43.4948C43.8623 43.3587 43.9193 43.2211 43.973 43.0822L46.2265 42.3125ZM25.4613 15.9854V20.7943H20.6523L25.4613 15.9854ZM20.1453 22.9395H27.6066V15.4782H39.8778V30.8057L39.0551 31.2095C38.9189 31.1493 38.7813 31.0922 38.6424 31.0386L37.8726 28.785H32.6989L31.9291 31.0386C31.7902 31.0922 31.6526 31.1493 31.5165 31.2095L29.3786 30.1603L25.7203 33.8187L26.7695 35.9566C26.7093 36.0927 26.6523 36.2302 26.5986 36.3691L24.3451 37.1389V42.3126L26.5986 43.0824C26.6523 43.2213 26.7093 43.3589 26.7695 43.495L26.0926 44.8743H20.1453V22.9395ZM42.2774 41.3945L42.1131 41.9086C41.9922 42.2869 41.8388 42.6571 41.6571 43.0089L41.4092 43.4888L42.2493 45.2006L40.7606 46.6892L39.0489 45.8491L38.5689 46.097C38.2171 46.2787 37.8469 46.4321 37.4687 46.553L36.9545 46.7173L36.3383 48.5211H34.233L33.6168 46.7172L33.1026 46.553C32.7245 46.4322 32.3543 46.2788 32.0025 46.097L31.5225 45.8491L29.8107 46.6892L28.3219 45.2006L29.1621 43.4888L28.9142 43.0089C28.7325 42.657 28.5791 42.2868 28.4583 41.9087L28.2941 41.3945L26.4901 40.7783V38.673L28.2941 38.0568L28.4583 37.5427C28.5791 37.1644 28.7325 36.7942 28.9142 36.4424L29.1621 35.9625L28.3219 34.2508L29.8107 32.7621L31.5225 33.6022L32.0025 33.3543C32.3544 33.1725 32.7246 33.0191 33.1026 32.8984L33.6168 32.7341L34.233 30.9302H36.3383L36.9545 32.734L37.4687 32.8983C37.847 33.0192 38.2172 33.1726 38.5689 33.3543L39.0489 33.6022L40.7606 32.7621L42.2493 34.2508L41.4092 35.9625L41.6571 36.4425C41.8388 36.7943 41.9922 37.1645 42.1131 37.5427L42.2774 38.0569L44.0812 38.6731V40.7784L42.2774 41.3945Z" fill="white"/>
<path d="M35.2858 34.5771C32.4468 34.5771 30.1372 36.8868 30.1372 39.7257C30.1372 42.5647 32.4468 44.8743 35.2858 44.8743C38.1247 44.8743 40.4344 42.5647 40.4344 39.7257C40.4344 36.8868 38.1247 34.5771 35.2858 34.5771ZM35.2858 42.729C33.6297 42.729 32.2825 41.3817 32.2825 39.7257C32.2825 38.0697 33.6298 36.7224 35.2858 36.7224C36.9419 36.7224 38.2891 38.0697 38.2891 39.7257C38.2891 41.3817 36.9419 42.729 35.2858 42.729Z" fill="white"/>
<defs>
<linearGradient id="paint0_linear_7_440" x1="64" y1="7.62939e-06" x2="7.62939e-06" y2="64" gradientUnits="userSpaceOnUse">
<stop stop-color="#F65A75"/>
<stop offset="1" stop-color="#48179C"/>
</linearGradient>
</defs>
</svg>
