<svg width="96" height="96" viewBox="0 0 96 96" fill="none" xmlns="http://www.w3.org/2000/svg">
<rect width="96" height="96" rx="48" fill="url(#paint0_linear_4_71)"/>
<path d="M60.7282 35.2715H35.2692V60.7279H60.7256L60.7282 35.2715Z" fill="white"/>
<path d="M70.9102 30.1795V25.0898H65.8205V20H60.7282V25.0898H55.6384V20H50.5462V25.0898H45.4564V20H40.3616V25.0898H35.2718V20H30.1795V25.0898H25.0898V30.1795H20V35.2718H25.0898V40.3616H20V45.4539H25.0898V50.5436H20V55.6359H25.0898V60.7257H20V65.818H25.0898V70.9077H30.1795V76H35.2718V70.9102H40.3616V76H45.4539V70.9102H50.5436V76H55.6359V70.9102H60.7257V76H65.818V70.9102H70.9077V65.8205H76V60.7282H70.9102V55.6384H76V50.5462H70.9102V45.4564H76V40.3616H70.9102V35.2718H76V30.1795H70.9102ZM65.8205 65.818H30.1795V30.1821H65.8154L65.8205 65.818Z" fill="white"/>
<defs>
<linearGradient id="paint0_linear_4_71" x1="96" y1="1.14441e-05" x2="1.14441e-05" y2="96" gradientUnits="userSpaceOnUse">
<stop stop-color="#F65A75"/>
<stop offset="1" stop-color="#48179C"/>
</linearGradient>
</defs>
</svg>
