<svg width="64" height="64" viewBox="0 0 64 64" fill="none" xmlns="http://www.w3.org/2000/svg">
<rect width="64" height="64" rx="32" fill="url(#paint0_linear_143_3989)"/>
<path d="M47.7582 16H16.2418C15.0037 16.0014 14.0014 17.0051 14 18.2418V46.0268C14.0014 47.2635 15.0037 48.2671 16.2418 48.2686H47.7582C48.9963 48.2671 49.9986 47.2635 50 46.0268V18.2418C49.9986 17.0051 48.9963 16.0014 47.7582 16ZM49.0764 46.0268C49.075 46.7545 48.4859 47.3436 47.7582 47.345H16.2418C15.5141 47.3436 14.925 46.7545 14.9236 46.0268V23.3187H49.0763L49.0764 46.0268ZM49.0764 22.3952H14.9237V18.2418C14.9251 17.5141 15.5141 16.925 16.2419 16.9236H47.7583C48.486 16.925 49.0751 17.5141 49.0765 18.2418L49.0764 22.3952Z" fill="white"/>
<path d="M35.3096 19.1992H17.6227C17.3682 19.1992 17.1609 19.4051 17.1609 19.661C17.1609 19.9155 17.3682 20.1228 17.6227 20.1228H35.3096C35.5655 20.1228 35.7713 19.9155 35.7713 19.661C35.7713 19.4051 35.5655 19.1992 35.3096 19.1992Z" fill="white"/>
<path d="M41.7133 19.6608C41.7133 20.6773 40.1877 20.6773 40.1877 19.6608C40.1877 18.6443 41.7133 18.6443 41.7133 19.6608Z" fill="white"/>
<path d="M44.2753 19.6608C44.2753 20.6773 42.7512 20.6773 42.7512 19.6608C42.7512 18.6443 44.2753 18.6443 44.2753 19.6608Z" fill="white"/>
<path d="M46.8387 19.6608C46.8387 20.6773 45.3132 20.6773 45.3132 19.6608C45.3132 18.6443 46.8387 18.6443 46.8387 19.6608Z" fill="white"/>
<path d="M21.0138 33.3852L24.5238 35.3053L26.4439 38.8152C26.5239 38.9625 26.6798 39.0554 26.8485 39.0554C27.0172 39.0554 27.173 38.9625 27.2531 38.8152L29.1732 35.3053L32.6831 33.3852H32.6846C32.8318 33.3037 32.9248 33.1479 32.9248 32.9791C32.9248 32.8104 32.8318 32.656 32.6846 32.5745L29.1746 30.6544L27.2531 27.1445C27.173 26.9958 27.0172 26.9043 26.8485 26.9043C26.6798 26.9043 26.5239 26.9958 26.4439 27.1445L24.5238 30.6544L21.0138 32.5745C20.8651 32.656 20.7722 32.8104 20.7722 32.9791C20.7722 33.1478 20.8651 33.3037 21.0138 33.3852ZM25.0857 31.4007V31.3993C25.1629 31.3578 25.2272 31.2935 25.2687 31.2163L26.8485 28.3283L28.4283 31.2163C28.4698 31.2935 28.5341 31.3578 28.6113 31.3993L31.4993 32.9791L28.6113 34.559C28.5341 34.6019 28.4698 34.6648 28.4283 34.742L26.8485 37.63L25.2687 34.742C25.2272 34.6648 25.1629 34.6019 25.0857 34.559L22.1976 32.9791L25.0857 31.4007Z" fill="white"/>
<path d="M31.075 37.6856C31.075 37.8544 31.1679 38.0088 31.3151 38.0903L34.8251 40.0104L36.7452 43.5203H36.7466C36.8267 43.669 36.9825 43.7605 37.1512 43.7605C37.3199 43.7605 37.4758 43.669 37.5558 43.5203L39.4759 40.0104L42.9859 38.0903C43.1346 38.0102 43.2275 37.8544 43.2275 37.6856C43.2275 37.5169 43.1346 37.3611 42.9859 37.2796L39.4759 35.3595L37.5558 31.8496C37.4758 31.7023 37.3199 31.6094 37.1512 31.6094C36.9825 31.6094 36.8267 31.7023 36.7466 31.8496L34.8265 35.3595L31.3166 37.2796H31.3151C31.1679 37.3611 31.075 37.5169 31.075 37.6856ZM35.3883 36.1058C35.4655 36.0629 35.5299 36 35.5713 35.9228L37.1512 33.0348L38.731 35.9228C38.7725 36 38.8368 36.0629 38.914 36.1058L41.802 37.6856L38.914 39.2655V39.264C38.8368 39.3069 38.7725 39.3713 38.731 39.4485L37.1512 42.3365L35.5713 39.4485C35.5299 39.3713 35.4655 39.3069 35.3883 39.264L32.5003 37.6856L35.3883 36.1058Z" fill="white"/>
<defs>
<linearGradient id="paint0_linear_143_3989" x1="64" y1="7.62939e-06" x2="7.62939e-06" y2="64" gradientUnits="userSpaceOnUse">
<stop stop-color="#F65A75"/>
<stop offset="1" stop-color="#48179C"/>
</linearGradient>
</defs>
</svg>
