<svg width="64" height="64" viewBox="0 0 64 64" fill="none" xmlns="http://www.w3.org/2000/svg">
<rect width="64" height="64" rx="32" fill="url(#paint0_linear_143_3992)"/>
<path d="M25.9004 28.4018C25.9004 29.6015 24.0999 29.6015 24.0999 28.4018C24.0999 27.202 25.9004 27.202 25.9004 28.4018Z" fill="white"/>
<path d="M29.4997 28.4018C29.4997 29.6015 27.6992 29.6015 27.6992 28.4018C27.6992 27.202 29.4997 27.202 29.4997 28.4018Z" fill="white"/>
<path d="M33.0991 28.4018C33.0991 29.6015 31.3003 29.6015 31.3003 28.4018C31.3003 27.202 33.0991 27.202 33.0991 28.4018Z" fill="white"/>
<path d="M36.7002 28.4018C36.7002 29.6015 34.8997 29.6015 34.8997 28.4018C34.8997 27.202 36.7002 27.202 36.7002 28.4018Z" fill="white"/>
<path d="M43.8987 40.0897C43.6608 40.0897 43.4313 40.1842 43.2625 40.3529C43.0938 40.5217 42.9993 40.7511 42.9993 40.9908V46.8494C42.9993 47.5952 42.3952 48.1993 41.6493 48.1993H24.0998V44.6C24.0982 43.1083 22.8899 41.9018 21.3999 41.9001H17.8006V23.9001H42.9993V26.6101C42.9993 27.1062 43.4026 27.5095 43.8987 27.5095C44.3964 27.5095 44.7997 27.1062 44.7997 26.6101V19.8504C44.7964 18.1123 43.3874 16.7033 41.6493 16.6999H40.2993C40.2993 15.2099 39.0911 14 37.5994 14C36.1077 14 34.8995 15.2099 34.8995 16.6999H33.0989C33.0989 15.2099 31.8907 14 30.399 14C28.909 14 27.6991 15.2099 27.6991 16.6999H25.9003C25.9003 15.2099 24.6904 14 23.2004 14C21.7087 14 20.5004 15.2099 20.5004 16.6999H19.1505C17.4107 16.7033 16.0017 18.1123 16 19.8504V42.0536C15.9983 42.7708 16.2835 43.4576 16.7914 43.9638L22.0362 49.2086C22.5407 49.7165 23.2292 50.0017 23.9447 50H41.6492C43.3873 49.9966 44.7963 48.5876 44.7997 46.8495V40.9909C44.7997 40.7513 44.7052 40.5218 44.5364 40.353C44.3677 40.1843 44.1383 40.0897 43.8987 40.0897ZM36.7001 16.6998C36.7001 16.2037 37.1017 15.8004 37.5995 15.8004C38.0972 15.8004 38.4989 16.2037 38.4989 16.6998V18.5003C38.4989 18.998 38.0972 19.3997 37.5995 19.3997C37.1017 19.3997 36.7001 18.9981 36.7001 18.5003V16.6998ZM29.4997 16.6998C29.4997 16.2037 29.903 15.8004 30.3991 15.8004C30.8969 15.8004 31.3002 16.2037 31.3002 16.6998V18.5003C31.3002 18.998 30.8969 19.3997 30.3991 19.3997C29.903 19.3997 29.4997 18.9981 29.4997 18.5003V16.6998ZM22.2994 16.6998C22.2994 16.2037 22.7027 15.8004 23.2004 15.8004C23.6965 15.8004 24.0998 16.2037 24.0998 16.6998V18.5003C24.0998 18.998 23.6965 19.3997 23.2004 19.3997C22.7027 19.3997 22.2994 18.9981 22.2994 18.5003V16.6998ZM19.1506 18.5003H20.5005C20.5005 19.992 21.7087 21.2002 23.2004 21.2002C24.6904 21.2002 25.9004 19.992 25.9004 18.5003H27.7009H27.6992C27.6992 19.992 28.9091 21.2002 30.3991 21.2002C31.8908 21.2002 33.099 19.992 33.099 18.5003H34.8995C34.8995 19.992 36.1078 21.2002 37.5995 21.2002C39.0911 21.2002 40.2994 19.992 40.2994 18.5003H41.6493C42.3952 18.5003 42.9993 19.1044 42.9993 19.8502V22.0996H17.8006V19.8502C17.8006 19.1044 18.4047 18.5003 19.1506 18.5003ZM19.0729 43.6989H21.3999C21.896 43.7006 22.2993 44.1022 22.2993 44.6V46.927L19.0729 43.6989Z" fill="white"/>
<path d="M47.9824 33.0432L46.8602 32.3513C46.2595 31.9784 45.7533 31.4705 45.3837 30.8664L44.6969 29.7408C44.5332 29.4742 44.243 29.3105 43.9308 29.3105H43.9275H43.9292C43.617 29.3105 43.3267 29.4709 43.1631 29.7375L42.4695 30.8596V30.858C42.0966 31.4604 41.5887 31.9649 40.9846 32.3345L39.859 33.023C39.5924 33.1867 39.4287 33.4769 39.4287 33.7891C39.427 34.1012 39.589 34.3932 39.8556 34.5568L40.9778 35.2487V35.2504C41.5785 35.6216 42.0848 36.1313 42.4543 36.7337L43.1428 37.8592H43.1412C43.3048 38.1275 43.5951 38.2895 43.9089 38.2912H43.9106C44.2211 38.2912 44.5113 38.1292 44.675 37.8626L45.3669 36.7404L45.3686 36.7421C45.7415 36.1414 46.2494 35.6351 46.8518 35.2656L47.9791 34.5771C48.2457 34.4134 48.4094 34.1231 48.4094 33.811C48.4111 33.4971 48.249 33.2069 47.9824 33.0432ZM43.9139 35.6739C43.4296 34.923 42.7935 34.2834 42.0443 33.7958C42.7952 33.3115 43.4364 32.6753 43.9241 31.9261C44.4084 32.677 45.0446 33.3183 45.7921 33.8059C45.0412 34.2885 44.4016 34.9264 43.9139 35.6739Z" fill="white"/>
<path d="M36.7 38.2988H28.6003C28.1025 38.2988 27.6992 38.7021 27.6992 39.1999C27.6992 39.696 28.1025 40.0993 28.6003 40.0993H36.7C37.1961 40.0993 37.5994 39.696 37.5994 39.1999C37.5994 38.7021 37.1961 38.2988 36.7 38.2988Z" fill="white"/>
<path d="M36.7 41.9004H28.6003C28.1025 41.9004 27.6992 42.302 27.6992 42.7998C27.6992 43.2976 28.1025 43.6992 28.6003 43.6992H36.7C37.1961 43.6992 37.5994 43.2976 37.5994 42.7998C37.5994 42.302 37.1961 41.9004 36.7 41.9004Z" fill="white"/>
<path d="M36.7 34.6992H24.0998C23.6021 34.6992 23.2004 35.1025 23.2004 35.5986C23.2004 36.0964 23.6021 36.4997 24.0998 36.4997H36.7C37.1961 36.4997 37.5994 36.0964 37.5994 35.5986C37.5994 35.1025 37.1961 34.6992 36.7 34.6992Z" fill="white"/>
<path d="M36.7 31.1016H24.0998C23.6021 31.1016 23.2004 31.5032 23.2004 32.001C23.2004 32.4987 23.6021 32.9004 24.0998 32.9004H36.7C37.1961 32.9004 37.5994 32.4987 37.5994 32.001C37.5994 31.5032 37.1961 31.1016 36.7 31.1016Z" fill="white"/>
<defs>
<linearGradient id="paint0_linear_143_3992" x1="64" y1="7.62939e-06" x2="7.62939e-06" y2="64" gradientUnits="userSpaceOnUse">
<stop stop-color="#F65A75"/>
<stop offset="1" stop-color="#48179C"/>
</linearGradient>
</defs>
</svg>
