<svg width="64" height="64" viewBox="0 0 64 64" fill="none" xmlns="http://www.w3.org/2000/svg">
<rect width="64" height="64" rx="32" fill="url(#paint0_linear_141_3895)"/>
<path d="M35.06 36.2952L33.731 40.9437C33.233 42.6837 30.767 42.6837 30.269 40.9437L28.9415 36.2952C28.8575 36.0012 28.6999 35.7334 28.4836 35.5171C28.2674 35.3009 27.9996 35.1433 27.7055 35.0592L23.057 33.7318C21.317 33.2338 21.317 30.7677 23.057 30.2697L27.7055 28.9423C27.9996 28.8582 28.2674 28.7006 28.4836 28.4844C28.6999 28.2681 28.8575 28.0003 28.9415 27.7063L30.269 23.0578C30.767 21.3178 33.233 21.3178 33.731 23.0578L35.0585 27.7063C35.1426 28.0003 35.3002 28.2681 35.5164 28.4844C35.7327 28.7006 36.0005 28.8582 36.2945 28.9423L40.943 30.2697C42.683 30.7677 42.683 33.2338 40.943 33.7318L36.2945 35.0592C36.0005 35.1433 35.7327 35.3009 35.5164 35.5171C35.3002 35.7334 35.1426 36.0012 35.0585 36.2952M43.355 43.5747L42.791 45.8368C42.716 46.1398 42.2855 46.1398 42.209 45.8368L41.6435 43.5747C41.6303 43.5222 41.6031 43.4743 41.5648 43.436C41.5265 43.3977 41.4785 43.3705 41.426 43.3572L39.164 42.7917C38.861 42.7167 38.861 42.2862 39.164 42.2097L41.426 41.6443C41.4785 41.631 41.5265 41.6038 41.5648 41.5655C41.6031 41.5272 41.6303 41.4793 41.6435 41.4268L42.209 39.1647C42.284 38.8617 42.7145 38.8617 42.791 39.1647L43.3565 41.4268C43.3698 41.4793 43.397 41.5272 43.4353 41.5655C43.4736 41.6038 43.5215 41.631 43.574 41.6443L45.836 42.2097C46.139 42.2847 46.139 42.7152 45.836 42.7917L43.574 43.3572C43.5215 43.3705 43.4736 43.3977 43.4353 43.436C43.397 43.4743 43.3683 43.5222 43.355 43.5747ZM22.355 22.5748L21.791 24.8368C21.716 25.1398 21.284 25.1398 21.209 24.8368L20.6435 22.5748C20.6303 22.5222 20.6031 22.4743 20.5648 22.436C20.5265 22.3977 20.4785 22.3705 20.426 22.3573L18.164 21.7917C17.861 21.7167 17.861 21.2848 18.164 21.2098L20.426 20.6442C20.4785 20.631 20.5265 20.6038 20.5648 20.5655C20.6031 20.5272 20.6303 20.4793 20.6435 20.4267L21.209 18.1648C21.284 17.8617 21.716 17.8617 21.791 18.1648L22.3565 20.4267C22.3698 20.4793 22.397 20.5272 22.4353 20.5655C22.4736 20.6038 22.5215 20.631 22.574 20.6442L24.836 21.2098C25.139 21.2848 25.139 21.7167 24.836 21.7917L22.574 22.3573C22.5215 22.3705 22.4736 22.3977 22.4353 22.436C22.397 22.4743 22.3683 22.5222 22.355 22.5748Z" stroke="white" stroke-width="2.25" stroke-miterlimit="10" stroke-linecap="round" stroke-linejoin="round"/>
<defs>
<linearGradient id="paint0_linear_141_3895" x1="64" y1="7.62939e-06" x2="7.62939e-06" y2="64" gradientUnits="userSpaceOnUse">
<stop stop-color="#F65A75"/>
<stop offset="1" stop-color="#48179C"/>
</linearGradient>
</defs>
</svg>
