<svg width="64" height="64" viewBox="0 0 64 64" fill="none" xmlns="http://www.w3.org/2000/svg">
<rect width="64" height="64" rx="32" fill="url(#paint0_linear_143_3997)"/>
<path d="M24.5235 36.3691C23.6623 36.3691 22.9609 37.0705 22.9609 37.9317V40.2101C22.9609 41.0713 23.6623 41.7727 24.5235 41.7727C25.3848 41.7727 26.0861 41.0713 26.0861 40.2101V37.9317C26.0847 37.0705 25.3848 36.3691 24.5235 36.3691ZM25.379 40.2101C25.379 40.6824 24.9944 41.0655 24.5221 41.0655C24.0497 41.0655 23.6666 40.681 23.6666 40.2101V37.9317C23.6666 37.4594 24.0512 37.0748 24.5221 37.0748C24.9944 37.0748 25.379 37.4594 25.379 37.9317V40.2101Z" fill="white"/>
<path d="M29.1163 33.5488C28.2551 33.5488 27.5537 34.2502 27.5537 35.1114V40.2096C27.5537 41.0708 28.2551 41.7721 29.1163 41.7721C29.9775 41.7721 30.6789 41.0708 30.6789 40.2096V35.1114C30.6789 34.2488 29.9775 33.5488 29.1163 33.5488ZM29.9732 40.2095C29.9732 40.6818 29.5887 41.0649 29.1177 41.0649C28.6454 41.0649 28.2608 40.6804 28.2608 40.2095V35.1113C28.2608 34.6389 28.6454 34.2544 29.1177 34.2544C29.5901 34.2544 29.9732 34.6389 29.9732 35.1113V40.2095Z" fill="white"/>
<path d="M33.7103 31.252C32.8491 31.252 32.1477 31.9533 32.1477 32.8146V40.2111C32.1477 41.0723 32.8491 41.7737 33.7103 41.7737C34.5715 41.7737 35.2729 41.0723 35.2729 40.2111V32.8131C35.2729 31.9519 34.5715 31.252 33.7103 31.252ZM34.5672 40.2099C34.5672 40.6822 34.1826 41.0653 33.7103 41.0653C33.2379 41.0653 32.8548 40.6808 32.8548 40.2099L32.8534 32.8134C32.8534 32.341 33.2379 31.9579 33.7089 31.9579C34.1812 31.9579 34.5657 32.3424 34.5657 32.8134L34.5672 40.2099Z" fill="white"/>
<path d="M24.0959 34.8206L33.876 29.1104L33.7636 29.6173C33.7219 29.8074 33.8414 29.9961 34.0315 30.0379C34.2288 30.0796 34.4117 29.9558 34.452 29.77L34.7343 28.5026C34.7544 28.4119 34.7372 28.3154 34.6868 28.2362C34.6363 28.157 34.5571 28.1008 34.465 28.0807L33.1789 27.7969C32.9888 27.7566 32.8001 27.8747 32.7584 28.0648C32.7166 28.2549 32.8361 28.4436 33.0262 28.4853L33.4021 28.5689L23.7386 34.2116C23.5701 34.3095 23.5139 34.5255 23.6118 34.694C23.7112 34.8625 23.9288 34.9199 24.0959 34.8206Z" fill="white"/>
<path d="M17.8006 23.0148C18.4746 23.0148 19.0233 22.4661 19.0233 21.7935V21.0533C19.0233 20.3793 18.4746 19.832 17.8006 19.832C17.1266 19.832 16.5793 20.3807 16.5793 21.0533V21.7935C16.5779 22.4675 17.1266 23.0148 17.8006 23.0148ZM17.285 21.0533C17.285 20.7696 17.5169 20.5377 17.8006 20.5377C18.0858 20.5377 18.3162 20.7696 18.3162 21.0533V21.7935C18.3162 22.0772 18.0843 22.3091 17.8006 22.3091C17.5155 22.3091 17.285 22.0772 17.285 21.7935V21.0533Z" fill="white"/>
<path d="M20.8421 23.0148C21.5161 23.0148 22.0648 22.4661 22.0648 21.7935V21.0533C22.0648 20.3793 21.5161 19.832 20.8421 19.832C20.1681 19.832 19.6209 20.3807 19.6209 21.0533V21.7935C19.6194 22.4675 20.1681 23.0148 20.8421 23.0148ZM20.3265 21.0533C20.3265 20.7696 20.5584 20.5377 20.8421 20.5377C21.1273 20.5377 21.3577 20.7696 21.3577 21.0533V21.7935C21.3577 22.0772 21.1258 22.3091 20.8421 22.3091C20.557 22.3091 20.3265 22.0772 20.3265 21.7935V21.0533Z" fill="white"/>
<path d="M23.8839 23.0148C24.5578 23.0148 25.1066 22.4661 25.1066 21.7935V21.0533C25.1066 20.3793 24.5578 19.832 23.8839 19.832C23.2099 19.832 22.6626 20.3807 22.6626 21.0533V21.7935C22.6626 22.4675 23.2099 23.0148 23.8839 23.0148ZM23.3683 21.0533C23.3683 20.7696 23.6002 20.5377 23.8839 20.5377C24.169 20.5377 24.3994 20.7696 24.3994 21.0533V21.7935C24.3994 22.0772 24.1676 22.3091 23.8839 22.3091C23.5987 22.3091 23.3683 22.0772 23.3683 21.7935V21.0533Z" fill="white"/>
<path d="M49.709 25.7582L48.6548 25.5709C48.5929 25.3938 48.5209 25.2224 48.4402 25.0539L49.0538 24.1754C49.1517 24.0357 49.1344 23.8442 49.0134 23.7232L47.4005 22.1102C47.2795 21.9892 47.0894 21.9734 46.9482 22.0699L46.0697 22.6834C45.9012 22.6028 45.7284 22.5308 45.5527 22.4688L45.3669 21.4146C45.3367 21.2461 45.1912 21.1237 45.0199 21.1237H44.2307V21.0488C44.2307 19.3681 42.8611 18 41.1775 18H17.0531C15.3696 18 14 19.3681 14 21.0488V42.6168C14 44.3003 15.3696 45.6699 17.0531 45.6699H41.179C42.8626 45.6699 44.2321 44.3003 44.2321 42.6168V33.368H45.0213C45.1927 33.368 45.3396 33.2456 45.3684 33.0771L45.5542 32.0229C45.7299 31.9609 45.9027 31.8889 46.0698 31.8083L46.9483 32.4218C47.088 32.5197 47.2795 32.5025 47.4005 32.3815L49.0135 30.7685C49.1344 30.6475 49.1517 30.4574 49.0538 30.3163L48.4403 29.4378C48.5209 29.2707 48.5929 29.0979 48.6549 28.9208L49.7091 28.7335C49.8776 28.7033 50 28.5578 50 28.3865V26.1038C50.0014 25.9339 49.879 25.787 49.709 25.7582ZM14.7059 24.992V21.0504C14.7059 19.7586 15.7587 18.7072 17.0534 18.7072H41.1793C42.474 18.7072 43.5267 19.7586 43.5267 21.0504V21.1253H42.739C42.5676 21.1253 42.4207 21.2477 42.3919 21.4162L42.2061 22.4704C42.029 22.5323 41.8547 22.6044 41.6877 22.685L40.8106 22.0715C40.6695 21.9735 40.4794 21.9894 40.3584 22.1118L38.7454 23.7248C38.6993 23.7709 38.6734 23.8285 38.6576 23.889H17.0535C16.1735 23.889 15.2935 24.2877 14.7059 24.992ZM43.5266 42.6169C43.5266 43.9116 42.4738 44.9644 41.1791 44.9644L17.0533 44.9658C15.7586 44.9658 14.7058 43.913 14.7058 42.6183V26.9419C14.7058 25.6472 15.7586 24.5944 17.0533 24.5944H38.9958L39.3169 25.0553C39.2363 25.2224 39.1643 25.3952 39.1024 25.5723L38.0481 25.7595C37.8796 25.7898 37.7572 25.9352 37.7572 26.1066V28.3893C37.7572 28.5606 37.8796 28.7075 38.0481 28.7364L39.1024 28.9236C39.1643 29.1007 39.2363 29.2721 39.3169 29.4406L38.7034 30.3191C38.6055 30.4588 38.6228 30.6503 38.7437 30.7713L40.3567 32.3843C40.4777 32.5053 40.6678 32.5225 40.8089 32.4246L41.686 31.8111C41.8545 31.8917 42.0273 31.9637 42.2044 32.0257L42.3902 33.0799C42.4205 33.2484 42.5659 33.3708 42.7373 33.3708H43.5251L43.5266 42.6169ZM49.2957 28.0915L48.3251 28.2629C48.194 28.2859 48.0875 28.381 48.0486 28.5077C47.965 28.7828 47.8541 29.0492 47.7202 29.2998C47.6568 29.4165 47.6655 29.559 47.7418 29.6685L48.3063 30.4778L47.111 31.6732L46.3016 31.1072C46.1922 31.0309 46.0496 31.0222 45.9329 31.0856C45.6824 31.221 45.4159 31.3304 45.1423 31.4139C45.0156 31.4528 44.9205 31.5594 44.8975 31.6905L44.7261 32.6611H43.0368L42.8654 31.6905C42.8424 31.5594 42.7473 31.4514 42.6191 31.4139C42.347 31.3319 42.0805 31.2224 41.8271 31.0856C41.7104 31.0222 41.5664 31.0309 41.4569 31.1072L40.649 31.6732L39.4537 30.4778L40.0182 29.6685C40.0945 29.559 40.1032 29.4165 40.0398 29.2998C39.9059 29.0492 39.795 28.7842 39.7114 28.5077C39.6726 28.381 39.566 28.2859 39.4349 28.2629L38.4643 28.0915V26.4022L39.4349 26.2308C39.566 26.2078 39.6726 26.1127 39.7114 25.986C39.795 25.7109 39.9044 25.4445 40.0398 25.1939C40.1032 25.0773 40.0945 24.9347 40.0182 24.8252L39.4522 24.0159L40.6475 22.8205L41.4555 23.3851C41.5649 23.4614 41.7089 23.47 41.8256 23.4067C42.0747 23.2713 42.3412 23.1618 42.6177 23.0783C42.7458 23.0394 42.8409 22.9328 42.8639 22.8018L43.0353 21.8311H44.7246L44.896 22.8018C44.919 22.9328 45.0141 23.0394 45.1408 23.0783C45.4116 23.1604 45.678 23.2713 45.9329 23.4067C46.0496 23.47 46.1921 23.4614 46.3016 23.3851L47.111 22.8191L48.3063 24.0144L47.7403 24.8238C47.664 24.9332 47.6553 25.0758 47.7187 25.1924C47.8526 25.443 47.9635 25.7095 48.0471 25.9845C48.0859 26.1113 48.1925 26.2063 48.3236 26.2294L49.2942 26.4007L49.2957 28.0915Z" fill="white"/>
<path d="M43.8809 24.4727C42.3515 24.4727 41.1072 25.717 41.1072 27.245C41.1072 28.7744 42.3515 30.0187 43.8809 30.0187C45.4104 30.0187 46.6532 28.7744 46.6532 27.245C46.6532 25.717 45.4089 24.4727 43.8809 24.4727ZM43.8809 29.3146C42.7403 29.3146 41.8128 28.3871 41.8128 27.2465C41.8128 26.1058 42.7403 25.1798 43.8809 25.1798C45.0216 25.1798 45.9476 26.1073 45.9476 27.2465C45.9476 28.3871 45.0201 29.3146 43.8809 29.3146Z" fill="white"/>
<defs>
<linearGradient id="paint0_linear_143_3997" x1="64" y1="7.62939e-06" x2="7.62939e-06" y2="64" gradientUnits="userSpaceOnUse">
<stop stop-color="#F65A75"/>
<stop offset="1" stop-color="#48179C"/>
</linearGradient>
</defs>
</svg>
