<svg width="64" height="64" viewBox="0 0 64 64" fill="none" xmlns="http://www.w3.org/2000/svg">
<rect width="64" height="64" rx="32" fill="url(#paint0_linear_143_4000)"/>
<path fill-rule="evenodd" clip-rule="evenodd" d="M29.6736 39.8681H16.6809C15.203 39.8681 14 38.632 14 37.1016V19.9519C14 18.4215 15.203 17.187 16.6809 17.187H39.9C39.8909 17.0893 39.8849 16.9917 39.8849 16.8926C39.8849 15.2961 41.1826 14 42.779 14C44.377 14 45.6731 15.2961 45.6731 16.8926C45.6731 16.9977 45.6671 17.1014 45.6566 17.202C46.9978 17.3522 48.0461 18.5236 48.0461 19.9519V27.7061C50.784 30.8885 50.6443 35.7006 47.6286 38.7164C47.4979 38.8471 47.3642 38.9717 47.2276 39.0919C47.1014 39.2165 46.9647 39.3292 46.8175 39.4268C44.0436 41.5504 40.208 41.6391 37.3467 39.6926L36.1407 40.8986C36.2007 41.0338 36.2458 41.175 36.2728 41.3192L38.8861 41.3282C38.9837 41.3282 39.0738 41.3732 39.1339 41.4513L42.1602 45.4222C42.2323 45.5169 42.2443 45.643 42.1917 45.7496C42.1392 45.8563 42.031 45.9239 41.9124 45.9239H32.829L29.3537 49.4007C28.6223 50.1306 27.4358 50.1306 26.7044 49.4007L25.4834 48.1797C24.8721 47.5684 24.773 46.6388 25.183 45.9239H20.1336C20.015 45.9239 19.9068 45.8563 19.8543 45.7496C19.8017 45.643 19.8137 45.5169 19.8858 45.4222L22.9632 41.3956C23.0217 41.319 23.1148 41.2724 23.2125 41.2739L29.0473 41.2935C29.2711 40.8414 29.4768 40.3622 29.6736 39.8681ZM40.0349 17.8101H16.6809C15.5425 17.8101 14.6248 18.7728 14.6248 19.9518V37.1015C14.6248 38.2804 15.5424 39.2431 16.6809 39.2431H30.1273H30.1378H31.7718L31.889 39.126C32.4552 38.5598 33.2947 38.4321 33.9856 38.743L35.1916 37.537C34.8116 36.9798 34.5112 36.3866 34.2859 35.7708H18.1151C17.9424 35.7708 17.8027 35.6311 17.8027 35.4584V21.9624C17.8027 21.7897 17.9424 21.65 18.1151 21.65C18.2878 21.65 18.4275 21.7897 18.4275 21.9624V35.1458H20.2538V31.8717C20.2538 31.7005 20.3949 31.5593 20.5662 31.5593C20.7389 31.5593 20.8785 31.7005 20.8785 31.8717V35.1458H23.1374V31.2783C23.1374 31.1056 23.277 30.9659 23.4498 30.9659C23.6225 30.9659 23.7621 31.1056 23.7621 31.2783V35.1458H26.0195V29.7089C26.0195 29.5362 26.1591 29.3965 26.3318 29.3965C26.5046 29.3965 26.6442 29.5362 26.6442 29.7089V35.1458H28.9031V28.2867C28.9031 28.114 29.0427 27.9743 29.2154 27.9743C29.3867 27.9743 29.5263 28.114 29.5263 28.2867V35.1458H31.7851V29.7089C31.7851 29.5362 31.9248 29.3965 32.0975 29.3965C32.2703 29.3965 32.4099 29.5362 32.4099 29.7089V35.1458H34.086C33.3381 32.4259 34.032 29.3905 36.1676 27.2551C39.2615 24.1613 44.2463 24.0952 47.4214 27.0569V19.9517C47.4214 18.8268 46.5863 17.9002 45.5215 17.8175C45.1355 18.962 44.0527 19.7865 42.7791 19.7865C42.5177 19.7865 42.2654 19.752 42.0236 19.6859H41.8885L38.4973 23.1282C38.5603 23.3279 38.5949 23.5412 38.5949 23.7604C38.5949 24.9184 37.6547 25.8585 36.4968 25.8585C35.3719 25.8585 34.4527 24.9709 34.4017 23.8596L30.2912 21.9221C29.9398 22.1865 29.5042 22.3427 29.0326 22.3427C28.7172 22.3427 28.4169 22.2721 28.148 22.1474L23.6381 25.5657C23.6561 25.6753 23.6651 25.788 23.6651 25.9036C23.6651 27.06 22.7264 28.0002 21.5685 28.0002C20.4106 28.0002 19.4704 27.06 19.4704 25.9036C19.4704 24.7457 20.4106 23.8055 21.5685 23.8055C21.8839 23.8055 22.1843 23.8761 22.4531 24.0007L26.9619 20.5825C26.9454 20.4728 26.9349 20.3587 26.9349 20.2446C26.9349 19.0866 27.875 18.1465 29.033 18.1465C30.1579 18.1465 31.077 19.0341 31.1281 20.1469L35.2386 22.0829C35.59 21.82 36.0256 21.6639 36.4971 21.6639C36.7059 21.6639 36.9086 21.6939 37.0994 21.751L40.3449 18.4559C40.2158 18.2561 40.1121 18.0399 40.0355 17.8101L40.0349 17.8101ZM44.9851 17.4256C45.0271 17.2544 45.0482 17.0757 45.0482 16.8924C45.0482 15.6399 44.0314 14.6231 42.7789 14.6231C41.5263 14.6231 40.5095 15.6399 40.5095 16.8924C40.5095 17.0757 40.5321 17.2544 40.5726 17.4256C40.6507 17.7455 40.7949 18.0399 40.9916 18.2907C40.9946 18.2937 40.9976 18.2967 41.0006 18.3012C41.4166 18.8254 42.058 19.1618 42.7789 19.1618C43.8482 19.1618 44.7448 18.4213 44.9851 17.4256ZM46.8099 38.6277C46.9375 38.5151 47.0637 38.3979 47.1868 38.2748C50.105 35.3567 50.105 30.6167 47.1868 27.697C44.2672 24.7789 39.5272 24.7789 36.609 27.697C34.538 29.7681 33.9372 32.7537 34.8023 35.3551C34.8038 35.3581 34.8038 35.3611 34.8053 35.3641C35.1612 36.4289 35.762 37.4276 36.609 38.2747C39.4055 41.0712 43.8722 41.1883 46.8081 38.6276L46.8099 38.6277ZM36.8372 39.3171C36.606 39.1324 36.3822 38.9311 36.1674 38.7163C35.9526 38.5016 35.7514 38.2778 35.5651 38.045L34.5108 39.1008C34.5198 39.1098 34.5273 39.1173 34.5364 39.1264L35.7574 40.3474C35.7664 40.3564 35.7739 40.3639 35.7829 40.3729L36.8372 39.3171ZM35.6808 41.6375C35.6763 41.4573 35.6327 41.2786 35.5501 41.1133C35.5381 41.1043 35.5261 41.0938 35.5141 41.0833C35.4675 41.0353 35.439 40.9782 35.4285 40.9181C35.3939 40.873 35.3564 40.8295 35.3158 40.7889L34.0948 39.5679C34.0543 39.5274 34.0107 39.4898 33.9657 39.4553C33.9056 39.4448 33.847 39.4162 33.8004 39.3697C33.7899 39.3576 33.7794 39.3456 33.7704 39.3336C33.3033 39.0993 32.7191 39.1774 32.3301 39.5679L28.1789 43.7191C28.0978 43.8047 28.0152 43.8873 27.9296 43.9684L25.9246 45.9719C25.438 46.46 25.438 47.25 25.9246 47.7366L27.1456 48.9576C27.6337 49.4457 28.4237 49.4457 28.9118 48.9576L35.3157 42.5538C35.568 42.3014 35.6897 41.9695 35.6807 41.6391L35.6808 41.6375ZM33.4535 45.2991H41.2811L38.7295 41.9514L36.2859 41.9439C36.2303 42.3284 36.0531 42.6993 35.7572 42.9952L33.4535 45.2991ZM25.7159 45.2991C25.7159 45.2991 27.4911 43.5223 27.4926 43.5223L27.7374 43.2775C28.1083 42.8826 28.4283 42.423 28.7181 41.9168L23.3639 41.8988L20.7656 45.2991H25.7159ZM30.3461 39.8683C30.1569 40.3489 29.9617 40.816 29.7529 41.262L31.1466 39.8683H30.3461ZM41.3084 19.3859C41.1012 19.2628 40.9104 19.1141 40.7392 18.9444L37.6934 22.0382C37.8901 22.1749 38.0614 22.3446 38.201 22.5399L41.3084 19.3859ZM35.026 23.6844C35.0245 23.7099 35.023 23.7355 35.023 23.761C35.023 24.575 35.6839 25.2343 36.4964 25.2343C37.3104 25.2343 37.9697 24.575 37.9697 23.761C37.9697 23.5537 37.9261 23.357 37.8495 23.1783C37.8495 23.1768 37.848 23.1753 37.848 23.1753C37.6963 22.8268 37.414 22.5475 37.0625 22.4003H37.0595C36.8868 22.3282 36.6961 22.2877 36.4963 22.2877C36.1134 22.2877 35.7649 22.4349 35.5021 22.6751C35.4991 22.6782 35.4961 22.6812 35.4916 22.6842C35.2243 22.935 35.0486 23.2849 35.026 23.6739L35.026 23.6844ZM30.7487 21.4496L34.4748 23.2038C34.5394 22.9695 34.6431 22.7517 34.7797 22.558L31.0551 20.8023C30.9905 21.0366 30.8854 21.2559 30.7487 21.4496ZM28.2826 21.5127C28.5019 21.6433 28.7587 21.7184 29.032 21.7184C29.415 21.7184 29.7634 21.5713 30.0263 21.3325C30.0293 21.328 30.0338 21.325 30.0368 21.3219C30.3056 21.0711 30.4798 20.7212 30.5023 20.3322V20.3232C30.5038 20.2977 30.5053 20.2706 30.5053 20.2451C30.5053 19.4326 29.8445 18.7718 29.032 18.7718C28.2195 18.7718 27.5587 19.4326 27.5587 20.2451C27.5587 20.7813 27.8455 21.2499 28.2736 21.5082C28.2766 21.5097 28.2796 21.5112 28.2826 21.5127ZM23.4301 24.94L27.6009 21.7785C27.4267 21.6148 27.2795 21.4226 27.1699 21.2093L22.9991 24.3708C23.1733 24.533 23.3189 24.7252 23.4301 24.94ZM22.3172 24.6351C22.0979 24.5059 21.8411 24.4308 21.5678 24.4308C20.7553 24.4308 20.0945 25.0901 20.0945 25.9042C20.0945 26.7167 20.7553 27.376 21.5678 27.376C22.3803 27.376 23.0411 26.7167 23.0411 25.9042C23.0411 25.368 22.7543 24.8979 22.3262 24.6411C22.3232 24.6396 22.3202 24.6381 22.3172 24.6351ZM46.3456 28.5383C48.7997 30.9939 48.7997 34.9799 46.3456 37.434C43.8901 39.8896 39.9041 39.8896 37.4499 37.434C34.9944 34.98 34.9944 30.994 37.4499 28.5383C39.904 26.0843 43.89 26.0843 46.3456 28.5383ZM45.9041 28.9799C43.6919 26.7691 40.1023 26.7691 37.8916 28.9799C35.6793 31.1921 35.6793 34.7817 37.8916 36.9924C40.1023 39.2047 43.6918 39.2047 45.9041 36.9924C48.1149 34.7817 48.1149 31.1922 45.9041 28.9799Z" fill="white"/>
<defs>
<linearGradient id="paint0_linear_143_4000" x1="64" y1="7.62939e-06" x2="7.62939e-06" y2="64" gradientUnits="userSpaceOnUse">
<stop stop-color="#F65A75"/>
<stop offset="1" stop-color="#48179C"/>
</linearGradient>
</defs>
</svg>
