<svg width="64" height="64" viewBox="0 0 64 64" fill="none" xmlns="http://www.w3.org/2000/svg">
<rect width="64" height="64" rx="32" fill="url(#paint0_linear_142_3928)"/>
<path d="M18.5 47H45.5" stroke="white" stroke-width="2.25" stroke-linecap="round" stroke-linejoin="round"/>
<path d="M18.5 30.5C18.5 29.0855 18.5 28.379 18.9395 27.9395C19.379 27.5 20.0855 27.5 21.5 27.5C22.9145 27.5 23.621 27.5 24.0605 27.9395C24.5 28.379 24.5 29.0855 24.5 30.5V39.5C24.5 40.9145 24.5 41.621 24.0605 42.0605C23.621 42.5 22.9145 42.5 21.5 42.5C20.0855 42.5 19.379 42.5 18.9395 42.0605C18.5 41.621 18.5 40.9145 18.5 39.5V30.5ZM29 24.5C29 23.0855 29 22.379 29.4395 21.9395C29.879 21.5 30.5855 21.5 32 21.5C33.4145 21.5 34.121 21.5 34.5605 21.9395C35 22.379 35 23.0855 35 24.5V39.5C35 40.9145 35 41.621 34.5605 42.0605C34.121 42.5 33.4145 42.5 32 42.5C30.5855 42.5 29.879 42.5 29.4395 42.0605C29 41.621 29 40.9145 29 39.5V24.5ZM39.5 20C39.5 18.5855 39.5 17.879 39.9395 17.4395C40.379 17 41.0855 17 42.5 17C43.9145 17 44.621 17 45.0605 17.4395C45.5 17.879 45.5 18.5855 45.5 20V39.5C45.5 40.9145 45.5 41.621 45.0605 42.0605C44.621 42.5 43.9145 42.5 42.5 42.5C41.0855 42.5 40.379 42.5 39.9395 42.0605C39.5 41.621 39.5 40.9145 39.5 39.5V20Z" stroke="white" stroke-width="2.25"/>
<defs>
<linearGradient id="paint0_linear_142_3928" x1="64" y1="7.62939e-06" x2="7.62939e-06" y2="64" gradientUnits="userSpaceOnUse">
<stop stop-color="#F65A75"/>
<stop offset="1" stop-color="#48179C"/>
</linearGradient>
</defs>
</svg>
