<svg width="64" height="64" viewBox="0 0 64 64" fill="none" xmlns="http://www.w3.org/2000/svg">
<rect width="64" height="64" rx="32" fill="url(#paint0_linear_143_4010)"/>
<path d="M43.4291 46.5919C39.8062 46.5919 36.8582 43.6458 36.8582 40.0264C36.8582 36.4071 39.806 33.4609 43.4291 33.4609C47.0519 33.4609 50 36.407 50 40.0264C50 43.6458 47.0521 46.5919 43.4291 46.5919ZM43.4291 34.4523C40.3511 34.4523 37.85 36.9537 37.85 40.0282C37.85 43.1009 40.3513 45.6024 43.4291 45.6024C46.5088 45.6024 49.01 43.0993 49.01 40.0264C49.01 36.9536 46.5051 34.4505 43.4291 34.4505V34.4523Z" fill="white"/>
<path d="M43.4291 43.2457C42.0651 43.2457 40.9963 42.4301 40.9963 41.3895V41.3877C40.9963 41.1152 41.2178 40.8937 41.4921 40.8937C41.7645 40.8937 41.986 41.1152 41.986 41.3877C41.986 41.7973 42.5784 42.2543 43.4292 42.2543C44.2799 42.2543 44.8706 41.799 44.8706 41.3895C44.8706 40.9816 44.2782 40.5228 43.4292 40.5228C42.0651 40.5228 40.9964 39.7072 40.9964 38.6666C40.9964 37.6242 42.0634 36.8086 43.4292 36.8086C44.795 36.8086 45.8602 37.6242 45.8602 38.6666C45.8602 38.9391 45.6387 39.1606 45.3645 39.1606C45.092 39.1606 44.8705 38.9391 44.8705 38.6666C44.8705 38.257 44.2781 37.8 43.4274 37.8C42.5766 37.8 41.9842 38.257 41.9842 38.6666C41.9842 39.0762 42.5766 39.5332 43.4274 39.5332C44.7914 39.5332 45.8602 40.3488 45.8602 41.3895C45.8602 42.4301 44.7932 43.2457 43.4291 43.2457Z" fill="white"/>
<path d="M43.429 44.3334C43.1566 44.3334 42.9351 44.112 42.9351 43.8395V42.7496C42.9351 42.4754 43.1565 42.2539 43.429 42.2539C43.7032 42.2539 43.9247 42.4754 43.9247 42.7496V43.8395C43.9247 44.1119 43.7033 44.3334 43.429 44.3334Z" fill="white"/>
<path d="M43.429 37.8002C43.1566 37.8002 42.9351 37.577 42.9351 37.3045V36.2147C42.9351 35.9422 43.1565 35.7207 43.429 35.7207C43.7032 35.7207 43.9247 35.9422 43.9247 36.2147V37.3045C43.9247 37.577 43.7033 37.8002 43.429 37.8002Z" fill="white"/>
<path d="M20.5709 47.8909C16.948 47.8909 14 44.9466 14 41.3254C14 37.7061 16.9479 34.7617 20.5709 34.7617C24.1938 34.7617 27.1418 37.7061 27.1418 41.3272C27.14 44.9466 24.1957 47.8909 20.5709 47.8909ZM20.5709 35.7513C17.493 35.7513 14.9918 38.2526 14.9918 41.3272C14.9918 44.4018 17.4949 46.9014 20.5709 46.9014C23.6471 46.9014 26.15 44.4 26.15 41.3272C26.15 38.2528 23.6486 35.7513 20.5709 35.7513Z" fill="white"/>
<path d="M20.5709 44.5447C19.2069 44.5447 18.1399 43.7309 18.1399 42.6885C18.1399 42.4143 18.3614 42.1928 18.6356 42.1928C18.9081 42.1928 19.1296 42.4143 19.1296 42.6885C19.1296 43.0981 19.722 43.5551 20.5727 43.5551C21.4235 43.5551 22.0141 43.0998 22.0141 42.6885C22.0141 42.2754 21.4217 41.8219 20.571 41.8219C19.2069 41.8219 18.1382 41.0062 18.1382 39.9656C18.1382 38.925 19.2069 38.1094 20.571 38.1094C21.935 38.1094 23.0038 38.925 23.0038 39.9656C23.0038 40.2381 22.7823 40.4596 22.508 40.4596C22.2356 40.4596 22.0141 40.2381 22.0141 39.9656C22.0141 39.5561 21.4217 39.099 20.5709 39.099C19.7202 39.099 19.1295 39.556 19.1295 39.9656C19.1295 40.3752 19.7219 40.8322 20.5727 40.8322C21.9367 40.8322 23.0055 41.6479 23.0055 42.6885C23.0072 43.7291 21.9368 44.5447 20.5709 44.5447Z" fill="white"/>
<path d="M20.5709 45.6325C20.2967 45.6325 20.0752 45.411 20.0752 45.1385V44.0487C20.0752 43.7762 20.2967 43.5547 20.5709 43.5547C20.8434 43.5547 21.0649 43.7762 21.0649 44.0487V45.1385C21.0649 45.411 20.8434 45.6325 20.5709 45.6325Z" fill="white"/>
<path d="M20.5709 39.0991C20.2967 39.0991 20.0752 38.8776 20.0752 38.6033V37.5135V37.5153C20.0752 37.241 20.2967 37.0195 20.5709 37.0195C20.8434 37.0195 21.0649 37.241 21.0649 37.5153V38.6051V38.6033C21.0649 38.8776 20.8434 39.0991 20.5709 39.0991Z" fill="white"/>
<path d="M40.5639 25.5489C40.2915 25.5489 40.0699 25.3274 40.0699 25.0549V22.3795H37.6424C37.4174 22.3795 37.2206 22.2284 37.1643 22.0104C37.0307 21.5059 36.8303 21.0225 36.5684 20.5743C36.4542 20.3792 36.4858 20.1331 36.6458 19.9731L38.3614 18.2593L36.7969 16.6965L35.0795 18.4122C34.9213 18.5704 34.6752 18.602 34.4801 18.4895C34.0301 18.2258 33.545 18.0255 33.0405 17.8936C32.8243 17.8339 32.6749 17.6387 32.6749 17.4137V14.9897H30.46V17.4137C30.46 17.6387 30.3071 17.8356 30.0909 17.8936C29.5846 18.0255 29.1012 18.2258 28.6495 18.4895C28.4561 18.602 28.21 18.5704 28.0518 18.4122L26.3345 16.6965L24.7717 18.2593L26.4874 19.9731C26.6456 20.1331 26.679 20.3792 26.5647 20.5743C26.3028 21.0225 26.1024 21.5059 25.9706 22.0104C25.9126 22.2284 25.7157 22.3795 25.4907 22.3795H23.0632V25.0549C23.0632 25.3274 22.8417 25.5489 22.5675 25.5489C22.295 25.5489 22.0735 25.3274 22.0735 25.0549V21.8838C22.0735 21.6114 22.295 21.3899 22.5675 21.3899H25.1198C25.2288 21.0541 25.3641 20.7271 25.5241 20.4125L23.7206 18.609C23.6274 18.5176 23.5747 18.391 23.5747 18.2592C23.5747 18.1274 23.6274 18.0026 23.7206 17.9094L25.9864 15.6471H25.9847C26.178 15.4537 26.4909 15.4537 26.6843 15.6471L28.4896 17.4489C28.8042 17.2889 29.1329 17.1535 29.4687 17.0446V14.4957C29.4687 14.2215 29.6901 14 29.9644 14H33.1706C33.4431 14 33.6646 14.2215 33.6646 14.4957V17.0446C34.0021 17.1535 34.3291 17.2889 34.6437 17.4489L36.449 15.6454V15.6471C36.6423 15.4538 36.9552 15.4538 37.1486 15.6471L39.4144 17.9094C39.5076 18.0026 39.5586 18.1274 39.5586 18.2592C39.5586 18.391 39.5076 18.5176 39.4144 18.609L37.6092 20.4108V20.4125C37.7691 20.7272 37.9045 21.0541 38.0135 21.3899H40.5658C40.84 21.3899 41.0615 21.6114 41.0615 21.8838V25.0549C41.0615 25.185 41.0088 25.3116 40.9156 25.4047C40.8225 25.4979 40.6958 25.5489 40.5639 25.5489Z" fill="white"/>
<path d="M34.5996 25.5486C34.4273 25.5486 34.2673 25.459 34.1759 25.3113C34.0863 25.1636 34.081 24.9791 34.1601 24.8262C34.3763 24.4113 34.4888 23.9508 34.4871 23.4849C34.466 21.8853 33.1634 20.5986 31.5638 20.5986C29.9642 20.5986 28.6617 21.8853 28.6423 23.4849C28.6406 23.9508 28.7531 24.4113 28.9693 24.8262C29.0958 25.0687 29.0009 25.3675 28.7583 25.4941C28.5158 25.6207 28.2169 25.5258 28.0904 25.2832C27.4628 24.0703 27.512 22.6183 28.2222 21.4512C28.9306 20.284 30.198 19.5703 31.5638 19.5703C32.9296 19.5703 34.197 20.284 34.9072 21.4512C35.6173 22.6184 35.6665 24.0703 35.0372 25.2832C34.9529 25.4467 34.7841 25.5486 34.5996 25.5486Z" fill="white"/>
<path d="M28.968 49.5192C28.6955 49.5192 28.474 49.2977 28.474 49.0235V40.9132C28.474 39.1958 27.9062 37.5259 26.834 36.086L20.7711 29.2289C20.6428 29.083 20.6112 28.8756 20.6903 28.698C20.7711 28.5205 20.9469 28.4062 21.142 28.4062H41.9896C42.1847 28.4062 42.3605 28.5205 42.4414 28.698C42.5205 28.8756 42.4888 29.083 42.3605 29.2289L36.2995 36.086C35.2272 37.5257 34.6594 39.1956 34.6594 40.9132V47.192C34.6594 47.4029 34.5276 47.5893 34.329 47.6596L29.1328 49.4895C29.0801 49.5088 29.0242 49.5192 28.968 49.5192ZM22.2409 29.3957L27.5901 35.4459C27.5988 35.4565 27.6076 35.467 27.6147 35.4776C28.824 37.0948 29.4639 38.9738 29.4639 40.9145V48.3237L33.6704 46.8384V40.9128C33.6704 38.9721 34.3102 37.093 35.5196 35.4759C35.5284 35.4653 35.5354 35.4548 35.546 35.4442L40.8933 29.3958L22.2409 29.3957Z" fill="white"/>
<path d="M39.1106 32.6557H24.0252C23.7528 32.6557 23.5312 32.4342 23.5312 32.1617C23.5312 31.8875 23.7527 31.666 24.0252 31.666H39.1106C39.383 31.666 39.6045 31.8875 39.6045 32.1617C39.6045 32.4342 39.383 32.6557 39.1106 32.6557Z" fill="white"/>
<path d="M42.1741 29.3963H20.9589C19.753 29.3963 18.7774 28.4207 18.7756 27.2149V26.7438C18.7756 25.5397 19.753 24.5623 20.9589 24.5605H42.1741C43.38 24.5623 44.3556 25.5379 44.3573 26.7438V27.2149C44.3556 28.4207 43.3782 29.3963 42.1741 29.3963ZM20.9589 25.5502C20.2997 25.5502 19.7653 26.0846 19.7653 26.7438V27.2149C19.7653 27.874 20.2997 28.4084 20.9589 28.4084H42.1741C42.8333 28.4084 43.3659 27.874 43.3676 27.2149V26.7438C43.3676 26.0846 42.8333 25.5502 42.1741 25.5502H20.9589Z" fill="white"/>
<defs>
<linearGradient id="paint0_linear_143_4010" x1="64" y1="7.62939e-06" x2="7.62939e-06" y2="64" gradientUnits="userSpaceOnUse">
<stop stop-color="#F65A75"/>
<stop offset="1" stop-color="#48179C"/>
</linearGradient>
</defs>
</svg>
