<svg width="64" height="64" viewBox="0 0 64 64" fill="none" xmlns="http://www.w3.org/2000/svg">
<rect width="64" height="64" rx="32" fill="url(#paint0_linear_143_4013)"/>
<path d="M16.5683 20.7737C16.5609 20.7367 16.5565 20.7012 16.5565 20.6642C16.5565 20.6287 16.5609 20.5902 16.5683 20.5546C16.5757 20.5191 16.5861 20.4851 16.6009 20.451C16.6157 20.4155 16.632 20.3844 16.6527 20.3548C16.6719 20.3237 16.6956 20.2941 16.7223 20.269C16.7474 20.2423 16.7755 20.2201 16.8066 20.1994C16.8377 20.1801 16.8688 20.1624 16.9028 20.1476C16.9369 20.1342 16.9724 20.1239 17.0079 20.115C17.19 20.0795 17.3824 20.1387 17.5112 20.269C17.5364 20.2941 17.5601 20.3237 17.5808 20.3548C17.6 20.3844 17.6163 20.4155 17.6311 20.451C17.6459 20.4851 17.6563 20.5191 17.6637 20.5546C17.6711 20.5916 17.6755 20.6287 17.6755 20.6642C17.6755 20.7012 17.6711 20.7367 17.6637 20.7737C17.6563 20.8078 17.6459 20.8433 17.6311 20.8773C17.6163 20.9114 17.6 20.944 17.5808 20.9736C17.5601 21.0032 17.5364 21.0328 17.5112 21.0579C17.4076 21.163 17.264 21.2222 17.116 21.2222C17.0805 21.2222 17.0434 21.2178 17.0064 21.2104C16.9724 21.2045 16.9354 21.1926 16.9028 21.1793C16.8688 21.166 16.8362 21.1482 16.8066 21.1275C16.7755 21.1083 16.7474 21.0846 16.7222 21.0579C16.6956 21.0328 16.6719 21.0032 16.6527 20.9736C16.6319 20.944 16.6157 20.9114 16.6009 20.8773C16.5875 20.8433 16.5757 20.8078 16.5683 20.7737ZM19.6931 20.8773C19.7065 20.9114 19.7257 20.9439 19.7449 20.9736C19.7642 21.0046 19.7879 21.0328 19.8145 21.0579C19.9181 21.163 20.0617 21.2222 20.2098 21.2222C20.3563 21.2222 20.4999 21.1615 20.6035 21.0579C20.6302 21.0328 20.6538 21.0046 20.6731 20.9736C20.6923 20.944 20.7101 20.9114 20.7249 20.8773C20.7382 20.8418 20.7501 20.8078 20.7575 20.7722C20.7649 20.7352 20.7693 20.6997 20.7693 20.6627C20.7693 20.6272 20.7649 20.5887 20.7575 20.5532C20.7501 20.5191 20.7382 20.4851 20.7249 20.451C20.7101 20.4155 20.6923 20.3844 20.6731 20.3548C20.6538 20.3237 20.6302 20.2941 20.6035 20.269C20.4999 20.1653 20.3563 20.1061 20.2098 20.1061C20.0617 20.1061 19.9181 20.1653 19.8145 20.269C19.7879 20.2941 19.7642 20.3237 19.7449 20.3548C19.7257 20.3844 19.7065 20.4155 19.6931 20.451C19.6798 20.4851 19.668 20.5191 19.6606 20.5546C19.6532 20.5917 19.6487 20.6287 19.6487 20.6642C19.6487 20.7012 19.6532 20.7367 19.6606 20.7737C19.668 20.8078 19.6798 20.8433 19.6931 20.8773ZM19.2979 32.2533C19.2816 31.9454 19.5185 31.6819 19.8249 31.6671C19.9018 31.6627 27.3727 31.2156 34.0812 26.5172L33.2137 25.6113C33.0716 25.4633 33.0228 25.2472 33.0864 25.0518C33.1501 24.8564 33.3174 24.7113 33.5201 24.6758L36.6583 24.1207C36.8418 24.0881 37.0298 24.1488 37.1586 24.2835C37.2874 24.4182 37.3407 24.6077 37.3007 24.7898L36.6124 27.9027C36.568 28.1041 36.4155 28.2639 36.2171 28.3187C36.1668 28.332 36.1165 28.3394 36.0662 28.3394C35.9167 28.3394 35.7701 28.2787 35.6635 28.1677L34.8627 27.3314C27.8537 32.3138 20.2111 32.764 19.8841 32.7818H19.8545C19.5599 32.7818 19.3127 32.5508 19.2979 32.2533ZM34.743 25.5937L35.7481 26.6432L36.0308 25.3657L34.743 25.5937ZM40.6284 40.7531C38.5471 40.7531 36.8552 39.0596 36.8552 36.9799C36.8552 34.8986 38.5487 33.2067 40.6284 33.2067C42.7096 33.2067 44.4016 34.9002 44.4016 36.9799C44.4016 39.0597 42.7081 40.7531 40.6284 40.7531ZM43.2855 36.9784C43.2855 35.513 42.0939 34.3214 40.6284 34.3214C39.1629 34.3214 37.9713 35.513 37.9713 36.9784C37.9713 38.4439 39.1629 39.6355 40.6284 39.6355C42.0939 39.6355 43.2855 38.4439 43.2855 36.9784ZM50 44.5634C50 45.0415 49.8135 45.49 49.476 45.8275C49.1385 46.165 48.69 46.3515 48.2133 46.3515C47.7352 46.3515 47.2867 46.165 46.9492 45.8275L43.7563 42.6346C42.8282 43.1497 41.7624 43.4443 40.6285 43.4443C38.6553 43.4443 36.8864 42.5547 35.6992 41.1558H15.9747C14.8867 41.1558 14 40.2692 14 39.1812V19.9747C14 18.8852 14.8867 18 15.9747 18H42.8885C43.978 18 44.8632 18.8852 44.8632 19.9747V32.1024C46.228 33.2881 47.0925 35.0334 47.0925 36.9783C47.0925 38.1122 46.7979 39.178 46.2828 40.1061L49.4757 43.2991C49.8132 43.6365 50 44.0868 50 44.5634ZM15.1161 19.9747V21.9302H43.7474V19.9747C43.7474 19.501 43.3625 19.1162 42.8888 19.1162H15.975C15.5013 19.1162 15.1161 19.501 15.1161 19.9747ZM15.9747 40.0395H19.3793V35.3088C19.3793 35.0009 19.6294 34.7507 19.9373 34.7507H23.2575C23.5654 34.7507 23.8156 35.0009 23.8156 35.3088V40.0395H25.4942V33.3845C25.4942 33.0766 25.7444 32.8264 26.0523 32.8264H29.3725C29.6804 32.8264 29.9306 33.0766 29.9306 33.3845V40.0395H31.6092V31.013C31.6092 30.7052 31.8594 30.455 32.1673 30.455H35.4875C35.7954 30.455 36.0456 30.7051 36.0456 31.013V32.4238C37.218 31.2455 38.8388 30.5142 40.6285 30.5142C40.7544 30.5142 40.8787 30.5186 41.0016 30.526C41.0504 30.529 41.0978 30.5334 41.1466 30.5364C41.2192 30.5423 41.2902 30.5483 41.3613 30.5571C41.4234 30.5645 41.4856 30.5719 41.5493 30.5808C41.5996 30.5882 41.6499 30.5956 41.7003 30.6045C41.7758 30.6163 41.8498 30.6297 41.9253 30.6445C41.9341 30.6459 41.9445 30.6489 41.9534 30.6504C42.2568 30.7126 42.5529 30.7984 42.843 30.9035C42.8475 30.905 42.8504 30.9065 42.8549 30.908C43.1613 31.0205 43.4618 31.1537 43.749 31.3135L43.7475 23.0465H15.1162V39.1812C15.1162 39.6549 15.501 40.0395 15.9747 40.0395ZM22.6979 40.0395V35.8666H20.4938V40.0395H22.6979ZM28.8145 40.0395V33.9423H26.6104V40.0395H28.8145ZM34.9295 40.0395V40.0336C34.8851 39.9522 34.8452 39.8693 34.8052 39.7849C34.8037 39.7835 34.8022 39.7805 34.8008 39.7775C34.7593 39.6902 34.7193 39.6029 34.6823 39.5155C34.6764 39.5007 34.6705 39.4874 34.6646 39.4726C34.6276 39.3838 34.592 39.2935 34.558 39.2032C34.5565 39.1988 34.5536 39.1928 34.5521 39.1869C34.4529 38.9145 34.373 38.6363 34.3108 38.3521C34.3049 38.321 34.2975 38.2884 34.2915 38.2573C34.2767 38.1878 34.2649 38.1182 34.2531 38.0471C34.2442 37.9938 34.2353 37.9391 34.2279 37.8858C34.2205 37.8251 34.2116 37.7659 34.2057 37.7052C34.1983 37.6341 34.1909 37.5616 34.1865 37.4891C34.182 37.4417 34.1776 37.3943 34.1746 37.347C34.1672 37.2256 34.1628 37.1027 34.1628 36.9784C34.1628 36.8526 34.1672 36.7282 34.1746 36.6054C34.1761 36.5743 34.179 36.5432 34.182 36.5121C34.1894 36.4159 34.1983 36.3197 34.2087 36.2249C34.2116 36.1953 34.2161 36.1642 34.2205 36.1346C34.2338 36.0325 34.2486 35.9318 34.2679 35.8312C34.2723 35.8105 34.2753 35.7883 34.2797 35.7675C34.3508 35.393 34.4544 35.0289 34.5876 34.6795C34.598 34.6514 34.6098 34.6248 34.6202 34.5981C34.6542 34.5137 34.6897 34.4294 34.7267 34.3465C34.743 34.311 34.7593 34.2739 34.7756 34.2384C34.8126 34.1615 34.8496 34.0845 34.8896 34.009C34.9044 33.9809 34.9162 33.9527 34.931 33.9261L34.9295 31.571H32.7254V40.0397L34.9295 40.0395ZM40.6285 42.328C41.7239 42.328 42.7438 41.9965 43.592 41.4295C43.6157 41.4132 43.6394 41.397 43.6645 41.3807C43.7163 41.3451 43.7681 41.3081 43.8185 41.2711C43.8288 41.2608 43.8392 41.2519 43.851 41.2445C44.2433 40.9484 44.5926 40.5991 44.8887 40.2083C44.8991 40.195 44.9094 40.1817 44.9198 40.1668C44.9553 40.1195 44.9894 40.0706 45.0234 40.0218C45.0426 39.9937 45.0619 39.967 45.0797 39.9389C45.6466 39.0907 45.9767 38.0723 45.9767 36.9784C45.9767 35.2287 45.1329 33.6729 43.8303 32.6974C43.8288 32.6959 43.8259 32.6945 43.8244 32.693C43.139 32.1808 42.3279 31.8285 41.4456 31.6923C41.4427 31.6923 41.4382 31.6909 41.4338 31.6909C41.3568 31.679 41.2798 31.6701 41.2014 31.6612C41.1851 31.6598 41.1673 31.6583 41.1511 31.6553C41.0844 31.6494 41.0164 31.645 40.9468 31.6405C40.9275 31.639 40.9068 31.6376 40.8861 31.6361C40.8002 31.6331 40.7144 31.6302 40.6285 31.6302C38.6183 31.6302 36.8642 32.7463 35.9508 34.3893C35.9094 34.4634 35.8709 34.5374 35.8339 34.6129C35.825 34.6277 35.8176 34.6425 35.8102 34.6573C35.7643 34.752 35.7229 34.8482 35.6829 34.9444C35.674 34.9637 35.6666 34.9844 35.6592 35.0051C35.6252 35.088 35.5941 35.1724 35.5659 35.2568C35.56 35.2745 35.5526 35.2923 35.5467 35.3101C35.4786 35.5188 35.4224 35.7305 35.3809 35.9466C35.3794 35.9525 35.378 35.9599 35.3765 35.9658C35.3587 36.062 35.3424 36.1597 35.3291 36.2574C35.3261 36.2811 35.3232 36.3063 35.3202 36.33C35.3099 36.4129 35.3025 36.4958 35.2965 36.5801C35.2951 36.6068 35.2921 36.6334 35.2906 36.6601C35.2832 36.7652 35.2788 36.8717 35.2788 36.9783C35.2788 37.0849 35.2832 37.1915 35.2891 37.2966V37.2981C35.2906 37.3247 35.2936 37.3513 35.2951 37.378C35.301 37.4609 35.3099 37.5453 35.3187 37.6282C35.3217 37.6518 35.3247 37.6755 35.3276 37.7007C35.3424 37.7984 35.3587 37.8946 35.3765 37.9923C35.378 37.9982 35.378 38.0041 35.3794 38.0101C35.4224 38.2262 35.4786 38.4393 35.5482 38.6481L35.5659 38.7013C35.5956 38.7857 35.6266 38.8701 35.6592 38.9545C35.6666 38.9737 35.674 38.9944 35.6829 39.0137C35.7229 39.1099 35.7658 39.2061 35.8102 39.3009C35.8176 39.3157 35.825 39.329 35.8324 39.3438C35.8694 39.4193 35.9094 39.4948 35.9493 39.5673C36.0248 39.7035 36.1048 39.8352 36.1906 39.9625C36.1936 39.967 36.1951 39.9685 36.1965 39.9714C36.2409 40.038 36.2883 40.1032 36.3357 40.1668C36.3401 40.1727 36.3446 40.1787 36.349 40.1846C37.326 41.4842 38.8803 42.328 40.6285 42.328ZM48.8839 44.5632C48.8839 44.3841 48.8143 44.2154 48.687 44.0881L45.648 41.0506C45.3653 41.3999 45.0485 41.7167 44.6992 41.9994L47.7381 45.0384C47.8654 45.1642 48.0327 45.2338 48.2133 45.2338C48.3924 45.2338 48.5612 45.1642 48.687 45.0369C48.8143 44.9111 48.8839 44.7423 48.8839 44.5632Z" fill="white"/>
<defs>
<linearGradient id="paint0_linear_143_4013" x1="64" y1="7.62939e-06" x2="7.62939e-06" y2="64" gradientUnits="userSpaceOnUse">
<stop stop-color="#F65A75"/>
<stop offset="1" stop-color="#48179C"/>
</linearGradient>
</defs>
</svg>
