<svg width="64" height="64" viewBox="0 0 64 64" fill="none" xmlns="http://www.w3.org/2000/svg">
<rect width="64" height="64" rx="32" fill="url(#paint0_linear_142_3907)"/>
<g clip-path="url(#clip0_142_3907)">
<path fill-rule="evenodd" clip-rule="evenodd" d="M20.975 39.2C21.0798 39.0603 21.2157 38.9469 21.3719 38.8688C21.5281 38.7907 21.7003 38.75 21.875 38.75H27.5C27.7984 38.75 28.0845 38.8685 28.2955 39.0795C28.5065 39.2905 28.625 39.5766 28.625 39.875C28.625 40.1734 28.5065 40.4595 28.2955 40.6705C28.0845 40.8815 27.7984 41 27.5 41H22.4375L17.375 47.75H46.625L41.5625 41H36.5C36.2016 41 35.9155 40.8815 35.7045 40.6705C35.4935 40.4595 35.375 40.1734 35.375 39.875C35.375 39.5766 35.4935 39.2905 35.7045 39.0795C35.9155 38.8685 36.2016 38.75 36.5 38.75H42.125C42.2997 38.75 42.4719 38.7907 42.6281 38.8688C42.7843 38.9469 42.9202 39.0603 43.025 39.2L49.775 48.2C49.9004 48.3671 49.9767 48.5659 49.9955 48.774C50.0142 48.9821 49.9747 49.1912 49.8812 49.3781C49.7878 49.565 49.6442 49.7221 49.4664 49.832C49.2887 49.9418 49.0839 50 48.875 50H15.125C14.9161 50 14.7113 49.9418 14.5336 49.832C14.3558 49.7221 14.2122 49.565 14.1188 49.3781C14.0253 49.1912 13.9858 48.9821 14.0045 48.774C14.0233 48.5659 14.0996 48.3671 14.225 48.2L20.975 39.2Z" fill="white"/>
<path fill-rule="evenodd" clip-rule="evenodd" d="M32 16.2492C31.1136 16.2492 30.2358 16.4238 29.4169 16.763C28.5979 17.1022 27.8538 17.5994 27.227 18.2262C26.6002 18.853 26.103 19.5971 25.7638 20.4161C25.4246 21.235 25.25 22.1127 25.25 22.9992C25.25 23.8856 25.4246 24.7633 25.7638 25.5823C26.103 26.4012 26.6002 27.1453 27.227 27.7721C27.8538 28.3989 28.5979 28.8961 29.4169 29.2354C30.2358 29.5746 31.1136 29.7492 32 29.7492C33.7902 29.7492 35.5071 29.038 36.773 27.7721C38.0388 26.5063 38.75 24.7894 38.75 22.9992C38.75 21.209 38.0388 19.4921 36.773 18.2262C35.5071 16.9603 33.7902 16.2492 32 16.2492ZM23 22.9992C23.0002 21.2672 23.5001 19.572 24.4398 18.1171C25.3794 16.6622 26.719 15.5093 28.2976 14.7968C29.8763 14.0843 31.627 13.8425 33.3397 14.1003C35.0524 14.3581 36.6543 15.1046 37.9533 16.2503C39.2522 17.3959 40.193 18.8921 40.6627 20.5592C41.1324 22.2262 41.1111 23.9935 40.6014 25.6487C40.0917 27.304 39.1151 28.7771 37.789 29.8911C36.4628 31.0052 34.8434 31.7129 33.125 31.9294V44.3742C33.125 44.6725 33.0065 44.9587 32.7955 45.1697C32.5845 45.3806 32.2984 45.4992 32 45.4992C31.7016 45.4992 31.4155 45.3806 31.2045 45.1697C30.9935 44.9587 30.875 44.6725 30.875 44.3742V31.9317C28.6992 31.6575 26.6983 30.5984 25.2482 28.9532C23.7982 27.308 22.9987 25.1922 23 22.9992Z" fill="white"/>
</g>
<defs>
<linearGradient id="paint0_linear_142_3907" x1="64" y1="7.62939e-06" x2="7.62939e-06" y2="64" gradientUnits="userSpaceOnUse">
<stop stop-color="#F65A75"/>
<stop offset="1" stop-color="#48179C"/>
</linearGradient>
<clipPath id="clip0_142_3907">
<rect width="36" height="36" fill="white" transform="translate(14 14)"/>
</clipPath>
</defs>
</svg>
