<svg width="64" height="64" viewBox="0 0 64 64" fill="none" xmlns="http://www.w3.org/2000/svg">
<rect width="64" height="64" rx="32" fill="url(#paint0_linear_143_4018)"/>
<path fill-rule="evenodd" clip-rule="evenodd" d="M36.5521 50H19.12C17.9517 50 17 49.0483 17 47.88V16.12C17 14.9517 17.9501 14 19.12 14H36.5521C37.7204 14 38.6721 14.9517 38.6721 16.12V20.8972C38.6721 21.1246 38.488 21.3088 38.2605 21.3088C38.033 21.3088 37.8489 21.1247 37.8489 20.8972V16.12C37.8489 15.4051 37.267 14.8248 36.5537 14.8248H19.1216C18.4066 14.8248 17.8264 15.4067 17.8264 16.12V47.88C17.8264 48.5949 18.4082 49.1752 19.1216 49.1752H36.5537C37.2686 49.1752 37.8489 48.5949 37.8489 47.88V39.8148C37.8489 39.5873 38.033 39.4032 38.2605 39.4032C38.488 39.4032 38.6721 39.5873 38.6721 39.8148V47.88C38.6721 49.0483 37.722 50 36.5521 50Z" fill="white"/>
<path fill-rule="evenodd" clip-rule="evenodd" d="M38.2604 19.2217H17.4131C17.1856 19.2217 17.0015 19.0376 17.0015 18.8101C17.0015 18.5826 17.1856 18.3984 17.4131 18.3984H38.2604C38.4878 18.3984 38.672 18.5826 38.672 18.8101C38.672 19.0376 38.4879 19.2217 38.2604 19.2217Z" fill="white"/>
<path fill-rule="evenodd" clip-rule="evenodd" d="M38.2604 45.6026H17.4131C17.1856 45.6026 17.0015 45.4184 17.0015 45.1909C17.0015 44.9634 17.1856 44.7793 17.4131 44.7793H38.2604C38.4878 44.7793 38.672 44.9634 38.672 45.1909C38.672 45.4184 38.4879 45.6026 38.2604 45.6026Z" fill="white"/>
<path fill-rule="evenodd" clip-rule="evenodd" d="M45.7349 40.2271H31.9038C31.6764 40.2271 31.4922 40.043 31.4922 39.8155C31.4922 39.5865 31.6763 39.4038 31.9038 39.4038H45.7349C46.4282 39.4038 46.9915 38.839 46.9915 38.1473V22.5676C46.9915 21.8744 46.4282 21.3111 45.7349 21.3111H26.6363C25.943 21.3111 25.3797 21.8744 25.3797 22.5676V38.1473C25.3797 38.8406 25.943 39.4054 26.6363 39.4054H27.7148C27.9423 39.4054 28.1265 39.5895 28.1265 39.817C28.1265 40.0445 27.9423 40.2287 27.7148 40.2287H26.6363C25.4881 40.2287 24.5549 39.2955 24.5549 38.1473V22.5676C24.5549 21.4195 25.4881 20.4863 26.6363 20.4863H45.7349C46.8831 20.4863 47.8162 21.4195 47.8162 22.5676V38.1473C47.8162 39.2955 46.8831 40.2287 45.7349 40.2287V40.2271Z" fill="white"/>
<path fill-rule="evenodd" clip-rule="evenodd" d="M27.7146 43.5146C27.6527 43.5146 27.5924 43.5007 27.5351 43.4729C27.3927 43.4048 27.303 43.2609 27.303 43.1015V39.8131C27.303 39.5857 27.4871 39.4015 27.7146 39.4015C27.9421 39.4015 28.1263 39.5856 28.1263 39.8131V42.2535L31.6482 39.4882C31.8277 39.3473 32.0862 39.3798 32.227 39.5578C32.3678 39.7373 32.3368 39.9957 32.1573 40.1365L27.9685 43.4249C27.8942 43.4821 27.8044 43.5131 27.7131 43.5131L27.7146 43.5146Z" fill="white"/>
<path fill-rule="evenodd" clip-rule="evenodd" d="M34.932 24.8752L35.3653 25.3827C35.4365 25.4663 35.4705 25.5731 35.4628 25.6814L35.4117 26.3468L36.0292 26.0915C36.1297 26.0497 36.2427 26.0497 36.3433 26.0915L36.9607 26.3468L36.9097 25.6814C36.9019 25.5731 36.936 25.4648 37.0071 25.3827L37.4405 24.8752L36.7921 24.7189C36.6869 24.6926 36.594 24.6261 36.5383 24.5332L36.1886 23.9653L35.8389 24.5332C35.7816 24.6261 35.6903 24.6926 35.5851 24.7189L34.9367 24.8752H34.932ZM34.9475 27.3976C34.8624 27.3976 34.7772 27.3712 34.7045 27.3186C34.5885 27.2335 34.525 27.0958 34.5358 26.9534L34.6256 25.7897L33.8673 24.9015C33.7745 24.7916 33.7451 24.6431 33.7884 24.5069C33.8333 24.3707 33.9447 24.2671 34.084 24.233L35.2198 23.9591L35.8311 22.9641C35.9053 22.8419 36.0384 22.7676 36.1823 22.7676C36.3262 22.7676 36.4578 22.8419 36.5336 22.9641L37.1449 23.9591L38.2807 24.233C38.42 24.2671 38.5314 24.3707 38.5763 24.5069C38.6211 24.6431 38.5902 24.7932 38.4973 24.9015L37.7391 25.7897L37.8288 26.9534C37.8397 27.0958 37.7762 27.2351 37.6602 27.3186C37.5441 27.4037 37.3924 27.4208 37.2609 27.3666L36.1808 26.9209L35.1006 27.3666C35.0496 27.3883 34.997 27.3976 34.9428 27.3976L34.9475 27.3976Z" fill="white"/>
<path fill-rule="evenodd" clip-rule="evenodd" d="M28.7528 28.5931L29.1861 29.1007C29.2573 29.1842 29.2913 29.291 29.2836 29.4009L29.2325 30.0663L29.85 29.811C29.9505 29.7692 30.0635 29.7692 30.1641 29.811L30.7815 30.0663L30.7305 29.4009C30.7227 29.2926 30.7568 29.1842 30.8279 29.1022L31.2613 28.5947L30.6129 28.4384C30.5077 28.4121 30.4148 28.3455 30.3591 28.2542L30.0094 27.6848L29.6597 28.2542C29.6024 28.3471 29.5111 28.4136 29.4059 28.4384L28.7575 28.5947L28.7528 28.5931ZM28.7683 31.1139C28.6832 31.1139 28.598 31.0876 28.5253 31.035C28.4093 30.9515 28.3458 30.8122 28.3566 30.6698L28.4464 29.5061L27.6881 28.6164C27.5953 28.508 27.5659 28.3579 27.6092 28.2218C27.6541 28.0856 27.7655 27.9819 27.9048 27.9479L29.0406 27.674L29.6519 26.6789C29.7261 26.5567 29.8592 26.4824 30.0031 26.4824C30.147 26.4824 30.2786 26.5567 30.3544 26.6789L30.9657 27.674L32.1015 27.9479C32.2408 27.9819 32.3522 28.084 32.3971 28.2218C32.4419 28.3579 32.411 28.508 32.3181 28.6164L31.5599 29.5061L31.6496 30.6698C31.6605 30.8122 31.597 30.9515 31.481 31.035C31.3649 31.1201 31.2132 31.1372 31.0817 31.083L30.0016 30.6373L28.9214 31.083C28.8704 31.1031 28.8178 31.1139 28.7636 31.1139L28.7683 31.1139Z" fill="white"/>
<path fill-rule="evenodd" clip-rule="evenodd" d="M42.3661 29.78C42.4203 29.78 42.4729 29.7909 42.524 29.811L43.1414 30.0663L43.0903 29.4009C43.0826 29.2926 43.1166 29.1843 43.1878 29.1007L43.6211 28.5932L42.9727 28.4369C42.8675 28.4106 42.7747 28.344 42.719 28.2527L42.3692 27.6833L42.0195 28.2527C41.9623 28.3456 41.871 28.4121 41.7657 28.4369L41.1174 28.5932L41.5507 29.1007C41.6219 29.1843 41.6559 29.291 41.6482 29.3994L41.5971 30.0648L42.2145 29.8094C42.2656 29.7893 42.3182 29.7785 42.3724 29.7785L42.3661 29.78ZM43.6025 31.1139C43.5499 31.1139 43.4958 31.1047 43.4447 31.083L42.3646 30.6373L41.2844 31.083C41.1513 31.1372 41.0012 31.1201 40.8852 31.035C40.7691 30.9515 40.7057 30.8122 40.7165 30.6698L40.8063 29.5061L40.048 28.6164C39.9551 28.508 39.9257 28.3579 39.9691 28.2218C40.014 28.0856 40.1254 27.9819 40.2646 27.9479L41.4005 27.674L42.0117 26.6789C42.086 26.5567 42.2191 26.4824 42.363 26.4824C42.5069 26.4824 42.64 26.5567 42.7143 26.6789L43.3255 27.674L44.4614 27.9479C44.6006 27.9819 44.712 28.084 44.7569 28.2218C44.8018 28.3579 44.7709 28.508 44.678 28.6164L43.9197 29.5061L44.0095 30.6698C44.0203 30.8122 43.9569 30.9515 43.8408 31.035C43.7696 31.0876 43.6845 31.1139 43.5979 31.1139L43.6025 31.1139Z" fill="white"/>
<path fill-rule="evenodd" clip-rule="evenodd" d="M33.2825 37.1198H39.0868V35.6327C39.0868 34.6068 37.626 34.0698 36.1838 34.0698C34.7416 34.0698 33.2808 34.6068 33.2808 35.6327V37.1198H33.2825ZM39.5 37.9446H32.8709C32.6434 37.9446 32.4592 37.7604 32.4592 37.5329V35.6342C32.4592 33.9939 34.3904 33.248 36.1855 33.248C37.9805 33.248 39.9117 33.9939 39.9117 35.6342V37.5329C39.9117 37.762 39.7275 37.9446 39.5 37.9446Z" fill="white"/>
<path fill-rule="evenodd" clip-rule="evenodd" d="M36.1853 29.0611C35.3683 29.0611 34.7044 29.725 34.7044 30.542C34.7044 31.3591 35.3698 32.0229 36.1853 32.0229C37.0024 32.0229 37.6663 31.3575 37.6663 30.542C37.6663 29.725 37.0024 29.0611 36.1853 29.0611ZM36.1853 32.8477C34.9133 32.8477 33.8796 31.814 33.8796 30.542C33.8796 29.27 34.9133 28.2363 36.1853 28.2363C37.4573 28.2363 38.491 29.27 38.491 30.542C38.491 31.814 37.4573 32.8477 36.1853 32.8477Z" fill="white"/>
<defs>
<linearGradient id="paint0_linear_143_4018" x1="64" y1="7.62939e-06" x2="7.62939e-06" y2="64" gradientUnits="userSpaceOnUse">
<stop stop-color="#F65A75"/>
<stop offset="1" stop-color="#48179C"/>
</linearGradient>
</defs>
</svg>
