<svg width="64" height="64" viewBox="0 0 64 64" fill="none" xmlns="http://www.w3.org/2000/svg">
<rect width="64" height="64" rx="32" fill="url(#paint0_linear_142_3914)"/>
<path fill-rule="evenodd" clip-rule="evenodd" d="M32 15.875C31.0925 15.875 30.257 16.1 29.3435 16.478C28.46 16.844 27.434 17.3825 26.1575 18.053L23.0555 19.6805C21.488 20.5025 20.2355 21.161 19.265 21.8075C18.263 22.478 17.489 23.183 16.9265 24.1385C16.3655 25.091 16.1135 26.123 15.992 27.3515C15.875 28.544 15.875 30.0095 15.875 31.8545V32.1455C15.875 33.9905 15.875 35.456 15.992 36.6485C16.1135 37.8785 16.367 38.909 16.9265 39.8615C17.489 40.817 18.2615 41.522 19.2665 42.1925C20.234 42.839 21.488 43.4975 23.0555 44.3195L26.1575 45.947C27.434 46.6175 28.46 47.156 29.3435 47.522C30.2585 47.9 31.0925 48.125 32 48.125C32.9075 48.125 33.743 47.9 34.6565 47.522C35.54 47.156 36.566 46.6175 37.8425 45.947L40.9445 44.321C42.512 43.4975 43.7645 42.839 44.7335 42.1925C45.7385 41.522 46.511 40.817 47.0735 39.8615C47.6345 38.909 47.8865 37.877 48.008 36.6485C48.125 35.456 48.125 33.9905 48.125 32.147V31.853C48.125 30.0095 48.125 28.544 48.008 27.3515C47.8865 26.1215 47.633 25.091 47.0735 24.1385C46.511 23.183 45.7385 22.478 44.7335 21.8075C43.766 21.161 42.512 20.5025 40.9445 19.6805L37.8425 18.053C36.566 17.3825 35.54 16.844 34.6565 16.478C33.7415 16.1 32.9075 15.875 32 15.875ZM27.155 20.069C28.49 19.3685 29.426 18.8795 30.203 18.5585C30.959 18.245 31.4915 18.125 32 18.125C32.51 18.125 33.041 18.245 33.797 18.5585C34.574 18.8795 35.5085 19.3685 36.8435 20.069L39.8435 21.644C41.4785 22.5005 42.626 23.105 43.4855 23.678C43.9085 23.9615 44.24 24.224 44.51 24.488L39.5135 26.9855L26.7635 20.2745L27.155 20.069ZM24.4175 21.506L24.1565 21.644C22.5215 22.5005 21.374 23.105 20.516 23.678C20.1502 23.9157 19.8072 24.1869 19.4915 24.488L32 30.743L37.0355 28.223L24.7265 21.746C24.6111 21.6834 24.5067 21.6024 24.4175 21.506ZM18.407 26.4605C18.332 26.7815 18.2735 27.146 18.2315 27.5705C18.1265 28.6415 18.125 29.996 18.125 31.9115V32.087C18.125 34.004 18.125 35.3585 18.2315 36.428C18.335 37.4735 18.5315 38.15 18.866 38.72C19.199 39.2855 19.6805 39.764 20.516 40.322C21.374 40.895 22.5215 41.4995 24.1565 42.356L27.1565 43.931C28.4915 44.6315 29.426 45.1205 30.203 45.4415C30.447 45.5425 30.671 45.625 30.875 45.689V32.6945L18.407 26.4605ZM33.125 45.6875C33.329 45.6245 33.553 45.5425 33.797 45.4415C34.574 45.1205 35.5085 44.6315 36.8435 43.931L39.8435 42.356C41.4785 41.498 42.626 40.895 43.4855 40.322C44.3195 39.764 44.801 39.2855 45.1355 38.72C45.47 38.15 45.665 37.475 45.7685 36.428C45.8735 35.3585 45.875 34.004 45.875 32.0885V31.913C45.875 29.996 45.875 28.6415 45.7685 27.572C45.7332 27.1987 45.6746 26.828 45.593 26.462L40.625 28.9445V33.5C40.625 33.7984 40.5065 34.0845 40.2955 34.2955C40.0845 34.5065 39.7984 34.625 39.5 34.625C39.2016 34.625 38.9155 34.5065 38.7045 34.2955C38.4935 34.0845 38.375 33.7984 38.375 33.5V30.071L33.125 32.696V45.6875Z" fill="white"/>
<defs>
<linearGradient id="paint0_linear_142_3914" x1="64" y1="7.62939e-06" x2="7.62939e-06" y2="64" gradientUnits="userSpaceOnUse">
<stop stop-color="#F65A75"/>
<stop offset="1" stop-color="#48179C"/>
</linearGradient>
</defs>
</svg>
