<svg width="64" height="64" viewBox="0 0 64 64" fill="none" xmlns="http://www.w3.org/2000/svg">
<rect width="64" height="64" rx="32" fill="url(#paint0_linear_142_3949)"/>
<path d="M32 36.5C34.4853 36.5 36.5 34.4853 36.5 32C36.5 29.5147 34.4853 27.5 32 27.5C29.5147 27.5 27.5 29.5147 27.5 32C27.5 34.4853 29.5147 36.5 32 36.5Z" stroke="white" stroke-width="2.25"/>
<path d="M34.6477 17.228C34.0972 17 33.3982 17 32.0002 17C30.6022 17 29.9032 17 29.3527 17.228C28.9885 17.3788 28.6575 17.5998 28.3788 17.8786C28.1 18.1573 27.879 18.4883 27.7282 18.8525C27.5902 19.187 27.5347 19.5785 27.5137 20.147C27.5039 20.5579 27.3901 20.9596 27.1829 21.3145C26.9756 21.6695 26.6817 21.966 26.3287 22.1765C25.9699 22.3772 25.5661 22.4835 25.155 22.4856C24.7439 22.4877 24.339 22.3855 23.9782 22.1885C23.4742 21.9215 23.1097 21.7745 22.7482 21.7265C21.9597 21.6228 21.1622 21.8365 20.5312 22.3205C20.0602 22.685 19.7092 23.2895 19.0102 24.5C18.3112 25.7105 17.9602 26.315 17.8837 26.9075C17.8321 27.2982 17.8581 27.6952 17.96 28.0758C18.0619 28.4565 18.2378 28.8133 18.4777 29.126C18.6997 29.414 19.0102 29.6555 19.4917 29.9585C20.2012 30.404 20.6572 31.163 20.6572 32C20.6572 32.837 20.2012 33.596 19.4917 34.04C19.0102 34.3445 18.6982 34.586 18.4777 34.874C18.2378 35.1867 18.0619 35.5435 17.96 35.9242C17.8581 36.3048 17.8321 36.7018 17.8837 37.0925C17.9617 37.6835 18.3112 38.2895 19.0087 39.5C19.7092 40.7105 20.0587 41.315 20.5312 41.6795C20.8438 41.9194 21.2007 42.0953 21.5813 42.1972C21.962 42.2991 22.359 42.325 22.7497 42.2735C23.1097 42.2255 23.4742 42.0785 23.9782 41.8115C24.339 41.6145 24.7439 41.5123 25.155 41.5144C25.5661 41.5165 25.9699 41.6228 26.3287 41.8235C27.0532 42.2435 27.4837 43.016 27.5137 43.853C27.5347 44.423 27.5887 44.813 27.7282 45.1475C27.879 45.5117 28.1 45.8427 28.3788 46.1214C28.6575 46.4002 28.9885 46.6212 29.3527 46.772C29.9032 47 30.6022 47 32.0002 47C33.3982 47 34.0972 47 34.6477 46.772C35.0119 46.6212 35.3429 46.4002 35.6216 46.1214C35.9003 45.8427 36.1214 45.5117 36.2722 45.1475C36.4102 44.813 36.4657 44.423 36.4867 43.853C36.5167 43.016 36.9472 42.242 37.6717 41.8235C38.0305 41.6228 38.4343 41.5165 38.8454 41.5144C39.2565 41.5123 39.6614 41.6145 40.0222 41.8115C40.5262 42.0785 40.8907 42.2255 41.2507 42.2735C41.6414 42.325 42.0384 42.2991 42.419 42.1972C42.7997 42.0953 43.1565 41.9194 43.4692 41.6795C43.9417 41.3165 44.2912 40.7105 44.9902 39.5C45.6892 38.2895 46.0402 37.685 46.1167 37.0925C46.1682 36.7018 46.1423 36.3048 46.0404 35.9242C45.9385 35.5435 45.7625 35.1867 45.5227 34.874C45.3007 34.586 44.9902 34.3445 44.5087 34.0415C44.1576 33.8276 43.8665 33.5281 43.6626 33.1711C43.4588 32.814 43.3489 32.4111 43.3432 32C43.3432 31.163 43.7992 30.404 44.5087 29.96C44.9902 29.6555 45.3022 29.414 45.5227 29.126C45.7625 28.8133 45.9385 28.4565 46.0404 28.0758C46.1423 27.6952 46.1682 27.2982 46.1167 26.9075C46.0387 26.3165 45.6892 25.7105 44.9917 24.5C44.2912 23.2895 43.9417 22.685 43.4692 22.3205C43.1565 22.0806 42.7997 21.9047 42.419 21.8028C42.0384 21.7009 41.6414 21.675 41.2507 21.7265C40.8907 21.7745 40.5262 21.9215 40.0207 22.1885C39.6601 22.3852 39.2554 22.4873 38.8446 22.4852C38.4338 22.4831 38.0303 22.3769 37.6717 22.1765C37.3187 21.966 37.0248 21.6695 36.8175 21.3145C36.6103 20.9596 36.4965 20.5579 36.4867 20.147C36.4657 19.577 36.4117 19.187 36.2722 18.8525C36.1214 18.4883 35.9003 18.1573 35.6216 17.8786C35.3429 17.5998 35.0119 17.3788 34.6477 17.228Z" stroke="white" stroke-width="2.25"/>
<defs>
<linearGradient id="paint0_linear_142_3949" x1="64" y1="7.62939e-06" x2="7.62939e-06" y2="64" gradientUnits="userSpaceOnUse">
<stop stop-color="#F65A75"/>
<stop offset="1" stop-color="#48179C"/>
</linearGradient>
</defs>
</svg>
