<svg width="64" height="64" viewBox="0 0 64 64" fill="none" xmlns="http://www.w3.org/2000/svg">
<rect width="64" height="64" rx="32" fill="url(#paint0_linear_143_3956)"/>
<path d="M19.7675 25.8835C19.3597 25.4833 19.0354 25.0063 18.813 24.48C18.5907 23.9537 18.4749 23.3886 18.4722 22.8173C18.4695 22.2461 18.5801 21.6799 18.7975 21.1516C19.0149 20.6233 19.3348 20.1432 19.7388 19.7393C20.1428 19.3353 20.6228 19.0154 21.1511 18.798C21.6794 18.5806 22.2456 18.47 22.8169 18.4727C23.3881 18.4754 23.9533 18.5912 24.4795 18.8135C25.0058 19.0358 25.4828 19.3602 25.883 19.768L44.234 38.1175C45.0224 38.9333 45.4589 40.0262 45.4492 41.1607C45.4395 42.2952 44.9846 43.3805 44.1823 44.1828C43.38 44.985 42.2947 45.44 41.1602 45.4497C40.0257 45.4594 38.9328 45.0229 38.117 44.2345L19.7675 25.8835Z" stroke="white" stroke-width="2.25"/>
<path d="M23 29L29 23" stroke="white" stroke-width="2.25" stroke-linecap="round"/>
<path d="M38.1497 17.4613C38.2027 17.3254 38.2955 17.2086 38.416 17.1263C38.5364 17.044 38.6789 17 38.8247 17C38.9706 17 39.1131 17.044 39.2335 17.1263C39.354 17.2086 39.4468 17.3254 39.4997 17.4613L40.1447 19.1038C40.1806 19.1968 40.2354 19.2814 40.3056 19.3521C40.3758 19.4229 40.46 19.4783 40.5527 19.5148L42.1892 20.1628C42.3248 20.2168 42.441 20.3102 42.5228 20.4309C42.6047 20.5517 42.6485 20.6942 42.6485 20.84C42.6485 20.9859 42.6047 21.1284 42.5228 21.2492C42.441 21.3699 42.3248 21.4633 42.1892 21.5173L40.5542 22.1653C40.4623 22.203 40.3787 22.2586 40.3084 22.3289C40.2381 22.3992 40.1825 22.4828 40.1447 22.5748L39.4997 24.2158C39.4468 24.3517 39.354 24.4684 39.2335 24.5508C39.1131 24.6331 38.9706 24.6771 38.8247 24.6771C38.6789 24.6771 38.5364 24.6331 38.416 24.5508C38.2955 24.4684 38.2027 24.3517 38.1497 24.2158L37.5047 22.5733C37.467 22.4813 37.4114 22.3977 37.3411 22.3274C37.2708 22.2571 37.1872 22.2015 37.0952 22.1638L35.4602 21.5158C35.3247 21.4618 35.2085 21.3684 35.1266 21.2477C35.0448 21.1269 35.001 20.9844 35.001 20.8385C35.001 20.6927 35.0448 20.5502 35.1266 20.4294C35.2085 20.3087 35.3247 20.2153 35.4602 20.1613L37.0952 19.5133C37.1874 19.4754 37.271 19.4196 37.3413 19.349C37.4117 19.2784 37.4672 19.1946 37.5047 19.1023L38.1497 17.4613ZM43.9502 27.6958C44.0032 27.5599 44.096 27.4431 44.2165 27.3608C44.3369 27.2785 44.4794 27.2345 44.6252 27.2345C44.7711 27.2345 44.9136 27.2785 45.034 27.3608C45.1545 27.4431 45.2473 27.5599 45.3002 27.6958L45.5342 28.2943C45.6092 28.4818 45.7562 28.6303 45.9437 28.7038L46.5407 28.9408C46.6758 28.995 46.7915 29.0884 46.873 29.209C46.9545 29.3296 46.9981 29.4718 46.9981 29.6173C46.9981 29.7628 46.9545 29.905 46.873 30.0256C46.7915 30.1462 46.6758 30.2396 46.5407 30.2938L45.9437 30.5308C45.8518 30.5685 45.7682 30.6241 45.6979 30.6944C45.6276 30.7647 45.572 30.8483 45.5342 30.9403L45.3002 31.5403C45.2473 31.6762 45.1545 31.793 45.034 31.8753C44.9136 31.9576 44.7711 32.0016 44.6252 32.0016C44.4794 32.0016 44.3369 31.9576 44.2165 31.8753C44.096 31.793 44.0032 31.6762 43.9502 31.5403L43.7147 30.9403C43.6772 30.8484 43.6218 30.765 43.5518 30.6947C43.4817 30.6244 43.3985 30.5687 43.3067 30.5308L42.7097 30.2938C42.5747 30.2396 42.459 30.1462 42.3775 30.0256C42.2959 29.905 42.2524 29.7628 42.2524 29.6173C42.2524 29.4718 42.2959 29.3296 42.3775 29.209C42.459 29.0884 42.5747 28.995 42.7097 28.9408L43.3067 28.7038C43.3985 28.6659 43.4817 28.6102 43.5518 28.5399C43.6218 28.4696 43.6772 28.3862 43.7147 28.2943L43.9502 27.6958ZM21.6992 36.9613C21.7522 36.8254 21.845 36.7086 21.9655 36.6263C22.0859 36.544 22.2284 36.5 22.3742 36.5C22.5201 36.5 22.6626 36.544 22.783 36.6263C22.9035 36.7086 22.9963 36.8254 23.0492 36.9613L23.2847 37.5613C23.3208 37.654 23.3756 37.7383 23.4458 37.8088C23.5161 37.8793 23.6001 37.9344 23.6927 37.9708L24.2897 38.2063C24.4253 38.2603 24.5415 38.3537 24.6233 38.4744C24.7052 38.5952 24.749 38.7377 24.749 38.8835C24.749 39.0294 24.7052 39.1719 24.6233 39.2927C24.5415 39.4134 24.4253 39.5068 24.2897 39.5608L23.6927 39.7978C23.6001 39.8342 23.5161 39.8893 23.4458 39.9598C23.3756 40.0303 23.3208 40.1146 23.2847 40.2073L23.0492 40.8073C22.9963 40.9432 22.9035 41.0599 22.783 41.1423C22.6626 41.2246 22.5201 41.2686 22.3742 41.2686C22.2284 41.2686 22.0859 41.2246 21.9655 41.1423C21.845 41.0599 21.7522 40.9432 21.6992 40.8073L21.4637 40.2073C21.4277 40.1146 21.3729 40.0303 21.3026 39.9598C21.2324 39.8893 21.1484 39.8342 21.0557 39.7978L20.4587 39.5608C20.3232 39.5068 20.207 39.4134 20.1251 39.2927C20.0433 39.1719 19.9995 39.0294 19.9995 38.8835C19.9995 38.7377 20.0433 38.5952 20.1251 38.4744C20.207 38.3537 20.3232 38.2603 20.4587 38.2063L21.0557 37.9708C21.1485 37.9343 21.2327 37.8789 21.3029 37.8081C21.3731 37.7374 21.4279 37.6528 21.4637 37.5598L21.6992 36.9613Z" stroke="white" stroke-width="1.5"/>
<defs>
<linearGradient id="paint0_linear_143_3956" x1="64" y1="7.62939e-06" x2="7.62939e-06" y2="64" gradientUnits="userSpaceOnUse">
<stop stop-color="#F65A75"/>
<stop offset="1" stop-color="#48179C"/>
</linearGradient>
</defs>
</svg>
