<svg width="64" height="64" viewBox="0 0 64 64" fill="none" xmlns="http://www.w3.org/2000/svg">
<rect width="64" height="64" rx="32" fill="url(#paint0_linear_142_3944)"/>
<path d="M31.2907 32.8751C31.4049 32.9728 31.5375 33.0467 31.6807 33.0923C31.8238 33.138 31.9747 33.1544 32.1244 33.1408C32.2741 33.1272 32.4195 33.0837 32.5521 33.0129C32.6847 32.9421 32.8017 32.8455 32.8963 32.7287C32.991 32.6119 33.0612 32.4774 33.103 32.333C33.1447 32.1886 33.1571 32.0374 33.1395 31.8881C33.1218 31.7389 33.0744 31.5947 33 31.464C32.9257 31.3334 32.826 31.219 32.7067 31.1276L31.2907 32.8751ZM24.0772 17.9576C23.945 18.0282 23.8282 18.1246 23.7337 18.241C23.6393 18.3574 23.569 18.4916 23.5272 18.6355C23.4853 18.7795 23.4726 18.9303 23.4898 19.0793C23.5071 19.2282 23.5539 19.3722 23.6276 19.5027C23.7013 19.6333 23.8003 19.7478 23.9189 19.8395C24.0374 19.9313 24.1731 19.9984 24.318 20.037C24.4629 20.0755 24.614 20.0847 24.7625 20.0641C24.911 20.0434 25.0539 19.9932 25.1827 19.9166L24.0772 17.9576ZM28.7992 22.3931C28.5198 22.4903 28.29 22.6936 28.1594 22.959C28.0288 23.2244 28.008 23.5305 28.1015 23.8111C28.195 24.0918 28.3952 24.3243 28.6588 24.4584C28.9225 24.5925 29.2283 24.6173 29.5102 24.5276L28.7992 22.3931ZM45.4027 35.5931C44.45 39.1474 42.1245 42.1777 38.9376 44.0174C35.7507 45.8572 31.9635 46.3556 28.4092 45.4031L27.8272 47.5781C36.4297 49.8821 45.2722 44.7776 47.5762 36.1751L45.4027 35.5931ZM28.4092 45.4031C24.8549 44.4504 21.8245 42.1249 19.9848 38.938C18.1451 35.7511 17.6467 31.9639 18.5992 28.4096L16.4242 27.8276C14.1202 36.4286 19.2247 45.2711 27.8272 47.5751L28.4092 45.4031ZM35.5912 18.5981C37.3513 19.0698 39.0012 19.8836 40.4468 20.9929C41.8923 22.1023 43.1052 23.4856 44.0162 25.0637C44.9271 26.6419 45.5183 28.384 45.756 30.1906C45.9936 31.9973 45.8745 33.833 45.4027 35.5931L47.5762 36.1751C49.8802 27.5726 44.7757 18.7301 36.1732 16.4261L35.5912 18.5981ZM32.7082 31.1276L22.2112 22.6301L20.7952 24.3776L31.2922 32.8736L32.7082 31.1276ZM18.5977 28.4081C18.9777 26.9805 19.5844 25.6233 20.3947 24.3881L18.5152 23.1536C17.5732 24.5893 16.8678 26.1668 16.4257 27.8261L18.5977 28.4081ZM25.1827 19.9166C28.345 18.1271 32.0844 17.6526 35.5927 18.5981L36.1732 16.4231C31.9282 15.2876 27.6232 15.9566 24.0772 17.9576L25.1827 19.9166ZM22.2112 22.6301C21.1117 21.7391 19.3747 21.8426 18.5137 23.1566L20.3947 24.3881C20.4108 24.3626 20.4326 24.3412 20.4584 24.3256C20.4841 24.31 20.5132 24.3006 20.5432 24.2981C20.5883 24.2941 20.6339 24.2991 20.6771 24.3127C20.7203 24.3264 20.7605 24.3484 20.7952 24.3776L22.2112 22.6301ZM39.8752 32.0006C39.8752 34.0892 39.0455 36.0922 37.5687 37.569C36.0918 39.0459 34.0888 39.8756 32.0002 39.8756V42.1256C34.6855 42.1256 37.2608 41.0588 39.1596 39.16C41.0584 37.2612 42.1252 34.6859 42.1252 32.0006H39.8752ZM32.0002 39.8756C29.9116 39.8756 27.9086 39.0459 26.4317 37.569C24.9549 36.0922 24.1252 34.0892 24.1252 32.0006H21.8752C21.8752 34.6859 22.9419 37.2612 24.8407 39.16C26.7395 41.0588 29.3149 42.1256 32.0002 42.1256V39.8756ZM32.0002 24.1256C36.3502 24.1256 39.8752 27.6506 39.8752 32.0006H42.1252C42.1252 29.3153 41.0584 26.7399 39.1596 24.8411C37.2608 22.9423 34.6855 21.8756 32.0002 21.8756V24.1256ZM24.1252 32.0006C24.1252 30.0956 24.8002 28.3541 25.9222 26.9921L24.1852 25.5611C22.6892 27.3733 21.8722 29.6506 21.8752 32.0006H24.1252ZM29.5102 24.5276C30.313 24.2599 31.154 24.1231 32.0002 24.1256V21.8756C30.8827 21.8756 29.8072 22.0571 28.7992 22.3931L29.5102 24.5276Z" fill="white"/>
<defs>
<linearGradient id="paint0_linear_142_3944" x1="64" y1="7.62939e-06" x2="7.62939e-06" y2="64" gradientUnits="userSpaceOnUse">
<stop stop-color="#F65A75"/>
<stop offset="1" stop-color="#48179C"/>
</linearGradient>
</defs>
</svg>
