<svg width="64" height="64" viewBox="0 0 64 64" fill="none" xmlns="http://www.w3.org/2000/svg">
<rect width="64" height="64" rx="32" fill="url(#paint0_linear_142_3921)"/>
<path d="M37.2499 27.5009L37.5079 27.7589C39.5074 29.7584 40.5079 30.7589 40.5079 32.0009C40.5079 33.2429 39.5074 34.2434 37.5079 36.2429L37.2499 36.5009M33.9409 24.7559L31.9999 32.0009L30.0589 39.2459M26.7499 27.5009L26.4934 27.7589C24.4924 29.7584 23.4934 30.7589 23.4934 32.0009C23.4934 33.2429 24.4924 34.2434 26.4934 36.2429L26.7499 36.5009" stroke="white" stroke-width="2.25" stroke-linecap="round"/>
<path d="M17 32C17 24.929 17 21.3935 19.196 19.196C21.395 17 24.929 17 32 17C39.071 17 42.6065 17 44.8025 19.196C47 21.395 47 24.929 47 32C47 39.071 47 42.6065 44.8025 44.8025C42.608 47 39.071 47 32 47C24.929 47 21.3935 47 19.196 44.8025C17 42.608 17 39.071 17 32Z" stroke="white" stroke-width="2.25"/>
<defs>
<linearGradient id="paint0_linear_142_3921" x1="64" y1="7.62939e-06" x2="7.62939e-06" y2="64" gradientUnits="userSpaceOnUse">
<stop stop-color="#F65A75"/>
<stop offset="1" stop-color="#48179C"/>
</linearGradient>
</defs>
</svg>
