<svg width="64" height="64" viewBox="0 0 64 64" fill="none" xmlns="http://www.w3.org/2000/svg">
<rect width="64" height="64" rx="32" fill="url(#paint0_linear_143_4021)"/>
<path fill-rule="evenodd" clip-rule="evenodd" d="M14.0004 17.0605C14.0004 15.9222 14.9244 15 16.0627 15H47.9377C49.076 15 50 15.9223 50 17.0605V41.8692C50 43.0075 49.076 43.9298 47.9377 43.9298H36.1006V47.9549H44.6016C44.9222 47.9549 45.181 48.2137 45.181 48.5343C45.181 48.8548 44.9222 49.1137 44.6016 49.1137H19.2132C18.8926 49.1137 18.6338 48.8548 18.6338 48.5343C18.6338 48.2137 18.8926 47.9549 19.2132 47.9549H27.7142V43.9298H16.0622C14.924 43.9298 14 43.0075 14 41.8692L14.0004 17.0605ZM28.8735 43.9301V47.9552H34.942V43.9301H28.8735ZM16.063 16.1591C15.5625 16.1591 15.1596 16.5637 15.1596 17.0608V38.6984H48.8414V17.0608C48.8414 16.5637 48.4386 16.1591 47.938 16.1591H16.063ZM48.8413 39.8571H15.1594V41.8696C15.1594 42.3667 15.5623 42.7713 16.0629 42.7713H47.9379C48.4385 42.7713 48.8413 42.3668 48.8413 41.8696L48.8413 39.8571ZM18.0769 20.0232C18.0769 19.7027 18.3375 19.4438 18.6563 19.4438H23.105C23.4238 19.4438 23.6844 19.7027 23.6844 20.0232V21.8043L29.1972 23.3335V21.8746C29.1972 21.5541 29.4561 21.2952 29.7766 21.2952H34.2235C34.5441 21.2952 34.8029 21.5541 34.8029 21.8746V23.3335L40.3158 21.8043V20.0232C40.3158 19.7027 40.5764 19.4438 40.8952 19.4438H45.3438C45.6627 19.4438 45.9232 19.7027 45.9232 20.0232V24.4666C45.9232 24.7872 45.6627 25.046 45.3438 25.046H40.8952C40.5763 25.046 40.3158 24.7871 40.3158 24.4666V23.006L35.6754 24.2952C38.0565 26.0043 38.6222 28.3854 38.5639 29.8835C39.8067 30.1715 40.7341 31.2823 40.7341 32.6126C40.7341 34.1606 39.4776 35.4137 37.9296 35.4137C36.3834 35.4137 35.1268 34.1606 35.1268 32.6126C35.1268 31.2446 36.1091 30.1047 37.4068 29.8612C37.4616 28.6664 37.0091 26.575 34.8028 25.0988V26.3177C34.8028 26.6382 34.544 26.8971 34.2234 26.8971H29.7765C29.4559 26.8971 29.1971 26.6382 29.1971 26.3177V25.0971C26.9737 26.5714 26.432 28.6628 26.4303 29.8644C27.7177 30.1181 28.6879 31.2512 28.6879 32.6123C28.6879 34.1603 27.4314 35.4134 25.8834 35.4134C24.3372 35.4134 23.0806 34.1603 23.0806 32.6123C23.0806 31.2752 24.0183 30.1575 25.2732 29.8781C25.2732 28.385 25.9195 26.0021 28.3211 24.2928L23.6842 23.0054V24.4659C23.6842 24.7865 23.4236 25.0453 23.1048 25.0453H18.6562C18.3373 25.0453 18.0768 24.7865 18.0768 24.4659L18.0769 20.0232ZM19.2358 20.6026V23.8872H22.5254V20.6026H19.2358ZM41.475 20.6026V23.8872H44.7646V20.6026H41.475ZM30.3562 22.4541V25.7386H33.6442V22.4541H30.3562ZM25.8839 30.9704C24.9754 30.9704 24.2399 31.7058 24.2399 32.6127C24.2399 33.5195 24.9754 34.2549 25.8839 34.2549C26.7942 34.2549 27.5296 33.5195 27.5296 32.6127C27.5296 31.7058 26.7942 30.9704 25.8839 30.9704ZM37.9299 30.9704C37.0214 30.9704 36.2859 31.7058 36.2859 32.6127C36.2859 33.5195 37.0214 34.2549 37.9299 34.2549C38.8402 34.2549 39.5756 33.5195 39.5756 32.6127C39.5756 31.7058 38.8402 30.9704 37.9299 30.9704Z" fill="white"/>
<defs>
<linearGradient id="paint0_linear_143_4021" x1="64" y1="7.62939e-06" x2="7.62939e-06" y2="64" gradientUnits="userSpaceOnUse">
<stop stop-color="#F65A75"/>
<stop offset="1" stop-color="#48179C"/>
</linearGradient>
</defs>
</svg>
