<svg width="623" height="375" viewBox="0 0 623 375" fill="none" xmlns="http://www.w3.org/2000/svg">
<g clip-path="url(#clip0_189_24753)">
<circle cx="438.648" cy="374.88" r="0.620473" fill="#45740C"/>
<path d="M442.878 371.058C458.684 356.697 474.327 341.296 482.432 321.029C491.26 298.955 488.015 269.378 469.146 256.334C463.053 252.121 455.854 249.921 449.968 245.385C436.832 235.26 433.156 215.498 436.181 198.502C439.205 181.507 447.601 166.263 454.578 150.649C466.933 122.995 474.866 89.5581 461.616 62.3813C449.062 36.6309 417.401 23.6832 391.95 33.8915C367.336 43.7641 351.703 74.0222 356.514 101.517" stroke="white" stroke-width="1.24095" stroke-linecap="round" stroke-linejoin="round"/>
<circle cx="357.077" cy="104.311" r="0.620473" fill="#45740C"/>
<circle cx="392.185" cy="103.505" r="0.620473" fill="#45740C"/>
<path d="M391.502 97.7995C387.532 71.1944 372.925 47.0797 352.694 34.2475C331.026 20.5041 303.493 20.0759 281.242 33.1369C270.761 39.2889 261.419 48.2066 250.373 52.7563C220.98 64.8625 185.415 44.0184 158.927 63.3594C142.296 75.502 135.221 100.483 136.296 123.274C137.371 146.064 145.123 167.478 152.162 188.675C159.201 209.872 165.727 232.154 164.184 254.945C162.925 273.528 156.331 291.448 156.395 310.071C156.46 328.899 163.763 347.428 175.909 359.579C187.333 371.009 202.859 376.611 217.903 374.867" stroke="white" stroke-width="1.24095" stroke-linecap="round" stroke-linejoin="round"/>
<circle cx="220.745" cy="374.448" r="0.620473" fill="#45740C"/>
<path d="M135.403 348.717C133.533 348.717 133.531 351.82 135.403 351.82C137.273 351.82 137.276 348.717 135.403 348.717Z" fill="#45740C"/>
<path d="M195.875 229.666C194.005 229.666 194.002 232.769 195.875 232.769C197.744 232.77 197.748 229.666 195.875 229.666Z" fill="#45740C"/>
<path d="M268.294 343.866C266.424 343.866 266.421 346.968 268.294 346.968C270.163 346.968 270.167 343.866 268.294 343.866Z" fill="#45740C"/>
<path d="M136.808 19.8882C134.938 19.8882 134.935 22.9906 136.808 22.9906C138.678 22.9914 138.681 19.8882 136.808 19.8882Z" fill="#45740C"/>
<path d="M352.803 0.5C350.934 0.5 350.931 3.60237 352.803 3.60237C354.673 3.60237 354.676 0.5 352.803 0.5Z" fill="#45740C"/>
<path d="M470.263 179.656C468.394 179.656 468.39 182.759 470.263 182.759C472.133 182.759 472.136 179.656 470.263 179.656Z" fill="#45740C"/>
<path d="M488.516 227.381C486.646 227.381 486.643 230.484 488.516 230.484C490.386 230.483 490.389 227.381 488.516 227.381Z" fill="#45740C"/>
<path d="M228.279 120.536C228.562 121.075 228.694 121.388 228.694 121.388C228.694 121.388 228.624 121.523 228.486 121.775C226.748 124.91 214.271 146.032 194.527 143.784C194.229 143.75 193.928 143.711 193.627 143.666C193.489 143.647 193.352 143.625 193.215 143.604C187.083 142.645 181.463 140.682 176.555 138.359C176.175 138.18 175.8 137.998 175.431 137.815C166.161 133.229 159.617 127.491 157.26 125.266C156.627 124.668 156.296 124.322 156.296 124.322C156.411 124.24 156.526 124.158 156.641 124.077C166.56 117.026 175.221 112.374 182.759 109.499C183.181 109.338 183.599 109.182 184.014 109.032C192.58 105.936 199.655 105.163 205.45 105.743C206.017 105.801 206.571 105.87 207.115 105.951C220.703 108 226.734 117.605 228.279 120.536Z" fill="white"/>
<path d="M228.279 120.536C228.562 121.075 228.694 121.388 228.694 121.388C228.694 121.388 228.624 121.523 228.486 121.775C222.583 121.632 214.839 121.806 206.526 122.148C206.048 122.169 205.565 122.189 205.082 122.21C199.219 122.464 193.112 122.796 187.199 123.157C186.673 123.188 186.148 123.221 185.625 123.253C174.24 123.959 163.726 124.754 157.26 125.266C156.627 124.668 156.296 124.323 156.296 124.323C156.411 124.241 156.526 124.159 156.641 124.077C164.597 123.445 179.257 122.338 194.074 121.522C194.612 121.491 195.148 121.463 195.686 121.433L195.687 121.433C202.724 121.056 209.743 120.749 216.044 120.596C216.546 120.584 217.043 120.572 217.536 120.562C221.495 120.482 225.138 120.465 228.279 120.536Z" fill="#45740C"/>
<path d="M187.374 122.907L187.199 123.157L176.554 138.361C176.174 138.181 175.8 138 175.43 137.816L185.625 123.254L186.364 122.199L187.374 122.907Z" fill="#45740C"/>
<path d="M195.875 121.636L194.976 122.481L194.073 121.522L182.758 109.5C183.18 109.339 183.598 109.183 184.013 109.033L195.684 121.433L195.685 121.433L195.875 121.636Z" fill="#45740C"/>
<path d="M206.696 121.841L206.525 122.149L194.526 143.785C194.228 143.751 193.927 143.712 193.626 143.667C193.488 143.648 193.351 143.626 193.214 143.604L205.081 122.21L205.618 121.243L206.696 121.841Z" fill="#45740C"/>
<path d="M207.114 105.952L217.534 120.563L217.607 120.665L216.601 121.381L216.042 120.597L205.449 105.744C206.016 105.801 206.571 105.871 207.114 105.952Z" fill="#45740C"/>
<path d="M249.509 94.5281C249.3 95.6969 249.07 96.8005 248.844 97.8104C248.117 101.041 247.395 103.298 247.339 103.48C247.337 103.485 247.334 103.487 247.334 103.487L220.869 115.105C220.869 115.105 220.865 115.107 220.86 115.104C220.688 115.022 218.538 114.026 215.668 112.374C214.771 111.857 213.803 111.279 212.801 110.643C207.43 107.224 201.131 102.192 199.885 96.8013C199.5 95.1447 199.485 93.8859 199.731 92.9288C199.861 92.4378 200.053 92.026 200.304 91.6793C202.428 88.7592 208.517 90.7315 209.846 89.9986C211.641 89.0097 204.506 81.0157 197.265 76.3001C190.495 71.8901 184.225 64.7779 187.879 59.6179C188.013 59.4325 188.152 59.2526 188.311 59.0742C188.452 58.9067 188.605 58.7477 188.775 58.5856C194.176 53.3822 200.18 61.0659 202.374 58.6841C204.53 56.341 184.225 32.3024 197.057 26.6033C197.254 26.5126 197.47 26.4265 197.687 26.3443C197.895 26.2396 198.102 26.1403 198.305 26.0557C211.181 20.4684 215.135 51.6859 218.317 51.6852C221.556 51.6821 219.964 42.0608 227.449 41.6079C227.683 41.5924 227.904 41.5877 228.123 41.5963C228.362 41.6009 228.589 41.6195 228.816 41.6467C235.088 42.4486 236.079 51.8783 234.747 59.8452C233.317 68.3674 234.372 79.0302 236.311 78.3802C237.754 77.8955 240.419 72.0801 244.007 72.4927C244.432 72.5431 244.865 72.6812 245.315 72.917C246.186 73.3839 247.103 74.2471 248.061 75.6517C251.187 80.2176 250.629 88.2613 249.509 94.5281Z" fill="white"/>
<path d="M198.307 26.0542L234.729 109.02L233.478 109.569L197.057 26.6033C197.255 26.511 197.471 26.4265 197.69 26.345C197.897 26.2396 198.101 26.1395 198.307 26.0542Z" fill="#45740C"/>
<path d="M219.021 73.6584L218.729 74.2743L218.433 74.8916L218.206 74.7823L187.511 60.2035L187.879 59.6171C188.013 59.4341 188.152 59.2534 188.312 59.0742L217.368 72.8728L218.31 73.3195L219.021 73.6584Z" fill="#45740C"/>
<path d="M233.948 107.662L233.657 108.277L233.361 108.894L233.134 108.785L199.732 92.9264C199.861 92.4378 200.053 92.0252 200.305 91.6808L232.296 106.875L233.237 107.322L233.948 107.662Z" fill="#45740C"/>
<path d="M229.497 41.7716L219.456 74.2285L219.381 74.4759L218.73 74.2743L218.075 74.0742L218.311 73.3195L218.618 72.3198L228.125 41.5978C228.365 41.6017 228.592 41.6211 228.817 41.6467L229.497 41.7716Z" fill="#45740C"/>
<path d="M245.314 72.9162L234.383 108.232L234.307 108.479L233.657 108.278L233.002 108.078L233.238 107.323L233.545 106.323L244.01 72.4951C244.433 72.5424 244.867 72.6796 245.314 72.9162Z" fill="#45740C"/>
<path d="M413.078 317.028C411.903 316.854 410.793 316.659 409.776 316.464C406.524 315.836 404.247 315.185 404.063 315.134C404.057 315.132 404.056 315.129 404.056 315.129L391.633 289.032C391.633 289.032 391.631 289.029 391.633 289.023C391.709 288.849 392.639 286.67 394.202 283.75C394.691 282.838 395.24 281.853 395.846 280.832C399.097 275.359 403.935 268.908 409.284 267.498C410.928 267.062 412.186 267.01 413.151 267.225C413.645 267.341 414.063 267.519 414.417 267.759C417.402 269.792 415.616 275.94 416.389 277.246C417.433 279.009 425.205 271.633 429.696 264.251C433.897 257.349 440.814 250.863 446.083 254.359C446.272 254.486 446.456 254.621 446.64 254.773C446.811 254.909 446.975 255.058 447.142 255.222C452.509 260.46 445.013 266.698 447.46 268.817C449.868 270.9 473.274 249.868 479.364 262.52C479.461 262.714 479.553 262.927 479.642 263.142C479.753 263.346 479.858 263.55 479.95 263.751C485.929 276.45 454.847 281.358 454.946 284.539C455.048 287.777 464.616 285.891 465.298 293.359C465.321 293.592 465.332 293.813 465.33 294.032C465.332 294.27 465.321 294.498 465.301 294.725C464.691 301.019 455.296 302.299 447.292 301.212C438.73 300.044 428.105 301.425 428.814 303.344C429.342 304.771 435.237 307.257 434.935 310.856C434.897 311.282 434.772 311.719 434.551 312.175C434.11 313.06 433.276 314.003 431.901 315.004C427.432 318.267 419.375 317.955 413.078 317.028Z" fill="white"/>
<path d="M479.95 263.752L398.139 302.698L397.552 301.465L479.363 262.519C479.46 262.714 479.552 262.928 479.64 263.143C479.752 263.347 479.858 263.549 479.95 263.752Z" fill="#45740C"/>
<path d="M433.003 285.915L432.379 285.642L431.753 285.365L431.855 285.134L445.487 254.007L446.084 254.357C446.271 254.485 446.456 254.619 446.64 254.773L433.738 284.238L433.32 285.193L433.003 285.915Z" fill="#45740C"/>
<path d="M399.473 301.877L398.849 301.604L398.223 301.327L398.325 301.097L413.153 267.225C413.645 267.338 414.063 267.518 414.415 267.759L400.207 300.2L399.79 301.156L399.473 301.877Z" fill="#45740C"/>
<path d="M465.197 295.409L432.447 286.367L432.198 286.299L432.38 285.643L432.56 284.982L433.321 285.195L434.33 285.471L465.329 294.032C465.333 294.272 465.32 294.5 465.301 294.726L465.197 295.409Z" fill="#45740C"/>
<path d="M434.551 312.172L398.917 302.328L398.668 302.26L398.849 301.604L399.029 300.943L399.791 301.156L400.8 301.432L434.933 310.856C434.897 311.281 434.773 311.718 434.551 312.172Z" fill="#45740C"/>
<path d="M255.225 296.65C255.371 297.702 255.402 298.295 255.402 298.295C255.402 298.295 255.207 298.475 254.83 298.805C250.121 302.923 217.129 330.207 186.05 314.825C185.581 314.592 185.11 314.35 184.641 314.098C184.427 313.984 184.214 313.868 184.003 313.751C174.505 308.546 166.441 301.995 159.761 295.277C159.244 294.757 158.736 294.238 158.237 293.716C145.737 280.699 138.392 267.405 135.841 262.355C135.156 260.998 134.816 260.235 134.816 260.235C135.055 260.169 135.292 260.102 135.528 260.037C155.987 254.336 172.959 251.83 187.035 251.575C187.823 251.56 188.602 251.552 189.372 251.552C205.266 251.542 217.339 254.463 226.508 258.846C227.405 259.276 228.275 259.719 229.119 260.173C250.214 271.585 254.425 290.923 255.225 296.65Z" fill="#45740C"/>
<path d="M255.225 296.65C255.371 297.702 255.402 298.295 255.402 298.295C255.402 298.295 255.207 298.475 254.83 298.805C245.224 295.075 232.41 290.774 218.561 286.414C217.763 286.164 216.96 285.912 216.154 285.659C206.379 282.604 196.158 279.532 186.238 276.623C185.354 276.363 184.475 276.106 183.597 275.849C164.489 270.267 146.76 265.345 135.842 262.356C135.157 260.999 134.817 260.236 134.817 260.236C135.055 260.17 135.293 260.103 135.529 260.038C148.964 263.712 173.684 270.576 198.491 278.011C199.392 278.28 200.29 278.551 201.189 278.82L201.19 278.819C212.965 282.369 224.67 286.022 235.102 289.503C235.934 289.781 236.757 290.056 237.571 290.331C244.123 292.543 250.112 294.673 255.225 296.65Z" fill="white"/>
<path d="M186.675 276.317L186.239 276.624L159.762 295.277C159.245 294.758 158.737 294.239 158.238 293.717L183.597 275.85L185.435 274.555L186.675 276.317Z" fill="white"/>
<path d="M201.383 279.265L199.405 280.121L198.492 278.012L187.037 251.576C187.825 251.561 188.604 251.553 189.374 251.553L201.189 278.82L201.191 278.819L201.383 279.265Z" fill="white"/>
<path d="M219.024 286.011L218.561 286.415L186.051 314.826C185.582 314.593 185.111 314.351 184.642 314.099C184.428 313.985 184.215 313.868 184.004 313.752L216.155 285.659L217.608 284.389L219.024 286.011Z" fill="white"/>
<path d="M229.121 260.175L237.572 290.332L237.631 290.543L235.557 291.122L235.104 289.503L226.511 258.848C227.407 259.278 228.277 259.721 229.121 260.175Z" fill="white"/>
<path d="M470.262 82.1418C470.138 82.7422 470.007 83.3456 469.87 83.9521C468.1 91.7995 465.259 100.151 460.782 108.182C460.682 108.36 460.581 108.539 460.48 108.717C460.256 109.111 460.029 109.498 459.794 109.877C444.396 134.965 408.367 130.251 403.111 129.414C402.691 129.347 402.467 129.304 402.467 129.304C402.467 129.304 402.222 128.864 401.853 128.041C399.841 123.563 394.137 107.757 404.153 90.0296C404.552 89.3215 404.976 88.6111 405.428 87.8983C410.042 80.6054 417.404 73.0527 428.837 65.8823C429.391 65.5357 429.954 65.1882 430.527 64.8431C440.764 58.6717 454.098 52.8097 471.382 47.6715C471.582 47.6117 471.782 47.5528 471.984 47.4931C471.984 47.4931 472.083 48.1927 472.203 49.4801C472.649 54.264 473.37 67.1388 470.262 82.1418Z" fill="#45740C"/>
<path d="M472.203 49.4809C465.701 56.5605 455.178 68.1029 443.962 80.7442C443.446 81.3251 442.929 81.9092 442.412 82.494C436.594 89.0655 430.632 95.8884 424.983 102.498C424.518 103.043 424.054 103.589 423.593 104.13C415.605 113.517 408.334 122.393 403.112 129.414C402.692 129.347 402.468 129.304 402.468 129.304C402.468 129.304 402.223 128.864 401.854 128.041C404.636 124.312 407.981 120.076 411.693 115.529C412.153 114.963 412.621 114.393 413.094 113.817C419.023 106.605 425.788 98.6914 432.653 90.8238C433.177 90.2227 433.703 89.6224 434.229 89.0213C448.709 72.4757 463.384 56.3775 471.383 47.6715C471.582 47.6117 471.782 47.5528 471.984 47.4931C471.983 47.4946 472.083 48.1942 472.203 49.4809Z" fill="white"/>
<path d="M470.263 82.1419C470.138 82.7422 470.007 83.3456 469.87 83.9521L442.411 82.494L441.959 82.47L442.055 80.6434L443.962 80.7443L470.263 82.1419Z" fill="white"/>
<path d="M434.524 90.9541L432.716 91.2318L432.653 90.8254L428.837 65.8839C429.391 65.5372 429.955 65.1898 430.528 64.8446L434.228 89.0229L434.524 90.9541Z" fill="white"/>
<path d="M460.781 108.182C460.681 108.36 460.58 108.539 460.479 108.717C460.255 109.111 460.027 109.498 459.793 109.877L423.591 104.13L423.075 104.048L423.362 102.241L424.982 102.498L460.781 108.182Z" fill="white"/>
<path d="M413.497 115.187L411.744 115.706L411.692 115.53L404.152 90.0312C404.552 89.3231 404.976 88.6126 405.428 87.8998L413.093 113.819L413.497 115.187Z" fill="white"/>
<path d="M461.577 139.996C461.277 140.271 460.973 140.547 460.665 140.822C456.678 144.375 451.917 147.786 446.397 150.392C446.273 150.45 446.15 150.508 446.026 150.565C445.753 150.692 445.481 150.812 445.208 150.926C427.201 158.522 409.569 142.056 407.055 139.574C406.855 139.375 406.75 139.266 406.75 139.266C406.75 139.266 406.787 138.933 406.907 138.347C407.55 135.152 410.578 124.415 422.835 118.713C423.324 118.485 423.828 118.265 424.347 118.055C429.656 115.899 436.549 114.666 445.492 115.212C445.926 115.239 446.364 115.27 446.807 115.305C454.719 115.928 464.183 117.914 475.5 121.819C475.63 121.863 475.761 121.91 475.894 121.955C475.894 121.955 475.677 122.372 475.245 123.112C473.636 125.867 469.051 133.097 461.577 139.996Z" fill="white"/>
<path d="M475.243 123.112C468.997 124.422 458.856 126.588 447.916 129.08C447.413 129.194 446.909 129.309 446.403 129.426C440.722 130.726 434.868 132.106 429.264 133.492C428.802 133.607 428.341 133.722 427.883 133.836C419.943 135.817 412.587 137.801 407.055 139.574C406.855 139.375 406.75 139.266 406.75 139.266C406.75 139.266 406.787 138.933 406.907 138.347C409.85 137.408 413.292 136.414 417.054 135.393C417.521 135.265 417.994 135.139 418.471 135.011C424.459 133.408 431.169 131.749 437.916 130.153C438.431 130.031 438.946 129.911 439.463 129.789C453.674 126.45 467.817 123.428 475.5 121.819C475.63 121.863 475.761 121.91 475.894 121.955C475.892 121.955 475.675 122.37 475.243 123.112Z" fill="#45740C"/>
<path d="M461.577 139.996C461.277 140.271 460.973 140.547 460.665 140.822L446.403 129.425L446.168 129.237L446.926 128.288L447.916 129.079L461.577 139.996Z" fill="#45740C"/>
<path d="M438.875 130.945L437.792 130.397L437.915 130.153L445.492 115.212C445.926 115.239 446.364 115.27 446.807 115.305L439.463 129.789L438.875 130.945Z" fill="#45740C"/>
<path d="M446.397 150.392C446.273 150.45 446.15 150.508 446.026 150.565C445.753 150.692 445.481 150.812 445.208 150.926L427.882 133.836L427.636 133.592L428.489 132.727L429.264 133.492L446.397 150.392Z" fill="#45740C"/>
<path d="M418.161 135.905L417.014 135.507L417.054 135.392L422.835 118.712C423.325 118.484 423.828 118.264 424.348 118.054L418.472 135.01L418.161 135.905Z" fill="#45740C"/>
<path d="M407.149 319.502H217.874C212.738 319.502 208.574 315.338 208.574 310.202V60.9116C208.574 55.7749 212.738 51.6115 217.874 51.6115H407.149C412.286 51.6115 416.449 55.7756 416.449 60.9116V310.202C416.449 315.338 412.285 319.502 407.149 319.502Z" fill="black"/>
<path d="M402.08 74.0408H222.944V297.073H402.08V74.0408Z" fill="#0A0954"/>
<path d="M390.756 309.578H211.621C219.244 253.578 223.026 197.122 222.942 140.606L222.844 74.0416H401.979L402.078 140.606C402.161 197.122 398.378 253.577 390.756 309.578Z" fill="white"/>
<path d="M365.164 82.4816H259.86C257.965 82.4816 256.429 80.9451 256.429 79.0503V66.2508C256.429 64.356 257.965 62.8195 259.86 62.8195H365.164C367.058 62.8195 368.595 64.356 368.595 66.2508V79.0503C368.595 80.9451 367.058 82.4816 365.164 82.4816Z" stroke="white" stroke-width="0.775591" stroke-miterlimit="10"/>
<path d="M352.603 69.4741H272.42C269.624 69.4741 267.357 67.2078 267.357 64.4118V62.0928C267.357 59.2968 269.624 57.0305 272.42 57.0305H352.603C355.399 57.0305 357.665 59.2968 357.665 62.0928V64.4118C357.666 67.2078 355.399 69.4741 352.603 69.4741Z" fill="#45740C"/>
<path d="M289.188 240.732H243.519V244.858H289.188V240.732Z" fill="#45740C"/>
<path d="M266.354 252.349H243.519V256.475H266.354V252.349Z" fill="#45740C"/>
<path d="M304.902 252.349H273.484V256.475H304.902V252.349Z" fill="#45740C"/>
<path d="M335.347 252.349H308.469V256.475H335.347V252.349Z" fill="#45740C"/>
<path d="M273.484 263.966H243.519V268.092H273.484V263.966Z" fill="#45740C"/>
<path d="M311.202 263.966H281.236V268.092H311.202V263.966Z" fill="white"/>
<path d="M322.556 240.732H296.319V244.858H322.556V240.732Z" fill="#45740C"/>
<path d="M335.346 240.488H327.147V244.745H335.346V240.488Z" fill="#45740C"/>
<path d="M354.975 167.71C356.861 161.725 359.676 152.216 359.676 149.59C359.676 133.799 347.9 120.997 333.373 120.997C329.618 120.997 326.047 121.854 322.816 123.396C316.304 126.505 308.72 126.505 302.207 123.396C298.976 121.854 295.406 120.997 291.65 120.997C277.123 120.997 265.347 133.799 265.347 149.59C265.347 152.215 268.661 161.724 270.801 167.71H354.975Z" fill="#808080"/>
<path opacity="0.5" d="M312.511 137.411C319.888 137.411 326.75 136.664 332.482 135.378C338.229 134.09 338.035 128.442 332.172 127.429C330.764 127.185 329.297 127.056 327.789 127.056C325.039 127.056 322.424 127.485 320.057 128.255C315.288 129.81 309.734 129.81 304.964 128.255C302.598 127.485 299.983 127.056 297.232 127.056C295.725 127.056 294.257 127.185 292.849 127.429C286.987 128.442 286.793 134.09 292.539 135.378C298.273 136.663 305.135 137.411 312.511 137.411Z" fill="#DEECFE"/>
<path d="M272.741 167.71H270.802C271.037 168.366 271.257 168.98 271.458 169.538" stroke="#808080" stroke-width="0.775591" stroke-miterlimit="10"/>
<path d="M272.604 173.262C275.875 191.321 278.947 214.422 291.65 214.422C298.512 214.422 303.217 206.903 306.394 197.852C308.436 192.038 316.587 192.038 318.628 197.852C321.805 206.903 326.51 214.422 333.373 214.422C346.322 214.422 350.163 190.416 353.509 172.217C353.581 172.007 353.673 171.737 353.779 171.417" stroke="#808080" stroke-width="0.775591" stroke-miterlimit="10" stroke-dasharray="3.91 3.91"/>
<path d="M354.387 169.561C354.568 168.997 354.767 168.375 354.976 167.71H353.037" stroke="#808080" stroke-width="0.775591" stroke-miterlimit="10"/>
<path d="M349.212 167.71H274.652" stroke="#808080" stroke-width="0.775591" stroke-miterlimit="10" stroke-dasharray="3.82 3.82"/>
<path d="M367.582 153.552C374.651 146.483 374.651 135.022 367.582 127.953C360.513 120.884 349.052 120.884 341.983 127.953C334.914 135.022 334.914 146.483 341.983 153.552C349.052 160.621 360.513 160.621 367.582 153.552Z" stroke="#4D4D4D" stroke-width="1.55118" stroke-miterlimit="10"/>
<path d="M345.817 132.401L354.934 137.961L376.721 122.737L353.042 148.812L345.817 132.401Z" fill="#40FF00"/>
<path d="M251.137 167.71H373.886" stroke="white" stroke-width="1.55118" stroke-miterlimit="10"/>
<path d="M362.929 312.289C346.513 295.879 322.092 287.883 299.149 291.406C277.079 294.794 204.973 337.369 173.507 310.506C156.421 295.92 140.625 245.913 193.057 146.761" stroke="white" stroke-width="3.10237" stroke-miterlimit="10" stroke-linecap="round" stroke-linejoin="round"/>
<path d="M249.148 35.4125L272.595 44.663C273.158 44.8848 273.794 44.6087 274.017 44.0456C274.239 43.4825 273.963 42.8465 273.4 42.6239L249.953 33.3734L249.148 35.4125Z" fill="#45740C"/>
<path d="M199.303 88.4117C200.883 83.5651 202.68 78.5586 204.69 73.4638C218.067 39.5603 235.643 14.7321 243.949 18.009C252.255 21.2858 248.144 51.4269 234.767 85.3303C232.757 90.4252 230.651 95.3098 228.498 99.93L199.303 88.4117Z" fill="white"/>
<path opacity="0.5" d="M206.586 91.2861C207.879 87.5059 209.317 83.5899 210.894 79.594C221.385 53.0013 233.924 33.0353 238.9 34.9983C243.876 36.9613 239.404 60.1104 228.912 86.7031C227.335 90.699 225.712 94.5412 224.076 98.1865L206.586 91.2861Z" fill="#DEECFE"/>
<path d="M199.301 88.4117L197.179 94.3024L196.67 95.7155L195.442 99.0978L194.932 100.511L193.712 103.896L193.206 105.301L172.651 162.276C170.199 169.08 173.599 176.608 180.324 179.261C183.695 180.592 187.284 180.461 190.384 179.171C193.487 177.872 196.109 175.417 197.536 172.094L221.42 116.433L222.01 115.061L223.43 111.755L224.023 110.374L225.436 107.065L226.029 105.684L228.502 99.9316L199.301 88.4117Z" fill="#45740C"/>
<path d="M175.42 184.387C173.11 183.177 172.217 180.325 173.425 178.015L178.187 168.917C179.396 166.607 182.249 165.714 184.558 166.923C186.868 168.133 187.761 170.985 186.552 173.295L181.791 182.393C180.582 184.703 177.729 185.596 175.42 184.387Z" fill="white"/>
<path d="M222.247 37.7943L252.321 49.6601C253.95 50.303 255.791 49.5034 256.434 47.8747L263.785 29.2442C264.428 27.6154 263.628 25.7742 261.999 25.1312L234.874 14.4288C233.245 13.7867 231.404 14.5855 230.761 16.2143L222.247 37.7943Z" fill="white"/>
<path d="M197.179 94.3024L196.67 95.7163L225.436 107.066L226.028 105.685L197.179 94.3024Z" fill="white"/>
<path d="M195.442 99.0978L194.933 100.512L223.43 111.755L224.024 110.375L195.442 99.0978Z" fill="white"/>
<path d="M193.713 103.897L193.207 105.302L221.421 116.433L222.01 115.061L193.713 103.897Z" fill="white"/>
<path opacity="0.5" d="M232.054 20.5707L259.866 31.5438L260.575 29.7444C261.186 28.1971 260.426 26.4482 258.879 25.8378L236.67 17.0751C235.123 16.4648 233.374 17.2241 232.763 18.7714L232.054 20.5707Z" fill="#DEECFE"/>
</g>
<defs>
<clipPath id="clip0_189_24753">
<rect width="623" height="375" fill="white"/>
</clipPath>
</defs>
</svg>
