<svg width="595" height="375" viewBox="0 0 595 375" fill="none" xmlns="http://www.w3.org/2000/svg">
<g clip-path="url(#clip0_152_23705)">
<path d="M179.06 37.3133V53.5213C179.06 54.0768 179.511 54.528 180.068 54.528C180.624 54.528 181.075 54.0768 181.075 53.5213V37.3133C181.075 36.7561 180.624 36.3048 180.068 36.3048C179.511 36.3048 179.06 36.7561 179.06 37.3133Z" fill="white"/>
<path d="M188.094 44.4052H172.035C171.478 44.4052 171.026 44.8565 171.026 45.4137C171.026 45.9693 171.478 46.4206 172.035 46.4206H188.094C188.65 46.4206 189.103 45.9693 189.103 45.4137C189.103 44.8565 188.65 44.4052 188.094 44.4052Z" fill="white"/>
<path d="M557.528 254.423C557.528 301.329 519.503 339.352 472.596 339.352C425.689 339.352 387.667 301.329 387.667 254.423C387.667 207.515 425.689 169.491 472.596 169.491C519.503 169.491 557.528 207.515 557.528 254.423Z" fill="white"/>
<path d="M493.451 279.78L402.162 226.807L437.954 165.138L529.238 218.11L493.451 279.78Z" fill="#D7824C"/>
<path d="M493.451 279.779L402.162 226.807L465.702 222.462L493.451 279.779Z" fill="#F9A45A"/>
<path d="M529.238 218.11L437.954 165.138L459.736 232.737L529.238 218.11Z" fill="#FAAB64"/>
<path d="M542.538 303.915L444.36 342.658L418.193 276.332L516.366 237.593L542.538 303.915Z" fill="#D7824C"/>
<path d="M542.538 303.915L444.36 342.658L480.364 290.126L542.538 303.915Z" fill="#F9A45A"/>
<path d="M516.366 237.593L418.193 276.332L484.726 301.179L516.366 237.593Z" fill="#FAAB64"/>
<path d="M486.493 132.279C486.493 138.338 481.582 143.251 475.524 143.251H356.655C350.595 143.251 345.681 138.338 345.681 132.279V10.9722C345.681 4.91264 350.595 0 356.655 0H475.524C481.582 0 486.493 4.91264 486.493 10.9722V132.279Z" fill="white"/>
<path d="M486.493 19.507V10.9722C486.493 4.91264 481.582 0 475.524 0H356.655C350.595 0 345.681 4.91264 345.681 10.9722V19.507H486.493Z" fill="#1A2852"/>
<path d="M449.767 9.75213C449.767 12.6563 447.411 15.0101 444.507 15.0101C441.603 15.0101 439.251 12.6563 439.251 9.75213C439.251 6.84968 441.603 4.4942 444.507 4.4942C447.411 4.4942 449.767 6.84968 449.767 9.75213Z" fill="white"/>
<path d="M464.856 9.75213C464.856 12.6563 462.5 15.0101 459.596 15.0101C456.69 15.0101 454.34 12.6563 454.34 9.75213C454.34 6.84968 456.69 4.4942 459.596 4.4942C462.5 4.4942 464.856 6.84968 464.856 9.75213Z" fill="white"/>
<path d="M479.941 9.75213C479.941 12.6563 477.591 15.0101 474.683 15.0101C471.779 15.0101 469.427 12.6563 469.427 9.75213C469.427 6.84968 471.779 4.4942 474.683 4.4942C477.591 4.4942 479.941 6.84968 479.941 9.75213Z" fill="white"/>
<path d="M469.427 30.0226H367.017V94.4852H469.427V30.0226Z" fill="#D1D3D4"/>
<path d="M469.427 102.412H367.017V108.735H469.427V102.412Z" fill="#BCBEC0"/>
<path d="M469.427 112.47H367.017V118.794H469.427V112.47Z" fill="#BCBEC0"/>
<path d="M424.62 122.527H367.017V128.852H424.62V122.527Z" fill="#BCBEC0"/>
<path d="M367.017 94.4855H469.427V50.1384L427.821 72.312L441.993 62.2542L418.22 50.1384L392.009 69.4916L379.206 62.2542L367.017 74.3683V94.4855Z" fill="#54933B"/>
<path d="M429.711 267.054C429.711 271.351 426.224 274.838 421.928 274.838H122.731C118.428 274.838 114.946 271.351 114.946 267.054V75.948C114.946 71.6507 118.428 68.1654 122.731 68.1654H421.928C426.224 68.1654 429.711 71.6507 429.711 75.948V267.054Z" fill="white"/>
<path d="M426.254 263.854C426.254 268.009 422.847 271.377 418.641 271.377H126.017C121.814 271.377 118.407 268.009 118.407 263.854V79.1461C118.407 74.9924 121.814 71.625 126.017 71.625H418.641C422.847 71.625 426.254 74.9924 426.254 79.1461V263.854Z" fill="#D1D3D4"/>
<path d="M413.943 81.5546H128.119V255.519H413.943V81.5546Z" fill="#F15A29"/>
<path d="M202.825 271.377H126.017C121.814 271.377 118.407 268.009 118.407 263.854V79.1461C118.407 74.9924 121.814 71.625 126.017 71.625H365.807C364.249 74.9514 362.655 78.2607 361.027 81.5546H128.12V255.519H224.027C220.638 258.23 217.212 260.895 213.754 263.517C210.185 266.223 206.542 268.86 202.825 271.377Z" fill="#E5E6E7"/>
<path d="M224.027 255.519H128.119V81.5546H361.027C349.47 104.942 336.2 127.483 321.589 148.962C301.626 178.303 278.681 205.654 253.044 230.199C243.771 239.077 234.057 247.499 224.027 255.519Z" fill="#F68B42"/>
<path d="M101.812 362.982V368.928C101.812 372.282 104.983 375 108.894 375H426.891C430.797 375 433.964 372.282 433.964 368.928V362.982H101.812Z" fill="#B6B8BA"/>
<path d="M99.7891 358.934H436.33L392.289 320.289H152.071L99.7891 358.934Z" fill="#D1D3D4"/>
<path d="M416.083 351.695H122.058L156.603 327.051H385.918L416.083 351.695Z" fill="#DEDFE0"/>
<path d="M436.33 358.934H99.7891V367.029H436.33V358.934Z" fill="white"/>
<path d="M255.695 304.763H283.37C274.852 291.497 283.37 274.838 283.37 274.838H255.695C255.695 274.838 266.869 291.497 255.695 304.763Z" fill="#D1D3D4"/>
<path d="M310.604 304.763H228.455V311.682H310.604V304.763Z" fill="white"/>
<path d="M352.98 262.662C352.98 264.182 351.744 265.416 350.224 265.416C348.703 265.416 347.469 264.182 347.469 262.662C347.469 261.138 348.703 259.905 350.224 259.905C351.744 259.905 352.98 261.138 352.98 262.662Z" fill="#939598"/>
<path d="M363.841 262.662C363.841 264.182 362.61 265.416 361.087 265.416C359.566 265.416 358.328 264.182 358.328 262.662C358.328 261.138 359.566 259.905 361.087 259.905C362.61 259.905 363.841 261.138 363.841 262.662Z" fill="#939598"/>
<path d="M374.707 262.662C374.707 264.182 373.475 265.416 371.948 265.416C370.429 265.416 369.196 264.182 369.196 262.662C369.196 261.138 370.429 259.905 371.948 259.905C373.475 259.905 374.707 261.138 374.707 262.662Z" fill="#939598"/>
<path d="M385.572 262.662C385.572 264.182 384.334 265.416 382.811 265.416C381.294 265.416 380.058 264.182 380.058 262.662C380.058 261.138 381.294 259.905 382.811 259.905C384.334 259.905 385.572 261.138 385.572 262.662Z" fill="#939598"/>
<path d="M148.481 25.6506L131.986 28.6248L153.329 12.0494L161.406 14.0561L148.481 25.6506Z" fill="#F9A45A"/>
<path d="M140.133 12.0542L133.47 27.4382L154.476 10.4372L154.368 2.1178L140.133 12.0542Z" fill="#F9A45A"/>
<path d="M138.716 64.0935C138.716 91.9882 116.105 114.603 88.2085 114.603C60.3104 114.603 37.6992 91.9882 37.6992 64.0935C37.6992 36.1988 60.3104 13.5843 88.2085 13.5843C116.105 13.5843 138.716 36.1988 138.716 64.0935Z" fill="#F15B49"/>
<path d="M123.475 64.0934C123.475 83.573 107.688 99.3622 88.2083 99.3622C68.7303 99.3622 52.9395 83.573 52.9395 64.0934C52.9395 44.6154 68.7303 28.8246 88.2083 28.8246C107.688 28.8246 123.475 44.6154 123.475 64.0934Z" fill="white"/>
<path d="M104.263 64.0932C104.263 72.9613 97.0747 80.1456 88.2084 80.1456C79.3421 80.1456 72.1543 72.9613 72.1543 64.0932C72.1543 55.2269 79.3421 48.0391 88.2084 48.0391C97.0747 48.0391 104.263 55.2269 104.263 64.0932Z" fill="#F15B49"/>
<path d="M89.0331 65.1292L156.265 11.4457C156.836 10.9893 156.93 10.1552 156.473 9.58425C156.017 9.01162 155.183 8.91931 154.612 9.37571L87.3802 63.0575C86.8076 63.5139 86.7153 64.348 87.1717 64.919C87.6281 65.4916 88.4622 65.5856 89.0331 65.1292Z" fill="#533639"/>
<path d="M387.79 85.9166H144.851V255.809H387.79V85.9166Z" fill="white"/>
<path d="M387.79 82.6451H144.851V100.641H387.79V82.6451Z" fill="#00B1E9"/>
<path d="M353.064 91.6429C353.064 94.9436 350.389 97.617 347.091 97.617C343.787 97.617 341.117 94.9436 341.117 91.6429C341.117 88.3422 343.787 85.6705 347.091 85.6705C350.389 85.6705 353.064 88.3422 353.064 91.6429Z" fill="#6DCFF6"/>
<path d="M368.111 91.6429C368.111 94.9436 365.438 97.617 362.137 97.617C358.835 97.617 356.161 94.9436 356.161 91.6429C356.161 88.3422 358.835 85.6705 362.137 85.6705C365.438 85.6705 368.111 88.3422 368.111 91.6429Z" fill="#6DCFF6"/>
<path d="M383.163 91.6429C383.163 94.9436 380.484 97.617 377.184 97.617C373.883 97.617 371.213 94.9436 371.213 91.6429C371.213 88.3422 373.883 85.6705 377.184 85.6705C380.484 85.6705 383.163 88.3422 383.163 91.6429Z" fill="#6DCFF6"/>
<path d="M292.904 91.6429C292.904 94.1505 290.87 96.1846 288.36 96.1846H156.752C154.244 96.1846 152.21 94.1505 152.21 91.6429C152.21 89.1353 154.244 87.1012 156.752 87.1012H288.36C290.87 87.1012 292.904 89.1353 292.904 91.6429Z" fill="#6DCFF6"/>
<path d="M380.911 106.282H152.21V128.382H380.911V106.282Z" fill="#E7E8E9"/>
<path d="M380.911 132.944H152.21V184.753H380.911V132.944Z" fill="#E7E8E9"/>
<path d="M222.096 187.824H152.21V247.868H222.096V187.824Z" fill="#E7E8E9"/>
<path d="M216.169 191.896H158.139V214.325H216.169V191.896Z" fill="#7662AB"/>
<path d="M216.169 218.688H158.139V223.187H216.169V218.688Z" fill="#BCBEC0"/>
<path d="M191.766 225.436H158.139V229.935H191.766V225.436Z" fill="#BCBEC0"/>
<path d="M301.501 187.824H231.618V247.868H301.501V187.824Z" fill="#E7E8E9"/>
<path d="M295.578 191.896H237.55V214.325H295.578V191.896Z" fill="#A07AB6"/>
<path d="M295.578 218.688H237.55V223.187H295.578V218.688Z" fill="#BCBEC0"/>
<path d="M271.178 225.436H237.55V229.935H271.178V225.436Z" fill="#BCBEC0"/>
<path d="M380.912 187.824H311.025V247.868H380.912V187.824Z" fill="#E7E8E9"/>
<path d="M374.981 191.896H316.951V214.325H374.981V191.896Z" fill="#D28FBE"/>
<path d="M374.981 218.688H316.951V223.187H374.981V218.688Z" fill="#BCBEC0"/>
<path d="M350.584 225.436H316.951V229.935H350.584V225.436Z" fill="#BCBEC0"/>
<path d="M170.147 117.331C170.147 120.632 167.475 123.307 164.176 123.307C160.879 123.307 158.2 120.632 158.2 117.331C158.2 114.032 160.879 111.358 164.176 111.358C167.475 111.358 170.147 114.032 170.147 117.331Z" fill="#7662AB"/>
<path d="M232.453 117.329C232.453 119.416 230.763 121.101 228.681 121.101H198.509C196.426 121.101 194.74 119.416 194.74 117.329C194.74 115.249 196.426 113.562 198.509 113.562H228.681C230.763 113.562 232.453 115.249 232.453 117.329Z" fill="#BCBEC0"/>
<path d="M277.701 117.329C277.701 119.416 276.018 121.101 273.934 121.101H243.764C241.681 121.101 239.995 119.416 239.995 117.329C239.995 115.249 241.681 113.562 243.764 113.562H273.934C276.018 113.562 277.701 115.249 277.701 117.329Z" fill="#BCBEC0"/>
<path d="M201.037 239.531C201.037 241.723 199.795 243.501 198.26 243.501H176.048C174.512 243.501 173.272 241.723 173.272 239.531C173.272 237.337 174.512 235.562 176.048 235.562H198.26C199.795 235.562 201.037 237.337 201.037 239.531Z" fill="#D28FBE"/>
<path d="M280.443 239.531C280.443 241.723 279.2 243.501 277.665 243.501H255.454C253.921 243.501 252.68 241.723 252.68 239.531C252.68 237.337 253.921 235.562 255.454 235.562H277.665C279.2 235.562 280.443 237.337 280.443 239.531Z" fill="#7662AB"/>
<path d="M364.463 239.531C364.463 241.723 363.223 243.501 361.688 243.501H339.474C337.941 243.501 336.703 241.723 336.703 239.531C336.703 237.337 337.941 235.562 339.474 235.562H361.688C363.223 235.562 364.463 237.337 364.463 239.531Z" fill="#A07AB6"/>
<path d="M322.959 117.329C322.959 119.416 321.272 121.101 319.186 121.101H289.018C286.936 121.101 285.249 119.416 285.249 117.329C285.249 115.249 286.936 113.562 289.018 113.562H319.186C321.272 113.562 322.959 115.249 322.959 117.329Z" fill="#BCBEC0"/>
<path d="M368.209 117.329C368.209 119.416 366.521 121.101 364.439 121.101H334.271C332.187 121.101 330.498 119.416 330.498 117.329C330.498 115.249 332.187 113.562 334.271 113.562H364.439C366.521 113.562 368.209 115.249 368.209 117.329Z" fill="#BCBEC0"/>
<path d="M120.635 271.778L90.6875 239.372L133.665 199.654L163.61 232.058L120.635 271.778Z" fill="white"/>
<path d="M125.166 203.263C125.166 203.263 164.888 166.551 171.922 160.052C181.819 150.906 191.129 163.069 182.272 171.254C174.198 178.717 141.899 208.565 141.899 208.565" fill="white"/>
<path d="M126.609 204.825C126.609 204.825 136.539 195.648 147.349 185.656C158.158 175.667 169.849 164.864 173.365 161.615C175.577 159.577 177.522 158.919 179.017 158.917C180.402 158.924 181.505 159.457 182.34 160.345C183.169 161.233 183.691 162.497 183.693 163.936C183.684 165.681 182.949 167.714 180.824 169.691C176.79 173.423 166.697 182.751 157.611 191.145C148.528 199.54 140.453 207.003 140.453 207.003C139.588 207.801 139.535 209.146 140.333 210.011C141.132 210.873 142.479 210.927 143.342 210.129C143.342 210.129 175.642 180.281 183.715 172.816C186.592 170.168 187.956 166.946 187.947 163.936C187.949 161.459 187.043 159.15 185.455 157.446C183.877 155.738 181.578 154.656 179.017 154.663C176.233 154.661 173.259 155.909 170.476 158.488C163.442 164.989 123.72 201.699 123.72 201.699C122.855 202.497 122.802 203.844 123.601 204.707C124.399 205.57 125.746 205.623 126.609 204.825Z" fill="#023E5B"/>
<path d="M141.898 208.565L158.831 192.918C168.727 183.771 178.036 195.936 169.178 204.119L152.252 219.765" fill="white"/>
<path d="M143.343 210.128L160.275 194.48C162.487 192.443 164.432 191.785 165.928 191.785C167.313 191.791 168.413 192.325 169.249 193.21C170.077 194.099 170.6 195.362 170.6 196.802C170.593 198.543 169.854 200.577 167.731 202.557L150.806 218.202C149.942 218.999 149.889 220.346 150.688 221.209C151.486 222.072 152.831 222.125 153.696 221.329L170.622 205.682C173.497 203.032 174.864 199.812 174.856 196.802C174.858 194.326 173.952 192.015 172.365 190.311C170.788 188.604 168.489 187.522 165.928 187.528C163.144 187.528 160.169 188.774 157.386 191.356L140.454 207.003C139.589 207.801 139.536 209.146 140.334 210.011C141.132 210.873 142.479 210.926 143.343 210.128Z" fill="#023E5B"/>
<path d="M94.2668 242.203C88.2687 235.193 93.5318 222.599 103.769 208.066C110.317 198.772 113.502 179.848 113.502 179.848C116.363 169.226 131.474 171.565 130.927 181.848L128.785 203.782" fill="white"/>
<path d="M95.885 240.82C94.5158 239.205 93.8748 237.291 93.8628 234.792C93.8543 231.74 94.926 227.889 96.955 223.549C98.9754 219.208 101.921 214.382 105.51 209.292C107.293 206.757 108.772 203.7 110.031 200.519C113.795 190.992 115.582 180.276 115.6 180.201L113.503 179.848L115.556 180.4C116.089 178.443 117.052 177.173 118.216 176.319C119.38 175.471 120.795 175.052 122.233 175.052C123.942 175.049 125.634 175.657 126.831 176.715C128.024 177.784 128.798 179.221 128.814 181.308C128.814 181.443 128.809 181.592 128.802 181.753L130.928 181.848L128.81 181.641L126.668 203.574C126.554 204.745 127.409 205.786 128.579 205.9C129.749 206.013 130.79 205.159 130.904 203.989L133.051 182.004L133.055 181.944C133.063 181.735 133.068 181.525 133.068 181.308C133.084 178.059 131.701 175.303 129.638 173.515C127.58 171.715 124.916 170.799 122.233 170.796C119.975 170.796 117.667 171.456 115.712 172.878C113.754 174.293 112.197 176.484 111.448 179.293L111.418 179.401L111.404 179.495L111.37 179.691C111.192 180.701 110.312 185.465 108.734 191.005C107.168 196.538 104.844 202.873 102.03 206.841C98.3447 212.071 95.2747 217.076 93.0953 221.753C90.9245 226.431 89.6151 230.78 89.6066 234.792C89.5946 238.051 90.5416 241.138 92.6492 243.586C93.4133 244.48 94.7568 244.584 95.6508 243.82C96.5431 243.056 96.649 241.713 95.885 240.82Z" fill="#023E5B"/>
<path d="M152.252 219.765L165.663 207.369C175.56 198.219 184.87 210.387 176.017 218.57L162.6 230.966" fill="white"/>
<path d="M153.695 221.327L167.108 208.931C169.32 206.892 171.267 206.236 172.762 206.234C174.147 206.241 175.248 206.774 176.085 207.661C176.912 208.552 177.436 209.813 177.437 211.254C177.429 212.996 176.69 215.03 174.571 217.008L161.156 229.402C160.293 230.201 160.238 231.547 161.038 232.411C161.836 233.274 163.181 233.327 164.046 232.529L177.461 220.132C180.335 217.483 181.7 214.264 181.692 211.254C181.693 208.777 180.788 206.466 179.201 204.762C177.622 203.054 175.323 201.971 172.762 201.978C169.978 201.978 167.003 203.224 164.219 205.807L150.806 218.203C149.943 218.999 149.89 220.346 150.688 221.209C151.486 222.073 152.831 222.126 153.696 221.329L153.695 221.327Z" fill="#023E5B"/>
<path d="M162.6 230.966L172.499 221.818C182.396 212.673 191.708 224.836 182.852 233.019C182.852 233.019 156.024 257.813 143.127 269.73C130.237 281.645 120.144 270.204 120.144 270.204" fill="white"/>
<path d="M164.044 232.528L173.943 223.38C176.155 221.342 178.102 220.686 179.597 220.684C180.982 220.691 182.084 221.224 182.92 222.111C183.749 223.002 184.272 224.263 184.272 225.704C184.265 227.446 183.527 229.48 181.406 231.456C181.402 231.46 179.731 233.005 177.013 235.516C168.863 243.047 151.354 259.228 141.682 268.168C137.559 271.954 134.062 273.009 131.161 273.022C128.372 273.022 126.003 271.976 124.307 270.886C123.464 270.344 122.798 269.797 122.355 269.399C122.134 269.199 121.969 269.036 121.864 268.927L121.755 268.812L121.734 268.79L121.384 269.106L121.74 268.795L121.734 268.79L121.384 269.106L121.74 268.795C120.96 267.917 119.615 267.831 118.736 268.611C117.854 269.385 117.769 270.732 118.546 271.612C118.639 271.711 119.851 273.077 122.006 274.467C124.155 275.848 127.295 277.274 131.161 277.277C135.187 277.291 139.864 275.663 144.569 271.293C157.466 259.375 184.296 234.581 184.296 234.581C187.171 231.933 188.535 228.713 188.528 225.704C188.528 223.228 187.623 220.917 186.036 219.212C184.457 217.505 182.158 216.423 179.597 216.428C176.811 216.428 173.838 217.674 171.054 220.255L161.155 229.402C160.292 230.2 160.237 231.547 161.037 232.41C161.835 233.273 163.181 233.326 164.046 232.528H164.044Z" fill="#023E5B"/>
<path d="M120.144 270.204C120.144 270.204 118.58 271.648 116.627 273.455C114.675 275.258 112.019 275.787 109.611 273.178C107.206 270.571 93.4899 255.733 90.6011 252.606C87.714 249.48 89.3174 246.779 90.6216 245.574C91.9224 244.372 94.2676 242.203 94.2676 242.203" fill="white"/>
<path d="M118.697 268.639C118.697 268.639 117.136 270.086 115.183 271.892C114.454 272.566 113.743 272.848 113.186 272.841C112.914 272.839 112.648 272.788 112.319 272.632C111.993 272.477 111.607 272.202 111.174 271.733C108.767 269.125 95.0516 254.288 92.1629 251.161C91.2569 250.158 91.1219 249.517 91.1099 249.032C91.1099 248.678 91.2091 248.338 91.3885 247.999C91.5663 247.664 91.8313 247.348 92.0603 247.139L92.0654 247.136C93.3645 245.934 95.7097 243.765 95.7097 243.765C96.573 242.967 96.6259 241.622 95.8294 240.758C95.0311 239.895 93.6842 239.842 92.8227 240.64C92.8175 240.642 90.4757 242.808 89.1766 244.01L89.1801 244.006C88.6416 244.504 88.0878 245.155 87.6365 245.991C87.1904 246.823 86.8537 247.859 86.8537 249.032C86.8417 250.685 87.5647 252.476 89.0365 254.049C91.9253 257.177 105.643 272.015 108.046 274.622C108.781 275.419 109.593 276.041 110.468 276.465C111.342 276.89 112.278 277.099 113.186 277.097C115.123 277.092 116.793 276.198 118.071 275.02C120.027 273.209 121.584 271.771 121.587 271.766C122.451 270.968 122.504 269.622 121.705 268.759C120.909 267.896 119.562 267.843 118.7 268.641L118.697 268.639Z" fill="#023E5B"/>
<path d="M188.988 156.492L195.224 150.725C195.767 150.222 195.802 149.372 195.297 148.829C194.795 148.285 193.945 148.251 193.402 148.755L187.166 154.521C186.623 155.023 186.588 155.873 187.093 156.417C187.595 156.96 188.445 156.994 188.988 156.492Z" fill="#023E5B"/>
<path d="M160.416 147.877L166.18 154.111C166.683 154.656 167.532 154.689 168.076 154.186C168.619 153.683 168.654 152.834 168.149 152.29L162.387 146.055C161.885 145.511 161.035 145.477 160.492 145.981C159.948 146.484 159.914 147.333 160.416 147.877Z" fill="#023E5B"/>
<path d="M192.23 168.254L200.716 168.587C201.458 168.616 202.081 168.04 202.111 167.3C202.14 166.558 201.563 165.934 200.822 165.905L192.336 165.572C191.595 165.543 190.972 166.119 190.942 166.859C190.913 167.601 191.489 168.225 192.23 168.254Z" fill="#023E5B"/>
<path d="M153.432 160.295L161.705 162.215C162.427 162.382 163.148 161.933 163.315 161.211C163.483 160.488 163.033 159.769 162.312 159.599L154.039 157.68C153.317 157.512 152.596 157.962 152.429 158.685C152.261 159.406 152.711 160.128 153.432 160.295Z" fill="#023E5B"/>
<path d="M194.459 180.758L188.695 174.522C188.193 173.979 187.343 173.944 186.8 174.449C186.254 174.951 186.222 175.801 186.725 176.344L192.488 182.58C192.993 183.124 193.84 183.158 194.386 182.653C194.929 182.151 194.962 181.301 194.459 180.758Z" fill="#023E5B"/>
<path d="M182.213 188.164L180.951 179.769C180.84 179.036 180.157 178.532 179.423 178.641C178.69 178.751 178.186 179.434 178.295 180.169L179.558 188.564C179.668 189.296 180.352 189.801 181.085 189.69C181.818 189.581 182.322 188.897 182.213 188.164Z" fill="#023E5B"/>
<path d="M176.029 141.875L175.695 150.36C175.666 151.102 176.242 151.724 176.983 151.755C177.724 151.784 178.348 151.206 178.377 150.466L178.711 141.981C178.74 141.241 178.164 140.617 177.424 140.588C176.682 140.559 176.058 141.135 176.029 141.875Z" fill="#023E5B"/>
<mask id="mask0_152_23705" style="mask-type:luminance" maskUnits="userSpaceOnUse" x="200" y="142" width="133" height="29">
<path d="M332.169 156.473C332.169 164.237 325.873 170.529 318.108 170.529H214.536C206.77 170.529 200.475 164.237 200.475 156.473C200.475 148.708 206.77 142.416 214.536 142.416H318.108C325.873 142.416 332.169 148.708 332.169 156.473Z" fill="white"/>
</mask>
<g mask="url(#mask0_152_23705)">
<path d="M200.987 142.416H200.475V170.529H200.987V142.416Z" fill="#B43925"/>
<path d="M201.502 142.416H200.987V170.529H201.502V142.416Z" fill="#B43925"/>
<path d="M202.015 142.416H201.501V170.529H202.015V142.416Z" fill="#B43925"/>
<path d="M202.53 142.416H202.016V170.529H202.53V142.416Z" fill="#B43925"/>
<path d="M203.045 142.416H202.53V170.529H203.045V142.416Z" fill="#B43925"/>
<path d="M203.559 142.416H203.045V170.529H203.559V142.416Z" fill="#B43925"/>
<path d="M204.074 142.416H203.56V170.529H204.074V142.416Z" fill="#B43925"/>
<path d="M204.588 142.416H204.073V170.529H204.588V142.416Z" fill="#B43925"/>
<path d="M205.102 142.416H204.588V170.529H205.102V142.416Z" fill="#B43925"/>
<path d="M205.617 142.416H205.103V170.529H205.617V142.416Z" fill="#B43925"/>
<path d="M206.133 142.416H205.618V170.529H206.133V142.416Z" fill="#B43925"/>
<path d="M206.646 142.416H206.132V170.529H206.646V142.416Z" fill="#B43925"/>
<path d="M207.161 142.416H206.646V170.529H207.161V142.416Z" fill="#B43925"/>
<path d="M207.676 142.416H207.161V170.529H207.676V142.416Z" fill="#B43925"/>
<path d="M208.19 142.416H207.676V170.529H208.19V142.416Z" fill="#B43925"/>
<path d="M208.705 142.416H208.19V170.529H208.705V142.416Z" fill="#B43925"/>
<path d="M209.219 142.416H208.704V170.529H209.219V142.416Z" fill="#B43925"/>
<path d="M209.733 142.416H209.219V170.529H209.733V142.416Z" fill="#B43925"/>
<path d="M210.248 142.416H209.733V170.529H210.248V142.416Z" fill="#B43925"/>
<path d="M210.763 142.416H210.248V170.529H210.763V142.416Z" fill="#B43925"/>
<path d="M211.277 142.416H210.763V170.529H211.277V142.416Z" fill="#B43925"/>
<path d="M211.79 142.416H211.277V170.529H211.79V142.416Z" fill="#B43925"/>
<path d="M212.305 142.416H211.79V170.529H212.305V142.416Z" fill="#B43925"/>
<path d="M212.819 142.416H212.305V170.529H212.819V142.416Z" fill="#B43925"/>
<path d="M213.334 142.416H212.819V170.529H213.334V142.416Z" fill="#B43925"/>
<path d="M213.848 142.416H213.334V170.529H213.848V142.416Z" fill="#B43925"/>
<path d="M214.362 142.416H213.848V170.529H214.362V142.416Z" fill="#B43925"/>
<path d="M214.877 142.416H214.362V170.529H214.877V142.416Z" fill="#B43925"/>
<path d="M215.391 142.416H214.877V170.529H215.391V142.416Z" fill="#B43925"/>
<path d="M215.906 142.416H215.392V170.529H215.906V142.416Z" fill="#B43925"/>
<path d="M216.42 142.416H215.905V170.529H216.42V142.416Z" fill="#B43925"/>
<path d="M216.935 142.416H216.421V170.529H216.935V142.416Z" fill="#B43925"/>
<path d="M217.449 142.416H216.935V170.529H217.449V142.416Z" fill="#B43925"/>
<path d="M217.965 142.416H217.45V170.529H217.965V142.416Z" fill="#B43925"/>
<path d="M218.478 142.416H217.964V170.529H218.478V142.416Z" fill="#B43925"/>
<path d="M218.993 142.416H218.479V170.529H218.993V142.416Z" fill="#B43925"/>
<path d="M219.508 142.416H218.993V170.529H219.508V142.416Z" fill="#B43925"/>
<path d="M220.022 142.416H219.508V170.529H220.022V142.416Z" fill="#B43925"/>
<path d="M220.537 142.416H220.022V170.529H220.537V142.416Z" fill="#B43925"/>
<path d="M221.051 142.416H220.536V170.529H221.051V142.416Z" fill="#B43925"/>
<path d="M221.565 142.416H221.051V170.529H221.565V142.416Z" fill="#B43925"/>
<path d="M222.08 142.416H221.565V170.529H222.08V142.416Z" fill="#B43925"/>
<path d="M222.593 142.416H222.08V170.529H222.593V142.416Z" fill="#B43925"/>
<path d="M223.108 142.416H222.594V170.529H223.108V142.416Z" fill="#B43925"/>
<path d="M223.622 142.416H223.107V170.529H223.622V142.416Z" fill="#B43925"/>
<path d="M224.137 142.416H223.622V170.529H224.137V142.416Z" fill="#B43925"/>
<path d="M224.651 142.416H224.137V170.529H224.651V142.416Z" fill="#B43925"/>
<path d="M225.166 142.416H224.651V170.529H225.166V142.416Z" fill="#B43925"/>
<path d="M225.681 142.416H225.166V170.529H225.681V142.416Z" fill="#B43925"/>
<path d="M226.194 142.416H225.68V170.529H226.194V142.416Z" fill="#B43925"/>
<path d="M226.709 142.416H226.194V170.529H226.709V142.416Z" fill="#B43925"/>
<path d="M227.224 142.416H226.709V170.529H227.224V142.416Z" fill="#B43925"/>
<path d="M227.738 142.416H227.224V170.529H227.738V142.416Z" fill="#B43925"/>
<path d="M228.253 142.416H227.738V170.529H228.253V142.416Z" fill="#B43925"/>
<path d="M228.766 142.416H228.252V170.529H228.766V142.416Z" fill="#B43925"/>
<path d="M229.282 142.416H228.768V170.529H229.282V142.416Z" fill="#B43925"/>
<path d="M229.797 142.416H229.282V170.529H229.797V142.416Z" fill="#B43925"/>
<path d="M230.311 142.416H229.797V170.529H230.311V142.416Z" fill="#B43925"/>
<path d="M230.825 142.416H230.311V170.529H230.825V142.416Z" fill="#B43925"/>
<path d="M231.34 142.416H230.825V170.529H231.34V142.416Z" fill="#B43925"/>
<path d="M231.854 142.416H231.34V170.529H231.854V142.416Z" fill="#B43925"/>
<path d="M232.369 142.416H231.854V170.529H232.369V142.416Z" fill="#B33926"/>
<path d="M232.883 142.416H232.368V170.529H232.883V142.416Z" fill="#B23926"/>
<path d="M233.396 142.416H232.883V170.529H233.396V142.416Z" fill="#B23926"/>
<path d="M233.91 142.416H233.396V170.529H233.91V142.416Z" fill="#B13927"/>
<path d="M234.426 142.416H233.911V170.529H234.426V142.416Z" fill="#B03928"/>
<path d="M234.94 142.416H234.426V170.529H234.94V142.416Z" fill="#AF3928"/>
<path d="M235.455 142.416H234.94V170.529H235.455V142.416Z" fill="#AE3929"/>
<path d="M235.968 142.416H235.453V170.529H235.968V142.416Z" fill="#AE392A"/>
<path d="M236.483 142.416H235.969V170.529H236.483V142.416Z" fill="#AC392B"/>
<path d="M236.998 142.416H236.483V170.529H236.998V142.416Z" fill="#AC392B"/>
<path d="M237.513 142.416H236.998V170.529H237.513V142.416Z" fill="#AB392C"/>
<path d="M238.026 142.416H237.512V170.529H238.026V142.416Z" fill="#AA392D"/>
<path d="M238.541 142.416H238.026V170.529H238.541V142.416Z" fill="#AA392D"/>
<path d="M239.056 142.416H238.541V170.529H239.056V142.416Z" fill="#A9392E"/>
<path d="M239.57 142.416H239.056V170.529H239.57V142.416Z" fill="#A8392F"/>
<path d="M240.085 142.416H239.57V170.529H240.085V142.416Z" fill="#A7392F"/>
<path d="M240.599 142.416H240.085V170.529H240.599V142.416Z" fill="#A63A30"/>
<path d="M241.114 142.416H240.6V170.529H241.114V142.416Z" fill="#A53931"/>
<path d="M241.628 142.416H241.113V170.529H241.628V142.416Z" fill="#A53A31"/>
<path d="M242.142 142.416H241.628V170.529H242.142V142.416Z" fill="#A43A32"/>
<path d="M242.657 142.416H242.143V170.529H242.657V142.416Z" fill="#A33A33"/>
<path d="M243.172 142.416H242.657V170.529H243.172V142.416Z" fill="#A23A33"/>
<path d="M243.686 142.416H243.172V170.529H243.686V142.416Z" fill="#A23A34"/>
<path d="M244.199 142.416H243.687V170.529H244.199V142.416Z" fill="#A03A35"/>
<path d="M244.714 142.416H244.199V170.529H244.714V142.416Z" fill="#A03A35"/>
<path d="M245.228 142.416H244.714V170.529H245.228V142.416Z" fill="#9E3A36"/>
<path d="M245.742 142.416H245.228V170.529H245.742V142.416Z" fill="#9E3A37"/>
<path d="M246.257 142.416H245.742V170.529H246.257V142.416Z" fill="#9E3A38"/>
<path d="M246.771 142.416H246.257V170.529H246.771V142.416Z" fill="#9C3A38"/>
<path d="M247.286 142.416H246.771V170.529H247.286V142.416Z" fill="#9C3A39"/>
<path d="M247.801 142.416H247.286V170.529H247.801V142.416Z" fill="#9A3A3A"/>
<path d="M248.315 142.416H247.801V170.529H248.315V142.416Z" fill="#9A3A3A"/>
<path d="M248.83 142.416H248.315V170.529H248.83V142.416Z" fill="#993A3B"/>
<path d="M249.345 142.416H248.83V170.529H249.345V142.416Z" fill="#983A3C"/>
<path d="M249.859 142.416H249.345V170.529H249.859V142.416Z" fill="#973A3C"/>
<path d="M250.373 142.416H249.858V170.529H250.373V142.416Z" fill="#963A3D"/>
<path d="M250.888 142.416H250.373V170.529H250.888V142.416Z" fill="#963A3E"/>
<path d="M251.402 142.416H250.888V170.529H251.402V142.416Z" fill="#953A3E"/>
<path d="M251.917 142.416H251.402V170.529H251.917V142.416Z" fill="#943A3F"/>
<path d="M252.431 142.416H251.916V170.529H252.431V142.416Z" fill="#933A40"/>
<path d="M252.945 142.416H252.431V170.529H252.945V142.416Z" fill="#923A40"/>
<path d="M253.46 142.416H252.945V170.529H253.46V142.416Z" fill="#923A41"/>
<path d="M253.975 142.416H253.461V170.529H253.975V142.416Z" fill="#913A42"/>
<path d="M254.489 142.416H253.975V170.529H254.489V142.416Z" fill="#903A43"/>
<path d="M255.002 142.416H254.489V170.529H255.002V142.416Z" fill="#8F3A43"/>
<path d="M255.515 142.416H255.001V170.529H255.515V142.416Z" fill="#8E3A44"/>
<path d="M256.031 142.416H255.517V170.529H256.031V142.416Z" fill="#8E3A45"/>
<path d="M256.546 142.416H256.031V170.529H256.546V142.416Z" fill="#8D3A45"/>
<path d="M257.06 142.416H256.546V170.529H257.06V142.416Z" fill="#8C3A46"/>
<path d="M257.574 142.416H257.06V170.529H257.574V142.416Z" fill="#8B3A47"/>
<path d="M258.089 142.416H257.574V170.529H258.089V142.416Z" fill="#8A3A47"/>
<path d="M258.603 142.416H258.089V170.529H258.603V142.416Z" fill="#893A48"/>
<path d="M259.119 142.416H258.604V170.529H259.119V142.416Z" fill="#893A48"/>
<path d="M259.633 142.416H259.118V170.529H259.633V142.416Z" fill="#873A49"/>
<path d="M260.146 142.416H259.632V170.529H260.146V142.416Z" fill="#873A4A"/>
<path d="M260.661 142.416H260.146V170.529H260.661V142.416Z" fill="#863A4B"/>
<path d="M261.177 142.416H260.662V170.529H261.177V142.416Z" fill="#853A4B"/>
<path d="M261.691 142.416H261.177V170.529H261.691V142.416Z" fill="#853A4C"/>
<path d="M262.205 142.416H261.69V170.529H262.205V142.416Z" fill="#833A4C"/>
<path d="M262.72 142.416H262.205V170.529H262.72V142.416Z" fill="#833A4D"/>
<path d="M263.234 142.416H262.72V170.529H263.234V142.416Z" fill="#813A4D"/>
<path d="M263.749 142.416H263.234V170.529H263.749V142.416Z" fill="#813A4E"/>
<path d="M264.264 142.416H263.749V170.529H264.264V142.416Z" fill="#803A4F"/>
<path d="M264.777 142.416H264.263V170.529H264.777V142.416Z" fill="#7F3A4F"/>
<path d="M265.292 142.416H264.777V170.529H265.292V142.416Z" fill="#7F3A50"/>
<path d="M265.806 142.416H265.292V170.529H265.806V142.416Z" fill="#7E3A50"/>
<path d="M266.319 142.416H265.807V170.529H266.319V142.416Z" fill="#7D3A51"/>
<path d="M266.834 142.416H266.319V170.529H266.834V142.416Z" fill="#7C3A51"/>
<path d="M267.349 142.416H266.834V170.529H267.349V142.416Z" fill="#7B3A52"/>
<path d="M267.863 142.416H267.349V170.529H267.863V142.416Z" fill="#7A3A52"/>
<path d="M268.378 142.416H267.863V170.529H268.378V142.416Z" fill="#7A3A53"/>
<path d="M268.892 142.416H268.378V170.529H268.892V142.416Z" fill="#783A54"/>
<path d="M269.406 142.416H268.892V170.529H269.406V142.416Z" fill="#783A54"/>
<path d="M269.921 142.416H269.406V170.529H269.921V142.416Z" fill="#773A55"/>
<path d="M270.435 142.416H269.921V170.529H270.435V142.416Z" fill="#763A56"/>
<path d="M270.95 142.416H270.436V170.529H270.95V142.416Z" fill="#753A56"/>
<path d="M271.465 142.416H270.95V170.529H271.465V142.416Z" fill="#743A57"/>
<path d="M271.978 142.416H271.464V170.529H271.978V142.416Z" fill="#743A57"/>
<path d="M272.494 142.416H271.979V170.529H272.494V142.416Z" fill="#723A58"/>
<path d="M273.009 142.416H272.494V170.529H273.009V142.416Z" fill="#723A58"/>
<path d="M273.523 142.416H273.009V170.529H273.523V142.416Z" fill="#713A59"/>
<path d="M274.037 142.416H273.522V170.529H274.037V142.416Z" fill="#703B5A"/>
<path d="M274.552 142.416H274.037V170.529H274.552V142.416Z" fill="#6F3B5A"/>
<path d="M275.066 142.416H274.552V170.529H275.066V142.416Z" fill="#6E3B5B"/>
<path d="M275.581 142.416H275.066V170.529H275.581V142.416Z" fill="#6D3B5B"/>
<path d="M276.096 142.416H275.581V170.529H276.096V142.416Z" fill="#6C3B5C"/>
<path d="M276.609 142.416H276.095V170.529H276.609V142.416Z" fill="#6B3B5C"/>
<path d="M277.122 142.416H276.609V170.529H277.122V142.416Z" fill="#6A3B5D"/>
<path d="M277.637 142.416H277.122V170.529H277.637V142.416Z" fill="#693B5D"/>
<path d="M278.152 142.416H277.638V170.529H278.152V142.416Z" fill="#683A5E"/>
<path d="M278.666 142.416H278.151V170.529H278.666V142.416Z" fill="#683B5E"/>
<path d="M279.181 142.416H278.666V170.529H279.181V142.416Z" fill="#673B5F"/>
<path d="M279.695 142.416H279.181V170.529H279.695V142.416Z" fill="#663B5F"/>
<path d="M280.21 142.416H279.695V170.529H280.21V142.416Z" fill="#643B60"/>
<path d="M280.724 142.416H280.21V170.529H280.724V142.416Z" fill="#643B60"/>
<path d="M281.239 142.416H280.725V170.529H281.239V142.416Z" fill="#633B61"/>
<path d="M281.753 142.416H281.238V170.529H281.753V142.416Z" fill="#623A61"/>
<path d="M282.267 142.416H281.753V170.529H282.267V142.416Z" fill="#613A62"/>
<path d="M282.782 142.416H282.268V170.529H282.782V142.416Z" fill="#603A62"/>
<path d="M283.297 142.416H282.782V170.529H283.297V142.416Z" fill="#5F3A63"/>
<path d="M283.81 142.416H283.296V170.529H283.81V142.416Z" fill="#5E3A64"/>
<path d="M284.326 142.416H283.812V170.529H284.326V142.416Z" fill="#5D3A64"/>
<path d="M284.841 142.416H284.326V170.529H284.841V142.416Z" fill="#5C3A65"/>
<path d="M285.355 142.416H284.841V170.529H285.355V142.416Z" fill="#5B3A65"/>
<path d="M285.87 142.416H285.355V170.529H285.87V142.416Z" fill="#5A3A66"/>
<path d="M286.384 142.416H285.869V170.529H286.384V142.416Z" fill="#593A67"/>
<path d="M286.898 142.416H286.384V170.529H286.898V142.416Z" fill="#583A67"/>
<path d="M287.413 142.416H286.898V170.529H287.413V142.416Z" fill="#573A67"/>
<path d="M287.926 142.416H287.413V170.529H287.926V142.416Z" fill="#553A68"/>
<path d="M288.44 142.416H287.926V170.529H288.44V142.416Z" fill="#553A69"/>
<path d="M288.954 142.416H288.439V170.529H288.954V142.416Z" fill="#543A69"/>
<path d="M289.469 142.416H288.954V170.529H289.469V142.416Z" fill="#523A6A"/>
<path d="M289.983 142.416H289.469V170.529H289.983V142.416Z" fill="#523A6A"/>
<path d="M290.498 142.416H289.983V170.529H290.498V142.416Z" fill="#503A6B"/>
<path d="M291.013 142.416H290.498V170.529H291.013V142.416Z" fill="#4F3A6B"/>
<path d="M291.527 142.416H291.013V170.529H291.527V142.416Z" fill="#4E3A6C"/>
<path d="M292.042 142.416H291.527V170.529H292.042V142.416Z" fill="#4D3A6C"/>
<path d="M292.556 142.416H292.042V170.529H292.556V142.416Z" fill="#4C3A6D"/>
<path d="M293.071 142.416H292.557V170.529H293.071V142.416Z" fill="#4A3B6D"/>
<path d="M293.585 142.416H293.07V170.529H293.585V142.416Z" fill="#4A3A6E"/>
<path d="M294.099 142.416H293.585V170.529H294.099V142.416Z" fill="#493A6F"/>
<path d="M294.614 142.416H294.1V170.529H294.614V142.416Z" fill="#473A6F"/>
<path d="M295.129 142.416H294.614V170.529H295.129V142.416Z" fill="#463A70"/>
<path d="M295.643 142.416H295.129V170.529H295.643V142.416Z" fill="#443A70"/>
<path d="M296.158 142.416H295.644V170.529H296.158V142.416Z" fill="#433A71"/>
<path d="M296.673 142.416H296.158V170.529H296.673V142.416Z" fill="#423A71"/>
<path d="M297.187 142.416H296.673V170.529H297.187V142.416Z" fill="#413A72"/>
<path d="M297.702 142.416H297.188V170.529H297.702V142.416Z" fill="#403B73"/>
<path d="M298.216 142.416H297.701V170.529H298.216V142.416Z" fill="#3E3B73"/>
<path d="M298.729 142.416H298.216V170.529H298.729V142.416Z" fill="#3D3B74"/>
<path d="M299.243 142.416H298.729V170.529H299.243V142.416Z" fill="#3C3B74"/>
<path d="M299.758 142.416H299.243V170.529H299.758V142.416Z" fill="#3A3B75"/>
<path d="M300.272 142.416H299.758V170.529H300.272V142.416Z" fill="#393B75"/>
<path d="M300.787 142.416H300.272V170.529H300.787V142.416Z" fill="#373B76"/>
<path d="M301.301 142.416H300.786V170.529H301.301V142.416Z" fill="#363B76"/>
<path d="M301.815 142.416H301.301V170.529H301.815V142.416Z" fill="#353A77"/>
<path d="M302.331 142.416H301.816V170.529H302.331V142.416Z" fill="#333B78"/>
<path d="M302.845 142.416H302.33V170.529H302.845V142.416Z" fill="#323B78"/>
<path d="M303.358 142.416H302.844V170.529H303.358V142.416Z" fill="#303B79"/>
<path d="M303.873 142.416H303.358V170.529H303.873V142.416Z" fill="#2F3B79"/>
<path d="M304.389 142.416H303.874V170.529H304.389V142.416Z" fill="#2D3B7A"/>
<path d="M304.903 142.416H304.389V170.529H304.903V142.416Z" fill="#2B3B7A"/>
<path d="M305.417 142.416H304.902V170.529H305.417V142.416Z" fill="#2A3B7A"/>
<path d="M305.931 142.416H305.417V170.529H305.931V142.416Z" fill="#283B7B"/>
<path d="M306.446 142.416H305.932V170.529H306.446V142.416Z" fill="#263B7C"/>
<path d="M306.962 142.416H306.447V170.529H306.962V142.416Z" fill="#253B7C"/>
<path d="M307.475 142.416H306.961V170.529H307.475V142.416Z" fill="#253B7C"/>
<path d="M307.989 142.416H307.475V170.529H307.989V142.416Z" fill="#253B7C"/>
<path d="M308.504 142.416H307.989V170.529H308.504V142.416Z" fill="#253B7C"/>
<path d="M309.019 142.416H308.505V170.529H309.019V142.416Z" fill="#253B7C"/>
<path d="M309.534 142.416H309.02V170.529H309.534V142.416Z" fill="#253B7C"/>
<path d="M309.532 142.416H310.047V170.529H309.534L309.532 142.416Z" fill="#253B7C"/>
<path d="M310.56 142.416H310.046V170.529H310.56V142.416Z" fill="#253B7C"/>
<path d="M311.075 142.416H310.561V170.529H311.075V142.416Z" fill="#253B7C"/>
<path d="M311.59 142.416H311.075V170.529H311.59V142.416Z" fill="#253B7C"/>
<path d="M312.104 142.416H311.59V170.529H312.104V142.416Z" fill="#253B7C"/>
<path d="M312.619 142.416H312.104V170.529H312.619V142.416Z" fill="#253B7C"/>
<path d="M313.133 142.416H312.618V170.529H313.133V142.416Z" fill="#253B7C"/>
<path d="M313.647 142.416H313.133V170.529H313.647V142.416Z" fill="#253B7C"/>
<path d="M314.162 142.416H313.647V170.529H314.162V142.416Z" fill="#253B7C"/>
<path d="M314.677 142.416H314.162V170.529H314.677V142.416Z" fill="#253B7C"/>
<path d="M315.191 142.416H314.677V170.529H315.191V142.416Z" fill="#253B7C"/>
<path d="M315.706 142.416H315.191V170.529H315.706V142.416Z" fill="#253B7C"/>
<path d="M316.221 142.416H315.706V170.529H316.221V142.416Z" fill="#253B7C"/>
<path d="M316.734 142.416H316.22V170.529H316.734V142.416Z" fill="#253B7C"/>
<path d="M317.249 142.416H316.734V170.529H317.249V142.416Z" fill="#253B7C"/>
<path d="M317.764 142.416H317.249V170.529H317.764V142.416Z" fill="#253B7C"/>
<path d="M318.278 142.416H317.764V170.529H318.278V142.416Z" fill="#253B7C"/>
<path d="M318.793 142.416H318.278V170.529H318.793V142.416Z" fill="#253B7C"/>
<path d="M319.307 142.416H318.793V170.529H319.307V142.416Z" fill="#253B7C"/>
<path d="M319.821 142.416H319.307V170.529H319.821V142.416Z" fill="#253B7C"/>
<path d="M320.335 142.416H319.822V170.529H320.335V142.416Z" fill="#253B7C"/>
<path d="M320.849 142.416H320.335V170.529H320.849V142.416Z" fill="#253B7C"/>
<path d="M321.363 142.416H320.849V170.529H321.363V142.416Z" fill="#253B7C"/>
<path d="M321.878 142.416H321.363V170.529H321.878V142.416Z" fill="#253B7C"/>
<path d="M322.393 142.416H321.879V170.529H322.393V142.416Z" fill="#253B7C"/>
<path d="M322.907 142.416H322.393V170.529H322.907V142.416Z" fill="#253B7C"/>
<path d="M323.422 142.416H322.907V170.529H323.422V142.416Z" fill="#253B7C"/>
<path d="M323.936 142.416H323.422V170.529H323.936V142.416Z" fill="#253B7C"/>
<path d="M324.451 142.416H323.937V170.529H324.451V142.416Z" fill="#253B7C"/>
<path d="M324.965 142.416H324.45V170.529H324.965V142.416Z" fill="#253B7C"/>
<path d="M325.479 142.416H324.965V170.529H325.479V142.416Z" fill="#253B7C"/>
<path d="M325.994 142.416H325.479V170.529H325.994V142.416Z" fill="#253B7C"/>
<path d="M326.509 142.416H325.994V170.529H326.509V142.416Z" fill="#253B7C"/>
<path d="M327.023 142.416H326.509V170.529H327.023V142.416Z" fill="#253B7C"/>
<path d="M327.537 142.416H327.022V170.529H327.537V142.416Z" fill="#253B7C"/>
<path d="M328.052 142.416H327.537V170.529H328.052V142.416Z" fill="#253B7C"/>
<path d="M328.566 142.416H328.052V170.529H328.566V142.416Z" fill="#253B7C"/>
<path d="M329.082 142.416H328.567V170.529H329.082V142.416Z" fill="#253B7C"/>
<path d="M329.596 142.416H329.081V170.529H329.596V142.416Z" fill="#253B7C"/>
<path d="M330.11 142.416H329.596V170.529H330.11V142.416Z" fill="#253B7C"/>
<path d="M330.625 142.416H330.11V170.529H330.625V142.416Z" fill="#253B7C"/>
<path d="M331.14 142.416H330.625V170.529H331.14V142.416Z" fill="#253B7C"/>
<path d="M331.652 142.416H331.14V170.529H331.652V142.416Z" fill="#253B7C"/>
<path d="M332.167 142.416H331.652V170.529H332.167V142.416Z" fill="#253B7C"/>
<path d="M332.168 142.416H332.166V170.529H332.168V142.416Z" fill="#253B7C"/>
</g>
<path d="M244.61 157.742C245.285 157.742 245.873 157.66 246.374 157.496C246.876 157.323 247.29 157.081 247.619 156.771C247.956 156.452 248.207 156.069 248.371 155.623C248.535 155.167 248.617 154.661 248.617 154.105C248.617 153.576 248.535 153.097 248.371 152.669C248.207 152.24 247.96 151.876 247.632 151.575C247.304 151.274 246.889 151.046 246.388 150.891C245.886 150.727 245.294 150.645 244.61 150.645H241.862V157.742H244.61ZM244.61 147.801C245.932 147.801 247.076 147.956 248.043 148.266C249.009 148.576 249.807 149.009 250.436 149.565C251.065 150.121 251.53 150.786 251.83 151.561C252.14 152.336 252.295 153.184 252.295 154.105C252.295 155.062 252.136 155.942 251.817 156.744C251.498 157.537 251.019 158.221 250.381 158.795C249.743 159.37 248.941 159.816 247.974 160.135C247.017 160.454 245.896 160.614 244.61 160.614H241.862V167.574H238.183V147.801H244.61ZM268.107 157.742C268.782 157.742 269.37 157.66 269.871 157.496C270.373 157.323 270.787 157.081 271.116 156.771C271.453 156.452 271.704 156.069 271.868 155.623C272.032 155.167 272.114 154.661 272.114 154.105C272.114 153.576 272.032 153.097 271.868 152.669C271.704 152.24 271.457 151.876 271.129 151.575C270.801 151.274 270.386 151.046 269.885 150.891C269.383 150.727 268.791 150.645 268.107 150.645H265.359V157.742H268.107ZM268.107 147.801C269.429 147.801 270.573 147.956 271.54 148.266C272.506 148.576 273.304 149.009 273.933 149.565C274.562 150.121 275.027 150.786 275.327 151.561C275.637 152.336 275.792 153.184 275.792 154.105C275.792 155.062 275.633 155.942 275.314 156.744C274.995 157.537 274.516 158.221 273.878 158.795C273.24 159.37 272.438 159.816 271.471 160.135C270.514 160.454 269.393 160.614 268.107 160.614H265.359V167.574H261.68V147.801H268.107ZM298.756 162.911C298.957 162.911 299.134 162.989 299.289 163.144L300.739 164.716C299.937 165.71 298.947 166.471 297.771 167C296.605 167.529 295.201 167.793 293.56 167.793C292.092 167.793 290.77 167.542 289.594 167.041C288.427 166.54 287.429 165.842 286.599 164.949C285.77 164.055 285.131 162.989 284.685 161.749C284.247 160.509 284.028 159.155 284.028 157.688C284.028 156.202 284.265 154.843 284.739 153.612C285.214 152.373 285.879 151.306 286.736 150.413C287.602 149.519 288.632 148.826 289.826 148.334C291.021 147.833 292.343 147.582 293.792 147.582C295.233 147.582 296.509 147.819 297.621 148.293C298.742 148.767 299.695 149.387 300.479 150.153L299.248 151.862C299.175 151.972 299.08 152.067 298.961 152.149C298.852 152.231 298.697 152.272 298.496 152.272C298.359 152.272 298.218 152.236 298.072 152.163C297.926 152.081 297.767 151.985 297.594 151.876C297.42 151.757 297.22 151.63 296.992 151.493C296.764 151.356 296.5 151.233 296.199 151.124C295.898 151.005 295.547 150.909 295.146 150.837C294.754 150.754 294.298 150.713 293.778 150.713C292.894 150.713 292.083 150.873 291.344 151.192C290.615 151.502 289.986 151.958 289.457 152.56C288.928 153.152 288.518 153.881 288.227 154.747C287.935 155.604 287.789 156.584 287.789 157.688C287.789 158.8 287.944 159.789 288.254 160.655C288.573 161.521 289.001 162.25 289.539 162.843C290.077 163.435 290.711 163.891 291.44 164.21C292.169 164.52 292.953 164.675 293.792 164.675C294.294 164.675 294.745 164.648 295.146 164.593C295.556 164.539 295.93 164.452 296.267 164.333C296.614 164.215 296.937 164.065 297.238 163.882C297.548 163.691 297.854 163.458 298.154 163.185C298.246 163.103 298.341 163.039 298.442 162.993C298.542 162.939 298.647 162.911 298.756 162.911Z" fill="white"/>
</g>
<defs>
<clipPath id="clip0_152_23705">
<rect width="594.246" height="375" fill="white"/>
</clipPath>
</defs>
</svg>
