<svg width="619" height="390" viewBox="0 0 619 390" fill="none" xmlns="http://www.w3.org/2000/svg">
<g clip-path="url(#clip0_189_24408)">
<g opacity="0.5">
<path d="M241.082 0C302.298 0 356.448 30.2532 389.397 76.6235C389.397 76.6235 410.382 106.67 421.533 114.654C433.242 123.038 447.546 127.014 461.848 128.694C516.334 135.095 558.605 181.427 558.605 237.632C558.606 297.898 510.438 346.64 450.177 347.32C417.72 347.685 290.536 352.121 241.082 352.121C140.665 352.121 59.2607 282.238 59.2607 181.821C59.2607 81.404 140.665 0 241.082 0Z" fill="#ECE1FF"/>
<path d="M426.977 12.6868C403.845 11.0718 383.451 34.5694 392.666 55.8474C400.739 74.4884 412.161 94.8411 427.081 107.531C460.493 135.949 502.356 125.971 515.231 93.4255C528.106 60.8797 498.505 29.848 465.011 19.5586C452.599 15.7453 441.181 13.6783 426.977 12.6868Z" fill="#ECE1FF"/>
</g>
<path d="M-8.7334 381.59C-8.7334 381.59 -5.8362 355.153 24.2227 356.601C24.2227 356.601 27.1199 335.596 44.1413 330.345C61.1626 325.094 81.0811 334.691 85.7892 355.968C85.7892 355.968 100.275 343.593 119.832 351.365C139.388 359.137 135.767 381.59 135.767 381.59H-8.7334V381.59Z" fill="#B286FE"/>
<path d="M62.9279 380.924C60.8432 354.931 46.3769 341.762 46.2305 341.632L47.1932 340.55C47.3438 340.683 62.2384 354.204 64.3723 380.808L62.9279 380.924Z" fill="white"/>
<path d="M61.7053 372.131C61.4882 361.06 69.88 347.327 70.2379 346.747L71.4708 347.508C71.3852 347.646 62.9447 361.46 63.1539 372.103L61.7053 372.131Z" fill="white"/>
<path d="M90.1974 381.341L89.1055 380.391C89.7159 379.689 104.23 363.193 119.31 361.676L119.455 363.117C104.949 364.577 90.3438 381.174 90.1974 381.341Z" fill="white"/>
<path d="M28.8495 381.444C22.2472 376.462 7.33936 372.858 7.18945 372.821L7.52618 371.412C8.14993 371.562 22.8774 375.123 29.7223 380.288L28.8495 381.444Z" fill="white"/>
<path d="M25.192 379.028C21.1588 370.209 23.0072 364.587 23.0877 364.352L24.4592 364.82C24.4415 364.873 22.7369 370.176 26.5092 378.426L25.192 379.028Z" fill="white"/>
<path d="M-12.8612 381.488H630.723C633.073 381.488 634.979 383.394 634.979 385.744C634.979 388.095 633.073 390 630.723 390H-12.8612C-15.2117 390 -17.1172 388.095 -17.1172 385.744C-17.1172 383.394 -15.2117 381.488 -12.8612 381.488Z" fill="#4300B6"/>
<path d="M627.801 381.39H481.729C481.729 381.39 492.593 349.521 526.996 361.107C526.996 361.107 535.692 333.948 559.588 334.853C583.492 335.758 591.1 358.104 591.1 358.104C591.1 358.104 623.214 354.222 627.801 381.39Z" fill="#B286FE"/>
<path d="M554.496 381.229L553.065 380.999C556.151 361.846 544.272 348.064 544.152 347.927L545.24 346.97C545.365 347.112 557.694 361.383 554.496 381.229Z" fill="white"/>
<path d="M554.859 369.509L553.75 368.577C553.86 368.447 564.74 355.433 566.591 347.288L568.004 347.609C566.075 356.097 555.316 368.965 554.859 369.509Z" fill="white"/>
<path d="M554.252 376.401C545.685 375.934 538.104 367.114 537.785 366.739L538.889 365.801C538.964 365.888 546.39 374.522 554.331 374.955L554.252 376.401Z" fill="white"/>
<path d="M601.937 369.046C598.481 369.151 593.232 372.18 588.74 375.279C588.244 375.619 587.766 375.958 587.296 376.298C584.327 378.43 581.855 380.441 580.706 381.39H579.531L579.087 380.877C579.705 380.337 594.286 367.81 601.894 367.601L601.937 369.046Z" fill="white"/>
<path d="M608.393 379.551C608.277 379.545 596.671 378.84 587.272 376.413L587.635 375.01C596.894 377.401 608.363 378.098 608.478 378.105L608.393 379.551Z" fill="white"/>
<path d="M523.073 381.219C515.433 374.866 499.298 369.785 499.136 369.734L499.567 368.351C500.241 368.561 516.14 373.57 524 380.105L523.073 381.219Z" fill="white"/>
<path d="M517.328 376.202L515.879 376.16C516.067 369.718 513.27 364.687 513.241 364.638L514.503 363.925C514.626 364.144 517.527 369.36 517.328 376.202Z" fill="white"/>
<path d="M323.355 297.041V356.773H320.527L308.934 354.693L297.341 356.773H294.506V297.041H323.355Z" fill="#2F007F"/>
<path d="M308.933 318.856V354.693L297.341 356.773L177.217 378.332C165.205 380.487 153.025 381.572 140.822 381.572H132.278C128.922 381.572 127.157 377.569 129.439 375.109C132.732 371.558 137.277 367.37 142.284 364.822C152.295 359.727 172.875 354 183.822 351.172L294.505 322.58L308.933 318.856Z" fill="#360093"/>
<path d="M308.936 318.856V354.693L320.528 356.773L440.652 378.332C452.664 380.487 464.843 381.572 477.047 381.572H485.591C488.947 381.572 490.712 377.569 488.43 375.109C485.137 371.558 480.592 367.37 475.585 364.822C465.574 359.727 444.994 354 434.048 351.172L323.364 322.58L308.936 318.856Z" fill="#360093"/>
<path d="M111.52 306.092C95.6679 306.092 82.8174 293.241 82.8174 277.389V31.8681C82.8174 16.0158 95.6682 3.16522 111.52 3.16522H506.348C522.2 3.16522 535.051 16.016 535.051 31.8681V277.389C535.051 293.242 522.2 306.092 506.348 306.092H111.52Z" fill="#360093"/>
<path d="M506.346 290.511H111.52C104.273 290.511 98.3975 284.636 98.3975 277.389V31.8689C98.3975 24.6218 104.273 18.7466 111.52 18.7466H506.346C513.593 18.7466 519.468 24.6218 519.468 31.8689V277.389C519.468 284.636 513.593 290.511 506.346 290.511Z" fill="white"/>
<path d="M509.114 37.9087V271.354C509.114 278.244 503.527 283.826 496.636 283.826H121.228C114.337 283.826 108.755 278.244 108.755 271.354V37.9087C108.755 31.0179 114.337 25.4311 121.228 25.4311H496.637C503.527 25.4313 509.114 31.0179 509.114 37.9087Z" fill="white"/>
<path d="M496.635 284.798H121.226C113.813 284.798 107.782 278.767 107.782 271.354V37.9087C107.782 30.4927 113.813 24.4595 121.226 24.4595H496.635C504.051 24.4595 510.084 30.4927 510.084 37.9087V271.354C510.084 278.767 504.051 284.798 496.635 284.798ZM121.226 26.4026C114.885 26.4026 109.725 31.5644 109.725 37.9089V271.354C109.725 277.696 114.885 282.855 121.226 282.855H496.635C502.98 282.855 508.141 277.696 508.141 271.354V37.9087C508.141 31.5642 502.98 26.4024 496.635 26.4024L121.226 26.4026Z" fill="#B185FD"/>
<path d="M509.114 37.9087V44.2269H108.755V37.9087C108.755 31.0179 114.337 25.4311 121.228 25.4311H496.637C503.527 25.4313 509.114 31.0179 509.114 37.9087Z" fill="#B286FE"/>
<path d="M488.843 40.1221C491.763 40.1221 494.131 37.7524 494.131 34.8291C494.131 31.9059 491.763 29.5362 488.843 29.5362C485.923 29.5362 483.556 31.9059 483.556 34.8291C483.556 37.7524 485.923 40.1221 488.843 40.1221Z" fill="white"/>
<path d="M469.408 40.1221C472.328 40.1221 474.695 37.7524 474.695 34.8291C474.695 31.9059 472.328 29.5362 469.408 29.5362C466.487 29.5362 464.12 31.9059 464.12 34.8291C464.12 37.7524 466.487 40.1221 469.408 40.1221Z" fill="white"/>
<path d="M449.972 40.1221C452.892 40.1221 455.26 37.7524 455.26 34.8291C455.26 31.9059 452.892 29.5362 449.972 29.5362C447.052 29.5362 444.685 31.9059 444.685 34.8291C444.685 37.7524 447.052 40.1221 449.972 40.1221Z" fill="white"/>
<path d="M359.589 273.255H258.275C250.02 273.255 243.304 266.539 243.304 258.284V69.7692C243.304 61.5143 250.02 54.7986 258.275 54.7986H359.589C367.844 54.7986 374.56 61.5143 374.56 69.7692V258.284C374.56 266.539 367.844 273.255 359.589 273.255ZM258.275 64.2126C255.211 64.2126 252.718 66.7054 252.718 69.7692V258.284C252.718 261.348 255.211 263.841 258.275 263.841H359.589C362.653 263.841 365.146 261.348 365.146 258.284V69.7692C365.146 66.7054 362.653 64.2126 359.589 64.2126H258.275Z" fill="white"/>
<path d="M470.593 257.405H387.755C379.5 257.405 372.784 250.689 372.784 242.434V85.6189C372.784 77.364 379.5 70.6482 387.755 70.6482H470.593C478.848 70.6482 485.564 77.364 485.564 85.6189V242.434C485.564 250.689 478.848 257.405 470.593 257.405ZM387.755 80.0623C384.691 80.0623 382.198 82.555 382.198 85.6189V242.434C382.198 245.498 384.691 247.991 387.755 247.991H470.593C473.657 247.991 476.15 245.498 476.15 242.434V85.6189C476.15 82.555 473.657 80.0623 470.593 80.0623H387.755Z" fill="white"/>
<path d="M230.107 257.405H147.269C139.014 257.405 132.298 250.689 132.298 242.434V85.6189C132.298 77.364 139.014 70.6482 147.269 70.6482H230.107C238.362 70.6482 245.078 77.364 245.078 85.6189V242.434C245.078 250.689 238.362 257.405 230.107 257.405ZM147.269 80.0623C144.205 80.0623 141.712 82.555 141.712 85.6189V242.434C141.712 245.498 144.205 247.991 147.269 247.991H230.107C233.171 247.991 235.664 245.498 235.664 242.434V85.6189C235.664 82.555 233.171 80.0623 230.107 80.0623H147.269Z" fill="white"/>
<g opacity="0.5">
<path d="M359.589 268.548H258.274C252.606 268.548 248.011 263.952 248.011 258.284V69.7693C248.011 64.1007 252.606 59.5056 258.274 59.5056H359.589C365.258 59.5056 369.853 64.1007 369.853 69.7693V258.284C369.853 263.953 365.258 268.548 359.589 268.548Z" fill="#B286FE"/>
</g>
<path d="M308.932 164.027C334.441 164.027 355.12 143.348 355.12 117.838C355.12 92.3293 334.441 71.65 308.932 71.65C283.422 71.65 262.743 92.3293 262.743 117.838C262.743 143.348 283.422 164.027 308.932 164.027Z" fill="white"/>
<path d="M351.505 252.708H266.362C261.098 252.708 256.831 248.44 256.831 243.177C256.831 237.913 261.098 233.645 266.362 233.645H351.505C356.769 233.645 361.036 237.913 361.036 243.177C361.036 248.44 356.769 252.708 351.505 252.708Z" fill="#5321AA"/>
<path d="M337.622 220.687H257.757V224.811H337.622V220.687Z" fill="white"/>
<path d="M360.109 213.33H257.755V217.453H360.109V213.33Z" fill="white"/>
<path d="M360.108 205.174H257.755V209.298H360.108V205.174Z" fill="white"/>
<path d="M284.323 189.114C284.162 186.09 283.969 182.455 284.001 179.753H283.904C283.164 182.294 282.264 184.996 281.17 187.988L277.341 198.508H275.218L271.712 188.181C270.682 185.125 269.814 182.327 269.202 179.753H269.138C269.074 182.456 268.913 186.091 268.72 189.34L268.141 198.637H265.471L266.983 176.954H270.554L274.253 187.442C275.154 190.112 275.894 192.493 276.441 194.745H276.538C277.084 192.557 277.856 190.176 278.822 187.442L282.682 176.954H286.253L287.604 198.637H284.87L284.323 189.114Z" fill="white"/>
<path d="M303.142 188.471H294.713V196.288H304.107V198.637H291.914V176.954H303.624V179.302H294.713V186.155H303.142V188.471Z" fill="white"/>
<path d="M312.374 179.335H305.779V176.954H321.833V179.335H315.205V198.637H312.374V179.335Z" fill="white"/>
<path d="M325.339 191.817L323.087 198.637H320.191L327.558 176.954H330.936L338.336 198.637H335.344L333.028 191.817H325.339ZM332.449 189.63L330.326 183.388C329.843 181.973 329.521 180.685 329.2 179.431H329.135C328.813 180.718 328.46 182.037 328.041 183.356L325.918 189.629L332.449 189.63Z" fill="white"/>
<path d="M341.523 176.954H344.322V196.288H353.587V198.637H341.523V176.954Z" fill="white"/>
<path d="M329.698 115.967L329.698 115.97C328.313 120.249 326.44 123.367 325.226 125.189C324.373 126.467 323.744 128.56 323.144 130.859C322.171 134.586 321.276 138.855 319.635 141.076C314.483 148.049 317.29 139.065 315.894 133.258C314.895 129.101 313.959 125.562 308.987 125.289C304.016 125.563 303.08 129.101 302.081 133.258C301.107 137.312 302.18 142.915 301.165 143.555C300.725 143.832 299.895 143.181 298.34 141.076C296.167 138.134 295.226 131.593 293.728 127.484C293.398 126.58 293.042 125.793 292.638 125.189C290.405 121.838 285.943 114.104 286.39 102.824C286.408 102.355 286.438 101.899 286.479 101.458C286.909 96.8393 288.597 93.7278 291.974 92.6489C294.7 91.7777 298.033 91.861 300.608 92.9957C301.877 93.5552 302.963 94.37 303.701 95.4523C303.725 95.488 303.749 95.5232 303.773 95.5584C306.493 99.4936 310.409 99.8695 313.358 96.6865C313.669 96.3502 313.97 95.9744 314.257 95.5584C314.282 95.5232 314.306 95.488 314.33 95.4523C316.053 92.9253 319.639 91.8548 323.057 92.0946C324.071 92.1654 325.07 92.3515 326.001 92.6491C329.701 93.8314 331.261 97.4533 331.474 102.824C331.678 107.969 330.861 112.377 329.698 115.967Z" fill="#EDB572"/>
<path d="M323.143 130.859C322.171 134.586 321.275 138.855 319.635 141.076C314.483 148.049 317.29 139.065 315.894 133.258C314.895 129.101 313.959 125.562 308.987 125.289C304.015 125.563 303.08 129.101 302.081 133.258C301.107 137.312 302.18 142.915 301.164 143.555C301.005 139.926 299.26 129.744 293.728 127.484C293.398 126.58 293.042 125.793 292.638 125.189C290.405 121.838 285.943 114.104 286.39 102.824C286.408 102.355 286.438 101.899 286.479 101.458C287.078 103.911 290.015 114.157 298.117 117.838C307.35 122.033 315.95 120.023 319.635 126.948C320.64 128.834 321.876 130.066 323.143 130.859Z" fill="#DD9978"/>
<path d="M329.697 115.967C331.412 108.516 328.01 96.0441 323.056 92.0944C324.07 92.1653 325.069 92.3514 326 92.649C329.7 93.8312 331.26 97.4531 331.473 102.823C331.677 107.969 330.859 112.377 329.697 115.967Z" fill="#DD9978"/>
<path d="M313.356 96.6862C311.962 99.6274 311.585 102.508 307.606 101.457C301.157 99.7547 302.709 94.3268 300.606 92.9954C301.876 93.5549 302.962 94.3696 303.7 95.452C303.724 95.4877 303.748 95.5229 303.772 95.5581C306.492 99.4935 310.408 99.8694 313.356 96.6862Z" fill="#DD9978"/>
<g opacity="0.5">
<path d="M470.592 252.698H387.754C382.085 252.698 377.49 248.103 377.49 242.434V85.6191C377.49 79.9505 382.085 75.3553 387.754 75.3553H470.592C476.261 75.3553 480.856 79.9507 480.856 85.6191V242.434C480.856 248.103 476.261 252.698 470.592 252.698Z" fill="#B286FE"/>
</g>
<path d="M429.173 164.027C450.814 164.027 468.357 146.483 468.357 124.842C468.357 103.201 450.814 85.6577 429.173 85.6577C407.532 85.6577 389.988 103.201 389.988 124.842C389.988 146.483 407.532 164.027 429.173 164.027Z" fill="white"/>
<path d="M465.29 239.259H393.058C388.593 239.259 384.973 235.639 384.973 231.174C384.973 226.708 388.593 223.088 393.058 223.088H465.29C469.756 223.088 473.376 226.708 473.376 231.174C473.375 235.639 469.755 239.259 465.29 239.259Z" fill="#5321AA"/>
<path d="M453.513 212.095H385.759V215.593H453.513V212.095Z" fill="white"/>
<path d="M472.592 205.853H385.759V209.351H472.592V205.853Z" fill="white"/>
<path d="M472.591 198.934H385.759V202.432H472.591V198.934Z" fill="white"/>
<path d="M398.444 188.663C397.939 188.916 396.93 189.168 395.638 189.168C392.642 189.168 390.388 187.276 390.388 183.791C390.388 180.465 392.642 178.211 395.937 178.211C397.262 178.211 398.097 178.494 398.46 178.684L398.129 179.803C397.609 179.551 396.868 179.362 395.985 179.362C393.494 179.362 391.838 180.954 391.838 183.745C391.838 186.346 393.336 188.017 395.921 188.017C396.758 188.017 397.609 187.843 398.161 187.575L398.444 188.663Z" fill="white"/>
<path d="M408.908 183.587C408.908 187.244 406.685 189.184 403.973 189.184C401.167 189.184 399.196 187.008 399.196 183.792C399.196 180.418 401.294 178.211 404.131 178.211C407.032 178.211 408.908 180.434 408.908 183.587ZM400.663 183.761C400.663 186.031 401.893 188.064 404.053 188.064C406.228 188.064 407.458 186.062 407.458 183.65C407.458 181.537 406.354 179.33 404.069 179.33C401.798 179.33 400.663 181.427 400.663 183.761Z" fill="white"/>
<path d="M419.64 184.343C419.561 182.862 419.467 181.08 419.482 179.755H419.435C419.073 181.001 418.631 182.325 418.095 183.791L416.219 188.947H415.179L413.46 183.887C412.955 182.389 412.53 181.017 412.231 179.755H412.199C412.167 181.08 412.088 182.862 411.994 184.454L411.71 189.01H410.401L411.143 178.384H412.893L414.706 183.524C415.147 184.832 415.51 185.999 415.778 187.103H415.825C416.093 186.031 416.471 184.864 416.945 183.524L418.837 178.384H420.587L421.248 189.01H419.908L419.64 184.343Z" fill="white"/>
<path d="M423.358 178.51C424.021 178.4 424.888 178.306 425.991 178.306C427.348 178.306 428.341 178.62 428.971 179.188C429.554 179.693 429.901 180.466 429.901 181.411C429.901 182.373 429.618 183.13 429.082 183.681C428.357 184.454 427.174 184.848 425.834 184.848C425.424 184.848 425.046 184.832 424.73 184.754V189.01H423.358V178.51ZM424.73 183.634C425.03 183.713 425.408 183.745 425.865 183.745C427.521 183.745 428.53 182.94 428.53 181.474C428.53 180.071 427.537 179.393 426.023 179.393C425.424 179.393 424.967 179.441 424.73 179.503L424.73 183.634Z" fill="white"/>
<path d="M440.826 183.587C440.826 187.244 438.602 189.184 435.891 189.184C433.084 189.184 431.114 187.008 431.114 183.792C431.114 180.418 433.211 178.211 436.049 178.211C438.95 178.211 440.826 180.434 440.826 183.587ZM432.58 183.761C432.58 186.031 433.81 188.064 435.97 188.064C438.146 188.064 439.375 186.062 439.375 183.65C439.375 181.537 438.272 179.33 435.986 179.33C433.715 179.33 432.58 181.427 432.58 183.761Z" fill="white"/>
<path d="M442.412 187.339C443.027 187.717 443.926 188.033 444.872 188.033C446.275 188.033 447.095 187.292 447.095 186.22C447.095 185.226 446.527 184.659 445.092 184.107C443.358 183.493 442.286 182.594 442.286 181.096C442.286 179.44 443.657 178.211 445.723 178.211C446.81 178.211 447.599 178.463 448.072 178.731L447.693 179.851C447.347 179.661 446.638 179.346 445.675 179.346C444.225 179.346 443.673 180.213 443.673 180.938C443.673 181.931 444.32 182.42 445.786 182.988C447.583 183.681 448.498 184.548 448.498 186.109C448.498 187.749 447.284 189.168 444.777 189.168C443.753 189.168 442.633 188.868 442.065 188.49L442.412 187.339Z" fill="white"/>
<path d="M451.744 178.384V189.01H450.372V178.384H451.744Z" fill="white"/>
<path d="M456.156 179.551H452.925V178.384H460.791V179.551H457.544V189.01H456.156V179.551Z" fill="white"/>
<path d="M467.474 184.028H463.343V187.859H467.947V189.01H461.972V178.384H467.711V179.535H463.343V182.893H467.474V184.028Z" fill="white"/>
<path d="M446.788 123.255L446.788 123.257C445.613 126.887 444.024 129.533 442.994 131.078C442.271 132.162 441.737 133.938 441.228 135.889C440.402 139.05 439.643 142.672 438.251 144.556C433.88 150.472 436.262 142.85 435.077 137.923C434.23 134.397 433.436 131.395 429.218 131.164C425 131.395 424.207 134.397 423.359 137.923C422.532 141.363 423.443 146.116 422.581 146.659C422.208 146.894 421.504 146.342 420.185 144.556C418.341 142.06 417.543 136.511 416.272 133.026C415.993 132.259 415.69 131.591 415.348 131.078C413.453 128.236 409.668 121.674 410.047 112.104C410.062 111.707 410.088 111.32 410.123 110.946C410.488 107.028 411.92 104.388 414.784 103.473C417.097 102.734 419.925 102.804 422.109 103.767C423.186 104.242 424.107 104.933 424.733 105.851C424.754 105.881 424.774 105.911 424.795 105.941C427.102 109.28 430.425 109.598 432.925 106.898C433.19 106.613 433.445 106.294 433.689 105.941C433.709 105.911 433.73 105.882 433.751 105.851C435.212 103.707 438.254 102.799 441.154 103.002C442.014 103.062 442.862 103.22 443.652 103.473C446.79 104.475 448.114 107.548 448.295 112.104C448.468 116.469 447.775 120.209 446.788 123.255Z" fill="#D7C0FF"/>
<g opacity="0.5">
<path d="M441.23 135.888C440.404 139.05 439.645 142.672 438.253 144.556C433.882 150.472 436.264 142.85 435.079 137.923C434.232 134.397 433.438 131.395 429.22 131.164C425.002 131.395 424.208 134.397 423.361 137.923C422.534 141.363 423.445 146.116 422.583 146.659C422.448 143.581 420.968 134.942 416.274 133.025C415.994 132.258 415.692 131.591 415.35 131.078C413.455 128.236 409.67 121.674 410.049 112.104C410.064 111.707 410.09 111.32 410.125 110.946C410.633 113.027 413.125 121.719 419.998 124.843C427.831 128.401 435.127 126.696 438.253 132.57C439.105 134.17 440.154 135.215 441.23 135.888Z" fill="white"/>
</g>
<g opacity="0.5">
<path d="M446.789 123.255C448.244 116.934 445.358 106.353 441.155 103.002C442.016 103.062 442.863 103.22 443.653 103.473C446.792 104.475 448.116 107.548 448.296 112.104C448.469 116.469 447.776 120.209 446.789 123.255Z" fill="white"/>
</g>
<g opacity="0.5">
<path d="M432.927 106.898C431.744 109.393 431.424 111.836 428.049 110.945C422.578 109.501 423.894 104.896 422.11 103.767C423.188 104.241 424.109 104.932 424.735 105.851C424.755 105.881 424.776 105.911 424.796 105.941C427.103 109.279 430.426 109.598 432.927 106.898Z" fill="white"/>
</g>
<g opacity="0.5">
<path d="M230.105 252.698H147.267C141.598 252.698 137.003 248.103 137.003 242.434V85.6188C137.003 79.9502 141.598 75.3551 147.267 75.3551H230.105C235.773 75.3551 240.369 79.9505 240.369 85.6188V242.434C240.369 248.102 235.773 252.698 230.105 252.698Z" fill="#B286FE"/>
</g>
<path d="M224.805 239.259H152.573C148.107 239.259 144.487 235.639 144.487 231.174C144.487 226.708 148.107 223.088 152.573 223.088H224.805C229.27 223.088 232.89 226.708 232.89 231.174C232.891 235.639 229.27 239.259 224.805 239.259Z" fill="#5321AA"/>
<path d="M213.027 212.095H145.272V215.593H213.027V212.095Z" fill="white"/>
<path d="M232.104 205.853H145.271V209.351H232.104V205.853Z" fill="white"/>
<path d="M232.102 198.934H145.271V202.432H232.102V198.934Z" fill="white"/>
<path d="M160.805 188.606C160.216 188.9 159.04 189.194 157.532 189.194C154.038 189.194 151.408 186.987 151.408 182.923C151.408 179.044 154.038 176.413 157.881 176.413C159.426 176.413 160.4 176.745 160.823 176.965L160.437 178.271C159.83 177.977 158.966 177.756 157.936 177.756C155.031 177.756 153.1 179.613 153.1 182.868C153.1 185.902 154.847 187.852 157.863 187.852C158.838 187.852 159.83 187.65 160.474 187.337L160.805 188.606Z" fill="white"/>
<path d="M169.225 183.199H164.407V187.668H169.776V189.01H162.807V176.615H169.5V177.959H164.407V181.875H169.225V183.199Z" fill="white"/>
<path d="M171.854 176.782C172.663 176.616 173.822 176.524 174.925 176.524C176.635 176.524 177.738 176.837 178.511 177.535C179.136 178.087 179.485 178.932 179.485 179.889C179.485 181.526 178.456 182.611 177.15 183.052V183.107C178.106 183.438 178.676 184.321 178.97 185.608C179.375 187.337 179.669 188.532 179.927 189.01H178.271C178.069 188.661 177.793 187.594 177.444 186.049C177.076 184.339 176.414 183.695 174.962 183.64H173.453V189.01H171.854L171.854 176.782ZM173.454 182.427H175.09C176.801 182.427 177.886 181.489 177.886 180.073C177.886 178.473 176.727 177.774 175.035 177.756C174.263 177.756 173.711 177.83 173.454 177.904V182.427Z" fill="white"/>
<path d="M183.845 185.112L182.557 189.01H180.902L185.113 176.616H187.044L191.273 189.01H189.563L188.239 185.112H183.845ZM187.909 183.862L186.695 180.294C186.419 179.485 186.235 178.749 186.051 178.032H186.014C185.83 178.767 185.628 179.521 185.389 180.276L184.175 183.862H187.909Z" fill="white"/>
<path d="M203.462 183.567C203.37 181.838 203.259 179.76 203.278 178.216H203.223C202.8 179.668 202.285 181.213 201.659 182.924L199.471 188.937H198.257L196.253 183.034C195.664 181.286 195.168 179.687 194.818 178.216H194.782C194.745 179.76 194.653 181.839 194.543 183.695L194.212 189.01H192.686L193.55 176.615H195.591L197.705 182.611C198.22 184.137 198.643 185.498 198.956 186.785H199.011C199.324 185.534 199.765 184.174 200.317 182.611L202.524 176.615H204.565L205.337 189.01H203.774L203.462 183.567Z" fill="white"/>
<path d="M209.401 176.616V189.01H207.801V176.616H209.401Z" fill="white"/>
<path d="M220.858 188.606C220.269 188.9 219.092 189.194 217.585 189.194C214.091 189.194 211.461 186.987 211.461 182.924C211.461 179.044 214.091 176.413 217.934 176.413C219.479 176.413 220.453 176.745 220.876 176.965L220.49 178.271C219.883 177.977 219.019 177.756 217.989 177.756C215.084 177.756 213.153 179.613 213.153 182.868C213.153 185.902 214.9 187.852 217.916 187.852C218.891 187.852 219.883 187.65 220.527 187.337L220.858 188.606Z" fill="white"/>
<path d="M222.64 187.061C223.357 187.503 224.405 187.87 225.508 187.87C227.145 187.87 228.101 187.006 228.101 185.755C228.101 184.597 227.439 183.935 225.765 183.291C223.743 182.575 222.492 181.526 222.492 179.779C222.492 177.849 224.092 176.414 226.501 176.414C227.77 176.414 228.689 176.708 229.241 177.021L228.799 178.326C228.395 178.106 227.567 177.738 226.446 177.738C224.754 177.738 224.11 178.749 224.11 179.595C224.11 180.754 224.864 181.323 226.575 181.986C228.67 182.795 229.737 183.807 229.737 185.627C229.737 187.54 228.321 189.194 225.398 189.194C224.202 189.194 222.897 188.845 222.234 188.403L222.64 187.061Z" fill="white"/>
<path d="M188.687 164.027C210.328 164.027 227.872 146.483 227.872 124.842C227.872 103.201 210.328 85.6577 188.687 85.6577C167.046 85.6577 149.503 103.201 149.503 124.842C149.503 146.483 167.046 164.027 188.687 164.027Z" fill="white"/>
<path d="M206.306 123.255L206.305 123.257C205.13 126.887 203.542 129.533 202.511 131.078C201.788 132.162 201.254 133.938 200.745 135.889C199.92 139.051 199.16 142.672 197.769 144.556C193.398 150.472 195.779 142.851 194.595 137.924C193.747 134.397 192.954 131.395 188.736 131.164C184.518 131.395 183.724 134.397 182.877 137.924C182.05 141.364 182.961 146.116 182.099 146.66C181.726 146.895 181.022 146.342 179.703 144.556C177.859 142.06 177.061 136.511 175.79 133.026C175.51 132.259 175.208 131.591 174.866 131.079C172.971 128.236 169.185 121.674 169.565 112.105C169.58 111.707 169.606 111.321 169.641 110.946C170.006 107.028 171.437 104.388 174.302 103.473C176.615 102.734 179.442 102.805 181.626 103.767C182.704 104.242 183.625 104.933 184.251 105.851C184.271 105.881 184.292 105.911 184.312 105.941C186.619 109.28 189.942 109.599 192.443 106.898C192.707 106.613 192.963 106.294 193.206 105.941C193.227 105.911 193.247 105.882 193.268 105.851C194.73 103.707 197.772 102.799 200.672 103.002C201.532 103.063 202.379 103.22 203.17 103.473C206.308 104.476 207.632 107.548 207.812 112.104C207.985 116.469 207.292 120.209 206.306 123.255Z" fill="white"/>
<path d="M181.918 147.138C181.414 147.138 180.787 146.742 179.359 144.81C178.12 143.132 177.356 140.213 176.618 137.39C176.214 135.847 175.832 134.388 175.389 133.172C175.096 132.369 174.808 131.762 174.51 131.315C170.722 125.633 168.864 118.985 169.138 112.087C169.153 111.682 169.18 111.288 169.215 110.906C169.614 106.627 171.281 103.989 174.172 103.065C175.234 102.726 176.42 102.546 177.603 102.546C179.118 102.546 180.569 102.833 181.799 103.375C183.015 103.911 183.959 104.663 184.604 105.61L184.666 105.7C185.816 107.364 187.27 108.281 188.76 108.281C189.95 108.281 191.115 107.702 192.13 106.607C192.383 106.334 192.627 106.028 192.854 105.698L192.894 105.64C194.223 103.692 196.826 102.547 199.878 102.547C200.153 102.547 200.428 102.556 200.702 102.576C201.607 102.639 202.481 102.804 203.3 103.065C206.423 104.063 208.039 107.014 208.24 112.087C208.394 115.97 207.883 119.763 206.721 123.363L206.713 123.389C205.811 126.174 204.517 128.841 202.867 131.315C202.166 132.368 201.632 134.187 201.159 135.997C201.039 136.455 200.921 136.923 200.802 137.394C200.089 140.215 199.352 143.132 198.113 144.81C196.686 146.742 196.058 147.138 195.555 147.138C195.343 147.138 195.152 147.057 195.001 146.905C194.535 146.434 194.523 145.367 194.543 143.364C194.559 141.726 194.58 139.689 194.179 138.023C193.378 134.689 192.686 131.809 188.712 131.59C184.786 131.809 184.094 134.688 183.293 138.023C182.893 139.688 182.913 141.726 182.929 143.363C182.95 145.564 182.934 146.638 182.327 147.021C182.204 147.099 182.066 147.138 181.918 147.138ZM177.603 103.402C176.508 103.402 175.411 103.567 174.433 103.88C171.864 104.7 170.436 107.025 170.067 110.985C170.033 111.352 170.008 111.731 169.992 112.121C169.726 118.837 171.535 125.31 175.222 130.841C175.558 131.345 175.876 132.011 176.192 132.879C176.65 134.133 177.036 135.61 177.445 137.174C178.163 139.919 178.905 142.757 180.047 144.302C181.292 145.987 181.759 146.241 181.888 146.277C182.099 145.992 182.084 144.482 182.073 143.372C182.057 141.687 182.036 139.591 182.461 137.823C183.268 134.464 184.103 130.99 188.712 130.736C193.368 130.99 194.203 134.464 195.011 137.823C195.435 139.591 195.415 141.688 195.398 143.372C195.387 144.475 195.372 145.971 195.586 146.277C195.718 146.238 196.186 145.978 197.425 144.302C198.564 142.76 199.28 139.926 199.972 137.185C200.092 136.712 200.211 136.241 200.331 135.781C200.899 133.606 201.427 131.934 202.155 130.841C203.757 128.439 205.014 125.851 205.891 123.148L205.899 123.123C207.035 119.613 207.535 115.911 207.385 112.121C207.2 107.451 205.779 104.755 203.039 103.88C202.286 103.639 201.479 103.487 200.642 103.429C200.388 103.411 200.133 103.402 199.878 103.402C197.109 103.402 194.77 104.408 193.622 106.092L193.556 106.187C193.307 106.547 193.037 106.886 192.757 107.189C191.577 108.463 190.194 109.137 188.759 109.137C186.981 109.137 185.276 108.088 183.96 106.184L183.897 106.091C183.343 105.279 182.521 104.629 181.454 104.158C180.332 103.663 179 103.402 177.603 103.402Z" fill="#D7C0FF"/>
<g opacity="0.5">
<path d="M200.744 135.888C199.919 139.05 199.159 142.672 197.768 144.556C193.397 150.472 195.778 142.85 194.594 137.923C193.746 134.397 192.953 131.395 188.735 131.164C184.517 131.395 183.723 134.397 182.876 137.923C182.049 141.363 182.96 146.116 182.098 146.659C181.962 143.581 180.482 134.942 175.789 133.025C175.509 132.258 175.207 131.591 174.865 131.078C172.97 128.236 169.185 121.674 169.564 112.104C169.579 111.707 169.605 111.32 169.64 110.946C170.147 113.027 172.639 121.719 179.513 124.843C187.346 128.402 194.641 126.696 197.768 132.57C198.62 134.17 199.669 135.215 200.744 135.888Z" fill="#D7C0FF"/>
</g>
<g opacity="0.5">
<path d="M206.304 123.255C207.759 116.934 204.873 106.353 200.67 103.002C201.53 103.062 202.378 103.22 203.168 103.473C206.307 104.476 207.63 107.548 207.811 112.104C207.984 116.469 207.29 120.209 206.304 123.255Z" fill="#D7C0FF"/>
</g>
<path d="M192.444 106.898C191.261 109.393 190.94 111.837 187.565 110.945C182.094 109.501 183.411 104.896 181.627 103.767C182.704 104.242 183.625 104.933 184.251 105.851C184.272 105.881 184.292 105.911 184.313 105.941C186.62 109.279 189.943 109.598 192.444 106.898Z" fill="#D7C0FF"/>
<g opacity="0.5">
<path d="M488.842 70.375C494.499 70.375 499.085 65.7889 499.085 60.1316C499.085 54.4744 494.499 49.8883 488.842 49.8883C483.185 49.8883 478.599 54.4744 478.599 60.1316C478.599 65.7889 483.185 70.375 488.842 70.375Z" fill="#B286FE"/>
</g>
<path d="M485.673 66.7391C485.465 66.7391 485.258 66.6555 485.107 66.4908C484.819 66.1779 484.839 65.6915 485.152 65.4035L490.878 60.132L485.152 54.8602C484.839 54.5722 484.819 54.0853 485.107 53.7729C485.394 53.46 485.881 53.4404 486.194 53.7279L492.535 59.5658C492.694 59.7115 492.783 59.9168 492.783 60.132C492.783 60.3471 492.693 60.5524 492.535 60.6981L486.194 66.5358C486.046 66.6717 485.859 66.7391 485.673 66.7391Z" fill="white"/>
<path d="M82.9062 198.309L143.441 215.274L149.824 192.499C152.03 184.628 147.437 176.459 139.566 174.253L107.535 165.276C99.6639 163.07 91.4947 167.663 89.2887 175.534L82.9062 198.309Z" fill="white"/>
<path d="M110.742 187.316L125.373 191.417L148.325 197.849L147.446 200.984L124.494 194.551C122.828 197.729 119.114 199.423 115.521 198.416C111.928 197.409 109.636 194.032 109.863 190.451L86.9121 184.019L87.7906 180.884L110.742 187.316Z" fill="#D7C0FF"/>
<path d="M82.9128 198.322L82.4336 200.031L142.968 216.999L143.448 215.29L82.9128 198.322Z" fill="#B185FD"/>
<path d="M58.9043 283.938L83.0207 290.692L99.6681 295.361L119.439 300.901L119.528 300.647L137.253 248.632L139.244 242.789L139.32 242.577L141.462 236.288L143.391 230.632C144.002 228.826 144.345 226.952 144.407 225.071V225.064C144.462 223.492 144.325 221.913 143.995 220.369C143.947 220.163 143.906 219.957 143.851 219.744C143.796 219.538 143.741 219.332 143.686 219.126C143.59 218.783 143.487 218.44 143.364 218.103C143.316 217.966 143.274 217.829 143.219 217.698L142.958 216.984L82.4237 200.021C80.0004 201.483 78.1676 203.625 76.8152 206.103L76.8014 206.117V206.124C75.9296 207.723 75.2499 209.467 74.7557 211.252C74.5565 211.952 74.385 212.659 74.2407 213.366L73.4033 217.217L70.6437 229.924L70.6368 229.966L67.8977 242.576L67.8497 242.789L58.9043 283.938Z" fill="white"/>
<path d="M70.6387 229.965L70.6729 229.979L115.645 242.576L116.407 242.789L137.256 248.631L139.247 242.789L139.322 242.576L141.464 236.288L73.4052 217.217L70.6456 229.925L70.6387 229.965Z" fill="#B185FD"/>
<path d="M58.9043 283.937L83.0207 290.692L99.6681 295.361L119.439 300.901L119.528 300.647L137.253 248.631L116.405 242.789L115.643 242.577L70.6705 229.979L70.6363 229.966L67.8972 242.577L67.8492 242.789L58.9043 283.937Z" fill="#975DFB"/>
<path d="M76.8027 206.119L144.411 225.067C144.498 222.572 144.102 220.069 143.225 217.696L142.962 216.984L82.428 200.019L76.8027 206.119Z" fill="#D7C0FF"/>
<path d="M143.299 217.583L81.8281 200.355L88.8208 175.404C90.6632 168.83 96.7131 164.238 103.533 164.238C104.924 164.238 106.314 164.43 107.666 164.809L139.697 173.785C143.629 174.887 146.896 177.455 148.897 181.014C150.898 184.573 151.393 188.699 150.291 192.631L143.299 217.583ZM83.0264 199.682L142.625 216.384L149.355 192.369C150.388 188.687 149.924 184.824 148.05 181.49C146.176 178.157 143.116 175.753 139.434 174.722L107.404 165.745C106.137 165.39 104.835 165.21 103.533 165.21C97.1473 165.21 91.4824 169.51 89.7569 175.666L83.0264 199.682Z" fill="#D7C0FF"/>
<path d="M119.75 301.491L58.3359 284.282L73.7696 213.263C73.9163 212.544 74.0925 211.82 74.2919 211.119C74.8022 209.275 75.4845 207.553 76.319 206V205.922L76.4238 205.813C77.9128 203.104 79.8397 201.021 82.1515 199.62L82.3226 199.487L82.5611 199.551L143.334 216.583L143.683 217.527C143.708 217.594 143.731 217.662 143.753 217.73L143.812 217.902C143.848 218.002 143.87 218.069 143.893 218.136L143.952 218.314C143.97 218.367 143.988 218.42 144.005 218.473C144.059 218.646 144.109 218.82 144.158 218.994L144.196 219.135C144.233 219.269 144.27 219.407 144.305 219.546L144.322 219.61C144.36 219.754 144.388 219.883 144.417 220.012L144.436 220.098C144.534 220.542 144.617 220.985 144.682 221.413L144.706 221.588C144.751 221.904 144.789 222.22 144.819 222.537L144.841 222.8C144.867 223.112 144.884 223.424 144.895 223.736L144.902 223.93C144.912 224.371 144.911 224.737 144.899 225.083L144.876 225.734L144.864 225.73C144.75 227.45 144.412 229.143 143.855 230.787L119.75 301.491ZM59.4803 283.593L119.134 300.309L142.934 230.474C143.531 228.711 143.864 226.887 143.925 225.055L143.934 224.778C143.938 224.503 143.936 224.229 143.929 223.954L143.922 223.768C143.912 223.472 143.895 223.175 143.872 222.878L143.85 222.629C143.822 222.327 143.786 222.026 143.743 221.726L143.721 221.562C143.659 221.153 143.58 220.733 143.486 220.309L143.467 220.221C143.441 220.104 143.415 219.986 143.384 219.865L143.364 219.79C143.329 219.652 143.293 219.521 143.257 219.389L143.22 219.25C143.176 219.092 143.128 218.927 143.077 218.762L142.968 218.439C142.95 218.383 142.932 218.326 142.911 218.27L142.83 218.036C142.811 217.979 142.792 217.921 142.771 217.864L142.594 217.385L82.5042 200.544C80.3915 201.864 78.6232 203.812 77.2457 206.336L77.2071 206.402C76.3923 207.906 75.7265 209.581 75.228 211.381C75.0341 212.062 74.864 212.762 74.7207 213.463L59.4803 283.593Z" fill="#D7C0FF"/>
<path d="M66.0107 117.038L42.6348 121.572L43.6196 126.65L66.9953 122.115C68.3974 121.843 69.3136 120.486 69.0416 119.084C68.7698 117.682 67.4128 116.766 66.0107 117.038Z" fill="white"/>
<path d="M66.9968 122.115L43.6211 126.65L44.6059 131.727L67.9816 127.193C69.3837 126.921 70.2999 125.564 70.0279 124.162C69.7559 122.76 68.3989 121.843 66.9968 122.115Z" fill="white"/>
<path d="M67.9792 127.193L44.6035 131.727L45.5884 136.805L68.9641 132.27C70.3661 131.998 71.2823 130.641 71.0103 129.239C70.7383 127.837 69.3813 126.921 67.9792 127.193Z" fill="white"/>
<path d="M68.9304 132.095L45.5547 136.629L46.5395 141.706L69.9152 137.172C71.3173 136.9 72.2335 135.543 71.9615 134.141C71.6895 132.739 70.3325 131.823 68.9304 132.095Z" fill="white"/>
<path d="M69.9167 137.172L46.541 141.707L47.5259 146.784L70.9018 142.25C72.3039 141.978 73.2201 140.621 72.9481 139.219C72.6758 137.816 71.3188 136.9 69.9167 137.172Z" fill="white"/>
<path d="M70.9013 142.25L47.5254 146.784L48.5102 151.862L71.8859 147.327C73.288 147.055 74.2042 145.698 73.9322 144.296C73.6607 142.894 72.3034 141.978 70.9013 142.25Z" fill="white"/>
<path d="M71.8874 147.327L48.5117 151.862L49.4966 156.939L72.8723 152.405C74.2743 152.133 75.1905 150.776 74.9185 149.374C74.6468 147.971 73.2897 147.055 71.8874 147.327Z" fill="white"/>
<path d="M72.8718 152.405L49.4961 156.939L50.4809 162.017L73.8569 157.482C75.259 157.21 76.1751 155.853 75.9031 154.451C75.6311 153.049 74.2741 152.133 72.8718 152.405Z" fill="white"/>
<path d="M73.8545 157.482L50.4785 162.017L51.4634 167.094L74.8393 162.56C76.2414 162.288 77.1576 160.931 76.8856 159.529C76.6136 158.127 75.2566 157.21 73.8545 157.482Z" fill="white"/>
<path d="M74.8405 162.56L51.4648 167.094L52.4497 172.172L75.8254 167.637C77.2275 167.365 78.1437 166.008 77.8717 164.606C77.5997 163.204 76.2426 162.288 74.8405 162.56Z" fill="white"/>
<g opacity="0.5">
<path d="M43.2314 124.66L44.0398 128.827L67.1514 122.033L43.2314 124.66Z" fill="#B286FE"/>
<path d="M44.21 129.704L45.0183 133.871L68.1297 127.077L44.21 129.704Z" fill="#B286FE"/>
<path d="M45.1885 134.748L45.9968 138.915L69.1082 132.121L45.1885 134.748Z" fill="#B286FE"/>
<path d="M46.1689 139.791L46.9773 143.959L70.0889 137.165L46.1689 139.791Z" fill="#B286FE"/>
<path d="M47.1475 144.835L47.9558 149.003L71.0672 142.208L47.1475 144.835Z" fill="#B286FE"/>
<path d="M48.126 149.879L48.9343 154.047L72.0457 147.252L48.126 149.879Z" fill="#B286FE"/>
<path d="M49.1025 154.923L49.9109 159.09L73.0225 152.296L49.1025 154.923Z" fill="#B286FE"/>
<path d="M50.0811 159.967L50.8894 164.134L74.0008 157.34L50.0811 159.967Z" fill="#B286FE"/>
<path d="M51.0596 165.01L51.8682 169.178L74.9795 162.384L51.0596 165.01Z" fill="#B286FE"/>
</g>
<path d="M52.0663 172.741L42.0664 121.187L65.9194 116.56C66.1134 116.523 66.3113 116.504 66.5072 116.504C67.9735 116.504 69.2405 117.55 69.5203 118.991C69.6766 119.797 69.5098 120.615 69.0507 121.295C68.9259 121.48 68.7834 121.649 68.6263 121.8C69.5735 122.178 70.3016 123.019 70.5052 124.069C70.7117 125.133 70.3398 126.177 69.6092 126.876C70.5574 127.255 71.2862 128.095 71.49 129.146C71.6828 130.139 71.3702 131.138 70.7036 131.842C71.585 132.246 72.2484 133.056 72.4409 134.048C72.5972 134.853 72.4303 135.672 71.9715 136.352C71.8465 136.537 71.7042 136.705 71.5469 136.856C72.4941 137.235 73.2222 138.075 73.4258 139.125C73.6313 140.184 73.2608 141.232 72.5263 141.933C73.4762 142.311 74.2066 143.151 74.4109 144.203C74.6171 145.267 74.2452 146.312 73.5149 147.01C74.463 147.389 75.1919 148.229 75.3957 149.28C75.602 150.344 75.2298 151.389 74.4997 152.088C75.4479 152.466 76.1767 153.307 76.3806 154.358C76.5871 155.422 76.2152 156.466 75.4846 157.165C76.4327 157.544 77.1616 158.384 77.3654 159.435C77.5719 160.499 77.2 161.544 76.4697 162.243C77.4178 162.621 78.1467 163.462 78.3503 164.513C78.673 166.176 77.5823 167.791 75.9198 168.114L52.0663 172.741ZM43.2058 121.957L52.8357 171.602L75.7344 167.16C76.285 167.053 76.7611 166.738 77.0752 166.274C77.389 165.809 77.503 165.249 77.3962 164.699C77.2052 163.713 76.3395 162.998 75.3374 162.998C75.2032 162.998 75.0678 163.011 74.9349 163.037L74.7496 162.083C75.8863 161.862 76.6319 160.758 76.4113 159.621C76.2201 158.636 75.3544 157.92 74.3525 157.92C74.2184 157.92 74.083 157.934 73.9498 157.959L73.7645 157.005C74.3154 156.898 74.7914 156.583 75.1055 156.119C75.4193 155.654 75.5333 155.094 75.4265 154.544C75.2352 153.558 74.3695 152.843 73.3677 152.843C73.2333 152.843 73.0979 152.856 72.965 152.882L72.7796 151.928C73.9163 151.707 74.6619 150.603 74.4416 149.466C74.2504 148.481 73.3847 147.766 72.3828 147.766C72.2487 147.766 72.1133 147.779 71.9801 147.804L71.7948 146.85C72.9315 146.63 73.6771 145.526 73.4568 144.389C73.2658 143.404 72.4001 142.69 71.3982 142.69C71.2776 142.69 71.1555 142.701 71.0356 142.721L70.8156 141.776L70.9268 141.744C72.0097 141.461 72.6819 140.395 72.4717 139.311C72.2804 138.326 71.4147 137.611 70.4129 137.611C70.2787 137.611 70.1433 137.624 70.0102 137.649L69.8248 136.695C70.3757 136.589 70.8518 136.273 71.1659 135.809C71.4797 135.344 71.5937 134.785 71.4868 134.234C71.3062 133.302 70.5175 132.606 69.5696 132.541L67.7461 132.416L69.3906 131.619C70.2457 131.204 70.7169 130.264 70.536 129.332C70.3447 128.346 69.479 127.631 68.4772 127.631C68.3428 127.631 68.2074 127.644 68.0744 127.67L67.8891 126.716C69.0261 126.495 69.7717 125.391 69.5511 124.254C69.3598 123.269 68.4941 122.554 67.4923 122.554C67.3579 122.554 67.2225 122.567 67.0896 122.593L66.9042 121.639C68.0412 121.418 68.7868 120.314 68.5663 119.177C68.3748 118.191 67.509 117.476 66.5072 117.476C66.3731 117.476 66.2377 117.489 66.1048 117.515L43.2058 121.957Z" fill="#D7C0FF"/>
<path d="M88.5344 348.662L84.3597 349.474L78.6246 350.587C77.254 350.849 75.8931 350.689 74.6879 350.203C72.5836 349.347 70.9358 347.476 70.4694 345.08L59.6264 289.174L50.5865 242.575L50.431 241.773L50.1344 240.227L49.8281 238.638C49.5559 237.228 49.7309 235.829 50.251 234.594C51.2182 232.339 51.9618 230.006 52.4622 227.63C52.4622 227.605 52.4721 227.591 52.4721 227.566C53.2836 223.674 53.4197 219.664 52.7199 215.698L35.6464 118.836C35.3158 117.149 36.4191 115.516 38.1104 115.191C39.7968 114.87 41.43 115.963 41.7603 117.65L43.0824 123.895L43.1018 123.983L43.1796 124.347L43.2429 124.658L43.6608 126.641L44.1177 128.804L44.3072 129.693L44.735 131.7L45.1821 133.819V133.824L45.3669 134.728L45.7605 136.585V136.59L45.8092 136.76V136.765L46.2417 138.84V138.845L46.4362 139.764L46.8396 141.649V141.654L47.311 143.856V143.866L47.5055 144.794V144.799L47.904 146.709L47.9089 146.714L48.3707 148.881L48.5698 149.829L48.9829 151.768L49.4348 153.902L49.6342 154.864L50.0568 156.832L50.4893 158.917V158.922L50.7081 159.899L51.1212 161.887L51.1261 161.892V161.897L51.5586 163.933V163.938L51.7676 164.935L52.1902 166.952V166.957L52.618 168.954V168.959L53.2644 172.011L62.1293 213.877C63.4755 220.234 66.8874 225.881 71.485 230.479C72.4376 231.426 73.1179 232.651 73.3998 234.07L73.4192 234.206L73.4288 234.24L75.0424 242.576L77.2488 253.948L84.7335 292.523L94.0408 340.507C94.7699 344.278 92.3106 347.928 88.5344 348.662Z" fill="#B286FE"/>
<g opacity="0.5">
<path d="M139.32 242.575L139.238 242.789L137.08 248.631L117.843 300.649L96.2887 295.361L84.7364 292.523L76.4108 290.481L84.5175 346.985C84.6391 347.84 84.5806 348.681 84.362 349.473L78.6269 350.586C77.2563 350.849 75.8954 350.688 74.6902 350.202C72.5859 349.347 70.9381 347.476 70.4717 345.08L59.6288 289.173L50.5889 242.574H139.32V242.575Z" fill="#6635BA"/>
</g>
<path d="M36.2275 251.254H139.343L122.495 381.571H53.0746L36.2275 251.254Z" fill="#975DFB"/>
<g opacity="0.5">
<path d="M139.343 251.255L122.497 381.571H114.3L131.145 251.255H139.343Z" fill="white"/>
</g>
<g opacity="0.5">
<path d="M61.2763 381.571H53.079L36.2275 251.255H44.4248L61.2763 381.571Z" fill="#6629CE"/>
</g>
<path d="M440.716 279.942V372.349C440.716 377.44 436.584 381.571 431.493 381.571H336.544C331.447 381.571 327.321 377.44 327.321 372.349V279.942H440.716Z" fill="#975DFB"/>
<path d="M440.716 319.975V372.349C440.716 377.44 436.584 381.571 431.493 381.571H336.544C331.447 381.571 327.321 377.44 327.321 372.349V333.364C332.807 335.794 340.905 337.519 352.823 337.036C386.764 335.665 390.66 314.413 425.778 317.155C431.817 317.626 436.731 318.633 440.716 319.975Z" fill="#B286FE"/>
<path d="M348.914 323.795C339.912 323.795 332.381 322.477 326.485 319.865L328.163 316.079C334.326 318.81 342.596 319.986 352.742 319.576C368.187 318.952 377.294 314.043 386.1 309.296C396.223 303.839 406.691 298.195 425.942 299.7C431.782 300.155 436.976 301.138 441.379 302.621L440.058 306.545C435.978 305.171 431.12 304.256 425.62 303.828C407.583 302.42 398.102 307.53 388.065 312.941C378.844 317.911 369.31 323.051 352.909 323.713C351.548 323.768 350.215 323.795 348.914 323.795Z" fill="#B286FE"/>
<path d="M408.337 359.101C421.771 345.667 421.771 323.886 408.337 310.452C394.903 297.018 373.122 297.018 359.689 310.452C346.255 323.886 346.255 345.667 359.689 359.101C373.122 372.535 394.903 372.535 408.337 359.101Z" fill="#D7C0FF"/>
<path d="M384.019 370.212C364.48 370.212 348.584 354.315 348.584 334.776C348.584 315.237 364.48 299.341 384.019 299.341C403.558 299.341 419.454 315.237 419.454 334.776C419.454 354.315 403.558 370.212 384.019 370.212ZM384.019 301.411C365.622 301.411 350.654 316.379 350.654 334.776C350.654 353.174 365.622 368.141 384.019 368.141C402.417 368.141 417.384 353.174 417.384 334.776C417.384 316.379 402.417 301.411 384.019 301.411Z" fill="white"/>
<path d="M440.718 280.701C440.718 284.814 427.18 288.36 407.686 289.968C403.767 290.292 399.613 290.541 395.273 290.7C395.121 290.706 394.976 290.706 394.818 290.713H394.811C394.086 290.741 393.355 290.762 392.617 290.783L392.306 290.789L384.019 290.9C381.204 290.9 378.437 290.865 375.732 290.789C375.629 290.789 375.525 290.783 375.428 290.783C374.69 290.762 373.952 290.741 373.227 290.713C373.075 290.706 372.924 290.706 372.772 290.7C368.432 290.541 364.271 290.293 360.351 289.968C340.858 288.36 327.327 284.814 327.327 280.701C327.327 275.83 346.261 271.759 371.599 270.744C375.594 270.578 379.755 270.496 384.019 270.496C388.29 270.496 392.444 270.579 396.446 270.744C421.784 271.759 440.718 275.83 440.718 280.701Z" fill="#B286FE"/>
<path d="M355.184 277.731C350.597 277.732 345.788 276.746 341.611 273.825C334.881 269.117 335.655 261.507 336.339 254.792C336.802 250.24 337.24 245.94 335.727 242.446C328.925 226.73 313.61 230.701 313.457 230.745C313.524 230.726 313.568 230.706 313.591 230.696L312.245 227.519C312.715 227.32 317.377 226.212 322.892 227.374C327.947 228.438 334.826 231.68 338.893 241.076C340.763 245.395 340.259 250.35 339.771 255.142C339.099 261.747 338.518 267.451 343.588 270.998C354.474 278.611 371.526 270.497 371.697 270.414L373.205 273.517C372.69 273.768 364.385 277.731 355.184 277.731Z" fill="white"/>
<path d="M407.686 289.968C403.766 290.293 399.612 290.541 395.272 290.7C395.12 290.707 394.976 290.707 394.817 290.713H394.81C394.086 290.741 393.354 290.762 392.616 290.783L392.305 290.789L384.018 290.9C381.203 290.9 378.436 290.865 375.731 290.789C375.628 290.789 375.524 290.783 375.428 290.783C374.689 290.762 373.951 290.741 373.226 290.713C373.074 290.707 372.923 290.707 372.771 290.7C368.431 290.541 364.27 290.293 360.351 289.968C360.571 284.131 362.911 278.824 366.63 274.822C368.086 273.242 369.763 271.862 371.598 270.744C375.207 268.502 379.464 267.211 384.018 267.211C388.572 267.211 392.83 268.502 396.446 270.744C398.281 271.869 399.951 273.242 401.414 274.822C405.133 278.824 407.465 284.131 407.686 289.968Z" fill="white"/>
<path d="M403.396 289.951H402.706C402.706 285.226 400.942 280.722 397.739 277.269C394.211 273.453 389.211 271.266 384.02 271.266C378.828 271.266 373.828 273.453 370.301 277.268C367.098 280.722 365.334 285.226 365.334 289.951H364.644C364.644 285.052 366.473 280.381 369.795 276.799C373.452 272.844 378.637 270.575 384.02 270.575C389.403 270.575 394.588 272.844 398.245 276.8C401.566 280.381 403.396 285.052 403.396 289.951Z" fill="#D7C0FF"/>
<path d="M398.491 286.745H398.005C398.005 283.621 396.688 280.642 394.298 278.355C391.656 275.822 387.91 274.369 384.02 274.369C380.128 274.369 376.382 275.822 373.742 278.355C371.35 280.642 370.034 283.621 370.034 286.745H369.548C369.548 283.487 370.918 280.383 373.405 278.004C376.136 275.386 380.004 273.884 384.019 273.884C388.034 273.884 391.903 275.386 394.633 278.005C397.121 280.383 398.491 283.487 398.491 286.745Z" fill="#D7C0FF"/>
<path d="M373.226 290.714C373.074 290.707 372.922 290.707 372.77 290.7C372.377 289.506 372.163 288.243 372.163 286.953H372.584C372.584 288.243 372.805 289.52 373.226 290.714Z" fill="#D7C0FF"/>
<path d="M395.878 286.953C395.878 288.243 395.664 289.506 395.271 290.7C395.119 290.706 394.974 290.706 394.815 290.713C395.229 289.52 395.45 288.243 395.45 286.953H395.878Z" fill="#D7C0FF"/>
<path d="M375.731 290.789C375.627 290.789 375.524 290.783 375.427 290.783C375.248 290.175 375.165 289.554 375.165 288.913H375.462C375.461 289.554 375.551 290.182 375.731 290.789Z" fill="#D7C0FF"/>
<path d="M392.876 288.913C392.876 289.554 392.794 290.175 392.614 290.783L392.304 290.789C392.483 290.182 392.573 289.554 392.573 288.913H392.876Z" fill="#D7C0FF"/>
<path d="M440.311 278.727L346.219 215.446C351.236 207.986 361.351 206.006 368.81 211.023L435.888 256.136C443.348 261.153 445.328 271.267 440.311 278.727Z" fill="#975DFB"/>
<path d="M440.211 278.677C437.921 282.093 424.701 277.502 407.613 267.985C404.177 266.072 400.588 263.966 396.894 261.681C396.764 261.602 396.644 261.522 396.508 261.439L396.502 261.435C395.885 261.054 395.266 260.665 394.641 260.271L394.38 260.103L387.434 255.581C385.096 254.014 382.816 252.445 380.612 250.876C380.526 250.818 380.444 250.755 380.364 250.701C379.762 250.273 379.16 249.844 378.574 249.418C378.451 249.328 378.325 249.243 378.203 249.153C374.686 246.605 371.368 244.082 368.293 241.63C352.996 229.442 343.73 218.962 346.02 215.546C348.732 211.499 366.727 218.659 388.339 231.923C391.75 234.01 395.252 236.258 398.795 238.632C402.343 241.01 405.747 243.392 408.979 245.757C429.462 260.707 442.923 274.631 440.211 278.677Z" fill="#753FD1"/>
<path d="M372.447 339.087C372.447 339.087 368.823 338.019 365.529 339.699C362.235 341.379 358.739 344.27 355.916 344.203C355.916 344.203 361.361 349.991 369.832 349.82C372.816 349.759 374.975 349.52 376.519 349.235C378.293 348.907 379.053 346.794 377.88 345.425L372.447 339.087Z" fill="#8D57EA"/>
<path d="M355.916 344.203C355.916 344.203 360.202 345.53 365.294 343.312C370.386 341.094 374.924 341.85 376.789 343.312C378.655 344.774 378.711 345.163 378.711 345.163C378.711 345.163 374.509 341.805 369.63 343.541C361.059 346.589 355.916 344.203 355.916 344.203Z" fill="#86D2FD"/>
<path d="M395.084 334.569C395.084 334.569 398.273 332.39 402.006 332.988C405.739 333.586 410.049 335.298 412.774 334.345C412.774 334.345 409.299 341.689 401.005 344.187C392.711 346.685 390.438 345.687 390.438 345.687L395.084 334.569Z" fill="#8D57EA"/>
<path d="M412.776 334.345C412.776 334.345 409.024 336.985 403.373 336.429C397.721 335.873 393.545 338.036 392.19 340.046C390.835 342.055 390.903 342.452 390.903 342.452C390.903 342.452 393.934 337.862 399.226 338.015C408.524 338.284 412.776 334.345 412.776 334.345Z" fill="#86D2FD"/>
<path d="M375.184 328.391C375.184 328.391 372.67 324.111 368.003 322.763C363.335 321.414 357.387 321.045 354.74 318.444C354.74 318.444 354.76 328.885 363.035 336.331C371.309 343.776 374.499 343.86 374.499 343.86L375.184 328.391Z" fill="#8D57EA"/>
<path d="M354.74 318.444C354.74 318.444 357.656 323.567 364.531 326.015C371.406 328.464 375.077 333.266 375.551 336.343C376.026 339.421 375.731 339.845 375.731 339.845C375.731 339.845 374.72 332.85 368.483 330.13C357.526 325.352 354.74 318.444 354.74 318.444Z" fill="#86D2FD"/>
<path d="M399.246 333.404L399.245 333.406C398.229 336.544 396.856 338.831 395.966 340.166C395.341 341.104 394.879 342.639 394.439 344.324C393.726 347.057 393.069 350.188 391.866 351.816C388.088 356.93 390.147 350.342 389.123 346.083C388.39 343.035 387.704 340.44 384.058 340.24C380.413 340.441 379.727 343.035 378.994 346.083C378.28 349.056 379.067 353.164 378.322 353.634C378 353.837 377.391 353.36 376.251 351.816C374.657 349.659 373.967 344.862 372.869 341.85C372.627 341.187 372.366 340.61 372.07 340.167C370.432 337.71 367.16 332.038 367.488 323.766C367.501 323.423 367.523 323.089 367.554 322.765C367.869 319.378 369.106 317.097 371.583 316.306C373.582 315.667 376.026 315.728 377.914 316.56C378.845 316.97 379.641 317.568 380.182 318.361C380.2 318.387 380.218 318.413 380.235 318.439C382.229 321.325 385.102 321.6 387.263 319.266C387.492 319.02 387.712 318.744 387.923 318.439C387.941 318.413 387.959 318.387 387.977 318.361C389.24 316.508 391.869 315.723 394.375 315.899C395.119 315.951 395.852 316.087 396.535 316.306C399.248 317.173 400.392 319.828 400.548 323.766C400.697 327.539 400.098 330.772 399.246 333.404Z" fill="white"/>
<g opacity="0.4">
<path d="M394.439 344.324C393.726 347.057 393.069 350.188 391.867 351.816C388.088 356.93 390.147 350.342 389.123 346.083C388.391 343.035 387.705 340.44 384.059 340.24C380.413 340.441 379.727 343.035 378.995 346.083C378.28 349.056 379.067 353.164 378.322 353.634C378.205 350.973 376.926 343.506 372.869 341.849C372.627 341.186 372.366 340.609 372.07 340.166C370.432 337.709 367.16 332.037 367.488 323.766C367.501 323.422 367.523 323.088 367.554 322.764C367.992 324.563 370.146 332.077 376.087 334.776C382.858 337.853 389.164 336.378 391.866 341.456C392.603 342.839 393.51 343.742 394.439 344.324Z" fill="#D7C0FF"/>
</g>
<g opacity="0.4">
<path d="M399.247 333.404C400.505 327.94 398.01 318.795 394.377 315.899C395.121 315.951 395.853 316.087 396.536 316.305C399.249 317.172 400.393 319.828 400.549 323.766C400.699 327.539 400.099 330.772 399.247 333.404Z" fill="#D7C0FF"/>
</g>
<g opacity="0.4">
<path d="M387.266 319.266C386.243 321.423 385.966 323.535 383.049 322.765C378.32 321.516 379.458 317.536 377.916 316.56C378.847 316.97 379.643 317.567 380.184 318.361C380.202 318.387 380.22 318.413 380.237 318.439C382.232 321.324 385.104 321.6 387.266 319.266Z" fill="#D7C0FF"/>
</g>
<g opacity="0.7">
<path d="M431.769 353.678C430.085 353.678 428.72 352.313 428.72 350.629V293.839C428.72 292.155 430.085 290.789 431.769 290.789C433.453 290.789 434.819 292.155 434.819 293.839V350.629C434.819 352.313 433.453 353.678 431.769 353.678Z" fill="white"/>
</g>
<g opacity="0.7">
<path d="M433.785 364.683C435.155 363.313 435.155 361.092 433.785 359.722C432.415 358.352 430.193 358.352 428.823 359.722C427.453 361.092 427.453 363.313 428.823 364.683C430.193 366.053 432.415 366.053 433.785 364.683Z" fill="white"/>
</g>
<path d="M544.932 308.833C558.471 296.811 559.455 275.814 547.131 261.934C534.806 248.054 513.84 246.548 500.301 258.57C486.762 270.591 485.778 291.588 498.102 305.468C510.427 319.348 531.393 320.854 544.932 308.833Z" fill="#5321AA"/>
<path d="M517.301 301.965C525.839 299.21 537.102 289.388 541.42 280.548C544.016 275.235 544.861 270.604 541.452 266.799C538.042 262.992 536.175 263.798 533.611 265.683C531.046 267.569 530.215 269.453 529.999 270.646C529.589 272.909 533.4 277.315 533.62 278.711C533.84 280.108 533.352 280.9 531.477 283.596C531.161 284.052 530.735 284.535 530.236 285.028C529.195 286.054 524.215 290.476 523.073 291.389C522.524 291.826 521.993 292.192 521.504 292.451C518.604 293.995 517.76 294.386 516.4 294.002C515.04 293.618 511.116 289.312 508.82 289.452C507.61 289.526 505.64 290.129 503.465 292.452C501.288 294.775 500.269 296.533 503.645 300.369C507.02 304.204 511.675 303.78 517.301 301.965Z" fill="white"/>
<path d="M523.612 327.841C522.544 327.841 521.471 327.802 520.394 327.725C508.657 326.882 497.839 321.513 489.932 312.607C486.356 308.582 483.555 304.031 481.603 299.081L483.192 298.454C485.07 303.217 487.768 307.597 491.209 311.473C498.819 320.043 509.227 325.21 520.517 326.021C531.796 326.829 542.609 323.195 550.958 315.781C556.869 310.532 561.115 303.723 563.236 296.089L564.883 296.546C562.673 304.498 558.25 311.591 552.093 317.058C544.194 324.072 534.182 327.841 523.612 327.841Z" fill="#5321AA"/>
<path d="M480.289 279.642L478.585 279.522C479.387 268.179 484.458 257.821 492.865 250.356C501.562 242.633 512.819 238.846 524.563 239.689C536.3 240.532 547.119 245.901 555.026 254.807L553.749 255.941C546.139 247.371 535.73 242.204 524.441 241.393C513.158 240.584 502.349 244.219 493.999 251.633C485.928 258.8 481.059 268.747 480.289 279.642Z" fill="#5321AA"/>
<path d="M522.435 345.846C521.257 345.846 520.079 345.811 518.897 345.741C485.516 343.76 460.01 314.319 462.04 280.114C462.484 272.626 464.207 265.381 467.161 258.582L469.344 259.53C466.502 266.073 464.844 273.046 464.416 280.255C462.464 313.15 486.967 341.461 519.038 343.365C530.032 344.019 540.924 341.492 550.536 336.06L551.707 338.133C542.728 343.207 532.675 345.846 522.435 345.846Z" fill="#5321AA"/>
<path d="M583.118 287.3L580.742 287.159C581.688 271.218 576.524 255.874 566.2 243.952C555.884 232.039 541.65 224.971 526.12 224.05C511.108 223.157 496.511 228.161 485.019 238.137L483.458 236.339C495.423 225.953 510.627 220.747 526.261 221.673C542.437 222.633 557.26 229.992 568 242.394C578.732 254.788 584.102 270.736 583.118 287.3Z" fill="#5321AA"/>
</g>
<defs>
<clipPath id="clip0_189_24408">
<rect width="618.016" height="390" fill="white"/>
</clipPath>
</defs>
</svg>
