<svg width="595" height="375" viewBox="0 0 595 375" fill="none" xmlns="http://www.w3.org/2000/svg">
<g clip-path="url(#clip0_182_18416)">
<path fill-rule="evenodd" clip-rule="evenodd" d="M55.397 0H454.74C460.249 0 464.813 4.56358 464.813 10.0738V237.295C464.813 242.847 460.249 247.41 454.74 247.41H55.397C49.8463 247.41 45.3232 242.847 45.3232 237.295V10.0732C45.3232 4.56357 49.8469 0 55.397 0Z" fill="white"/>
<path fill-rule="evenodd" clip-rule="evenodd" d="M54.1634 0H455.973C460.825 0 464.813 3.98844 464.813 8.84018V36.0609C464.813 36.4306 464.484 36.801 464.073 36.801H45.3232V8.84018C45.3232 3.98844 49.3117 0 54.1634 0Z" fill="#353F49"/>
<path fill-rule="evenodd" clip-rule="evenodd" d="M66.0465 26.0686C70.2814 26.0686 73.7358 22.4088 73.7358 17.9679C73.7358 13.5281 70.2814 9.90942 66.0465 9.90942C61.8116 9.90942 58.3584 13.5281 58.3584 17.9679C58.3578 22.4094 61.8116 26.0686 66.0465 26.0686Z" fill="#F77B55"/>
<path fill-rule="evenodd" clip-rule="evenodd" d="M87.5937 26.0686C91.828 26.0686 95.2824 22.4088 95.2824 17.9679C95.2824 13.5281 91.828 9.90942 87.5937 9.90942C83.3171 9.90942 79.8633 13.5281 79.8633 17.9679C79.8627 22.4094 83.3164 26.0686 87.5937 26.0686Z" fill="#76D0DE"/>
<path fill-rule="evenodd" clip-rule="evenodd" d="M109.098 26.0686C113.332 26.0686 116.787 22.4088 116.787 17.9679C116.787 13.5281 113.332 9.90942 109.098 9.90942C104.862 9.90942 101.408 13.5281 101.408 17.9679C101.409 22.4094 104.863 26.0686 109.098 26.0686Z" fill="#FFDB79"/>
<path d="M452.848 11.1843H128.465V26.4802H452.848V11.1843Z" fill="white"/>
<path d="M169.007 51.1108H78.999V63.0345H169.007V51.1108Z" fill="#CCCCCC"/>
<path d="M296.351 51.1108H206.343V63.0345H296.351V51.1108Z" fill="#CCCCCC"/>
<path d="M424.066 51.1108H334.056V63.0345H424.066V51.1108Z" fill="#CCCCCC"/>
<path d="M242.898 90.9954H81.877V97.6148H242.898V90.9954Z" fill="#CCCCCC"/>
<path d="M273.654 107.771H112.634V114.391H273.654V107.771Z" fill="#CCCCCC"/>
<path d="M247.627 124.548H86.6064V131.168H247.627V124.548Z" fill="#CCCCCC"/>
<path d="M242.898 141.323H81.877V147.944H242.898V141.323Z" fill="#CCCCCC"/>
<path d="M273.654 158.141H112.634V164.761H273.654V158.141Z" fill="#CCCCCC"/>
<path d="M247.627 174.919H86.6064V181.537H247.627V174.919Z" fill="#CCCCCC"/>
<path d="M242.898 191.693H81.877V198.315H242.898V191.693Z" fill="#CCCCCC"/>
<path d="M273.654 208.469H112.634V215.091H273.654V208.469Z" fill="#CCCCCC"/>
<path d="M439.935 85.1558H300.051V224.959H439.935V85.1558Z" fill="#08C6A2"/>
<path fill-rule="evenodd" clip-rule="evenodd" d="M386.399 143.749C392.979 143.749 398.324 149.094 398.324 155.674C398.324 162.252 392.979 167.597 386.399 167.597C379.821 167.597 374.476 162.252 374.476 155.674C374.476 149.095 379.822 143.749 386.399 143.749ZM386.399 146.998C391.211 146.998 395.117 150.862 395.117 155.674C395.117 160.485 391.211 164.351 386.399 164.351C381.63 164.351 377.725 160.485 377.725 155.674C377.725 150.862 381.63 146.998 386.399 146.998Z" fill="#E6E6E6"/>
<path fill-rule="evenodd" clip-rule="evenodd" d="M386.4 137.376C396.516 137.376 404.699 145.558 404.699 155.674C404.699 165.79 396.516 173.972 386.4 173.972C376.326 173.972 368.102 165.79 368.102 155.674C368.102 145.559 376.327 137.376 386.4 137.376ZM386.4 135.319C397.668 135.319 406.795 144.408 406.795 155.674C406.795 166.94 397.668 176.068 386.4 176.068C375.175 176.068 366.047 166.94 366.047 155.674C366.047 144.408 375.175 135.319 386.4 135.319Z" fill="#CCCCCC"/>
<path fill-rule="evenodd" clip-rule="evenodd" d="M386.4 126.027C402.765 126.027 416.047 139.309 416.047 155.675C416.047 172.04 402.765 185.321 386.4 185.321C370.035 185.321 356.795 172.041 356.795 155.675C356.795 139.309 370.036 126.027 386.4 126.027ZM386.4 127.879C401.738 127.879 414.197 140.338 414.197 155.675C414.197 171.012 401.738 183.471 386.4 183.471C371.062 183.471 358.645 171.012 358.645 155.675C358.646 140.338 371.063 127.879 386.4 127.879Z" fill="#B3B3B3"/>
<path fill-rule="evenodd" clip-rule="evenodd" d="M386.481 154.687L411.03 168.051L435.577 181.415L414.649 187.376L431.18 214.432L419.214 221.711L402.684 194.654L387.88 210.567L387.182 182.608L386.481 154.687Z" fill="#FEFEFE"/>
<path fill-rule="evenodd" clip-rule="evenodd" d="M327.232 123.561L328.424 129.811H331.877L325.956 98.8078H320.94L315.019 129.811H318.185L319.378 123.561H327.232ZM323.242 102.714L326.739 120.6H319.83L323.242 102.714ZM334.592 98.8078V129.811H341.828C346.68 129.811 348.86 126.891 348.86 122.162V106.538C348.86 101.727 346.68 98.8078 341.828 98.8078H334.592ZM338.046 126.645V101.974H341.746C344.255 101.974 345.447 103.495 345.447 106.332V122.285C345.447 125.122 344.255 126.644 341.787 126.644H338.046V126.645ZM358.604 98.519C353.958 98.519 351.738 101.48 351.738 106.249C351.738 114.967 362.099 115.625 362.099 122.534C362.099 125.329 360.948 126.973 358.481 126.973C356.015 126.973 354.863 125.328 354.863 122.534V120.6H351.615V122.368C351.615 127.056 353.834 130.098 358.563 130.098C363.291 130.098 365.554 127.055 365.554 122.368C365.554 113.651 355.15 112.993 355.15 106.045C355.15 103.29 356.221 101.645 358.687 101.645C361.196 101.645 362.223 103.29 362.223 106.085V107.113H365.512V106.249C365.513 101.562 363.291 98.519 358.604 98.519Z" fill="white"/>
<path fill-rule="evenodd" clip-rule="evenodd" d="M443.473 126.109C448.57 129.152 480.767 148.437 483.975 143.133L488.457 135.649C488.909 134.908 489.032 134.086 488.95 133.305C488.826 132.237 484.057 130.222 483.069 129.646L423.859 93.2553C422.791 92.6391 416.581 88.9793 415.553 89.4735C414.896 89.761 414.28 90.254 413.908 90.9119L409.427 98.3547C405.644 104.687 438.128 122.902 443.473 126.109Z" fill="#FFB438"/>
<path fill-rule="evenodd" clip-rule="evenodd" d="M454.37 108.059C434.098 95.8876 416.705 87.6226 415.513 89.5969C414.321 91.6116 429.782 103.083 450.052 115.255C470.323 127.427 487.757 135.691 488.95 133.676C490.142 131.702 474.64 120.23 454.37 108.059Z" fill="#FCD471"/>
<path fill-rule="evenodd" clip-rule="evenodd" d="M453.834 108.922C437.222 98.9305 422.502 91.6116 417.115 90.3779C425.052 93.7496 438.455 100.904 453.341 109.827C468.184 118.709 480.808 127.219 487.509 132.647C483.892 128.454 470.486 118.914 453.834 108.922Z" fill="#FFB438"/>
<path fill-rule="evenodd" clip-rule="evenodd" d="M300.051 186.965C304.247 182.73 330.767 156.168 326.368 151.769L320.2 145.601C319.584 145.025 318.843 144.655 318.062 144.574C316.993 144.449 313.868 148.56 313.046 149.384L263.457 198.068C262.594 198.931 257.535 204.07 257.741 205.222C257.865 205.922 258.194 206.579 258.729 207.154L264.897 213.281C270.117 218.504 295.653 191.365 300.051 186.965Z" fill="#FFB438"/>
<path fill-rule="evenodd" clip-rule="evenodd" d="M285.167 171.998C268.473 188.733 256.261 203.66 257.906 205.263C259.51 206.908 274.394 194.697 291.13 177.962C307.823 161.184 320.036 146.3 318.432 144.655C316.788 143.051 301.902 155.262 285.167 171.998Z" fill="#FCD471"/>
<path fill-rule="evenodd" clip-rule="evenodd" d="M285.907 172.739C272.174 186.472 261.523 198.972 259.016 203.906C264.197 197.04 274.394 185.733 286.647 173.437C298.858 161.184 310.167 150.987 317.032 145.805C312.099 148.314 299.64 159.005 285.907 172.739Z" fill="#FFB438"/>
<path fill-rule="evenodd" clip-rule="evenodd" d="M213.785 148.109C212.552 142.311 204.74 105.593 198.654 106.867L190.101 108.676C189.279 108.841 188.58 109.293 188.086 109.909C187.387 110.732 189.156 115.584 189.361 116.735L203.095 184.869C203.341 186.061 204.903 193.092 205.973 193.544C206.631 193.833 207.371 193.915 208.152 193.751L216.664 191.94C223.86 190.419 215.061 154.235 213.785 148.109Z" fill="#FFB438"/>
<path fill-rule="evenodd" clip-rule="evenodd" d="M193.143 152.426C198.037 175.575 203.835 193.956 206.095 193.461C208.357 192.968 206.219 173.848 201.326 150.697C196.434 127.548 190.636 109.169 188.374 109.663C186.112 110.156 188.25 129.276 193.143 152.426Z" fill="#FCD471"/>
<path fill-rule="evenodd" clip-rule="evenodd" d="M194.13 152.219C198.16 171.217 202.806 186.964 205.562 191.775C202.642 183.675 198.736 168.955 195.117 152.015C191.54 135.073 189.155 120.024 188.58 111.43C187.962 116.94 190.101 133.222 194.13 152.219Z" fill="#FFB438"/>
<path fill-rule="evenodd" clip-rule="evenodd" d="M427.764 82.3194C433.687 83.0595 470.898 87.8701 471.721 81.702L472.832 73.0678C472.955 72.2456 472.749 71.4234 472.337 70.7238C471.802 69.8194 466.623 69.8611 465.47 69.6968L396.68 60.0742C395.445 59.9099 388.291 59.0473 387.511 59.8695C387.017 60.4035 386.689 61.1031 386.606 61.8431L385.454 70.4779C384.508 77.7957 421.597 81.4966 427.764 82.3194Z" fill="#FFB438"/>
<path fill-rule="evenodd" clip-rule="evenodd" d="M430.562 61.4312C407.084 58.3472 387.839 57.7303 387.552 60.0333C387.264 62.3356 406.014 66.6944 429.494 69.7374C452.931 72.7797 472.174 73.3978 472.503 71.0948C472.791 68.7913 453.999 64.4736 430.562 61.4312Z" fill="#FCD471"/>
<path fill-rule="evenodd" clip-rule="evenodd" d="M430.437 62.4171C411.194 59.9088 394.747 59.0461 389.319 60.1148C397.954 60.0326 413.127 61.1841 430.274 63.4453C447.46 65.6661 462.428 68.4209 470.733 70.6816C465.758 68.2977 449.682 64.9261 430.437 62.4171Z" fill="#FFB438"/>
<path fill-rule="evenodd" clip-rule="evenodd" d="M173.284 365.996C180.686 365.996 227.643 365.914 227.643 358.141V347.287C227.643 346.218 227.273 345.231 226.656 344.449C225.834 343.379 219.419 344.284 217.98 344.284L131.137 343.421C129.616 343.421 120.57 343.503 119.748 344.655C119.254 345.394 118.926 346.3 118.926 347.287V358.141C118.926 367.352 165.471 365.996 173.284 365.996Z" fill="#FFB438"/>
<path fill-rule="evenodd" clip-rule="evenodd" d="M173.365 350.123C202.848 350.123 226.861 347.739 226.861 344.86C226.861 341.982 202.848 339.639 173.365 339.639C143.884 339.639 119.83 341.981 119.83 344.86C119.83 347.739 143.884 350.123 173.365 350.123Z" fill="#FCD471"/>
<path fill-rule="evenodd" clip-rule="evenodd" d="M173.366 340.913C149.107 340.913 128.588 342.476 122.051 344.655C132.7 343.174 151.696 342.187 173.366 342.187C194.995 342.187 213.991 343.174 224.682 344.655C218.103 342.476 197.626 340.913 173.366 340.913Z" fill="#FFB438"/>
<path fill-rule="evenodd" clip-rule="evenodd" d="M173.284 346.834C180.686 346.834 227.643 346.752 227.643 338.98V328.125C227.643 327.055 227.273 326.069 226.656 325.287C225.834 324.22 219.419 325.123 217.98 325.123L131.137 324.261C129.616 324.261 120.57 324.342 119.748 325.494C119.254 326.234 118.926 327.139 118.926 328.125V338.98C118.926 348.191 165.471 346.834 173.284 346.834Z" fill="#FFB438"/>
<path fill-rule="evenodd" clip-rule="evenodd" d="M173.365 330.963C202.848 330.963 226.861 328.576 226.861 325.699C226.861 322.821 202.848 320.477 173.365 320.477C143.884 320.477 119.83 322.821 119.83 325.699C119.83 328.576 143.884 330.963 173.365 330.963Z" fill="#FCD471"/>
<path fill-rule="evenodd" clip-rule="evenodd" d="M173.366 321.75C149.107 321.75 128.588 323.314 122.051 325.493C132.7 324.012 151.696 323.026 173.366 323.026C194.995 323.026 213.991 324.012 224.682 325.493C218.103 323.314 197.626 321.75 173.366 321.75Z" fill="#FFB438"/>
<path fill-rule="evenodd" clip-rule="evenodd" d="M173.284 327.673C180.686 327.673 227.643 327.59 227.643 319.82V308.964C227.643 307.895 227.273 306.908 226.656 306.127C225.834 305.099 219.419 305.963 217.98 305.963L131.137 305.099C129.616 305.099 120.57 305.18 119.748 306.333C119.254 307.072 118.926 307.977 118.926 308.965V319.82C118.926 329.03 165.471 327.673 173.284 327.673Z" fill="#FFB438"/>
<path fill-rule="evenodd" clip-rule="evenodd" d="M173.365 311.802C202.848 311.802 226.861 309.415 226.861 306.538C226.861 303.659 202.848 301.316 173.365 301.316C143.884 301.316 119.83 303.659 119.83 306.538C119.83 309.415 143.884 311.802 173.365 311.802Z" fill="#FCD471"/>
<path fill-rule="evenodd" clip-rule="evenodd" d="M173.366 302.591C149.107 302.591 128.588 304.153 122.051 306.332C132.7 304.851 151.696 303.863 173.366 303.863C194.995 303.863 213.991 304.851 224.682 306.332C218.103 304.153 197.626 302.591 173.366 302.591Z" fill="#FFB438"/>
<path fill-rule="evenodd" clip-rule="evenodd" d="M173.284 308.512C180.686 308.512 227.643 308.429 227.643 300.658V289.803C227.643 288.734 227.273 287.747 226.656 286.964C225.834 285.938 219.419 286.801 217.98 286.801L131.137 285.938C129.616 285.938 120.57 286.02 119.748 287.171C119.254 287.912 118.926 288.817 118.926 289.804V300.659C118.926 309.868 165.471 308.512 173.284 308.512Z" fill="#FFB438"/>
<path fill-rule="evenodd" clip-rule="evenodd" d="M173.365 292.64C202.848 292.64 226.861 290.255 226.861 287.377C226.861 284.499 202.848 282.154 173.365 282.154C143.884 282.154 119.83 284.498 119.83 287.377C119.83 290.255 143.884 292.64 173.365 292.64Z" fill="#FCD471"/>
<path fill-rule="evenodd" clip-rule="evenodd" d="M173.366 283.429C149.107 283.429 128.588 284.992 122.051 287.17C132.7 285.691 151.696 284.703 173.366 284.703C194.995 284.703 213.991 285.691 224.682 287.17C218.103 284.992 197.626 283.429 173.366 283.429Z" fill="#FFB438"/>
<path fill-rule="evenodd" clip-rule="evenodd" d="M185.208 287.705C192.651 287.705 239.567 287.664 239.567 279.894V268.997C239.567 267.928 239.197 266.941 238.58 266.16C237.758 265.132 231.343 266.037 229.904 265.995L143.062 265.132C141.541 265.132 132.495 265.214 131.672 266.406C131.178 267.146 130.85 268.01 130.85 268.997V279.894C130.85 289.063 177.396 287.705 185.208 287.705Z" fill="#FFB438"/>
<path fill-rule="evenodd" clip-rule="evenodd" d="M185.29 271.835C214.772 271.835 238.827 269.49 238.827 266.57C238.827 263.692 214.772 261.349 185.29 261.349C155.808 261.349 131.754 263.691 131.754 266.57C131.754 269.49 155.808 271.835 185.29 271.835Z" fill="#FCD471"/>
<path fill-rule="evenodd" clip-rule="evenodd" d="M185.29 262.624C161.03 262.624 140.553 264.187 133.975 266.365C144.625 264.885 163.621 263.898 185.29 263.898C206.919 263.898 225.915 264.885 236.606 266.365C230.027 264.187 209.55 262.624 185.29 262.624Z" fill="#FFB438"/>
<path fill-rule="evenodd" clip-rule="evenodd" d="M171.762 266.859C179.206 266.859 226.121 266.817 226.121 259.046V248.15C226.121 247.122 225.751 246.136 225.135 245.353C224.313 244.285 217.938 245.189 216.5 245.189L129.616 244.327C128.095 244.286 119.091 244.408 118.269 245.56C117.734 246.301 117.446 247.204 117.446 248.15V259.047C117.446 268.256 163.95 266.859 171.762 266.859Z" fill="#FFB438"/>
<path fill-rule="evenodd" clip-rule="evenodd" d="M171.844 251.028C201.326 251.028 225.38 248.642 225.38 245.766C225.38 242.887 201.326 240.543 171.844 240.543C142.362 240.543 118.309 242.887 118.309 245.766C118.308 248.642 142.362 251.028 171.844 251.028Z" fill="#FCD471"/>
<path fill-rule="evenodd" clip-rule="evenodd" d="M171.844 241.817C147.585 241.817 127.108 243.38 120.529 245.559C131.22 244.079 150.215 243.093 171.844 243.093C193.515 243.093 212.511 244.079 223.161 245.559C216.581 243.38 196.105 241.817 171.844 241.817Z" fill="#FFB438"/>
<path fill-rule="evenodd" clip-rule="evenodd" d="M149.517 244.12C156.836 242.887 203.095 234.991 201.82 227.303L199.97 216.571C199.805 215.543 199.27 214.638 198.53 213.98C197.544 213.075 191.376 215.008 189.978 215.255L104.205 228.948C102.683 229.195 93.8018 230.798 93.1844 232.073C92.8147 232.895 92.6504 233.842 92.8147 234.786L94.6234 245.518C96.1863 254.563 141.827 245.435 149.517 244.12Z" fill="#FFB438"/>
<path fill-rule="evenodd" clip-rule="evenodd" d="M145.2 218.134C116.047 223.067 92.8149 229.399 93.3085 232.277C93.761 235.115 117.816 233.428 146.927 228.453C176.08 223.519 199.312 217.188 198.86 214.351C198.366 211.472 174.353 213.199 145.2 218.134Z" fill="#FCD471"/>
<path fill-rule="evenodd" clip-rule="evenodd" d="M145.405 219.408C121.474 223.437 101.532 228.453 95.4463 231.66C105.725 228.412 124.27 224.26 145.611 220.641C166.951 217.023 185.866 214.802 196.639 214.473C189.772 213.446 169.336 215.338 145.405 219.408Z" fill="#FFB438"/>
<path fill-rule="evenodd" clip-rule="evenodd" d="M84.2201 369.613C112.963 369.613 136.4 346.176 136.4 317.434C136.4 288.65 112.963 265.213 84.2201 265.213C55.4377 265.213 32 288.65 32 317.434C32 346.176 55.4383 369.613 84.2201 369.613Z" fill="#FFB438"/>
<path fill-rule="evenodd" clip-rule="evenodd" d="M84.2205 360.402C107.905 360.402 127.19 341.119 127.19 317.434C127.19 293.75 107.905 274.424 84.2205 274.424C60.537 274.424 41.2109 293.75 41.2109 317.434C41.2109 341.119 60.537 360.402 84.2205 360.402Z" fill="#FCD471"/>
<path fill-rule="evenodd" clip-rule="evenodd" d="M84.2201 357.978C106.547 357.978 124.763 339.761 124.763 317.434C124.763 295.108 106.547 276.892 84.2201 276.892C61.8927 276.892 43.6777 295.108 43.6777 317.434C43.6783 339.761 61.8927 357.978 84.2201 357.978Z" fill="#FFB438"/>
<path fill-rule="evenodd" clip-rule="evenodd" d="M79.7808 340.748H89.1146V337.008C94.2956 335.198 97.9959 330.592 97.9959 325.164C97.9959 322.121 96.9278 319.366 94.9946 317.146C92.4862 314.186 88.5395 312.253 84.1396 312.253C82.2892 312.253 80.8091 310.855 80.8091 309.17C80.8091 307.443 82.2898 306.004 84.1396 306.004C85.9907 306.004 87.5529 307.443 87.5529 309.17H97.9959C97.9959 303.741 94.2956 299.136 89.1146 297.286V292.968H79.7808V297.121C74.27 298.806 70.3643 303.577 70.3643 309.211C70.3643 316.282 76.4914 321.916 84.139 321.916C85.9901 321.916 87.5523 323.314 87.5523 325.042C87.5523 326.768 85.9895 328.125 84.139 328.125C82.2886 328.125 80.8085 326.768 80.8085 324.999H70.3232C70.3232 330.839 74.2706 335.567 79.7808 337.211V340.748Z" fill="#FCD471"/>
<path d="M184.756 372.245C183.441 372.985 181.796 372.492 181.014 371.217C180.274 369.901 180.768 368.215 182.043 367.476L224.559 328.659C224.189 327.468 223.984 326.151 223.984 324.835C223.984 317.763 229.699 312.008 236.812 312.008C240.102 312.008 243.144 313.281 245.406 315.338L300.712 275.822C300.012 274.302 299.642 272.574 299.642 270.765C299.642 263.693 305.398 257.936 312.471 257.936C319.544 257.936 325.301 263.693 325.301 270.765C325.301 271.177 325.259 271.629 325.218 272.041L378.014 290.873C380.274 287.256 384.305 284.869 388.91 284.869C392.446 284.869 395.652 286.308 397.956 288.609L426.04 270.641C426.821 270.148 427.766 270.065 428.549 270.396L479.165 291.53L476.862 298.89C476.616 299.631 476.945 297.327 477.069 296.589L427.767 275.986L400.917 293.215C401.411 294.613 401.697 296.094 401.697 297.657C401.697 304.77 395.983 310.487 388.91 310.487C381.797 310.487 376.082 304.77 376.082 297.657C376.082 297.122 376.122 296.589 376.164 296.012L323.533 277.222C321.311 281.045 317.199 283.595 312.471 283.595C309.181 283.595 306.138 282.32 303.878 280.263L248.572 319.779C249.23 321.342 249.601 323.027 249.601 324.835C249.601 331.908 243.885 337.665 236.812 337.665C232.989 337.665 229.617 336.02 227.274 333.389L184.756 372.245Z" fill="white"/>
<path fill-rule="evenodd" clip-rule="evenodd" d="M236.811 334.293C242.034 334.293 246.269 330.057 246.269 324.835C246.269 319.614 242.034 315.338 236.811 315.338C231.589 315.338 227.313 319.615 227.313 324.835C227.313 330.057 231.589 334.293 236.811 334.293Z" fill="#A3D3BB"/>
<path fill-rule="evenodd" clip-rule="evenodd" d="M312.47 280.222C317.692 280.222 321.968 275.986 321.968 270.765C321.968 265.543 317.691 261.307 312.47 261.307C307.248 261.307 303.012 265.542 303.012 270.765C303.012 275.986 307.248 280.222 312.47 280.222Z" fill="#C93237"/>
<path fill-rule="evenodd" clip-rule="evenodd" d="M388.909 307.156C394.09 307.156 398.366 302.879 398.366 297.657C398.366 292.435 394.09 288.2 388.909 288.2C383.687 288.2 379.411 292.435 379.411 297.657C379.411 302.879 383.687 307.156 388.909 307.156Z" fill="#FCB238"/>
<path d="M326.327 294.038H298.653V375H326.327V294.038Z" fill="#C93237"/>
<path d="M252.518 346.177H224.846V375H252.518V346.177Z" fill="#A3D3BB"/>
<path d="M403.176 318.914H375.505V375H403.176V318.914Z" fill="#FCB238"/>
<path d="M460.538 174.013C458.233 174.013 456.385 172.122 456.385 169.819C456.385 167.515 458.234 165.665 460.538 165.665H494.46C494.624 165.665 494.747 165.665 494.871 165.665C504.863 165.79 511.236 167.928 515.43 171.258C519.993 174.876 521.845 179.604 522.79 184.704C522.831 184.95 522.873 185.197 522.873 185.486V235.28C522.873 237.582 521.022 239.432 518.721 239.432C516.418 239.432 514.526 237.581 514.526 235.28V185.815C513.867 182.647 512.758 179.769 510.249 177.754C507.412 175.493 502.683 174.054 494.789 173.972C494.706 174.013 494.582 174.013 494.46 174.013H460.538Z" fill="white"/>
<path fill-rule="evenodd" clip-rule="evenodd" d="M518.885 233.635C543.061 233.635 562.88 253.455 562.88 277.631V327.673C562.88 351.85 543.061 371.669 518.885 371.669C494.665 371.669 474.846 351.85 474.846 327.673V277.631C474.846 253.455 494.665 233.635 518.885 233.635Z" fill="#E5E6E7"/>
<path fill-rule="evenodd" clip-rule="evenodd" d="M516.171 303.7L474.847 296.424V277.631C474.847 254.359 493.228 235.116 516.171 233.718V303.7Z" fill="#D0D2D4"/>
<path fill-rule="evenodd" clip-rule="evenodd" d="M521.557 303.7L562.881 296.424V277.631C562.881 254.359 544.501 235.116 521.557 233.718V303.7Z" fill="#D0D2D4"/>
<path fill-rule="evenodd" clip-rule="evenodd" d="M518.885 256.127C521.804 256.127 524.188 258.554 524.188 261.472V276.315C524.188 279.235 521.804 281.662 518.885 281.662C515.924 281.662 513.539 279.235 513.539 276.315V261.472C513.54 258.554 515.924 256.127 518.885 256.127Z" fill="#A6A9AB"/>
</g>
<defs>
<clipPath id="clip0_182_18416">
<rect width="594.246" height="375" fill="white"/>
</clipPath>
</defs>
</svg>
