<svg width="64" height="64" viewBox="0 0 64 64" fill="none" xmlns="http://www.w3.org/2000/svg">
<rect width="64" height="64" rx="32" fill="url(#paint0_linear_189_24233)"/>
<path d="M32 17C32.3978 17 32.7794 17.158 33.0607 17.4393C33.342 17.7206 33.5 18.1022 33.5 18.5C33.5 18.8978 33.342 19.2794 33.0607 19.5607C32.7794 19.842 32.3978 20 32 20C29.6266 20 27.3065 20.7038 25.3332 22.0224C23.3598 23.3409 21.8217 25.2151 20.9134 27.4078C20.0052 29.6005 19.7676 32.0133 20.2306 34.3411C20.6936 36.6689 21.8365 38.8071 23.5147 40.4853C25.1929 42.1635 27.3311 43.3064 29.6589 43.7694C31.9867 44.2324 34.3995 43.9948 36.5922 43.0866C38.7849 42.1783 40.6591 40.6402 41.9776 38.6668C43.2962 36.6935 44 34.3734 44 32C44 31.6022 44.158 31.2206 44.4393 30.9393C44.7206 30.658 45.1022 30.5 45.5 30.5C45.8978 30.5 46.2794 30.658 46.5607 30.9393C46.842 31.2206 47 31.6022 47 32C47 40.2845 40.2845 47 32 47C23.7155 47 17 40.2845 17 32C17 23.7155 23.7155 17 32 17ZM32 23C32.3978 23 32.7794 23.158 33.0607 23.4393C33.342 23.7206 33.5 24.1022 33.5 24.5C33.5 24.8978 33.342 25.2794 33.0607 25.5607C32.7794 25.842 32.3978 26 32 26C30.8133 26 29.6533 26.3519 28.6666 27.0112C27.6799 27.6705 26.9108 28.6075 26.4567 29.7039C26.0026 30.8003 25.8838 32.0067 26.1153 33.1705C26.3468 34.3344 26.9182 35.4035 27.7574 36.2426C28.5965 37.0818 29.6656 37.6532 30.8295 37.8847C31.9933 38.1162 33.1997 37.9974 34.2961 37.5433C35.3925 37.0892 36.3295 36.3201 36.9888 35.3334C37.6481 34.3467 38 33.1867 38 32C38 31.6022 38.158 31.2206 38.4393 30.9393C38.7206 30.658 39.1022 30.5 39.5 30.5C39.8978 30.5 40.2794 30.658 40.5607 30.9393C40.842 31.2206 41 31.6022 41 32C41 33.78 40.4722 35.5201 39.4832 37.0001C38.4943 38.4802 37.0887 39.6337 35.4442 40.3149C33.7996 40.9961 31.99 41.1743 30.2442 40.8271C28.4984 40.4798 26.8947 39.6226 25.636 38.364C24.3774 37.1053 23.5202 35.5016 23.1729 33.7558C22.8257 32.01 23.0039 30.2004 23.6851 28.5558C24.3663 26.9113 25.5198 25.5057 26.9999 24.5168C28.4799 23.5278 30.22 23 32 23ZM41.8565 17.15C42.0554 17.15 42.2462 17.229 42.3868 17.3697C42.5275 17.5103 42.6065 17.7011 42.6065 17.9V20.645C42.6069 20.8437 42.6861 21.034 42.8267 21.1744C42.9673 21.3147 43.1578 21.3935 43.3565 21.3935H46.1C46.2989 21.3935 46.4897 21.4725 46.6303 21.6132C46.771 21.7538 46.85 21.9446 46.85 22.1435V23.516L44.018 26.348C43.4555 26.9106 42.6926 27.2268 41.897 27.227H38.897L33.062 33.0605C32.7791 33.3337 32.4002 33.4849 32.0069 33.4815C31.6136 33.4781 31.2374 33.3203 30.9593 33.0422C30.6812 32.7641 30.5234 32.3879 30.52 31.9946C30.5166 31.6013 30.6678 31.2224 30.941 30.9395L36.776 25.106V22.106C36.7758 21.3106 37.0914 20.5477 37.6535 19.985L40.4885 17.15H41.8565Z" fill="white"/>
<defs>
<linearGradient id="paint0_linear_189_24233" x1="64" y1="7.62939e-06" x2="7.62939e-06" y2="64" gradientUnits="userSpaceOnUse">
<stop stop-color="#F65A75"/>
<stop offset="1" stop-color="#48179C"/>
</linearGradient>
</defs>
</svg>
