<svg width="64" height="64" viewBox="0 0 64 64" fill="none" xmlns="http://www.w3.org/2000/svg">
<rect width="64" height="64" rx="32" fill="url(#paint0_linear_189_24343)"/>
<path d="M49.454 27.0912C49.1533 27.0912 48.9079 27.3351 48.9079 27.6373V47.2725C48.9079 48.1745 48.1746 48.9093 47.2711 48.9093H45.8614L15.0922 18.139V16.7292C15.0922 15.8272 15.8255 15.0924 16.729 15.0924H36.9105C37.2111 15.0924 37.4566 14.8485 37.4566 14.5463C37.4566 14.2457 37.2127 14.0002 36.9105 14.0002L16.7274 14.0018C15.2241 14.0018 14 15.2259 14 16.7292V47.2726C14 48.7759 15.2241 50 16.7274 50H47.2708C48.7741 50 49.9982 48.7759 49.9982 47.2726V27.6374C49.9982 27.3367 49.7543 27.0913 49.4521 27.0913L49.454 27.0912ZM44.3198 48.9079H39.3175L31.5695 41.1598C31.3562 40.9466 31.0111 40.9466 30.7979 41.1598L23.0498 48.9079H18.5918L28.5689 38.9308C28.7821 38.7176 28.7821 38.3724 28.5689 38.1592L15.0929 24.6848V19.6825L44.3202 48.9099L44.3198 48.9079ZM37.7742 48.9079H24.5911L31.1826 42.3163L37.7742 48.9079ZM15.0924 47.2726V26.226L27.4119 38.5455L17.0481 48.9094H16.729C15.827 48.9094 15.0924 48.1761 15.0924 47.2726Z" fill="white"/>
<path d="M34.7271 21.6361C34.7271 25.6629 37.8611 28.9624 41.8174 29.2448V30.3631H41.2713C40.9706 30.3631 40.7252 30.607 40.7252 30.9092V34.1812C40.7252 35.0832 41.4585 35.818 42.362 35.818C43.264 35.818 43.9988 35.0847 43.9988 34.1812V30.9092C43.9988 30.6085 43.7549 30.3631 43.4527 30.3631H42.9066V29.2448C46.8627 28.9625 49.9969 25.6629 49.9969 21.6361C49.9969 17.4252 46.5714 14 42.3607 14C38.1498 14 34.7246 17.4254 34.7246 21.6361H34.7271ZM42.9079 34.1811C42.9079 34.4817 42.6625 34.7271 42.3618 34.7271C42.0612 34.7271 41.8157 34.4817 41.8157 34.1811V31.4536H42.9064V34.1811H42.9079ZM42.3634 15.0921C45.9729 15.0921 48.909 18.0282 48.909 21.6377C48.909 25.2472 45.9729 28.1833 42.3634 28.1833C38.7539 28.1833 35.8178 25.2472 35.8178 21.6377C35.8178 18.0282 38.7539 15.0921 42.3634 15.0921Z" fill="white"/>
<path d="M36.9087 22.1823C37.2094 22.1823 37.4548 21.9384 37.4548 21.6362C37.4548 18.9303 39.6576 16.7274 42.3636 16.7274C42.6643 16.7274 42.9097 16.4835 42.9097 16.1813C42.9097 15.8807 42.6658 15.6353 42.3636 15.6353C39.0548 15.6353 36.3643 18.3274 36.3643 21.6346C36.3643 21.9353 36.6082 22.1807 36.9104 22.1807L36.9087 22.1823Z" fill="white"/>
<defs>
<linearGradient id="paint0_linear_189_24343" x1="64" y1="7.62939e-06" x2="7.62939e-06" y2="64" gradientUnits="userSpaceOnUse">
<stop stop-color="#F65A75"/>
<stop offset="1" stop-color="#48179C"/>
</linearGradient>
</defs>
</svg>
