<svg width="64" height="64" viewBox="0 0 64 64" fill="none" xmlns="http://www.w3.org/2000/svg">
<rect width="64" height="64" rx="32" fill="url(#paint0_linear_189_24251)"/>
<path d="M21.7816 28.8208C23.0145 28.8194 24.1966 28.329 25.0684 27.4572C25.9402 26.5854 26.4306 25.4033 26.432 24.1704C26.432 24.0563 26.3867 23.9468 26.3059 23.8661C26.2252 23.7853 26.1157 23.74 26.0016 23.74H22.2116V19.9504C22.2117 19.8939 22.2006 19.8379 22.179 19.7857C22.1574 19.7335 22.1257 19.6861 22.0858 19.6461C22.0459 19.6061 21.9984 19.5744 21.9462 19.5528C21.894 19.5311 21.8381 19.52 21.7816 19.52C20.5558 19.5314 19.384 20.0263 18.5212 20.8972C17.6584 21.768 17.1743 22.9443 17.1743 24.1702C17.1743 25.3961 17.6584 26.5724 18.5212 27.4432C19.384 28.3141 20.5558 28.8094 21.7816 28.8208ZM21.3516 20.4052V24.1704C21.3517 24.2844 21.3971 24.3936 21.4777 24.4742C21.5583 24.5548 21.6676 24.6 21.7816 24.6H25.5472C25.4664 25.3084 25.1875 25.9796 24.7425 26.5366C24.2974 27.0936 23.7043 27.5137 23.0312 27.7488C22.3581 27.9839 21.6323 28.0243 20.9373 27.8655C20.2422 27.7067 19.6061 27.355 19.1019 26.8509C18.5977 26.3468 18.2459 25.7107 18.087 25.0157C17.928 24.3207 17.9683 23.595 18.2033 22.9218C18.4382 22.2487 18.8583 21.6555 19.4152 21.2103C19.9721 20.7651 20.6432 20.4861 21.3516 20.4052ZM23.8916 17.4104C23.8351 17.4103 23.7792 17.4214 23.727 17.443C23.6748 17.4645 23.6274 17.4962 23.5874 17.5361C23.5475 17.576 23.5157 17.6233 23.4941 17.6755C23.4724 17.7276 23.4613 17.7835 23.4612 17.84V22.06C23.4611 22.1166 23.4722 22.1726 23.4938 22.2248C23.5155 22.2771 23.5471 22.3246 23.5871 22.3646C23.6271 22.4046 23.6746 22.4363 23.7268 22.458C23.779 22.4797 23.835 22.4908 23.8916 22.4908H28.1116C28.2257 22.4908 28.3352 22.4455 28.4159 22.3647C28.4967 22.284 28.542 22.1745 28.542 22.0604C28.5405 20.8275 28.0501 19.6456 27.1783 18.7738C26.3065 17.9021 25.1245 17.4118 23.8916 17.4104ZM24.322 21.63V18.2952C25.1724 18.3937 25.9646 18.7768 26.57 19.3821C27.1755 19.9874 27.5586 20.7796 27.6572 21.63H24.322ZM31.8488 31.28H29.1576C29.1011 31.2799 29.0451 31.291 28.9929 31.3126C28.9407 31.3342 28.8933 31.3659 28.8533 31.4058C28.8133 31.4457 28.7816 31.4932 28.76 31.5454C28.7383 31.5976 28.7272 31.6535 28.7272 31.71V36.344C28.7272 36.4581 28.7725 36.5676 28.8533 36.6483C28.934 36.7291 29.0435 36.7744 29.1576 36.7744H31.8488C31.9629 36.7744 32.0724 36.7291 32.1531 36.6483C32.2339 36.5676 32.2792 36.4581 32.2792 36.344V31.7112C32.2794 31.6546 32.2683 31.5985 32.2468 31.5462C32.2252 31.4939 32.1935 31.4463 32.1535 31.4062C32.1136 31.3662 32.066 31.3344 32.0138 31.3127C31.9615 31.2911 31.9054 31.2799 31.8488 31.28ZM31.4184 35.914H29.588V32.1416H31.4184V35.914ZM36.6916 26.6484H34.002C33.9454 26.6484 33.8893 26.6596 33.837 26.6813C33.7847 26.703 33.7372 26.7348 33.6972 26.7749C33.6573 26.815 33.6256 26.8626 33.604 26.9149C33.5825 26.9673 33.5714 27.0234 33.5716 27.08V36.344C33.5716 36.4581 33.6169 36.5676 33.6977 36.6483C33.7784 36.7291 33.8879 36.7744 34.002 36.7744H36.6916C36.7481 36.7744 36.804 36.7633 36.8562 36.7416C36.9084 36.72 36.9559 36.6883 36.9958 36.6483C37.0357 36.6083 37.0674 36.5609 37.089 36.5087C37.1106 36.4565 37.1217 36.4005 37.1216 36.344V27.08C37.1218 27.0234 37.1108 26.9673 37.0893 26.915C37.0678 26.8626 37.0362 26.815 36.9962 26.7749C36.9563 26.7348 36.9088 26.703 36.8565 26.6813C36.8042 26.6596 36.7482 26.6484 36.6916 26.6484ZM36.2628 35.914H34.432V27.5088H36.2628V35.914ZM41.5372 28.1752H38.846C38.7895 28.1751 38.7335 28.1862 38.6813 28.2078C38.6291 28.2294 38.5817 28.2611 38.5417 28.301C38.5017 28.3409 38.47 28.3884 38.4484 28.4406C38.4267 28.4927 38.4156 28.5487 38.4156 28.6052V36.344C38.4156 36.4581 38.4609 36.5676 38.5417 36.6483C38.6224 36.7291 38.7318 36.7744 38.846 36.7744H41.5372C41.6513 36.7744 41.7608 36.7291 41.8415 36.6483C41.9223 36.5676 41.9676 36.4581 41.9676 36.344V28.6052C41.9676 28.5487 41.9565 28.4927 41.9348 28.4406C41.9132 28.3884 41.8815 28.3409 41.8415 28.301C41.8015 28.2611 41.7541 28.2294 41.7019 28.2078C41.6497 28.1862 41.5937 28.1751 41.5372 28.1752ZM41.1068 35.914H39.2764V29.034H41.1068V35.914ZM30.5032 28.4104C30.7952 28.4103 31.0821 28.3342 31.3357 28.1894C31.5893 28.0446 31.8007 27.8363 31.9492 27.5849C32.0978 27.3335 32.1782 27.0477 32.1826 26.7558C32.187 26.4638 32.1152 26.1758 31.9744 25.92L34.4712 23.5324C34.8474 23.7629 35.2992 23.8359 35.7288 23.7358C36.1584 23.6356 36.5313 23.3703 36.7668 22.9972L38.5132 23.5476C38.5132 23.5736 38.5132 23.5996 38.5132 23.6276C38.5133 23.884 38.572 24.1371 38.685 24.3673C38.798 24.5975 38.9622 24.7988 39.165 24.9558C39.3678 25.1127 39.6039 25.2212 39.8551 25.2728C40.1063 25.3244 40.3659 25.3178 40.6142 25.2536C40.8625 25.1893 41.0927 25.069 41.2873 24.902C41.4819 24.735 41.6357 24.5257 41.7369 24.29C41.8381 24.0544 41.884 23.7987 41.8711 23.5426C41.8582 23.2864 41.7868 23.0367 41.6624 22.8124L44.1652 20.4072C44.5145 20.6199 44.9292 20.6981 45.332 20.6274C45.7348 20.5567 46.098 20.3418 46.3539 20.0228C46.6098 19.7038 46.7409 19.3027 46.7227 18.8941C46.7045 18.4856 46.5382 18.0977 46.2549 17.8028C45.9716 17.5079 45.5906 17.3262 45.1831 17.2916C44.7757 17.257 44.3696 17.3719 44.0406 17.6148C43.7117 17.8578 43.4824 18.2121 43.3955 18.6117C43.3087 19.0113 43.3703 19.4289 43.5688 19.7864L41.0644 22.188C40.6881 21.9591 40.237 21.8872 39.8081 21.9876C39.3793 22.0881 39.0071 22.353 38.7716 22.7252L37.0252 22.1748C37.0252 22.1488 37.0252 22.1232 37.0252 22.0948C37.025 21.8386 36.9662 21.5858 36.8534 21.3558C36.7405 21.1258 36.5765 20.9247 36.3739 20.7678C36.1714 20.6109 35.9356 20.5024 35.6847 20.4506C35.4338 20.3989 35.1743 20.4052 34.9262 20.4691C34.6781 20.5329 34.4479 20.6527 34.2532 20.8193C34.0585 20.9858 33.9045 21.1947 33.8029 21.4299C33.7013 21.6651 33.6549 21.9204 33.6671 22.1763C33.6794 22.4323 33.75 22.682 33.8736 22.9064L31.3768 25.2944C31.1554 25.1593 30.9057 25.0772 30.6473 25.0547C30.3889 25.0322 30.1288 25.0699 29.8874 25.1647C29.646 25.2595 29.4298 25.4089 29.2558 25.6012C29.0818 25.7936 28.9547 26.0236 28.8844 26.2733C28.8141 26.5229 28.8026 26.7855 28.8508 27.0404C28.8989 27.2952 29.0055 27.5355 29.162 27.7423C29.3185 27.9491 29.5208 28.1169 29.753 28.2324C29.9852 28.348 30.241 28.4082 30.5004 28.4084L30.5032 28.4104ZM45.036 18.1472C45.1983 18.1471 45.357 18.1952 45.4919 18.2853C45.6269 18.3754 45.7321 18.5035 45.7943 18.6535C45.8564 18.8034 45.8727 18.9684 45.8411 19.1276C45.8094 19.2867 45.7313 19.433 45.6165 19.5477C45.5017 19.6625 45.3555 19.7406 45.1964 19.7723C45.0372 19.8039 44.8722 19.7876 44.7223 19.7255C44.5723 19.6633 44.4442 19.5581 44.3541 19.4231C44.264 19.2882 44.2159 19.1295 44.216 18.9672C44.2163 18.7498 44.3028 18.5414 44.4565 18.3877C44.6102 18.234 44.8186 18.1475 45.036 18.1472ZM40.1916 22.8036C40.3538 22.8036 40.5123 22.8517 40.6472 22.9418C40.782 23.0319 40.8871 23.16 40.9492 23.3098C41.0112 23.4596 41.0275 23.6245 40.9958 23.7836C40.9642 23.9426 40.8861 24.0887 40.7714 24.2034C40.6567 24.3181 40.5106 24.3962 40.3516 24.4278C40.1925 24.4595 40.0276 24.4432 39.8778 24.3812C39.728 24.3191 39.5999 24.214 39.5098 24.0792C39.4197 23.9443 39.3716 23.7858 39.3716 23.6236C39.3719 23.4062 39.4584 23.1978 39.6121 23.0441C39.7658 22.8904 39.9742 22.8039 40.1916 22.8036ZM35.3476 21.2768C35.5098 21.2768 35.6683 21.3249 35.8032 21.415C35.938 21.5051 36.0431 21.6332 36.1052 21.783C36.1672 21.9328 36.1835 22.0977 36.1518 22.2568C36.1202 22.4158 36.0421 22.5619 35.9274 22.6766C35.8127 22.7913 35.6666 22.8694 35.5076 22.901C35.3485 22.9327 35.1836 22.9164 35.0338 22.8544C34.884 22.7923 34.7559 22.6872 34.6658 22.5524C34.5757 22.4175 34.5276 22.259 34.5276 22.0968C34.5279 21.8794 34.6144 21.671 34.7681 21.5173C34.9218 21.3636 35.1302 21.2771 35.3476 21.2768ZM30.5032 25.9096C30.6654 25.9096 30.8239 25.9577 30.9588 26.0478C31.0936 26.1379 31.1987 26.266 31.2608 26.4158C31.3228 26.5656 31.3391 26.7305 31.3074 26.8896C31.2758 27.0486 31.1977 27.1947 31.083 27.3094C30.9683 27.4241 30.8222 27.5022 30.6632 27.5338C30.5041 27.5655 30.3392 27.5492 30.1894 27.4872C30.0396 27.4251 29.9115 27.32 29.8214 27.1852C29.7313 27.0503 29.6832 26.8918 29.6832 26.7296C29.6834 26.5122 29.7699 26.3037 29.9236 26.15C30.0773 25.9963 30.2858 25.9098 30.5032 25.9096ZM46.3832 23.5188H43.6916C43.6351 23.5188 43.5791 23.5299 43.527 23.5516C43.4748 23.5732 43.4273 23.6049 43.3874 23.6449C43.3475 23.6849 43.3158 23.7323 43.2942 23.7845C43.2726 23.8367 43.2615 23.8927 43.2616 23.9492V36.344C43.2615 36.4005 43.2726 36.4565 43.2942 36.5087C43.3158 36.5609 43.3475 36.6083 43.3874 36.6483C43.4273 36.6883 43.4748 36.72 43.527 36.7416C43.5791 36.7633 43.6351 36.7744 43.6916 36.7744H46.3828C46.4967 36.774 46.6057 36.7284 46.6861 36.6478C46.7665 36.5671 46.8116 36.4579 46.8116 36.344V23.9492C46.8114 23.8353 46.766 23.7261 46.6854 23.6457C46.6048 23.5652 46.4955 23.52 46.3816 23.52L46.3832 23.5188ZM45.9512 35.914H44.1204V24.3792H45.9512V35.914ZM46.9716 14H16.9716C16.1837 14.001 15.4284 14.3144 14.8713 14.8716C14.3142 15.4287 14.0008 16.1841 14 16.972V36.7964C14.0008 37.5843 14.3142 38.3397 14.8713 38.8968C15.4284 39.454 16.1837 39.7674 16.9716 39.7684H26.7604L25.4964 44.486H24.6332C23.9023 44.4868 23.2016 44.7776 22.6848 45.2944C22.168 45.8112 21.8772 46.5119 21.8764 47.2428V49.5696C21.8764 49.6838 21.9217 49.7932 22.0025 49.8739C22.0832 49.9547 22.1926 50 22.3068 50H41.6364C41.7505 50 41.86 49.9547 41.9407 49.8739C42.0215 49.7932 42.0668 49.6838 42.0668 49.5696V47.2428C42.066 46.5118 41.7752 45.8111 41.2583 45.2942C40.7414 44.7774 40.0406 44.4867 39.3096 44.486H38.4468L37.1824 39.7684H46.9716C47.7595 39.7674 48.5148 39.454 49.0719 38.8968C49.629 38.3397 49.9424 37.5843 49.9432 36.7964V16.972C49.9424 16.1841 49.629 15.4287 49.0719 14.8716C48.5148 14.3144 47.7595 14.001 46.9716 14ZM41.206 47.2428V49.1396H22.7368V47.2428C22.7374 46.74 22.9374 46.2581 23.2929 45.9025C23.6485 45.547 24.1304 45.347 24.6332 45.3464H39.3096C39.8124 45.347 40.2943 45.547 40.6499 45.9025C41.0054 46.2581 41.2054 46.74 41.206 47.2428ZM37.5556 44.486H26.3872L27.6516 39.7684H36.2916L37.5556 44.486ZM49.0812 36.7964C49.0806 37.3559 48.8582 37.8923 48.4627 38.2881C48.0673 38.6839 47.5311 38.9068 46.9716 38.908H16.9716C16.4118 38.9073 15.8752 38.6845 15.4794 38.2887C15.0837 37.8928 14.861 37.3562 14.8604 36.7964V16.972C14.861 16.4122 15.0837 15.8756 15.4794 15.4797C15.8752 15.0839 16.4118 14.8611 16.9716 14.8604H46.9716C47.5314 14.8611 48.068 15.0839 48.4638 15.4797C48.8595 15.8756 49.0822 16.4122 49.0828 16.972L49.0812 36.7964ZM27.0676 31.3528C27.0676 31.4093 27.0565 31.4653 27.0348 31.5175C27.0132 31.5697 26.9815 31.6172 26.9415 31.6571C26.9016 31.6971 26.8541 31.7288 26.8019 31.7504C26.7497 31.7721 26.6937 31.7832 26.6372 31.7832H17.5616C17.4475 31.7832 17.338 31.7379 17.2573 31.6571C17.1765 31.5764 17.1312 31.4669 17.1312 31.3528C17.1312 31.2387 17.1765 31.1292 17.2573 31.0485C17.338 30.9677 17.4475 30.9224 17.5616 30.9224H26.6372C26.6937 30.9224 26.7497 30.9335 26.8019 30.9552C26.8541 30.9768 26.9016 31.0085 26.9415 31.0485C26.9815 31.0884 27.0132 31.1359 27.0348 31.1881C27.0565 31.2403 27.0676 31.2963 27.0676 31.3528ZM27.0676 33.9344C27.0676 33.9909 27.0565 34.0469 27.0348 34.0991C27.0132 34.1513 26.9815 34.1988 26.9415 34.2387C26.9016 34.2787 26.8541 34.3104 26.8019 34.332C26.7497 34.3537 26.6937 34.3648 26.6372 34.3648H17.5616C17.4498 34.3614 17.3437 34.3146 17.2658 34.2343C17.1879 34.154 17.1443 34.0465 17.1443 33.9346C17.1443 33.8227 17.1879 33.7152 17.2658 33.6349C17.3437 33.5546 17.4498 33.5078 17.5616 33.5044H26.6372C26.6937 33.5043 26.7497 33.5154 26.8019 33.537C26.8541 33.5586 26.9015 33.5903 26.9415 33.6302C26.9815 33.6701 27.0132 33.7176 27.0348 33.7698C27.0565 33.822 27.0676 33.8779 27.0676 33.9344ZM27.0676 36.516C27.0676 36.5725 27.0565 36.6285 27.0348 36.6807C27.0132 36.7329 26.9815 36.7804 26.9415 36.8203C26.9016 36.8603 26.8541 36.892 26.8019 36.9136C26.7497 36.9353 26.6937 36.9464 26.6372 36.9464H17.5616C17.4498 36.943 17.3437 36.8962 17.2658 36.8159C17.1879 36.7356 17.1443 36.6281 17.1443 36.5162C17.1443 36.4043 17.1879 36.2968 17.2658 36.2165C17.3437 36.1362 17.4498 36.0894 17.5616 36.086H26.6372C26.6937 36.0859 26.7497 36.097 26.8019 36.1186C26.8541 36.1402 26.9015 36.1719 26.9415 36.2118C26.9815 36.2517 27.0132 36.2992 27.0348 36.3514C27.0565 36.4035 27.0676 36.4595 27.0676 36.516Z" fill="white"/>
<defs>
<linearGradient id="paint0_linear_189_24251" x1="64" y1="7.62939e-06" x2="7.62939e-06" y2="64" gradientUnits="userSpaceOnUse">
<stop stop-color="#F65A75"/>
<stop offset="1" stop-color="#48179C"/>
</linearGradient>
</defs>
</svg>
