<svg width="64" height="64" viewBox="0 0 64 64" fill="none" xmlns="http://www.w3.org/2000/svg">
<rect width="64" height="64" rx="32" fill="url(#paint0_linear_189_24180)"/>
<path d="M18.5 23.3C18.5 21.62 18.5 20.78 18.827 20.138C19.1146 19.5735 19.5735 19.1146 20.138 18.827C20.78 18.5 21.62 18.5 23.3 18.5H40.7C42.38 18.5 43.22 18.5 43.862 18.827C44.4265 19.1146 44.8854 19.5735 45.173 20.138C45.5 20.78 45.5 21.62 45.5 23.3V40.7C45.5 42.38 45.5 43.22 45.173 43.862C44.8854 44.4265 44.4265 44.8854 43.862 45.173C43.22 45.5 42.38 45.5 40.7 45.5H23.3C21.62 45.5 20.78 45.5 20.138 45.173C19.5735 44.8854 19.1146 44.4265 18.827 43.862C18.5 43.22 18.5 42.38 18.5 40.7V23.3Z" stroke="white" stroke-width="3" stroke-linecap="round"/>
<path d="M42.5 45.5L36.5 23.75M45.5 23L18.5 26M33.5 35.132C33.5 37.892 30.8915 39.8495 29.6465 40.628C29.4528 40.7497 29.2287 40.8143 29 40.8143C28.7713 40.8143 28.5472 40.7497 28.3535 40.628C27.1085 39.8495 24.5 37.8905 24.5 35.132C24.5 32.3525 26.681 30.5 29 30.5C31.4 30.5 33.5 32.3525 33.5 35.132Z" stroke="white" stroke-width="3"/>
<defs>
<linearGradient id="paint0_linear_189_24180" x1="64" y1="7.62939e-06" x2="7.62939e-06" y2="64" gradientUnits="userSpaceOnUse">
<stop stop-color="#F65A75"/>
<stop offset="1" stop-color="#48179C"/>
</linearGradient>
</defs>
</svg>
