<svg width="64" height="64" viewBox="0 0 64 64" fill="none" xmlns="http://www.w3.org/2000/svg">
<rect width="64" height="64" rx="32" fill="url(#paint0_linear_189_24352)"/>
<path d="M47.5714 18.8571C47.4137 18.8571 47.2857 18.9851 47.2857 19.1429C47.2857 19.3006 47.4137 19.4286 47.5714 19.4286C48.5954 19.4286 49.4286 20.2846 49.4286 21.3367V42H46.2857V22C46.2857 21.8422 46.1578 21.7143 46 21.7143C45.8422 21.7143 45.7143 21.8422 45.7143 22V42H44.2857V23.1429C44.2857 22.9851 44.1578 22.8571 44 22.8571C43.8422 22.8571 43.7143 22.9851 43.7143 23.1429V42H42.2857V26.2857C42.2857 26.1279 42.1578 26 42 26C41.8422 26 41.7143 26.1279 41.7143 26.2857V42H40.2857V29.1429C40.2857 28.9851 40.1578 28.8571 40 28.8571C39.8422 28.8571 39.7143 28.9851 39.7143 29.1429V42H38.2857V32C38.2857 31.8422 38.1578 31.7143 38 31.7143C37.8422 31.7143 37.7143 31.8422 37.7143 32V42H36.2857V31.7143C36.2857 31.5565 36.1578 31.4286 36 31.4286C35.8422 31.4286 35.7143 31.5565 35.7143 31.7143V42H34.2857V30.5714C34.2857 30.4136 34.1578 30.2857 34 30.2857C33.8422 30.2857 33.7143 30.4136 33.7143 30.5714V42H32.2857V29.4286C32.2857 29.2708 32.1578 29.1429 32 29.1429C31.8422 29.1429 31.7143 29.2708 31.7143 29.4286V42H30.2857V32.5714C30.2857 32.4136 30.1578 32.2857 30 32.2857C29.8422 32.2857 29.7143 32.4136 29.7143 32.5714V42H28.2857V36.2857C28.2857 36.1279 28.1578 36 28 36C27.8422 36 27.7143 36.1279 27.7143 36.2857V42H26.2857V37.1429C26.2857 36.9851 26.1578 36.8571 26 36.8571C25.8422 36.8571 25.7143 36.9851 25.7143 37.1429V42H24.2857V37.1429C24.2857 36.9851 24.1578 36.8571 24 36.8571C23.8422 36.8571 23.7143 36.9851 23.7143 37.1429V42H22.2857V36.8571C22.2857 36.6994 22.1578 36.5714 22 36.5714C21.8422 36.5714 21.7143 36.6994 21.7143 36.8571V42H20.2857V38.2857C20.2857 38.1279 20.1578 38 20 38C19.8422 38 19.7143 38.1279 19.7143 38.2857V42H18.2857V40.2857C18.2857 40.1279 18.1578 40 18 40C17.8422 40 17.7143 40.1279 17.7143 40.2857V42H14.9951L21.8158 35.4416L26.8256 35.9983C26.9406 36.011 27.0516 35.9534 27.1073 35.8524L31.5356 27.8261L36.9958 31.1022C37.1256 31.1801 37.2938 31.1431 37.3791 31.0179L44.8198 20.0772L46.4224 21.0572C46.5107 21.1111 46.621 21.1132 46.7112 21.0627C46.8014 21.0121 46.8572 20.9169 46.8572 20.8135V14.2857C46.8572 14.188 46.8073 14.097 46.7248 14.0446C46.6424 13.9922 46.5388 13.9855 46.4503 14.027L40.5162 16.807C40.4219 16.8511 40.3592 16.9431 40.3524 17.0469C40.3455 17.1508 40.3956 17.2501 40.4833 17.3063L41.9246 18.2294L36.4914 25.9044L31.0042 22.6121C30.9379 22.5724 30.8584 22.5611 30.7836 22.581C30.7089 22.6009 30.6455 22.6502 30.6078 22.7177L25.2609 32.2857H20.8571C20.7699 32.2857 20.6875 32.3256 20.6333 32.3939L14.5714 40.0371V21.3368C14.5714 20.2846 15.4046 19.4286 16.4286 19.4286H40C40.1578 19.4286 40.2857 19.3006 40.2857 19.1429C40.2857 18.9851 40.1578 18.8571 40 18.8571H16.4286C15.0894 18.8571 14 19.9695 14 21.3368V42.949C14 44.3163 15.0894 45.4286 16.4286 45.4286H27.1429V49.4286H23.7143C23.5565 49.4286 23.4286 49.5565 23.4286 49.7143C23.4286 49.8721 23.5565 50 23.7143 50H40.2857C40.4435 50 40.5714 49.8721 40.5714 49.7143C40.5714 49.5565 40.4435 49.4286 40.2857 49.4286H36.8571V45.4286H47.5714C48.9106 45.4286 50 44.3162 50 42.949V21.3368C50 19.9695 48.9106 18.8571 47.5714 18.8571ZM20.9952 32.8571H25.4286C25.5321 32.8571 25.6275 32.8011 25.678 32.7108L30.9629 23.2537L36.4244 26.5307C36.5526 26.6076 36.7183 26.5728 36.8046 26.4508L42.5639 18.3154C42.609 18.2516 42.6261 18.1723 42.6112 18.0956C42.5962 18.0189 42.5506 17.9518 42.4848 17.9096L41.2279 17.1046L46.2857 14.7351V20.3038L44.8856 19.4476C44.7555 19.3681 44.5861 19.4047 44.5003 19.5307L37.0584 30.4733L31.5756 27.1836C31.509 27.1436 31.4291 27.1324 31.3542 27.1527C31.2794 27.1729 31.2159 27.2226 31.1784 27.2906L26.6991 35.4093L21.7458 34.8589C21.6609 34.8497 21.5774 34.8782 21.5162 34.9369L14.5714 41.6146V40.9567L20.9952 32.8571ZM36.2857 49.4286H27.7143V45.4286H36.2857V49.4286ZM47.5714 44.8571H16.4286C15.4046 44.8571 14.5714 44.0011 14.5714 42.949V42.5714H49.4286V42.949C49.4286 44.0011 48.5954 44.8571 47.5714 44.8571Z" fill="white"/>
<defs>
<linearGradient id="paint0_linear_189_24352" x1="64" y1="7.62939e-06" x2="7.62939e-06" y2="64" gradientUnits="userSpaceOnUse">
<stop stop-color="#F65A75"/>
<stop offset="1" stop-color="#48179C"/>
</linearGradient>
</defs>
</svg>
