<svg width="64" height="64" viewBox="0 0 64 64" fill="none" xmlns="http://www.w3.org/2000/svg">
<rect width="64" height="64" rx="32" fill="url(#paint0_linear_192_2)"/>
<path d="M23.0004 26.5999C23.0004 26.1225 23.19 25.6647 23.5276 25.3271C23.8652 24.9895 24.323 24.7999 24.8004 24.7999H39.2004C39.6778 24.7999 40.1356 24.9895 40.4732 25.3271C40.8107 25.6647 41.0004 26.1225 41.0004 26.5999V30.1999C41.0004 30.6773 40.8107 31.1351 40.4732 31.4727C40.1356 31.8103 39.6778 31.9999 39.2004 31.9999H24.8004C24.323 31.9999 23.8652 31.8103 23.5276 31.4727C23.19 31.1351 23.0004 30.6773 23.0004 30.1999V26.5999ZM39.2004 26.5999H24.8004V30.1999H39.2004V26.5999ZM35.6004 33.7999C35.123 33.7999 34.6652 33.9895 34.3276 34.3271C33.99 34.6647 33.8004 35.1225 33.8004 35.5999V37.3999C33.8004 37.8773 33.99 38.3351 34.3276 38.6727C34.6652 39.0103 35.123 39.1999 35.6004 39.1999H39.2004C39.6778 39.1999 40.1356 39.0103 40.4732 38.6727C40.8107 38.3351 41.0004 37.8773 41.0004 37.3999V35.5999C41.0004 35.1225 40.8107 34.6647 40.4732 34.3271C40.1356 33.9895 39.6778 33.7999 39.2004 33.7999H35.6004ZM35.6004 35.5999H39.2004V37.3999H35.6004V35.5999ZM23.0004 34.6999C23.0004 34.4612 23.0952 34.2323 23.264 34.0635C23.4328 33.8947 23.6617 33.7999 23.9004 33.7999H31.1004C31.3391 33.7999 31.568 33.8947 31.7368 34.0635C31.9056 34.2323 32.0004 34.4612 32.0004 34.6999C32.0004 34.9386 31.9056 35.1675 31.7368 35.3363C31.568 35.5051 31.3391 35.5999 31.1004 35.5999H23.9004C23.6617 35.5999 23.4328 35.5051 23.264 35.3363C23.0952 35.1675 23.0004 34.9386 23.0004 34.6999ZM23.9004 37.3999C23.6617 37.3999 23.4328 37.4947 23.264 37.6635C23.0952 37.8323 23.0004 38.0612 23.0004 38.2999C23.0004 38.5386 23.0952 38.7675 23.264 38.9363C23.4328 39.1051 23.6617 39.1999 23.9004 39.1999H31.1004C31.3391 39.1999 31.568 39.1051 31.7368 38.9363C31.9056 38.7675 32.0004 38.5386 32.0004 38.2999C32.0004 38.0612 31.9056 37.8323 31.7368 37.6635C31.568 37.4947 31.3391 37.3999 31.1004 37.3999H23.9004ZM19.4004 24.7999C19.4004 23.3677 19.9693 21.9942 20.982 20.9815C21.9947 19.9688 23.3682 19.3999 24.8004 19.3999H39.2004C40.6326 19.3999 42.0061 19.9688 43.0188 20.9815C44.0315 21.9942 44.6004 23.3677 44.6004 24.7999V39.1999C44.6004 40.6321 44.0315 42.0056 43.0188 43.0183C42.0061 44.031 40.6326 44.5999 39.2004 44.5999H24.8004C23.3682 44.5999 21.9947 44.031 20.982 43.0183C19.9693 42.0056 19.4004 40.6321 19.4004 39.1999V24.7999ZM24.8004 21.1999C23.8456 21.1999 22.9299 21.5792 22.2548 22.2543C21.5797 22.9294 21.2004 23.8451 21.2004 24.7999V39.1999C21.2004 40.1547 21.5797 41.0704 22.2548 41.7455C22.9299 42.4206 23.8456 42.7999 24.8004 42.7999H39.2004C40.1552 42.7999 41.0708 42.4206 41.746 41.7455C42.4211 41.0704 42.8004 40.1547 42.8004 39.1999V24.7999C42.8004 23.8451 42.4211 22.9294 41.746 22.2543C41.0708 21.5792 40.1552 21.1999 39.2004 21.1999H24.8004Z" fill="white"/>
<defs>
<linearGradient id="paint0_linear_192_2" x1="64" y1="7.62939e-06" x2="7.62939e-06" y2="64" gradientUnits="userSpaceOnUse">
<stop stop-color="#F65A75"/>
<stop offset="1" stop-color="#48179C"/>
</linearGradient>
</defs>
</svg>
