<svg width="64" height="64" viewBox="0 0 64 64" fill="none" xmlns="http://www.w3.org/2000/svg">
<rect width="64" height="64" rx="32" fill="url(#paint0_linear_189_24361)"/>
<path d="M19.0162 31.6768H31.5167C31.6707 31.6768 31.8184 31.6156 31.9273 31.5067C32.0362 31.3978 32.0973 31.2502 32.0973 31.0962C32.0973 30.9422 32.0362 30.7945 31.9273 30.6856C31.8184 30.5767 31.6707 30.5155 31.5167 30.5155H19.0162C18.8622 30.5155 18.7145 30.5767 18.6056 30.6856C18.4967 30.7945 18.4355 30.9422 18.4355 31.0962C18.4355 31.2502 18.4967 31.3978 18.6056 31.5067C18.7145 31.6156 18.8622 31.6768 19.0162 31.6768Z" fill="white"/>
<path d="M19.0982 35.3617H31.4354C31.5894 35.3617 31.7371 35.3006 31.846 35.1917C31.9549 35.0828 32.0161 34.9351 32.0161 34.7811C32.0161 34.6271 31.9549 34.4794 31.846 34.3705C31.7371 34.2616 31.5894 34.2004 31.4354 34.2004H19.0982C18.9442 34.2004 18.7965 34.2616 18.6876 34.3705C18.5788 34.4794 18.5176 34.6271 18.5176 34.7811C18.5176 34.9351 18.5788 35.0828 18.6876 35.1917C18.7965 35.3006 18.9442 35.3617 19.0982 35.3617Z" fill="white"/>
<path d="M31.4382 37.8845H19.0953C18.9413 37.8845 18.7936 37.9457 18.6847 38.0546C18.5758 38.1635 18.5146 38.3112 18.5146 38.4652C18.5146 38.6192 18.5758 38.7669 18.6847 38.8758C18.7936 38.9847 18.9413 39.0458 19.0953 39.0458H31.4382C31.5922 39.0458 31.7399 38.9847 31.8488 38.8758C31.9577 38.7669 32.0188 38.6192 32.0188 38.4652C32.0188 38.3112 31.9577 38.1635 31.8488 38.0546C31.7399 37.9457 31.5922 37.8845 31.4382 37.8845Z" fill="white"/>
<path d="M37.99 36.0286C36.7773 36.0287 35.5858 36.3468 34.5344 36.9511V27.5116C34.5345 27.4353 34.5195 27.3598 34.4903 27.2893C34.4611 27.2189 34.4183 27.1549 34.3644 27.1009C34.3105 27.047 34.2465 27.0042 34.176 26.9751C34.1056 26.9459 34.03 26.9309 33.9538 26.9309H16.5807C16.5044 26.9309 16.4289 26.9459 16.3584 26.9751C16.288 27.0042 16.2239 27.047 16.17 27.1009C16.1161 27.1549 16.0733 27.2189 16.0442 27.2893C16.015 27.3598 16 27.4353 16 27.5116V49.4194C16 49.4956 16.0149 49.5711 16.0441 49.6416C16.0733 49.7121 16.116 49.7761 16.17 49.83C16.2239 49.884 16.2879 49.9267 16.3584 49.9559C16.4289 49.9851 16.5044 50 16.5807 50H33.9538C34.0301 50 34.1056 49.9851 34.176 49.9559C34.2465 49.9267 34.3105 49.884 34.3645 49.83C34.4184 49.7761 34.4612 49.7121 34.4903 49.6416C34.5195 49.5711 34.5345 49.4956 34.5344 49.4194V49.078C35.4637 49.6077 36.5021 49.9168 37.5697 49.9816C38.6373 50.0464 39.7056 49.865 40.692 49.4515C41.6784 49.0381 42.5567 48.4035 43.259 47.5968C43.9614 46.7902 44.469 45.8329 44.7428 44.799C45.0166 43.7651 45.0492 42.6821 44.8381 41.6335C44.6271 40.585 44.178 39.5989 43.5254 38.7514C42.8729 37.904 42.0345 37.2177 41.0747 36.7456C40.115 36.2735 39.0596 36.0282 37.99 36.0286ZM33.3731 48.8387H17.1613V28.0922H33.3731V37.7857C32.2471 38.7761 31.4698 40.1027 31.1563 41.5692H19.0167C18.8627 41.5692 18.715 41.6304 18.6061 41.7393C18.4972 41.8482 18.436 41.9959 18.436 42.1499C18.436 42.3039 18.4972 42.4516 18.6061 42.5604C18.715 42.6693 18.8627 42.7305 19.0167 42.7305H31.0184C30.9751 43.5868 31.0974 44.4434 31.3786 45.2533H19.0167C18.8627 45.2533 18.715 45.3145 18.6061 45.4234C18.4972 45.5323 18.436 45.68 18.436 45.834C18.436 45.988 18.4972 46.1357 18.6061 46.2445C18.715 46.3534 18.8627 46.4146 19.0167 46.4146H31.5172C31.6306 46.4118 31.7404 46.375 31.8326 46.3089C32.2276 47.0398 32.7492 47.6948 33.3731 48.2435V48.8387ZM37.99 48.8393C36.838 48.8394 35.7118 48.4979 34.7538 47.8579C33.7959 47.218 33.0492 46.3083 32.6083 45.244C32.1674 44.1797 32.0519 43.0085 32.2766 41.8786C32.5013 40.7487 33.056 39.7108 33.8706 38.8961C34.6851 38.0815 35.723 37.5267 36.8529 37.3019C37.9828 37.0771 39.154 37.1924 40.2183 37.6332C41.2827 38.0741 42.1924 38.8206 42.8325 39.7785C43.4725 40.7364 43.8141 41.8625 43.8141 43.0146C43.8124 44.5588 43.1982 46.0392 42.1064 47.1311C41.0146 48.2231 39.5342 48.8374 37.99 48.8393Z" fill="white"/>
<path d="M48.1409 28.3451L42.7829 22.9863C42.729 22.9323 42.665 22.8896 42.5946 22.8604C42.5241 22.8312 42.4486 22.8162 42.3724 22.8162C42.2961 22.8162 42.2206 22.8312 42.1502 22.8604C42.0797 22.8896 42.0157 22.9323 41.9618 22.9863L36.6027 28.3451C36.5215 28.4263 36.4662 28.5298 36.4438 28.6424C36.4214 28.755 36.4329 28.8718 36.4768 28.9779C36.5207 29.084 36.5952 29.1747 36.6906 29.2385C36.7861 29.3023 36.8984 29.3363 37.0132 29.3363H39.7674V34.4238C39.7674 34.5778 39.8285 34.7255 39.9374 34.8344C40.0463 34.9433 40.194 35.0045 40.348 35.0045C40.502 35.0045 40.6497 34.9433 40.7586 34.8344C40.8675 34.7255 40.9287 34.5778 40.9287 34.4238V28.7557C40.9287 28.6794 40.9137 28.6039 40.8845 28.5334C40.8553 28.463 40.8126 28.399 40.7586 28.345C40.7047 28.2911 40.6407 28.2483 40.5702 28.2192C40.4998 28.19 40.4243 28.175 40.348 28.175H38.415L42.3724 24.2179L46.3286 28.175H44.3945C44.3182 28.175 44.2427 28.19 44.1722 28.2192C44.1018 28.2484 44.0378 28.2911 43.9838 28.345C43.9299 28.399 43.8871 28.463 43.858 28.5334C43.8288 28.6039 43.8138 28.6794 43.8138 28.7557V36.666C43.8138 36.82 43.875 36.9676 43.9839 37.0765C44.0928 37.1854 44.2405 37.2466 44.3945 37.2466C44.5485 37.2466 44.6962 37.1854 44.805 37.0765C44.9139 36.9676 44.9751 36.82 44.9751 36.666V29.3364H47.7304C47.8452 29.3364 47.9575 29.3023 48.053 29.2385C48.1484 29.1747 48.2229 29.084 48.2668 28.9779C48.3107 28.8718 48.3222 28.7551 48.2998 28.6425C48.2774 28.5298 48.2221 28.4263 48.1409 28.3451Z" fill="white"/>
<path d="M26.1421 20.5202H28.8963V24.8702C28.8963 25.0242 28.9575 25.1719 29.0664 25.2808C29.1753 25.3897 29.3229 25.4509 29.4769 25.4509C29.6309 25.4509 29.7786 25.3897 29.8875 25.2808C29.9964 25.1719 30.0576 25.0242 30.0576 24.8702V19.9395C30.0576 19.8632 30.0426 19.7877 30.0134 19.7173C29.9843 19.6468 29.9415 19.5828 29.8876 19.5289C29.8336 19.4749 29.7696 19.4322 29.6992 19.403C29.6287 19.3738 29.5532 19.3588 29.4769 19.3588H27.5439L31.5019 15.4017L35.4581 19.3588H33.5234C33.4471 19.3588 33.3716 19.3738 33.3012 19.403C33.2307 19.4322 33.1667 19.4749 33.1128 19.5289C33.0588 19.5828 33.0161 19.6468 32.9869 19.7173C32.9577 19.7877 32.9427 19.8632 32.9427 19.9395V24.8348C32.9427 24.9888 33.0039 25.1365 33.1128 25.2454C33.2217 25.3543 33.3694 25.4155 33.5234 25.4155C33.6774 25.4155 33.8251 25.3543 33.934 25.2454C34.0429 25.1365 34.104 24.9888 34.104 24.8348V20.5202H36.8599C36.9747 20.5202 37.087 20.4861 37.1825 20.4223C37.2779 20.3585 37.3524 20.2678 37.3963 20.1617C37.4402 20.0556 37.4517 19.9389 37.4293 19.8263C37.4069 19.7136 37.3516 19.6102 37.2704 19.529L31.9124 14.1701C31.8585 14.1162 31.7945 14.0734 31.7241 14.0442C31.6536 14.015 31.5781 14 31.5019 14C31.4256 14 31.3501 14.015 31.2797 14.0442C31.2092 14.0734 31.1452 14.1162 31.0913 14.1701L25.7316 19.529C25.6504 19.6102 25.5951 19.7136 25.5727 19.8263C25.5503 19.9389 25.5618 20.0556 25.6057 20.1617C25.6497 20.2678 25.7241 20.3585 25.8196 20.4223C25.915 20.4861 26.0273 20.5202 26.1421 20.5202Z" fill="white"/>
<path d="M37.9887 42.4334C36.9924 42.4334 36.9924 42.2162 36.9924 41.9406C36.9924 41.2067 38.6994 41.3272 39.0003 41.6186C39.1026 41.7336 39.2465 41.8033 39.4002 41.8123C39.5539 41.8213 39.7049 41.7688 39.82 41.6665C39.935 41.5641 40.0047 41.4203 40.0137 41.2666C40.0227 41.1128 39.9702 40.9619 39.8679 40.8468C39.5286 40.5334 39.0977 40.3373 38.6385 40.2872V39.8482C38.6385 39.6942 38.5773 39.5465 38.4684 39.4376C38.3596 39.3288 38.2119 39.2676 38.0579 39.2676C37.9039 39.2676 37.7562 39.3288 37.6473 39.4376C37.5384 39.5465 37.4772 39.6942 37.4772 39.8482V40.2787C36.3556 40.4548 35.8311 41.142 35.8311 41.9406C35.8311 43.5947 37.4551 43.5947 37.9887 43.5947C39.0763 43.5947 39.1222 43.7455 39.1222 44.0875C39.1222 44.8102 37.3678 44.7382 37.0956 44.3869C37.0016 44.2649 36.863 44.1853 36.7103 44.1655C36.5576 44.1457 36.4032 44.1874 36.2813 44.2814C36.1593 44.3754 36.0797 44.514 36.0599 44.6667C36.0401 44.8194 36.0818 44.9737 36.1758 45.0957C36.5156 45.4649 36.9782 45.6978 37.4772 45.751V46.1804C37.4772 46.3344 37.5383 46.4821 37.6472 46.591C37.7561 46.6999 37.9038 46.7611 38.0578 46.7611C38.2118 46.7611 38.3595 46.6999 38.4684 46.591C38.5773 46.4821 38.6385 46.3344 38.6385 46.1804V45.7537C39.7581 45.5691 40.2835 44.8754 40.2835 44.0875C40.2835 42.4334 38.6754 42.4334 37.9887 42.4334Z" fill="white"/>
<defs>
<linearGradient id="paint0_linear_189_24361" x1="64" y1="7.62939e-06" x2="7.62939e-06" y2="64" gradientUnits="userSpaceOnUse">
<stop stop-color="#F65A75"/>
<stop offset="1" stop-color="#48179C"/>
</linearGradient>
</defs>
</svg>
