<svg width="64" height="64" viewBox="0 0 64 64" fill="none" xmlns="http://www.w3.org/2000/svg">
<rect width="64" height="64" rx="32" fill="url(#paint0_linear_189_24272)"/>
<path d="M40.2831 26.7526C37.8719 26.7526 35.9105 28.7142 35.9105 31.125C35.9105 33.5361 37.8719 35.4976 40.2831 35.4976C42.6944 35.4976 44.6557 33.5361 44.6557 31.125C44.6557 28.7142 42.6944 26.7526 40.2831 26.7526ZM36.7281 31.125C36.7281 29.367 38.0124 27.9068 39.6911 27.6237C39.5919 28.2099 39.4724 28.7942 39.3114 29.3735C39.1386 29.994 38.9469 30.5995 38.7585 31.1947C38.4769 32.085 38.209 32.9517 38.0035 33.8494C37.2248 33.1967 36.7281 32.2181 36.7281 31.125ZM40.2831 34.68C39.7518 34.68 39.2491 34.5595 38.7959 34.3496C38.9999 33.37 39.2895 32.4265 39.5977 31.4532C39.7853 30.8595 39.9793 30.2455 40.1566 29.6084C40.3428 28.9391 40.4797 28.2636 40.5876 27.5856C42.4054 27.7409 43.8381 29.2676 43.8381 31.125C43.8381 33.0852 42.2433 34.68 40.2831 34.68ZM49.5369 38.1678L46.0055 34.6365C46.6578 33.5788 47.0007 32.3718 47.0007 31.125C47.0007 27.5985 44.2671 24.7041 40.8086 24.4345C40.8014 23.9816 40.7837 23.5287 40.7406 23.0759C40.6344 21.9632 40.2703 19.96 39.0264 19.0428C38.5908 18.7214 38.0874 18.5585 37.5297 18.5585C37.3181 18.5585 37.0958 18.5825 36.8694 18.6296C36.3928 18.7288 35.972 18.9268 35.5652 19.1182C35.063 19.3546 34.5887 19.5777 34.0729 19.5777L34.0202 19.5769C33.3991 19.5582 32.8042 19.1655 32.3551 18.8256C31.1898 17.9423 29.8045 17 28.1099 17C27.6216 17 27.1254 17.081 26.6356 17.2409C25.5908 17.5821 24.5517 18.2018 23.4622 19.1344C23.2825 19.0546 23.1021 18.9723 22.9217 18.8899L22.8722 18.8673C21.6865 18.3258 20.4609 17.7659 19.0936 17.688C19.0074 17.6831 18.9207 17.6807 18.8341 17.6807C17.2408 17.6807 15.7027 18.4967 14.8196 19.8105C13.8922 21.1902 13.9669 22.7469 14.0395 24.2549L14.0475 24.408C14.1321 26.1917 14.4415 27.8069 14.9681 29.211C15.7697 31.3512 16.5989 33.5642 16.8336 35.8912C16.9103 36.6521 16.9474 37.4398 16.9833 38.2039C17.0684 40.0209 17.1566 41.9 17.7806 43.6933C18.1862 44.8586 18.7483 45.6375 19.4988 46.074C19.8034 46.2515 20.1483 46.3493 20.4709 46.3491C20.8186 46.3491 21.1244 46.2349 21.3555 46.0187C21.6066 45.7834 21.7184 45.4746 21.8031 45.2039C22.0354 44.4666 22.217 43.6713 22.3959 42.8857C22.9013 40.6633 23.4239 38.3652 25.2319 36.9989C25.9804 36.4338 26.9533 36.1226 27.9705 36.1226C28.9394 36.1226 29.8748 36.4086 30.6041 36.9276C32.6118 38.357 33.1787 41.1687 33.6793 43.6524L33.7276 43.8917C33.8925 44.7061 34.1336 45.6161 34.9113 46.1095C35.1704 46.2742 35.4398 46.3579 35.7121 46.3579C35.8802 46.3579 36.0466 46.3253 36.2067 46.2614C37.4108 45.7812 37.9669 43.6865 38.0263 43.4494C38.4531 41.7479 38.4699 40.0008 38.4858 38.3109C38.488 38.0747 38.4912 37.8337 38.4946 37.5932C39.0651 37.7512 39.663 37.8424 40.2831 37.8424C41.5187 37.8424 42.7151 37.5063 43.7647 36.8673L47.3009 40.404C47.5999 40.7024 47.9967 40.8669 48.4191 40.8669C48.8415 40.8669 49.2387 40.7024 49.5369 40.4038C49.8355 40.1054 50 39.7081 50 39.2858C50 38.8634 49.8355 38.4664 49.5369 38.1678ZM37.608 38.3093C37.592 39.9461 37.5756 41.6385 37.1744 43.2358C36.9453 44.1488 36.4139 45.2339 35.881 45.4465C35.8235 45.4694 35.768 45.4806 35.7109 45.4806C35.6079 45.4806 35.5005 45.4441 35.3816 45.3684C34.8957 45.06 34.7173 44.3546 34.5883 43.7177L34.5396 43.4789C34.0079 40.8379 33.4054 37.8446 31.1135 36.2128C30.2253 35.5807 29.1083 35.2325 27.9685 35.2325C26.7729 35.2325 25.6132 35.6112 24.703 36.2986C22.639 37.858 22.0801 40.3149 21.5308 42.7304C21.3535 43.5085 21.1859 44.2434 20.9655 44.941C20.9144 45.1053 20.8513 45.2884 20.7555 45.3782C20.6888 45.4405 20.593 45.472 20.4701 45.472C20.3068 45.472 20.1088 45.4135 19.9403 45.3155C19.3782 44.9886 18.9435 44.3636 18.6101 43.4047C18.0273 41.7314 17.9423 39.9171 17.8596 38.1596C17.8233 37.3865 17.7858 36.5871 17.7063 35.803C17.4604 33.361 16.6105 31.0935 15.7885 28.9008C15.2959 27.585 15.0048 26.0592 14.9234 24.3663L14.9162 24.212C14.8503 22.8487 14.7825 21.4393 15.5482 20.2999C16.2699 19.2256 17.5291 18.5583 18.8333 18.5583C18.9036 18.5583 18.9734 18.5603 19.0437 18.5641C20.2453 18.6326 21.3955 19.1578 22.5077 19.6658C22.5935 19.7051 22.6795 19.7443 22.7654 19.7835C22.6426 19.9108 22.5249 20.0394 22.4214 20.1596L22.3715 20.2173C22.2546 20.3524 22.1332 20.4923 22.035 20.651L21.9991 20.7077C21.9572 20.7736 21.9148 20.8406 21.8805 20.9101C21.8434 20.985 21.8146 21.066 21.7867 21.146L21.7643 21.2097C21.73 21.3035 21.742 21.4019 21.7967 21.4802C21.8546 21.5626 21.9532 21.6119 22.0598 21.6119C22.1344 21.6119 22.2067 21.587 22.2634 21.5411L22.34 21.4812C22.3879 21.4447 22.4358 21.4079 22.4797 21.368C22.5264 21.3263 22.5699 21.2804 22.6131 21.2345L22.6841 21.1612C22.7668 21.0798 22.8434 20.9917 22.9201 20.9037C22.9664 20.8504 23.0127 20.7969 23.0602 20.7458C23.1811 20.6165 23.3053 20.4899 23.4307 20.3644C23.4893 20.3057 23.55 20.2488 23.6111 20.1921C23.6895 20.1191 23.7675 20.046 23.8415 19.9693C24.9118 19.0204 25.919 18.3978 26.9082 18.0753C27.3246 17.9394 27.7214 17.8735 28.1214 17.8735C29.4612 17.8735 30.6932 18.6673 31.8253 19.525C32.3783 19.944 33.1244 20.4283 33.9955 20.4548L34.0514 20.4554C34.7819 20.4554 35.4235 20.1544 35.9389 19.9125C36.3161 19.735 36.6726 19.5672 37.0483 19.4891C37.2187 19.4536 37.382 19.4356 37.5341 19.4356C37.9018 19.4356 38.2192 19.5382 38.5054 19.7492C39.4759 20.4646 39.7745 22.1926 39.8663 23.1589C39.9067 23.5811 39.9236 24.0034 39.931 24.4257C36.3912 24.6106 33.5659 27.54 33.5659 31.125C33.5659 33.8837 35.2387 36.2573 37.6222 37.2901C37.6154 37.6407 37.6108 37.9864 37.608 38.3093ZM48.9588 39.8257C48.6706 40.1139 48.1672 40.1139 47.879 39.8257L44.1096 36.0561C44.0305 35.9771 43.9259 35.9364 43.8206 35.9364C43.7407 35.9364 43.6605 35.9595 43.5906 36.007C42.6113 36.6729 41.4676 37.0248 40.2831 37.0248C37.0299 37.0248 34.3835 34.3782 34.3835 31.125C34.3835 27.872 37.0299 25.2254 40.2831 25.2254C43.5363 25.2254 46.1831 27.872 46.1831 31.125C46.1831 32.3197 45.8242 33.4728 45.1451 34.4595C45.0338 34.6219 45.0537 34.8409 45.1931 34.9802L48.9588 38.7458C49.103 38.8901 49.1824 39.082 49.1824 39.2858C49.1824 39.4898 49.103 39.6814 48.9588 39.8257Z" fill="white"/>
<defs>
<linearGradient id="paint0_linear_189_24272" x1="64" y1="7.62939e-06" x2="7.62939e-06" y2="64" gradientUnits="userSpaceOnUse">
<stop stop-color="#F65A75"/>
<stop offset="1" stop-color="#48179C"/>
</linearGradient>
</defs>
</svg>
