<svg width="64" height="64" viewBox="0 0 64 64" fill="none" xmlns="http://www.w3.org/2000/svg">
<rect width="64" height="64" rx="32" fill="url(#paint0_linear_189_24286)"/>
<path d="M48.4604 23.0471H43.8312C42.984 23.0471 42.295 23.7361 42.295 24.5833V48.4617C42.295 49.309 42.984 49.998 43.8312 49.998H48.4604C49.3076 49.998 49.9967 49.3089 49.9967 48.4617V24.5833C49.9967 23.7361 49.3076 23.0471 48.4604 23.0471ZM49.1197 48.4621C49.1197 48.8255 48.8237 49.1199 48.462 49.1199L43.8312 49.1214C43.4679 49.1214 43.1735 48.8255 43.1735 48.4637V24.5853C43.1735 24.222 43.4694 23.9276 43.8312 23.9276H48.4604C48.8237 23.9276 49.1181 24.2235 49.1181 24.5853L49.1197 48.4621ZM20.1654 43.4148H15.5363C14.689 43.4148 14 44.1039 14 44.9511V48.4621C14 49.3093 14.6891 49.9983 15.5363 49.9983H20.1654C21.0127 49.9983 21.7017 49.3092 21.7017 48.4621V44.9511C21.7017 44.1038 21.0126 43.4148 20.1654 43.4148ZM20.8247 48.4621C20.8247 48.8255 20.5288 49.1199 20.167 49.1199L15.5362 49.1214C15.1729 49.1214 14.8785 48.8255 14.8785 48.4637V44.9527C14.8785 44.5894 15.1745 44.295 15.5362 44.295H20.1654C20.5287 44.295 20.8231 44.591 20.8231 44.9527L20.8247 48.4621ZM29.5976 36.6264H24.9684C24.1212 36.6264 23.4322 37.3154 23.4322 38.1626V48.4637C23.4322 49.311 24.1213 50 24.9684 50H29.5976C30.4449 50 31.1339 49.3109 31.1339 48.4637V38.1626C31.1339 37.3154 30.4448 36.6264 29.5976 36.6264ZM30.2554 48.4621C30.2554 48.8255 29.9594 49.1199 29.5976 49.1199L24.9684 49.1214C24.6051 49.1214 24.3107 48.8255 24.3107 48.4637L24.3092 38.1626C24.3092 37.7993 24.6051 37.5049 24.9669 37.5049H29.5961C29.9594 37.5049 30.2538 37.8008 30.2538 38.1626L30.2554 48.4621ZM39.0283 29.8359H34.3991C33.5518 29.8359 32.8628 30.525 32.8628 31.3722V48.4621C32.8628 49.3094 33.5519 49.9984 34.3991 49.9984H39.0283C39.8755 49.9984 40.5645 49.3093 40.5645 48.4621L40.5661 31.3722C40.5661 30.5249 39.877 29.8359 39.0283 29.8359ZM39.6875 48.4621C39.6875 48.8255 39.3916 49.1199 39.0298 49.1199L34.399 49.1214C34.0357 49.1214 33.7413 48.8255 33.7413 48.4637V31.3721C33.7413 31.0088 34.0373 30.7144 34.399 30.7144H39.0282C39.3915 30.7144 39.6859 31.0104 39.6859 31.3721L39.6875 48.4621ZM32.764 28.1962C28.124 31.9218 22.5943 34.8003 17.1946 36.302C17.1555 36.313 17.1163 36.3177 17.0772 36.3177C16.8845 36.3177 16.7091 36.1908 16.6543 35.9967C16.5901 35.7633 16.7264 35.5206 16.9597 35.4564C28.0643 32.3682 38.4472 23.9321 41.8969 15.261L40.1164 16.0503C39.894 16.1489 39.6356 16.0487 39.5369 15.8263C39.4383 15.604 39.5385 15.3456 39.7609 15.2469L42.4905 14.038C42.7128 13.9393 42.9712 14.0395 43.0699 14.2619L44.2788 16.9915C44.3775 17.2139 44.2773 17.4722 44.0549 17.5709C43.8325 17.6696 43.5741 17.5693 43.4755 17.347L42.705 15.6087C40.9401 20.0423 37.5139 24.3833 32.764 28.1962Z" fill="white"/>
<defs>
<linearGradient id="paint0_linear_189_24286" x1="64" y1="7.62939e-06" x2="7.62939e-06" y2="64" gradientUnits="userSpaceOnUse">
<stop stop-color="#F65A75"/>
<stop offset="1" stop-color="#48179C"/>
</linearGradient>
</defs>
</svg>
