<svg width="64" height="64" viewBox="0 0 64 64" fill="none" xmlns="http://www.w3.org/2000/svg">
<rect width="64" height="64" rx="32" fill="url(#paint0_linear_189_24377)"/>
<path d="M37.808 50H37.7822C37.6737 49.9914 37.5794 49.9199 37.5394 49.8171L34.2904 41.216C34.2333 41.0674 34.3104 40.9045 34.4561 40.8473C34.6019 40.7902 34.7676 40.8673 34.8248 41.0131L37.8651 49.0597L39.7139 45.9451C39.7825 45.8308 39.9196 45.7765 40.0482 45.8194L43.4943 46.9338L40.1482 38.0755C40.0911 37.9269 40.1682 37.7641 40.314 37.7069C40.4626 37.6498 40.6254 37.7269 40.6826 37.8726L44.2373 47.285C44.2773 47.3879 44.2516 47.505 44.1773 47.5822C44.103 47.6622 43.9858 47.6908 43.883 47.6565L40.0883 46.4306L38.0537 49.8596C38.0023 49.9453 37.908 50 37.808 50Z" fill="white"/>
<path d="M27.1118 49.9999C27.0118 49.9999 26.9175 49.9485 26.866 49.8599L24.8315 46.4309L21.0368 47.6568C20.9339 47.6911 20.8168 47.6625 20.7425 47.5825C20.6653 47.5025 20.6425 47.3882 20.6825 47.2853L24.2143 37.9359C24.2714 37.7873 24.4343 37.713 24.5829 37.7701C24.7315 37.8273 24.8058 37.9901 24.7486 38.1387L21.4283 46.9341L24.8744 45.8197C25.0001 45.7768 25.1401 45.8311 25.2087 45.9454L27.0575 49.06L30.1121 40.9761C30.1693 40.8275 30.3322 40.7532 30.4807 40.8103C30.6293 40.8675 30.7036 41.0304 30.6465 41.1789L27.3832 49.817C27.3432 49.9199 27.2489 49.9913 27.1403 49.9999H27.1146L27.1118 49.9999Z" fill="white"/>
<path d="M28.7783 41.6274C28.4955 41.6274 28.2154 41.5931 27.944 41.5046C27.0525 41.216 26.4324 40.4559 25.8323 39.7215C25.4409 39.2414 25.0722 38.79 24.6436 38.4785C24.2064 38.1613 23.6578 37.947 23.0749 37.7184C22.1976 37.3755 21.2918 37.0212 20.7489 36.2754C20.2116 35.5382 20.1517 34.5695 20.0974 33.6351C20.0602 33.035 20.0231 32.4121 19.8545 31.8892C19.6945 31.3977 19.383 30.9148 19.0515 30.4005C18.5343 29.6004 18 28.7717 18 27.8145C18 26.8572 18.5343 26.0285 19.0487 25.2284C19.3802 24.717 19.6916 24.2312 19.8516 23.7397C20.0202 23.2196 20.0574 22.5967 20.0945 21.9967C20.1517 21.0623 20.2088 20.0936 20.746 19.3535C21.2889 18.6077 22.1947 18.2534 23.072 17.9105C23.6549 17.6819 24.2064 17.4676 24.6408 17.1504C25.0694 16.8389 25.438 16.3846 25.8295 15.9074C26.4295 15.173 27.0467 14.4158 27.9383 14.1243C28.7898 13.8472 29.7185 14.0901 30.6186 14.3215C31.2101 14.4758 31.8244 14.633 32.3873 14.633C32.9502 14.633 33.5646 14.473 34.1561 14.3215C35.0562 14.0872 35.9849 13.8472 36.8364 14.1243C37.7279 14.4129 38.348 15.173 38.9481 15.9074C39.3395 16.3875 39.7081 16.8389 40.1368 17.1504C40.574 17.4676 41.1226 17.6819 41.7055 17.9105C42.5828 18.2534 43.4886 18.6077 44.0315 19.3535C44.5687 20.0907 44.6287 21.0594 44.683 21.9967C44.7202 22.5967 44.7573 23.2197 44.9259 23.7426C45.0859 24.2341 45.3974 24.717 45.7288 25.2313C46.246 26.0314 46.7804 26.86 46.7804 27.8173C46.7804 28.7746 46.246 29.6032 45.7288 30.4033C45.3974 30.9148 45.0859 31.4006 44.9259 31.8921C44.7573 32.415 44.7202 33.035 44.683 33.638C44.6259 34.5723 44.5687 35.541 44.0315 36.2811C43.4886 37.0269 42.5828 37.3812 41.7055 37.7241C41.1226 37.9527 40.5711 38.167 40.1368 38.4842C39.7081 38.7957 39.3395 39.25 38.9481 39.7272C38.348 40.4616 37.7308 41.2188 36.8392 41.5103C35.9877 41.7874 35.059 41.5446 34.159 41.3131C33.5674 41.1588 32.9531 41.0016 32.3902 41.0016C31.8273 41.0016 31.2129 41.1617 30.6214 41.3131C30.0099 41.4703 29.3841 41.6331 28.7755 41.6331L28.7783 41.6274ZM28.7812 14.5673C28.5526 14.5673 28.3297 14.5959 28.1211 14.6645C27.3896 14.9016 26.8495 15.5646 26.278 16.2647C25.8809 16.7504 25.4694 17.2533 24.9836 17.6105C24.4864 17.9706 23.8778 18.2106 23.2863 18.442C22.449 18.7707 21.6575 19.0793 21.2146 19.6908C20.7745 20.2937 20.7231 21.1366 20.6688 22.031C20.6317 22.6682 20.5917 23.3283 20.3973 23.9169C20.2145 24.4799 19.8687 25.0171 19.5315 25.54C19.06 26.2715 18.5714 27.0287 18.5714 27.8174C18.5714 28.6061 19.06 29.3633 19.5315 30.0948C19.8658 30.6149 20.2145 31.1549 20.3973 31.715C20.5888 32.3065 20.6288 32.9637 20.6688 33.6009C20.7231 34.4925 20.7745 35.3383 21.2117 35.9412C21.6575 36.5527 22.449 36.8613 23.2834 37.1899C23.8749 37.4214 24.4864 37.6614 24.9807 38.0214C25.4694 38.3757 25.878 38.8787 26.278 39.3673C26.8495 40.0674 27.3896 40.7303 28.1211 40.9675C28.8155 41.1932 29.6242 40.9818 30.4814 40.7617C31.11 40.5989 31.7558 40.4303 32.393 40.4303C33.0303 40.4303 33.6789 40.5989 34.3047 40.7617C35.162 40.9846 35.9706 41.1932 36.665 40.9675C37.3965 40.7303 37.9366 40.0674 38.5081 39.3673C38.9052 38.8815 39.3167 38.3786 39.8054 38.0214C40.3026 37.6614 40.9112 37.4214 41.5027 37.1899C42.3399 36.8613 43.1314 36.5527 43.5744 35.9412C44.0144 35.3383 44.0659 34.4953 44.1201 33.6009C44.1573 32.9637 44.1973 32.3065 44.3916 31.715C44.5745 31.1521 44.9202 30.6149 45.2574 30.0948C45.7289 29.3633 46.2175 28.6061 46.2175 27.8174C46.2175 27.0287 45.7289 26.2715 45.2574 25.54C44.9231 25.0199 44.5745 24.4799 44.3916 23.9198C44.2002 23.3283 44.1602 22.6711 44.1201 22.0339C44.0659 21.1423 44.0144 20.2965 43.5772 19.6936C43.1314 19.0821 42.3428 18.7735 41.5055 18.4449C40.914 18.2134 40.3025 17.9763 39.8082 17.6134C39.3196 17.2591 38.911 16.7561 38.5109 16.2675C37.9394 15.5674 37.3993 14.9045 36.6678 14.6673C35.9735 14.4416 35.1648 14.653 34.3076 14.8731C33.6818 15.0359 33.0331 15.2045 32.3959 15.2045C31.7587 15.2045 31.11 15.0359 30.4842 14.8731C29.887 14.7188 29.3127 14.5702 28.7869 14.5702L28.7812 14.5673Z" fill="white"/>
<path d="M32.3935 37.9014C26.8299 37.9014 22.3037 33.3752 22.3037 27.8117C22.3037 22.2482 26.8299 17.7219 32.3935 17.7219C37.957 17.7219 42.4832 22.2482 42.4832 27.8117C42.4832 33.3752 37.957 37.9014 32.3935 37.9014ZM32.3935 18.2936C27.1441 18.2936 22.8754 22.5627 22.8754 27.8117C22.8754 33.061 27.1445 37.3298 32.3935 37.3298C37.6424 37.3298 41.9115 33.0606 41.9115 27.8117C41.9115 22.5623 37.6424 18.2936 32.3935 18.2936Z" fill="white"/>
<path d="M31.2446 33.1522H31.196H31.156C30.6946 33.1522 29.6287 32.3764 27.9585 30.8233C27.3127 30.2233 26.4926 29.4603 25.4439 28.4945C25.3268 28.3888 25.3211 28.2059 25.4268 28.0916L27.2956 26.0599C27.347 26.0028 27.4185 25.9713 27.4928 25.9685C27.5728 25.9628 27.6413 25.9913 27.6985 26.0428L30.9989 29.0774L36.7109 22.2568C36.7594 22.1996 36.828 22.1625 36.9052 22.1568C36.9795 22.1482 37.0566 22.1739 37.1138 22.2225L39.2312 23.9942C39.3512 24.0942 39.3683 24.277 39.2655 24.3971C37.6853 26.2859 36.4594 27.7632 35.5022 28.9149C32.0589 33.064 31.9875 33.1496 31.2444 33.1496L31.2446 33.1522ZM26.041 28.2686C26.9897 29.143 27.744 29.8431 28.347 30.406C29.9086 31.8576 30.8458 32.5834 31.1559 32.5834H31.2216C31.7074 32.5834 31.7731 32.5148 35.0591 28.5542C35.9792 27.4456 37.1479 26.0368 38.6424 24.2537L36.9651 22.8478L31.2443 29.6772C31.1928 29.7372 31.1214 29.7743 31.0442 29.78C30.9671 29.78 30.8899 29.7572 30.8328 29.7058L27.5238 26.6597L26.0408 28.2713L26.041 28.2686Z" fill="white"/>
<defs>
<linearGradient id="paint0_linear_189_24377" x1="64" y1="7.62939e-06" x2="7.62939e-06" y2="64" gradientUnits="userSpaceOnUse">
<stop stop-color="#F65A75"/>
<stop offset="1" stop-color="#48179C"/>
</linearGradient>
</defs>
</svg>
