<svg width="64" height="64" viewBox="0 0 64 64" fill="none" xmlns="http://www.w3.org/2000/svg">
<rect width="64" height="64" rx="32" fill="url(#paint0_linear_189_24292)"/>
<path d="M44.0099 34.9978H40.1804C42.4245 31.3059 44.7544 26.8558 44.7544 24.2655C44.7544 19.1565 40.5986 15 35.4896 15C30.3807 15 26.2249 19.1565 26.2249 24.2655C26.2249 26.8558 28.5547 31.3059 30.7988 34.9978H19.9901L14 49.3524H50L44.0099 34.9978ZM43.0075 36.5029L45.6395 42.811L36.5819 40.5036C37.1477 39.6967 38.1432 38.2425 39.2467 36.5029H43.0075ZM27.7299 24.2655C27.7299 19.9862 31.2111 16.505 35.4896 16.505C39.7681 16.505 43.2493 19.9862 43.2493 24.2655C43.2493 27.6349 38.1161 35.6812 35.4896 39.4424C32.8631 35.6812 27.7299 27.6349 27.7299 24.2655ZM31.7325 36.5029C32.9769 38.4646 34.066 40.0358 34.575 40.7553L30.2695 43.5095L29.8415 36.5029H31.7325ZM20.9925 36.5029H28.3338L28.7703 43.6464L19.6833 39.6407L20.9925 36.5029ZM16.259 47.8473L19.1035 41.03L29.6619 45.6838L35.4551 41.9792L35.4896 42.027L35.5836 41.8971L35.6895 41.8293L38.8409 42.632L35.1036 47.8473L16.259 47.8473ZM40.4067 43.0309L46.2579 44.5212L46.294 44.3796L47.741 47.8473H36.9543L40.4067 43.0309Z" fill="white"/>
<path d="M40.3048 23.6202C40.3048 20.965 38.1449 18.8052 35.4898 18.8052C32.8346 18.8052 30.6748 20.965 30.6748 23.6202C30.6748 26.2753 32.8346 28.4359 35.4898 28.4359C38.1449 28.4359 40.3048 26.2753 40.3048 23.6202ZM32.1798 23.6202C32.1798 21.7947 33.6643 20.3102 35.4898 20.3102C37.3152 20.3102 38.7997 21.7947 38.7997 23.6202C38.7997 25.4456 37.3152 26.9308 35.4898 26.9308C33.6643 26.9308 32.1798 25.4456 32.1798 23.6202Z" fill="white"/>
<defs>
<linearGradient id="paint0_linear_189_24292" x1="64" y1="7.62939e-06" x2="7.62939e-06" y2="64" gradientUnits="userSpaceOnUse">
<stop stop-color="#F65A75"/>
<stop offset="1" stop-color="#48179C"/>
</linearGradient>
</defs>
</svg>
