<svg width="64" height="64" viewBox="0 0 64 64" fill="none" xmlns="http://www.w3.org/2000/svg">
<rect width="64" height="64" rx="32" fill="url(#paint0_linear_189_24206)"/>
<path fill-rule="evenodd" clip-rule="evenodd" d="M32 20.0001C31.4091 20.0001 30.8239 20.1165 30.2779 20.3426C29.732 20.5687 29.2359 20.9002 28.818 21.3181C28.4002 21.7359 28.0687 22.232 27.8425 22.778C27.6164 23.324 27.5 23.9091 27.5 24.5001C27.5 25.091 27.6164 25.6762 27.8425 26.2221C28.0687 26.7681 28.4002 27.2642 28.818 27.682C29.2359 28.0999 29.732 28.4314 30.2779 28.6575C30.8239 28.8837 31.4091 29.0001 32 29.0001C33.1935 29.0001 34.3381 28.526 35.182 27.682C36.0259 26.8381 36.5 25.6935 36.5 24.5001C36.5 23.3066 36.0259 22.162 35.182 21.3181C34.3381 20.4742 33.1935 20.0001 32 20.0001ZM24.5 24.5001C24.5003 23.081 24.9032 21.6912 25.6618 20.4919C26.4205 19.2927 27.5038 18.3333 28.7859 17.7252C30.068 17.1171 31.4964 16.8852 32.905 17.0564C34.3137 17.2276 35.6449 17.795 36.744 18.6926C37.8431 19.5902 38.665 20.7812 39.1142 22.1272C39.5635 23.4733 39.6216 24.9192 39.2819 26.297C38.9422 27.6748 38.2186 28.9279 37.1952 29.9109C36.1717 30.8938 34.8904 31.5663 33.5 31.8501V39.5001C33.5 39.8979 33.342 40.2794 33.0607 40.5607C32.7794 40.842 32.3978 41.0001 32 41.0001C31.6022 41.0001 31.2206 40.842 30.9393 40.5607C30.658 40.2794 30.5 39.8979 30.5 39.5001V31.8501C28.806 31.5043 27.2834 30.5838 26.19 29.2444C25.0967 27.905 24.4996 26.229 24.5 24.5001ZM28.2335 38.1501C28.2633 38.3449 28.2545 38.5437 28.2075 38.7351C28.1604 38.9265 28.0761 39.1068 27.9594 39.2656C27.8426 39.4244 27.6958 39.5586 27.5271 39.6606C27.3585 39.7626 27.1714 39.8304 26.9765 39.8601C25.0595 40.1511 23.537 40.5936 22.5365 41.0826C20.7065 41.9781 22.8455 42.6216 23.9615 42.9696C25.952 43.5921 28.7945 44.0001 32 44.0001C35.2055 44.0001 38.048 43.5921 40.0385 42.9696C41.162 42.6186 43.2935 41.9796 41.4635 41.0826C40.463 40.5936 38.9405 40.1526 37.0235 39.8601C36.8265 39.833 36.6368 39.7671 36.4656 39.6661C36.2943 39.5651 36.1448 39.4311 36.0257 39.2718C35.9067 39.1125 35.8206 38.9311 35.7723 38.7382C35.724 38.5454 35.7145 38.3448 35.7445 38.1482C35.7744 37.9516 35.8431 37.763 35.9466 37.5932C36.0501 37.4234 36.1864 37.2759 36.3474 37.1592C36.5084 37.0426 36.691 36.9591 36.8846 36.9137C37.0782 36.8682 37.2789 36.8617 37.475 36.8946C39.557 37.2096 41.408 37.7151 42.7835 38.3886C44.1095 39.0381 45.5 40.1316 45.5 41.7501C45.5 42.9666 44.714 43.8501 43.949 44.4156C40.724 46.7976 35.804 47.0001 32 47.0001C28.577 47.0001 25.4195 46.5681 23.0675 45.8331C21.1925 45.2481 18.5 44.0931 18.5 41.7501C18.5 40.1301 19.8905 39.0381 21.2165 38.3901C22.592 37.7151 24.4445 37.2111 26.5235 36.8946C26.7183 36.8647 26.9171 36.8736 27.1085 36.9206C27.2999 36.9676 27.4802 37.0519 27.639 37.1687C27.7978 37.2854 27.9321 37.4323 28.0341 37.601C28.1361 37.7696 28.2038 37.9552 28.2335 38.1501Z" fill="white"/>
<defs>
<linearGradient id="paint0_linear_189_24206" x1="64" y1="7.62939e-06" x2="7.62939e-06" y2="64" gradientUnits="userSpaceOnUse">
<stop stop-color="#F65A75"/>
<stop offset="1" stop-color="#48179C"/>
</linearGradient>
</defs>
</svg>
