<svg width="64" height="64" viewBox="0 0 64 64" fill="none" xmlns="http://www.w3.org/2000/svg">
<rect width="64" height="64" rx="32" fill="url(#paint0_linear_189_24301)"/>
<path fill-rule="evenodd" clip-rule="evenodd" d="M45.5297 45.3082H18.4689C16.0052 45.3082 14 43.303 14 40.8393V39.7087C14 39.4444 14.2151 39.2292 14.4795 39.2292H49.5205C49.7849 39.2292 50 39.4444 50 39.7087V40.8393C50 43.303 47.9948 45.3082 45.5311 45.3082H45.5297ZM14.9576 40.1881V40.8392C14.9576 42.7755 16.5325 44.3504 18.4674 44.3504H45.5283C47.4646 44.3504 49.0395 42.7755 49.0395 40.8392V40.1881H14.9576Z" fill="white"/>
<path fill-rule="evenodd" clip-rule="evenodd" d="M46.3414 40.1866H17.6592C17.3948 40.1866 17.1797 39.9715 17.1797 39.7071V21.8191C17.1797 19.714 18.8924 18 20.9973 18H43.0015C45.1065 18 46.8191 19.7127 46.8191 21.8191V39.7086C46.8191 39.9729 46.604 40.1881 46.3396 40.1881L46.3414 40.1866ZM18.1372 39.229H45.8619V21.819C45.8619 20.2413 44.5794 18.9588 43.0017 18.9588H20.9976C19.4198 18.9588 18.1374 20.2413 18.1374 21.819L18.1372 39.229Z" fill="white"/>
<path fill-rule="evenodd" clip-rule="evenodd" d="M43.8144 40.1867H20.1846C19.9202 40.1867 19.7051 39.9715 19.7051 39.7072V21.8191C19.7051 21.1062 20.2844 20.5269 20.9974 20.5269H43.0015C43.7144 20.5269 44.2923 21.1062 44.2923 21.8191V39.7086C44.2923 39.973 44.0772 40.1881 43.8128 40.1881L43.8144 40.1867ZM20.6641 39.229H43.3349V21.8191C43.3349 21.6377 43.1816 21.4858 43.0016 21.4858H20.9975C20.8133 21.4858 20.6642 21.6363 20.6642 21.8191L20.6641 39.229Z" fill="white"/>
<path fill-rule="evenodd" clip-rule="evenodd" d="M35.0686 42.8894H28.9305C28.2316 42.8894 27.6621 42.3213 27.6621 41.6225V39.7086C27.6621 39.4443 27.8773 39.2291 28.1416 39.2291H35.8575C36.1219 39.2291 36.337 39.4443 36.337 39.7086V41.6225C36.337 42.3213 35.7675 42.8894 35.0686 42.8894ZM28.6198 40.1867V41.6211C28.6198 41.7884 28.7618 41.9304 28.9292 41.9304H35.0673C35.2388 41.9304 35.3781 41.7912 35.3781 41.6211V40.1867H28.6198Z" fill="white"/>
<path fill-rule="evenodd" clip-rule="evenodd" d="M28.9986 37.0439H27.3506C27.0862 37.0439 26.8711 36.8288 26.8711 36.5644V33.4609C26.8711 33.1966 27.0862 32.9814 27.3506 32.9814H28.9986C29.263 32.9814 29.4781 33.1966 29.4781 33.4609V36.5644C29.4781 36.8288 29.263 37.0439 28.9986 37.0439ZM27.8301 36.0863H28.5191V33.9404H27.8301V36.0863Z" fill="white"/>
<path fill-rule="evenodd" clip-rule="evenodd" d="M33.0426 37.044H31.3945C31.1302 37.044 30.915 36.8289 30.915 36.5645V30.3577C30.915 30.0933 31.1302 29.8782 31.3945 29.8782H33.0426C33.307 29.8782 33.5221 30.0933 33.5221 30.3577V36.566C33.5221 36.8304 33.3069 37.0455 33.0426 37.0455V37.044ZM31.874 36.0864H32.5631V30.8371H31.874V36.0864Z" fill="white"/>
<path fill-rule="evenodd" clip-rule="evenodd" d="M37.0865 37.044H35.4385C35.1741 37.044 34.959 36.8288 34.959 36.5645V27.2542C34.959 26.9898 35.1741 26.7747 35.4385 26.7747H37.0865C37.3509 26.7747 37.566 26.9898 37.566 27.2542V36.5645C37.566 36.8288 37.3509 37.044 37.0865 37.044ZM35.918 36.0863H36.607V27.7336H35.918V36.0863Z" fill="white"/>
<path fill-rule="evenodd" clip-rule="evenodd" d="M41.1315 37.044H39.4834C39.219 37.044 39.0039 36.8288 39.0039 36.5645V24.1493C39.0039 23.8849 39.2191 23.6698 39.4834 23.6698H41.1315C41.3958 23.6698 41.611 23.8849 41.611 24.1493V36.5645C41.611 36.8289 41.3958 37.044 41.1315 37.044ZM39.9629 36.0864H40.652V24.6302H39.9629V36.0864Z" fill="white"/>
<path fill-rule="evenodd" clip-rule="evenodd" d="M25.8784 32.0632C23.9547 32.0632 22.3896 30.4981 22.3896 28.5744C22.3896 26.6507 23.9548 25.0842 25.8784 25.0842C26.1428 25.0842 26.3579 25.2994 26.3579 25.5637V28.0949H28.889C29.1534 28.0949 29.3685 28.31 29.3685 28.5744C29.3685 30.4981 27.8034 32.0645 25.8798 32.0645L25.8784 32.0632ZM25.3989 26.0867C24.2318 26.3117 23.3459 27.341 23.3459 28.5728C23.3459 29.9692 24.4807 31.1039 25.877 31.1039C27.1088 31.1039 28.1382 30.2195 28.3631 29.0509H25.877C25.6126 29.0509 25.3975 28.8358 25.3975 28.5714V26.0853L25.3989 26.0867Z" fill="white"/>
<path fill-rule="evenodd" clip-rule="evenodd" d="M30.3073 27.6393H30.3017H27.291C27.0267 27.6393 26.8115 27.4242 26.8115 27.1598V24.1492C26.8115 23.8848 27.0267 23.6697 27.291 23.6697C29.188 23.6697 30.7376 25.1926 30.7798 27.0797C30.784 27.105 30.7868 27.1317 30.7868 27.1599C30.7868 27.4242 30.5717 27.6393 30.3073 27.6393ZM27.7705 26.6803H29.7772C29.5831 25.6678 28.783 24.8677 27.7705 24.6737V26.6803Z" fill="white"/>
<defs>
<linearGradient id="paint0_linear_189_24301" x1="64" y1="7.62939e-06" x2="7.62939e-06" y2="64" gradientUnits="userSpaceOnUse">
<stop stop-color="#F65A75"/>
<stop offset="1" stop-color="#48179C"/>
</linearGradient>
</defs>
</svg>
