<svg width="64" height="64" viewBox="0 0 64 64" fill="none" xmlns="http://www.w3.org/2000/svg">
<rect width="64" height="64" rx="32" fill="url(#paint0_linear_189_24391)"/>
<path d="M20.4625 27.8902H17.6643C17.3537 27.8902 17.1017 28.1422 17.1017 28.4527V31.2539C17.1017 31.5645 17.3537 31.8165 17.6643 31.8165H20.4625C20.7731 31.8165 21.0251 31.5645 21.0251 31.2539V28.441C21.0192 28.1348 20.7687 27.8902 20.4625 27.8902ZM19.8999 30.6913H18.2269V29.0153H19.8999V30.6913ZM27.4009 27.8902H24.6173C24.3067 27.8902 24.0547 28.1422 24.0547 28.4527V31.2539C24.0547 31.5645 24.3067 31.8165 24.6173 31.8165H27.4155C27.7261 31.8165 27.9781 31.5645 27.9781 31.2539V28.441C27.9722 28.1348 27.7217 27.8902 27.4155 27.8902H27.4009ZM26.8383 30.6913H25.1799V29.0153H26.853L26.8383 30.6913ZM34.3393 27.8902H31.5748C31.2642 27.8902 31.0122 28.1422 31.0122 28.4527V31.2539C31.0122 31.5645 31.2642 31.8165 31.5748 31.8165H34.373C34.6836 31.8165 34.9356 31.5645 34.9356 31.2539V28.441C34.9297 28.1348 34.6792 27.8902 34.373 27.8902H34.3393ZM33.7767 30.6913H32.1373V29.0153H33.8104L33.7767 30.6913ZM38.4941 31.8165H41.2923C41.6029 31.8165 41.8549 31.5645 41.8549 31.2539V28.441C41.8549 28.1305 41.6029 27.8785 41.2923 27.8785H38.5278C38.2172 27.8785 37.9652 28.1305 37.9652 28.441V31.2437C37.9652 31.5543 38.2172 31.8062 38.5278 31.8062L38.4941 31.8165ZM39.0903 29.0153H40.7634V30.6913H39.0903V29.0153ZM20.4624 34.0068H17.6642C17.3536 34.0068 17.1016 34.2588 17.1016 34.5694V37.372C17.1016 37.6826 17.3536 37.9346 17.6642 37.9346H20.4624C20.7715 37.9317 21.0221 37.6812 21.025 37.372V34.5694C21.025 34.2588 20.773 34.0068 20.4624 34.0068ZM19.8998 36.808L18.2268 36.8095V35.132H19.8998V36.808ZM27.4008 34.0068H24.6172C24.3067 34.0068 24.0547 34.2588 24.0547 34.5694V37.372C24.0576 37.6812 24.3081 37.9317 24.6172 37.9346H27.4154C27.726 37.9346 27.978 37.6826 27.978 37.372V34.5694C27.978 34.2588 27.726 34.0068 27.4154 34.0068H27.4008ZM26.8382 36.808L25.1798 36.8095V35.132H26.8529L26.8382 36.808ZM34.3392 34.0068H31.5747C31.2641 34.0068 31.0121 34.2588 31.0121 34.5694V37.372C31.0121 37.6826 31.2641 37.9346 31.5747 37.9346H34.3729C34.682 37.9317 34.934 37.6812 34.9355 37.372V34.5694C34.9355 34.2588 34.6835 34.0068 34.3729 34.0068H34.3392ZM33.7767 36.808L32.1373 36.8095V35.132H33.8103L33.7767 36.808ZM46.5474 36.556V36.5575C46.7643 36.7787 46.7643 37.1318 46.5474 37.353L42.879 41.0727C42.6593 41.2925 42.3032 41.2925 42.0835 41.0727L40.513 39.5169C40.3064 39.2957 40.3123 38.9499 40.5262 38.736C40.7401 38.5207 41.0858 38.5148 41.307 38.7214L42.4658 39.8919L45.7856 36.5692C45.8896 36.4608 46.0317 36.3993 46.1812 36.3978C46.3306 36.3949 46.4742 36.4535 46.5811 36.5575L46.5474 36.556ZM45.2567 32.5857V21.5747C45.2553 20.6503 44.5052 19.9002 43.5807 19.8987H40.3474V18.9347C40.3489 18.6871 40.2507 18.4497 40.0764 18.274C39.902 18.0996 39.6647 18 39.4171 18H38.3491C38.1 18 37.8627 18.0982 37.6869 18.2725C37.5111 18.4483 37.4129 18.6856 37.4144 18.9347V19.8987H21.8424V18.9347C21.8438 18.6856 21.7457 18.4483 21.5699 18.2725C21.3941 18.0982 21.1567 18 20.9091 18H19.8397C19.324 18 18.905 18.419 18.905 18.9347V19.8987H15.676C14.7516 19.9001 14.0015 20.6502 14 21.5747V39.87C14.0015 40.7944 14.7516 41.5445 15.676 41.546H37.7C38.6332 43.5399 40.5173 44.92 42.6987 45.2086C44.8816 45.4972 47.0601 44.6533 48.4797 42.9715C49.8978 41.2881 50.3622 38.9982 49.7103 36.896C49.0569 34.7952 47.3796 33.1688 45.2567 32.5857ZM38.5396 19.1249H39.2223V21.9114H38.5396V19.1249ZM20.0302 19.1249H20.7158V21.9114H20.0302V19.1249ZM15.6763 21.0236H18.9052V22.1033C18.9081 22.6175 19.3242 23.0351 19.8399 23.0365H20.9094C21.157 23.0365 21.3943 22.9384 21.5687 22.764C21.7445 22.5882 21.8426 22.3509 21.8426 22.1033V21.0236H37.4147V22.1033C37.4147 22.3509 37.5128 22.5882 37.6886 22.764C37.8629 22.9384 38.1003 23.0365 38.3493 23.0365H39.4188H39.4174C39.9316 23.0351 40.3477 22.6175 40.3477 22.1033V21.0236H43.581C43.7275 21.0236 43.8667 21.0807 43.9707 21.1847C44.0733 21.2873 44.1319 21.4279 44.1319 21.5744V24.4063H15.1256V21.5744C15.1256 21.2697 15.3715 21.0236 15.6763 21.0236ZM37.2915 40.4207H15.6763C15.3715 40.4207 15.1254 40.1731 15.1254 39.8698V25.5317H44.1317V32.391C43.9368 32.3719 43.7566 32.3617 43.5471 32.3617C41.8345 32.3646 40.1937 33.0444 38.9835 34.2545C37.7719 35.4646 37.0892 37.104 37.0848 38.8151C37.0848 39.0144 37.0848 39.2121 37.1185 39.4114V39.5271C37.1361 39.7014 37.1625 39.8787 37.1977 40.056L37.2533 40.267C37.2533 40.3124 37.2797 40.365 37.2915 40.4207ZM43.5473 44.1712C41.3292 44.1668 39.3441 42.7926 38.5618 40.7167C38.5134 40.5848 38.468 40.4573 38.427 40.3416C38.427 40.3152 38.427 40.2859 38.405 40.2552C38.3713 40.1233 38.3376 39.9929 38.3112 39.8801C38.2849 39.7673 38.2849 39.7146 38.2731 39.6325C38.2614 39.5505 38.2468 39.4714 38.2394 39.3923V39.3937C38.2219 39.2179 38.2131 39.0436 38.2131 38.8678C38.1999 37.4438 38.7551 36.0725 39.7558 35.0588C40.7579 34.045 42.1218 33.4736 43.5471 33.4707C43.7215 33.4722 43.8973 33.481 44.0716 33.5015C44.243 33.5176 44.4129 33.5425 44.5814 33.5762C47.2786 34.1095 49.1319 36.6029 48.8622 39.3396C48.5926 42.0762 46.2882 44.1597 43.5399 44.1567L43.5473 44.1712Z" fill="white"/>
<defs>
<linearGradient id="paint0_linear_189_24391" x1="64" y1="7.62939e-06" x2="7.62939e-06" y2="64" gradientUnits="userSpaceOnUse">
<stop stop-color="#F65A75"/>
<stop offset="1" stop-color="#48179C"/>
</linearGradient>
</defs>
</svg>
