<svg width="64" height="64" viewBox="0 0 64 64" fill="none" xmlns="http://www.w3.org/2000/svg">
<rect width="64" height="64" rx="32" fill="url(#paint0_linear_189_24188)"/>
<path fill-rule="evenodd" clip-rule="evenodd" d="M14 20.6712C14 18.23 15.98 16.25 18.4213 16.25H24.737C27.1782 16.25 29.1582 18.23 29.1582 20.6712V21.9335C29.1582 24.377 27.1782 26.3548 24.737 26.3548H18.4213C17.2487 26.3548 16.1241 25.8889 15.295 25.0598C14.4658 24.2307 14 23.1061 14 21.9335V20.6712ZM18.4213 20.0412C18.3385 20.0412 18.2566 20.0575 18.1802 20.0892C18.1037 20.1209 18.0343 20.1673 17.9758 20.2258C17.9173 20.2843 17.8709 20.3537 17.8392 20.4302C17.8075 20.5066 17.7912 20.5885 17.7912 20.6712V21.9335C17.791 22.0164 17.807 22.0986 17.8386 22.1753C17.8701 22.252 17.9164 22.3217 17.975 22.3804C18.0335 22.4392 18.1031 22.4858 18.1796 22.5176C18.2562 22.5494 18.3383 22.5658 18.4213 22.5657H24.737C24.8197 22.5657 24.9017 22.5495 24.9781 22.5178C25.0545 22.4861 25.124 22.4397 25.1825 22.3812C25.241 22.3227 25.2874 22.2533 25.319 22.1768C25.3507 22.1004 25.367 22.0185 25.367 21.9357V20.6712C25.367 20.5885 25.3507 20.5066 25.319 20.4302C25.2874 20.3537 25.241 20.2843 25.1825 20.2258C25.124 20.1673 25.0545 20.1209 24.9781 20.0892C24.9017 20.0575 24.8197 20.0412 24.737 20.0412H18.4213ZM32.315 21.3035C32.315 20.2573 33.1633 19.409 34.2095 19.409H48.1055C48.608 19.409 49.0898 19.6086 49.4451 19.9639C49.8004 20.3192 50 20.801 50 21.3035C50 21.806 49.8004 22.2878 49.4451 22.6431C49.0898 22.9984 48.608 23.198 48.1055 23.198H34.2095C33.9605 23.1986 33.7139 23.15 33.4838 23.055C33.2537 22.96 33.0446 22.8205 32.8686 22.6444C32.6925 22.4684 32.553 22.2593 32.458 22.0292C32.363 21.7991 32.3144 21.5525 32.315 21.3035ZM14.63 32.6705C14.63 31.6243 15.4805 30.776 16.5268 30.776H40.5275C40.7763 30.776 41.0226 30.825 41.2525 30.9202C41.4823 31.0154 41.6912 31.155 41.8671 31.3309C42.043 31.5068 42.1826 31.7157 42.2778 31.9455C42.373 32.1754 42.422 32.4217 42.422 32.6705C42.422 32.9193 42.373 33.1656 42.2778 33.3955C42.1826 33.6253 42.043 33.8342 41.8671 34.0101C41.6912 34.186 41.4823 34.3256 41.2525 34.4208C41.0226 34.516 40.7763 34.565 40.5275 34.565H16.5268C16.2778 34.5656 16.0312 34.517 15.8011 34.422C15.5709 34.327 15.3619 34.1875 15.1858 34.0114C15.0098 33.8354 14.8702 33.6263 14.7753 33.3962C14.6803 33.1661 14.6294 32.9195 14.63 32.6705ZM14.63 44.0375C14.63 42.9935 15.4805 42.1452 16.5268 42.1452H46.8433C47.092 42.1452 47.3384 42.1943 47.5682 42.2895C47.7981 42.3847 48.0069 42.5242 48.1829 42.7001C48.3588 42.8761 48.4983 43.0849 48.5935 43.3148C48.6887 43.5446 48.7378 43.791 48.7378 44.0397C48.7378 44.2885 48.6887 44.5349 48.5935 44.7647C48.4983 44.9946 48.3588 45.2034 48.1829 45.3794C48.0069 45.5553 47.7981 45.6948 47.5682 45.79C47.3384 45.8852 47.092 45.9342 46.8433 45.9342H16.5268C16.2778 45.9348 16.0312 45.8862 15.8011 45.7912C15.5709 45.6963 15.3619 45.5567 15.1858 45.3807C15.0098 45.2046 14.8702 44.9956 14.7753 44.7654C14.6803 44.5353 14.6317 44.2887 14.6322 44.0397" fill="white"/>
<path d="M47.4736 34.565C47.7224 34.565 47.9687 34.516 48.1986 34.4208C48.4284 34.3256 48.6373 34.186 48.8132 34.0101C48.9891 33.8342 49.1287 33.6253 49.2239 33.3955C49.3191 33.1656 49.3681 32.9193 49.3681 32.6705C49.3681 32.4217 49.3191 32.1754 49.2239 31.9455C49.1287 31.7157 48.9891 31.5068 48.8132 31.3309C48.6373 31.155 48.4284 31.0154 48.1986 30.9202C47.9687 30.825 47.7224 30.776 47.4736 30.776C46.9711 30.776 46.4893 30.9756 46.134 31.3309C45.7787 31.6862 45.5791 32.168 45.5791 32.6705C45.5791 33.173 45.7787 33.6548 46.134 34.0101C46.4893 34.3654 46.9711 34.565 47.4736 34.565Z" fill="white"/>
<defs>
<linearGradient id="paint0_linear_189_24188" x1="64" y1="7.62939e-06" x2="7.62939e-06" y2="64" gradientUnits="userSpaceOnUse">
<stop stop-color="#F65A75"/>
<stop offset="1" stop-color="#48179C"/>
</linearGradient>
</defs>
</svg>
