<svg width="64" height="64" viewBox="0 0 64 64" fill="none" xmlns="http://www.w3.org/2000/svg">
<rect width="64" height="64" rx="32" fill="url(#paint0_linear_189_24318)"/>
<path d="M28.7451 24.3407C29.7648 25.3603 30.4528 26.647 30.7362 28.0615C30.8558 28.6613 31.3877 29.0968 31.9997 29.0968C32.6117 29.0968 33.1435 28.6613 33.2637 28.0603L33.6162 26.2963C33.64 26.1773 33.8432 26.1779 33.867 26.2958L34.2195 28.0609C34.3397 28.6613 34.8715 29.0968 35.4835 29.0968C36.0955 29.0968 36.6274 28.6613 36.7476 28.0609C37.0304 26.6465 37.719 25.3603 38.7386 24.3401L38.9964 24.0823C39.7269 23.3525 40.1287 22.3816 40.1287 21.3487C40.1287 19.2177 38.3949 17.4839 36.2633 17.4839H35.8238L35.3134 17.9943C34.8994 18.4077 34.3269 18.6452 33.7416 18.6452C33.1563 18.6452 32.5838 18.4077 32.1698 17.9943L31.6594 17.4839H31.2198C29.0883 17.4839 27.3545 19.2177 27.3545 21.3492C27.3545 22.3822 27.7563 23.353 28.4868 24.0823L28.7451 24.3407ZM31.1786 18.6452L31.3487 18.8147C31.9787 19.4453 32.8509 19.8065 33.7416 19.8065C34.6323 19.8065 35.5044 19.4453 36.1344 18.8153L36.3046 18.6452C37.7765 18.6678 38.9674 19.8721 38.9674 21.3492C38.9674 22.0721 38.6864 22.7509 38.1754 23.2613L37.9176 23.5191C36.7354 24.7019 35.937 26.193 35.6089 27.8321C35.5851 27.9512 35.3819 27.9506 35.3581 27.8327L35.0057 26.0676C34.8855 25.4678 34.3536 25.0323 33.7416 25.0323C33.1296 25.0323 32.5977 25.4678 32.4775 26.0687L32.1251 27.8327C32.1013 27.9518 31.898 27.9518 31.8742 27.8327C31.5468 26.1936 30.7484 24.7019 29.5656 23.5197L29.3078 23.2607C28.7968 22.7503 28.5158 22.0716 28.5158 21.3492C28.5158 19.8721 29.7067 18.6678 31.1786 18.6452Z" fill="white"/>
<path d="M48.8544 35.8044C48.4979 35.5948 48.0908 35.4839 47.678 35.4839C46.8593 35.4839 46.0923 35.9223 45.6754 36.6289L44.6261 38.4126C44.3439 37.292 43.671 36.327 42.7025 35.6819C42.5666 35.5913 42.4226 35.5175 42.2792 35.4426C43.4265 34.7238 44.1935 33.4516 44.1935 32C44.1935 29.9399 42.6514 28.2368 40.6615 27.9744C41.8181 26.467 42.4516 24.6444 42.4516 22.7097C42.4516 17.9072 38.5445 14 33.7419 14C28.9394 14 25.0323 17.9072 25.0323 22.7097C25.0323 23.1585 25.0706 23.6068 25.1403 24.0515C24.7361 23.9366 24.3117 23.871 23.871 23.871C21.3097 23.871 19.2258 25.9549 19.2258 28.5161C19.2258 30.1611 20.0875 31.6052 21.3806 32.4308C18.4402 33.4632 16.3226 36.2596 16.3226 39.5484V44.1935C16.3226 44.6186 16.4457 45.0117 16.6454 45.3548H16.3226C15.0417 45.3548 14 46.3965 14 47.6774C14 48.9583 15.0417 50 16.3226 50H38.8824C41.5458 50 44.0385 48.5739 45.3891 46.2786L49.6806 38.9823C50.3281 37.8779 49.9576 36.4518 48.8544 35.8044ZM43.5438 38.8655C43.6297 39.2935 43.6355 39.7261 43.5577 40.1743L43.5485 40.2446L41.3844 43.9235C40.8659 44.8067 39.9061 45.3548 38.8824 45.3548H33.7419C33.2617 45.3548 32.871 44.9641 32.871 44.4839C32.871 44.0037 33.2617 43.6129 33.7419 43.6129H38.1461C38.8557 43.6129 39.5228 43.2349 39.8886 42.6264L41.2073 40.4281L40.2115 39.8306L38.8928 42.0289C38.7366 42.2896 38.4498 42.4516 38.1461 42.4516H34.0055L37.2293 37.6154C37.8744 36.6446 38.9579 36.0645 40.1273 36.0645C40.8165 36.0645 41.4843 36.2666 42.0585 36.6492C42.8331 37.1648 43.3609 37.9516 43.5438 38.8655ZM28.3919 29.5677C29.9161 30.7632 31.7747 31.4194 33.7419 31.4194C34.5746 31.4194 35.3886 31.2875 36.1806 31.0535C36.1075 31.3578 36.0645 31.6737 36.0645 32C36.0645 33.4464 36.8263 34.7157 37.9679 35.4363C37.2903 35.7922 36.7003 36.3136 36.2625 36.9721L32.997 41.871H32.7566L31.4194 40.9797V39.5484C31.4194 36.2596 29.3017 33.4632 26.3614 32.4308C27.3699 31.7869 28.1126 30.7667 28.3919 29.5677ZM30.6628 41.871H20.9672L22.7585 40.5279C23.601 39.8962 24.6444 39.5484 25.6971 39.5484C26.6668 39.5484 27.6057 39.8329 28.4128 40.3706L30.6628 41.871ZM43.0323 32C43.0323 33.6008 41.7299 34.9032 40.129 34.9032C38.5282 34.9032 37.2258 33.6008 37.2258 32C37.2258 30.3992 38.5282 29.0968 40.129 29.0968C41.7299 29.0968 43.0323 30.3992 43.0323 32ZM26.1935 22.7097C26.1935 18.5476 29.5799 15.1613 33.7419 15.1613C37.904 15.1613 41.2903 18.5476 41.2903 22.7097C41.2903 24.7553 40.4792 26.6604 39.0125 28.0952C38.1548 28.3408 37.4145 28.8616 36.8896 29.5555C35.8886 30.0183 34.8312 30.2581 33.7419 30.2581C31.7654 30.2581 29.9137 29.4968 28.4964 28.1219C28.3745 26.6813 27.5952 25.4254 26.4572 24.6595C26.2853 24.0196 26.1935 23.3652 26.1935 22.7097ZM20.3871 28.5161C20.3871 26.5948 21.9496 25.0323 23.871 25.0323C25.7923 25.0323 27.3548 26.5948 27.3548 28.5161C27.3548 30.4375 25.7923 32 23.871 32C21.9496 32 20.3871 30.4375 20.3871 28.5161ZM23.871 33.1613C27.3926 33.1613 30.2581 36.0268 30.2581 39.5484V40.2057L29.0567 39.4044C28.0586 38.739 26.8967 38.3871 25.6971 38.3871C24.3953 38.3871 23.1039 38.8174 22.0623 39.5983L19.0325 41.871H18.6452C18.2201 41.871 17.827 41.9941 17.4839 42.1938V39.5484C17.4839 36.0268 20.3494 33.1613 23.871 33.1613ZM17.4839 44.1935C17.4839 43.5531 18.0047 43.0323 18.6452 43.0323H32.324C31.946 43.4015 31.7097 43.9148 31.7097 44.4839C31.7097 44.7968 31.7869 45.0901 31.9135 45.3548H18.6423C18.0035 45.3531 17.4839 44.8328 17.4839 44.1935ZM48.679 38.3941L44.3875 45.6899C43.2448 47.6321 41.1353 48.8387 38.8824 48.8387H16.3226C15.6821 48.8387 15.1613 48.3179 15.1613 47.6774C15.1613 47.037 15.6821 46.5161 16.3226 46.5161H18.6423C18.6434 46.5161 18.644 46.5161 18.6452 46.5161H31.4194H33.7419H38.8824H38.9405V46.5121C40.3526 46.4917 41.6689 45.7311 42.3866 44.5123L46.677 37.2183C46.9894 36.6864 47.732 36.4925 48.2674 36.806C48.8178 37.1294 49.0024 37.8425 48.679 38.3941Z" fill="white"/>
<defs>
<linearGradient id="paint0_linear_189_24318" x1="64" y1="7.62939e-06" x2="7.62939e-06" y2="64" gradientUnits="userSpaceOnUse">
<stop stop-color="#F65A75"/>
<stop offset="1" stop-color="#48179C"/>
</linearGradient>
</defs>
</svg>
