<svg width="64" height="64" viewBox="0 0 64 64" fill="none" xmlns="http://www.w3.org/2000/svg">
<rect width="64" height="64" rx="32" fill="url(#paint0_linear_189_24339)"/>
<path fill-rule="evenodd" clip-rule="evenodd" d="M32.0015 28.1901C33.328 28.1901 34.5294 28.7276 35.3981 29.5978C36.2684 30.468 36.8058 31.6679 36.8058 32.9944C36.8058 34.2021 36.359 35.3066 35.6231 36.1519C36.5746 36.6128 37.4276 37.2502 38.1385 38.0189C38.4338 37.6986 38.7588 37.4065 39.1088 37.1471C39.4119 36.9221 39.7353 36.7222 40.0743 36.5503C39.5166 35.866 39.1838 34.9926 39.1838 34.0411C39.1838 32.9428 39.629 31.9491 40.3477 31.2289C41.068 30.5086 42.0617 30.0649 43.16 30.0649C44.2583 30.0649 45.252 30.5102 45.9722 31.2289C46.6925 31.9492 47.1362 32.9428 47.1362 34.0411C47.1362 34.9926 46.8019 35.866 46.2456 36.5503C47.2518 37.0627 48.1142 37.8158 48.7579 38.7314C49.5391 39.8437 50 41.1952 50 42.6498V42.9419C50 43.6153 49.7938 44.2418 49.4282 44.7574C49.0626 45.2715 48.5392 45.6714 47.9017 45.8933C46.5081 46.3791 45.0567 46.6448 43.5973 46.6901C42.2693 46.7307 40.9382 46.5885 39.643 46.262C39.2071 46.8573 38.5899 47.3213 37.8431 47.5822C35.9495 48.2431 33.9731 48.5743 32 48.5743C30.0269 48.5743 28.0519 48.2446 26.1569 47.5822C25.4101 47.3213 24.7929 46.8588 24.357 46.262C23.0618 46.5885 21.7307 46.7307 20.4027 46.6901C18.945 46.6463 17.492 46.3807 16.0983 45.8933C15.4608 45.6714 14.9374 45.2714 14.5718 44.7574C14.2062 44.2418 14 43.6153 14 42.9419V42.6498C14 41.1968 14.4593 39.8438 15.2421 38.7314C15.8858 37.8158 16.7498 37.0612 17.7544 36.5503C17.1966 35.866 16.8638 34.9926 16.8638 34.0411C16.8638 32.9428 17.3091 31.9491 18.0278 31.2289C18.748 30.5086 19.7417 30.0649 20.84 30.0649C21.9383 30.0649 22.932 30.5102 23.6523 31.2289C24.3725 31.9492 24.8162 32.9428 24.8162 34.0411C24.8162 34.9926 24.4819 35.866 23.9257 36.5503C24.2647 36.7222 24.5865 36.9221 24.8912 37.1471C25.2412 37.4049 25.5662 37.6971 25.8615 38.0189C26.5723 37.2502 27.4238 36.6128 28.3769 36.1519C27.6394 35.3082 27.1942 34.2036 27.1942 32.9944C27.1942 31.6679 27.7317 30.4664 28.6019 29.5978C29.4721 28.7275 30.672 28.1901 31.9985 28.1901H32.0015ZM20.8433 27.3839L22.8181 28.5323C22.9353 28.6088 23.0837 28.6416 23.2321 28.6088C23.5259 28.5448 23.7133 28.2557 23.6493 27.962L23.1618 25.6997L24.8648 24.1748C24.9726 24.0858 25.0476 23.9561 25.0617 23.8061C25.0913 23.5077 24.8726 23.2405 24.5742 23.2124L22.2759 22.978L21.3417 20.8626C21.2885 20.7423 21.1932 20.6407 21.062 20.5829C20.787 20.461 20.4652 20.586 20.3433 20.8626L19.409 22.978L17.1108 23.2124V23.214C16.9795 23.2265 16.853 23.2874 16.7592 23.3921C16.5592 23.6155 16.578 23.9592 16.8014 24.1592L18.5231 25.6997L18.0357 27.962H18.0372C18.0091 28.0901 18.0279 28.2276 18.0982 28.3495C18.2497 28.6088 18.5825 28.6979 18.8419 28.5479L20.8417 27.3855L20.8433 27.3839ZM19.3637 26.9855L19.6574 25.6215C19.7027 25.4075 19.6168 25.1966 19.4543 25.0716L18.4466 24.1685L19.8356 24.0264C20.0387 24.0061 20.2043 23.8779 20.2793 23.7045H20.2809L20.8433 22.4296L21.4057 23.7061C21.4917 23.9029 21.6807 24.0232 21.8822 24.0311L23.2399 24.1701L22.1978 25.1013C22.0463 25.2356 21.99 25.4356 22.0291 25.6215H22.0275L22.3212 26.9855L21.1135 26.284C20.9354 26.1809 20.7245 26.1903 20.5605 26.2887L19.3606 26.9855L19.3637 26.9855ZM43.1585 27.3839L45.1333 28.5323C45.2505 28.6088 45.3989 28.6416 45.5474 28.6088C45.8411 28.5448 46.0286 28.2557 45.9645 27.962L45.4771 25.6997L47.18 24.1748C47.2878 24.0858 47.3628 23.9561 47.3769 23.8061C47.4066 23.5077 47.1879 23.2405 46.8894 23.2124L44.5912 22.978L43.6569 20.8626C43.6038 20.7423 43.5085 20.6407 43.3772 20.5829C43.1023 20.461 42.7804 20.586 42.6585 20.8626L41.7242 22.978L39.426 23.2124V23.214C39.2948 23.2265 39.1682 23.2874 39.0745 23.3921C38.8745 23.6155 38.8932 23.9592 39.1167 24.1592L40.8384 25.6997L40.3509 27.962H40.3525C40.3243 28.0901 40.3431 28.2276 40.4134 28.3495C40.565 28.6088 40.8977 28.6979 41.1571 28.5479L43.1569 27.3855L43.1585 27.3839ZM41.6789 26.9855L41.9727 25.6215C42.018 25.4075 41.9321 25.1966 41.7696 25.0716L40.7618 24.1685L42.1508 24.0264C42.3539 24.0061 42.5195 23.8779 42.5945 23.7045H42.5961L43.1585 22.4296L43.721 23.7061C43.8069 23.9029 43.9959 24.0232 44.1975 24.0311L45.5552 24.1701L44.5131 25.1013C44.3615 25.2356 44.3053 25.4356 44.3443 25.6215H44.3428L44.6365 26.9855L43.4288 26.284C43.2507 26.1809 43.0398 26.1903 42.8757 26.2887L41.6758 26.9855L41.6789 26.9855ZM32.0018 24.6357L29.2863 26.2153C29.027 26.3668 28.6942 26.2777 28.5427 26.0168C28.4723 25.895 28.4536 25.7575 28.4817 25.6294H28.4802L29.1426 22.5577L26.8037 20.4642C26.5803 20.2642 26.5615 19.9204 26.7615 19.697C26.8553 19.5908 26.9818 19.5314 27.1131 19.5189V19.5174L30.2347 19.1986L31.5033 16.3254C31.6252 16.0505 31.9455 15.9255 32.222 16.0458C32.3517 16.1036 32.4486 16.2051 32.5017 16.3254L33.7703 19.1986L36.892 19.5174C37.1904 19.547 37.4091 19.8126 37.3794 20.1111C37.3654 20.2611 37.2904 20.3907 37.1826 20.4798L34.8624 22.5562L35.5249 25.6278C35.5889 25.9215 35.4014 26.2121 35.1077 26.2746C34.9593 26.3059 34.8124 26.2746 34.6937 26.1981L32.0032 24.6341L32.0018 24.6357ZM29.8066 24.6545L31.7221 23.5405C31.8862 23.442 32.0971 23.4327 32.2752 23.5358L34.1985 24.6544L33.7297 22.4812H33.7313C33.6922 22.2968 33.75 22.0968 33.9 21.9609L35.5593 20.4767L33.3782 20.2548C33.1767 20.247 32.9876 20.1267 32.9017 19.9298L32.0033 17.8957L31.105 19.9298H31.1034C31.0268 20.1033 30.8612 20.2314 30.6597 20.2517L28.4474 20.4767L30.0722 21.9312C30.2363 22.0547 30.3222 22.2671 30.2753 22.4812L29.8066 24.6545ZM23.8431 45.2683C23.7135 44.8824 23.6431 44.4715 23.6431 44.0434V43.6809C23.6431 41.9045 24.2056 40.2531 25.1602 38.8938L25.1727 38.875C24.8962 38.5594 24.5852 38.2735 24.2462 38.022C23.8806 37.7517 23.4822 37.5251 23.0588 37.3455C22.4261 37.7704 21.6636 38.0188 20.8434 38.0188C20.0231 38.0188 19.2607 37.7704 18.6279 37.3455C17.6218 37.7689 16.7577 38.4735 16.1344 39.3594C15.4782 40.2921 15.0922 41.4279 15.0922 42.6513V42.9434C15.0922 43.3887 15.2235 43.7965 15.4594 44.1293C15.6969 44.4636 16.039 44.723 16.4578 44.8698C17.7483 45.3198 19.0888 45.5651 20.434 45.6073C21.5745 45.6417 22.7197 45.5307 23.8415 45.2698L23.8431 45.2683ZM25.0649 45.3511C25.0712 45.3621 25.079 45.3746 25.0852 45.3871C25.1258 45.4574 25.1696 45.5261 25.2165 45.5917C25.5258 46.0276 25.9726 46.3667 26.5179 46.5573C28.2896 47.176 30.1442 47.4853 32.0034 47.4853C33.8611 47.4853 35.7172 47.176 37.489 46.5573C38.0343 46.3667 38.4811 46.0276 38.7904 45.5917C38.8373 45.5261 38.881 45.4574 38.9201 45.3871C38.9264 45.3746 38.9326 45.3636 38.9404 45.3511C39.1529 44.9668 39.2701 44.5215 39.2701 44.0434V43.681C39.2701 42.1358 38.7826 40.7 37.953 39.5205C37.1531 38.3815 36.0375 37.4816 34.7361 36.9488C33.9596 37.4863 33.0174 37.8019 32.0019 37.8019C30.9864 37.8019 30.0443 37.4863 29.2678 36.9488C27.9663 37.4816 26.8508 38.3831 26.0509 39.5205C25.2213 40.7001 24.7338 42.1359 24.7338 43.681V44.0434C24.7338 44.5215 24.851 44.9668 25.0634 45.3511H25.0649ZM22.8854 32.0022C22.3636 31.4804 21.6418 31.157 20.8449 31.157C20.0481 31.157 19.3263 31.4804 18.8045 32.0022C18.2826 32.5241 17.9592 33.2459 17.9592 34.0427C17.9592 34.8395 18.2826 35.5613 18.8045 36.0832C19.3263 36.605 20.0481 36.9284 20.8449 36.9284C21.6418 36.9284 22.3636 36.605 22.8854 36.0832C23.4072 35.5613 23.7307 34.8395 23.7307 34.0427C23.7307 33.2459 23.4073 32.5241 22.8854 32.0022ZM38.8309 38.8753L38.8434 38.894C39.798 40.2533 40.3604 41.9047 40.3604 43.6812V44.0437C40.3604 44.4718 40.2917 44.8842 40.1605 45.2686C41.2807 45.5279 42.4259 45.6404 43.568 45.606C44.9132 45.5654 46.2537 45.3186 47.5442 44.8686C47.9629 44.7233 48.305 44.4624 48.5425 44.128C48.7785 43.7968 48.9097 43.3874 48.9097 42.9422V42.65C48.9097 41.4267 48.5238 40.2924 47.8676 39.3581C47.2458 38.4723 46.3818 37.7692 45.374 37.3442C44.7413 37.7692 43.9788 38.0176 43.1586 38.0176C42.3383 38.0176 41.5759 37.7692 40.9431 37.3442C40.5197 37.5223 40.1213 37.7504 39.7557 38.0207C39.4167 38.2722 39.1058 38.5582 38.8292 38.8737L38.8309 38.8753ZM45.2007 32.0022C44.6789 31.4804 43.9571 31.157 43.1603 31.157C42.3634 31.157 41.6416 31.4804 41.1198 32.0022C40.598 32.5241 40.2745 33.2459 40.2745 34.0427C40.2745 34.8395 40.598 35.5613 41.1198 36.0832C41.6416 36.605 42.3634 36.9284 43.1603 36.9284C43.9571 36.9284 44.6789 36.605 45.2007 36.0832C45.7226 35.5613 46.046 34.8395 46.046 34.0427C46.046 33.2459 45.7226 32.5241 45.2007 32.0022ZM34.628 30.3711C33.9562 29.6993 33.0282 29.2837 32.0017 29.2837C30.9768 29.2837 30.0472 29.6993 29.3753 30.3711C28.7035 31.043 28.2879 31.971 28.2879 32.9975C28.2879 34.0224 28.7035 34.952 29.3753 35.6238C30.0472 36.2956 30.9752 36.7112 32.0017 36.7112C33.0266 36.7112 33.9562 36.2956 34.628 35.6238C35.2998 34.952 35.7154 34.024 35.7154 32.9975C35.7154 31.9726 35.2998 31.043 34.628 30.3711Z" fill="white"/>
<defs>
<linearGradient id="paint0_linear_189_24339" x1="64" y1="7.62939e-06" x2="7.62939e-06" y2="64" gradientUnits="userSpaceOnUse">
<stop stop-color="#F65A75"/>
<stop offset="1" stop-color="#48179C"/>
</linearGradient>
</defs>
</svg>
