<svg width="64" height="64" viewBox="0 0 64 64" fill="none" xmlns="http://www.w3.org/2000/svg">
<rect width="64" height="64" rx="32" fill="url(#paint0_linear_189_24401)"/>
<path d="M29.0116 25.1381V32.1532C29.0116 32.3631 29.1815 32.533 29.3914 32.533C31.9967 32.533 39.0557 32.5324 41.7537 32.5326C41.7552 32.5337 45.8785 32.5326 45.8804 32.533C46.0903 32.533 46.2601 32.3631 46.2601 32.1532V25.1381C46.2601 24.9282 46.0903 24.7584 45.8804 24.7584H42.1353V21.6972C42.1353 21.4873 41.9654 21.3174 41.7555 21.3174H39.3382V18.9598C39.3382 18.7498 39.1683 18.58 38.9584 18.58H36.3145C36.1045 18.58 35.9347 18.7498 35.9347 18.9598V21.3174H33.5173C33.3074 21.3174 33.1376 21.4873 33.1376 21.6972V24.7584H29.3914C29.1815 24.7584 29.0116 24.9282 29.0116 25.1381ZM42.1353 25.5179H45.5006V31.7734H42.1353V25.5179ZM37.2568 31.773H35.4574V28.2264H37.2568V31.773ZM39.8125 31.773H38.0164V28.2264H39.8125V31.773ZM36.6942 19.3395H38.5786V21.3174H36.6942V19.3395ZM33.8971 22.0769H41.3757V31.773H40.5721V27.8466C40.5721 27.6367 40.4022 27.4668 40.1923 27.4668H35.0776C34.8677 27.4668 34.6978 27.6367 34.6978 27.8466V31.773H33.8971V22.0769ZM29.7711 25.5179H33.1364V31.7734H29.7711V25.5179ZM44.253 26.2867H44.8861V27.0463H44.253V26.2867ZM42.7495 26.2867H43.3829V27.0463H42.7495V26.2867ZM44.253 27.7354H44.8861V28.4949H44.253V27.7354ZM42.7495 27.7354H43.3829V28.4949H42.7495V27.7354ZM44.253 29.1844H44.8861V29.9439H44.253V29.1844ZM42.7495 29.1844H43.3829V29.9439H42.7495V29.1844ZM31.8888 26.2867H32.5219V27.0463H31.8888V26.2867ZM30.3853 26.2867H31.0184V27.0463H30.3853V26.2867ZM31.8888 27.7354H32.5219V28.4949H31.8888V27.7354ZM30.3853 27.7354H31.0184V28.4949H30.3853V27.7354ZM31.8888 29.1844H32.5219V29.9439H31.8888V29.1844ZM30.3853 29.1844H31.0184V29.9439H30.3853V29.1844ZM37.2157 23.6884H36.5822V22.9288H37.2157V23.6884ZM35.7122 23.6884H35.0791V22.9288H35.7122V23.6884ZM37.2157 25.137H36.5822V24.3775H37.2157V25.137ZM35.7122 25.137H35.0791V24.3775H35.7122V25.137ZM37.2157 26.586H36.5822V25.8265H37.2157V26.586ZM35.7122 26.586H35.0791V25.8265H35.7122V26.586ZM40.1927 23.6884H39.5596V22.9288H40.1927V23.6884ZM38.6891 23.6884H38.0561V22.9288H38.6891V23.6884ZM40.1927 25.137H39.5596V24.3775H40.1927V25.137ZM38.6891 25.137H38.0561V24.3775H38.6891V25.137ZM40.1927 26.586H39.5596V25.8265H40.1927V26.586ZM38.6891 26.586H38.0561V25.8265H38.6891V26.586ZM38.0164 19.9489H38.2953V20.7084H38.0164V21.0378H37.2568V20.7084H36.9776V19.9489H37.2568V19.6192H38.0164V19.9489ZM48.1543 15H17.0964C16.0786 15 15.2507 15.8279 15.2507 16.8495V25.2501C13.565 27.5554 13.6013 31.0134 15.2507 33.2747V35.9749C15.2507 36.9927 16.0786 37.8206 17.0964 37.8206H18.7408L18.6497 38.5004C18.0585 38.3454 17.4261 38.6981 17.3471 39.3321C17.2957 39.6938 16.8806 42.8825 16.8458 43.1412C16.8458 43.1412 16.3179 47.1288 16.3179 47.1288C16.2457 47.6681 16.6293 48.1656 17.1724 48.2378L19.8118 48.5872C20.3442 48.6583 20.8602 48.282 20.9283 47.7365C20.9283 47.7365 21.3233 44.7325 21.3233 44.7325C21.3882 44.2263 21.8795 40.5362 21.9575 39.9397C22.0458 39.3105 21.5261 38.8072 20.9131 38.7966L21.0423 37.8206H29.6023V39.6967H27.225C26.3667 39.6967 25.6679 40.3955 25.6679 41.25V41.9449C25.6679 42.1538 25.8388 42.3247 26.0477 42.3247H39.1992C39.4119 42.3247 39.579 42.1538 39.579 41.9449V41.25C39.579 40.3955 38.884 39.6967 38.0257 39.6967H35.6483V37.8206H48.1543C49.1721 37.8206 50 36.9927 50 35.9749V16.8495C50 15.8279 49.1721 15 48.1543 15ZM17.0964 37.061C16.4964 37.061 16.0103 36.5749 16.0103 35.9749V34.2089C16.5694 34.752 17.1905 35.2579 17.9039 35.5837C17.9857 35.622 18.9802 36.0009 18.9801 36.0015C18.9801 36.0015 18.8396 37.061 18.8396 37.061H17.0964ZM20.1764 47.6377C20.1574 47.7631 20.0397 47.8504 19.9143 47.8352L17.2711 47.4858C17.1458 47.4706 17.0546 47.3529 17.0698 47.2276L17.4192 44.5996L20.522 45.0097L20.1764 47.6377ZM20.6777 43.8438L20.6207 44.2578L17.5179 43.8476C17.5415 43.6734 17.5966 43.2618 17.6167 43.0918L20.7232 43.4982L20.6777 43.8438ZM21.0043 39.5751C21.1296 39.5941 21.2207 39.7119 21.2056 39.841L20.822 42.7463L17.7154 42.3361L18.099 39.4308C18.1155 39.3003 18.2364 39.2142 18.3611 39.2258C18.3611 39.2258 21.0043 39.5751 21.0043 39.5751ZM19.4016 38.5991C19.4819 38.0049 19.6429 36.7824 19.7206 36.1838C19.9652 36.2278 20.2308 36.2661 20.4764 36.2825C20.3987 36.8794 20.2411 38.0973 20.1612 38.6979L19.4016 38.5991ZM19.2041 35.2609C16.2989 34.4178 14.4076 31.4366 14.7988 28.4478C15.542 23.0052 22.6427 21.024 25.9983 25.4514C29.697 30.2732 24.9482 36.8576 19.2041 35.2609ZM26.5984 24.988C24.5684 22.2264 20.4536 21.4114 17.5294 23.1727V17.2786H47.7214V33.833H26.3553C28.489 31.4499 28.6213 27.5133 26.5984 24.988ZM38.0257 40.4562C38.4625 40.4562 38.8195 40.8132 38.8195 41.25V41.5651H26.4274V41.25C26.4274 40.8132 26.7844 40.4562 27.225 40.4562H38.0257ZM30.3619 39.6967V37.8206H34.8888V39.6967H30.3619ZM49.2405 35.9749C49.2405 36.5749 48.7505 37.061 48.1543 37.061H21.141L21.2435 36.2977C22.8438 36.2496 24.3966 35.6456 25.6147 34.5925H48.1011C48.31 34.5925 48.4809 34.4216 48.4809 34.2127V16.8989C48.4809 16.69 48.31 16.5191 48.1011 16.5191H17.1496C16.9369 16.5191 16.7698 16.69 16.7698 16.8989C16.7698 16.8989 16.7698 23.6702 16.766 23.6702C16.504 23.8773 16.2464 24.1013 16.0103 24.3348V16.8495C16.0103 16.2494 16.4964 15.7595 17.0964 15.7595H48.1543C48.7505 15.7595 49.2405 16.2494 49.2405 16.8495V35.9749ZM21.6879 24.2285C18.9041 23.8601 16.3445 25.8273 15.9799 28.6073C15.5907 31.3422 17.6076 33.9816 20.3549 34.3077C23.0941 34.7049 25.7249 32.6835 26.0628 29.9365C26.4274 27.1566 24.464 24.5969 21.6879 24.2285ZM25.3071 29.8378C25.0053 32.4885 22.1507 34.2552 19.6409 33.3696C14.7406 31.5764 16.3938 24.4354 21.5854 24.9842C23.9513 25.2957 25.6223 27.4718 25.3071 29.8378ZM21.0195 26.5223C19.9105 26.5223 19.0067 27.4262 19.0067 28.5389C19.0067 29.496 20.4118 31.9379 20.6929 32.4164C20.8289 32.6672 21.2152 32.6652 21.3499 32.4164C21.6309 31.9379 23.0361 29.496 23.0361 28.5389C23.0361 27.4262 22.1322 26.5223 21.0195 26.5223ZM21.0195 31.4556C20.4422 30.4074 19.7662 29.025 19.7662 28.5389C19.7662 27.8477 20.3283 27.2819 21.0195 27.2819C21.7144 27.2819 22.2765 27.8477 22.2765 28.5389C22.2765 29.025 21.6005 30.4074 21.0195 31.4556ZM21.479 28.725C21.4694 29.3273 20.5741 29.331 20.5637 28.725C20.5751 28.1244 21.4686 28.1282 21.479 28.725ZM29.3897 24.0804C29.5264 24.0804 29.6517 24.0082 29.7201 23.8905C30.0011 23.412 31.4063 20.97 31.4063 20.013C31.4063 18.9003 30.5024 17.9964 29.3897 17.9964C28.2807 17.9964 27.3769 18.9003 27.3769 20.013C27.3769 20.97 28.782 23.412 29.0631 23.8905C29.1314 24.0082 29.2568 24.0804 29.3897 24.0804ZM29.3897 18.7559C30.0847 18.7559 30.6467 19.318 30.6467 20.013C30.6467 20.4991 29.9707 21.8815 29.3897 22.9297C28.8124 21.8815 28.1364 20.4991 28.1364 20.013C28.1364 19.318 28.6985 18.7559 29.3897 18.7559ZM29.3897 20.6586C28.7928 20.6482 28.7891 19.7546 29.3897 19.7434C29.9957 19.7538 29.9918 20.6491 29.3897 20.6586Z" fill="white"/>
<defs>
<linearGradient id="paint0_linear_189_24401" x1="64" y1="7.62939e-06" x2="7.62939e-06" y2="64" gradientUnits="userSpaceOnUse">
<stop stop-color="#F65A75"/>
<stop offset="1" stop-color="#48179C"/>
</linearGradient>
</defs>
</svg>
