<svg width="595" height="375" viewBox="0 0 595 375" fill="none" xmlns="http://www.w3.org/2000/svg">
<path d="M483.687 375C566.493 350.535 609.771 264.74 586.289 194.773C567.087 137.56 505.526 97.731 437.237 103.049C400.111 18.7377 304.71 -20.1404 226.69 10.287C159.314 36.5633 116.327 110.068 126.461 187.804C77.3551 173.912 25.3587 198.149 6.42618 249.354C-15.9171 309.785 26.1861 375 87.9902 375L483.687 375Z" fill="white"/>
<path d="M172.249 214.052C213.885 213.257 246.992 178.858 246.197 137.221C245.402 95.5845 211.004 62.4758 169.369 63.2712C127.733 64.0666 94.6253 98.4649 95.4207 140.102C96.2161 181.739 130.613 214.847 172.249 214.052Z" fill="#F16E24"/>
<path d="M171.871 200.912C206.249 200.313 233.632 171.959 233.034 137.581C232.435 103.203 204.082 75.8187 169.705 76.417C135.328 77.0152 107.944 105.369 108.543 139.748C109.141 174.126 137.494 201.51 171.871 200.912Z" fill="#D1EEFF"/>
<path d="M219.911 138.765C219.962 111.64 198.016 89.6086 170.892 89.5571C143.768 89.5055 121.738 111.453 121.687 138.578C121.635 165.703 143.581 187.734 170.705 187.786C197.829 187.837 219.859 165.89 219.911 138.765Z" fill="#F16E24"/>
<path d="M170.801 174.644C190.632 174.644 206.767 158.51 206.767 138.676C206.767 118.842 190.633 102.707 170.801 102.707C150.967 102.707 134.834 118.842 134.834 138.676C134.834 158.51 150.967 174.644 170.801 174.644Z" fill="#D1EEFF"/>
<path d="M170.801 161.498C183.384 161.498 193.622 151.26 193.622 138.675C193.622 126.09 183.384 115.852 170.801 115.852C158.216 115.852 147.98 126.09 147.98 138.675C147.98 151.26 158.216 161.498 170.801 161.498Z" fill="#F16E24"/>
<path d="M171.867 148.299C177.18 147.718 181.016 142.939 180.434 137.627C179.853 132.314 175.075 128.478 169.762 129.06C164.449 129.641 160.613 134.419 161.195 139.732C161.776 145.045 166.555 148.88 171.867 148.299Z" fill="#D1EEFF"/>
<path opacity="0.09" d="M98.5672 138.916C98.5863 138.016 99.1587 137.309 99.8938 137.122L95.3975 129.786L118.657 129.147L122.246 137.208L168.445 137.558C169.35 137.564 170.064 138.416 170.042 139.46C170.028 140.025 169.802 140.53 169.454 140.872C169.16 141.162 168.775 141.338 168.359 141.334L121.926 140.983L118.689 148.204L96.5694 148.103L99.9126 140.757C99.1363 140.606 98.5474 139.856 98.5672 138.916Z" fill="black"/>
<path d="M112.018 86.913L111.952 86.8544L113.043 76.0908L133.71 93.2602L131.125 103.736L121.215 107.651L102.026 90.7865L112.018 86.913Z" fill="#FC4837"/>
<path d="M170.225 140.649C170.753 140.655 171.282 140.446 171.664 140.031C172.369 139.26 172.308 138.077 171.525 137.385L112.499 85.242C111.711 84.5528 110.507 84.6075 109.803 85.3776C109.098 86.148 109.159 87.3317 109.942 88.0231L168.968 140.166C169.327 140.485 169.778 140.644 170.225 140.649Z" fill="#2B74C1"/>
<path d="M155.094 368.571L196.531 283.466L404.563 282.542L440.577 368.571H155.094Z" fill="#D3D3D3"/>
<path d="M437.017 366.678H158.657C156.368 366.678 154.496 368.551 154.496 370.839C154.496 373.127 156.368 374.999 158.657 374.999H437.017C439.305 374.999 441.178 373.127 441.178 370.839C441.178 368.551 439.305 366.678 437.017 366.678Z" fill="#121345"/>
<path d="M196.532 283.466V148.662C196.532 143.146 201.003 138.675 206.518 138.675H387.27C395.931 138.675 405.075 142.743 403.079 153.38L404.563 282.541L196.532 283.466Z" fill="#121345"/>
<path d="M390.984 151.99H208.182V275.144H390.984V151.99Z" fill="#E4EEF8"/>
<path d="M207.76 290.597L188.934 331.534C188.448 332.569 189.203 333.76 190.348 333.76H410.522C411.639 333.76 412.395 332.622 411.961 331.592L394.016 290.655C393.772 290.076 393.205 289.7 392.577 289.7H209.174C208.568 289.699 208.018 290.049 207.76 290.597Z" fill="#121345"/>
<path d="M211.041 294.559C211.465 293.644 212.636 292.896 213.645 292.896H226.69C227.698 292.896 228.2 293.655 227.806 294.583L226.512 297.625C226.118 298.553 224.97 299.313 223.962 299.313H210.674C209.665 299.313 209.187 298.564 209.611 297.649L211.041 294.559Z" fill="white"/>
<path d="M208.863 303.159C207.854 303.159 206.686 303.909 206.266 304.826L204.853 307.909C204.433 308.826 204.915 309.576 205.923 309.576H225.816C226.825 309.576 227.925 308.798 228.262 307.847L229.309 304.887C229.646 303.936 229.096 303.158 228.087 303.158L208.863 303.159Z" fill="white"/>
<path d="M201.175 315.486C201.576 314.561 202.729 313.803 203.737 313.803H229.516C230.524 313.803 231.076 314.582 230.742 315.533L229.703 318.491C229.369 319.442 228.271 320.221 227.262 320.221H200.958C199.949 320.221 199.452 319.463 199.853 318.538L201.175 315.486Z" fill="white"/>
<path d="M196.902 325.689C197.318 324.77 198.483 324.019 199.491 324.019H203.884C204.893 324.019 205.39 324.776 204.989 325.701L203.402 329.368C203.001 330.294 201.849 331.051 200.84 331.051H196.309C195.3 331.051 194.816 330.299 195.232 329.381L196.902 325.689Z" fill="white"/>
<path d="M209.409 325.716C209.791 324.782 210.928 324.019 211.937 324.019H216.396C217.404 324.019 217.956 324.797 217.623 325.749L216.37 329.321C216.037 330.272 214.939 331.051 213.93 331.051H209.062C208.053 331.051 207.54 330.287 207.922 329.354L209.409 325.716Z" fill="white"/>
<path d="M222.25 325.745C222.59 324.795 223.694 324.019 224.702 324.019H229.516C230.524 324.019 231.098 324.804 230.79 325.765L229.655 329.305C229.347 330.265 228.27 331.051 227.261 331.05L222.182 331.048C221.174 331.048 220.627 330.271 220.967 329.322L222.25 325.745Z" fill="white"/>
<path d="M236.212 324.017C235.204 324.019 234.134 324.809 233.834 325.772L232.737 329.301C232.438 330.263 233.018 331.051 234.027 331.051H366.328C367.336 331.051 367.955 330.252 367.702 329.276L366.724 325.492C366.471 324.516 365.4 324.017 364.392 324.019L236.212 324.017Z" fill="white"/>
<path d="M374.017 324.019C373.008 324.019 372.515 324.872 372.78 325.845L373.715 329.282C373.979 330.255 375.021 331.051 376.03 331.051H384.606C385.614 331.051 386.187 330.266 385.878 329.306L384.808 325.984C384.523 324.791 383.239 324.019 382.231 324.019H374.017Z" fill="white"/>
<path d="M365.195 313.804C364.187 313.804 363.585 314.598 363.858 315.569L364.547 318.023C364.82 318.993 365.868 319.807 366.876 319.831L381.591 320.178C382.599 320.201 383.192 319.429 382.908 318.461L382.059 315.563C381.776 314.595 380.719 313.803 379.71 313.803H365.195V313.804Z" fill="white"/>
<path d="M388.884 325.45C388.554 324.497 389.166 324.019 390.174 324.019H404.232C405.24 324.019 406.422 324.468 406.84 325.385L408.908 329.923C409.326 330.841 408.487 331.079 407.479 331.051L392.652 331.103C391.644 331.075 390.55 330.271 390.221 329.318L388.884 325.45Z" fill="white"/>
<path d="M237.377 320.221C236.369 320.221 235.787 319.432 236.084 318.469L236.983 315.556C237.281 314.592 238.349 313.803 239.358 313.803H246.784C247.793 313.803 248.41 314.602 248.156 315.578L247.411 318.446C247.157 319.422 246.125 320.221 245.117 320.221H237.377Z" fill="white"/>
<path d="M256.103 313.803C255.095 313.803 254.081 314.607 253.85 315.588L253.18 318.436C252.949 319.418 253.585 320.221 254.593 320.221H261.907C262.915 320.221 263.893 319.41 264.08 318.419L264.61 315.605C264.797 314.614 264.124 313.804 263.116 313.804L256.103 313.803Z" fill="white"/>
<path d="M271.917 313.803C270.908 313.803 269.949 314.618 269.784 315.613L269.321 318.412C269.156 319.407 269.847 320.221 270.856 320.221H277.957C278.966 320.221 279.888 319.401 280.007 318.4L280.339 315.624C280.458 314.623 279.731 313.803 278.723 313.803H271.917Z" fill="white"/>
<path d="M287.387 313.803C286.379 313.803 285.473 314.624 285.375 315.628L285.103 318.396C285.005 319.4 285.75 320.221 286.758 320.221H293.499C294.507 320.221 295.38 319.397 295.439 318.39L295.598 315.634C295.656 314.627 294.879 313.803 293.871 313.803H287.387Z" fill="white"/>
<path d="M303.041 313.803C302.033 313.803 301.184 314.628 301.155 315.636L301.077 318.388C301.048 319.396 301.85 320.221 302.859 320.221H309.746C310.755 320.221 311.58 319.395 311.58 318.387V315.637C311.58 314.628 310.755 313.803 309.746 313.803H303.041Z" fill="white"/>
<path d="M317.74 313.803C316.731 313.803 315.906 314.629 315.906 315.637V318.387C315.906 319.395 316.731 320.221 317.74 320.221H324.715C325.723 320.221 326.548 319.395 326.548 318.387V315.637C326.548 314.628 325.723 313.803 324.715 313.803H317.74Z" fill="white"/>
<path d="M333.925 313.804C332.916 313.804 332.221 314.618 332.381 315.614L332.828 318.41C332.987 319.406 333.942 320.221 334.95 320.221H341.681C342.689 320.221 343.389 319.405 343.236 318.408L342.808 315.616C342.655 314.619 341.705 313.803 340.696 313.803H333.925V313.804Z" fill="white"/>
<path d="M349.004 313.821C347.996 313.811 347.317 314.615 347.495 315.608L348 318.416C348.178 319.408 349.149 320.22 350.158 320.22H357.3C358.308 320.22 358.961 319.414 358.75 318.428L358.167 315.698C357.957 314.712 356.959 313.897 355.951 313.888L349.004 313.821Z" fill="white"/>
<path d="M386.852 313.803C385.844 313.803 385.32 314.572 385.687 315.511L386.864 318.514C387.232 319.453 388.358 320.221 389.366 320.221H402.73C403.739 320.221 404.232 319.465 403.827 318.542L402.485 315.482C402.081 314.559 400.924 313.803 399.915 313.803H386.852Z" fill="white"/>
<path d="M234.968 303.501C234.905 303.689 234.591 304.625 234.27 305.581L233.514 307.838C233.194 308.794 233.757 309.576 234.765 309.576H242.61C243.619 309.576 244.669 308.782 244.944 307.812L245.763 304.923C246.038 303.952 245.439 303.159 244.43 303.159H236.916C235.907 303.159 235.031 303.313 234.968 303.501Z" fill="white"/>
<path d="M253.217 303.159C252.208 303.159 251.176 303.957 250.922 304.933L250.177 307.802C249.923 308.778 250.541 309.576 251.549 309.576H258.517C259.525 309.576 260.522 308.769 260.731 307.783L261.331 304.952C261.541 303.966 260.887 303.159 259.878 303.159H253.217Z" fill="white"/>
<path d="M267.579 309.576C266.571 309.576 265.898 308.765 266.085 307.774L266.615 304.96C266.802 303.969 267.779 303.158 268.788 303.158H275.003C276.012 303.158 276.72 303.975 276.577 304.973L276.179 307.76C276.036 308.759 275.095 309.576 274.086 309.576H267.579Z" fill="white"/>
<path d="M282.894 309.576C281.885 309.576 281.158 308.757 281.278 307.755L281.609 304.979C281.728 303.978 282.651 303.159 283.66 303.159H289.868C290.876 303.159 291.641 303.982 291.567 304.987L291.363 307.747C291.289 308.753 290.403 309.576 289.395 309.576H282.894Z" fill="white"/>
<path d="M297.538 309.576C296.53 309.576 295.777 308.754 295.867 307.749L296.112 304.985C296.201 303.98 297.098 303.158 298.107 303.158H304.072C305.081 303.158 305.906 303.983 305.906 304.992V307.742C305.906 308.75 305.081 309.576 304.072 309.576H297.538Z" fill="white"/>
<path d="M313.236 309.576C312.227 309.576 311.389 308.751 311.372 307.742L311.326 304.992C311.309 303.983 312.12 303.158 313.129 303.158H319.261C320.269 303.158 321.145 303.982 321.207 304.988L321.378 307.746C321.441 308.752 320.666 309.576 319.658 309.576H313.236Z" fill="white"/>
<path d="M327.534 309.576C326.525 309.576 325.635 308.753 325.555 307.748L325.335 304.986C325.255 303.981 326.014 303.158 327.023 303.158H333.567C334.575 303.158 335.48 303.979 335.577 304.983L335.846 307.751C335.943 308.754 335.198 309.576 334.19 309.576H327.534Z" fill="white"/>
<path d="M342.799 309.576C341.79 309.576 340.801 308.767 340.601 307.779L340.028 304.955C339.827 303.967 340.488 303.158 341.497 303.158H348.237C349.245 303.158 350.232 303.967 350.43 304.956L350.994 307.778C351.191 308.766 350.528 309.575 349.52 309.575L342.799 309.576Z" fill="white"/>
<path d="M233.183 299.236C232.174 299.227 231.628 298.443 231.969 297.494L232.999 294.621C233.34 293.672 234.444 292.896 235.452 292.896H242.143C243.151 292.896 243.743 293.687 243.457 294.654L242.6 297.555C242.314 298.522 241.255 299.306 240.247 299.297L233.183 299.236Z" fill="white"/>
<path d="M249.187 299.313C248.179 299.313 247.579 298.519 247.854 297.549L248.673 294.659C248.949 293.689 249.999 292.895 251.007 292.895H257.355C258.364 292.895 259 293.698 258.769 294.68L258.099 297.528C257.868 298.51 256.854 299.313 255.846 299.313H249.187Z" fill="white"/>
<path d="M263.741 299.313C262.733 299.313 262.151 298.524 262.448 297.561L263.348 294.647C263.645 293.684 264.714 292.896 265.722 292.896H271.708C272.716 292.896 273.406 293.71 273.242 294.705L272.779 297.504C272.615 298.498 271.655 299.313 270.646 299.313H263.741Z" fill="white"/>
<path d="M279.22 299.313C278.212 299.313 277.504 298.496 277.646 297.497L278.044 294.71C278.187 293.712 279.129 292.895 280.137 292.895H285.956C286.965 292.895 287.686 293.714 287.558 294.714L287.205 297.494C287.078 298.494 286.148 299.313 285.14 299.313H279.22Z" fill="white"/>
<path d="M293.818 299.313C292.809 299.313 292.045 298.49 292.119 297.484L292.323 294.724C292.397 293.718 293.282 292.896 294.291 292.896H299.969C300.977 292.896 301.779 293.72 301.75 294.728L301.672 297.48C301.643 298.488 300.794 299.313 299.786 299.313L293.818 299.313Z" fill="white"/>
<path d="M307.739 299.313C306.73 299.313 305.917 298.488 305.932 297.479L305.972 294.729C305.987 293.72 306.824 292.895 307.832 292.895H313.337C314.345 292.895 315.17 293.72 315.17 294.729V297.479C315.17 298.488 314.345 299.313 313.337 299.313H307.739Z" fill="white"/>
<path d="M322.689 299.313C321.68 299.313 320.804 298.489 320.742 297.483L320.571 294.725C320.509 293.719 321.283 292.895 322.291 292.895H328.012C329.02 292.895 329.942 293.715 330.061 294.716L330.39 297.492C330.509 298.493 329.781 299.312 328.772 299.312L322.689 299.313Z" fill="white"/>
<path d="M336.718 299.313C335.71 299.313 334.775 298.495 334.641 297.495L334.268 294.713C334.134 293.713 334.85 292.896 335.858 292.896H341.586C342.594 292.896 343.565 293.708 343.743 294.7L344.247 297.508C344.425 298.5 343.746 299.313 342.738 299.313H336.718Z" fill="white"/>
<path d="M349.983 299.313C348.975 299.313 348.04 298.495 347.906 297.495L347.533 294.713C347.399 293.713 348.115 292.896 349.123 292.896H354.851C355.859 292.896 356.83 293.708 357.008 294.7L357.512 297.508C357.691 298.5 357.011 299.313 356.003 299.313H349.983Z" fill="white"/>
<path d="M363.059 299.313C362.051 299.313 361.028 298.512 360.785 297.533L360.079 294.675C359.837 293.696 360.464 292.895 361.472 292.895H367.813C368.821 292.895 369.803 293.705 369.994 294.695L370.54 297.512C370.731 298.502 370.063 299.312 369.055 299.312L363.059 299.313Z" fill="white"/>
<path d="M376.827 299.313C375.818 299.313 374.74 298.527 374.431 297.568L373.489 294.641C373.18 293.681 373.752 292.895 374.76 292.895H391.432C392.441 292.895 393.585 293.656 393.977 294.585L395.254 297.622C395.645 298.552 395.14 299.312 394.132 299.312L376.827 299.313Z" fill="white"/>
<path d="M355.989 303.35C354.98 303.35 354.353 304.15 354.595 305.129L355.302 307.987C355.544 308.966 356.567 309.767 357.576 309.767H364.725C365.734 309.767 366.325 308.976 366.039 308.009L365.18 305.108C364.894 304.141 363.835 303.35 362.827 303.35H355.989Z" fill="white"/>
<path d="M372.228 303.159C371.09 303.159 370.402 304.058 370.698 305.156L371.351 307.579C371.647 308.678 372.82 309.576 373.958 309.576H397.808C398.946 309.576 399.535 308.71 399.117 307.652L398.103 305.083C397.684 304.025 396.412 303.159 395.274 303.159H372.228Z" fill="white"/>
<path d="M322.969 361.952H272.722C272.688 361.952 272.654 361.951 272.62 361.951C268.852 361.901 266.214 358.174 267.213 354.54L270.685 341.901C271.84 338.172 273.442 336.854 276.844 336.854H318.693C322.094 336.854 324.099 337.828 324.851 341.901L328.445 354.511C329.481 358.145 326.849 361.901 323.071 361.951C323.037 361.952 323.003 361.952 322.969 361.952Z" fill="#111244"/>
<path d="M291.812 204.286L291.567 195.685L291.461 189.893C289.103 191.194 286.362 194.648 283.803 192.176C281.766 190.207 280.733 186.566 279.101 184.112C277.788 182.14 277.659 181.875 275.437 181.646C273.962 181.49 273.528 181.509 272.369 182.562C270.219 184.513 267.768 185.7 265.417 187.387C263.679 188.635 262.65 190.191 260.323 189.72C257.606 189.17 254.555 187.322 252.249 185.855C249.869 184.342 245.383 180.63 242.313 181.132C239.275 181.627 236.824 185.342 233.647 184.015C232.346 183.47 230.94 182.275 229.75 181.519C228.789 180.906 227.402 179.318 226.154 179.337C224.34 179.363 220.402 183.365 219.152 184.491C218.067 185.47 217.117 186.703 215.987 187.629C214.953 188.482 213.689 188.646 212.657 189.367L212.483 198.494C212.541 198.494 212.599 198.486 212.657 198.486V203.583L291.812 204.286Z" fill="#F0F9FF"/>
<path d="M212.658 189.367C213.689 188.645 214.954 188.482 215.988 187.631C217.116 186.703 218.067 185.47 219.152 184.492C220.402 183.364 224.34 179.364 226.155 179.338C227.402 179.32 228.789 180.906 229.751 181.519C230.94 182.275 232.346 183.47 233.646 184.014C236.824 185.343 239.275 181.629 242.313 181.132C245.382 180.63 249.868 184.341 252.247 185.855C254.554 187.321 257.605 189.168 260.323 189.719C262.651 190.191 263.68 188.635 265.416 187.388C267.768 185.699 270.218 184.514 272.369 182.562C273.528 181.51 273.961 181.492 275.437 181.645C277.657 181.876 277.786 182.14 279.1 184.113C280.733 186.565 281.766 190.207 283.802 192.176C286.361 194.647 289.102 191.194 291.46 189.894L291.285 179.189C289.348 178.132 287.915 174.485 287.768 172.362C287.599 169.939 287.779 167.433 287.773 165.005C286.997 168.522 285.508 172.376 284.144 175.721C282.781 179.063 282.558 182.582 282.686 186.213C282.981 182.708 280.528 179.302 279.648 176.047C278.497 171.788 277.856 166.882 277.568 162.497C275.918 162.542 273.758 161.872 272.163 162.331C270.406 162.837 270.343 164.635 270.087 166.334C269.677 169.063 268.183 171.338 267.561 174.039C266.978 176.575 267.089 179.398 265.129 181.325C262.171 179.494 261.083 176.46 258.538 174.45C252.644 174.45 248.812 170.94 248.812 170.94L245.302 177.434L239.159 174.626L235.649 167.781C235.649 167.781 234.947 176.029 232.496 174.274C230.045 172.519 225.996 164.797 225.996 164.797L222.662 171.115L212.482 181.163L212.658 189.367Z" fill="#2B74C1"/>
<path d="M291.636 202.388C288.824 202.331 287.182 202.3 284.573 201.408C280.997 200.186 277.902 198.192 274.93 196.466C274.174 196.026 272.998 194.983 271.983 194.854C270.645 194.683 267.737 195.991 266.499 196.346C262.671 197.446 257.822 199.315 253.726 197.894C249.76 196.518 245.894 190.199 240.749 192.499C238.837 193.353 238.095 193.911 235.596 193.603C232.679 193.242 230.62 193.457 228.234 194.63C223.582 196.918 219.145 201.684 212.482 201.714V207.444H291.511L291.636 202.388Z" fill="#FC4837"/>
<path d="M291.635 207.707H212.219V154.88H212.745V207.181H291.635V207.707Z" fill="#326091"/>
<path d="M216.255 204.285H215.729V207.444H216.255V204.285Z" fill="#326091"/>
<path d="M219.415 204.285H218.888V207.444H219.415V204.285Z" fill="#326091"/>
<path d="M222.574 204.285H222.048V207.444H222.574V204.285Z" fill="#326091"/>
<path d="M225.733 204.285H225.207V207.444H225.733V204.285Z" fill="#326091"/>
<path d="M228.892 204.285H228.365V207.444H228.892V204.285Z" fill="#326091"/>
<path d="M232.051 204.285H231.525V207.444H232.051V204.285Z" fill="#326091"/>
<path d="M235.21 204.285H234.684V207.444H235.21V204.285Z" fill="#326091"/>
<path d="M238.369 204.285H237.843V207.444H238.369V204.285Z" fill="#326091"/>
<path d="M241.528 204.285H241.002V207.444H241.528V204.285Z" fill="#326091"/>
<path d="M244.688 204.285H244.161V207.444H244.688V204.285Z" fill="#326091"/>
<path d="M247.846 204.285H247.32V207.444H247.846V204.285Z" fill="#326091"/>
<path d="M251.005 204.285H250.479V207.444H251.005V204.285Z" fill="#326091"/>
<path d="M254.165 204.285H253.638V207.444H254.165V204.285Z" fill="#326091"/>
<path d="M257.323 204.285H256.797V207.444H257.323V204.285Z" fill="#326091"/>
<path d="M260.483 204.285H259.957V207.444H260.483V204.285Z" fill="#326091"/>
<path d="M263.642 204.285H263.116V207.444H263.642V204.285Z" fill="#326091"/>
<path d="M266.802 204.285H266.275V207.444H266.802V204.285Z" fill="#326091"/>
<path d="M269.961 204.285H269.434V207.444H269.961V204.285Z" fill="#326091"/>
<path d="M273.119 204.285H272.593V207.444H273.119V204.285Z" fill="#326091"/>
<path d="M276.279 204.285H275.752V207.444H276.279V204.285Z" fill="#326091"/>
<path d="M279.438 204.285H278.911V207.444H279.438V204.285Z" fill="#326091"/>
<path d="M282.597 204.285H282.07V207.444H282.597V204.285Z" fill="#326091"/>
<path d="M285.755 204.285H285.229V207.444H285.755V204.285Z" fill="#326091"/>
<path d="M288.915 204.285H288.389V207.444H288.915V204.285Z" fill="#326091"/>
<path d="M292.074 204.285H291.547V207.444H292.074V204.285Z" fill="#326091"/>
<path d="M382.564 158.032H301.069V161.28H382.564V158.032Z" fill="#B3E2FF"/>
<path d="M337.717 158.032H301.069V161.28H337.717V158.032Z" fill="#2B74C1"/>
<path d="M382.564 164.484H301.069V167.732H382.564V164.484Z" fill="#B3E2FF"/>
<path d="M350.095 164.484H301.069V167.732H350.095V164.484Z" fill="#E56A28"/>
<path d="M382.564 171.199H301.069V174.447H382.564V171.199Z" fill="#B3E2FF"/>
<path d="M321.322 171.199H301.069V174.447H321.322V171.199Z" fill="#21A3CD"/>
<path d="M382.564 177.914H301.069V181.162H382.564V177.914Z" fill="#B3E2FF"/>
<path d="M341.817 177.914H301.069V181.162H341.817V177.914Z" fill="#FC4837"/>
<path d="M220.727 230.51H213.154V249.973H220.727V230.51Z" fill="#21A3CD"/>
<path d="M228.299 221.033H220.727V249.973H228.299V221.033Z" fill="#E56A28"/>
<path d="M243.262 226.599H235.69V249.973H243.262V226.599Z" fill="#B3E2FF"/>
<path d="M250.422 220.438H242.849V249.973H250.422V220.438Z" fill="#2B74C1"/>
<path d="M235.871 211.427H228.299V249.973H235.871V211.427Z" fill="#FC4837"/>
<path d="M260.425 254.451H213.119V255.762H260.425V254.451Z" fill="white"/>
<path d="M260.425 257.323H213.119V258.634H260.425V257.323Z" fill="white"/>
<path d="M260.425 260.196H213.119V261.507H260.425V260.196Z" fill="white"/>
<path d="M260.425 263.069H213.119V264.379H260.425V263.069Z" fill="white"/>
<path d="M260.425 265.941H213.119V267.252H260.425V265.941Z" fill="white"/>
<path d="M260.425 268.814H213.119V270.125H260.425V268.814Z" fill="white"/>
<path d="M383.454 192.456H359.8V193.767H383.454V192.456Z" fill="white"/>
<path d="M383.454 195.328H359.8V196.639H383.454V195.328Z" fill="white"/>
<path d="M383.454 198.201H359.8V199.511H383.454V198.201Z" fill="white"/>
<path d="M383.454 201.073H359.8V202.384H383.454V201.073Z" fill="white"/>
<path d="M383.454 203.946H359.8V205.257H383.454V203.946Z" fill="white"/>
<path d="M383.454 206.819H359.8V208.129H383.454V206.819Z" fill="white"/>
<path d="M383.454 210.021H359.8V211.332H383.454V210.021Z" fill="white"/>
<path d="M383.454 212.894H359.8V214.205H383.454V212.894Z" fill="white"/>
<path d="M383.454 215.766H359.8V217.077H383.454V215.766Z" fill="white"/>
<path d="M383.454 218.639H359.8V219.95H383.454V218.639Z" fill="white"/>
<path d="M383.454 221.512H359.8V222.823H383.454V221.512Z" fill="white"/>
<path d="M383.454 224.384H359.8V225.695H383.454V224.384Z" fill="white"/>
<path d="M291.313 236.454H267.66V237.765H291.313V236.454Z" fill="white"/>
<path d="M291.313 239.327H267.66V240.638H291.313V239.327Z" fill="white"/>
<path d="M291.313 242.199H267.66V243.51H291.313V242.199Z" fill="white"/>
<path d="M291.313 245.072H267.66V246.383H291.313V245.072Z" fill="white"/>
<path d="M291.313 247.945H267.66V249.256H291.313V247.945Z" fill="white"/>
<path d="M291.313 250.817H267.66V252.128H291.313V250.817Z" fill="white"/>
<path d="M291.313 253.376H267.66V254.687H291.313V253.376Z" fill="white"/>
<path d="M291.313 256.249H267.66V257.56H291.313V256.249Z" fill="white"/>
<path d="M291.313 259.122H267.66V260.433H291.313V259.122Z" fill="white"/>
<path d="M291.313 261.994H267.66V263.305H291.313V261.994Z" fill="white"/>
<path d="M291.313 264.867H267.66V266.178H291.313V264.867Z" fill="white"/>
<path d="M291.313 267.74H267.66V269.051H291.313V267.74Z" fill="white"/>
<path d="M291.779 219.011H255.269V220.322H291.779V219.011Z" fill="white"/>
<path d="M291.779 221.884H255.269V223.195H291.779V221.884Z" fill="white"/>
<path d="M291.779 224.757H255.269V226.067H291.779V224.757Z" fill="white"/>
<path d="M291.779 227.629H255.269V228.94H291.779V227.629Z" fill="white"/>
<path d="M291.779 230.502H255.269V231.813H291.779V230.502Z" fill="white"/>
<path d="M291.779 233.374H255.269V234.685H291.779V233.374Z" fill="white"/>
<path d="M331.56 186.586V207.444L348.11 194.755C344.297 189.79 338.304 186.586 331.56 186.586Z" fill="#2B74C1"/>
<path d="M348.11 194.755L331.56 207.444V228.302C343.079 228.302 352.418 218.963 352.418 207.444C352.418 202.668 350.809 198.271 348.11 194.755Z" fill="#E56A28"/>
<path d="M310.702 207.444C310.702 218.964 320.04 228.302 331.56 228.302V207.444L310.702 207.414C310.703 207.424 310.702 207.434 310.702 207.444Z" fill="#21A3CD"/>
<path d="M310.702 207.414L331.56 207.444V186.586C320.05 186.586 310.718 195.909 310.702 207.414Z" fill="#B3E2FF"/>
<path d="M383.453 233.719H302.841V272.574H383.453V233.719Z" fill="white"/>
<path d="M302.841 251.007H315.925L325.036 242.273H342.914L356.506 259.739L383.453 238.04V242.215L356.547 264.212L342.868 246.673L325.028 246.692L315.987 255.361L302.841 255.469V251.007Z" fill="#2B74C1"/>
<path d="M307.202 255.433V272.573H315.805V255.396L307.202 255.433Z" fill="#FC4837"/>
<path d="M338.823 247.015H329.712V272.574H338.823V247.015Z" fill="#E56A28"/>
<path d="M373.997 249.946V272.573H383.453V242.215L373.997 249.946Z" fill="#68A0D4"/>
<path d="M535.837 200.654L551.135 200.456L550.786 173.676L535.586 173.873C534.964 172.05 534.22 170.283 533.367 168.581L544.102 157.839L525.156 138.907L514.471 149.601C512.599 148.652 510.648 147.84 508.63 147.172V132.064H481.847V147.172C479.646 147.901 477.525 148.804 475.5 149.864L464.669 139.312L445.978 158.496L456.857 169.092C455.95 170.966 455.175 172.914 454.548 174.927L439.343 175.125L439.692 201.905L454.992 201.706C455.619 203.496 456.359 205.232 457.207 206.904L446.376 217.741L465.321 236.673L476.2 225.787C478.013 226.693 479.899 227.475 481.847 228.12V243.516H508.63V228.12C510.761 227.414 512.819 226.548 514.786 225.53L525.809 236.269L544.499 217.084L533.524 206.393C534.428 204.551 535.203 202.634 535.837 200.654ZM518.861 211.412C512.552 217.722 504.162 221.197 495.239 221.197C486.316 221.197 477.927 217.722 471.617 211.412C465.307 205.102 461.832 196.713 461.832 187.79C461.832 178.866 465.307 170.477 471.617 164.167C477.926 157.858 486.316 154.383 495.239 154.383C504.162 154.383 512.551 157.857 518.861 164.167C525.171 170.477 528.646 178.866 528.646 187.79C528.646 196.713 525.171 205.102 518.861 211.412Z" fill="#F16E24"/>
<path d="M495.238 157.839C478.724 157.839 465.288 171.275 465.288 187.79C465.288 204.304 478.724 217.74 495.238 217.74C511.753 217.74 525.189 204.304 525.189 187.79C525.189 171.275 511.753 157.839 495.238 157.839ZM495.238 208.525C483.787 208.525 474.503 199.242 474.503 187.79C474.503 176.338 483.787 167.055 495.238 167.055C506.69 167.055 515.974 176.338 515.974 187.79C515.974 199.241 506.69 208.525 495.238 208.525Z" fill="#2B74C1"/>
<path d="M330.272 59.3701H292.887C281.361 59.3701 272.018 68.7139 272.018 80.2399C272.018 91.7661 281.361 101.11 292.887 101.11H326.944L340.983 110.15L337.953 99.6441C345.677 96.5841 351.142 89.0527 351.142 80.2395C351.142 68.7139 341.798 59.3701 330.272 59.3701Z" fill="#F16E24"/>
<path d="M291.717 72.9834L293.787 77.1788L298.417 77.8515L295.067 81.117L295.858 85.7282L291.717 83.5512L287.576 85.7282L288.366 81.117L285.016 77.8515L289.646 77.1788L291.717 72.9834Z" fill="white"/>
<path d="M312.404 72.9834L314.475 77.1788L319.105 77.8515L315.754 81.117L316.545 85.7282L312.404 83.5512L308.263 85.7282L309.054 81.117L305.704 77.8515L310.334 77.1788L312.404 72.9834Z" fill="white"/>
<path d="M331.442 72.9834L333.512 77.1788L338.142 77.8515L334.792 81.117L335.583 85.7282L331.442 83.5512L327.301 85.7282L328.091 81.117L324.741 77.8515L329.371 77.1788L331.442 72.9834Z" fill="white"/>
<path d="M408.896 115.853L424.317 81.4918C422.455 76.0972 421.543 70.2748 421.804 64.2279C422.916 38.4082 444.748 18.3784 470.567 19.4899C496.387 20.6017 516.417 42.4341 515.305 68.2538C514.194 94.0735 492.361 114.104 466.541 112.992C456.789 112.572 447.866 109.192 440.592 103.762L408.896 115.853Z" fill="#EEEEEE"/>
<path d="M447.378 55.4574C447.577 43.6813 457.238 34.2845 468.994 34.3903C480.818 34.4967 490.431 44.3592 490.232 56.1819C490.11 63.3619 486.471 69.6574 480.984 73.4538C477.744 75.6955 475.743 79.327 475.677 83.2665L461.009 83.0186V83.0176C461.075 79.1108 459.257 75.404 456.111 73.0872C450.713 69.1118 447.256 62.6711 447.378 55.4574Z" fill="#F16E24"/>
<path d="M468.894 84.5601L477.703 55.946L476.879 55.6923L468.946 81.4571L461.889 55.439L461.056 55.6648L468.894 84.5601Z" fill="white"/>
<path d="M468.955 55.6543L468.493 82.9785L469.356 82.9931L469.818 55.6689L468.955 55.6543Z" fill="white"/>
<path d="M475.565 55.8621C475.548 56.8548 476.339 57.6734 477.333 57.69C478.325 57.7068 479.144 56.9156 479.16 55.9226C479.177 54.9299 478.386 54.1116 477.393 54.0947C476.4 54.0782 475.582 54.8694 475.565 55.8621Z" fill="white"/>
<path d="M467.656 55.7286C467.639 56.7213 468.43 57.5396 469.423 57.5564C470.415 57.5732 471.234 56.7821 471.25 55.7891C471.267 54.7963 470.476 53.978 469.483 53.9612C468.491 53.9447 467.672 54.7358 467.656 55.7286Z" fill="white"/>
<path d="M459.746 55.5949C459.73 56.5876 460.521 57.406 461.513 57.4228C462.506 57.4396 463.324 56.6485 463.341 55.6558C463.358 54.663 462.567 53.8447 461.574 53.8279C460.582 53.8111 459.763 54.6022 459.746 55.5949Z" fill="white"/>
<path d="M475.749 93.9125C474.941 96.7774 471.797 98.8803 468.078 98.8175C464.359 98.7548 461.288 96.5467 460.577 93.6562L475.749 93.9125Z" fill="#3E5587"/>
<path d="M460.542 93.6111L475.785 93.8687C476.341 93.8781 476.8 93.4351 476.809 92.8789C476.819 92.323 476.376 91.8648 475.819 91.8551L460.576 91.5976C460.02 91.5882 459.562 92.0311 459.552 92.587C459.543 93.1436 459.986 93.6018 460.542 93.6111Z" fill="#D1EEFF"/>
<path d="M460.76 89.2444L476.003 89.5019C476.559 89.5113 477.017 89.0683 477.027 88.5124C477.036 87.9565 476.593 87.498 476.037 87.4887L460.794 87.2311C460.238 87.2217 459.78 87.6647 459.77 88.2206C459.761 88.7768 460.204 89.235 460.76 89.2444Z" fill="#D1EEFF"/>
<path d="M460.687 85.0271L475.931 85.2846C476.487 85.294 476.945 84.8511 476.954 84.2952C476.964 83.7393 476.521 83.2808 475.965 83.2714L460.721 83.0138C460.165 83.0044 459.707 83.4474 459.697 84.0036C459.688 84.5595 460.131 85.0177 460.687 85.0271Z" fill="#D1EEFF"/>
<path d="M460.557 91.487L475.801 91.7446L475.837 89.5873L460.593 89.3296L460.557 91.487Z" fill="#3E5587"/>
<path d="M460.63 87.173L475.874 87.4307L475.91 85.2736L460.667 85.016L460.63 87.173Z" fill="#3E5587"/>
<path d="M466.178 319.997H441.308V339.051H466.178V319.997Z" fill="#FEF7BE"/>
<path d="M441.211 339.266H466.301V335.07H441.211V339.266Z" fill="#FF9D4B"/>
<path d="M457.765 339.266H466.301V335.07H457.765V339.266Z" fill="#F16E24"/>
<path d="M449.295 339.201H457.83V335.006H449.295V339.201Z" fill="#FF9D4B"/>
<path d="M441.211 334.311H466.301V330.085H441.211V334.311Z" fill="#FF9D4B"/>
<path d="M457.765 334.311H466.301V330.085H457.765V334.311Z" fill="#F16E24"/>
<path d="M449.294 334.379H457.83V330.02H449.294V334.379Z" fill="#FF9D4B"/>
<path d="M441.211 329.247H466.301V325.052H441.211V329.247Z" fill="#FF9D4B"/>
<path d="M457.765 329.247H466.301V325.052H457.765V329.247Z" fill="#F16E24"/>
<path d="M449.488 329.29H458.024V325.052H449.488V329.29Z" fill="#FF9D4B"/>
<path d="M441.397 324.193H466.487V319.998H441.397V324.193Z" fill="#FF9D4B"/>
<path d="M457.951 324.193H466.487V319.998H457.951V324.193Z" fill="#F16E24"/>
<path d="M449.481 324.128H458.016V319.933H449.481V324.128Z" fill="#FF9D4B"/>
<path d="M496.772 296.069H471.011V339.169H496.772V296.069Z" fill="#FEF7BE"/>
<path d="M471.011 339.191H496.773V335.108H471.011V339.191Z" fill="#FF9D4B"/>
<path d="M488.009 339.191H496.773V335.108H488.009V339.191Z" fill="#F16E24"/>
<path d="M479.31 339.129H488.075V335.045H479.31V339.129Z" fill="#FF9D4B"/>
<path d="M471.011 334.369H496.773V330.255H471.011V334.369Z" fill="#FF9D4B"/>
<path d="M488.009 334.369H496.773V330.255H488.009V334.369Z" fill="#F16E24"/>
<path d="M479.31 334.435H488.075V330.192H479.31V334.435Z" fill="#FF9D4B"/>
<path d="M471.011 329.44H496.773V325.356H471.011V329.44Z" fill="#FF9D4B"/>
<path d="M488.009 329.44H496.773V325.356H488.009V329.44Z" fill="#F16E24"/>
<path d="M479.51 329.481H488.274V325.357H479.51V329.481Z" fill="#FF9D4B"/>
<path d="M471.201 324.521H496.962V320.438H471.201V324.521Z" fill="#FF9D4B"/>
<path d="M488.198 324.521H496.962V320.438H488.198V324.521Z" fill="#F16E24"/>
<path d="M479.501 324.458H488.265V320.375H479.501V324.458Z" fill="#FF9D4B"/>
<path d="M471.201 319.698H496.962V315.585H471.201V319.698Z" fill="#FF9D4B"/>
<path d="M488.198 319.698H496.962V315.585H488.198V319.698Z" fill="#F16E24"/>
<path d="M479.501 319.765H488.265V315.522H479.501V319.765Z" fill="#FF9D4B"/>
<path d="M471.201 314.77H496.962V310.686H471.201V314.77Z" fill="#FF9D4B"/>
<path d="M488.198 314.77H496.962V310.686H488.198V314.77Z" fill="#F16E24"/>
<path d="M479.7 314.811H488.464V310.686H479.7V314.811Z" fill="#FF9D4B"/>
<path d="M471.107 309.74H496.869V305.657H471.107V309.74Z" fill="#FF9D4B"/>
<path d="M488.104 309.74H496.869V305.657H488.104V309.74Z" fill="#F16E24"/>
<path d="M479.407 309.677H488.171V305.594H479.407V309.677Z" fill="#FF9D4B"/>
<path d="M471.107 304.918H496.869V300.804H471.107V304.918Z" fill="#FF9D4B"/>
<path d="M488.104 304.918H496.869V300.804H488.104V304.918Z" fill="#F16E24"/>
<path d="M479.407 304.984H488.171V300.741H479.407V304.984Z" fill="#FF9D4B"/>
<path d="M471.107 299.989H496.869V295.906H471.107V299.989Z" fill="#FF9D4B"/>
<path d="M488.104 299.989H496.869V295.906H488.104V299.989Z" fill="#F16E24"/>
<path d="M479.605 300.03H488.369V295.906H479.605V300.03Z" fill="#FF9D4B"/>
<path d="M502.205 310.545H527.967V314.628H519.468V314.67H510.704V314.628H502.205V310.545Z" fill="#FF9D4B"/>
<path d="M502.109 295.764H527.872V299.848H519.372V299.889H510.609V299.848H502.109V295.764Z" fill="#FF9D4B"/>
<path d="M502.015 325.215H527.776V329.298H519.278V329.34H510.513V329.298H502.015V325.215Z" fill="#FF9D4B"/>
<path d="M502.015 280.692H527.776V284.887H519.278V284.93H510.513V284.887H502.015V280.692Z" fill="#FF9D4B"/>
<path d="M527.967 324.38H502.205V320.296H510.504V320.233H519.269V320.296H527.967V324.38Z" fill="#FF9D4B"/>
<path d="M527.967 319.557H519.269V319.623H510.504V319.557H502.205V315.444H510.504V315.381H519.269V315.444H527.967V319.557Z" fill="#FF9D4B"/>
<path d="M527.967 279.832H502.205V275.638H510.504V275.573H519.269V275.638H527.967V279.832Z" fill="#FF9D4B"/>
<path d="M527.872 309.598H502.109V305.515H510.409V305.452H519.174V305.515H527.872V309.598Z" fill="#FF9D4B"/>
<path d="M527.872 304.777H519.174V304.843H510.409V304.777H502.109V300.662H510.409V300.599H519.174V300.662H527.872V304.777Z" fill="#FF9D4B"/>
<path d="M527.776 339.05H502.015V334.966H510.314V334.904H519.079V334.966H527.776V339.05Z" fill="#FF9D4B"/>
<path d="M527.776 334.227H519.079V334.293H510.314V334.227H502.015V330.114H510.314V330.051H519.079V330.114H527.776V334.227Z" fill="#FF9D4B"/>
<path d="M527.776 294.906H502.015V290.71H510.314V290.646H519.079V290.71H527.776V294.906Z" fill="#FF9D4B"/>
<path d="M527.776 289.951H519.079V290.019H510.314V289.951H502.015V285.725H510.314V285.659H519.079V285.725H527.776V289.951Z" fill="#FF9D4B"/>
<path d="M527.775 275.638H502.014V338.987H527.775V275.638Z" fill="#FEF7BE"/>
<path d="M502.014 294.906H527.776V290.71H502.014V294.906Z" fill="#FF9D4B"/>
<path d="M519.012 294.906H527.776V290.71H519.012V294.906Z" fill="#F16E24"/>
<path d="M510.313 294.841H519.078V290.646H510.313V294.841Z" fill="#FF9D4B"/>
<path d="M502.014 289.951H527.776V285.725H502.014V289.951Z" fill="#FF9D4B"/>
<path d="M519.012 289.951H527.776V285.725H519.012V289.951Z" fill="#F16E24"/>
<path d="M510.314 290.02H519.078V285.66H510.314V290.02Z" fill="#FF9D4B"/>
<path d="M502.014 284.887H527.776V280.692H502.014V284.887Z" fill="#FF9D4B"/>
<path d="M519.012 284.887H527.776V280.692H519.012V284.887Z" fill="#F16E24"/>
<path d="M510.513 284.93H519.277V280.692H510.513V284.93Z" fill="#FF9D4B"/>
<path d="M502.204 279.833H527.966V275.638H502.204V279.833Z" fill="#FF9D4B"/>
<path d="M519.202 279.833H527.966V275.638H519.202V279.833Z" fill="#F16E24"/>
<path d="M510.504 279.769H519.268V275.573H510.504V279.769Z" fill="#FF9D4B"/>
<path d="M502.014 339.05H527.776V334.966H502.014V339.05Z" fill="#FF9D4B"/>
<path d="M519.012 339.05H527.776V334.966H519.012V339.05Z" fill="#F16E24"/>
<path d="M510.314 338.987H519.078V334.903H510.314V338.987Z" fill="#FF9D4B"/>
<path d="M502.014 334.227H527.776V330.114H502.014V334.227Z" fill="#FF9D4B"/>
<path d="M519.012 334.227H527.776V330.114H519.012V334.227Z" fill="#F16E24"/>
<path d="M510.314 334.294H519.078V330.051H510.314V334.294Z" fill="#FF9D4B"/>
<path d="M502.014 329.299H527.776V325.215H502.014V329.299Z" fill="#FF9D4B"/>
<path d="M519.012 329.299H527.776V325.215H519.012V329.299Z" fill="#F16E24"/>
<path d="M510.513 329.34H519.277V325.215H510.513V329.34Z" fill="#FF9D4B"/>
<path d="M502.204 324.379H527.966V320.296H502.204V324.379Z" fill="#FF9D4B"/>
<path d="M519.202 324.379H527.966V320.296H519.202V324.379Z" fill="#F16E24"/>
<path d="M510.504 324.317H519.269V320.233H510.504V324.317Z" fill="#FF9D4B"/>
<path d="M502.204 319.557H527.966V315.444H502.204V319.557Z" fill="#FF9D4B"/>
<path d="M519.202 319.557H527.966V315.444H519.202V319.557Z" fill="#F16E24"/>
<path d="M510.504 319.623H519.269V315.38H510.504V319.623Z" fill="#FF9D4B"/>
<path d="M502.204 314.629H527.966V310.545H502.204V314.629Z" fill="#FF9D4B"/>
<path d="M519.202 314.629H527.966V310.545H519.202V314.629Z" fill="#F16E24"/>
<path d="M510.703 314.67H519.468V310.545H510.703V314.67Z" fill="#FF9D4B"/>
<path d="M502.11 309.599H527.872V305.515H502.11V309.599Z" fill="#FF9D4B"/>
<path d="M519.106 309.599H527.871V305.515H519.106V309.599Z" fill="#F16E24"/>
<path d="M510.409 309.536H519.173V305.453H510.409V309.536Z" fill="#FF9D4B"/>
<path d="M502.11 304.777H527.872V300.663H502.11V304.777Z" fill="#FF9D4B"/>
<path d="M519.106 304.777H527.871V300.663H519.106V304.777Z" fill="#F16E24"/>
<path d="M510.409 304.843H519.173V300.6H510.409V304.843Z" fill="#FF9D4B"/>
<path d="M502.11 299.848H527.872V295.764H502.11V299.848Z" fill="#FF9D4B"/>
<path d="M519.106 299.848H527.871V295.764H519.106V299.848Z" fill="#F16E24"/>
<path d="M510.608 299.889H519.372V295.765H510.608V299.889Z" fill="#FF9D4B"/>
<path d="M514.696 253.387C511.515 253.387 508.936 255.966 508.936 259.148C508.936 259.763 509.034 260.355 509.213 260.912L488.232 275.844C487.184 274.754 485.714 274.073 484.082 274.073C480.901 274.073 478.322 276.652 478.322 279.833C478.322 280.711 478.524 281.539 478.875 282.284L456.796 296.87C455.743 295.73 454.241 295.012 452.567 295.012C449.676 295.012 447.288 297.145 446.877 299.922L431.585 300.126L431.61 301.977L446.9 301.774C447.374 304.477 449.728 306.533 452.567 306.533C455.749 306.533 458.328 303.954 458.328 300.772C458.328 299.931 458.143 299.134 457.819 298.413L479.923 283.811C480.971 284.907 482.445 285.594 484.082 285.594C487.264 285.594 489.843 283.015 489.843 279.833C489.843 278.95 489.638 278.117 489.283 277.369L510.072 262.573C511.122 263.988 512.799 264.908 514.696 264.908C517.877 264.908 520.456 262.329 520.456 259.148C520.457 255.966 517.878 253.387 514.696 253.387Z" fill="#C3E0F4"/>
<path d="M28.9341 287.045L93.0651 244.392V287.045H28.9341Z" fill="#FF9D4B"/>
<path d="M28.9341 244.392V287.045H93.0651L28.9341 244.392Z" fill="#F16E24"/>
<path d="M28.9341 244.391L60.9997 214.076L93.0651 244.391L60.9942 265.72L28.9341 244.391Z" fill="#F16E24"/>
<path d="M90.3856 234.215V246.171L60.9943 265.72L32.2896 246.635V221.332H78.172L90.3856 234.215Z" fill="#F5FFFF"/>
<path d="M90.3854 234.215H80.3194C79.1339 234.215 78.1719 233.253 78.1719 232.068V221.332L90.3854 234.215Z" fill="#C7E4FF"/>
<path d="M74.1767 229.758H41.9538C41.6425 229.758 41.3882 229.503 41.3882 229.192C41.3882 228.881 41.6425 228.627 41.9538 228.627H74.1767C74.4876 228.627 74.742 228.881 74.742 229.192C74.7416 229.503 74.4876 229.758 74.1767 229.758Z" fill="#C7E4FF"/>
<path d="M74.1768 234.781H38.5208C38.2096 234.781 37.9556 234.526 37.9556 234.215C37.9556 233.904 38.2096 233.65 38.5208 233.65H74.1765C74.4875 233.65 74.7418 233.904 74.7418 234.215C74.7418 234.526 74.4878 234.781 74.1768 234.781Z" fill="#C7E4FF"/>
<path d="M74.1768 239.827H38.5208C38.2096 239.827 37.9556 239.573 37.9556 239.261C37.9556 238.95 38.2096 238.696 38.5208 238.696H74.1765C74.4875 238.696 74.7418 238.95 74.7418 239.261C74.7418 239.573 74.4878 239.827 74.1768 239.827Z" fill="#C7E4FF"/>
<path d="M81.0149 242.675H38.0323C37.9899 242.675 37.9556 242.64 37.9556 242.598V241.621C37.9556 241.578 37.9902 241.544 38.0326 241.544H81.0155C81.0579 241.544 81.0922 241.578 81.0922 241.62V242.598C81.0919 242.64 81.0573 242.675 81.0149 242.675Z" fill="#C7E4FF"/>
<path d="M81.0152 245.523H38.0323C37.9899 245.523 37.9556 245.488 37.9556 245.446V244.469C37.9556 244.426 37.9902 244.392 38.0326 244.392H81.0155C81.0579 244.392 81.0922 244.426 81.0922 244.469V245.446C81.0919 245.488 81.0573 245.523 81.0152 245.523Z" fill="#C7E4FF"/>
<path d="M81.0152 248.37H38.0323C37.9899 248.37 37.9556 248.336 37.9556 248.294V247.317C37.9556 247.274 37.9902 247.24 38.0326 247.24H81.0155C81.0579 247.24 81.0922 247.274 81.0922 247.316V248.294C81.0919 248.336 81.0573 248.37 81.0152 248.37Z" fill="#C7E4FF"/>
<path d="M74.1768 237.304H38.5208C38.2096 237.304 37.9556 237.049 37.9556 236.738C37.9556 236.427 38.2096 236.173 38.5208 236.173H74.1765C74.4875 236.173 74.7418 236.427 74.7418 236.738C74.7418 237.05 74.4878 237.304 74.1768 237.304Z" fill="#C7E4FF"/>
<path opacity="0.2" d="M153.944 277.534V349.183H87.1138V256.153H128.007L153.944 277.534Z" fill="#3E6690"/>
<path d="M150.904 279.358V351.007H84.0737V257.977H124.967L150.904 279.358Z" fill="#C7E4FF"/>
<path d="M150.904 279.358H127.221C125.977 279.358 124.968 278.35 124.968 277.105V257.977L150.904 279.358Z" fill="white"/>
<path d="M145.056 285.352H89.5239V287.749H145.056V285.352Z" fill="white"/>
<path d="M145.056 290.296H89.5239V292.693H145.056V290.296Z" fill="white"/>
<path d="M145.056 295.089H89.5239V297.486H145.056V295.089Z" fill="white"/>
<path d="M145.056 299.884H89.5239V302.28H145.056V299.884Z" fill="white"/>
<path d="M145.056 304.677H89.5239V307.075H145.056V304.677Z" fill="white"/>
<path d="M145.056 309.472H89.5239V311.869H145.056V309.472Z" fill="white"/>
<path d="M145.056 314.266H89.5239V316.663H145.056V314.266Z" fill="white"/>
<path d="M145.056 319.06H89.5239V321.457H145.056V319.06Z" fill="white"/>
<path d="M145.056 323.854H89.5239V326.251H145.056V323.854Z" fill="white"/>
<path d="M256.266 20.8425H244.041C232.292 20.8425 222.679 29.135 222.679 39.2703C222.679 45.1858 225.957 50.4701 231.02 53.8478L227.832 69.9996L241.646 57.5786C242.433 57.6553 243.231 57.6983 244.041 57.6983H256.266C268.015 57.6983 277.628 49.4058 277.628 39.2706C277.628 29.135 268.015 20.8425 256.266 20.8425Z" fill="#2B74C1"/>
<path d="M263.795 42.4754L261.988 40.2548C262.068 39.5484 262.079 38.8424 262.021 38.1457L263.931 36.0765C264.012 35.9888 264.035 35.8616 263.991 35.7506L262.744 32.667C262.701 32.5589 262.601 32.4852 262.486 32.4742L259.634 32.2172C259.247 31.7429 258.818 31.2983 258.349 30.8909L258.271 28.0768C258.267 27.9574 258.196 27.85 258.086 27.8018L255.04 26.4651C254.934 26.4185 254.81 26.4357 254.721 26.5088L252.5 28.3163C251.826 28.2396 251.152 28.2279 250.487 28.2778L248.433 26.3493C248.346 26.2671 248.22 26.2425 248.108 26.2871L245.013 27.5064C244.905 27.5491 244.83 27.6481 244.819 27.7633L244.537 30.6143C244.038 31.0142 243.571 31.4598 243.145 31.9503L240.331 32.0257C240.211 32.0296 240.104 32.1011 240.056 32.2108L238.716 35.2556C238.67 35.3617 238.686 35.4853 238.76 35.575L240.566 37.7966C240.477 38.5683 240.474 39.3391 240.55 40.0975L238.675 42.1998C238.595 42.2891 238.574 42.4165 238.622 42.5262L239.921 45.5879C239.966 45.6947 240.067 45.7678 240.184 45.7759L243.041 45.9843C243.394 46.4033 243.781 46.7974 244.2 47.1621L244.278 49.9768C244.281 50.0959 244.352 50.2033 244.462 50.2512L247.507 51.5898C247.614 51.6367 247.737 51.6192 247.827 51.5468L250.048 49.7393C250.786 49.8244 251.525 49.8309 252.253 49.7649L254.339 51.6571C254.428 51.738 254.555 51.7597 254.666 51.7137L257.739 50.4405C257.846 50.3962 257.92 50.2955 257.929 50.1797L258.161 47.3245C258.608 46.9553 259.028 46.5476 259.413 46.1027L262.227 46.025C262.348 46.0218 262.454 45.9496 262.502 45.8399L263.839 42.7945C263.885 42.6887 263.868 42.5657 263.795 42.4754ZM248.135 46.1855C244.182 44.4508 242.384 39.8412 244.119 35.8885C245.853 31.9357 250.463 30.1377 254.416 31.8723C258.369 33.607 260.166 38.2163 258.432 42.1693C256.697 46.1221 252.088 47.9199 248.135 46.1855Z" fill="white"/>
</svg>
