<svg width="718" height="375" viewBox="0 0 718 375" fill="none" xmlns="http://www.w3.org/2000/svg">
<path fill-rule="evenodd" clip-rule="evenodd" d="M598.483 164.481C604.077 164.481 608.612 169.017 608.612 174.612C608.612 180.206 604.077 184.741 598.483 184.741C592.888 184.741 588.353 180.206 588.353 174.612C588.353 169.017 592.888 164.481 598.483 164.481ZM594.098 153.302H602.867V157.218C604.583 157.649 606.2 158.328 607.68 159.214L610.451 156.443L616.652 162.643L613.881 165.414C614.766 166.894 615.445 168.512 615.876 170.227H619.793V178.997H615.876C615.445 180.712 614.766 182.33 613.881 183.809L616.652 186.58L610.451 192.781L607.68 190.01C606.2 190.896 604.583 191.575 602.867 192.005V195.922H594.098V192.005C592.382 191.575 590.765 190.896 589.285 190.01L586.515 192.781L580.314 186.58L583.084 183.809C582.199 182.33 581.521 180.712 581.089 178.997H577.172V170.227H581.089C581.52 168.511 582.199 166.894 583.084 165.414L580.313 162.643L586.514 156.443L589.285 159.213C590.765 158.328 592.382 157.649 594.098 157.218V153.302Z" fill="white"/>
<path fill-rule="evenodd" clip-rule="evenodd" d="M631.805 268.69C644.763 268.69 655.364 258.088 655.364 245.13V192.407C655.364 179.45 644.761 168.848 631.805 168.848H540.56C527.603 168.848 517 179.452 517 192.407V245.13C517 258.087 527.602 268.69 540.56 268.69H631.805Z" fill="#F5B533"/>
<path d="M531.195 255.735C530.761 256.161 530.062 256.155 529.635 255.721C529.209 255.287 529.215 254.589 529.649 254.162L567.222 217.036L567.267 216.994L529.688 183.41C529.234 183.005 529.196 182.309 529.601 181.856C530.007 181.402 530.702 181.364 531.156 181.769L586.183 230.946L641.209 181.769C641.662 181.364 642.359 181.402 642.764 181.856C643.169 182.309 643.131 183.005 642.677 183.41L605.098 216.994L605.143 217.036L642.716 254.162C643.15 254.589 643.156 255.287 642.729 255.721C642.303 256.155 641.604 256.161 641.17 255.735L603.597 218.608C603.548 218.559 603.504 218.507 603.466 218.452L586.925 233.236C586.512 233.612 585.873 233.623 585.448 233.243L568.898 218.452C568.861 218.507 568.816 218.559 568.767 218.608L531.194 255.735H531.195Z" fill="white"/>
<path fill-rule="evenodd" clip-rule="evenodd" d="M200.882 331H524.117C525.703 331 527 330.583 527 330.074V316.926C527 316.417 525.703 316 524.117 316H200.882C199.297 316 198 316.417 198 316.926V330.074C198 330.583 199.297 331 200.882 331Z" fill="black"/>
<path fill-rule="evenodd" clip-rule="evenodd" d="M195.962 74.3496H529.104C537.564 74.3496 544.486 81.2704 544.486 89.7299V308.007C544.486 316.466 537.564 323.388 529.104 323.388H195.962C187.501 323.388 180.581 316.466 180.581 308.007V89.7299C180.581 81.2704 187.501 74.3496 195.962 74.3496Z" fill="#333333"/>
<path d="M529.25 88.4307H195.816V309.306H529.25V88.4307Z" fill="white"/>
<path d="M232.817 256.254H223.481V295.009H232.817V256.254Z" fill="#ABCFE3"/>
<path d="M249.224 237.443H239.889V295.009H249.224V237.443Z" fill="#ABCFE3"/>
<path d="M265.631 251.87H256.296V295.01H265.631V251.87Z" fill="#ABCFE3"/>
<path d="M282.039 230.936H272.704V295.009H282.039V230.936Z" fill="#ABCFE3"/>
<path d="M298.446 275.632H289.111V295.009H298.446V275.632Z" fill="#ABCFE3"/>
<path d="M314.853 252.011H305.518V295.009H314.853V252.011Z" fill="#ABCFE3"/>
<path d="M434.472 243.504H424.117V295.009H434.472V243.504Z" fill="#FCD16E"/>
<path d="M444.828 251.816H434.472V295.009H444.828V251.816Z" fill="#ED4D47"/>
<path d="M462.848 259.447H452.493V295.009H462.848V259.447Z" fill="#FCD16E"/>
<path d="M473.204 247.184H462.848V295.009H473.204V247.184Z" fill="#ED4D47"/>
<path d="M491.225 272.255H480.87V295.009H491.225V272.255Z" fill="#FCD16E"/>
<path d="M501.581 239.008H491.225V295.009H501.581V239.008Z" fill="#ED4D47"/>
<path fill-rule="evenodd" clip-rule="evenodd" d="M369.253 123.225C399.371 123.225 423.787 147.641 423.787 177.759C423.787 207.877 399.371 232.293 369.253 232.293C339.136 232.293 314.719 207.877 314.719 177.759C314.719 147.641 339.135 123.225 369.253 123.225Z" fill="#4AA3F2"/>
<path fill-rule="evenodd" clip-rule="evenodd" d="M304.871 177.759C304.871 142.202 333.695 113.377 369.253 113.377V177.759H304.871Z" fill="#ED4D47"/>
<path d="M342.261 148.427L321.66 126.355H262.871V124.927H322.276L322.489 125.156L343.303 147.457L342.261 148.427ZM382.801 179.09L403.402 201.163H462.191V202.59H402.786L402.573 202.361L381.758 180.06L382.801 179.09Z" fill="#0A2975"/>
<path d="M322.089 125.956L342.29 147.6L342.475 147.429L322.06 125.555L322.022 125.515H263.457V125.768H321.66V125.77C321.817 125.77 321.974 125.832 322.089 125.956ZM341.833 148.826L321.407 126.942H262.871C262.547 126.942 262.284 126.679 262.284 126.355V124.927C262.284 124.603 262.546 124.34 262.871 124.34H322.276C322.46 124.34 322.624 124.425 322.732 124.558L322.918 124.757L343.733 147.059C343.952 147.295 343.939 147.666 343.702 147.886L342.66 148.856C342.423 149.076 342.053 149.063 341.833 148.826ZM402.973 201.562L382.772 179.917L382.587 180.089L403.001 201.962L403.039 202.003H461.604V201.75H403.401V201.748C403.245 201.748 403.088 201.685 402.973 201.562ZM383.23 178.691L403.655 200.576H462.191C462.516 200.576 462.779 200.839 462.779 201.163V202.59C462.779 202.914 462.516 203.177 462.191 203.177H402.786C402.602 203.177 402.437 203.092 402.33 202.96L402.144 202.76L381.33 180.459C381.11 180.223 381.123 179.852 381.359 179.632L382.402 178.662C382.638 178.442 383.01 178.455 383.23 178.691Z" fill="#0A2975"/>
<path fill-rule="evenodd" clip-rule="evenodd" d="M498.182 243.806H678.792C683.046 243.806 686.526 247.286 686.526 251.54V375H490.448V251.54C490.448 247.286 493.928 243.806 498.182 243.806Z" fill="#C2DEED"/>
<path fill-rule="evenodd" clip-rule="evenodd" d="M498.182 243.806H678.792C683.046 243.806 686.526 247.286 686.526 251.54V261.093H490.448V251.54C490.448 247.286 493.928 243.806 498.182 243.806Z" fill="#0F9CE3"/>
<path fill-rule="evenodd" clip-rule="evenodd" d="M509.89 250.25C511.105 250.25 512.089 251.235 512.089 252.449C512.089 253.664 511.105 254.648 509.89 254.648C508.676 254.648 507.692 253.664 507.692 252.449C507.692 251.235 508.676 250.25 509.89 250.25ZM517.82 250.25C519.034 250.25 520.019 251.235 520.019 252.449C520.019 253.664 519.034 254.648 517.82 254.648C516.606 254.648 515.621 253.664 515.621 252.449C515.621 251.235 516.606 250.25 517.82 250.25ZM501.961 250.25C503.175 250.25 504.16 251.235 504.16 252.449C504.16 253.664 503.175 254.648 501.961 254.648C500.747 254.648 499.762 253.664 499.762 252.449C499.762 251.235 500.746 250.25 501.961 250.25Z" fill="white"/>
<path fill-rule="evenodd" clip-rule="evenodd" d="M513.368 278.833H581.701C584.477 278.833 586.748 281.103 586.748 283.88V352.213C586.748 354.989 584.477 357.26 581.701 357.26H513.368C510.592 357.26 508.321 354.989 508.321 352.213V283.88C508.321 281.103 510.592 278.833 513.368 278.833Z" fill="#0F9CE3"/>
<path d="M550.913 330.21C556.968 330.21 561.016 325.386 561.016 318.275C561.016 311.165 556.51 306.834 550.173 306.834H541.126V330.21H550.913ZM545.879 326.231V310.883H549.505C554.187 310.883 556.017 312.995 556.017 318.275C556.017 323.556 554.187 326.231 549.927 326.231H545.879ZM540.763 330.21L532.526 306.834H526.858L518.515 330.21H523.69L525.345 325.386H533.969L535.448 330.21H540.763ZM532.561 321.373H526.611L529.604 312.08H529.639L532.561 321.373Z" fill="white"/>
<path d="M576.06 318.135C575.814 314.403 573.561 312.432 568.562 312.432C563.282 312.432 561.275 314.65 561.275 317.571C561.275 319.12 561.839 320.458 563.458 321.479C564.69 322.253 566.31 322.746 569.232 323.45C570.71 323.802 572.013 324.189 572.013 325.422C572.013 326.724 570.569 327.217 568.95 327.217C566.732 327.217 565.359 326.267 565.359 324.647H560.642C560.712 328.167 563.67 330.667 568.985 330.667C573.913 330.667 576.554 328.519 576.554 324.929C576.554 322.676 575.533 321.479 573.702 320.74C572.365 320.211 570.499 319.824 568.528 319.261C566.662 318.733 565.711 318.311 565.711 317.29C565.711 316.269 566.697 315.847 568.422 315.847C570.499 315.847 571.414 316.445 571.661 318.135H576.061L576.06 318.135Z" fill="white"/>
<path d="M626.743 304.393H665.953V306.464H626.743V304.393ZM602.539 304.393H618.46V306.464H602.539V304.393ZM602.539 289.251H646.414V291.322H602.539V289.251Z" fill="white"/>
<path d="M626.743 344.771H665.953V346.842H626.743V344.771ZM602.539 344.771H618.46V346.842H602.539V344.771ZM602.539 329.629H646.414V331.7H602.539V329.629Z" fill="white"/>
<path fill-rule="evenodd" clip-rule="evenodd" d="M571.206 127.994H670.295C670.781 127.994 671.179 127.596 671.179 127.111V114.572C671.179 114.085 670.781 113.688 670.295 113.688H571.206C570.72 113.688 570.323 114.085 570.323 114.572V127.111C570.323 127.596 570.72 127.994 571.206 127.994Z" fill="#0A2975"/>
<path fill-rule="evenodd" clip-rule="evenodd" d="M569.777 39.7803H671.726C674.316 39.7803 676.434 41.8984 676.434 44.4869V111.285C676.434 113.874 674.316 115.992 671.726 115.992H569.777C567.188 115.992 565.07 113.874 565.07 111.285V44.4869C565.07 41.8984 567.187 39.7803 569.777 39.7803Z" fill="#F5B533"/>
<path fill-rule="evenodd" clip-rule="evenodd" d="M558.889 119.389H601.125C601.125 121.302 602.691 122.868 604.605 122.868H636.897C638.811 122.868 640.376 121.302 640.376 119.389H686.092V128.307C686.092 130.219 684.524 131.787 682.612 131.787H558.889C556.977 131.787 555.41 130.221 555.41 128.307V119.389H558.889Z" fill="#F5B533"/>
<path d="M671.771 44.0898H569.732V111.683H671.771V44.0898Z" fill="white"/>
<path fill-rule="evenodd" clip-rule="evenodd" d="M616.243 63.035L634.249 73.703C637.856 75.6439 637.856 80.1289 634.249 82.0698L616.243 92.7378C612.031 95.0038 608.411 93.0801 608.411 89.2164V66.5562C608.411 62.6925 612.031 60.7688 616.243 63.0348" fill="#F5B533"/>
<path fill-rule="evenodd" clip-rule="evenodd" d="M514.503 28.6982C521.453 28.6982 527.088 34.3323 527.088 41.2831C527.088 48.2339 521.453 53.8681 514.503 53.8681C507.552 53.8681 501.918 48.2335 501.918 41.2831C501.918 34.3328 507.552 28.6982 514.503 28.6982ZM509.055 14.8086H519.95V19.6742C522.081 20.2101 524.091 21.0535 525.929 22.1533L529.371 18.7108L537.075 26.4144L533.632 29.8567C534.733 31.6945 535.575 33.7042 536.111 35.8356H540.977V46.7304H536.111C535.576 48.8619 534.733 50.8711 533.632 52.7094L537.074 56.1514L529.371 63.8548L525.929 60.4128C524.091 61.5132 522.081 62.356 519.95 62.8919V67.7572H509.055V62.8919C506.924 62.356 504.914 61.5133 503.076 60.4132L499.634 63.8548L491.931 56.1514L495.373 52.7094C494.272 50.8716 493.43 48.8619 492.894 46.7304H488.028V35.8356H492.894C493.429 33.7037 494.272 31.6945 495.373 29.8567L491.93 26.4144L499.634 18.7108L503.076 22.1533C504.914 21.0528 506.924 20.2098 509.055 19.6742V14.8086Z" fill="#F5B533"/>
<path fill-rule="evenodd" clip-rule="evenodd" d="M138.181 212.108C145.131 212.108 150.766 217.743 150.766 224.693C150.766 231.644 145.131 237.278 138.181 237.278C131.231 237.278 125.596 231.644 125.596 224.693C125.596 217.743 131.23 212.108 138.181 212.108ZM132.734 198.219H143.628V203.085C145.76 203.62 147.769 204.464 149.607 205.564L153.05 202.122L160.753 209.825L157.311 213.267C158.411 215.105 159.253 217.115 159.789 219.247H164.656V230.141H159.789C159.253 232.273 158.411 234.282 157.311 236.12L160.753 239.562L153.049 247.266L149.607 243.823C147.769 244.924 145.76 245.766 143.628 246.302V251.168H132.733V246.302C130.602 245.766 128.592 244.923 126.754 243.824L123.312 247.266L115.609 239.562L119.051 236.12C117.95 234.282 117.108 232.272 116.572 230.141H111.706V219.247H116.572C117.108 217.115 117.951 215.105 119.051 213.267L115.608 209.825L123.312 202.122L126.755 205.564C128.592 204.463 130.602 203.62 132.734 203.085V198.219Z" fill="white"/>
<path d="M211.574 270.121H96.145V375H211.574V270.121Z" fill="white"/>
<path d="M205.371 276.323H102.347V354.882H205.371V276.323Z" fill="#F5787A"/>
<path fill-rule="evenodd" clip-rule="evenodd" d="M176.581 299.639L139.132 349.586V356.519H205.828V327.444L184.981 299.639C182.671 296.557 178.892 296.557 176.581 299.639Z" fill="#2E73CC"/>
<path fill-rule="evenodd" clip-rule="evenodd" d="M137.146 308.468L102.347 354.881V356.519H181.573L145.546 308.468C143.236 305.386 139.456 305.386 137.146 308.468Z" fill="#2E73CC"/>
<path fill-rule="evenodd" clip-rule="evenodd" d="M123.278 284.337C128.036 284.337 131.892 288.194 131.892 292.951C131.892 297.709 128.035 301.565 123.278 301.565C118.521 301.565 114.665 297.708 114.665 292.951C114.665 288.194 118.521 284.337 123.278 284.337Z" fill="#FFCF6E"/>
<path fill-rule="evenodd" clip-rule="evenodd" d="M164.655 128.436C180.118 128.436 192.654 140.971 192.654 156.434C192.654 171.897 180.118 184.433 164.655 184.433C149.192 184.433 136.657 171.897 136.657 156.434C136.657 140.97 149.192 128.436 164.655 128.436Z" fill="#FCD16E"/>
<path d="M178.508 142.58C174.963 139.035 170.065 136.842 164.655 136.842C159.244 136.842 154.346 139.035 150.801 142.58C147.256 146.126 145.063 151.024 145.063 156.434C145.063 161.844 147.256 166.742 150.801 170.288C154.346 173.833 159.244 176.026 164.655 176.026C170.065 176.026 174.963 173.833 178.508 170.288C182.054 166.743 184.247 161.844 184.247 156.434C184.247 151.023 182.054 146.125 178.508 142.58ZM164.655 135.414C170.459 135.414 175.714 137.767 179.518 141.57C183.322 145.374 185.674 150.629 185.674 156.434C185.674 162.238 183.322 167.493 179.518 171.297C175.714 175.101 170.459 177.454 164.655 177.454C158.85 177.454 153.595 175.101 149.791 171.297C145.987 167.493 143.635 162.238 143.635 156.434C143.635 150.629 145.987 145.375 149.791 141.57C153.595 137.766 158.85 135.414 164.655 135.414Z" fill="#F5B533"/>
<path fill-rule="evenodd" clip-rule="evenodd" d="M168.642 155.842C166.484 154.407 163.55 154.793 162.262 153.598C161.111 152.54 161.244 150.764 162.521 149.871C163.962 148.886 165.918 149.221 167.158 150.387C169.05 152.13 171.712 149.259 169.821 147.539C168.684 146.477 167.536 145.794 165.988 145.53V143.642C165.988 142.638 165.166 141.816 164.161 141.816C163.157 141.816 162.335 142.638 162.335 143.642V145.711C159.704 146.478 157.801 148.619 157.598 151.401C157.47 153.241 158.038 154.824 159.31 156.158C160.582 157.491 162.242 158.226 164.279 158.371C168.78 158.7 168.307 163.866 163.932 163.535C163.022 163.474 162.288 163.163 161.735 162.595C159.972 160.783 157.132 163.467 158.979 165.34C159.916 166.284 161.035 166.908 162.335 167.214V169.225C162.335 170.229 163.157 171.052 164.161 171.052C165.166 171.052 165.988 170.23 165.988 169.225V167.276C167.052 167.054 168.013 166.604 168.869 165.929C172.113 163.378 172.178 158.18 168.642 155.842Z" fill="#F5B533"/>
<path fill-rule="evenodd" clip-rule="evenodd" d="M566.836 148.537C569.835 148.537 572.267 150.969 572.267 153.969C572.267 156.969 569.836 159.4 566.836 159.4C563.836 159.4 561.404 156.969 561.404 153.969C561.404 150.969 563.835 148.537 566.836 148.537ZM564.485 142.542H569.187V144.643C570.107 144.874 570.974 145.238 571.767 145.712L573.253 144.227L576.578 147.551L575.092 149.037C575.567 149.831 575.93 150.698 576.162 151.618H578.262V156.32H576.162C575.931 157.24 575.567 158.107 575.092 158.901L576.578 160.386L573.253 163.711L571.767 162.225C570.974 162.7 570.107 163.064 569.187 163.295V165.395H564.485V163.295C563.565 163.064 562.698 162.7 561.904 162.225L560.419 163.711L557.094 160.386L558.579 158.901C558.105 158.107 557.741 157.24 557.509 156.32H555.41V151.618H557.509C557.741 150.698 558.105 149.831 558.579 149.037L557.094 147.551L560.419 144.227L561.904 145.712C562.698 145.237 563.565 144.874 564.485 144.643V142.542Z" fill="white"/>
<path fill-rule="evenodd" clip-rule="evenodd" d="M390.787 41.7217L401.135 49.0308V41.7217H418.148C423.563 41.7217 427.993 37.2911 427.993 31.8767V9.84452C427.993 4.43012 423.563 0 418.148 0H315.73C310.316 0 305.885 4.43059 305.885 9.84452V31.8767C305.885 37.2907 310.315 41.7217 315.73 41.7217H390.787Z" fill="#2E5CE0"/>
<path fill-rule="evenodd" clip-rule="evenodd" d="M355.188 13.5897C353.068 15.7092 353.068 19.1785 355.188 21.2985L355.903 22.013L363.612 29.7223L371.321 22.013L372.036 21.2985C374.156 19.1785 374.156 15.7092 372.036 13.5897C369.916 11.4692 366.446 11.4697 364.327 13.5897L363.612 14.304L362.897 13.5897C360.777 11.4697 357.308 11.4692 355.188 13.5897Z" fill="white"/>
<path fill-rule="evenodd" clip-rule="evenodd" d="M402.334 18.3386C402.987 18.3386 403.515 18.8677 403.515 19.5203C403.515 20.1729 402.987 20.7013 402.334 20.7013C401.682 20.7013 401.153 20.1726 401.153 19.5203C401.153 18.8679 401.682 18.3386 402.334 18.3386ZM406.886 18.3386C407.539 18.3386 408.068 18.8677 408.068 19.5203C408.068 20.1729 407.539 20.7013 406.886 20.7013C406.234 20.7013 405.705 20.1726 405.705 19.5203C405.705 18.8679 406.234 18.3386 406.886 18.3386ZM397.782 18.3386C398.435 18.3386 398.963 18.8677 398.963 19.5203C398.963 20.1729 398.435 20.7013 397.782 20.7013C397.129 20.7013 396.601 20.1726 396.601 19.5203C396.601 18.8679 397.13 18.3386 397.782 18.3386ZM406.63 11.9995H398.038C393.902 11.9995 390.518 15.3836 390.518 19.5203C390.518 23.6569 393.902 27.0403 398.038 27.0403H400.623C400.699 28.0976 400.349 28.9331 399.91 29.7225C401.937 29.5056 403.746 28.7765 404.65 27.0403H406.63C410.766 27.0403 414.15 23.6567 414.15 19.5203C414.15 15.3838 410.766 11.9995 406.63 11.9995Z" fill="white"/>
<path fill-rule="evenodd" clip-rule="evenodd" d="M331.337 20.7985C334.28 22.076 336.338 25.0075 336.338 28.4193H319.728C319.728 25.0075 321.787 22.076 324.729 20.7985C324 20.0023 323.556 18.9422 323.556 17.7783C323.556 15.3057 325.56 13.3008 328.033 13.3008C330.505 13.3008 332.51 15.3057 332.51 17.7783C332.51 18.9422 332.065 20.0025 331.337 20.7985" fill="white"/>
<path fill-rule="evenodd" clip-rule="evenodd" d="M178.391 0H283.72C287.295 0 290.221 2.92516 290.221 6.50033V54.6146C290.221 58.1898 287.295 61.1154 283.72 61.1154H178.391C174.816 61.1154 171.89 58.1898 171.89 54.6146V6.50033C171.89 2.92493 174.816 0 178.391 0Z" fill="#A673D1"/>
<path fill-rule="evenodd" clip-rule="evenodd" d="M202.332 12.5239C212.291 12.5239 220.365 20.5982 220.365 30.5578C220.365 40.5173 212.291 48.592 202.332 48.592C192.372 48.592 184.297 40.5178 184.297 30.5578C184.297 20.5978 192.371 12.5239 202.332 12.5239Z" fill="#2B3B6B"/>
<path fill-rule="evenodd" clip-rule="evenodd" d="M200.079 22.3885L209.984 28.2571C211.968 29.324 211.968 31.7917 209.984 32.8586L200.079 38.7268C197.763 39.9733 195.771 38.9155 195.771 36.7901V24.3256C195.771 22.2002 197.763 21.1425 200.079 22.3885Z" fill="white"/>
<path d="M230.03 21.4985H277.815V23.5798H230.03V21.4985ZM258.659 37.5356H277.815V39.6164H258.659V37.5356ZM230.03 37.5356H253.115V39.6164H230.03V37.5356Z" fill="white"/>
<path d="M458.61 49.5299H462.667L463.587 44.9165H459.536L458.61 49.5299ZM453.434 49.5299L454.36 44.9165H449.896V39.853H455.372L456.685 33.2891H461.861L460.548 39.853H464.599L465.912 33.2891H471.126L469.812 39.853H472.363V44.9165H468.8L467.875 49.5299H472.363V54.5938H466.862L465.574 61.0451H460.36L461.655 54.5938H457.598L456.31 61.0451H451.134L452.422 54.5938H449.896V49.5299H453.434Z" fill="#C2DEED"/>
<path d="M97.8683 202.628H101.25L102.015 198.783H98.6394L97.8683 202.628ZM93.5546 202.628L94.3255 198.783H90.606V194.563H95.1694L96.264 189.093H100.578L99.4835 194.563H102.86L103.954 189.093H108.298L107.205 194.563H109.331V198.783H106.361L105.589 202.628H109.33V206.848H104.746L103.672 212.224H99.3272L100.406 206.848H97.0244L95.9513 212.224H91.6372L92.7109 206.848H90.6062V202.628H93.5546Z" fill="white"/>
<path d="M469.717 201.968C469.069 201.968 468.543 201.442 468.543 200.795C468.543 200.147 469.069 199.621 469.717 199.621H516.115C516.763 199.621 517.288 200.146 517.288 200.795C517.288 201.443 516.763 201.968 516.115 201.968H469.717ZM469.717 215.322C469.069 215.322 468.543 214.796 468.543 214.148C468.543 213.5 469.069 212.974 469.717 212.974H500.498C501.147 212.974 501.672 213.499 501.672 214.148C501.672 214.796 501.147 215.322 500.498 215.322H469.717Z" fill="#ABCFE3"/>
<path d="M219.633 113.328C218.985 113.328 218.459 112.803 218.459 112.154C218.459 111.505 218.985 110.98 219.633 110.98H266.03C266.678 110.98 267.204 111.506 267.204 112.154C267.204 112.802 266.678 113.328 266.03 113.328H219.633ZM219.633 126.681C218.985 126.681 218.459 126.156 218.459 125.507C218.459 124.859 218.985 124.333 219.633 124.333H250.413C251.062 124.333 251.587 124.859 251.587 125.507C251.587 126.156 251.062 126.681 250.413 126.681H219.633Z" fill="#ABCFE3"/>
<path d="M219.633 201.968C218.985 201.968 218.459 201.442 218.459 200.795C218.459 200.147 218.985 199.621 219.633 199.621H266.03C266.678 199.621 267.204 200.146 267.204 200.795C267.204 201.443 266.678 201.968 266.03 201.968H219.633ZM219.633 215.322C218.985 215.322 218.459 214.796 218.459 214.148C218.459 213.5 218.985 212.974 219.633 212.974H250.413C251.062 212.974 251.587 213.499 251.587 214.148C251.587 214.796 251.062 215.322 250.413 215.322H219.633Z" fill="#ABCFE3"/>
<path d="M469.717 113.328C469.069 113.328 468.543 112.803 468.543 112.154C468.543 111.505 469.069 110.98 469.717 110.98H516.115C516.763 110.98 517.288 111.506 517.288 112.154C517.288 112.802 516.763 113.328 516.115 113.328H469.717ZM469.717 126.681C469.069 126.681 468.543 126.156 468.543 125.507C468.543 124.859 469.069 124.333 469.717 124.333H500.498C501.147 124.333 501.672 124.859 501.672 125.507C501.672 126.156 501.147 126.681 500.498 126.681H469.717Z" fill="#ABCFE3"/>
</svg>
