<svg width="684" height="375" viewBox="0 0 684 375" fill="none" xmlns="http://www.w3.org/2000/svg">
<g clip-path="url(#clip0_169_22781)">
<path d="M486.385 331.947H180.814C169.709 331.947 160.707 322.945 160.707 311.841V153.778C160.707 142.674 169.709 133.672 180.814 133.672H486.385C497.49 133.672 506.492 142.674 506.492 153.778V311.841C506.493 322.945 497.49 331.947 486.385 331.947Z" fill="#272727"/>
<path d="M480.307 319.966H187.01C175.905 319.966 166.903 310.964 166.903 299.86V158.836C166.903 147.732 175.905 138.729 187.01 138.729H480.307C491.411 138.729 500.413 147.732 500.413 158.836V299.858C500.413 310.963 491.411 319.966 480.307 319.966Z" fill="white"/>
<path d="M493.991 339.819H172.172C155.38 339.819 141.767 326.207 141.767 309.414V309.296H524.397V309.414C524.397 326.207 510.784 339.819 493.991 339.819Z" fill="#272727"/>
<path d="M483.521 163.4C483.521 166.593 482.242 169.486 480.156 171.59C478.046 173.73 475.11 175.057 471.864 175.057C468.857 175.057 466.113 173.916 464.045 172.051C461.689 169.91 460.207 166.832 460.207 163.4C460.207 156.962 465.426 151.743 471.864 151.743C478.302 151.743 483.521 156.962 483.521 163.4Z" fill="#FECA57"/>
<path d="M482.356 164.963C482.356 168.531 480.926 171.766 478.594 174.119C476.235 176.511 472.953 177.994 469.324 177.994C465.962 177.994 462.895 176.718 460.583 174.632C457.95 172.24 456.292 168.798 456.292 164.963C456.292 157.765 462.127 151.931 469.324 151.931C476.522 151.931 482.356 157.764 482.356 164.963Z" stroke="black" stroke-width="0.542949" stroke-miterlimit="10"/>
<path d="M476.348 161.607C476.348 164.083 474.34 166.09 471.864 166.09C469.387 166.09 467.38 164.083 467.38 161.607C467.38 159.131 469.387 157.123 471.864 157.123C474.34 157.123 476.348 159.131 476.348 161.607Z" fill="#FF0056"/>
<path d="M480.156 171.591C478.047 173.731 475.11 175.058 471.865 175.058C468.858 175.058 466.114 173.917 464.045 172.051C464.792 168.949 467.154 166.515 470.149 165.75C470.795 165.582 471.47 165.492 472.163 165.492C472.714 165.492 473.258 165.546 473.777 165.654C476.807 166.27 479.253 168.577 480.156 171.591Z" fill="#FF0056"/>
<path d="M242.951 259.937H241.603C241.523 259.549 241.384 259.209 241.184 258.915C240.989 258.622 240.749 258.375 240.467 258.176C240.188 257.973 239.878 257.821 239.537 257.719C239.197 257.618 238.842 257.567 238.472 257.567C237.798 257.567 237.188 257.738 236.64 258.078C236.097 258.419 235.664 258.921 235.341 259.584C235.023 260.247 234.863 261.06 234.863 262.024C234.863 262.988 235.023 263.801 235.341 264.465C235.664 265.128 236.097 265.63 236.64 265.97C237.188 266.311 237.798 266.481 238.472 266.481C238.842 266.481 239.197 266.43 239.537 266.329C239.878 266.227 240.188 266.077 240.467 265.878C240.749 265.675 240.989 265.427 241.184 265.133C241.384 264.836 241.523 264.495 241.603 264.111H242.951C242.849 264.68 242.664 265.189 242.396 265.639C242.128 266.088 241.795 266.47 241.396 266.785C240.998 267.097 240.55 267.334 240.054 267.497C239.561 267.661 239.034 267.742 238.472 267.742C237.523 267.742 236.678 267.51 235.939 267.046C235.2 266.583 234.619 265.923 234.195 265.068C233.771 264.213 233.559 263.198 233.559 262.024C233.559 260.85 233.771 259.836 234.195 258.98C234.619 258.125 235.2 257.466 235.939 257.002C236.678 256.538 237.523 256.306 238.472 256.306C239.034 256.306 239.561 256.388 240.054 256.551C240.55 256.714 240.998 256.953 241.396 257.268C241.795 257.58 242.128 257.96 242.396 258.41C242.664 258.855 242.849 259.365 242.951 259.937ZM248.347 267.764C247.593 267.764 246.932 267.584 246.363 267.226C245.797 266.867 245.355 266.365 245.036 265.72C244.721 265.075 244.564 264.321 244.564 263.459C244.564 262.589 244.721 261.83 245.036 261.182C245.355 260.533 245.797 260.029 246.363 259.671C246.932 259.312 247.593 259.133 248.347 259.133C249.1 259.133 249.76 259.312 250.325 259.671C250.894 260.029 251.336 260.533 251.651 261.182C251.97 261.83 252.129 262.589 252.129 263.459C252.129 264.321 251.97 265.075 251.651 265.72C251.336 266.365 250.894 266.867 250.325 267.226C249.76 267.584 249.1 267.764 248.347 267.764ZM248.347 266.612C248.919 266.612 249.39 266.465 249.76 266.171C250.129 265.878 250.403 265.492 250.58 265.014C250.758 264.535 250.847 264.017 250.847 263.459C250.847 262.901 250.758 262.381 250.58 261.899C250.403 261.417 250.129 261.028 249.76 260.731C249.39 260.433 248.919 260.285 248.347 260.285C247.774 260.285 247.303 260.433 246.933 260.731C246.564 261.028 246.29 261.417 246.113 261.899C245.935 262.381 245.846 262.901 245.846 263.459C245.846 264.017 245.935 264.535 246.113 265.014C246.29 265.492 246.564 265.878 246.933 266.171C247.303 266.465 247.774 266.612 248.347 266.612ZM255.37 262.568V267.59H254.088V259.241H255.327V260.546H255.435C255.631 260.122 255.928 259.781 256.327 259.524C256.725 259.263 257.24 259.133 257.87 259.133C258.436 259.133 258.93 259.249 259.354 259.48C259.778 259.709 260.108 260.057 260.343 260.524C260.579 260.988 260.697 261.575 260.697 262.285V267.59H259.414V262.372C259.414 261.716 259.244 261.205 258.903 260.839C258.563 260.47 258.095 260.285 257.501 260.285C257.091 260.285 256.725 260.374 256.403 260.551C256.084 260.729 255.832 260.988 255.647 261.328C255.463 261.669 255.37 262.082 255.37 262.568ZM266.671 259.241V260.328H262.345V259.241H266.671ZM263.606 257.241H264.889V265.198C264.889 265.561 264.941 265.832 265.046 266.014C265.155 266.191 265.293 266.311 265.459 266.372C265.63 266.43 265.809 266.459 265.998 266.459C266.139 266.459 266.255 266.452 266.345 266.438C266.436 266.419 266.508 266.405 266.563 266.394L266.824 267.546C266.737 267.579 266.615 267.612 266.46 267.644C266.304 267.68 266.106 267.699 265.867 267.699C265.505 267.699 265.15 267.621 264.802 267.465C264.458 267.309 264.171 267.072 263.943 266.753C263.718 266.434 263.606 266.032 263.606 265.546V257.241ZM272.012 267.764C271.207 267.764 270.513 267.586 269.93 267.231C269.35 266.872 268.903 266.372 268.587 265.731C268.276 265.086 268.12 264.336 268.12 263.481C268.12 262.626 268.276 261.872 268.587 261.22C268.903 260.564 269.341 260.053 269.903 259.687C270.468 259.317 271.127 259.133 271.881 259.133C272.316 259.133 272.745 259.205 273.169 259.35C273.593 259.495 273.979 259.73 274.327 260.057C274.675 260.379 274.952 260.807 275.159 261.339C275.365 261.872 275.468 262.528 275.468 263.307V263.85H269.033V262.742H274.164C274.164 262.271 274.07 261.85 273.881 261.481C273.697 261.111 273.432 260.819 273.088 260.606C272.747 260.392 272.345 260.285 271.881 260.285C271.37 260.285 270.928 260.412 270.555 260.665C270.185 260.915 269.901 261.241 269.702 261.644C269.502 262.046 269.403 262.477 269.403 262.937V263.676C269.403 264.307 269.511 264.841 269.729 265.28C269.95 265.715 270.256 266.046 270.647 266.275C271.039 266.499 271.493 266.612 272.012 266.612C272.349 266.612 272.653 266.564 272.925 266.47C273.2 266.372 273.437 266.227 273.637 266.035C273.836 265.84 273.99 265.597 274.099 265.307L275.338 265.655C275.208 266.075 274.988 266.445 274.68 266.764C274.372 267.079 273.992 267.325 273.539 267.503C273.086 267.677 272.577 267.764 272.012 267.764ZM278.702 262.568V267.59H277.42V259.241H278.659V260.546H278.768C278.963 260.122 279.26 259.781 279.659 259.524C280.058 259.263 280.572 259.133 281.203 259.133C281.768 259.133 282.262 259.249 282.686 259.48C283.11 259.709 283.44 260.057 283.676 260.524C283.911 260.988 284.029 261.575 284.029 262.285V267.59H282.746V262.372C282.746 261.716 282.576 261.205 282.235 260.839C281.895 260.47 281.427 260.285 280.833 260.285C280.424 260.285 280.058 260.374 279.735 260.551C279.416 260.729 279.164 260.988 278.98 261.328C278.795 261.669 278.702 262.082 278.702 262.568ZM290.004 259.241V260.328H285.677V259.241H290.004ZM286.938 257.241H288.221V265.198C288.221 265.561 288.273 265.832 288.378 266.014C288.487 266.191 288.625 266.311 288.792 266.372C288.962 266.43 289.141 266.459 289.33 266.459C289.471 266.459 289.587 266.452 289.677 266.438C289.768 266.419 289.841 266.405 289.895 266.394L290.156 267.546C290.069 267.579 289.947 267.612 289.792 267.644C289.636 267.68 289.438 267.699 289.199 267.699C288.837 267.699 288.482 267.621 288.134 267.465C287.79 267.309 287.503 267.072 287.275 266.753C287.05 266.434 286.938 266.032 286.938 265.546V257.241ZM296.412 256.458H298.021L301.804 265.698H301.934L305.717 256.458H307.326V267.59H306.065V259.133H305.956L302.477 267.59H301.26L297.781 259.133H297.673V267.59H296.412V256.458ZM312.311 267.786C311.782 267.786 311.302 267.686 310.871 267.487C310.44 267.284 310.097 266.992 309.844 266.612C309.59 266.227 309.463 265.764 309.463 265.22C309.463 264.742 309.557 264.354 309.746 264.057C309.934 263.756 310.186 263.521 310.501 263.35C310.817 263.18 311.164 263.053 311.545 262.97C311.929 262.883 312.315 262.814 312.703 262.763C313.21 262.698 313.621 262.649 313.936 262.617C314.255 262.58 314.487 262.521 314.632 262.437C314.781 262.354 314.855 262.209 314.855 262.002V261.959C314.855 261.423 314.708 261.006 314.415 260.709C314.125 260.412 313.684 260.263 313.094 260.263C312.481 260.263 312.001 260.397 311.654 260.665C311.306 260.933 311.061 261.22 310.92 261.524L309.702 261.089C309.92 260.582 310.21 260.187 310.572 259.904C310.938 259.618 311.336 259.419 311.768 259.307C312.202 259.191 312.63 259.133 313.05 259.133C313.319 259.133 313.627 259.165 313.974 259.23C314.326 259.292 314.665 259.421 314.991 259.616C315.321 259.812 315.594 260.107 315.811 260.502C316.029 260.897 316.138 261.426 316.138 262.089V267.59H314.855V266.459H314.79C314.703 266.64 314.558 266.834 314.355 267.041C314.152 267.247 313.882 267.423 313.545 267.568C313.208 267.713 312.797 267.786 312.311 267.786ZM312.507 266.633C313.014 266.633 313.442 266.534 313.79 266.334C314.141 266.135 314.406 265.878 314.583 265.562C314.764 265.247 314.855 264.916 314.855 264.568V263.394C314.801 263.459 314.681 263.519 314.496 263.573C314.315 263.624 314.105 263.669 313.866 263.709C313.63 263.745 313.4 263.778 313.175 263.807C312.954 263.832 312.775 263.854 312.637 263.872C312.304 263.916 311.992 263.986 311.702 264.084C311.416 264.178 311.184 264.321 311.007 264.513C310.833 264.702 310.746 264.959 310.746 265.285C310.746 265.731 310.911 266.068 311.24 266.296C311.574 266.521 311.996 266.633 312.507 266.633ZM319.762 262.568V267.59H318.479V259.241H319.718V260.546H319.827C320.022 260.122 320.32 259.781 320.718 259.524C321.117 259.263 321.631 259.133 322.262 259.133C322.827 259.133 323.322 259.249 323.746 259.48C324.17 259.709 324.499 260.057 324.735 260.524C324.97 260.988 325.088 261.575 325.088 262.285V267.59H323.805V262.372C323.805 261.716 323.635 261.205 323.294 260.839C322.954 260.47 322.486 260.285 321.892 260.285C321.483 260.285 321.117 260.374 320.794 260.551C320.475 260.729 320.224 260.988 320.039 261.328C319.854 261.669 319.762 262.082 319.762 262.568ZM329.889 267.786C329.36 267.786 328.88 267.686 328.448 267.487C328.017 267.284 327.675 266.992 327.421 266.612C327.168 266.227 327.041 265.764 327.041 265.22C327.041 264.742 327.135 264.354 327.323 264.057C327.512 263.756 327.764 263.521 328.079 263.35C328.394 263.18 328.742 263.053 329.122 262.97C329.506 262.883 329.892 262.814 330.28 262.763C330.787 262.698 331.199 262.649 331.514 262.617C331.833 262.58 332.065 262.521 332.21 262.437C332.358 262.354 332.432 262.209 332.432 262.002V261.959C332.432 261.423 332.286 261.006 331.992 260.709C331.702 260.412 331.262 260.263 330.671 260.263C330.059 260.263 329.579 260.397 329.231 260.665C328.883 260.933 328.639 261.22 328.497 261.524L327.28 261.089C327.497 260.582 327.787 260.187 328.149 259.904C328.515 259.618 328.914 259.419 329.345 259.307C329.78 259.191 330.208 259.133 330.628 259.133C330.896 259.133 331.204 259.165 331.552 259.23C331.903 259.292 332.242 259.421 332.568 259.616C332.898 259.812 333.172 260.107 333.389 260.502C333.606 260.897 333.715 261.426 333.715 262.089V267.59H332.432V266.459H332.367C332.28 266.64 332.135 266.834 331.932 267.041C331.729 267.247 331.46 267.423 331.123 267.568C330.786 267.713 330.374 267.786 329.889 267.786ZM330.084 266.633C330.592 266.633 331.019 266.534 331.367 266.334C331.719 266.135 331.983 265.878 332.161 265.562C332.342 265.247 332.432 264.916 332.432 264.568V263.394C332.378 263.459 332.259 263.519 332.074 263.573C331.893 263.624 331.682 263.669 331.443 263.709C331.208 263.745 330.978 263.778 330.753 263.807C330.532 263.832 330.353 263.854 330.215 263.872C329.882 263.916 329.57 263.986 329.28 264.084C328.994 264.178 328.762 264.321 328.584 264.513C328.41 264.702 328.323 264.959 328.323 265.285C328.323 265.731 328.488 266.068 328.818 266.296C329.151 266.521 329.574 266.633 330.084 266.633ZM339.426 270.894C338.807 270.894 338.274 270.815 337.828 270.655C337.383 270.5 337.011 270.293 336.714 270.036C336.421 269.782 336.187 269.51 336.013 269.22L337.035 268.503C337.151 268.655 337.297 268.829 337.475 269.025C337.653 269.224 337.895 269.396 338.203 269.541C338.515 269.69 338.923 269.764 339.426 269.764C340.1 269.764 340.656 269.601 341.095 269.275C341.533 268.949 341.753 268.438 341.753 267.742V266.046H341.644C341.55 266.198 341.416 266.387 341.242 266.612C341.071 266.833 340.825 267.03 340.502 267.204C340.184 267.374 339.752 267.459 339.209 267.459C338.535 267.459 337.93 267.3 337.393 266.981C336.861 266.662 336.439 266.198 336.127 265.59C335.819 264.981 335.665 264.242 335.665 263.372C335.665 262.517 335.815 261.772 336.116 261.138C336.417 260.5 336.835 260.008 337.372 259.66C337.908 259.308 338.528 259.133 339.231 259.133C339.774 259.133 340.205 259.223 340.524 259.404C340.847 259.582 341.093 259.785 341.263 260.013C341.437 260.238 341.571 260.423 341.666 260.568H341.796V259.241H343.035V267.829C343.035 268.546 342.872 269.13 342.546 269.579C342.224 270.032 341.789 270.364 341.242 270.574C340.698 270.788 340.093 270.894 339.426 270.894ZM339.383 266.307C339.897 266.307 340.332 266.189 340.687 265.954C341.042 265.718 341.312 265.38 341.497 264.937C341.682 264.495 341.774 263.966 341.774 263.35C341.774 262.749 341.684 262.218 341.503 261.758C341.321 261.298 341.053 260.937 340.698 260.676C340.343 260.415 339.905 260.285 339.383 260.285C338.839 260.285 338.386 260.423 338.024 260.698C337.665 260.973 337.395 261.343 337.214 261.807C337.037 262.271 336.948 262.785 336.948 263.35C336.948 263.93 337.038 264.443 337.22 264.889C337.404 265.331 337.676 265.678 338.035 265.932C338.397 266.182 338.846 266.307 339.383 266.307ZM348.884 267.764C348.079 267.764 347.385 267.586 346.802 267.231C346.222 266.872 345.775 266.372 345.459 265.731C345.148 265.086 344.992 264.336 344.992 263.481C344.992 262.626 345.148 261.872 345.459 261.22C345.775 260.564 346.213 260.053 346.775 259.687C347.34 259.317 347.999 259.133 348.753 259.133C349.188 259.133 349.617 259.205 350.041 259.35C350.465 259.495 350.851 259.73 351.199 260.057C351.547 260.379 351.824 260.807 352.031 261.339C352.237 261.872 352.34 262.528 352.34 263.307V263.85H345.905V262.742H351.036C351.036 262.271 350.942 261.85 350.753 261.481C350.568 261.111 350.304 260.819 349.96 260.606C349.619 260.392 349.217 260.285 348.753 260.285C348.242 260.285 347.8 260.412 347.427 260.665C347.057 260.915 346.773 261.241 346.574 261.644C346.374 262.046 346.275 262.477 346.275 262.937V263.676C346.275 264.307 346.383 264.841 346.601 265.28C346.822 265.715 347.128 266.046 347.519 266.275C347.911 266.499 348.365 266.612 348.884 266.612C349.221 266.612 349.525 266.564 349.797 266.47C350.072 266.372 350.309 266.227 350.509 266.035C350.708 265.84 350.862 265.597 350.971 265.307L352.21 265.655C352.079 266.075 351.86 266.445 351.552 266.764C351.244 267.079 350.864 267.325 350.411 267.503C349.958 267.677 349.449 267.764 348.884 267.764ZM354.292 267.59V259.241H355.531V260.546H355.64C355.814 260.1 356.094 259.754 356.482 259.508C356.87 259.258 357.335 259.133 357.879 259.133C358.43 259.133 358.888 259.258 359.254 259.508C359.624 259.754 359.912 260.1 360.118 260.546H360.205C360.419 260.115 360.74 259.772 361.167 259.519C361.595 259.261 362.108 259.133 362.705 259.133C363.452 259.133 364.062 259.366 364.537 259.834C365.012 260.298 365.249 261.02 365.249 262.002V267.59H363.966V262.002C363.966 261.386 363.798 260.946 363.461 260.682C363.124 260.417 362.727 260.285 362.271 260.285C361.684 260.285 361.229 260.462 360.906 260.818C360.584 261.169 360.423 261.615 360.423 262.155V267.59H359.118V261.872C359.118 261.397 358.964 261.015 358.656 260.725C358.348 260.432 357.951 260.285 357.466 260.285C357.132 260.285 356.821 260.374 356.531 260.551C356.245 260.729 356.013 260.975 355.835 261.29C355.661 261.602 355.574 261.963 355.574 262.372V267.59H354.292ZM371.095 267.764C370.29 267.764 369.596 267.586 369.013 267.231C368.433 266.872 367.986 266.372 367.67 265.731C367.359 265.086 367.203 264.336 367.203 263.481C367.203 262.626 367.359 261.872 367.67 261.22C367.986 260.564 368.424 260.053 368.986 259.687C369.551 259.317 370.211 259.133 370.964 259.133C371.399 259.133 371.828 259.205 372.252 259.35C372.676 259.495 373.062 259.73 373.41 260.057C373.758 260.379 374.035 260.807 374.242 261.339C374.448 261.872 374.551 262.528 374.551 263.307V263.85H368.116V262.742H373.247C373.247 262.271 373.153 261.85 372.964 261.481C372.78 261.111 372.515 260.819 372.171 260.606C371.83 260.392 371.428 260.285 370.964 260.285C370.453 260.285 370.011 260.412 369.638 260.665C369.268 260.915 368.984 261.241 368.785 261.644C368.585 262.046 368.486 262.477 368.486 262.937V263.676C368.486 264.307 368.594 264.841 368.812 265.28C369.033 265.715 369.339 266.046 369.73 266.275C370.122 266.499 370.577 266.612 371.095 266.612C371.432 266.612 371.736 266.564 372.008 266.47C372.283 266.372 372.521 266.227 372.72 266.035C372.919 265.84 373.073 265.597 373.182 265.307L374.421 265.655C374.291 266.075 374.071 266.445 373.763 266.764C373.455 267.079 373.075 267.325 372.622 267.503C372.169 267.677 371.66 267.764 371.095 267.764ZM377.785 262.568V267.59H376.503V259.241H377.742V260.546H377.851C378.046 260.122 378.343 259.781 378.742 259.524C379.141 259.263 379.655 259.133 380.286 259.133C380.851 259.133 381.346 259.249 381.769 259.48C382.193 259.709 382.523 260.057 382.759 260.524C382.994 260.988 383.112 261.575 383.112 262.285V267.59H381.829V262.372C381.829 261.716 381.659 261.205 381.318 260.839C380.978 260.47 380.51 260.285 379.916 260.285C379.507 260.285 379.141 260.374 378.818 260.551C378.499 260.729 378.247 260.988 378.063 261.328C377.878 261.669 377.785 262.082 377.785 262.568ZM389.087 259.241V260.328H384.76V259.241H389.087ZM386.021 257.241H387.304V265.198C387.304 265.561 387.356 265.832 387.462 266.014C387.57 266.191 387.708 266.311 387.875 266.372C388.045 266.43 388.224 266.459 388.413 266.459C388.554 266.459 388.67 266.452 388.761 266.438C388.851 266.419 388.924 266.405 388.978 266.394L389.239 267.546C389.152 267.579 389.031 267.612 388.875 267.644C388.719 267.68 388.521 267.699 388.282 267.699C387.92 267.699 387.565 267.621 387.217 267.465C386.873 267.309 386.586 267.072 386.358 266.753C386.134 266.434 386.021 266.032 386.021 265.546V257.241ZM401.582 259.241C401.517 258.691 401.253 258.263 400.789 257.959C400.325 257.654 399.756 257.502 399.082 257.502C398.589 257.502 398.158 257.582 397.789 257.741C397.423 257.901 397.136 258.12 396.93 258.399C396.727 258.678 396.625 258.995 396.625 259.35C396.625 259.647 396.696 259.903 396.837 260.116C396.982 260.327 397.167 260.502 397.392 260.644C397.616 260.781 397.852 260.895 398.098 260.986C398.345 261.073 398.571 261.144 398.778 261.198L399.908 261.502C400.198 261.578 400.521 261.684 400.876 261.818C401.234 261.952 401.577 262.135 401.903 262.367C402.233 262.595 402.504 262.888 402.718 263.247C402.932 263.606 403.039 264.046 403.039 264.568C403.039 265.169 402.881 265.713 402.566 266.198C402.254 266.684 401.798 267.07 401.196 267.356C400.599 267.642 399.872 267.786 399.017 267.786C398.22 267.786 397.529 267.657 396.946 267.4C396.366 267.142 395.91 266.784 395.576 266.323C395.247 265.863 395.06 265.329 395.017 264.72H396.408C396.444 265.14 396.586 265.488 396.832 265.764C397.082 266.035 397.397 266.238 397.778 266.372C398.162 266.503 398.575 266.568 399.017 266.568C399.531 266.568 399.993 266.485 400.403 266.318C400.812 266.148 401.137 265.912 401.376 265.611C401.615 265.307 401.734 264.952 401.734 264.546C401.734 264.177 401.631 263.876 401.425 263.644C401.218 263.412 400.946 263.224 400.609 263.079C400.272 262.934 399.908 262.807 399.517 262.698L398.147 262.307C397.278 262.057 396.589 261.7 396.082 261.236C395.575 260.772 395.321 260.165 395.321 259.415C395.321 258.792 395.489 258.248 395.826 257.785C396.167 257.317 396.624 256.955 397.196 256.698C397.772 256.437 398.415 256.306 399.126 256.306C399.843 256.306 400.481 256.435 401.039 256.692C401.597 256.946 402.039 257.294 402.365 257.736C402.695 258.178 402.869 258.68 402.887 259.241H401.582ZM405.907 270.721C405.69 270.721 405.496 270.702 405.326 270.666C405.156 270.634 405.038 270.601 404.973 270.568L405.299 269.438C405.61 269.518 405.886 269.547 406.125 269.525C406.364 269.503 406.576 269.396 406.761 269.204C406.949 269.016 407.121 268.71 407.277 268.286L407.516 267.633L404.429 259.241H405.82L408.125 265.894H408.212L410.516 259.241H411.908L408.364 268.807C408.205 269.239 408.007 269.595 407.772 269.878C407.536 270.164 407.263 270.376 406.951 270.514C406.643 270.652 406.295 270.721 405.907 270.721ZM419.515 261.111L418.362 261.437C418.29 261.245 418.183 261.058 418.042 260.877C417.904 260.693 417.715 260.54 417.476 260.421C417.237 260.301 416.931 260.241 416.558 260.241C416.047 260.241 415.621 260.359 415.28 260.595C414.943 260.827 414.775 261.122 414.775 261.481C414.775 261.8 414.891 262.051 415.123 262.236C415.355 262.421 415.717 262.575 416.21 262.698L417.449 263.003C418.196 263.184 418.752 263.461 419.118 263.834C419.484 264.204 419.667 264.68 419.667 265.264C419.667 265.742 419.529 266.169 419.254 266.546C418.982 266.923 418.601 267.22 418.112 267.438C417.623 267.655 417.054 267.764 416.406 267.764C415.554 267.764 414.849 267.579 414.291 267.209C413.733 266.84 413.38 266.3 413.231 265.59L414.449 265.285C414.565 265.735 414.784 266.072 415.107 266.296C415.433 266.521 415.858 266.633 416.384 266.633C416.982 266.633 417.456 266.506 417.808 266.253C418.163 265.996 418.341 265.688 418.341 265.329C418.341 265.039 418.239 264.796 418.036 264.6C417.833 264.401 417.522 264.253 417.101 264.155L415.71 263.829C414.945 263.647 414.384 263.367 414.025 262.986C413.67 262.602 413.492 262.122 413.492 261.546C413.492 261.075 413.625 260.658 413.889 260.296C414.157 259.933 414.521 259.649 414.982 259.442C415.445 259.236 415.971 259.133 416.558 259.133C417.384 259.133 418.033 259.314 418.504 259.676C418.978 260.038 419.315 260.517 419.515 261.111ZM425.228 259.241V260.328H420.902V259.241H425.228ZM422.163 257.241H423.446V265.198C423.446 265.561 423.498 265.832 423.603 266.014C423.712 266.191 423.85 266.311 424.016 266.372C424.187 266.43 424.366 266.459 424.554 266.459C424.696 266.459 424.812 266.452 424.902 266.438C424.993 266.419 425.065 266.405 425.12 266.394L425.381 267.546C425.294 267.579 425.172 267.612 425.016 267.644C424.861 267.68 424.663 267.699 424.424 267.699C424.062 267.699 423.706 267.621 423.359 267.465C423.014 267.309 422.728 267.072 422.5 266.753C422.275 266.434 422.163 266.032 422.163 265.546V257.241ZM430.568 267.764C429.764 267.764 429.07 267.586 428.487 267.231C427.907 266.872 427.459 266.372 427.144 265.731C426.833 265.086 426.677 264.336 426.677 263.481C426.677 262.626 426.833 261.872 427.144 261.22C427.459 260.564 427.898 260.053 428.46 259.687C429.025 259.317 429.684 259.133 430.438 259.133C430.873 259.133 431.302 259.205 431.726 259.35C432.15 259.495 432.536 259.73 432.884 260.057C433.232 260.379 433.509 260.807 433.715 261.339C433.922 261.872 434.025 262.528 434.025 263.307V263.85H427.59V262.742H432.721C432.721 262.271 432.627 261.85 432.438 261.481C432.253 261.111 431.989 260.819 431.645 260.606C431.304 260.392 430.902 260.285 430.438 260.285C429.927 260.285 429.485 260.412 429.112 260.665C428.742 260.915 428.458 261.241 428.258 261.644C428.059 262.046 427.96 262.477 427.96 262.937V263.676C427.96 264.307 428.068 264.841 428.286 265.28C428.507 265.715 428.813 266.046 429.204 266.275C429.596 266.499 430.05 266.612 430.568 266.612C430.905 266.612 431.21 266.564 431.482 266.47C431.757 266.372 431.994 266.227 432.194 266.035C432.393 265.84 432.547 265.597 432.656 265.307L433.895 265.655C433.764 266.075 433.545 266.445 433.237 266.764C432.929 267.079 432.549 267.325 432.096 267.503C431.643 267.677 431.134 267.764 430.568 267.764ZM435.977 267.59V259.241H437.216V260.546H437.324C437.498 260.1 437.779 259.754 438.167 259.508C438.555 259.258 439.02 259.133 439.564 259.133C440.115 259.133 440.573 259.258 440.939 259.508C441.308 259.754 441.597 260.1 441.803 260.546H441.89C442.104 260.115 442.425 259.772 442.852 259.519C443.28 259.261 443.792 259.133 444.39 259.133C445.137 259.133 445.747 259.366 446.222 259.834C446.697 260.298 446.934 261.02 446.934 262.002V267.59H445.651V262.002C445.651 261.386 445.483 260.946 445.146 260.682C444.809 260.417 444.412 260.285 443.955 260.285C443.368 260.285 442.914 260.462 442.591 260.818C442.269 261.169 442.107 261.615 442.107 262.155V267.59H440.803V261.872C440.803 261.397 440.649 261.015 440.341 260.725C440.033 260.432 439.636 260.285 439.151 260.285C438.817 260.285 438.506 260.374 438.216 260.551C437.93 260.729 437.698 260.975 437.52 261.29C437.346 261.602 437.259 261.963 437.259 262.372V267.59H435.977Z" fill="#272727"/>
<path d="M271.407 151.7H201.552V200.549H271.407V151.7Z" fill="#FECA57"/>
<path d="M223.925 169.872L203.359 200.55H252.483L231.917 169.872C230.012 167.03 225.831 167.03 223.925 169.872Z" fill="#272727"/>
<path d="M236.203 169.679L215.091 200.549H265.204L244.092 169.679C242.194 166.905 238.1 166.905 236.203 169.679Z" fill="#0090A7"/>
<path d="M215.719 161.47C215.719 164.167 213.532 166.354 210.834 166.354C208.136 166.354 205.948 164.167 205.948 161.47C205.948 158.771 208.135 156.584 210.834 156.584C213.532 156.584 215.719 158.771 215.719 161.47Z" fill="#FF0056"/>
<path d="M267.943 155.925H198.088V204.774H267.943V155.925Z" stroke="black" stroke-width="0.542949" stroke-miterlimit="10"/>
<path d="M318.891 163.674H284.641V184.224H318.891V163.674Z" fill="#E0E0E0"/>
<path d="M297.801 169.231L287.688 184.317H310.142L300.028 169.231C299.497 168.439 298.332 168.439 297.801 169.231Z" fill="#BCBCBC"/>
<path d="M303.405 169.176L293.05 184.318H315.956L305.601 169.176C305.072 168.404 303.933 168.404 303.405 169.176Z" fill="#CECECE"/>
<path d="M293.337 166.454C293.337 167.688 292.337 168.687 291.104 168.687C289.872 168.687 288.872 167.687 288.872 166.454C288.872 165.221 289.872 164.222 291.104 164.222C292.337 164.222 293.337 165.222 293.337 166.454Z" fill="#BCBCBC"/>
<path d="M357.056 163.674H322.806V184.224H357.056V163.674Z" fill="#E0E0E0"/>
<path d="M335.966 169.231L325.852 184.317H348.306L338.192 169.231C337.662 168.439 336.497 168.439 335.966 169.231Z" fill="#BCBCBC"/>
<path d="M341.57 169.176L331.215 184.318H354.121L343.766 169.176C343.237 168.404 342.098 168.404 341.57 169.176Z" fill="#CECECE"/>
<path d="M331.501 166.454C331.501 167.688 330.501 168.687 329.269 168.687C328.035 168.687 327.036 167.687 327.036 166.454C327.036 165.221 328.036 164.222 329.269 164.222C330.502 164.222 331.501 165.222 331.501 166.454Z" fill="#BCBCBC"/>
<path d="M357.056 153.889H284.641V155.845H357.056V153.889Z" fill="#E0E0E0"/>
<path d="M351.185 192.054H284.641V194.011H351.185V192.054Z" fill="#E0E0E0"/>
<path d="M442.194 162.696H375.65V164.653H442.194V162.696Z" fill="#E0E0E0"/>
<path d="M333.57 199.883H284.641V201.84H333.57V199.883Z" fill="#E0E0E0"/>
<path d="M424.579 170.524H375.65V172.481H424.579V170.524Z" fill="#E0E0E0"/>
<path d="M440.237 154.866H375.65V156.823H440.237V154.866Z" fill="#E0E0E0"/>
<path d="M300.011 218.385C298.595 218.385 297.337 218.664 296.239 219.221C295.156 219.762 294.241 220.55 293.493 221.585C292.761 222.62 292.203 223.869 291.821 225.334C291.439 226.798 291.248 228.446 291.248 230.276C291.248 232.744 291.551 234.853 292.156 236.604C292.777 238.339 293.732 239.668 295.021 240.591C296.31 241.499 297.974 241.952 300.011 241.952C301.428 241.952 302.845 241.793 304.262 241.475C305.694 241.156 307.246 240.703 308.918 240.114V246.322C307.374 246.959 305.853 247.412 304.357 247.683C302.861 247.97 301.181 248.113 299.319 248.113C295.721 248.113 292.761 247.373 290.437 245.892C288.128 244.396 286.417 242.311 285.303 239.636C284.189 236.946 283.631 233.81 283.631 230.229C283.631 227.586 283.99 225.167 284.706 222.97C285.422 220.773 286.473 218.871 287.858 217.263C289.243 215.655 290.954 214.414 292.991 213.538C295.029 212.663 297.369 212.225 300.011 212.225C301.747 212.225 303.482 212.448 305.217 212.894C306.968 213.323 308.639 213.92 310.231 214.684L307.843 220.701C306.538 220.081 305.225 219.539 303.903 219.078C302.582 218.616 301.285 218.385 300.011 218.385ZM331.148 247.635L322.743 220.248H322.528C322.56 220.9 322.607 221.887 322.671 223.209C322.751 224.514 322.822 225.907 322.886 227.387C322.95 228.868 322.982 230.205 322.982 231.399V247.635H316.367V212.726H326.444L334.705 239.421H334.849L343.612 212.726H353.688V247.635H346.787V231.112C346.787 230.014 346.803 228.748 346.835 227.316C346.883 225.883 346.939 224.522 347.002 223.232C347.066 221.927 347.114 220.948 347.146 220.296H346.931L337.929 247.635H331.148ZM383.105 237.941C383.105 240.01 382.604 241.809 381.601 243.337C380.598 244.865 379.133 246.043 377.207 246.871C375.297 247.699 372.973 248.113 370.235 248.113C369.025 248.113 367.839 248.033 366.677 247.874C365.531 247.715 364.425 247.484 363.358 247.182C362.308 246.863 361.305 246.473 360.35 246.012V239.135C362.005 239.867 363.724 240.528 365.507 241.117C367.29 241.706 369.057 242 370.808 242C372.018 242 372.989 241.841 373.721 241.523C374.469 241.204 375.011 240.767 375.345 240.209C375.679 239.652 375.846 239.015 375.846 238.299C375.846 237.424 375.552 236.675 374.963 236.055C374.374 235.434 373.562 234.853 372.527 234.312C371.509 233.77 370.354 233.189 369.065 232.569C368.253 232.187 367.37 231.725 366.415 231.184C365.46 230.627 364.552 229.95 363.693 229.154C362.833 228.358 362.125 227.395 361.568 226.265C361.026 225.119 360.756 223.75 360.756 222.158C360.756 220.073 361.233 218.29 362.188 216.809C363.143 215.329 364.504 214.199 366.271 213.419C368.054 212.623 370.155 212.225 372.575 212.225C374.39 212.225 376.117 212.44 377.756 212.87C379.412 213.284 381.139 213.888 382.938 214.684L380.55 220.439C378.942 219.786 377.502 219.285 376.228 218.935C374.955 218.568 373.657 218.385 372.336 218.385C371.413 218.385 370.625 218.537 369.972 218.839C369.32 219.126 368.826 219.539 368.492 220.081C368.158 220.606 367.991 221.219 367.991 221.919C367.991 222.747 368.229 223.447 368.707 224.02C369.2 224.578 369.933 225.119 370.904 225.644C371.891 226.169 373.116 226.782 374.581 227.483C376.364 228.326 377.884 229.21 379.141 230.133C380.415 231.04 381.394 232.115 382.078 233.357C382.763 234.582 383.105 236.11 383.105 237.941Z" fill="#FF0056"/>
<path d="M569.411 232.067C569.411 239.045 563.745 244.71 556.768 244.71C556.69 244.71 556.612 244.71 556.533 244.7V244.71H491.476C490.928 244.71 490.39 244.671 489.861 244.603C483.637 243.81 478.833 238.497 478.833 232.067C478.833 225.08 484.489 219.424 491.476 219.424C493.032 219.424 494.53 219.707 495.909 220.226C495.567 218.788 495.38 217.29 495.38 215.744C495.38 205.077 504.03 196.427 514.697 196.427C523.103 196.427 530.267 201.808 532.909 209.325C534.963 207.857 537.499 207.006 540.209 207.006C547.196 207.006 552.852 212.662 552.852 219.649C552.852 219.786 552.852 219.913 552.842 220.049C554.075 219.638 555.396 219.423 556.767 219.423C563.745 219.424 569.411 225.08 569.411 232.067Z" fill="#0090A7"/>
<path d="M491.477 244.712H489.862V244.604C490.391 244.672 490.928 244.712 491.477 244.712Z" fill="#0090A7"/>
<path d="M561.582 235.983C561.582 242.96 555.916 248.626 548.939 248.626C548.861 248.626 548.782 248.626 548.704 248.616V248.626H483.647C483.099 248.626 482.561 248.587 482.032 248.519C475.809 247.726 471.004 242.413 471.004 235.983C471.004 228.995 476.66 223.34 483.647 223.34C485.203 223.34 486.701 223.623 488.08 224.142C487.738 222.703 487.551 221.206 487.551 219.661C487.551 208.994 496.201 200.344 506.868 200.344C515.274 200.344 522.437 205.727 525.079 213.242C527.135 211.774 529.67 210.923 532.38 210.923C539.367 210.923 545.023 216.579 545.023 223.566C545.023 223.703 545.023 223.83 545.013 223.967C546.247 223.556 547.567 223.341 548.938 223.341C555.917 223.34 561.582 228.996 561.582 235.983Z" stroke="white" stroke-width="0.542949" stroke-miterlimit="10"/>
<path d="M483.647 248.626H482.032V248.519C482.561 248.587 483.1 248.626 483.647 248.626Z" stroke="black" stroke-width="0.542949" stroke-miterlimit="10"/>
<path d="M219.565 114.041C219.565 115.121 218.689 115.998 217.609 115.998C216.528 115.998 215.652 115.121 215.652 114.041C215.652 112.959 216.528 112.084 217.609 112.084C218.689 112.083 219.565 112.959 219.565 114.041Z" stroke="white" stroke-width="0.542949" stroke-miterlimit="10"/>
<path d="M219.565 121.869C219.565 122.949 218.689 123.826 217.609 123.826C216.528 123.826 215.652 122.949 215.652 121.869C215.652 120.788 216.528 119.912 217.609 119.912C218.689 119.912 219.565 120.787 219.565 121.869Z" stroke="white" stroke-width="0.542949" stroke-miterlimit="10"/>
<path d="M219.565 129.698C219.565 130.778 218.689 131.654 217.609 131.654C216.528 131.654 215.652 130.778 215.652 129.698C215.652 128.616 216.528 127.741 217.609 127.741C218.689 127.741 219.565 128.617 219.565 129.698Z" stroke="white" stroke-width="0.542949" stroke-miterlimit="10"/>
<path d="M261.155 46.6416H175.039V105.888H261.155V46.6416Z" fill="#0090A7"/>
<path d="M257.241 50.5547H171.125V109.801H257.241V50.5547Z" stroke="white" stroke-width="0.542949" stroke-miterlimit="10"/>
<path d="M241.692 62.0183V92.5864H213.551V54.2129H233.247L241.692 62.0183Z" fill="#FF0056"/>
<path d="M241.722 62.0444L241.693 62.0476L232.679 63.2269L233.139 54.2129L233.146 54.1162L233.248 54.2129L241.693 62.0183L241.722 62.0444Z" fill="#272727"/>
<path d="M223.53 68.6233V99.1914H195.39V60.8179H215.085L223.53 68.6233Z" fill="white"/>
<path d="M223.559 68.6489L223.53 68.6521L214.516 69.8314L214.977 60.8174L214.983 60.7207L215.085 60.8174L223.53 68.6228L223.559 68.6489Z" fill="#272727"/>
<path d="M222.99 242.94H119.26V298.72H222.99V242.94Z" fill="#0090A7"/>
<path d="M217.607 248.322H113.877V304.101H217.607V248.322Z" stroke="white" stroke-width="0.542949" stroke-miterlimit="10"/>
<path d="M149.595 260.705H171.124" stroke="white" stroke-width="0.542949" stroke-miterlimit="10"/>
<path d="M175.039 261.043H215.161" stroke="white" stroke-width="0.542949" stroke-miterlimit="10"/>
<path d="M149.595 267.895H189.718" stroke="white" stroke-width="0.542949" stroke-miterlimit="10"/>
<path d="M125.131 275.723H165.253" stroke="white" stroke-width="0.542949" stroke-miterlimit="10"/>
<path d="M171.125 275.723H216.139" stroke="white" stroke-width="0.542949" stroke-miterlimit="10"/>
<path d="M125.131 282.572H192.653" stroke="white" stroke-width="0.542949" stroke-miterlimit="10"/>
<path d="M133.203 268.991L132.451 266.522H128.67L127.918 268.991H125.548L129.209 258.576H131.898L135.573 268.991H133.203ZM131.926 264.677L131.174 262.265C131.127 262.104 131.063 261.898 130.983 261.648C130.907 261.392 130.829 261.135 130.749 260.874C130.673 260.61 130.611 260.38 130.564 260.186C130.517 260.38 130.451 260.621 130.365 260.91C130.285 261.194 130.207 261.463 130.131 261.719C130.056 261.974 130.001 262.156 129.968 262.265L129.223 264.677H131.926ZM139.965 260.896C141.029 260.896 141.845 261.127 142.413 261.591C142.98 262.055 143.264 262.759 143.264 263.705V268.991H141.753L141.334 267.913H141.278C141.051 268.197 140.819 268.428 140.582 268.608C140.346 268.788 140.074 268.92 139.766 269.005C139.459 269.091 139.085 269.133 138.645 269.133C138.177 269.133 137.756 269.043 137.382 268.863C137.014 268.684 136.723 268.409 136.51 268.04C136.297 267.667 136.19 267.194 136.19 266.621C136.19 265.78 136.486 265.16 137.077 264.763C137.669 264.36 138.556 264.138 139.738 264.096L141.114 264.053V263.705C141.114 263.289 141.006 262.984 140.788 262.79C140.571 262.596 140.268 262.499 139.88 262.499C139.497 262.499 139.121 262.554 138.752 262.662C138.383 262.771 138.014 262.908 137.645 263.074L136.928 261.612C137.349 261.39 137.82 261.215 138.34 261.087C138.865 260.96 139.407 260.896 139.965 260.896ZM141.114 265.316L140.277 265.344C139.577 265.363 139.09 265.489 138.816 265.72C138.546 265.952 138.411 266.257 138.411 266.636C138.411 266.967 138.508 267.203 138.702 267.345C138.896 267.482 139.149 267.551 139.461 267.551C139.925 267.551 140.315 267.414 140.632 267.139C140.954 266.865 141.114 266.475 141.114 265.969V265.316Z" fill="#272727"/>
<path d="M135.16 268.991L134.408 266.522H130.627L129.875 268.991H127.505L131.166 258.576H133.855L137.53 268.991H135.16ZM133.883 264.677L133.131 262.265C133.084 262.104 133.02 261.898 132.94 261.648C132.864 261.392 132.786 261.135 132.706 260.874C132.63 260.61 132.568 260.38 132.521 260.186C132.474 260.38 132.408 260.621 132.322 260.91C132.242 261.194 132.164 261.463 132.088 261.719C132.013 261.974 131.958 262.156 131.925 262.265L131.18 264.677H133.883ZM141.922 260.896C142.986 260.896 143.802 261.127 144.37 261.591C144.938 262.055 145.221 262.759 145.221 263.705V268.991H143.71L143.291 267.913H143.235C143.008 268.197 142.776 268.428 142.539 268.608C142.303 268.788 142.031 268.92 141.723 269.005C141.416 269.091 141.042 269.133 140.602 269.133C140.134 269.133 139.713 269.043 139.339 268.863C138.971 268.684 138.68 268.409 138.467 268.04C138.254 267.667 138.148 267.194 138.148 266.621C138.148 265.78 138.443 265.16 139.034 264.763C139.626 264.36 140.513 264.138 141.695 264.096L143.072 264.053V263.705C143.072 263.289 142.963 262.984 142.745 262.79C142.528 262.596 142.225 262.499 141.837 262.499C141.454 262.499 141.078 262.554 140.709 262.662C140.34 262.771 139.971 262.908 139.602 263.074L138.885 261.612C139.306 261.39 139.777 261.215 140.297 261.087C140.822 260.96 141.364 260.896 141.922 260.896ZM143.072 265.316L142.234 265.344C141.534 265.363 141.047 265.489 140.773 265.72C140.503 265.952 140.368 266.257 140.368 266.636C140.368 266.967 140.465 267.203 140.659 267.345C140.853 267.482 141.106 267.551 141.418 267.551C141.882 267.551 142.272 267.414 142.589 267.139C142.911 266.865 143.072 266.475 143.072 265.969V265.316Z" fill="white"/>
<path d="M455.847 113.278C455.847 114.359 454.97 115.235 453.89 115.235C452.808 115.235 451.933 114.359 451.933 113.278C451.933 112.198 452.809 111.321 453.89 111.321C454.97 111.321 455.847 112.198 455.847 113.278Z" stroke="white" stroke-width="0.542949" stroke-miterlimit="10"/>
<path d="M455.847 121.106C455.847 122.187 454.97 123.063 453.89 123.063C452.808 123.063 451.933 122.187 451.933 121.106C451.933 120.026 452.809 119.149 453.89 119.149C454.97 119.149 455.847 120.026 455.847 121.106Z" stroke="white" stroke-width="0.542949" stroke-miterlimit="10"/>
<path d="M455.847 128.935C455.847 130.017 454.97 130.892 453.89 130.892C452.808 130.892 451.933 130.016 451.933 128.935C451.933 127.855 452.809 126.979 453.89 126.979C454.97 126.979 455.847 127.854 455.847 128.935Z" stroke="white" stroke-width="0.542949" stroke-miterlimit="10"/>
<path d="M496.755 41.3501H407.302V103.904H496.755V41.3501Z" fill="#130F40"/>
<path d="M495.038 42.7275H408.922V101.974H495.038V42.7275Z" fill="#272727"/>
<path d="M492.103 97.1299H411.24V99.0867H492.103V97.1299Z" fill="white"/>
<path d="M446.11 97.1299H410.88V99.0867H446.11V97.1299Z" fill="#FF0056"/>
<path d="M463.032 72.319L446.19 82.0432V62.5947L463.032 72.319Z" fill="#FF0056"/>
<path d="M458.925 86.4984C467.773 82.7916 471.94 72.6141 468.234 63.7663C464.527 54.9184 454.349 50.7508 445.501 54.4576C436.654 58.1645 432.486 68.342 436.193 77.1898C439.9 86.0376 450.077 90.2052 458.925 86.4984Z" stroke="white" stroke-width="0.542949" stroke-miterlimit="10"/>
<path d="M504.529 35.2305H411.24V46.7888H504.529V35.2305Z" fill="white"/>
<path d="M420.014 40.6979C420.014 41.5981 419.284 42.3289 418.383 42.3289C417.481 42.3289 416.751 41.5981 416.751 40.6979C416.751 39.7977 417.481 39.0669 418.383 39.0669C419.283 39.0669 420.014 39.7977 420.014 40.6979Z" fill="#FF0056"/>
<path d="M426.536 40.6979C426.536 41.5981 425.806 42.3289 424.905 42.3289C424.004 42.3289 423.274 41.5981 423.274 40.6979C423.274 39.7977 424.004 39.0669 424.905 39.0669C425.806 39.0669 426.536 39.7977 426.536 40.6979Z" fill="#FECA57"/>
<path d="M433.387 40.6979C433.387 41.5981 432.657 42.3289 431.756 42.3289C430.855 42.3289 430.125 41.5981 430.125 40.6979C430.125 39.7977 430.855 39.0669 431.756 39.0669C432.657 39.0669 433.387 39.7977 433.387 40.6979Z" fill="#0090A7"/>
<path d="M387.393 5.54004H301.276V64.7867H387.393V5.54004Z" fill="#FF0056"/>
<path d="M333.57 30.568L318.917 39.0271L333.57 47.4873V50.9991L312.835 39.0271L333.57 27.0562V30.568Z" fill="#272727"/>
<path d="M356.077 25.039L370.73 33.4993L356.077 41.9595V45.4702L376.812 33.4993L356.077 21.5283V25.039Z" fill="#272727"/>
<path d="M354.076 20.1985L351.833 19.1221L336.52 51.0247L338.763 52.1011L354.076 20.1985Z" fill="#272727"/>
<path d="M382.5 9.45508H296.384V68.7017H382.5V9.45508Z" stroke="white" stroke-width="0.542949" stroke-miterlimit="10"/>
<path d="M344.824 74.1336C344.824 75.214 343.948 76.0903 342.867 76.0903C341.787 76.0903 340.911 75.214 340.911 74.1336C340.911 73.0531 341.787 72.1768 342.867 72.1768C343.948 72.1757 344.824 73.052 344.824 74.1336Z" stroke="white" stroke-width="0.542949" stroke-miterlimit="10"/>
<path d="M344.824 81.9617C344.824 83.0421 343.948 83.9185 342.867 83.9185C341.787 83.9185 340.911 83.0421 340.911 81.9617C340.911 80.8812 341.787 80.0049 342.867 80.0049C343.948 80.0049 344.824 80.8812 344.824 81.9617Z" stroke="white" stroke-width="0.542949" stroke-miterlimit="10"/>
<path d="M344.824 89.7913C344.824 90.8717 343.948 91.7481 342.867 91.7481C341.787 91.7481 340.911 90.8717 340.911 89.7913C340.911 88.7108 341.787 87.8345 342.867 87.8345C343.948 87.8334 344.824 88.7097 344.824 89.7913Z" stroke="white" stroke-width="0.542949" stroke-miterlimit="10"/>
<path d="M344.824 97.6194C344.824 98.6999 343.948 99.5762 342.867 99.5762C341.787 99.5762 340.911 98.6999 340.911 97.6194C340.911 96.5389 341.787 95.6626 342.867 95.6626C343.948 95.6626 344.824 96.5389 344.824 97.6194Z" stroke="white" stroke-width="0.542949" stroke-miterlimit="10"/>
<path d="M344.824 105.447C344.824 106.528 343.948 107.404 342.867 107.404C341.787 107.404 340.911 106.528 340.911 105.447C340.911 104.367 341.787 103.491 342.867 103.491C343.948 103.491 344.824 104.367 344.824 105.447Z" stroke="white" stroke-width="0.542949" stroke-miterlimit="10"/>
<path d="M344.824 113.277C344.824 114.357 343.948 115.233 342.867 115.233C341.787 115.233 340.911 114.357 340.911 113.277C340.911 112.196 341.787 111.32 342.867 111.32C343.948 111.32 344.824 112.196 344.824 113.277Z" stroke="white" stroke-width="0.542949" stroke-miterlimit="10"/>
<path d="M344.824 121.105C344.824 122.186 343.948 123.062 342.867 123.062C341.787 123.062 340.911 122.186 340.911 121.105C340.911 120.025 341.787 119.148 342.867 119.148C343.948 119.148 344.824 120.025 344.824 121.105Z" stroke="white" stroke-width="0.542949" stroke-miterlimit="10"/>
<path d="M344.824 128.934C344.824 130.016 343.948 130.891 342.867 130.891C341.787 130.891 340.911 130.015 340.911 128.934C340.911 127.854 341.787 126.978 342.867 126.978C343.948 126.978 344.824 127.853 344.824 128.934Z" stroke="white" stroke-width="0.542949" stroke-miterlimit="10"/>
<path d="M398.84 0H305.552V11.5583H398.84V0Z" fill="white"/>
<path d="M314.325 5.46891C314.325 6.37021 313.594 7.09993 312.694 7.09993C311.793 7.09993 311.063 6.37021 311.063 5.46891C311.063 4.5687 311.793 3.83789 312.694 3.83789C313.594 3.83789 314.325 4.56761 314.325 5.46891Z" fill="#FF0056"/>
<path d="M320.849 5.46891C320.849 6.37021 320.118 7.09993 319.218 7.09993C318.317 7.09993 317.587 6.37021 317.587 5.46891C317.587 4.5687 318.317 3.83789 319.218 3.83789C320.118 3.83789 320.849 4.56761 320.849 5.46891Z" fill="#FECA57"/>
<path d="M327.699 5.46891C327.699 6.37021 326.968 7.09993 326.068 7.09993C325.167 7.09993 324.437 6.37021 324.437 5.46891C324.437 4.5687 325.167 3.83789 326.068 3.83789C326.968 3.83789 327.699 4.56761 327.699 5.46891Z" fill="#0090A7"/>
<path d="M173.081 170.955V203.943H150.271L143.029 216.489L135.788 203.943H125.131V170.955H173.081Z" fill="#FF0056"/>
<path d="M169.167 173.89V206.878H146.356L139.115 219.424L131.873 206.878H121.216V173.89H169.167Z" stroke="white" stroke-width="0.542949" stroke-miterlimit="10"/>
<path d="M138.831 187.161C138.831 189.323 137.078 191.075 134.916 191.075C132.754 191.075 131.001 189.323 131.001 187.161C131.001 184.999 132.754 183.246 134.916 183.246C137.078 183.246 138.831 184.999 138.831 187.161Z" fill="white"/>
<path d="M153.51 187.161C153.51 189.323 151.757 191.075 149.595 191.075C147.433 191.075 145.68 189.323 145.68 187.161C145.68 184.999 147.433 183.246 149.595 183.246C151.757 183.246 153.51 184.999 153.51 187.161Z" fill="white"/>
<path d="M168.189 187.161C168.189 189.323 166.436 191.075 164.274 191.075C162.112 191.075 160.359 189.323 160.359 187.161C160.359 184.999 162.112 183.246 164.274 183.246C166.436 183.246 168.189 184.999 168.189 187.161Z" fill="white"/>
<path d="M544.947 292.85H403V369.18H544.947V292.85Z" fill="#FECA57"/>
<path d="M431.551 306.558L427.939 320.753H424.512L422.59 313.296C422.551 313.154 422.499 312.937 422.434 312.646C422.37 312.355 422.302 312.037 422.23 311.694C422.159 311.345 422.094 311.018 422.036 310.714C421.984 310.403 421.949 310.157 421.929 309.976C421.91 310.157 421.871 310.4 421.813 310.704C421.761 311.008 421.7 311.332 421.628 311.675C421.564 312.018 421.499 312.338 421.434 312.636C421.37 312.934 421.318 313.16 421.279 313.316L419.366 320.753H415.949L412.327 306.558H415.288L417.104 314.306C417.156 314.539 417.214 314.817 417.279 315.141C417.35 315.465 417.418 315.805 417.483 316.161C417.554 316.51 417.615 316.85 417.667 317.18C417.725 317.504 417.767 317.785 417.793 318.025C417.826 317.779 417.868 317.494 417.92 317.17C417.971 316.84 418.026 316.507 418.085 316.17C418.149 315.827 418.214 315.51 418.279 315.219C418.344 314.927 418.402 314.691 418.454 314.51L420.522 306.558H423.366L425.434 314.51C425.48 314.685 425.532 314.921 425.59 315.219C425.654 315.51 425.719 315.827 425.784 316.17C425.849 316.513 425.907 316.85 425.959 317.18C426.017 317.504 426.059 317.785 426.085 318.025C426.13 317.701 426.192 317.309 426.269 316.85C426.354 316.384 426.441 315.921 426.532 315.461C426.629 315.002 426.713 314.617 426.784 314.306L428.59 306.558H431.551ZM450.775 306.558L447.163 320.753H443.736L441.814 313.296C441.775 313.154 441.723 312.937 441.658 312.646C441.594 312.355 441.526 312.037 441.454 311.694C441.383 311.345 441.318 311.018 441.26 310.714C441.208 310.403 441.173 310.157 441.153 309.976C441.134 310.157 441.095 310.4 441.037 310.704C440.985 311.008 440.924 311.332 440.852 311.675C440.788 312.018 440.723 312.338 440.658 312.636C440.594 312.934 440.542 313.16 440.503 313.316L438.59 320.753H435.173L431.551 306.558H434.512L436.328 314.306C436.38 314.539 436.438 314.817 436.503 315.141C436.574 315.465 436.642 315.805 436.707 316.161C436.778 316.51 436.839 316.85 436.891 317.18C436.949 317.504 436.991 317.785 437.017 318.025C437.05 317.779 437.092 317.494 437.144 317.17C437.195 316.84 437.25 316.507 437.309 316.17C437.373 315.827 437.438 315.51 437.503 315.219C437.568 314.927 437.626 314.691 437.678 314.51L439.746 306.558H442.59L444.658 314.51C444.704 314.685 444.756 314.921 444.814 315.219C444.878 315.51 444.943 315.827 445.008 316.17C445.073 316.513 445.131 316.85 445.183 317.18C445.241 317.504 445.283 317.785 445.309 318.025C445.354 317.701 445.416 317.309 445.493 316.85C445.578 316.384 445.665 315.921 445.756 315.461C445.853 315.002 445.937 314.617 446.008 314.306L447.814 306.558H450.775ZM469.999 306.558L466.387 320.753H462.96L461.038 313.296C460.999 313.154 460.947 312.937 460.882 312.646C460.818 312.355 460.75 312.037 460.678 311.694C460.607 311.345 460.543 311.018 460.484 310.714C460.432 310.403 460.397 310.157 460.377 309.976C460.358 310.157 460.319 310.4 460.261 310.704C460.209 311.008 460.148 311.332 460.076 311.675C460.012 312.018 459.947 312.338 459.882 312.636C459.818 312.934 459.766 313.16 459.727 313.316L457.814 320.753H454.397L450.775 306.558H453.736L455.552 314.306C455.604 314.539 455.662 314.817 455.727 315.141C455.798 315.465 455.866 315.805 455.931 316.161C456.002 316.51 456.063 316.85 456.115 317.18C456.173 317.504 456.215 317.785 456.241 318.025C456.274 317.779 456.316 317.494 456.368 317.17C456.419 316.84 456.474 316.507 456.533 316.17C456.597 315.827 456.662 315.51 456.727 315.219C456.792 314.927 456.85 314.691 456.902 314.51L458.97 306.558H461.814L463.882 314.51C463.928 314.685 463.98 314.921 464.038 315.219C464.103 315.51 464.167 315.827 464.232 316.17C464.297 316.513 464.355 316.85 464.407 317.18C464.465 317.504 464.507 317.785 464.533 318.025C464.578 317.701 464.64 317.309 464.717 316.85C464.802 316.384 464.889 315.921 464.98 315.461C465.077 315.002 465.161 314.617 465.232 314.306L467.038 306.558H469.999Z" fill="#272727"/>
<path d="M433.509 306.559L429.897 320.753H426.47L424.547 313.297C424.508 313.154 424.457 312.938 424.392 312.646C424.327 312.355 424.259 312.038 424.188 311.695C424.117 311.345 424.052 311.018 423.994 310.714C423.942 310.404 423.906 310.158 423.887 309.976C423.868 310.158 423.829 310.4 423.77 310.705C423.719 311.009 423.657 311.332 423.586 311.675C423.521 312.018 423.457 312.339 423.392 312.637C423.327 312.934 423.275 313.161 423.236 313.316L421.324 320.753H417.906L414.285 306.559H417.246L419.062 314.307C419.113 314.54 419.172 314.818 419.236 315.142C419.308 315.465 419.375 315.805 419.44 316.161C419.511 316.511 419.573 316.85 419.625 317.18C419.683 317.504 419.725 317.786 419.751 318.025C419.783 317.779 419.825 317.494 419.877 317.171C419.929 316.841 419.984 316.507 420.042 316.171C420.107 315.828 420.172 315.511 420.236 315.219C420.301 314.928 420.359 314.692 420.411 314.51L422.479 306.559H425.324L427.392 314.51C427.437 314.685 427.489 314.921 427.547 315.219C427.612 315.511 427.677 315.828 427.741 316.171C427.806 316.514 427.864 316.85 427.916 317.18C427.974 317.504 428.017 317.786 428.042 318.025C428.088 317.702 428.149 317.31 428.227 316.85C428.311 316.384 428.398 315.922 428.489 315.462C428.586 315.002 428.67 314.617 428.742 314.307L430.547 306.559H433.509ZM452.733 306.559L449.121 320.753H445.694L443.771 313.297C443.732 313.154 443.681 312.938 443.616 312.646C443.551 312.355 443.483 312.038 443.412 311.695C443.341 311.345 443.276 311.018 443.218 310.714C443.166 310.404 443.13 310.158 443.111 309.976C443.092 310.158 443.053 310.4 442.994 310.705C442.943 311.009 442.881 311.332 442.81 311.675C442.745 312.018 442.681 312.339 442.616 312.637C442.551 312.934 442.499 313.161 442.46 313.316L440.548 320.753H437.13L433.509 306.559H436.47L438.286 314.307C438.337 314.54 438.396 314.818 438.46 315.142C438.532 315.465 438.599 315.805 438.664 316.161C438.735 316.511 438.797 316.85 438.849 317.18C438.907 317.504 438.949 317.786 438.975 318.025C439.007 317.779 439.049 317.494 439.101 317.171C439.153 316.841 439.208 316.507 439.266 316.171C439.331 315.828 439.396 315.511 439.46 315.219C439.525 314.928 439.583 314.692 439.635 314.51L441.703 306.559H444.548L446.616 314.51C446.661 314.685 446.713 314.921 446.771 315.219C446.836 315.511 446.901 315.828 446.965 316.171C447.03 316.514 447.088 316.85 447.14 317.18C447.198 317.504 447.241 317.786 447.266 318.025C447.312 317.702 447.373 317.31 447.451 316.85C447.535 316.384 447.622 315.922 447.713 315.462C447.81 315.002 447.894 314.617 447.966 314.307L449.771 306.559H452.733ZM471.957 306.559L468.345 320.753H464.918L462.995 313.297C462.956 313.154 462.905 312.938 462.84 312.646C462.775 312.355 462.707 312.038 462.636 311.695C462.565 311.345 462.5 311.018 462.442 310.714C462.39 310.404 462.354 310.158 462.335 309.976C462.316 310.158 462.277 310.4 462.218 310.705C462.167 311.009 462.105 311.332 462.034 311.675C461.969 312.018 461.905 312.339 461.84 312.637C461.775 312.934 461.723 313.161 461.684 313.316L459.772 320.753H456.354L452.733 306.559H455.694L457.51 314.307C457.561 314.54 457.62 314.818 457.684 315.142C457.756 315.465 457.823 315.805 457.888 316.161C457.959 316.511 458.021 316.85 458.073 317.18C458.131 317.504 458.173 317.786 458.199 318.025C458.231 317.779 458.273 317.494 458.325 317.171C458.377 316.841 458.432 316.507 458.49 316.171C458.555 315.828 458.62 315.511 458.684 315.219C458.749 314.928 458.807 314.692 458.859 314.51L460.927 306.559H463.772L465.84 314.51C465.885 314.685 465.937 314.921 465.995 315.219C466.06 315.511 466.125 315.828 466.189 316.171C466.254 316.514 466.312 316.85 466.364 317.18C466.422 317.504 466.465 317.786 466.49 318.025C466.536 317.702 466.597 317.31 466.675 316.85C466.759 316.384 466.846 315.922 466.937 315.462C467.034 315.002 467.118 314.617 467.19 314.307L468.995 306.559H471.957Z" fill="white"/>
<path d="M540.054 343.736H497.974V345.693H540.054V343.736Z" fill="white"/>
<path d="M528.915 351.564H497.974V353.521H528.915V351.564Z" fill="white"/>
<path d="M528.915 328.078H497.974V330.035H528.915V328.078Z" fill="white"/>
<path d="M538.816 335.908H497.974V337.865H538.816V335.908Z" fill="white"/>
<path d="M528.311 303.614H497.974V322.207H528.311V303.614Z" fill="#FF0056"/>
<path d="M539.565 296.274H393.265V375.001H539.565V296.274Z" stroke="black" stroke-width="0.542949" stroke-miterlimit="10"/>
<path d="M469.594 328.1H412.347V354.989H469.594V328.1Z" fill="white"/>
<path d="M463.723 329.627H404.519V357.436H463.723V329.627Z" stroke="black" stroke-width="0.542949" stroke-miterlimit="10"/>
<path d="M323.295 342.267C323.295 343.347 322.419 344.224 321.339 344.224C320.258 344.224 319.382 343.347 319.382 342.267C319.382 341.186 320.258 340.31 321.339 340.31C322.419 340.31 323.295 341.186 323.295 342.267Z" stroke="white" stroke-width="0.542949" stroke-miterlimit="10"/>
<path d="M323.295 350.096C323.295 351.176 322.419 352.053 321.339 352.053C320.258 352.053 319.382 351.176 319.382 350.096C319.382 349.015 320.258 348.139 321.339 348.139C322.419 348.138 323.295 349.014 323.295 350.096Z" stroke="white" stroke-width="0.542949" stroke-miterlimit="10"/>
<path d="M323.295 357.924C323.295 359.005 322.419 359.881 321.339 359.881C320.258 359.881 319.382 359.005 319.382 357.924C319.382 356.844 320.258 355.967 321.339 355.967C322.419 355.967 323.295 356.844 323.295 357.924Z" stroke="white" stroke-width="0.542949" stroke-miterlimit="10"/>
<path d="M323.295 365.754C323.295 366.834 322.419 367.71 321.339 367.71C320.258 367.71 319.382 366.834 319.382 365.754C319.382 364.672 320.258 363.797 321.339 363.797C322.419 363.796 323.295 364.672 323.295 365.754Z" stroke="white" stroke-width="0.542949" stroke-miterlimit="10"/>
<path d="M331.124 363.796C332.205 363.796 333.081 364.673 333.081 365.753C333.081 366.834 332.205 367.71 331.124 367.71C330.044 367.71 329.167 366.834 329.167 365.753C329.167 364.673 330.044 363.796 331.124 363.796Z" stroke="white" stroke-width="0.542949" stroke-miterlimit="10"/>
<path d="M338.953 363.796C340.034 363.796 340.91 364.673 340.91 365.753C340.91 366.834 340.034 367.71 338.953 367.71C337.873 367.71 336.997 366.834 336.997 365.753C336.995 364.673 337.872 363.796 338.953 363.796Z" stroke="white" stroke-width="0.542949" stroke-miterlimit="10"/>
<path d="M346.781 363.796C347.862 363.796 348.738 364.673 348.738 365.753C348.738 366.834 347.862 367.71 346.781 367.71C345.701 367.71 344.825 366.834 344.825 365.753C344.825 364.673 345.701 363.796 346.781 363.796Z" stroke="white" stroke-width="0.542949" stroke-miterlimit="10"/>
<path d="M354.611 363.796C355.692 363.796 356.568 364.673 356.568 365.753C356.568 366.834 355.692 367.71 354.611 367.71C353.53 367.71 352.654 366.834 352.654 365.753C352.653 364.673 353.53 363.796 354.611 363.796Z" stroke="white" stroke-width="0.542949" stroke-miterlimit="10"/>
<path d="M362.439 363.796C363.52 363.796 364.396 364.673 364.396 365.753C364.396 366.834 363.52 367.71 362.439 367.71C361.359 367.71 360.482 366.834 360.482 365.753C360.482 364.673 361.359 363.796 362.439 363.796Z" stroke="white" stroke-width="0.542949" stroke-miterlimit="10"/>
<path d="M370.268 363.796C371.349 363.796 372.225 364.673 372.225 365.753C372.225 366.834 371.349 367.71 370.268 367.71C369.188 367.71 368.312 366.834 368.312 365.753C368.31 364.673 369.187 363.796 370.268 363.796Z" stroke="white" stroke-width="0.542949" stroke-miterlimit="10"/>
<path d="M378.096 363.796C379.177 363.796 380.053 364.673 380.053 365.753C380.053 366.834 379.177 367.71 378.096 367.71C377.016 367.71 376.14 366.834 376.14 365.753C376.14 364.673 377.016 363.796 378.096 363.796Z" stroke="white" stroke-width="0.542949" stroke-miterlimit="10"/>
<path d="M385.926 363.796C387.007 363.796 387.883 364.673 387.883 365.753C387.883 366.834 387.007 367.71 385.926 367.71C384.844 367.71 383.969 366.834 383.969 365.753C383.968 364.673 384.844 363.796 385.926 363.796Z" stroke="white" stroke-width="0.542949" stroke-miterlimit="10"/>
<path d="M493.57 341.289H533.244" stroke="black" stroke-width="0.542949" stroke-miterlimit="10"/>
<path d="M493.57 332.482H533.244" stroke="black" stroke-width="0.542949" stroke-miterlimit="10"/>
<path d="M493.57 349.118H533.244" stroke="black" stroke-width="0.542949" stroke-miterlimit="10"/>
</g>
<defs>
<clipPath id="clip0_169_22781">
<rect width="684" height="375" fill="white"/>
</clipPath>
</defs>
</svg>
