<svg width="595" height="375" viewBox="0 0 595 375" fill="none" xmlns="http://www.w3.org/2000/svg">
<g clip-path="url(#clip0_169_22994)">
<g opacity="0.7">
<path d="M517.815 122.581C518.723 116.505 518.606 110.44 517.583 104.575L530.336 98.8475L519.999 75.8418L507.795 81.3164C503.997 76.0106 499.24 71.3166 493.67 67.5404L498.691 54.334L475.116 45.3574L470.169 58.3739C463.408 57.3613 456.636 57.625 450.17 58.9963L444.357 46.0642L421.341 56.4014L427.269 69.6078C422.628 73.1942 418.514 77.5295 415.128 82.5294L401.911 77.4979L392.945 101.084L405.962 106.031C405.129 111.632 405.16 117.233 405.983 122.676L391.701 129.089L402.027 152.106L415.213 146.188C419.137 151.947 424.158 157.032 430.107 161.061L425.086 174.278L448.661 183.244L453.619 170.227C460.834 171.303 468.059 170.945 474.937 169.31L480.633 181.999L503.639 171.662L497.573 158.15C501.782 154.732 505.527 150.692 508.649 146.082L521.866 151.103L530.832 127.528L517.815 122.581ZM488.766 124.691C483.08 139.638 466.351 147.148 451.404 141.462C436.446 135.777 428.936 119.047 434.621 104.09C440.307 89.1431 457.047 81.6328 471.994 87.3183C486.941 93.0038 494.451 109.733 488.766 124.691Z" fill="#D7DBDD"/>
</g>
<g opacity="0.7">
<path d="M225.587 99.6386C226.747 91.8118 226.61 83.9745 225.281 76.4114L241.736 69.0276L228.403 39.3238L212.655 46.3911C207.739 39.5453 201.611 33.4906 194.417 28.6279L200.904 11.5714L170.483 0L164.091 16.7928C155.367 15.4954 146.644 15.8224 138.279 17.605L130.79 0.907149L101.097 14.2401L108.744 31.2861C102.753 35.9167 97.4471 41.5073 93.0802 47.9523L76.0237 41.4651L64.4523 71.8968L81.245 78.2784C80.1691 85.5145 80.2113 92.7506 81.2661 99.7652L62.8384 108.046L76.1713 137.739L93.1856 130.102C98.2488 137.538 104.725 144.099 112.405 149.3L105.917 166.356L136.349 177.928L142.741 161.135C152.055 162.517 161.38 162.053 170.24 159.943L177.593 176.314L207.296 162.981L199.47 145.545C204.891 141.135 209.723 135.914 213.752 129.965L230.808 136.452L242.38 106.031L225.587 99.6386ZM188.099 102.36C180.768 121.653 159.175 131.347 139.883 124.005C120.59 116.674 110.896 95.0818 118.227 75.7891C125.569 56.4963 147.161 46.8025 166.454 54.1441C185.746 61.4751 195.44 83.0673 188.099 102.36Z" fill="#D7DBDD"/>
</g>
<g opacity="0.7">
<path d="M203.668 292.618C204.575 286.553 204.459 280.488 203.436 274.623L216.189 268.895L205.851 245.879L193.647 251.364C189.839 246.048 185.092 241.364 179.523 237.588L184.544 224.371L160.969 215.405L156.011 228.422C149.25 227.409 142.488 227.662 136.012 229.044L130.21 216.112L107.194 226.449L113.122 239.656C108.481 243.242 104.367 247.577 100.981 252.567L87.7639 247.546L78.7979 271.121L91.8144 276.068C90.9811 281.68 91.0022 287.281 91.825 292.724L77.5532 299.137L87.8799 322.153L101.065 316.236C104.989 321.995 110.01 327.069 115.959 331.109L110.938 344.326L134.514 353.292L139.461 340.275C146.686 341.351 153.912 340.993 160.779 339.358L166.475 352.047L189.491 341.71L183.426 328.198C187.635 324.78 191.379 320.74 194.501 316.13L207.718 321.151L216.684 297.576L203.668 292.618ZM174.618 294.728C168.933 309.685 152.203 317.196 137.256 311.51C122.299 305.825 114.788 289.085 120.474 274.138C126.159 259.191 142.889 251.681 157.846 257.366C172.793 263.052 180.304 279.781 174.618 294.728Z" fill="#D7DBDD"/>
</g>
<path d="M326.832 285.625L332.974 325.737L337.421 354.779H247.384L256.832 293.446L258.036 285.625H326.832ZM327.284 285.098H257.584C253.978 308.5 250.374 331.903 246.769 355.307C277.191 355.307 307.613 355.307 338.035 355.307C334.452 331.903 330.869 308.5 327.284 285.098Z" fill="#2C3E50"/>
<path d="M368.732 355.326V364.808H216.073V355.326H368.732ZM369.259 354.798H215.546V365.335H369.259V354.798Z" fill="#2C3E50"/>
<path d="M452.426 125.555V270.108C452.426 280.889 443.682 289.633 432.902 289.633H151.738C140.948 289.633 132.203 280.889 132.203 270.108V125.555C132.203 114.765 140.948 106.02 151.738 106.02H432.902C443.682 106.02 452.426 114.765 452.426 125.555Z" fill="#212E3A"/>
<path d="M425.271 289.149H159.597C148.81 289.149 140.066 280.404 140.066 269.618V133.942C140.066 123.156 148.81 114.411 159.597 114.411H425.271C436.058 114.411 444.802 123.156 444.802 133.942V269.618C444.803 280.404 436.058 289.149 425.271 289.149Z" fill="white"/>
<path d="M237.714 275.836L334.578 276.182" stroke="white" stroke-width="1.05482" stroke-miterlimit="10"/>
<path d="M253.112 280.699L349.978 281.045" stroke="white" stroke-width="1.05482" stroke-miterlimit="10"/>
<path d="M452.426 264.244V270.108C452.426 280.889 443.682 289.633 432.902 289.633H151.738C140.948 289.633 132.203 280.889 132.203 270.108V264.244H452.426Z" fill="#2C3E50"/>
<path d="M131.473 365.333H467.825" stroke="#2C3E50" stroke-width="0.527412" stroke-miterlimit="10"/>
<path d="M106.35 370.196H292.434" stroke="#2C3E50" stroke-width="0.527412" stroke-miterlimit="10"/>
<path d="M298.49 375H484.575" stroke="#2C3E50" stroke-width="0.527412" stroke-miterlimit="10"/>
<path d="M180.638 143.48C179.506 143.48 178.502 143.703 177.625 144.148C176.76 144.58 176.029 145.209 175.431 146.036C174.846 146.862 174.401 147.861 174.096 149.03C173.791 150.2 173.638 151.516 173.638 152.979C173.638 154.949 173.88 156.634 174.363 158.033C174.859 159.419 175.622 160.481 176.652 161.218C177.682 161.943 179.01 162.305 180.638 162.305C181.77 162.305 182.901 162.178 184.033 161.924C185.177 161.67 186.417 161.307 187.752 160.837V165.796C186.519 166.304 185.305 166.667 184.109 166.883C182.914 167.112 181.573 167.226 180.085 167.226C177.211 167.226 174.846 166.635 172.99 165.452C171.146 164.257 169.779 162.591 168.889 160.455C167.999 158.306 167.554 155.801 167.554 152.94C167.554 150.83 167.84 148.897 168.412 147.142C168.984 145.387 169.824 143.868 170.93 142.584C172.036 141.299 173.403 140.308 175.031 139.608C176.658 138.909 178.527 138.559 180.638 138.559C182.024 138.559 183.41 138.737 184.796 139.093C186.195 139.437 187.53 139.913 188.801 140.524L186.894 145.33C185.851 144.834 184.802 144.402 183.747 144.033C182.692 143.664 181.655 143.48 180.638 143.48ZM205.509 166.845L198.796 144.968H198.624C198.649 145.489 198.688 146.278 198.738 147.333C198.802 148.376 198.859 149.488 198.91 150.671C198.961 151.853 198.986 152.921 198.986 153.875V166.845H193.703V138.96H201.752L208.351 160.284H208.466L215.466 138.96H223.514V166.845H218.002V153.646C218.002 152.769 218.015 151.758 218.04 150.613C218.079 149.469 218.123 148.382 218.174 147.352C218.225 146.309 218.263 145.527 218.288 145.006H218.117L210.926 166.845H205.509ZM247.013 159.101C247.013 160.754 246.612 162.191 245.811 163.412C245.01 164.632 243.84 165.573 242.302 166.234C240.776 166.896 238.919 167.226 236.732 167.226C235.766 167.226 234.818 167.163 233.89 167.035C232.975 166.908 232.091 166.724 231.239 166.482C230.4 166.228 229.599 165.917 228.836 165.548V160.055C230.158 160.64 231.532 161.167 232.956 161.638C234.38 162.108 235.791 162.343 237.19 162.343C238.156 162.343 238.932 162.216 239.517 161.962C240.114 161.708 240.547 161.358 240.814 160.913C241.081 160.468 241.214 159.959 241.214 159.387C241.214 158.688 240.979 158.09 240.509 157.594C240.038 157.098 239.39 156.634 238.563 156.202C237.749 155.77 236.828 155.305 235.798 154.81C235.149 154.504 234.443 154.136 233.68 153.703C232.918 153.258 232.193 152.718 231.506 152.082C230.819 151.446 230.254 150.677 229.809 149.774C229.376 148.859 229.16 147.765 229.16 146.494C229.16 144.828 229.542 143.404 230.305 142.221C231.067 141.039 232.155 140.136 233.566 139.513C234.99 138.877 236.669 138.559 238.601 138.559C240.051 138.559 241.431 138.731 242.74 139.074C244.063 139.405 245.442 139.888 246.879 140.524L244.972 145.12C243.688 144.599 242.537 144.199 241.52 143.919C240.502 143.626 239.466 143.48 238.411 143.48C237.673 143.48 237.044 143.601 236.522 143.843C236.001 144.071 235.607 144.402 235.34 144.834C235.073 145.254 234.939 145.743 234.939 146.303C234.939 146.964 235.13 147.524 235.511 147.981C235.906 148.426 236.491 148.859 237.266 149.278C238.055 149.698 239.034 150.188 240.203 150.747C241.628 151.421 242.842 152.127 243.846 152.864C244.864 153.589 245.646 154.447 246.192 155.439C246.739 156.418 247.013 157.639 247.013 159.101Z" fill="#F6B93B"/>
<path d="M233.428 182.726H168.308V236.499H233.428V182.726Z" fill="white"/>
<path d="M233.165 182.989V236.236H168.571V182.989H233.165ZM233.692 182.462H168.044V236.763H233.692V182.462Z" fill="#2C3E50"/>
<path d="M176.656 203.052H175.339L179.148 192.677H180.445L184.255 203.052H182.938L179.837 194.318H179.756L176.656 203.052ZM177.142 198.999H182.451V200.114H177.142V198.999ZM187.998 203.234C187.505 203.234 187.058 203.141 186.656 202.956C186.254 202.766 185.935 202.495 185.698 202.14C185.462 201.782 185.344 201.35 185.344 200.843C185.344 200.397 185.432 200.036 185.607 199.759C185.783 199.479 186.018 199.259 186.311 199.1C186.605 198.942 186.929 198.824 187.284 198.746C187.642 198.665 188.002 198.601 188.363 198.553C188.836 198.493 189.219 198.447 189.513 198.417C189.81 198.383 190.026 198.327 190.161 198.249C190.3 198.172 190.369 198.037 190.369 197.844V197.804C190.369 197.304 190.232 196.915 189.959 196.638C189.689 196.362 189.278 196.223 188.728 196.223C188.157 196.223 187.709 196.348 187.385 196.598C187.061 196.848 186.833 197.115 186.701 197.398L185.567 196.993C185.769 196.52 186.039 196.152 186.377 195.889C186.718 195.622 187.09 195.436 187.492 195.332C187.897 195.223 188.295 195.169 188.687 195.169C188.937 195.169 189.224 195.2 189.548 195.261C189.876 195.318 190.192 195.438 190.496 195.62C190.803 195.803 191.058 196.078 191.261 196.446C191.463 196.814 191.565 197.307 191.565 197.925V203.052H190.369V201.998H190.308C190.227 202.167 190.092 202.348 189.903 202.54C189.714 202.733 189.462 202.896 189.148 203.031C188.834 203.167 188.451 203.234 187.998 203.234ZM188.181 202.16C188.653 202.16 189.052 202.067 189.376 201.882C189.704 201.696 189.95 201.456 190.116 201.162C190.285 200.868 190.369 200.559 190.369 200.235V199.141C190.318 199.202 190.207 199.257 190.035 199.308C189.866 199.355 189.67 199.398 189.447 199.435C189.228 199.469 189.013 199.499 188.804 199.526C188.598 199.55 188.431 199.57 188.302 199.587C187.991 199.627 187.701 199.693 187.431 199.784C187.164 199.872 186.948 200.006 186.782 200.185C186.62 200.36 186.539 200.6 186.539 200.904C186.539 201.319 186.693 201.633 187 201.846C187.311 202.055 187.704 202.16 188.181 202.16Z" fill="#E74C3C"/>
<path d="M223.967 202.724H193.438V203.534H223.967V202.724Z" fill="#E74C3C"/>
<path d="M224.777 212.45H175.338V213.26H224.777V212.45Z" fill="#E0E0E2"/>
<path d="M208.567 219.743H175.338V220.553H208.567V219.743Z" fill="#E0E0E2"/>
<path d="M224.777 227.037H175.338V227.847H224.777V227.037Z" fill="#E0E0E2"/>
<path d="M415.857 178.847H350.458V179.808H415.857V178.847Z" fill="#E0E0E2"/>
<path d="M415.857 184.612H350.458V185.573H415.857V184.612Z" fill="#E0E0E2"/>
<path d="M415.857 190.376H350.458V191.337H415.857V190.376Z" fill="#E0E0E2"/>
<path d="M377.279 206.246V236.256H349.652V198.584H368.988L377.279 206.246Z" fill="#E74C3C"/>
<path d="M377.308 206.272L377.279 206.275L368.429 207.433L368.882 198.584L368.888 198.489L368.988 198.584L377.279 206.246L377.308 206.272Z" fill="#2C3E50"/>
<path d="M416.308 206.246V236.256H388.681V198.584H408.017L416.308 206.246Z" fill="#E74C3C"/>
<path d="M416.336 206.272L416.308 206.275L407.458 207.433L407.91 198.584L407.916 198.489L408.017 198.584L416.308 206.246L416.336 206.272Z" fill="#2C3E50"/>
<path d="M328.306 198.889H262.907V199.85H328.306V198.889Z" fill="#E0E0E2"/>
<path d="M302.99 204.653H262.907V205.614H302.99V204.653Z" fill="#E0E0E2"/>
<path d="M328.306 216.821H262.907V217.782H328.306V216.821Z" fill="#E0E0E2"/>
<path d="M328.306 233.698H262.907V234.659H328.306V233.698Z" fill="#E0E0E2"/>
<path d="M302.99 222.585H262.907V223.546H302.99V222.585Z" fill="#E0E0E2"/>
<path d="M302.99 227.859H262.907V228.82H302.99V227.859Z" fill="#E0E0E2"/>
<path d="M328.306 210.418H262.907V211.379H328.306V210.418Z" fill="#E0E0E2"/>
<path d="M330.303 137.984V182.923H265.588V137.984H330.303ZM330.831 137.457H265.061V183.451H330.831V137.457Z" fill="#2C3E50"/>
<path d="M289.888 148.955L266.762 183.449H313.013L289.888 148.955Z" fill="#2C3E50"/>
<path d="M278.399 146.655C278.399 149.195 276.34 151.254 273.8 151.254C271.26 151.254 269.201 149.195 269.201 146.655C269.201 144.115 271.26 142.056 273.8 142.056C276.34 142.056 278.399 144.115 278.399 146.655Z" fill="#FED330"/>
<path d="M266.295 183.465H279.187L289.887 148.97L266.295 183.465Z" fill="#2C3E50"/>
<path d="M301.399 148.955L277.808 183.449H324.99L301.399 148.955Z" fill="#1ABC9C"/>
<path d="M277.808 183.449H290.7L301.399 148.955L277.808 183.449Z" fill="#16A085"/>
<path d="M227.969 17.2939H140.15V78.7057H227.969V17.2939Z" fill="white"/>
<path d="M222.579 21.8736V82.2306H135.814V21.8736H222.579ZM223.106 21.3462H135.287V82.758H223.105V21.3462H223.106Z" fill="#2C3E50"/>
<path d="M165.752 43.4411L150.989 51.9641L165.752 60.4871V66.1694L145.248 54.3322V49.595L165.752 37.7588V43.4411Z" fill="#FED330"/>
<path d="M192.161 44.0974L206.923 52.6203L192.161 61.1433V66.8257L212.664 54.9884V50.2512L192.161 38.415V44.0974Z" fill="#FED330"/>
<path d="M171.375 30.1101L166.726 32.2778L185.84 73.2696L190.489 71.1018L171.375 30.1101Z" fill="#FED330"/>
<path d="M235.065 15.79H143.482V27.1368H235.065V15.79Z" fill="#2C3E50"/>
<path d="M149.966 21.4626C149.966 22.3581 149.24 23.0838 148.345 23.0838C147.449 23.0838 146.724 22.3581 146.724 21.4626C146.724 20.567 147.449 19.8413 148.345 19.8413C149.24 19.8413 149.966 20.567 149.966 21.4626Z" fill="#EB2F06"/>
<path d="M155.639 21.4626C155.639 22.3581 154.913 23.0838 154.018 23.0838C153.122 23.0838 152.396 22.3581 152.396 21.4626C152.396 20.567 153.122 19.8413 154.018 19.8413C154.913 19.8413 155.639 20.567 155.639 21.4626Z" fill="#F6B93B"/>
<path d="M161.312 21.4626C161.312 22.3581 160.587 23.0838 159.691 23.0838C158.796 23.0838 158.07 22.3581 158.07 21.4626C158.07 20.567 158.796 19.8413 159.691 19.8413C160.587 19.8413 161.312 20.567 161.312 21.4626Z" fill="#2BCBBA"/>
<path d="M493.001 104.533H411.5V179.46H493.001V104.533Z" fill="white"/>
<path d="M492.737 104.797V179.197H411.764V104.797H492.737ZM493.264 104.27H411.237V179.724H493.264V104.27Z" fill="#2C3E50"/>
<path d="M487.934 109.601V184.001H406.961V109.601H487.934ZM488.461 109.073H406.434V184.528H488.461V109.073Z" fill="#2C3E50"/>
<path d="M475.01 143.962C475.01 146.178 474.694 148.308 474.093 150.323C472.975 154.184 470.833 157.612 467.996 160.323C464.019 164.099 458.671 166.441 452.785 166.525C452.669 166.536 452.564 166.536 452.437 166.536C452.321 166.536 452.216 166.536 452.089 166.525C446.203 166.441 440.866 164.099 436.889 160.323C434.052 157.612 431.91 154.184 430.792 150.323C430.191 148.308 429.875 146.178 429.875 143.962C429.875 142.897 429.948 141.853 430.096 140.83C430.834 135.482 433.44 130.735 437.248 127.275C441.172 123.689 446.382 121.484 452.089 121.4C452.216 121.389 452.321 121.389 452.437 121.389C452.564 121.389 452.669 121.389 452.785 121.4C458.502 121.484 463.703 123.689 467.627 127.275C471.435 130.735 474.05 135.482 474.778 140.83C474.937 141.853 475.01 142.897 475.01 143.962Z" fill="#1ABC9C"/>
<path d="M470.791 143.962C470.791 146.178 470.475 148.308 469.873 150.323C468.755 154.184 466.614 157.612 463.777 160.323C459.8 164.099 454.452 166.441 448.566 166.525C448.45 166.536 448.345 166.536 448.218 166.536C448.102 166.536 447.996 166.536 447.87 166.525C441.984 166.441 436.647 164.099 432.67 160.323C429.832 157.612 427.691 154.184 426.573 150.323C425.972 148.308 425.655 146.178 425.655 143.962C425.655 142.897 425.729 141.853 425.877 140.83C426.615 135.482 429.221 130.735 433.028 127.275C436.952 123.689 442.163 121.484 447.87 121.4C447.996 121.389 448.102 121.389 448.218 121.389C448.345 121.389 448.45 121.389 448.566 121.4C454.283 121.484 459.483 123.689 463.407 127.275C467.215 130.735 469.831 135.482 470.559 140.83C470.717 141.853 470.791 142.897 470.791 143.962Z" stroke="#2C3E50" stroke-width="0.527412" stroke-miterlimit="10"/>
<path d="M463.413 127.28C462.072 128.51 460.573 129.576 458.965 130.453C455.772 132.186 452.108 133.168 448.222 133.168C444.336 133.168 440.673 132.187 437.48 130.453C435.87 129.576 434.372 128.51 433.032 127.28C436.957 123.688 442.164 121.484 447.875 121.398C447.993 121.392 448.104 121.392 448.222 121.392C448.34 121.392 448.451 121.392 448.569 121.398C454.28 121.484 459.487 123.688 463.413 127.28Z" stroke="#2C3E50" stroke-width="0.527412" stroke-miterlimit="10"/>
<path d="M463.772 160.318C459.801 164.099 454.456 166.441 448.568 166.526C448.45 166.533 448.339 166.533 448.221 166.533C448.103 166.533 447.992 166.533 447.874 166.526C441.986 166.441 436.641 164.099 432.67 160.318C434.043 159.01 435.581 157.878 437.249 156.942C440.494 155.136 444.242 154.103 448.22 154.103C452.198 154.103 455.947 155.136 459.191 156.942C460.861 157.878 462.398 159.01 463.772 160.318Z" stroke="#2C3E50" stroke-width="0.527412" stroke-miterlimit="10"/>
<path d="M461.634 143.962C461.634 148.79 460.731 153.272 459.194 156.942C456.826 162.595 452.959 166.336 448.57 166.526C448.451 166.532 448.341 166.532 448.223 166.532C448.104 166.532 447.994 166.532 447.876 166.526C443.485 166.336 439.619 162.595 437.251 156.942C435.714 153.272 434.812 148.79 434.812 143.962C434.812 138.899 435.806 134.221 437.481 130.453C439.862 125.095 443.625 121.582 447.877 121.398C447.995 121.392 448.105 121.392 448.224 121.392C448.342 121.392 448.453 121.392 448.571 121.398C452.823 121.582 456.585 125.095 458.966 130.453C460.639 134.221 461.634 138.899 461.634 143.962Z" stroke="#2C3E50" stroke-width="0.527412" stroke-miterlimit="10"/>
<path d="M448.222 121.392V166.532" stroke="#2C3E50" stroke-width="0.527412" stroke-miterlimit="10"/>
<path d="M425.651 143.962H470.793" stroke="#2C3E50" stroke-width="0.527412" stroke-miterlimit="10"/>
<path d="M189.07 255.647V299.263C189.07 303.135 185.929 306.276 182.056 306.276H158.02L150.133 319.956C148.587 322.627 144.724 322.627 143.178 319.956L135.29 306.276H111.54C107.669 306.276 104.527 303.135 104.527 299.263V255.647C104.527 251.775 107.668 248.633 111.54 248.633H182.056C185.929 248.634 189.07 251.776 189.07 255.647Z" fill="#F6B93B"/>
<path d="M173.248 250.373V293.989C173.248 297.861 170.106 301.002 166.234 301.002H142.198L134.311 314.682C132.765 317.353 128.902 317.353 127.355 314.682L119.467 301.002H95.7181C91.8469 301.002 88.7046 297.861 88.7046 293.989V250.373C88.7046 246.501 91.8459 243.359 95.7181 243.359H166.234C170.106 243.36 173.248 246.502 173.248 250.373Z" fill="#E74C3C"/>
<path d="M158.069 248.211C161.644 248.211 164.555 251.12 164.555 254.697V298.313C164.555 301.888 161.645 304.799 158.069 304.799H134.031H133.726L133.575 305.062L125.688 318.742C125.057 319.832 123.927 320.483 122.667 320.483C121.406 320.483 120.276 319.832 119.646 318.743L111.758 305.063L111.606 304.8H111.301H87.5526C83.9767 304.8 81.0665 301.89 81.0665 298.314V254.698C81.0665 251.122 83.9757 248.212 87.5526 248.212H158.069M158.069 247.683H87.5526C83.6814 247.683 80.5391 250.824 80.5391 254.697V298.313C80.5391 302.185 83.6803 305.326 87.5526 305.326H111.301L119.189 319.006C119.962 320.341 121.314 321.009 122.667 321.009C124.019 321.009 125.371 320.341 126.144 319.006L134.031 305.326H158.069C161.94 305.326 165.082 302.185 165.082 298.313V254.697C165.081 250.824 161.94 247.683 158.069 247.683Z" fill="#2C3E50"/>
<path d="M105.998 270.834C108.33 270.834 110.227 272.732 110.227 275.063C110.227 277.395 108.329 279.292 105.998 279.292C103.666 279.292 101.769 277.394 101.769 275.063C101.768 272.732 103.666 270.834 105.998 270.834ZM105.998 269.779C103.079 269.779 100.714 272.145 100.714 275.063C100.714 277.982 103.08 280.347 105.998 280.347C108.917 280.347 111.282 277.981 111.282 275.063C111.282 272.145 108.916 269.779 105.998 269.779Z" fill="#2C3E50"/>
<path d="M129.055 270.834C131.387 270.834 133.283 272.732 133.283 275.063C133.283 277.395 131.386 279.292 129.055 279.292C126.723 279.292 124.826 277.394 124.826 275.063C124.826 272.732 126.723 270.834 129.055 270.834ZM129.055 269.779C126.136 269.779 123.771 272.145 123.771 275.063C123.771 277.982 126.137 280.347 129.055 280.347C131.973 280.347 134.338 277.981 134.338 275.063C134.339 272.145 131.973 269.779 129.055 269.779Z" fill="#2C3E50"/>
<path d="M152.112 270.834C154.444 270.834 156.341 272.732 156.341 275.063C156.341 277.395 154.443 279.292 152.112 279.292C149.781 279.292 147.883 277.394 147.883 275.063C147.882 272.732 149.78 270.834 152.112 270.834ZM152.112 269.779C149.194 269.779 146.829 272.145 146.829 275.063C146.829 277.982 149.195 280.347 152.112 280.347C155.031 280.347 157.396 277.981 157.396 275.063C157.396 272.145 155.03 269.779 152.112 269.779Z" fill="#2C3E50"/>
<path d="M163.386 183.866C163.386 190.351 158.131 195.606 151.646 195.606C151.578 195.606 151.501 195.606 151.435 195.597V195.606H91.0153C90.5058 195.606 90.0069 195.578 89.5164 195.51C83.7328 194.771 79.2656 189.842 79.2656 183.866C79.2656 177.381 84.5208 172.126 91.0153 172.126C92.4657 172.126 93.8496 172.386 95.127 172.865C94.8095 171.53 94.6365 170.137 94.6365 168.705C94.6365 158.8 102.668 150.769 112.573 150.769C120.393 150.769 127.041 155.774 129.491 162.749C131.413 161.394 133.747 160.597 136.274 160.597C142.759 160.597 148.014 165.852 148.014 172.337C148.014 172.461 148.014 172.578 148.004 172.702C149.148 172.328 150.378 172.125 151.646 172.125C158.131 172.127 163.386 177.382 163.386 183.866Z" fill="#1ABC9C"/>
<path d="M91.015 195.607H89.5161V195.511C90.0066 195.578 90.5066 195.607 91.015 195.607Z" fill="#1ABC9C"/>
<path d="M106.811 154.179C114.189 154.179 120.788 158.852 123.231 165.807L123.462 166.465L124.033 166.063C125.94 164.718 128.18 164.007 130.511 164.007C136.694 164.007 141.724 169.036 141.724 175.22C141.724 175.331 141.725 175.433 141.716 175.545L141.655 176.333L142.406 176.087C143.52 175.722 144.689 175.537 145.882 175.537C152.065 175.537 157.095 180.567 157.095 186.75C157.095 192.932 152.066 197.963 145.882 197.963C145.865 197.963 145.849 197.963 145.831 197.963C145.802 197.963 145.773 197.962 145.746 197.959L145.144 197.882V197.963H85.2521C84.7395 197.963 84.2722 197.933 83.8207 197.871C78.2397 197.157 74.0309 192.377 74.0309 186.75C74.0309 180.568 79.0656 175.537 85.2532 175.537C86.6118 175.537 87.9335 175.775 89.1792 176.243L90.1075 176.592L89.8786 175.628C89.5632 174.299 89.4028 172.94 89.4028 171.59C89.4007 161.989 97.2106 154.179 106.811 154.179ZM106.811 153.652C96.9058 153.652 88.8744 161.683 88.8744 171.588C88.8744 173.019 89.0474 174.413 89.3638 175.748C88.0864 175.268 86.7025 175.009 85.2521 175.009C78.7576 175.009 73.5024 180.264 73.5024 186.749C73.5024 192.725 77.9696 197.653 83.7532 198.393C84.2427 198.461 84.7426 198.489 85.2521 198.489H145.67V198.48C145.738 198.489 145.815 198.489 145.881 198.489C152.366 198.489 157.621 193.234 157.621 186.749C157.621 180.264 152.366 175.009 145.881 175.009C144.613 175.009 143.383 175.21 142.24 175.585C142.25 175.46 142.249 175.344 142.249 175.22C142.249 168.735 136.994 163.48 130.509 163.48C127.983 163.48 125.649 164.277 123.727 165.631C121.279 158.658 114.63 153.652 106.811 153.652Z" fill="#2C3E50"/>
<path d="M83.7529 198.392V198.488H85.2518C84.7424 198.488 84.2424 198.46 83.7529 198.392Z" fill="#2C3E50"/>
<path d="M110.288 170.254L117.309 178.342H112.854H112.326V178.87V191.771H108.571V178.87V178.342H108.044H103.267L110.288 170.254ZM110.288 169.45L102.111 178.87H108.044V192.299H112.854V178.87H118.465L110.288 169.45Z" fill="#2C3E50"/>
<path d="M130.365 169.978V182.879V183.407H130.892H135.348L128.327 191.495L121.306 183.407H126.082H126.61V182.879V169.978H130.365ZM130.892 169.45H126.082V182.879H120.15L128.327 192.299L136.504 182.879H130.892V169.45Z" fill="#2C3E50"/>
<path d="M483.485 17.3276H395.667V78.7394H483.485V17.3276Z" fill="white"/>
<path d="M478.095 21.9078V82.2648H391.331V21.9078H478.095ZM478.622 21.3804H390.804V82.7922H478.622V21.3804Z" fill="#2C3E50"/>
<path d="M444.261 35.4654C449.788 37.7945 453.669 43.2627 453.669 49.637C453.669 58.1262 446.787 65.0079 438.298 65.0079C429.808 65.0079 422.927 58.1262 422.927 49.637C422.927 41.1478 429.808 34.2661 438.298 34.2661" fill="#E0E0E2"/>
<path d="M444.261 35.4654C449.788 37.7945 453.669 43.2627 453.669 49.637C453.669 58.1262 446.787 65.0079 438.298 65.0079C429.808 65.0079 422.927 58.1262 422.927 49.637C422.927 41.1478 429.808 34.2661 438.298 34.2661" stroke="#2C3E50" stroke-width="0.527412" stroke-miterlimit="10"/>
<path d="M448.864 48.0814L432.817 57.3459V38.8169L448.864 48.0814Z" fill="#EB2F06"/>
<path d="M492.4 73.0654H400.817V75.4968H492.4V73.0654Z" fill="#0C2461"/>
<path d="M451.066 73.0654H400.817V75.4968H451.066V73.0654Z" fill="#EB2F06"/>
<path d="M492.4 13.9019H400.817V25.2486H492.4V13.9019Z" fill="#2C3E50"/>
<path d="M407.302 19.5744C407.302 20.4699 406.576 21.1956 405.68 21.1956C404.785 21.1956 404.059 20.4699 404.059 19.5744C404.059 18.6788 404.785 17.9531 405.68 17.9531C406.576 17.9531 407.302 18.6799 407.302 19.5744Z" fill="#E74C3C"/>
<path d="M412.974 19.5744C412.974 20.4699 412.249 21.1956 411.353 21.1956C410.458 21.1956 409.732 20.4699 409.732 19.5744C409.732 18.6788 410.458 17.9531 411.353 17.9531C412.249 17.9531 412.974 18.6799 412.974 19.5744Z" fill="#FED330"/>
<path d="M418.648 19.5744C418.648 20.4699 417.923 21.1956 417.027 21.1956C416.131 21.1956 415.406 20.4699 415.406 19.5744C415.406 18.6788 416.131 17.9531 417.027 17.9531C417.923 17.9531 418.648 18.6799 418.648 19.5744Z" fill="#1ABC9C"/>
<path d="M494.033 245.17H406.215V306.582H494.033V245.17Z" fill="white"/>
<path d="M488.643 249.75V310.107H401.879V249.75H488.643ZM489.17 249.222H401.352V310.634H489.17V249.222Z" fill="#2C3E50"/>
<path d="M454.808 263.307C460.336 265.636 464.216 271.104 464.216 277.479C464.216 285.968 457.335 292.85 448.845 292.85C440.356 292.85 433.475 285.968 433.475 277.479C433.475 268.99 440.356 262.108 448.845 262.108" fill="#E0E0E2"/>
<path d="M454.808 263.307C460.336 265.636 464.216 271.104 464.216 277.479C464.216 285.968 457.335 292.85 448.845 292.85C440.356 292.85 433.475 285.968 433.475 277.479C433.475 268.99 440.356 262.108 448.845 262.108" stroke="#2C3E50" stroke-width="0.527412" stroke-miterlimit="10"/>
<path d="M459.413 275.923L443.366 285.188V266.659L459.413 275.923Z" fill="#EB2F06"/>
<path d="M502.949 300.907H411.366V303.339H502.949V300.907Z" fill="#0C2461"/>
<path d="M461.614 300.907H411.366V303.339H461.614V300.907Z" fill="#EB2F06"/>
<path d="M502.949 241.744H411.366V253.09H502.949V241.744Z" fill="#2C3E50"/>
<path d="M417.85 247.416C417.85 248.312 417.124 249.037 416.229 249.037C415.333 249.037 414.607 248.312 414.607 247.416C414.607 246.521 415.333 245.795 416.229 245.795C417.124 245.795 417.85 246.521 417.85 247.416Z" fill="#E74C3C"/>
<path d="M423.523 247.416C423.523 248.312 422.797 249.037 421.902 249.037C421.006 249.037 420.28 248.312 420.28 247.416C420.28 246.521 421.006 245.795 421.902 245.795C422.797 245.795 423.523 246.521 423.523 247.416Z" fill="#FED330"/>
<path d="M429.197 247.416C429.197 248.312 428.471 249.037 427.575 249.037C426.68 249.037 425.954 248.312 425.954 247.416C425.954 246.521 426.68 245.795 427.575 245.795C428.471 245.795 429.197 246.521 429.197 247.416Z" fill="#1ABC9C"/>
<path d="M345.789 45.172C345.789 54.9365 341.876 63.7875 335.494 70.2251C329.039 76.7713 320.06 80.8313 310.131 80.8313C300.933 80.8313 292.54 77.3388 286.212 71.6333C279.006 65.087 274.472 55.6685 274.472 45.173C274.472 25.4784 290.435 9.51367 310.131 9.51367C329.825 9.51367 345.789 25.4774 345.789 45.172Z" fill="white"/>
<path d="M310.068 3.71198C333.475 3.71198 352.52 22.7558 352.52 46.1644C352.52 57.4257 348.168 68.0172 340.263 75.9906C332.235 84.1328 321.511 88.6168 310.069 88.6168C299.537 88.6168 289.424 84.7277 281.594 77.6678C272.711 69.5973 267.616 58.1145 267.616 46.1654C267.615 22.7558 286.659 3.71198 310.068 3.71198ZM310.068 3.18457C286.33 3.18457 267.088 22.4267 267.088 46.1644C267.088 58.8159 272.554 70.1669 281.238 78.057C288.865 84.9334 298.982 89.1432 310.068 89.1432C322.036 89.1432 332.858 84.2498 340.639 76.3598C348.33 68.6015 353.048 57.9331 353.048 46.1633C353.046 22.4256 333.805 3.18457 310.068 3.18457Z" fill="#2C3E50"/>
<path d="M311.474 48.0258C319.048 48.0258 325.188 41.8855 325.188 34.311C325.188 26.7365 319.048 20.5962 311.474 20.5962C303.899 20.5962 297.759 26.7365 297.759 34.311C297.759 41.8855 303.899 48.0258 311.474 48.0258Z" fill="#0A3D62"/>
<path d="M335.493 70.2251C329.037 76.7714 320.059 80.8314 310.13 80.8314C300.932 80.8314 292.538 77.3388 286.21 71.6333C288.496 62.142 295.72 54.7002 304.881 52.3596C306.855 51.848 308.922 51.5737 311.043 51.5737C312.726 51.5737 314.39 51.7383 315.981 52.0674C325.253 53.9492 332.732 61.0081 335.493 70.2251Z" fill="#0A3D62"/>
</g>
<defs>
<clipPath id="clip0_169_22994">
<rect width="594.246" height="375" fill="white"/>
</clipPath>
</defs>
</svg>
