<svg width="595" height="375" viewBox="0 0 595 375" fill="none" xmlns="http://www.w3.org/2000/svg">
<path d="M119.896 34.5311V270.836H294.981V21.5107H132.916C125.725 21.5107 119.896 27.34 119.896 34.5311Z" fill="#AAA49B"/>
<path d="M457.046 21.5107H294.981V270.836H470.066V34.5311C470.066 27.34 464.237 21.5107 457.046 21.5107Z" fill="#83807B"/>
<path d="M452.891 252.033L452.891 37.4287L137.441 37.4287L137.441 252.033L452.891 252.033Z" fill="#C9E1EC"/>
<path d="M503.782 300.584H86.18C72.1142 300.584 60.7114 289.182 60.7114 275.116V270.837H529.25V275.116C529.25 289.182 517.847 300.584 503.782 300.584Z" fill="#C9C2B9"/>
<path opacity="0.44" d="M233.669 253.793H185.363L234.226 36.8301L282.347 38.273L233.669 253.793Z" fill="white"/>
<path opacity="0.44" d="M374.129 253.793H283.462L332.14 38.2734H422.807L374.129 253.793Z" fill="white"/>
<path d="M361.769 226.615H228.66V375H361.769V226.615Z" fill="#F7E7C1"/>
<path d="M357.504 210.434H232.925C230.569 210.434 228.66 212.343 228.66 214.699V226.615H361.769V214.699C361.769 212.343 359.86 210.434 357.504 210.434Z" fill="#202526"/>
<path d="M241.5 222.457C243.661 221.95 245.001 219.786 244.494 217.625C243.986 215.464 241.822 214.124 239.661 214.632C237.5 215.139 236.16 217.303 236.668 219.464C237.175 221.625 239.339 222.965 241.5 222.457Z" fill="#CD3636"/>
<path d="M254.251 222.541C256.452 222.255 258.005 220.239 257.719 218.038C257.433 215.836 255.417 214.283 253.216 214.569C251.014 214.855 249.461 216.872 249.747 219.073C250.033 221.274 252.05 222.827 254.251 222.541Z" fill="#FFBE31"/>
<path d="M268.925 221.963C270.833 220.829 271.461 218.363 270.327 216.454C269.192 214.546 266.726 213.919 264.818 215.053C262.91 216.187 262.282 218.653 263.416 220.562C264.55 222.47 267.017 223.097 268.925 221.963Z" fill="#76C130"/>
<path d="M351.994 278.116H240.593V282.492H351.994V278.116Z" fill="#454587"/>
<path d="M351.994 290.282H275.307V294.658H351.994V290.282Z" fill="#454587"/>
<path d="M351.994 302.448H275.307V306.824H351.994V302.448Z" fill="#454587"/>
<path d="M351.994 314.614H275.307V318.99H351.994V314.614Z" fill="#454587"/>
<path d="M313.575 326.78H240.593V331.156H313.575V326.78Z" fill="#454587"/>
<path d="M313.575 338.946H240.593V343.322H313.575V338.946Z" fill="#454587"/>
<path d="M313.575 351.112H240.593V355.488H313.575V351.112Z" fill="#454587"/>
<path d="M351.994 326.746H320.21V355.502H351.994V326.746Z" fill="#CD3636"/>
<path d="M352.063 239.15H240.578V270.339H352.063V239.15Z" fill="#CD3636"/>
<path d="M349.851 268.128V241.362L242.79 241.362V268.128H349.851Z" fill="white"/>
<path d="M255.73 319.788C264.099 319.788 270.883 313.004 270.883 304.636C270.883 296.267 264.099 289.483 255.73 289.483C247.362 289.483 240.578 296.267 240.578 304.636C240.578 313.004 247.362 319.788 255.73 319.788Z" fill="#CD3636"/>
<path d="M521.847 97.9043H456.077C449.574 97.9043 444.301 103.177 444.301 109.681V112.4V149.012C444.301 155.516 449.574 160.789 456.077 160.789H482.963H494.961H500.957L528.844 176.323L521.732 160.789H521.847C528.352 160.789 533.624 155.516 533.624 149.012V112.4V109.681C533.624 103.177 528.351 97.9043 521.847 97.9043Z" fill="#CD3636"/>
<path d="M446.242 108.21C418.194 108.21 395.457 126.133 395.457 148.241C395.457 155.529 397.928 162.361 402.246 168.247L391.573 191.558L423.908 184.201C430.649 186.807 438.229 188.272 446.243 188.272C474.291 188.272 497.029 170.35 497.029 148.241C497.028 126.133 474.291 108.21 446.242 108.21Z" fill="#454587"/>
<path d="M425.861 149.757C426.409 146.377 424.114 143.193 420.735 142.645C417.356 142.096 414.171 144.391 413.623 147.771C413.075 151.15 415.369 154.334 418.749 154.883C422.128 155.431 425.313 153.136 425.861 149.757Z" fill="#F7EEE0"/>
<path d="M452.449 149.756C452.998 146.376 450.703 143.192 447.323 142.644C443.944 142.095 440.76 144.39 440.211 147.77C439.663 151.149 441.958 154.333 445.337 154.882C448.717 155.43 451.901 153.135 452.449 149.756Z" fill="#F7EEE0"/>
<path d="M478.648 151.13C479.958 147.967 478.456 144.34 475.293 143.03C472.13 141.72 468.504 143.222 467.194 146.385C465.883 149.548 467.385 153.174 470.549 154.485C473.712 155.795 477.338 154.293 478.648 151.13Z" fill="#F7EEE0"/>
<path d="M142.457 208.458C177.652 208.458 206.184 179.926 206.184 144.731C206.184 109.535 177.652 81.0039 142.457 81.0039C107.261 81.0039 78.7295 109.535 78.7295 144.731C78.7295 179.926 107.261 208.458 142.457 208.458Z" fill="#CD3636"/>
<path d="M183.679 185.956C206.447 163.187 206.448 126.272 183.679 103.503C160.91 80.7346 123.995 80.7346 101.226 103.503C78.4576 126.272 78.4576 163.187 101.226 185.956C123.995 208.724 160.91 208.724 183.679 185.956Z" fill="#F7E7C1"/>
<path d="M140.505 182.631C146.413 176.723 147.99 168.722 144.028 164.76C140.066 160.798 132.064 162.375 126.156 168.283C120.248 174.191 118.671 182.192 122.633 186.155C126.595 190.117 134.597 188.539 140.505 182.631Z" fill="#507BBE"/>
<path d="M142.653 169.911C140.895 169.911 139.47 168.486 139.47 166.728V101.935C139.47 100.049 140.755 98.4458 142.594 98.0352C144.437 97.623 146.285 98.53 147.089 100.24C149.006 104.319 151.234 107.155 153.711 108.67C155.003 109.461 156.211 109.808 157.49 110.175C159.761 110.827 162.336 111.566 164.522 114.594C166.855 117.827 167.888 122.6 167.593 128.78C167.509 130.536 166.021 131.894 164.261 131.808C162.505 131.724 161.15 130.232 161.233 128.476C161.513 122.617 160.369 119.719 159.359 118.32C158.497 117.125 157.675 116.852 155.734 116.294C154.256 115.87 152.418 115.342 150.389 114.102C148.763 113.107 147.243 111.782 145.837 110.138V166.728C145.836 168.486 144.411 169.911 142.653 169.911Z" fill="#507BBE"/>
<path d="M222.026 0H157.336C152.67 0 148.887 3.78272 148.887 8.44872V46.8522C148.887 51.5182 152.67 55.3009 157.336 55.3009H174.778L189.681 73.7758L204.584 55.3009H222.026C226.692 55.3009 230.474 51.5182 230.474 46.8522V8.44872C230.474 3.78272 226.692 0 222.026 0Z" fill="#454587"/>
<path d="M180.457 29.0259C179.856 28.6449 179.629 28.9229 178.459 28.5345L176.584 27.6204C175.777 27.0787 175.352 26.5667 174.98 26.4174L174.978 26.4228C175.008 26.518 175.034 26.6143 175.057 26.7122C174.783 26.1888 174.663 25.662 174.643 25.1694C174.963 24.8306 175.272 24.4488 175.546 24.0319C176.286 23.0695 176.899 21.896 177.121 20.6099C177.777 19.1561 177.584 17.2429 177.098 15.5438C176.701 14.1551 176.21 13.0125 174.748 12.8967C173.659 12.8105 173.825 13.2773 173.337 12.9821C171.285 11.742 169.85 12.5383 169.323 12.6931C168.506 12.9333 168.023 13.7145 167.814 14.0506C166.974 15.4093 165.911 18.3738 166.948 20.6641C167.178 21.9444 167.791 23.1108 168.529 24.0662C168.711 24.3423 168.908 24.6036 169.114 24.8462C169.141 25.4276 169.036 26.0718 168.701 26.7114C168.723 26.6135 168.75 26.5172 168.779 26.4224L168.777 26.417C168.37 26.5807 167.898 27.1809 166.929 27.7776L165.508 28.4616C164.153 28.9565 163.936 28.6234 163.301 29.0259C160.395 30.8689 160.612 40.6076 161.614 40.8938H182.143C183.146 40.6072 183.363 30.8689 180.457 29.0259Z" fill="white"/>
<path d="M327.56 0H262.87C258.204 0 254.421 3.78272 254.421 8.44872V46.8522C254.421 51.5182 258.204 55.3009 262.87 55.3009H280.312L295.215 73.7758L310.118 55.3009H327.56C332.226 55.3009 336.009 51.5182 336.009 46.8522V8.44872C336.009 3.78272 332.226 0 327.56 0Z" fill="#454587"/>
<path d="M433.094 0H368.404C363.738 0 359.955 3.78272 359.955 8.44872V46.8522C359.955 51.5182 363.738 55.3009 368.404 55.3009H385.846L400.749 73.7758L415.652 55.3009H433.094C437.76 55.3009 441.542 51.5182 441.542 46.8522V8.44872C441.542 3.78272 437.76 0 433.094 0Z" fill="#454587"/>
<path d="M196.761 20.3745C196.761 19.2447 197.068 18.1793 197.685 17.179C198.3 16.1788 199.205 15.3793 200.397 14.7803C201.589 14.1813 202.982 13.8818 204.575 13.8818C205.92 13.8818 207.101 14.0573 208.118 14.4075C209.135 14.7581 209.983 15.2413 210.661 15.857C211.339 16.4732 211.842 17.1681 212.17 17.9422C212.498 18.7163 212.662 19.5387 212.662 20.4088C212.662 21.5163 212.376 22.5053 211.806 23.3753C211.235 24.2457 210.384 24.9578 209.255 25.5112C210.215 25.884 211.012 26.373 211.645 26.9774C212.278 27.5823 212.755 28.2827 213.077 29.0794C213.399 29.8761 213.56 30.7605 213.56 31.7324C213.56 33.1565 213.216 34.4477 212.526 35.6059C211.837 36.7645 210.825 37.6712 209.492 38.3268C208.158 38.9819 206.587 39.3099 204.779 39.3099C202.903 39.3099 201.298 38.9819 199.964 38.3268C198.631 37.6712 197.625 36.77 196.947 35.6227C196.269 34.4758 195.93 33.1901 195.93 31.7659C195.93 28.7261 197.365 26.6409 200.235 25.5104C197.919 24.4262 196.761 22.7139 196.761 20.3745ZM208.915 31.597C208.915 30.7157 208.734 29.9471 208.373 29.2915C208.011 28.6364 207.502 28.1333 206.847 27.7827C206.192 27.4325 205.457 27.257 204.644 27.257C203.491 27.257 202.524 27.6416 201.745 28.4098C200.965 29.1784 200.575 30.252 200.575 31.6306C200.575 32.5119 200.759 33.2891 201.126 33.9614C201.493 34.6337 201.994 35.154 202.627 35.5209C203.26 35.8883 203.966 36.072 204.746 36.072C205.537 36.072 206.249 35.8855 206.882 35.5123C207.515 35.1395 208.012 34.6138 208.373 33.9357C208.734 33.2583 208.915 32.4784 208.915 31.597ZM204.678 17.1198C203.615 17.1198 202.759 17.4505 202.109 18.1115C201.459 18.7725 201.134 19.623 201.134 20.6626C201.134 21.6235 201.468 22.423 202.135 23.0614C202.801 23.7001 203.66 24.0191 204.711 24.0191C205.242 24.0191 205.725 23.9345 206.161 23.7649C206.595 23.5952 206.969 23.3609 207.279 23.0614C207.59 22.7619 207.83 22.4058 208 21.9932C208.17 21.5806 208.254 21.1259 208.254 20.6287C208.254 19.9619 208.105 19.3633 207.805 18.8317C207.506 18.3006 207.084 17.8825 206.542 17.5772C206 17.2722 205.378 17.1198 204.678 17.1198Z" fill="white"/>
<path d="M266.592 27.4013C270.367 33.8233 277.938 39.628 277.938 39.628C277.938 39.628 285.559 33.7851 289.322 27.3377L289.781 26.5098C290.754 24.6598 291.374 22.779 291.374 20.9882C291.374 16.8881 288.05 13.564 283.949 13.564C281.477 13.564 279.287 14.7729 277.938 16.6315C276.589 14.7729 274.399 13.564 271.927 13.564C267.827 13.564 264.502 16.8877 264.502 20.9882C264.502 22.8574 265.178 24.8247 266.225 26.7532L266.592 27.4013Z" fill="white"/>
<path d="M302.152 33.8848H309.853C310.62 33.8848 311.206 34.0423 311.609 34.3566C312.012 34.6717 312.214 35.0995 312.214 35.64C312.214 36.122 312.054 36.5303 311.735 36.8645C311.415 37.1991 310.93 37.366 310.281 37.366H299.423C298.685 37.366 298.11 37.1621 297.697 36.7538C297.284 36.3458 297.077 35.8662 297.077 35.3155C297.077 34.9615 297.21 34.4919 297.475 33.9066C297.741 33.3216 298.031 32.8619 298.346 32.5273C299.653 31.1702 300.834 30.0069 301.886 29.0382C302.939 28.0695 303.691 27.4327 304.143 27.1277C304.95 26.5576 305.621 25.9843 306.158 25.4091C306.693 24.8339 307.102 24.2435 307.382 23.6387C307.663 23.0338 307.802 22.4415 307.802 21.8608C307.802 21.2314 307.652 20.6687 307.352 20.1718C307.052 19.6754 306.644 19.2893 306.128 19.0136C305.611 18.7383 305.048 18.6006 304.439 18.6006C303.15 18.6006 302.137 19.1665 301.4 20.2974C301.301 20.4448 301.136 20.8484 300.905 21.5071C300.674 22.1661 300.413 22.6727 300.123 23.0268C299.833 23.3809 299.408 23.5579 298.847 23.5579C298.355 23.5579 297.947 23.3957 297.623 23.0713C297.298 22.7468 297.136 22.3038 297.136 21.7434C297.136 21.0649 297.288 20.3567 297.593 19.6192C297.898 18.8814 298.354 18.2126 298.958 17.6128C299.563 17.0131 300.33 16.5283 301.26 16.1598C302.189 15.7909 303.278 15.6064 304.528 15.6064C306.032 15.6064 307.316 15.8428 308.378 16.3146C309.066 16.6293 309.672 17.0622 310.193 17.6128C310.714 18.1639 311.12 18.8003 311.41 19.5233C311.7 20.2459 311.845 20.9962 311.845 21.773C311.845 22.9925 311.543 24.1016 310.938 25.0999C310.333 26.0982 309.715 26.8801 309.086 27.4456C308.456 28.0114 307.402 28.899 305.922 30.1087C304.441 31.3184 303.426 32.2578 302.875 32.9266C302.639 33.1914 302.398 33.5112 302.152 33.8848Z" fill="white"/>
<path d="M323.942 35.4931V32.7489H316.537C315.602 32.7489 314.901 32.5375 314.434 32.1144C313.967 31.6917 313.733 31.1165 313.733 30.3884C313.733 30.2016 313.768 30.0121 313.836 29.8206C313.905 29.6288 314.009 29.4271 314.146 29.2158C314.284 29.0044 314.426 28.8005 314.574 28.6035C314.722 28.407 314.903 28.166 315.12 27.8805L322.939 17.4203C323.45 16.732 323.87 16.2329 324.2 15.9229C324.53 15.6128 324.926 15.458 325.388 15.458C326.883 15.458 327.63 16.3136 327.63 18.0252V29.4443H328.265C329.022 29.4443 329.629 29.5476 330.087 29.7539C330.545 29.9606 330.773 30.413 330.773 31.1114C330.773 31.682 330.586 32.0977 330.212 32.3582C329.838 32.6187 329.278 32.7489 328.53 32.7489H327.631V35.4931C327.631 36.2505 327.464 36.8136 327.129 37.1821C326.795 37.551 326.347 37.7355 325.787 37.7355C325.236 37.7355 324.791 37.5459 324.451 37.1677C324.112 36.789 323.942 36.2306 323.942 35.4931ZM317.599 29.4443H323.942V20.8728L317.599 29.4443Z" fill="white"/>
<path d="M392.885 33.4569C394.958 31.4169 396.216 28.7605 396.216 25.8528C396.216 19.4253 390.087 14.2153 382.526 14.2153C374.965 14.2153 368.835 19.4257 368.835 25.8528C368.835 32.2799 374.965 37.4903 382.526 37.4903C384.142 37.4903 385.692 37.2505 387.132 36.8134L394.311 38.9773L392.885 33.4569Z" fill="white"/>
<path d="M409.718 35.0132V21.9866C407.293 23.8475 405.661 24.778 404.822 24.778C404.421 24.778 404.065 24.6181 403.755 24.2983C403.445 23.9786 403.29 23.6089 403.29 23.1889C403.29 22.7022 403.442 22.3442 403.748 22.1153C404.054 21.8864 404.593 21.5904 405.366 21.2277C406.521 20.6837 407.444 20.1112 408.136 19.5099C408.828 18.9086 409.441 18.2359 409.975 17.4914C410.51 16.7469 410.858 16.2891 411.02 16.1171C411.183 15.9456 411.488 15.8594 411.936 15.8594C412.442 15.8594 412.848 16.0551 413.153 16.4463C413.459 16.8378 413.611 17.3767 413.611 18.0639V34.4543C413.611 36.3726 412.958 37.3315 411.65 37.3315C411.068 37.3315 410.6 37.1358 410.247 36.7446C409.894 36.3539 409.718 35.7767 409.718 35.0132Z" fill="white"/>
<path d="M432.435 19.5243H425.636L424.82 24.1623C426.175 23.4373 427.425 23.0742 428.57 23.0742C429.486 23.0742 430.343 23.2462 431.14 23.5894C431.936 23.933 432.636 24.4079 433.237 25.0136C433.838 25.6196 434.311 26.3379 434.654 27.1678C434.998 27.998 435.17 28.8907 435.17 29.8445C435.17 31.2285 434.859 32.4881 434.239 33.6237C433.619 34.7593 432.724 35.6613 431.555 36.3293C430.386 36.9974 429.038 37.3316 427.511 37.3316C425.803 37.3316 424.417 37.0168 423.352 36.3867C422.288 35.7569 421.534 35.0339 421.09 34.218C420.647 33.4022 420.425 32.689 420.425 32.0779C420.425 31.7058 420.58 31.3529 420.89 31.0187C421.2 30.6849 421.589 30.5176 422.057 30.5176C422.859 30.5176 423.455 30.9805 423.846 31.9063C424.228 32.7556 424.743 33.4167 425.392 33.8889C426.041 34.3612 426.767 34.5975 427.568 34.5975C428.303 34.5975 428.947 34.4068 429.501 34.025C430.054 33.6436 430.481 33.1183 430.782 32.4503C431.082 31.7823 431.232 31.0238 431.232 30.1744C431.232 29.2584 431.07 28.4757 430.746 27.8268C430.421 27.1779 429.987 26.6936 429.443 26.3738C428.899 26.054 428.293 25.8941 427.625 25.8941C426.804 25.8941 426.217 25.9943 425.864 26.1948C425.511 26.3952 425.003 26.7458 424.34 27.2469C423.677 27.748 423.13 27.9984 422.701 27.9984C422.234 27.9984 421.818 27.8292 421.455 27.4903C421.093 27.1518 420.911 26.7673 420.911 26.3379C420.911 26.2903 420.964 25.9659 421.069 25.3645L422.271 18.5077C422.405 17.6872 422.653 17.0905 423.016 16.7181C423.378 16.3461 423.97 16.1597 424.791 16.1597H432.349C433.838 16.1597 434.582 16.7275 434.582 17.8631C434.582 18.3595 434.401 18.7604 434.038 19.0653C433.676 19.3719 433.141 19.5243 432.435 19.5243Z" fill="white"/>
<path d="M300.454 104.649C280.71 100.435 261.288 113.024 257.074 132.768C257 133.113 256.933 133.458 256.87 133.802L250.304 132.401L261.748 155.787L281.743 139.111L274.833 137.636C274.886 137.291 274.949 136.945 275.022 136.599C277.121 126.767 286.791 120.499 296.622 122.597C301.365 123.609 305.278 126.384 307.823 130.088L317.781 113.684C313.093 109.296 307.191 106.086 300.454 104.649Z" fill="#798F9F"/>
<path d="M287.998 184.165C307.385 189.799 327.668 178.651 333.302 159.264C333.4 158.925 333.493 158.586 333.581 158.247L340.028 160.121L330.309 135.967L309.157 151.149L315.943 153.121C315.864 153.462 315.778 153.803 315.678 154.143C312.873 163.796 302.773 169.347 293.12 166.541C288.464 165.188 284.762 162.137 282.492 158.258L271.372 173.898C275.729 178.614 281.384 182.242 287.998 184.165Z" fill="#798F9F"/>
</svg>
