<svg width="623" height="390" viewBox="0 0 623 390" fill="none" xmlns="http://www.w3.org/2000/svg">
<g clip-path="url(#clip0_189_26797)">
<g opacity="0.45">
<path d="M530.852 128.73C542.733 84.3899 516.419 38.8137 472.079 26.9327C427.739 15.0518 382.163 41.3653 370.282 85.7055C358.401 130.046 384.714 175.622 429.055 187.503C473.395 199.384 518.971 173.07 530.852 128.73Z" fill="#DED7FF"/>
<path d="M380.24 278.204C400.474 202.691 355.661 125.074 280.149 104.84C204.636 84.6066 127.018 129.419 106.785 204.932C86.551 280.445 131.364 358.062 206.876 378.296C282.389 398.529 360.007 353.717 380.24 278.204Z" fill="#DED7FF"/>
</g>
<path d="M507.124 127.472L502.898 131.34C502.757 131.469 502.634 131.609 502.522 131.755C499.838 129.885 496.887 128.541 493.816 127.73C493.856 127.545 493.887 127.357 493.894 127.163L494.118 121.439C494.188 119.658 492.795 118.151 491.014 118.082L485.29 117.857C483.509 117.788 482.002 119.18 481.933 120.961L481.708 126.686C481.701 126.878 481.716 127.068 481.741 127.254C478.701 127.806 475.732 128.872 472.971 130.456C472.871 130.301 472.761 130.15 472.633 130.009L468.764 125.784C467.56 124.469 465.511 124.379 464.196 125.583L459.971 129.451C458.656 130.655 458.565 132.704 459.77 134.019L463.639 138.245C463.768 138.385 463.908 138.509 464.054 138.621C462.183 141.305 460.839 144.256 460.028 147.327C459.844 147.287 459.655 147.257 459.463 147.249L453.738 147.025C452.881 146.991 452.061 147.291 451.428 147.87C451.424 147.873 451.42 147.877 451.417 147.881C450.783 148.467 450.415 149.265 450.381 150.129L450.157 155.853C450.087 157.635 451.48 159.141 453.261 159.21L458.985 159.435C459.179 159.443 459.367 159.426 459.554 159.4C460.106 162.441 461.172 165.41 462.755 168.171C462.6 168.27 462.45 168.38 462.309 168.509L458.084 172.378C456.769 173.582 456.678 175.631 457.883 176.946L461.752 181.171C462.956 182.486 465.005 182.577 466.32 181.372L470.545 177.503C470.686 177.374 470.809 177.234 470.922 177.088C473.607 178.96 476.558 180.304 479.63 181.115C479.589 181.298 479.558 181.486 479.55 181.68L479.325 187.405C479.291 188.268 479.595 189.092 480.182 189.726C480.768 190.361 481.566 190.728 482.428 190.762L488.153 190.986C489.039 191.02 489.855 190.694 490.462 190.139C491.077 189.577 491.476 188.779 491.511 187.882L491.736 182.158C491.744 181.964 491.726 181.775 491.7 181.589C494.742 181.037 497.711 179.971 500.471 178.388C500.571 178.543 500.682 178.694 500.811 178.834L504.68 183.059C505.884 184.374 507.933 184.465 509.248 183.261L513.473 179.392C514.788 178.188 514.878 176.139 513.673 174.824L509.805 170.599C509.676 170.458 509.536 170.335 509.39 170.222C511.262 167.538 512.606 164.586 513.417 161.514C513.6 161.555 513.787 161.586 513.982 161.594L519.706 161.819C520.592 161.853 521.409 161.526 522.015 160.971C522.63 160.409 523.029 159.611 523.063 158.715L523.289 152.99C523.358 151.209 521.966 149.703 520.185 149.633L514.46 149.408C514.268 149.4 514.078 149.416 513.891 149.441C513.339 146.4 512.273 143.432 510.689 140.672C510.844 140.573 510.996 140.462 511.136 140.333L515.361 136.464C516.676 135.26 516.766 133.211 515.561 131.896L511.693 127.671C510.487 126.357 508.439 126.268 507.124 127.472ZM496.974 165.621C490.8 171.275 481.176 170.852 475.521 164.677C469.867 158.502 470.29 148.879 476.465 143.224C482.64 137.57 492.263 137.993 497.918 144.168C503.572 150.343 503.149 159.967 496.974 165.621Z" fill="#630F60" stroke="#630F60" stroke-width="1.00748" stroke-miterlimit="10"/>
<path d="M173.118 349.455H170.892C170.481 349.455 170.147 349.121 170.147 348.71C170.147 348.299 170.481 347.966 170.892 347.966H173.118C173.529 347.966 173.863 348.299 173.863 348.71C173.863 349.121 173.529 349.455 173.118 349.455ZM165.931 349.455H160.969C160.558 349.455 160.225 349.121 160.225 348.71C160.225 348.299 160.558 347.966 160.969 347.966H165.931C166.342 347.966 166.675 348.299 166.675 348.71C166.675 349.121 166.342 349.455 165.931 349.455ZM156.007 349.455H151.045C150.634 349.455 150.301 349.121 150.301 348.71C150.301 348.299 150.634 347.966 151.045 347.966H156.007C156.418 347.966 156.752 348.299 156.752 348.71C156.752 349.121 156.418 349.455 156.007 349.455ZM146.084 349.455H141.122C140.711 349.455 140.377 349.121 140.377 348.71C140.377 348.299 140.711 347.966 141.122 347.966H146.084C146.495 347.966 146.828 348.299 146.828 348.71C146.828 349.121 146.495 349.455 146.084 349.455ZM136.16 349.455H131.198C130.787 349.455 130.453 349.121 130.453 348.71C130.453 348.299 130.787 347.966 131.198 347.966H136.16C136.571 347.966 136.904 348.299 136.904 348.71C136.904 349.121 136.571 349.455 136.16 349.455ZM126.236 349.455H121.274C120.863 349.455 120.53 349.121 120.53 348.71C120.53 348.299 120.863 347.966 121.274 347.966H126.236C126.647 347.966 126.981 348.299 126.981 348.71C126.981 349.121 126.647 349.455 126.236 349.455ZM116.312 349.448C116.305 349.448 116.299 349.448 116.292 349.447C114.562 349.398 112.854 349.116 111.214 348.607C110.821 348.485 110.602 348.068 110.724 347.675C110.846 347.283 111.259 347.063 111.655 347.185C113.166 347.655 114.74 347.914 116.334 347.96C116.744 347.971 117.068 348.313 117.057 348.725C117.046 349.127 116.715 349.448 116.312 349.448ZM106.957 346.539C106.818 346.539 106.678 346.5 106.553 346.419C105.11 345.483 103.798 344.353 102.654 343.058C102.383 342.75 102.412 342.28 102.72 342.008C103.026 341.736 103.496 341.764 103.77 342.072C104.824 343.265 106.032 344.307 107.363 345.169C107.708 345.393 107.806 345.854 107.582 346.199C107.44 346.419 107.202 346.539 106.957 346.539ZM100.472 339.193C100.195 339.193 99.9288 339.039 99.7998 338.773C99.0503 337.217 98.5163 335.569 98.214 333.874C98.1425 333.469 98.4115 333.083 98.8165 333.011C99.2185 332.943 99.6074 333.208 99.6789 333.613C99.957 335.175 100.449 336.692 101.141 338.125C101.319 338.495 101.164 338.94 100.794 339.118C100.69 339.17 100.581 339.193 100.472 339.193ZM98.6664 329.544C98.2553 329.544 97.9219 329.211 97.9219 328.8V323.838C97.9219 323.427 98.2553 323.093 98.6664 323.093C99.0775 323.093 99.4109 323.427 99.4109 323.838V328.8C99.4109 329.211 99.0775 329.544 98.6664 329.544ZM98.6664 319.62C98.2553 319.62 97.9219 319.287 97.9219 318.876V313.914C97.9219 313.503 98.2553 313.169 98.6664 313.169C99.0775 313.169 99.4109 313.503 99.4109 313.914V318.876C99.4109 319.287 99.0775 319.62 98.6664 319.62ZM98.6664 309.697C98.2553 309.697 97.9219 309.363 97.9219 308.952V303.99C97.9219 303.579 98.2553 303.246 98.6664 303.246C99.0775 303.246 99.4109 303.579 99.4109 303.99V308.952C99.4109 309.363 99.0775 309.697 98.6664 309.697ZM98.6664 299.773C98.2553 299.773 97.9219 299.44 97.9219 299.028V294.067C97.9219 293.656 98.2553 293.322 98.6664 293.322C99.0775 293.322 99.4109 293.656 99.4109 294.067V299.028C99.4109 299.44 99.0775 299.773 98.6664 299.773ZM98.6664 289.849C98.2553 289.849 97.9219 289.516 97.9219 289.105V284.143C97.9219 283.732 98.2553 283.398 98.6664 283.398C99.0775 283.398 99.4109 283.732 99.4109 284.143V289.105C99.4109 289.516 99.0775 289.849 98.6664 289.849ZM98.6664 279.926C98.2553 279.926 97.9219 279.592 97.9219 279.181V274.219C97.9219 273.808 98.2553 273.475 98.6664 273.475C99.0775 273.475 99.4109 273.808 99.4109 274.219V279.181C99.4109 279.593 99.0775 279.926 98.6664 279.926ZM98.6664 270.002C98.2553 270.002 97.9219 269.668 97.9219 269.257V264.296C97.9219 263.885 98.2553 263.551 98.6664 263.551C99.0775 263.551 99.4109 263.885 99.4109 264.296V269.257C99.4109 269.669 99.0775 270.002 98.6664 270.002ZM98.6664 260.079C98.2553 260.079 97.9219 259.746 97.9219 259.335V254.373C97.9219 253.962 98.2553 253.628 98.6664 253.628C99.0775 253.628 99.4109 253.962 99.4109 254.373V259.335C99.4109 259.746 99.0775 260.079 98.6664 260.079ZM98.6664 250.156C98.2553 250.156 97.9219 249.822 97.9219 249.411V244.449C97.9219 244.038 98.2553 243.705 98.6664 243.705C99.0775 243.705 99.4109 244.038 99.4109 244.449V249.411C99.4109 249.822 99.0775 250.156 98.6664 250.156ZM98.6664 240.232C98.2553 240.232 97.9219 239.898 97.9219 239.487V234.525C97.9219 234.114 98.2553 233.781 98.6664 233.781C99.0775 233.781 99.4109 234.114 99.4109 234.525V239.487C99.4109 239.898 99.0775 240.232 98.6664 240.232ZM98.6664 230.308C98.2553 230.308 97.9219 229.975 97.9219 229.564V224.602C97.9219 224.191 98.2553 223.857 98.6664 223.857C99.0775 223.857 99.4109 224.191 99.4109 224.602V229.564C99.4109 229.975 99.0775 230.308 98.6664 230.308ZM98.6664 220.384C98.2553 220.384 97.9219 220.051 97.9219 219.64V214.678C97.9219 214.267 98.2553 213.934 98.6664 213.934C99.0775 213.934 99.4109 214.267 99.4109 214.678V219.64C99.4109 220.051 99.0775 220.384 98.6664 220.384ZM98.6664 210.461C98.2553 210.461 97.9219 210.127 97.9219 209.716V209.215C97.9219 207.66 98.1113 206.114 98.484 204.62C98.5838 204.221 98.9958 203.98 99.3868 204.078C99.7857 204.178 100.029 204.582 99.9288 204.98C99.5862 206.355 99.4109 207.78 99.4109 209.214V209.715C99.4109 210.127 99.0775 210.461 98.6664 210.461ZM101.05 200.957C100.925 200.957 100.798 200.926 100.681 200.86C100.325 200.656 100.201 200.201 100.404 199.844C101.258 198.35 102.313 196.977 103.542 195.763C103.835 195.475 104.305 195.477 104.594 195.769C104.884 196.061 104.882 196.532 104.588 196.822C103.457 197.94 102.484 199.205 101.698 200.581C101.56 200.822 101.309 200.957 101.05 200.957ZM108.021 194.069C107.759 194.069 107.505 193.931 107.37 193.686C107.171 193.327 107.3 192.874 107.659 192.674C109.168 191.835 110.783 191.21 112.461 190.812C112.865 190.719 113.261 190.964 113.356 191.365C113.451 191.765 113.204 192.166 112.804 192.261C111.26 192.626 109.772 193.203 108.383 193.975C108.268 194.039 108.144 194.069 108.021 194.069ZM231.676 191.793H226.714C226.303 191.793 225.97 191.46 225.97 191.049C225.97 190.638 226.303 190.304 226.714 190.304H231.676C232.087 190.304 232.421 190.638 232.421 191.049C232.421 191.46 232.087 191.793 231.676 191.793ZM221.753 191.793H216.792C216.38 191.793 216.047 191.46 216.047 191.049C216.047 190.638 216.38 190.304 216.792 190.304H221.753C222.164 190.304 222.498 190.638 222.498 191.049C222.497 191.46 222.163 191.793 221.753 191.793ZM211.83 191.793H206.868C206.457 191.793 206.123 191.46 206.123 191.049C206.123 190.638 206.457 190.304 206.868 190.304H211.83C212.241 190.304 212.574 190.638 212.574 191.049C212.573 191.46 212.241 191.793 211.83 191.793ZM201.906 191.793H196.944C196.533 191.793 196.2 191.46 196.2 191.049C196.2 190.638 196.533 190.304 196.944 190.304H201.906C202.317 190.304 202.651 190.638 202.651 191.049C202.651 191.46 202.317 191.793 201.906 191.793ZM191.982 191.793H187.02C186.609 191.793 186.276 191.46 186.276 191.049C186.276 190.638 186.609 190.304 187.02 190.304H191.982C192.393 190.304 192.727 190.638 192.727 191.049C192.727 191.46 192.393 191.793 191.982 191.793ZM182.059 191.793H177.097C176.686 191.793 176.352 191.46 176.352 191.049C176.352 190.638 176.686 190.304 177.097 190.304H182.059C182.47 190.304 182.803 190.638 182.803 191.049C182.803 191.46 182.47 191.793 182.059 191.793ZM172.135 191.793H167.173C166.762 191.793 166.429 191.46 166.429 191.049C166.429 190.638 166.762 190.304 167.173 190.304H172.135C172.546 190.304 172.879 190.638 172.879 191.049C172.879 191.46 172.546 191.793 172.135 191.793ZM162.211 191.793H157.249C156.838 191.793 156.505 191.46 156.505 191.049C156.505 190.638 156.838 190.304 157.249 190.304H162.211C162.622 190.304 162.956 190.638 162.956 191.049C162.956 191.46 162.622 191.793 162.211 191.793ZM152.288 191.793H147.326C146.915 191.793 146.581 191.46 146.581 191.049C146.581 190.638 146.915 190.304 147.326 190.304H152.288C152.699 190.304 153.032 190.638 153.032 191.049C153.032 191.46 152.699 191.793 152.288 191.793ZM142.364 191.793H137.402C136.991 191.793 136.658 191.46 136.658 191.049C136.658 190.638 136.991 190.304 137.402 190.304H142.364C142.775 190.304 143.108 190.638 143.108 191.049C143.108 191.46 142.775 191.793 142.364 191.793ZM132.44 191.793H127.478C127.067 191.793 126.734 191.46 126.734 191.049C126.734 190.638 127.067 190.304 127.478 190.304H132.44C132.851 190.304 133.185 190.638 133.185 191.049C133.185 191.46 132.851 191.793 132.44 191.793ZM122.517 191.793H117.555C117.144 191.793 116.81 191.46 116.81 191.049C116.81 190.638 117.144 190.304 117.555 190.304H122.517C122.928 190.304 123.261 190.638 123.261 191.049C123.261 191.46 122.928 191.793 122.517 191.793Z" fill="white"/>
<path d="M98.665 273.343C100.456 273.343 101.908 271.891 101.908 270.1C101.908 268.308 100.456 266.857 98.665 266.857C96.8739 266.857 95.4219 268.308 95.4219 270.1C95.4219 271.891 96.8739 273.343 98.665 273.343Z" fill="#B19CFE"/>
<path d="M98.666 276.179C95.3151 276.179 92.5879 273.453 92.5879 270.101C92.5879 266.749 95.3151 264.023 98.666 264.023C102.017 264.023 104.744 266.749 104.744 270.101C104.744 273.452 102.017 276.179 98.666 276.179ZM98.666 264.766C95.7252 264.766 93.3324 267.159 93.3324 270.1C93.3324 273.04 95.7252 275.433 98.666 275.433C101.607 275.433 104 273.04 104 270.1C104 267.159 101.608 264.766 98.666 264.766Z" fill="#B19CFE"/>
<path d="M265.714 169.113C265.215 169.113 264.809 168.707 264.809 168.207V162.17C264.809 161.671 265.215 161.264 265.714 161.264C266.214 161.264 266.62 161.671 266.62 162.17V168.207C266.62 168.707 266.214 169.113 265.714 169.113ZM265.714 157.039C265.215 157.039 264.809 156.633 264.809 156.133V150.097C264.809 149.597 265.215 149.191 265.714 149.191C266.214 149.191 266.62 149.597 266.62 150.097V156.133C266.62 156.633 266.214 157.039 265.714 157.039ZM265.714 144.964C265.215 144.964 264.809 144.558 264.809 144.059V138.022C264.809 137.522 265.215 137.116 265.714 137.116C266.214 137.116 266.62 137.522 266.62 138.022V144.059C266.62 144.559 266.214 144.964 265.714 144.964ZM265.714 132.891C265.215 132.891 264.809 132.485 264.809 131.985V125.948C264.809 125.449 265.215 125.043 265.714 125.043C266.214 125.043 266.62 125.449 266.62 125.948V131.985C266.62 132.486 266.214 132.891 265.714 132.891ZM265.714 120.817C265.215 120.817 264.809 120.411 264.809 119.911V113.875C264.809 113.375 265.215 112.969 265.714 112.969C266.214 112.969 266.62 113.375 266.62 113.875V119.911C266.62 120.411 266.214 120.817 265.714 120.817ZM265.714 108.743C265.215 108.743 264.809 108.337 264.809 107.838V101.801C264.809 101.301 265.215 100.895 265.714 100.895C266.214 100.895 266.62 101.301 266.62 101.801V107.838C266.62 108.337 266.214 108.743 265.714 108.743ZM361.588 97.8677C361.089 97.8677 360.682 97.4617 360.682 96.962V93.6111C360.682 93.1114 361.089 92.7054 361.588 92.7054C362.088 92.7054 362.494 93.1114 362.494 93.6111V96.962C362.494 97.4617 362.088 97.8677 361.588 97.8677ZM265.714 96.6698C265.215 96.6698 264.809 96.2648 264.809 95.7641V89.7273C264.809 89.2276 265.215 88.8216 265.714 88.8216C266.214 88.8216 266.62 89.2276 266.62 89.7273V95.7641C266.62 96.2638 266.214 96.6698 265.714 96.6698ZM361.588 88.48C361.089 88.48 360.682 88.075 360.682 87.5743V81.5375C360.682 81.0378 361.089 80.6317 361.588 80.6317C362.088 80.6317 362.494 81.0378 362.494 81.5375V87.5743C362.494 88.074 362.088 88.48 361.588 88.48ZM265.714 84.5962C265.215 84.5962 264.809 84.1902 264.809 83.6904V77.6536C264.809 77.1539 265.215 76.7479 265.714 76.7479C266.214 76.7479 266.62 77.1539 266.62 77.6536V83.6904C266.62 84.1902 266.214 84.5962 265.714 84.5962ZM361.588 76.4054C361.089 76.4054 360.682 75.9993 360.682 75.4996V69.4628C360.682 68.9631 361.089 68.5571 361.588 68.5571C362.088 68.5571 362.494 68.9631 362.494 69.4628V75.4996C362.494 76.0004 362.088 76.4054 361.588 76.4054ZM265.714 72.5215C265.215 72.5215 264.809 72.1155 264.809 71.6158V65.579C264.809 65.0793 265.215 64.6732 265.714 64.6732C266.214 64.6732 266.62 65.0793 266.62 65.579V71.6158C266.62 72.1165 266.214 72.5215 265.714 72.5215ZM361.588 64.3317C361.089 64.3317 360.682 63.9257 360.682 63.426V57.3891C360.682 56.8894 361.089 56.4834 361.588 56.4834C362.088 56.4834 362.494 56.8894 362.494 57.3891V63.426C362.494 63.9267 362.088 64.3317 361.588 64.3317ZM265.714 60.4479C265.215 60.4479 264.809 60.0418 264.809 59.5421V53.5053C264.809 53.0056 265.215 52.5996 265.714 52.5996C266.214 52.5996 266.62 53.0056 266.62 53.5053V59.5421C266.62 60.0429 266.214 60.4479 265.714 60.4479ZM361.588 52.258C361.089 52.258 360.682 51.852 360.682 51.3523V45.3155C360.682 44.8158 361.089 44.4098 361.588 44.4098C362.088 44.4098 362.494 44.8158 362.494 45.3155V51.3523C362.494 51.853 362.088 52.258 361.588 52.258ZM265.714 48.3742C265.215 48.3742 264.809 47.9682 264.809 47.4685V41.4317C264.809 40.9319 265.215 40.5259 265.714 40.5259C266.214 40.5259 266.62 40.9319 266.62 41.4317V47.4685C266.62 47.9682 266.214 48.3742 265.714 48.3742ZM361.588 40.1844C361.089 40.1844 360.682 39.7784 360.682 39.2787V33.2418C360.682 32.7421 361.089 32.3361 361.588 32.3361C362.088 32.3361 362.494 32.7421 362.494 33.2418V39.2787C362.494 39.7784 362.088 40.1844 361.588 40.1844ZM265.714 36.3006C265.215 36.3006 264.809 35.8945 264.809 35.3948V29.358C264.809 28.8583 265.215 28.4523 265.714 28.4523C266.214 28.4523 266.62 28.8583 266.62 29.358V35.3948C266.62 35.8945 266.214 36.3006 265.714 36.3006ZM361.549 28.1117C361.072 28.1117 360.673 27.739 360.646 27.2574C360.536 25.322 360.164 23.4179 359.539 21.5954C359.378 21.1228 359.63 20.607 360.102 20.4448C360.571 20.2836 361.092 20.5345 361.252 21.008C361.931 22.9867 362.336 25.055 362.455 27.1546C362.483 27.6543 362.101 28.0815 361.602 28.1107C361.584 28.1107 361.567 28.1117 361.549 28.1117ZM266.31 24.2742C266.24 24.2742 266.171 24.2662 266.1 24.2501C265.614 24.1342 265.312 23.6466 265.428 23.16C265.912 21.1168 266.674 19.1512 267.694 17.3176C267.936 16.8803 268.489 16.7232 268.925 16.967C269.362 17.2098 269.52 17.7619 269.277 18.1991C268.337 19.8867 267.636 21.6971 267.19 23.5781C267.092 23.9942 266.72 24.2742 266.31 24.2742ZM357.687 16.839C357.399 16.839 357.117 16.703 356.941 16.4491C355.841 14.8573 354.531 13.4237 353.046 12.1875C352.663 11.8671 352.61 11.2959 352.93 10.912C353.25 10.5262 353.821 10.4768 354.205 10.7962C355.815 12.1371 357.236 13.6927 358.43 15.4185C358.714 15.8305 358.611 16.3937 358.2 16.6788C358.045 16.7877 357.865 16.839 357.687 16.839ZM272.095 13.8498C271.865 13.8498 271.635 13.7622 271.458 13.5879C271.102 13.2363 271.099 12.663 271.451 12.3074C272.928 10.8133 274.598 9.52875 276.415 8.49004C276.847 8.2422 277.402 8.39332 277.651 8.82754C277.899 9.26177 277.748 9.81488 277.313 10.0637C275.639 11.0198 274.101 12.2036 272.738 13.5818C272.561 13.7602 272.327 13.8498 272.095 13.8498ZM348.525 9.20737C348.401 9.20737 348.275 9.18218 348.155 9.12878C346.391 8.33791 344.528 7.79387 342.616 7.51077C342.121 7.43823 341.779 6.97681 341.853 6.48213C341.926 5.98746 342.382 5.63484 342.881 5.71946C344.958 6.02574 346.981 6.61713 348.897 7.47551C349.353 7.68003 349.557 8.216 349.353 8.67239C349.201 9.00788 348.871 9.20737 348.525 9.20737ZM282.445 7.93895C282.039 7.93895 281.67 7.66391 281.567 7.25285C281.446 6.76725 281.74 6.27559 282.226 6.1547C284.042 5.70133 285.923 5.47062 287.815 5.47062H288.426C288.926 5.47062 289.332 5.87663 289.332 6.37634C289.332 6.87605 288.926 7.28207 288.426 7.28207H287.815C286.071 7.28207 284.339 7.49364 282.664 7.91175C282.592 7.92988 282.517 7.93895 282.445 7.93895ZM336.723 7.28207H330.686C330.186 7.28207 329.78 6.87605 329.78 6.37634C329.78 5.87663 330.186 5.47062 330.686 5.47062H336.723C337.222 5.47062 337.628 5.87663 337.628 6.37634C337.628 6.87605 337.222 7.28207 336.723 7.28207ZM324.649 7.28207H318.612C318.112 7.28207 317.706 6.87605 317.706 6.37634C317.706 5.87663 318.112 5.47062 318.612 5.47062H324.649C325.149 5.47062 325.555 5.87663 325.555 6.37634C325.554 6.87605 325.149 7.28207 324.649 7.28207ZM312.574 7.28207H306.537C306.038 7.28207 305.632 6.87605 305.632 6.37634C305.632 5.87663 306.038 5.47062 306.537 5.47062H312.574C313.074 5.47062 313.48 5.87663 313.48 6.37634C313.48 6.87605 313.075 7.28207 312.574 7.28207ZM300.501 7.28207H294.464C293.964 7.28207 293.558 6.87605 293.558 6.37634C293.558 5.87663 293.964 5.47062 294.464 5.47062H300.501C301 5.47062 301.406 5.87663 301.406 6.37634C301.406 6.87605 301.001 7.28207 300.501 7.28207Z" fill="white"/>
<path d="M313.652 9.77864C315.531 9.77864 317.055 8.25539 317.055 6.37637C317.055 4.49735 315.531 2.97411 313.652 2.97411C311.773 2.97411 310.25 4.49735 310.25 6.37637C310.25 8.25539 311.773 9.77864 313.652 9.77864Z" fill="#B19CFE"/>
<path d="M313.652 12.7527C310.136 12.7527 307.275 9.89245 307.275 6.37634C307.275 2.86023 310.137 0 313.652 0C317.168 0 320.028 2.86023 320.028 6.37634C320.028 9.89245 317.168 12.7527 313.652 12.7527ZM313.652 0.780792C310.566 0.780792 308.056 3.29144 308.056 6.37634C308.056 9.46226 310.567 11.9719 313.652 11.9719C316.738 11.9719 319.247 9.46125 319.247 6.37634C319.247 3.29144 316.738 0.780792 313.652 0.780792Z" fill="#B19CFE"/>
<path d="M317.716 55.4296H259.328V65.4117H317.716V55.4296Z" fill="#C1C1C1"/>
<path d="M364.887 51.6727H323.15C320.112 51.6727 317.231 52.6923 315.279 54.4584L303.94 62.9424H259.274C257.407 62.9424 255.893 64.4566 255.893 66.3235V128.146C255.893 130.012 257.407 131.527 259.274 131.527H368.107C369.974 131.527 371.488 130.013 371.488 128.146V68.416V66.3235V59.1865C371.488 55.215 368.533 51.6727 364.887 51.6727Z" fill="#FFC655"/>
<path d="M192.389 238.491L186.199 244.491C185.993 244.691 185.813 244.908 185.65 245.132C181.532 242.432 177.036 240.537 172.382 239.449C172.435 239.169 172.472 238.885 172.475 238.595L172.568 229.974C172.596 227.292 170.438 225.085 167.755 225.057L159.134 224.964C156.453 224.936 154.245 227.094 154.217 229.777L154.125 238.398C154.122 238.688 154.153 238.973 154.198 239.253C149.647 240.214 145.229 241.944 141.144 244.444C140.988 244.214 140.815 243.993 140.615 243.787L134.615 237.597C132.747 235.671 129.661 235.623 127.735 237.49L121.545 243.491C119.618 245.359 119.571 248.445 121.438 250.371L127.438 256.561C127.638 256.767 127.855 256.947 128.078 257.11C125.378 261.228 123.483 265.724 122.395 270.378C122.116 270.325 121.832 270.288 121.541 270.285L112.92 270.192C111.628 270.178 110.408 270.665 109.481 271.563C109.475 271.569 109.47 271.575 109.465 271.581C108.536 272.489 108.017 273.706 108.003 275.005L107.91 283.626C107.882 286.308 110.04 288.514 112.723 288.543L121.344 288.635C121.636 288.638 121.918 288.605 122.198 288.559C123.159 293.111 124.889 297.53 127.39 301.615C127.16 301.771 126.939 301.944 126.733 302.144L120.543 308.144C118.617 310.012 118.57 313.098 120.436 315.023L126.437 321.213C128.305 323.139 131.391 323.187 133.317 321.32L139.507 315.319C139.713 315.12 139.893 314.903 140.056 314.68C144.175 317.38 148.672 319.275 153.327 320.363C153.274 320.641 153.234 320.924 153.231 321.216L153.138 329.837C153.124 331.137 153.617 332.364 154.527 333.293C155.435 334.222 156.652 334.741 157.951 334.755L166.572 334.847C167.905 334.862 169.12 334.336 170.009 333.474C170.908 332.602 171.474 331.385 171.489 330.036L171.581 321.415C171.584 321.123 171.551 320.84 171.505 320.561C176.056 319.6 180.476 317.87 184.562 315.369C184.718 315.598 184.891 315.82 185.091 316.026L191.091 322.216C192.959 324.142 196.045 324.189 197.971 322.322L204.161 316.322C206.087 314.454 206.135 311.368 204.268 309.442L198.267 303.252C198.068 303.046 197.851 302.866 197.627 302.703C200.327 298.584 202.222 294.088 203.31 289.432C203.588 289.485 203.871 289.525 204.163 289.528L212.784 289.621C214.117 289.635 215.332 289.109 216.222 288.247C217.121 287.375 217.688 286.158 217.702 284.809L217.795 276.188C217.824 273.505 215.665 271.3 212.983 271.27L204.362 271.178C204.071 271.175 203.787 271.205 203.507 271.251C202.546 266.7 200.816 262.282 198.316 258.197C198.545 258.041 198.767 257.868 198.973 257.668L205.163 251.668C207.089 249.8 207.136 246.714 205.269 244.789L199.269 238.599C197.4 236.671 194.314 236.623 192.389 238.491ZM178.758 296.31C169.711 305.08 155.218 304.856 146.448 295.811C137.677 286.764 137.902 272.271 146.948 263.501C155.994 254.731 170.488 254.955 179.258 264.001C188.027 273.047 187.803 287.54 178.758 296.31Z" stroke="#0F1B63" stroke-width="1.00748" stroke-miterlimit="10"/>
<path d="M356.577 309.157H263.918V353.574H356.577V309.157Z" fill="#2A2A2A"/>
<path d="M464.17 99.4464V301.791C464.17 308.29 458.902 313.558 452.394 313.558H168.099C161.599 313.558 156.322 308.29 156.322 301.791V99.4464C156.322 92.9472 161.599 87.67 168.099 87.67H452.394C458.902 87.67 464.17 92.9472 464.17 99.4464Z" fill="#181818"/>
<path opacity="0.5" d="M315.791 299.327C315.791 302.665 313.085 305.372 309.746 305.372C306.407 305.372 303.701 302.665 303.701 299.327C303.701 295.988 306.407 293.282 309.746 293.282C313.085 293.282 315.791 295.988 315.791 299.327Z" fill="white"/>
<path d="M460.474 285.993V101.713C460.474 96.1278 456.101 91.6002 450.708 91.6002H169.787C164.394 91.6002 160.021 96.1278 160.021 101.713V285.993H460.474Z" fill="white"/>
<path d="M374.807 358.36H245.686V358.051C245.686 352.935 249.833 348.788 254.948 348.788H365.544C370.66 348.788 374.806 352.935 374.806 358.051V358.36H374.807Z" fill="#515151"/>
<path d="M184.245 89.7091C184.245 80.7899 177.521 73.4504 168.868 72.459C168.935 71.8757 168.977 71.2853 168.977 70.6849C168.977 62.1334 162.044 55.2019 153.494 55.2019C151.203 55.2019 149.036 55.7127 147.079 56.6053C142.957 50.1786 135.755 45.9169 127.552 45.9169C114.745 45.9169 104.363 56.299 104.363 69.1061C104.363 70.2335 104.448 71.3417 104.604 72.4258C95.8398 73.3124 89 80.7123 89 89.7101C89 99.3054 96.7788 107.084 106.374 107.084H167.733V107.041C176.925 106.587 184.245 99.0132 184.245 89.7091Z" fill="#B19CFE"/>
<path d="M147.751 120.341V93.3461H125.496V120.341H118.539L136.623 137.283L154.709 120.341H147.751Z" fill="#FFC655"/>
<path d="M393.602 102.474H338.959C333.907 102.474 329.811 98.3775 329.811 93.325V75.1521C329.811 70.0995 333.907 66.0031 338.959 66.0031H393.602C398.655 66.0031 402.751 70.0995 402.751 75.1521V93.324C402.751 98.3775 398.655 102.474 393.602 102.474Z" fill="#542FD0"/>
<path d="M189.629 364.918H134.987C129.934 364.918 125.838 360.821 125.838 355.769V337.597C125.838 332.544 129.934 328.448 134.987 328.448H189.63C194.682 328.448 198.779 332.544 198.779 337.597V355.769C198.779 360.821 194.682 364.918 189.629 364.918Z" fill="#2FD047"/>
<path d="M215.905 210.633H161.262C156.21 210.633 152.113 206.537 152.113 201.484V183.312C152.113 178.26 156.21 174.163 161.262 174.163H215.905C220.957 174.163 225.054 178.26 225.054 183.312V201.484C225.054 206.537 220.957 210.633 215.905 210.633Z" fill="#2FD047"/>
<path d="M408.446 327.402H405.843C405.412 327.402 405.062 327.053 405.062 326.621C405.062 326.19 405.412 325.841 405.843 325.841H408.446C408.877 325.841 409.226 326.19 409.226 326.621C409.226 327.053 408.877 327.402 408.446 327.402Z" fill="#B19CFE"/>
<path d="M470.922 327.402H465.716C465.284 327.402 464.935 327.053 464.935 326.621C464.935 326.19 465.284 325.841 465.716 325.841H470.922C471.353 325.841 471.703 326.19 471.703 326.621C471.703 327.053 471.353 327.402 470.922 327.402ZM460.509 327.402H455.303C454.872 327.402 454.522 327.053 454.522 326.621C454.522 326.19 454.872 325.841 455.303 325.841H460.509C460.94 325.841 461.29 326.19 461.29 326.621C461.29 327.053 460.94 327.402 460.509 327.402ZM450.097 327.402H444.89C444.459 327.402 444.109 327.053 444.109 326.621C444.109 326.19 444.459 325.841 444.89 325.841H450.097C450.528 325.841 450.877 326.19 450.877 326.621C450.877 327.053 450.528 327.402 450.097 327.402ZM439.683 327.402H434.477C434.045 327.402 433.696 327.053 433.696 326.621C433.696 326.19 434.045 325.841 434.477 325.841H439.683C440.114 325.841 440.464 326.19 440.464 326.621C440.465 327.053 440.114 327.402 439.683 327.402ZM429.271 327.402H424.065C423.634 327.402 423.284 327.053 423.284 326.621C423.284 326.19 423.634 325.841 424.065 325.841H429.271C429.702 325.841 430.052 326.19 430.052 326.621C430.052 327.053 429.702 327.402 429.271 327.402ZM418.859 327.402H413.652C413.221 327.402 412.871 327.053 412.871 326.621C412.871 326.19 413.221 325.841 413.652 325.841H418.859C419.29 325.841 419.639 326.19 419.639 326.621C419.639 327.053 419.29 327.402 418.859 327.402ZM476.077 326.797C475.726 326.797 475.406 326.557 475.32 326.199C475.218 325.78 475.475 325.358 475.894 325.256C477.52 324.862 479.097 324.271 480.579 323.497C480.962 323.298 481.433 323.446 481.632 323.829C481.831 324.21 481.683 324.682 481.3 324.881C479.705 325.714 478.01 326.35 476.262 326.774C476.2 326.79 476.139 326.797 476.077 326.797ZM485.223 322.035C485.007 322.035 484.791 321.946 484.637 321.77C484.352 321.447 484.384 320.953 484.709 320.668C485.966 319.563 487.089 318.308 488.047 316.937C488.293 316.584 488.78 316.497 489.134 316.745C489.488 316.992 489.574 317.48 489.327 317.832C488.298 319.304 487.091 320.653 485.74 321.841C485.591 321.971 485.407 322.035 485.223 322.035ZM491.126 313.585C491.032 313.585 490.937 313.567 490.845 313.532C490.443 313.377 490.243 312.925 490.399 312.523C491.001 310.963 491.412 309.331 491.621 307.672C491.674 307.243 492.051 306.939 492.493 306.995C492.922 307.048 493.225 307.439 493.17 307.867C492.946 309.652 492.503 311.407 491.855 313.086C491.736 313.395 491.44 313.585 491.126 313.585ZM492.567 303.353C492.136 303.353 491.786 303.003 491.786 302.572V297.365C491.786 296.934 492.136 296.584 492.567 296.584C492.998 296.584 493.348 296.934 493.348 297.365V302.572C493.349 303.003 492.998 303.353 492.567 303.353ZM492.567 292.939C492.136 292.939 491.786 292.59 491.786 292.158V286.953C491.786 286.522 492.136 286.172 492.567 286.172C492.998 286.172 493.348 286.522 493.348 286.953V292.158C493.349 292.59 492.998 292.939 492.567 292.939ZM492.567 282.527C492.136 282.527 491.786 282.177 491.786 281.746V276.54C491.786 276.109 492.136 275.76 492.567 275.76C492.998 275.76 493.348 276.109 493.348 276.54V281.746C493.349 282.177 492.998 282.527 492.567 282.527ZM492.567 272.115C492.136 272.115 491.786 271.765 491.786 271.334V266.127C491.786 265.696 492.136 265.346 492.567 265.346C492.998 265.346 493.348 265.696 493.348 266.127V271.334C493.349 271.764 492.998 272.115 492.567 272.115ZM492.567 261.702C492.136 261.702 491.786 261.353 491.786 260.922V255.715C491.786 255.284 492.136 254.934 492.567 254.934C492.998 254.934 493.348 255.284 493.348 255.715V260.922C493.349 261.352 492.998 261.702 492.567 261.702ZM492.567 251.289C492.136 251.289 491.786 250.939 491.786 250.508V245.303C491.786 244.871 492.136 244.522 492.567 244.522C492.998 244.522 493.348 244.871 493.348 245.303V250.508C493.349 250.939 492.998 251.289 492.567 251.289ZM492.567 240.876C492.136 240.876 491.786 240.526 491.786 240.095V234.888C491.786 234.457 492.136 234.107 492.567 234.107C492.998 234.107 493.348 234.457 493.348 234.888V240.095C493.349 240.526 492.998 240.876 492.567 240.876Z" fill="white"/>
<path d="M492.566 230.44C492.135 230.44 491.785 230.091 491.785 229.659V227.838H491.13C490.699 227.838 490.35 227.488 490.35 227.057C490.35 226.626 490.699 226.276 491.13 226.276H492.566C492.997 226.276 493.347 226.626 493.347 227.057V229.659C493.348 230.091 492.997 230.44 492.566 230.44Z" fill="#B19CFE"/>
<path d="M468.333 148.199H400.021C395.915 148.199 392.586 151.528 392.586 155.635V297.598C392.586 301.704 395.915 305.033 400.021 305.033H468.333C472.44 305.033 475.769 301.704 475.769 297.598V155.635C475.769 151.528 472.44 148.199 468.333 148.199Z" fill="#B19CFE"/>
<path d="M449.452 156.38H411.876C411.224 156.38 410.695 155.851 410.695 155.199V155.047C410.695 154.396 411.224 153.867 411.876 153.867H449.452C450.104 153.867 450.633 154.396 450.633 155.047V155.199C450.633 155.851 450.104 156.38 449.452 156.38Z" fill="#0F1B63"/>
<path d="M457.659 155.123C457.659 155.817 457.096 156.38 456.402 156.38C455.708 156.38 455.145 155.817 455.145 155.123C455.145 154.429 455.708 153.866 456.402 153.866C457.096 153.866 457.659 154.429 457.659 155.123Z" fill="#0F1B63"/>
<path d="M471.189 162.441H397.164V207.928H471.189V162.441Z" fill="white"/>
<path d="M448.22 181.448L442.793 187.941L428.75 171.141L405.27 199.228H433.357H452.228H463.084L448.22 181.448Z" fill="#FFC655"/>
<path d="M432.113 268.178H397.164V288.677H432.113V268.178Z" fill="white"/>
<path d="M421.269 276.144L418.706 279.209L412.076 271.277L400.99 284.539H414.251H423.161H428.286L421.269 276.144Z" fill="#FFC655"/>
<path d="M432.113 219.628H397.164V221.591H432.113V219.628Z" fill="#B19CFE"/>
<path d="M432.113 215.513H397.164V217.477H432.113V215.513Z" fill="#B19CFE"/>
<path d="M419.262 223.648H397.164V225.611H419.262V223.648Z" fill="#B19CFE"/>
<path d="M432.113 223.648H420.834V225.611H432.113V223.648Z" fill="#B19CFE"/>
<path d="M428.084 227.663H397.164V229.626H428.084V227.663Z" fill="#B19CFE"/>
<path d="M407.903 231.787H397.164V233.751H407.903V231.787Z" fill="#B19CFE"/>
<path d="M417.49 231.787H409.756V233.751H417.49V231.787Z" fill="#B19CFE"/>
<path d="M471.189 247.127H436.24V249.091H471.189V247.127Z" fill="#B19CFE"/>
<path d="M471.189 243.012H436.24V244.975H471.189V243.012Z" fill="#B19CFE"/>
<path d="M458.338 251.146H436.24V253.109H458.338V251.146Z" fill="#B19CFE"/>
<path d="M471.187 251.146H459.908V253.109H471.187V251.146Z" fill="#B19CFE"/>
<path d="M467.16 255.161H436.24V257.124H467.16V255.161Z" fill="#B19CFE"/>
<path d="M446.979 259.285H436.24V261.249H446.979V259.285Z" fill="#B19CFE"/>
<path d="M456.566 259.285H448.832V261.249H456.566V259.285Z" fill="#B19CFE"/>
<path d="M471.189 219.628H436.24V221.591H471.189V219.628Z" fill="#B19CFE"/>
<path d="M471.189 215.513H436.24V217.477H471.189V215.513Z" fill="#B19CFE"/>
<path d="M458.338 223.648H436.24V225.611H458.338V223.648Z" fill="#B19CFE"/>
<path d="M471.187 223.648H459.908V225.611H471.187V223.648Z" fill="#B19CFE"/>
<path d="M471.189 227.663H436.24V229.626H471.189V227.663Z" fill="#B19CFE"/>
<path d="M446.979 231.787H436.24V233.751H446.979V231.787Z" fill="#B19CFE"/>
<path d="M471.189 231.787H448.832V233.751H471.189V231.787Z" fill="#B19CFE"/>
<path d="M432.113 247.127H397.164V249.091H432.113V247.127Z" fill="#B19CFE"/>
<path d="M432.113 243.012H397.164V244.975H432.113V243.012Z" fill="#B19CFE"/>
<path d="M432.113 251.146H397.164V253.109H432.113V251.146Z" fill="#B19CFE"/>
<path d="M432.113 255.161H397.164V257.124H432.113V255.161Z" fill="#B19CFE"/>
<path d="M432.113 259.285H397.164V261.249H432.113V259.285Z" fill="#B19CFE"/>
<path d="M471.189 272.964H436.24V274.928H471.189V272.964Z" fill="#B19CFE"/>
<path d="M471.189 268.849H436.24V270.813H471.189V268.849Z" fill="#B19CFE"/>
<path d="M471.188 276.983H449.09V278.946H471.188V276.983Z" fill="#B19CFE"/>
<path d="M447.519 276.983H436.24V278.946H447.519V276.983Z" fill="#B19CFE"/>
<path d="M463.075 280.998H436.24V282.961H463.075V280.998Z" fill="#B19CFE"/>
<path d="M471.188 280.998H464.939V282.961H471.188V280.998Z" fill="#B19CFE"/>
<path d="M471.19 285.122H445.41V287.086H471.19V285.122Z" fill="#B19CFE"/>
<path d="M443.975 285.122H436.24V287.086H443.975V285.122Z" fill="#B19CFE"/>
<path d="M409.135 341.504H354.493C349.44 341.504 345.344 337.407 345.344 332.355V314.183C345.344 309.131 349.44 305.034 354.493 305.034H409.135C414.188 305.034 418.284 309.131 418.284 314.183V332.355C418.284 337.407 414.188 341.504 409.135 341.504Z" fill="#2FD047"/>
<path d="M495.381 281.016C495.381 282.895 493.857 284.418 491.978 284.418C490.099 284.418 488.576 282.895 488.576 281.016C488.576 279.137 490.099 277.613 491.978 277.613C493.857 277.613 495.381 279.137 495.381 281.016Z" fill="#B19CFE"/>
<path d="M491.978 287.392C488.462 287.392 485.602 284.532 485.602 281.016C485.602 277.5 488.463 274.639 491.978 274.639C495.494 274.639 498.354 277.5 498.354 281.016C498.355 284.532 495.494 287.392 491.978 287.392ZM491.978 275.419C488.892 275.419 486.382 277.93 486.382 281.015C486.382 284.1 488.893 286.61 491.978 286.61C495.064 286.61 497.573 284.1 497.573 281.015C497.573 277.93 495.064 275.419 491.978 275.419Z" fill="#B19CFE"/>
<path d="M521.341 231.094H466.698C461.645 231.094 457.549 226.998 457.549 221.945V203.773C457.549 198.721 461.645 194.624 466.698 194.624H521.341C526.393 194.624 530.489 198.721 530.489 203.773V221.945C530.489 226.998 526.393 231.094 521.341 231.094Z" fill="#2FD047"/>
<path d="M325.168 237.771H302.217V239.853H325.168V237.771Z" fill="#0F1B63"/>
<path d="M384.208 237.771H331.057V239.853H384.208V237.771Z" fill="#0F1B63"/>
<path d="M356.967 255.689C347.843 255.689 338.699 255.677 329.598 255.655L329.602 253.573C347.803 253.616 366.173 253.616 384.205 253.573L384.21 255.655C375.193 255.677 366.091 255.689 356.967 255.689Z" fill="#0F1B63"/>
<path d="M384.207 245.672H321.234V247.755H384.207V245.672Z" fill="#0F1B63"/>
<path d="M384.208 261.508H317.809V263.59H384.208V261.508Z" fill="#0F1B63"/>
<path d="M384.208 269.409H308.6V271.492H384.208V269.409Z" fill="#0F1B63"/>
<path d="M213.721 118.702H178.172V120.785H213.721V118.702Z" fill="#B19CFE"/>
<path d="M296.343 118.702H259.658V120.785H296.343V118.702Z" fill="#B19CFE"/>
<path d="M296.343 126.604H270.896V128.687H296.343V126.604Z" fill="#FFC655"/>
<path d="M296.344 142.441H260.43V144.523H296.344V142.441Z" fill="#FFC655"/>
<path d="M296.343 150.341H253.395V152.424H296.343V150.341Z" fill="#FFC655"/>
<path d="M296.343 159.58H241.098V161.662H296.343V159.58Z" fill="#FFC655"/>
<path d="M255.031 118.702H219.482V120.785H255.031V118.702Z" fill="#FFC655"/>
<path d="M267.646 136.62C262.215 136.62 256.766 136.612 245.867 136.597L238.781 136.587L238.783 134.505L245.87 134.515C267.664 134.545 267.666 134.545 289.305 134.515L296.344 134.505V136.587L289.308 136.597C278.487 136.613 273.076 136.62 267.646 136.62Z" fill="#FFC655"/>
<path d="M205.413 136.62C196.289 136.62 187.187 136.609 178.17 136.588L178.174 134.506C196.206 134.549 214.578 134.549 232.779 134.506L232.783 136.588C223.681 136.61 214.536 136.62 205.413 136.62Z" fill="#B19CFE"/>
<path d="M265.848 126.604H178.172V128.687H265.848V126.604Z" fill="#B19CFE"/>
<path d="M236.231 159.58H178.172V161.662H236.231V159.58Z" fill="#B19CFE"/>
<path d="M255.895 142.441H178.172V144.523H255.895V142.441Z" fill="#B19CFE"/>
<path d="M248.612 150.341H178.172V152.424H248.612V150.341Z" fill="#B19CFE"/>
<path d="M170.731 121.18C171.523 121.18 172.166 120.537 172.166 119.744C172.166 118.951 171.523 118.308 170.731 118.308C169.938 118.308 169.295 118.951 169.295 119.744C169.295 120.537 169.938 121.18 170.731 121.18Z" fill="#515151"/>
<path d="M172.166 127.646C172.166 128.439 171.523 129.081 170.731 129.081C169.938 129.081 169.295 128.439 169.295 127.646C169.295 126.853 169.938 126.21 170.731 126.21C171.523 126.209 172.166 126.852 172.166 127.646Z" fill="#515151"/>
<path d="M170.731 136.982C171.523 136.982 172.166 136.339 172.166 135.546C172.166 134.754 171.523 134.111 170.731 134.111C169.938 134.111 169.295 134.754 169.295 135.546C169.295 136.339 169.938 136.982 170.731 136.982Z" fill="#515151"/>
<path d="M172.166 143.448C172.166 144.241 171.523 144.884 170.731 144.884C169.938 144.884 169.295 144.241 169.295 143.448C169.295 142.655 169.938 142.012 170.731 142.012C171.523 142.012 172.166 142.655 172.166 143.448Z" fill="#515151"/>
<path d="M170.731 152.819C171.523 152.819 172.166 152.176 172.166 151.383C172.166 150.59 171.523 149.947 170.731 149.947C169.938 149.947 169.295 150.59 169.295 151.383C169.295 152.176 169.938 152.819 170.731 152.819Z" fill="#515151"/>
<path d="M172.166 160.621C172.166 161.414 171.523 162.056 170.731 162.056C169.938 162.056 169.295 161.414 169.295 160.621C169.295 159.828 169.938 159.185 170.731 159.185C171.523 159.185 172.166 159.828 172.166 160.621Z" fill="#515151"/>
<path d="M305.82 165.329C305.532 165.329 305.299 165.096 305.299 164.808V118.574C305.299 118.286 305.532 118.054 305.82 118.054C306.108 118.054 306.341 118.286 306.341 118.574V164.809C306.34 165.096 306.107 165.329 305.82 165.329Z" fill="#515151"/>
<path d="M217.195 265.058H213.995C213.699 265.058 213.462 264.819 213.462 264.525C213.462 264.23 213.7 263.992 213.995 263.992H217.195C217.491 263.992 217.728 264.231 217.728 264.525C217.729 264.819 217.491 265.058 217.195 265.058ZM210.795 265.058H207.595C207.3 265.058 207.062 264.819 207.062 264.525C207.062 264.23 207.301 263.992 207.595 263.992H210.795C211.09 263.992 211.328 264.231 211.328 264.525C211.329 264.819 211.09 265.058 210.795 265.058ZM204.394 265.058H203.099C202.37 265.058 201.65 264.872 201.016 264.52C200.757 264.377 200.666 264.053 200.808 263.795C200.952 263.536 201.279 263.445 201.533 263.587C202.01 263.851 202.551 263.991 203.099 263.991H204.394C204.69 263.991 204.927 264.23 204.927 264.524C204.928 264.819 204.69 265.058 204.394 265.058ZM199.419 262.098C199.175 262.098 198.954 261.928 198.9 261.678C198.834 261.377 198.801 261.067 198.801 260.76V258.371C198.801 258.076 199.04 257.839 199.334 257.839C199.628 257.839 199.867 258.077 199.867 258.371V260.76C199.867 260.991 199.892 261.225 199.941 261.452C200.004 261.741 199.821 262.025 199.534 262.087C199.495 262.094 199.457 262.098 199.419 262.098ZM199.334 255.705C199.039 255.705 198.801 255.466 198.801 255.172V251.971C198.801 251.676 199.04 251.438 199.334 251.438C199.628 251.438 199.867 251.677 199.867 251.971V255.172C199.867 255.466 199.629 255.705 199.334 255.705ZM199.334 249.304C199.039 249.304 198.801 249.065 198.801 248.77V245.569C198.801 245.274 199.04 245.036 199.334 245.036C199.628 245.036 199.867 245.275 199.867 245.569V248.77C199.867 249.065 199.629 249.304 199.334 249.304ZM199.334 242.903C199.039 242.903 198.801 242.664 198.801 242.37V239.169C198.801 238.874 199.04 238.636 199.334 238.636C199.628 238.636 199.867 238.875 199.867 239.169V242.37C199.867 242.665 199.629 242.903 199.334 242.903ZM199.334 236.502C199.039 236.502 198.801 236.263 198.801 235.969V235.579C198.801 234.494 199.206 233.457 199.942 232.662C200.143 232.446 200.479 232.432 200.697 232.632C200.912 232.832 200.927 233.17 200.726 233.386C200.173 233.984 199.868 234.763 199.868 235.58V235.97C199.867 236.264 199.629 236.502 199.334 236.502ZM219.194 232.348H215.994C215.699 232.348 215.462 232.109 215.462 231.815C215.462 231.521 215.7 231.282 215.994 231.282H219.194C219.489 231.282 219.728 231.521 219.728 231.815C219.728 232.109 219.489 232.348 219.194 232.348ZM212.794 232.348H209.594C209.299 232.348 209.061 232.109 209.061 231.815C209.061 231.521 209.3 231.282 209.594 231.282H212.794C213.089 231.282 213.327 231.521 213.327 231.815C213.327 232.109 213.089 232.348 212.794 232.348ZM206.393 232.348H203.193C202.898 232.348 202.66 232.109 202.66 231.815C202.66 231.521 202.899 231.282 203.193 231.282H206.393C206.688 231.282 206.926 231.521 206.926 231.815C206.926 232.109 206.688 232.348 206.393 232.348Z" fill="#0F1B63"/>
<path d="M228.804 251.207H211.672V253.341H228.804V251.207Z" fill="#0F1B63"/>
<path d="M260.967 251.207H233.289V253.341H260.967V251.207Z" fill="#0F1B63"/>
<path d="M260.965 269.358H243.834V271.492H260.965V269.358Z" fill="#0F1B63"/>
<path d="M239.35 269.358H211.672V271.492H239.35V269.358Z" fill="#0F1B63"/>
<path d="M241.805 257.389H211.672V259.523H241.805V257.389Z" fill="#0F1B63"/>
<path d="M260.964 257.389H246.287V259.523H260.964V257.389Z" fill="#0F1B63"/>
<path d="M236.469 263.458H211.672V265.592H236.469V263.458Z" fill="#0F1B63"/>
<path d="M260.965 263.458H244.139V265.592H260.965V263.458Z" fill="#0F1B63"/>
<path d="M220.64 225.432H211.672V242.132H220.64V225.432Z" fill="#FFC655"/>
<path d="M234.711 219.092H225.742V242.131H234.711V219.092Z" fill="#515151"/>
<path d="M248.318 205.948H239.35V242.131H248.318V205.948Z" fill="#542FD0"/>
<path d="M242.059 263.458H238.84V265.592H242.059V263.458Z" fill="#0F1B63"/>
<path d="M383.401 149.264H316.264V224.171H383.401V149.264Z" fill="#B19CFE"/>
<path d="M368.495 162.577H321.682V164.139H368.495V162.577Z" fill="white"/>
<path d="M345.04 175.505C337 175.505 328.976 175.497 321.682 175.479L321.686 173.917C336.272 173.954 353.773 173.954 368.495 173.917L368.499 175.479C361.136 175.497 353.08 175.505 345.04 175.505Z" fill="white"/>
<path d="M368.495 168.247H321.682V169.809H368.495V168.247Z" fill="white"/>
<path d="M355.809 179.614H321.682V181.175H355.809V179.614Z" fill="white"/>
<path d="M368.495 217.782H321.682V219.344H368.495V217.782Z" fill="white"/>
<path d="M368.495 208.005C353.771 207.969 336.271 207.969 321.686 208.005L321.682 206.443C336.271 206.409 353.774 206.409 368.499 206.443L368.495 208.005Z" fill="white"/>
<path d="M368.495 212.113H321.682V213.675H368.495V212.113Z" fill="white"/>
<path d="M355.809 200.747H321.682V202.308H355.809V200.747Z" fill="white"/>
<path d="M384.441 225.211H315.221V148.199H384.441V225.211ZM316.262 224.171H383.4V149.24H316.262V224.171Z" fill="#542FD0"/>
<path d="M383.921 148.719H315.742V157.692H383.921V148.719Z" fill="#542FD0"/>
<path d="M364.451 196.757C364.266 196.757 364.083 196.693 363.933 196.562L358.687 191.926C358.519 191.778 358.424 191.564 358.424 191.341C358.424 191.117 358.52 190.904 358.687 190.755L363.933 186.12C364.256 185.835 364.749 185.863 365.036 186.189C365.321 186.512 365.29 187.005 364.967 187.291L360.383 191.341L364.967 195.391C365.29 195.677 365.32 196.17 365.036 196.493C364.882 196.668 364.666 196.757 364.451 196.757Z" fill="white"/>
<path d="M372.544 196.757C372.329 196.757 372.113 196.668 371.959 196.493C371.674 196.17 371.705 195.677 372.027 195.391L376.611 191.341L372.027 187.291C371.705 187.005 371.675 186.512 371.959 186.189C372.245 185.865 372.738 185.836 373.062 186.12L378.308 190.755C378.476 190.904 378.571 191.117 378.571 191.341C378.571 191.564 378.475 191.777 378.308 191.926L373.062 196.562C372.913 196.693 372.728 196.757 372.544 196.757Z" fill="white"/>
<path d="M322.199 153.207L324.017 151.388C324.19 151.216 324.19 150.938 324.017 150.766C323.845 150.593 323.567 150.593 323.395 150.766L321.576 152.584L319.758 150.766C319.585 150.593 319.307 150.593 319.135 150.766C318.963 150.938 318.963 151.216 319.135 151.388L320.954 153.207L319.135 155.025C318.963 155.197 318.963 155.475 319.135 155.648C319.221 155.733 319.334 155.777 319.446 155.777C319.559 155.777 319.672 155.733 319.758 155.648L321.576 153.829L323.395 155.648C323.48 155.733 323.593 155.777 323.706 155.777C323.819 155.777 323.932 155.733 324.017 155.648C324.19 155.475 324.19 155.197 324.017 155.025L322.199 153.207Z" fill="white"/>
<path d="M329.999 155.777C328.581 155.777 327.428 154.623 327.428 153.207C327.428 151.789 328.581 150.637 329.999 150.637C331.416 150.637 332.569 151.79 332.569 153.207C332.569 154.624 331.416 155.777 329.999 155.777ZM329.999 151.459C329.036 151.459 328.252 152.242 328.252 153.206C328.252 154.169 329.036 154.953 329.999 154.953C330.962 154.953 331.746 154.169 331.746 153.206C331.746 152.242 330.962 151.459 329.999 151.459Z" fill="white"/>
<path d="M339.944 155.777H335.755C335.511 155.777 335.314 155.579 335.314 155.336C335.314 155.094 335.511 154.896 335.755 154.896H339.944C340.188 154.896 340.384 155.094 340.384 155.336C340.384 155.579 340.187 155.777 339.944 155.777Z" fill="white"/>
<path d="M252.631 26.9161C254.252 26.4028 255.99 27.3062 256.503 28.9278L258.421 34.9903C258.474 35.1588 258.51 35.3337 258.534 35.5137L258.598 35.9893L259.076 35.9483C262.538 35.6501 265.966 35.9604 269.231 36.8135L269.698 36.9346L269.841 36.4737C269.897 36.2926 269.96 36.1249 270.04 35.9688L272.944 30.3116C273.721 28.7992 275.586 28.1997 277.099 28.9756L282.755 31.8809C284.268 32.6587 284.867 34.5219 284.091 36.0342L281.187 41.6915C281.106 41.8475 281.006 41.9972 280.891 42.1495L280.599 42.5333L280.97 42.8419C283.636 45.0576 285.939 47.7458 287.735 50.8331L287.978 51.2491L288.404 51.0264C288.485 50.9843 288.566 50.9451 288.647 50.9102L288.896 50.8184L294.959 48.8995C296.581 48.387 298.318 49.2903 298.831 50.9102L300.749 56.9727C301.262 58.5936 300.36 60.3313 298.738 60.8438L292.677 62.7618C292.507 62.8151 292.331 62.8509 292.151 62.8751L291.676 62.9395L291.717 63.418C292.015 66.8787 291.704 70.3072 290.852 73.5723L290.73 74.0372L291.189 74.1797C291.373 74.2369 291.541 74.3008 291.697 74.3809L297.354 77.2852C298.867 78.0619 299.467 79.927 298.69 81.4395L295.784 87.0967C295.394 87.8572 294.729 88.3867 293.97 88.627C293.266 88.8491 292.486 88.8223 291.772 88.5001L291.631 88.4317L285.974 85.5274C285.818 85.4474 285.671 85.3475 285.518 85.2305L285.134 84.9376L284.824 85.3086C282.607 87.9764 279.919 90.28 276.831 92.0762L276.415 92.3184L276.638 92.7452C276.722 92.9063 276.793 93.069 276.846 93.2364V93.2374L278.765 99.2999C279.277 100.922 278.374 102.659 276.753 103.172V103.173L270.69 105.091C269.069 105.604 267.331 104.701 266.818 103.08V103.079L264.899 97.0176H264.9C264.847 96.8477 264.811 96.6731 264.787 96.4932L264.723 96.0167L264.244 96.0577C260.781 96.3549 257.352 96.0456 254.087 95.1924L253.62 95.0704L253.479 95.5313C253.421 95.7178 253.36 95.8835 253.281 96.0372V96.0381L250.376 101.694V101.695C250.034 102.361 249.483 102.849 248.842 103.122L248.562 103.226C247.859 103.448 247.079 103.422 246.365 103.1L246.224 103.031L240.566 100.127L240.301 99.9737C239.788 99.6437 239.389 99.1746 239.146 98.6143L239.039 98.3272C238.787 97.5427 238.855 96.708 239.232 95.9747V95.9737L242.137 90.3174C242.216 90.1629 242.317 90.0158 242.435 89.8604L242.726 89.4766L242.355 89.169C239.688 86.9523 237.384 84.2638 235.588 81.1758L235.346 80.7598L234.919 80.9825C234.758 81.0666 234.595 81.1378 234.428 81.1905H234.427L228.364 83.1085C226.742 83.6211 225.004 82.7191 224.491 81.0977L222.573 75.0342C222.077 73.4629 222.908 71.7832 224.435 71.2139L224.584 71.1622L230.647 69.2442L230.646 69.2432C230.815 69.1901 230.99 69.1551 231.17 69.1309L231.646 69.0674L231.604 68.5879C231.306 65.1265 231.618 61.6975 232.471 58.4327L232.593 57.9659L232.132 57.8233C231.945 57.7659 231.78 57.7062 231.626 57.627L231.625 57.626L225.969 54.7217C224.456 53.944 223.856 52.0798 224.633 50.5674L227.537 44.9112C227.914 44.1773 228.553 43.6351 229.338 43.3829L229.362 43.3741C230.14 43.131 230.965 43.2024 231.691 43.5752L237.348 46.4795C237.504 46.5597 237.654 46.6598 237.807 46.7754L238.19 47.0674L238.498 46.6963C240.714 44.0298 243.402 41.727 246.489 39.9307L246.905 39.6885L246.683 39.2618C246.599 39.1007 246.527 38.9379 246.475 38.7706V38.7696L244.557 32.7071C244.044 31.0851 244.946 29.3476 246.567 28.835L252.631 26.917V26.9161ZM278.21 60.7676C275.323 51.6416 265.551 46.5655 256.425 49.4522C247.299 52.339 242.224 62.1115 245.11 71.2374C247.997 80.3634 257.769 85.4394 266.896 82.5528C276.02 79.6661 281.096 69.8946 278.21 60.7676Z" fill="#630F60" stroke="#630F60" stroke-width="1.00748"/>
<path d="M287.15 189.184L285.676 192.793C285.627 192.912 285.591 193.034 285.565 193.157C283.37 192.787 281.164 192.819 279.039 193.213C279.01 193.088 278.973 192.963 278.922 192.842L277.395 189.255C276.919 188.139 275.625 187.618 274.509 188.093L270.923 189.619C269.807 190.094 269.285 191.389 269.76 192.504L271.287 196.091C271.339 196.212 271.403 196.324 271.473 196.432C269.763 197.656 268.247 199.175 267.009 200.952C266.904 200.886 266.792 200.825 266.671 200.776L263.062 199.302C261.939 198.843 260.652 199.384 260.194 200.507L258.72 204.116C258.262 205.239 258.802 206.526 259.925 206.984L263.534 208.458C263.654 208.507 263.775 208.543 263.898 208.569C263.528 210.764 263.56 212.97 263.954 215.095C263.829 215.124 263.704 215.161 263.583 215.212L259.996 216.739C259.458 216.968 259.042 217.391 258.822 217.931C258.821 217.934 258.819 217.938 258.818 217.941C258.598 218.486 258.604 219.085 258.834 219.625L260.361 223.211C260.837 224.327 262.131 224.849 263.247 224.374L266.833 222.847C266.954 222.795 267.066 222.73 267.173 222.66C268.397 224.371 269.916 225.887 271.694 227.125C271.628 227.23 271.567 227.343 271.518 227.463L270.044 231.072C269.586 232.195 270.126 233.482 271.249 233.94L274.858 235.414C275.981 235.872 277.268 235.332 277.726 234.209L279.2 230.6C279.249 230.48 279.285 230.359 279.311 230.236C281.506 230.606 283.713 230.574 285.838 230.179C285.867 230.304 285.902 230.428 285.954 230.55L287.481 234.137C287.711 234.678 288.138 235.096 288.683 235.315C289.228 235.535 289.827 235.529 290.367 235.299L293.954 233.772C294.508 233.536 294.916 233.098 295.127 232.579C295.342 232.054 295.355 231.448 295.116 230.886L293.59 227.3C293.538 227.178 293.473 227.067 293.402 226.96C295.113 225.736 296.629 224.217 297.867 222.439C297.973 222.505 298.085 222.566 298.205 222.615L301.814 224.089C302.937 224.547 304.224 224.007 304.682 222.884L306.156 219.275C306.615 218.152 306.075 216.865 304.951 216.407L301.342 214.933C301.223 214.884 301.101 214.848 300.978 214.822C301.348 212.627 301.316 210.419 300.921 208.295C301.046 208.265 301.17 208.231 301.292 208.179L304.879 206.651C305.433 206.416 305.841 205.976 306.052 205.459C306.267 204.934 306.28 204.327 306.04 203.766L304.514 200.178C304.038 199.062 302.744 198.541 301.629 199.016L298.042 200.543C297.921 200.595 297.809 200.659 297.701 200.729C296.477 199.019 294.958 197.503 293.181 196.265C293.247 196.16 293.308 196.047 293.357 195.927L294.831 192.318C295.289 191.195 294.749 189.908 293.626 189.45L290.017 187.976C288.895 187.519 287.608 188.06 287.15 189.184ZM292.004 215.603C289.85 220.877 283.807 223.416 278.533 221.263C273.259 219.109 270.72 213.066 272.873 207.792C275.027 202.518 281.07 199.979 286.344 202.133C291.618 204.286 294.157 210.329 292.004 215.603Z" fill="#B19CFE"/>
<path d="M263.248 170.862L261.33 172.805C261.266 172.87 261.211 172.939 261.16 173.012C259.838 172.186 258.401 171.616 256.919 171.305C256.934 171.216 256.943 171.126 256.942 171.034L256.912 168.304C256.902 167.454 256.203 166.77 255.353 166.78L252.622 166.812C251.773 166.822 251.089 167.52 251.099 168.37L251.13 171.101C251.131 171.192 251.143 171.282 251.159 171.371C249.724 171.707 248.337 172.285 247.062 173.106C247.01 173.035 246.955 172.966 246.889 172.902L244.946 170.984C244.341 170.387 243.363 170.393 242.767 170.998L240.849 172.941C240.252 173.546 240.258 174.524 240.863 175.12L242.806 177.039C242.871 177.102 242.94 177.157 243.013 177.208C242.186 178.531 241.617 179.968 241.306 181.449C241.217 181.434 241.127 181.425 241.035 181.426L238.305 181.457C237.896 181.462 237.513 181.625 237.226 181.916C237.224 181.918 237.222 181.919 237.221 181.921C236.932 182.215 236.777 182.604 236.781 183.016L236.813 185.746C236.823 186.596 237.522 187.28 238.371 187.27L241.102 187.238C241.195 187.237 241.284 187.225 241.372 187.208C241.709 188.643 242.287 190.03 243.108 191.307C243.037 191.358 242.968 191.414 242.904 191.479L240.986 193.422C240.389 194.027 240.395 195.005 241 195.601L242.943 197.52C243.548 198.116 244.526 198.11 245.122 197.506L247.041 195.562C247.104 195.498 247.159 195.428 247.21 195.356C248.533 196.182 249.97 196.751 251.452 197.062C251.437 197.151 251.427 197.241 251.428 197.333L251.459 200.064C251.464 200.476 251.629 200.86 251.923 201.149C252.217 201.437 252.606 201.592 253.018 201.588L255.749 201.558C256.171 201.553 256.552 201.377 256.828 201.098C257.107 200.816 257.278 200.426 257.272 199.999L257.241 197.269C257.24 197.176 257.227 197.087 257.211 196.999C258.646 196.662 260.033 196.084 261.309 195.263C261.361 195.334 261.417 195.404 261.482 195.467L263.425 197.386C264.03 197.983 265.008 197.976 265.604 197.372L267.523 195.428C268.119 194.824 268.113 193.845 267.508 193.249L265.565 191.331C265.501 191.267 265.431 191.212 265.359 191.161C266.185 189.839 266.754 188.401 267.066 186.919C267.155 186.934 267.245 186.944 267.337 186.943L270.068 186.912C270.49 186.907 270.871 186.733 271.147 186.453C271.426 186.169 271.596 185.781 271.591 185.353L271.561 182.622C271.551 181.773 270.851 181.089 270.002 181.099L267.272 181.13C267.18 181.131 267.09 181.143 267.002 181.159C266.665 179.725 266.087 178.337 265.266 177.062C265.337 177.01 265.407 176.954 265.47 176.889L267.389 174.946C267.985 174.342 267.979 173.363 267.374 172.767L265.431 170.849C264.823 170.251 263.845 170.257 263.248 170.862ZM259.336 189.267C256.532 192.108 251.941 192.139 249.1 189.335C246.259 186.531 246.228 181.94 249.032 179.099C251.835 176.259 256.427 176.229 259.268 179.031C262.108 181.836 262.139 186.427 259.336 189.267Z" stroke="#B19CFE" stroke-width="0.503741" stroke-miterlimit="10"/>
<path d="M109.865 145.474H97.418V147.557H109.865V145.474Z" fill="#0F1B63"/>
<path d="M146.76 145.474H115.01V147.557H146.76V145.474Z" fill="#0F1B63"/>
<path d="M146.758 167.829H127.105V169.912H146.758V167.829Z" fill="#0F1B63"/>
<path d="M121.963 167.829H97.418V169.912H121.963V167.829Z" fill="#0F1B63"/>
<path d="M124.779 153.087H97.418V155.169H124.779V153.087Z" fill="#0F1B63"/>
<path d="M146.759 153.087H129.922V155.169H146.759V153.087Z" fill="#0F1B63"/>
<path d="M118.658 160.562H97.418V162.645H118.658V160.562Z" fill="#0F1B63"/>
<path d="M146.759 160.562H127.457V162.645H146.759V160.562Z" fill="#0F1B63"/>
<path d="M125.067 160.562H121.375V162.645H125.067V160.562Z" fill="#0F1B63"/>
<path d="M437.93 340.48H425.482V342.563H437.93V340.48Z" fill="#0F1B63"/>
<path d="M474.822 340.48H443.072V342.563H474.822V340.48Z" fill="#0F1B63"/>
<path d="M474.823 362.835H455.17V364.918H474.823V362.835Z" fill="#0F1B63"/>
<path d="M450.027 362.835H425.482V364.918H450.027V362.835Z" fill="#0F1B63"/>
<path d="M452.843 348.094H425.482V350.176H452.843V348.094Z" fill="#0F1B63"/>
<path d="M474.823 348.094H457.986V350.176H474.823V348.094Z" fill="#0F1B63"/>
<path d="M446.722 355.568H425.482V357.651H446.722V355.568Z" fill="#0F1B63"/>
<path d="M474.822 355.568H455.52V357.651H474.822V355.568Z" fill="#0F1B63"/>
<path d="M453.132 355.568H449.439V357.651H453.132V355.568Z" fill="#0F1B63"/>
<path d="M435.48 63.6337C436.73 63.3665 437.964 64.1651 438.231 65.414L439.278 70.3027C439.305 70.4327 439.32 70.5648 439.325 70.7021L439.343 71.1816L439.823 71.1865C442.542 71.2121 445.19 71.7106 447.67 72.6181L448.122 72.7832L448.308 72.3388C448.364 72.2039 448.423 72.083 448.493 71.9746H448.494L451.19 67.7646C451.879 66.6885 453.316 66.375 454.392 67.0634L458.601 69.7597C459.676 70.4489 459.991 71.8855 459.302 72.9609L456.604 77.1699V77.1709C456.535 77.2801 456.449 77.3855 456.351 77.4921L456.023 77.8466L456.363 78.1894C458.276 80.115 459.87 82.3805 461.039 84.9189L461.24 85.3554L461.686 85.1748C461.812 85.1235 461.94 85.0829 462.069 85.0546L462.068 85.0537L466.956 84.0078C468.127 83.7573 469.286 84.4439 469.647 85.5615L469.709 85.79L470.756 90.6777C471.006 91.8489 470.32 93.0067 469.204 93.3671L468.976 93.4287L464.087 94.4755C463.958 94.5026 463.825 94.5172 463.688 94.5224L463.207 94.54L463.203 95.0205C463.177 97.7385 462.679 100.386 461.771 102.866L461.606 103.317L462.05 103.504C462.185 103.561 462.307 103.62 462.415 103.689V103.69L466.624 106.387C467.699 107.076 468.014 108.513 467.325 109.588L464.629 113.797C464.283 114.337 463.747 114.686 463.162 114.811C462.584 114.935 461.961 114.84 461.427 114.498L457.219 111.802C457.11 111.731 457.006 111.646 456.897 111.546L456.543 111.219L456.2 111.559C454.275 113.472 452.009 115.067 449.47 116.235L449.033 116.436L449.214 116.882C449.265 117.008 449.306 117.136 449.334 117.266L450.381 122.152C450.648 123.402 449.849 124.636 448.6 124.903L443.712 125.95C442.463 126.217 441.228 125.419 440.961 124.17V124.169L439.914 119.281L439.913 119.279C439.885 119.152 439.871 119.02 439.866 118.882L439.849 118.402L439.368 118.397L438.858 118.387C436.318 118.307 433.845 117.816 431.521 116.965L431.066 116.799L430.882 117.246C430.825 117.383 430.768 117.502 430.699 117.608L430.698 117.609L428.002 121.819C427.656 122.36 427.12 122.708 426.535 122.833C425.957 122.957 425.335 122.862 424.801 122.519L420.591 119.823V119.822C420.069 119.488 419.71 118.974 419.577 118.368C419.445 117.762 419.556 117.144 419.891 116.622L422.587 112.412C422.656 112.304 422.74 112.202 422.842 112.093L423.17 111.738L422.83 111.395C420.916 109.47 419.322 107.204 418.153 104.665L417.952 104.228L417.507 104.409C417.38 104.46 417.252 104.501 417.122 104.529L412.235 105.576C410.986 105.843 409.753 105.044 409.485 103.795L408.438 98.9072C408.171 97.6567 408.97 96.4225 410.219 96.1552L415.107 95.1084L415.106 95.1074C415.237 95.0801 415.37 95.0666 415.507 95.0615L415.986 95.0439L415.991 94.5634C416.018 91.8443 416.516 89.1957 417.424 86.7158L417.59 86.2617L417.143 86.0771C417.006 86.0208 416.888 85.9629 416.779 85.8935L412.569 83.1972V83.1962C411.493 82.5071 411.179 81.0707 411.867 79.9951L411.868 79.996L414.563 75.7861L414.564 75.7871C414.9 75.2645 415.415 74.905 416.021 74.7724L416.027 74.7714L416.031 74.7705C416.633 74.6421 417.247 74.7535 417.766 75.0859L421.975 77.7822C422.084 77.8523 422.189 77.9375 422.296 78.0361L422.65 78.3642L422.992 78.0244C424.918 76.1125 427.184 74.5182 429.723 73.3496L430.159 73.1484L429.979 72.7031C429.927 72.5769 429.887 72.4498 429.858 72.3203L428.812 67.4316C428.545 66.1822 429.344 64.9477 430.593 64.6806L435.48 63.6337ZM453.044 91.913C451.456 84.497 444.133 79.7563 436.717 81.3437C429.301 82.9313 424.56 90.2559 426.147 97.6718C427.735 105.088 435.06 109.828 442.476 108.24C449.891 106.653 454.631 99.3291 453.044 91.913Z" fill="#630F60" stroke="#630F60" stroke-width="1.00748"/>
<path d="M358.791 89.5482L346.802 84.9893V81.715L358.791 77.1562V80.3045L347.986 84.2337V82.4706L358.791 86.3998V89.5482ZM359.487 94.6863L367.799 70.9602H371.3L362.988 94.6863H359.487ZM371.743 89.5482V86.3998L382.548 82.4706V84.2337L371.743 80.3045V77.1562L383.732 81.715V84.9893L371.743 89.5482Z" fill="white"/>
<path d="M136.89 351.822V338.366H139.719V344.768L139.084 343.952C139.435 343.299 139.936 342.797 140.589 342.446C141.242 342.096 141.986 341.921 142.82 341.921C143.593 341.921 144.283 342.078 144.887 342.392C145.504 342.694 145.987 343.166 146.338 343.807C146.688 344.435 146.864 345.245 146.864 346.237V351.822H144.035V346.672C144.035 345.886 143.859 345.306 143.509 344.931C143.17 344.556 142.687 344.369 142.058 344.369C141.611 344.369 141.206 344.465 140.843 344.659C140.492 344.84 140.214 345.124 140.009 345.511C139.815 345.898 139.719 346.394 139.719 346.998V351.822H136.89ZM153.418 351.967C152.269 351.967 151.375 351.677 150.734 351.097C150.093 350.504 149.773 349.628 149.773 348.467V339.908H152.602V348.431C152.602 348.842 152.71 349.162 152.928 349.392C153.146 349.61 153.442 349.718 153.817 349.718C154.264 349.718 154.645 349.598 154.959 349.356L155.721 351.351C155.431 351.556 155.08 351.713 154.669 351.822C154.27 351.919 153.853 351.967 153.418 351.967ZM148.267 344.242V342.066H155.032V344.242H148.267ZM157.309 351.822V342.066H160.011V344.731L159.503 343.952C159.842 343.287 160.319 342.785 160.936 342.446C161.564 342.096 162.278 341.921 163.076 341.921C163.97 341.921 164.75 342.15 165.415 342.61C166.092 343.057 166.539 343.746 166.757 344.677L165.76 344.405C166.086 343.643 166.606 343.039 167.319 342.592C168.045 342.144 168.873 341.921 169.804 341.921C170.577 341.921 171.26 342.078 171.853 342.392C172.457 342.694 172.929 343.166 173.267 343.807C173.618 344.435 173.793 345.245 173.793 346.237V351.822H170.964V346.672C170.964 345.886 170.801 345.306 170.475 344.931C170.148 344.556 169.689 344.369 169.096 344.369C168.685 344.369 168.317 344.465 167.99 344.659C167.664 344.84 167.41 345.118 167.229 345.493C167.047 345.868 166.957 346.345 166.957 346.926V351.822H164.128V346.672C164.128 345.886 163.964 345.306 163.638 344.931C163.324 344.556 162.87 344.369 162.278 344.369C161.867 344.369 161.498 344.465 161.172 344.659C160.845 344.84 160.591 345.118 160.41 345.493C160.229 345.868 160.138 346.345 160.138 346.926V351.822H157.309ZM176.329 351.822V338.366H179.158V351.822H176.329Z" fill="white"/>
<path d="M178.806 202.002C178.339 202.002 177.892 201.95 177.464 201.847C177.037 201.756 176.674 201.614 176.376 201.419L177.192 199.223C177.542 199.469 177.97 199.592 178.475 199.592C178.851 199.592 179.149 199.462 179.369 199.203C179.603 198.957 179.719 198.581 179.719 198.076V187.617H182.752V198.056C182.752 199.261 182.408 200.22 181.721 200.933C181.035 201.646 180.063 202.002 178.806 202.002ZM181.236 186.16C180.678 186.16 180.225 185.998 179.875 185.674C179.525 185.35 179.35 184.948 179.35 184.468C179.35 183.989 179.525 183.587 179.875 183.263C180.225 182.939 180.678 182.777 181.236 182.777C181.793 182.777 182.246 182.933 182.596 183.244C182.946 183.542 183.121 183.931 183.121 184.41C183.121 184.915 182.946 185.337 182.596 185.674C182.259 185.998 181.806 186.16 181.236 186.16ZM189.062 198.231C188.168 198.231 187.306 198.127 186.477 197.92C185.661 197.7 185.013 197.428 184.533 197.104L185.544 194.927C186.023 195.225 186.587 195.471 187.235 195.665C187.896 195.847 188.544 195.937 189.179 195.937C189.879 195.937 190.371 195.853 190.656 195.685C190.954 195.516 191.104 195.283 191.104 194.985C191.104 194.739 190.987 194.557 190.754 194.441C190.533 194.311 190.235 194.214 189.859 194.149C189.484 194.084 189.069 194.019 188.615 193.955C188.175 193.89 187.728 193.806 187.274 193.702C186.82 193.585 186.406 193.417 186.03 193.196C185.654 192.976 185.35 192.678 185.116 192.302C184.896 191.926 184.786 191.44 184.786 190.844C184.786 190.183 184.974 189.6 185.35 189.095C185.738 188.589 186.296 188.194 187.021 187.909C187.747 187.611 188.615 187.462 189.626 187.462C190.339 187.462 191.065 187.54 191.803 187.695C192.542 187.851 193.158 188.078 193.65 188.376L192.639 190.533C192.134 190.235 191.622 190.034 191.104 189.931C190.598 189.814 190.106 189.756 189.626 189.756C188.952 189.756 188.46 189.846 188.149 190.028C187.838 190.209 187.682 190.443 187.682 190.728C187.682 190.987 187.792 191.181 188.013 191.311C188.246 191.44 188.551 191.544 188.926 191.622C189.302 191.7 189.71 191.771 190.151 191.836C190.605 191.888 191.058 191.972 191.512 192.088C191.965 192.205 192.374 192.374 192.736 192.594C193.112 192.801 193.417 193.093 193.65 193.469C193.883 193.831 194 194.311 194 194.907C194 195.555 193.806 196.132 193.417 196.637C193.028 197.13 192.464 197.518 191.726 197.804C191 198.089 190.112 198.231 189.062 198.231Z" fill="white"/>
<path d="M368.499 330.045C367.076 330.045 365.809 329.759 364.697 329.187C363.585 328.598 362.71 327.789 362.072 326.758C361.451 325.728 361.14 324.559 361.14 323.251C361.14 321.926 361.451 320.757 362.072 319.743C362.71 318.713 363.585 317.912 364.697 317.339C365.809 316.751 367.076 316.456 368.499 316.456C369.889 316.456 371.099 316.751 372.129 317.339C373.159 317.912 373.92 318.738 374.41 319.817L371.442 321.411C371.099 320.79 370.666 320.332 370.142 320.038C369.635 319.743 369.079 319.596 368.474 319.596C367.82 319.596 367.232 319.743 366.708 320.038C366.185 320.332 365.768 320.749 365.457 321.289C365.163 321.828 365.016 322.482 365.016 323.251C365.016 324.019 365.163 324.673 365.457 325.213C365.768 325.753 366.185 326.17 366.708 326.464C367.232 326.758 367.82 326.906 368.474 326.906C369.079 326.906 369.635 326.767 370.142 326.489C370.666 326.194 371.099 325.728 371.442 325.09L374.41 326.709C373.92 327.772 373.159 328.598 372.129 329.187C371.099 329.759 369.889 330.045 368.499 330.045ZM380.133 326.93V315.598H383.297V326.93H380.133ZM375.889 322.76V319.768H387.565V322.76H375.889ZM394.912 326.93V315.598H398.076V326.93H394.912ZM390.669 322.76V319.768H402.344V322.76H390.669Z" fill="white"/>
<path d="M470.075 222.296C469.633 222.296 469.21 222.247 468.806 222.149C468.401 222.063 468.058 221.928 467.775 221.744L468.548 219.665C468.879 219.898 469.284 220.015 469.762 220.015C470.118 220.015 470.4 219.892 470.609 219.647C470.829 219.414 470.94 219.058 470.94 218.58V208.682H473.809V218.561C473.809 219.702 473.484 220.609 472.834 221.284C472.184 221.958 471.265 222.296 470.075 222.296ZM472.375 207.303C471.847 207.303 471.418 207.149 471.087 206.843C470.756 206.536 470.59 206.156 470.59 205.702C470.59 205.248 470.756 204.868 471.087 204.562C471.418 204.255 471.847 204.102 472.375 204.102C472.902 204.102 473.331 204.249 473.662 204.543C473.993 204.825 474.159 205.193 474.159 205.647C474.159 206.125 473.993 206.524 473.662 206.843C473.343 207.149 472.914 207.303 472.375 207.303ZM482.523 218.58V216.648L482.339 216.225V212.766C482.339 212.153 482.149 211.675 481.769 211.331C481.401 210.988 480.83 210.816 480.058 210.816C479.53 210.816 479.009 210.902 478.494 211.074C477.991 211.233 477.562 211.454 477.206 211.736L476.176 209.731C476.716 209.351 477.366 209.056 478.126 208.848C478.886 208.639 479.659 208.535 480.444 208.535C481.952 208.535 483.124 208.891 483.958 209.602C484.792 210.314 485.209 211.423 485.209 212.932V218.58H482.523ZM479.506 218.727C478.733 218.727 478.071 218.598 477.519 218.341C476.967 218.071 476.544 217.709 476.25 217.255C475.955 216.801 475.808 216.292 475.808 215.728C475.808 215.14 475.949 214.624 476.231 214.183C476.526 213.741 476.985 213.398 477.611 213.153C478.236 212.895 479.052 212.766 480.058 212.766H482.688V214.44H480.37C479.696 214.44 479.23 214.551 478.972 214.772C478.727 214.992 478.604 215.268 478.604 215.599C478.604 215.967 478.745 216.262 479.027 216.482C479.322 216.691 479.72 216.795 480.223 216.795C480.702 216.795 481.131 216.685 481.511 216.464C481.891 216.231 482.167 215.894 482.339 215.452L482.78 216.777C482.572 217.415 482.192 217.899 481.64 218.23C481.088 218.561 480.377 218.727 479.506 218.727ZM490.312 218.58L486.155 208.682H489.116L492.575 217.2H491.103L494.691 208.682H497.45L493.274 218.58H490.312ZM504.297 218.58V216.648L504.113 216.225V212.766C504.113 212.153 503.923 211.675 503.542 211.331C503.174 210.988 502.604 210.816 501.832 210.816C501.304 210.816 500.783 210.902 500.268 211.074C499.765 211.233 499.336 211.454 498.98 211.736L497.95 209.731C498.49 209.351 499.14 209.056 499.9 208.848C500.66 208.639 501.433 208.535 502.218 208.535C503.726 208.535 504.898 208.891 505.732 209.602C506.566 210.314 506.983 211.423 506.983 212.932V218.58H504.297ZM501.28 218.727C500.507 218.727 499.845 218.598 499.293 218.341C498.741 218.071 498.318 217.709 498.023 217.255C497.729 216.801 497.582 216.292 497.582 215.728C497.582 215.14 497.723 214.624 498.005 214.183C498.299 213.741 498.759 213.398 499.385 213.153C500.01 212.895 500.826 212.766 501.832 212.766H504.462V214.44H502.144C501.47 214.44 501.004 214.551 500.746 214.772C500.501 214.992 500.378 215.268 500.378 215.599C500.378 215.967 500.519 216.262 500.801 216.482C501.096 216.691 501.494 216.795 501.997 216.795C502.475 216.795 502.905 216.685 503.285 216.464C503.665 216.231 503.941 215.894 504.113 215.452L504.554 216.777C504.346 217.415 503.966 217.899 503.414 218.23C502.862 218.561 502.15 218.727 501.28 218.727Z" fill="white"/>
</g>
<defs>
<clipPath id="clip0_189_26797">
<rect width="538" height="390" fill="white" transform="translate(43)"/>
</clipPath>
</defs>
</svg>
