<svg width="623" height="375" viewBox="0 0 623 375" fill="none" xmlns="http://www.w3.org/2000/svg">
<g clip-path="url(#clip0_189_26649)">
<path fill-rule="evenodd" clip-rule="evenodd" d="M279.889 276.044C279.889 274.169 281.287 272.59 283.148 272.362L290.332 271.485L297.532 244.001H350.924L358.124 271.485L365.308 272.362C367.168 272.59 368.567 274.169 368.567 276.044H279.889Z" fill="#D0D2D3"/>
<path fill-rule="evenodd" clip-rule="evenodd" d="M296.332 248.583L297.531 244.001H350.922L352.124 248.583H296.332Z" fill="#BBBDBF"/>
<path fill-rule="evenodd" clip-rule="evenodd" d="M189.721 221.027V66.7744C189.721 63.4828 192.39 60.8123 195.683 60.8123H448.296C451.592 60.8123 454.257 63.4828 454.257 66.7744V221.026L189.721 221.027Z" fill="#2C2D2C"/>
<path fill-rule="evenodd" clip-rule="evenodd" d="M448.296 244.872H195.683C192.389 244.872 189.721 242.204 189.721 238.913V221.027H454.258V238.913C454.258 242.204 451.592 244.872 448.296 244.872Z" fill="black"/>
<path fill-rule="evenodd" clip-rule="evenodd" d="M279.889 276.044C279.889 274.169 281.287 272.59 283.148 272.362L290.332 271.485H358.124L365.308 272.362C367.168 272.59 368.567 274.169 368.567 276.044H279.889Z" fill="#E6E7E8"/>
<path d="M446.061 71.2461H197.918V210.594H446.061V71.2461Z" fill="white"/>
<path d="M446.061 71.2461H197.918V78.0118H446.061V71.2461Z" fill="#CBAD4B"/>
<path d="M229.386 87.0107H212.947V92.9871H229.386V87.0107Z" fill="#00A498"/>
<path d="M275.256 138.618H212.947V191.316H275.256V138.618Z" fill="#647882"/>
<path d="M251.353 148.464C252.762 147.622 254.781 147.97 256.489 149.175C258.184 150.37 259.396 152.294 259.256 154.329L259.252 154.376L259.258 154.423L259.259 154.426C259.259 154.429 259.259 154.433 259.26 154.439C259.261 154.452 259.263 154.471 259.266 154.497C259.271 154.549 259.279 154.627 259.287 154.729C259.304 154.932 259.325 155.232 259.339 155.608C259.367 156.362 259.37 157.423 259.268 158.649C259.063 161.111 258.439 164.194 256.791 166.791L256.711 166.917L256.713 167.065V167.066V167.078C256.713 167.086 256.714 167.099 256.714 167.115C256.714 167.149 256.714 167.199 256.715 167.265C256.716 167.395 256.716 167.588 256.716 167.833C256.715 168.324 256.71 169.027 256.69 169.876C256.652 171.575 256.559 173.851 256.344 176.168C256.128 178.49 255.79 180.83 255.267 182.665C255.005 183.584 254.702 184.353 254.359 184.925C254.013 185.503 253.66 185.823 253.321 185.941C253.089 186.023 252.926 186.009 252.802 185.962H252.801C252.614 185.891 252.401 185.695 252.185 185.278C251.972 184.868 251.789 184.308 251.629 183.625C251.307 182.256 251.1 180.515 250.856 178.729C250.616 176.966 250.341 175.16 249.88 173.734C249.649 173.021 249.362 172.373 248.989 171.865C248.613 171.353 248.13 170.959 247.511 170.812L247.454 170.799H243.257L243.2 170.812C242.525 170.971 242.013 171.423 241.623 172.003C241.236 172.579 240.944 173.317 240.711 174.125C240.246 175.739 239.982 177.77 239.728 179.673C239.469 181.606 239.223 183.391 238.806 184.61C238.596 185.224 238.365 185.619 238.131 185.825C238.021 185.921 237.917 185.971 237.813 185.99C237.735 186.005 237.639 186.005 237.519 185.978L237.39 185.939C237.239 185.887 237.084 185.795 236.927 185.654H236.926C236.917 185.647 236.91 185.64 236.905 185.636C236.898 185.629 236.896 185.626 236.895 185.625C236.558 185.311 236.236 184.801 235.941 184.104C235.649 183.414 235.396 182.572 235.18 181.63C234.747 179.745 234.471 177.501 234.295 175.336C234.119 173.174 234.045 171.105 234.015 169.575C234 168.811 233.995 168.182 233.995 167.745C233.995 167.526 233.995 167.355 233.996 167.239C233.997 167.182 233.997 167.138 233.997 167.108C233.997 167.094 233.998 167.082 233.998 167.074V167.064L234 166.915L233.92 166.789C232.271 164.192 231.648 161.109 231.443 158.648C231.341 157.422 231.344 156.361 231.372 155.607C231.386 155.231 231.407 154.932 231.424 154.729C231.432 154.627 231.44 154.549 231.445 154.497C231.448 154.471 231.45 154.452 231.451 154.439C231.452 154.433 231.453 154.429 231.453 154.426V154.423L231.459 154.376L231.456 154.329C231.316 152.294 232.527 150.37 234.222 149.175C235.93 147.97 237.949 147.622 239.358 148.464C241.463 149.722 243.804 150.232 245.285 150.442L245.355 150.452L245.425 150.442C246.652 150.269 248.463 149.888 250.24 149.052L250.241 149.053C250.614 148.878 250.987 148.683 251.353 148.464Z" fill="white" stroke="#91B3FA"/>
<path d="M431.032 97.0408H368.723V191.316H431.032V97.0408Z" fill="#5A5743"/>
<path d="M424.706 103.684H375.051V127.809H424.706V103.684Z" fill="#788264"/>
<path d="M424.706 131.644H375.051V155.77H424.706V131.644Z" fill="#788264"/>
<path d="M424.706 159.605H375.051V183.73H424.706V159.605Z" fill="#788264"/>
<path d="M446.061 198.207H197.918V210.592H446.061V198.207Z" fill="#CBAD4B"/>
<path d="M353.143 164.728H290.834V169.049H353.143V164.728Z" fill="#D68BE0"/>
<path d="M353.143 172.151H290.834V176.472H353.143V172.151Z" fill="#D68BE0"/>
<path d="M353.143 179.574H290.834V183.895H353.143V179.574Z" fill="#D68BE0"/>
<path d="M330.285 186.996H290.834V191.316H330.285V186.996Z" fill="#D68BE0"/>
<path fill-rule="evenodd" clip-rule="evenodd" d="M352.742 115.924C352.531 115.722 352.581 115.429 352.854 115.272C353.129 115.116 353.522 115.152 353.734 115.356L356.917 118.425C356.935 118.443 356.952 118.46 356.967 118.479L356.971 118.483L356.973 118.487L356.976 118.491C356.984 118.501 356.993 118.514 357.001 118.526L357.013 118.549L357.018 118.559L357.031 118.589L357.04 118.621C357.045 118.636 357.048 118.649 357.05 118.663V118.665L357.052 118.686L357.053 118.702V118.709V118.717V118.724L357.052 118.74L357.05 118.76V118.762C357.049 118.775 357.045 118.791 357.04 118.806L357.031 118.839L357.018 118.868L357.013 118.879L357.001 118.901C356.995 118.915 356.984 118.927 356.976 118.94L356.973 118.942L356.971 118.946L356.967 118.95C356.952 118.969 356.935 118.988 356.917 119.006L353.734 122.073C353.522 122.277 353.129 122.315 352.854 122.158C352.581 122 352.531 121.707 352.742 121.504L355.636 118.715L352.742 115.924Z" fill="white"/>
<path fill-rule="evenodd" clip-rule="evenodd" d="M224.518 115.357C224.73 115.152 225.125 115.116 225.398 115.273C225.672 115.431 225.723 115.722 225.512 115.925L222.617 118.717L225.512 121.507C225.723 121.71 225.672 122.002 225.398 122.16C225.124 122.318 224.73 122.279 224.518 122.076L221.338 119.008C221.318 118.99 221.301 118.972 221.286 118.953L221.283 118.949L221.279 118.945L221.278 118.942C221.269 118.929 221.261 118.918 221.254 118.903L221.241 118.881L221.237 118.871L221.224 118.841L221.213 118.809C221.211 118.793 221.208 118.779 221.206 118.765V118.762L221.203 118.743L221.199 118.727V118.721V118.713V118.705L221.201 118.69L221.203 118.669V118.667C221.204 118.652 221.208 118.638 221.211 118.625L221.221 118.593L221.234 118.563L221.238 118.553L221.251 118.529L221.276 118.495L221.277 118.491L221.281 118.487L221.283 118.483C221.3 118.464 221.317 118.447 221.335 118.429L224.518 115.357Z" fill="white"/>
<path d="M431.032 86.6898H328.293V92.9871H431.032V86.6898Z" fill="#00A2A8"/>
<path d="M247.743 87.0107H231.305V92.9871H247.743V87.0107Z" fill="#00A498"/>
<path d="M266.103 87.0107H249.664V92.9871H266.103V87.0107Z" fill="#00A2A8"/>
<path d="M284.459 87.0107H268.02V92.9871H284.459V87.0107Z" fill="#00A498"/>
<path d="M302.817 87.0107H286.377V92.9871H302.817V87.0107Z" fill="#00A498"/>
<path d="M353.143 143.074H290.834V147.395H353.143V143.074Z" fill="#D68BE0"/>
<path d="M353.143 150.496H290.834V154.816H353.143V150.496Z" fill="#D68BE0"/>
<path d="M353.143 157.919H290.834V162.239H353.143V157.919Z" fill="#D68BE0"/>
<path fill-rule="evenodd" clip-rule="evenodd" d="M319.137 368.248C319.137 368.554 318.905 368.797 318.61 368.797L173.553 368.801C173.26 368.801 173.027 368.555 173.027 368.249V297.726C173.027 297.422 173.26 297.176 173.553 297.176L318.61 297.172C318.902 297.172 319.137 297.42 319.137 297.723V368.248Z" fill="#A6A8AB"/>
<path fill-rule="evenodd" clip-rule="evenodd" d="M184.062 311.822C184.062 312.112 183.828 312.349 183.536 312.349H175.633C175.344 312.349 175.107 312.112 175.107 311.822V307.515C175.107 307.227 175.344 306.988 175.633 306.988H183.536C183.828 306.988 184.062 307.227 184.062 307.515V311.822Z" fill="#F1F1F1"/>
<path fill-rule="evenodd" clip-rule="evenodd" d="M194.298 311.822C194.298 312.112 194.061 312.349 193.771 312.349H185.872C185.584 312.349 185.346 312.112 185.346 311.822V307.515C185.346 307.227 185.584 306.988 185.872 306.988H193.771C194.063 306.988 194.298 307.227 194.298 307.515V311.822Z" fill="#F1F1F1"/>
<path fill-rule="evenodd" clip-rule="evenodd" d="M204.532 311.822C204.532 312.112 204.299 312.349 204.007 312.349H196.105C195.814 312.349 195.58 312.112 195.58 311.822V307.515C195.58 307.227 195.816 306.988 196.105 306.988H204.007C204.299 306.988 204.532 307.227 204.532 307.515V311.822Z" fill="#F1F1F1"/>
<path fill-rule="evenodd" clip-rule="evenodd" d="M214.775 311.822C214.775 312.112 214.536 312.349 214.245 312.346L206.342 312.349C206.056 312.349 205.818 312.112 205.818 311.822V307.515C205.818 307.224 206.056 306.988 206.342 306.988H214.245C214.538 306.988 214.775 307.224 214.775 307.515V311.822Z" fill="#F1F1F1"/>
<path fill-rule="evenodd" clip-rule="evenodd" d="M225.008 311.822C225.008 312.112 224.775 312.346 224.481 312.346H216.579C216.29 312.346 216.057 312.112 216.057 311.822V307.515C216.057 307.224 216.29 306.988 216.579 306.988H224.481C224.775 306.988 225.008 307.224 225.008 307.515V311.822Z" fill="#F1F1F1"/>
<path fill-rule="evenodd" clip-rule="evenodd" d="M235.247 311.822C235.247 312.112 235.005 312.346 234.717 312.346H226.816C226.526 312.346 226.289 312.112 226.289 311.822V307.515C226.289 307.224 226.527 306.988 226.816 306.988H234.717C235.005 306.988 235.247 307.224 235.247 307.515V311.822Z" fill="#F1F1F1"/>
<path fill-rule="evenodd" clip-rule="evenodd" d="M245.476 311.822C245.478 312.112 245.243 312.346 244.956 312.346H237.051C236.762 312.346 236.527 312.112 236.527 311.822V307.515C236.527 307.224 236.762 306.988 237.05 306.988H244.956C245.243 306.988 245.476 307.224 245.476 307.515V311.822Z" fill="#F1F1F1"/>
<path fill-rule="evenodd" clip-rule="evenodd" d="M255.717 311.822C255.717 312.11 255.483 312.346 255.191 312.346H247.29C246.998 312.346 246.764 312.112 246.764 311.822V307.515C246.764 307.224 246.999 306.988 247.29 306.988H255.191C255.483 306.988 255.717 307.224 255.717 307.515V311.822Z" fill="#F1F1F1"/>
<path fill-rule="evenodd" clip-rule="evenodd" d="M265.954 311.822C265.954 312.11 265.716 312.346 265.428 312.346H257.529C257.236 312.346 257.002 312.111 257.002 311.822V307.515C257.002 307.224 257.236 306.988 257.529 306.988H265.428C265.716 306.988 265.954 307.224 265.954 307.515V311.822Z" fill="#F1F1F1"/>
<path fill-rule="evenodd" clip-rule="evenodd" d="M276.189 311.822C276.189 312.11 275.954 312.346 275.663 312.346H267.761C267.472 312.346 267.234 312.111 267.234 311.822V307.515C267.234 307.224 267.474 306.988 267.761 306.988H275.663C275.954 306.988 276.189 307.224 276.189 307.515V311.822Z" fill="#F1F1F1"/>
<path fill-rule="evenodd" clip-rule="evenodd" d="M286.426 311.822C286.426 312.11 286.189 312.346 285.899 312.346H277.997C277.707 312.346 277.471 312.111 277.471 311.822V307.515C277.471 307.224 277.707 306.988 277.997 306.988H285.899C286.189 306.988 286.426 307.224 286.426 307.515V311.822Z" fill="#F1F1F1"/>
<path fill-rule="evenodd" clip-rule="evenodd" d="M296.661 311.822C296.661 312.11 296.425 312.346 296.134 312.346H288.234C287.943 312.346 287.707 312.111 287.707 311.822V307.515C287.707 307.224 287.943 306.988 288.234 306.988H296.134C296.425 306.988 296.661 307.224 296.661 307.515V311.822Z" fill="#F1F1F1"/>
<path fill-rule="evenodd" clip-rule="evenodd" d="M306.9 311.822C306.9 312.11 306.661 312.346 306.373 312.346H298.474C298.184 312.346 297.947 312.111 297.947 311.822V307.515C297.947 307.224 298.185 306.988 298.474 306.988H306.373C306.661 306.988 306.9 307.224 306.9 307.515V311.822Z" fill="#F1F1F1"/>
<path fill-rule="evenodd" clip-rule="evenodd" d="M317.135 311.822C317.135 312.11 316.899 312.346 316.608 312.346H308.706C308.422 312.346 308.184 312.111 308.184 311.822V307.515C308.184 307.224 308.419 306.988 308.706 306.988H316.608C316.9 306.988 317.135 307.224 317.135 307.515V311.822Z" fill="#F1F1F1"/>
<path fill-rule="evenodd" clip-rule="evenodd" d="M184.062 321.904C184.062 322.198 183.828 322.429 183.536 322.429L175.633 322.432C175.344 322.432 175.107 322.197 175.107 321.907V314.005C175.107 313.713 175.344 313.478 175.633 313.478H183.536C183.828 313.478 184.062 313.713 184.062 314.005V321.904Z" fill="#F1F1F1"/>
<path fill-rule="evenodd" clip-rule="evenodd" d="M193.909 321.904C193.909 322.198 193.676 322.429 193.381 322.429H185.48C185.194 322.432 184.957 322.198 184.957 321.904V314.004C184.957 313.713 185.194 313.478 185.48 313.478H193.381C193.676 313.478 193.909 313.713 193.909 314.004V321.904Z" fill="#F1F1F1"/>
<path fill-rule="evenodd" clip-rule="evenodd" d="M203.758 321.904C203.758 322.198 203.522 322.429 203.234 322.429H195.329C195.042 322.429 194.807 322.198 194.807 321.904V314.004C194.807 313.713 195.042 313.478 195.329 313.478H203.234C203.522 313.478 203.758 313.713 203.758 314.004V321.904Z" fill="#F1F1F1"/>
<path fill-rule="evenodd" clip-rule="evenodd" d="M213.608 321.904C213.608 322.198 213.37 322.429 213.083 322.429H205.178C204.886 322.429 204.654 322.198 204.654 321.904V314.004C204.654 313.713 204.886 313.478 205.178 313.478H213.081C213.37 313.478 213.608 313.713 213.608 314.004V321.904Z" fill="#F1F1F1"/>
<path fill-rule="evenodd" clip-rule="evenodd" d="M223.456 321.904C223.456 322.198 223.217 322.429 222.928 322.429H215.026C214.734 322.429 214.502 322.191 214.502 321.904V314.004C214.502 313.713 214.734 313.478 215.026 313.478H222.928C223.219 313.478 223.456 313.713 223.456 314.004V321.904Z" fill="#F1F1F1"/>
<path fill-rule="evenodd" clip-rule="evenodd" d="M233.305 321.904C233.305 322.191 233.066 322.429 232.777 322.429H224.878C224.586 322.429 224.35 322.191 224.35 321.904V314.004C224.35 313.713 224.586 313.478 224.878 313.476H232.777C233.068 313.476 233.305 313.713 233.305 314.004V321.904Z" fill="#F1F1F1"/>
<path fill-rule="evenodd" clip-rule="evenodd" d="M243.149 321.904C243.149 322.191 242.915 322.429 242.622 322.429H234.723C234.433 322.429 234.199 322.191 234.199 321.904V314.004C234.199 313.713 234.435 313.476 234.723 313.476H242.622C242.911 313.476 243.149 313.713 243.149 314.004V321.904Z" fill="#F1F1F1"/>
<path fill-rule="evenodd" clip-rule="evenodd" d="M252.997 321.904C252.997 322.191 252.765 322.429 252.471 322.429H244.57C244.281 322.429 244.043 322.191 244.043 321.904V314.004C244.043 313.713 244.281 313.476 244.57 313.476H252.471C252.765 313.476 252.997 313.713 252.997 314.004V321.904Z" fill="#F1F1F1"/>
<path fill-rule="evenodd" clip-rule="evenodd" d="M262.844 321.904C262.844 322.191 262.613 322.429 262.321 322.429H254.417C254.125 322.429 253.893 322.191 253.893 321.904V314.004C253.893 313.713 254.124 313.476 254.417 313.476H262.321C262.613 313.476 262.844 313.713 262.844 314.004V321.904Z" fill="#F1F1F1"/>
<path fill-rule="evenodd" clip-rule="evenodd" d="M272.695 321.904C272.695 322.191 272.46 322.429 272.171 322.429H264.269C263.977 322.429 263.74 322.191 263.74 321.904V314.004C263.74 313.713 263.978 313.476 264.267 313.476H272.171C272.46 313.476 272.695 313.713 272.695 314.004V321.904Z" fill="#F1F1F1"/>
<path fill-rule="evenodd" clip-rule="evenodd" d="M282.543 321.904C282.543 322.191 282.307 322.429 282.016 322.429H274.115C273.823 322.429 273.592 322.191 273.592 321.904V314.004C273.592 313.713 273.825 313.476 274.115 313.476H282.016C282.309 313.476 282.543 313.713 282.543 314.004V321.904Z" fill="#F1F1F1"/>
<path fill-rule="evenodd" clip-rule="evenodd" d="M201.285 341.047C201.285 341.337 201.046 341.572 200.758 341.572H192.854C192.566 341.572 192.329 341.339 192.329 341.047L192.326 333.145C192.326 332.857 192.566 332.62 192.854 332.62H200.758C201.046 332.62 201.285 332.857 201.285 333.145V341.047Z" fill="#F1F1F1"/>
<path fill-rule="evenodd" clip-rule="evenodd" d="M211.135 341.047C211.135 341.337 210.899 341.572 210.607 341.572H202.705C202.411 341.572 202.18 341.337 202.18 341.047V333.145C202.18 332.857 202.411 332.62 202.705 332.62H210.607C210.9 332.62 211.135 332.857 211.135 333.145V341.047Z" fill="#F1F1F1"/>
<path fill-rule="evenodd" clip-rule="evenodd" d="M220.981 341.044C220.981 341.339 220.747 341.572 220.456 341.572H212.551C212.264 341.572 212.027 341.339 212.027 341.047V333.144C212.027 332.854 212.263 332.62 212.551 332.62H220.456C220.748 332.62 220.98 332.856 220.981 333.144V341.044Z" fill="#F1F1F1"/>
<path fill-rule="evenodd" clip-rule="evenodd" d="M230.827 341.044C230.827 341.339 230.595 341.572 230.3 341.572H222.398C222.111 341.572 221.873 341.339 221.873 341.044V333.145C221.873 332.855 222.11 332.621 222.398 332.621H230.3C230.595 332.621 230.827 332.857 230.827 333.145V341.044Z" fill="#F1F1F1"/>
<path fill-rule="evenodd" clip-rule="evenodd" d="M240.677 341.044C240.677 341.339 240.439 341.572 240.15 341.572H232.246C231.959 341.572 231.721 341.339 231.721 341.044V333.145C231.721 332.855 231.955 332.621 232.246 332.621H240.15C240.439 332.621 240.677 332.857 240.677 333.145V341.044Z" fill="#F1F1F1"/>
<path fill-rule="evenodd" clip-rule="evenodd" d="M250.526 341.044C250.526 341.339 250.288 341.572 249.999 341.572H242.096C241.804 341.572 241.572 341.339 241.572 341.044V333.145C241.572 332.855 241.804 332.621 242.096 332.621H249.999C250.288 332.621 250.526 332.857 250.526 333.145V341.044Z" fill="#F1F1F1"/>
<path fill-rule="evenodd" clip-rule="evenodd" d="M260.372 341.044C260.372 341.339 260.137 341.572 259.845 341.572H251.946C251.657 341.572 251.422 341.339 251.422 341.044V333.145C251.422 332.855 251.657 332.621 251.946 332.621H259.845C260.137 332.621 260.372 332.857 260.372 333.145V341.044Z" fill="#F1F1F1"/>
<path fill-rule="evenodd" clip-rule="evenodd" d="M270.219 341.044C270.219 341.339 269.984 341.572 269.693 341.572H261.792C261.504 341.572 261.266 341.339 261.266 341.044V333.145C261.266 332.855 261.504 332.621 261.792 332.621H269.693C269.985 332.621 270.219 332.857 270.219 333.145V341.044Z" fill="#F1F1F1"/>
<path fill-rule="evenodd" clip-rule="evenodd" d="M280.069 341.044C280.069 341.337 279.831 341.572 279.544 341.572H271.64C271.351 341.572 271.113 341.337 271.113 341.044V333.147C271.113 332.856 271.349 332.621 271.64 332.621H279.544C279.831 332.621 280.069 332.857 280.069 333.145V341.044Z" fill="#F1F1F1"/>
<path fill-rule="evenodd" clip-rule="evenodd" d="M289.914 341.044C289.914 341.337 289.68 341.571 289.391 341.572H281.487C281.194 341.572 280.963 341.337 280.963 341.044V333.145C280.963 332.856 281.194 332.621 281.487 332.621L289.391 332.619C289.68 332.621 289.914 332.857 289.914 333.145V341.044Z" fill="#F1F1F1"/>
<path fill-rule="evenodd" clip-rule="evenodd" d="M206.209 350.539C206.209 350.829 205.969 351.064 205.682 351.064H197.781C197.492 351.064 197.254 350.829 197.254 350.539V342.64C197.254 342.347 197.492 342.111 197.781 342.111H205.682C205.971 342.111 206.209 342.346 206.209 342.64V350.539Z" fill="#F1F1F1"/>
<path fill-rule="evenodd" clip-rule="evenodd" d="M216.058 350.539C216.058 350.829 215.821 351.064 215.53 351.064H207.627C207.341 351.064 207.102 350.829 207.102 350.539V342.64C207.102 342.345 207.341 342.111 207.627 342.111H215.53C215.822 342.111 216.058 342.346 216.058 342.64V350.539Z" fill="#F1F1F1"/>
<path fill-rule="evenodd" clip-rule="evenodd" d="M225.904 350.539C225.904 350.829 225.669 351.064 225.377 351.064H217.476C217.185 351.064 216.949 350.829 216.949 350.539V342.64C216.949 342.345 217.185 342.111 217.476 342.111H225.377C225.67 342.111 225.904 342.346 225.904 342.64V350.539Z" fill="#F1F1F1"/>
<path fill-rule="evenodd" clip-rule="evenodd" d="M235.754 350.539C235.754 350.829 235.518 351.064 235.227 351.064H227.325C227.034 351.064 226.803 350.829 226.803 350.539V342.64C226.803 342.345 227.034 342.111 227.325 342.111H235.227C235.52 342.111 235.754 342.346 235.754 342.64V350.539Z" fill="#F1F1F1"/>
<path fill-rule="evenodd" clip-rule="evenodd" d="M245.601 350.538C245.601 350.829 245.365 351.064 245.074 351.064H237.17C236.883 351.064 236.648 350.829 236.648 350.539V342.64C236.648 342.345 236.881 342.111 237.17 342.111H245.074C245.367 342.111 245.601 342.346 245.598 342.64L245.601 350.538Z" fill="#F1F1F1"/>
<path fill-rule="evenodd" clip-rule="evenodd" d="M255.448 350.538C255.448 350.829 255.212 351.064 254.921 351.064H247.018C246.732 351.064 246.494 350.829 246.494 350.538V342.64C246.494 342.345 246.732 342.111 247.018 342.111H254.921C255.214 342.111 255.448 342.346 255.448 342.64V350.538Z" fill="#F1F1F1"/>
<path fill-rule="evenodd" clip-rule="evenodd" d="M265.296 350.538C265.296 350.829 265.062 351.064 264.769 351.064H256.87C256.578 351.064 256.344 350.829 256.344 350.538V342.64C256.344 342.345 256.575 342.111 256.87 342.111H264.769C265.062 342.111 265.296 342.346 265.296 342.64V350.538Z" fill="#F1F1F1"/>
<path fill-rule="evenodd" clip-rule="evenodd" d="M275.143 350.538C275.143 350.829 274.909 351.064 274.616 351.064H266.716C266.428 351.064 266.189 350.829 266.189 350.538V342.64C266.189 342.345 266.428 342.111 266.716 342.111H274.616C274.909 342.111 275.143 342.346 275.143 342.64V350.538Z" fill="#F1F1F1"/>
<path fill-rule="evenodd" clip-rule="evenodd" d="M284.993 350.538C284.993 350.829 284.755 351.064 284.464 351.063L276.564 351.064C276.278 351.064 276.037 350.829 276.037 350.538V342.64C276.037 342.345 276.278 342.111 276.564 342.111H284.464C284.757 342.111 284.993 342.346 284.993 342.64V350.538Z" fill="#F1F1F1"/>
<path fill-rule="evenodd" clip-rule="evenodd" d="M294.838 350.538C294.838 350.829 294.606 351.063 294.315 351.063L286.411 351.064C286.121 351.063 285.887 350.829 285.887 350.538V342.64C285.887 342.345 286.122 342.111 286.411 342.111H294.315C294.605 342.111 294.838 342.346 294.838 342.64V350.538Z" fill="#F1F1F1"/>
<path fill-rule="evenodd" clip-rule="evenodd" d="M299.762 341.044C299.762 341.337 299.528 341.571 299.234 341.571H291.337C291.047 341.571 290.812 341.337 290.812 341.044V333.145C290.812 332.856 291.048 332.619 291.337 332.619H299.234C299.528 332.619 299.762 332.857 299.762 333.145V341.044Z" fill="#F1F1F1"/>
<path fill-rule="evenodd" clip-rule="evenodd" d="M292.393 321.904C292.393 322.191 292.155 322.429 291.866 322.429H283.962C283.671 322.429 283.439 322.191 283.439 321.904V314.004C283.439 313.713 283.671 313.476 283.962 313.476H291.866C292.155 313.476 292.393 313.713 292.393 314.004V321.904Z" fill="#F1F1F1"/>
<path fill-rule="evenodd" clip-rule="evenodd" d="M302.237 321.902C302.237 322.191 302.002 322.429 301.711 322.429H293.812C293.519 322.429 293.285 322.191 293.285 321.904V314.004C293.285 313.713 293.519 313.476 293.812 313.476L301.711 313.475C302.003 313.475 302.237 313.714 302.237 314.002V321.902Z" fill="#F1F1F1"/>
<path fill-rule="evenodd" clip-rule="evenodd" d="M198.775 331.494C198.775 331.785 198.538 332.022 198.25 332.022H190.347C190.055 332.022 189.82 331.784 189.82 331.497V323.594C189.82 323.302 190.056 323.067 190.347 323.067H198.25C198.54 323.067 198.775 323.303 198.775 323.594V331.494Z" fill="#F1F1F1"/>
<path fill-rule="evenodd" clip-rule="evenodd" d="M208.623 331.494C208.623 331.785 208.387 332.022 208.095 332.022H200.197C199.906 332.022 199.672 331.784 199.672 331.494V323.594C199.672 323.302 199.907 323.067 200.197 323.067H208.095C208.387 323.067 208.623 323.303 208.623 323.594V331.494Z" fill="#F1F1F1"/>
<path fill-rule="evenodd" clip-rule="evenodd" d="M218.471 331.494C218.471 331.785 218.237 332.022 217.945 332.022H210.044C209.756 332.022 209.518 331.784 209.518 331.494V323.594C209.518 323.302 209.756 323.067 210.044 323.067H217.945C218.237 323.067 218.471 323.303 218.471 323.594V331.494Z" fill="#F1F1F1"/>
<path fill-rule="evenodd" clip-rule="evenodd" d="M228.318 331.494C228.318 331.785 228.084 332.022 227.795 332.022H219.891C219.603 332.022 219.367 331.784 219.367 331.494V323.594C219.367 323.302 219.603 323.067 219.891 323.067H227.795C228.083 323.067 228.318 323.303 228.318 323.594V331.494Z" fill="#F1F1F1"/>
<path fill-rule="evenodd" clip-rule="evenodd" d="M238.166 331.494C238.166 331.785 237.932 332.022 237.644 332.022H229.737C229.45 332.022 229.213 331.784 229.213 331.494V323.594C229.213 323.302 229.45 323.067 229.737 323.067H237.644C237.932 323.067 238.166 323.303 238.166 323.594V331.494Z" fill="#F1F1F1"/>
<path fill-rule="evenodd" clip-rule="evenodd" d="M248.014 331.494C248.014 331.785 247.779 332.022 247.488 332.022H239.586C239.293 332.022 239.061 331.784 239.061 331.494V323.594C239.061 323.302 239.293 323.067 239.586 323.067H247.488C247.779 323.067 248.014 323.303 248.014 323.594V331.494Z" fill="#F1F1F1"/>
<path fill-rule="evenodd" clip-rule="evenodd" d="M257.865 331.494C257.865 331.785 257.627 332.022 257.338 332.022H249.437C249.144 332.022 248.91 331.784 248.91 331.494V323.59C248.91 323.301 249.146 323.066 249.437 323.066H257.338C257.628 323.066 257.865 323.301 257.865 323.59V331.494Z" fill="#F1F1F1"/>
<path fill-rule="evenodd" clip-rule="evenodd" d="M267.711 331.494C267.711 331.785 267.476 332.022 267.185 332.022H259.283C258.993 332.022 258.758 331.784 258.758 331.494V323.59C258.758 323.301 258.993 323.066 259.283 323.066H267.185C267.477 323.066 267.711 323.301 267.711 323.59V331.494Z" fill="#F1F1F1"/>
<path fill-rule="evenodd" clip-rule="evenodd" d="M277.56 331.494C277.56 331.785 277.324 332.022 277.033 332.022H269.133C268.844 332.022 268.604 331.784 268.604 331.494V323.59C268.604 323.301 268.842 323.066 269.133 323.066H277.033C277.326 323.066 277.56 323.301 277.56 323.59V331.494Z" fill="#F1F1F1"/>
<path fill-rule="evenodd" clip-rule="evenodd" d="M287.407 331.494C287.407 331.785 287.171 332.022 286.88 332.022H278.981C278.689 332.022 278.457 331.784 278.457 331.494V323.59C278.457 323.301 278.689 323.066 278.981 323.066H286.88C287.173 323.066 287.407 323.301 287.407 323.59V331.494Z" fill="#F1F1F1"/>
<path fill-rule="evenodd" clip-rule="evenodd" d="M297.252 331.494C297.252 331.785 297.02 332.022 296.73 332.022H288.827C288.535 332.022 288.303 331.784 288.303 331.494L288.301 323.59C288.301 323.301 288.535 323.066 288.825 323.066H296.73C297.02 323.066 297.252 323.301 297.252 323.59V331.494Z" fill="#F1F1F1"/>
<path fill-rule="evenodd" clip-rule="evenodd" d="M307.101 331.494C307.101 331.785 306.869 332.022 306.577 332.022H298.674C298.386 332.022 298.15 331.784 298.15 331.494V323.59C298.15 323.301 298.385 323.066 298.674 323.066H306.577C306.87 323.066 307.101 323.301 307.101 323.59V331.494Z" fill="#F1F1F1"/>
<path fill-rule="evenodd" clip-rule="evenodd" d="M316.952 331.494C316.952 331.785 316.714 332.021 316.427 332.021L308.523 332.022C308.23 332.021 307.996 331.784 307.996 331.494V323.59C307.996 323.301 308.23 323.066 308.523 323.066H316.427C316.714 323.066 316.952 323.301 316.952 323.59V331.494Z" fill="#F1F1F1"/>
<path fill-rule="evenodd" clip-rule="evenodd" d="M188.791 331.181C188.791 331.471 188.557 331.707 188.264 331.707H175.635C175.346 331.707 175.109 331.472 175.109 331.181V323.91C175.109 323.617 175.346 323.384 175.635 323.384H188.264C188.557 323.384 188.791 323.617 188.791 323.91V331.181Z" fill="#F1F1F1"/>
<path fill-rule="evenodd" clip-rule="evenodd" d="M191.124 340.703C191.124 340.99 190.888 341.227 190.598 341.227H175.635C175.346 341.227 175.109 340.991 175.109 340.703V333.492C175.109 333.2 175.346 332.968 175.635 332.968L190.598 332.965C190.889 332.965 191.124 333.201 191.124 333.492V340.703Z" fill="#F1F1F1"/>
<path fill-rule="evenodd" clip-rule="evenodd" d="M196.168 350.219C196.168 350.514 195.933 350.747 195.643 350.747H175.635C175.346 350.747 175.109 350.513 175.109 350.219V342.954C175.109 342.663 175.346 342.429 175.635 342.429H195.643C195.934 342.429 196.168 342.663 196.168 342.954V350.219Z" fill="#F1F1F1"/>
<path fill-rule="evenodd" clip-rule="evenodd" d="M317.038 321.59C317.038 321.881 316.802 322.112 316.511 322.112H303.883C303.592 322.112 303.357 321.88 303.357 321.59V314.317C303.357 314.027 303.593 313.793 303.883 313.793H316.511C316.802 313.793 317.038 314.027 317.038 314.317V321.59Z" fill="#F1F1F1"/>
<path fill-rule="evenodd" clip-rule="evenodd" d="M317.038 340.7C317.038 340.987 316.802 341.226 316.514 341.226H301.55C301.259 341.226 301.023 340.987 301.023 340.7V333.491C301.023 333.201 301.259 332.965 301.55 332.965H316.511C316.802 332.965 317.038 333.201 317.038 333.491V340.7Z" fill="#F1F1F1"/>
<path fill-rule="evenodd" clip-rule="evenodd" d="M317.036 350.219C317.036 350.512 316.801 350.747 316.512 350.747H296.508C296.215 350.747 295.979 350.51 295.979 350.219V342.953C295.979 342.664 296.214 342.425 296.508 342.425H316.51C316.801 342.425 317.036 342.662 317.036 342.953V350.219Z" fill="#F1F1F1"/>
<path fill-rule="evenodd" clip-rule="evenodd" d="M183.81 361.131C183.81 361.422 183.576 361.656 183.285 361.656H175.633C175.344 361.656 175.107 361.42 175.107 361.131V352.597C175.107 352.31 175.344 352.071 175.633 352.071H183.285C183.576 352.071 183.81 352.31 183.81 352.597V361.131Z" fill="#F1F1F1"/>
<path fill-rule="evenodd" clip-rule="evenodd" d="M193.647 361.131C193.647 361.422 193.412 361.656 193.123 361.656H185.469C185.18 361.656 184.943 361.42 184.943 361.131V352.597C184.943 352.31 185.18 352.071 185.469 352.071H193.123C193.412 352.071 193.647 352.308 193.647 352.597V361.131Z" fill="#F1F1F1"/>
<path fill-rule="evenodd" clip-rule="evenodd" d="M203.483 361.131C203.483 361.422 203.249 361.656 202.958 361.656H195.307C195.015 361.656 194.783 361.42 194.783 361.131V352.599C194.783 352.306 195.015 352.071 195.307 352.071H202.958C203.25 352.071 203.483 352.308 203.483 352.599V361.131Z" fill="#F1F1F1"/>
<path fill-rule="evenodd" clip-rule="evenodd" d="M215.84 361.131C215.84 361.422 215.536 361.656 215.16 361.656H205.295C204.918 361.656 204.615 361.42 204.615 361.131V352.599C204.615 352.306 204.918 352.071 205.295 352.071H215.16C215.536 352.071 215.84 352.308 215.84 352.597V361.131Z" fill="#F1F1F1"/>
<path fill-rule="evenodd" clip-rule="evenodd" d="M265.461 361.131C265.461 361.419 265.226 361.656 264.934 361.653L217.502 361.656C217.209 361.656 216.973 361.42 216.973 361.131V352.599C216.973 352.306 217.211 352.071 217.502 352.071H264.934C265.226 352.071 265.461 352.308 265.461 352.597V361.131Z" fill="#F1F1F1"/>
<path fill-rule="evenodd" clip-rule="evenodd" d="M277.566 361.131C277.566 361.419 277.331 361.653 277.04 361.653H266.87C266.58 361.653 266.346 361.42 266.346 361.131V352.597C266.346 352.306 266.58 352.071 266.87 352.071H277.04C277.331 352.071 277.566 352.308 277.566 352.597V361.131Z" fill="#F1F1F1"/>
<path fill-rule="evenodd" clip-rule="evenodd" d="M287.532 361.131C287.532 361.419 287.294 361.653 287.003 361.653H279.292C279.003 361.653 278.768 361.42 278.768 361.131V352.597C278.768 352.306 279.002 352.071 279.292 352.071H287.003C287.295 352.071 287.532 352.308 287.532 352.597V361.131Z" fill="#F1F1F1"/>
<path fill-rule="evenodd" clip-rule="evenodd" d="M297.364 361.131C297.364 361.419 297.13 361.653 296.841 361.653H289.316C289.025 361.653 288.791 361.42 288.791 361.131V357.386C288.791 357.099 289.027 356.863 289.316 356.863H296.841C297.13 356.863 297.364 357.098 297.364 357.386V361.131Z" fill="#F1F1F1"/>
<path fill-rule="evenodd" clip-rule="evenodd" d="M307.201 361.131C307.201 361.419 306.966 361.653 306.672 361.653H299.154C298.861 361.653 298.627 361.42 298.627 361.131V357.386C298.627 357.099 298.862 356.863 299.154 356.863H306.672C306.967 356.863 307.201 357.096 307.201 357.386V361.131Z" fill="#F1F1F1"/>
<path fill-rule="evenodd" clip-rule="evenodd" d="M307.201 356.337C307.201 356.629 306.966 356.863 306.672 356.863H299.154C298.861 356.863 298.627 356.629 298.627 356.337V352.594C298.627 352.306 298.862 352.07 299.154 352.07H306.672C306.967 352.07 307.201 352.306 307.201 352.594V356.337Z" fill="#F1F1F1"/>
<path fill-rule="evenodd" clip-rule="evenodd" d="M317.037 361.131C317.037 361.419 316.801 361.653 316.513 361.653H308.989C308.7 361.653 308.465 361.42 308.465 361.131V357.386C308.465 357.096 308.7 356.863 308.989 356.863H316.513C316.801 356.863 317.037 357.096 317.037 357.386V361.131Z" fill="#F1F1F1"/>
<path fill-rule="evenodd" clip-rule="evenodd" d="M227.789 344.631C227.641 344.627 227.493 344.631 227.346 344.64C227.482 344.295 227.619 344.009 227.756 343.821C228.537 342.756 229.576 343.589 229.576 343.589C229.71 344.068 229.751 344.533 229.748 344.969C229.127 344.759 228.471 344.643 227.789 344.631Z" fill="#FAFDFF"/>
<path fill-rule="evenodd" clip-rule="evenodd" d="M319.137 367.045H173.029V368.249C173.029 368.555 173.261 368.801 173.553 368.801L318.611 368.797C318.906 368.797 319.137 368.553 319.137 368.248V367.045Z" fill="#898B8D"/>
<path fill-rule="evenodd" clip-rule="evenodd" d="M360.747 315.428C373.918 315.428 375.62 324.802 375.62 336.366C375.62 347.93 368.962 357.305 360.747 357.305C352.535 357.305 345.875 347.929 345.875 336.366C345.875 324.802 347.578 315.428 360.747 315.428Z" fill="#E6E7E8"/>
<path fill-rule="evenodd" clip-rule="evenodd" d="M375.614 335.495C375.443 346.85 368.854 355.98 360.747 355.98C352.643 355.98 346.053 346.85 345.881 335.495C345.881 335.495 345.881 335.499 345.881 335.501C345.881 335.789 345.877 336.076 345.877 336.365C345.877 347.93 352.537 357.303 360.749 357.303C368.964 357.303 375.622 347.929 375.622 336.365C375.622 336.076 375.619 335.787 375.617 335.501C375.614 335.499 375.614 335.495 375.614 335.495Z" fill="#D0D2D3"/>
<path d="M360.924 315.428H360.566V321.51H360.924V315.428Z" fill="#404041"/>
<path fill-rule="evenodd" clip-rule="evenodd" d="M360.749 329.274C361.727 329.274 362.529 327.284 362.529 324.844C362.529 322.402 361.729 320.414 360.749 320.414C359.766 320.414 358.965 322.402 358.965 324.844C358.965 327.284 359.766 329.274 360.749 329.274Z" fill="#404041"/>
<path fill-rule="evenodd" clip-rule="evenodd" d="M360.405 321.763H360.965C361.37 321.763 361.701 322.096 361.701 322.502V326.754C361.701 327.161 361.37 327.492 360.965 327.492H360.405C359.997 327.492 359.666 327.161 359.666 326.754V322.502C359.667 322.097 359.999 321.763 360.405 321.763Z" fill="#231F20"/>
<path fill-rule="evenodd" clip-rule="evenodd" d="M495.127 84.6933C496.887 85.0789 498.438 85.2445 500.217 85.2445C513.367 85.2445 524.032 74.5791 524.032 61.4295C524.032 48.2799 513.367 37.6158 500.217 37.6158C487.069 37.6158 476.403 48.2799 476.403 61.4295C476.403 69.4877 480.483 76.7075 486.612 80.9734C482.726 83.4564 468.33 90.6775 464.445 93.1591C485.149 87.9836 488.405 85.9341 495.127 84.6933Z" fill="#A1AD62"/>
<path fill-rule="evenodd" clip-rule="evenodd" d="M169.566 92.0774C175.122 84.2987 175.658 74.2724 171.817 66.2491C165.739 53.551 150.51 48.1802 137.81 54.2575C125.114 60.3361 119.744 75.565 125.821 88.2631C131.9 100.962 147.129 106.331 159.828 100.252C160.728 99.8212 161.461 99.4201 162.315 98.8871C169.865 100.281 177.418 101.673 184.968 103.069C169.566 92.0774 174.701 95.7404 169.566 92.0774Z" fill="#CE7777"/>
<path fill-rule="evenodd" clip-rule="evenodd" d="M98 223.02C98 218.415 98 213.813 98 209.207C98 206.667 100.061 204.604 102.602 204.604C117.428 204.604 132.25 204.604 147.075 204.604C160.141 200.342 173.208 196.079 186.272 191.818C179.608 196.079 172.944 200.342 166.28 204.604C170.436 204.604 174.591 204.604 178.747 204.604C181.289 204.604 183.349 206.667 183.349 209.207C183.349 213.813 183.349 218.415 183.349 223.02C183.349 225.56 181.289 227.622 178.747 227.622C153.365 227.622 127.984 227.622 102.602 227.622C100.061 227.622 98 225.56 98 223.02Z" fill="#F9AF56"/>
<path fill-rule="evenodd" clip-rule="evenodd" d="M424.967 41.6772C427.217 41.3149 429.142 40.6395 431.071 39.5799C440.236 34.5493 443.589 23.0338 438.559 13.868C433.528 4.70352 422.011 1.3498 412.847 6.38038C403.681 11.4123 400.327 22.9277 405.358 32.0922C408.035 36.9675 412.571 40.2126 417.584 41.4029C415.769 46.9045 413.951 52.4099 412.134 57.9115C424.967 41.6772 420.689 47.0882 424.967 41.6772Z" fill="#87EE53"/>
<path fill-rule="evenodd" clip-rule="evenodd" d="M288.928 39.2537C292.467 36.6052 294.902 33.201 296.329 29.3077C300.47 18.0058 294.664 5.47977 283.362 1.33679C272.06 -2.80619 259.534 3.00331 255.393 14.3053C251.252 25.606 257.057 38.132 268.359 42.2749C272.686 43.8599 277.076 43.9958 281.256 42.9271C286.953 46.6896 292.649 50.4535 298.346 54.2161C288.928 39.2537 292.065 44.2416 288.928 39.2537Z" fill="#2BA03C"/>
<path d="M263.914 17.0134C264.573 16.8931 265.486 16.8038 266.727 16.8038C268.075 16.8038 269.062 17.0885 269.707 17.6267C270.303 18.121 270.694 18.9128 270.694 19.8561C270.694 20.8148 270.395 21.608 269.827 22.1462C269.093 22.8785 267.941 23.2227 266.639 23.2227C266.295 23.2227 265.982 23.2085 265.742 23.1619V26.9646H263.915L263.914 17.0134ZM265.741 21.7128C265.965 21.7736 266.265 21.7878 266.638 21.7878C268.016 21.7878 268.853 21.115 268.853 19.9324C268.853 18.8093 268.074 18.2115 266.802 18.2115C266.293 18.2115 265.935 18.2555 265.741 18.3021V21.7128Z" fill="white"/>
<path d="M274.117 16.8789V20.9196H278.382V16.8789H280.224V26.9659H278.382V22.5214H274.117V26.9659H272.275V16.8789H274.117Z" fill="white"/>
<path d="M282.328 17.0134C282.987 16.8931 283.899 16.8038 285.141 16.8038C286.489 16.8038 287.475 17.0885 288.119 17.6267C288.717 18.121 289.108 18.9128 289.108 19.8561C289.108 20.8148 288.808 21.608 288.24 22.1462C287.506 22.8786 286.355 23.2227 285.053 23.2227C284.708 23.2227 284.393 23.2085 284.154 23.1619V26.9646H282.328V17.0134ZM284.154 21.7128C284.38 21.7736 284.679 21.7878 285.053 21.7878C286.43 21.7878 287.268 21.115 287.268 19.9324C287.268 18.8093 286.489 18.2116 285.217 18.2116C284.708 18.2116 284.349 18.2555 284.154 18.3021V21.7128Z" fill="white"/>
<path d="M484.243 56.6344V60.6751H488.507V56.6344H490.35V66.7214H488.507V62.2769H484.243V66.7214H482.4V56.6344H484.243Z" fill="white"/>
<path d="M494.385 58.1766H491.514V56.6343H499.131V58.1766H496.226V66.7213H494.385V58.1766Z" fill="white"/>
<path d="M508.778 62.6055C508.718 61.3039 508.645 59.7319 508.659 58.3707H508.614C508.285 59.5986 507.866 60.9597 507.417 62.2316L505.95 66.6023H504.529L503.184 62.2924C502.794 61.005 502.436 59.6283 502.165 58.372H502.136C502.089 59.6892 502.03 61.2897 501.957 62.6677L501.731 66.7239H500.01L500.685 56.6369H503.109L504.427 60.6932C504.784 61.8745 505.1 63.0726 505.353 64.1957H505.4C505.668 63.1024 506.013 61.8603 506.403 60.6777L507.795 56.6369H510.189L510.772 66.7239H508.975L508.778 62.6055Z" fill="white"/>
<path d="M512.635 56.6343H514.476V65.1791H518.623V66.7213H512.635V56.6343Z" fill="white"/>
<path d="M417.16 26.1352C416.726 26.3591 415.767 26.5842 414.556 26.5842C411.352 26.5842 409.406 24.5787 409.406 21.5109C409.406 18.1883 411.712 16.1828 414.794 16.1828C416.008 16.1828 416.876 16.4377 417.251 16.6317L416.845 18.0977C416.367 17.8894 415.707 17.7095 414.87 17.7095C412.819 17.7095 411.339 18.9956 411.339 21.4204C411.339 23.6355 412.641 25.0587 414.856 25.0587C415.603 25.0587 416.38 24.9086 416.862 24.6848L417.16 26.1352Z" fill="white"/>
<path d="M418.683 24.4299C419.279 24.7741 420.179 25.073 421.123 25.073C422.303 25.073 422.963 24.5205 422.963 23.6963C422.963 22.9329 422.455 22.484 421.166 22.0207C419.505 21.4217 418.442 20.538 418.442 19.0862C418.442 17.4391 419.82 16.1828 422.003 16.1828C423.098 16.1828 423.905 16.4222 424.429 16.6913L423.981 18.1741C423.622 17.9787 422.917 17.694 421.973 17.694C420.806 17.694 420.298 18.3229 420.298 18.9064C420.298 19.6853 420.881 20.045 422.229 20.5677C423.98 21.2263 424.831 22.1087 424.831 23.5605C424.831 25.1778 423.605 26.5829 420.999 26.5829C419.938 26.5829 418.829 26.2828 418.275 25.9541L418.683 24.4299Z" fill="white"/>
<path d="M426.448 24.4299C427.047 24.7741 427.944 25.073 428.887 25.073C430.068 25.073 430.728 24.5205 430.728 23.6963C430.728 22.9329 430.22 22.484 428.933 22.0207C427.272 21.4217 426.209 20.538 426.209 19.0862C426.209 17.4391 427.587 16.1828 429.772 16.1828C430.864 16.1828 431.673 16.4222 432.195 16.6913L431.746 18.1741C431.388 17.9787 430.685 17.694 429.742 17.694C428.575 17.694 428.065 18.3229 428.065 18.9064C428.065 19.6853 428.648 20.045 429.996 20.5677C431.746 21.2263 432.6 22.1087 432.6 23.5605C432.6 25.1778 431.372 26.5829 428.769 26.5829C427.704 26.5829 426.597 26.2828 426.043 25.9541L426.448 24.4299Z" fill="white"/>
<path d="M142.169 83.5431L140.98 81.3591C140.508 80.5116 140.197 79.9242 139.887 79.2889H139.837C139.577 79.9242 139.284 80.5116 138.844 81.3591L137.75 83.5431H135.451L138.712 77.9846L135.582 72.5556H137.88L139.07 74.8211C139.429 75.5056 139.69 76.0438 139.982 76.6636H140.015C140.31 75.9779 140.537 75.4888 140.879 74.8211L142.054 72.5556H144.352L141.14 77.9186L144.482 83.5431H142.169Z" fill="white"/>
<path d="M155.242 79.0599C155.176 77.6405 155.095 75.93 155.111 74.4446H155.061C154.703 75.7825 154.247 77.2653 153.758 78.651L152.159 83.4124H150.611L149.143 78.717C148.718 77.3144 148.329 75.8148 148.035 74.4446H148.003C147.952 75.8795 147.888 77.625 147.805 79.1246L147.56 83.5418H145.686L146.419 72.5543H149.063L150.496 76.9728C150.887 78.2603 151.231 79.5658 151.507 80.7872H151.556C151.85 79.5968 152.225 78.2434 152.648 76.956L154.166 72.5543H156.775L157.412 83.5418H155.454L155.242 79.0599Z" fill="white"/>
<path d="M159.441 72.5555H161.447V81.8649H165.964V83.5444H159.441V72.5555Z" fill="white"/>
<path d="M106.787 211.919H108.469V217.896C108.469 220.441 107.239 221.289 105.405 221.289C104.939 221.289 104.351 221.207 103.996 221.069L104.203 219.715C104.475 219.798 104.845 219.88 105.242 219.88C106.198 219.88 106.787 219.441 106.787 217.841V211.919Z" fill="white"/>
<path d="M112.164 218.526L111.369 221.139H109.633L112.588 211.919H114.736L117.731 221.139H115.925L115.09 218.526H112.164ZM114.804 217.254L114.08 214.984C113.903 214.422 113.751 213.793 113.614 213.26H113.587C113.451 213.793 113.314 214.436 113.15 214.984L112.438 217.254H114.804Z" fill="white"/>
<path d="M120.344 221.14L117.361 211.92H119.195L120.452 216.107C120.808 217.269 121.11 218.349 121.356 219.471H121.383C121.629 218.376 121.957 217.256 122.326 216.134L123.668 211.92H125.458L122.272 221.14H120.344Z" fill="white"/>
<path d="M127.549 218.526L126.757 221.139H125.02L127.975 211.919H130.123L133.118 221.139H131.312L130.477 218.526H127.549ZM130.19 217.254L129.464 214.984C129.287 214.422 129.135 213.793 128.999 213.26H128.972C128.835 213.793 128.698 214.436 128.534 214.984L127.822 217.254H130.19Z" fill="white"/>
<path d="M134.362 219.307C134.909 219.621 135.731 219.895 136.591 219.895C137.673 219.895 138.274 219.388 138.274 218.636C138.274 217.938 137.808 217.529 136.632 217.104C135.115 216.557 134.143 215.751 134.143 214.423C134.143 212.919 135.401 211.77 137.398 211.77C138.397 211.77 139.136 211.99 139.615 212.237L139.206 213.59C138.876 213.413 138.233 213.152 137.372 213.152C136.306 213.152 135.842 213.726 135.842 214.259C135.842 214.972 136.374 215.299 137.604 215.779C139.206 216.381 139.985 217.187 139.985 218.513C139.985 219.991 138.863 221.276 136.482 221.276C135.511 221.276 134.5 221.004 133.994 220.701L134.362 219.307Z" fill="white"/>
<path d="M148.109 220.866C147.711 221.07 146.837 221.275 145.728 221.275C142.8 221.275 141.023 219.442 141.023 216.639C141.023 213.603 143.13 211.768 145.947 211.768C147.055 211.768 147.849 212.001 148.19 212.18L147.821 213.52C147.384 213.329 146.782 213.163 146.016 213.163C144.142 213.163 142.79 214.339 142.79 216.556C142.79 218.581 143.979 219.881 146.002 219.881C146.687 219.881 147.398 219.744 147.837 219.537L148.109 220.866Z" fill="white"/>
<path d="M149.543 212.043C150.173 211.933 151.116 211.851 152.087 211.851C153.413 211.851 154.317 212.07 154.932 212.589C155.438 213.013 155.724 213.656 155.724 214.436C155.724 215.627 154.918 216.433 154.055 216.749V216.789C154.711 217.034 155.108 217.678 155.341 218.566C155.627 219.715 155.874 220.783 156.067 221.139H154.329C154.192 220.866 153.972 220.113 153.713 218.964C153.453 217.759 153.014 217.377 152.057 217.35H151.208V221.14H149.539V212.043H149.543ZM151.212 216.118H152.21C153.344 216.118 154.057 215.517 154.057 214.602C154.057 213.589 153.344 213.123 152.251 213.123C151.718 213.123 151.376 213.165 151.212 213.206V216.118Z" fill="white"/>
<path d="M159.011 211.919V221.139H157.328V211.919H159.011Z" fill="white"/>
<path d="M160.938 212.043C161.539 211.933 162.374 211.851 163.51 211.851C164.74 211.851 165.643 212.11 166.232 212.603C166.779 213.053 167.134 213.778 167.134 214.641C167.134 215.515 166.861 216.241 166.342 216.733C165.672 217.403 164.619 217.718 163.428 217.718C163.114 217.718 162.827 217.705 162.607 217.663V221.137H160.939L160.938 212.043ZM162.607 216.338C162.814 216.394 163.087 216.407 163.428 216.407C164.687 216.407 165.452 215.792 165.452 214.711C165.452 213.685 164.74 213.137 163.578 213.137C163.113 213.137 162.785 213.179 162.607 213.22V216.338Z" fill="white"/>
<path d="M170.349 213.329H167.721V211.919H174.684V213.329H172.031V221.139H170.349V213.329Z" fill="white"/>
<path fill-rule="evenodd" clip-rule="evenodd" d="M468.811 201.022C469.031 202.66 469.374 204.051 469.931 205.582C474.049 216.922 486.584 222.782 497.922 218.665C509.262 214.549 515.119 202.011 511.003 190.673C506.887 179.334 494.351 173.476 483.012 177.592C476.062 180.116 471.114 185.892 469.355 192.514C465.998 189.941 462.642 187.369 459.287 184.798C468.811 201.022 465.636 195.613 468.811 201.022Z" fill="#B5775F"/>
<path d="M482.833 204.159C482.352 204.408 481.291 204.655 479.947 204.655C476.399 204.655 474.242 202.434 474.242 199.034C474.242 195.353 476.796 193.129 480.212 193.129C481.554 193.129 482.517 193.412 482.931 193.627L482.482 195.252C481.951 195.019 481.221 194.82 480.292 194.82C478.02 194.82 476.38 196.247 476.38 198.932C476.38 201.388 477.824 202.961 480.278 202.961C481.107 202.961 481.969 202.797 482.498 202.548L482.833 204.159Z" fill="white"/>
<path d="M494.005 199.931C493.938 198.487 493.858 196.747 493.872 195.237H493.822C493.459 196.597 492.994 198.104 492.495 199.516L490.869 204.357H489.296L487.804 199.582C487.373 198.156 486.976 196.63 486.677 195.237H486.645C486.594 196.696 486.528 198.47 486.447 199.997L486.194 204.49H484.287L485.036 193.313H487.722L489.183 197.805C489.579 199.114 489.928 200.442 490.21 201.687H490.261C490.557 200.474 490.94 199.099 491.371 197.788L492.913 193.311H495.566L496.213 204.489H494.221L494.005 199.931Z" fill="white"/>
<path d="M498.228 202.268C498.893 202.649 499.886 202.982 500.931 202.982C502.241 202.982 502.971 202.367 502.971 201.455C502.971 200.609 502.408 200.112 500.982 199.598C499.141 198.933 497.964 197.954 497.964 196.347C497.964 194.524 499.489 193.13 501.91 193.13C503.118 193.13 504.015 193.395 504.595 193.694L504.098 195.335C503.701 195.12 502.922 194.806 501.878 194.806C500.584 194.806 500.021 195.502 500.021 196.149C500.021 197.012 500.668 197.409 502.158 197.989C504.098 198.718 505.045 199.698 505.045 201.305C505.045 203.096 503.686 204.655 500.8 204.655C499.622 204.655 498.396 204.322 497.781 203.959L498.228 202.268Z" fill="white"/>
<path fill-rule="evenodd" clip-rule="evenodd" d="M390.029 260.322H517.898C520.708 260.322 523.009 262.62 523.009 265.431V344.139C523.009 346.95 520.708 349.247 517.898 349.247H390.029C387.22 349.247 384.924 346.95 384.924 344.139V265.431C384.924 262.62 387.22 260.322 390.029 260.322Z" fill="white"/>
<path d="M505.655 272.474H384.924V336.542H505.655V272.474Z" fill="#333333"/>
<path d="M413.689 272.474H384.924V336.542H413.689V272.474Z" fill="#6F7072"/>
<path fill-rule="evenodd" clip-rule="evenodd" d="M399.4 313.967C404.305 313.967 408.306 309.966 408.306 305.06C408.306 300.156 404.305 296.154 399.4 296.154C394.494 296.154 390.494 300.155 390.494 305.06C390.494 309.966 394.494 313.967 399.4 313.967Z" fill="#5A5B5E"/>
<path fill-rule="evenodd" clip-rule="evenodd" d="M396.532 274.821H402.265C402.758 274.821 403.161 275.224 403.161 275.719V278.684C403.161 279.177 402.758 279.581 402.265 279.581H396.532C396.039 279.581 395.637 279.177 395.637 278.684V275.719C395.637 275.224 396.039 274.821 396.532 274.821Z" fill="#5A5B5E"/>
<path fill-rule="evenodd" clip-rule="evenodd" d="M396.532 280.827H402.265C402.758 280.827 403.161 281.228 403.161 281.724V284.694C403.161 285.187 402.758 285.591 402.265 285.591H396.532C396.039 285.591 395.637 285.187 395.637 284.694V281.724C395.637 281.228 396.039 280.827 396.532 280.827Z" fill="#5A5B5E"/>
<path fill-rule="evenodd" clip-rule="evenodd" d="M396.532 286.833H402.265C402.758 286.833 403.161 287.235 403.161 287.73V290.699C403.161 291.192 402.758 291.596 402.265 291.596H396.532C396.039 291.596 395.637 291.192 395.637 290.699V287.73C395.637 287.237 396.039 286.833 396.532 286.833Z" fill="#5A5B5E"/>
<path fill-rule="evenodd" clip-rule="evenodd" d="M396.532 317.936H402.265C402.758 317.936 403.161 318.34 403.161 318.833V321.805C403.161 322.298 402.758 322.702 402.265 322.702H396.532C396.039 322.702 395.637 322.298 395.637 321.805V318.833C395.637 318.339 396.039 317.936 396.532 317.936Z" fill="#5A5B5E"/>
<path fill-rule="evenodd" clip-rule="evenodd" d="M396.532 324.185H402.265C402.758 324.185 403.161 324.59 403.161 325.081V328.053C403.161 328.546 402.758 328.95 402.265 328.95H396.532C396.039 328.95 395.637 328.546 395.637 328.053V325.081C395.637 324.59 396.039 324.185 396.532 324.185Z" fill="#5A5B5E"/>
<path fill-rule="evenodd" clip-rule="evenodd" d="M396.532 330.952H402.265C402.758 330.952 403.161 331.355 403.161 331.848V334.818C403.161 335.311 402.758 335.716 402.265 335.716H396.532C396.039 335.716 395.637 335.311 395.637 334.818V331.848C395.637 331.355 396.039 330.952 396.532 330.952Z" fill="#5A5B5E"/>
<path fill-rule="evenodd" clip-rule="evenodd" d="M399.401 309.203C401.625 309.203 403.439 307.389 403.439 305.163C403.439 302.939 401.624 301.125 399.401 301.125C397.174 301.125 395.361 302.939 395.361 305.163C395.361 307.389 397.174 309.203 399.401 309.203Z" fill="#434143"/>
<path fill-rule="evenodd" clip-rule="evenodd" d="M481.293 370.843C481.949 370.364 483.136 370.864 483.939 371.959C484.741 373.061 484.86 374.34 484.207 374.819C483.55 375.297 482.366 374.797 481.559 373.699C480.758 372.601 480.64 371.323 481.293 370.843Z" fill="#434143"/>
<path fill-rule="evenodd" clip-rule="evenodd" d="M440.948 315.839C440.755 315.977 440.711 316.25 440.852 316.442L442.19 318.268C442.33 318.46 442.602 318.503 442.796 318.362C442.987 318.221 443.031 317.952 442.889 317.76L441.551 315.933C441.407 315.739 441.137 315.699 440.948 315.839Z" fill="#434143"/>
<path fill-rule="evenodd" clip-rule="evenodd" d="M442.905 316.862C443.771 317.472 446.774 319.596 447.004 319.826C447.272 320.09 447.733 320.481 448.491 321.401C449.252 322.32 449.108 322.717 453.498 328.475C457.887 334.231 480.679 365.994 482.115 367.958C483.547 369.915 483.992 370.084 484.111 371.038C484.229 371.991 484.102 372.06 483.761 372.338C483.62 372.455 483.26 372.747 482.849 373.068C482.414 373.363 482.031 373.619 481.876 373.717C481.507 373.963 481.408 374.066 480.534 373.662C479.662 373.259 479.629 372.788 478.198 370.828C476.76 368.868 453.368 337.546 449.203 331.621C445.04 325.698 444.62 325.712 443.972 324.713C443.326 323.709 443.092 323.156 442.921 322.822C442.772 322.533 441.654 319.028 441.332 318.019L442.905 316.862Z" fill="#6F7072"/>
<path fill-rule="evenodd" clip-rule="evenodd" d="M450.68 328.189L449.776 328.852C449.509 329.049 449.447 329.428 449.647 329.699L459.083 342.587C459.282 342.857 459.662 342.919 459.933 342.72L460.836 342.058C461.106 341.86 461.163 341.479 460.971 341.209L451.533 328.318C451.331 328.049 450.952 327.991 450.68 328.189Z" fill="#5A5B5E"/>
<path fill-rule="evenodd" clip-rule="evenodd" d="M449.647 329.699C449.447 329.428 449.509 329.049 449.776 328.852L450.228 328.517L460.383 342.389L459.933 342.719C459.662 342.917 459.282 342.856 459.083 342.586L449.647 329.699Z" fill="#424346"/>
<path fill-rule="evenodd" clip-rule="evenodd" d="M449.775 328.852C449.508 329.049 449.446 329.428 449.645 329.699L459.081 342.587C459.281 342.857 459.661 342.919 459.931 342.72L460.382 342.39L482.845 373.068C482.41 373.363 482.027 373.619 481.872 373.717C481.503 373.963 481.405 374.065 480.53 373.662C479.658 373.259 479.625 372.788 478.194 370.828C476.756 368.868 453.364 337.546 449.199 331.621C445.036 325.698 444.616 325.712 443.968 324.713C443.322 323.709 443.088 323.155 442.917 322.822C442.768 322.533 441.65 319.028 441.328 318.019L441.767 317.698L442.12 317.443L442.794 318.363L450.227 328.519L449.775 328.852Z" fill="#5B5D5D"/>
<path fill-rule="evenodd" clip-rule="evenodd" d="M442.12 317.442L441.766 317.697L440.85 316.443C440.709 316.251 440.753 315.978 440.946 315.84L442.12 317.442Z" fill="#3F4140"/>
<path d="M118.833 265.189L106.939 271.456L133.812 322.451L145.705 316.184L118.833 265.189Z" fill="#E7E6E6"/>
<path d="M136.315 300.006L125.777 305.555L131.327 316.094L141.865 310.545L136.315 300.006Z" fill="#C63F4B"/>
<path d="M130.385 288.771L119.848 294.322L125.398 304.858L135.935 299.306L130.385 288.771Z" fill="#B92226"/>
<path d="M124.461 277.525L113.926 283.079L119.48 293.615L130.016 288.062L124.461 277.525Z" fill="#86171A"/>
<path d="M118.529 266.285L107.992 271.836L113.544 282.374L124.081 276.823L118.529 266.285Z" fill="#401314"/>
<path d="M136.374 261.809L123.102 263.942L132.249 320.852L145.522 318.719L136.374 261.809Z" fill="#E7E6E6"/>
<path d="M141.786 300.421L130.027 302.311L131.917 314.07L143.676 312.179L141.786 300.421Z" fill="#F7AFAC"/>
<path d="M139.782 287.87L128.023 289.762L129.915 301.522L141.674 299.63L139.782 287.87Z" fill="#F48780"/>
<path d="M137.763 275.317L126.004 277.207L127.894 288.968L139.653 287.078L137.763 275.317Z" fill="#F05F55"/>
<path d="M135.726 262.777L123.967 264.667L125.857 276.426L137.616 274.536L135.726 262.777Z" fill="#ED3725"/>
<path d="M139.494 261.854L131.125 318.884L144.427 320.836L152.797 263.807L139.494 261.854Z" fill="#E7E6E6"/>
<path d="M134.622 300.542L132.896 312.325L144.68 314.051L146.406 302.267L134.622 300.542Z" fill="#F9D1A0"/>
<path d="M136.421 287.968L134.695 299.753L146.478 301.479L148.204 289.694L136.421 287.968Z" fill="#F8BC70"/>
<path d="M138.264 275.368L136.537 287.152L148.321 288.879L150.048 277.095L138.264 275.368Z" fill="#F9A640"/>
<path d="M140.146 262.804L138.42 274.59L150.205 276.316L151.931 264.53L140.146 262.804Z" fill="#F29022"/>
<path d="M154.583 264.356L130.961 316.937L143.223 322.445L166.844 269.864L154.583 264.356Z" fill="#E7E6E6"/>
<path d="M139.305 300.23L134.422 311.093L145.286 315.977L150.169 305.114L139.305 300.23Z" fill="#92D4D3"/>
<path d="M144.514 288.637L139.631 299.501L150.494 304.384L155.377 293.521L144.514 288.637Z" fill="#62C5BE"/>
<path d="M149.726 277.049L144.846 287.913L155.711 292.795L160.592 281.93L149.726 277.049Z" fill="#0CB1AC"/>
<path d="M154.932 265.463L150.049 276.327L160.913 281.21L165.796 270.347L154.932 265.463Z" fill="#00A498"/>
<path d="M168.592 271.041L130.941 314.687L141.121 323.468L178.772 279.822L168.592 271.041Z" fill="#E7E6E6"/>
<path d="M143.718 301.023L135.938 310.04L144.956 317.822L152.736 308.805L143.718 301.023Z" fill="#9EC6E2"/>
<path d="M152.023 291.405L144.242 300.422L153.26 308.204L161.041 299.186L152.023 291.405Z" fill="#71A7D3"/>
<path d="M160.33 281.788L152.551 290.806L161.568 298.585L169.348 289.567L160.33 281.788Z" fill="#378BC5"/>
<path d="M168.627 272.17L160.846 281.188L169.862 288.968L177.643 279.951L168.627 272.17Z" fill="#006FB7"/>
<path fill-rule="evenodd" clip-rule="evenodd" d="M138.186 314.855C138.836 314.901 139.325 315.461 139.28 316.109C139.237 316.759 138.675 317.249 138.025 317.205C137.378 317.161 136.887 316.598 136.933 315.951C136.975 315.302 137.536 314.811 138.186 314.855Z" fill="#59595C"/>
<path fill-rule="evenodd" clip-rule="evenodd" d="M138.14 315.523C138.408 315.538 138.614 315.774 138.593 316.04L137.902 326.151C137.883 326.417 137.647 326.622 137.381 326.605C137.113 326.586 136.906 326.351 136.925 326.085L137.617 315.974C137.637 315.708 137.872 315.505 138.14 315.523Z" fill="#BBBCBE"/>
<path fill-rule="evenodd" clip-rule="evenodd" d="M494.045 153.551L485.973 152.972C485.639 152.948 485.353 153.151 485.332 153.428L485.308 153.762C485.287 154.038 485.543 154.284 485.878 154.304L493.951 154.886C494.283 154.91 494.571 154.703 494.589 154.428L494.613 154.094C494.634 153.816 494.379 153.573 494.045 153.551Z" fill="white"/>
<path fill-rule="evenodd" clip-rule="evenodd" d="M493.936 155.062L485.863 154.48C485.53 154.455 485.244 154.662 485.222 154.942L485.198 155.272C485.178 155.551 485.434 155.793 485.768 155.815L493.84 156.396C494.174 156.42 494.463 156.216 494.483 155.939L494.504 155.604C494.525 155.328 494.268 155.084 493.936 155.062Z" fill="white"/>
<path fill-rule="evenodd" clip-rule="evenodd" d="M493.827 156.571L485.755 155.991C485.422 155.969 485.133 156.171 485.112 156.45L485.089 156.783C485.068 157.06 485.326 157.303 485.658 157.329L493.731 157.906C494.065 157.93 494.353 157.729 494.374 157.452L494.397 157.119C494.418 156.838 494.159 156.595 493.827 156.571Z" fill="white"/>
<path fill-rule="evenodd" clip-rule="evenodd" d="M486.655 157.575L492.709 158.009C492.638 159.011 490.976 159.562 489.562 159.464C488.149 159.36 486.584 158.576 486.655 157.575Z" fill="white"/>
<path fill-rule="evenodd" clip-rule="evenodd" d="M489.175 145.102C488.515 144.95 488.088 144.124 488.432 143.077C488.527 142.793 488.761 142.665 488.939 142.929C489.177 143.28 489.19 143.738 489.198 144.169C489.202 144.479 489.194 144.79 489.176 145.099H489.173L489.175 145.102ZM490.435 144.607C490.317 144.529 490.216 144.435 490.14 144.322C489.824 143.847 490.171 142.902 490.761 142.704C490.911 142.652 491.26 142.616 491.282 142.837C491.321 143.227 491.101 143.629 490.907 143.964C490.758 144.226 490.602 144.438 490.439 144.605L490.436 144.601L490.435 144.607ZM492.14 144.886C492.219 144.389 492.359 143.902 492.624 143.496C492.847 143.157 493.218 142.876 493.622 142.868C493.732 142.867 493.899 142.862 493.892 143.003C493.887 143.135 493.86 143.266 493.816 143.395C493.715 143.688 493.558 143.976 493.358 144.224C493.023 144.629 492.614 144.831 492.145 144.891L492.147 144.883L492.14 144.886ZM491.86 145.32C491.812 145.873 491.816 146.427 491.83 146.96C491.854 147.953 491.941 148.941 492.07 149.915C492.1 150.131 492.13 150.343 492.164 150.558C492.25 151.13 492.338 151.712 492.474 152.275L492.653 152.287C492.484 151.597 492.386 150.854 492.293 150.153C492.28 150.061 492.268 149.965 492.257 149.873C492.112 148.748 492.015 147.603 492.038 146.45C492.045 146.097 492.05 145.71 492.086 145.316L492.091 145.318V145.31C492.394 145.293 492.698 145.232 492.953 145.084C493.442 144.804 493.808 144.285 493.992 143.757C494.125 143.377 494.194 142.793 493.83 142.555C493.518 142.355 493.009 142.557 492.723 142.804C492.442 143.046 492.275 143.402 492.162 143.742C492.035 144.118 491.953 144.51 491.9 144.905L491.894 144.904V144.914L491.847 144.915C491.521 144.921 491.128 144.891 490.787 144.777L490.789 144.774L490.786 144.773C491.134 144.365 491.407 143.856 491.475 143.376C491.532 142.988 491.456 142.466 491.066 142.313C490.676 142.157 490.224 142.48 490.027 142.848C489.74 143.385 489.726 143.998 490.009 144.482C490.075 144.593 490.155 144.689 490.245 144.776L490.242 144.778L490.245 144.782C489.959 145.018 489.668 145.124 489.402 145.128V145.125L489.401 145.124C489.435 144.46 489.458 143.744 489.238 143.143C489.154 142.922 488.855 142.215 488.484 142.405C488.012 142.645 488.125 143.645 488.185 144.016C488.274 144.536 488.475 145.169 488.969 145.41C489.027 145.441 489.087 145.461 489.148 145.48L489.146 145.482H489.149C489.104 146.024 489.03 146.566 488.929 147.107C488.696 148.339 488.358 149.558 488.052 150.781C487.956 151.165 487.863 151.549 487.777 151.935L488.045 151.954C488.142 151.54 488.244 151.127 488.352 150.716C488.596 149.761 488.854 148.806 489.048 147.843C489.206 147.071 489.329 146.297 489.383 145.523L489.384 145.521C489.699 145.543 490.025 145.436 490.306 145.228C490.392 145.161 490.479 145.09 490.562 145.009L490.564 145.01H490.567C490.806 145.144 491.084 145.229 491.36 145.269C491.513 145.291 491.682 145.307 491.856 145.311V145.319L491.86 145.32Z" fill="white"/>
<path fill-rule="evenodd" clip-rule="evenodd" d="M492.455 123.66C486.448 123.229 481.228 127.748 480.797 133.756C480.654 135.733 481.078 137.609 481.858 139.291C484.181 144.294 484.696 147.045 484.943 149.694C485.15 151.911 485.619 152.456 487.276 152.578C487.979 152.628 489.135 152.711 490.359 152.796C491.587 152.884 492.741 152.971 493.444 153.02C495.101 153.141 495.644 152.667 496.167 150.502C496.792 147.916 497.691 145.265 500.707 140.643C501.719 139.097 502.406 137.296 502.55 135.318C502.982 129.31 498.46 124.091 492.455 123.66ZM499.886 140.107C496.95 144.602 495.923 147.33 495.212 150.268C495.135 150.596 494.894 151.596 494.569 151.892C494.455 151.996 494.243 152.093 493.515 152.042L490.43 151.818L487.344 151.596C486.616 151.545 486.422 151.418 486.325 151.302C486.046 150.959 485.951 149.938 485.918 149.603C485.638 146.594 485.009 143.746 482.746 138.88C481.979 137.225 481.654 135.526 481.777 133.826C482.167 128.368 486.925 124.25 492.381 124.64C497.839 125.03 501.959 129.791 501.568 135.248C501.447 136.948 500.881 138.582 499.886 140.107Z" fill="white"/>
<path fill-rule="evenodd" clip-rule="evenodd" d="M486.105 131.152C485.661 131.467 483.543 133.214 485.432 136.697C485.567 136.945 485.474 137.254 485.227 137.388C485.139 137.435 485.043 137.454 484.95 137.447C484.783 137.437 484.624 137.341 484.537 137.182C482.243 132.942 484.951 130.729 485.518 130.324C485.747 130.164 486.066 130.218 486.225 130.447C486.388 130.674 486.335 130.992 486.105 131.152Z" fill="white"/>
<path fill-rule="evenodd" clip-rule="evenodd" d="M508.574 134.634C508.428 134.461 508.221 134.359 507.995 134.342L504.437 134.086C504.214 134.069 503.995 134.143 503.823 134.293C503.654 134.44 503.549 134.643 503.534 134.871C503.517 135.096 503.592 135.315 503.739 135.483C503.887 135.654 504.093 135.759 504.319 135.775L507.876 136.029C508.101 136.043 508.316 135.972 508.489 135.825C508.66 135.677 508.761 135.474 508.778 135.246C508.794 135.021 508.722 134.802 508.574 134.634Z" fill="white"/>
<path fill-rule="evenodd" clip-rule="evenodd" d="M503.597 129.749C503.745 129.758 503.895 129.73 504.03 129.666L507.235 128.095C507.301 128.064 507.361 128.022 507.416 127.976C507.416 127.973 507.416 127.973 507.416 127.973C507.705 127.724 507.79 127.307 507.621 126.964C507.523 126.761 507.348 126.608 507.137 126.536C506.923 126.462 506.692 126.478 506.491 126.576L503.286 128.144C503.22 128.178 503.16 128.217 503.106 128.264C502.815 128.515 502.731 128.931 502.897 129.276C503.031 129.548 503.299 129.729 503.597 129.749Z" fill="white"/>
<path fill-rule="evenodd" clip-rule="evenodd" d="M501.823 119.663C501.509 119.453 501.086 119.476 500.8 119.729C500.743 119.778 500.691 119.834 500.65 119.894L498.664 122.864C498.405 123.248 498.51 123.777 498.894 124.037C499.017 124.116 499.158 124.167 499.304 124.178C499.527 124.193 499.75 124.119 499.919 123.974C499.977 123.925 500.027 123.867 500.068 123.804L502.055 120.838C502.315 120.452 502.209 119.925 501.823 119.663Z" fill="white"/>
<path fill-rule="evenodd" clip-rule="evenodd" d="M476.502 125.54L479.451 127.55C479.574 127.632 479.718 127.686 479.868 127.694C480.089 127.712 480.31 127.634 480.48 127.492C480.534 127.444 480.585 127.387 480.626 127.328C480.887 126.941 480.788 126.416 480.403 126.15L477.455 124.142C477.139 123.924 476.716 123.947 476.427 124.202C476.373 124.247 476.323 124.301 476.283 124.364C476.019 124.749 476.118 125.277 476.502 125.54Z" fill="white"/>
<path fill-rule="evenodd" clip-rule="evenodd" d="M506.252 141.767L503.302 139.757C502.987 139.543 502.565 139.564 502.275 139.816C502.221 139.864 502.173 139.918 502.13 139.98C501.87 140.365 501.967 140.894 502.351 141.155L505.3 143.166C505.424 143.248 505.567 143.302 505.714 143.311C505.935 143.326 506.16 143.251 506.329 143.106C506.386 143.061 506.433 143.004 506.475 142.942C506.735 142.559 506.635 142.03 506.252 141.767Z" fill="white"/>
<path fill-rule="evenodd" clip-rule="evenodd" d="M479.322 138.297C479.107 138.223 478.877 138.239 478.676 138.337L475.471 139.905C475.407 139.939 475.343 139.979 475.289 140.03C475 140.277 474.916 140.693 475.083 141.039C475.218 141.309 475.482 141.49 475.783 141.512C475.931 141.521 476.081 141.492 476.214 141.427L479.419 139.856C479.484 139.828 479.547 139.785 479.6 139.737C479.891 139.486 479.975 139.071 479.807 138.728C479.709 138.525 479.534 138.372 479.322 138.297Z" fill="white"/>
<path fill-rule="evenodd" clip-rule="evenodd" d="M484.19 118.364C484.094 118.161 483.923 118.009 483.707 117.933C483.495 117.858 483.265 117.87 483.063 117.968C482.996 118.001 482.932 118.042 482.875 118.092C482.588 118.339 482.503 118.751 482.667 119.095L484.209 122.315C484.339 122.588 484.609 122.772 484.912 122.795C485.058 122.803 485.204 122.773 485.337 122.714C485.403 122.68 485.468 122.64 485.525 122.591C485.81 122.339 485.896 121.927 485.732 121.582L484.19 118.364Z" fill="white"/>
<path fill-rule="evenodd" clip-rule="evenodd" d="M492.745 116.614C492.517 116.596 492.303 116.669 492.129 116.816C491.959 116.964 491.858 117.171 491.84 117.397L491.584 120.957C491.552 121.424 491.902 121.829 492.369 121.864C492.592 121.878 492.808 121.808 492.983 121.657C493.152 121.512 493.256 121.303 493.271 121.081L493.527 117.516C493.561 117.053 493.208 116.647 492.745 116.614Z" fill="white"/>
<path fill-rule="evenodd" clip-rule="evenodd" d="M479.599 133.749C479.769 133.599 479.872 133.396 479.889 133.171C479.906 132.943 479.832 132.726 479.686 132.556C479.537 132.388 479.332 132.283 479.105 132.266L475.547 132.01C475.323 131.993 475.104 132.067 474.935 132.215C474.764 132.362 474.66 132.568 474.645 132.796C474.611 133.261 474.964 133.668 475.428 133.697L478.986 133.954C479.207 133.97 479.426 133.898 479.599 133.749Z" fill="white"/>
<path fill-rule="evenodd" clip-rule="evenodd" d="M341.887 36.5936C342.781 34.504 342.876 31.9654 341.938 29.5368C341.162 27.5274 339.814 25.9295 338.199 24.8996C336.401 23.4556 333.553 21.5756 330.642 16.4325C330.959 16.0754 331.075 15.5591 330.889 15.0804C330.629 14.3985 329.864 14.0582 329.179 14.3209C328.83 14.4554 328.571 14.7259 328.437 15.0454L333.707 28.6997C334.614 28.6531 335.482 29.1668 335.825 30.0531C336.249 31.1516 335.699 32.3924 334.601 32.8155C333.504 33.2373 332.267 32.69 331.842 31.5889C331.489 30.6728 331.819 29.6662 332.576 29.1085L327.323 15.5022C327.004 15.3417 326.62 15.3107 326.26 15.4504C325.58 15.7105 325.241 16.4726 325.502 17.1596C325.689 17.6371 326.118 17.9411 326.598 17.9929C328.029 24.3419 326.857 27.706 326.601 30.0039C326.28 31.6756 326.418 33.4974 327.096 35.2635C328.027 37.6688 329.782 39.4789 331.828 40.4338L332.981 44.6661C332.981 44.6661 333.086 46.2381 334.452 45.7077C335.817 45.1772 341.053 43.1626 343.073 42.3798C344.834 41.6928 343.723 40.2048 343.723 40.2048L341.887 36.5936Z" fill="white"/>
<path fill-rule="evenodd" clip-rule="evenodd" d="M335.239 45.291C335.085 44.8886 335.287 44.4344 335.689 44.2779L341.408 42.0692C341.811 41.9153 342.265 42.1171 342.42 42.5195L344.065 46.7737C344.22 47.1761 344.017 47.6329 343.616 47.7868L337.895 49.9929C337.494 50.1495 337.038 49.9476 336.882 49.5478L335.239 45.291Z" fill="white"/>
<path fill-rule="evenodd" clip-rule="evenodd" d="M179.021 140.53L135.995 186.283L126.945 177.772L169.972 132.021L179.021 140.53ZM134.868 181.509L134.458 181.942L137.265 184.583L137.675 184.149L134.868 181.509ZM174.319 139.556L173.912 139.992L176.721 142.632L177.127 142.197L174.319 139.556ZM174.687 141.879L174.278 142.315L175.733 143.681L176.141 143.245L174.687 141.879ZM173.701 142.927L173.291 143.36L174.746 144.729L175.155 144.293L173.701 142.927ZM172.713 143.976L172.306 144.412L173.76 145.778L174.167 145.344L172.713 143.976ZM171.728 145.027L171.319 145.46L172.773 146.826L173.179 146.392L171.728 145.027ZM169.388 144.8L168.979 145.236L171.787 147.876L172.196 147.44L169.388 144.8ZM169.756 147.123L169.347 147.559L170.802 148.925L171.211 148.489L169.756 147.123ZM168.77 148.171L168.361 148.607L169.815 149.973L170.224 149.537L168.77 148.171ZM167.783 149.223L167.374 149.656L168.827 151.024L169.234 150.59L167.783 149.223ZM166.797 150.268L166.388 150.704L167.842 152.07L168.25 151.634L166.797 150.268ZM164.457 150.044L164.048 150.48L166.857 153.12L167.266 152.684L164.457 150.044ZM164.823 152.367L164.415 152.803L165.869 154.17L166.279 153.734L164.823 152.367ZM163.838 153.415L163.427 153.848L164.882 155.217L165.291 154.781L163.838 153.415ZM162.852 154.464L162.443 154.9L163.897 156.266L164.305 155.83L162.852 154.464ZM161.866 155.512L161.456 155.946L162.911 157.314L163.32 156.878L161.866 155.512ZM159.526 155.291L159.116 155.724L161.924 158.362L162.333 157.929L159.526 155.291ZM159.891 157.611L159.482 158.044L160.938 159.413L161.344 158.978L159.891 157.611ZM158.905 158.659L158.498 159.095L159.953 160.461L160.36 160.026L158.905 158.659ZM157.919 159.708L157.512 160.144L158.966 161.51L159.374 161.074L157.919 159.708ZM156.933 160.757L156.526 161.193L157.98 162.558L158.386 162.126L156.933 160.757ZM154.594 160.532L154.185 160.968L156.994 163.608L157.402 163.172L154.594 160.532ZM154.96 162.855L154.551 163.288L156.007 164.657L156.415 164.221L154.96 162.855ZM153.974 163.903L153.567 164.339L155.022 165.705L155.43 165.269L153.974 163.903ZM152.988 164.952L152.58 165.388L154.034 166.755L154.441 166.318L152.988 164.952ZM152.001 166.001L151.592 166.435L153.048 167.804L153.455 167.368L152.001 166.001ZM149.662 165.776L149.253 166.212L152.062 168.852L152.468 168.417L149.662 165.776ZM150.029 168.098L149.619 168.531L151.075 169.9L151.482 169.464L150.029 168.098ZM149.043 169.147L148.635 169.583L150.089 170.948L150.498 170.515L149.043 169.147ZM148.057 170.196L147.647 170.63L149.103 171.999L149.51 171.564L148.057 170.196ZM147.07 171.244L146.661 171.678L148.117 173.047L148.525 172.612L147.07 171.244ZM144.731 171.02L144.322 171.456L147.13 174.095L147.537 173.661L144.731 171.02ZM145.098 173.342L144.688 173.775L146.143 175.141L146.55 174.708L145.098 173.342ZM144.112 174.391L143.702 174.824L145.157 176.191L145.565 175.757L144.112 174.391ZM143.125 175.44L142.715 175.874L144.169 177.24L144.577 176.807L143.125 175.44ZM142.139 176.487L141.73 176.923L143.185 178.289L143.592 177.856L142.139 176.487ZM139.8 176.264L139.39 176.698L142.199 179.337L142.608 178.904L139.8 176.264ZM140.167 178.586L139.757 179.019L141.212 180.385L141.62 179.952L140.167 178.586ZM139.18 179.635L138.77 180.068L140.226 181.435L140.634 181.001L139.18 179.635ZM138.193 180.682L137.784 181.118L139.238 182.484L139.647 182.051L138.193 180.682ZM137.208 181.732L136.798 182.166L138.252 183.532L138.661 183.099L137.208 181.732Z" fill="white"/>
<path fill-rule="evenodd" clip-rule="evenodd" d="M204.474 31.5681C205.187 26.1222 210.249 22.2846 215.68 22.9962C221.112 23.7079 224.946 28.7113 224.233 34.1572C223.511 39.6678 218.516 43.5196 213.085 42.8067C207.653 42.0951 203.752 37.0813 204.474 31.5681ZM201.331 18.1183C201.129 18.0911 200.944 18.2348 200.917 18.4366L200.757 19.658L199.291 19.4652C198.746 19.3941 198.209 19.8094 198.137 20.3541L195.453 40.8439C195.382 41.3886 195.804 41.8609 196.349 41.9308L229.483 46.2717C230.028 46.3416 230.489 45.9871 230.56 45.4423L233.245 24.9526C233.316 24.4078 232.97 23.8786 232.426 23.8075L230.323 23.5319L230.43 22.7155C230.476 22.3739 230.238 22.0646 229.899 22.0206L225.826 21.4876C225.487 21.4423 225.18 21.6804 225.135 22.0232L225.029 22.8371L205.723 20.3088L205.883 19.0874C205.909 18.8869 205.767 18.7006 205.565 18.6734L201.331 18.1183ZM229.193 27.398C229.534 27.442 229.843 27.2091 229.887 26.8662L229.958 26.3202C230.003 25.9786 229.756 25.7405 229.416 25.6965L225.342 25.1622C225.004 25.1182 224.705 25.2851 224.661 25.6254L224.59 26.1714C224.545 26.513 224.781 26.8183 225.119 26.8649L229.193 27.398Z" fill="white"/>
<path fill-rule="evenodd" clip-rule="evenodd" d="M215.429 23.8644C210.371 23.2007 205.796 26.7278 205.141 31.7195C204.476 36.7876 207.989 41.3718 213.048 42.0356C218.026 42.6864 222.603 39.1632 223.268 34.0938C223.923 29.0995 220.406 24.5165 215.429 23.8644ZM207.786 32.065C208.247 28.5534 211.514 25.9683 215.091 26.4367C218.591 26.896 221.158 30.2445 220.699 33.7574C220.229 37.344 216.885 39.9214 213.385 39.4634C209.807 38.9911 207.316 35.6503 207.786 32.065Z" fill="white"/>
<path fill-rule="evenodd" clip-rule="evenodd" d="M214.966 27.1056C218.19 27.5287 220.462 30.4839 220.04 33.7082C219.619 36.9313 216.661 39.2046 213.436 38.7815C210.212 38.361 207.94 35.4019 208.363 32.1802C208.786 28.9558 211.741 26.6851 214.966 27.1056ZM214.67 29.3673C212.694 29.1098 210.885 30.502 210.625 32.4752C210.366 34.4496 211.758 36.2636 213.733 36.5198C215.707 36.7773 217.519 35.3877 217.776 33.4119C218.035 31.4375 216.644 29.6261 214.67 29.3673Z" fill="white"/>
<path fill-rule="evenodd" clip-rule="evenodd" d="M369.575 18.1599C370.76 18.1236 371.859 18.6373 372.088 19.3735C372.315 20.1123 371.507 20.8123 370.223 20.8718C368.94 20.9326 367.758 20.3077 367.63 19.5495C367.502 18.79 368.391 18.1974 369.575 18.1599ZM384.581 16.7042C383.043 14.6962 381.037 13.3428 378.791 12.3568C376.672 11.4252 374.269 10.8676 371.932 10.8521C369.075 10.8326 365.9 11.7823 368.357 13.3389C369.643 14.154 370.488 14.5784 370.169 15.4828C369.847 16.3885 368.656 16.4067 367.164 15.6174C364.126 14.0104 362.66 16.1621 363.675 19.1911C364.914 22.8967 369.941 28.1706 378.856 27.4162C382.665 27.0928 385.13 25.3732 385.986 23.1141C386.732 21.1461 386.121 18.711 384.581 16.7042ZM374.635 21.1435C375.967 21.0788 377.294 21.6624 377.671 22.5267C378.047 23.3923 377.245 24.2449 375.796 24.3407C374.348 24.4377 372.898 23.7119 372.64 22.8139C372.38 21.9199 373.303 21.2095 374.635 21.1435ZM374.524 13.5304C374.776 14.0518 374.162 14.5202 373.106 14.5331C372.051 14.5474 371.016 14.0906 370.834 13.5588C370.651 13.0271 371.333 12.6273 372.318 12.6247C373.304 12.6234 374.274 13.0089 374.524 13.5304ZM379.102 17.7148C378.748 17.0821 379.232 16.5904 380.138 16.5684C381.044 16.5464 382.078 16.9915 382.496 17.6112C382.913 18.2297 382.51 18.8042 381.541 18.8404C380.57 18.8754 379.456 18.3475 379.102 17.7148ZM379.857 19.9777C380.894 19.9338 382.041 20.4422 382.479 21.1733C382.919 21.9043 382.42 22.603 381.308 22.669C380.194 22.735 378.946 22.123 378.585 21.3699C378.227 20.6182 378.821 20.023 379.857 19.9777Z" fill="white"/>
<path fill-rule="evenodd" clip-rule="evenodd" d="M393.557 6.17724C393.361 6.75819 389.813 22.3882 388.922 26.3177C388.984 26.3008 389.047 26.2879 389.111 26.275C389.917 26.1184 390.833 26.2983 391.482 26.8119C392.148 22.8229 394.781 7.03896 394.821 6.42567C394.9 5.26248 393.928 5.06969 393.557 6.17724Z" fill="white"/>
<path fill-rule="evenodd" clip-rule="evenodd" d="M387.266 28.9779C387.003 30.7751 388.061 32.0315 386.322 33.9761C388.656 33.1261 391.837 31.2939 391.802 28.463C391.776 26.3281 387.729 25.795 387.266 28.9779Z" fill="white"/>
<path fill-rule="evenodd" clip-rule="evenodd" d="M350.912 295.211L355.979 292.6L353.641 288.063L348.574 290.67L350.912 295.211ZM349.985 291.503L351.071 290.944L351.704 292.173L350.617 292.734L349.985 291.503ZM352.412 290.253L353.497 289.693L354.131 290.923L353.046 291.484L352.412 290.253Z" fill="#D0D1D2"/>
<path fill-rule="evenodd" clip-rule="evenodd" d="M357.67 291.554L365.728 307.2C366.274 308.264 366.032 309.489 365.187 309.924L359.66 312.769C358.816 313.204 357.677 312.692 357.129 311.628L349.072 295.98L357.67 291.554Z" fill="#59595C"/>
<path d="M355.909 292.449L350.844 295.059L359.057 310.995L364.122 308.385L355.909 292.449Z" fill="#808184"/>
<path d="M215.847 121.5V104.7H223.479C225.303 104.7 226.911 105.052 228.303 105.756C229.695 106.444 230.783 107.412 231.567 108.66C232.351 109.908 232.743 111.388 232.743 113.1C232.743 114.796 232.351 116.276 231.567 117.54C230.783 118.788 229.695 119.764 228.303 120.468C226.911 121.156 225.303 121.5 223.479 121.5H215.847ZM219.735 118.308H223.287C224.407 118.308 225.375 118.1 226.191 117.684C227.023 117.252 227.663 116.644 228.111 115.86C228.575 115.076 228.807 114.156 228.807 113.1C228.807 112.028 228.575 111.108 228.111 110.34C227.663 109.556 227.023 108.956 226.191 108.54C225.375 108.108 224.407 107.892 223.287 107.892H219.735V118.308ZM235.676 121.5V104.7H248.372V107.82H239.54V118.38H248.684V121.5H235.676ZM239.252 114.492V111.468H247.34V114.492H239.252ZM251.777 121.5V104.7H254.993L264.905 116.796H263.345V104.7H267.185V121.5H263.993L254.057 109.404H255.617V121.5H251.777ZM274.64 121.5V107.868H269.264V104.7H283.904V107.868H278.528V121.5H274.64ZM282.944 121.5L290.432 104.7H294.272L301.784 121.5H297.704L291.56 106.668H293.096L286.928 121.5H282.944ZM286.688 117.9L287.72 114.948H296.36L297.416 117.9H286.688ZM303.527 121.5V104.7H307.415V118.332H315.839V121.5H303.527Z" fill="#647882"/>
</g>
<defs>
<clipPath id="clip0_189_26649">
<rect width="623" height="375" fill="white"/>
</clipPath>
</defs>
</svg>
