<svg width="595" height="375" viewBox="0 0 595 375" fill="none" xmlns="http://www.w3.org/2000/svg">
<g clip-path="url(#clip0_152_23078)">
<path fill-rule="evenodd" clip-rule="evenodd" d="M266.213 276.044C266.213 274.169 267.612 272.59 269.472 272.362L276.656 271.485L283.856 244.001H337.248L344.448 271.485L351.632 272.362C353.492 272.59 354.891 274.169 354.891 276.044H266.213Z" fill="#D0D2D3"/>
<path fill-rule="evenodd" clip-rule="evenodd" d="M282.657 248.583L283.856 244.001H337.247L338.449 248.583H282.657Z" fill="#BBBDBF"/>
<path fill-rule="evenodd" clip-rule="evenodd" d="M176.045 221.027V66.7744C176.045 63.4828 178.715 60.8123 182.008 60.8123H434.621C437.916 60.8123 440.582 63.4828 440.582 66.7744V221.026L176.045 221.027Z" fill="#2C2D2C"/>
<path fill-rule="evenodd" clip-rule="evenodd" d="M434.621 244.872H182.008C178.713 244.872 176.045 242.204 176.045 238.913V221.027H440.583V238.913C440.583 242.204 437.916 244.872 434.621 244.872Z" fill="#EAEAEA"/>
<path fill-rule="evenodd" clip-rule="evenodd" d="M266.213 276.044C266.213 274.169 267.612 272.59 269.472 272.362L276.656 271.485H344.448L351.632 272.362C353.492 272.59 354.891 274.169 354.891 276.044H266.213Z" fill="#E6E7E8"/>
<path d="M432.385 71.2461H184.242V210.594H432.385V71.2461Z" fill="white"/>
<path d="M432.385 71.2461H184.242V78.0118H432.385V71.2461Z" fill="#4BC2CB"/>
<path d="M215.71 87.0107H199.271V92.9871H215.71V87.0107Z" fill="#00A498"/>
<path d="M349.849 97.2103H199.271V136.764H349.849V97.2103Z" fill="#43525A"/>
<path d="M261.581 138.618H199.271V191.316H261.581V138.618Z" fill="#647882"/>
<path d="M417.357 97.0408H355.048V191.316H417.357V97.0408Z" fill="#43525A"/>
<path d="M411.029 103.684H361.375V127.809H411.029V103.684Z" fill="#647882"/>
<path d="M411.029 131.644H361.375V155.77H411.029V131.644Z" fill="#647882"/>
<path d="M411.029 159.605H361.375V183.73H411.029V159.605Z" fill="#647882"/>
<path d="M432.385 198.207H184.242V210.592H432.385V198.207Z" fill="#4BC2CB"/>
<path d="M339.468 164.728H277.159V169.049H339.468V164.728Z" fill="#8BB9E0"/>
<path d="M339.468 172.151H277.159V176.472H339.468V172.151Z" fill="#8BB9E0"/>
<path d="M339.468 179.574H277.159V183.895H339.468V179.574Z" fill="#8BB9E0"/>
<path d="M316.611 186.996H277.159V191.316H316.611V186.996Z" fill="#8BB9E0"/>
<path fill-rule="evenodd" clip-rule="evenodd" d="M339.065 115.924C338.854 115.722 338.905 115.429 339.178 115.271C339.452 115.116 339.846 115.152 340.058 115.356L343.241 118.425C343.259 118.443 343.276 118.46 343.291 118.479L343.295 118.483L343.296 118.487L343.3 118.491C343.308 118.501 343.317 118.514 343.325 118.526L343.336 118.549L343.342 118.559L343.355 118.589L343.364 118.621C343.369 118.636 343.371 118.648 343.374 118.663V118.665L343.375 118.686L343.377 118.702V118.709V118.717V118.724L343.375 118.74L343.374 118.76V118.762C343.373 118.775 343.369 118.791 343.364 118.806L343.355 118.839L343.342 118.868L343.336 118.879L343.325 118.901C343.318 118.915 343.308 118.927 343.3 118.94L343.296 118.942L343.295 118.946L343.291 118.95C343.276 118.969 343.259 118.987 343.241 119.006L340.058 122.073C339.846 122.277 339.452 122.315 339.178 122.157C338.905 122 338.854 121.707 339.065 121.504L341.96 118.714L339.065 115.924Z" fill="white"/>
<path fill-rule="evenodd" clip-rule="evenodd" d="M210.841 115.357C211.053 115.152 211.448 115.116 211.721 115.273C211.995 115.431 212.046 115.722 211.835 115.925L208.941 118.717L211.835 121.507C212.046 121.71 211.995 122.002 211.721 122.16C211.447 122.318 211.053 122.279 210.841 122.076L207.661 119.008C207.641 118.99 207.625 118.972 207.609 118.953L207.607 118.949L207.603 118.945L207.601 118.942C207.592 118.929 207.585 118.918 207.577 118.903L207.564 118.881L207.56 118.871L207.547 118.841L207.537 118.809C207.534 118.793 207.532 118.779 207.529 118.765V118.762L207.526 118.743L207.522 118.727V118.721V118.713V118.705L207.524 118.69L207.526 118.669V118.667C207.528 118.652 207.532 118.638 207.534 118.625L207.544 118.593L207.557 118.563L207.561 118.553L207.574 118.529L207.599 118.495L207.6 118.491L207.604 118.487L207.607 118.483C207.623 118.464 207.64 118.447 207.658 118.429L210.841 115.357Z" fill="white"/>
<path d="M417.356 86.6898H314.618V92.9871H417.356V86.6898Z" fill="#00A2A8"/>
<path d="M234.068 87.0107H217.629V92.9871H234.068V87.0107Z" fill="#00A498"/>
<path d="M252.427 87.0107H235.988V92.9871H252.427V87.0107Z" fill="#00A2A8"/>
<path d="M270.784 87.0107H254.344V92.9871H270.784V87.0107Z" fill="#00A498"/>
<path d="M289.141 87.0107H272.701V92.9871H289.141V87.0107Z" fill="#00A498"/>
<path d="M339.468 143.074H277.159V147.394H339.468V143.074Z" fill="#8BB9E0"/>
<path d="M339.468 150.496H277.159V154.816H339.468V150.496Z" fill="#8BB9E0"/>
<path d="M339.468 157.919H277.159V162.239H339.468V157.919Z" fill="#8BB9E0"/>
<path fill-rule="evenodd" clip-rule="evenodd" d="M230.484 153.366C235.729 153.366 239.982 157.617 239.982 162.863C239.982 168.107 235.73 172.358 230.484 172.358C225.241 172.358 220.989 168.107 220.989 162.863C220.989 157.619 225.241 153.366 230.484 153.366ZM219.191 162.864C219.191 169.102 224.247 174.158 230.485 174.158C236.723 174.158 241.782 169.103 241.782 162.864C241.782 156.625 236.724 151.568 230.485 151.568C224.247 151.568 219.191 156.625 219.191 162.864Z" fill="#E6E7E8"/>
<path fill-rule="evenodd" clip-rule="evenodd" d="M231.93 160.285L227.592 157.709V162.864V168.019L231.93 165.44L236.266 162.864L231.93 160.285Z" fill="#E6E7E8"/>
<path fill-rule="evenodd" clip-rule="evenodd" d="M305.461 368.248C305.461 368.554 305.23 368.797 304.935 368.797L159.877 368.801C159.585 368.801 159.352 368.555 159.352 368.249V297.726C159.352 297.422 159.585 297.176 159.877 297.176L304.935 297.172C305.227 297.172 305.461 297.42 305.461 297.723V368.248Z" fill="#A6A8AB"/>
<path fill-rule="evenodd" clip-rule="evenodd" d="M170.388 311.822C170.388 312.112 170.153 312.349 169.861 312.349H161.958C161.669 312.349 161.433 312.112 161.433 311.822V307.515C161.433 307.227 161.669 306.988 161.958 306.988H169.861C170.153 306.988 170.388 307.227 170.388 307.515V311.822Z" fill="#F1F1F1"/>
<path fill-rule="evenodd" clip-rule="evenodd" d="M180.623 311.822C180.623 312.112 180.386 312.349 180.097 312.349H172.198C171.909 312.349 171.671 312.112 171.671 311.822V307.515C171.671 307.227 171.909 306.988 172.198 306.988H180.097C180.388 306.988 180.623 307.227 180.623 307.515V311.822Z" fill="#F1F1F1"/>
<path fill-rule="evenodd" clip-rule="evenodd" d="M190.858 311.822C190.858 312.112 190.625 312.349 190.332 312.349H182.431C182.139 312.349 181.905 312.112 181.905 311.822V307.515C181.905 307.227 182.141 306.988 182.431 306.988H190.332C190.625 306.988 190.858 307.227 190.858 307.515V311.822Z" fill="#F1F1F1"/>
<path fill-rule="evenodd" clip-rule="evenodd" d="M201.099 311.822C201.099 312.112 200.861 312.349 200.57 312.346L192.667 312.349C192.381 312.349 192.143 312.112 192.143 311.822V307.515C192.143 307.224 192.381 306.988 192.667 306.988H200.57C200.862 306.988 201.099 307.224 201.099 307.515V311.822Z" fill="#F1F1F1"/>
<path fill-rule="evenodd" clip-rule="evenodd" d="M211.332 311.822C211.332 312.112 211.099 312.346 210.806 312.346H202.904C202.614 312.346 202.381 312.112 202.381 311.822V307.515C202.381 307.224 202.614 306.988 202.904 306.988H210.806C211.099 306.988 211.332 307.224 211.332 307.515V311.822Z" fill="#F1F1F1"/>
<path fill-rule="evenodd" clip-rule="evenodd" d="M221.571 311.822C221.571 312.112 221.329 312.346 221.042 312.346H213.14C212.85 312.346 212.613 312.112 212.613 311.822V307.515C212.613 307.224 212.851 306.988 213.14 306.988H221.042C221.329 306.988 221.571 307.224 221.571 307.515V311.822Z" fill="#F1F1F1"/>
<path fill-rule="evenodd" clip-rule="evenodd" d="M231.8 311.822C231.802 312.112 231.567 312.346 231.279 312.346H223.375C223.085 312.346 222.851 312.112 222.851 311.822V307.515C222.851 307.224 223.085 306.988 223.374 306.988H231.279C231.567 306.988 231.8 307.224 231.8 307.515V311.822Z" fill="#F1F1F1"/>
<path fill-rule="evenodd" clip-rule="evenodd" d="M242.042 311.822C242.042 312.11 241.808 312.346 241.515 312.346H233.615C233.323 312.346 233.088 312.112 233.088 311.822V307.515C233.088 307.224 233.324 306.988 233.615 306.988H241.515C241.808 306.988 242.042 307.224 242.042 307.515V311.822Z" fill="#F1F1F1"/>
<path fill-rule="evenodd" clip-rule="evenodd" d="M252.278 311.822C252.278 312.11 252.04 312.346 251.751 312.346H243.852C243.56 312.346 243.326 312.111 243.326 311.822V307.515C243.326 307.224 243.56 306.988 243.852 306.988H251.751C252.04 306.988 252.278 307.224 252.278 307.515V311.822Z" fill="#F1F1F1"/>
<path fill-rule="evenodd" clip-rule="evenodd" d="M262.514 311.822C262.514 312.11 262.278 312.346 261.987 312.346H254.086C253.797 312.346 253.559 312.111 253.559 311.822V307.515C253.559 307.224 253.798 306.988 254.086 306.988H261.987C262.278 306.988 262.514 307.224 262.514 307.515V311.822Z" fill="#F1F1F1"/>
<path fill-rule="evenodd" clip-rule="evenodd" d="M272.751 311.822C272.751 312.11 272.514 312.346 272.225 312.346H264.323C264.033 312.346 263.796 312.111 263.796 311.822V307.515C263.796 307.224 264.033 306.988 264.323 306.988H272.225C272.514 306.988 272.751 307.224 272.751 307.515V311.822Z" fill="#F1F1F1"/>
<path fill-rule="evenodd" clip-rule="evenodd" d="M282.986 311.822C282.986 312.11 282.75 312.346 282.459 312.346H274.559C274.268 312.346 274.032 312.111 274.032 311.822V307.515C274.032 307.224 274.268 306.988 274.559 306.988H282.459C282.75 306.988 282.986 307.224 282.986 307.515V311.822Z" fill="#F1F1F1"/>
<path fill-rule="evenodd" clip-rule="evenodd" d="M293.224 311.822C293.224 312.11 292.986 312.346 292.698 312.346H284.799C284.509 312.346 284.272 312.111 284.272 311.822V307.515C284.272 307.224 284.51 306.988 284.799 306.988H292.698C292.986 306.988 293.224 307.224 293.224 307.515V311.822Z" fill="#F1F1F1"/>
<path fill-rule="evenodd" clip-rule="evenodd" d="M303.459 311.822C303.459 312.11 303.223 312.346 302.932 312.346H295.031C294.746 312.346 294.508 312.111 294.508 311.822V307.515C294.508 307.224 294.743 306.988 295.031 306.988H302.932C303.225 306.988 303.459 307.224 303.459 307.515V311.822Z" fill="#F1F1F1"/>
<path fill-rule="evenodd" clip-rule="evenodd" d="M170.388 321.904C170.388 322.198 170.153 322.43 169.861 322.43L161.958 322.432C161.669 322.432 161.433 322.197 161.433 321.907V314.005C161.433 313.713 161.669 313.479 161.958 313.479H169.861C170.153 313.479 170.388 313.713 170.388 314.005V321.904Z" fill="#F1F1F1"/>
<path fill-rule="evenodd" clip-rule="evenodd" d="M180.235 321.904C180.235 322.198 180.002 322.43 179.707 322.43H171.805C171.52 322.432 171.283 322.198 171.283 321.904V314.004C171.283 313.713 171.52 313.479 171.805 313.479H179.707C180.002 313.479 180.235 313.713 180.235 314.004V321.904Z" fill="#F1F1F1"/>
<path fill-rule="evenodd" clip-rule="evenodd" d="M190.082 321.904C190.082 322.198 189.846 322.43 189.558 322.43H181.654C181.366 322.43 181.131 322.198 181.131 321.904V314.004C181.131 313.713 181.366 313.479 181.654 313.479H189.558C189.846 313.479 190.082 313.713 190.082 314.004V321.904Z" fill="#F1F1F1"/>
<path fill-rule="evenodd" clip-rule="evenodd" d="M199.932 321.904C199.932 322.198 199.694 322.43 199.406 322.43H191.502C191.21 322.43 190.978 322.198 190.978 321.904V314.004C190.978 313.713 191.21 313.479 191.502 313.479H199.405C199.694 313.479 199.932 313.713 199.932 314.004V321.904Z" fill="#F1F1F1"/>
<path fill-rule="evenodd" clip-rule="evenodd" d="M209.779 321.904C209.779 322.198 209.541 322.43 209.251 322.43H201.35C201.057 322.43 200.826 322.191 200.826 321.904V314.004C200.826 313.713 201.057 313.479 201.35 313.479H209.251C209.542 313.479 209.779 313.713 209.779 314.004V321.904Z" fill="#F1F1F1"/>
<path fill-rule="evenodd" clip-rule="evenodd" d="M219.629 321.904C219.629 322.191 219.391 322.429 219.101 322.429H211.202C210.911 322.429 210.674 322.191 210.674 321.904V314.004C210.674 313.713 210.911 313.478 211.202 313.476H219.101C219.392 313.476 219.629 313.713 219.629 314.004V321.904Z" fill="#F1F1F1"/>
<path fill-rule="evenodd" clip-rule="evenodd" d="M229.473 321.904C229.473 322.191 229.239 322.429 228.947 322.429H221.047C220.758 322.429 220.523 322.191 220.523 321.904V314.004C220.523 313.713 220.759 313.476 221.047 313.476H228.947C229.235 313.476 229.473 313.713 229.473 314.004V321.904Z" fill="#F1F1F1"/>
<path fill-rule="evenodd" clip-rule="evenodd" d="M239.321 321.904C239.321 322.191 239.09 322.429 238.796 322.429H230.894C230.606 322.429 230.368 322.191 230.368 321.904V314.004C230.368 313.713 230.606 313.476 230.894 313.476H238.796C239.09 313.476 239.321 313.713 239.321 314.004V321.904Z" fill="#F1F1F1"/>
<path fill-rule="evenodd" clip-rule="evenodd" d="M249.169 321.904C249.169 322.191 248.938 322.429 248.646 322.429H240.742C240.451 322.429 240.218 322.191 240.218 321.904V314.004C240.218 313.713 240.449 313.476 240.742 313.476H248.646C248.938 313.476 249.169 313.713 249.169 314.004V321.904Z" fill="#F1F1F1"/>
<path fill-rule="evenodd" clip-rule="evenodd" d="M259.019 321.904C259.019 322.191 258.783 322.429 258.495 322.429H250.593C250.301 322.429 250.064 322.191 250.064 321.904V314.004C250.064 313.713 250.302 313.476 250.591 313.476H258.495C258.783 313.476 259.019 313.713 259.019 314.004V321.904Z" fill="#F1F1F1"/>
<path fill-rule="evenodd" clip-rule="evenodd" d="M268.867 321.904C268.867 322.191 268.631 322.429 268.34 322.429H260.438C260.147 322.429 259.916 322.191 259.916 321.904V314.004C259.916 313.713 260.148 313.476 260.438 313.476H268.34C268.632 313.476 268.867 313.713 268.867 314.004V321.904Z" fill="#F1F1F1"/>
<path fill-rule="evenodd" clip-rule="evenodd" d="M187.611 341.047C187.611 341.337 187.371 341.572 187.084 341.572H179.18C178.891 341.572 178.654 341.339 178.654 341.047L178.652 333.145C178.652 332.857 178.891 332.62 179.18 332.62H187.084C187.371 332.62 187.611 332.857 187.611 333.145V341.047Z" fill="#F1F1F1"/>
<path fill-rule="evenodd" clip-rule="evenodd" d="M197.459 341.047C197.459 341.337 197.224 341.572 196.931 341.572H189.03C188.736 341.572 188.504 341.337 188.504 341.047V333.145C188.504 332.857 188.736 332.62 189.03 332.62H196.931C197.225 332.62 197.459 332.857 197.459 333.145V341.047Z" fill="#F1F1F1"/>
<path fill-rule="evenodd" clip-rule="evenodd" d="M207.306 341.044C207.306 341.339 207.071 341.572 206.78 341.572H198.876C198.589 341.572 198.352 341.339 198.352 341.047V333.144C198.352 332.854 198.588 332.62 198.876 332.62H206.78C207.073 332.62 207.304 332.856 207.306 333.144V341.044Z" fill="#F1F1F1"/>
<path fill-rule="evenodd" clip-rule="evenodd" d="M217.152 341.044C217.152 341.339 216.92 341.572 216.625 341.572H208.724C208.436 341.572 208.198 341.339 208.198 341.044V333.145C208.198 332.855 208.435 332.621 208.724 332.621H216.625C216.92 332.621 217.152 332.857 217.152 333.145V341.044Z" fill="#F1F1F1"/>
<path fill-rule="evenodd" clip-rule="evenodd" d="M227.002 341.044C227.002 341.339 226.764 341.572 226.475 341.572H218.571C218.284 341.572 218.046 341.339 218.046 341.044V333.145C218.046 332.855 218.28 332.621 218.571 332.621H226.475C226.764 332.621 227.002 332.857 227.002 333.145V341.044Z" fill="#F1F1F1"/>
<path fill-rule="evenodd" clip-rule="evenodd" d="M236.85 341.044C236.85 341.339 236.612 341.572 236.323 341.572H228.421C228.128 341.572 227.896 341.339 227.896 341.044V333.145C227.896 332.855 228.128 332.621 228.421 332.621H236.323C236.612 332.621 236.85 332.857 236.85 333.145V341.044Z" fill="#F1F1F1"/>
<path fill-rule="evenodd" clip-rule="evenodd" d="M246.697 341.044C246.697 341.339 246.463 341.572 246.17 341.572H238.271C237.983 341.572 237.747 341.339 237.747 341.044V333.145C237.747 332.855 237.983 332.621 238.271 332.621H246.17C246.463 332.621 246.697 332.857 246.697 333.145V341.044Z" fill="#F1F1F1"/>
<path fill-rule="evenodd" clip-rule="evenodd" d="M256.544 341.044C256.544 341.339 256.308 341.572 256.017 341.572H248.117C247.828 341.572 247.59 341.339 247.59 341.044V333.145C247.59 332.855 247.828 332.621 248.117 332.621H256.017C256.31 332.621 256.544 332.857 256.544 333.145V341.044Z" fill="#F1F1F1"/>
<path fill-rule="evenodd" clip-rule="evenodd" d="M266.394 341.044C266.394 341.337 266.156 341.572 265.869 341.572H257.965C257.676 341.572 257.438 341.337 257.438 341.044V333.147C257.438 332.856 257.673 332.621 257.965 332.621H265.869C266.156 332.621 266.394 332.857 266.394 333.145V341.044Z" fill="#F1F1F1"/>
<path fill-rule="evenodd" clip-rule="evenodd" d="M276.239 341.044C276.239 341.337 276.005 341.571 275.716 341.572H267.812C267.52 341.572 267.288 341.337 267.288 341.044V333.145C267.288 332.856 267.52 332.621 267.812 332.621L275.716 332.619C276.005 332.621 276.239 332.857 276.239 333.145V341.044Z" fill="#F1F1F1"/>
<path fill-rule="evenodd" clip-rule="evenodd" d="M192.533 350.539C192.533 350.829 192.294 351.064 192.007 351.064H184.105C183.817 351.064 183.579 350.829 183.579 350.539V342.64C183.579 342.347 183.817 342.111 184.105 342.111H192.007C192.295 342.111 192.533 342.346 192.533 342.64V350.539Z" fill="#F1F1F1"/>
<path fill-rule="evenodd" clip-rule="evenodd" d="M202.383 350.539C202.383 350.829 202.146 351.064 201.855 351.064H193.952C193.666 351.064 193.427 350.829 193.427 350.539V342.64C193.427 342.345 193.666 342.111 193.952 342.111H201.855C202.147 342.111 202.383 342.346 202.383 342.64V350.539Z" fill="#F1F1F1"/>
<path fill-rule="evenodd" clip-rule="evenodd" d="M212.229 350.539C212.229 350.829 211.993 351.064 211.702 351.064H203.801C203.509 351.064 203.274 350.829 203.274 350.539V342.64C203.274 342.345 203.509 342.111 203.801 342.111H211.702C211.995 342.111 212.229 342.346 212.229 342.64V350.539Z" fill="#F1F1F1"/>
<path fill-rule="evenodd" clip-rule="evenodd" d="M222.078 350.539C222.078 350.829 221.842 351.064 221.551 351.064H213.65C213.359 351.064 213.127 350.829 213.127 350.539V342.64C213.127 342.345 213.359 342.111 213.65 342.111H221.551C221.844 342.111 222.078 342.346 222.078 342.64V350.539Z" fill="#F1F1F1"/>
<path fill-rule="evenodd" clip-rule="evenodd" d="M231.925 350.538C231.925 350.829 231.689 351.064 231.398 351.064H223.494C223.207 351.064 222.973 350.829 222.973 350.539V342.64C222.973 342.345 223.206 342.111 223.494 342.111H231.398C231.691 342.111 231.925 342.346 231.922 342.64L231.925 350.538Z" fill="#F1F1F1"/>
<path fill-rule="evenodd" clip-rule="evenodd" d="M241.773 350.538C241.773 350.829 241.537 351.064 241.246 351.064H233.343C233.057 351.064 232.819 350.829 232.819 350.538V342.64C232.819 342.345 233.057 342.111 233.343 342.111H241.246C241.539 342.111 241.773 342.346 241.773 342.64V350.538Z" fill="#F1F1F1"/>
<path fill-rule="evenodd" clip-rule="evenodd" d="M251.621 350.538C251.621 350.829 251.387 351.064 251.095 351.064H243.196C242.903 351.064 242.669 350.829 242.669 350.538V342.64C242.669 342.345 242.901 342.111 243.196 342.111H251.095C251.387 342.111 251.621 342.346 251.621 342.64V350.538Z" fill="#F1F1F1"/>
<path fill-rule="evenodd" clip-rule="evenodd" d="M261.468 350.538C261.468 350.829 261.234 351.064 260.942 351.064H253.041C252.753 351.064 252.515 350.829 252.515 350.538V342.64C252.515 342.345 252.753 342.111 253.041 342.111H260.942C261.234 342.111 261.468 342.346 261.468 342.64V350.538Z" fill="#F1F1F1"/>
<path fill-rule="evenodd" clip-rule="evenodd" d="M271.318 350.538C271.318 350.829 271.079 351.064 270.788 351.063L262.888 351.064C262.602 351.064 262.361 350.829 262.361 350.538V342.64C262.361 342.345 262.602 342.111 262.888 342.111H270.788C271.081 342.111 271.318 342.346 271.318 342.64V350.538Z" fill="#F1F1F1"/>
<path fill-rule="evenodd" clip-rule="evenodd" d="M281.162 350.538C281.162 350.829 280.931 351.063 280.64 351.063L272.735 351.064C272.446 351.063 272.211 350.829 272.211 350.538V342.64C272.211 342.345 272.447 342.111 272.735 342.111H280.64C280.93 342.111 281.162 342.346 281.162 342.64V350.538Z" fill="#F1F1F1"/>
<path fill-rule="evenodd" clip-rule="evenodd" d="M286.087 341.044C286.087 341.337 285.853 341.571 285.559 341.571H277.661C277.371 341.571 277.137 341.337 277.137 341.044V333.145C277.137 332.856 277.373 332.619 277.661 332.619H285.559C285.853 332.619 286.087 332.857 286.087 333.145V341.044Z" fill="#F1F1F1"/>
<path fill-rule="evenodd" clip-rule="evenodd" d="M278.717 321.904C278.717 322.191 278.479 322.429 278.19 322.429H270.286C269.995 322.429 269.763 322.191 269.763 321.904V314.004C269.763 313.713 269.995 313.476 270.286 313.476H278.19C278.479 313.476 278.717 313.713 278.717 314.004V321.904Z" fill="#F1F1F1"/>
<path fill-rule="evenodd" clip-rule="evenodd" d="M288.562 321.902C288.562 322.191 288.327 322.429 288.036 322.429H280.136C279.844 322.429 279.61 322.191 279.61 321.904V314.004C279.61 313.713 279.844 313.476 280.136 313.476L288.036 313.475C288.328 313.475 288.562 313.714 288.562 314.002V321.902Z" fill="#F1F1F1"/>
<path fill-rule="evenodd" clip-rule="evenodd" d="M185.1 331.494C185.1 331.785 184.864 332.022 184.575 332.022H176.672C176.38 332.022 176.146 331.784 176.146 331.497V323.594C176.146 323.302 176.381 323.067 176.672 323.067H184.575C184.865 323.067 185.1 323.303 185.1 323.594V331.494Z" fill="#F1F1F1"/>
<path fill-rule="evenodd" clip-rule="evenodd" d="M194.948 331.494C194.948 331.785 194.713 332.022 194.42 332.022H186.522C186.231 332.022 185.997 331.784 185.997 331.494V323.594C185.997 323.302 186.233 323.067 186.522 323.067H194.42C194.713 323.067 194.948 323.303 194.948 323.594V331.494Z" fill="#F1F1F1"/>
<path fill-rule="evenodd" clip-rule="evenodd" d="M204.795 331.494C204.795 331.785 204.561 332.022 204.269 332.022H196.368C196.08 332.022 195.842 331.784 195.842 331.494V323.594C195.842 323.302 196.08 323.067 196.368 323.067H204.269C204.561 323.067 204.795 323.303 204.795 323.594V331.494Z" fill="#F1F1F1"/>
<path fill-rule="evenodd" clip-rule="evenodd" d="M214.643 331.494C214.643 331.785 214.409 332.022 214.12 332.022H206.216C205.927 332.022 205.692 331.784 205.692 331.494V323.594C205.692 323.302 205.927 323.067 206.216 323.067H214.12C214.407 323.067 214.643 323.303 214.643 323.594V331.494Z" fill="#F1F1F1"/>
<path fill-rule="evenodd" clip-rule="evenodd" d="M224.491 331.494C224.491 331.785 224.257 332.022 223.968 332.022H216.062C215.774 332.022 215.538 331.784 215.538 331.494V323.594C215.538 323.302 215.774 323.067 216.062 323.067H223.968C224.257 323.067 224.491 323.303 224.491 323.594V331.494Z" fill="#F1F1F1"/>
<path fill-rule="evenodd" clip-rule="evenodd" d="M234.339 331.494C234.339 331.785 234.104 332.022 233.813 332.022H225.911C225.619 332.022 225.386 331.784 225.386 331.494V323.594C225.386 323.302 225.619 323.067 225.911 323.067H233.813C234.104 323.067 234.339 323.303 234.339 323.594V331.494Z" fill="#F1F1F1"/>
<path fill-rule="evenodd" clip-rule="evenodd" d="M244.189 331.494C244.189 331.785 243.951 332.022 243.662 332.022H235.76C235.468 332.022 235.234 331.784 235.234 331.494V323.59C235.234 323.301 235.469 323.066 235.76 323.066H243.662C243.952 323.066 244.189 323.301 244.189 323.59V331.494Z" fill="#F1F1F1"/>
<path fill-rule="evenodd" clip-rule="evenodd" d="M254.037 331.494C254.037 331.785 253.801 332.022 253.51 332.022H245.608C245.318 332.022 245.083 331.784 245.083 331.494V323.59C245.083 323.301 245.318 323.066 245.608 323.066H253.51C253.802 323.066 254.037 323.301 254.037 323.59V331.494Z" fill="#F1F1F1"/>
<path fill-rule="evenodd" clip-rule="evenodd" d="M263.884 331.494C263.884 331.785 263.648 332.022 263.357 332.022H255.457C255.168 332.022 254.928 331.784 254.928 331.494V323.59C254.928 323.301 255.166 323.066 255.457 323.066H263.357C263.65 323.066 263.884 323.301 263.884 323.59V331.494Z" fill="#F1F1F1"/>
<path fill-rule="evenodd" clip-rule="evenodd" d="M273.731 331.494C273.731 331.785 273.496 332.022 273.205 332.022H265.306C265.013 332.022 264.782 331.784 264.782 331.494V323.59C264.782 323.301 265.013 323.066 265.306 323.066H273.205C273.497 323.066 273.731 323.301 273.731 323.59V331.494Z" fill="#F1F1F1"/>
<path fill-rule="evenodd" clip-rule="evenodd" d="M283.577 331.494C283.577 331.785 283.345 332.022 283.056 332.022H275.153C274.86 332.022 274.629 331.784 274.629 331.494L274.626 323.59C274.626 323.301 274.86 323.066 275.15 323.066H283.056C283.345 323.066 283.577 323.301 283.577 323.59V331.494Z" fill="#F1F1F1"/>
<path fill-rule="evenodd" clip-rule="evenodd" d="M293.426 331.494C293.426 331.785 293.193 332.022 292.902 332.022H284.999C284.711 332.022 284.475 331.784 284.475 331.494V323.59C284.475 323.301 284.709 323.066 284.999 323.066H292.902C293.195 323.066 293.426 323.301 293.426 323.59V331.494Z" fill="#F1F1F1"/>
<path fill-rule="evenodd" clip-rule="evenodd" d="M303.276 331.494C303.276 331.785 303.038 332.021 302.751 332.021L294.846 332.022C294.554 332.021 294.32 331.784 294.32 331.494V323.59C294.32 323.301 294.554 323.066 294.846 323.066H302.751C303.038 323.066 303.276 323.301 303.276 323.59V331.494Z" fill="#F1F1F1"/>
<path fill-rule="evenodd" clip-rule="evenodd" d="M175.115 331.181C175.115 331.471 174.881 331.707 174.588 331.707H161.959C161.67 331.707 161.434 331.472 161.434 331.181V323.91C161.434 323.617 161.67 323.384 161.959 323.384H174.588C174.881 323.384 175.115 323.617 175.115 323.91V331.181Z" fill="#F1F1F1"/>
<path fill-rule="evenodd" clip-rule="evenodd" d="M177.448 340.703C177.448 340.99 177.212 341.227 176.923 341.227H161.959C161.67 341.227 161.434 340.991 161.434 340.703V333.492C161.434 333.2 161.67 332.968 161.959 332.968L176.923 332.965C177.214 332.965 177.448 333.201 177.448 333.492V340.703Z" fill="#F1F1F1"/>
<path fill-rule="evenodd" clip-rule="evenodd" d="M182.493 350.219C182.493 350.514 182.257 350.747 181.967 350.747H161.959C161.67 350.747 161.434 350.513 161.434 350.219V342.954C161.434 342.663 161.67 342.429 161.959 342.429H181.967C182.258 342.429 182.493 342.663 182.493 342.954V350.219Z" fill="#F1F1F1"/>
<path fill-rule="evenodd" clip-rule="evenodd" d="M303.362 321.59C303.362 321.881 303.126 322.112 302.835 322.112H290.207C289.916 322.112 289.682 321.88 289.682 321.59V314.317C289.682 314.027 289.917 313.793 290.207 313.793H302.835C303.126 313.793 303.362 314.027 303.362 314.317V321.59Z" fill="#F1F1F1"/>
<path fill-rule="evenodd" clip-rule="evenodd" d="M303.362 340.7C303.362 340.987 303.126 341.226 302.838 341.226H287.874C287.583 341.226 287.348 340.987 287.348 340.7V333.491C287.348 333.201 287.583 332.965 287.874 332.965H302.835C303.126 332.965 303.362 333.201 303.362 333.491V340.7Z" fill="#F1F1F1"/>
<path fill-rule="evenodd" clip-rule="evenodd" d="M303.361 350.219C303.361 350.512 303.126 350.747 302.837 350.747H282.833C282.54 350.747 282.304 350.51 282.304 350.219V342.953C282.304 342.664 282.539 342.425 282.833 342.425H302.835C303.126 342.425 303.361 342.662 303.361 342.953V350.219Z" fill="#F1F1F1"/>
<path fill-rule="evenodd" clip-rule="evenodd" d="M170.135 361.131C170.135 361.422 169.901 361.656 169.61 361.656H161.958C161.669 361.656 161.433 361.42 161.433 361.131V352.597C161.433 352.31 161.669 352.071 161.958 352.071H169.61C169.901 352.071 170.135 352.31 170.135 352.597V361.131Z" fill="#F1F1F1"/>
<path fill-rule="evenodd" clip-rule="evenodd" d="M179.972 361.131C179.972 361.422 179.737 361.656 179.448 361.656H171.794C171.505 361.656 171.269 361.42 171.269 361.131V352.597C171.269 352.31 171.505 352.071 171.794 352.071H179.448C179.737 352.071 179.972 352.308 179.972 352.597V361.131Z" fill="#F1F1F1"/>
<path fill-rule="evenodd" clip-rule="evenodd" d="M189.809 361.131C189.809 361.422 189.575 361.656 189.284 361.656H181.633C181.34 361.656 181.109 361.42 181.109 361.131V352.599C181.109 352.306 181.34 352.071 181.633 352.071H189.284C189.576 352.071 189.809 352.308 189.809 352.599V361.131Z" fill="#F1F1F1"/>
<path fill-rule="evenodd" clip-rule="evenodd" d="M202.165 361.131C202.165 361.422 201.861 361.656 201.486 361.656H191.62C191.244 361.656 190.941 361.42 190.941 361.131V352.599C190.941 352.306 191.244 352.071 191.62 352.071H201.486C201.861 352.071 202.165 352.308 202.165 352.597V361.131Z" fill="#F1F1F1"/>
<path fill-rule="evenodd" clip-rule="evenodd" d="M251.785 361.131C251.785 361.419 251.551 361.656 251.259 361.653L203.827 361.656C203.534 361.656 203.297 361.42 203.297 361.131V352.599C203.297 352.306 203.535 352.071 203.827 352.071H251.259C251.551 352.071 251.785 352.308 251.785 352.597V361.131Z" fill="#F1F1F1"/>
<path fill-rule="evenodd" clip-rule="evenodd" d="M263.892 361.131C263.892 361.419 263.656 361.653 263.365 361.653H253.195C252.906 361.653 252.671 361.42 252.671 361.131V352.597C252.671 352.306 252.906 352.071 253.195 352.071H263.365C263.656 352.071 263.892 352.308 263.892 352.597V361.131Z" fill="#F1F1F1"/>
<path fill-rule="evenodd" clip-rule="evenodd" d="M273.857 361.131C273.857 361.419 273.619 361.653 273.328 361.653H265.616C265.328 361.653 265.092 361.42 265.092 361.131V352.597C265.092 352.306 265.326 352.071 265.616 352.071H273.328C273.62 352.071 273.857 352.308 273.857 352.597V361.131Z" fill="#F1F1F1"/>
<path fill-rule="evenodd" clip-rule="evenodd" d="M283.689 361.131C283.689 361.419 283.455 361.653 283.167 361.653H275.642C275.35 361.653 275.116 361.42 275.116 361.131V357.386C275.116 357.099 275.352 356.863 275.642 356.863H283.167C283.455 356.863 283.689 357.098 283.689 357.386V361.131Z" fill="#F1F1F1"/>
<path fill-rule="evenodd" clip-rule="evenodd" d="M293.527 361.131C293.527 361.419 293.291 361.653 292.997 361.653H285.479C285.186 361.653 284.952 361.42 284.952 361.131V357.386C284.952 357.099 285.188 356.863 285.479 356.863H292.997C293.292 356.863 293.527 357.096 293.527 357.386V361.131Z" fill="#F1F1F1"/>
<path fill-rule="evenodd" clip-rule="evenodd" d="M293.527 356.337C293.527 356.629 293.291 356.863 292.997 356.863H285.479C285.186 356.863 284.952 356.629 284.952 356.337V352.594C284.952 352.306 285.188 352.07 285.479 352.07H292.997C293.292 352.07 293.527 352.306 293.527 352.594V356.337Z" fill="#F1F1F1"/>
<path fill-rule="evenodd" clip-rule="evenodd" d="M303.362 361.131C303.362 361.419 303.126 361.653 302.838 361.653H295.314C295.026 361.653 294.79 361.42 294.79 361.131V357.386C294.79 357.096 295.026 356.863 295.314 356.863H302.838C303.126 356.863 303.362 357.096 303.362 357.386V361.131Z" fill="#F1F1F1"/>
<path fill-rule="evenodd" clip-rule="evenodd" d="M214.114 344.631C213.965 344.627 213.818 344.631 213.67 344.64C213.806 344.295 213.943 344.009 214.081 343.821C214.862 342.756 215.901 343.589 215.901 343.589C216.034 344.068 216.076 344.533 216.073 344.969C215.452 344.759 214.796 344.643 214.114 344.631Z" fill="#FAFDFF"/>
<path fill-rule="evenodd" clip-rule="evenodd" d="M305.462 367.045H159.354V368.249C159.354 368.555 159.585 368.801 159.878 368.801L304.935 368.797C305.23 368.797 305.462 368.553 305.462 368.248V367.045Z" fill="#898B8D"/>
<path fill-rule="evenodd" clip-rule="evenodd" d="M347.072 315.428C360.244 315.428 361.946 324.802 361.946 336.366C361.946 347.93 355.287 357.305 347.072 357.305C338.86 357.305 332.201 347.929 332.201 336.366C332.201 324.802 333.903 315.428 347.072 315.428Z" fill="#E6E7E8"/>
<path fill-rule="evenodd" clip-rule="evenodd" d="M361.939 335.495C361.768 346.85 355.178 355.98 347.072 355.98C338.967 355.98 332.378 346.85 332.206 335.495C332.206 335.495 332.206 335.499 332.206 335.501C332.206 335.789 332.202 336.076 332.202 336.365C332.202 347.93 338.861 357.303 347.073 357.303C355.288 357.303 361.947 347.929 361.947 336.365C361.947 336.076 361.944 335.787 361.941 335.501C361.939 335.499 361.939 335.495 361.939 335.495Z" fill="#D0D2D3"/>
<path d="M347.25 315.428H346.893V321.51H347.25V315.428Z" fill="#404041"/>
<path fill-rule="evenodd" clip-rule="evenodd" d="M347.075 329.274C348.053 329.274 348.856 327.284 348.856 324.844C348.856 322.402 348.055 320.414 347.075 320.414C346.092 320.414 345.291 322.402 345.291 324.844C345.291 327.284 346.092 329.274 347.075 329.274Z" fill="#404041"/>
<path fill-rule="evenodd" clip-rule="evenodd" d="M346.73 321.763H347.291C347.696 321.763 348.027 322.096 348.027 322.502V326.754C348.027 327.161 347.696 327.492 347.291 327.492H346.73C346.323 327.492 345.992 327.161 345.992 326.754V322.502C345.993 322.097 346.324 321.763 346.73 321.763Z" fill="#231F20"/>
<path fill-rule="evenodd" clip-rule="evenodd" d="M481.452 84.6933C483.211 85.0789 484.763 85.2445 486.542 85.2445C499.691 85.2445 510.357 74.5791 510.357 61.4295C510.357 48.2798 499.691 37.6157 486.542 37.6157C473.393 37.6157 462.728 48.2798 462.728 61.4295C462.728 69.4877 466.808 76.7075 472.937 80.9734C469.051 83.4563 454.654 90.6774 450.77 93.1591C471.473 87.9836 474.73 85.9341 481.452 84.6933Z" fill="#62ADA1"/>
<path fill-rule="evenodd" clip-rule="evenodd" d="M155.891 92.0774C161.447 84.2987 161.982 74.2724 158.142 66.2491C152.063 53.551 136.835 48.1802 124.135 54.2575C111.438 60.3361 106.069 75.565 112.146 88.2631C118.225 100.962 133.454 106.331 146.153 100.252C147.052 99.8212 147.786 99.4201 148.64 98.8871C156.19 100.281 163.743 101.673 171.293 103.069C155.891 92.0774 161.026 95.7404 155.891 92.0774Z" fill="#ACCE77"/>
<path fill-rule="evenodd" clip-rule="evenodd" d="M84.3252 223.02C84.3252 218.415 84.3252 213.813 84.3252 209.207C84.3252 206.667 86.3863 204.604 88.9275 204.604C103.753 204.604 118.575 204.604 133.401 204.604C146.466 200.342 159.533 196.079 172.597 191.818C165.934 196.079 159.269 200.342 152.605 204.604C156.761 204.604 160.916 204.604 165.072 204.604C167.614 204.604 169.674 206.667 169.674 209.207C169.674 213.813 169.674 218.415 169.674 223.02C169.674 225.56 167.614 227.622 165.072 227.622C139.69 227.622 114.309 227.622 88.9275 227.622C86.3863 227.622 84.3252 225.56 84.3252 223.02Z" fill="#F9AF56"/>
<path fill-rule="evenodd" clip-rule="evenodd" d="M411.293 41.6772C413.543 41.3149 415.468 40.6395 417.397 39.5798C426.562 34.5493 429.916 23.0338 424.885 13.868C419.854 4.70349 408.338 1.34977 399.173 6.38035C390.007 11.4122 386.654 22.9277 391.684 32.0922C394.361 36.9675 398.898 40.2125 403.91 41.4029C402.095 46.9044 400.277 52.4099 398.46 57.9114C411.293 41.6772 407.015 47.0882 411.293 41.6772Z" fill="#EE5378"/>
<path fill-rule="evenodd" clip-rule="evenodd" d="M275.253 39.2537C278.792 36.6052 281.227 33.201 282.654 29.3077C286.796 18.0058 280.989 5.47977 269.687 1.33679C258.385 -2.80619 245.859 3.00331 241.718 14.3053C237.577 25.606 243.382 38.132 254.684 42.2749C259.011 43.8599 263.401 43.9958 267.582 42.9271C273.279 46.6896 278.974 50.4535 284.671 54.2161C275.253 39.2537 278.391 44.2416 275.253 39.2537Z" fill="#8EA02B"/>
<path d="M250.239 17.0134C250.897 16.8931 251.811 16.8038 253.052 16.8038C254.4 16.8038 255.387 17.0884 256.031 17.6267C256.628 18.1209 257.019 18.9128 257.019 19.856C257.019 20.8148 256.72 21.6079 256.152 22.1462C255.418 22.8785 254.265 23.2227 252.964 23.2227C252.619 23.2227 252.306 23.2084 252.067 23.1619V26.9646H250.24L250.239 17.0134ZM252.066 21.7127C252.29 21.7735 252.59 21.7878 252.962 21.7878C254.34 21.7878 255.177 21.115 255.177 19.9324C255.177 18.8093 254.399 18.2115 253.127 18.2115C252.618 18.2115 252.26 18.2555 252.066 18.3021V21.7127Z" fill="white"/>
<path d="M260.442 16.8788V20.9196H264.708V16.8788H266.549V26.9659H264.708V22.5214H260.442V26.9659H258.601V16.8788H260.442Z" fill="white"/>
<path d="M268.653 17.0134C269.311 16.8931 270.224 16.8038 271.466 16.8038C272.814 16.8038 273.8 17.0884 274.444 17.6267C275.042 18.1209 275.433 18.9128 275.433 19.856C275.433 20.8148 275.133 21.6079 274.565 22.1462C273.831 22.8785 272.679 23.2227 271.378 23.2227C271.032 23.2227 270.718 23.2084 270.478 23.1619V26.9646H268.653V17.0134ZM270.478 21.7127C270.705 21.7735 271.004 21.7878 271.378 21.7878C272.754 21.7878 273.593 21.115 273.593 19.9324C273.593 18.8093 272.814 18.2115 271.542 18.2115C271.032 18.2115 270.674 18.2555 270.478 18.3021V21.7127Z" fill="white"/>
<path d="M470.569 56.6344V60.6751H474.833V56.6344H476.676V66.7214H474.833V62.277H470.569V66.7214H468.726V56.6344H470.569Z" fill="white"/>
<path d="M480.71 58.1766H477.839V56.6343H485.456V58.1766H482.551V66.7214H480.71V58.1766Z" fill="white"/>
<path d="M495.105 62.6056C495.044 61.3039 494.971 59.7319 494.985 58.3707H494.94C494.612 59.5986 494.192 60.9598 493.743 62.2316L492.276 66.6024H490.855L489.51 62.2925C489.12 61.0051 488.762 59.6284 488.492 58.372H488.462C488.415 59.6892 488.356 61.2897 488.283 62.6677L488.057 66.724H486.336L487.011 56.6369H489.435L490.753 60.6932C491.11 61.8745 491.426 63.0727 491.68 64.1958H491.726C491.994 63.1024 492.34 61.8603 492.729 60.6777L494.121 56.6369H496.515L497.098 66.724H495.301L495.105 62.6056Z" fill="white"/>
<path d="M498.96 56.6343H500.801V65.1791H504.948V66.7214H498.96V56.6343Z" fill="white"/>
<path d="M403.485 26.1352C403.05 26.359 402.092 26.5842 400.881 26.5842C397.677 26.5842 395.731 24.5787 395.731 21.5109C395.731 18.1882 398.037 16.1827 401.119 16.1827C402.332 16.1827 403.2 16.4376 403.576 16.6317L403.169 18.0977C402.692 17.8894 402.032 17.7095 401.195 17.7095C399.144 17.7095 397.664 18.9956 397.664 21.4203C397.664 23.6354 398.966 25.0587 401.181 25.0587C401.927 25.0587 402.705 24.9086 403.186 24.6848L403.485 26.1352Z" fill="white"/>
<path d="M405.008 24.4299C405.605 24.774 406.504 25.0729 407.448 25.0729C408.628 25.0729 409.288 24.5205 409.288 23.6963C409.288 22.9329 408.78 22.4839 407.491 22.0207C405.83 21.4216 404.767 20.5379 404.767 19.0862C404.767 17.4391 406.145 16.1827 408.328 16.1827C409.423 16.1827 410.23 16.4221 410.754 16.6912L410.307 18.174C409.947 17.9786 409.242 17.694 408.298 17.694C407.131 17.694 406.623 18.3228 406.623 18.9063C406.623 19.6852 407.206 20.045 408.555 20.5677C410.305 21.2263 411.157 22.1087 411.157 23.5604C411.157 25.1777 409.93 26.5829 407.324 26.5829C406.263 26.5829 405.154 26.2827 404.601 25.9541L405.008 24.4299Z" fill="white"/>
<path d="M412.772 24.4299C413.371 24.774 414.268 25.0729 415.211 25.0729C416.392 25.0729 417.052 24.5205 417.052 23.6963C417.052 22.9329 416.544 22.4839 415.258 22.0207C413.596 21.4216 412.533 20.5379 412.533 19.0862C412.533 17.4391 413.911 16.1827 416.096 16.1827C417.188 16.1827 417.997 16.4221 418.52 16.6912L418.071 18.174C417.712 17.9786 417.01 17.694 416.066 17.694C414.899 17.694 414.389 18.3228 414.389 18.9063C414.389 19.6852 414.972 20.045 416.32 20.5677C418.071 21.2263 418.925 22.1087 418.925 23.5604C418.925 25.1777 417.697 26.5829 415.093 26.5829C414.029 26.5829 412.921 26.2827 412.367 25.9541L412.772 24.4299Z" fill="white"/>
<path d="M128.494 83.5431L127.305 81.3591C126.833 80.5116 126.522 79.9241 126.212 79.2889H126.163C125.903 79.9241 125.609 80.5116 125.169 81.3591L124.076 83.5431H121.776L125.037 77.9846L121.907 72.5555H124.205L125.395 74.8211C125.754 75.5056 126.015 76.0438 126.308 76.6636H126.34C126.635 75.9778 126.863 75.4887 127.204 74.8211L128.379 72.5555H130.677L127.466 77.9186L130.808 83.5431H128.494Z" fill="white"/>
<path d="M141.567 79.0599C141.501 77.6405 141.42 75.93 141.437 74.4446H141.386C141.028 75.7825 140.572 77.2653 140.083 78.651L138.484 83.4124H136.937L135.468 78.717C135.044 77.3144 134.654 75.8148 134.36 74.4446H134.328C134.278 75.8795 134.213 77.625 134.13 79.1246L133.886 83.5418H132.011L132.744 72.5543H135.388L136.821 76.9728C137.212 78.2603 137.556 79.5658 137.832 80.7872H137.881C138.175 79.5968 138.55 78.2434 138.973 76.956L140.491 72.5543H143.101L143.737 83.5418H141.779L141.567 79.0599Z" fill="white"/>
<path d="M145.767 72.5555H147.773V81.8649H152.289V83.5444H145.767V72.5555Z" fill="white"/>
<path d="M93.1127 211.919H94.7947V217.896C94.7947 220.441 93.5642 221.289 91.7308 221.289C91.265 221.289 90.6763 221.207 90.3218 221.069L90.5288 219.715C90.8005 219.798 91.1706 219.88 91.5678 219.88C92.5239 219.88 93.1127 219.441 93.1127 217.841V211.919Z" fill="white"/>
<path d="M98.4888 218.526L97.6944 221.139H95.958L98.9132 211.919H101.061L104.056 221.139H102.25L101.416 218.526H98.4888ZM101.13 217.254L100.405 214.984C100.228 214.422 100.076 213.793 99.9392 213.26H99.9121C99.7762 213.793 99.6391 214.436 99.4747 214.984L98.7631 217.254H101.13Z" fill="white"/>
<path d="M106.668 221.14L103.686 211.92H105.519L106.777 216.107C107.133 217.269 107.434 218.349 107.68 219.471H107.707C107.953 218.376 108.282 217.256 108.651 216.134L109.992 211.92H111.783L108.596 221.14H106.668Z" fill="white"/>
<path d="M113.875 218.526L113.083 221.139H111.346L114.301 211.919H116.449L119.444 221.139H117.638L116.803 218.526H113.875ZM116.516 217.254L115.79 214.984C115.613 214.422 115.462 213.793 115.326 213.26H115.298C115.161 213.793 115.024 214.436 114.86 214.984L114.148 217.254H116.516Z" fill="white"/>
<path d="M120.687 219.307C121.234 219.621 122.056 219.895 122.916 219.895C123.998 219.895 124.599 219.388 124.599 218.636C124.599 217.938 124.134 217.529 122.958 217.104C121.44 216.557 120.468 215.751 120.468 214.423C120.468 212.919 121.726 211.77 123.724 211.77C124.722 211.77 125.461 211.99 125.94 212.237L125.531 213.59C125.201 213.413 124.558 213.152 123.698 213.152C122.631 213.152 122.167 213.726 122.167 214.259C122.167 214.972 122.699 215.299 123.929 215.779C125.531 216.381 126.31 217.187 126.31 218.513C126.31 219.991 125.188 221.276 122.807 221.276C121.836 221.276 120.825 221.004 120.319 220.701L120.687 219.307Z" fill="white"/>
<path d="M134.435 220.866C134.038 221.07 133.163 221.275 132.055 221.275C129.127 221.275 127.35 219.442 127.35 216.639C127.35 213.603 129.457 211.768 132.273 211.768C133.382 211.768 134.175 212.001 134.517 212.18L134.148 213.52C133.711 213.329 133.109 213.163 132.343 213.163C130.468 213.163 129.116 214.339 129.116 216.556C129.116 218.581 130.305 219.881 132.329 219.881C133.013 219.881 133.725 219.744 134.164 219.537L134.435 220.866Z" fill="white"/>
<path d="M135.87 212.043C136.5 211.933 137.443 211.851 138.413 211.851C139.74 211.851 140.644 212.07 141.259 212.589C141.764 213.013 142.05 213.656 142.05 214.436C142.05 215.627 141.244 216.433 140.381 216.749V216.789C141.037 217.034 141.435 217.678 141.667 218.566C141.953 219.715 142.201 220.783 142.393 221.139H140.656C140.518 220.866 140.299 220.113 140.04 218.964C139.78 217.759 139.341 217.377 138.384 217.35H137.535V221.14H135.866V212.043H135.87ZM137.539 216.118H138.536C139.671 216.118 140.384 215.517 140.384 214.602C140.384 213.589 139.671 213.123 138.578 213.123C138.045 213.123 137.703 213.165 137.539 213.206V216.118Z" fill="white"/>
<path d="M145.336 211.919V221.139H143.653V211.919H145.336Z" fill="white"/>
<path d="M147.264 212.043C147.866 211.933 148.7 211.851 149.836 211.851C151.067 211.851 151.97 212.11 152.559 212.603C153.106 213.053 153.461 213.778 153.461 214.641C153.461 215.515 153.188 216.241 152.669 216.733C151.998 217.403 150.945 217.718 149.755 217.718C149.44 217.718 149.153 217.705 148.933 217.663V221.137H147.265L147.264 212.043ZM148.933 216.338C149.14 216.394 149.413 216.407 149.755 216.407C151.014 216.407 151.778 215.792 151.778 214.711C151.778 213.685 151.067 213.137 149.905 213.137C149.439 213.137 149.112 213.179 148.933 213.22V216.338Z" fill="white"/>
<path d="M156.675 213.329H154.047V211.919H161.011V213.329H158.357V221.139H156.675V213.329Z" fill="white"/>
<path fill-rule="evenodd" clip-rule="evenodd" d="M455.136 201.022C455.356 202.66 455.699 204.051 456.256 205.582C460.374 216.922 472.909 222.782 484.247 218.665C495.587 214.549 501.444 202.011 497.328 190.673C493.213 179.334 480.676 173.476 469.337 177.592C462.387 180.116 457.44 185.892 455.68 192.514C452.324 189.941 448.967 187.369 445.612 184.798C455.137 201.022 451.961 195.613 455.136 201.022Z" fill="#B55FA9"/>
<path d="M469.158 204.159C468.677 204.408 467.616 204.655 466.272 204.655C462.724 204.655 460.567 202.434 460.567 199.034C460.567 195.353 463.121 193.129 466.537 193.129C467.879 193.129 468.841 193.412 469.255 193.627L468.806 195.252C468.276 195.019 467.546 194.82 466.617 194.82C464.345 194.82 462.704 196.247 462.704 198.932C462.704 201.388 464.148 202.961 466.603 202.961C467.432 202.961 468.294 202.797 468.823 202.548L469.158 204.159Z" fill="white"/>
<path d="M480.33 199.931C480.263 198.487 480.183 196.747 480.197 195.237H480.146C479.784 196.597 479.318 198.104 478.82 199.516L477.194 204.357H475.62L474.129 199.582C473.698 198.156 473.3 196.63 473.002 195.237H472.969C472.919 196.696 472.853 198.47 472.771 199.997L472.519 204.49H470.612L471.361 193.313H474.047L475.508 197.805C475.904 199.114 476.253 200.442 476.535 201.687H476.586C476.882 200.474 477.265 199.099 477.696 197.788L479.238 193.311H481.89L482.537 204.489H480.546L480.33 199.931Z" fill="white"/>
<path d="M484.552 202.268C485.217 202.649 486.211 202.982 487.255 202.982C488.565 202.982 489.295 202.367 489.295 201.455C489.295 200.609 488.732 200.112 487.307 199.598C485.465 198.933 484.288 197.954 484.288 196.347C484.288 194.524 485.813 193.13 488.234 193.13C489.443 193.13 490.339 193.395 490.919 193.694L490.422 195.335C490.025 195.12 489.246 194.806 488.202 194.806C486.908 194.806 486.345 195.502 486.345 196.149C486.345 197.012 486.992 197.409 488.483 197.989C490.422 198.718 491.369 199.698 491.369 201.305C491.369 203.096 490.011 204.655 487.124 204.655C485.947 204.655 484.72 204.322 484.105 203.959L484.552 202.268Z" fill="white"/>
<path fill-rule="evenodd" clip-rule="evenodd" d="M376.355 260.322H504.223C507.033 260.322 509.334 262.62 509.334 265.431V344.139C509.334 346.95 507.033 349.247 504.223 349.247H376.355C373.546 349.247 371.249 346.95 371.249 344.139V265.431C371.249 262.62 373.546 260.322 376.355 260.322Z" fill="black"/>
<path d="M491.98 272.474H371.249V336.542H491.98V272.474Z" fill="#D2D2D2"/>
<path d="M400.014 272.474H371.249V336.542H400.014V272.474Z" fill="#6F7072"/>
<path fill-rule="evenodd" clip-rule="evenodd" d="M385.725 313.967C390.63 313.967 394.63 309.966 394.63 305.06C394.63 300.156 390.63 296.154 385.725 296.154C380.818 296.154 376.819 300.155 376.819 305.06C376.819 309.966 380.818 313.967 385.725 313.967Z" fill="#5A5B5E"/>
<path fill-rule="evenodd" clip-rule="evenodd" d="M382.858 274.821H388.591C389.084 274.821 389.486 275.224 389.486 275.719V278.684C389.486 279.177 389.084 279.581 388.591 279.581H382.858C382.365 279.581 381.962 279.177 381.962 278.684V275.719C381.962 275.224 382.365 274.821 382.858 274.821Z" fill="#5A5B5E"/>
<path fill-rule="evenodd" clip-rule="evenodd" d="M382.858 280.827H388.591C389.084 280.827 389.486 281.228 389.486 281.724V284.694C389.486 285.187 389.084 285.591 388.591 285.591H382.858C382.365 285.591 381.962 285.187 381.962 284.694V281.724C381.962 281.228 382.365 280.827 382.858 280.827Z" fill="#5A5B5E"/>
<path fill-rule="evenodd" clip-rule="evenodd" d="M382.858 286.833H388.591C389.084 286.833 389.486 287.235 389.486 287.73V290.699C389.486 291.192 389.084 291.596 388.591 291.596H382.858C382.365 291.596 381.962 291.192 381.962 290.699V287.73C381.962 287.237 382.365 286.833 382.858 286.833Z" fill="#5A5B5E"/>
<path fill-rule="evenodd" clip-rule="evenodd" d="M382.858 317.936H388.591C389.084 317.936 389.486 318.34 389.486 318.833V321.805C389.486 322.298 389.084 322.702 388.591 322.702H382.858C382.365 322.702 381.962 322.298 381.962 321.805V318.833C381.962 318.339 382.365 317.936 382.858 317.936Z" fill="#5A5B5E"/>
<path fill-rule="evenodd" clip-rule="evenodd" d="M382.858 324.185H388.591C389.084 324.185 389.486 324.59 389.486 325.081V328.053C389.486 328.546 389.084 328.95 388.591 328.95H382.858C382.365 328.95 381.962 328.546 381.962 328.053V325.081C381.962 324.59 382.365 324.185 382.858 324.185Z" fill="#5A5B5E"/>
<path fill-rule="evenodd" clip-rule="evenodd" d="M382.858 330.952H388.591C389.084 330.952 389.486 331.355 389.486 331.848V334.818C389.486 335.311 389.084 335.716 388.591 335.716H382.858C382.365 335.716 381.962 335.311 381.962 334.818V331.848C381.962 331.355 382.365 330.952 382.858 330.952Z" fill="#5A5B5E"/>
<path fill-rule="evenodd" clip-rule="evenodd" d="M385.725 309.203C387.949 309.203 389.763 307.389 389.763 305.163C389.763 302.939 387.948 301.125 385.725 301.125C383.498 301.125 381.686 302.939 381.686 305.163C381.686 307.389 383.498 309.203 385.725 309.203Z" fill="#434143"/>
<path fill-rule="evenodd" clip-rule="evenodd" d="M467.62 370.843C468.276 370.364 469.462 370.864 470.266 371.959C471.068 373.061 471.187 374.34 470.534 374.819C469.876 375.297 468.693 374.797 467.885 373.699C467.084 372.601 466.967 371.323 467.62 370.843Z" fill="#434143"/>
<path fill-rule="evenodd" clip-rule="evenodd" d="M427.273 315.839C427.08 315.977 427.036 316.25 427.177 316.442L428.515 318.268C428.655 318.46 428.927 318.503 429.121 318.362C429.312 318.221 429.356 317.952 429.214 317.76L427.876 315.933C427.733 315.739 427.462 315.699 427.273 315.839Z" fill="#434143"/>
<path fill-rule="evenodd" clip-rule="evenodd" d="M429.231 316.862C430.097 317.472 433.1 319.596 433.33 319.826C433.598 320.09 434.059 320.481 434.817 321.401C435.578 322.32 435.434 322.717 439.824 328.475C444.213 334.231 467.004 365.994 468.441 367.958C469.873 369.915 470.318 370.084 470.437 371.038C470.555 371.991 470.428 372.06 470.086 372.338C469.945 372.455 469.586 372.747 469.174 373.068C468.739 373.363 468.357 373.619 468.201 373.717C467.833 373.963 467.734 374.066 466.859 373.662C465.987 373.259 465.955 372.788 464.524 370.828C463.085 368.868 439.693 337.546 435.528 331.621C431.366 325.698 430.945 325.712 430.297 324.713C429.652 323.709 429.417 323.155 429.247 322.822C429.098 322.533 427.98 319.028 427.658 318.019L429.231 316.862Z" fill="#6F7072"/>
<path fill-rule="evenodd" clip-rule="evenodd" d="M437.007 328.189L436.102 328.852C435.836 329.049 435.774 329.428 435.973 329.699L445.409 342.587C445.608 342.857 445.989 342.919 446.259 342.72L447.162 342.058C447.433 341.86 447.49 341.479 447.297 341.209L437.859 328.318C437.657 328.049 437.278 327.991 437.007 328.189Z" fill="#5A5B5E"/>
<path fill-rule="evenodd" clip-rule="evenodd" d="M435.973 329.699C435.774 329.428 435.836 329.049 436.102 328.852L436.554 328.517L446.709 342.389L446.259 342.719C445.989 342.917 445.608 342.856 445.409 342.586L435.973 329.699Z" fill="#424346"/>
<path fill-rule="evenodd" clip-rule="evenodd" d="M436.101 328.852C435.835 329.049 435.773 329.428 435.972 329.699L445.408 342.587C445.607 342.857 445.988 342.919 446.258 342.72L446.708 342.39L469.171 373.068C468.737 373.363 468.354 373.619 468.198 373.717C467.83 373.963 467.731 374.065 466.857 373.662C465.984 373.259 465.952 372.788 464.521 370.828C463.082 368.868 439.69 337.546 435.525 331.621C431.363 325.698 430.943 325.712 430.294 324.713C429.649 323.709 429.414 323.155 429.244 322.822C429.095 322.533 427.977 319.028 427.655 318.019L428.093 317.698L428.447 317.443L429.121 318.363L436.554 328.519L436.101 328.852Z" fill="#5B5D5D"/>
<path fill-rule="evenodd" clip-rule="evenodd" d="M428.445 317.442L428.092 317.697L427.176 316.443C427.035 316.251 427.079 315.978 427.272 315.84L428.445 317.442Z" fill="#3F4140"/>
<path d="M105.158 265.189L93.2646 271.456L120.137 322.451L132.03 316.184L105.158 265.189Z" fill="#E7E6E6"/>
<path d="M122.642 300.006L112.104 305.555L117.653 316.094L128.191 310.545L122.642 300.006Z" fill="#C63F4B"/>
<path d="M116.709 288.771L106.172 294.322L111.723 304.858L122.26 299.306L116.709 288.771Z" fill="#B92226"/>
<path d="M110.787 277.525L100.251 283.079L105.805 293.615L116.341 288.062L110.787 277.525Z" fill="#86171A"/>
<path d="M104.854 266.285L94.3174 271.836L99.8693 282.374L110.406 276.823L104.854 266.285Z" fill="#401314"/>
<path d="M122.699 261.809L109.426 263.942L118.574 320.852L131.847 318.719L122.699 261.809Z" fill="#E7E6E6"/>
<path d="M128.11 300.421L116.352 302.311L118.242 314.07L130.001 312.179L128.11 300.421Z" fill="#F7AFAC"/>
<path d="M126.106 287.87L114.347 289.762L116.239 301.522L127.998 299.63L126.106 287.87Z" fill="#F48780"/>
<path d="M124.087 275.317L112.328 277.207L114.219 288.968L125.978 287.078L124.087 275.317Z" fill="#F05F55"/>
<path d="M122.049 262.777L110.291 264.667L112.181 276.426L123.939 274.536L122.049 262.777Z" fill="#ED3725"/>
<path d="M125.82 261.854L117.451 318.884L130.753 320.836L139.122 263.807L125.82 261.854Z" fill="#E7E6E6"/>
<path d="M120.948 300.542L119.223 312.325L131.006 314.051L132.732 302.267L120.948 300.542Z" fill="#F9D1A0"/>
<path d="M122.746 287.968L121.021 299.753L132.803 301.479L134.529 289.694L122.746 287.968Z" fill="#F8BC70"/>
<path d="M124.591 275.368L122.864 287.152L134.648 288.879L136.375 277.095L124.591 275.368Z" fill="#F9A640"/>
<path d="M126.473 262.804L124.747 274.59L136.532 276.316L138.258 264.53L126.473 262.804Z" fill="#F29022"/>
<path d="M140.907 264.356L117.286 316.937L129.547 322.445L153.169 269.864L140.907 264.356Z" fill="#E7E6E6"/>
<path d="M125.629 300.23L120.746 311.093L131.61 315.977L136.494 305.114L125.629 300.23Z" fill="#92D4D3"/>
<path d="M130.838 288.637L125.955 299.501L136.818 304.384L141.701 293.521L130.838 288.637Z" fill="#62C5BE"/>
<path d="M136.05 277.049L131.169 287.913L142.035 292.795L146.915 281.93L136.05 277.049Z" fill="#0CB1AC"/>
<path d="M141.257 265.463L136.374 276.327L147.238 281.21L152.122 270.347L141.257 265.463Z" fill="#00A498"/>
<path d="M154.918 271.041L117.267 314.687L127.446 323.468L165.097 279.822L154.918 271.041Z" fill="#E7E6E6"/>
<path d="M130.043 301.023L122.262 310.04L131.28 317.822L139.061 308.805L130.043 301.023Z" fill="#9EC6E2"/>
<path d="M138.347 291.405L130.566 300.422L139.584 308.204L147.365 299.186L138.347 291.405Z" fill="#71A7D3"/>
<path d="M146.654 281.788L138.875 290.806L147.892 298.585L155.672 289.567L146.654 281.788Z" fill="#378BC5"/>
<path d="M154.951 272.17L147.17 281.188L156.187 288.968L163.967 279.951L154.951 272.17Z" fill="#006FB7"/>
<path fill-rule="evenodd" clip-rule="evenodd" d="M124.511 314.855C125.16 314.901 125.649 315.461 125.604 316.109C125.561 316.759 125 317.249 124.349 317.205C123.702 317.161 123.212 316.598 123.257 315.951C123.3 315.302 123.86 314.811 124.511 314.855Z" fill="#59595C"/>
<path fill-rule="evenodd" clip-rule="evenodd" d="M124.465 315.523C124.733 315.538 124.939 315.774 124.918 316.04L124.227 326.151C124.208 326.417 123.972 326.622 123.706 326.605C123.438 326.586 123.231 326.351 123.25 326.085L123.943 315.974C123.962 315.708 124.197 315.505 124.465 315.523Z" fill="#BBBCBE"/>
<path fill-rule="evenodd" clip-rule="evenodd" d="M480.371 153.551L472.298 152.972C471.964 152.948 471.678 153.151 471.658 153.428L471.633 153.762C471.612 154.038 471.869 154.284 472.204 154.304L480.276 154.886C480.609 154.91 480.896 154.703 480.914 154.428L480.939 154.094C480.959 153.816 480.704 153.573 480.371 153.551Z" fill="white"/>
<path fill-rule="evenodd" clip-rule="evenodd" d="M480.262 155.062L472.19 154.48C471.856 154.455 471.57 154.662 471.548 154.942L471.525 155.272C471.504 155.551 471.76 155.793 472.094 155.815L480.166 156.396C480.5 156.42 480.789 156.216 480.809 155.939L480.83 155.604C480.851 155.328 480.595 155.084 480.262 155.062Z" fill="white"/>
<path fill-rule="evenodd" clip-rule="evenodd" d="M480.152 156.571L472.081 155.991C471.747 155.969 471.459 156.171 471.438 156.45L471.415 156.783C471.394 157.06 471.652 157.303 471.984 157.329L480.057 157.906C480.39 157.93 480.679 157.729 480.7 157.452L480.723 157.119C480.744 156.838 480.485 156.595 480.152 156.571Z" fill="white"/>
<path fill-rule="evenodd" clip-rule="evenodd" d="M472.98 157.575L479.034 158.01C478.963 159.011 477.302 159.562 475.888 159.464C474.475 159.36 472.909 158.576 472.98 157.575Z" fill="white"/>
<path fill-rule="evenodd" clip-rule="evenodd" d="M475.501 145.102C474.841 144.95 474.414 144.124 474.758 143.077C474.853 142.793 475.087 142.665 475.265 142.929C475.503 143.28 475.516 143.738 475.524 144.169C475.528 144.479 475.52 144.79 475.502 145.099H475.5L475.501 145.102ZM476.761 144.607C476.643 144.529 476.542 144.435 476.466 144.322C476.15 143.847 476.497 142.902 477.087 142.704C477.237 142.652 477.587 142.616 477.609 142.837C477.647 143.227 477.427 143.629 477.233 143.964C477.085 144.226 476.928 144.438 476.765 144.605L476.762 144.601L476.761 144.607ZM478.466 144.886C478.545 144.389 478.685 143.902 478.95 143.496C479.173 143.157 479.544 142.876 479.948 142.868C480.058 142.867 480.225 142.862 480.218 143.003C480.213 143.135 480.186 143.266 480.142 143.395C480.041 143.688 479.885 143.976 479.684 144.224C479.349 144.629 478.94 144.831 478.472 144.891L478.473 144.883L478.466 144.886ZM478.186 145.32C478.138 145.873 478.142 146.427 478.156 146.96C478.181 147.953 478.267 148.941 478.397 149.915C478.426 150.131 478.456 150.343 478.49 150.558C478.576 151.13 478.664 151.712 478.8 152.275L478.979 152.287C478.811 151.597 478.712 150.854 478.619 150.153C478.606 150.061 478.595 149.965 478.583 149.873C478.438 148.748 478.341 147.603 478.364 146.45C478.371 146.097 478.376 145.71 478.412 145.316L478.417 145.318V145.31C478.72 145.293 479.024 145.232 479.279 145.084C479.768 144.804 480.134 144.285 480.318 143.757C480.451 143.377 480.52 142.793 480.156 142.555C479.844 142.355 479.335 142.557 479.049 142.804C478.768 143.046 478.601 143.402 478.488 143.742C478.362 144.118 478.279 144.51 478.226 144.905L478.221 144.904V144.914L478.173 144.915C477.847 144.921 477.455 144.891 477.113 144.777L477.116 144.774L477.112 144.773C477.46 144.365 477.733 143.856 477.801 143.376C477.858 142.988 477.782 142.466 477.393 142.313C477.002 142.157 476.55 142.48 476.354 142.848C476.066 143.385 476.052 143.998 476.335 144.482C476.401 144.593 476.482 144.689 476.571 144.776L476.568 144.778L476.571 144.782C476.285 145.018 475.994 145.124 475.729 145.128V145.125L475.727 145.124C475.761 144.46 475.784 143.744 475.564 143.143C475.48 142.922 475.181 142.215 474.81 142.405C474.338 142.645 474.452 143.645 474.511 144.016C474.6 144.536 474.801 145.169 475.295 145.41C475.353 145.441 475.413 145.461 475.474 145.48L475.472 145.482H475.475C475.43 146.024 475.356 146.566 475.255 147.107C475.022 148.339 474.684 149.558 474.378 150.781C474.282 151.165 474.189 151.549 474.104 151.935L474.371 151.954C474.468 151.54 474.571 151.127 474.678 150.716C474.923 149.761 475.18 148.806 475.374 147.843C475.532 147.071 475.655 146.297 475.709 145.523L475.711 145.521C476.025 145.543 476.351 145.436 476.632 145.228C476.718 145.161 476.805 145.09 476.888 145.009L476.891 145.01H476.893C477.132 145.144 477.411 145.229 477.686 145.269C477.839 145.291 478.008 145.307 478.182 145.311V145.319L478.186 145.32Z" fill="white"/>
<path fill-rule="evenodd" clip-rule="evenodd" d="M478.781 123.66C472.773 123.229 467.554 127.748 467.123 133.756C466.979 135.733 467.404 137.609 468.184 139.291C470.506 144.294 471.021 147.045 471.268 149.694C471.475 151.911 471.945 152.456 473.601 152.578C474.305 152.628 475.461 152.711 476.685 152.796C477.913 152.884 479.067 152.971 479.769 153.02C481.427 153.141 481.97 152.667 482.493 150.502C483.118 147.916 484.017 145.265 487.033 140.643C488.045 139.097 488.732 137.296 488.876 135.318C489.308 129.31 484.786 124.091 478.781 123.66ZM486.211 140.107C483.276 144.602 482.248 147.33 481.538 150.268C481.46 150.596 481.22 151.596 480.895 151.892C480.781 151.996 480.569 152.093 479.84 152.042L476.756 151.818L473.67 151.596C472.941 151.545 472.747 151.418 472.65 151.302C472.372 150.959 472.276 149.938 472.244 149.603C471.963 146.594 471.334 143.746 469.071 138.88C468.304 137.225 467.979 135.526 468.102 133.826C468.493 128.368 473.251 124.25 478.707 124.64C484.164 125.03 488.284 129.791 487.893 135.248C487.773 136.948 487.206 138.582 486.211 140.107Z" fill="white"/>
<path fill-rule="evenodd" clip-rule="evenodd" d="M472.43 131.152C471.986 131.467 469.868 133.214 471.757 136.697C471.892 136.945 471.798 137.254 471.551 137.388C471.463 137.435 471.367 137.454 471.274 137.447C471.107 137.437 470.948 137.341 470.862 137.182C468.568 132.942 471.276 130.729 471.842 130.324C472.071 130.164 472.391 130.218 472.55 130.447C472.713 130.674 472.66 130.992 472.43 131.152Z" fill="white"/>
<path fill-rule="evenodd" clip-rule="evenodd" d="M494.9 134.634C494.754 134.461 494.547 134.359 494.321 134.342L490.762 134.086C490.54 134.069 490.321 134.143 490.149 134.293C489.98 134.44 489.875 134.643 489.859 134.871C489.842 135.096 489.917 135.315 490.065 135.483C490.212 135.654 490.418 135.759 490.645 135.775L494.202 136.029C494.427 136.043 494.641 135.972 494.815 135.825C494.986 135.677 495.087 135.474 495.103 135.246C495.12 135.021 495.048 134.802 494.9 134.634Z" fill="white"/>
<path fill-rule="evenodd" clip-rule="evenodd" d="M489.924 129.749C490.071 129.758 490.221 129.73 490.356 129.666L493.561 128.095C493.627 128.064 493.687 128.022 493.742 127.976C493.742 127.973 493.742 127.973 493.742 127.973C494.032 127.724 494.116 127.307 493.948 126.964C493.849 126.761 493.675 126.608 493.464 126.536C493.249 126.462 493.019 126.478 492.817 126.576L489.612 128.144C489.546 128.178 489.486 128.217 489.432 128.264C489.141 128.515 489.057 128.931 489.224 129.276C489.357 129.548 489.625 129.729 489.924 129.749Z" fill="white"/>
<path fill-rule="evenodd" clip-rule="evenodd" d="M488.148 119.663C487.834 119.453 487.41 119.476 487.125 119.729C487.068 119.778 487.016 119.834 486.974 119.894L484.988 122.864C484.73 123.248 484.834 123.777 485.219 124.037C485.342 124.116 485.483 124.167 485.629 124.178C485.851 124.193 486.075 124.119 486.243 123.974C486.302 123.925 486.352 123.867 486.392 123.804L488.38 120.838C488.64 120.452 488.534 119.925 488.148 119.663Z" fill="white"/>
<path fill-rule="evenodd" clip-rule="evenodd" d="M462.828 125.54L465.776 127.55C465.899 127.632 466.043 127.686 466.193 127.694C466.414 127.712 466.636 127.634 466.805 127.492C466.859 127.444 466.91 127.387 466.951 127.328C467.213 126.941 467.113 126.416 466.729 126.15L463.78 124.142C463.464 123.924 463.041 123.947 462.753 124.202C462.698 124.247 462.648 124.301 462.608 124.364C462.344 124.749 462.443 125.277 462.828 125.54Z" fill="white"/>
<path fill-rule="evenodd" clip-rule="evenodd" d="M492.577 141.767L489.627 139.757C489.311 139.543 488.889 139.564 488.6 139.816C488.545 139.864 488.497 139.918 488.455 139.98C488.195 140.365 488.292 140.894 488.676 141.155L491.625 143.166C491.749 143.248 491.891 143.302 492.039 143.311C492.26 143.326 492.485 143.251 492.653 143.106C492.71 143.061 492.758 143.004 492.8 142.942C493.06 142.559 492.96 142.03 492.577 141.767Z" fill="white"/>
<path fill-rule="evenodd" clip-rule="evenodd" d="M465.647 138.297C465.432 138.223 465.201 138.239 465.001 138.337L461.796 139.905C461.731 139.939 461.668 139.979 461.614 140.03C461.325 140.277 461.241 140.693 461.408 141.039C461.542 141.309 461.806 141.49 462.108 141.512C462.255 141.521 462.405 141.492 462.539 141.427L465.744 139.856C465.808 139.828 465.872 139.785 465.925 139.737C466.216 139.486 466.3 139.071 466.132 138.728C466.033 138.525 465.859 138.372 465.647 138.297Z" fill="white"/>
<path fill-rule="evenodd" clip-rule="evenodd" d="M470.516 118.364C470.42 118.161 470.249 118.009 470.033 117.933C469.821 117.858 469.591 117.87 469.389 117.968C469.322 118.001 469.258 118.042 469.201 118.092C468.914 118.339 468.829 118.751 468.993 119.095L470.535 122.315C470.665 122.588 470.935 122.772 471.238 122.795C471.384 122.803 471.53 122.773 471.664 122.714C471.73 122.68 471.794 122.64 471.851 122.591C472.136 122.339 472.223 121.927 472.058 121.582L470.516 118.364Z" fill="white"/>
<path fill-rule="evenodd" clip-rule="evenodd" d="M479.07 116.614C478.843 116.596 478.629 116.669 478.454 116.816C478.285 116.964 478.184 117.171 478.166 117.397L477.91 120.957C477.877 121.424 478.228 121.829 478.695 121.864C478.918 121.878 479.134 121.808 479.308 121.657C479.478 121.512 479.581 121.303 479.597 121.081L479.853 117.516C479.887 117.053 479.534 116.647 479.07 116.614Z" fill="white"/>
<path fill-rule="evenodd" clip-rule="evenodd" d="M465.925 133.749C466.094 133.599 466.198 133.396 466.215 133.171C466.231 132.943 466.158 132.726 466.011 132.556C465.863 132.388 465.658 132.283 465.43 132.266L461.872 132.01C461.648 131.993 461.43 132.067 461.26 132.215C461.09 132.362 460.986 132.568 460.97 132.796C460.937 133.261 461.29 133.668 461.753 133.697L465.311 133.954C465.533 133.97 465.751 133.898 465.925 133.749Z" fill="white"/>
<path fill-rule="evenodd" clip-rule="evenodd" d="M328.213 36.5936C329.107 34.504 329.203 31.9654 328.265 29.5368C327.488 27.5274 326.14 25.9295 324.525 24.8996C322.727 23.4556 319.879 21.5756 316.968 16.4324C317.285 16.0753 317.401 15.5591 317.215 15.0803C316.955 14.3985 316.19 14.0582 315.506 14.3208C315.156 14.4554 314.898 14.7258 314.763 15.0454L320.033 28.6997C320.94 28.6531 321.808 29.1667 322.151 30.0531C322.575 31.1516 322.025 32.3924 320.927 32.8155C319.83 33.2373 318.593 32.69 318.168 31.5889C317.815 30.6728 318.145 29.6662 318.902 29.1085L313.649 15.5022C313.331 15.3417 312.946 15.3107 312.587 15.4504C311.906 15.7105 311.567 16.4726 311.828 17.1596C312.015 17.637 312.444 17.9411 312.924 17.9929C314.355 24.3419 313.183 27.706 312.927 30.0039C312.606 31.6756 312.745 33.4973 313.422 35.2635C314.353 37.6688 316.109 39.4789 318.154 40.4338L319.307 44.666C319.307 44.666 319.412 46.2381 320.778 45.7076C322.143 45.1771 327.38 43.1626 329.399 42.3798C331.16 41.6927 330.049 40.2048 330.049 40.2048L328.213 36.5936Z" fill="white"/>
<path fill-rule="evenodd" clip-rule="evenodd" d="M321.566 45.2909C321.412 44.8885 321.614 44.4344 322.016 44.2778L327.735 42.0692C328.137 41.9152 328.592 42.117 328.747 42.5194L330.391 46.7737C330.547 47.1761 330.343 47.6328 329.942 47.7868L324.222 49.9929C323.821 50.1494 323.364 49.9476 323.209 49.5478L321.566 45.2909Z" fill="white"/>
<path fill-rule="evenodd" clip-rule="evenodd" d="M165.347 140.53L122.32 186.283L113.271 177.772L156.297 132.021L165.347 140.53ZM121.193 181.509L120.783 181.942L123.591 184.583L124.001 184.149L121.193 181.509ZM160.645 139.556L160.237 139.992L163.046 142.632L163.453 142.197L160.645 139.556ZM161.012 141.879L160.603 142.315L162.059 143.681L162.467 143.245L161.012 141.879ZM160.026 142.927L159.616 143.36L161.072 144.729L161.481 144.293L160.026 142.927ZM159.039 143.976L158.632 144.412L160.086 145.778L160.492 145.344L159.039 143.976ZM158.053 145.027L157.644 145.46L159.099 146.826L159.505 146.392L158.053 145.027ZM155.714 144.8L155.305 145.236L158.113 147.876L158.522 147.44L155.714 144.8ZM156.081 147.123L155.673 147.559L157.128 148.925L157.537 148.489L156.081 147.123ZM155.095 148.171L154.687 148.607L156.141 149.973L156.55 149.537L155.095 148.171ZM154.108 149.223L153.699 149.656L155.152 151.024L155.56 150.59L154.108 149.223ZM153.122 150.268L152.713 150.704L154.168 152.07L154.575 151.634L153.122 150.268ZM150.783 150.044L150.374 150.48L153.183 153.12L153.592 152.684L150.783 150.044ZM151.149 152.367L150.74 152.803L152.195 154.17L152.605 153.734L151.149 152.367ZM150.163 153.415L149.753 153.848L151.207 155.217L151.616 154.781L150.163 153.415ZM149.177 154.464L148.768 154.9L150.223 156.266L150.63 155.83L149.177 154.464ZM148.191 155.512L147.781 155.946L149.237 157.314L149.646 156.878L148.191 155.512ZM145.852 155.291L145.442 155.724L148.25 158.362L148.658 157.929L145.852 155.291ZM146.217 157.611L145.808 158.044L147.264 159.413L147.67 158.978L146.217 157.611ZM145.231 158.659L144.823 159.095L146.279 160.461L146.685 160.026L145.231 158.659ZM144.245 159.708L143.837 160.144L145.292 161.51L145.699 161.074L144.245 159.708ZM143.259 160.757L142.852 161.193L144.306 162.558L144.712 162.126L143.259 160.757ZM140.92 160.532L140.511 160.968L143.32 163.608L143.727 163.172L140.92 160.532ZM141.286 162.855L140.877 163.288L142.333 164.657L142.74 164.221L141.286 162.855ZM140.3 163.903L139.892 164.339L141.348 165.705L141.756 165.269L140.3 163.903ZM139.314 164.952L138.905 165.388L140.36 166.755L140.767 166.318L139.314 164.952ZM138.327 166.001L137.918 166.435L139.374 167.804L139.781 167.368L138.327 166.001ZM135.988 165.776L135.579 166.212L138.388 168.852L138.794 168.417L135.988 165.776ZM136.355 168.098L135.945 168.531L137.4 169.9L137.808 169.464L136.355 168.098ZM135.369 169.147L134.96 169.583L136.415 170.948L136.823 170.515L135.369 169.147ZM134.383 170.196L133.973 170.63L135.429 171.999L135.836 171.564L134.383 170.196ZM133.396 171.244L132.987 171.678L134.443 173.047L134.85 172.612L133.396 171.244ZM131.057 171.02L130.648 171.456L133.455 174.095L133.863 173.661L131.057 171.02ZM131.424 173.342L131.014 173.775L132.468 175.141L132.876 174.708L131.424 173.342ZM130.438 174.391L130.028 174.824L131.482 176.191L131.891 175.757L130.438 174.391ZM129.451 175.44L129.041 175.874L130.495 177.24L130.903 176.807L129.451 175.44ZM128.465 176.487L128.056 176.923L129.51 178.289L129.918 177.856L128.465 176.487ZM126.126 176.264L125.715 176.698L128.524 179.337L128.933 178.904L126.126 176.264ZM126.493 178.586L126.083 179.019L127.537 180.385L127.946 179.952L126.493 178.586ZM125.506 179.635L125.096 180.068L126.551 181.435L126.96 181.001L125.506 179.635ZM124.519 180.682L124.11 181.118L125.564 182.484L125.973 182.051L124.519 180.682ZM123.534 181.732L123.124 182.166L124.578 183.532L124.987 183.099L123.534 181.732Z" fill="white"/>
<path fill-rule="evenodd" clip-rule="evenodd" d="M190.799 31.5681C191.512 26.1222 196.574 22.2846 202.005 22.9962C207.437 23.7078 211.271 28.7112 210.558 34.1571C209.836 39.6678 204.842 43.5196 199.41 42.8067C193.978 42.0951 190.077 37.0813 190.799 31.5681ZM187.656 18.1183C187.455 18.0911 187.27 18.2347 187.242 18.4366L187.082 19.658L185.616 19.4652C185.071 19.3941 184.534 19.8094 184.462 20.3541L181.778 40.8439C181.707 41.3886 182.129 41.8609 182.674 41.9307L215.809 46.2717C216.353 46.3415 216.814 45.987 216.885 45.4423L219.57 24.9525C219.641 24.4078 219.295 23.8786 218.751 23.8075L216.648 23.5319L216.756 22.7154C216.801 22.3738 216.563 22.0646 216.224 22.0206L212.151 21.4875C211.812 21.4423 211.505 21.6803 211.46 22.0232L211.354 22.8371L192.048 20.3088L192.208 19.0874C192.234 18.8869 192.092 18.7005 191.89 18.6734L187.656 18.1183ZM215.519 27.398C215.859 27.4419 216.168 27.209 216.212 26.8662L216.283 26.3202C216.329 25.9786 216.082 25.7405 215.741 25.6965L211.667 25.1621C211.329 25.1181 211.03 25.2851 210.986 25.6253L210.915 26.1714C210.87 26.5129 211.107 26.8183 211.444 26.8649L215.519 27.398Z" fill="white"/>
<path fill-rule="evenodd" clip-rule="evenodd" d="M201.755 23.8644C196.697 23.2006 192.122 26.7277 191.467 31.7195C190.802 36.7876 194.315 41.3718 199.374 42.0355C204.351 42.6864 208.929 39.1631 209.594 34.0937C210.249 29.0994 206.732 24.5165 201.755 23.8644ZM194.112 32.0649C194.572 28.5534 197.839 25.9682 201.417 26.4366C204.917 26.8959 207.484 30.2445 207.025 33.7573C206.555 37.3439 203.21 39.9213 199.71 39.4633C196.133 38.991 193.642 35.6503 194.112 32.0649Z" fill="white"/>
<path fill-rule="evenodd" clip-rule="evenodd" d="M201.29 27.1056C204.514 27.5287 206.786 30.4839 206.365 33.7082C205.943 36.9312 202.985 39.2046 199.761 38.7815C196.536 38.361 194.264 35.4019 194.687 32.1801C195.111 28.9558 198.066 26.6851 201.29 27.1056ZM200.994 29.3673C199.018 29.1098 197.209 30.502 196.949 32.4751C196.69 34.4496 198.083 36.2636 200.057 36.5198C202.031 36.7773 203.843 35.3876 204.1 33.4119C204.359 31.4374 202.968 29.626 200.994 29.3673Z" fill="white"/>
<path fill-rule="evenodd" clip-rule="evenodd" d="M355.901 18.1599C357.086 18.1237 358.184 18.6373 358.413 19.3735C358.641 20.1123 357.832 20.8123 356.549 20.8718C355.265 20.9327 354.084 20.3077 353.956 19.5495C353.828 18.79 354.717 18.1974 355.901 18.1599ZM370.907 16.7043C369.369 14.6962 367.363 13.3428 365.117 12.3569C362.997 11.4253 360.595 10.8676 358.258 10.8521C355.401 10.8327 352.226 11.7824 354.683 13.3389C355.969 14.1541 356.814 14.5785 356.494 15.4829C356.172 16.3886 354.982 16.4067 353.49 15.6174C350.452 14.0104 348.986 16.1622 350.001 19.1911C351.24 22.8968 356.267 28.1706 365.182 27.4163C368.991 27.0928 371.456 25.3732 372.312 23.1141C373.057 21.1462 372.447 18.7111 370.907 16.7043ZM360.961 21.1436C362.292 21.0789 363.62 21.6624 363.996 22.5267C364.373 23.3923 363.571 24.245 362.122 24.3407C360.674 24.4378 359.223 23.7119 358.966 22.814C358.706 21.9199 359.628 21.2096 360.961 21.1436ZM360.85 13.5304C361.102 14.0518 360.487 14.5202 359.432 14.5332C358.377 14.5474 357.342 14.0907 357.16 13.5589C356.977 13.0271 357.659 12.6273 358.644 12.6247C359.63 12.6234 360.6 13.009 360.85 13.5304ZM365.427 17.7148C365.074 17.0821 365.558 16.5904 366.464 16.5684C367.369 16.5464 368.403 16.9915 368.821 17.6113C369.239 18.2298 368.835 18.8042 367.866 18.8405C366.896 18.8754 365.782 18.3475 365.427 17.7148ZM366.183 19.9778C367.219 19.9338 368.367 20.4423 368.804 21.1733C369.244 21.9044 368.746 22.603 367.633 22.669C366.519 22.735 365.272 22.123 364.911 21.37C364.553 20.6183 365.147 20.0231 366.183 19.9778Z" fill="white"/>
<path fill-rule="evenodd" clip-rule="evenodd" d="M379.882 6.17727C379.686 6.75822 376.139 22.3882 375.247 26.3177C375.309 26.3009 375.373 26.2879 375.436 26.275C376.242 26.1184 377.158 26.2983 377.808 26.812C378.473 22.823 381.106 7.03899 381.146 6.4257C381.225 5.26251 380.253 5.06972 379.882 6.17727Z" fill="white"/>
<path fill-rule="evenodd" clip-rule="evenodd" d="M373.592 28.9779C373.329 30.7751 374.387 32.0315 372.648 33.9762C374.983 33.1261 378.163 31.294 378.128 28.463C378.102 26.3281 374.055 25.795 373.592 28.9779Z" fill="white"/>
<path fill-rule="evenodd" clip-rule="evenodd" d="M337.237 295.211L342.304 292.6L339.966 288.063L334.899 290.67L337.237 295.211ZM336.31 291.503L337.397 290.944L338.029 292.173L336.942 292.734L336.31 291.503ZM338.737 290.253L339.823 289.693L340.457 290.923L339.371 291.484L338.737 290.253Z" fill="#D0D1D2"/>
<path fill-rule="evenodd" clip-rule="evenodd" d="M343.996 291.554L352.054 307.2C352.601 308.264 352.359 309.489 351.514 309.924L345.986 312.769C345.143 313.204 344.003 312.692 343.455 311.628L335.398 295.98L343.996 291.554Z" fill="#59595C"/>
<path d="M342.235 292.449L337.169 295.059L345.382 310.995L350.447 308.385L342.235 292.449Z" fill="#808184"/>
</g>
<defs>
<clipPath id="clip0_152_23078">
<rect width="594.246" height="375" fill="white"/>
</clipPath>
</defs>
</svg>
