<svg width="684" height="375" viewBox="0 0 684 375" fill="none" xmlns="http://www.w3.org/2000/svg">
<g clip-path="url(#clip0_169_20898)">
<g clip-path="url(#clip1_169_20898)">
<path d="M511.807 254.692C512.109 252.208 512.283 249.686 512.283 247.121C512.283 212.861 484.51 185.088 450.251 185.088C441.628 185.088 433.417 186.851 425.955 190.031C410.351 150.595 371.888 122.697 326.901 122.697C284.626 122.697 248.104 147.33 230.906 183.024C222.841 178.414 213.508 175.765 203.552 175.765C173.055 175.765 148.333 200.488 148.333 230.986C148.333 244.863 153.463 257.535 161.916 267.236C130.254 268.386 104.934 294.394 104.934 326.336C104.934 339.509 109.241 351.675 116.521 361.507H265.337H471.648H565.751C569.459 352.315 571.505 342.275 571.505 331.754C571.504 294.671 546.134 263.518 511.807 254.692Z" fill="#FF8A30"/>
<path d="M520.403 210.546C519.519 210.546 519.131 210.157 519.131 209.274V207.366H514.292C513.408 207.366 513.02 206.977 513.02 206.095V201.962C513.02 201.079 513.408 200.69 514.292 200.69H523.793C524.393 200.69 524.711 200.231 524.711 199.666C524.711 198.854 524.393 198.536 523.793 198.464L518.495 197.723C515.175 197.229 513.021 195.816 513.021 191.86V188.151C513.021 184.477 515.281 182.359 519.131 182.005V180.027C519.131 179.145 519.519 178.755 520.403 178.755H525.524C526.408 178.755 526.796 179.145 526.796 180.027V181.935H530.221C531.105 181.935 531.493 182.324 531.493 183.206V187.409C531.493 188.292 531.104 188.681 530.221 188.681H521.992C521.391 188.681 521.039 189.105 521.039 189.739C521.039 190.375 521.391 190.799 521.992 190.87L527.254 191.576C530.574 192.07 532.764 193.483 532.764 197.439V201.147C532.764 204.751 530.538 206.905 526.795 207.293V209.271C526.795 210.153 526.406 210.543 525.523 210.543H520.403V210.546Z" fill="#FF6A81" stroke="#FF6A81" stroke-width="0.70394" stroke-miterlimit="10"/>
<path d="M144.853 178.5L146.778 179.821C147.569 178.668 148.161 177.398 148.537 176.048L146.29 175.423C146.391 175.06 146.475 174.69 146.537 174.31C146.694 173.353 146.71 172.406 146.607 171.487L148.928 171.229C148.773 169.839 148.392 168.492 147.793 167.224L145.681 168.221C145.114 167.021 144.323 165.938 143.351 165.034L144.939 163.322C143.912 162.368 142.743 161.597 141.464 161.029L140.518 163.161C139.724 162.809 138.874 162.549 137.977 162.402L138.353 160.102C136.969 159.876 135.571 159.878 134.198 160.109L134.585 162.411C133.261 162.635 132.008 163.113 130.886 163.802L129.663 161.81C128.473 162.541 127.417 163.456 126.526 164.529L128.324 166.021C127.488 167.024 126.835 168.195 126.424 169.489L124.201 168.784C124.016 169.37 123.871 169.975 123.771 170.585C123.647 171.346 123.591 172.121 123.606 172.888L125.94 172.843C125.966 174.198 126.26 175.506 126.775 176.708L124.627 177.628C125.176 178.91 125.928 180.087 126.861 181.126L128.599 179.563C129.477 180.542 130.542 181.357 131.751 181.949L130.727 184.045C131.839 184.588 133.026 184.965 134.255 185.166C134.405 185.19 134.556 185.213 134.706 185.231L135.001 182.917C136.358 183.089 137.692 182.989 138.945 182.657L139.541 184.915C140.891 184.56 142.165 183.986 143.331 183.211L142.038 181.265C143.136 180.538 144.095 179.6 144.853 178.5ZM129.749 171.564C130.34 167.951 133.761 165.491 137.375 166.082C140.988 166.673 143.448 170.094 142.857 173.708C142.266 177.322 138.845 179.781 135.231 179.19C131.617 178.599 129.158 175.179 129.749 171.564Z" fill="#00C0CB"/>
<path d="M429.982 107.642L431.907 108.963C432.699 107.81 433.291 106.54 433.667 105.19L431.42 104.565C431.521 104.202 431.604 103.832 431.666 103.452C431.823 102.496 431.84 101.548 431.737 100.629L434.057 100.371C433.902 98.981 433.521 97.6338 432.923 96.3661L430.81 97.3627C430.244 96.1634 429.452 95.0801 428.48 94.1763L430.069 92.4643C429.041 91.5105 427.873 90.7391 426.594 90.1715L425.647 92.3033C424.853 91.9497 424.003 91.6909 423.107 91.5441L423.483 89.2442C422.099 89.018 420.701 89.02 419.326 89.2513L419.713 91.5543C418.39 91.7785 417.136 92.2564 416.015 92.9453L414.792 90.9531C413.602 91.6837 412.547 92.5988 411.656 93.6718L413.453 95.1647C412.618 96.1684 411.965 97.3393 411.553 98.6335L409.33 97.9283C409.145 98.5142 409 99.1195 408.9 99.7289C408.776 100.49 408.72 101.266 408.735 102.032L411.069 101.987C411.095 103.342 411.389 104.65 411.905 105.852L409.756 106.772C410.306 108.054 411.058 109.231 411.99 110.27L413.729 108.708C414.606 109.686 415.672 110.502 416.88 111.093L415.856 113.189C416.968 113.732 418.155 114.109 419.384 114.31C419.534 114.335 419.686 114.357 419.836 114.375L420.13 112.061C421.487 112.233 422.821 112.133 424.075 111.801L424.671 114.059C426.02 113.703 427.295 113.13 428.461 112.356L427.167 110.409C428.266 109.679 429.225 108.741 429.982 107.642ZM414.878 100.706C415.469 97.0927 418.89 94.6328 422.504 95.2238C426.119 95.8148 428.578 99.2357 427.987 102.85C427.396 106.464 423.975 108.924 420.36 108.333C416.747 107.74 414.287 104.32 414.878 100.706Z" fill="#00C0CB"/>
<path d="M326.159 54.8146C326.004 54.7952 325.846 54.7718 325.69 54.7473C324.415 54.5384 323.184 54.1471 322.032 53.5846L321.608 53.3777L322.637 51.2714C321.693 50.7578 320.838 50.1097 320.083 49.3383L318.338 50.9066L318.023 50.5561C317.056 49.479 316.276 48.2592 315.706 46.9283L315.519 46.4942L317.676 45.57C317.294 44.5622 317.067 43.5116 316.999 42.4375L314.656 42.4824L314.647 42.0105C314.632 41.2157 314.69 40.4127 314.818 39.622C314.921 38.9902 315.072 38.3614 315.264 37.7541L315.407 37.3047L317.639 38.0129C318.009 37.0021 318.525 36.0595 319.18 35.2004L317.375 33.7025L317.676 33.3397C318.6 32.2269 319.694 31.2782 320.929 30.5201L321.332 30.2735L322.561 32.2738C323.502 31.749 324.507 31.372 325.558 31.1468L325.168 28.8336L325.634 28.7551C326.35 28.6349 327.082 28.5737 327.808 28.5737C328.519 28.5737 329.237 28.6328 329.944 28.748L330.409 28.8244L330.032 31.1345C330.632 31.2599 331.22 31.4351 331.789 31.6593L332.74 29.5184L333.171 29.7099C334.498 30.2989 335.711 31.0989 336.776 32.0873L337.121 32.4083L335.526 34.1284C336.28 34.8927 336.913 35.7578 337.413 36.7086L339.534 35.7079L339.736 36.1349C340.357 37.4504 340.752 38.8485 340.912 40.2884L340.964 40.7571L338.635 41.016C338.692 41.8465 338.653 42.679 338.52 43.4983C338.481 43.7368 338.433 43.9722 338.379 44.2045L340.635 44.8312L340.509 45.2857C340.119 46.6858 339.506 48.0024 338.684 49.1997L338.416 49.588L336.484 48.2602C335.836 49.1172 335.072 49.8692 334.202 50.5031L335.501 52.4576L335.108 52.7184C333.899 53.5214 332.577 54.1165 331.178 54.4854L330.722 54.6056L330.123 52.3383C329.369 52.5034 328.598 52.587 327.826 52.587C327.527 52.587 327.226 52.5747 326.925 52.5493L326.63 54.8726L326.159 54.8146ZM327.813 35.5775C324.777 35.5775 322.218 37.7531 321.727 40.752C321.462 42.3753 321.846 44.0078 322.809 45.3468C323.772 46.6868 325.197 47.5703 326.82 47.8353C327.151 47.8893 327.488 47.9168 327.82 47.9168C330.855 47.9168 333.414 45.7412 333.904 42.7422C334.454 39.3855 332.169 36.2072 328.811 35.658C328.481 35.605 328.145 35.5775 327.813 35.5775Z" fill="#00C0CB"/>
<path d="M327.805 29.0466C328.492 29.0466 329.181 29.1027 329.866 29.2148L329.49 31.5147C330.387 31.6615 331.236 31.9203 332.03 32.2739L332.977 30.1421C334.255 30.7097 335.424 31.4811 336.452 32.4349L334.862 34.1468C335.834 35.0507 336.626 36.1339 337.193 37.3333L339.305 36.3367C339.903 37.6044 340.284 38.9515 340.439 40.3415L338.119 40.5993C338.222 41.5184 338.206 42.4661 338.049 43.423C337.986 43.8031 337.903 44.173 337.802 44.5358L340.049 45.1604C339.674 46.5106 339.082 47.7803 338.289 48.9339L336.364 47.6122C335.607 48.7127 334.647 49.6502 333.548 50.3809L334.841 52.3272C333.675 53.1017 332.4 53.6744 331.051 54.031L330.455 51.7729C329.607 51.9981 328.722 52.1163 327.82 52.1163C327.387 52.1163 326.949 52.0888 326.51 52.0327L326.216 54.3469C326.066 54.3275 325.914 54.3062 325.764 54.2817C324.535 54.081 323.348 53.7029 322.236 53.1608L323.261 51.0646C322.052 50.4726 320.987 49.6574 320.109 48.6791L318.37 50.2413C317.437 49.2029 316.686 48.0259 316.137 46.744L318.285 45.8238C317.768 44.6214 317.476 43.314 317.449 41.9587L315.116 42.0035C315.101 41.2362 315.156 40.4617 315.281 39.7005C315.38 39.0911 315.525 38.4858 315.711 37.8999L317.933 38.6051C318.345 37.3109 318.998 36.1401 319.834 35.1363L318.036 33.6445C318.927 32.5714 319.982 31.6564 321.173 30.9257L322.395 32.9179C323.516 32.2291 324.77 31.7511 326.094 31.5269L325.707 29.224C326.403 29.1047 327.104 29.0466 327.805 29.0466ZM327.82 48.3897C331.013 48.3897 333.838 46.0725 334.37 42.8197C334.961 39.2063 332.502 35.7844 328.888 35.1934C328.526 35.1343 328.167 35.1057 327.813 35.1057C324.619 35.1057 321.794 37.423 321.262 40.6757C320.671 44.2892 323.13 47.7111 326.745 48.3021C327.105 48.3612 327.465 48.3897 327.82 48.3897ZM327.805 28.103C327.053 28.103 326.295 28.1662 325.553 28.2915L324.623 28.4475L324.779 29.3778L325.016 30.7892C324.225 30.992 323.46 31.2793 322.729 31.6502L321.979 30.4295L321.485 29.6254L320.681 30.1186C319.404 30.9033 318.269 31.8856 317.313 33.0392L316.71 33.7647L317.436 34.367L318.537 35.281C318.067 35.9536 317.672 36.672 317.36 37.4301L315.999 36.9981L315.1 36.7127L314.815 37.6115C314.615 38.2402 314.46 38.8914 314.353 39.5456C314.22 40.3629 314.16 41.1954 314.176 42.0188L314.194 42.9624L315.138 42.9441L316.568 42.9165C316.652 43.7318 316.825 44.5317 317.085 45.3102L315.769 45.8737L314.902 46.2457L315.273 47.1129C315.863 48.4906 316.671 49.7542 317.673 50.869L318.304 51.5711L319.006 50.9403L320.071 49.9835C320.667 50.547 321.319 51.0412 322.021 51.46L321.394 52.745L320.98 53.5928L321.828 54.0066C323.022 54.5894 324.297 54.995 325.618 55.211C325.779 55.2375 325.942 55.261 326.103 55.2814L327.038 55.4006L327.157 54.4651L327.338 53.0477C327.501 53.0548 327.664 53.0578 327.826 53.0578C328.481 53.0578 329.135 53.0008 329.78 52.8867L330.145 54.2705L330.386 55.1825L331.298 54.942C332.747 54.5599 334.116 53.9434 335.369 53.1119L336.154 52.5901L335.632 51.8045L334.84 50.6112C335.482 50.1037 336.064 49.532 336.58 48.9002L337.76 49.7104L338.538 50.2443L339.072 49.4668C339.923 48.2267 340.559 46.8632 340.962 45.4111L341.215 44.5021L340.306 44.2494L338.931 43.8673C338.95 43.7684 338.968 43.6706 338.983 43.5728C339.098 42.8676 339.146 42.1513 339.126 41.4349L340.546 41.2769L341.484 41.173L341.38 40.2355C341.214 38.7426 340.804 37.2946 340.161 35.9322L339.759 35.0793L338.906 35.4818L337.61 36.0932C337.202 35.386 336.721 34.7287 336.171 34.1254L337.145 33.0759L337.787 32.385L337.096 31.743C335.992 30.7189 334.737 29.8894 333.362 29.28L332.5 28.8969L332.117 29.7589L331.537 31.0633C331.219 30.9522 330.896 30.8564 330.569 30.7739L330.799 29.3666L330.951 28.4362L330.02 28.2834C329.286 28.1642 328.542 28.103 327.805 28.103ZM327.82 47.4461C327.513 47.4461 327.202 47.4206 326.896 47.3707C325.397 47.1251 324.082 46.3089 323.192 45.0718C322.303 43.8347 321.948 42.3276 322.193 40.8276C322.645 38.0589 325.009 36.0494 327.813 36.0494C328.119 36.0494 328.43 36.0748 328.736 36.1248C330.235 36.3703 331.55 37.1866 332.44 38.4237C333.329 39.6608 333.684 41.1679 333.44 42.6669C332.986 45.4366 330.623 47.4461 327.82 47.4461Z" fill="#00C0CB"/>
<path d="M324.1 65.9884L327.771 66.4429C328.043 64.2419 327.949 62.0245 327.492 59.8519L323.876 60.6131C323.754 60.0302 323.601 59.4473 323.41 58.8685C322.933 57.4093 322.264 56.0642 321.449 54.8465L324.523 52.7911C323.292 50.9497 321.773 49.3336 320.006 47.9864L317.762 50.9304C316.09 49.6576 314.186 48.712 312.159 48.1505L313.145 44.5839C311.004 43.9919 308.798 43.7605 306.585 43.895L306.81 47.5829C305.436 47.6654 304.051 47.9222 302.684 48.3696L301.534 44.8611C299.423 45.553 297.458 46.5761 295.694 47.9039L297.919 50.859C296.22 52.1399 294.807 53.7266 293.732 55.5139L290.558 53.6043C289.417 55.5007 288.601 57.5571 288.131 59.7164L291.747 60.5031C291.305 62.5248 291.24 64.6474 291.606 66.768L287.966 67.3978C288.132 68.3567 288.37 69.3145 288.675 70.2439C289.055 71.4056 289.542 72.5357 290.123 73.6036L293.372 71.8376C294.398 73.7238 295.764 75.3492 297.367 76.6637L295.017 79.5251C296.725 80.9273 298.641 82.034 300.711 82.8135L302.016 79.3488C303.964 80.0836 306.058 80.4545 308.189 80.4045L308.279 84.1005C310.239 84.0526 312.183 83.7174 314.058 83.1029C314.286 83.0285 314.515 82.948 314.741 82.8655L313.466 79.3957C315.501 78.6478 317.302 77.534 318.824 76.1512L321.31 78.8923C322.948 77.4066 324.322 75.6702 325.397 73.731L322.157 71.9375C323.173 70.1073 323.838 68.0886 324.1 65.9884ZM298.489 67.0309C296.808 61.8981 299.616 56.3536 304.749 54.6732C309.882 52.9919 315.426 55.8003 317.107 60.9331C318.788 66.0659 315.98 71.6104 310.847 73.2908C305.714 74.9721 300.171 72.1637 298.489 67.0309Z" fill="#FF6A81"/>
<path d="M185.669 292.296C185.061 292.296 184.794 292.028 184.794 291.421V290.108H181.462C180.853 290.108 180.586 289.84 180.586 289.232V286.386C180.586 285.779 180.853 285.511 181.462 285.511H188.005C188.419 285.511 188.638 285.195 188.638 284.806C188.638 284.246 188.419 284.027 188.005 283.978L184.357 283.468C182.071 283.127 180.586 282.154 180.586 279.43V276.876C180.586 274.346 182.142 272.887 184.794 272.644V271.281C184.794 270.674 185.061 270.406 185.669 270.406H189.196C189.805 270.406 190.073 270.674 190.073 271.281V272.595H192.432C193.04 272.595 193.308 272.863 193.308 273.47V276.364C193.308 276.972 193.04 277.24 192.432 277.24H186.765C186.351 277.24 186.109 277.532 186.109 277.97C186.109 278.408 186.352 278.7 186.765 278.748L190.388 279.235C192.675 279.575 194.183 280.548 194.183 283.272V285.826C194.183 288.307 192.651 289.791 190.073 290.058V291.42C190.073 292.027 189.805 292.295 189.196 292.295H185.669V292.296Z" fill="white"/>
<path d="M309.155 193.027L312.825 193.48C313.097 191.279 313.003 189.062 312.546 186.889L308.93 187.65C308.808 187.067 308.655 186.484 308.465 185.906C307.987 184.446 307.318 183.101 306.503 181.884L309.577 179.828C308.346 177.987 306.827 176.371 305.06 175.024L302.816 177.967C301.144 176.695 299.24 175.749 297.214 175.188L298.199 171.621C296.058 171.029 293.852 170.798 291.64 170.932L291.864 174.62C290.49 174.703 289.105 174.958 287.738 175.407L286.588 171.898C284.477 172.589 282.512 173.613 280.748 174.941L282.973 177.896C281.274 179.177 279.861 180.765 278.787 182.551L275.612 180.641C274.471 182.538 273.655 184.594 273.185 186.753L276.802 187.54C276.359 189.562 276.294 191.685 276.66 193.805L273.019 194.435C273.185 195.394 273.424 196.352 273.728 197.281C274.108 198.443 274.595 199.573 275.176 200.641L278.425 198.875C279.451 200.761 280.818 202.386 282.421 203.701L280.071 206.562C281.779 207.964 283.694 209.071 285.764 209.851L287.069 206.385C289.018 207.12 291.111 207.491 293.243 207.441L293.332 211.137C295.292 211.089 297.236 210.753 299.111 210.139C299.339 210.065 299.569 209.984 299.794 209.902L298.519 206.432C300.554 205.684 302.356 204.57 303.877 203.187L306.363 205.928C308.001 204.443 309.376 202.706 310.45 200.767L307.21 198.974C308.227 197.144 308.893 195.126 309.155 193.027ZM283.544 194.068C281.862 188.935 284.671 183.391 289.803 181.71C294.936 180.029 300.48 182.837 302.161 187.97C303.842 193.103 301.034 198.646 295.901 200.328C290.768 202.009 285.225 199.201 283.544 194.068Z" fill="white"/>
<path d="M475.832 239.816L478.439 240.138C478.633 238.575 478.566 237 478.241 235.456L475.673 235.997C475.585 235.582 475.477 235.168 475.343 234.757C475.003 233.72 474.528 232.765 473.949 231.899L476.132 230.439C475.258 229.131 474.178 227.983 472.923 227.026L471.33 229.117C470.141 228.214 468.789 227.542 467.349 227.143L468.049 224.608C466.529 224.188 464.961 224.023 463.39 224.119L463.549 226.739C462.573 226.797 461.59 226.98 460.619 227.298L459.802 224.805C458.302 225.296 456.907 226.024 455.654 226.966L457.235 229.066C456.028 229.976 455.023 231.103 454.261 232.372L452.006 231.016C451.196 232.363 450.615 233.823 450.282 235.358L452.851 235.917C452.537 237.353 452.49 238.861 452.751 240.367L450.165 240.815C450.283 241.497 450.452 242.176 450.668 242.837C450.938 243.662 451.284 244.465 451.696 245.223L454.004 243.969C454.733 245.309 455.704 246.463 456.842 247.397L455.173 249.43C456.387 250.426 457.747 251.212 459.218 251.765L460.145 249.303C461.529 249.825 463.015 250.089 464.53 250.053L464.594 252.678C465.986 252.645 467.368 252.406 468.7 251.97C468.862 251.917 469.025 251.86 469.185 251.802L468.28 249.337C469.725 248.806 471.006 248.014 472.086 247.032L473.852 248.979C475.015 247.925 475.992 246.691 476.755 245.313L474.454 244.039C475.172 242.742 475.645 241.308 475.832 239.816ZM457.638 240.556C456.444 236.91 458.439 232.971 462.085 231.777C465.731 230.583 469.67 232.578 470.864 236.224C472.058 239.87 470.063 243.809 466.417 245.003C462.771 246.197 458.832 244.203 457.638 240.556Z" fill="white"/>
<path d="M461.963 261.309L463.282 261.472C463.38 260.68 463.347 259.883 463.182 259.102L461.881 259.376C461.838 259.166 461.782 258.957 461.714 258.748C461.542 258.223 461.303 257.74 461.009 257.302L462.115 256.563C461.672 255.901 461.125 255.32 460.49 254.836L459.683 255.895C459.082 255.437 458.397 255.097 457.669 254.895L458.023 253.612C457.254 253.399 456.46 253.316 455.664 253.365L455.745 254.691C455.251 254.721 454.752 254.813 454.261 254.975L453.848 253.713C453.089 253.962 452.383 254.33 451.748 254.808L452.548 255.87C451.938 256.331 451.429 256.902 451.043 257.545L449.902 256.858C449.491 257.54 449.198 258.279 449.028 259.056L450.329 259.339C450.17 260.066 450.146 260.829 450.278 261.592L448.968 261.818C449.028 262.164 449.114 262.507 449.223 262.843C449.36 263.26 449.535 263.667 449.744 264.051L450.912 263.416C451.28 264.094 451.772 264.679 452.348 265.152L451.504 266.181C452.118 266.685 452.807 267.083 453.551 267.363L454.021 266.117C454.722 266.381 455.474 266.514 456.24 266.496L456.273 267.825C456.978 267.807 457.677 267.687 458.35 267.466C458.433 267.439 458.515 267.41 458.596 267.38L458.137 266.133C458.869 265.864 459.517 265.463 460.064 264.966L460.958 265.952C461.547 265.418 462.041 264.793 462.428 264.096L461.263 263.451C461.63 262.79 461.869 262.064 461.963 261.309ZM452.754 261.684C452.15 259.838 453.16 257.844 455.005 257.24C456.85 256.636 458.845 257.646 459.449 259.491C460.053 261.336 459.043 263.331 457.198 263.935C455.351 264.539 453.358 263.529 452.754 261.684Z" fill="white"/>
<path d="M493.835 313.703L495.155 313.866C495.252 313.074 495.219 312.277 495.054 311.496L493.753 311.77C493.71 311.56 493.655 311.351 493.586 311.142C493.414 310.617 493.175 310.133 492.881 309.696L493.987 308.958C493.543 308.295 492.997 307.714 492.362 307.23L491.555 308.289C490.954 307.831 490.269 307.491 489.541 307.289L489.895 306.006C489.126 305.793 488.332 305.711 487.536 305.759L487.617 307.085C487.123 307.114 486.625 307.207 486.133 307.368L485.719 306.106C484.96 306.355 484.254 306.723 483.619 307.201L484.419 308.264C483.809 308.724 483.3 309.295 482.914 309.938L481.773 309.251C481.362 309.933 481.069 310.673 480.899 311.449L482.2 311.732C482.041 312.459 482.017 313.222 482.149 313.985L480.839 314.212C480.899 314.556 480.985 314.9 481.094 315.235C481.231 315.652 481.406 316.059 481.615 316.443L482.783 315.808C483.151 316.486 483.643 317.071 484.219 317.544L483.375 318.573C483.989 319.077 484.678 319.475 485.422 319.755L485.892 318.509C486.592 318.773 487.345 318.906 488.111 318.888L488.144 320.217C488.849 320.199 489.548 320.079 490.221 319.858C490.303 319.831 490.387 319.802 490.467 319.772L490.008 318.525C490.74 318.256 491.388 317.856 491.935 317.358L492.829 318.344C493.418 317.81 493.912 317.185 494.299 316.488L493.134 315.843C493.502 315.184 493.741 314.458 493.835 313.703ZM484.625 314.078C484.021 312.233 485.031 310.238 486.876 309.634C488.722 309.03 490.716 310.04 491.32 311.885C491.924 313.731 490.914 315.725 489.069 316.329C487.224 316.933 485.23 315.924 484.625 314.078Z" fill="white"/>
<path d="M339.676 351.559L345.504 350.66" stroke="#6258CC" stroke-width="2.94823" stroke-linecap="round" stroke-linejoin="round"/>
<path d="M357.298 348.842L563.701 317.03" stroke="#6258CC" stroke-width="2.94823" stroke-linecap="round" stroke-linejoin="round" stroke-dasharray="11.93 11.93"/>
<path d="M569.598 316.121L575.426 315.224" stroke="#6258CC" stroke-width="2.94823" stroke-linecap="round" stroke-linejoin="round"/>
<path d="M573.665 348.038C592.04 348.038 606.936 333.142 606.936 314.767C606.936 296.392 592.04 281.496 573.665 281.496C555.29 281.496 540.394 296.392 540.394 314.767C540.394 333.142 555.29 348.038 573.665 348.038Z" fill="white" stroke="white" stroke-width="6.87931" stroke-miterlimit="10"/>
<path d="M594.367 325.028C594.367 325.925 593.64 326.653 592.743 326.653H555.57C554.673 326.653 553.946 325.925 553.946 325.028V302.291C553.946 301.394 554.673 300.667 555.57 300.667H592.743C593.64 300.667 594.367 301.394 594.367 302.291V325.028Z" fill="#00C0CB"/>
<path d="M594.367 302.291C594.367 301.449 593.724 300.767 592.905 300.684L573.795 315.363L554.875 300.83C554.327 301.091 553.946 301.645 553.946 302.292V302.846L573.795 318.093L594.367 302.291Z" fill="white"/>
<path d="M608.2 213.109L602.922 215.738" stroke="#6258CC" stroke-width="2.94823" stroke-linecap="round" stroke-linejoin="round"/>
<path d="M592.235 221.064L341.096 346.196" stroke="#6258CC" stroke-width="2.94823" stroke-linecap="round" stroke-linejoin="round" stroke-dasharray="11.94 11.94"/>
<path d="M335.752 348.858L330.475 351.487" stroke="#6258CC" stroke-width="2.94823" stroke-linecap="round" stroke-linejoin="round"/>
<path d="M646.066 250.984C666.982 230.068 666.982 196.156 646.066 175.24C625.149 154.324 591.238 154.324 570.321 175.24C549.405 196.156 549.405 230.068 570.321 250.984C591.238 271.9 625.149 271.9 646.066 250.984Z" fill="white" stroke="white" stroke-width="6.87931" stroke-miterlimit="10"/>
<path d="M640.879 181.989H602.208C598.818 181.989 596.07 184.713 596.07 188.072V200.123C596.07 203.483 598.818 206.207 602.208 206.207H630.321L640.265 215.332V206.207H640.878C644.269 206.207 647.017 203.483 647.017 200.123V188.072C647.018 184.713 644.27 181.989 640.879 181.989Z" fill="#FF6A81" stroke="#FF6A81" stroke-width="0.681114" stroke-miterlimit="10" stroke-linecap="round" stroke-linejoin="round"/>
<path d="M613.767 194.038C613.767 195.386 612.665 196.479 611.304 196.479C609.944 196.479 608.841 195.386 608.841 194.038C608.841 192.69 609.944 191.598 611.304 191.598C612.665 191.597 613.767 192.69 613.767 194.038Z" fill="white"/>
<path d="M624.007 194.038C624.007 195.386 622.905 196.479 621.545 196.479C620.184 196.479 619.082 195.386 619.082 194.038C619.082 192.69 620.184 191.598 621.545 191.598C622.905 191.597 624.007 192.69 624.007 194.038Z" fill="white"/>
<path d="M634.248 194.038C634.248 195.386 633.145 196.479 631.785 196.479C630.424 196.479 629.322 195.386 629.322 194.038C629.322 192.69 630.424 191.598 631.785 191.598C633.145 191.598 634.248 192.69 634.248 194.038Z" fill="white"/>
<path d="M631.522 226.316H601.103C598.436 226.316 596.273 228.459 596.273 231.102V240.582C596.273 243.225 598.436 245.367 601.103 245.367H623.217L631.039 252.546V245.367H631.522C634.189 245.367 636.351 243.224 636.351 240.582V231.102C636.351 228.459 634.189 226.316 631.522 226.316Z" fill="#FFA865" stroke="#FFA865" stroke-width="0.535802" stroke-miterlimit="10" stroke-linecap="round" stroke-linejoin="round"/>
<path d="M606.072 237.248C607.433 237.248 608.535 236.156 608.535 234.808C608.535 233.46 607.433 232.367 606.072 232.367C604.712 232.367 603.609 233.46 603.609 234.808C603.609 236.156 604.712 237.248 606.072 237.248Z" fill="white"/>
<path d="M618.776 234.808C618.776 236.156 617.673 237.248 616.313 237.248C614.952 237.248 613.85 236.155 613.85 234.808C613.85 233.46 614.952 232.367 616.313 232.367C617.673 232.367 618.776 233.46 618.776 234.808Z" fill="white"/>
<path d="M626.553 237.248C627.913 237.248 629.016 236.156 629.016 234.808C629.016 233.46 627.913 232.367 626.553 232.367C625.193 232.367 624.09 233.46 624.09 234.808C624.09 236.156 625.193 237.248 626.553 237.248Z" fill="white"/>
<path d="M573.172 199.551H611.843C615.233 199.551 617.982 202.275 617.982 205.634V217.685C617.982 221.045 615.233 223.769 611.843 223.769H583.73L573.787 232.894V223.769H573.173C569.783 223.769 567.035 221.045 567.035 217.685V205.634C567.034 202.275 569.782 199.551 573.172 199.551Z" fill="#00C0CB" stroke="#00C0CB" stroke-width="0.681114" stroke-miterlimit="10" stroke-linecap="round" stroke-linejoin="round"/>
<path d="M600.285 211.599C600.285 212.947 601.388 214.039 602.748 214.039C604.109 214.039 605.211 212.946 605.211 211.599C605.211 210.251 604.109 209.158 602.748 209.158C601.388 209.158 600.285 210.251 600.285 211.599Z" fill="white"/>
<path d="M590.044 211.599C590.044 212.947 591.147 214.039 592.507 214.039C593.868 214.039 594.97 212.946 594.97 211.599C594.97 210.251 593.868 209.158 592.507 209.158C591.147 209.158 590.044 210.251 590.044 211.599Z" fill="white"/>
<path d="M579.804 211.599C579.804 212.947 580.906 214.039 582.267 214.039C583.627 214.039 584.73 212.946 584.73 211.599C584.73 210.251 583.627 209.158 582.267 209.158C580.906 209.158 579.804 210.251 579.804 211.599Z" fill="white"/>
<path d="M328.909 349.845L332.376 345.075" stroke="#6258CC" stroke-width="2.94823" stroke-linecap="round" stroke-linejoin="round"/>
<path d="M339.202 335.683L499.605 114.964" stroke="#6258CC" stroke-width="2.94823" stroke-linecap="round" stroke-linejoin="round" stroke-dasharray="11.61 11.61"/>
<path d="M503.017 110.268L506.484 105.498" stroke="#6258CC" stroke-width="2.94823" stroke-linecap="round" stroke-linejoin="round"/>
<path d="M545.047 144.067C566.347 122.767 566.347 88.2328 545.047 66.9326C523.746 45.6323 489.212 45.6324 467.912 66.9326C446.611 88.2328 446.611 122.767 467.912 144.067C489.212 165.368 523.746 165.368 545.047 144.067Z" fill="white" stroke="white" stroke-width="6.87931" stroke-miterlimit="10"/>
<path d="M535.834 78.8228H503.441V119.854H535.834V78.8228Z" fill="#FFA865"/>
<path d="M498.584 91.0122V121.245" stroke="#00C0CB" stroke-width="2.02775" stroke-miterlimit="10" stroke-linecap="round" stroke-linejoin="round"/>
<path d="M509.544 91.0122V121.245" stroke="#00C0CB" stroke-width="2.02775" stroke-miterlimit="10" stroke-linecap="round" stroke-linejoin="round"/>
<path d="M520.504 92.9019V121.245" stroke="#00C0CB" stroke-width="2.02775" stroke-miterlimit="10" stroke-linecap="round" stroke-linejoin="round"/>
<path d="M531.463 94.4126V121.244" stroke="#00C0CB" stroke-width="2.02775" stroke-miterlimit="10" stroke-linecap="round" stroke-linejoin="round"/>
<path d="M491.594 101.563H540.533" stroke="#00C0CB" stroke-width="2.02775" stroke-miterlimit="10" stroke-linecap="round" stroke-linejoin="round"/>
<path d="M494.24 111.579H540.533" stroke="#00C0CB" stroke-width="2.02775" stroke-miterlimit="10" stroke-linecap="round" stroke-linejoin="round"/>
<path d="M470.377 80.8511H482.009L498.23 120.73H540.813V95.0461L485.389 87.6102" stroke="#00C0CB" stroke-width="2.70367" stroke-miterlimit="10" stroke-linecap="round" stroke-linejoin="round"/>
<path d="M498.019 121.245L492.148 131.545H534.731" stroke="#00C0CB" stroke-width="2.70367" stroke-miterlimit="10" stroke-linecap="round" stroke-linejoin="round"/>
<path d="M480.256 78.8228H470.378C469.258 78.8228 468.35 79.7307 468.35 80.8506C468.35 81.9705 469.258 82.8785 470.378 82.8785H480.256V78.8228Z" fill="#FF6A81"/>
<path d="M492.727 136.551C492.727 138.743 494.503 140.519 496.695 140.519C498.887 140.519 500.663 138.743 500.663 136.551C500.663 134.359 498.887 132.583 496.695 132.583C494.503 132.583 492.727 134.359 492.727 136.551Z" fill="#221276"/>
<path d="M496.695 138.203C497.608 138.203 498.348 137.463 498.348 136.55C498.348 135.637 497.608 134.897 496.695 134.897C495.782 134.897 495.042 135.637 495.042 136.55C495.042 137.463 495.782 138.203 496.695 138.203Z" fill="#9EA1D2"/>
<path d="M526.173 136.551C526.173 138.743 527.949 140.519 530.141 140.519C532.333 140.519 534.109 138.743 534.109 136.551C534.109 134.359 532.333 132.583 530.141 132.583C527.949 132.583 526.173 134.359 526.173 136.551Z" fill="#221276"/>
<path d="M530.141 138.203C531.054 138.203 531.794 137.463 531.794 136.55C531.794 135.637 531.054 134.897 530.141 134.897C529.228 134.897 528.488 135.637 528.488 136.55C528.488 137.463 529.228 138.203 530.141 138.203Z" fill="#9EA1D2"/>
<path d="M361.353 137.318L360.405 143.138" stroke="#6258CC" stroke-width="2.94823" stroke-linecap="round" stroke-linejoin="round"/>
<path d="M358.567 154.436L330.067 329.567" stroke="#6258CC" stroke-width="2.94823" stroke-linecap="round" stroke-linejoin="round" stroke-dasharray="11.45 11.45"/>
<path d="M329.146 335.217L328.2 341.036" stroke="#6258CC" stroke-width="2.94823" stroke-linecap="round" stroke-linejoin="round"/>
<path d="M397.139 150.38C407.829 131.172 400.924 106.935 381.716 96.2456C362.508 85.5557 338.271 92.4609 327.581 111.669C316.891 130.877 323.797 155.114 343.005 165.803C362.212 176.493 386.449 169.588 397.139 150.38Z" fill="white" stroke="white" stroke-width="6.87931" stroke-miterlimit="10"/>
<path d="M380.605 123.507C380.605 113.315 372.342 105.052 362.15 105.052C351.958 105.052 343.694 113.315 343.694 123.507C343.694 130.933 348.081 137.329 354.403 140.258V149.254C354.403 153.532 357.872 157 362.15 157C366.429 157 369.896 153.532 369.896 149.254V140.258C376.218 137.329 380.605 130.933 380.605 123.507Z" fill="#FFA865"/>
<path d="M358.276 145.154V127.382H366.023V145.154" stroke="white" stroke-width="0.68356" stroke-miterlimit="10" stroke-linecap="round" stroke-linejoin="round"/>
<path d="M353.766 144.698V152.149C353.766 156.717 357.469 160.42 362.036 160.42C366.603 160.42 370.306 156.717 370.306 152.149V144.698H353.766Z" fill="#221276"/>
<path d="M353.491 147.432H370.807" stroke="#6258CC" stroke-width="2.05068" stroke-miterlimit="10" stroke-linecap="round" stroke-linejoin="round"/>
<path d="M353.491 151.305H370.807" stroke="#6258CC" stroke-width="2.05068" stroke-miterlimit="10" stroke-linecap="round" stroke-linejoin="round"/>
<path d="M317.292 338.212L314.356 333.097" stroke="#6258CC" stroke-width="2.94823" stroke-linecap="round" stroke-linejoin="round"/>
<path d="M308.609 323.082L185.036 107.757" stroke="#6258CC" stroke-width="2.94823" stroke-linecap="round" stroke-linejoin="round" stroke-dasharray="11.55 11.55"/>
<path d="M182.161 102.75L179.226 97.6353" stroke="#6258CC" stroke-width="2.94823" stroke-linecap="round" stroke-linejoin="round"/>
<path d="M193.973 150.143C222.973 141.995 239.876 111.88 231.728 82.8807C223.579 53.881 193.465 36.9776 164.465 45.126C135.465 53.2743 118.562 83.3888 126.71 112.389C134.859 141.388 164.973 158.292 193.973 150.143Z" fill="white" stroke="white" stroke-width="6.87931" stroke-miterlimit="10"/>
<path d="M178.631 58.6807C157.221 59.0006 139.959 76.4453 139.959 97.9324C139.959 119.419 157.221 136.865 178.631 137.184V58.6807Z" fill="#FF6A81" stroke="#FF6A81" stroke-width="0.982745" stroke-miterlimit="10"/>
<path d="M178.624 137.676C178.356 137.672 178.14 137.453 178.14 137.185V58.6817C178.14 58.4127 178.356 58.1936 178.626 58.1906C178.626 58.1906 179.11 58.1753 179.227 58.1753C201.151 58.1753 218.986 76.0102 218.986 97.9335C218.986 119.857 201.151 137.692 179.227 137.692C179.107 137.691 178.624 137.676 178.624 137.676Z" fill="#FFA865"/>
<path d="M179.226 58.6665C200.913 58.6665 218.493 76.2466 218.493 97.9335C218.493 119.62 200.913 137.2 179.226 137.2C179.027 137.2 178.83 137.188 178.631 137.185V58.6817C178.83 58.6787 179.027 58.6665 179.226 58.6665ZM179.226 57.6831C179.101 57.6831 178.978 57.6872 178.853 57.6913L178.617 57.6984C178.08 57.7065 177.649 58.1437 177.649 58.6807V137.184C177.649 137.721 178.08 138.159 178.617 138.166L178.853 138.174C178.977 138.178 179.101 138.182 179.225 138.182C201.419 138.182 219.475 120.126 219.475 97.9324C219.476 75.7392 201.421 57.6831 179.226 57.6831Z" fill="white"/>
<path d="M178.631 98.18C178.535 98.18 178.44 98.1515 178.356 98.0954C178.221 98.0037 178.139 97.8508 178.139 97.6878V58.0856C178.139 57.8165 178.355 57.5985 178.623 57.5944C178.623 57.5944 179.106 57.5791 179.225 57.5791C195.54 57.5791 210.019 67.3638 216.114 82.5074C216.215 82.7591 216.094 83.0445 215.843 83.1464L178.816 98.1433C178.757 98.1678 178.694 98.18 178.631 98.18Z" fill="#6258CC"/>
<path d="M179.226 58.0712C195.734 58.0712 209.852 68.2625 215.658 82.6918L178.631 97.6888V58.0865C178.83 58.0835 179.027 58.0712 179.226 58.0712ZM179.226 57.0879C179.101 57.0879 178.978 57.092 178.853 57.096L178.617 57.1032C178.08 57.1113 177.649 57.5485 177.649 58.0855V97.6878C177.649 98.0149 177.812 98.3195 178.082 98.503C178.247 98.614 178.439 98.6711 178.631 98.6711C178.756 98.6711 178.881 98.6477 179 98.5998L216.027 83.6028C216.53 83.399 216.772 82.8274 216.57 82.325C210.401 66.9938 195.743 57.0879 179.226 57.0879Z" fill="white"/>
<path d="M178.631 98.18C178.562 98.18 178.492 98.1648 178.426 98.1352C178.251 98.0547 178.139 97.8815 178.139 97.6889V58.6817C178.139 58.4127 178.355 58.1947 178.623 58.1906C178.623 58.1906 179.106 58.1753 179.225 58.1753C190.622 58.1753 201.491 63.087 209.045 71.6519C209.132 71.7507 209.176 71.8801 209.166 72.0116C209.157 72.143 209.096 72.2643 208.996 72.3509L178.95 98.0639C178.861 98.1393 178.746 98.18 178.631 98.18Z" fill="#00C0CB"/>
<path d="M179.226 58.6665C190.959 58.6665 201.482 63.8186 208.678 71.9759L178.632 97.6889V58.6817C178.83 58.6777 179.027 58.6665 179.226 58.6665ZM179.226 57.6831C179.101 57.6831 178.978 57.6872 178.853 57.6913L178.617 57.6984C178.08 57.7065 177.649 58.1437 177.649 58.6807V97.6879C177.649 98.071 177.872 98.4205 178.221 98.5805C178.352 98.6406 178.492 98.6702 178.631 98.6702C178.862 98.6702 179.089 98.5897 179.27 98.4338L209.316 72.7208C209.516 72.5496 209.639 72.305 209.657 72.0432C209.676 71.7813 209.588 71.5214 209.414 71.3237C201.768 62.6559 190.765 57.6831 179.226 57.6831Z" fill="white"/>
<path d="M112.89 66.1865L158.588 94.6865" stroke="#221276" stroke-width="0.982745" stroke-miterlimit="10"/>
<path d="M157.606 96.407C157.606 98.442 159.256 100.093 161.292 100.093C163.327 100.093 164.978 98.443 164.978 96.407C164.978 94.372 163.328 92.7212 161.292 92.7212C159.256 92.7212 157.606 94.372 157.606 96.407Z" fill="white" stroke="#221276" stroke-width="0.982745" stroke-miterlimit="10"/>
<path d="M118.603 67.6611C118.603 69.2895 117.283 70.6091 115.655 70.6091H61.6028C59.9744 70.6091 58.6548 69.2895 58.6548 67.6611V48.9886C58.6548 47.3602 59.9744 46.0405 61.6028 46.0405H115.655C117.283 46.0405 118.603 47.3602 118.603 48.9886V67.6611Z" fill="#221276"/>
<path d="M64.7964 51.937H112.46" stroke="white" stroke-width="0.982745" stroke-miterlimit="10" stroke-linecap="round" stroke-linejoin="round"/>
<path d="M64.7964 58.0791H112.46" stroke="white" stroke-width="0.982745" stroke-miterlimit="10" stroke-linecap="round" stroke-linejoin="round"/>
<path d="M72.6587 64.2212H104.598" stroke="white" stroke-width="0.982745" stroke-miterlimit="10" stroke-linecap="round" stroke-linejoin="round"/>
<path d="M251.518 107.183L197.662 107.011" stroke="#221276" stroke-width="0.982745" stroke-miterlimit="10"/>
<path d="M197.592 105.031C196.52 103.301 194.249 102.767 192.518 103.838C190.788 104.91 190.254 107.181 191.325 108.912C192.396 110.642 194.669 111.176 196.399 110.105C198.13 109.034 198.664 106.762 197.592 105.031Z" fill="white" stroke="#221276" stroke-width="0.982745" stroke-miterlimit="10"/>
<path d="M302.685 116.308C302.685 117.936 301.365 119.256 299.737 119.256H245.685C244.056 119.256 242.737 117.936 242.737 116.308V97.635C242.737 96.0066 244.056 94.687 245.685 94.687H299.737C301.365 94.687 302.685 96.0066 302.685 97.635V116.308Z" fill="#221276"/>
<path d="M248.879 100.584H296.543" stroke="white" stroke-width="0.982745" stroke-miterlimit="10" stroke-linecap="round" stroke-linejoin="round"/>
<path d="M248.879 106.726H296.543" stroke="white" stroke-width="0.982745" stroke-miterlimit="10" stroke-linecap="round" stroke-linejoin="round"/>
<path d="M256.741 112.869H288.681" stroke="white" stroke-width="0.982745" stroke-miterlimit="10" stroke-linecap="round" stroke-linejoin="round"/>
<path d="M232.391 39.8799L191.505 74.9342" stroke="#221276" stroke-width="0.982745" stroke-miterlimit="10"/>
<path d="M190.158 73.4811C188.216 72.8707 186.148 73.9508 185.538 75.8921C184.928 77.8343 186.008 79.9029 187.949 80.5123C189.891 81.1227 191.96 80.0426 192.569 78.1013C193.18 76.1601 192.101 74.0915 190.158 73.4811Z" fill="white" stroke="#221276" stroke-width="0.982745" stroke-miterlimit="10"/>
<path d="M262.761 46.041C262.761 47.6694 261.441 48.989 259.813 48.989H225.539C223.91 48.989 222.591 47.6694 222.591 46.041V27.3684C222.591 25.74 223.91 24.4204 225.539 24.4204H259.813C261.441 24.4204 262.761 25.74 262.761 27.3684V46.041Z" fill="#221276"/>
<path d="M228.732 30.3164H256.619" stroke="white" stroke-width="0.982745" stroke-miterlimit="10" stroke-linecap="round" stroke-linejoin="round"/>
<path d="M228.732 36.459H256.619" stroke="white" stroke-width="0.982745" stroke-miterlimit="10" stroke-linecap="round" stroke-linejoin="round"/>
<path d="M236.595 42.6011H248.756" stroke="white" stroke-width="0.982745" stroke-miterlimit="10" stroke-linecap="round" stroke-linejoin="round"/>
<path d="M55.3984 150.705L60.1165 154.241" stroke="#6258CC" stroke-width="2.94823" stroke-linecap="round" stroke-linejoin="round"/>
<path d="M69.3389 161.153L304.482 337.404" stroke="#6258CC" stroke-width="2.94823" stroke-linecap="round" stroke-linejoin="round" stroke-dasharray="11.52 11.52"/>
<path d="M309.093 340.86L313.811 344.396" stroke="#6258CC" stroke-width="2.94823" stroke-linecap="round" stroke-linejoin="round"/>
<path d="M55.3987 190.507C77.3807 190.507 95.2006 172.687 95.2006 150.705C95.2006 128.723 77.3807 110.903 55.3987 110.903C33.4166 110.903 15.5967 128.723 15.5967 150.705C15.5967 172.687 33.4166 190.507 55.3987 190.507Z" fill="white"/>
<path d="M55.3986 193.945C31.5556 193.945 12.1575 174.548 12.1575 150.704C12.1575 126.859 31.5556 107.463 55.3986 107.463C79.2417 107.463 98.6398 126.861 98.6398 150.705C98.6398 174.548 79.2427 193.945 55.3986 193.945ZM55.3986 114.343C35.3484 114.343 19.0369 130.654 19.0369 150.705C19.0369 170.755 35.3484 187.067 55.3986 187.067C75.4489 187.067 91.7604 170.755 91.7604 150.705C91.7604 130.654 75.4489 114.343 55.3986 114.343Z" fill="white"/>
<path d="M75.6894 132.523H36.6568C33.235 132.523 30.4612 135.297 30.4612 138.719V159.784C30.4612 163.206 33.235 165.979 36.6568 165.979H65.0325L75.0699 175.273V165.979H75.6894C79.1113 165.979 81.8851 163.206 81.8851 159.784V138.719C81.8851 135.297 79.1113 132.523 75.6894 132.523Z" fill="#FF6A81" stroke="#FF6A81" stroke-width="0.636175" stroke-miterlimit="10"/>
<path d="M48.1453 139.053L64.201 148.322L48.1453 157.591V139.053Z" fill="white" stroke="white" stroke-width="1.75149" stroke-miterlimit="10" stroke-linecap="round" stroke-linejoin="round"/>
<path d="M89.7959 281.411L95.4617 283.045" stroke="#6258CC" stroke-width="2.94823" stroke-miterlimit="10"/>
<path d="M106.364 286.188L318.963 347.49" stroke="#6258CC" stroke-width="2.94823" stroke-miterlimit="10" stroke-dasharray="11.35 11.35"/>
<path d="M324.414 349.061L330.079 350.696" stroke="#6258CC" stroke-width="2.94823" stroke-miterlimit="10"/>
<path d="M130.325 318.993C151.625 297.693 151.625 263.159 130.325 241.858C109.025 220.558 74.4905 220.558 53.1903 241.858C31.89 263.159 31.89 297.693 53.1903 318.993C74.4905 340.293 109.025 340.293 130.325 318.993Z" fill="white"/>
<mask id="mask0_169_20898" style="mask-type:luminance" maskUnits="userSpaceOnUse" x="35" y="226" width="110" height="110">
<path d="M128.359 319.976C149.66 298.675 149.66 264.141 128.359 242.841C107.059 221.541 72.5246 221.541 51.2244 242.841C29.9242 264.141 29.9242 298.675 51.2244 319.976C72.5246 341.276 107.059 341.276 128.359 319.976Z" fill="white"/>
</mask>
<g mask="url(#mask0_169_20898)">
<path d="M106.007 295.455H98.4282V276.488H81.1833V295.455H73.6049C64.8759 295.455 57.7988 302.531 57.7988 311.261V321.271H121.813V311.261C121.813 302.531 114.737 295.455 106.007 295.455Z" fill="#EE7493"/>
<path d="M81.1832 292.483C83.851 293.546 86.7582 294.137 89.8051 294.137C92.852 294.137 95.7592 293.546 98.427 292.483V276.487H81.1821V292.483H81.1832Z" fill="#F25A78"/>
<path d="M106.007 295.455H102.437C102.439 295.544 102.45 295.629 102.45 295.718C102.45 302.993 96.5533 308.89 89.2785 308.89C82.0037 308.89 76.1066 302.993 76.1066 295.718C76.1066 295.629 76.1178 295.543 76.1199 295.455H73.6039C64.875 295.455 57.7979 302.531 57.7979 311.261V347.093H121.812V311.261C121.813 302.531 114.737 295.455 106.007 295.455Z" fill="#00C0CB" stroke="#00C0CB" stroke-width="0.982745" stroke-miterlimit="10"/>
<path d="M89.8059 289.132C102.681 289.132 113.119 278.694 113.119 265.819C113.119 252.943 102.681 242.505 89.8059 242.505C76.9303 242.505 66.4927 252.943 66.4927 265.819C66.4927 278.694 76.9303 289.132 89.8059 289.132Z" fill="#EE7493"/>
<path d="M116.28 265.818C116.28 251.197 104.427 239.343 89.8053 239.343C75.1833 239.343 63.3301 251.197 63.3301 265.818" stroke="#221276" stroke-width="3.16121" stroke-miterlimit="10"/>
<path d="M53.9795 265.819C53.9795 272.425 58.7648 277.782 64.667 277.782C70.5702 277.782 69.328 272.426 69.328 265.819C69.328 259.211 70.5702 253.856 64.667 253.856C58.7648 253.855 53.9795 259.211 53.9795 265.819Z" fill="#221276"/>
<path d="M126.338 265.819C126.338 272.425 121.553 277.782 115.65 277.782C109.748 277.782 110.989 272.426 110.989 265.819C110.989 259.211 109.747 253.856 115.65 253.856C121.553 253.855 126.338 259.211 126.338 265.819Z" fill="#221276"/>
</g>
<path d="M128.359 319.976C149.66 298.675 149.66 264.141 128.359 242.841C107.059 221.541 72.5246 221.541 51.2244 242.841C29.9242 264.141 29.9242 298.675 51.2244 319.976C72.5246 341.276 107.059 341.276 128.359 319.976Z" stroke="white" stroke-width="6.87931" stroke-miterlimit="10"/>
<path d="M429.911 346.921C429.911 349.85 427.538 352.223 424.609 352.223H231.619C228.69 352.223 226.317 349.85 226.317 346.921V232.665C226.317 229.737 228.691 227.363 231.619 227.363H424.609C427.538 227.363 429.911 229.738 429.911 232.665V346.921Z" fill="white"/>
<path d="M424.608 355.284H231.619C227.008 355.284 223.256 351.533 223.256 346.922V232.665C223.256 228.054 227.007 224.302 231.619 224.302H424.609C429.221 224.302 432.972 228.054 432.972 232.665V346.922C432.972 351.532 429.22 355.284 424.608 355.284ZM235.169 232.608C233.979 232.608 233.01 233.577 233.01 234.768V344.82C233.01 346.01 233.979 346.979 235.169 346.979H421.058C422.248 346.979 423.217 346.01 423.217 344.82V234.768C423.217 233.577 422.248 232.608 421.058 232.608H235.169Z" fill="#0B0542"/>
<path d="M181.62 344.626C181.345 345.47 181.191 346.369 181.191 347.303V352.873C181.191 357.64 185.056 361.506 189.823 361.506H466.404C471.172 361.506 475.036 357.64 475.036 352.873V347.303C475.036 346.368 474.882 345.47 474.607 344.626H181.62Z" fill="#362E82"/>
<path d="M293.957 344.626V350.368C293.957 353.511 296.506 356.061 299.65 356.061H356.579C359.723 356.061 362.272 353.512 362.272 350.368V344.626H293.957Z" fill="#0B0542"/>
<path d="M293.23 310.067H279.322C274.572 310.067 271.038 309.117 268.72 307.217C266.44 305.317 265.3 302.391 265.3 298.439V280.712C265.3 276.76 266.44 273.834 268.72 271.934C271.038 269.996 274.572 269.027 279.322 269.027H293.23C293.952 269.027 294.465 269.198 294.769 269.54C295.111 269.844 295.282 270.357 295.282 271.079V277.976C295.282 278.698 295.111 279.23 294.769 279.572C294.465 279.876 293.952 280.028 293.23 280.028H281.773C280.595 280.028 279.721 280.275 279.151 280.769C278.581 281.225 278.296 281.928 278.296 282.878V296.444C278.296 297.394 278.581 298.097 279.151 298.553C279.721 298.971 280.595 299.18 281.773 299.18H293.23C293.952 299.18 294.465 299.351 294.769 299.693C295.111 299.997 295.282 300.51 295.282 301.232V308.015C295.282 308.737 295.111 309.269 294.769 309.611C294.465 309.915 293.952 310.067 293.23 310.067ZM314.601 279.287V286.583H318.876C319.864 286.583 320.529 286.336 320.871 285.842C321.213 285.31 321.384 284.664 321.384 283.904V281.966C321.384 281.206 321.213 280.579 320.871 280.085C320.529 279.553 319.864 279.287 318.876 279.287H314.601ZM312.549 310.067H303.771C303.049 310.067 302.517 309.915 302.175 309.611C301.871 309.269 301.719 308.737 301.719 308.015V271.079C301.719 270.357 301.871 269.844 302.175 269.54C302.517 269.198 303.049 269.027 303.771 269.027H322.752C327.008 269.027 329.934 269.92 331.53 271.706C333.164 273.454 333.981 275.734 333.981 278.546V281.168C333.981 282.764 333.734 284.132 333.24 285.272C332.784 286.374 331.967 287.172 330.789 287.666C332.841 287.894 334.494 288.73 335.748 290.174C337.04 291.618 337.686 293.537 337.686 295.931V308.015C337.686 308.737 337.515 309.269 337.173 309.611C336.869 309.915 336.356 310.067 335.634 310.067H326.799C326.077 310.067 325.545 309.915 325.203 309.611C324.899 309.269 324.747 308.737 324.747 308.015V299.294C324.747 298.458 324.576 297.85 324.234 297.47C323.93 297.052 323.379 296.843 322.581 296.843H314.601V308.015C314.601 308.737 314.43 309.269 314.088 309.611C313.784 309.915 313.271 310.067 312.549 310.067ZM354.624 310.067H346.131C345.409 310.067 344.877 309.915 344.535 309.611C344.231 309.269 344.079 308.737 344.079 308.015V271.079C344.079 270.357 344.231 269.844 344.535 269.54C344.877 269.198 345.409 269.027 346.131 269.027H355.308C355.916 269.027 356.41 269.16 356.79 269.426C357.208 269.692 357.588 270.129 357.93 270.737L363.06 280.028C363.25 280.37 363.402 280.617 363.516 280.769C363.668 280.921 363.858 280.997 364.086 280.997H364.599C364.827 280.997 364.998 280.921 365.112 280.769C365.264 280.617 365.435 280.37 365.625 280.028L370.698 270.737C371.04 270.129 371.401 269.692 371.781 269.426C372.199 269.16 372.712 269.027 373.32 269.027H382.554C383.276 269.027 383.789 269.198 384.093 269.54C384.435 269.844 384.606 270.357 384.606 271.079V308.015C384.606 308.737 384.435 309.269 384.093 309.611C383.789 309.915 383.276 310.067 382.554 310.067H373.776C373.054 310.067 372.522 309.915 372.18 309.611C371.876 309.269 371.724 308.737 371.724 308.015V287.951L368.361 294.164C368.019 294.81 367.601 295.285 367.107 295.589C366.651 295.855 366.062 295.988 365.34 295.988H363.06C362.338 295.988 361.73 295.855 361.236 295.589C360.78 295.285 360.381 294.81 360.039 294.164L356.676 287.951V308.015C356.676 308.737 356.505 309.269 356.163 309.611C355.859 309.915 355.346 310.067 354.624 310.067Z" fill="#FF8A30"/>
</g>
</g>
<defs>
<clipPath id="clip0_169_20898">
<rect width="684" height="375" fill="white"/>
</clipPath>
<clipPath id="clip1_169_20898">
<rect width="684" height="349" fill="white" transform="translate(0.876953 13)"/>
</clipPath>
</defs>
</svg>
