<svg width="595" height="375" viewBox="0 0 595 375" fill="none" xmlns="http://www.w3.org/2000/svg">
<g clip-path="url(#clip0_169_21277)">
<rect width="594.246" height="375" fill="#48179C"/>
<path d="M444.235 333.851C433.901 344.49 424.655 350.744 417.576 355.465C348.535 401.51 269.612 388.239 245.212 383.703C205.844 376.384 172.612 371.222 144.06 345.456C79.1819 286.91 82.3375 164.778 131.913 89.1228C137.791 80.1522 187.291 6.86397 266.384 -3.46294C268.318 -3.71558 269.762 -3.85931 271.026 -3.99303C283.261 -5.28701 359.082 -12.116 420.907 39.6193C429.756 47.025 443.998 60.3829 457.205 80.756C505.496 155.249 505.649 270.622 444.235 333.851Z" fill="white"/>
<path d="M268.281 288.771L260.391 359.531H351.927L340.005 288.771H268.281Z" fill="url(#paint0_linear_169_21277)"/>
<path d="M109 109.377V276.137C109 289.855 119.932 301.073 133.645 301.427C194.554 302.997 407.584 306.806 465.565 305.951C475.53 305.804 483.603 297.829 483.891 287.867C485.009 249.126 486.825 155.968 480.105 112.719C478.69 103.611 471.002 96.8 461.789 96.5053C410.756 94.8727 184.93 89.6886 126.976 90.9902C116.981 91.2146 109 99.3791 109 109.377Z" fill="url(#paint1_linear_169_21277)"/>
<path d="M119.464 108.565V266.998C119.464 275.007 125.893 281.534 133.902 281.653L457.224 285.648C465.163 285.767 471.672 279.379 471.701 271.438L472.242 114.42C472.263 108.742 467.74 104.09 462.064 103.952L131.042 97.2646C124.694 97.1102 119.464 102.214 119.464 108.565Z" fill="url(#paint2_linear_169_21277)"/>
<path opacity="0.65" d="M474.136 292.213C474.133 292.213 474.13 292.213 474.127 292.213L119.455 286.17C119.168 286.165 118.939 285.928 118.944 285.641C118.949 285.355 119.183 285.128 119.473 285.13L474.144 291.173C474.431 291.179 474.66 291.415 474.655 291.702C474.65 291.986 474.418 292.213 474.136 292.213Z" fill="white"/>
<path d="M371.644 374.009H237.675C234.035 374.009 231.302 371.418 232.005 368.635L233.725 361.836C234.241 359.792 236.491 358.29 239.162 358.207L368.314 354.177C371.105 354.09 373.576 355.572 374.184 357.696L377.283 368.525C378.089 371.338 375.342 374.009 371.644 374.009Z" fill="url(#paint3_linear_169_21277)"/>
<path d="M119.464 108.565V266.998C119.464 275.007 125.893 281.534 133.902 281.653L457.224 285.648C465.163 285.767 471.672 279.379 471.701 271.438L472.242 114.42C472.263 108.742 467.74 104.09 462.064 103.952L131.042 97.2646C124.694 97.1102 119.464 102.214 119.464 108.565Z" fill="url(#paint4_linear_169_21277)"/>
<path d="M472.178 132.787L472.242 114.386C472.263 108.708 467.74 104.073 462.063 103.935L131.127 97.2563C124.778 97.1019 119.633 102.215 119.633 108.565V132.786L472.178 132.787Z" fill="url(#paint5_linear_169_21277)"/>
<path opacity="0.74" d="M144.445 119.67C144.92 117.631 143.653 115.593 141.614 115.118C139.576 114.643 137.538 115.91 137.063 117.949C136.587 119.987 137.855 122.025 139.893 122.501C141.932 122.976 143.97 121.708 144.445 119.67Z" fill="white"/>
<path opacity="0.74" d="M156.563 121.489C158.043 120.009 158.043 117.609 156.563 116.129C155.082 114.649 152.683 114.649 151.203 116.129C149.722 117.609 149.722 120.009 151.203 121.489C152.683 122.969 155.082 122.969 156.563 121.489Z" fill="white"/>
<path opacity="0.74" d="M168.302 122.205C170.176 121.273 170.94 118.998 170.008 117.124C169.076 115.249 166.801 114.486 164.926 115.418C163.052 116.35 162.288 118.625 163.22 120.499C164.153 122.374 166.428 123.137 168.302 122.205Z" fill="white"/>
<path opacity="0.42" d="M452.537 276.985L141.748 272.505C137.024 272.437 133.23 268.588 133.23 263.864V232.758C133.23 228.362 136.821 224.813 141.216 224.863L452.735 228.405C456.312 228.446 459.19 231.357 459.19 234.934V270.427C459.19 274.086 456.196 277.038 452.537 276.985Z" fill="white"/>
<path opacity="0.42" d="M340.648 220.975L141.978 218.117C137.127 218.048 133.23 214.095 133.23 209.243V147.74C133.23 144.267 136.046 141.451 139.519 141.451H339.325C343.313 141.451 346.546 144.684 346.546 148.672V215.161C346.546 218.405 343.891 221.022 340.648 220.975Z" fill="white"/>
<path opacity="0.42" d="M457.516 221.06H353.472C352.619 221.06 351.927 220.369 351.927 219.515V143.376C351.927 142.313 352.789 141.451 353.852 141.451H458.029C458.67 141.451 459.19 141.971 459.19 142.612V219.386C459.19 220.31 458.441 221.06 457.516 221.06Z" fill="white"/>
<path d="M367.08 374.274C367.08 374.274 333.102 371.681 329.795 350.037C327.137 332.642 338.763 351.257 353.323 363.395C354.466 364.348 355.948 362.715 354.889 361.67C344.482 351.407 329.677 334.911 333.288 327.243C338.737 315.668 339.266 322.377 348.789 337.32C358.313 352.264 363.839 352.275 358.916 341.516C353.993 330.757 338.013 319.971 339.802 313.177C341.59 306.383 348.907 297.744 351.625 293.478C354.344 289.212 374.507 303.512 373.493 312.401C372.479 321.29 364.643 333.958 367.288 341.517C369.934 349.076 374.674 335.05 376.618 327.164C378.562 319.277 381.078 314.794 386.05 323.671C391.021 332.548 384.588 344.28 378.002 350.74C371.416 357.2 369.542 363.143 373.024 360.235C376.506 357.326 386.476 347.496 387.805 342.392C389.133 337.288 399.187 358.543 367.08 374.274Z" fill="url(#paint6_linear_169_21277)"/>
<path opacity="0.53" d="M365.747 372.95C365.655 372.894 365.596 372.791 365.603 372.675C367.123 346.61 356.769 312.917 356.664 312.579C356.615 312.421 356.703 312.252 356.862 312.202C357.02 312.154 357.189 312.242 357.239 312.401C357.344 312.739 367.73 346.534 366.204 372.711C366.194 372.876 366.052 373.003 365.886 372.993C365.835 372.991 365.788 372.975 365.747 372.95Z" fill="white"/>
<path d="M367.992 374.038C367.992 374.038 341.566 351.96 351.55 332.215C359.575 316.346 358.21 338.483 363.062 357.015C363.443 358.469 365.621 357.996 365.363 356.515C362.827 341.964 360.332 319.705 367.803 315.517C379.08 309.194 375.577 315.023 374.639 332.905C373.701 350.787 378.24 354.04 380.506 342.301C382.772 330.561 375.959 312.309 381.418 307.77C386.877 303.232 397.967 300.421 402.707 298.507C407.448 296.593 415.639 320.192 409.587 326.909C403.535 333.626 389.653 339.445 387.392 347.216C385.131 354.986 397.263 346.232 403.492 340.886C409.72 335.54 414.421 333.33 413.3 343.549C412.179 353.769 400.001 359.643 390.791 361.091C381.581 362.539 376.551 366.327 381.122 365.979C385.694 365.63 399.665 363.397 403.754 359.979C407.843 356.56 403.636 379.945 367.992 374.038Z" fill="url(#paint7_linear_169_21277)"/>
<path opacity="0.53" d="M367.673 372.167C367.63 372.067 367.642 371.947 367.716 371.856C384.266 351.307 395.527 317.515 395.639 317.176C395.691 317.017 395.863 316.93 396.023 316.983C396.182 317.035 396.269 317.207 396.216 317.367C396.105 317.707 384.81 351.602 368.189 372.238C368.084 372.368 367.892 372.389 367.761 372.284C367.721 372.251 367.691 372.211 367.673 372.167Z" fill="white"/>
<path d="M220.961 172.132C245.363 172.132 265.145 152.35 265.145 127.947C265.145 103.545 245.363 83.7632 220.961 83.7632C196.558 83.7632 176.776 103.545 176.776 127.947C176.776 152.35 196.558 172.132 220.961 172.132Z" fill="url(#paint8_linear_169_21277)"/>
<path d="M220.961 170.662C244.551 170.662 263.676 151.538 263.676 127.947C263.676 104.357 244.551 85.2324 220.961 85.2324C197.37 85.2324 178.246 104.357 178.246 127.947C178.246 151.538 197.37 170.662 220.961 170.662Z" fill="url(#paint9_linear_169_21277)"/>
<path d="M181.585 126.306C181.577 126.306 181.569 126.306 181.561 126.306C181.312 126.292 181.121 126.08 181.134 125.831C181.222 124.153 181.417 122.468 181.714 120.822C181.758 120.577 181.991 120.414 182.238 120.458C182.483 120.502 182.646 120.737 182.602 120.982C182.312 122.591 182.121 124.238 182.035 125.878C182.023 126.119 181.823 126.306 181.585 126.306Z" fill="white"/>
<path d="M185.738 110.654C185.67 110.654 185.6 110.639 185.535 110.606C185.313 110.493 185.223 110.222 185.336 110C192.165 96.4701 205.816 88.0649 220.961 88.0649C223.376 88.0649 225.797 88.2827 228.155 88.7128C228.4 88.7573 228.563 88.9923 228.518 89.2377C228.474 89.4832 228.239 89.6472 227.993 89.6004C225.688 89.1804 223.322 88.9677 220.961 88.9677C206.158 88.9677 192.816 97.1827 186.141 110.406C186.062 110.564 185.903 110.654 185.738 110.654Z" fill="white"/>
<path opacity="0.78" d="M247.453 154.442C261.571 140.323 261.571 117.433 247.453 103.314C233.334 89.1956 210.444 89.1956 196.325 103.314C182.207 117.433 182.207 140.323 196.325 154.442C210.444 168.56 233.334 168.56 247.453 154.442Z" fill="white"/>
<path d="M219.906 109.774C214.367 104.771 205.756 105.276 200.753 110.815C195.749 116.353 196.111 124.979 201.65 129.983C206.528 134.39 214.014 134.272 218.736 130.853L222.467 134.224C222.511 135.224 222.794 136.44 223.643 137.207L236.078 148.44C237.65 149.861 240.018 149.355 241.439 147.783L241.521 147.691C242.942 146.119 242.907 144.042 241.334 142.621L228.9 131.388C228.051 130.621 226.812 130.463 226.291 129.992L222.559 126.621C225.483 121.577 224.784 114.181 219.906 109.774ZM204.178 128.12C199.907 124.262 199.572 117.671 203.431 113.4C207.289 109.128 213.88 108.794 218.151 112.652C222.423 116.511 222.757 123.102 218.898 127.373C215.04 131.644 208.449 131.979 204.178 128.12Z" fill="url(#paint10_linear_169_21277)"/>
<path d="M206.604 124.773C206.572 124.809 206.537 124.843 206.5 124.874C206.049 125.255 205.374 125.199 204.993 124.748C202.504 121.803 202.578 117.422 205.166 114.557C205.562 114.118 206.238 114.084 206.677 114.48C207.115 114.876 207.149 115.552 206.753 115.99C204.879 118.065 204.825 121.236 206.626 123.367C206.976 123.781 206.957 124.382 206.604 124.773Z" fill="url(#paint11_linear_169_21277)"/>
<path d="M294.892 94.3803C319.294 94.3803 339.076 74.5983 339.076 50.196C339.076 25.7937 319.294 6.01172 294.892 6.01172C270.49 6.01172 250.708 25.7937 250.708 50.196C250.708 74.5983 270.49 94.3803 294.892 94.3803Z" fill="url(#paint12_linear_169_21277)"/>
<path d="M294.892 92.911C318.483 92.911 337.607 73.7868 337.607 50.196C337.607 26.6051 318.483 7.48096 294.892 7.48096C271.301 7.48096 252.177 26.6051 252.177 50.196C252.177 73.7868 271.301 92.911 294.892 92.911Z" fill="url(#paint13_linear_169_21277)"/>
<path d="M255.516 48.5545C255.508 48.5545 255.5 48.5545 255.492 48.5541C255.243 48.541 255.052 48.3285 255.065 48.08C255.153 46.4019 255.348 44.7166 255.645 43.0705C255.689 42.8255 255.922 42.6624 256.169 42.7064C256.414 42.751 256.577 42.9854 256.533 43.2309C256.243 44.8393 256.052 46.4868 255.966 48.1266C255.954 48.3678 255.755 48.5545 255.516 48.5545Z" fill="white"/>
<path d="M259.669 32.9031C259.601 32.9031 259.531 32.8877 259.466 32.8546C259.244 32.7422 259.154 32.4707 259.267 32.2485C266.096 18.7186 279.747 10.3135 294.892 10.3135C297.307 10.3135 299.728 10.5312 302.086 10.9614C302.332 11.0058 302.494 11.2408 302.449 11.4863C302.405 11.7317 302.171 11.8957 301.924 11.8489C299.619 11.4289 297.253 11.2162 294.892 11.2162C280.089 11.2162 266.747 19.4314 260.072 32.655C259.993 32.8122 259.834 32.9031 259.669 32.9031Z" fill="white"/>
<path opacity="0.78" d="M321.384 76.6913C335.502 62.5728 335.502 39.6821 321.384 25.5636C307.265 11.4451 284.375 11.4451 270.256 25.5636C256.138 39.6821 256.138 62.5728 270.256 76.6913C284.375 90.8098 307.265 90.8098 321.384 76.6913Z" fill="white"/>
<path d="M320.404 47.3407L319.137 46.5379C318.794 46.3209 318.584 45.9488 318.566 45.5437C318.519 44.5243 318.355 43.5249 318.084 42.562C317.974 42.1711 318.056 41.7513 318.313 41.4371L319.265 40.2755C319.665 39.786 319.712 39.0959 319.379 38.5574L318.388 36.9495C318.056 36.4109 317.418 36.1423 316.801 36.2809L315.336 36.6092C314.94 36.698 314.528 36.5831 314.228 36.3093C313.489 35.6347 312.67 35.0392 311.78 34.5398C311.426 34.3412 311.188 33.9865 311.148 33.5829L310.999 32.0905C310.937 31.4608 310.481 30.9402 309.866 30.7943L308.028 30.3585C307.412 30.2125 306.771 30.4732 306.433 31.0076L305.63 32.2743C305.413 32.6169 305.041 32.8269 304.636 32.8455C303.616 32.8923 302.617 33.0565 301.654 33.3274C301.263 33.4374 300.843 33.3553 300.529 33.098L299.367 32.1469C298.878 31.746 298.188 31.6998 297.649 32.0319L296.041 33.0235C295.503 33.3556 295.234 33.9929 295.373 34.6102L295.701 36.0751C295.79 36.4714 295.675 36.8835 295.401 37.1834C294.726 37.9222 294.131 38.7414 293.632 39.6314C293.433 39.9852 293.078 40.2231 292.675 40.2632L291.182 40.4119C290.553 40.4746 290.032 40.9297 289.886 41.5454L289.45 43.3837C289.304 43.9993 289.565 44.6399 290.099 44.9785L291.366 45.7812C291.709 45.9983 291.919 46.3703 291.937 46.7754C291.984 47.7947 292.148 48.7943 292.419 49.7573C292.529 50.1482 292.447 50.5679 292.19 50.8822L291.238 52.0438C290.838 52.5333 290.792 53.2234 291.124 53.7618L292.115 55.3698C292.447 55.9083 293.085 56.1768 293.702 56.0384L295.167 55.71C295.563 55.6212 295.975 55.7362 296.275 56.0101C297.014 56.6846 297.833 57.2802 298.723 57.7796C299.077 57.9782 299.315 58.3328 299.355 58.7363L299.504 60.2288C299.566 60.8585 300.021 61.3789 300.637 61.525L302.475 61.9608C303.091 62.1068 303.731 61.8461 304.07 61.3116L304.873 60.0449C305.09 59.7023 305.462 59.4921 305.867 59.4735C306.886 59.4268 307.886 59.2626 308.849 58.9916C309.24 58.8814 309.66 58.9637 309.974 59.2211L311.135 60.1723C311.625 60.5731 312.315 60.6193 312.854 60.2872L314.462 59.2957C315 58.9636 315.269 58.3264 315.13 57.7089L314.802 56.2441C314.713 55.8476 314.828 55.4358 315.102 55.1357C315.777 54.397 316.372 53.5776 316.872 52.6878C317.07 52.3341 317.425 52.0961 317.828 52.0559L319.321 51.9074C319.95 51.8447 320.471 51.3894 320.617 50.7737L321.053 48.9357C321.199 48.3199 320.938 47.6793 320.404 47.3407ZM303.806 57.057C297.788 56.2588 293.556 50.7327 294.354 44.7141C295.152 38.6957 300.679 34.4638 306.697 35.262C312.716 36.0603 316.947 41.5863 316.149 47.6049C315.351 53.6234 309.825 57.8552 303.806 57.057ZM311.905 48.3799C310.589 52.0893 306.515 54.0299 302.806 52.7143C299.096 51.3985 297.156 47.325 298.472 43.6156C299.787 39.9061 303.861 37.9656 307.57 39.2813C311.28 40.5968 313.22 44.6705 311.905 48.3799Z" fill="url(#paint14_linear_169_21277)"/>
<path d="M300.336 61.8972C299.639 61.65 299.138 61.0201 299.063 60.2721L298.915 58.78C298.889 58.5243 298.737 58.2947 298.507 58.1661C297.598 57.6557 296.747 57.0405 295.977 56.3371C295.781 56.1586 295.515 56.086 295.265 56.1423L293.8 56.4705C292.998 56.6509 292.17 56.3015 291.738 55.602L290.747 53.9943C290.316 53.295 290.376 52.398 290.896 51.7623L291.847 50.6009C292.01 50.4021 292.064 50.1314 291.993 49.8768C291.71 48.8722 291.543 47.8354 291.495 46.7952C291.483 46.5321 291.346 46.2928 291.129 46.1556L289.862 45.3529C289.169 44.9129 288.83 44.0803 289.019 43.2811L289.455 41.4427C289.645 40.6435 290.321 40.0517 291.139 39.9701L292.631 39.8217C292.887 39.7962 293.116 39.6436 293.245 39.4139C293.754 38.5069 294.37 37.6556 295.074 36.8842C295.252 36.689 295.325 36.4227 295.269 36.172L294.94 34.707C294.761 33.9049 295.11 33.0764 295.809 32.6455L297.417 31.6539C298.116 31.2228 299.014 31.2835 299.649 31.8036L300.81 32.7546C301.009 32.9171 301.28 32.9717 301.534 32.9003C302.539 32.6173 303.576 32.45 304.616 32.4022C304.879 32.3902 305.118 32.2533 305.256 32.0365L306.059 30.7698C306.498 30.0759 307.331 29.7369 308.13 29.9266L309.968 30.3624C310.766 30.5528 311.36 31.2286 311.441 32.0461L311.589 33.5385C311.615 33.7939 311.767 34.0236 311.997 34.1528C312.905 34.6625 313.756 35.2777 314.527 35.9814C314.722 36.1593 314.988 36.2324 315.239 36.1762L316.704 35.8479C317.506 35.668 318.334 36.0169 318.765 36.7163L319.757 38.3243C320.188 39.0236 320.128 39.9205 319.608 40.5561L318.656 41.7177C318.494 41.9165 318.439 42.1872 318.511 42.4416C318.794 43.446 318.961 44.4827 319.009 45.523C319.021 45.7864 319.157 46.0257 319.374 46.163L320.641 46.9656C321.335 47.4057 321.674 48.2383 321.484 49.0375L321.049 50.8755C320.859 51.675 320.182 52.2668 319.365 52.3485L317.873 52.4971C317.617 52.5224 317.387 52.6747 317.258 52.9046C316.749 53.8119 316.134 54.6631 315.43 55.4344C315.251 55.6297 315.179 55.8961 315.235 56.1466L315.563 57.6117C315.743 58.4135 315.394 59.2419 314.695 59.6729L313.087 60.6647C312.387 61.0958 311.49 61.035 310.855 60.515L309.694 59.5641C309.495 59.4017 309.224 59.3467 308.969 59.4185C307.965 59.7013 306.928 59.8689 305.888 59.9166C305.625 59.9285 305.385 60.0654 305.248 60.2822L304.445 61.549C304.005 62.2429 303.173 62.5819 302.373 62.3921L300.535 61.9563C300.468 61.94 300.401 61.9203 300.336 61.8972ZM295.995 55.3342C296.206 55.4091 296.404 55.5264 296.575 55.6826C297.295 56.3402 298.091 56.9157 298.941 57.3928C299.423 57.6628 299.743 58.1488 299.797 58.6921L299.946 60.1845C299.989 60.6254 300.308 60.9906 300.74 61.0934L302.578 61.5292C303.01 61.6317 303.459 61.4485 303.696 61.0744L304.499 59.8075C304.792 59.3462 305.296 59.0561 305.848 59.0303C306.82 58.986 307.79 58.8291 308.73 58.5647C309.262 58.4149 309.833 58.5316 310.255 58.878L311.417 59.8291C311.76 60.1096 312.244 60.1427 312.622 59.9096L314.23 58.9179C314.607 58.6854 314.795 58.2383 314.699 57.8056L314.37 56.3409C314.251 55.8078 314.402 55.2456 314.775 54.8366C315.434 54.115 316.009 53.3191 316.486 52.4705C316.756 51.9889 317.242 51.6688 317.785 51.6144L319.277 51.466C319.719 51.4222 320.084 51.1028 320.186 50.6711L320.622 48.8334C320.724 48.4017 320.541 47.9524 320.167 47.7153L318.9 46.9127C318.439 46.6204 318.148 46.1161 318.123 45.564C318.079 44.5914 317.922 43.6218 317.658 42.682C317.508 42.1492 317.625 41.5789 317.971 41.1562L318.922 39.9948C319.203 39.6518 319.235 39.1678 319.002 38.7902L318.011 37.1823C317.778 36.8048 317.331 36.6165 316.899 36.7137L315.434 37.0417C314.9 37.1617 314.338 37.0103 313.93 36.6365C313.208 35.9784 312.413 35.403 311.563 34.9266C311.081 34.6558 310.762 34.1699 310.707 33.6269L310.559 32.1342C310.515 31.6929 310.194 31.329 309.764 31.2256L307.926 30.7899C307.495 30.6874 307.045 30.8706 306.808 31.2449L306.005 32.5116C305.713 32.9727 305.209 33.2632 304.657 33.2888C303.685 33.3333 302.715 33.4899 301.775 33.7545C301.242 33.9047 300.671 33.788 300.249 33.4411L299.087 32.49C298.744 32.2096 298.26 32.1768 297.882 32.4095L296.275 33.4009C295.897 33.6334 295.709 34.0808 295.806 34.5136L296.134 35.9783C296.254 36.5112 296.103 37.0735 295.729 37.4825C295.07 38.2038 294.495 39 294.019 39.8482C293.748 40.3302 293.262 40.6502 292.719 40.7046L291.227 40.853C290.786 40.8968 290.42 41.2162 290.318 41.6473L289.882 43.4857C289.78 43.9173 289.963 44.3667 290.337 44.6038L291.604 45.4066C292.065 45.6988 292.356 46.2029 292.381 46.7549C292.425 47.7275 292.582 48.6973 292.847 49.6371C292.997 50.17 292.88 50.7403 292.533 51.163L291.582 52.3245C291.301 52.6675 291.269 53.1515 291.502 53.529L292.493 55.1368C292.726 55.514 293.173 55.7026 293.606 55.6057L295.071 55.2775C295.381 55.2076 295.701 55.2298 295.995 55.3342ZM301.426 56.9381C296.445 55.1714 293.193 50.0999 293.915 44.6559C294.317 41.6275 295.874 38.9369 298.299 37.0797C300.725 35.2223 303.728 34.4208 306.756 34.8222C309.783 35.2241 312.475 36.7808 314.332 39.2061C316.189 41.6314 316.991 44.6348 316.589 47.6628C316.187 50.6912 314.631 53.3818 312.206 55.2392C309.78 57.0965 306.777 57.8979 303.748 57.4965C302.942 57.3895 302.165 57.2 301.426 56.9381ZM308.8 36.2205C308.108 35.9749 307.385 35.8004 306.639 35.7015C303.846 35.3309 301.075 36.0702 298.838 37.7836C296.601 39.4968 295.165 41.9788 294.794 44.7722C294.03 50.5388 298.098 55.8532 303.865 56.6172C306.659 56.9878 309.429 56.2485 311.666 54.5352C313.904 52.8218 315.34 50.3398 315.71 47.5464C316.081 44.7529 315.341 41.9822 313.628 39.7453C312.372 38.1051 310.702 36.8952 308.8 36.2205ZM302.658 53.1318C298.724 51.7365 296.659 47.401 298.054 43.4669C299.449 39.5331 303.785 37.4678 307.719 38.8631C311.653 40.2584 313.718 44.594 312.323 48.5277C310.927 52.462 306.592 54.527 302.658 53.1318ZM307.423 39.699C303.949 38.4672 300.122 40.2904 298.89 43.7634C297.658 47.2366 299.481 51.0642 302.954 52.2961C306.427 53.528 310.255 51.7046 311.487 48.2314C312.719 44.7584 310.896 40.9307 307.423 39.699Z" fill="url(#paint15_linear_169_21277)"/>
<path d="M286.868 66.2405L286.518 65.3008C286.424 65.0467 286.462 64.7637 286.616 64.5405C287.004 63.9792 287.32 63.3807 287.566 62.7587C287.665 62.5062 287.879 62.3158 288.143 62.2528L289.119 62.0193C289.53 61.921 289.834 61.5724 289.875 61.1514L289.997 59.8946C290.039 59.4736 289.808 59.0728 289.423 58.8968L288.511 58.4791C288.264 58.366 288.091 58.1383 288.042 57.8711C287.922 57.2135 287.727 56.565 287.455 55.9394C287.347 55.6906 287.364 55.4056 287.506 55.1745L288.03 54.3202C288.252 53.9597 288.22 53.4985 287.951 53.1718L287.149 52.1963C286.881 51.8697 286.434 51.7494 286.038 51.8968L285.098 52.2463C284.844 52.3409 284.561 52.3022 284.338 52.1482C283.776 51.7608 283.178 51.4441 282.556 51.1988C282.303 51.0992 282.113 50.8857 282.05 50.6216L281.817 49.6456C281.718 49.2342 281.37 48.9306 280.949 48.8895L279.692 48.7669C279.271 48.7259 278.87 48.9565 278.694 49.341L278.276 50.2535C278.163 50.5004 277.935 50.6731 277.668 50.722C277.011 50.8424 276.362 51.0375 275.737 51.3092C275.488 51.417 275.203 51.4003 274.972 51.2585L274.117 50.734C273.757 50.5128 273.296 50.5446 272.969 50.8132L271.994 51.6152C271.667 51.8838 271.547 52.3302 271.694 52.7265L272.044 53.6661C272.138 53.9201 272.099 54.2031 271.945 54.4263C271.558 54.9878 271.241 55.5861 270.996 56.2083C270.896 56.4608 270.683 56.651 270.419 56.7141L269.443 56.9477C269.032 57.046 268.728 57.3946 268.687 57.8157L268.564 59.0724C268.523 59.4934 268.754 59.8941 269.138 60.0701L270.051 60.4879C270.298 60.6009 270.47 60.8287 270.519 61.0958C270.64 61.7536 270.835 62.4019 271.106 63.0277C271.214 63.2764 271.198 63.5615 271.056 63.7926L270.531 64.6469C270.31 65.0074 270.342 65.4687 270.61 65.7953L271.412 66.7706C271.681 67.0974 272.127 67.2177 272.524 67.0702L273.463 66.7208C273.717 66.6263 274 66.6649 274.224 66.8189C274.785 67.2063 275.383 67.5232 276.005 67.7683C276.258 67.8679 276.448 68.0814 276.511 68.3455L276.745 69.3215C276.843 69.7329 277.192 70.0365 277.613 70.0776L278.87 70.2002C279.291 70.2413 279.691 70.0107 279.867 69.6261L280.285 68.7136C280.398 68.4667 280.626 68.294 280.893 68.2451C281.551 68.1247 282.199 67.9295 282.825 67.6579C283.074 67.5501 283.359 67.5668 283.59 67.7087L284.444 68.2332C284.805 68.4545 285.266 68.4226 285.592 68.154L286.568 67.3521C286.895 67.0832 287.015 66.6368 286.868 66.2405ZM274.104 64.699C271.224 61.8399 271.207 57.1872 274.066 54.3069C276.925 51.4265 281.577 51.4092 284.458 54.2682C287.338 57.1273 287.355 61.78 284.496 64.6604C281.637 67.5407 276.985 67.558 274.104 64.699Z" fill="url(#paint16_linear_169_21277)"/>
<path d="M277.274 70.32C276.864 70.1746 276.546 69.8302 276.442 69.3941L276.208 68.4181C276.169 68.256 276.051 68.1219 275.892 68.0591C275.241 67.8025 274.62 67.4719 274.047 67.076C273.906 66.9794 273.729 66.9558 273.573 67.0138L272.633 67.3632C272.112 67.5572 271.525 67.3989 271.172 66.9695L270.37 65.9939C270.017 65.5645 269.975 64.9575 270.266 64.4835L270.79 63.6292C270.877 63.4874 270.889 63.309 270.82 63.1522C270.543 62.5136 270.338 61.8405 270.213 61.1526C270.182 60.9836 270.073 60.8417 269.921 60.7723L269.009 60.3549C268.503 60.1232 268.2 59.5958 268.254 59.0425L268.376 57.7856C268.43 57.2321 268.83 56.7735 269.371 56.6439L270.347 56.4103C270.509 56.3715 270.643 56.2533 270.706 56.0939C270.962 55.4436 271.293 54.8229 271.689 54.2492C271.786 54.1084 271.809 53.9314 271.751 53.7755L271.402 52.8358C271.208 52.3148 271.366 51.7273 271.796 51.3741L272.771 50.572C273.201 50.2187 273.808 50.1766 274.282 50.468L275.136 50.9926C275.278 51.08 275.456 51.0912 275.613 51.0229C276.252 50.7452 276.925 50.5407 277.613 50.4149C277.781 50.3841 277.923 50.2752 277.993 50.1238L278.411 49.2113C278.642 48.7059 279.169 48.4023 279.723 48.4564L280.98 48.5789C281.533 48.6335 281.992 49.0328 282.121 49.5735L282.355 50.5493C282.394 50.7113 282.512 50.8454 282.671 50.9085C283.321 51.1644 283.942 51.4952 284.516 51.8912C284.657 51.9885 284.834 52.0116 284.99 51.9536L285.929 51.604C286.451 51.4102 287.038 51.569 287.391 51.998L288.193 52.9734C288.546 53.4029 288.588 54.0102 288.297 54.484L287.773 55.3383C287.686 55.4802 287.674 55.6582 287.742 55.815C288.02 56.4547 288.225 57.1276 288.35 57.8149C288.381 57.9837 288.49 58.1257 288.641 58.195L289.554 58.6126C290.06 58.8442 290.363 59.3717 290.309 59.9248L290.186 61.1819C290.132 61.7353 289.733 62.1941 289.192 62.3233L288.216 62.5567C288.054 62.5957 287.92 62.7141 287.857 62.8736C287.601 63.5235 287.27 64.1442 286.874 64.7181C286.777 64.8589 286.754 65.0359 286.812 65.1918L287.161 66.1316C287.355 66.6528 287.197 67.2403 286.767 67.5934L285.792 68.3954C285.362 68.7486 284.755 68.7908 284.281 68.4996L283.427 67.975C283.285 67.888 283.107 67.8766 282.95 67.9447C282.311 68.222 281.638 68.4266 280.95 68.5526C280.781 68.5836 280.639 68.6925 280.57 68.8439L280.152 69.7564C279.921 70.262 279.393 70.5653 278.84 70.5113L277.583 70.3889C277.476 70.3782 277.373 70.3548 277.274 70.32ZM274.132 66.4233C274.226 66.4568 274.317 66.5029 274.402 66.5614C274.936 66.9302 275.514 67.2384 276.121 67.4774C276.47 67.6148 276.73 67.9123 276.816 68.2728L277.05 69.2486C277.117 69.5301 277.355 69.7394 277.644 69.7663L278.901 69.8887C279.189 69.9169 279.463 69.7591 279.584 69.4958L280.001 68.5833C280.156 68.2465 280.468 68.0051 280.837 67.9373C281.479 67.82 282.106 67.6293 282.701 67.371C283.045 67.2218 283.438 67.2484 283.754 67.442L284.608 67.9666C284.855 68.1172 285.171 68.0962 285.395 67.9124L286.37 67.1104C286.594 66.9266 286.676 66.6208 286.575 66.3496L286.226 65.4099C286.096 65.0631 286.147 64.6716 286.359 64.3631C286.728 63.8284 287.036 63.25 287.275 62.6442C287.413 62.2949 287.71 62.0352 288.07 61.9488L289.046 61.7154C289.328 61.648 289.536 61.4091 289.564 61.1211L289.687 59.8644C289.715 59.5765 289.557 59.3017 289.294 59.1812L288.381 58.7636C288.044 58.6094 287.803 58.2967 287.735 57.9274C287.618 57.2869 287.428 56.6601 287.169 56.064C287.02 55.7204 287.046 55.3268 287.24 55.011L287.764 54.1567C287.916 53.91 287.894 53.5941 287.71 53.3704L286.908 52.3951C286.724 52.1713 286.418 52.0892 286.147 52.19L285.208 52.5395C284.861 52.6685 284.469 52.6183 284.161 52.4055C283.626 52.0364 283.047 51.7283 282.442 51.4899C282.093 51.3518 281.833 51.0547 281.747 50.6944L281.513 49.7186C281.446 49.4371 281.207 49.2281 280.919 49.2009L279.662 49.0784C279.374 49.0503 279.099 49.2081 278.979 49.4714L278.561 50.3839C278.407 50.7208 278.094 50.9621 277.725 51.0299C277.084 51.1468 276.458 51.3376 275.862 51.5963C275.518 51.7457 275.125 51.719 274.809 51.5252L273.954 51.0005C273.707 50.8492 273.392 50.8711 273.168 51.0548L272.193 51.8569C271.969 52.0408 271.887 52.3467 271.988 52.6179L272.337 53.5575C272.466 53.9044 272.416 54.2959 272.203 54.6044C271.835 55.1389 271.527 55.7173 271.288 56.3231C271.15 56.6724 270.853 56.9323 270.492 57.0186L269.516 57.252C269.235 57.3195 269.027 57.5583 268.999 57.8465L268.876 59.1032C268.848 59.3912 269.006 59.6659 269.269 59.7864L270.182 60.2039C270.519 60.3582 270.76 60.6708 270.828 61.04C270.945 61.6812 271.136 62.3082 271.394 62.9033C271.543 63.2471 271.517 63.6407 271.323 63.9562L270.799 64.8107C270.647 65.0573 270.669 65.3732 270.853 65.5967L271.655 66.5723C271.839 66.7957 272.144 66.8781 272.416 66.7771L273.355 66.4278C273.607 66.3342 273.882 66.3347 274.132 66.4233ZM276.709 66.6995C275.678 66.3339 274.711 65.7412 273.884 64.9209C270.886 61.9449 270.868 57.0848 273.844 54.0867C276.82 51.0884 281.68 51.0702 284.678 54.0463C287.676 57.0221 287.694 61.8823 284.718 64.8806C282.563 67.0523 279.418 67.6604 276.709 66.6995ZM274.325 64.4772C277.078 67.2102 281.542 67.1931 284.275 64.4402C287.008 61.6867 286.991 57.2231 284.238 54.49C281.485 51.7573 277.021 51.7734 274.288 54.527C271.555 57.2806 271.572 61.7442 274.325 64.4772Z" fill="url(#paint17_linear_169_21277)"/>
<path d="M294.892 253.155C319.294 253.155 339.076 233.374 339.076 208.971C339.076 184.569 319.294 164.787 294.892 164.787C270.49 164.787 250.708 184.569 250.708 208.971C250.708 233.374 270.49 253.155 294.892 253.155Z" fill="url(#paint18_linear_169_21277)"/>
<path d="M294.892 251.686C318.483 251.686 337.607 232.562 337.607 208.971C337.607 185.381 318.483 166.256 294.892 166.256C271.301 166.256 252.177 185.381 252.177 208.971C252.177 232.562 271.301 251.686 294.892 251.686Z" fill="url(#paint19_linear_169_21277)"/>
<path d="M255.516 207.33C255.508 207.33 255.5 207.33 255.492 207.33C255.243 207.316 255.052 207.104 255.065 206.855C255.153 205.177 255.348 203.492 255.645 201.846C255.689 201.601 255.922 201.438 256.169 201.482C256.414 201.526 256.577 201.761 256.533 202.006C256.243 203.615 256.052 205.262 255.966 206.902C255.954 207.143 255.754 207.33 255.516 207.33Z" fill="white"/>
<path d="M259.669 191.679C259.601 191.679 259.532 191.663 259.466 191.63C259.244 191.518 259.154 191.246 259.267 191.024C266.096 177.494 279.747 169.089 294.892 169.089C297.307 169.089 299.728 169.307 302.086 169.737C302.332 169.782 302.494 170.017 302.449 170.262C302.405 170.508 302.171 170.672 301.925 170.625C299.619 170.205 297.253 169.992 294.892 169.992C280.09 169.992 266.748 178.207 260.073 191.431C259.993 191.588 259.834 191.679 259.669 191.679Z" fill="white"/>
<path opacity="0.78" d="M321.383 235.466C335.501 221.347 335.501 198.457 321.383 184.338C307.264 170.219 284.374 170.22 270.255 184.338C256.137 198.457 256.137 221.347 270.255 235.466C284.374 249.584 307.264 249.584 321.383 235.466Z" fill="white"/>
<path d="M280.94 209.539C280.94 208.839 280.373 208.271 279.672 208.271H273.601C272.901 208.271 272.333 208.839 272.333 209.539V221.499C272.333 222.199 272.901 222.767 273.601 222.767H279.672C280.372 222.767 280.94 222.199 280.94 221.499V209.539Z" fill="url(#paint20_linear_169_21277)"/>
<path d="M292.718 203.196C292.718 202.496 292.15 201.929 291.45 201.929H285.379C284.678 201.929 284.111 202.496 284.111 203.196V221.499C284.111 222.199 284.678 222.766 285.379 222.766H291.45C292.15 222.766 292.718 222.199 292.718 221.499V203.196Z" fill="url(#paint21_linear_169_21277)"/>
<path d="M304.496 196.401C304.496 195.701 303.928 195.134 303.228 195.134H297.156C296.456 195.134 295.889 195.701 295.889 196.401V221.046C295.889 221.746 296.456 222.314 297.156 222.314H303.228C303.928 222.314 304.496 221.746 304.496 221.046V196.401Z" fill="url(#paint22_linear_169_21277)"/>
<path d="M316.274 190.966C316.274 190.265 315.706 189.698 315.006 189.698H308.935C308.235 189.698 307.667 190.265 307.667 190.966V221.046C307.667 221.746 308.235 222.314 308.935 222.314H315.006C315.706 222.314 316.274 221.746 316.274 221.046V190.966Z" fill="url(#paint23_linear_169_21277)"/>
<path d="M371.22 172.132C395.623 172.132 415.404 152.35 415.404 127.947C415.404 103.545 395.623 83.7632 371.22 83.7632C346.818 83.7632 327.036 103.545 327.036 127.947C327.036 152.35 346.818 172.132 371.22 172.132Z" fill="url(#paint24_linear_169_21277)"/>
<path d="M371.22 170.662C394.811 170.662 413.935 151.538 413.935 127.947C413.935 104.357 394.811 85.2324 371.22 85.2324C347.63 85.2324 328.505 104.357 328.505 127.947C328.505 151.538 347.63 170.662 371.22 170.662Z" fill="url(#paint25_linear_169_21277)"/>
<path d="M331.845 126.306C331.837 126.306 331.829 126.306 331.821 126.306C331.572 126.292 331.381 126.08 331.394 125.831C331.481 124.153 331.676 122.468 331.973 120.822C332.018 120.577 332.251 120.414 332.498 120.458C332.743 120.502 332.906 120.737 332.861 120.982C332.571 122.591 332.381 124.238 332.295 125.878C332.283 126.119 332.083 126.306 331.845 126.306Z" fill="white"/>
<path d="M335.998 110.654C335.929 110.654 335.86 110.639 335.795 110.606C335.572 110.493 335.483 110.222 335.595 110C342.425 96.4701 356.075 88.0649 371.221 88.0649C373.636 88.0649 376.056 88.2827 378.415 88.7128C378.66 88.7573 378.823 88.9923 378.778 89.2377C378.733 89.4832 378.499 89.6472 378.253 89.6004C375.948 89.1804 373.582 88.9677 371.221 88.9677C356.418 88.9677 343.076 97.1827 336.401 110.406C336.322 110.564 336.163 110.654 335.998 110.654Z" fill="white"/>
<path opacity="0.78" d="M397.712 154.443C411.83 140.324 411.83 117.434 397.712 103.315C383.593 89.1966 360.702 89.1966 346.584 103.315C332.465 117.434 332.465 140.324 346.584 154.443C360.702 168.561 383.593 168.561 397.712 154.443Z" fill="white"/>
<path d="M389.659 112.853V147.454C389.659 149.746 388.046 152.1 385.753 152.1H356.689C354.396 152.1 352.061 149.746 352.061 147.454V110.085C352.061 107.793 354.396 105.895 356.689 105.895H382.998L389.659 112.853Z" fill="url(#paint26_linear_169_21277)"/>
<path d="M361.244 120.234C361.244 121.54 360.186 122.599 358.88 122.599C357.574 122.599 356.516 121.54 356.516 120.234C356.516 118.929 357.574 117.87 358.88 117.87C360.186 117.87 361.244 118.929 361.244 120.234Z" fill="white"/>
<path d="M385.582 121.147C385.582 122.23 384.704 123.108 383.621 123.108H365.346C364.263 123.108 363.385 122.23 363.385 121.147V120.539C363.385 119.456 364.263 118.578 365.346 118.578H383.621C384.704 118.578 385.582 119.456 385.582 120.539V121.147Z" fill="white"/>
<path d="M361.244 128.539C361.244 129.845 360.186 130.903 358.88 130.903C357.574 130.903 356.516 129.845 356.516 128.539C356.516 127.233 357.574 126.175 358.88 126.175C360.186 126.175 361.244 127.233 361.244 128.539Z" fill="white"/>
<path d="M385.582 129.755C385.582 130.838 384.704 131.715 383.621 131.715H365.346C364.263 131.715 363.385 130.838 363.385 129.755V129.146C363.385 128.063 364.263 127.186 365.346 127.186H383.621C384.704 127.186 385.582 128.063 385.582 129.146V129.755Z" fill="white"/>
<path d="M361.244 136.843C361.244 138.149 360.186 139.207 358.88 139.207C357.574 139.207 356.516 138.149 356.516 136.843C356.516 135.537 357.574 134.479 358.88 134.479C360.186 134.479 361.244 135.537 361.244 136.843Z" fill="white"/>
<path d="M385.582 137.455C385.582 138.538 384.704 139.416 383.621 139.416H365.346C364.263 139.416 363.385 138.538 363.385 137.455V136.846C363.385 135.764 364.263 134.886 365.346 134.886H383.621C384.704 134.886 385.582 135.764 385.582 136.846V137.455Z" fill="white"/>
<path d="M389.904 113.142H385.752C384.225 113.142 383.317 111.612 383.317 110.085V105.919L383.165 106.078L389.904 113.142Z" fill="url(#paint27_linear_169_21277)"/>
<path d="M295.935 113.102C295.843 113.1 295.453 113.135 295.387 113.2C295.321 113.265 294.983 113.353 294.983 113.446V116.054C294.983 116.241 295.433 116.394 295.62 116.398C303.829 116.578 310.602 123.311 310.602 131.562C310.602 139.926 303.873 146.73 295.509 146.73C287.146 146.73 280.379 139.926 280.379 131.562C280.379 128.629 281.227 125.811 282.801 123.367L284.187 124.757C284.274 124.845 284.405 124.879 284.524 124.848C284.642 124.817 284.738 124.724 284.77 124.606L286.615 117.856C286.648 117.737 286.615 117.611 286.529 117.523C286.442 117.436 286.316 117.401 286.197 117.433L279.43 119.211C279.311 119.242 279.218 119.334 279.186 119.453C279.153 119.571 279.186 119.698 279.273 119.785L280.455 120.979C278.274 124.091 277.121 127.747 277.121 131.562C277.121 141.743 285.403 150.026 295.585 150.026C305.766 150.026 314.049 141.744 314.049 131.562C314.048 121.498 305.955 113.289 295.935 113.102Z" fill="url(#paint28_linear_169_21277)"/>
</g>
<defs>
<linearGradient id="paint0_linear_169_21277" x1="307.978" y1="395.55" x2="303.228" y2="301.493" gradientUnits="userSpaceOnUse">
<stop stop-color="#2B3582"/>
<stop offset="1" stop-color="#150E42"/>
</linearGradient>
<linearGradient id="paint1_linear_169_21277" x1="109" y1="198.428" x2="484.986" y2="198.428" gradientUnits="userSpaceOnUse">
<stop stop-color="#2B3582"/>
<stop offset="1" stop-color="#150E42"/>
</linearGradient>
<linearGradient id="paint2_linear_169_21277" x1="311.855" y1="-19.9775" x2="283.153" y2="350.448" gradientUnits="userSpaceOnUse">
<stop stop-color="#53D8FF"/>
<stop offset="1" stop-color="#3840F7"/>
</linearGradient>
<linearGradient id="paint3_linear_169_21277" x1="308.274" y1="360.059" x2="264.571" y2="456.016" gradientUnits="userSpaceOnUse">
<stop stop-color="#2B3582"/>
<stop offset="1" stop-color="#150E42"/>
</linearGradient>
<linearGradient id="paint4_linear_169_21277" x1="141.649" y1="277.633" x2="652.679" y2="-10.5015" gradientUnits="userSpaceOnUse">
<stop stop-color="#A737D5"/>
<stop offset="1" stop-color="#EF497A"/>
</linearGradient>
<linearGradient id="paint5_linear_169_21277" x1="286.642" y1="342.34" x2="300.451" y2="11.7353" gradientUnits="userSpaceOnUse">
<stop stop-color="#A737D5"/>
<stop offset="1" stop-color="#EF497A"/>
</linearGradient>
<linearGradient id="paint6_linear_169_21277" x1="416.723" y1="428.008" x2="355.572" y2="334.922" gradientUnits="userSpaceOnUse">
<stop stop-color="#A737D5"/>
<stop offset="1" stop-color="#EF497A"/>
</linearGradient>
<linearGradient id="paint7_linear_169_21277" x1="365.366" y1="363.515" x2="454.795" y2="249.695" gradientUnits="userSpaceOnUse">
<stop stop-color="#A737D5"/>
<stop offset="1" stop-color="#EF497A"/>
</linearGradient>
<linearGradient id="paint8_linear_169_21277" x1="242.633" y1="86.2786" x2="174.861" y2="216.58" gradientUnits="userSpaceOnUse">
<stop stop-color="#53D8FF"/>
<stop offset="1" stop-color="#3840F7"/>
</linearGradient>
<linearGradient id="paint9_linear_169_21277" x1="253.252" y1="79.1642" x2="78.004" y2="343.914" gradientUnits="userSpaceOnUse">
<stop stop-color="#53D8FF"/>
<stop offset="1" stop-color="#3840F7"/>
</linearGradient>
<linearGradient id="paint10_linear_169_21277" x1="208.55" y1="81.0409" x2="253.534" y2="287.719" gradientUnits="userSpaceOnUse">
<stop stop-color="#53D8FF"/>
<stop offset="1" stop-color="#3840F7"/>
</linearGradient>
<linearGradient id="paint11_linear_169_21277" x1="204.372" y1="114.525" x2="206.645" y2="124.97" gradientUnits="userSpaceOnUse">
<stop stop-color="#53D8FF"/>
<stop offset="1" stop-color="#3840F7"/>
</linearGradient>
<linearGradient id="paint12_linear_169_21277" x1="316.565" y1="8.52719" x2="248.792" y2="138.829" gradientUnits="userSpaceOnUse">
<stop stop-color="#53D8FF"/>
<stop offset="1" stop-color="#3840F7"/>
</linearGradient>
<linearGradient id="paint13_linear_169_21277" x1="327.183" y1="1.41267" x2="151.935" y2="266.163" gradientUnits="userSpaceOnUse">
<stop stop-color="#53D8FF"/>
<stop offset="1" stop-color="#3840F7"/>
</linearGradient>
<linearGradient id="paint14_linear_169_21277" x1="303.663" y1="15.2428" x2="309.534" y2="129.468" gradientUnits="userSpaceOnUse">
<stop stop-color="#53D8FF"/>
<stop offset="1" stop-color="#3840F7"/>
</linearGradient>
<linearGradient id="paint15_linear_169_21277" x1="303.663" y1="15.2426" x2="309.534" y2="129.469" gradientUnits="userSpaceOnUse">
<stop stop-color="#53D8FF"/>
<stop offset="1" stop-color="#3840F7"/>
</linearGradient>
<linearGradient id="paint16_linear_169_21277" x1="277.077" y1="16.6091" x2="282.948" y2="130.835" gradientUnits="userSpaceOnUse">
<stop stop-color="#53D8FF"/>
<stop offset="1" stop-color="#3840F7"/>
</linearGradient>
<linearGradient id="paint17_linear_169_21277" x1="277.078" y1="16.6092" x2="282.949" y2="130.835" gradientUnits="userSpaceOnUse">
<stop stop-color="#53D8FF"/>
<stop offset="1" stop-color="#3840F7"/>
</linearGradient>
<linearGradient id="paint18_linear_169_21277" x1="316.565" y1="167.303" x2="248.792" y2="297.604" gradientUnits="userSpaceOnUse">
<stop stop-color="#53D8FF"/>
<stop offset="1" stop-color="#3840F7"/>
</linearGradient>
<linearGradient id="paint19_linear_169_21277" x1="327.183" y1="160.188" x2="151.935" y2="424.938" gradientUnits="userSpaceOnUse">
<stop stop-color="#53D8FF"/>
<stop offset="1" stop-color="#3840F7"/>
</linearGradient>
<linearGradient id="paint20_linear_169_21277" x1="271.419" y1="170.552" x2="282.651" y2="267.355" gradientUnits="userSpaceOnUse">
<stop stop-color="#53D8FF"/>
<stop offset="1" stop-color="#3840F7"/>
</linearGradient>
<linearGradient id="paint21_linear_169_21277" x1="283.426" y1="169.352" x2="294.618" y2="265.814" gradientUnits="userSpaceOnUse">
<stop stop-color="#53D8FF"/>
<stop offset="1" stop-color="#3840F7"/>
</linearGradient>
<linearGradient id="paint22_linear_169_21277" x1="295.423" y1="167.619" x2="306.594" y2="263.898" gradientUnits="userSpaceOnUse">
<stop stop-color="#53D8FF"/>
<stop offset="1" stop-color="#3840F7"/>
</linearGradient>
<linearGradient id="paint23_linear_169_21277" x1="307.334" y1="166.046" x2="318.544" y2="262.663" gradientUnits="userSpaceOnUse">
<stop stop-color="#53D8FF"/>
<stop offset="1" stop-color="#3840F7"/>
</linearGradient>
<linearGradient id="paint24_linear_169_21277" x1="392.893" y1="86.2786" x2="325.12" y2="216.58" gradientUnits="userSpaceOnUse">
<stop stop-color="#53D8FF"/>
<stop offset="1" stop-color="#3840F7"/>
</linearGradient>
<linearGradient id="paint25_linear_169_21277" x1="403.512" y1="79.1642" x2="228.264" y2="343.914" gradientUnits="userSpaceOnUse">
<stop stop-color="#53D8FF"/>
<stop offset="1" stop-color="#3840F7"/>
</linearGradient>
<linearGradient id="paint26_linear_169_21277" x1="370.423" y1="105.49" x2="371.356" y2="158.223" gradientUnits="userSpaceOnUse">
<stop stop-color="#53D8FF"/>
<stop offset="1" stop-color="#3840F7"/>
</linearGradient>
<linearGradient id="paint27_linear_169_21277" x1="386.468" y1="105.838" x2="386.614" y2="114.122" gradientUnits="userSpaceOnUse">
<stop stop-color="#53D8FF"/>
<stop offset="1" stop-color="#3840F7"/>
</linearGradient>
<linearGradient id="paint28_linear_169_21277" x1="312.516" y1="98.5233" x2="399.5" y2="-61.8532" gradientUnits="userSpaceOnUse">
<stop stop-color="#FDF53F"/>
<stop offset="1" stop-color="#D93C65"/>
</linearGradient>
<clipPath id="clip0_169_21277">
<rect width="594.246" height="375" fill="white"/>
</clipPath>
</defs>
</svg>
