<svg width="718" height="375" viewBox="0 0 718 375" fill="none" xmlns="http://www.w3.org/2000/svg">
<path d="M220.618 202.265H147.516V318.373H220.618V202.265Z" fill="#B8D0FF"/>
<path d="M214.852 234.396C214.852 239.039 211.089 242.8 206.45 242.8H161.678C157.045 242.8 153.286 239.039 153.286 234.396C153.286 229.765 157.045 226.005 161.678 226.005H206.451C211.089 226.005 214.852 229.765 214.852 234.396Z" fill="#D2E3FF"/>
<path d="M214.852 253.498C214.852 258.131 211.089 261.892 206.45 261.892H161.678C157.045 261.892 153.286 258.131 153.286 253.498C153.286 248.86 157.045 245.103 161.678 245.103H206.451C211.089 245.103 214.852 248.86 214.852 253.498Z" fill="#D2E3FF"/>
<path d="M214.852 272.59C214.852 277.223 211.089 280.989 206.45 280.989H161.678C157.045 280.989 153.286 277.223 153.286 272.59C153.286 267.96 157.045 264.199 161.678 264.199H206.451C211.089 264.199 214.852 267.959 214.852 272.59Z" fill="#D2E3FF"/>
<path d="M214.852 291.686C214.852 296.324 211.089 300.08 206.45 300.08H161.678C157.045 300.08 153.286 296.324 153.286 291.686C153.286 287.046 157.045 283.291 161.678 283.291H206.451C211.089 283.291 214.852 287.046 214.852 291.686Z" fill="#D2E3FF"/>
<path d="M209.745 228.968H158.39V239.671H209.745V228.968Z" fill="#B8D0FF"/>
<path d="M209.745 248.144H158.39V258.849H209.745V248.144Z" fill="#B8D0FF"/>
<path d="M209.745 267.241H158.39V277.943H209.745V267.241Z" fill="#B8D0FF"/>
<path d="M209.745 286.337H158.39V297.034H209.745V286.337Z" fill="#B8D0FF"/>
<path d="M197.691 231.644H170.448V234.283H197.691V231.644Z" fill="#4E73A8"/>
<path d="M214.854 214.932C214.854 219.573 211.089 223.326 206.456 223.326H161.68C157.043 223.326 153.282 219.573 153.282 214.932C153.282 210.296 157.044 206.535 161.68 206.535H206.456C211.089 206.535 214.854 210.296 214.854 214.932Z" fill="#D2E3FF"/>
<path d="M209.744 209.498H158.393V220.2H209.744V209.498Z" fill="#B8D0FF"/>
<path d="M197.691 212.174H170.444V214.812H197.691V212.174Z" fill="#4E73A8"/>
<path d="M197.691 250.743H170.448V253.372H197.691V250.743Z" fill="#4E73A8"/>
<path d="M197.691 269.837H170.448V272.467H197.691V269.837Z" fill="#4E73A8"/>
<path d="M197.691 288.932H170.448V291.562H197.691V288.932Z" fill="#4E73A8"/>
<path d="M220.618 310.513H147.516V320.759H220.618V310.513Z" fill="#D2E3FF"/>
<path d="M160.066 216.638H206.828" stroke="#26395E" stroke-width="0.511205" stroke-miterlimit="10" stroke-linecap="round"/>
<path d="M159.806 236.642H207.868" stroke="#26395E" stroke-width="0.511205" stroke-miterlimit="10" stroke-linecap="round"/>
<path d="M160.326 256.125H209.426" stroke="#26395E" stroke-width="0.511205" stroke-miterlimit="10" stroke-linecap="round"/>
<path d="M160.847 275.609H207.867" stroke="#26395E" stroke-width="0.511205" stroke-miterlimit="10" stroke-linecap="round"/>
<path d="M160.586 294.055H207.868" stroke="#26395E" stroke-width="0.511205" stroke-miterlimit="10" stroke-linecap="round"/>
<path d="M520.56 331.874V153.95C520.56 144.427 512.832 136.707 503.307 136.707H213.094C203.565 136.707 195.841 144.427 195.841 153.95V331.874H520.56Z" fill="#2D4C7F"/>
<path d="M507.368 331.255V164.016C507.368 155.262 500.274 148.166 491.521 148.166H224.877C216.124 148.166 209.026 155.261 209.026 164.016V331.255H507.368Z" fill="#B8D0FF"/>
<path opacity="0.5" d="M491.521 148.166H224.877C221.642 148.166 218.633 149.14 216.124 150.807L507.367 330.027V164.016C507.368 155.262 500.274 148.166 491.521 148.166Z" fill="#B8D0FF"/>
<path d="M473.669 174.607H233.104V330.699H473.669V174.607Z" fill="white"/>
<path opacity="0.5" d="M300.777 180.108H233.104V330.698H300.777V180.108Z" fill="#B8D0FF"/>
<path d="M473.788 174.607H233.223V192.971H473.788V174.607Z" fill="#5D81EC"/>
<path d="M256.611 182.343H246.204V184.792H256.611V182.343Z" fill="white"/>
<path d="M273.598 182.343H263.192V184.792H273.598V182.343Z" fill="white"/>
<path d="M290.585 182.343H280.178V184.792H290.585V182.343Z" fill="white"/>
<path d="M306.12 254.686C306.12 240.286 317.175 229.981 332.053 229.981C340.31 229.981 347.202 232.985 351.707 238.444L344.61 244.996C341.402 241.311 337.376 239.398 332.599 239.398C323.659 239.398 317.312 245.676 317.312 254.685C317.312 263.693 323.659 269.972 332.599 269.972C337.376 269.972 341.402 268.061 344.61 264.308L351.707 270.858C347.203 276.387 340.311 279.39 331.985 279.39C317.175 279.391 306.12 269.086 306.12 254.686Z" fill="#FFBF00"/>
<path d="M389.576 278.571L380.364 265.264H379.817H370.195V278.571H359.139V230.8H379.818C392.581 230.8 400.566 237.42 400.566 248.133C400.566 255.299 396.948 260.554 390.738 263.216L401.452 278.571H389.576ZM379.202 239.809H370.194V256.46H379.202C385.957 256.46 389.37 253.321 389.37 248.134C389.371 242.879 385.959 239.809 379.202 239.809Z" fill="#FFBF00"/>
<path d="M452.765 278.572L452.699 249.91L438.64 273.522H433.658L419.668 250.524V278.573H409.293V230.802H418.438L436.318 260.487L453.927 230.802H463.002L463.14 278.573H452.765V278.572Z" fill="#FFBF00"/>
<path d="M354.432 196.078H305.004V213.97H354.432V196.078Z" fill="#B8D0FF"/>
<path d="M410.488 196.078H361.061V213.97H410.488V196.078Z" fill="#B8D0FF"/>
<path d="M466.545 196.078H417.118V213.97H466.545V196.078Z" fill="#B8D0FF"/>
<path d="M305.004 225.217H463.989" stroke="#B8D0FF" stroke-width="1.02241" stroke-miterlimit="10"/>
<path d="M306.538 286.05H465.523" stroke="#B8D0FF" stroke-width="1.02241" stroke-miterlimit="10"/>
<path d="M307.561 296.786H466.545" stroke="#B8D0FF" stroke-width="1.02241" stroke-miterlimit="10"/>
<path d="M307.049 309.054H466.034" stroke="#B8D0FF" stroke-width="1.02241" stroke-miterlimit="10"/>
<path d="M273.545 317.404L287.794 251.63H243.888L256.752 317.404H273.545Z" fill="#B8D0FF"/>
<path d="M284.727 267.066H246.897L251.669 291.003H279.274L284.727 267.066Z" fill="#B8D0FF"/>
<path d="M166.597 328.598V343.217C166.597 352.438 174.071 359.909 183.292 359.909H533.106C542.331 359.909 549.804 352.437 549.804 343.217V328.598H166.597Z" fill="#4E73A8"/>
<path d="M544.499 328.598V332.242C544.499 341.166 537.242 348.399 528.294 348.399H188.852C179.906 348.399 172.651 341.167 172.651 332.242V328.598H166.459V343.217C166.459 352.438 173.955 359.909 183.2 359.909H533.945C543.196 359.909 550.688 352.437 550.688 343.217V328.598H544.499Z" fill="#2D4C7F"/>
<path d="M482.69 91.9595H476.918V108.975H482.69V91.9595Z" fill="#B8D0FF"/>
<path d="M497.008 81.0098H491.227V108.976H497.008V81.0098Z" fill="#B8D0FF"/>
<path d="M511.316 76.8638H505.544V108.975H511.316V76.8638Z" fill="#B8D0FF"/>
<path d="M525.629 80.7437H519.851V108.974H525.629V80.7437Z" fill="#B8D0FF"/>
<path d="M539.937 78.2817H534.162V108.975H539.937V78.2817Z" fill="#B8D0FF"/>
<path d="M554.25 68.4932H548.473V108.975H554.25V68.4932Z" fill="#B8D0FF"/>
<path d="M488.331 86.2197H485.356V108.974H488.331V86.2197Z" fill="#B8D0FF"/>
<path d="M502.978 86.2197H500V108.974H502.978V86.2197Z" fill="#B8D0FF"/>
<path d="M517.381 86.2197H514.403V108.974H517.381V86.2197Z" fill="#B8D0FF"/>
<path d="M531.034 86.2197H528.056V108.974H531.034V86.2197Z" fill="#B8D0FF"/>
<path d="M546.431 86.2197H543.449V108.974H546.431V86.2197Z" fill="#B8D0FF"/>
<path d="M558.411 108.215H473.997V109.912H558.411V108.215Z" fill="#B8D0FF"/>
<path d="M475.168 61.3748V56.3231C475.168 55.1504 474.213 54.2026 473.052 54.2026H471.474C470.479 54.2026 469.577 53.5697 469.254 52.623C469.005 51.9104 468.713 51.2029 468.385 50.5352C467.941 49.6284 468.133 48.5518 468.837 47.8412L469.955 46.7309C470.782 45.9068 470.782 44.5623 469.955 43.728L466.373 40.1598C465.549 39.3337 464.205 39.3337 463.376 40.1598L462.261 41.2681C461.557 41.9736 460.475 42.1597 459.577 41.719C458.9 41.3929 458.2 41.1035 457.483 40.853C456.534 40.5238 455.903 39.6353 455.903 38.6323V37.0609C455.903 35.8913 454.958 34.9404 453.785 34.9404H448.735C447.561 34.9404 446.613 35.8923 446.613 37.0609V38.6323C446.613 39.6343 445.979 40.5238 445.033 40.853C444.319 41.1035 443.618 41.3918 442.94 41.719C442.04 42.1597 440.961 41.9736 440.258 41.2681L439.143 40.1598C438.312 39.3337 436.97 39.3337 436.144 40.1598L432.566 43.728C431.735 44.5613 431.735 45.9068 432.566 46.7309L433.673 47.8412C434.39 48.5507 434.57 49.6284 434.133 50.5352C433.797 51.2029 433.513 51.9104 433.266 52.623C432.94 53.5697 432.043 54.2026 431.043 54.2026H429.473C428.301 54.2026 427.349 55.1504 427.349 56.3231V61.3748C427.349 62.5465 428.302 63.4963 429.473 63.4963H431.043C432.043 63.4963 432.939 64.1292 433.266 65.0718C433.512 65.7886 433.797 66.4838 434.133 67.1668C434.57 68.0624 434.39 69.1482 433.673 69.8547L432.566 70.963C431.735 71.7983 431.735 73.1386 432.566 73.9668L436.144 77.5432C436.97 78.3673 438.312 78.3673 439.143 77.5432L440.258 76.4226C440.961 75.7223 442.04 75.5362 442.94 75.9748C443.618 76.301 444.319 76.5924 445.033 76.8449C445.979 77.1669 446.613 78.0667 446.613 79.0615V80.635C446.613 81.8087 447.561 82.7493 448.735 82.7493H453.785C454.958 82.7493 455.903 81.8077 455.903 80.635V79.0615C455.903 78.0667 456.534 77.1659 457.483 76.8449C458.2 76.5934 458.9 76.302 459.577 75.9748C460.475 75.5352 461.557 75.7223 462.261 76.4226L463.376 77.5432C464.204 78.3673 465.549 78.3673 466.373 77.5432L469.955 73.9668C470.782 73.1386 470.782 71.7993 469.955 70.963L468.837 69.8547C468.132 69.1492 467.941 68.0624 468.385 67.1668C468.712 66.4838 469.005 65.7886 469.254 65.0718C469.577 64.1292 470.479 63.4963 471.474 63.4963H473.052C474.213 63.4963 475.168 62.5465 475.168 61.3748ZM452.194 70.3219C445.102 70.8883 439.223 65.0074 439.785 57.917C440.228 52.3336 444.74 47.8126 450.332 47.3729C457.419 46.8188 463.289 52.6915 462.729 59.7809C462.296 65.3591 457.772 69.8854 452.194 70.3219Z" fill="#B8D0FF"/>
<path d="M256.815 50.2909V25.8369C244.445 25.8369 234.417 35.8698 234.417 48.241C234.417 60.6121 244.446 70.6297 256.815 70.6297C268.486 70.6297 278.071 61.702 279.115 50.2909H256.815Z" fill="#B8D0FF"/>
<path d="M286.554 46.407C286.554 46.3692 286.559 46.3191 286.559 46.2772C286.559 33.0145 275.811 22.271 262.552 22.271C262.035 22.271 261.529 22.2874 261.028 22.3201V46.407H286.554Z" fill="#B8D0FF"/>
<path d="M499.701 174.7C489.879 181.206 477.939 184.624 464.577 185.966C468.582 214.96 481.3 233.688 499.701 245.715C518.106 233.687 530.821 214.96 534.827 185.966C521.469 184.625 509.525 181.207 499.701 174.7Z" fill="#FFBF00"/>
<path d="M499.7 180.822C491.571 186.207 481.691 189.034 470.632 190.146C473.946 214.139 484.473 229.638 499.7 239.593C514.931 229.638 525.456 214.139 528.772 190.146C517.715 189.034 507.833 186.206 499.7 180.822Z" fill="#5D81EC"/>
<path opacity="0.5" d="M499.7 180.825C491.571 186.208 481.691 189.035 470.632 190.146C473.946 214.139 484.473 229.639 499.7 239.594V180.825Z" fill="#77A3E8"/>
<path d="M484.466 204.401L489.07 199.711L499.361 210.072L513.699 196.076L518.75 200.342C518.75 200.342 499.596 220.188 499.476 219.919C499.356 219.648 484.466 204.401 484.466 204.401Z" fill="white"/>
<path opacity="0.5" d="M499.701 209.739L499.362 210.072L489.071 199.71L484.467 204.4C484.467 204.4 499.356 219.647 499.478 219.918C499.485 219.935 499.566 219.875 499.702 219.751V209.739H499.701Z" fill="#BED1FA"/>
<path d="M384.638 130.766C382.108 124.368 375.877 119.836 368.578 119.836H350.55C343.253 119.836 337.017 124.369 334.491 130.766H384.638Z" fill="#FFBF00"/>
<path d="M387.849 130.766H331.277V137.212H387.849V130.766Z" fill="#FFA607"/>
<path d="M322.915 14.5149C318.327 14.5322 313.734 14.5455 309.14 14.5609C307.445 14.565 303.841 13.8575 302.199 15.1488C298.267 18.2344 300.234 28.574 300.559 32.6759C301.527 44.9152 313.926 59.4978 325.52 64.3062C328.736 65.6435 329.176 58.776 325.997 57.4581C321.643 55.6515 316.071 51.3154 313.034 47.917C305.654 38.4587 304.467 22.1114 307.61 19.9766C309.967 18.3775 319.799 19.9428 322.914 19.9326C326.403 19.9254 326.41 14.5026 322.915 14.5149Z" fill="#FFC530"/>
<path d="M396.828 14.5149C401.42 14.5322 406.015 14.5455 410.61 14.5609C412.301 14.565 415.905 13.8575 417.549 15.1488C421.477 18.2344 419.515 28.574 419.187 32.6759C418.219 44.9152 405.823 59.4978 394.226 64.3062C391.012 65.6435 390.574 58.776 393.751 57.4581C398.104 55.6515 403.675 51.3154 406.715 47.917C414.096 38.4587 415.281 22.1114 412.137 19.9766C409.776 18.3775 399.947 19.9428 396.828 19.9326C393.345 19.9254 393.335 14.5026 396.828 14.5149Z" fill="#FFA607"/>
<path d="M360.013 0H358.826H323.384V63.4875C323.384 78.1213 335.247 89.9853 349.879 89.9853H358.826H360.013H368.963C383.597 89.9853 395.461 78.1213 395.461 63.4875V0H360.013Z" fill="#FFBF00"/>
<path d="M365.665 89.9854H353.466V124.001H365.665V89.9854Z" fill="#FFBF00"/>
<path d="M368.231 75.1665C355.244 71.5523 349.912 57.3827 348.249 45.2989C346.188 30.3093 348.616 14.9057 346.061 0H323.384V63.4875C323.384 78.1213 335.247 89.9853 349.879 89.9853H368.963C382.995 89.9853 394.471 79.0772 395.395 65.2798C388.127 71.492 378.13 77.9219 368.231 75.1665Z" fill="#FFA607"/>
<path d="M359.565 28.0811L364.126 37.3267L374.33 38.8082L366.949 46.0039L368.688 56.1636L359.565 51.3664L350.442 56.1636L352.184 46.0039L344.801 38.8082L354.999 37.3267L359.565 28.0811Z" fill="white"/>
<path d="M327.971 3.86523H389.571" stroke="#26395E" stroke-width="0.511205" stroke-miterlimit="10"/>
<path d="M392.127 64.188C389.06 89.4926 361.71 85.6586 361.71 85.6586" stroke="#26395E" stroke-width="0.511205" stroke-miterlimit="10"/>
<path d="M485.422 99.8066H394.161V167.815H485.422V99.8066Z" fill="#EBF3FF"/>
<path d="M394.161 167.814L439.153 99.8066H394.161V167.814Z" fill="white"/>
<path d="M485.422 167.814V99.8066H439.153L485.422 167.814Z" fill="white"/>
<path d="M394.161 99.8066L439.791 144.103L485.422 99.8066H394.161Z" fill="#2E6ADB"/>
<path d="M394.161 99.8066L439.791 141.271L485.422 99.8066H394.161Z" fill="white"/>
<path d="M394.161 167.814L421.941 126.72" stroke="#26395E" stroke-width="0.511205" stroke-miterlimit="10"/>
<path d="M457.297 127.255L485.422 167.814" stroke="#26395E" stroke-width="0.511205" stroke-miterlimit="10"/>
<path d="M285.038 87.702C282.244 82.8139 276.356 79.4399 269.528 79.4399H228.133V87.702V92.493V154.242H320.12V87.702H285.038Z" fill="#4E73A8"/>
<path d="M312.378 91.1685H235.871V123.399H312.378V91.1685Z" fill="#EBF3FF"/>
<path d="M312.378 93.5537H235.871V125.787H312.378V93.5537Z" fill="white"/>
<path d="M312.378 96.3672H235.871V128.599H312.378V96.3672Z" fill="#EBF3FF"/>
<path d="M312.378 99.3291H235.871V131.563H312.378V99.3291Z" fill="white"/>
<path d="M321.01 160.806V113.33C321.01 107.25 316.084 102.319 310 102.319H238.252C232.17 102.319 227.24 107.249 227.24 113.33V160.806H321.01Z" fill="#CAE0FF"/>
<path d="M310.551 106.945H237.786" stroke="#26395E" stroke-width="0.511205" stroke-miterlimit="10"/>
<path opacity="0.2" d="M284.826 143.153C271.873 133.733 250.856 119.586 247.19 102.319H238.253C232.171 102.319 227.241 107.249 227.241 113.33V160.806H321.01V159.263C308.233 156.559 295.949 151.242 284.826 143.153Z" fill="#B8D0FF"/>
<path d="M240.87 111.313H183.914V186.456H240.87V111.313Z" fill="#2E6ADB"/>
<path d="M242.807 109.78H185.851V184.924H242.807V109.78Z" fill="white"/>
<path d="M192.179 121.782H234.482" stroke="#26395E" stroke-width="0.511205" stroke-miterlimit="10"/>
<path d="M192.179 129.861H234.482" stroke="#26395E" stroke-width="0.511205" stroke-miterlimit="10"/>
<path d="M192.179 137.939H234.482" stroke="#26395E" stroke-width="0.511205" stroke-miterlimit="10"/>
<path d="M192.179 146.019H234.482" stroke="#26395E" stroke-width="0.511205" stroke-miterlimit="10"/>
<path d="M192.179 154.097H234.482" stroke="#26395E" stroke-width="0.511205" stroke-miterlimit="10"/>
<path d="M192.179 162.175H234.482" stroke="#26395E" stroke-width="0.511205" stroke-miterlimit="10"/>
<path opacity="0.2" d="M218.405 167.306C200.212 154.529 193.518 131.533 193.147 109.78H185.85V184.924H242.806V175.713C234.336 174.608 225.501 172.29 218.405 167.306Z" fill="#B8D0FF"/>
<path d="M185.614 351.641C183.57 354.598 179.515 355.346 176.554 353.299C173.593 351.255 172.852 347.199 174.899 344.24L230.52 263.691C232.566 260.733 236.621 259.99 239.582 262.034C242.54 264.079 243.283 268.137 241.24 271.093L185.614 351.641Z" fill="#4E73A8"/>
<path d="M216.695 274.45L169.966 342.121C166.267 347.475 167.614 354.806 172.962 358.498C178.311 362.196 185.645 360.855 189.342 355.502L236.071 287.837L216.695 274.45Z" fill="#2E6ADB"/>
<path opacity="0.3" d="M184.595 359.248C179.25 355.556 177.901 348.225 181.599 342.869L224.922 280.136L216.695 274.449L169.966 342.12C166.267 347.474 167.614 354.805 172.962 358.497C176.587 361.001 181.121 361.189 184.819 359.386C184.745 359.337 184.668 359.296 184.595 359.248Z" fill="#0093CC"/>
<path d="M294.007 264.226C280.845 285.037 253.302 291.235 232.493 278.069C211.681 264.906 205.485 237.358 218.648 216.554C231.812 195.74 259.354 189.542 280.165 202.707C300.977 215.869 307.173 243.411 294.007 264.226Z" fill="#FFBF00"/>
<path d="M288.716 260.879C277.399 278.763 253.724 284.097 235.838 272.776C217.952 261.464 212.621 237.785 223.939 219.902C235.255 202.012 258.928 196.685 276.819 207.998C294.705 219.316 300.032 242.988 288.716 260.879Z" fill="#2E6ADB"/>
<path d="M286.619 259.431C276.023 276.17 253.869 281.162 237.127 270.566C220.385 259.976 215.393 237.819 225.988 221.077C236.579 204.334 258.736 199.346 275.482 209.938C292.226 220.534 297.207 242.689 286.619 259.431Z" fill="#B8D0FF"/>
<path opacity="0.4" d="M272.444 262.122C272.564 264.8 272.478 267.434 272.199 270.008C283.638 264.217 291.236 252.118 290.614 238.48C289.768 219.937 274.053 205.591 255.508 206.436C245.999 206.871 237.601 211.227 231.78 217.858C253.407 218.563 271.329 237.748 272.444 262.122Z" fill="white"/>
<mask id="mask0_169_21725" style="mask-type:luminance" maskUnits="userSpaceOnUse" x="220" y="204" width="73" height="73">
<path d="M286.619 259.431C276.023 276.17 253.869 281.162 237.127 270.566C220.385 259.976 215.393 237.819 225.988 221.077C236.579 204.334 258.736 199.346 275.482 209.938C292.226 220.534 297.207 242.689 286.619 259.431Z" fill="white"/>
</mask>
<g mask="url(#mask0_169_21725)">
<path d="M259.132 234.263C263.525 232.721 266.821 227.725 266.967 221.716C267.146 214.372 262.552 208.302 256.704 208.16C250.857 208.017 245.973 213.857 245.794 221.202C245.648 227.21 248.698 232.361 253.01 234.115C240.634 235.463 230.799 246.692 230.46 260.599L230.019 278.749L279.925 279.962L280.367 261.812C280.706 247.905 271.428 236.211 259.132 234.263Z" fill="#9FC4FF"/>
<path opacity="0.8" d="M252.761 234.156C240.503 235.627 230.798 246.788 230.46 260.599L230.019 278.75L279.925 279.962L280.076 273.771C263.343 269.265 255.38 252.382 252.761 234.156Z" fill="#B8D0FF"/>
<path d="M252.738 233.987C251.562 225.685 251.487 217.115 252.197 209.312C248.54 211.345 245.925 215.869 245.796 221.202C245.652 227.081 248.571 232.128 252.738 233.987Z" fill="#B8D0FF"/>
<path d="M252.385 243.867L251.203 251.671L254.581 266.821L258.384 251.942L257.891 243.905" stroke="#26395E" stroke-width="0.511205" stroke-miterlimit="10"/>
<path d="M252.516 238.494L252.387 243.773L257.889 243.907L258.018 238.628L252.516 238.494Z" stroke="#26395E" stroke-width="0.511205" stroke-miterlimit="10"/>
<path d="M253.067 237.235L250.04 241.171L245.709 236.468" stroke="#26395E" stroke-width="0.511205" stroke-miterlimit="10"/>
<path d="M257.417 237.241L259.685 241.211L265.002 236.447" stroke="#26395E" stroke-width="0.511205" stroke-miterlimit="10"/>
<path d="M241.975 238.333L253.655 279.128" stroke="#26395E" stroke-width="0.511205" stroke-miterlimit="10"/>
<path d="M267.906 237.594L255.928 278.988" stroke="#26395E" stroke-width="0.511205" stroke-miterlimit="10"/>
</g>
</svg>
